M48
;DRILL file {KiCad 4.0.7} date Fri Mar 30 10:44:35 2018
;FORMAT={-:-/ absolute / metric / decimal}
FMAT,2
METRIC,TZ
T1C0.400
T2C0.889
T3C0.990
T4C1.000
T5C1.200
T6C1.300
T7C0.500
T8C0.900
T9C0.991
T10C1.000
T11C1.600
T12C3.000
T13C3.200
%
G90
G05
M71
T1
X13.75Y63.75
X13.75Y3.75
X14.75Y74.5
X14.75Y14.5
X14.8Y107.3
X14.8Y47.3
X15.5Y64.
X15.5Y4.
X16.Y114.25
X16.Y111.25
X16.Y105.25
X16.Y104.25
X16.Y54.25
X16.Y51.25
X16.Y45.25
X16.Y44.25
X16.Y110.
X16.Y50.
X16.25Y76.25
X16.25Y74.
X16.25Y16.25
X16.25Y14.
X16.75Y101.5
X16.75Y41.5
X17.4Y109.1
X17.4Y49.1
X18.84Y67.25
X18.84Y7.25
X19.25Y64.
X19.25Y4.
X19.507Y106.14
X19.507Y46.14
X19.54Y111.76
X19.54Y111.
X19.54Y51.76
X19.54Y51.
X19.57Y104.41
X19.57Y44.41
X19.858Y113.17
X19.858Y53.17
X20.011Y103.151
X20.011Y43.151
X20.21Y105.
X20.21Y45.
X20.75Y114.55
X20.75Y54.55
X21.2Y108.5
X21.2Y48.5
X21.5Y103.
X21.5Y76.89
X21.5Y43.
X21.5Y16.89
X22.28Y105.156
X22.28Y45.156
X22.75Y116.25
X22.75Y56.25
X23.5Y114.5
X23.5Y54.5
X24.Y105.
X24.Y76.5
X24.Y45.
X24.Y16.5
X24.25Y64.75
X24.25Y4.75
X24.693Y109.307
X24.693Y49.307
X24.824Y76.89
X24.824Y16.89
X25.398Y116.425
X25.398Y56.425
X25.75Y96.75
X25.75Y36.75
X26.2Y108.9
X26.2Y100.2
X26.2Y48.9
X26.2Y40.2
X26.25Y116.25
X26.25Y56.25
X26.5Y93.
X26.5Y87.
X26.5Y81.
X26.5Y33.
X26.5Y27.
X26.5Y21.
X27.1Y97.6
X27.1Y37.6
X27.173Y112.785
X27.173Y52.785
X27.75Y69.25
X27.75Y9.25
X27.872Y112.487
X27.872Y52.487
X27.9Y97.7
X27.9Y37.7
X28.Y115.75
X28.Y55.75
X28.786Y112.389
X28.786Y52.389
X28.9Y99.9
X28.9Y39.9
X28.961Y111.648
X28.961Y51.648
X29.Y81.727
X29.Y21.727
X29.2Y101.4
X29.2Y41.4
X29.25Y67.
X29.25Y7.
X29.75Y114.75
X29.75Y54.75
X29.958Y97.498
X29.958Y37.498
X30.411Y114.344
X30.411Y54.344
X30.5Y108.4
X30.5Y93.
X30.5Y87.
X30.5Y81.
X30.5Y48.4
X30.5Y33.
X30.5Y27.
X30.5Y21.
X30.646Y97.82
X30.646Y37.82
X30.7Y100.5
X30.7Y40.5
X31.327Y103.21
X31.327Y43.21
X31.43Y80.68
X31.43Y20.68
X31.46Y102.441
X31.46Y42.441
X31.8Y109.6
X31.8Y49.6
X32.Y81.5
X32.Y21.5
X32.04Y101.25
X32.04Y41.25
X32.5Y67.75
X32.5Y7.75
X33.25Y103.75
X33.25Y43.75
X33.75Y101.75
X33.75Y41.75
X34.Y105.
X34.Y45.
X35.8Y101.06
X35.8Y41.06
X36.Y93.
X36.Y81.
X36.Y74.5
X36.Y33.
X36.Y21.
X36.Y14.5
X36.207Y68.301
X36.207Y8.301
X36.732Y71.551
X36.732Y11.551
X36.75Y72.75
X36.75Y12.75
X37.59Y62.
X37.59Y2.
X37.707Y63.551
X37.707Y3.551
X38.5Y109.
X38.5Y49.
X38.6Y94.4
X38.6Y34.4
X39.Y101.5
X39.Y61.75
X39.Y41.5
X39.Y1.75
X39.366Y113.786
X39.366Y53.786
X39.72Y94.436
X39.72Y34.436
X39.75Y107.75
X39.75Y105.75
X39.75Y47.75
X39.75Y45.75
X39.768Y101.532
X39.768Y41.532
X40.207Y72.051
X40.207Y12.051
X40.5Y63.
X40.5Y3.
X40.936Y101.493
X40.936Y41.493
X41.413Y99.123
X41.413Y39.123
X41.5Y76.5
X41.5Y16.5
X41.586Y101.1
X41.586Y41.1
X42.Y93.
X42.Y87.
X42.Y81.
X42.Y33.
X42.Y27.
X42.Y21.
X42.693Y102.233
X42.693Y42.233
X42.75Y105.
X42.75Y72.558
X42.75Y45.
X42.75Y12.558
X43.Y112.
X43.Y91.
X43.Y52.
X43.Y31.
X43.7Y99.8
X43.7Y39.8
X43.75Y76.25
X43.75Y16.25
X44.Y109.
X44.Y49.
X44.25Y72.5
X44.25Y12.5
X44.457Y69.801
X44.457Y67.301
X44.457Y65.301
X44.457Y9.801
X44.457Y7.301
X44.457Y5.301
X44.5Y79.75
X44.5Y19.75
X44.75Y113.895
X44.75Y104.25
X44.75Y53.895
X44.75Y44.25
X44.877Y102.345
X44.877Y42.345
X45.Y63.
X45.Y3.
X45.25Y105.
X45.25Y45.
X46.25Y116.
X46.25Y56.
X46.5Y109.
X46.5Y49.
X46.65Y110.1
X46.65Y50.1
X47.25Y116.
X47.25Y56.
X47.92Y71.25
X47.92Y11.25
X48.25Y116.
X48.25Y62.25
X48.25Y56.
X48.25Y2.25
X48.44Y69.52
X48.44Y9.52
X48.5Y68.76
X48.5Y68.
X48.5Y8.76
X48.5Y8.
X48.795Y63.66
X48.795Y3.66
X49.294Y113.783
X49.294Y53.783
X50.Y92.5
X50.Y71.25
X50.Y32.5
X50.Y11.25
X50.2Y100.825
X50.2Y40.825
X50.3Y73.1
X50.3Y13.1
X50.5Y87.
X50.5Y81.
X50.5Y27.
X50.5Y21.
X51.Y100.585
X51.Y40.585
X51.4Y95.8
X51.4Y35.8
X51.66Y76.311
X51.66Y75.5
X51.66Y16.311
X51.66Y15.5
X51.8Y99.8
X51.8Y39.8
X52.36Y86.025
X52.36Y26.025
X52.73Y85.25
X52.73Y25.25
X53.Y94.
X53.Y34.
X53.4Y98.2
X53.4Y38.2
X53.489Y75.96
X53.489Y15.96
X54.25Y90.
X54.25Y30.
X54.26Y75.581
X54.26Y15.581
X54.6Y108.5
X54.6Y48.5
X56.75Y91.5
X56.75Y31.5
X57.5Y105.5
X57.5Y103.5
X57.5Y92.
X57.5Y45.5
X57.5Y43.5
X57.5Y32.
X59.75Y106.5
X59.75Y46.5
X59.8Y74.8
X59.8Y14.8
X60.597Y68.35
X60.597Y8.35
X60.6Y69.6
X60.6Y9.6
X60.8Y72.
X60.8Y12.
X62.Y74.8
X62.Y14.8
X62.995Y72.74
X62.995Y12.74
X63.518Y70.968
X63.518Y10.968
X63.75Y104.75
X63.75Y44.75
X64.Y68.2
X64.Y8.2
X64.118Y72.118
X64.118Y12.118
X64.2Y69.
X64.2Y9.
X64.4Y74.8
X64.4Y14.8
X64.79Y71.5
X64.79Y11.5
X66.Y103.
X66.Y43.
X66.05Y104.75
X66.05Y44.75
X73.75Y63.75
X73.75Y3.75
X74.75Y74.5
X74.75Y14.5
X74.8Y107.3
X74.8Y47.3
X75.5Y64.
X75.5Y4.
X76.Y114.25
X76.Y111.25
X76.Y105.25
X76.Y104.25
X76.Y54.25
X76.Y51.25
X76.Y45.25
X76.Y44.25
X76.Y110.
X76.Y50.
X76.25Y76.25
X76.25Y74.
X76.25Y16.25
X76.25Y14.
X76.75Y101.5
X76.75Y41.5
X77.4Y109.1
X77.4Y49.1
X78.84Y67.25
X78.84Y7.25
X79.25Y64.
X79.25Y4.
X79.507Y106.14
X79.507Y46.14
X79.54Y111.76
X79.54Y111.
X79.54Y51.76
X79.54Y51.
X79.57Y104.41
X79.57Y44.41
X79.858Y113.17
X79.858Y53.17
X80.011Y103.151
X80.011Y43.151
X80.21Y105.
X80.21Y45.
X80.75Y114.55
X80.75Y54.55
X81.2Y108.5
X81.2Y48.5
X81.5Y103.
X81.5Y76.89
X81.5Y43.
X81.5Y16.89
X82.28Y105.156
X82.28Y45.156
X82.75Y116.25
X82.75Y56.25
X83.5Y114.5
X83.5Y54.5
X84.Y105.
X84.Y76.5
X84.Y45.
X84.Y16.5
X84.25Y64.75
X84.25Y4.75
X84.693Y109.307
X84.693Y49.307
X84.824Y76.89
X84.824Y16.89
X85.398Y116.425
X85.398Y56.425
X85.75Y96.75
X85.75Y36.75
X86.2Y108.9
X86.2Y100.2
X86.2Y48.9
X86.2Y40.2
X86.25Y116.25
X86.25Y56.25
X86.5Y93.
X86.5Y87.
X86.5Y81.
X86.5Y33.
X86.5Y27.
X86.5Y21.
X87.1Y97.6
X87.1Y37.6
X87.173Y112.785
X87.173Y52.785
X87.75Y69.25
X87.75Y9.25
X87.872Y112.487
X87.872Y52.487
X87.9Y97.7
X87.9Y37.7
X88.Y115.75
X88.Y55.75
X88.786Y112.389
X88.786Y52.389
X88.9Y99.9
X88.9Y39.9
X88.961Y111.648
X88.961Y51.648
X89.Y81.727
X89.Y21.727
X89.2Y101.4
X89.2Y41.4
X89.25Y67.
X89.25Y7.
X89.75Y114.75
X89.75Y54.75
X89.958Y97.498
X89.958Y37.498
X90.411Y114.344
X90.411Y54.344
X90.5Y108.4
X90.5Y93.
X90.5Y87.
X90.5Y81.
X90.5Y48.4
X90.5Y33.
X90.5Y27.
X90.5Y21.
X90.646Y97.82
X90.646Y37.82
X90.7Y100.5
X90.7Y40.5
X91.327Y103.21
X91.327Y43.21
X91.43Y80.68
X91.43Y20.68
X91.46Y102.441
X91.46Y42.441
X91.8Y109.6
X91.8Y49.6
X92.Y81.5
X92.Y21.5
X92.04Y101.25
X92.04Y41.25
X92.5Y67.75
X92.5Y7.75
X93.25Y103.75
X93.25Y43.75
X93.75Y101.75
X93.75Y41.75
X94.Y105.
X94.Y45.
X95.8Y101.06
X95.8Y41.06
X96.Y93.
X96.Y81.
X96.Y74.5
X96.Y33.
X96.Y21.
X96.Y14.5
X96.207Y68.301
X96.207Y8.301
X96.732Y71.551
X96.732Y11.551
X96.75Y72.75
X96.75Y12.75
X97.59Y62.
X97.59Y2.
X97.707Y63.551
X97.707Y3.551
X98.5Y109.
X98.5Y49.
X98.6Y94.4
X98.6Y34.4
X99.Y101.5
X99.Y61.75
X99.Y41.5
X99.Y1.75
X99.366Y113.786
X99.366Y53.786
X99.72Y94.436
X99.72Y34.436
X99.75Y107.75
X99.75Y105.75
X99.75Y47.75
X99.75Y45.75
X99.768Y101.532
X99.768Y41.532
X100.207Y72.051
X100.207Y12.051
X100.5Y63.
X100.5Y3.
X100.936Y101.493
X100.936Y41.493
X101.413Y99.123
X101.413Y39.123
X101.5Y76.5
X101.5Y16.5
X101.586Y101.1
X101.586Y41.1
X102.Y93.
X102.Y87.
X102.Y81.
X102.Y33.
X102.Y27.
X102.Y21.
X102.693Y102.233
X102.693Y42.233
X102.75Y105.
X102.75Y72.558
X102.75Y45.
X102.75Y12.558
X103.Y112.
X103.Y91.
X103.Y52.
X103.Y31.
X103.7Y99.8
X103.7Y39.8
X103.75Y76.25
X103.75Y16.25
X104.Y109.
X104.Y49.
X104.25Y72.5
X104.25Y12.5
X104.457Y69.801
X104.457Y67.301
X104.457Y65.301
X104.457Y9.801
X104.457Y7.301
X104.457Y5.301
X104.5Y79.75
X104.5Y19.75
X104.75Y113.895
X104.75Y104.25
X104.75Y53.895
X104.75Y44.25
X104.877Y102.345
X104.877Y42.345
X105.Y63.
X105.Y3.
X105.25Y105.
X105.25Y45.
X106.25Y116.
X106.25Y56.
X106.5Y109.
X106.5Y49.
X106.65Y110.1
X106.65Y50.1
X107.25Y116.
X107.25Y56.
X107.92Y71.25
X107.92Y11.25
X108.25Y116.
X108.25Y62.25
X108.25Y56.
X108.25Y2.25
X108.44Y69.52
X108.44Y9.52
X108.5Y68.76
X108.5Y68.
X108.5Y8.76
X108.5Y8.
X108.795Y63.66
X108.795Y3.66
X109.294Y113.783
X109.294Y53.783
X110.Y92.5
X110.Y71.25
X110.Y32.5
X110.Y11.25
X110.2Y100.825
X110.2Y40.825
X110.3Y73.1
X110.3Y13.1
X110.5Y87.
X110.5Y81.
X110.5Y27.
X110.5Y21.
X111.Y100.585
X111.Y40.585
X111.4Y95.8
X111.4Y35.8
X111.66Y76.311
X111.66Y75.5
X111.66Y16.311
X111.66Y15.5
X111.8Y99.8
X111.8Y39.8
X112.36Y86.025
X112.36Y26.025
X112.73Y85.25
X112.73Y25.25
X113.Y94.
X113.Y34.
X113.4Y98.2
X113.4Y38.2
X113.489Y75.96
X113.489Y15.96
X114.25Y90.
X114.25Y30.
X114.26Y75.581
X114.26Y15.581
X114.6Y108.5
X114.6Y48.5
X116.75Y91.5
X116.75Y31.5
X117.5Y105.5
X117.5Y103.5
X117.5Y92.
X117.5Y45.5
X117.5Y43.5
X117.5Y32.
X119.75Y106.5
X119.75Y46.5
X119.8Y74.8
X119.8Y14.8
X120.597Y68.35
X120.597Y8.35
X120.6Y69.6
X120.6Y9.6
X120.8Y72.
X120.8Y12.
X122.Y74.8
X122.Y14.8
X122.995Y72.74
X122.995Y12.74
X123.518Y70.968
X123.518Y10.968
X123.75Y104.75
X123.75Y44.75
X124.Y68.2
X124.Y8.2
X124.118Y72.118
X124.118Y12.118
X124.2Y69.
X124.2Y9.
X124.4Y74.8
X124.4Y14.8
X124.79Y71.5
X124.79Y11.5
X126.Y103.
X126.Y43.
X126.05Y104.75
X126.05Y44.75
T2
X32.21Y98.36
X32.21Y75.5
X32.21Y38.36
X32.21Y15.5
X34.75Y98.36
X34.75Y75.5
X34.75Y38.36
X34.75Y15.5
X37.29Y98.36
X37.29Y75.5
X37.29Y38.36
X37.29Y15.5
X39.83Y98.36
X39.83Y75.5
X39.83Y38.36
X39.83Y15.5
X42.37Y98.36
X42.37Y75.5
X42.37Y38.36
X42.37Y15.5
X44.91Y98.36
X44.91Y75.5
X44.91Y38.36
X44.91Y15.5
X47.45Y98.36
X47.45Y75.5
X47.45Y38.36
X47.45Y15.5
X49.99Y98.36
X49.99Y75.5
X49.99Y38.36
X49.99Y15.5
X92.21Y98.36
X92.21Y75.5
X92.21Y38.36
X92.21Y15.5
X94.75Y98.36
X94.75Y75.5
X94.75Y38.36
X94.75Y15.5
X97.29Y98.36
X97.29Y75.5
X97.29Y38.36
X97.29Y15.5
X99.83Y98.36
X99.83Y75.5
X99.83Y38.36
X99.83Y15.5
X102.37Y98.36
X102.37Y75.5
X102.37Y38.36
X102.37Y15.5
X104.91Y98.36
X104.91Y75.5
X104.91Y38.36
X104.91Y15.5
X107.45Y98.36
X107.45Y75.5
X107.45Y38.36
X107.45Y15.5
X109.99Y98.36
X109.99Y75.5
X109.99Y38.36
X109.99Y15.5
T3
X52.74Y114.75
X52.74Y108.25
X52.74Y54.75
X52.74Y48.25
X57.24Y114.75
X57.24Y108.25
X57.24Y54.75
X57.24Y48.25
X112.74Y114.75
X112.74Y108.25
X112.74Y54.75
X112.74Y48.25
X117.24Y114.75
X117.24Y108.25
X117.24Y54.75
X117.24Y48.25
T4
X13.75Y115.75
X13.75Y113.21
X13.75Y110.67
X13.75Y108.13
X13.75Y105.59
X13.75Y103.05
X13.75Y55.75
X13.75Y53.21
X13.75Y50.67
X13.75Y48.13
X13.75Y45.59
X13.75Y43.05
X14.Y62.
X14.Y2.
X16.54Y62.
X16.54Y2.
X19.08Y62.
X19.08Y2.
X25.67Y62.75
X25.67Y2.75
X28.21Y62.75
X28.21Y2.75
X30.75Y62.75
X30.75Y2.75
X33.29Y62.75
X33.29Y2.75
X35.83Y62.75
X35.83Y2.75
X58.75Y64.5
X58.75Y4.5
X61.29Y64.5
X61.29Y4.5
X63.83Y64.5
X63.83Y4.5
X66.37Y64.5
X66.37Y4.5
X73.75Y115.75
X73.75Y113.21
X73.75Y110.67
X73.75Y108.13
X73.75Y105.59
X73.75Y103.05
X73.75Y55.75
X73.75Y53.21
X73.75Y50.67
X73.75Y48.13
X73.75Y45.59
X73.75Y43.05
X74.Y62.
X74.Y2.
X76.54Y62.
X76.54Y2.
X79.08Y62.
X79.08Y2.
X85.67Y62.75
X85.67Y2.75
X88.21Y62.75
X88.21Y2.75
X90.75Y62.75
X90.75Y2.75
X93.29Y62.75
X93.29Y2.75
X95.83Y62.75
X95.83Y2.75
X118.75Y64.5
X118.75Y4.5
X121.29Y64.5
X121.29Y4.5
X123.83Y64.5
X123.83Y4.5
X126.37Y64.5
X126.37Y4.5
T5
X51.Y64.5
X51.Y4.5
X54.5Y64.5
X54.5Y4.5
X58.18Y76.37
X58.18Y61.13
X58.18Y16.37
X58.18Y1.13
X62.5Y112.75
X62.5Y52.75
X66.Y112.75
X66.Y52.75
X67.32Y76.37
X67.32Y61.13
X67.32Y16.37
X67.32Y1.13
X111.Y64.5
X111.Y4.5
X114.5Y64.5
X114.5Y4.5
X118.18Y76.37
X118.18Y61.13
X118.18Y16.37
X118.18Y1.13
X122.5Y112.75
X122.5Y52.75
X126.Y112.75
X126.Y52.75
X127.32Y76.37
X127.32Y61.13
X127.32Y16.37
X127.32Y1.13
T6
X27.6Y71.
X27.6Y67.5
X27.6Y64.3
X27.6Y11.
X27.6Y7.5
X27.6Y4.3
X33.9Y71.
X33.9Y64.3
X33.9Y11.
X33.9Y4.3
X51.49Y112.26
X51.49Y52.26
X58.5Y112.26
X58.5Y52.26
X87.6Y71.
X87.6Y67.5
X87.6Y64.3
X87.6Y11.
X87.6Y7.5
X87.6Y4.3
X93.9Y71.
X93.9Y64.3
X93.9Y11.
X93.9Y4.3
X111.49Y112.26
X111.49Y52.26
X118.5Y112.26
X118.5Y52.26
T7
X10.Y112.
X10.Y111.
X10.Y110.
X10.Y109.
X10.Y108.
X10.Y72.
X10.Y71.
X10.Y70.
X10.Y69.
X10.Y68.
X10.Y51.
X10.Y50.
X10.Y49.
X10.Y48.
X10.Y47.
X10.Y11.
X10.Y10.
X10.Y9.
X10.Y8.
X10.Y7.
X12.Y112.
X12.Y111.
X12.Y110.
X12.Y109.
X12.Y108.
X12.Y72.
X12.Y71.
X12.Y70.
X12.Y69.
X12.Y68.
X12.Y51.
X12.Y50.
X12.Y49.
X12.Y48.
X12.Y47.
X12.Y11.
X12.Y10.
X12.Y9.
X12.Y8.
X12.Y7.
X25.Y59.75
X25.Y57.75
X26.Y59.75
X26.Y57.75
X27.Y59.75
X27.Y57.75
X28.Y59.75
X28.Y57.75
X29.Y59.75
X29.Y57.75
X47.Y59.75
X47.Y57.75
X48.Y59.75
X48.Y57.75
X49.Y59.75
X49.Y57.75
X50.Y59.75
X50.Y57.75
X51.Y59.75
X51.Y57.75
X68.5Y111.
X68.5Y110.
X68.5Y109.
X68.5Y108.
X68.5Y107.
X68.5Y71.
X68.5Y70.
X68.5Y69.
X68.5Y68.
X68.5Y67.
X68.5Y51.
X68.5Y50.
X68.5Y49.
X68.5Y48.
X68.5Y47.
X68.5Y11.
X68.5Y10.
X68.5Y9.
X68.5Y8.
X68.5Y7.
X72.Y111.
X72.Y110.
X72.Y109.
X72.Y108.
X72.Y107.
X72.Y71.
X72.Y70.
X72.Y69.
X72.Y68.
X72.Y67.
X72.Y51.
X72.Y50.
X72.Y49.
X72.Y48.
X72.Y47.
X72.Y11.
X72.Y10.
X72.Y9.
X72.Y8.
X72.Y7.
X87.Y59.75
X87.Y57.75
X88.Y59.75
X88.Y57.75
X89.Y59.75
X89.Y57.75
X90.Y59.75
X90.Y57.75
X91.Y59.75
X91.Y57.75
X107.Y59.75
X107.Y57.75
X108.Y59.75
X108.Y57.75
X109.Y59.75
X109.Y57.75
X110.Y59.75
X110.Y57.75
X111.Y59.75
X111.Y57.75
T8
X23.25Y111.08
X23.25Y51.08
X28.25Y111.08
X28.25Y51.08
X83.25Y111.08
X83.25Y51.08
X88.25Y111.08
X88.25Y51.08
T9
X16.484Y108.71
X16.484Y48.71
X17.5Y113.79
X17.5Y53.79
X18.516Y108.71
X18.516Y48.71
X76.484Y108.71
X76.484Y48.71
X77.5Y113.79
X77.5Y53.79
X78.516Y108.71
X78.516Y48.71
T10
X38.45Y113.5
X38.45Y53.5
X46.43Y113.5
X46.43Y53.5
X98.45Y113.5
X98.45Y53.5
X106.43Y113.5
X106.43Y53.5
T11
X30.75Y71.
X30.75Y65.
X30.75Y11.
X30.75Y5.
X90.75Y71.
X90.75Y65.
X90.75Y11.
X90.75Y5.
T12
X5.Y103.
X5.Y103.
X5.Y13.
X5.Y13.
T13
X26.25Y102.75
X26.25Y42.75
X54.25Y102.75
X54.25Y42.75
X86.25Y102.75
X86.25Y42.75
X114.25Y102.75
X114.25Y42.75
T0
M30
