G04 #@! TF.FileFunction,Paste,Bot*
%FSLAX46Y46*%
G04 Gerber Fmt 4.6, Leading zero omitted, Abs format (unit mm)*
G04 Created by KiCad (PCBNEW 4.0.7) date Fri Mar 30 10:44:33 2018*
%MOMM*%
%LPD*%
G01*
G04 APERTURE LIST*
%ADD10C,0.100000*%
%ADD11R,0.600000X1.550000*%
%ADD12R,0.500000X0.900000*%
%ADD13R,0.800000X0.750000*%
%ADD14R,0.650000X0.400000*%
%ADD15R,0.400000X0.500000*%
%ADD16R,0.300000X0.500000*%
%ADD17R,0.450000X1.450000*%
%ADD18R,2.200000X1.500000*%
%ADD19R,0.500000X0.400000*%
%ADD20R,0.500000X0.300000*%
%ADD21R,1.600000X1.000000*%
%ADD22R,0.750000X0.800000*%
%ADD23R,1.100000X0.400000*%
%ADD24R,0.800000X2.200000*%
%ADD25R,2.750000X3.050000*%
%ADD26R,0.450000X0.600000*%
%ADD27R,0.900000X0.500000*%
%ADD28R,0.700000X0.450000*%
%ADD29R,1.100000X1.100000*%
%ADD30R,0.650000X1.060000*%
%ADD31R,1.000000X1.250000*%
%ADD32C,5.000000*%
G04 APERTURE END LIST*
D10*
D11*
X74345000Y72700000D03*
X75615000Y72700000D03*
X76885000Y72700000D03*
X78155000Y72700000D03*
X78155000Y67300000D03*
X76885000Y67300000D03*
X75615000Y67300000D03*
X74345000Y67300000D03*
D12*
X78250000Y65000000D03*
X76750000Y65000000D03*
D13*
X73750000Y65000000D03*
X75250000Y65000000D03*
D14*
X77300000Y103100000D03*
X77300000Y104400000D03*
X79200000Y103750000D03*
X77300000Y103750000D03*
X79200000Y104400000D03*
X79200000Y103100000D03*
D12*
X74000000Y75750000D03*
X75500000Y75750000D03*
D13*
X81500000Y114500000D03*
X83000000Y114500000D03*
D15*
X86000000Y114250000D03*
D16*
X85000000Y114250000D03*
X85500000Y114250000D03*
D15*
X84500000Y114250000D03*
D16*
X85500000Y115250000D03*
D15*
X86000000Y115250000D03*
D16*
X85000000Y115250000D03*
D15*
X84500000Y115250000D03*
D13*
X80000000Y114500000D03*
X78500000Y114500000D03*
D17*
X80325000Y112700000D03*
X80975000Y112700000D03*
X81625000Y112700000D03*
X82275000Y112700000D03*
X82925000Y112700000D03*
X83575000Y112700000D03*
X84225000Y112700000D03*
X84875000Y112700000D03*
X85525000Y112700000D03*
X86175000Y112700000D03*
X86175000Y106800000D03*
X85525000Y106800000D03*
X84875000Y106800000D03*
X84225000Y106800000D03*
X83575000Y106800000D03*
X82925000Y106800000D03*
X82275000Y106800000D03*
X81625000Y106800000D03*
X80975000Y106800000D03*
X80325000Y106800000D03*
D15*
X77500000Y106750000D03*
D16*
X78500000Y106750000D03*
X78000000Y106750000D03*
D15*
X79000000Y106750000D03*
D16*
X78000000Y105750000D03*
D15*
X77500000Y105750000D03*
D16*
X78500000Y105750000D03*
D15*
X79000000Y105750000D03*
D13*
X83250000Y104750000D03*
X81750000Y104750000D03*
D18*
X91750000Y112200000D03*
X91750000Y105800000D03*
D13*
X89000000Y114500000D03*
X87500000Y114500000D03*
D19*
X89800000Y101350000D03*
D20*
X89800000Y102350000D03*
X89800000Y101850000D03*
D19*
X89800000Y102850000D03*
D20*
X90800000Y101850000D03*
D19*
X90800000Y101350000D03*
D20*
X90800000Y102350000D03*
D19*
X90800000Y102850000D03*
D13*
X77500000Y101500000D03*
X79000000Y101500000D03*
D21*
X83000000Y61750000D03*
X83000000Y64750000D03*
D13*
X81500000Y76250000D03*
X83000000Y76250000D03*
X97706908Y62801016D03*
X99206908Y62801016D03*
D12*
X97706908Y67551016D03*
X99206908Y67551016D03*
D22*
X97706908Y64301016D03*
X97706908Y65801016D03*
X96206908Y67551016D03*
X96206908Y66051016D03*
X99206908Y65801016D03*
X99206908Y64301016D03*
D14*
X121250000Y68350000D03*
X121250000Y69650000D03*
X123150000Y69000000D03*
X121250000Y69000000D03*
X123150000Y69650000D03*
X123150000Y68350000D03*
D15*
X121450000Y72100000D03*
D16*
X122450000Y72100000D03*
X121950000Y72100000D03*
D15*
X122950000Y72100000D03*
D16*
X121950000Y71100000D03*
D15*
X121450000Y71100000D03*
D16*
X122450000Y71100000D03*
D15*
X122950000Y71100000D03*
D22*
X108750000Y64500000D03*
X108750000Y66000000D03*
D13*
X105700000Y63000000D03*
X107200000Y63000000D03*
D23*
X101511909Y64761016D03*
X101511909Y65411016D03*
X101511909Y66061016D03*
X101511909Y66711016D03*
X101511909Y67361016D03*
X101511909Y68011016D03*
X101511909Y68661016D03*
X101511909Y69311016D03*
X101511909Y69961016D03*
X101511909Y70611016D03*
X101511909Y71261016D03*
X101511909Y71911016D03*
X101511909Y72561016D03*
X101511909Y73211016D03*
X107211909Y73211016D03*
X107211909Y72561016D03*
X107211909Y71911016D03*
X107211909Y71261016D03*
X107211909Y70611016D03*
X107211909Y69961016D03*
X107211909Y69311016D03*
X107211909Y68661016D03*
X107211909Y68011016D03*
X107211909Y67361016D03*
X107211909Y66711016D03*
X107211909Y66061016D03*
X107211909Y65411016D03*
X107211909Y64761016D03*
D24*
X120280000Y90200000D03*
X119140000Y90200000D03*
X118000000Y90200000D03*
X116860000Y90200000D03*
X115720000Y90200000D03*
D25*
X116475000Y98175000D03*
X119525000Y94825000D03*
X119525000Y98175000D03*
X116475000Y94825000D03*
D26*
X114500000Y111550000D03*
X114500000Y109450000D03*
D27*
X109000000Y116250000D03*
X109000000Y114750000D03*
X110500000Y114750000D03*
X110500000Y116250000D03*
D28*
X109500000Y112150000D03*
X109500000Y110850000D03*
X107500000Y111500000D03*
D27*
X105750000Y110750000D03*
X105750000Y112250000D03*
X116250000Y111250000D03*
X116250000Y109750000D03*
X104750000Y116250000D03*
X104750000Y114750000D03*
X103250000Y114750000D03*
X103250000Y116250000D03*
D22*
X101750000Y116250000D03*
X101750000Y114750000D03*
X100250000Y111250000D03*
X100250000Y112750000D03*
D29*
X97000000Y112400000D03*
X97000000Y109600000D03*
D28*
X97750000Y114850000D03*
X97750000Y116150000D03*
X99750000Y115500000D03*
D30*
X102050000Y113100000D03*
X103000000Y113100000D03*
X103950000Y113100000D03*
X103950000Y110900000D03*
X102050000Y110900000D03*
X103000000Y110900000D03*
D22*
X99206908Y72051016D03*
X99206908Y70551016D03*
D31*
X97750000Y73750000D03*
X99750000Y73750000D03*
D12*
X97706908Y69051016D03*
X99206908Y69051016D03*
D22*
X97706908Y70551016D03*
X97706908Y72051016D03*
X96206908Y69051016D03*
X96206908Y70551016D03*
D21*
X105250000Y109000000D03*
X105250000Y106000000D03*
D31*
X96750000Y105750000D03*
X98750000Y105750000D03*
D21*
X102750000Y109000000D03*
X102750000Y106000000D03*
D31*
X96750000Y107750000D03*
X98750000Y107750000D03*
D27*
X96750000Y102850000D03*
X96750000Y101350000D03*
D14*
X92800000Y101450000D03*
X92800000Y102750000D03*
X94700000Y102100000D03*
X92800000Y102100000D03*
X94700000Y102750000D03*
X94700000Y101450000D03*
D11*
X14345000Y72700000D03*
X15615000Y72700000D03*
X16885000Y72700000D03*
X18155000Y72700000D03*
X18155000Y67300000D03*
X16885000Y67300000D03*
X15615000Y67300000D03*
X14345000Y67300000D03*
D12*
X18250000Y65000000D03*
X16750000Y65000000D03*
D13*
X13750000Y65000000D03*
X15250000Y65000000D03*
D14*
X17300000Y103100000D03*
X17300000Y104400000D03*
X19200000Y103750000D03*
X17300000Y103750000D03*
X19200000Y104400000D03*
X19200000Y103100000D03*
D12*
X14000000Y75750000D03*
X15500000Y75750000D03*
D13*
X21500000Y114500000D03*
X23000000Y114500000D03*
D15*
X26000000Y114250000D03*
D16*
X25000000Y114250000D03*
X25500000Y114250000D03*
D15*
X24500000Y114250000D03*
D16*
X25500000Y115250000D03*
D15*
X26000000Y115250000D03*
D16*
X25000000Y115250000D03*
D15*
X24500000Y115250000D03*
D13*
X20000000Y114500000D03*
X18500000Y114500000D03*
D17*
X20325000Y112700000D03*
X20975000Y112700000D03*
X21625000Y112700000D03*
X22275000Y112700000D03*
X22925000Y112700000D03*
X23575000Y112700000D03*
X24225000Y112700000D03*
X24875000Y112700000D03*
X25525000Y112700000D03*
X26175000Y112700000D03*
X26175000Y106800000D03*
X25525000Y106800000D03*
X24875000Y106800000D03*
X24225000Y106800000D03*
X23575000Y106800000D03*
X22925000Y106800000D03*
X22275000Y106800000D03*
X21625000Y106800000D03*
X20975000Y106800000D03*
X20325000Y106800000D03*
D15*
X17500000Y106750000D03*
D16*
X18500000Y106750000D03*
X18000000Y106750000D03*
D15*
X19000000Y106750000D03*
D16*
X18000000Y105750000D03*
D15*
X17500000Y105750000D03*
D16*
X18500000Y105750000D03*
D15*
X19000000Y105750000D03*
D13*
X23250000Y104750000D03*
X21750000Y104750000D03*
D18*
X31750000Y112200000D03*
X31750000Y105800000D03*
D13*
X29000000Y114500000D03*
X27500000Y114500000D03*
D19*
X29800000Y101350000D03*
D20*
X29800000Y102350000D03*
X29800000Y101850000D03*
D19*
X29800000Y102850000D03*
D20*
X30800000Y101850000D03*
D19*
X30800000Y101350000D03*
D20*
X30800000Y102350000D03*
D19*
X30800000Y102850000D03*
D13*
X17500000Y101500000D03*
X19000000Y101500000D03*
D21*
X23000000Y61750000D03*
X23000000Y64750000D03*
D13*
X21500000Y76250000D03*
X23000000Y76250000D03*
X37706908Y62801016D03*
X39206908Y62801016D03*
D12*
X37706908Y67551016D03*
X39206908Y67551016D03*
D22*
X37706908Y64301016D03*
X37706908Y65801016D03*
X36206908Y67551016D03*
X36206908Y66051016D03*
X39206908Y65801016D03*
X39206908Y64301016D03*
D14*
X61250000Y68350000D03*
X61250000Y69650000D03*
X63150000Y69000000D03*
X61250000Y69000000D03*
X63150000Y69650000D03*
X63150000Y68350000D03*
D15*
X61450000Y72100000D03*
D16*
X62450000Y72100000D03*
X61950000Y72100000D03*
D15*
X62950000Y72100000D03*
D16*
X61950000Y71100000D03*
D15*
X61450000Y71100000D03*
D16*
X62450000Y71100000D03*
D15*
X62950000Y71100000D03*
D22*
X48750000Y64500000D03*
X48750000Y66000000D03*
D13*
X45700000Y63000000D03*
X47200000Y63000000D03*
D23*
X41511909Y64761016D03*
X41511909Y65411016D03*
X41511909Y66061016D03*
X41511909Y66711016D03*
X41511909Y67361016D03*
X41511909Y68011016D03*
X41511909Y68661016D03*
X41511909Y69311016D03*
X41511909Y69961016D03*
X41511909Y70611016D03*
X41511909Y71261016D03*
X41511909Y71911016D03*
X41511909Y72561016D03*
X41511909Y73211016D03*
X47211909Y73211016D03*
X47211909Y72561016D03*
X47211909Y71911016D03*
X47211909Y71261016D03*
X47211909Y70611016D03*
X47211909Y69961016D03*
X47211909Y69311016D03*
X47211909Y68661016D03*
X47211909Y68011016D03*
X47211909Y67361016D03*
X47211909Y66711016D03*
X47211909Y66061016D03*
X47211909Y65411016D03*
X47211909Y64761016D03*
D24*
X60280000Y90200000D03*
X59140000Y90200000D03*
X58000000Y90200000D03*
X56860000Y90200000D03*
X55720000Y90200000D03*
D25*
X56475000Y98175000D03*
X59525000Y94825000D03*
X59525000Y98175000D03*
X56475000Y94825000D03*
D26*
X54500000Y111550000D03*
X54500000Y109450000D03*
D27*
X49000000Y116250000D03*
X49000000Y114750000D03*
X50500000Y114750000D03*
X50500000Y116250000D03*
D28*
X49500000Y112150000D03*
X49500000Y110850000D03*
X47500000Y111500000D03*
D27*
X45750000Y110750000D03*
X45750000Y112250000D03*
X56250000Y111250000D03*
X56250000Y109750000D03*
X44750000Y116250000D03*
X44750000Y114750000D03*
X43250000Y114750000D03*
X43250000Y116250000D03*
D22*
X41750000Y116250000D03*
X41750000Y114750000D03*
X40250000Y111250000D03*
X40250000Y112750000D03*
D29*
X37000000Y112400000D03*
X37000000Y109600000D03*
D28*
X37750000Y114850000D03*
X37750000Y116150000D03*
X39750000Y115500000D03*
D30*
X42050000Y113100000D03*
X43000000Y113100000D03*
X43950000Y113100000D03*
X43950000Y110900000D03*
X42050000Y110900000D03*
X43000000Y110900000D03*
D22*
X39206908Y72051016D03*
X39206908Y70551016D03*
D31*
X37750000Y73750000D03*
X39750000Y73750000D03*
D12*
X37706908Y69051016D03*
X39206908Y69051016D03*
D22*
X37706908Y70551016D03*
X37706908Y72051016D03*
X36206908Y69051016D03*
X36206908Y70551016D03*
D21*
X45250000Y109000000D03*
X45250000Y106000000D03*
D31*
X36750000Y105750000D03*
X38750000Y105750000D03*
D21*
X42750000Y109000000D03*
X42750000Y106000000D03*
D31*
X36750000Y107750000D03*
X38750000Y107750000D03*
D27*
X36750000Y102850000D03*
X36750000Y101350000D03*
D14*
X32800000Y101450000D03*
X32800000Y102750000D03*
X34700000Y102100000D03*
X32800000Y102100000D03*
X34700000Y102750000D03*
X34700000Y101450000D03*
D11*
X74345000Y12700000D03*
X75615000Y12700000D03*
X76885000Y12700000D03*
X78155000Y12700000D03*
X78155000Y7300000D03*
X76885000Y7300000D03*
X75615000Y7300000D03*
X74345000Y7300000D03*
D12*
X78250000Y5000000D03*
X76750000Y5000000D03*
D13*
X73750000Y5000000D03*
X75250000Y5000000D03*
D14*
X77300000Y43100000D03*
X77300000Y44400000D03*
X79200000Y43750000D03*
X77300000Y43750000D03*
X79200000Y44400000D03*
X79200000Y43100000D03*
D12*
X74000000Y15750000D03*
X75500000Y15750000D03*
D13*
X81500000Y54500000D03*
X83000000Y54500000D03*
D15*
X86000000Y54250000D03*
D16*
X85000000Y54250000D03*
X85500000Y54250000D03*
D15*
X84500000Y54250000D03*
D16*
X85500000Y55250000D03*
D15*
X86000000Y55250000D03*
D16*
X85000000Y55250000D03*
D15*
X84500000Y55250000D03*
D13*
X80000000Y54500000D03*
X78500000Y54500000D03*
D17*
X80325000Y52700000D03*
X80975000Y52700000D03*
X81625000Y52700000D03*
X82275000Y52700000D03*
X82925000Y52700000D03*
X83575000Y52700000D03*
X84225000Y52700000D03*
X84875000Y52700000D03*
X85525000Y52700000D03*
X86175000Y52700000D03*
X86175000Y46800000D03*
X85525000Y46800000D03*
X84875000Y46800000D03*
X84225000Y46800000D03*
X83575000Y46800000D03*
X82925000Y46800000D03*
X82275000Y46800000D03*
X81625000Y46800000D03*
X80975000Y46800000D03*
X80325000Y46800000D03*
D15*
X77500000Y46750000D03*
D16*
X78500000Y46750000D03*
X78000000Y46750000D03*
D15*
X79000000Y46750000D03*
D16*
X78000000Y45750000D03*
D15*
X77500000Y45750000D03*
D16*
X78500000Y45750000D03*
D15*
X79000000Y45750000D03*
D13*
X83250000Y44750000D03*
X81750000Y44750000D03*
D18*
X91750000Y52200000D03*
X91750000Y45800000D03*
D13*
X89000000Y54500000D03*
X87500000Y54500000D03*
D19*
X89800000Y41350000D03*
D20*
X89800000Y42350000D03*
X89800000Y41850000D03*
D19*
X89800000Y42850000D03*
D20*
X90800000Y41850000D03*
D19*
X90800000Y41350000D03*
D20*
X90800000Y42350000D03*
D19*
X90800000Y42850000D03*
D13*
X77500000Y41500000D03*
X79000000Y41500000D03*
D21*
X83000000Y1750000D03*
X83000000Y4750000D03*
D13*
X81500000Y16250000D03*
X83000000Y16250000D03*
X97706908Y2801016D03*
X99206908Y2801016D03*
D12*
X97706908Y7551016D03*
X99206908Y7551016D03*
D22*
X97706908Y4301016D03*
X97706908Y5801016D03*
X96206908Y7551016D03*
X96206908Y6051016D03*
X99206908Y5801016D03*
X99206908Y4301016D03*
D14*
X121250000Y8350000D03*
X121250000Y9650000D03*
X123150000Y9000000D03*
X121250000Y9000000D03*
X123150000Y9650000D03*
X123150000Y8350000D03*
D15*
X121450000Y12100000D03*
D16*
X122450000Y12100000D03*
X121950000Y12100000D03*
D15*
X122950000Y12100000D03*
D16*
X121950000Y11100000D03*
D15*
X121450000Y11100000D03*
D16*
X122450000Y11100000D03*
D15*
X122950000Y11100000D03*
D22*
X108750000Y4500000D03*
X108750000Y6000000D03*
D13*
X105700000Y3000000D03*
X107200000Y3000000D03*
D23*
X101511909Y4761016D03*
X101511909Y5411016D03*
X101511909Y6061016D03*
X101511909Y6711016D03*
X101511909Y7361016D03*
X101511909Y8011016D03*
X101511909Y8661016D03*
X101511909Y9311016D03*
X101511909Y9961016D03*
X101511909Y10611016D03*
X101511909Y11261016D03*
X101511909Y11911016D03*
X101511909Y12561016D03*
X101511909Y13211016D03*
X107211909Y13211016D03*
X107211909Y12561016D03*
X107211909Y11911016D03*
X107211909Y11261016D03*
X107211909Y10611016D03*
X107211909Y9961016D03*
X107211909Y9311016D03*
X107211909Y8661016D03*
X107211909Y8011016D03*
X107211909Y7361016D03*
X107211909Y6711016D03*
X107211909Y6061016D03*
X107211909Y5411016D03*
X107211909Y4761016D03*
D24*
X120280000Y30200000D03*
X119140000Y30200000D03*
X118000000Y30200000D03*
X116860000Y30200000D03*
X115720000Y30200000D03*
D25*
X116475000Y38175000D03*
X119525000Y34825000D03*
X119525000Y38175000D03*
X116475000Y34825000D03*
D26*
X114500000Y51550000D03*
X114500000Y49450000D03*
D27*
X109000000Y56250000D03*
X109000000Y54750000D03*
X110500000Y54750000D03*
X110500000Y56250000D03*
D28*
X109500000Y52150000D03*
X109500000Y50850000D03*
X107500000Y51500000D03*
D27*
X105750000Y50750000D03*
X105750000Y52250000D03*
X116250000Y51250000D03*
X116250000Y49750000D03*
X104750000Y56250000D03*
X104750000Y54750000D03*
X103250000Y54750000D03*
X103250000Y56250000D03*
D22*
X101750000Y56250000D03*
X101750000Y54750000D03*
X100250000Y51250000D03*
X100250000Y52750000D03*
D29*
X97000000Y52400000D03*
X97000000Y49600000D03*
D28*
X97750000Y54850000D03*
X97750000Y56150000D03*
X99750000Y55500000D03*
D30*
X102050000Y53100000D03*
X103000000Y53100000D03*
X103950000Y53100000D03*
X103950000Y50900000D03*
X102050000Y50900000D03*
X103000000Y50900000D03*
D22*
X99206908Y12051016D03*
X99206908Y10551016D03*
D31*
X97750000Y13750000D03*
X99750000Y13750000D03*
D12*
X97706908Y9051016D03*
X99206908Y9051016D03*
D22*
X97706908Y10551016D03*
X97706908Y12051016D03*
X96206908Y9051016D03*
X96206908Y10551016D03*
D21*
X105250000Y49000000D03*
X105250000Y46000000D03*
D31*
X96750000Y45750000D03*
X98750000Y45750000D03*
D21*
X102750000Y49000000D03*
X102750000Y46000000D03*
D31*
X96750000Y47750000D03*
X98750000Y47750000D03*
D27*
X96750000Y42850000D03*
X96750000Y41350000D03*
D14*
X92800000Y41450000D03*
X92800000Y42750000D03*
X94700000Y42100000D03*
X92800000Y42100000D03*
X94700000Y42750000D03*
X94700000Y41450000D03*
D32*
X-25000000Y13000000D03*
X-25000000Y103000000D03*
D13*
X17500000Y41500000D03*
X19000000Y41500000D03*
X21500000Y16250000D03*
X23000000Y16250000D03*
X13750000Y5000000D03*
X15250000Y5000000D03*
D21*
X45250000Y49000000D03*
X45250000Y46000000D03*
X42750000Y49000000D03*
X42750000Y46000000D03*
D22*
X40250000Y51250000D03*
X40250000Y52750000D03*
X41750000Y56250000D03*
X41750000Y54750000D03*
D31*
X36750000Y47750000D03*
X38750000Y47750000D03*
X36750000Y45750000D03*
X38750000Y45750000D03*
X37750000Y13750000D03*
X39750000Y13750000D03*
D22*
X37706908Y10551016D03*
X37706908Y12051016D03*
D13*
X37706908Y2801016D03*
X39206908Y2801016D03*
X45700000Y3000000D03*
X47200000Y3000000D03*
D22*
X39206908Y12051016D03*
X39206908Y10551016D03*
X39206908Y5801016D03*
X39206908Y4301016D03*
X37706908Y4301016D03*
X37706908Y5801016D03*
X48750000Y4500000D03*
X48750000Y6000000D03*
X36206908Y9051016D03*
X36206908Y10551016D03*
X36206908Y7551016D03*
X36206908Y6051016D03*
D13*
X29000000Y54500000D03*
X27500000Y54500000D03*
X21500000Y54500000D03*
X23000000Y54500000D03*
X23250000Y44750000D03*
X21750000Y44750000D03*
X20000000Y54500000D03*
X18500000Y54500000D03*
D28*
X49500000Y52150000D03*
X49500000Y50850000D03*
X47500000Y51500000D03*
D26*
X54500000Y51550000D03*
X54500000Y49450000D03*
D28*
X37750000Y54850000D03*
X37750000Y56150000D03*
X39750000Y55500000D03*
D18*
X31750000Y52200000D03*
X31750000Y45800000D03*
D14*
X17300000Y43100000D03*
X17300000Y44400000D03*
X19200000Y43750000D03*
X17300000Y43750000D03*
X19200000Y44400000D03*
X19200000Y43100000D03*
X61250000Y8350000D03*
X61250000Y9650000D03*
X63150000Y9000000D03*
X61250000Y9000000D03*
X63150000Y9650000D03*
X63150000Y8350000D03*
X32800000Y41450000D03*
X32800000Y42750000D03*
X34700000Y42100000D03*
X32800000Y42100000D03*
X34700000Y42750000D03*
X34700000Y41450000D03*
D12*
X18250000Y5000000D03*
X16750000Y5000000D03*
D27*
X56250000Y51250000D03*
X56250000Y49750000D03*
X43250000Y54750000D03*
X43250000Y56250000D03*
X44750000Y56250000D03*
X44750000Y54750000D03*
X36750000Y42850000D03*
X36750000Y41350000D03*
D12*
X37706908Y7551016D03*
X39206908Y7551016D03*
X37706908Y9051016D03*
X39206908Y9051016D03*
D27*
X50500000Y54750000D03*
X50500000Y56250000D03*
X49000000Y56250000D03*
X49000000Y54750000D03*
D15*
X61450000Y12100000D03*
D16*
X62450000Y12100000D03*
X61950000Y12100000D03*
D15*
X62950000Y12100000D03*
D16*
X61950000Y11100000D03*
D15*
X61450000Y11100000D03*
D16*
X62450000Y11100000D03*
D15*
X62950000Y11100000D03*
D11*
X14345000Y12700000D03*
X15615000Y12700000D03*
X16885000Y12700000D03*
X18155000Y12700000D03*
X18155000Y7300000D03*
X16885000Y7300000D03*
X15615000Y7300000D03*
X14345000Y7300000D03*
D30*
X42050000Y53100000D03*
X43000000Y53100000D03*
X43950000Y53100000D03*
X43950000Y50900000D03*
X42050000Y50900000D03*
X43000000Y50900000D03*
D23*
X41511909Y4761016D03*
X41511909Y5411016D03*
X41511909Y6061016D03*
X41511909Y6711016D03*
X41511909Y7361016D03*
X41511909Y8011016D03*
X41511909Y8661016D03*
X41511909Y9311016D03*
X41511909Y9961016D03*
X41511909Y10611016D03*
X41511909Y11261016D03*
X41511909Y11911016D03*
X41511909Y12561016D03*
X41511909Y13211016D03*
X47211909Y13211016D03*
X47211909Y12561016D03*
X47211909Y11911016D03*
X47211909Y11261016D03*
X47211909Y10611016D03*
X47211909Y9961016D03*
X47211909Y9311016D03*
X47211909Y8661016D03*
X47211909Y8011016D03*
X47211909Y7361016D03*
X47211909Y6711016D03*
X47211909Y6061016D03*
X47211909Y5411016D03*
X47211909Y4761016D03*
D17*
X20325000Y52700000D03*
X20975000Y52700000D03*
X21625000Y52700000D03*
X22275000Y52700000D03*
X22925000Y52700000D03*
X23575000Y52700000D03*
X24225000Y52700000D03*
X24875000Y52700000D03*
X25525000Y52700000D03*
X26175000Y52700000D03*
X26175000Y46800000D03*
X25525000Y46800000D03*
X24875000Y46800000D03*
X24225000Y46800000D03*
X23575000Y46800000D03*
X22925000Y46800000D03*
X22275000Y46800000D03*
X21625000Y46800000D03*
X20975000Y46800000D03*
X20325000Y46800000D03*
D24*
X60280000Y30200000D03*
X59140000Y30200000D03*
X58000000Y30200000D03*
X56860000Y30200000D03*
X55720000Y30200000D03*
D25*
X56475000Y38175000D03*
X59525000Y34825000D03*
X59525000Y38175000D03*
X56475000Y34825000D03*
D19*
X29800000Y41350000D03*
D20*
X29800000Y42350000D03*
X29800000Y41850000D03*
D19*
X29800000Y42850000D03*
D20*
X30800000Y41850000D03*
D19*
X30800000Y41350000D03*
D20*
X30800000Y42350000D03*
D19*
X30800000Y42850000D03*
D15*
X17500000Y46750000D03*
D16*
X18500000Y46750000D03*
X18000000Y46750000D03*
D15*
X19000000Y46750000D03*
D16*
X18000000Y45750000D03*
D15*
X17500000Y45750000D03*
D16*
X18500000Y45750000D03*
D15*
X19000000Y45750000D03*
X26000000Y54250000D03*
D16*
X25000000Y54250000D03*
X25500000Y54250000D03*
D15*
X24500000Y54250000D03*
D16*
X25500000Y55250000D03*
D15*
X26000000Y55250000D03*
D16*
X25000000Y55250000D03*
D15*
X24500000Y55250000D03*
D29*
X37000000Y52400000D03*
X37000000Y49600000D03*
D21*
X23000000Y1750000D03*
X23000000Y4750000D03*
D27*
X45750000Y50750000D03*
X45750000Y52250000D03*
D12*
X14000000Y15750000D03*
X15500000Y15750000D03*
M02*
