G04 #@! TF.FileFunction,Paste,Top*
%FSLAX46Y46*%
G04 Gerber Fmt 4.6, Leading zero omitted, Abs format (unit mm)*
G04 Created by KiCad (PCBNEW 4.0.7) date Fri Mar 30 10:44:33 2018*
%MOMM*%
%LPD*%
G01*
G04 APERTURE LIST*
%ADD10C,0.100000*%
%ADD11R,4.000000X2.500000*%
%ADD12R,1.200000X2.200000*%
%ADD13R,0.700000X1.600000*%
%ADD14R,1.200000X1.400000*%
%ADD15R,1.600000X1.400000*%
%ADD16R,0.800000X0.800000*%
%ADD17R,0.700000X1.500000*%
%ADD18R,1.000000X0.800000*%
%ADD19R,0.900000X1.000000*%
%ADD20R,1.000000X0.900000*%
%ADD21R,2.510000X1.000000*%
%ADD22O,0.900000X2.500000*%
%ADD23O,2.500000X0.900000*%
%ADD24R,6.000000X6.000000*%
%ADD25C,5.000000*%
G04 APERTURE END LIST*
D10*
D11*
X126050000Y104750000D03*
X119950000Y104750000D03*
D12*
X109250000Y113100000D03*
D13*
X99250000Y103000000D03*
X100350000Y103000000D03*
X101450000Y103000000D03*
X102550000Y103000000D03*
X103650000Y103000000D03*
X104750000Y103000000D03*
X105850000Y103000000D03*
X106950000Y103000000D03*
X108050000Y103000000D03*
D14*
X109250000Y103500000D03*
D15*
X94650000Y103500000D03*
D12*
X93750000Y113100000D03*
D16*
X76400000Y116250000D03*
X78000000Y116250000D03*
X79300000Y116250000D03*
X80900000Y116250000D03*
X88000000Y116250000D03*
X89600000Y116250000D03*
X85100000Y116250000D03*
X86700000Y116250000D03*
D17*
X88750000Y109320000D03*
X87250000Y109320000D03*
X84250000Y109320000D03*
X82750000Y109320000D03*
D18*
X90900000Y112180000D03*
X80600000Y112180000D03*
X80600000Y109970000D03*
X90900000Y109970000D03*
D16*
X82200000Y116250000D03*
X83800000Y116250000D03*
X90900000Y116250000D03*
X92500000Y116250000D03*
D19*
X73950000Y72200000D03*
X75550000Y72200000D03*
X73950000Y76300000D03*
X75550000Y76300000D03*
D20*
X77150000Y105600000D03*
X77150000Y104000000D03*
X81250000Y105600000D03*
X81250000Y104000000D03*
D21*
X114595000Y92560000D03*
X114595000Y87480000D03*
X117905000Y90020000D03*
X117905000Y84940000D03*
D22*
X86483276Y95970792D03*
X87753276Y95970792D03*
X89023276Y95970792D03*
X90293276Y95970792D03*
X91563276Y95970792D03*
X92833276Y95970792D03*
X94103276Y95970792D03*
X95373276Y95970792D03*
X96643276Y95970792D03*
X97913276Y95970792D03*
X99183276Y95970792D03*
X100453276Y95970792D03*
X101723276Y95970792D03*
X102993276Y95970792D03*
D23*
X104483276Y92685792D03*
X104483276Y91415792D03*
X104483276Y90145792D03*
X104483276Y88875792D03*
X104483276Y87605792D03*
X104483276Y86335792D03*
X104483276Y85065792D03*
X104483276Y83795792D03*
X104483276Y82525792D03*
X104483276Y81255792D03*
D22*
X102993276Y77970792D03*
X101723276Y77970792D03*
X100453276Y77970792D03*
X99183276Y77970792D03*
X97913276Y77970792D03*
X96643276Y77970792D03*
X95373276Y77970792D03*
X94103276Y77970792D03*
X92833276Y77970792D03*
X91563276Y77970792D03*
X90293276Y77970792D03*
X89023276Y77970792D03*
X87753276Y77970792D03*
X86483276Y77970792D03*
D24*
X94183276Y86670792D03*
D22*
X104263276Y77970792D03*
X105533276Y77970792D03*
X106803276Y77970792D03*
X108073276Y77970792D03*
X109343276Y77970792D03*
X109343276Y95970792D03*
X108073276Y95970792D03*
X106803276Y95970792D03*
X105533276Y95970792D03*
X104263276Y95970792D03*
D11*
X66050000Y104750000D03*
X59950000Y104750000D03*
D12*
X49250000Y113100000D03*
D13*
X39250000Y103000000D03*
X40350000Y103000000D03*
X41450000Y103000000D03*
X42550000Y103000000D03*
X43650000Y103000000D03*
X44750000Y103000000D03*
X45850000Y103000000D03*
X46950000Y103000000D03*
X48050000Y103000000D03*
D14*
X49250000Y103500000D03*
D15*
X34650000Y103500000D03*
D12*
X33750000Y113100000D03*
D16*
X16400000Y116250000D03*
X18000000Y116250000D03*
X19300000Y116250000D03*
X20900000Y116250000D03*
X28000000Y116250000D03*
X29600000Y116250000D03*
X25100000Y116250000D03*
X26700000Y116250000D03*
D17*
X28750000Y109320000D03*
X27250000Y109320000D03*
X24250000Y109320000D03*
X22750000Y109320000D03*
D18*
X30900000Y112180000D03*
X20600000Y112180000D03*
X20600000Y109970000D03*
X30900000Y109970000D03*
D16*
X22200000Y116250000D03*
X23800000Y116250000D03*
X30900000Y116250000D03*
X32500000Y116250000D03*
D19*
X13950000Y72200000D03*
X15550000Y72200000D03*
X13950000Y76300000D03*
X15550000Y76300000D03*
D20*
X17150000Y105600000D03*
X17150000Y104000000D03*
X21250000Y105600000D03*
X21250000Y104000000D03*
D21*
X54595000Y92560000D03*
X54595000Y87480000D03*
X57905000Y90020000D03*
X57905000Y84940000D03*
D22*
X26483276Y95970792D03*
X27753276Y95970792D03*
X29023276Y95970792D03*
X30293276Y95970792D03*
X31563276Y95970792D03*
X32833276Y95970792D03*
X34103276Y95970792D03*
X35373276Y95970792D03*
X36643276Y95970792D03*
X37913276Y95970792D03*
X39183276Y95970792D03*
X40453276Y95970792D03*
X41723276Y95970792D03*
X42993276Y95970792D03*
D23*
X44483276Y92685792D03*
X44483276Y91415792D03*
X44483276Y90145792D03*
X44483276Y88875792D03*
X44483276Y87605792D03*
X44483276Y86335792D03*
X44483276Y85065792D03*
X44483276Y83795792D03*
X44483276Y82525792D03*
X44483276Y81255792D03*
D22*
X42993276Y77970792D03*
X41723276Y77970792D03*
X40453276Y77970792D03*
X39183276Y77970792D03*
X37913276Y77970792D03*
X36643276Y77970792D03*
X35373276Y77970792D03*
X34103276Y77970792D03*
X32833276Y77970792D03*
X31563276Y77970792D03*
X30293276Y77970792D03*
X29023276Y77970792D03*
X27753276Y77970792D03*
X26483276Y77970792D03*
D24*
X34183276Y86670792D03*
D22*
X44263276Y77970792D03*
X45533276Y77970792D03*
X46803276Y77970792D03*
X48073276Y77970792D03*
X49343276Y77970792D03*
X49343276Y95970792D03*
X48073276Y95970792D03*
X46803276Y95970792D03*
X45533276Y95970792D03*
X44263276Y95970792D03*
D11*
X126050000Y44750000D03*
X119950000Y44750000D03*
D12*
X109250000Y53100000D03*
D13*
X99250000Y43000000D03*
X100350000Y43000000D03*
X101450000Y43000000D03*
X102550000Y43000000D03*
X103650000Y43000000D03*
X104750000Y43000000D03*
X105850000Y43000000D03*
X106950000Y43000000D03*
X108050000Y43000000D03*
D14*
X109250000Y43500000D03*
D15*
X94650000Y43500000D03*
D12*
X93750000Y53100000D03*
D16*
X76400000Y56250000D03*
X78000000Y56250000D03*
X79300000Y56250000D03*
X80900000Y56250000D03*
X88000000Y56250000D03*
X89600000Y56250000D03*
X85100000Y56250000D03*
X86700000Y56250000D03*
D17*
X88750000Y49320000D03*
X87250000Y49320000D03*
X84250000Y49320000D03*
X82750000Y49320000D03*
D18*
X90900000Y52180000D03*
X80600000Y52180000D03*
X80600000Y49970000D03*
X90900000Y49970000D03*
D16*
X82200000Y56250000D03*
X83800000Y56250000D03*
X90900000Y56250000D03*
X92500000Y56250000D03*
D19*
X73950000Y12200000D03*
X75550000Y12200000D03*
X73950000Y16300000D03*
X75550000Y16300000D03*
D20*
X77150000Y45600000D03*
X77150000Y44000000D03*
X81250000Y45600000D03*
X81250000Y44000000D03*
D21*
X114595000Y32560000D03*
X114595000Y27480000D03*
X117905000Y30020000D03*
X117905000Y24940000D03*
D22*
X86483276Y35970792D03*
X87753276Y35970792D03*
X89023276Y35970792D03*
X90293276Y35970792D03*
X91563276Y35970792D03*
X92833276Y35970792D03*
X94103276Y35970792D03*
X95373276Y35970792D03*
X96643276Y35970792D03*
X97913276Y35970792D03*
X99183276Y35970792D03*
X100453276Y35970792D03*
X101723276Y35970792D03*
X102993276Y35970792D03*
D23*
X104483276Y32685792D03*
X104483276Y31415792D03*
X104483276Y30145792D03*
X104483276Y28875792D03*
X104483276Y27605792D03*
X104483276Y26335792D03*
X104483276Y25065792D03*
X104483276Y23795792D03*
X104483276Y22525792D03*
X104483276Y21255792D03*
D22*
X102993276Y17970792D03*
X101723276Y17970792D03*
X100453276Y17970792D03*
X99183276Y17970792D03*
X97913276Y17970792D03*
X96643276Y17970792D03*
X95373276Y17970792D03*
X94103276Y17970792D03*
X92833276Y17970792D03*
X91563276Y17970792D03*
X90293276Y17970792D03*
X89023276Y17970792D03*
X87753276Y17970792D03*
X86483276Y17970792D03*
D24*
X94183276Y26670792D03*
D22*
X104263276Y17970792D03*
X105533276Y17970792D03*
X106803276Y17970792D03*
X108073276Y17970792D03*
X109343276Y17970792D03*
X109343276Y35970792D03*
X108073276Y35970792D03*
X106803276Y35970792D03*
X105533276Y35970792D03*
X104263276Y35970792D03*
D25*
X-25000000Y13000000D03*
X-25000000Y103000000D03*
D16*
X28000000Y56250000D03*
X29600000Y56250000D03*
X16400000Y56250000D03*
X18000000Y56250000D03*
X22200000Y56250000D03*
X23800000Y56250000D03*
X30900000Y56250000D03*
X32500000Y56250000D03*
X25100000Y56250000D03*
X26700000Y56250000D03*
X19300000Y56250000D03*
X20900000Y56250000D03*
D11*
X66050000Y44750000D03*
X59950000Y44750000D03*
D12*
X49250000Y53100000D03*
D13*
X39250000Y43000000D03*
X40350000Y43000000D03*
X41450000Y43000000D03*
X42550000Y43000000D03*
X43650000Y43000000D03*
X44750000Y43000000D03*
X45850000Y43000000D03*
X46950000Y43000000D03*
X48050000Y43000000D03*
D14*
X49250000Y43500000D03*
D15*
X34650000Y43500000D03*
D12*
X33750000Y53100000D03*
D20*
X17150000Y45600000D03*
X17150000Y44000000D03*
X21250000Y45600000D03*
X21250000Y44000000D03*
D19*
X13950000Y12200000D03*
X15550000Y12200000D03*
X13950000Y16300000D03*
X15550000Y16300000D03*
D17*
X28750000Y49320000D03*
X27250000Y49320000D03*
X24250000Y49320000D03*
X22750000Y49320000D03*
D18*
X30900000Y52180000D03*
X20600000Y52180000D03*
X20600000Y49970000D03*
X30900000Y49970000D03*
D22*
X26483276Y35970792D03*
X27753276Y35970792D03*
X29023276Y35970792D03*
X30293276Y35970792D03*
X31563276Y35970792D03*
X32833276Y35970792D03*
X34103276Y35970792D03*
X35373276Y35970792D03*
X36643276Y35970792D03*
X37913276Y35970792D03*
X39183276Y35970792D03*
X40453276Y35970792D03*
X41723276Y35970792D03*
X42993276Y35970792D03*
D23*
X44483276Y32685792D03*
X44483276Y31415792D03*
X44483276Y30145792D03*
X44483276Y28875792D03*
X44483276Y27605792D03*
X44483276Y26335792D03*
X44483276Y25065792D03*
X44483276Y23795792D03*
X44483276Y22525792D03*
X44483276Y21255792D03*
D22*
X42993276Y17970792D03*
X41723276Y17970792D03*
X40453276Y17970792D03*
X39183276Y17970792D03*
X37913276Y17970792D03*
X36643276Y17970792D03*
X35373276Y17970792D03*
X34103276Y17970792D03*
X32833276Y17970792D03*
X31563276Y17970792D03*
X30293276Y17970792D03*
X29023276Y17970792D03*
X27753276Y17970792D03*
X26483276Y17970792D03*
D24*
X34183276Y26670792D03*
D22*
X44263276Y17970792D03*
X45533276Y17970792D03*
X46803276Y17970792D03*
X48073276Y17970792D03*
X49343276Y17970792D03*
X49343276Y35970792D03*
X48073276Y35970792D03*
X46803276Y35970792D03*
X45533276Y35970792D03*
X44263276Y35970792D03*
D21*
X54595000Y32560000D03*
X54595000Y27480000D03*
X57905000Y30020000D03*
X57905000Y24940000D03*
M02*
