G04 #@! TF.FileFunction,Profile,NP*
%FSLAX46Y46*%
G04 Gerber Fmt 4.6, Leading zero omitted, Abs format (unit mm)*
G04 Created by KiCad (PCBNEW 4.0.7) date Fri Mar 30 10:44:33 2018*
%MOMM*%
%LPD*%
G01*
G04 APERTURE LIST*
%ADD10C,0.100000*%
%ADD11C,0.150000*%
G04 APERTURE END LIST*
D10*
D11*
X12000000Y60000000D02*
X24000000Y60000000D01*
X24000000Y57500000D02*
X12000000Y57500000D01*
X72000000Y60000000D02*
X86000000Y60000000D01*
X86000000Y57500000D02*
X72000000Y57500000D01*
X46000000Y60000000D02*
X30000000Y60000000D01*
X25000000Y59000000D02*
G75*
G03X24000000Y60000000I-1000000J0D01*
G01*
X30000000Y60000000D02*
G75*
G03X29000000Y59000000I0J-1000000D01*
G01*
X25000000Y59000000D02*
X25000000Y58500000D01*
X24000000Y57500000D02*
G75*
G03X25000000Y58500000I0J1000000D01*
G01*
X29000000Y58500000D02*
X29000000Y59000000D01*
X29000000Y58500000D02*
G75*
G03X30000000Y57500000I1000000J0D01*
G01*
X30000000Y57500000D02*
X46000000Y57500000D01*
X68500000Y60000000D02*
X52000000Y60000000D01*
X47000000Y59000000D02*
G75*
G03X46000000Y60000000I-1000000J0D01*
G01*
X52000000Y60000000D02*
G75*
G03X51000000Y59000000I0J-1000000D01*
G01*
X47000000Y59000000D02*
X47000000Y58500000D01*
X46000000Y57500000D02*
G75*
G03X47000000Y58500000I0J1000000D01*
G01*
X51000000Y58500000D02*
X51000000Y59000000D01*
X51000000Y58500000D02*
G75*
G03X52000000Y57500000I1000000J0D01*
G01*
X52000000Y57500000D02*
X68500000Y57500000D01*
X106000000Y60000000D02*
X92000000Y60000000D01*
X87000000Y59000000D02*
G75*
G03X86000000Y60000000I-1000000J0D01*
G01*
X92000000Y60000000D02*
G75*
G03X91000000Y59000000I0J-1000000D01*
G01*
X87000000Y59000000D02*
X87000000Y58500000D01*
X86000000Y57500000D02*
G75*
G03X87000000Y58500000I0J1000000D01*
G01*
X91000000Y58500000D02*
X91000000Y59000000D01*
X91000000Y58500000D02*
G75*
G03X92000000Y57500000I1000000J0D01*
G01*
X92000000Y57500000D02*
X106000000Y57500000D01*
X112000000Y57500000D02*
X128500000Y57500000D01*
X128500000Y60000000D02*
X112000000Y60000000D01*
X107000000Y59000000D02*
X107000000Y58500000D01*
X107000000Y59000000D02*
G75*
G03X106000000Y60000000I-1000000J0D01*
G01*
X106000000Y57500000D02*
G75*
G03X107000000Y58500000I0J1000000D01*
G01*
X111000000Y58500000D02*
X111000000Y59000000D01*
X112000000Y60000000D02*
G75*
G03X111000000Y59000000I0J-1000000D01*
G01*
X111000000Y58500000D02*
G75*
G03X112000000Y57500000I1000000J0D01*
G01*
X69500000Y67000000D02*
X71000000Y67000000D01*
X68500000Y72000000D02*
G75*
G03X69500000Y71000000I1000000J0D01*
G01*
X71000000Y71000000D02*
G75*
G03X72000000Y72000000I0J1000000D01*
G01*
X72000000Y66000000D02*
G75*
G03X71000000Y67000000I-1000000J0D01*
G01*
X69500000Y67000000D02*
G75*
G03X68500000Y66000000I0J-1000000D01*
G01*
X71000000Y71000000D02*
X69500000Y71000000D01*
X72000000Y66000000D02*
X72000000Y60000000D01*
X68500000Y72000000D02*
X68500000Y77750000D01*
X68500000Y60000000D02*
X68500000Y66000000D01*
X72000000Y77750000D02*
X72000000Y72000000D01*
X69500000Y7000000D02*
X71000000Y7000000D01*
X68500000Y12000000D02*
G75*
G03X69500000Y11000000I1000000J0D01*
G01*
X71000000Y11000000D02*
G75*
G03X72000000Y12000000I0J1000000D01*
G01*
X72000000Y6000000D02*
G75*
G03X71000000Y7000000I-1000000J0D01*
G01*
X69500000Y7000000D02*
G75*
G03X68500000Y6000000I0J-1000000D01*
G01*
X71000000Y11000000D02*
X69500000Y11000000D01*
X72000000Y6000000D02*
X72000000Y0D01*
X68500000Y12000000D02*
X68500000Y17750000D01*
X68500000Y0D02*
X68500000Y6000000D01*
X72000000Y17750000D02*
X72000000Y12000000D01*
X72000000Y46000000D02*
X72000000Y40250000D01*
X72000000Y57500000D02*
X72000000Y52000000D01*
X72000000Y46000000D02*
G75*
G03X71000000Y47000000I-1000000J0D01*
G01*
X69500000Y47000000D02*
G75*
G03X68500000Y46000000I0J-1000000D01*
G01*
X69500000Y47000000D02*
X71000000Y47000000D01*
X71000000Y51000000D02*
X69500000Y51000000D01*
X71000000Y51000000D02*
G75*
G03X72000000Y52000000I0J1000000D01*
G01*
X68500000Y52000000D02*
G75*
G03X69500000Y51000000I1000000J0D01*
G01*
X68500000Y40250000D02*
X68500000Y46000000D01*
X68500000Y52000000D02*
X68500000Y57500000D01*
X68500000Y100250000D02*
X68500000Y106000000D01*
X72000000Y106000000D02*
X72000000Y100250000D01*
X72000000Y106000000D02*
G75*
G03X71000000Y107000000I-1000000J0D01*
G01*
X69500000Y107000000D02*
G75*
G03X68500000Y106000000I0J-1000000D01*
G01*
X69500000Y107000000D02*
X71000000Y107000000D01*
X72000000Y117500000D02*
X72000000Y112000000D01*
X68500000Y112000000D02*
X68500000Y117500000D01*
X71000000Y111000000D02*
X69500000Y111000000D01*
X71000000Y111000000D02*
G75*
G03X72000000Y112000000I0J1000000D01*
G01*
X68500000Y112000000D02*
G75*
G03X69500000Y111000000I1000000J0D01*
G01*
X10000000Y0D02*
X10000000Y6000000D01*
X12000000Y6000000D02*
X12000000Y0D01*
X12000000Y6000000D02*
G75*
G03X10000000Y6000000I-1000000J0D01*
G01*
X12000000Y12000000D02*
X12000000Y17750000D01*
X10000000Y12000000D02*
G75*
G03X12000000Y12000000I1000000J0D01*
G01*
X10000000Y46000000D02*
X10000000Y12000000D01*
X12000000Y46000000D02*
X12000000Y40250000D01*
X12000000Y46000000D02*
G75*
G03X10000000Y46000000I-1000000J0D01*
G01*
X12000000Y52000000D02*
X12000000Y57500000D01*
X10000000Y52000000D02*
G75*
G03X12000000Y52000000I1000000J0D01*
G01*
X10000000Y67000000D02*
X10000000Y52000000D01*
X12000000Y60000000D02*
X12000000Y67000000D01*
X12000000Y67000000D02*
G75*
G03X10000000Y67000000I-1000000J0D01*
G01*
X12000000Y73000000D02*
X12000000Y77750000D01*
X10000000Y73000000D02*
G75*
G03X12000000Y73000000I1000000J0D01*
G01*
X10000000Y107000000D02*
X10000000Y73000000D01*
X12000000Y107000000D02*
X12000000Y100250000D01*
X12000000Y107000000D02*
G75*
G03X10000000Y107000000I-1000000J0D01*
G01*
X10000000Y113000000D02*
G75*
G03X12000000Y113000000I1000000J0D01*
G01*
X10000000Y117500000D02*
X10000000Y113000000D01*
X128500000Y77750000D02*
X128500000Y60000000D01*
X121500000Y81250000D02*
G75*
G03X125000000Y77750000I3500000J0D01*
G01*
X125000000Y77750000D02*
X128500000Y77750000D01*
X121500000Y81250000D02*
X121500000Y96750000D01*
X79000000Y81250000D02*
G75*
G02X75500000Y77750000I-3500000J0D01*
G01*
X75500000Y100250000D02*
X72000000Y100250000D01*
X72000000Y77750000D02*
X75500000Y77750000D01*
X79000000Y96750000D02*
G75*
G03X75500000Y100250000I-3500000J0D01*
G01*
X72000000Y117500000D02*
X128500000Y117500000D01*
X125000000Y100250000D02*
G75*
G03X121500000Y96750000I0J-3500000D01*
G01*
X128500000Y100250000D02*
X125000000Y100250000D01*
X79000000Y81250000D02*
X79000000Y96750000D01*
X128500000Y117500000D02*
X128500000Y100250000D01*
X61500000Y81250000D02*
G75*
G03X65000000Y77750000I3500000J0D01*
G01*
X65000000Y77750000D02*
X68500000Y77750000D01*
X61500000Y81250000D02*
X61500000Y96750000D01*
X19000000Y81250000D02*
G75*
G02X15500000Y77750000I-3500000J0D01*
G01*
X15500000Y100250000D02*
X12000000Y100250000D01*
X12000000Y77750000D02*
X15500000Y77750000D01*
X19000000Y96750000D02*
G75*
G03X15500000Y100250000I-3500000J0D01*
G01*
X12000000Y117500000D02*
X68500000Y117500000D01*
X65000000Y100250000D02*
G75*
G03X61500000Y96750000I0J-3500000D01*
G01*
X68500000Y100250000D02*
X65000000Y100250000D01*
X19000000Y81250000D02*
X19000000Y96750000D01*
X12000000Y113000000D02*
X12000000Y117500000D01*
X128500000Y17750000D02*
X128500000Y0D01*
X121500000Y21250000D02*
G75*
G03X125000000Y17750000I3500000J0D01*
G01*
X125000000Y17750000D02*
X128500000Y17750000D01*
X121500000Y21250000D02*
X121500000Y36750000D01*
X128500000Y0D02*
X72000000Y0D01*
X79000000Y21250000D02*
G75*
G02X75500000Y17750000I-3500000J0D01*
G01*
X75500000Y40250000D02*
X72000000Y40250000D01*
X72000000Y17750000D02*
X75500000Y17750000D01*
X79000000Y36750000D02*
G75*
G03X75500000Y40250000I-3500000J0D01*
G01*
X125000000Y40250000D02*
G75*
G03X121500000Y36750000I0J-3500000D01*
G01*
X128500000Y40250000D02*
X125000000Y40250000D01*
X79000000Y21250000D02*
X79000000Y36750000D01*
X128500000Y57500000D02*
X128500000Y40250000D01*
X10000000Y0D02*
X0Y0D01*
X0Y117500000D02*
X10000000Y117500000D01*
X0Y0D02*
X0Y117500000D01*
X19000000Y36750000D02*
G75*
G03X15500000Y40250000I-3500000J0D01*
G01*
X19000000Y21250000D02*
X19000000Y36750000D01*
X12000000Y17750000D02*
X15500000Y17750000D01*
X19000000Y21250000D02*
G75*
G02X15500000Y17750000I-3500000J0D01*
G01*
X61500000Y21250000D02*
X61500000Y36750000D01*
X65000000Y40250000D02*
G75*
G03X61500000Y36750000I0J-3500000D01*
G01*
X65000000Y17750000D02*
X68500000Y17750000D01*
X61500000Y21250000D02*
G75*
G03X65000000Y17750000I3500000J0D01*
G01*
X15500000Y40250000D02*
X12000000Y40250000D01*
X68500000Y0D02*
X12000000Y0D01*
X68500000Y40250000D02*
X65000000Y40250000D01*
M02*
