M48
; DRILL file {KiCad 5.1.0} date jeu. 11 avril 2019 17:35:07 CEST
; FORMAT={-:-/ absolute / metric / decimal}
; #@! TF.CreationDate,2019-04-11T17:35:07+02:00
; #@! TF.GenerationSoftware,Kicad,Pcbnew,5.1.0
FMAT,2
METRIC
T1C0.300
T2C0.900
T3C0.990
T4C1.000
T5C1.199
T6C1.200
T7C1.300
T8C1.999
T9C2.100
T10C0.500
T11C0.900
T12C0.991
T13C1.000
T14C3.000
T15C3.200
%
G90
G05
T1
X-5.9Y102.85
X-5.9Y41.85
X-5.1Y97.3
X-5.1Y36.3
X-3.695Y102.025
X-3.695Y41.025
X-3.159Y99.972
X-3.159Y38.972
X-2.5Y96.925
X-2.5Y35.925
X-0.75Y101.0
X-0.75Y40.0
X-0.15Y102.35
X-0.15Y41.35
X0.9Y90.6
X0.9Y29.6
X2.075Y100.817
X2.075Y39.817
X2.075Y92.427
X2.075Y31.427
X4.0Y63.5
X4.0Y2.5
X4.2Y80.2
X4.2Y19.2
X4.3Y69.3
X4.3Y8.3
X4.768Y101.932
X4.768Y40.932
X5.0Y95.375
X5.0Y34.375
X5.5Y101.0
X5.5Y99.1
X5.5Y93.1
X5.5Y40.0
X5.5Y38.1
X5.5Y32.1
X6.05Y68.6
X6.05Y7.6
X6.9Y81.5
X6.9Y20.5
X6.925Y85.45
X6.925Y24.45
X7.05Y68.6
X7.05Y7.6
X8.0Y95.325
X8.0Y68.25
X8.0Y34.325
X8.0Y7.25
X8.674Y93.75
X8.674Y32.75
X8.75Y68.75
X8.75Y7.75
X9.0Y85.5
X9.0Y24.5
X9.3Y82.4
X9.3Y21.4
X9.709Y68.896
X9.709Y7.896
X10.0Y85.5
X10.0Y24.5
X10.035Y82.054
X10.035Y21.054
X10.25Y87.5
X10.25Y26.5
X10.446Y102.034
X10.446Y41.034
X11.064Y69.686
X11.064Y8.686
X11.408Y65.263
X11.408Y4.263
X11.5Y92.2
X11.5Y31.2
X13.25Y81.7
X13.25Y55.75
X13.25Y20.7
X13.25Y-5.25
X14.25Y86.75
X14.25Y65.3
X14.25Y25.75
X14.25Y4.3
X15.855Y65.455
X15.855Y4.455
X19.7Y62.6
X19.7Y1.6
X19.715Y69.785
X19.715Y8.785
X20.2Y91.8
X20.2Y30.8
X20.7Y81.45
X20.7Y20.45
X21.0Y77.5
X21.0Y55.25
X21.0Y16.5
X21.0Y-5.75
X22.0Y94.4
X22.0Y33.4
X22.6Y91.4
X22.6Y30.4
X22.7Y84.0
X22.7Y23.0
X23.25Y88.25
X23.25Y27.25
X24.25Y67.75
X24.25Y6.75
X24.5Y87.0
X24.5Y26.0
X25.007Y68.264
X25.007Y7.264
X25.4Y83.1
X25.4Y22.1
X26.0Y69.25
X26.0Y8.25
X26.5Y54.0
X26.5Y-7.0
X26.674Y61.75
X26.674Y0.75
X26.7Y98.7
X26.7Y37.7
X26.8Y85.2
X26.8Y24.2
X26.9Y64.6
X26.9Y3.6
X26.944Y101.5
X26.944Y40.5
X27.5Y93.025
X27.5Y87.9
X27.5Y50.5
X27.5Y32.025
X27.5Y26.9
X27.5Y-10.5
X27.728Y64.472
X27.728Y3.472
X27.75Y66.3
X27.75Y5.3
X28.0Y101.5
X28.0Y40.5
X28.1Y83.3
X28.1Y22.3
X28.125Y81.181
X28.125Y20.181
X28.2Y97.9
X28.2Y94.2
X28.2Y36.9
X28.2Y33.2
X28.25Y76.25
X28.25Y15.25
X28.25Y96.5
X28.25Y35.5
X28.25Y92.75
X28.25Y31.75
X28.375Y57.5
X28.375Y-3.5
X28.5Y51.5
X28.5Y-9.5
X28.75Y85.0
X28.75Y56.25
X28.75Y24.0
X28.75Y-4.75
X29.25Y103.0
X29.25Y42.0
X29.5Y52.5
X29.5Y-8.5
X30.0Y91.75
X30.0Y30.75
X30.25Y47.75
X30.25Y-13.25
X30.6Y96.5
X30.6Y94.2
X30.6Y35.5
X30.6Y33.2
X31.0Y102.25
X31.0Y41.25
X31.25Y48.75
X31.25Y-12.25
X31.4Y101.3
X31.4Y40.3
X31.995Y82.0
X31.995Y21.0
X32.0Y59.25
X32.0Y58.0
X32.0Y53.5
X32.0Y52.25
X32.0Y-1.75
X32.0Y-3.0
X32.0Y-7.5
X32.0Y-8.75
X32.25Y61.25
X32.25Y49.75
X32.25Y0.25
X32.25Y-11.25
X32.5Y64.0
X32.5Y3.0
X32.6Y101.0
X32.6Y99.5
X32.6Y98.0
X32.6Y40.0
X32.6Y38.5
X32.6Y37.0
X33.0Y80.5
X33.0Y76.5
X33.0Y19.5
X33.0Y15.5
X33.0Y87.15
X33.0Y26.15
X33.25Y59.25
X33.25Y58.0
X33.25Y53.5
X33.25Y52.25
X33.25Y-1.75
X33.25Y-3.0
X33.25Y-7.5
X33.25Y-8.75
X34.5Y77.75
X34.5Y16.75
X34.5Y59.25
X34.5Y52.25
X34.5Y-1.75
X34.5Y-8.75
X35.0Y101.0
X35.0Y98.0
X35.0Y40.0
X35.0Y37.0
X35.2Y94.475
X35.2Y33.475
X35.25Y95.75
X35.25Y34.75
X35.5Y92.2
X35.5Y31.2
X35.75Y59.25
X35.75Y52.25
X35.75Y-1.75
X35.75Y-8.75
X36.7Y91.0
X36.7Y30.0
X36.8Y87.1
X36.8Y85.1
X36.8Y26.1
X36.8Y24.1
X36.9Y63.8
X36.9Y2.8
X37.0Y95.75
X37.0Y34.75
X37.2Y90.4
X37.2Y29.4
X37.9Y100.8
X37.9Y39.8
X38.573Y95.579
X38.573Y34.579
X38.75Y52.5
X38.75Y-8.5
X39.25Y67.0
X39.25Y6.0
X40.25Y52.5
X40.25Y51.0
X40.25Y-8.5
X40.25Y-10.0
X41.5Y93.7
X41.5Y32.7
X41.75Y52.5
X41.75Y51.0
X41.75Y-8.5
X41.75Y-10.0
X43.25Y52.5
X43.25Y-8.5
X44.75Y58.5
X44.75Y57.0
X44.75Y55.5
X44.75Y54.0
X44.75Y52.5
X44.75Y-2.5
X44.75Y-4.0
X44.75Y-5.5
X44.75Y-7.0
X44.75Y-8.5
X46.25Y58.5
X46.25Y57.0
X46.25Y55.5
X46.25Y54.0
X46.25Y52.5
X46.25Y-2.5
X46.25Y-4.0
X46.25Y-5.5
X46.25Y-7.0
X46.25Y-8.5
X54.1Y102.85
X54.1Y41.85
X54.9Y97.3
X54.9Y36.3
X56.305Y102.025
X56.305Y41.025
X56.841Y99.972
X56.841Y38.972
X57.5Y96.925
X57.5Y35.925
X59.25Y101.0
X59.25Y40.0
X59.85Y102.35
X59.85Y41.35
X60.9Y90.6
X60.9Y29.6
X62.075Y100.817
X62.075Y39.817
X62.075Y92.427
X62.075Y31.427
X64.0Y63.5
X64.0Y2.5
X64.2Y80.2
X64.2Y19.2
X64.3Y69.3
X64.3Y8.3
X64.768Y101.932
X64.768Y40.932
X65.0Y95.375
X65.0Y34.375
X65.5Y101.0
X65.5Y99.1
X65.5Y93.1
X65.5Y40.0
X65.5Y38.1
X65.5Y32.1
X66.05Y68.6
X66.05Y7.6
X66.9Y81.5
X66.9Y20.5
X66.925Y85.45
X66.925Y24.45
X67.05Y68.6
X67.05Y7.6
X68.0Y95.325
X68.0Y68.25
X68.0Y34.325
X68.0Y7.25
X68.674Y93.75
X68.674Y32.75
X68.75Y68.75
X68.75Y7.75
X69.0Y85.5
X69.0Y24.5
X69.3Y82.4
X69.3Y21.4
X69.709Y68.896
X69.709Y7.896
X70.0Y85.5
X70.0Y24.5
X70.035Y82.054
X70.035Y21.054
X70.25Y87.5
X70.25Y26.5
X70.446Y102.034
X70.446Y41.034
X71.064Y69.686
X71.064Y8.686
X71.408Y65.263
X71.408Y4.263
X71.5Y92.2
X71.5Y31.2
X73.25Y81.7
X73.25Y55.75
X73.25Y20.7
X73.25Y-5.25
X74.25Y86.75
X74.25Y65.3
X74.25Y25.75
X74.25Y4.3
X75.855Y65.455
X75.855Y4.455
X79.7Y62.6
X79.7Y1.6
X79.715Y69.785
X79.715Y8.785
X80.2Y91.8
X80.2Y30.8
X80.7Y81.45
X80.7Y20.45
X81.0Y77.5
X81.0Y55.25
X81.0Y16.5
X81.0Y-5.75
X82.0Y94.4
X82.0Y33.4
X82.6Y91.4
X82.6Y30.4
X82.7Y84.0
X82.7Y23.0
X83.25Y88.25
X83.25Y27.25
X84.25Y67.75
X84.25Y6.75
X84.5Y87.0
X84.5Y26.0
X85.007Y68.264
X85.007Y7.264
X85.4Y83.1
X85.4Y22.1
X86.0Y69.25
X86.0Y8.25
X86.5Y54.0
X86.5Y-7.0
X86.674Y61.75
X86.674Y0.75
X86.7Y98.7
X86.7Y37.7
X86.8Y85.2
X86.8Y24.2
X86.9Y64.6
X86.9Y3.6
X86.944Y101.5
X86.944Y40.5
X87.5Y93.025
X87.5Y87.9
X87.5Y50.5
X87.5Y32.025
X87.5Y26.9
X87.5Y-10.5
X87.728Y64.472
X87.728Y3.472
X87.75Y66.3
X87.75Y5.3
X88.0Y101.5
X88.0Y40.5
X88.1Y83.3
X88.1Y22.3
X88.125Y81.181
X88.125Y20.181
X88.2Y97.9
X88.2Y94.2
X88.2Y36.9
X88.2Y33.2
X88.25Y76.25
X88.25Y15.25
X88.25Y96.5
X88.25Y35.5
X88.25Y92.75
X88.25Y31.75
X88.375Y57.5
X88.375Y-3.5
X88.5Y51.5
X88.5Y-9.5
X88.75Y85.0
X88.75Y56.25
X88.75Y24.0
X88.75Y-4.75
X89.25Y103.0
X89.25Y42.0
X89.5Y52.5
X89.5Y-8.5
X90.0Y91.75
X90.0Y30.75
X90.25Y47.75
X90.25Y-13.25
X90.6Y96.5
X90.6Y94.2
X90.6Y35.5
X90.6Y33.2
X91.0Y102.25
X91.0Y41.25
X91.25Y48.75
X91.25Y-12.25
X91.4Y101.3
X91.4Y40.3
X91.995Y82.0
X91.995Y21.0
X92.0Y59.25
X92.0Y58.0
X92.0Y53.5
X92.0Y52.25
X92.0Y-1.75
X92.0Y-3.0
X92.0Y-7.5
X92.0Y-8.75
X92.25Y61.25
X92.25Y49.75
X92.25Y0.25
X92.25Y-11.25
X92.5Y64.0
X92.5Y3.0
X92.6Y101.0
X92.6Y99.5
X92.6Y98.0
X92.6Y40.0
X92.6Y38.5
X92.6Y37.0
X93.0Y80.5
X93.0Y76.5
X93.0Y19.5
X93.0Y15.5
X93.0Y87.15
X93.0Y26.15
X93.25Y59.25
X93.25Y58.0
X93.25Y53.5
X93.25Y52.25
X93.25Y-1.75
X93.25Y-3.0
X93.25Y-7.5
X93.25Y-8.75
X94.5Y77.75
X94.5Y16.75
X94.5Y59.25
X94.5Y52.25
X94.5Y-1.75
X94.5Y-8.75
X95.0Y101.0
X95.0Y98.0
X95.0Y40.0
X95.0Y37.0
X95.2Y94.475
X95.2Y33.475
X95.25Y95.75
X95.25Y34.75
X95.5Y92.2
X95.5Y31.2
X95.75Y59.25
X95.75Y52.25
X95.75Y-1.75
X95.75Y-8.75
X96.7Y91.0
X96.7Y30.0
X96.8Y87.1
X96.8Y85.1
X96.8Y26.1
X96.8Y24.1
X96.9Y63.8
X96.9Y2.8
X97.0Y95.75
X97.0Y34.75
X97.2Y90.4
X97.2Y29.4
X97.9Y100.8
X97.9Y39.8
X98.573Y95.579
X98.573Y34.579
X98.75Y52.5
X98.75Y-8.5
X99.25Y67.0
X99.25Y6.0
X100.25Y52.5
X100.25Y51.0
X100.25Y-8.5
X100.25Y-10.0
X101.5Y93.7
X101.5Y32.7
X101.75Y52.5
X101.75Y51.0
X101.75Y-8.5
X101.75Y-10.0
X103.25Y52.5
X103.25Y-8.5
X104.75Y58.5
X104.75Y57.0
X104.75Y55.5
X104.75Y54.0
X104.75Y52.5
X104.75Y-2.5
X104.75Y-4.0
X104.75Y-5.5
X104.75Y-7.0
X104.75Y-8.5
X106.25Y58.5
X106.25Y57.0
X106.25Y55.5
X106.25Y54.0
X106.25Y52.5
X106.25Y-2.5
X106.25Y-4.0
X106.25Y-5.5
X106.25Y-7.0
X106.25Y-8.5
T2
X73.0Y-3.79
X75.5Y-3.79
X77.5Y-3.79
X80.0Y-3.79
X13.0Y57.21
X15.5Y57.21
X17.5Y57.21
X20.0Y57.21
X13.0Y-3.79
X15.5Y-3.79
X17.5Y-3.79
X20.0Y-3.79
X73.0Y57.21
X75.5Y57.21
X77.5Y57.21
X80.0Y57.21
T3
X39.74Y40.25
X39.74Y33.75
X44.24Y40.25
X44.24Y33.75
X39.74Y101.25
X39.74Y94.75
X44.24Y101.25
X44.24Y94.75
X99.74Y101.25
X99.74Y94.75
X104.24Y101.25
X104.24Y94.75
X99.74Y40.25
X99.74Y33.75
X104.24Y40.25
X104.24Y33.75
T4
X26.25Y16.54
X26.25Y14.0
X26.25Y11.46
X52.25Y102.25
X52.25Y99.71
X52.25Y97.17
X52.25Y94.63
X52.25Y92.09
X52.25Y89.55
X26.25Y77.54
X26.25Y75.0
X26.25Y72.46
X-7.75Y41.25
X-7.75Y38.71
X-7.75Y36.17
X-7.75Y33.63
X-7.75Y31.09
X-7.75Y28.55
X86.25Y77.54
X86.25Y75.0
X86.25Y72.46
X52.25Y41.25
X52.25Y38.71
X52.25Y36.17
X52.25Y33.63
X52.25Y31.09
X52.25Y28.55
X38.5Y18.0
X38.5Y15.46
X38.5Y12.92
X38.5Y10.38
X98.5Y18.0
X98.5Y15.46
X98.5Y12.92
X98.5Y10.38
X98.5Y79.0
X98.5Y76.46
X98.5Y73.92
X98.5Y71.38
X38.5Y79.0
X38.5Y76.46
X38.5Y73.92
X38.5Y71.38
X-7.75Y102.25
X-7.75Y99.71
X-7.75Y97.17
X-7.75Y94.63
X-7.75Y92.09
X-7.75Y89.55
X86.25Y16.54
X86.25Y14.0
X86.25Y11.46
T5
X53.28Y-5.25
X57.09Y-5.25
X60.9Y-5.25
X-6.72Y-5.25
X-2.91Y-5.25
X0.9Y-5.25
X53.28Y55.75
X57.09Y55.75
X60.9Y55.75
X-6.72Y59.25
X-2.91Y59.25
X0.9Y59.25
X53.28Y59.25
X57.09Y59.25
X60.9Y59.25
X53.28Y-1.75
X57.09Y-1.75
X60.9Y-1.75
X-6.72Y55.75
X-2.91Y55.75
X0.9Y55.75
X-6.72Y-1.75
X-2.91Y-1.75
X0.9Y-1.75
T6
X67.5Y-1.94
X67.5Y-10.06
X86.0Y-1.94
X86.0Y-10.06
X67.5Y59.06
X67.5Y50.94
X86.0Y59.06
X86.0Y50.94
X7.5Y59.06
X7.5Y50.94
X26.0Y59.06
X26.0Y50.94
X7.5Y-1.94
X7.5Y-10.06
X26.0Y-1.94
X26.0Y-10.06
T7
X38.49Y37.76
X45.5Y37.76
X38.49Y98.76
X45.5Y98.76
X98.49Y98.76
X105.5Y98.76
X98.49Y37.76
X105.5Y37.76
T8
X-6.5Y49.25
X104.0Y49.25
X53.5Y49.25
X61.0Y49.25
X1.0Y-11.75
X96.5Y-11.75
X96.5Y49.25
X36.5Y-11.75
X61.0Y-11.75
X104.0Y-11.75
X53.5Y-11.75
X1.0Y49.25
X44.0Y49.25
X44.0Y-11.75
X-6.5Y-11.75
X36.5Y49.25
T9
X9.5Y54.5
X23.5Y54.5
X9.5Y-6.5
X23.5Y-6.5
X69.5Y54.5
X83.5Y54.5
X69.5Y-6.5
X83.5Y-6.5
T10
X110.5Y-14.5
X111.333Y-14.5
X112.167Y-14.5
X113.0Y-14.5
X113.833Y-14.5
X114.667Y-14.5
X115.5Y-14.5
X47.0Y57.5
X47.0Y56.75
X47.0Y56.0
X47.0Y55.25
X47.0Y54.5
X47.0Y53.75
X47.0Y53.0
X16.5Y104.0
X17.25Y104.0
X18.0Y104.0
X18.75Y104.0
X19.5Y104.0
X20.25Y104.0
X21.0Y104.0
X16.5Y46.5
X17.25Y46.5
X18.0Y46.5
X18.75Y46.5
X19.5Y46.5
X20.25Y46.5
X21.0Y46.5
X-9.5Y57.5
X-9.5Y56.75
X-9.5Y56.0
X-9.5Y55.25
X-9.5Y54.5
X-9.5Y53.75
X-9.5Y53.0
X50.5Y97.75
X50.5Y97.0
X50.5Y96.25
X50.5Y95.5
X50.5Y94.75
X50.5Y94.0
X50.5Y93.25
X-9.5Y36.75
X-9.5Y36.0
X-9.5Y35.25
X-9.5Y34.5
X-9.5Y33.75
X-9.5Y33.0
X-9.5Y32.25
X-17.5Y-14.5
X-16.667Y-14.5
X-15.833Y-14.5
X-15.0Y-14.5
X-14.167Y-14.5
X-13.333Y-14.5
X-12.5Y-14.5
X47.0Y36.75
X47.0Y36.0
X47.0Y35.25
X47.0Y34.5
X47.0Y33.75
X47.0Y33.0
X47.0Y32.25
X76.5Y43.0
X77.25Y43.0
X78.0Y43.0
X78.75Y43.0
X79.5Y43.0
X80.25Y43.0
X81.0Y43.0
X107.0Y57.5
X107.0Y56.75
X107.0Y56.0
X107.0Y55.25
X107.0Y54.5
X107.0Y53.75
X107.0Y53.0
X-9.5Y-3.5
X-9.5Y-4.25
X-9.5Y-5.0
X-9.5Y-5.75
X-9.5Y-6.5
X-9.5Y-7.25
X-9.5Y-8.0
X50.5Y-3.5
X50.5Y-4.25
X50.5Y-5.0
X50.5Y-5.75
X50.5Y-6.5
X50.5Y-7.25
X50.5Y-8.0
X76.5Y104.0
X77.25Y104.0
X78.0Y104.0
X78.75Y104.0
X79.5Y104.0
X80.25Y104.0
X81.0Y104.0
X16.5Y43.0
X17.25Y43.0
X18.0Y43.0
X18.75Y43.0
X19.5Y43.0
X20.25Y43.0
X21.0Y43.0
X-17.5Y104.0
X-16.667Y104.0
X-15.833Y104.0
X-15.0Y104.0
X-14.167Y104.0
X-13.333Y104.0
X-12.5Y104.0
X47.0Y97.75
X47.0Y97.0
X47.0Y96.25
X47.0Y95.5
X47.0Y94.75
X47.0Y94.0
X47.0Y93.25
X50.5Y57.5
X50.5Y56.75
X50.5Y56.0
X50.5Y55.25
X50.5Y54.5
X50.5Y53.75
X50.5Y53.0
X107.0Y36.75
X107.0Y36.0
X107.0Y35.25
X107.0Y34.5
X107.0Y33.75
X107.0Y33.0
X107.0Y32.25
X110.5Y104.0
X111.333Y104.0
X112.167Y104.0
X113.0Y104.0
X113.833Y104.0
X114.667Y104.0
X115.5Y104.0
X76.5Y-14.5
X77.25Y-14.5
X78.0Y-14.5
X78.75Y-14.5
X79.5Y-14.5
X80.25Y-14.5
X81.0Y-14.5
X16.5Y-14.5
X17.25Y-14.5
X18.0Y-14.5
X18.75Y-14.5
X19.5Y-14.5
X20.25Y-14.5
X21.0Y-14.5
X107.0Y97.75
X107.0Y97.0
X107.0Y96.25
X107.0Y95.5
X107.0Y94.75
X107.0Y94.0
X107.0Y93.25
X47.0Y-3.5
X47.0Y-4.25
X47.0Y-5.0
X47.0Y-5.75
X47.0Y-6.5
X47.0Y-7.25
X47.0Y-8.0
X-9.5Y97.75
X-9.5Y97.0
X-9.5Y96.25
X-9.5Y95.5
X-9.5Y94.75
X-9.5Y94.0
X-9.5Y93.25
X107.0Y-3.5
X107.0Y-4.25
X107.0Y-5.0
X107.0Y-5.75
X107.0Y-6.5
X107.0Y-7.25
X107.0Y-8.0
X50.5Y36.75
X50.5Y36.0
X50.5Y35.25
X50.5Y34.5
X50.5Y33.75
X50.5Y33.0
X50.5Y32.25
X76.5Y46.5
X77.25Y46.5
X78.0Y46.5
X78.75Y46.5
X79.5Y46.5
X80.25Y46.5
X81.0Y46.5
T11
X61.75Y97.58
X66.75Y97.58
X1.75Y97.58
X6.75Y97.58
X1.75Y36.58
X6.75Y36.58
X61.75Y36.58
X66.75Y36.58
T12
X54.984Y94.46
X56.0Y99.54
X57.016Y94.46
X-5.016Y94.46
X-4.0Y99.54
X-2.984Y94.46
X-5.016Y33.46
X-4.0Y38.54
X-2.984Y33.46
X54.984Y33.46
X56.0Y38.54
X57.016Y33.46
T13
X16.95Y39.0
X24.93Y39.0
X16.95Y100.0
X24.93Y100.0
X76.95Y100.0
X84.93Y100.0
X76.95Y39.0
X84.93Y39.0
T14
X10.5Y-20.0
X-15.0Y85.0
X-15.0Y5.0
X10.5Y110.0
X90.5Y110.0
X90.5Y-20.0
T15
X32.75Y28.25
X4.75Y89.25
X92.75Y89.25
X92.75Y28.25
X4.75Y28.25
X32.75Y89.25
X64.75Y89.25
X64.75Y28.25
T0
M30
