G04 #@! TF.GenerationSoftware,KiCad,Pcbnew,5.1.10*
G04 #@! TF.CreationDate,2021-09-27T13:14:11+02:00*
G04 #@! TF.ProjectId,KXKM_ESP32_battery_management_board,4b584b4d-5f45-4535-9033-325f62617474,3.0*
G04 #@! TF.SameCoordinates,PX623a7c0PY839b680*
G04 #@! TF.FileFunction,Legend,Top*
G04 #@! TF.FilePolarity,Positive*
%FSLAX46Y46*%
G04 Gerber Fmt 4.6, Leading zero omitted, Abs format (unit mm)*
G04 Created by KiCad (PCBNEW 5.1.10) date 2021-09-27 13:14:11*
%MOMM*%
%LPD*%
G01*
G04 APERTURE LIST*
%ADD10C,0.300000*%
%ADD11C,0.150000*%
%ADD12C,0.200000*%
%ADD13C,0.125000*%
%ADD14C,0.120000*%
%ADD15C,0.100000*%
G04 APERTURE END LIST*
D10*
X4428571Y5342858D02*
X5571428Y5342858D01*
D11*
X41521428Y1428572D02*
X41207142Y1428572D01*
X41150000Y1400000D01*
X41121428Y1342858D01*
X41121428Y1228572D01*
X41150000Y1171429D01*
X41492857Y1428572D02*
X41521428Y1371429D01*
X41521428Y1228572D01*
X41492857Y1171429D01*
X41435714Y1142858D01*
X41378571Y1142858D01*
X41321428Y1171429D01*
X41292857Y1228572D01*
X41292857Y1371429D01*
X41264285Y1428572D01*
X41121428Y1971429D02*
X41521428Y1971429D01*
X41121428Y1714286D02*
X41435714Y1714286D01*
X41492857Y1742858D01*
X41521428Y1800000D01*
X41521428Y1885715D01*
X41492857Y1942858D01*
X41464285Y1971429D01*
X41121428Y2171429D02*
X41121428Y2400000D01*
X40921428Y2257143D02*
X41435714Y2257143D01*
X41492857Y2285715D01*
X41521428Y2342858D01*
X41521428Y2400000D01*
X41521428Y2685715D02*
X41492857Y2628572D01*
X41464285Y2600000D01*
X41407142Y2571429D01*
X41235714Y2571429D01*
X41178571Y2600000D01*
X41150000Y2628572D01*
X41121428Y2685715D01*
X41121428Y2771429D01*
X41150000Y2828572D01*
X41178571Y2857143D01*
X41235714Y2885715D01*
X41407142Y2885715D01*
X41464285Y2857143D01*
X41492857Y2828572D01*
X41521428Y2771429D01*
X41521428Y2685715D01*
X41521428Y3142858D02*
X40921428Y3142858D01*
X41150000Y3142858D02*
X41121428Y3200000D01*
X41121428Y3314286D01*
X41150000Y3371429D01*
X41178571Y3400000D01*
X41235714Y3428572D01*
X41407142Y3428572D01*
X41464285Y3400000D01*
X41492857Y3371429D01*
X41521428Y3314286D01*
X41521428Y3200000D01*
X41492857Y3142858D01*
X41521428Y3771429D02*
X41492857Y3714286D01*
X41464285Y3685715D01*
X41407142Y3657143D01*
X41235714Y3657143D01*
X41178571Y3685715D01*
X41150000Y3714286D01*
X41121428Y3771429D01*
X41121428Y3857143D01*
X41150000Y3914286D01*
X41178571Y3942858D01*
X41235714Y3971429D01*
X41407142Y3971429D01*
X41464285Y3942858D01*
X41492857Y3914286D01*
X41521428Y3857143D01*
X41521428Y3771429D01*
X41521428Y4314286D02*
X41492857Y4257143D01*
X41464285Y4228572D01*
X41407142Y4200000D01*
X41235714Y4200000D01*
X41178571Y4228572D01*
X41150000Y4257143D01*
X41121428Y4314286D01*
X41121428Y4400000D01*
X41150000Y4457143D01*
X41178571Y4485715D01*
X41235714Y4514286D01*
X41407142Y4514286D01*
X41464285Y4485715D01*
X41492857Y4457143D01*
X41521428Y4400000D01*
X41521428Y4314286D01*
X41121428Y4685715D02*
X41121428Y4914286D01*
X40921428Y4771429D02*
X41435714Y4771429D01*
X41492857Y4800000D01*
X41521428Y4857143D01*
X41521428Y4914286D01*
D12*
X8595714Y7357143D02*
X8595714Y8271429D01*
X9052857Y11585715D02*
X7852857Y11585715D01*
X7852857Y11871429D01*
X7910000Y12042858D01*
X8024285Y12157143D01*
X8138571Y12214286D01*
X8367142Y12271429D01*
X8538571Y12271429D01*
X8767142Y12214286D01*
X8881428Y12157143D01*
X8995714Y12042858D01*
X9052857Y11871429D01*
X9052857Y11585715D01*
X8595714Y15528572D02*
X8595714Y16442858D01*
X9052857Y15985715D02*
X8138571Y15985715D01*
D11*
X2812380Y9975715D02*
X2812380Y9404286D01*
X2812380Y9690000D02*
X1812380Y9690000D01*
X1955238Y9594762D01*
X2050476Y9499524D01*
X2098095Y9404286D01*
X5207619Y9404286D02*
X5160000Y9451905D01*
X5112380Y9547143D01*
X5112380Y9785239D01*
X5160000Y9880477D01*
X5207619Y9928096D01*
X5302857Y9975715D01*
X5398095Y9975715D01*
X5540952Y9928096D01*
X6112380Y9356667D01*
X6112380Y9975715D01*
X10551428Y10041429D02*
X10551428Y9755715D01*
X9951428Y9755715D01*
X10237142Y10241429D02*
X10237142Y10441429D01*
X10551428Y10527143D02*
X10551428Y10241429D01*
X9951428Y10241429D01*
X9951428Y10527143D01*
X10551428Y10784286D02*
X9951428Y10784286D01*
X9951428Y10927143D01*
X9980000Y11012858D01*
X10037142Y11070000D01*
X10094285Y11098572D01*
X10208571Y11127143D01*
X10294285Y11127143D01*
X10408571Y11098572D01*
X10465714Y11070000D01*
X10522857Y11012858D01*
X10551428Y10927143D01*
X10551428Y10784286D01*
X10522857Y11812858D02*
X10551428Y11870000D01*
X10551428Y11984286D01*
X10522857Y12041429D01*
X10465714Y12070000D01*
X10437142Y12070000D01*
X10380000Y12041429D01*
X10351428Y11984286D01*
X10351428Y11898572D01*
X10322857Y11841429D01*
X10265714Y11812858D01*
X10237142Y11812858D01*
X10180000Y11841429D01*
X10151428Y11898572D01*
X10151428Y11984286D01*
X10180000Y12041429D01*
X10151428Y12241429D02*
X10151428Y12470000D01*
X9951428Y12327143D02*
X10465714Y12327143D01*
X10522857Y12355715D01*
X10551428Y12412858D01*
X10551428Y12470000D01*
X10551428Y12670000D02*
X10151428Y12670000D01*
X10265714Y12670000D02*
X10208571Y12698572D01*
X10180000Y12727143D01*
X10151428Y12784286D01*
X10151428Y12841429D01*
X10551428Y13041429D02*
X10151428Y13041429D01*
X9951428Y13041429D02*
X9980000Y13012858D01*
X10008571Y13041429D01*
X9980000Y13070000D01*
X9951428Y13041429D01*
X10008571Y13041429D01*
X10151428Y13327143D02*
X10751428Y13327143D01*
X10180000Y13327143D02*
X10151428Y13384286D01*
X10151428Y13498572D01*
X10180000Y13555715D01*
X10208571Y13584286D01*
X10265714Y13612858D01*
X10437142Y13612858D01*
X10494285Y13584286D01*
X10522857Y13555715D01*
X10551428Y13498572D01*
X10551428Y13384286D01*
X10522857Y13327143D01*
X44642857Y6792858D02*
X44728571Y6764286D01*
X44757142Y6735715D01*
X44785714Y6678572D01*
X44785714Y6592858D01*
X44757142Y6535715D01*
X44728571Y6507143D01*
X44671428Y6478572D01*
X44442857Y6478572D01*
X44442857Y7078572D01*
X44642857Y7078572D01*
X44700000Y7050000D01*
X44728571Y7021429D01*
X44757142Y6964286D01*
X44757142Y6907143D01*
X44728571Y6850000D01*
X44700000Y6821429D01*
X44642857Y6792858D01*
X44442857Y6792858D01*
X45014285Y6650000D02*
X45300000Y6650000D01*
X44957142Y6478572D02*
X45157142Y7078572D01*
X45357142Y6478572D01*
X45471428Y7078572D02*
X45814285Y7078572D01*
X45642857Y6478572D02*
X45642857Y7078572D01*
X45928571Y7078572D02*
X46271428Y7078572D01*
X46100000Y6478572D02*
X46100000Y7078572D01*
X46928571Y6478572D02*
X46928571Y7078572D01*
X47214285Y6478572D02*
X47214285Y7078572D01*
X47557142Y6478572D01*
X47557142Y7078572D01*
X13250000Y6000000D02*
X250000Y6000000D01*
X13250000Y250000D02*
X13250000Y6000000D01*
X250000Y250000D02*
X250000Y6000000D01*
X13250000Y250000D02*
X250000Y250000D01*
X56250000Y6000000D02*
X56250000Y250000D01*
X43250000Y6000000D02*
X56250000Y6000000D01*
X43250000Y250000D02*
X43250000Y6000000D01*
X56250000Y250000D02*
X43250000Y250000D01*
X53350000Y24600000D02*
X50600000Y24600000D01*
X53350000Y32100000D02*
X53350000Y24600000D01*
X50600000Y32100000D02*
X53350000Y32100000D01*
X50600000Y24600000D02*
X50600000Y32100000D01*
X51817857Y25564286D02*
X51846428Y25650000D01*
X51846428Y25792858D01*
X51817857Y25850000D01*
X51789285Y25878572D01*
X51732142Y25907143D01*
X51675000Y25907143D01*
X51617857Y25878572D01*
X51589285Y25850000D01*
X51560714Y25792858D01*
X51532142Y25678572D01*
X51503571Y25621429D01*
X51475000Y25592858D01*
X51417857Y25564286D01*
X51360714Y25564286D01*
X51303571Y25592858D01*
X51275000Y25621429D01*
X51246428Y25678572D01*
X51246428Y25821429D01*
X51275000Y25907143D01*
X51846428Y26164286D02*
X51246428Y26164286D01*
X51246428Y26307143D01*
X51275000Y26392858D01*
X51332142Y26450000D01*
X51389285Y26478572D01*
X51503571Y26507143D01*
X51589285Y26507143D01*
X51703571Y26478572D01*
X51760714Y26450000D01*
X51817857Y26392858D01*
X51846428Y26307143D01*
X51846428Y26164286D01*
X51675000Y26735715D02*
X51675000Y27021429D01*
X51846428Y26678572D02*
X51246428Y26878572D01*
X51846428Y27078572D01*
X51246428Y27678572D02*
X51246428Y28050000D01*
X51475000Y27850000D01*
X51475000Y27935715D01*
X51503571Y27992858D01*
X51532142Y28021429D01*
X51589285Y28050000D01*
X51732142Y28050000D01*
X51789285Y28021429D01*
X51817857Y27992858D01*
X51846428Y27935715D01*
X51846428Y27764286D01*
X51817857Y27707143D01*
X51789285Y27678572D01*
X51246428Y28221429D02*
X51846428Y28421429D01*
X51246428Y28621429D01*
X51246428Y28764286D02*
X51246428Y29135715D01*
X51475000Y28935715D01*
X51475000Y29021429D01*
X51503571Y29078572D01*
X51532142Y29107143D01*
X51589285Y29135715D01*
X51732142Y29135715D01*
X51789285Y29107143D01*
X51817857Y29078572D01*
X51846428Y29021429D01*
X51846428Y28850000D01*
X51817857Y28792858D01*
X51789285Y28764286D01*
X52867857Y27092858D02*
X52896428Y27178572D01*
X52896428Y27321429D01*
X52867857Y27378572D01*
X52839285Y27407143D01*
X52782142Y27435715D01*
X52725000Y27435715D01*
X52667857Y27407143D01*
X52639285Y27378572D01*
X52610714Y27321429D01*
X52582142Y27207143D01*
X52553571Y27150000D01*
X52525000Y27121429D01*
X52467857Y27092858D01*
X52410714Y27092858D01*
X52353571Y27121429D01*
X52325000Y27150000D01*
X52296428Y27207143D01*
X52296428Y27350000D01*
X52325000Y27435715D01*
X52839285Y28035715D02*
X52867857Y28007143D01*
X52896428Y27921429D01*
X52896428Y27864286D01*
X52867857Y27778572D01*
X52810714Y27721429D01*
X52753571Y27692858D01*
X52639285Y27664286D01*
X52553571Y27664286D01*
X52439285Y27692858D01*
X52382142Y27721429D01*
X52325000Y27778572D01*
X52296428Y27864286D01*
X52296428Y27921429D01*
X52325000Y28007143D01*
X52353571Y28035715D01*
X52896428Y28578572D02*
X52896428Y28292858D01*
X52296428Y28292858D01*
X52325000Y29550000D02*
X52296428Y29492858D01*
X52296428Y29407143D01*
X52325000Y29321429D01*
X52382142Y29264286D01*
X52439285Y29235715D01*
X52553571Y29207143D01*
X52639285Y29207143D01*
X52753571Y29235715D01*
X52810714Y29264286D01*
X52867857Y29321429D01*
X52896428Y29407143D01*
X52896428Y29464286D01*
X52867857Y29550000D01*
X52839285Y29578572D01*
X52639285Y29578572D01*
X52639285Y29464286D01*
X52896428Y29835715D02*
X52296428Y29835715D01*
X52896428Y30178572D01*
X52296428Y30178572D01*
X52896428Y30464286D02*
X52296428Y30464286D01*
X52296428Y30607143D01*
X52325000Y30692858D01*
X52382142Y30750000D01*
X52439285Y30778572D01*
X52553571Y30807143D01*
X52639285Y30807143D01*
X52753571Y30778572D01*
X52810714Y30750000D01*
X52867857Y30692858D01*
X52896428Y30607143D01*
X52896428Y30464286D01*
X30840357Y28403572D02*
X30840357Y29003572D01*
X30983214Y29003572D01*
X31068928Y28975000D01*
X31126071Y28917858D01*
X31154642Y28860715D01*
X31183214Y28746429D01*
X31183214Y28660715D01*
X31154642Y28546429D01*
X31126071Y28489286D01*
X31068928Y28432143D01*
X30983214Y28403572D01*
X30840357Y28403572D01*
X31440357Y28403572D02*
X31440357Y29003572D01*
X31640357Y28575000D01*
X31840357Y29003572D01*
X31840357Y28403572D01*
X32068928Y29003572D02*
X32468928Y28403572D01*
X32468928Y29003572D02*
X32068928Y28403572D01*
X31154642Y27925000D02*
X31097500Y27953572D01*
X31011785Y27953572D01*
X30926071Y27925000D01*
X30868928Y27867858D01*
X30840357Y27810715D01*
X30811785Y27696429D01*
X30811785Y27610715D01*
X30840357Y27496429D01*
X30868928Y27439286D01*
X30926071Y27382143D01*
X31011785Y27353572D01*
X31068928Y27353572D01*
X31154642Y27382143D01*
X31183214Y27410715D01*
X31183214Y27610715D01*
X31068928Y27610715D01*
X31440357Y27753572D02*
X31440357Y27353572D01*
X31440357Y27696429D02*
X31468928Y27725000D01*
X31526071Y27753572D01*
X31611785Y27753572D01*
X31668928Y27725000D01*
X31697500Y27667858D01*
X31697500Y27353572D01*
X32240357Y27353572D02*
X32240357Y27953572D01*
X32240357Y27382143D02*
X32183214Y27353572D01*
X32068928Y27353572D01*
X32011785Y27382143D01*
X31983214Y27410715D01*
X31954642Y27467858D01*
X31954642Y27639286D01*
X31983214Y27696429D01*
X32011785Y27725000D01*
X32068928Y27753572D01*
X32183214Y27753572D01*
X32240357Y27725000D01*
X31040357Y26617858D02*
X31126071Y26589286D01*
X31154642Y26560715D01*
X31183214Y26503572D01*
X31183214Y26417858D01*
X31154642Y26360715D01*
X31126071Y26332143D01*
X31068928Y26303572D01*
X30840357Y26303572D01*
X30840357Y26903572D01*
X31040357Y26903572D01*
X31097500Y26875000D01*
X31126071Y26846429D01*
X31154642Y26789286D01*
X31154642Y26732143D01*
X31126071Y26675000D01*
X31097500Y26646429D01*
X31040357Y26617858D01*
X30840357Y26617858D01*
X30811785Y25425000D02*
X31097500Y25425000D01*
X30754642Y25253572D02*
X30954642Y25853572D01*
X31154642Y25253572D01*
X2567142Y41401905D02*
X2567142Y40601905D01*
X2388571Y40601905D01*
X2281428Y40640000D01*
X2210000Y40716191D01*
X2174285Y40792381D01*
X2138571Y40944762D01*
X2138571Y41059048D01*
X2174285Y41211429D01*
X2210000Y41287620D01*
X2281428Y41363810D01*
X2388571Y41401905D01*
X2567142Y41401905D01*
X1924285Y40601905D02*
X1495714Y40601905D01*
X1710000Y41401905D02*
X1710000Y40601905D01*
X817142Y41401905D02*
X1067142Y41020953D01*
X1245714Y41401905D02*
X1245714Y40601905D01*
X960000Y40601905D01*
X888571Y40640000D01*
X852857Y40678096D01*
X817142Y40754286D01*
X817142Y40868572D01*
X852857Y40944762D01*
X888571Y40982858D01*
X960000Y41020953D01*
X1245714Y41020953D01*
D12*
X5635714Y29771429D02*
X6302380Y30009524D01*
X5635714Y30247620D01*
X5302380Y30533334D02*
X5302380Y31152381D01*
X5683333Y30819048D01*
X5683333Y30961905D01*
X5730952Y31057143D01*
X5778571Y31104762D01*
X5873809Y31152381D01*
X6111904Y31152381D01*
X6207142Y31104762D01*
X6254761Y31057143D01*
X6302380Y30961905D01*
X6302380Y30676191D01*
X6254761Y30580953D01*
X6207142Y30533334D01*
X6207142Y31580953D02*
X6254761Y31628572D01*
X6302380Y31580953D01*
X6254761Y31533334D01*
X6207142Y31580953D01*
X6302380Y31580953D01*
X6302380Y32580953D02*
X6302380Y32009524D01*
X6302380Y32295239D02*
X5302380Y32295239D01*
X5445238Y32200000D01*
X5540476Y32104762D01*
X5588095Y32009524D01*
X7002380Y28247620D02*
X7002380Y28342858D01*
X7050000Y28438096D01*
X7097619Y28485715D01*
X7192857Y28533334D01*
X7383333Y28580953D01*
X7621428Y28580953D01*
X7811904Y28533334D01*
X7907142Y28485715D01*
X7954761Y28438096D01*
X8002380Y28342858D01*
X8002380Y28247620D01*
X7954761Y28152381D01*
X7907142Y28104762D01*
X7811904Y28057143D01*
X7621428Y28009524D01*
X7383333Y28009524D01*
X7192857Y28057143D01*
X7097619Y28104762D01*
X7050000Y28152381D01*
X7002380Y28247620D01*
X8002380Y29057143D02*
X8002380Y29247620D01*
X7954761Y29342858D01*
X7907142Y29390477D01*
X7764285Y29485715D01*
X7573809Y29533334D01*
X7192857Y29533334D01*
X7097619Y29485715D01*
X7050000Y29438096D01*
X7002380Y29342858D01*
X7002380Y29152381D01*
X7050000Y29057143D01*
X7097619Y29009524D01*
X7192857Y28961905D01*
X7430952Y28961905D01*
X7526190Y29009524D01*
X7573809Y29057143D01*
X7621428Y29152381D01*
X7621428Y29342858D01*
X7573809Y29438096D01*
X7526190Y29485715D01*
X7430952Y29533334D01*
X6954761Y30676191D02*
X8240476Y29819048D01*
X7097619Y30961905D02*
X7050000Y31009524D01*
X7002380Y31104762D01*
X7002380Y31342858D01*
X7050000Y31438096D01*
X7097619Y31485715D01*
X7192857Y31533334D01*
X7288095Y31533334D01*
X7430952Y31485715D01*
X8002380Y30914286D01*
X8002380Y31533334D01*
X7002380Y32152381D02*
X7002380Y32247620D01*
X7050000Y32342858D01*
X7097619Y32390477D01*
X7192857Y32438096D01*
X7383333Y32485715D01*
X7621428Y32485715D01*
X7811904Y32438096D01*
X7907142Y32390477D01*
X7954761Y32342858D01*
X8002380Y32247620D01*
X8002380Y32152381D01*
X7954761Y32057143D01*
X7907142Y32009524D01*
X7811904Y31961905D01*
X7621428Y31914286D01*
X7383333Y31914286D01*
X7192857Y31961905D01*
X7097619Y32009524D01*
X7050000Y32057143D01*
X7002380Y32152381D01*
X7097619Y32866667D02*
X7050000Y32914286D01*
X7002380Y33009524D01*
X7002380Y33247620D01*
X7050000Y33342858D01*
X7097619Y33390477D01*
X7192857Y33438096D01*
X7288095Y33438096D01*
X7430952Y33390477D01*
X8002380Y32819048D01*
X8002380Y33438096D01*
X8002380Y34390477D02*
X8002380Y33819048D01*
X8002380Y34104762D02*
X7002380Y34104762D01*
X7145238Y34009524D01*
X7240476Y33914286D01*
X7288095Y33819048D01*
X39285714Y12547620D02*
X38714285Y12547620D01*
X39000000Y12547620D02*
X39000000Y13547620D01*
X38904761Y13404762D01*
X38809523Y13309524D01*
X38714285Y13261905D01*
D10*
X11828571Y5292858D02*
X12971428Y5292858D01*
X12400000Y4721429D02*
X12400000Y5864286D01*
X47428571Y5142858D02*
X48571428Y5142858D01*
X54678571Y5142858D02*
X55821428Y5142858D01*
X55250000Y4571429D02*
X55250000Y5714286D01*
D13*
X10445238Y7673215D02*
X10516666Y7649405D01*
X10540476Y7625596D01*
X10564285Y7577977D01*
X10564285Y7506548D01*
X10540476Y7458929D01*
X10516666Y7435120D01*
X10469047Y7411310D01*
X10278571Y7411310D01*
X10278571Y7911310D01*
X10445238Y7911310D01*
X10492857Y7887500D01*
X10516666Y7863691D01*
X10540476Y7816072D01*
X10540476Y7768453D01*
X10516666Y7720834D01*
X10492857Y7697024D01*
X10445238Y7673215D01*
X10278571Y7673215D01*
X10754761Y7554167D02*
X10992857Y7554167D01*
X10707142Y7411310D02*
X10873809Y7911310D01*
X11040476Y7411310D01*
X11135714Y7911310D02*
X11421428Y7911310D01*
X11278571Y7411310D02*
X11278571Y7911310D01*
X11516666Y7911310D02*
X11802380Y7911310D01*
X11659523Y7411310D02*
X11659523Y7911310D01*
X12445238Y7911310D02*
X12540476Y7911310D01*
X12588095Y7887500D01*
X12635714Y7839881D01*
X12659523Y7744643D01*
X12659523Y7577977D01*
X12635714Y7482739D01*
X12588095Y7435120D01*
X12540476Y7411310D01*
X12445238Y7411310D01*
X12397619Y7435120D01*
X12350000Y7482739D01*
X12326190Y7577977D01*
X12326190Y7744643D01*
X12350000Y7839881D01*
X12397619Y7887500D01*
X12445238Y7911310D01*
X12873809Y7911310D02*
X12873809Y7506548D01*
X12897619Y7458929D01*
X12921428Y7435120D01*
X12969047Y7411310D01*
X13064285Y7411310D01*
X13111904Y7435120D01*
X13135714Y7458929D01*
X13159523Y7506548D01*
X13159523Y7911310D01*
X13326190Y7911310D02*
X13611904Y7911310D01*
X13469047Y7411310D02*
X13469047Y7911310D01*
X11409523Y6869643D02*
X11028571Y6726786D01*
X11409523Y6583929D01*
X12290476Y6536310D02*
X12004761Y6536310D01*
X12147619Y6536310D02*
X12147619Y7036310D01*
X12100000Y6964881D01*
X12052380Y6917262D01*
X12004761Y6893453D01*
X12600000Y7036310D02*
X12647619Y7036310D01*
X12695238Y7012500D01*
X12719047Y6988691D01*
X12742857Y6941072D01*
X12766666Y6845834D01*
X12766666Y6726786D01*
X12742857Y6631548D01*
X12719047Y6583929D01*
X12695238Y6560120D01*
X12647619Y6536310D01*
X12600000Y6536310D01*
X12552380Y6560120D01*
X12528571Y6583929D01*
X12504761Y6631548D01*
X12480952Y6726786D01*
X12480952Y6845834D01*
X12504761Y6941072D01*
X12528571Y6988691D01*
X12552380Y7012500D01*
X12600000Y7036310D01*
X12957142Y6679167D02*
X13195238Y6679167D01*
X12909523Y6536310D02*
X13076190Y7036310D01*
X13242857Y6536310D01*
D11*
X16282857Y55221429D02*
X16568571Y55221429D01*
X16568571Y54621429D01*
X16082857Y55221429D02*
X16082857Y54821429D01*
X16082857Y54621429D02*
X16111428Y54650000D01*
X16082857Y54678572D01*
X16054285Y54650000D01*
X16082857Y54621429D01*
X16082857Y54678572D01*
X15797142Y55221429D02*
X15797142Y54621429D01*
X15568571Y54621429D01*
X15511428Y54650000D01*
X15482857Y54678572D01*
X15454285Y54735715D01*
X15454285Y54821429D01*
X15482857Y54878572D01*
X15511428Y54907143D01*
X15568571Y54935715D01*
X15797142Y54935715D01*
X15111428Y55221429D02*
X15168571Y55192858D01*
X15197142Y55164286D01*
X15225714Y55107143D01*
X15225714Y54935715D01*
X15197142Y54878572D01*
X15168571Y54850000D01*
X15111428Y54821429D01*
X15025714Y54821429D01*
X14968571Y54850000D01*
X14940000Y54878572D01*
X14911428Y54935715D01*
X14911428Y55107143D01*
X14940000Y55164286D01*
X14968571Y55192858D01*
X15025714Y55221429D01*
X15111428Y55221429D01*
X13911428Y55221429D02*
X14197142Y55221429D01*
X14197142Y54621429D01*
X13711428Y55221429D02*
X13711428Y54821429D01*
X13711428Y54621429D02*
X13740000Y54650000D01*
X13711428Y54678572D01*
X13682857Y54650000D01*
X13711428Y54621429D01*
X13711428Y54678572D01*
X13225714Y54907143D02*
X13425714Y54907143D01*
X13425714Y55221429D02*
X13425714Y54621429D01*
X13140000Y54621429D01*
X12682857Y55192858D02*
X12740000Y55221429D01*
X12854285Y55221429D01*
X12911428Y55192858D01*
X12940000Y55135715D01*
X12940000Y54907143D01*
X12911428Y54850000D01*
X12854285Y54821429D01*
X12740000Y54821429D01*
X12682857Y54850000D01*
X12654285Y54907143D01*
X12654285Y54964286D01*
X12940000Y55021429D01*
X11597142Y55164286D02*
X11625714Y55192858D01*
X11711428Y55221429D01*
X11768571Y55221429D01*
X11854285Y55192858D01*
X11911428Y55135715D01*
X11940000Y55078572D01*
X11968571Y54964286D01*
X11968571Y54878572D01*
X11940000Y54764286D01*
X11911428Y54707143D01*
X11854285Y54650000D01*
X11768571Y54621429D01*
X11711428Y54621429D01*
X11625714Y54650000D01*
X11597142Y54678572D01*
X11082857Y54821429D02*
X11082857Y55221429D01*
X11340000Y54821429D02*
X11340000Y55135715D01*
X11311428Y55192858D01*
X11254285Y55221429D01*
X11168571Y55221429D01*
X11111428Y55192858D01*
X11082857Y55164286D01*
X10825714Y55192858D02*
X10768571Y55221429D01*
X10654285Y55221429D01*
X10597142Y55192858D01*
X10568571Y55135715D01*
X10568571Y55107143D01*
X10597142Y55050000D01*
X10654285Y55021429D01*
X10740000Y55021429D01*
X10797142Y54992858D01*
X10825714Y54935715D01*
X10825714Y54907143D01*
X10797142Y54850000D01*
X10740000Y54821429D01*
X10654285Y54821429D01*
X10597142Y54850000D01*
X10397142Y54821429D02*
X10168571Y54821429D01*
X10311428Y54621429D02*
X10311428Y55135715D01*
X10282857Y55192858D01*
X10225714Y55221429D01*
X10168571Y55221429D01*
X9882857Y55221429D02*
X9940000Y55192858D01*
X9968571Y55164286D01*
X9997142Y55107143D01*
X9997142Y54935715D01*
X9968571Y54878572D01*
X9940000Y54850000D01*
X9882857Y54821429D01*
X9797142Y54821429D01*
X9740000Y54850000D01*
X9711428Y54878572D01*
X9682857Y54935715D01*
X9682857Y55107143D01*
X9711428Y55164286D01*
X9740000Y55192858D01*
X9797142Y55221429D01*
X9882857Y55221429D01*
X9425714Y55221429D02*
X9425714Y54821429D01*
X9425714Y54878572D02*
X9397142Y54850000D01*
X9340000Y54821429D01*
X9254285Y54821429D01*
X9197142Y54850000D01*
X9168571Y54907143D01*
X9168571Y55221429D01*
X9168571Y54907143D02*
X9140000Y54850000D01*
X9082857Y54821429D01*
X8997142Y54821429D01*
X8940000Y54850000D01*
X8911428Y54907143D01*
X8911428Y55221429D01*
D12*
X7988095Y42452381D02*
X8321428Y41976191D01*
X8559523Y42452381D02*
X8559523Y41452381D01*
X8178571Y41452381D01*
X8083333Y41500000D01*
X8035714Y41547620D01*
X7988095Y41642858D01*
X7988095Y41785715D01*
X8035714Y41880953D01*
X8083333Y41928572D01*
X8178571Y41976191D01*
X8559523Y41976191D01*
X7178571Y42404762D02*
X7273809Y42452381D01*
X7464285Y42452381D01*
X7559523Y42404762D01*
X7607142Y42309524D01*
X7607142Y41928572D01*
X7559523Y41833334D01*
X7464285Y41785715D01*
X7273809Y41785715D01*
X7178571Y41833334D01*
X7130952Y41928572D01*
X7130952Y42023810D01*
X7607142Y42119048D01*
X6750000Y42404762D02*
X6654761Y42452381D01*
X6464285Y42452381D01*
X6369047Y42404762D01*
X6321428Y42309524D01*
X6321428Y42261905D01*
X6369047Y42166667D01*
X6464285Y42119048D01*
X6607142Y42119048D01*
X6702380Y42071429D01*
X6750000Y41976191D01*
X6750000Y41928572D01*
X6702380Y41833334D01*
X6607142Y41785715D01*
X6464285Y41785715D01*
X6369047Y41833334D01*
X5511904Y42404762D02*
X5607142Y42452381D01*
X5797619Y42452381D01*
X5892857Y42404762D01*
X5940476Y42309524D01*
X5940476Y41928572D01*
X5892857Y41833334D01*
X5797619Y41785715D01*
X5607142Y41785715D01*
X5511904Y41833334D01*
X5464285Y41928572D01*
X5464285Y42023810D01*
X5940476Y42119048D01*
X5178571Y41785715D02*
X4797619Y41785715D01*
X5035714Y41452381D02*
X5035714Y42309524D01*
X4988095Y42404762D01*
X4892857Y42452381D01*
X4797619Y42452381D01*
D13*
X42476190Y1345239D02*
X42476190Y1250000D01*
X42500000Y1202381D01*
X42523809Y1178572D01*
X42595238Y1130953D01*
X42690476Y1107143D01*
X42880952Y1107143D01*
X42928571Y1130953D01*
X42952380Y1154762D01*
X42976190Y1202381D01*
X42976190Y1297620D01*
X42952380Y1345239D01*
X42928571Y1369048D01*
X42880952Y1392858D01*
X42761904Y1392858D01*
X42714285Y1369048D01*
X42690476Y1345239D01*
X42666666Y1297620D01*
X42666666Y1202381D01*
X42690476Y1154762D01*
X42714285Y1130953D01*
X42761904Y1107143D01*
X42785714Y1607143D02*
X42785714Y1988096D01*
X42476190Y2178572D02*
X42476190Y2488096D01*
X42666666Y2321429D01*
X42666666Y2392858D01*
X42690476Y2440477D01*
X42714285Y2464286D01*
X42761904Y2488096D01*
X42880952Y2488096D01*
X42928571Y2464286D01*
X42952380Y2440477D01*
X42976190Y2392858D01*
X42976190Y2250000D01*
X42952380Y2202381D01*
X42928571Y2178572D01*
X42476190Y2797620D02*
X42476190Y2845239D01*
X42500000Y2892858D01*
X42523809Y2916667D01*
X42571428Y2940477D01*
X42666666Y2964286D01*
X42785714Y2964286D01*
X42880952Y2940477D01*
X42928571Y2916667D01*
X42952380Y2892858D01*
X42976190Y2845239D01*
X42976190Y2797620D01*
X42952380Y2750000D01*
X42928571Y2726191D01*
X42880952Y2702381D01*
X42785714Y2678572D01*
X42666666Y2678572D01*
X42571428Y2702381D01*
X42523809Y2726191D01*
X42500000Y2750000D01*
X42476190Y2797620D01*
X42476190Y3107143D02*
X42976190Y3273810D01*
X42476190Y3440477D01*
X42976190Y3607143D02*
X42476190Y3607143D01*
X42476190Y3726191D01*
X42500000Y3797620D01*
X42547619Y3845239D01*
X42595238Y3869048D01*
X42690476Y3892858D01*
X42761904Y3892858D01*
X42857142Y3869048D01*
X42904761Y3845239D01*
X42952380Y3797620D01*
X42976190Y3726191D01*
X42976190Y3607143D01*
X42928571Y4392858D02*
X42952380Y4369048D01*
X42976190Y4297620D01*
X42976190Y4250000D01*
X42952380Y4178572D01*
X42904761Y4130953D01*
X42857142Y4107143D01*
X42761904Y4083334D01*
X42690476Y4083334D01*
X42595238Y4107143D01*
X42547619Y4130953D01*
X42500000Y4178572D01*
X42476190Y4250000D01*
X42476190Y4297620D01*
X42500000Y4369048D01*
X42523809Y4392858D01*
D11*
X52300000Y52992858D02*
X52214285Y53021429D01*
X52071428Y53021429D01*
X52014285Y52992858D01*
X51985714Y52964286D01*
X51957142Y52907143D01*
X51957142Y52850000D01*
X51985714Y52792858D01*
X52014285Y52764286D01*
X52071428Y52735715D01*
X52185714Y52707143D01*
X52242857Y52678572D01*
X52271428Y52650000D01*
X52300000Y52592858D01*
X52300000Y52535715D01*
X52271428Y52478572D01*
X52242857Y52450000D01*
X52185714Y52421429D01*
X52042857Y52421429D01*
X51957142Y52450000D01*
X51757142Y52421429D02*
X51614285Y53021429D01*
X51500000Y52592858D01*
X51385714Y53021429D01*
X51242857Y52421429D01*
X51071428Y52421429D02*
X50700000Y52421429D01*
X50900000Y52650000D01*
X50814285Y52650000D01*
X50757142Y52678572D01*
X50728571Y52707143D01*
X50700000Y52764286D01*
X50700000Y52907143D01*
X50728571Y52964286D01*
X50757142Y52992858D01*
X50814285Y53021429D01*
X50985714Y53021429D01*
X51042857Y52992858D01*
X51071428Y52964286D01*
D12*
X52900000Y50300000D02*
G75*
G03*
X52900000Y50300000I-100000J0D01*
G01*
X50300000Y50300000D02*
G75*
G03*
X50300000Y50300000I-100000J0D01*
G01*
X53800000Y50300000D02*
X53800000Y49200000D01*
X52800000Y50300000D02*
X53800000Y50300000D01*
X50200000Y50300000D02*
X52800000Y51100000D01*
X49200000Y50300000D02*
X50200000Y50300000D01*
X49200000Y49200000D02*
X49200000Y50300000D01*
D11*
X24114285Y6872620D02*
X24114285Y7872620D01*
X24352380Y7872620D01*
X24495238Y7825000D01*
X24590476Y7729762D01*
X24638095Y7634524D01*
X24685714Y7444048D01*
X24685714Y7301191D01*
X24638095Y7110715D01*
X24590476Y7015477D01*
X24495238Y6920239D01*
X24352380Y6872620D01*
X24114285Y6872620D01*
X25685714Y6967858D02*
X25638095Y6920239D01*
X25495238Y6872620D01*
X25400000Y6872620D01*
X25257142Y6920239D01*
X25161904Y7015477D01*
X25114285Y7110715D01*
X25066666Y7301191D01*
X25066666Y7444048D01*
X25114285Y7634524D01*
X25161904Y7729762D01*
X25257142Y7825000D01*
X25400000Y7872620D01*
X25495238Y7872620D01*
X25638095Y7825000D01*
X25685714Y7777381D01*
X26828571Y7920239D02*
X25971428Y6634524D01*
X27161904Y6872620D02*
X27161904Y7872620D01*
X27400000Y7872620D01*
X27542857Y7825000D01*
X27638095Y7729762D01*
X27685714Y7634524D01*
X27733333Y7444048D01*
X27733333Y7301191D01*
X27685714Y7110715D01*
X27638095Y7015477D01*
X27542857Y6920239D01*
X27400000Y6872620D01*
X27161904Y6872620D01*
X28733333Y6967858D02*
X28685714Y6920239D01*
X28542857Y6872620D01*
X28447619Y6872620D01*
X28304761Y6920239D01*
X28209523Y7015477D01*
X28161904Y7110715D01*
X28114285Y7301191D01*
X28114285Y7444048D01*
X28161904Y7634524D01*
X28209523Y7729762D01*
X28304761Y7825000D01*
X28447619Y7872620D01*
X28542857Y7872620D01*
X28685714Y7825000D01*
X28733333Y7777381D01*
X23923809Y5222620D02*
X23923809Y5889286D01*
X23923809Y5794048D02*
X23971428Y5841667D01*
X24066666Y5889286D01*
X24209523Y5889286D01*
X24304761Y5841667D01*
X24352380Y5746429D01*
X24352380Y5222620D01*
X24352380Y5746429D02*
X24400000Y5841667D01*
X24495238Y5889286D01*
X24638095Y5889286D01*
X24733333Y5841667D01*
X24780952Y5746429D01*
X24780952Y5222620D01*
X25400000Y5222620D02*
X25304761Y5270239D01*
X25257142Y5317858D01*
X25209523Y5413096D01*
X25209523Y5698810D01*
X25257142Y5794048D01*
X25304761Y5841667D01*
X25400000Y5889286D01*
X25542857Y5889286D01*
X25638095Y5841667D01*
X25685714Y5794048D01*
X25733333Y5698810D01*
X25733333Y5413096D01*
X25685714Y5317858D01*
X25638095Y5270239D01*
X25542857Y5222620D01*
X25400000Y5222620D01*
X26590476Y5222620D02*
X26590476Y6222620D01*
X26590476Y5270239D02*
X26495238Y5222620D01*
X26304761Y5222620D01*
X26209523Y5270239D01*
X26161904Y5317858D01*
X26114285Y5413096D01*
X26114285Y5698810D01*
X26161904Y5794048D01*
X26209523Y5841667D01*
X26304761Y5889286D01*
X26495238Y5889286D01*
X26590476Y5841667D01*
X27495238Y5889286D02*
X27495238Y5222620D01*
X27066666Y5889286D02*
X27066666Y5365477D01*
X27114285Y5270239D01*
X27209523Y5222620D01*
X27352380Y5222620D01*
X27447619Y5270239D01*
X27495238Y5317858D01*
X28114285Y5222620D02*
X28019047Y5270239D01*
X27971428Y5365477D01*
X27971428Y6222620D01*
X28876190Y5270239D02*
X28780952Y5222620D01*
X28590476Y5222620D01*
X28495238Y5270239D01*
X28447619Y5365477D01*
X28447619Y5746429D01*
X28495238Y5841667D01*
X28590476Y5889286D01*
X28780952Y5889286D01*
X28876190Y5841667D01*
X28923809Y5746429D01*
X28923809Y5651191D01*
X28447619Y5555953D01*
D14*
X21002742Y51540500D02*
X21477258Y51540500D01*
X21002742Y50495500D02*
X21477258Y50495500D01*
X21477258Y52131500D02*
X21002742Y52131500D01*
X21477258Y53176500D02*
X21002742Y53176500D01*
X21002742Y54812500D02*
X21477258Y54812500D01*
X21002742Y53767500D02*
X21477258Y53767500D01*
X21002742Y49904500D02*
X21477258Y49904500D01*
X21002742Y48859500D02*
X21477258Y48859500D01*
X21002742Y46632500D02*
X21477258Y46632500D01*
X21002742Y45587500D02*
X21477258Y45587500D01*
X21477258Y47223500D02*
X21002742Y47223500D01*
X21477258Y48268500D02*
X21002742Y48268500D01*
X32980000Y56780000D02*
X32980000Y46880000D01*
X23060000Y56780000D02*
X23060000Y46880000D01*
X32980000Y56780000D02*
X23060000Y56780000D01*
X32980000Y46880000D02*
X23060000Y46880000D01*
X33220000Y57020000D02*
X33220000Y55636000D01*
X33220000Y57020000D02*
X31837000Y57020000D01*
X31380000Y57980000D02*
X31380000Y56780000D01*
X29740000Y57980000D02*
X29740000Y56780000D01*
X31380000Y57980000D02*
X29740000Y57980000D01*
X31380000Y56780000D02*
X29740000Y56780000D01*
X28840000Y57980000D02*
X28840000Y56780000D01*
X27199000Y57980000D02*
X27199000Y56780000D01*
X28840000Y57980000D02*
X27199000Y57980000D01*
X28840000Y56780000D02*
X27199000Y56780000D01*
X26299000Y57980000D02*
X26299000Y56780000D01*
X24660000Y57980000D02*
X24660000Y56780000D01*
X26299000Y57980000D02*
X24660000Y57980000D01*
X26299000Y56780000D02*
X24660000Y56780000D01*
X37995000Y5380000D02*
X39325000Y5380000D01*
X37995000Y4050000D02*
X37995000Y5380000D01*
X37995000Y2780000D02*
X40655000Y2780000D01*
X40655000Y2780000D02*
X40655000Y180000D01*
X37995000Y2780000D02*
X37995000Y180000D01*
X37995000Y180000D02*
X40655000Y180000D01*
X47597258Y40932500D02*
X47122742Y40932500D01*
X47597258Y39887500D02*
X47122742Y39887500D01*
X55432500Y28102742D02*
X55432500Y28577258D01*
X54387500Y28102742D02*
X54387500Y28577258D01*
X51150000Y40840000D02*
X49300000Y40840000D01*
X51150000Y42040000D02*
X49300000Y42040000D01*
X49300000Y42040000D02*
X49300000Y40840000D01*
X47120000Y34590000D02*
X47120000Y37140000D01*
X48820000Y34590000D02*
X48820000Y37140000D01*
X47120000Y34590000D02*
X48820000Y34590000D01*
X48670580Y39170000D02*
X48389420Y39170000D01*
X48670580Y38150000D02*
X48389420Y38150000D01*
X27950000Y18380000D02*
X28570000Y18380000D01*
X28570000Y18380000D02*
X28570000Y19380000D01*
X27950000Y36620000D02*
X28570000Y36620000D01*
X28570000Y36620000D02*
X28570000Y35620000D01*
X9130000Y18380000D02*
X9130000Y36620000D01*
X9130000Y36620000D02*
X9550000Y36620000D01*
X9130000Y18380000D02*
X9550000Y18380000D01*
X9550000Y18380000D02*
X9550000Y18000000D01*
X25837221Y13510000D02*
X26162779Y13510000D01*
X25837221Y12490000D02*
X26162779Y12490000D01*
X33920000Y18240000D02*
X34850000Y18240000D01*
X37080000Y18240000D02*
X36150000Y18240000D01*
X37080000Y18240000D02*
X37080000Y20400000D01*
X33920000Y18240000D02*
X33920000Y19700000D01*
D11*
X21750000Y8500000D02*
X23250000Y7500000D01*
X21750000Y8500000D02*
X23250000Y10000000D01*
X30750000Y8500000D02*
X21750000Y8500000D01*
X15150000Y100000D02*
X37350000Y100000D01*
X15150000Y16900000D02*
X15150000Y100000D01*
X37350000Y16900000D02*
X15150000Y16900000D01*
X37350000Y100000D02*
X37350000Y16900000D01*
D14*
X780000Y18890000D02*
X780000Y20350000D01*
X3940000Y18890000D02*
X3940000Y21050000D01*
X3940000Y18890000D02*
X3010000Y18890000D01*
X780000Y18890000D02*
X1710000Y18890000D01*
X4490000Y22150000D02*
X4490000Y23610000D01*
X7650000Y22150000D02*
X7650000Y24310000D01*
X7650000Y22150000D02*
X6720000Y22150000D01*
X4490000Y22150000D02*
X5420000Y22150000D01*
D15*
X20300000Y-8775000D02*
X19325000Y-8775000D01*
X19325000Y-8775000D02*
X19325000Y-8100000D01*
X32675000Y-8125000D02*
X32675000Y-8775000D01*
X32675000Y-8775000D02*
X31975000Y-8775000D01*
X20350000Y10925000D02*
X19325000Y10925000D01*
X19325000Y10925000D02*
X19325000Y10125000D01*
X31725000Y10925000D02*
X32675000Y10925000D01*
X32675000Y10925000D02*
X32675000Y10200000D01*
D11*
X18800000Y11900000D02*
X18800000Y-2100000D01*
X18800000Y-2100000D02*
X33200000Y-2100000D01*
X33200000Y-2100000D02*
X33200000Y11900000D01*
X33200000Y11900000D02*
X18800000Y11900000D01*
D14*
X48740000Y15100000D02*
X49740000Y15100000D01*
X49240000Y14600000D02*
X49240000Y15600000D01*
X54945563Y14240000D02*
X56010000Y15304437D01*
X48554437Y14240000D02*
X47490000Y15304437D01*
X48554437Y14240000D02*
X50240000Y14240000D01*
X54945563Y14240000D02*
X53260000Y14240000D01*
X56010000Y15304437D02*
X56010000Y22760000D01*
X47490000Y15304437D02*
X47490000Y22760000D01*
X47490000Y22760000D02*
X50240000Y22760000D01*
X56010000Y22760000D02*
X53260000Y22760000D01*
X7300000Y55515000D02*
X9585000Y55515000D01*
X9585000Y55515000D02*
X9585000Y56985000D01*
X9585000Y56985000D02*
X7300000Y56985000D01*
X51140000Y43860000D02*
X49290000Y43860000D01*
X51140000Y45060000D02*
X49290000Y45060000D01*
X49290000Y45060000D02*
X49290000Y43860000D01*
X38060000Y55241422D02*
X38060000Y55758578D01*
X36640000Y55241422D02*
X36640000Y55758578D01*
X42270000Y12860000D02*
X40770000Y12860000D01*
X40770000Y12860000D02*
X40770000Y12390000D01*
X40770000Y12390000D02*
X37940000Y12390000D01*
X42270000Y5960000D02*
X40770000Y5960000D01*
X40770000Y5960000D02*
X40770000Y6430000D01*
X40770000Y6430000D02*
X39670000Y6430000D01*
X41187221Y55890000D02*
X41512779Y55890000D01*
X41187221Y56910000D02*
X41512779Y56910000D01*
X45415000Y55362779D02*
X45415000Y55037221D01*
X46435000Y55362779D02*
X46435000Y55037221D01*
X44835000Y55387779D02*
X44835000Y55062221D01*
X43815000Y55387779D02*
X43815000Y55062221D01*
X44962221Y53385000D02*
X45287779Y53385000D01*
X44962221Y52365000D02*
X45287779Y52365000D01*
X47120000Y31230000D02*
X49780000Y31230000D01*
X47120000Y31230000D02*
X47120000Y23550000D01*
X47120000Y23550000D02*
X49780000Y23550000D01*
X49780000Y31230000D02*
X49780000Y23550000D01*
X49780000Y33830000D02*
X49780000Y32500000D01*
X48450000Y33830000D02*
X49780000Y33830000D01*
X44850000Y13490000D02*
X39650000Y13490000D01*
X39650000Y13490000D02*
X39650000Y14060000D01*
X39650000Y15580000D02*
X39650000Y16600000D01*
X39650000Y18120000D02*
X39650000Y19140000D01*
X39650000Y20660000D02*
X39650000Y21680000D01*
X39650000Y23200000D02*
X39650000Y24220000D01*
X39650000Y25740000D02*
X39650000Y26760000D01*
X39650000Y28280000D02*
X39650000Y29300000D01*
X39650000Y30820000D02*
X39650000Y31840000D01*
X39650000Y33360000D02*
X39650000Y34380000D01*
X39650000Y35900000D02*
X39650000Y36920000D01*
X39650000Y38440000D02*
X39650000Y39010000D01*
X44850000Y39010000D02*
X39650000Y39010000D01*
X44850000Y13490000D02*
X44850000Y14060000D01*
X44850000Y15580000D02*
X44850000Y16600000D01*
X44850000Y18120000D02*
X44850000Y19140000D01*
X44850000Y20660000D02*
X44850000Y21680000D01*
X44850000Y23200000D02*
X44850000Y24220000D01*
X44850000Y25740000D02*
X44850000Y26760000D01*
X44850000Y28280000D02*
X44850000Y29300000D01*
X44850000Y30820000D02*
X44850000Y31840000D01*
X44850000Y33360000D02*
X44850000Y34380000D01*
X44850000Y35900000D02*
X44850000Y36920000D01*
X44850000Y38440000D02*
X44850000Y39010000D01*
X39650000Y14060000D02*
X38290000Y14060000D01*
X33850000Y48075000D02*
X33850000Y53175000D01*
X38950000Y48075000D02*
X38950000Y53175000D01*
X3000000Y30520000D02*
X1590000Y30520000D01*
X1590000Y28200000D02*
X3620000Y28200000D01*
X1590000Y28200000D02*
X1590000Y28860000D01*
X1590000Y29860000D02*
X1590000Y30520000D01*
X2077221Y23860000D02*
X2402779Y23860000D01*
X2077221Y24880000D02*
X2402779Y24880000D01*
X21772779Y44980000D02*
X21447221Y44980000D01*
X21772779Y43960000D02*
X21447221Y43960000D01*
X25052779Y37790000D02*
X24727221Y37790000D01*
X25052779Y38810000D02*
X24727221Y38810000D01*
X27947221Y37780000D02*
X28272779Y37780000D01*
X27947221Y38800000D02*
X28272779Y38800000D01*
X20862221Y40285000D02*
X21187779Y40285000D01*
X20862221Y39265000D02*
X21187779Y39265000D01*
X21457221Y37630000D02*
X21782779Y37630000D01*
X21457221Y38650000D02*
X21782779Y38650000D01*
X29650000Y18500000D02*
X29650000Y21050000D01*
X31350000Y18500000D02*
X31350000Y21050000D01*
X29650000Y18500000D02*
X31350000Y18500000D01*
X1590000Y27110000D02*
X1590000Y27770000D01*
X1590000Y25450000D02*
X1590000Y26110000D01*
X1590000Y25450000D02*
X3620000Y25450000D01*
X3000000Y27770000D02*
X1590000Y27770000D01*
X20460000Y16162779D02*
X20460000Y15837221D01*
X19440000Y16162779D02*
X19440000Y15837221D01*
X5662779Y41010000D02*
X5337221Y41010000D01*
X5662779Y39990000D02*
X5337221Y39990000D01*
X22110000Y16162779D02*
X22110000Y15837221D01*
X21090000Y16162779D02*
X21090000Y15837221D01*
X4440000Y28102779D02*
X4440000Y27777221D01*
X5460000Y28102779D02*
X5460000Y27777221D01*
X2157221Y32050000D02*
X2482779Y32050000D01*
X2157221Y31030000D02*
X2482779Y31030000D01*
X33010000Y21837221D02*
X33010000Y22162779D01*
X31990000Y21837221D02*
X31990000Y22162779D01*
X4560000Y19347221D02*
X4560000Y19672779D01*
X5580000Y19347221D02*
X5580000Y19672779D01*
X7280000Y19612779D02*
X7280000Y19287221D01*
X8300000Y19612779D02*
X8300000Y19287221D01*
X2197221Y21770000D02*
X2522779Y21770000D01*
X2197221Y22790000D02*
X2522779Y22790000D01*
X5907221Y25050000D02*
X6232779Y25050000D01*
X5907221Y26070000D02*
X6232779Y26070000D01*
X31437221Y38910000D02*
X31762779Y38910000D01*
X31437221Y37890000D02*
X31762779Y37890000D01*
X35337221Y21240000D02*
X35662779Y21240000D01*
X35337221Y22260000D02*
X35662779Y22260000D01*
X39600000Y49825000D02*
X45000000Y49825000D01*
X39600000Y46525000D02*
X45000000Y46525000D01*
X39600000Y49825000D02*
X39600000Y46525000D01*
X43075000Y51575000D02*
X43075000Y50375000D01*
X44925000Y51575000D02*
X43075000Y51575000D01*
X44925000Y50375000D02*
X43075000Y50375000D01*
X51140000Y42360000D02*
X49290000Y42360000D01*
X51140000Y43560000D02*
X49290000Y43560000D01*
X49290000Y43560000D02*
X49290000Y42360000D01*
X8800000Y51470000D02*
X8800000Y50680000D01*
X18700000Y50680000D02*
X18700000Y51470000D01*
X14600000Y49680000D02*
X12900000Y49680000D01*
X18100000Y52470000D02*
X9400000Y52470000D01*
X13100000Y53770000D02*
X13100000Y52470000D01*
X13300000Y53970000D02*
X14200000Y53970000D01*
X14400000Y52470000D02*
X14400000Y53770000D01*
X13100000Y53770000D02*
X13300000Y53970000D01*
X14400000Y53770000D02*
X14200000Y53970000D01*
X11600000Y49680000D02*
X11400000Y49680000D01*
X16100000Y49680000D02*
X15900000Y49680000D01*
X10100000Y49680000D02*
X9400000Y49680000D01*
X18100000Y49680000D02*
X17400000Y49680000D01*
X8780000Y44680000D02*
X8780000Y44780000D01*
X4380000Y43180000D02*
X8780000Y43180000D01*
X8780000Y46280000D02*
X4380000Y46280000D01*
X4380000Y44680000D02*
X4380000Y44780000D01*
X10950279Y16340000D02*
X10624721Y16340000D01*
X10950279Y17360000D02*
X10624721Y17360000D01*
X31687221Y30090000D02*
X32012779Y30090000D01*
X31687221Y31110000D02*
X32012779Y31110000D01*
X41412779Y50490000D02*
X41087221Y50490000D01*
X41412779Y51510000D02*
X41087221Y51510000D01*
X33010000Y41012779D02*
X33010000Y40687221D01*
X31990000Y41012779D02*
X31990000Y40687221D01*
X21237779Y41820000D02*
X20912221Y41820000D01*
X21237779Y40800000D02*
X20912221Y40800000D01*
X31990000Y43937221D02*
X31990000Y44262779D01*
X33010000Y43937221D02*
X33010000Y44262779D01*
X21762779Y43410000D02*
X21437221Y43410000D01*
X21762779Y42390000D02*
X21437221Y42390000D01*
X34590000Y55216422D02*
X34590000Y55733578D01*
X36010000Y55216422D02*
X36010000Y55733578D01*
X36452064Y47535000D02*
X35247936Y47535000D01*
X36452064Y45715000D02*
X35247936Y45715000D01*
X36452064Y43215000D02*
X35247936Y43215000D01*
X36452064Y45035000D02*
X35247936Y45035000D01*
X4370000Y52205000D02*
X5005000Y52205000D01*
X4370000Y51570000D02*
X4370000Y52205000D01*
X420000Y57080000D02*
X1750000Y57080000D01*
X420000Y55750000D02*
X420000Y57080000D01*
X420000Y54480000D02*
X3080000Y54480000D01*
X3080000Y54480000D02*
X3080000Y41720000D01*
X420000Y54480000D02*
X420000Y41720000D01*
X420000Y41720000D02*
X3080000Y41720000D01*
X52350000Y43650000D02*
X54900000Y43650000D01*
X52350000Y41950000D02*
X54900000Y41950000D01*
X52350000Y43650000D02*
X52350000Y41950000D01*
X18900000Y55515000D02*
X21185000Y55515000D01*
X21185000Y55515000D02*
X21185000Y56985000D01*
X21185000Y56985000D02*
X18900000Y56985000D01*
X15385000Y56985000D02*
X13100000Y56985000D01*
X15385000Y55515000D02*
X15385000Y56985000D01*
X13100000Y55515000D02*
X15385000Y55515000D01*
X16000000Y55515000D02*
X18285000Y55515000D01*
X18285000Y55515000D02*
X18285000Y56985000D01*
X18285000Y56985000D02*
X16000000Y56985000D01*
X6685000Y56985000D02*
X4400000Y56985000D01*
X6685000Y55515000D02*
X6685000Y56985000D01*
X4400000Y55515000D02*
X6685000Y55515000D01*
X12485000Y56985000D02*
X10200000Y56985000D01*
X12485000Y55515000D02*
X12485000Y56985000D01*
X10200000Y55515000D02*
X12485000Y55515000D01*
D11*
X35975000Y31675000D02*
X37375000Y31675000D01*
X35975000Y36775000D02*
X31825000Y36775000D01*
X35975000Y31625000D02*
X31825000Y31625000D01*
X35975000Y36775000D02*
X35975000Y36630000D01*
X31825000Y36775000D02*
X31825000Y36630000D01*
X31825000Y31625000D02*
X31825000Y31770000D01*
X35975000Y31625000D02*
X35975000Y31675000D01*
X23750000Y46300000D02*
X29725000Y46300000D01*
X25275000Y39400000D02*
X29725000Y39400000D01*
D14*
X40650000Y52090000D02*
X43100000Y52090000D01*
X42450000Y55310000D02*
X40650000Y55310000D01*
X53687221Y40290000D02*
X54012779Y40290000D01*
X53687221Y41310000D02*
X54012779Y41310000D01*
X47880000Y43497221D02*
X47880000Y43822779D01*
X48900000Y43497221D02*
X48900000Y43822779D01*
X33290000Y25627221D02*
X33290000Y25952779D01*
X32270000Y25627221D02*
X32270000Y25952779D01*
X33010000Y18799721D02*
X33010000Y19125279D01*
X31990000Y18799721D02*
X31990000Y19125279D01*
X37212779Y40960000D02*
X36887221Y40960000D01*
X37212779Y39940000D02*
X36887221Y39940000D01*
X36887221Y41440000D02*
X37212779Y41440000D01*
X36887221Y42460000D02*
X37212779Y42460000D01*
X10250000Y40000000D02*
G75*
G03*
X10250000Y40000000I-950000J0D01*
G01*
X19650000Y45050000D02*
G75*
G03*
X19650000Y45050000I-950000J0D01*
G01*
X34320000Y30880000D02*
X35650000Y30880000D01*
X34320000Y29550000D02*
X34320000Y30880000D01*
X34320000Y28280000D02*
X36980000Y28280000D01*
X36980000Y28280000D02*
X36980000Y23140000D01*
X34320000Y28280000D02*
X34320000Y23140000D01*
X34320000Y23140000D02*
X36980000Y23140000D01*
X56150000Y5850000D02*
X50750000Y5850000D01*
X56150000Y9150000D02*
X50750000Y9150000D01*
X56150000Y5850000D02*
X56150000Y9150000D01*
X54136252Y12960000D02*
X51363748Y12960000D01*
X54136252Y9540000D02*
X51363748Y9540000D01*
X49790000Y53780000D02*
X53190000Y53780000D01*
X48150000Y53780000D02*
X48690000Y53780000D01*
X55350000Y50950000D02*
X55350000Y50440000D01*
X54830000Y50440000D02*
X55350000Y50440000D01*
X54830000Y50950000D02*
X54830000Y50440000D01*
X54290000Y53780000D02*
X54830000Y53780000D01*
X47630000Y50950000D02*
X47630000Y50440000D01*
X48150000Y50950000D02*
X48150000Y50440000D01*
X54830000Y53780000D02*
X54830000Y53550000D01*
X47630000Y57450000D02*
X47630000Y53550000D01*
X47630000Y50440000D02*
X48150000Y50440000D01*
X55350000Y57450000D02*
X55350000Y53550000D01*
X47630000Y57450000D02*
X55350000Y57450000D01*
X48150000Y53780000D02*
X48150000Y53550000D01*
D11*
X48490000Y48500000D02*
X54490000Y48500000D01*
X54490000Y48500000D02*
X54490000Y51250000D01*
X48490000Y48500000D02*
X48490000Y51250000D01*
D15*
X32335714Y4138096D02*
X32335714Y4938096D01*
X32716666Y4138096D02*
X32716666Y4938096D01*
X33173809Y4138096D01*
X33173809Y4938096D01*
X33554761Y4442858D02*
X34164285Y4442858D01*
X32335714Y12138096D02*
X32335714Y12938096D01*
X32716666Y12138096D02*
X32716666Y12938096D01*
X33173809Y12138096D01*
X33173809Y12938096D01*
X33554761Y12442858D02*
X34164285Y12442858D01*
X33859523Y12138096D02*
X33859523Y12747620D01*
X18454761Y4938096D02*
X18607142Y4938096D01*
X18683333Y4900000D01*
X18759523Y4823810D01*
X18797619Y4671429D01*
X18797619Y4404762D01*
X18759523Y4252381D01*
X18683333Y4176191D01*
X18607142Y4138096D01*
X18454761Y4138096D01*
X18378571Y4176191D01*
X18302380Y4252381D01*
X18264285Y4404762D01*
X18264285Y4671429D01*
X18302380Y4823810D01*
X18378571Y4900000D01*
X18454761Y4938096D01*
X19140476Y4938096D02*
X19140476Y4290477D01*
X19178571Y4214286D01*
X19216666Y4176191D01*
X19292857Y4138096D01*
X19445238Y4138096D01*
X19521428Y4176191D01*
X19559523Y4214286D01*
X19597619Y4290477D01*
X19597619Y4938096D01*
X19864285Y4938096D02*
X20321428Y4938096D01*
X20092857Y4138096D02*
X20092857Y4938096D01*
X20588095Y4442858D02*
X21197619Y4442858D01*
X18454761Y12938096D02*
X18607142Y12938096D01*
X18683333Y12900000D01*
X18759523Y12823810D01*
X18797619Y12671429D01*
X18797619Y12404762D01*
X18759523Y12252381D01*
X18683333Y12176191D01*
X18607142Y12138096D01*
X18454761Y12138096D01*
X18378571Y12176191D01*
X18302380Y12252381D01*
X18264285Y12404762D01*
X18264285Y12671429D01*
X18302380Y12823810D01*
X18378571Y12900000D01*
X18454761Y12938096D01*
X19140476Y12938096D02*
X19140476Y12290477D01*
X19178571Y12214286D01*
X19216666Y12176191D01*
X19292857Y12138096D01*
X19445238Y12138096D01*
X19521428Y12176191D01*
X19559523Y12214286D01*
X19597619Y12290477D01*
X19597619Y12938096D01*
X19864285Y12938096D02*
X20321428Y12938096D01*
X20092857Y12138096D02*
X20092857Y12938096D01*
X20588095Y12442858D02*
X21197619Y12442858D01*
X20892857Y12138096D02*
X20892857Y12747620D01*
M02*
