G04 #@! TF.GenerationSoftware,KiCad,Pcbnew,5.1.0*
G04 #@! TF.CreationDate,2019-04-11T17:34:41+02:00*
G04 #@! TF.ProjectId,output.KXKM_battery_module_PANEL,6f757470-7574-42e4-9b58-4b4d5f626174,2.0*
G04 #@! TF.SameCoordinates,PX623a7c0PY839b680*
G04 #@! TF.FileFunction,Profile,NP*
%FSLAX46Y46*%
G04 Gerber Fmt 4.6, Leading zero omitted, Abs format (unit mm)*
G04 Created by KiCad (PCBNEW 5.1.0) date 2019-04-11 17:34:41*
%MOMM*%
%LPD*%
G04 APERTURE LIST*
%ADD10C,0.150000*%
%ADD11C,0.050000*%
%ADD12C,0.100000*%
G04 APERTURE END LIST*
D10*
X43500000Y86750000D02*
G75*
G03X40000000Y83250000I0J-3500000D01*
G01*
X43500000Y64250000D02*
X47000000Y64250000D01*
X40000000Y67750000D02*
G75*
G03X43500000Y64250000I3500000J0D01*
G01*
X3500000Y66250000D02*
G75*
G02X-500000Y62250000I-4000000J0D01*
G01*
X3500000Y66250000D02*
X3500000Y84500000D01*
X40000000Y67750000D02*
X40000000Y83250000D01*
X47000000Y86750000D02*
X43500000Y86750000D01*
X-500000Y88500000D02*
X-9500000Y88500000D01*
X-500000Y88500000D02*
G75*
G02X3500000Y84500000I0J-4000000D01*
G01*
X-9500000Y62250000D02*
X-500000Y62250000D01*
X50500000Y62250000D02*
X59500000Y62250000D01*
X103500000Y86750000D02*
G75*
G03X100000000Y83250000I0J-3500000D01*
G01*
X100000000Y67750000D02*
G75*
G03X103500000Y64250000I3500000J0D01*
G01*
X59500000Y88500000D02*
X50500000Y88500000D01*
X59500000Y88500000D02*
G75*
G02X63500000Y84500000I0J-4000000D01*
G01*
X103500000Y64250000D02*
X107000000Y64250000D01*
X107000000Y86750000D02*
X103500000Y86750000D01*
X63500000Y66250000D02*
G75*
G02X59500000Y62250000I-4000000J0D01*
G01*
X63500000Y66250000D02*
X63500000Y84500000D01*
X100000000Y67750000D02*
X100000000Y83250000D01*
X59500000Y27500000D02*
X50500000Y27500000D01*
X103500000Y3250000D02*
X107000000Y3250000D01*
X107000000Y25750000D02*
X103500000Y25750000D01*
X100000000Y6750000D02*
X100000000Y22250000D01*
X59500000Y27500000D02*
G75*
G02X63500000Y23500000I0J-4000000D01*
G01*
X103500000Y25750000D02*
G75*
G03X100000000Y22250000I0J-3500000D01*
G01*
X63500000Y5250000D02*
G75*
G02X59500000Y1250000I-4000000J0D01*
G01*
X50500000Y1250000D02*
X59500000Y1250000D01*
X100000000Y6750000D02*
G75*
G03X103500000Y3250000I3500000J0D01*
G01*
X63500000Y5250000D02*
X63500000Y23500000D01*
X43500000Y25750000D02*
G75*
G03X40000000Y22250000I0J-3500000D01*
G01*
X3500000Y5250000D02*
X3500000Y23500000D01*
X-500000Y27500000D02*
G75*
G02X3500000Y23500000I0J-4000000D01*
G01*
X3500000Y5250000D02*
G75*
G02X-500000Y1250000I-4000000J0D01*
G01*
X43500000Y3250000D02*
X47000000Y3250000D01*
X47000000Y25750000D02*
X43500000Y25750000D01*
X-9500000Y1250000D02*
X-500000Y1250000D01*
X40000000Y6750000D02*
G75*
G03X43500000Y3250000I3500000J0D01*
G01*
X40000000Y6750000D02*
X40000000Y22250000D01*
X-500000Y27500000D02*
X-9500000Y27500000D01*
D11*
X115500000Y112500000D02*
X-17500000Y112500000D01*
X115500000Y-22500000D02*
X115500000Y112500000D01*
X-17500000Y-22500000D02*
X115500000Y-22500000D01*
X-17500000Y112500000D02*
X-17500000Y-22500000D01*
D12*
X81249995Y107500000D02*
X110500000Y107500000D01*
X76250015Y104000000D02*
X50500000Y104000000D01*
X81249985Y104000000D02*
X107000000Y104000000D01*
X76250015Y104000000D02*
X76349719Y104007687D01*
X76249977Y107500000D02*
X76349681Y107492313D01*
X76349719Y104007687D02*
X76448537Y104023015D01*
X76349681Y107492313D02*
X76448499Y107476985D01*
X76448537Y104023015D02*
X76545884Y104045893D01*
X76448499Y107476985D02*
X76545846Y107454107D01*
X76545884Y104045893D02*
X76641184Y104076186D01*
X76545846Y107454107D02*
X76641146Y107423814D01*
X76641184Y104076186D02*
X76733874Y104113715D01*
X76641146Y107423814D02*
X76733836Y107386285D01*
X76733874Y104113715D02*
X76823405Y104158258D01*
X76733836Y107386285D02*
X76823367Y107341742D01*
X76823405Y104158258D02*
X76909247Y104209551D01*
X76823367Y107341742D02*
X76909209Y107290449D01*
X76909247Y104209551D02*
X76990892Y104267291D01*
X76909209Y107290449D02*
X76990854Y107232709D01*
X76990892Y104267291D02*
X77067857Y104331136D01*
X76990854Y107232709D02*
X77067819Y107168864D01*
X77067857Y104331136D02*
X77139687Y104400708D01*
X77067819Y107168864D02*
X77139649Y107099292D01*
X77139687Y104400708D02*
X77205957Y104475595D01*
X77139649Y107099292D02*
X77205919Y107024405D01*
X77205957Y104475595D02*
X77266275Y104555354D01*
X77205919Y107024405D02*
X77266237Y106944646D01*
X77266275Y104555354D02*
X77320284Y104639513D01*
X77266237Y106944646D02*
X77320246Y106860487D01*
X77320284Y104639513D02*
X77367664Y104727574D01*
X77320246Y106860487D02*
X77367626Y106772426D01*
X77367664Y104727574D02*
X77408135Y104819016D01*
X77367626Y106772426D02*
X77408097Y106680984D01*
X77408135Y104819016D02*
X77441457Y104913298D01*
X77408097Y106680984D02*
X77441419Y106586702D01*
X77441457Y104913298D02*
X77467433Y105009862D01*
X77441419Y106586702D02*
X77467395Y106490138D01*
X77467433Y105009862D02*
X77485910Y105108137D01*
X77467395Y106490138D02*
X77485872Y106391863D01*
X77485910Y105108137D02*
X77496778Y105207542D01*
X77485872Y106391863D02*
X77496740Y106292458D01*
X77496778Y105207542D02*
X77499973Y105307488D01*
X77496740Y106292458D02*
X77499935Y106192512D01*
X77499935Y106192512D02*
X77499973Y105307488D01*
X81249985Y104000000D02*
X81150281Y104007687D01*
X81249995Y107500000D02*
X81150291Y107492313D01*
X81150281Y104007687D02*
X81051463Y104023015D01*
X81150291Y107492313D02*
X81051473Y107476985D01*
X81051463Y104023015D02*
X80954116Y104045893D01*
X81051473Y107476985D02*
X80954126Y107454107D01*
X80954116Y104045893D02*
X80858816Y104076186D01*
X80954126Y107454107D02*
X80858826Y107423814D01*
X80858816Y104076186D02*
X80766126Y104113715D01*
X80858826Y107423814D02*
X80766136Y107386285D01*
X80766126Y104113715D02*
X80676595Y104158258D01*
X80766136Y107386285D02*
X80676605Y107341742D01*
X80676595Y104158258D02*
X80590753Y104209551D01*
X80676605Y107341742D02*
X80590763Y107290449D01*
X80590753Y104209551D02*
X80509108Y104267291D01*
X80590763Y107290449D02*
X80509118Y107232709D01*
X80509108Y104267291D02*
X80432143Y104331136D01*
X80509118Y107232709D02*
X80432153Y107168864D01*
X80432143Y104331136D02*
X80360313Y104400708D01*
X80432153Y107168864D02*
X80360323Y107099292D01*
X80360313Y104400708D02*
X80294043Y104475595D01*
X80360323Y107099292D02*
X80294053Y107024405D01*
X80294043Y104475595D02*
X80233725Y104555354D01*
X80294053Y107024405D02*
X80233735Y106944646D01*
X80233725Y104555354D02*
X80179716Y104639513D01*
X80233735Y106944646D02*
X80179726Y106860487D01*
X80179716Y104639513D02*
X80132336Y104727574D01*
X80179726Y106860487D02*
X80132346Y106772426D01*
X80132336Y104727574D02*
X80091865Y104819016D01*
X80132346Y106772426D02*
X80091875Y106680984D01*
X80091865Y104819016D02*
X80058543Y104913298D01*
X80091875Y106680984D02*
X80058553Y106586702D01*
X80058543Y104913298D02*
X80032567Y105009862D01*
X80058553Y106586702D02*
X80032577Y106490138D01*
X80032567Y105009862D02*
X80014090Y105108137D01*
X80032577Y106490138D02*
X80014100Y106391863D01*
X80014090Y105108137D02*
X80003222Y105207542D01*
X80014100Y106391863D02*
X80003232Y106292458D01*
X80003222Y105207542D02*
X80000027Y105307488D01*
X80003232Y106292458D02*
X80000037Y106192512D01*
X80000037Y106192512D02*
X80000027Y105307488D01*
X21249955Y107500000D02*
X76249977Y107500000D01*
X16250000Y107500000D02*
X-12500000Y107500000D01*
X16250015Y104000000D02*
X-9500000Y104000000D01*
X21249985Y104000000D02*
X47000000Y104000000D01*
X16250015Y104000000D02*
X16349719Y104007687D01*
X16250000Y107500000D02*
X16349704Y107492313D01*
X16349719Y104007687D02*
X16448537Y104023015D01*
X16349704Y107492313D02*
X16448522Y107476985D01*
X16448537Y104023015D02*
X16545884Y104045893D01*
X16448522Y107476985D02*
X16545869Y107454107D01*
X16545884Y104045893D02*
X16641184Y104076186D01*
X16545869Y107454107D02*
X16641169Y107423814D01*
X16641184Y104076186D02*
X16733874Y104113715D01*
X16641169Y107423814D02*
X16733859Y107386285D01*
X16733874Y104113715D02*
X16823405Y104158258D01*
X16733859Y107386285D02*
X16823390Y107341742D01*
X16823405Y104158258D02*
X16909247Y104209551D01*
X16823390Y107341742D02*
X16909232Y107290449D01*
X16909247Y104209551D02*
X16990892Y104267291D01*
X16909232Y107290449D02*
X16990877Y107232709D01*
X16990892Y104267291D02*
X17067857Y104331136D01*
X16990877Y107232709D02*
X17067842Y107168864D01*
X17067857Y104331136D02*
X17139687Y104400708D01*
X17067842Y107168864D02*
X17139672Y107099292D01*
X17139687Y104400708D02*
X17205957Y104475595D01*
X17139672Y107099292D02*
X17205942Y107024405D01*
X17205957Y104475595D02*
X17266275Y104555354D01*
X17205942Y107024405D02*
X17266260Y106944646D01*
X17266275Y104555354D02*
X17320284Y104639513D01*
X17266260Y106944646D02*
X17320269Y106860487D01*
X17320284Y104639513D02*
X17367664Y104727574D01*
X17320269Y106860487D02*
X17367649Y106772426D01*
X17367664Y104727574D02*
X17408135Y104819016D01*
X17367649Y106772426D02*
X17408120Y106680984D01*
X17408135Y104819016D02*
X17441457Y104913298D01*
X17408120Y106680984D02*
X17441442Y106586702D01*
X17441457Y104913298D02*
X17467433Y105009862D01*
X17441442Y106586702D02*
X17467418Y106490138D01*
X17467433Y105009862D02*
X17485910Y105108137D01*
X17467418Y106490138D02*
X17485895Y106391863D01*
X17485910Y105108137D02*
X17496778Y105207542D01*
X17485895Y106391863D02*
X17496763Y106292458D01*
X17496778Y105207542D02*
X17499973Y105307488D01*
X17496763Y106292458D02*
X17499958Y106192512D01*
X17499958Y106192512D02*
X17499973Y105307488D01*
X21249955Y107500000D02*
X21150251Y107492313D01*
X21249985Y104000000D02*
X21150281Y104007687D01*
X21150251Y107492313D02*
X21051433Y107476985D01*
X21150281Y104007687D02*
X21051463Y104023015D01*
X21051433Y107476985D02*
X20954086Y107454107D01*
X21051463Y104023015D02*
X20954116Y104045893D01*
X20954086Y107454107D02*
X20858786Y107423814D01*
X20954116Y104045893D02*
X20858816Y104076186D01*
X20858786Y107423814D02*
X20766096Y107386285D01*
X20858816Y104076186D02*
X20766126Y104113715D01*
X20766096Y107386285D02*
X20676565Y107341742D01*
X20766126Y104113715D02*
X20676595Y104158258D01*
X20676565Y107341742D02*
X20590723Y107290449D01*
X20676595Y104158258D02*
X20590753Y104209551D01*
X20590723Y107290449D02*
X20509078Y107232709D01*
X20590753Y104209551D02*
X20509108Y104267291D01*
X20509078Y107232709D02*
X20432113Y107168864D01*
X20509108Y104267291D02*
X20432143Y104331136D01*
X20432113Y107168864D02*
X20360283Y107099292D01*
X20432143Y104331136D02*
X20360313Y104400708D01*
X20360283Y107099292D02*
X20294013Y107024405D01*
X20360313Y104400708D02*
X20294043Y104475595D01*
X20294013Y107024405D02*
X20233695Y106944646D01*
X20294043Y104475595D02*
X20233725Y104555354D01*
X20233695Y106944646D02*
X20179686Y106860487D01*
X20233725Y104555354D02*
X20179716Y104639513D01*
X20179686Y106860487D02*
X20132306Y106772426D01*
X20179716Y104639513D02*
X20132336Y104727574D01*
X20132306Y106772426D02*
X20091835Y106680984D01*
X20132336Y104727574D02*
X20091865Y104819016D01*
X20091835Y106680984D02*
X20058513Y106586702D01*
X20091865Y104819016D02*
X20058543Y104913298D01*
X20058513Y106586702D02*
X20032537Y106490138D01*
X20058543Y104913298D02*
X20032567Y105009862D01*
X20032537Y106490138D02*
X20014060Y106391863D01*
X20032567Y105009862D02*
X20014090Y105108137D01*
X20014060Y106391863D02*
X20003192Y106292458D01*
X20014090Y105108137D02*
X20003222Y105207542D01*
X20003192Y106292458D02*
X19999997Y106192512D01*
X20003222Y105207542D02*
X20000027Y105307488D01*
X19999997Y106192512D02*
X20000027Y105307488D01*
X81249985Y46500000D02*
X107000000Y46500000D01*
X76250015Y46500000D02*
X50500000Y46500000D01*
X76250015Y43000000D02*
X50500000Y43000000D01*
X81249985Y43000000D02*
X107000000Y43000000D01*
X76250015Y43000000D02*
X76349719Y43007687D01*
X76250015Y46500000D02*
X76349719Y46492313D01*
X76349719Y43007687D02*
X76448537Y43023015D01*
X76349719Y46492313D02*
X76448537Y46476985D01*
X76448537Y43023015D02*
X76545884Y43045893D01*
X76448537Y46476985D02*
X76545884Y46454107D01*
X76545884Y43045893D02*
X76641184Y43076186D01*
X76545884Y46454107D02*
X76641184Y46423814D01*
X76641184Y43076186D02*
X76733874Y43113715D01*
X76641184Y46423814D02*
X76733874Y46386285D01*
X76733874Y43113715D02*
X76823405Y43158258D01*
X76733874Y46386285D02*
X76823405Y46341742D01*
X76823405Y43158258D02*
X76909247Y43209551D01*
X76823405Y46341742D02*
X76909247Y46290449D01*
X76909247Y43209551D02*
X76990892Y43267291D01*
X76909247Y46290449D02*
X76990892Y46232709D01*
X76990892Y43267291D02*
X77067857Y43331136D01*
X76990892Y46232709D02*
X77067857Y46168864D01*
X77067857Y43331136D02*
X77139687Y43400708D01*
X77067857Y46168864D02*
X77139687Y46099292D01*
X77139687Y43400708D02*
X77205957Y43475595D01*
X77139687Y46099292D02*
X77205957Y46024405D01*
X77205957Y43475595D02*
X77266275Y43555354D01*
X77205957Y46024405D02*
X77266275Y45944646D01*
X77266275Y43555354D02*
X77320284Y43639513D01*
X77266275Y45944646D02*
X77320284Y45860487D01*
X77320284Y43639513D02*
X77367664Y43727574D01*
X77320284Y45860487D02*
X77367664Y45772426D01*
X77367664Y43727574D02*
X77408135Y43819016D01*
X77367664Y45772426D02*
X77408135Y45680984D01*
X77408135Y43819016D02*
X77441457Y43913298D01*
X77408135Y45680984D02*
X77441457Y45586702D01*
X77441457Y43913298D02*
X77467433Y44009862D01*
X77441457Y45586702D02*
X77467433Y45490138D01*
X77467433Y44009862D02*
X77485910Y44108137D01*
X77467433Y45490138D02*
X77485910Y45391863D01*
X77485910Y44108137D02*
X77496778Y44207542D01*
X77485910Y45391863D02*
X77496778Y45292458D01*
X77496778Y44207542D02*
X77499973Y44307488D01*
X77496778Y45292458D02*
X77499973Y45192512D01*
X77499973Y45192512D02*
X77499973Y44307488D01*
X81249985Y43000000D02*
X81150281Y43007687D01*
X81249985Y46500000D02*
X81150281Y46492313D01*
X81150281Y43007687D02*
X81051463Y43023015D01*
X81150281Y46492313D02*
X81051463Y46476985D01*
X81051463Y43023015D02*
X80954116Y43045893D01*
X81051463Y46476985D02*
X80954116Y46454107D01*
X80954116Y43045893D02*
X80858816Y43076186D01*
X80954116Y46454107D02*
X80858816Y46423814D01*
X80858816Y43076186D02*
X80766126Y43113715D01*
X80858816Y46423814D02*
X80766126Y46386285D01*
X80766126Y43113715D02*
X80676595Y43158258D01*
X80766126Y46386285D02*
X80676595Y46341742D01*
X80676595Y43158258D02*
X80590753Y43209551D01*
X80676595Y46341742D02*
X80590753Y46290449D01*
X80590753Y43209551D02*
X80509108Y43267291D01*
X80590753Y46290449D02*
X80509108Y46232709D01*
X80509108Y43267291D02*
X80432143Y43331136D01*
X80509108Y46232709D02*
X80432143Y46168864D01*
X80432143Y43331136D02*
X80360313Y43400708D01*
X80432143Y46168864D02*
X80360313Y46099292D01*
X80360313Y43400708D02*
X80294043Y43475595D01*
X80360313Y46099292D02*
X80294043Y46024405D01*
X80294043Y43475595D02*
X80233725Y43555354D01*
X80294043Y46024405D02*
X80233725Y45944646D01*
X80233725Y43555354D02*
X80179716Y43639513D01*
X80233725Y45944646D02*
X80179716Y45860487D01*
X80179716Y43639513D02*
X80132336Y43727574D01*
X80179716Y45860487D02*
X80132336Y45772426D01*
X80132336Y43727574D02*
X80091865Y43819016D01*
X80132336Y45772426D02*
X80091865Y45680984D01*
X80091865Y43819016D02*
X80058543Y43913298D01*
X80091865Y45680984D02*
X80058543Y45586702D01*
X80058543Y43913298D02*
X80032567Y44009862D01*
X80058543Y45586702D02*
X80032567Y45490138D01*
X80032567Y44009862D02*
X80014090Y44108137D01*
X80032567Y45490138D02*
X80014090Y45391863D01*
X80014090Y44108137D02*
X80003222Y44207542D01*
X80014090Y45391863D02*
X80003222Y45292458D01*
X80003222Y44207542D02*
X80000027Y44307488D01*
X80003222Y45292458D02*
X80000027Y45192512D01*
X80000027Y45192512D02*
X80000027Y44307488D01*
X-9500000Y52749992D02*
X-9500000Y46500000D01*
X-9500000Y57749998D02*
X-9500000Y62250000D01*
X-9500000Y57749998D02*
X-9507687Y57650294D01*
X-12500000Y57750033D02*
X-12492313Y57650329D01*
X-9507687Y57650294D02*
X-9523015Y57551476D01*
X-12492313Y57650329D02*
X-12476985Y57551511D01*
X-9523015Y57551476D02*
X-9545893Y57454129D01*
X-12476985Y57551511D02*
X-12454107Y57454164D01*
X-9545893Y57454129D02*
X-9576186Y57358829D01*
X-12454107Y57454164D02*
X-12423814Y57358864D01*
X-9576186Y57358829D02*
X-9613715Y57266139D01*
X-12423814Y57358864D02*
X-12386285Y57266174D01*
X-9613715Y57266139D02*
X-9658258Y57176608D01*
X-12386285Y57266174D02*
X-12341742Y57176643D01*
X-9658258Y57176608D02*
X-9709551Y57090766D01*
X-12341742Y57176643D02*
X-12290449Y57090801D01*
X-9709551Y57090766D02*
X-9767291Y57009121D01*
X-12290449Y57090801D02*
X-12232709Y57009156D01*
X-9767291Y57009121D02*
X-9831136Y56932156D01*
X-12232709Y57009156D02*
X-12168864Y56932191D01*
X-9831136Y56932156D02*
X-9900708Y56860326D01*
X-12168864Y56932191D02*
X-12099292Y56860361D01*
X-9900708Y56860326D02*
X-9975595Y56794056D01*
X-12099292Y56860361D02*
X-12024405Y56794091D01*
X-9975595Y56794056D02*
X-10055354Y56733738D01*
X-12024405Y56794091D02*
X-11944646Y56733773D01*
X-10055354Y56733738D02*
X-10139513Y56679729D01*
X-11944646Y56733773D02*
X-11860487Y56679764D01*
X-10139513Y56679729D02*
X-10227574Y56632349D01*
X-11860487Y56679764D02*
X-11772426Y56632384D01*
X-10227574Y56632349D02*
X-10319016Y56591878D01*
X-11772426Y56632384D02*
X-11680984Y56591913D01*
X-10319016Y56591878D02*
X-10413298Y56558556D01*
X-11680984Y56591913D02*
X-11586702Y56558591D01*
X-10413298Y56558556D02*
X-10509862Y56532580D01*
X-11586702Y56558591D02*
X-11490138Y56532615D01*
X-10509862Y56532580D02*
X-10608137Y56514103D01*
X-11490138Y56532615D02*
X-11391863Y56514138D01*
X-10608137Y56514103D02*
X-10707542Y56503235D01*
X-11391863Y56514138D02*
X-11292458Y56503270D01*
X-10707542Y56503235D02*
X-10807488Y56500040D01*
X-11292458Y56503270D02*
X-11192512Y56500075D01*
X-10807488Y56500040D02*
X-11192512Y56500075D01*
X-9500000Y52749992D02*
X-9507687Y52849696D01*
X-12500000Y52749945D02*
X-12492313Y52849649D01*
X-9507687Y52849696D02*
X-9523015Y52948514D01*
X-12492313Y52849649D02*
X-12476985Y52948467D01*
X-9523015Y52948514D02*
X-9545893Y53045861D01*
X-12476985Y52948467D02*
X-12454107Y53045814D01*
X-9545893Y53045861D02*
X-9576186Y53141161D01*
X-12454107Y53045814D02*
X-12423814Y53141114D01*
X-9576186Y53141161D02*
X-9613715Y53233851D01*
X-12423814Y53141114D02*
X-12386285Y53233804D01*
X-9613715Y53233851D02*
X-9658258Y53323382D01*
X-12386285Y53233804D02*
X-12341742Y53323335D01*
X-9658258Y53323382D02*
X-9709551Y53409224D01*
X-12341742Y53323335D02*
X-12290449Y53409177D01*
X-9709551Y53409224D02*
X-9767291Y53490869D01*
X-12290449Y53409177D02*
X-12232709Y53490822D01*
X-9767291Y53490869D02*
X-9831136Y53567834D01*
X-12232709Y53490822D02*
X-12168864Y53567787D01*
X-9831136Y53567834D02*
X-9900708Y53639664D01*
X-12168864Y53567787D02*
X-12099292Y53639617D01*
X-9900708Y53639664D02*
X-9975595Y53705934D01*
X-12099292Y53639617D02*
X-12024405Y53705887D01*
X-9975595Y53705934D02*
X-10055354Y53766252D01*
X-12024405Y53705887D02*
X-11944646Y53766205D01*
X-10055354Y53766252D02*
X-10139513Y53820261D01*
X-11944646Y53766205D02*
X-11860487Y53820214D01*
X-10139513Y53820261D02*
X-10227574Y53867641D01*
X-11860487Y53820214D02*
X-11772426Y53867594D01*
X-10227574Y53867641D02*
X-10319016Y53908112D01*
X-11772426Y53867594D02*
X-11680984Y53908065D01*
X-10319016Y53908112D02*
X-10413298Y53941434D01*
X-11680984Y53908065D02*
X-11586702Y53941387D01*
X-10413298Y53941434D02*
X-10509862Y53967410D01*
X-11586702Y53941387D02*
X-11490138Y53967363D01*
X-10509862Y53967410D02*
X-10608137Y53985887D01*
X-11490138Y53967363D02*
X-11391863Y53985840D01*
X-10608137Y53985887D02*
X-10707542Y53996755D01*
X-11391863Y53985840D02*
X-11292458Y53996708D01*
X-10707542Y53996755D02*
X-10807488Y53999950D01*
X-11292458Y53996708D02*
X-11192512Y53999903D01*
X-10807488Y53999950D02*
X-11192512Y53999903D01*
X-9500000Y93000002D02*
X-9500000Y88500000D01*
X-9500000Y98000000D02*
X-9500000Y104000000D01*
X-12500000Y93000007D02*
X-12500000Y57750033D01*
X-12500000Y97999990D02*
X-12500000Y107500000D01*
X-12500000Y97999990D02*
X-12492313Y97900286D01*
X-9500000Y98000000D02*
X-9507687Y97900296D01*
X-12492313Y97900286D02*
X-12476985Y97801468D01*
X-9507687Y97900296D02*
X-9523015Y97801478D01*
X-12476985Y97801468D02*
X-12454107Y97704121D01*
X-9523015Y97801478D02*
X-9545893Y97704131D01*
X-12454107Y97704121D02*
X-12423814Y97608821D01*
X-9545893Y97704131D02*
X-9576186Y97608831D01*
X-12423814Y97608821D02*
X-12386285Y97516131D01*
X-9576186Y97608831D02*
X-9613715Y97516141D01*
X-12386285Y97516131D02*
X-12341742Y97426600D01*
X-9613715Y97516141D02*
X-9658258Y97426610D01*
X-12341742Y97426600D02*
X-12290449Y97340758D01*
X-9658258Y97426610D02*
X-9709551Y97340768D01*
X-12290449Y97340758D02*
X-12232709Y97259113D01*
X-9709551Y97340768D02*
X-9767291Y97259123D01*
X-12232709Y97259113D02*
X-12168864Y97182148D01*
X-9767291Y97259123D02*
X-9831136Y97182158D01*
X-12168864Y97182148D02*
X-12099292Y97110318D01*
X-9831136Y97182158D02*
X-9900708Y97110328D01*
X-12099292Y97110318D02*
X-12024405Y97044048D01*
X-9900708Y97110328D02*
X-9975595Y97044058D01*
X-12024405Y97044048D02*
X-11944646Y96983730D01*
X-9975595Y97044058D02*
X-10055354Y96983740D01*
X-11944646Y96983730D02*
X-11860487Y96929721D01*
X-10055354Y96983740D02*
X-10139513Y96929731D01*
X-11860487Y96929721D02*
X-11772426Y96882341D01*
X-10139513Y96929731D02*
X-10227574Y96882351D01*
X-11772426Y96882341D02*
X-11680984Y96841870D01*
X-10227574Y96882351D02*
X-10319016Y96841880D01*
X-11680984Y96841870D02*
X-11586702Y96808548D01*
X-10319016Y96841880D02*
X-10413298Y96808558D01*
X-11586702Y96808548D02*
X-11490138Y96782572D01*
X-10413298Y96808558D02*
X-10509862Y96782582D01*
X-11490138Y96782572D02*
X-11391863Y96764095D01*
X-10509862Y96782582D02*
X-10608137Y96764105D01*
X-11391863Y96764095D02*
X-11292458Y96753227D01*
X-10608137Y96764105D02*
X-10707542Y96753237D01*
X-11292458Y96753227D02*
X-11192512Y96750032D01*
X-10707542Y96753237D02*
X-10807488Y96750042D01*
X-10807488Y96750042D02*
X-11192512Y96750032D01*
X-12500000Y93000007D02*
X-12492313Y93099711D01*
X-9500000Y93000002D02*
X-9507687Y93099706D01*
X-12492313Y93099711D02*
X-12476985Y93198529D01*
X-9507687Y93099706D02*
X-9523015Y93198524D01*
X-12476985Y93198529D02*
X-12454107Y93295876D01*
X-9523015Y93198524D02*
X-9545893Y93295871D01*
X-12454107Y93295876D02*
X-12423814Y93391176D01*
X-9545893Y93295871D02*
X-9576186Y93391171D01*
X-12423814Y93391176D02*
X-12386285Y93483866D01*
X-9576186Y93391171D02*
X-9613715Y93483861D01*
X-12386285Y93483866D02*
X-12341742Y93573397D01*
X-9613715Y93483861D02*
X-9658258Y93573392D01*
X-12341742Y93573397D02*
X-12290449Y93659239D01*
X-9658258Y93573392D02*
X-9709551Y93659234D01*
X-12290449Y93659239D02*
X-12232709Y93740884D01*
X-9709551Y93659234D02*
X-9767291Y93740879D01*
X-12232709Y93740884D02*
X-12168864Y93817849D01*
X-9767291Y93740879D02*
X-9831136Y93817844D01*
X-12168864Y93817849D02*
X-12099292Y93889679D01*
X-9831136Y93817844D02*
X-9900708Y93889674D01*
X-12099292Y93889679D02*
X-12024405Y93955949D01*
X-9900708Y93889674D02*
X-9975595Y93955944D01*
X-12024405Y93955949D02*
X-11944646Y94016267D01*
X-9975595Y93955944D02*
X-10055354Y94016262D01*
X-11944646Y94016267D02*
X-11860487Y94070276D01*
X-10055354Y94016262D02*
X-10139513Y94070271D01*
X-11860487Y94070276D02*
X-11772426Y94117656D01*
X-10139513Y94070271D02*
X-10227574Y94117651D01*
X-11772426Y94117656D02*
X-11680984Y94158127D01*
X-10227574Y94117651D02*
X-10319016Y94158122D01*
X-11680984Y94158127D02*
X-11586702Y94191449D01*
X-10319016Y94158122D02*
X-10413298Y94191444D01*
X-11586702Y94191449D02*
X-11490138Y94217425D01*
X-10413298Y94191444D02*
X-10509862Y94217420D01*
X-11490138Y94217425D02*
X-11391863Y94235902D01*
X-10509862Y94217420D02*
X-10608137Y94235897D01*
X-11391863Y94235902D02*
X-11292458Y94246770D01*
X-10608137Y94235897D02*
X-10707542Y94246765D01*
X-11292458Y94246770D02*
X-11192512Y94249965D01*
X-10707542Y94246765D02*
X-10807488Y94249960D01*
X-10807488Y94249960D02*
X-11192512Y94249965D01*
X21249985Y46500000D02*
X47000000Y46500000D01*
X16250015Y46500000D02*
X-9500000Y46500000D01*
X16250015Y43000000D02*
X-9500000Y43000000D01*
X21249985Y43000000D02*
X47000000Y43000000D01*
X16250015Y43000000D02*
X16349719Y43007687D01*
X16250015Y46500000D02*
X16349719Y46492313D01*
X16349719Y43007687D02*
X16448537Y43023015D01*
X16349719Y46492313D02*
X16448537Y46476985D01*
X16448537Y43023015D02*
X16545884Y43045893D01*
X16448537Y46476985D02*
X16545884Y46454107D01*
X16545884Y43045893D02*
X16641184Y43076186D01*
X16545884Y46454107D02*
X16641184Y46423814D01*
X16641184Y43076186D02*
X16733874Y43113715D01*
X16641184Y46423814D02*
X16733874Y46386285D01*
X16733874Y43113715D02*
X16823405Y43158258D01*
X16733874Y46386285D02*
X16823405Y46341742D01*
X16823405Y43158258D02*
X16909247Y43209551D01*
X16823405Y46341742D02*
X16909247Y46290449D01*
X16909247Y43209551D02*
X16990892Y43267291D01*
X16909247Y46290449D02*
X16990892Y46232709D01*
X16990892Y43267291D02*
X17067857Y43331136D01*
X16990892Y46232709D02*
X17067857Y46168864D01*
X17067857Y43331136D02*
X17139687Y43400708D01*
X17067857Y46168864D02*
X17139687Y46099292D01*
X17139687Y43400708D02*
X17205957Y43475595D01*
X17139687Y46099292D02*
X17205957Y46024405D01*
X17205957Y43475595D02*
X17266275Y43555354D01*
X17205957Y46024405D02*
X17266275Y45944646D01*
X17266275Y43555354D02*
X17320284Y43639513D01*
X17266275Y45944646D02*
X17320284Y45860487D01*
X17320284Y43639513D02*
X17367664Y43727574D01*
X17320284Y45860487D02*
X17367664Y45772426D01*
X17367664Y43727574D02*
X17408135Y43819016D01*
X17367664Y45772426D02*
X17408135Y45680984D01*
X17408135Y43819016D02*
X17441457Y43913298D01*
X17408135Y45680984D02*
X17441457Y45586702D01*
X17441457Y43913298D02*
X17467433Y44009862D01*
X17441457Y45586702D02*
X17467433Y45490138D01*
X17467433Y44009862D02*
X17485910Y44108137D01*
X17467433Y45490138D02*
X17485910Y45391863D01*
X17485910Y44108137D02*
X17496778Y44207542D01*
X17485910Y45391863D02*
X17496778Y45292458D01*
X17496778Y44207542D02*
X17499973Y44307488D01*
X17496778Y45292458D02*
X17499973Y45192512D01*
X17499973Y45192512D02*
X17499973Y44307488D01*
X21249985Y43000000D02*
X21150281Y43007687D01*
X21249985Y46500000D02*
X21150281Y46492313D01*
X21150281Y43007687D02*
X21051463Y43023015D01*
X21150281Y46492313D02*
X21051463Y46476985D01*
X21051463Y43023015D02*
X20954116Y43045893D01*
X21051463Y46476985D02*
X20954116Y46454107D01*
X20954116Y43045893D02*
X20858816Y43076186D01*
X20954116Y46454107D02*
X20858816Y46423814D01*
X20858816Y43076186D02*
X20766126Y43113715D01*
X20858816Y46423814D02*
X20766126Y46386285D01*
X20766126Y43113715D02*
X20676595Y43158258D01*
X20766126Y46386285D02*
X20676595Y46341742D01*
X20676595Y43158258D02*
X20590753Y43209551D01*
X20676595Y46341742D02*
X20590753Y46290449D01*
X20590753Y43209551D02*
X20509108Y43267291D01*
X20590753Y46290449D02*
X20509108Y46232709D01*
X20509108Y43267291D02*
X20432143Y43331136D01*
X20509108Y46232709D02*
X20432143Y46168864D01*
X20432143Y43331136D02*
X20360313Y43400708D01*
X20432143Y46168864D02*
X20360313Y46099292D01*
X20360313Y43400708D02*
X20294043Y43475595D01*
X20360313Y46099292D02*
X20294043Y46024405D01*
X20294043Y43475595D02*
X20233725Y43555354D01*
X20294043Y46024405D02*
X20233725Y45944646D01*
X20233725Y43555354D02*
X20179716Y43639513D01*
X20233725Y45944646D02*
X20179716Y45860487D01*
X20179716Y43639513D02*
X20132336Y43727574D01*
X20179716Y45860487D02*
X20132336Y45772426D01*
X20132336Y43727574D02*
X20091865Y43819016D01*
X20132336Y45772426D02*
X20091865Y45680984D01*
X20091865Y43819016D02*
X20058543Y43913298D01*
X20091865Y45680984D02*
X20058543Y45586702D01*
X20058543Y43913298D02*
X20032567Y44009862D01*
X20058543Y45586702D02*
X20032567Y45490138D01*
X20032567Y44009862D02*
X20014090Y44108137D01*
X20032567Y45490138D02*
X20014090Y45391863D01*
X20014090Y44108137D02*
X20003222Y44207542D01*
X20014090Y45391863D02*
X20003222Y45292458D01*
X20003222Y44207542D02*
X20000027Y44307488D01*
X20003222Y45292458D02*
X20000027Y45192512D01*
X20000027Y45192512D02*
X20000027Y44307488D01*
X107000000Y57749998D02*
X107000000Y64250000D01*
X107000000Y52749992D02*
X107000000Y46500000D01*
X107000000Y57749998D02*
X107007687Y57650294D01*
X110500000Y57750033D02*
X110492313Y57650329D01*
X107007687Y57650294D02*
X107023015Y57551476D01*
X110492313Y57650329D02*
X110476985Y57551511D01*
X107023015Y57551476D02*
X107045893Y57454129D01*
X110476985Y57551511D02*
X110454107Y57454164D01*
X107045893Y57454129D02*
X107076186Y57358829D01*
X110454107Y57454164D02*
X110423814Y57358864D01*
X107076186Y57358829D02*
X107113715Y57266139D01*
X110423814Y57358864D02*
X110386285Y57266174D01*
X107113715Y57266139D02*
X107158258Y57176608D01*
X110386285Y57266174D02*
X110341742Y57176643D01*
X107158258Y57176608D02*
X107209551Y57090766D01*
X110341742Y57176643D02*
X110290449Y57090801D01*
X107209551Y57090766D02*
X107267291Y57009121D01*
X110290449Y57090801D02*
X110232709Y57009156D01*
X107267291Y57009121D02*
X107331136Y56932156D01*
X110232709Y57009156D02*
X110168864Y56932191D01*
X107331136Y56932156D02*
X107400708Y56860326D01*
X110168864Y56932191D02*
X110099292Y56860361D01*
X107400708Y56860326D02*
X107475595Y56794056D01*
X110099292Y56860361D02*
X110024405Y56794091D01*
X107475595Y56794056D02*
X107555354Y56733738D01*
X110024405Y56794091D02*
X109944646Y56733773D01*
X107555354Y56733738D02*
X107639513Y56679729D01*
X109944646Y56733773D02*
X109860487Y56679764D01*
X107639513Y56679729D02*
X107727574Y56632349D01*
X109860487Y56679764D02*
X109772426Y56632384D01*
X107727574Y56632349D02*
X107819016Y56591878D01*
X109772426Y56632384D02*
X109680984Y56591913D01*
X107819016Y56591878D02*
X107913298Y56558556D01*
X109680984Y56591913D02*
X109586702Y56558591D01*
X107913298Y56558556D02*
X108009862Y56532580D01*
X109586702Y56558591D02*
X109490138Y56532615D01*
X108009862Y56532580D02*
X108108137Y56514103D01*
X109490138Y56532615D02*
X109391863Y56514138D01*
X108108137Y56514103D02*
X108207542Y56503235D01*
X109391863Y56514138D02*
X109292458Y56503270D01*
X108207542Y56503235D02*
X108307488Y56500040D01*
X109292458Y56503270D02*
X109192512Y56500075D01*
X109192512Y56500075D02*
X108307488Y56500040D01*
X107000000Y52749992D02*
X107007687Y52849696D01*
X110500000Y52749945D02*
X110492313Y52849649D01*
X107007687Y52849696D02*
X107023015Y52948514D01*
X110492313Y52849649D02*
X110476985Y52948467D01*
X107023015Y52948514D02*
X107045893Y53045861D01*
X110476985Y52948467D02*
X110454107Y53045814D01*
X107045893Y53045861D02*
X107076186Y53141161D01*
X110454107Y53045814D02*
X110423814Y53141114D01*
X107076186Y53141161D02*
X107113715Y53233851D01*
X110423814Y53141114D02*
X110386285Y53233804D01*
X107113715Y53233851D02*
X107158258Y53323382D01*
X110386285Y53233804D02*
X110341742Y53323335D01*
X107158258Y53323382D02*
X107209551Y53409224D01*
X110341742Y53323335D02*
X110290449Y53409177D01*
X107209551Y53409224D02*
X107267291Y53490869D01*
X110290449Y53409177D02*
X110232709Y53490822D01*
X107267291Y53490869D02*
X107331136Y53567834D01*
X110232709Y53490822D02*
X110168864Y53567787D01*
X107331136Y53567834D02*
X107400708Y53639664D01*
X110168864Y53567787D02*
X110099292Y53639617D01*
X107400708Y53639664D02*
X107475595Y53705934D01*
X110099292Y53639617D02*
X110024405Y53705887D01*
X107475595Y53705934D02*
X107555354Y53766252D01*
X110024405Y53705887D02*
X109944646Y53766205D01*
X107555354Y53766252D02*
X107639513Y53820261D01*
X109944646Y53766205D02*
X109860487Y53820214D01*
X107639513Y53820261D02*
X107727574Y53867641D01*
X109860487Y53820214D02*
X109772426Y53867594D01*
X107727574Y53867641D02*
X107819016Y53908112D01*
X109772426Y53867594D02*
X109680984Y53908065D01*
X107819016Y53908112D02*
X107913298Y53941434D01*
X109680984Y53908065D02*
X109586702Y53941387D01*
X107913298Y53941434D02*
X108009862Y53967410D01*
X109586702Y53941387D02*
X109490138Y53967363D01*
X108009862Y53967410D02*
X108108137Y53985887D01*
X109490138Y53967363D02*
X109391863Y53985840D01*
X108108137Y53985887D02*
X108207542Y53996755D01*
X109391863Y53985840D02*
X109292458Y53996708D01*
X108207542Y53996755D02*
X108307488Y53999950D01*
X109292458Y53996708D02*
X109192512Y53999903D01*
X109192512Y53999903D02*
X108307488Y53999950D01*
X50500000Y93000002D02*
X50500000Y88500000D01*
X50500000Y98000000D02*
X50500000Y104000000D01*
X47000000Y98000000D02*
X47000000Y104000000D01*
X47000000Y92999992D02*
X47000000Y86750000D01*
X47000000Y98000000D02*
X47007687Y97900296D01*
X50500000Y98000000D02*
X50492313Y97900296D01*
X47007687Y97900296D02*
X47023015Y97801478D01*
X50492313Y97900296D02*
X50476985Y97801478D01*
X47023015Y97801478D02*
X47045893Y97704131D01*
X50476985Y97801478D02*
X50454107Y97704131D01*
X47045893Y97704131D02*
X47076186Y97608831D01*
X50454107Y97704131D02*
X50423814Y97608831D01*
X47076186Y97608831D02*
X47113715Y97516141D01*
X50423814Y97608831D02*
X50386285Y97516141D01*
X47113715Y97516141D02*
X47158258Y97426610D01*
X50386285Y97516141D02*
X50341742Y97426610D01*
X47158258Y97426610D02*
X47209551Y97340768D01*
X50341742Y97426610D02*
X50290449Y97340768D01*
X47209551Y97340768D02*
X47267291Y97259123D01*
X50290449Y97340768D02*
X50232709Y97259123D01*
X47267291Y97259123D02*
X47331136Y97182158D01*
X50232709Y97259123D02*
X50168864Y97182158D01*
X47331136Y97182158D02*
X47400708Y97110328D01*
X50168864Y97182158D02*
X50099292Y97110328D01*
X47400708Y97110328D02*
X47475595Y97044058D01*
X50099292Y97110328D02*
X50024405Y97044058D01*
X47475595Y97044058D02*
X47555354Y96983740D01*
X50024405Y97044058D02*
X49944646Y96983740D01*
X47555354Y96983740D02*
X47639513Y96929731D01*
X49944646Y96983740D02*
X49860487Y96929731D01*
X47639513Y96929731D02*
X47727574Y96882351D01*
X49860487Y96929731D02*
X49772426Y96882351D01*
X47727574Y96882351D02*
X47819016Y96841880D01*
X49772426Y96882351D02*
X49680984Y96841880D01*
X47819016Y96841880D02*
X47913298Y96808558D01*
X49680984Y96841880D02*
X49586702Y96808558D01*
X47913298Y96808558D02*
X48009862Y96782582D01*
X49586702Y96808558D02*
X49490138Y96782582D01*
X48009862Y96782582D02*
X48108137Y96764105D01*
X49490138Y96782582D02*
X49391863Y96764105D01*
X48108137Y96764105D02*
X48207542Y96753237D01*
X49391863Y96764105D02*
X49292458Y96753237D01*
X48207542Y96753237D02*
X48307488Y96750042D01*
X49292458Y96753237D02*
X49192512Y96750042D01*
X49192512Y96750042D02*
X48307488Y96750042D01*
X50500000Y93000002D02*
X50492313Y93099706D01*
X47000000Y92999992D02*
X47007687Y93099696D01*
X50492313Y93099706D02*
X50476985Y93198524D01*
X47007687Y93099696D02*
X47023015Y93198514D01*
X50476985Y93198524D02*
X50454107Y93295871D01*
X47023015Y93198514D02*
X47045893Y93295861D01*
X50454107Y93295871D02*
X50423814Y93391171D01*
X47045893Y93295861D02*
X47076186Y93391161D01*
X50423814Y93391171D02*
X50386285Y93483861D01*
X47076186Y93391161D02*
X47113715Y93483851D01*
X50386285Y93483861D02*
X50341742Y93573392D01*
X47113715Y93483851D02*
X47158258Y93573382D01*
X50341742Y93573392D02*
X50290449Y93659234D01*
X47158258Y93573382D02*
X47209551Y93659224D01*
X50290449Y93659234D02*
X50232709Y93740879D01*
X47209551Y93659224D02*
X47267291Y93740869D01*
X50232709Y93740879D02*
X50168864Y93817844D01*
X47267291Y93740869D02*
X47331136Y93817834D01*
X50168864Y93817844D02*
X50099292Y93889674D01*
X47331136Y93817834D02*
X47400708Y93889664D01*
X50099292Y93889674D02*
X50024405Y93955944D01*
X47400708Y93889664D02*
X47475595Y93955934D01*
X50024405Y93955944D02*
X49944646Y94016262D01*
X47475595Y93955934D02*
X47555354Y94016252D01*
X49944646Y94016262D02*
X49860487Y94070271D01*
X47555354Y94016252D02*
X47639513Y94070261D01*
X49860487Y94070271D02*
X49772426Y94117651D01*
X47639513Y94070261D02*
X47727574Y94117641D01*
X49772426Y94117651D02*
X49680984Y94158122D01*
X47727574Y94117641D02*
X47819016Y94158112D01*
X49680984Y94158122D02*
X49586702Y94191444D01*
X47819016Y94158112D02*
X47913298Y94191434D01*
X49586702Y94191444D02*
X49490138Y94217420D01*
X47913298Y94191434D02*
X48009862Y94217410D01*
X49490138Y94217420D02*
X49391863Y94235897D01*
X48009862Y94217410D02*
X48108137Y94235887D01*
X49391863Y94235897D02*
X49292458Y94246765D01*
X48108137Y94235887D02*
X48207542Y94246755D01*
X49292458Y94246765D02*
X49192512Y94249960D01*
X48207542Y94246755D02*
X48307488Y94249950D01*
X49192512Y94249960D02*
X48307488Y94249950D01*
X110500000Y93000007D02*
X110500000Y57750033D01*
X110500000Y97999990D02*
X110500000Y107500000D01*
X107000000Y98000000D02*
X107000000Y104000000D01*
X107000000Y92999992D02*
X107000000Y86750000D01*
X110500000Y97999990D02*
X110492313Y97900286D01*
X107000000Y98000000D02*
X107007687Y97900296D01*
X110492313Y97900286D02*
X110476985Y97801468D01*
X107007687Y97900296D02*
X107023015Y97801478D01*
X110476985Y97801468D02*
X110454107Y97704121D01*
X107023015Y97801478D02*
X107045893Y97704131D01*
X110454107Y97704121D02*
X110423814Y97608821D01*
X107045893Y97704131D02*
X107076186Y97608831D01*
X110423814Y97608821D02*
X110386285Y97516131D01*
X107076186Y97608831D02*
X107113715Y97516141D01*
X110386285Y97516131D02*
X110341742Y97426600D01*
X107113715Y97516141D02*
X107158258Y97426610D01*
X110341742Y97426600D02*
X110290449Y97340758D01*
X107158258Y97426610D02*
X107209551Y97340768D01*
X110290449Y97340758D02*
X110232709Y97259113D01*
X107209551Y97340768D02*
X107267291Y97259123D01*
X110232709Y97259113D02*
X110168864Y97182148D01*
X107267291Y97259123D02*
X107331136Y97182158D01*
X110168864Y97182148D02*
X110099292Y97110318D01*
X107331136Y97182158D02*
X107400708Y97110328D01*
X110099292Y97110318D02*
X110024405Y97044048D01*
X107400708Y97110328D02*
X107475595Y97044058D01*
X110024405Y97044048D02*
X109944646Y96983730D01*
X107475595Y97044058D02*
X107555354Y96983740D01*
X109944646Y96983730D02*
X109860487Y96929721D01*
X107555354Y96983740D02*
X107639513Y96929731D01*
X109860487Y96929721D02*
X109772426Y96882341D01*
X107639513Y96929731D02*
X107727574Y96882351D01*
X109772426Y96882341D02*
X109680984Y96841870D01*
X107727574Y96882351D02*
X107819016Y96841880D01*
X109680984Y96841870D02*
X109586702Y96808548D01*
X107819016Y96841880D02*
X107913298Y96808558D01*
X109586702Y96808548D02*
X109490138Y96782572D01*
X107913298Y96808558D02*
X108009862Y96782582D01*
X109490138Y96782572D02*
X109391863Y96764095D01*
X108009862Y96782582D02*
X108108137Y96764105D01*
X109391863Y96764095D02*
X109292458Y96753227D01*
X108108137Y96764105D02*
X108207542Y96753237D01*
X109292458Y96753227D02*
X109192512Y96750032D01*
X108207542Y96753237D02*
X108307488Y96750042D01*
X109192512Y96750032D02*
X108307488Y96750042D01*
X110500000Y93000007D02*
X110492313Y93099711D01*
X107000000Y92999992D02*
X107007687Y93099696D01*
X110492313Y93099711D02*
X110476985Y93198529D01*
X107007687Y93099696D02*
X107023015Y93198514D01*
X110476985Y93198529D02*
X110454107Y93295876D01*
X107023015Y93198514D02*
X107045893Y93295861D01*
X110454107Y93295876D02*
X110423814Y93391176D01*
X107045893Y93295861D02*
X107076186Y93391161D01*
X110423814Y93391176D02*
X110386285Y93483866D01*
X107076186Y93391161D02*
X107113715Y93483851D01*
X110386285Y93483866D02*
X110341742Y93573397D01*
X107113715Y93483851D02*
X107158258Y93573382D01*
X110341742Y93573397D02*
X110290449Y93659239D01*
X107158258Y93573382D02*
X107209551Y93659224D01*
X110290449Y93659239D02*
X110232709Y93740884D01*
X107209551Y93659224D02*
X107267291Y93740869D01*
X110232709Y93740884D02*
X110168864Y93817849D01*
X107267291Y93740869D02*
X107331136Y93817834D01*
X110168864Y93817849D02*
X110099292Y93889679D01*
X107331136Y93817834D02*
X107400708Y93889664D01*
X110099292Y93889679D02*
X110024405Y93955949D01*
X107400708Y93889664D02*
X107475595Y93955934D01*
X110024405Y93955949D02*
X109944646Y94016267D01*
X107475595Y93955934D02*
X107555354Y94016252D01*
X109944646Y94016267D02*
X109860487Y94070276D01*
X107555354Y94016252D02*
X107639513Y94070261D01*
X109860487Y94070276D02*
X109772426Y94117656D01*
X107639513Y94070261D02*
X107727574Y94117641D01*
X109772426Y94117656D02*
X109680984Y94158127D01*
X107727574Y94117641D02*
X107819016Y94158112D01*
X109680984Y94158127D02*
X109586702Y94191449D01*
X107819016Y94158112D02*
X107913298Y94191434D01*
X109586702Y94191449D02*
X109490138Y94217425D01*
X107913298Y94191434D02*
X108009862Y94217410D01*
X109490138Y94217425D02*
X109391863Y94235902D01*
X108009862Y94217410D02*
X108108137Y94235887D01*
X109391863Y94235902D02*
X109292458Y94246770D01*
X108108137Y94235887D02*
X108207542Y94246755D01*
X109292458Y94246770D02*
X109192512Y94249965D01*
X108207542Y94246755D02*
X108307488Y94249950D01*
X109192512Y94249965D02*
X108307488Y94249950D01*
X50500000Y52749992D02*
X50500000Y46500000D01*
X50500000Y57749998D02*
X50500000Y62250000D01*
X47000000Y57749998D02*
X47000000Y64250000D01*
X47000000Y52749992D02*
X47000000Y46500000D01*
X47000000Y57749998D02*
X47007687Y57650294D01*
X50500000Y57749998D02*
X50492313Y57650294D01*
X47007687Y57650294D02*
X47023015Y57551476D01*
X50492313Y57650294D02*
X50476985Y57551476D01*
X47023015Y57551476D02*
X47045893Y57454129D01*
X50476985Y57551476D02*
X50454107Y57454129D01*
X47045893Y57454129D02*
X47076186Y57358829D01*
X50454107Y57454129D02*
X50423814Y57358829D01*
X47076186Y57358829D02*
X47113715Y57266139D01*
X50423814Y57358829D02*
X50386285Y57266139D01*
X47113715Y57266139D02*
X47158258Y57176608D01*
X50386285Y57266139D02*
X50341742Y57176608D01*
X47158258Y57176608D02*
X47209551Y57090766D01*
X50341742Y57176608D02*
X50290449Y57090766D01*
X47209551Y57090766D02*
X47267291Y57009121D01*
X50290449Y57090766D02*
X50232709Y57009121D01*
X47267291Y57009121D02*
X47331136Y56932156D01*
X50232709Y57009121D02*
X50168864Y56932156D01*
X47331136Y56932156D02*
X47400708Y56860326D01*
X50168864Y56932156D02*
X50099292Y56860326D01*
X47400708Y56860326D02*
X47475595Y56794056D01*
X50099292Y56860326D02*
X50024405Y56794056D01*
X47475595Y56794056D02*
X47555354Y56733738D01*
X50024405Y56794056D02*
X49944646Y56733738D01*
X47555354Y56733738D02*
X47639513Y56679729D01*
X49944646Y56733738D02*
X49860487Y56679729D01*
X47639513Y56679729D02*
X47727574Y56632349D01*
X49860487Y56679729D02*
X49772426Y56632349D01*
X47727574Y56632349D02*
X47819016Y56591878D01*
X49772426Y56632349D02*
X49680984Y56591878D01*
X47819016Y56591878D02*
X47913298Y56558556D01*
X49680984Y56591878D02*
X49586702Y56558556D01*
X47913298Y56558556D02*
X48009862Y56532580D01*
X49586702Y56558556D02*
X49490138Y56532580D01*
X48009862Y56532580D02*
X48108137Y56514103D01*
X49490138Y56532580D02*
X49391863Y56514103D01*
X48108137Y56514103D02*
X48207542Y56503235D01*
X49391863Y56514103D02*
X49292458Y56503235D01*
X48207542Y56503235D02*
X48307488Y56500040D01*
X49292458Y56503235D02*
X49192512Y56500040D01*
X49192512Y56500040D02*
X48307488Y56500040D01*
X47000000Y52749992D02*
X47007687Y52849696D01*
X50500000Y52749992D02*
X50492313Y52849696D01*
X47007687Y52849696D02*
X47023015Y52948514D01*
X50492313Y52849696D02*
X50476985Y52948514D01*
X47023015Y52948514D02*
X47045893Y53045861D01*
X50476985Y52948514D02*
X50454107Y53045861D01*
X47045893Y53045861D02*
X47076186Y53141161D01*
X50454107Y53045861D02*
X50423814Y53141161D01*
X47076186Y53141161D02*
X47113715Y53233851D01*
X50423814Y53141161D02*
X50386285Y53233851D01*
X47113715Y53233851D02*
X47158258Y53323382D01*
X50386285Y53233851D02*
X50341742Y53323382D01*
X47158258Y53323382D02*
X47209551Y53409224D01*
X50341742Y53323382D02*
X50290449Y53409224D01*
X47209551Y53409224D02*
X47267291Y53490869D01*
X50290449Y53409224D02*
X50232709Y53490869D01*
X47267291Y53490869D02*
X47331136Y53567834D01*
X50232709Y53490869D02*
X50168864Y53567834D01*
X47331136Y53567834D02*
X47400708Y53639664D01*
X50168864Y53567834D02*
X50099292Y53639664D01*
X47400708Y53639664D02*
X47475595Y53705934D01*
X50099292Y53639664D02*
X50024405Y53705934D01*
X47475595Y53705934D02*
X47555354Y53766252D01*
X50024405Y53705934D02*
X49944646Y53766252D01*
X47555354Y53766252D02*
X47639513Y53820261D01*
X49944646Y53766252D02*
X49860487Y53820261D01*
X47639513Y53820261D02*
X47727574Y53867641D01*
X49860487Y53820261D02*
X49772426Y53867641D01*
X47727574Y53867641D02*
X47819016Y53908112D01*
X49772426Y53867641D02*
X49680984Y53908112D01*
X47819016Y53908112D02*
X47913298Y53941434D01*
X49680984Y53908112D02*
X49586702Y53941434D01*
X47913298Y53941434D02*
X48009862Y53967410D01*
X49586702Y53941434D02*
X49490138Y53967410D01*
X48009862Y53967410D02*
X48108137Y53985887D01*
X49490138Y53967410D02*
X49391863Y53985887D01*
X48108137Y53985887D02*
X48207542Y53996755D01*
X49391863Y53985887D02*
X49292458Y53996755D01*
X48207542Y53996755D02*
X48307488Y53999950D01*
X49292458Y53996755D02*
X49192512Y53999950D01*
X49192512Y53999950D02*
X48307488Y53999950D01*
X110500000Y37000015D02*
X110500000Y52749945D01*
X107000000Y37000000D02*
X107000000Y43000000D01*
X107000000Y31999992D02*
X107000000Y25750000D01*
X107000000Y37000000D02*
X107007687Y36900296D01*
X110500000Y37000015D02*
X110492313Y36900311D01*
X107007687Y36900296D02*
X107023015Y36801478D01*
X110492313Y36900311D02*
X110476985Y36801493D01*
X107023015Y36801478D02*
X107045893Y36704131D01*
X110476985Y36801493D02*
X110454107Y36704146D01*
X107045893Y36704131D02*
X107076186Y36608831D01*
X110454107Y36704146D02*
X110423814Y36608846D01*
X107076186Y36608831D02*
X107113715Y36516141D01*
X110423814Y36608846D02*
X110386285Y36516156D01*
X107113715Y36516141D02*
X107158258Y36426610D01*
X110386285Y36516156D02*
X110341742Y36426625D01*
X107158258Y36426610D02*
X107209551Y36340768D01*
X110341742Y36426625D02*
X110290449Y36340783D01*
X107209551Y36340768D02*
X107267291Y36259123D01*
X110290449Y36340783D02*
X110232709Y36259138D01*
X107267291Y36259123D02*
X107331136Y36182158D01*
X110232709Y36259138D02*
X110168864Y36182173D01*
X107331136Y36182158D02*
X107400708Y36110328D01*
X110168864Y36182173D02*
X110099292Y36110343D01*
X107400708Y36110328D02*
X107475595Y36044058D01*
X110099292Y36110343D02*
X110024405Y36044073D01*
X107475595Y36044058D02*
X107555354Y35983740D01*
X110024405Y36044073D02*
X109944646Y35983755D01*
X107555354Y35983740D02*
X107639513Y35929731D01*
X109944646Y35983755D02*
X109860487Y35929746D01*
X107639513Y35929731D02*
X107727574Y35882351D01*
X109860487Y35929746D02*
X109772426Y35882366D01*
X107727574Y35882351D02*
X107819016Y35841880D01*
X109772426Y35882366D02*
X109680984Y35841895D01*
X107819016Y35841880D02*
X107913298Y35808558D01*
X109680984Y35841895D02*
X109586702Y35808573D01*
X107913298Y35808558D02*
X108009862Y35782582D01*
X109586702Y35808573D02*
X109490138Y35782597D01*
X108009862Y35782582D02*
X108108137Y35764105D01*
X109490138Y35782597D02*
X109391863Y35764120D01*
X108108137Y35764105D02*
X108207542Y35753237D01*
X109391863Y35764120D02*
X109292458Y35753252D01*
X108207542Y35753237D02*
X108307488Y35750042D01*
X109292458Y35753252D02*
X109192512Y35750057D01*
X109192512Y35750057D02*
X108307488Y35750042D01*
X107000000Y31999992D02*
X107007687Y32099696D01*
X110500000Y31999970D02*
X110492313Y32099674D01*
X107007687Y32099696D02*
X107023015Y32198514D01*
X110492313Y32099674D02*
X110476985Y32198492D01*
X107023015Y32198514D02*
X107045893Y32295861D01*
X110476985Y32198492D02*
X110454107Y32295839D01*
X107045893Y32295861D02*
X107076186Y32391161D01*
X110454107Y32295839D02*
X110423814Y32391139D01*
X107076186Y32391161D02*
X107113715Y32483851D01*
X110423814Y32391139D02*
X110386285Y32483829D01*
X107113715Y32483851D02*
X107158258Y32573382D01*
X110386285Y32483829D02*
X110341742Y32573360D01*
X107158258Y32573382D02*
X107209551Y32659224D01*
X110341742Y32573360D02*
X110290449Y32659202D01*
X107209551Y32659224D02*
X107267291Y32740869D01*
X110290449Y32659202D02*
X110232709Y32740847D01*
X107267291Y32740869D02*
X107331136Y32817834D01*
X110232709Y32740847D02*
X110168864Y32817812D01*
X107331136Y32817834D02*
X107400708Y32889664D01*
X110168864Y32817812D02*
X110099292Y32889642D01*
X107400708Y32889664D02*
X107475595Y32955934D01*
X110099292Y32889642D02*
X110024405Y32955912D01*
X107475595Y32955934D02*
X107555354Y33016252D01*
X110024405Y32955912D02*
X109944646Y33016230D01*
X107555354Y33016252D02*
X107639513Y33070261D01*
X109944646Y33016230D02*
X109860487Y33070239D01*
X107639513Y33070261D02*
X107727574Y33117641D01*
X109860487Y33070239D02*
X109772426Y33117619D01*
X107727574Y33117641D02*
X107819016Y33158112D01*
X109772426Y33117619D02*
X109680984Y33158090D01*
X107819016Y33158112D02*
X107913298Y33191434D01*
X109680984Y33158090D02*
X109586702Y33191412D01*
X107913298Y33191434D02*
X108009862Y33217410D01*
X109586702Y33191412D02*
X109490138Y33217388D01*
X108009862Y33217410D02*
X108108137Y33235887D01*
X109490138Y33217388D02*
X109391863Y33235865D01*
X108108137Y33235887D02*
X108207542Y33246755D01*
X109391863Y33235865D02*
X109292458Y33246733D01*
X108207542Y33246755D02*
X108307488Y33249950D01*
X109292458Y33246733D02*
X109192512Y33249928D01*
X109192512Y33249928D02*
X108307488Y33249950D01*
X110500000Y-3250007D02*
X110500000Y31999970D01*
X110500000Y-8249990D02*
X110500000Y-17500000D01*
X107000000Y-3250002D02*
X107000000Y3250000D01*
X107000000Y-8250008D02*
X107000000Y-14500000D01*
X110500000Y-3250007D02*
X110492313Y-3349711D01*
X107000000Y-3250002D02*
X107007687Y-3349706D01*
X110492313Y-3349711D02*
X110476985Y-3448529D01*
X107007687Y-3349706D02*
X107023015Y-3448524D01*
X110476985Y-3448529D02*
X110454107Y-3545876D01*
X107023015Y-3448524D02*
X107045893Y-3545871D01*
X110454107Y-3545876D02*
X110423814Y-3641176D01*
X107045893Y-3545871D02*
X107076186Y-3641171D01*
X110423814Y-3641176D02*
X110386285Y-3733866D01*
X107076186Y-3641171D02*
X107113715Y-3733861D01*
X110386285Y-3733866D02*
X110341742Y-3823397D01*
X107113715Y-3733861D02*
X107158258Y-3823392D01*
X110341742Y-3823397D02*
X110290449Y-3909239D01*
X107158258Y-3823392D02*
X107209551Y-3909234D01*
X110290449Y-3909239D02*
X110232709Y-3990884D01*
X107209551Y-3909234D02*
X107267291Y-3990879D01*
X110232709Y-3990884D02*
X110168864Y-4067849D01*
X107267291Y-3990879D02*
X107331136Y-4067844D01*
X110168864Y-4067849D02*
X110099292Y-4139679D01*
X107331136Y-4067844D02*
X107400708Y-4139674D01*
X110099292Y-4139679D02*
X110024405Y-4205949D01*
X107400708Y-4139674D02*
X107475595Y-4205944D01*
X110024405Y-4205949D02*
X109944646Y-4266267D01*
X107475595Y-4205944D02*
X107555354Y-4266262D01*
X109944646Y-4266267D02*
X109860487Y-4320276D01*
X107555354Y-4266262D02*
X107639513Y-4320271D01*
X109860487Y-4320276D02*
X109772426Y-4367656D01*
X107639513Y-4320271D02*
X107727574Y-4367651D01*
X109772426Y-4367656D02*
X109680984Y-4408127D01*
X107727574Y-4367651D02*
X107819016Y-4408122D01*
X109680984Y-4408127D02*
X109586702Y-4441449D01*
X107819016Y-4408122D02*
X107913298Y-4441444D01*
X109586702Y-4441449D02*
X109490138Y-4467425D01*
X107913298Y-4441444D02*
X108009862Y-4467420D01*
X109490138Y-4467425D02*
X109391863Y-4485902D01*
X108009862Y-4467420D02*
X108108137Y-4485897D01*
X109391863Y-4485902D02*
X109292458Y-4496770D01*
X108108137Y-4485897D02*
X108207542Y-4496765D01*
X109292458Y-4496770D02*
X109192512Y-4499965D01*
X108207542Y-4496765D02*
X108307488Y-4499960D01*
X109192512Y-4499965D02*
X108307488Y-4499960D01*
X110500000Y-8249990D02*
X110492313Y-8150286D01*
X107000000Y-8250008D02*
X107007687Y-8150304D01*
X110492313Y-8150286D02*
X110476985Y-8051468D01*
X107007687Y-8150304D02*
X107023015Y-8051486D01*
X110476985Y-8051468D02*
X110454107Y-7954121D01*
X107023015Y-8051486D02*
X107045893Y-7954139D01*
X110454107Y-7954121D02*
X110423814Y-7858821D01*
X107045893Y-7954139D02*
X107076186Y-7858839D01*
X110423814Y-7858821D02*
X110386285Y-7766131D01*
X107076186Y-7858839D02*
X107113715Y-7766149D01*
X110386285Y-7766131D02*
X110341742Y-7676600D01*
X107113715Y-7766149D02*
X107158258Y-7676618D01*
X110341742Y-7676600D02*
X110290449Y-7590758D01*
X107158258Y-7676618D02*
X107209551Y-7590776D01*
X110290449Y-7590758D02*
X110232709Y-7509113D01*
X107209551Y-7590776D02*
X107267291Y-7509131D01*
X110232709Y-7509113D02*
X110168864Y-7432148D01*
X107267291Y-7509131D02*
X107331136Y-7432166D01*
X110168864Y-7432148D02*
X110099292Y-7360318D01*
X107331136Y-7432166D02*
X107400708Y-7360336D01*
X110099292Y-7360318D02*
X110024405Y-7294048D01*
X107400708Y-7360336D02*
X107475595Y-7294066D01*
X110024405Y-7294048D02*
X109944646Y-7233730D01*
X107475595Y-7294066D02*
X107555354Y-7233748D01*
X109944646Y-7233730D02*
X109860487Y-7179721D01*
X107555354Y-7233748D02*
X107639513Y-7179739D01*
X109860487Y-7179721D02*
X109772426Y-7132341D01*
X107639513Y-7179739D02*
X107727574Y-7132359D01*
X109772426Y-7132341D02*
X109680984Y-7091870D01*
X107727574Y-7132359D02*
X107819016Y-7091888D01*
X109680984Y-7091870D02*
X109586702Y-7058548D01*
X107819016Y-7091888D02*
X107913298Y-7058566D01*
X109586702Y-7058548D02*
X109490138Y-7032572D01*
X107913298Y-7058566D02*
X108009862Y-7032590D01*
X109490138Y-7032572D02*
X109391863Y-7014095D01*
X108009862Y-7032590D02*
X108108137Y-7014113D01*
X109391863Y-7014095D02*
X109292458Y-7003227D01*
X108108137Y-7014113D02*
X108207542Y-7003245D01*
X109292458Y-7003227D02*
X109192512Y-7000032D01*
X108207542Y-7003245D02*
X108307488Y-7000050D01*
X109192512Y-7000032D02*
X108307488Y-7000050D01*
X81249985Y-14500000D02*
X107000000Y-14500000D01*
X76250015Y-14500000D02*
X50500000Y-14500000D01*
X81249995Y-17500000D02*
X110500000Y-17500000D01*
X76250015Y-14500000D02*
X76349719Y-14507687D01*
X76249977Y-17500000D02*
X76349681Y-17492313D01*
X76349719Y-14507687D02*
X76448537Y-14523015D01*
X76349681Y-17492313D02*
X76448499Y-17476985D01*
X76448537Y-14523015D02*
X76545884Y-14545893D01*
X76448499Y-17476985D02*
X76545846Y-17454107D01*
X76545884Y-14545893D02*
X76641184Y-14576186D01*
X76545846Y-17454107D02*
X76641146Y-17423814D01*
X76641184Y-14576186D02*
X76733874Y-14613715D01*
X76641146Y-17423814D02*
X76733836Y-17386285D01*
X76733874Y-14613715D02*
X76823405Y-14658258D01*
X76733836Y-17386285D02*
X76823367Y-17341742D01*
X76823405Y-14658258D02*
X76909247Y-14709551D01*
X76823367Y-17341742D02*
X76909209Y-17290449D01*
X76909247Y-14709551D02*
X76990892Y-14767291D01*
X76909209Y-17290449D02*
X76990854Y-17232709D01*
X76990892Y-14767291D02*
X77067857Y-14831136D01*
X76990854Y-17232709D02*
X77067819Y-17168864D01*
X77067857Y-14831136D02*
X77139687Y-14900708D01*
X77067819Y-17168864D02*
X77139649Y-17099292D01*
X77139687Y-14900708D02*
X77205957Y-14975595D01*
X77139649Y-17099292D02*
X77205919Y-17024405D01*
X77205957Y-14975595D02*
X77266275Y-15055354D01*
X77205919Y-17024405D02*
X77266237Y-16944646D01*
X77266275Y-15055354D02*
X77320284Y-15139513D01*
X77266237Y-16944646D02*
X77320246Y-16860487D01*
X77320284Y-15139513D02*
X77367664Y-15227574D01*
X77320246Y-16860487D02*
X77367626Y-16772426D01*
X77367664Y-15227574D02*
X77408135Y-15319016D01*
X77367626Y-16772426D02*
X77408097Y-16680984D01*
X77408135Y-15319016D02*
X77441457Y-15413298D01*
X77408097Y-16680984D02*
X77441419Y-16586702D01*
X77441457Y-15413298D02*
X77467433Y-15509862D01*
X77441419Y-16586702D02*
X77467395Y-16490138D01*
X77467433Y-15509862D02*
X77485910Y-15608137D01*
X77467395Y-16490138D02*
X77485872Y-16391863D01*
X77485910Y-15608137D02*
X77496778Y-15707542D01*
X77485872Y-16391863D02*
X77496740Y-16292458D01*
X77496778Y-15707542D02*
X77499973Y-15807488D01*
X77496740Y-16292458D02*
X77499935Y-16192512D01*
X77499973Y-15807488D02*
X77499935Y-16192512D01*
X81249985Y-14500000D02*
X81150281Y-14507687D01*
X81249995Y-17500000D02*
X81150291Y-17492313D01*
X81150281Y-14507687D02*
X81051463Y-14523015D01*
X81150291Y-17492313D02*
X81051473Y-17476985D01*
X81051463Y-14523015D02*
X80954116Y-14545893D01*
X81051473Y-17476985D02*
X80954126Y-17454107D01*
X80954116Y-14545893D02*
X80858816Y-14576186D01*
X80954126Y-17454107D02*
X80858826Y-17423814D01*
X80858816Y-14576186D02*
X80766126Y-14613715D01*
X80858826Y-17423814D02*
X80766136Y-17386285D01*
X80766126Y-14613715D02*
X80676595Y-14658258D01*
X80766136Y-17386285D02*
X80676605Y-17341742D01*
X80676595Y-14658258D02*
X80590753Y-14709551D01*
X80676605Y-17341742D02*
X80590763Y-17290449D01*
X80590753Y-14709551D02*
X80509108Y-14767291D01*
X80590763Y-17290449D02*
X80509118Y-17232709D01*
X80509108Y-14767291D02*
X80432143Y-14831136D01*
X80509118Y-17232709D02*
X80432153Y-17168864D01*
X80432143Y-14831136D02*
X80360313Y-14900708D01*
X80432153Y-17168864D02*
X80360323Y-17099292D01*
X80360313Y-14900708D02*
X80294043Y-14975595D01*
X80360323Y-17099292D02*
X80294053Y-17024405D01*
X80294043Y-14975595D02*
X80233725Y-15055354D01*
X80294053Y-17024405D02*
X80233735Y-16944646D01*
X80233725Y-15055354D02*
X80179716Y-15139513D01*
X80233735Y-16944646D02*
X80179726Y-16860487D01*
X80179716Y-15139513D02*
X80132336Y-15227574D01*
X80179726Y-16860487D02*
X80132346Y-16772426D01*
X80132336Y-15227574D02*
X80091865Y-15319016D01*
X80132346Y-16772426D02*
X80091875Y-16680984D01*
X80091865Y-15319016D02*
X80058543Y-15413298D01*
X80091875Y-16680984D02*
X80058553Y-16586702D01*
X80058543Y-15413298D02*
X80032567Y-15509862D01*
X80058553Y-16586702D02*
X80032577Y-16490138D01*
X80032567Y-15509862D02*
X80014090Y-15608137D01*
X80032577Y-16490138D02*
X80014100Y-16391863D01*
X80014090Y-15608137D02*
X80003222Y-15707542D01*
X80014100Y-16391863D02*
X80003232Y-16292458D01*
X80003222Y-15707542D02*
X80000027Y-15807488D01*
X80003232Y-16292458D02*
X80000037Y-16192512D01*
X80000027Y-15807488D02*
X80000037Y-16192512D01*
X-9500000Y-8250008D02*
X-9500000Y-14500000D01*
X-9500000Y-3250002D02*
X-9500000Y1250000D01*
X-12500000Y-8249990D02*
X-12500000Y-17500000D01*
X-12500000Y-3250005D02*
X-12492313Y-3349709D01*
X-9500000Y-3250002D02*
X-9507687Y-3349706D01*
X-12492313Y-3349709D02*
X-12476985Y-3448527D01*
X-9507687Y-3349706D02*
X-9523015Y-3448524D01*
X-12476985Y-3448527D02*
X-12454107Y-3545874D01*
X-9523015Y-3448524D02*
X-9545893Y-3545871D01*
X-12454107Y-3545874D02*
X-12423814Y-3641174D01*
X-9545893Y-3545871D02*
X-9576186Y-3641171D01*
X-12423814Y-3641174D02*
X-12386285Y-3733864D01*
X-9576186Y-3641171D02*
X-9613715Y-3733861D01*
X-12386285Y-3733864D02*
X-12341742Y-3823395D01*
X-9613715Y-3733861D02*
X-9658258Y-3823392D01*
X-12341742Y-3823395D02*
X-12290449Y-3909237D01*
X-9658258Y-3823392D02*
X-9709551Y-3909234D01*
X-12290449Y-3909237D02*
X-12232709Y-3990882D01*
X-9709551Y-3909234D02*
X-9767291Y-3990879D01*
X-12232709Y-3990882D02*
X-12168864Y-4067847D01*
X-9767291Y-3990879D02*
X-9831136Y-4067844D01*
X-12168864Y-4067847D02*
X-12099292Y-4139677D01*
X-9831136Y-4067844D02*
X-9900708Y-4139674D01*
X-12099292Y-4139677D02*
X-12024405Y-4205947D01*
X-9900708Y-4139674D02*
X-9975595Y-4205944D01*
X-12024405Y-4205947D02*
X-11944646Y-4266265D01*
X-9975595Y-4205944D02*
X-10055354Y-4266262D01*
X-11944646Y-4266265D02*
X-11860487Y-4320274D01*
X-10055354Y-4266262D02*
X-10139513Y-4320271D01*
X-11860487Y-4320274D02*
X-11772426Y-4367654D01*
X-10139513Y-4320271D02*
X-10227574Y-4367651D01*
X-11772426Y-4367654D02*
X-11680984Y-4408125D01*
X-10227574Y-4367651D02*
X-10319016Y-4408122D01*
X-11680984Y-4408125D02*
X-11586702Y-4441447D01*
X-10319016Y-4408122D02*
X-10413298Y-4441444D01*
X-11586702Y-4441447D02*
X-11490138Y-4467423D01*
X-10413298Y-4441444D02*
X-10509862Y-4467420D01*
X-11490138Y-4467423D02*
X-11391863Y-4485900D01*
X-10509862Y-4467420D02*
X-10608137Y-4485897D01*
X-11391863Y-4485900D02*
X-11292458Y-4496768D01*
X-10608137Y-4485897D02*
X-10707542Y-4496765D01*
X-11292458Y-4496768D02*
X-11192512Y-4499963D01*
X-10707542Y-4496765D02*
X-10807488Y-4499960D01*
X-10807488Y-4499960D02*
X-11192512Y-4499963D01*
X-12500000Y-8249990D02*
X-12492313Y-8150286D01*
X-9500000Y-8250008D02*
X-9507687Y-8150304D01*
X-12492313Y-8150286D02*
X-12476985Y-8051468D01*
X-9507687Y-8150304D02*
X-9523015Y-8051486D01*
X-12476985Y-8051468D02*
X-12454107Y-7954121D01*
X-9523015Y-8051486D02*
X-9545893Y-7954139D01*
X-12454107Y-7954121D02*
X-12423814Y-7858821D01*
X-9545893Y-7954139D02*
X-9576186Y-7858839D01*
X-12423814Y-7858821D02*
X-12386285Y-7766131D01*
X-9576186Y-7858839D02*
X-9613715Y-7766149D01*
X-12386285Y-7766131D02*
X-12341742Y-7676600D01*
X-9613715Y-7766149D02*
X-9658258Y-7676618D01*
X-12341742Y-7676600D02*
X-12290449Y-7590758D01*
X-9658258Y-7676618D02*
X-9709551Y-7590776D01*
X-12290449Y-7590758D02*
X-12232709Y-7509113D01*
X-9709551Y-7590776D02*
X-9767291Y-7509131D01*
X-12232709Y-7509113D02*
X-12168864Y-7432148D01*
X-9767291Y-7509131D02*
X-9831136Y-7432166D01*
X-12168864Y-7432148D02*
X-12099292Y-7360318D01*
X-9831136Y-7432166D02*
X-9900708Y-7360336D01*
X-12099292Y-7360318D02*
X-12024405Y-7294048D01*
X-9900708Y-7360336D02*
X-9975595Y-7294066D01*
X-12024405Y-7294048D02*
X-11944646Y-7233730D01*
X-9975595Y-7294066D02*
X-10055354Y-7233748D01*
X-11944646Y-7233730D02*
X-11860487Y-7179721D01*
X-10055354Y-7233748D02*
X-10139513Y-7179739D01*
X-11860487Y-7179721D02*
X-11772426Y-7132341D01*
X-10139513Y-7179739D02*
X-10227574Y-7132359D01*
X-11772426Y-7132341D02*
X-11680984Y-7091870D01*
X-10227574Y-7132359D02*
X-10319016Y-7091888D01*
X-11680984Y-7091870D02*
X-11586702Y-7058548D01*
X-10319016Y-7091888D02*
X-10413298Y-7058566D01*
X-11586702Y-7058548D02*
X-11490138Y-7032572D01*
X-10413298Y-7058566D02*
X-10509862Y-7032590D01*
X-11490138Y-7032572D02*
X-11391863Y-7014095D01*
X-10509862Y-7032590D02*
X-10608137Y-7014113D01*
X-11391863Y-7014095D02*
X-11292458Y-7003227D01*
X-10608137Y-7014113D02*
X-10707542Y-7003245D01*
X-11292458Y-7003227D02*
X-11192512Y-7000032D01*
X-10707542Y-7003245D02*
X-10807488Y-7000050D01*
X-10807488Y-7000050D02*
X-11192512Y-7000032D01*
X50500000Y32000002D02*
X50500000Y27500000D01*
X50500000Y37000000D02*
X50500000Y43000000D01*
X47000000Y37000000D02*
X47000000Y43000000D01*
X47000000Y31999992D02*
X47000000Y25750000D01*
X47000000Y37000000D02*
X47007687Y36900296D01*
X50500000Y37000000D02*
X50492313Y36900296D01*
X47007687Y36900296D02*
X47023015Y36801478D01*
X50492313Y36900296D02*
X50476985Y36801478D01*
X47023015Y36801478D02*
X47045893Y36704131D01*
X50476985Y36801478D02*
X50454107Y36704131D01*
X47045893Y36704131D02*
X47076186Y36608831D01*
X50454107Y36704131D02*
X50423814Y36608831D01*
X47076186Y36608831D02*
X47113715Y36516141D01*
X50423814Y36608831D02*
X50386285Y36516141D01*
X47113715Y36516141D02*
X47158258Y36426610D01*
X50386285Y36516141D02*
X50341742Y36426610D01*
X47158258Y36426610D02*
X47209551Y36340768D01*
X50341742Y36426610D02*
X50290449Y36340768D01*
X47209551Y36340768D02*
X47267291Y36259123D01*
X50290449Y36340768D02*
X50232709Y36259123D01*
X47267291Y36259123D02*
X47331136Y36182158D01*
X50232709Y36259123D02*
X50168864Y36182158D01*
X47331136Y36182158D02*
X47400708Y36110328D01*
X50168864Y36182158D02*
X50099292Y36110328D01*
X47400708Y36110328D02*
X47475595Y36044058D01*
X50099292Y36110328D02*
X50024405Y36044058D01*
X47475595Y36044058D02*
X47555354Y35983740D01*
X50024405Y36044058D02*
X49944646Y35983740D01*
X47555354Y35983740D02*
X47639513Y35929731D01*
X49944646Y35983740D02*
X49860487Y35929731D01*
X47639513Y35929731D02*
X47727574Y35882351D01*
X49860487Y35929731D02*
X49772426Y35882351D01*
X47727574Y35882351D02*
X47819016Y35841880D01*
X49772426Y35882351D02*
X49680984Y35841880D01*
X47819016Y35841880D02*
X47913298Y35808558D01*
X49680984Y35841880D02*
X49586702Y35808558D01*
X47913298Y35808558D02*
X48009862Y35782582D01*
X49586702Y35808558D02*
X49490138Y35782582D01*
X48009862Y35782582D02*
X48108137Y35764105D01*
X49490138Y35782582D02*
X49391863Y35764105D01*
X48108137Y35764105D02*
X48207542Y35753237D01*
X49391863Y35764105D02*
X49292458Y35753237D01*
X48207542Y35753237D02*
X48307488Y35750042D01*
X49292458Y35753237D02*
X49192512Y35750042D01*
X49192512Y35750042D02*
X48307488Y35750042D01*
X50500000Y32000002D02*
X50492313Y32099706D01*
X47000000Y31999992D02*
X47007687Y32099696D01*
X50492313Y32099706D02*
X50476985Y32198524D01*
X47007687Y32099696D02*
X47023015Y32198514D01*
X50476985Y32198524D02*
X50454107Y32295871D01*
X47023015Y32198514D02*
X47045893Y32295861D01*
X50454107Y32295871D02*
X50423814Y32391171D01*
X47045893Y32295861D02*
X47076186Y32391161D01*
X50423814Y32391171D02*
X50386285Y32483861D01*
X47076186Y32391161D02*
X47113715Y32483851D01*
X50386285Y32483861D02*
X50341742Y32573392D01*
X47113715Y32483851D02*
X47158258Y32573382D01*
X50341742Y32573392D02*
X50290449Y32659234D01*
X47158258Y32573382D02*
X47209551Y32659224D01*
X50290449Y32659234D02*
X50232709Y32740879D01*
X47209551Y32659224D02*
X47267291Y32740869D01*
X50232709Y32740879D02*
X50168864Y32817844D01*
X47267291Y32740869D02*
X47331136Y32817834D01*
X50168864Y32817844D02*
X50099292Y32889674D01*
X47331136Y32817834D02*
X47400708Y32889664D01*
X50099292Y32889674D02*
X50024405Y32955944D01*
X47400708Y32889664D02*
X47475595Y32955934D01*
X50024405Y32955944D02*
X49944646Y33016262D01*
X47475595Y32955934D02*
X47555354Y33016252D01*
X49944646Y33016262D02*
X49860487Y33070271D01*
X47555354Y33016252D02*
X47639513Y33070261D01*
X49860487Y33070271D02*
X49772426Y33117651D01*
X47639513Y33070261D02*
X47727574Y33117641D01*
X49772426Y33117651D02*
X49680984Y33158122D01*
X47727574Y33117641D02*
X47819016Y33158112D01*
X49680984Y33158122D02*
X49586702Y33191444D01*
X47819016Y33158112D02*
X47913298Y33191434D01*
X49586702Y33191444D02*
X49490138Y33217420D01*
X47913298Y33191434D02*
X48009862Y33217410D01*
X49490138Y33217420D02*
X49391863Y33235897D01*
X48009862Y33217410D02*
X48108137Y33235887D01*
X49391863Y33235897D02*
X49292458Y33246765D01*
X48108137Y33235887D02*
X48207542Y33246755D01*
X49292458Y33246765D02*
X49192512Y33249960D01*
X48207542Y33246755D02*
X48307488Y33249950D01*
X49192512Y33249960D02*
X48307488Y33249950D01*
X-9500000Y32000002D02*
X-9500000Y27500000D01*
X-9500000Y37000000D02*
X-9500000Y43000000D01*
X-12500000Y32000005D02*
X-12500000Y-3250005D01*
X-12500000Y37000015D02*
X-12500000Y52749945D01*
X-9500000Y37000000D02*
X-9507687Y36900296D01*
X-12500000Y37000015D02*
X-12492313Y36900311D01*
X-9507687Y36900296D02*
X-9523015Y36801478D01*
X-12492313Y36900311D02*
X-12476985Y36801493D01*
X-9523015Y36801478D02*
X-9545893Y36704131D01*
X-12476985Y36801493D02*
X-12454107Y36704146D01*
X-9545893Y36704131D02*
X-9576186Y36608831D01*
X-12454107Y36704146D02*
X-12423814Y36608846D01*
X-9576186Y36608831D02*
X-9613715Y36516141D01*
X-12423814Y36608846D02*
X-12386285Y36516156D01*
X-9613715Y36516141D02*
X-9658258Y36426610D01*
X-12386285Y36516156D02*
X-12341742Y36426625D01*
X-9658258Y36426610D02*
X-9709551Y36340768D01*
X-12341742Y36426625D02*
X-12290449Y36340783D01*
X-9709551Y36340768D02*
X-9767291Y36259123D01*
X-12290449Y36340783D02*
X-12232709Y36259138D01*
X-9767291Y36259123D02*
X-9831136Y36182158D01*
X-12232709Y36259138D02*
X-12168864Y36182173D01*
X-9831136Y36182158D02*
X-9900708Y36110328D01*
X-12168864Y36182173D02*
X-12099292Y36110343D01*
X-9900708Y36110328D02*
X-9975595Y36044058D01*
X-12099292Y36110343D02*
X-12024405Y36044073D01*
X-9975595Y36044058D02*
X-10055354Y35983740D01*
X-12024405Y36044073D02*
X-11944646Y35983755D01*
X-10055354Y35983740D02*
X-10139513Y35929731D01*
X-11944646Y35983755D02*
X-11860487Y35929746D01*
X-10139513Y35929731D02*
X-10227574Y35882351D01*
X-11860487Y35929746D02*
X-11772426Y35882366D01*
X-10227574Y35882351D02*
X-10319016Y35841880D01*
X-11772426Y35882366D02*
X-11680984Y35841895D01*
X-10319016Y35841880D02*
X-10413298Y35808558D01*
X-11680984Y35841895D02*
X-11586702Y35808573D01*
X-10413298Y35808558D02*
X-10509862Y35782582D01*
X-11586702Y35808573D02*
X-11490138Y35782597D01*
X-10509862Y35782582D02*
X-10608137Y35764105D01*
X-11490138Y35782597D02*
X-11391863Y35764120D01*
X-10608137Y35764105D02*
X-10707542Y35753237D01*
X-11391863Y35764120D02*
X-11292458Y35753252D01*
X-10707542Y35753237D02*
X-10807488Y35750042D01*
X-11292458Y35753252D02*
X-11192512Y35750057D01*
X-10807488Y35750042D02*
X-11192512Y35750057D01*
X-12500000Y32000005D02*
X-12492313Y32099709D01*
X-9500000Y32000002D02*
X-9507687Y32099706D01*
X-12492313Y32099709D02*
X-12476985Y32198527D01*
X-9507687Y32099706D02*
X-9523015Y32198524D01*
X-12476985Y32198527D02*
X-12454107Y32295874D01*
X-9523015Y32198524D02*
X-9545893Y32295871D01*
X-12454107Y32295874D02*
X-12423814Y32391174D01*
X-9545893Y32295871D02*
X-9576186Y32391171D01*
X-12423814Y32391174D02*
X-12386285Y32483864D01*
X-9576186Y32391171D02*
X-9613715Y32483861D01*
X-12386285Y32483864D02*
X-12341742Y32573395D01*
X-9613715Y32483861D02*
X-9658258Y32573392D01*
X-12341742Y32573395D02*
X-12290449Y32659237D01*
X-9658258Y32573392D02*
X-9709551Y32659234D01*
X-12290449Y32659237D02*
X-12232709Y32740882D01*
X-9709551Y32659234D02*
X-9767291Y32740879D01*
X-12232709Y32740882D02*
X-12168864Y32817847D01*
X-9767291Y32740879D02*
X-9831136Y32817844D01*
X-12168864Y32817847D02*
X-12099292Y32889677D01*
X-9831136Y32817844D02*
X-9900708Y32889674D01*
X-12099292Y32889677D02*
X-12024405Y32955947D01*
X-9900708Y32889674D02*
X-9975595Y32955944D01*
X-12024405Y32955947D02*
X-11944646Y33016265D01*
X-9975595Y32955944D02*
X-10055354Y33016262D01*
X-11944646Y33016265D02*
X-11860487Y33070274D01*
X-10055354Y33016262D02*
X-10139513Y33070271D01*
X-11860487Y33070274D02*
X-11772426Y33117654D01*
X-10139513Y33070271D02*
X-10227574Y33117651D01*
X-11772426Y33117654D02*
X-11680984Y33158125D01*
X-10227574Y33117651D02*
X-10319016Y33158122D01*
X-11680984Y33158125D02*
X-11586702Y33191447D01*
X-10319016Y33158122D02*
X-10413298Y33191444D01*
X-11586702Y33191447D02*
X-11490138Y33217423D01*
X-10413298Y33191444D02*
X-10509862Y33217420D01*
X-11490138Y33217423D02*
X-11391863Y33235900D01*
X-10509862Y33217420D02*
X-10608137Y33235897D01*
X-11391863Y33235900D02*
X-11292458Y33246768D01*
X-10608137Y33235897D02*
X-10707542Y33246765D01*
X-11292458Y33246768D02*
X-11192512Y33249963D01*
X-10707542Y33246765D02*
X-10807488Y33249960D01*
X-10807488Y33249960D02*
X-11192512Y33249963D01*
X50500000Y-8250008D02*
X50500000Y-14500000D01*
X50500000Y-3250002D02*
X50500000Y1250000D01*
X47000000Y-3250002D02*
X47000000Y3250000D01*
X47000000Y-8250008D02*
X47000000Y-14500000D01*
X47000000Y-3250002D02*
X47007687Y-3349706D01*
X50500000Y-3250002D02*
X50492313Y-3349706D01*
X47007687Y-3349706D02*
X47023015Y-3448524D01*
X50492313Y-3349706D02*
X50476985Y-3448524D01*
X47023015Y-3448524D02*
X47045893Y-3545871D01*
X50476985Y-3448524D02*
X50454107Y-3545871D01*
X47045893Y-3545871D02*
X47076186Y-3641171D01*
X50454107Y-3545871D02*
X50423814Y-3641171D01*
X47076186Y-3641171D02*
X47113715Y-3733861D01*
X50423814Y-3641171D02*
X50386285Y-3733861D01*
X47113715Y-3733861D02*
X47158258Y-3823392D01*
X50386285Y-3733861D02*
X50341742Y-3823392D01*
X47158258Y-3823392D02*
X47209551Y-3909234D01*
X50341742Y-3823392D02*
X50290449Y-3909234D01*
X47209551Y-3909234D02*
X47267291Y-3990879D01*
X50290449Y-3909234D02*
X50232709Y-3990879D01*
X47267291Y-3990879D02*
X47331136Y-4067844D01*
X50232709Y-3990879D02*
X50168864Y-4067844D01*
X47331136Y-4067844D02*
X47400708Y-4139674D01*
X50168864Y-4067844D02*
X50099292Y-4139674D01*
X47400708Y-4139674D02*
X47475595Y-4205944D01*
X50099292Y-4139674D02*
X50024405Y-4205944D01*
X47475595Y-4205944D02*
X47555354Y-4266262D01*
X50024405Y-4205944D02*
X49944646Y-4266262D01*
X47555354Y-4266262D02*
X47639513Y-4320271D01*
X49944646Y-4266262D02*
X49860487Y-4320271D01*
X47639513Y-4320271D02*
X47727574Y-4367651D01*
X49860487Y-4320271D02*
X49772426Y-4367651D01*
X47727574Y-4367651D02*
X47819016Y-4408122D01*
X49772426Y-4367651D02*
X49680984Y-4408122D01*
X47819016Y-4408122D02*
X47913298Y-4441444D01*
X49680984Y-4408122D02*
X49586702Y-4441444D01*
X47913298Y-4441444D02*
X48009862Y-4467420D01*
X49586702Y-4441444D02*
X49490138Y-4467420D01*
X48009862Y-4467420D02*
X48108137Y-4485897D01*
X49490138Y-4467420D02*
X49391863Y-4485897D01*
X48108137Y-4485897D02*
X48207542Y-4496765D01*
X49391863Y-4485897D02*
X49292458Y-4496765D01*
X48207542Y-4496765D02*
X48307488Y-4499960D01*
X49292458Y-4496765D02*
X49192512Y-4499960D01*
X49192512Y-4499960D02*
X48307488Y-4499960D01*
X47000000Y-8250008D02*
X47007687Y-8150304D01*
X50500000Y-8250008D02*
X50492313Y-8150304D01*
X47007687Y-8150304D02*
X47023015Y-8051486D01*
X50492313Y-8150304D02*
X50476985Y-8051486D01*
X47023015Y-8051486D02*
X47045893Y-7954139D01*
X50476985Y-8051486D02*
X50454107Y-7954139D01*
X47045893Y-7954139D02*
X47076186Y-7858839D01*
X50454107Y-7954139D02*
X50423814Y-7858839D01*
X47076186Y-7858839D02*
X47113715Y-7766149D01*
X50423814Y-7858839D02*
X50386285Y-7766149D01*
X47113715Y-7766149D02*
X47158258Y-7676618D01*
X50386285Y-7766149D02*
X50341742Y-7676618D01*
X47158258Y-7676618D02*
X47209551Y-7590776D01*
X50341742Y-7676618D02*
X50290449Y-7590776D01*
X47209551Y-7590776D02*
X47267291Y-7509131D01*
X50290449Y-7590776D02*
X50232709Y-7509131D01*
X47267291Y-7509131D02*
X47331136Y-7432166D01*
X50232709Y-7509131D02*
X50168864Y-7432166D01*
X47331136Y-7432166D02*
X47400708Y-7360336D01*
X50168864Y-7432166D02*
X50099292Y-7360336D01*
X47400708Y-7360336D02*
X47475595Y-7294066D01*
X50099292Y-7360336D02*
X50024405Y-7294066D01*
X47475595Y-7294066D02*
X47555354Y-7233748D01*
X50024405Y-7294066D02*
X49944646Y-7233748D01*
X47555354Y-7233748D02*
X47639513Y-7179739D01*
X49944646Y-7233748D02*
X49860487Y-7179739D01*
X47639513Y-7179739D02*
X47727574Y-7132359D01*
X49860487Y-7179739D02*
X49772426Y-7132359D01*
X47727574Y-7132359D02*
X47819016Y-7091888D01*
X49772426Y-7132359D02*
X49680984Y-7091888D01*
X47819016Y-7091888D02*
X47913298Y-7058566D01*
X49680984Y-7091888D02*
X49586702Y-7058566D01*
X47913298Y-7058566D02*
X48009862Y-7032590D01*
X49586702Y-7058566D02*
X49490138Y-7032590D01*
X48009862Y-7032590D02*
X48108137Y-7014113D01*
X49490138Y-7032590D02*
X49391863Y-7014113D01*
X48108137Y-7014113D02*
X48207542Y-7003245D01*
X49391863Y-7014113D02*
X49292458Y-7003245D01*
X48207542Y-7003245D02*
X48307488Y-7000050D01*
X49292458Y-7003245D02*
X49192512Y-7000050D01*
X49192512Y-7000050D02*
X48307488Y-7000050D01*
X21249985Y-14500000D02*
X47000000Y-14500000D01*
X16250015Y-14500000D02*
X-9500000Y-14500000D01*
X21249955Y-17500000D02*
X76249977Y-17500000D01*
X16250000Y-17500000D02*
X-12500000Y-17500000D01*
X16250015Y-14500000D02*
X16349719Y-14507687D01*
X16250000Y-17500000D02*
X16349704Y-17492313D01*
X16349719Y-14507687D02*
X16448537Y-14523015D01*
X16349704Y-17492313D02*
X16448522Y-17476985D01*
X16448537Y-14523015D02*
X16545884Y-14545893D01*
X16448522Y-17476985D02*
X16545869Y-17454107D01*
X16545884Y-14545893D02*
X16641184Y-14576186D01*
X16545869Y-17454107D02*
X16641169Y-17423814D01*
X16641184Y-14576186D02*
X16733874Y-14613715D01*
X16641169Y-17423814D02*
X16733859Y-17386285D01*
X16733874Y-14613715D02*
X16823405Y-14658258D01*
X16733859Y-17386285D02*
X16823390Y-17341742D01*
X16823405Y-14658258D02*
X16909247Y-14709551D01*
X16823390Y-17341742D02*
X16909232Y-17290449D01*
X16909247Y-14709551D02*
X16990892Y-14767291D01*
X16909232Y-17290449D02*
X16990877Y-17232709D01*
X16990892Y-14767291D02*
X17067857Y-14831136D01*
X16990877Y-17232709D02*
X17067842Y-17168864D01*
X17067857Y-14831136D02*
X17139687Y-14900708D01*
X17067842Y-17168864D02*
X17139672Y-17099292D01*
X17139687Y-14900708D02*
X17205957Y-14975595D01*
X17139672Y-17099292D02*
X17205942Y-17024405D01*
X17205957Y-14975595D02*
X17266275Y-15055354D01*
X17205942Y-17024405D02*
X17266260Y-16944646D01*
X17266275Y-15055354D02*
X17320284Y-15139513D01*
X17266260Y-16944646D02*
X17320269Y-16860487D01*
X17320284Y-15139513D02*
X17367664Y-15227574D01*
X17320269Y-16860487D02*
X17367649Y-16772426D01*
X17367664Y-15227574D02*
X17408135Y-15319016D01*
X17367649Y-16772426D02*
X17408120Y-16680984D01*
X17408135Y-15319016D02*
X17441457Y-15413298D01*
X17408120Y-16680984D02*
X17441442Y-16586702D01*
X17441457Y-15413298D02*
X17467433Y-15509862D01*
X17441442Y-16586702D02*
X17467418Y-16490138D01*
X17467433Y-15509862D02*
X17485910Y-15608137D01*
X17467418Y-16490138D02*
X17485895Y-16391863D01*
X17485910Y-15608137D02*
X17496778Y-15707542D01*
X17485895Y-16391863D02*
X17496763Y-16292458D01*
X17496778Y-15707542D02*
X17499973Y-15807488D01*
X17496763Y-16292458D02*
X17499958Y-16192512D01*
X17499973Y-15807488D02*
X17499958Y-16192512D01*
X21249955Y-17500000D02*
X21150251Y-17492313D01*
X21249985Y-14500000D02*
X21150281Y-14507687D01*
X21150251Y-17492313D02*
X21051433Y-17476985D01*
X21150281Y-14507687D02*
X21051463Y-14523015D01*
X21051433Y-17476985D02*
X20954086Y-17454107D01*
X21051463Y-14523015D02*
X20954116Y-14545893D01*
X20954086Y-17454107D02*
X20858786Y-17423814D01*
X20954116Y-14545893D02*
X20858816Y-14576186D01*
X20858786Y-17423814D02*
X20766096Y-17386285D01*
X20858816Y-14576186D02*
X20766126Y-14613715D01*
X20766096Y-17386285D02*
X20676565Y-17341742D01*
X20766126Y-14613715D02*
X20676595Y-14658258D01*
X20676565Y-17341742D02*
X20590723Y-17290449D01*
X20676595Y-14658258D02*
X20590753Y-14709551D01*
X20590723Y-17290449D02*
X20509078Y-17232709D01*
X20590753Y-14709551D02*
X20509108Y-14767291D01*
X20509078Y-17232709D02*
X20432113Y-17168864D01*
X20509108Y-14767291D02*
X20432143Y-14831136D01*
X20432113Y-17168864D02*
X20360283Y-17099292D01*
X20432143Y-14831136D02*
X20360313Y-14900708D01*
X20360283Y-17099292D02*
X20294013Y-17024405D01*
X20360313Y-14900708D02*
X20294043Y-14975595D01*
X20294013Y-17024405D02*
X20233695Y-16944646D01*
X20294043Y-14975595D02*
X20233725Y-15055354D01*
X20233695Y-16944646D02*
X20179686Y-16860487D01*
X20233725Y-15055354D02*
X20179716Y-15139513D01*
X20179686Y-16860487D02*
X20132306Y-16772426D01*
X20179716Y-15139513D02*
X20132336Y-15227574D01*
X20132306Y-16772426D02*
X20091835Y-16680984D01*
X20132336Y-15227574D02*
X20091865Y-15319016D01*
X20091835Y-16680984D02*
X20058513Y-16586702D01*
X20091865Y-15319016D02*
X20058543Y-15413298D01*
X20058513Y-16586702D02*
X20032537Y-16490138D01*
X20058543Y-15413298D02*
X20032567Y-15509862D01*
X20032537Y-16490138D02*
X20014060Y-16391863D01*
X20032567Y-15509862D02*
X20014090Y-15608137D01*
X20014060Y-16391863D02*
X20003192Y-16292458D01*
X20014090Y-15608137D02*
X20003222Y-15707542D01*
X20003192Y-16292458D02*
X19999997Y-16192512D01*
X20003222Y-15707542D02*
X20000027Y-15807488D01*
X20000027Y-15807488D02*
X19999997Y-16192512D01*
M02*
