G04 #@! TF.GenerationSoftware,KiCad,Pcbnew,5.1.10*
G04 #@! TF.CreationDate,2021-09-13T08:22:59+02:00*
G04 #@! TF.ProjectId,KXKM_ESP32_battery_management_board,4b584b4d-5f45-4535-9033-325f62617474,3.0*
G04 #@! TF.SameCoordinates,PX623a7c0PY839b680*
G04 #@! TF.FileFunction,OtherDrawing,Comment*
%FSLAX46Y46*%
G04 Gerber Fmt 4.6, Leading zero omitted, Abs format (unit mm)*
G04 Created by KiCad (PCBNEW 5.1.10) date 2021-09-13 08:22:59*
%MOMM*%
%LPD*%
G01*
G04 APERTURE LIST*
%ADD10C,0.150000*%
%ADD11C,0.200000*%
%ADD12C,0.300000*%
%ADD13C,0.100000*%
G04 APERTURE END LIST*
D10*
X0Y38500000D02*
X12000000Y42000000D01*
X-11309524Y38952381D02*
X-11261905Y39000000D01*
X-11166667Y39047620D01*
X-10928572Y39047620D01*
X-10833334Y39000000D01*
X-10785715Y38952381D01*
X-10738096Y38857143D01*
X-10738096Y38761905D01*
X-10785715Y38619048D01*
X-11357143Y38047620D01*
X-10738096Y38047620D01*
X-10404762Y38047620D02*
X-9880953Y38714286D01*
X-10404762Y38714286D02*
X-9880953Y38047620D01*
X-8309524Y38047620D02*
X-8309524Y39047620D01*
X-8309524Y38095239D02*
X-8404762Y38047620D01*
X-8595239Y38047620D01*
X-8690477Y38095239D01*
X-8738096Y38142858D01*
X-8785715Y38238096D01*
X-8785715Y38523810D01*
X-8738096Y38619048D01*
X-8690477Y38666667D01*
X-8595239Y38714286D01*
X-8404762Y38714286D01*
X-8309524Y38666667D01*
X-7833334Y38047620D02*
X-7833334Y38714286D01*
X-7833334Y39047620D02*
X-7880953Y39000000D01*
X-7833334Y38952381D01*
X-7785715Y39000000D01*
X-7833334Y39047620D01*
X-7833334Y38952381D01*
X-6928572Y38047620D02*
X-6928572Y38571429D01*
X-6976191Y38666667D01*
X-7071429Y38714286D01*
X-7261905Y38714286D01*
X-7357143Y38666667D01*
X-6928572Y38095239D02*
X-7023810Y38047620D01*
X-7261905Y38047620D01*
X-7357143Y38095239D01*
X-7404762Y38190477D01*
X-7404762Y38285715D01*
X-7357143Y38380953D01*
X-7261905Y38428572D01*
X-7023810Y38428572D01*
X-6928572Y38476191D01*
X-6452381Y38047620D02*
X-6452381Y38714286D01*
X-6452381Y38619048D02*
X-6404762Y38666667D01*
X-6309524Y38714286D01*
X-6166667Y38714286D01*
X-6071429Y38666667D01*
X-6023810Y38571429D01*
X-6023810Y38047620D01*
X-6023810Y38571429D02*
X-5976191Y38666667D01*
X-5880953Y38714286D01*
X-5738096Y38714286D01*
X-5642858Y38666667D01*
X-5595239Y38571429D01*
X-5595239Y38047620D01*
X-5119048Y38142858D02*
X-5071429Y38095239D01*
X-5119048Y38047620D01*
X-5166667Y38095239D01*
X-5119048Y38142858D01*
X-5119048Y38047620D01*
X-3976191Y39047620D02*
X-3357143Y39047620D01*
X-3690477Y38666667D01*
X-3547620Y38666667D01*
X-3452381Y38619048D01*
X-3404762Y38571429D01*
X-3357143Y38476191D01*
X-3357143Y38238096D01*
X-3404762Y38142858D01*
X-3452381Y38095239D01*
X-3547620Y38047620D01*
X-3833334Y38047620D01*
X-3928572Y38095239D01*
X-3976191Y38142858D01*
X-2928572Y38047620D02*
X-2928572Y38714286D01*
X-2928572Y38619048D02*
X-2880953Y38666667D01*
X-2785715Y38714286D01*
X-2642858Y38714286D01*
X-2547620Y38666667D01*
X-2500000Y38571429D01*
X-2500000Y38047620D01*
X-2500000Y38571429D02*
X-2452381Y38666667D01*
X-2357143Y38714286D01*
X-2214286Y38714286D01*
X-2119048Y38666667D01*
X-2071429Y38571429D01*
X-2071429Y38047620D01*
X-1595239Y38047620D02*
X-1595239Y38714286D01*
X-1595239Y38619048D02*
X-1547620Y38666667D01*
X-1452381Y38714286D01*
X-1309524Y38714286D01*
X-1214286Y38666667D01*
X-1166667Y38571429D01*
X-1166667Y38047620D01*
X-1166667Y38571429D02*
X-1119048Y38666667D01*
X-1023810Y38714286D01*
X-880953Y38714286D01*
X-785715Y38666667D01*
X-738096Y38571429D01*
X-738096Y38047620D01*
D11*
X28250000Y31250000D02*
X28250000Y26250000D01*
X-16447620Y25130953D02*
X-16447620Y24654762D01*
X-15971429Y24607143D01*
X-16019048Y24654762D01*
X-16066667Y24750000D01*
X-16066667Y24988096D01*
X-16019048Y25083334D01*
X-15971429Y25130953D01*
X-15876191Y25178572D01*
X-15638096Y25178572D01*
X-15542858Y25130953D01*
X-15495239Y25083334D01*
X-15447620Y24988096D01*
X-15447620Y24750000D01*
X-15495239Y24654762D01*
X-15542858Y24607143D01*
X-16447620Y25511905D02*
X-16447620Y26178572D01*
X-15447620Y25750000D01*
X-15495239Y26607143D02*
X-15447620Y26607143D01*
X-15352381Y26559524D01*
X-15304762Y26511905D01*
X-16447620Y27511905D02*
X-16447620Y27035715D01*
X-15971429Y26988096D01*
X-16019048Y27035715D01*
X-16066667Y27130953D01*
X-16066667Y27369048D01*
X-16019048Y27464286D01*
X-15971429Y27511905D01*
X-15876191Y27559524D01*
X-15638096Y27559524D01*
X-15542858Y27511905D01*
X-15495239Y27464286D01*
X-15447620Y27369048D01*
X-15447620Y27130953D01*
X-15495239Y27035715D01*
X-15542858Y26988096D01*
X-16447620Y28178572D02*
X-16447620Y28273810D01*
X-16400000Y28369048D01*
X-16352381Y28416667D01*
X-16257143Y28464286D01*
X-16066667Y28511905D01*
X-15828572Y28511905D01*
X-15638096Y28464286D01*
X-15542858Y28416667D01*
X-15495239Y28369048D01*
X-15447620Y28273810D01*
X-15447620Y28178572D01*
X-15495239Y28083334D01*
X-15542858Y28035715D01*
X-15638096Y27988096D01*
X-15828572Y27940477D01*
X-16066667Y27940477D01*
X-16257143Y27988096D01*
X-16352381Y28035715D01*
X-16400000Y28083334D01*
X-16447620Y28178572D01*
X-16447620Y29130953D02*
X-16447620Y29226191D01*
X-16400000Y29321429D01*
X-16352381Y29369048D01*
X-16257143Y29416667D01*
X-16066667Y29464286D01*
X-15828572Y29464286D01*
X-15638096Y29416667D01*
X-15542858Y29369048D01*
X-15495239Y29321429D01*
X-15447620Y29226191D01*
X-15447620Y29130953D01*
X-15495239Y29035715D01*
X-15542858Y28988096D01*
X-15638096Y28940477D01*
X-15828572Y28892858D01*
X-16066667Y28892858D01*
X-16257143Y28940477D01*
X-16352381Y28988096D01*
X-16400000Y29035715D01*
X-16447620Y29130953D01*
X-15447620Y30654762D02*
X-16114286Y30654762D01*
X-16019048Y30654762D02*
X-16066667Y30702381D01*
X-16114286Y30797620D01*
X-16114286Y30940477D01*
X-16066667Y31035715D01*
X-15971429Y31083334D01*
X-15447620Y31083334D01*
X-15971429Y31083334D02*
X-16066667Y31130953D01*
X-16114286Y31226191D01*
X-16114286Y31369048D01*
X-16066667Y31464286D01*
X-15971429Y31511905D01*
X-15447620Y31511905D01*
X-15447620Y31988096D02*
X-16114286Y31988096D01*
X-16019048Y31988096D02*
X-16066667Y32035715D01*
X-16114286Y32130953D01*
X-16114286Y32273810D01*
X-16066667Y32369048D01*
X-15971429Y32416667D01*
X-15447620Y32416667D01*
X-15971429Y32416667D02*
X-16066667Y32464286D01*
X-16114286Y32559524D01*
X-16114286Y32702381D01*
X-16066667Y32797620D01*
X-15971429Y32845239D01*
X-15447620Y32845239D01*
X-15000000Y0D02*
X-15000000Y57500000D01*
X0Y0D02*
X-16800000Y0D01*
X0Y57500000D02*
X-16800000Y57500000D01*
X-15000000Y57500000D02*
X-14413579Y56373496D01*
X-15000000Y57500000D02*
X-15586421Y56373496D01*
X-15000000Y0D02*
X-14413579Y1126504D01*
X-15000000Y0D02*
X-15586421Y1126504D01*
X-9197620Y46553572D02*
X-9197620Y45982143D01*
X-9197620Y46267858D02*
X-10197620Y46267858D01*
X-10054762Y46172620D01*
X-9959524Y46077381D01*
X-9911905Y45982143D01*
X-9864286Y47410715D02*
X-9197620Y47410715D01*
X-10245239Y47172620D02*
X-9530953Y46934524D01*
X-9530953Y47553572D01*
X-9245239Y47982143D02*
X-9197620Y47982143D01*
X-9102381Y47934524D01*
X-9054762Y47886905D01*
X-10197620Y48315477D02*
X-10197620Y48982143D01*
X-9197620Y48553572D01*
X-10197620Y49839286D02*
X-10197620Y49363096D01*
X-9721429Y49315477D01*
X-9769048Y49363096D01*
X-9816667Y49458334D01*
X-9816667Y49696429D01*
X-9769048Y49791667D01*
X-9721429Y49839286D01*
X-9626191Y49886905D01*
X-9388096Y49886905D01*
X-9292858Y49839286D01*
X-9245239Y49791667D01*
X-9197620Y49696429D01*
X-9197620Y49458334D01*
X-9245239Y49363096D01*
X-9292858Y49315477D01*
X-10197620Y50505953D02*
X-10197620Y50601191D01*
X-10150000Y50696429D01*
X-10102381Y50744048D01*
X-10007143Y50791667D01*
X-9816667Y50839286D01*
X-9578572Y50839286D01*
X-9388096Y50791667D01*
X-9292858Y50744048D01*
X-9245239Y50696429D01*
X-9197620Y50601191D01*
X-9197620Y50505953D01*
X-9245239Y50410715D01*
X-9292858Y50363096D01*
X-9388096Y50315477D01*
X-9578572Y50267858D01*
X-9816667Y50267858D01*
X-10007143Y50315477D01*
X-10102381Y50363096D01*
X-10150000Y50410715D01*
X-10197620Y50505953D01*
X-9197620Y52029762D02*
X-9864286Y52029762D01*
X-9769048Y52029762D02*
X-9816667Y52077381D01*
X-9864286Y52172620D01*
X-9864286Y52315477D01*
X-9816667Y52410715D01*
X-9721429Y52458334D01*
X-9197620Y52458334D01*
X-9721429Y52458334D02*
X-9816667Y52505953D01*
X-9864286Y52601191D01*
X-9864286Y52744048D01*
X-9816667Y52839286D01*
X-9721429Y52886905D01*
X-9197620Y52886905D01*
X-9197620Y53363096D02*
X-9864286Y53363096D01*
X-9769048Y53363096D02*
X-9816667Y53410715D01*
X-9864286Y53505953D01*
X-9864286Y53648810D01*
X-9816667Y53744048D01*
X-9721429Y53791667D01*
X-9197620Y53791667D01*
X-9721429Y53791667D02*
X-9816667Y53839286D01*
X-9864286Y53934524D01*
X-9864286Y54077381D01*
X-9816667Y54172620D01*
X-9721429Y54220239D01*
X-9197620Y54220239D01*
X-8750000Y42750000D02*
X-8750000Y57500000D01*
X14250000Y42750000D02*
X-10550000Y42750000D01*
X14250000Y57500000D02*
X-10550000Y57500000D01*
X-8750000Y57500000D02*
X-8163579Y56373496D01*
X-8750000Y57500000D02*
X-9336421Y56373496D01*
X-8750000Y42750000D02*
X-8163579Y43876504D01*
X-8750000Y42750000D02*
X-9336421Y43876504D01*
X24107142Y72852381D02*
X24154761Y72900000D01*
X24250000Y72947620D01*
X24488095Y72947620D01*
X24583333Y72900000D01*
X24630952Y72852381D01*
X24678571Y72757143D01*
X24678571Y72661905D01*
X24630952Y72519048D01*
X24059523Y71947620D01*
X24678571Y71947620D01*
X25250000Y72519048D02*
X25154761Y72566667D01*
X25107142Y72614286D01*
X25059523Y72709524D01*
X25059523Y72757143D01*
X25107142Y72852381D01*
X25154761Y72900000D01*
X25250000Y72947620D01*
X25440476Y72947620D01*
X25535714Y72900000D01*
X25583333Y72852381D01*
X25630952Y72757143D01*
X25630952Y72709524D01*
X25583333Y72614286D01*
X25535714Y72566667D01*
X25440476Y72519048D01*
X25250000Y72519048D01*
X25154761Y72471429D01*
X25107142Y72423810D01*
X25059523Y72328572D01*
X25059523Y72138096D01*
X25107142Y72042858D01*
X25154761Y71995239D01*
X25250000Y71947620D01*
X25440476Y71947620D01*
X25535714Y71995239D01*
X25583333Y72042858D01*
X25630952Y72138096D01*
X25630952Y72328572D01*
X25583333Y72423810D01*
X25535714Y72471429D01*
X25440476Y72519048D01*
X26107142Y71995239D02*
X26107142Y71947620D01*
X26059523Y71852381D01*
X26011904Y71804762D01*
X26726190Y72947620D02*
X26821428Y72947620D01*
X26916666Y72900000D01*
X26964285Y72852381D01*
X27011904Y72757143D01*
X27059523Y72566667D01*
X27059523Y72328572D01*
X27011904Y72138096D01*
X26964285Y72042858D01*
X26916666Y71995239D01*
X26821428Y71947620D01*
X26726190Y71947620D01*
X26630952Y71995239D01*
X26583333Y72042858D01*
X26535714Y72138096D01*
X26488095Y72328572D01*
X26488095Y72566667D01*
X26535714Y72757143D01*
X26583333Y72852381D01*
X26630952Y72900000D01*
X26726190Y72947620D01*
X27678571Y72947620D02*
X27773809Y72947620D01*
X27869047Y72900000D01*
X27916666Y72852381D01*
X27964285Y72757143D01*
X28011904Y72566667D01*
X28011904Y72328572D01*
X27964285Y72138096D01*
X27916666Y72042858D01*
X27869047Y71995239D01*
X27773809Y71947620D01*
X27678571Y71947620D01*
X27583333Y71995239D01*
X27535714Y72042858D01*
X27488095Y72138096D01*
X27440476Y72328572D01*
X27440476Y72566667D01*
X27488095Y72757143D01*
X27535714Y72852381D01*
X27583333Y72900000D01*
X27678571Y72947620D01*
X28630952Y72947620D02*
X28726190Y72947620D01*
X28821428Y72900000D01*
X28869047Y72852381D01*
X28916666Y72757143D01*
X28964285Y72566667D01*
X28964285Y72328572D01*
X28916666Y72138096D01*
X28869047Y72042858D01*
X28821428Y71995239D01*
X28726190Y71947620D01*
X28630952Y71947620D01*
X28535714Y71995239D01*
X28488095Y72042858D01*
X28440476Y72138096D01*
X28392857Y72328572D01*
X28392857Y72566667D01*
X28440476Y72757143D01*
X28488095Y72852381D01*
X28535714Y72900000D01*
X28630952Y72947620D01*
X30154761Y71947620D02*
X30154761Y72614286D01*
X30154761Y72519048D02*
X30202380Y72566667D01*
X30297619Y72614286D01*
X30440476Y72614286D01*
X30535714Y72566667D01*
X30583333Y72471429D01*
X30583333Y71947620D01*
X30583333Y72471429D02*
X30630952Y72566667D01*
X30726190Y72614286D01*
X30869047Y72614286D01*
X30964285Y72566667D01*
X31011904Y72471429D01*
X31011904Y71947620D01*
X31488095Y71947620D02*
X31488095Y72614286D01*
X31488095Y72519048D02*
X31535714Y72566667D01*
X31630952Y72614286D01*
X31773809Y72614286D01*
X31869047Y72566667D01*
X31916666Y72471429D01*
X31916666Y71947620D01*
X31916666Y72471429D02*
X31964285Y72566667D01*
X32059523Y72614286D01*
X32202380Y72614286D01*
X32297619Y72566667D01*
X32345238Y72471429D01*
X32345238Y71947620D01*
X14250000Y71500000D02*
X42250000Y71500000D01*
X14250000Y42750000D02*
X14250000Y73300000D01*
X42250000Y42750000D02*
X42250000Y73300000D01*
X42250000Y71500000D02*
X41123496Y70913579D01*
X42250000Y71500000D02*
X41123496Y72086421D01*
X14250000Y71500000D02*
X15376504Y70913579D01*
X14250000Y71500000D02*
X15376504Y72086421D01*
X24630952Y76447620D02*
X24154761Y76447620D01*
X24107142Y75971429D01*
X24154761Y76019048D01*
X24250000Y76066667D01*
X24488095Y76066667D01*
X24583333Y76019048D01*
X24630952Y75971429D01*
X24678571Y75876191D01*
X24678571Y75638096D01*
X24630952Y75542858D01*
X24583333Y75495239D01*
X24488095Y75447620D01*
X24250000Y75447620D01*
X24154761Y75495239D01*
X24107142Y75542858D01*
X25535714Y76447620D02*
X25345238Y76447620D01*
X25250000Y76400000D01*
X25202380Y76352381D01*
X25107142Y76209524D01*
X25059523Y76019048D01*
X25059523Y75638096D01*
X25107142Y75542858D01*
X25154761Y75495239D01*
X25250000Y75447620D01*
X25440476Y75447620D01*
X25535714Y75495239D01*
X25583333Y75542858D01*
X25630952Y75638096D01*
X25630952Y75876191D01*
X25583333Y75971429D01*
X25535714Y76019048D01*
X25440476Y76066667D01*
X25250000Y76066667D01*
X25154761Y76019048D01*
X25107142Y75971429D01*
X25059523Y75876191D01*
X26107142Y75495239D02*
X26107142Y75447620D01*
X26059523Y75352381D01*
X26011904Y75304762D01*
X27011904Y76447620D02*
X26535714Y76447620D01*
X26488095Y75971429D01*
X26535714Y76019048D01*
X26630952Y76066667D01*
X26869047Y76066667D01*
X26964285Y76019048D01*
X27011904Y75971429D01*
X27059523Y75876191D01*
X27059523Y75638096D01*
X27011904Y75542858D01*
X26964285Y75495239D01*
X26869047Y75447620D01*
X26630952Y75447620D01*
X26535714Y75495239D01*
X26488095Y75542858D01*
X27678571Y76447620D02*
X27773809Y76447620D01*
X27869047Y76400000D01*
X27916666Y76352381D01*
X27964285Y76257143D01*
X28011904Y76066667D01*
X28011904Y75828572D01*
X27964285Y75638096D01*
X27916666Y75542858D01*
X27869047Y75495239D01*
X27773809Y75447620D01*
X27678571Y75447620D01*
X27583333Y75495239D01*
X27535714Y75542858D01*
X27488095Y75638096D01*
X27440476Y75828572D01*
X27440476Y76066667D01*
X27488095Y76257143D01*
X27535714Y76352381D01*
X27583333Y76400000D01*
X27678571Y76447620D01*
X28630952Y76447620D02*
X28726190Y76447620D01*
X28821428Y76400000D01*
X28869047Y76352381D01*
X28916666Y76257143D01*
X28964285Y76066667D01*
X28964285Y75828572D01*
X28916666Y75638096D01*
X28869047Y75542858D01*
X28821428Y75495239D01*
X28726190Y75447620D01*
X28630952Y75447620D01*
X28535714Y75495239D01*
X28488095Y75542858D01*
X28440476Y75638096D01*
X28392857Y75828572D01*
X28392857Y76066667D01*
X28440476Y76257143D01*
X28488095Y76352381D01*
X28535714Y76400000D01*
X28630952Y76447620D01*
X30154761Y75447620D02*
X30154761Y76114286D01*
X30154761Y76019048D02*
X30202380Y76066667D01*
X30297619Y76114286D01*
X30440476Y76114286D01*
X30535714Y76066667D01*
X30583333Y75971429D01*
X30583333Y75447620D01*
X30583333Y75971429D02*
X30630952Y76066667D01*
X30726190Y76114286D01*
X30869047Y76114286D01*
X30964285Y76066667D01*
X31011904Y75971429D01*
X31011904Y75447620D01*
X31488095Y75447620D02*
X31488095Y76114286D01*
X31488095Y76019048D02*
X31535714Y76066667D01*
X31630952Y76114286D01*
X31773809Y76114286D01*
X31869047Y76066667D01*
X31916666Y75971429D01*
X31916666Y75447620D01*
X31916666Y75971429D02*
X31964285Y76066667D01*
X32059523Y76114286D01*
X32202380Y76114286D01*
X32297619Y76066667D01*
X32345238Y75971429D01*
X32345238Y75447620D01*
X0Y75000000D02*
X56500000Y75000000D01*
X0Y57500000D02*
X0Y76800000D01*
X56500000Y57500000D02*
X56500000Y76800000D01*
X56500000Y75000000D02*
X55373496Y74413579D01*
X56500000Y75000000D02*
X55373496Y75586421D01*
X0Y75000000D02*
X1126504Y74413579D01*
X0Y75000000D02*
X1126504Y75586421D01*
D12*
X75314285Y-32850000D02*
X76028571Y-32850000D01*
X75171428Y-33278571D02*
X75671428Y-31778571D01*
X76171428Y-33278571D01*
X76528571Y-32278571D02*
X76885714Y-33278571D01*
X77242857Y-32278571D01*
X78457142Y-33278571D02*
X78457142Y-32492857D01*
X78385714Y-32350000D01*
X78242857Y-32278571D01*
X77957142Y-32278571D01*
X77814285Y-32350000D01*
X78457142Y-33207142D02*
X78314285Y-33278571D01*
X77957142Y-33278571D01*
X77814285Y-33207142D01*
X77742857Y-33064285D01*
X77742857Y-32921428D01*
X77814285Y-32778571D01*
X77957142Y-32707142D01*
X78314285Y-32707142D01*
X78457142Y-32635714D01*
X79171428Y-33278571D02*
X79171428Y-32278571D01*
X79171428Y-31778571D02*
X79100000Y-31850000D01*
X79171428Y-31921428D01*
X79242857Y-31850000D01*
X79171428Y-31778571D01*
X79171428Y-31921428D01*
X80100000Y-33278571D02*
X79957142Y-33207142D01*
X79885714Y-33064285D01*
X79885714Y-31778571D01*
X80671428Y-33135714D02*
X80742857Y-33207142D01*
X80671428Y-33278571D01*
X80600000Y-33207142D01*
X80671428Y-33135714D01*
X80671428Y-33278571D01*
X82528571Y-33278571D02*
X82528571Y-31778571D01*
X83171428Y-33278571D02*
X83171428Y-32492857D01*
X83100000Y-32350000D01*
X82957142Y-32278571D01*
X82742857Y-32278571D01*
X82600000Y-32350000D01*
X82528571Y-32421428D01*
X84457142Y-33207142D02*
X84314285Y-33278571D01*
X84028571Y-33278571D01*
X83885714Y-33207142D01*
X83814285Y-33064285D01*
X83814285Y-32492857D01*
X83885714Y-32350000D01*
X84028571Y-32278571D01*
X84314285Y-32278571D01*
X84457142Y-32350000D01*
X84528571Y-32492857D01*
X84528571Y-32635714D01*
X83814285Y-32778571D01*
X85171428Y-33278571D02*
X85171428Y-32278571D01*
X85171428Y-31778571D02*
X85100000Y-31850000D01*
X85171428Y-31921428D01*
X85242857Y-31850000D01*
X85171428Y-31778571D01*
X85171428Y-31921428D01*
X86528571Y-32278571D02*
X86528571Y-33492857D01*
X86457142Y-33635714D01*
X86385714Y-33707142D01*
X86242857Y-33778571D01*
X86028571Y-33778571D01*
X85885714Y-33707142D01*
X86528571Y-33207142D02*
X86385714Y-33278571D01*
X86100000Y-33278571D01*
X85957142Y-33207142D01*
X85885714Y-33135714D01*
X85814285Y-32992857D01*
X85814285Y-32564285D01*
X85885714Y-32421428D01*
X85957142Y-32350000D01*
X86100000Y-32278571D01*
X86385714Y-32278571D01*
X86528571Y-32350000D01*
X87242857Y-33278571D02*
X87242857Y-31778571D01*
X87885714Y-33278571D02*
X87885714Y-32492857D01*
X87814285Y-32350000D01*
X87671428Y-32278571D01*
X87457142Y-32278571D01*
X87314285Y-32350000D01*
X87242857Y-32421428D01*
X88385714Y-32278571D02*
X88957142Y-32278571D01*
X88600000Y-31778571D02*
X88600000Y-33064285D01*
X88671428Y-33207142D01*
X88814285Y-33278571D01*
X88957142Y-33278571D01*
X90600000Y-33135714D02*
X90671428Y-33207142D01*
X90600000Y-33278571D01*
X90528571Y-33207142D01*
X90600000Y-33135714D01*
X90600000Y-33278571D01*
X90600000Y-32350000D02*
X90671428Y-32421428D01*
X90600000Y-32492857D01*
X90528571Y-32421428D01*
X90600000Y-32350000D01*
X90600000Y-32492857D01*
X93100000Y-32278571D02*
X93100000Y-33278571D01*
X92742857Y-31707142D02*
X92385714Y-32778571D01*
X93314285Y-32778571D01*
X93885714Y-33135714D02*
X93957142Y-33207142D01*
X93885714Y-33278571D01*
X93814285Y-33207142D01*
X93885714Y-33135714D01*
X93885714Y-33278571D01*
X95314285Y-31778571D02*
X94600000Y-31778571D01*
X94528571Y-32492857D01*
X94600000Y-32421428D01*
X94742857Y-32350000D01*
X95100000Y-32350000D01*
X95242857Y-32421428D01*
X95314285Y-32492857D01*
X95385714Y-32635714D01*
X95385714Y-32992857D01*
X95314285Y-33135714D01*
X95242857Y-33207142D01*
X95100000Y-33278571D01*
X94742857Y-33278571D01*
X94600000Y-33207142D01*
X94528571Y-33135714D01*
X96028571Y-33278571D02*
X96028571Y-32278571D01*
X96028571Y-32421428D02*
X96100000Y-32350000D01*
X96242857Y-32278571D01*
X96457142Y-32278571D01*
X96600000Y-32350000D01*
X96671428Y-32492857D01*
X96671428Y-33278571D01*
X96671428Y-32492857D02*
X96742857Y-32350000D01*
X96885714Y-32278571D01*
X97100000Y-32278571D01*
X97242857Y-32350000D01*
X97314285Y-32492857D01*
X97314285Y-33278571D01*
X98028571Y-33278571D02*
X98028571Y-32278571D01*
X98028571Y-32421428D02*
X98100000Y-32350000D01*
X98242857Y-32278571D01*
X98457142Y-32278571D01*
X98600000Y-32350000D01*
X98671428Y-32492857D01*
X98671428Y-33278571D01*
X98671428Y-32492857D02*
X98742857Y-32350000D01*
X98885714Y-32278571D01*
X99100000Y-32278571D01*
X99242857Y-32350000D01*
X99314285Y-32492857D01*
X99314285Y-33278571D01*
X101171428Y-33278571D02*
X101171428Y-31778571D01*
X101171428Y-32350000D02*
X101314285Y-32278571D01*
X101600000Y-32278571D01*
X101742857Y-32350000D01*
X101814285Y-32421428D01*
X101885714Y-32564285D01*
X101885714Y-32992857D01*
X101814285Y-33135714D01*
X101742857Y-33207142D01*
X101600000Y-33278571D01*
X101314285Y-33278571D01*
X101171428Y-33207142D01*
X102742857Y-33278571D02*
X102600000Y-33207142D01*
X102528571Y-33135714D01*
X102457142Y-32992857D01*
X102457142Y-32564285D01*
X102528571Y-32421428D01*
X102600000Y-32350000D01*
X102742857Y-32278571D01*
X102957142Y-32278571D01*
X103100000Y-32350000D01*
X103171428Y-32421428D01*
X103242857Y-32564285D01*
X103242857Y-32992857D01*
X103171428Y-33135714D01*
X103100000Y-33207142D01*
X102957142Y-33278571D01*
X102742857Y-33278571D01*
X103671428Y-32278571D02*
X104242857Y-32278571D01*
X103885714Y-31778571D02*
X103885714Y-33064285D01*
X103957142Y-33207142D01*
X104100000Y-33278571D01*
X104242857Y-33278571D01*
X104528571Y-32278571D02*
X105100000Y-32278571D01*
X104742857Y-31778571D02*
X104742857Y-33064285D01*
X104814285Y-33207142D01*
X104957142Y-33278571D01*
X105100000Y-33278571D01*
X105814285Y-33278571D02*
X105671428Y-33207142D01*
X105600000Y-33135714D01*
X105528571Y-32992857D01*
X105528571Y-32564285D01*
X105600000Y-32421428D01*
X105671428Y-32350000D01*
X105814285Y-32278571D01*
X106028571Y-32278571D01*
X106171428Y-32350000D01*
X106242857Y-32421428D01*
X106314285Y-32564285D01*
X106314285Y-32992857D01*
X106242857Y-33135714D01*
X106171428Y-33207142D01*
X106028571Y-33278571D01*
X105814285Y-33278571D01*
X106957142Y-33278571D02*
X106957142Y-32278571D01*
X106957142Y-32421428D02*
X107028571Y-32350000D01*
X107171428Y-32278571D01*
X107385714Y-32278571D01*
X107528571Y-32350000D01*
X107600000Y-32492857D01*
X107600000Y-33278571D01*
X107600000Y-32492857D02*
X107671428Y-32350000D01*
X107814285Y-32278571D01*
X108028571Y-32278571D01*
X108171428Y-32350000D01*
X108242857Y-32492857D01*
X108242857Y-33278571D01*
X110171428Y-33207142D02*
X110171428Y-33278571D01*
X110100000Y-33421428D01*
X110028571Y-33492857D01*
X110100000Y-32350000D02*
X110171428Y-32421428D01*
X110100000Y-32492857D01*
X110028571Y-32421428D01*
X110100000Y-32350000D01*
X110100000Y-32492857D01*
X112742857Y-33278571D02*
X111885714Y-33278571D01*
X112314285Y-33278571D02*
X112314285Y-31778571D01*
X112171428Y-31992857D01*
X112028571Y-32135714D01*
X111885714Y-32207142D01*
X114100000Y-31778571D02*
X113385714Y-31778571D01*
X113314285Y-32492857D01*
X113385714Y-32421428D01*
X113528571Y-32350000D01*
X113885714Y-32350000D01*
X114028571Y-32421428D01*
X114100000Y-32492857D01*
X114171428Y-32635714D01*
X114171428Y-32992857D01*
X114100000Y-33135714D01*
X114028571Y-33207142D01*
X113885714Y-33278571D01*
X113528571Y-33278571D01*
X113385714Y-33207142D01*
X113314285Y-33135714D01*
X114814285Y-33278571D02*
X114814285Y-32278571D01*
X114814285Y-32421428D02*
X114885714Y-32350000D01*
X115028571Y-32278571D01*
X115242857Y-32278571D01*
X115385714Y-32350000D01*
X115457142Y-32492857D01*
X115457142Y-33278571D01*
X115457142Y-32492857D02*
X115528571Y-32350000D01*
X115671428Y-32278571D01*
X115885714Y-32278571D01*
X116028571Y-32350000D01*
X116100000Y-32492857D01*
X116100000Y-33278571D01*
X116814285Y-33278571D02*
X116814285Y-32278571D01*
X116814285Y-32421428D02*
X116885714Y-32350000D01*
X117028571Y-32278571D01*
X117242857Y-32278571D01*
X117385714Y-32350000D01*
X117457142Y-32492857D01*
X117457142Y-33278571D01*
X117457142Y-32492857D02*
X117528571Y-32350000D01*
X117671428Y-32278571D01*
X117885714Y-32278571D01*
X118028571Y-32350000D01*
X118100000Y-32492857D01*
X118100000Y-33278571D01*
X119742857Y-32278571D02*
X120314285Y-32278571D01*
X119957142Y-31778571D02*
X119957142Y-33064285D01*
X120028571Y-33207142D01*
X120171428Y-33278571D01*
X120314285Y-33278571D01*
X121028571Y-33278571D02*
X120885714Y-33207142D01*
X120814285Y-33135714D01*
X120742857Y-32992857D01*
X120742857Y-32564285D01*
X120814285Y-32421428D01*
X120885714Y-32350000D01*
X121028571Y-32278571D01*
X121242857Y-32278571D01*
X121385714Y-32350000D01*
X121457142Y-32421428D01*
X121528571Y-32564285D01*
X121528571Y-32992857D01*
X121457142Y-33135714D01*
X121385714Y-33207142D01*
X121242857Y-33278571D01*
X121028571Y-33278571D01*
X122171428Y-32278571D02*
X122171428Y-33778571D01*
X122171428Y-32350000D02*
X122314285Y-32278571D01*
X122600000Y-32278571D01*
X122742857Y-32350000D01*
X122814285Y-32421428D01*
X122885714Y-32564285D01*
X122885714Y-32992857D01*
X122814285Y-33135714D01*
X122742857Y-33207142D01*
X122600000Y-33278571D01*
X122314285Y-33278571D01*
X122171428Y-33207142D01*
X17178571Y-3035714D02*
X17107142Y-3107142D01*
X16892857Y-3178571D01*
X16750000Y-3178571D01*
X16535714Y-3107142D01*
X16392857Y-2964285D01*
X16321428Y-2821428D01*
X16250000Y-2535714D01*
X16250000Y-2321428D01*
X16321428Y-2035714D01*
X16392857Y-1892857D01*
X16535714Y-1750000D01*
X16750000Y-1678571D01*
X16892857Y-1678571D01*
X17107142Y-1750000D01*
X17178571Y-1821428D01*
X18035714Y-3178571D02*
X17892857Y-3107142D01*
X17821428Y-3035714D01*
X17750000Y-2892857D01*
X17750000Y-2464285D01*
X17821428Y-2321428D01*
X17892857Y-2250000D01*
X18035714Y-2178571D01*
X18250000Y-2178571D01*
X18392857Y-2250000D01*
X18464285Y-2321428D01*
X18535714Y-2464285D01*
X18535714Y-2892857D01*
X18464285Y-3035714D01*
X18392857Y-3107142D01*
X18250000Y-3178571D01*
X18035714Y-3178571D01*
X19178571Y-2178571D02*
X19178571Y-3178571D01*
X19178571Y-2321428D02*
X19250000Y-2250000D01*
X19392857Y-2178571D01*
X19607142Y-2178571D01*
X19750000Y-2250000D01*
X19821428Y-2392857D01*
X19821428Y-3178571D01*
X20535714Y-2178571D02*
X20535714Y-3178571D01*
X20535714Y-2321428D02*
X20607142Y-2250000D01*
X20750000Y-2178571D01*
X20964285Y-2178571D01*
X21107142Y-2250000D01*
X21178571Y-2392857D01*
X21178571Y-3178571D01*
X22464285Y-3107142D02*
X22321428Y-3178571D01*
X22035714Y-3178571D01*
X21892857Y-3107142D01*
X21821428Y-2964285D01*
X21821428Y-2392857D01*
X21892857Y-2250000D01*
X22035714Y-2178571D01*
X22321428Y-2178571D01*
X22464285Y-2250000D01*
X22535714Y-2392857D01*
X22535714Y-2535714D01*
X21821428Y-2678571D01*
X23821428Y-3107142D02*
X23678571Y-3178571D01*
X23392857Y-3178571D01*
X23250000Y-3107142D01*
X23178571Y-3035714D01*
X23107142Y-2892857D01*
X23107142Y-2464285D01*
X23178571Y-2321428D01*
X23250000Y-2250000D01*
X23392857Y-2178571D01*
X23678571Y-2178571D01*
X23821428Y-2250000D01*
X24250000Y-2178571D02*
X24821428Y-2178571D01*
X24464285Y-1678571D02*
X24464285Y-2964285D01*
X24535714Y-3107142D01*
X24678571Y-3178571D01*
X24821428Y-3178571D01*
X25892857Y-3107142D02*
X25750000Y-3178571D01*
X25464285Y-3178571D01*
X25321428Y-3107142D01*
X25250000Y-2964285D01*
X25250000Y-2392857D01*
X25321428Y-2250000D01*
X25464285Y-2178571D01*
X25750000Y-2178571D01*
X25892857Y-2250000D01*
X25964285Y-2392857D01*
X25964285Y-2535714D01*
X25250000Y-2678571D01*
X27250000Y-2178571D02*
X27250000Y-3178571D01*
X26607142Y-2178571D02*
X26607142Y-2964285D01*
X26678571Y-3107142D01*
X26821428Y-3178571D01*
X27035714Y-3178571D01*
X27178571Y-3107142D01*
X27250000Y-3035714D01*
X27964285Y-3178571D02*
X27964285Y-2178571D01*
X27964285Y-2464285D02*
X28035714Y-2321428D01*
X28107142Y-2250000D01*
X28250000Y-2178571D01*
X28392857Y-2178571D01*
X28821428Y-3107142D02*
X28964285Y-3178571D01*
X29250000Y-3178571D01*
X29392857Y-3107142D01*
X29464285Y-2964285D01*
X29464285Y-2892857D01*
X29392857Y-2750000D01*
X29250000Y-2678571D01*
X29035714Y-2678571D01*
X28892857Y-2607142D01*
X28821428Y-2464285D01*
X28821428Y-2392857D01*
X28892857Y-2250000D01*
X29035714Y-2178571D01*
X29250000Y-2178571D01*
X29392857Y-2250000D01*
X31250000Y-3178571D02*
X31250000Y-2178571D01*
X31250000Y-1678571D02*
X31178571Y-1750000D01*
X31250000Y-1821428D01*
X31321428Y-1750000D01*
X31250000Y-1678571D01*
X31250000Y-1821428D01*
X31964285Y-2178571D02*
X31964285Y-3178571D01*
X31964285Y-2321428D02*
X32035714Y-2250000D01*
X32178571Y-2178571D01*
X32392857Y-2178571D01*
X32535714Y-2250000D01*
X32607142Y-2392857D01*
X32607142Y-3178571D01*
X33107142Y-2178571D02*
X33678571Y-2178571D01*
X33321428Y-1678571D02*
X33321428Y-2964285D01*
X33392857Y-3107142D01*
X33535714Y-3178571D01*
X33678571Y-3178571D01*
X36392857Y-1607142D02*
X35107142Y-3535714D01*
X38607142Y-3107142D02*
X38464285Y-3178571D01*
X38178571Y-3178571D01*
X38035714Y-3107142D01*
X37964285Y-2964285D01*
X37964285Y-2392857D01*
X38035714Y-2250000D01*
X38178571Y-2178571D01*
X38464285Y-2178571D01*
X38607142Y-2250000D01*
X38678571Y-2392857D01*
X38678571Y-2535714D01*
X37964285Y-2678571D01*
X39178571Y-3178571D02*
X39964285Y-2178571D01*
X39178571Y-2178571D02*
X39964285Y-3178571D01*
X40321428Y-2178571D02*
X40892857Y-2178571D01*
X40535714Y-1678571D02*
X40535714Y-2964285D01*
X40607142Y-3107142D01*
X40750000Y-3178571D01*
X40892857Y-3178571D01*
X19571428Y61964286D02*
X19500000Y61892858D01*
X19285714Y61821429D01*
X19142857Y61821429D01*
X18928571Y61892858D01*
X18785714Y62035715D01*
X18714285Y62178572D01*
X18642857Y62464286D01*
X18642857Y62678572D01*
X18714285Y62964286D01*
X18785714Y63107143D01*
X18928571Y63250000D01*
X19142857Y63321429D01*
X19285714Y63321429D01*
X19500000Y63250000D01*
X19571428Y63178572D01*
X20428571Y61821429D02*
X20285714Y61892858D01*
X20214285Y61964286D01*
X20142857Y62107143D01*
X20142857Y62535715D01*
X20214285Y62678572D01*
X20285714Y62750000D01*
X20428571Y62821429D01*
X20642857Y62821429D01*
X20785714Y62750000D01*
X20857142Y62678572D01*
X20928571Y62535715D01*
X20928571Y62107143D01*
X20857142Y61964286D01*
X20785714Y61892858D01*
X20642857Y61821429D01*
X20428571Y61821429D01*
X21571428Y62821429D02*
X21571428Y61821429D01*
X21571428Y62678572D02*
X21642857Y62750000D01*
X21785714Y62821429D01*
X22000000Y62821429D01*
X22142857Y62750000D01*
X22214285Y62607143D01*
X22214285Y61821429D01*
X22928571Y62821429D02*
X22928571Y61821429D01*
X22928571Y62678572D02*
X23000000Y62750000D01*
X23142857Y62821429D01*
X23357142Y62821429D01*
X23500000Y62750000D01*
X23571428Y62607143D01*
X23571428Y61821429D01*
X24857142Y61892858D02*
X24714285Y61821429D01*
X24428571Y61821429D01*
X24285714Y61892858D01*
X24214285Y62035715D01*
X24214285Y62607143D01*
X24285714Y62750000D01*
X24428571Y62821429D01*
X24714285Y62821429D01*
X24857142Y62750000D01*
X24928571Y62607143D01*
X24928571Y62464286D01*
X24214285Y62321429D01*
X26214285Y61892858D02*
X26071428Y61821429D01*
X25785714Y61821429D01*
X25642857Y61892858D01*
X25571428Y61964286D01*
X25500000Y62107143D01*
X25500000Y62535715D01*
X25571428Y62678572D01*
X25642857Y62750000D01*
X25785714Y62821429D01*
X26071428Y62821429D01*
X26214285Y62750000D01*
X26642857Y62821429D02*
X27214285Y62821429D01*
X26857142Y63321429D02*
X26857142Y62035715D01*
X26928571Y61892858D01*
X27071428Y61821429D01*
X27214285Y61821429D01*
X28285714Y61892858D02*
X28142857Y61821429D01*
X27857142Y61821429D01*
X27714285Y61892858D01*
X27642857Y62035715D01*
X27642857Y62607143D01*
X27714285Y62750000D01*
X27857142Y62821429D01*
X28142857Y62821429D01*
X28285714Y62750000D01*
X28357142Y62607143D01*
X28357142Y62464286D01*
X27642857Y62321429D01*
X29642857Y62821429D02*
X29642857Y61821429D01*
X29000000Y62821429D02*
X29000000Y62035715D01*
X29071428Y61892858D01*
X29214285Y61821429D01*
X29428571Y61821429D01*
X29571428Y61892858D01*
X29642857Y61964286D01*
X30357142Y61821429D02*
X30357142Y62821429D01*
X30357142Y62535715D02*
X30428571Y62678572D01*
X30500000Y62750000D01*
X30642857Y62821429D01*
X30785714Y62821429D01*
X31214285Y61892858D02*
X31357142Y61821429D01*
X31642857Y61821429D01*
X31785714Y61892858D01*
X31857142Y62035715D01*
X31857142Y62107143D01*
X31785714Y62250000D01*
X31642857Y62321429D01*
X31428571Y62321429D01*
X31285714Y62392858D01*
X31214285Y62535715D01*
X31214285Y62607143D01*
X31285714Y62750000D01*
X31428571Y62821429D01*
X31642857Y62821429D01*
X31785714Y62750000D01*
X34214285Y61892858D02*
X34071428Y61821429D01*
X33785714Y61821429D01*
X33642857Y61892858D01*
X33571428Y62035715D01*
X33571428Y62607143D01*
X33642857Y62750000D01*
X33785714Y62821429D01*
X34071428Y62821429D01*
X34214285Y62750000D01*
X34285714Y62607143D01*
X34285714Y62464286D01*
X33571428Y62321429D01*
X34785714Y61821429D02*
X35571428Y62821429D01*
X34785714Y62821429D02*
X35571428Y61821429D01*
X35928571Y62821429D02*
X36500000Y62821429D01*
X36142857Y63321429D02*
X36142857Y62035715D01*
X36214285Y61892858D01*
X36357142Y61821429D01*
X36500000Y61821429D01*
D11*
X15750000Y14750000D02*
G75*
G03*
X15750000Y14750000I-1500000J0D01*
G01*
X43750000Y14750000D02*
G75*
G03*
X43750000Y14750000I-1500000J0D01*
G01*
X43750000Y42750000D02*
G75*
G03*
X43750000Y42750000I-1500000J0D01*
G01*
X15750000Y42750000D02*
G75*
G03*
X15750000Y42750000I-1500000J0D01*
G01*
D13*
X5005000Y49665000D02*
X5640000Y49030000D01*
X5005000Y50300000D02*
X6275000Y49030000D01*
X5005000Y50935000D02*
X6275000Y49665000D01*
X5640000Y51570000D02*
X6275000Y50935000D01*
X5005000Y51570000D02*
X6275000Y50300000D01*
X6275000Y51570000D02*
X6275000Y49030000D01*
X6275000Y49030000D02*
X5005000Y49030000D01*
X5005000Y49030000D02*
X5005000Y51570000D01*
X5005000Y51570000D02*
X6275000Y51570000D01*
M02*
