G04 #@! TF.GenerationSoftware,KiCad,Pcbnew,5.1.10*
G04 #@! TF.CreationDate,2021-09-27T13:14:11+02:00*
G04 #@! TF.ProjectId,KXKM_ESP32_battery_management_board,4b584b4d-5f45-4535-9033-325f62617474,3.0*
G04 #@! TF.SameCoordinates,PX623a7c0PY839b680*
G04 #@! TF.FileFunction,Other,Comment*
%FSLAX46Y46*%
G04 Gerber Fmt 4.6, Leading zero omitted, Abs format (unit mm)*
G04 Created by KiCad (PCBNEW 5.1.10) date 2021-09-27 13:14:11*
%MOMM*%
%LPD*%
G01*
G04 APERTURE LIST*
%ADD10C,0.150000*%
%ADD11C,0.070000*%
G04 APERTURE END LIST*
D10*
X17450000Y42750000D02*
G75*
G03*
X17450000Y42750000I-3200000J0D01*
G01*
X45450000Y42750000D02*
G75*
G03*
X45450000Y42750000I-3200000J0D01*
G01*
D11*
X5820952Y49061905D02*
X5420952Y49061905D01*
X5820952Y49290477D02*
X5592380Y49119048D01*
X5420952Y49290477D02*
X5649523Y49061905D01*
X5611428Y49461905D02*
X5611428Y49595239D01*
X5820952Y49652381D02*
X5820952Y49461905D01*
X5420952Y49461905D01*
X5420952Y49652381D01*
X5611428Y49823810D02*
X5611428Y49957143D01*
X5820952Y50014286D02*
X5820952Y49823810D01*
X5420952Y49823810D01*
X5420952Y50014286D01*
X5820952Y50185715D02*
X5420952Y50185715D01*
X5420952Y50338096D01*
X5440000Y50376191D01*
X5459047Y50395239D01*
X5497142Y50414286D01*
X5554285Y50414286D01*
X5592380Y50395239D01*
X5611428Y50376191D01*
X5630476Y50338096D01*
X5630476Y50185715D01*
X5420952Y50661905D02*
X5420952Y50738096D01*
X5440000Y50776191D01*
X5478095Y50814286D01*
X5554285Y50833334D01*
X5687619Y50833334D01*
X5763809Y50814286D01*
X5801904Y50776191D01*
X5820952Y50738096D01*
X5820952Y50661905D01*
X5801904Y50623810D01*
X5763809Y50585715D01*
X5687619Y50566667D01*
X5554285Y50566667D01*
X5478095Y50585715D01*
X5440000Y50623810D01*
X5420952Y50661905D01*
X5420952Y51004762D02*
X5744761Y51004762D01*
X5782857Y51023810D01*
X5801904Y51042858D01*
X5820952Y51080953D01*
X5820952Y51157143D01*
X5801904Y51195239D01*
X5782857Y51214286D01*
X5744761Y51233334D01*
X5420952Y51233334D01*
X5420952Y51366667D02*
X5420952Y51595239D01*
X5820952Y51480953D02*
X5420952Y51480953D01*
M02*
