G04 #@! TF.GenerationSoftware,KiCad,Pcbnew,5.1.0*
G04 #@! TF.CreationDate,2019-04-16T13:05:14+02:00*
G04 #@! TF.ProjectId,KXKM_audio_battery_module,4b584b4d-5f61-4756-9469-6f5f62617474,2.0*
G04 #@! TF.SameCoordinates,PX623a7c0PY839b680*
G04 #@! TF.FileFunction,Soldermask,Top*
G04 #@! TF.FilePolarity,Negative*
%FSLAX46Y46*%
G04 Gerber Fmt 4.6, Leading zero omitted, Abs format (unit mm)*
G04 Created by KiCad (PCBNEW 5.1.0) date 2019-04-16 13:05:14*
%MOMM*%
%LPD*%
G04 APERTURE LIST*
%ADD10C,0.100000*%
G04 APERTURE END LIST*
D10*
G36*
X55895843Y1230786D02*
G01*
X55895846Y1230785D01*
X55895845Y1230785D01*
X55986839Y1193094D01*
X56028063Y1165549D01*
X56068730Y1138376D01*
X56138376Y1068730D01*
X56193095Y986837D01*
X56230786Y895843D01*
X56250000Y799247D01*
X56250000Y700753D01*
X56230786Y604157D01*
X56230785Y604155D01*
X56193094Y513161D01*
X56138375Y431269D01*
X56068731Y361625D01*
X55986839Y306906D01*
X55986838Y306905D01*
X55986837Y306905D01*
X55895843Y269214D01*
X55799247Y250000D01*
X55700753Y250000D01*
X55604157Y269214D01*
X55513163Y306905D01*
X55513162Y306905D01*
X55513161Y306906D01*
X55431269Y361625D01*
X55361625Y431269D01*
X55306906Y513161D01*
X55269215Y604155D01*
X55269214Y604157D01*
X55250000Y700753D01*
X55250000Y799247D01*
X55269214Y895843D01*
X55306905Y986837D01*
X55361624Y1068730D01*
X55431270Y1138376D01*
X55471937Y1165549D01*
X55513161Y1193094D01*
X55604155Y1230785D01*
X55604154Y1230785D01*
X55604157Y1230786D01*
X55700753Y1250000D01*
X55799247Y1250000D01*
X55895843Y1230786D01*
X55895843Y1230786D01*
G37*
G36*
X895843Y1230786D02*
G01*
X895846Y1230785D01*
X895845Y1230785D01*
X986839Y1193094D01*
X1028063Y1165549D01*
X1068730Y1138376D01*
X1138376Y1068730D01*
X1193095Y986837D01*
X1230786Y895843D01*
X1250000Y799247D01*
X1250000Y700753D01*
X1230786Y604157D01*
X1230785Y604155D01*
X1193094Y513161D01*
X1138375Y431269D01*
X1068731Y361625D01*
X986839Y306906D01*
X986838Y306905D01*
X986837Y306905D01*
X895843Y269214D01*
X799247Y250000D01*
X700753Y250000D01*
X604157Y269214D01*
X513163Y306905D01*
X513162Y306905D01*
X513161Y306906D01*
X431269Y361625D01*
X361625Y431269D01*
X306906Y513161D01*
X269215Y604155D01*
X269214Y604157D01*
X250000Y700753D01*
X250000Y799247D01*
X269214Y895843D01*
X306905Y986837D01*
X361624Y1068730D01*
X431270Y1138376D01*
X471937Y1165549D01*
X513161Y1193094D01*
X604155Y1230785D01*
X604154Y1230785D01*
X604157Y1230786D01*
X700753Y1250000D01*
X799247Y1250000D01*
X895843Y1230786D01*
X895843Y1230786D01*
G37*
G36*
X3676846Y4981268D02*
G01*
X3851766Y4908813D01*
X4099141Y4806348D01*
X4479195Y4552404D01*
X4802404Y4229195D01*
X5056348Y3849141D01*
X5158813Y3601766D01*
X5231268Y3426846D01*
X5320440Y2978545D01*
X5320440Y2521455D01*
X5231268Y2073154D01*
X5158813Y1898234D01*
X5056348Y1650859D01*
X4802404Y1270805D01*
X4479195Y947596D01*
X4099141Y693652D01*
X3883080Y604157D01*
X3676846Y518732D01*
X3228545Y429560D01*
X2771455Y429560D01*
X2323154Y518732D01*
X2116920Y604157D01*
X1900859Y693652D01*
X1520805Y947596D01*
X1197596Y1270805D01*
X943652Y1650859D01*
X841187Y1898234D01*
X768732Y2073154D01*
X679560Y2521455D01*
X679560Y2978545D01*
X768732Y3426846D01*
X841187Y3601766D01*
X943652Y3849141D01*
X1197596Y4229195D01*
X1520805Y4552404D01*
X1900859Y4806348D01*
X2148234Y4908813D01*
X2323154Y4981268D01*
X2771455Y5070440D01*
X3228545Y5070440D01*
X3676846Y4981268D01*
X3676846Y4981268D01*
G37*
G36*
X11176846Y4981268D02*
G01*
X11351766Y4908813D01*
X11599141Y4806348D01*
X11979195Y4552404D01*
X12302404Y4229195D01*
X12556348Y3849141D01*
X12658813Y3601766D01*
X12731268Y3426846D01*
X12820440Y2978545D01*
X12820440Y2521455D01*
X12731268Y2073154D01*
X12658813Y1898234D01*
X12556348Y1650859D01*
X12302404Y1270805D01*
X11979195Y947596D01*
X11599141Y693652D01*
X11383080Y604157D01*
X11176846Y518732D01*
X10728545Y429560D01*
X10271455Y429560D01*
X9823154Y518732D01*
X9616920Y604157D01*
X9400859Y693652D01*
X9020805Y947596D01*
X8697596Y1270805D01*
X8443652Y1650859D01*
X8341187Y1898234D01*
X8268732Y2073154D01*
X8179560Y2521455D01*
X8179560Y2978545D01*
X8268732Y3426846D01*
X8341187Y3601766D01*
X8443652Y3849141D01*
X8697596Y4229195D01*
X9020805Y4552404D01*
X9400859Y4806348D01*
X9648234Y4908813D01*
X9823154Y4981268D01*
X10271455Y5070440D01*
X10728545Y5070440D01*
X11176846Y4981268D01*
X11176846Y4981268D01*
G37*
G36*
X54176846Y4981268D02*
G01*
X54351766Y4908813D01*
X54599141Y4806348D01*
X54979195Y4552404D01*
X55302404Y4229195D01*
X55556348Y3849141D01*
X55658813Y3601766D01*
X55731268Y3426846D01*
X55820440Y2978545D01*
X55820440Y2521455D01*
X55731268Y2073154D01*
X55658813Y1898234D01*
X55556348Y1650859D01*
X55302404Y1270805D01*
X54979195Y947596D01*
X54599141Y693652D01*
X54383080Y604157D01*
X54176846Y518732D01*
X53728545Y429560D01*
X53271455Y429560D01*
X52823154Y518732D01*
X52616920Y604157D01*
X52400859Y693652D01*
X52020805Y947596D01*
X51697596Y1270805D01*
X51443652Y1650859D01*
X51341187Y1898234D01*
X51268732Y2073154D01*
X51179560Y2521455D01*
X51179560Y2978545D01*
X51268732Y3426846D01*
X51341187Y3601766D01*
X51443652Y3849141D01*
X51697596Y4229195D01*
X52020805Y4552404D01*
X52400859Y4806348D01*
X52648234Y4908813D01*
X52823154Y4981268D01*
X53271455Y5070440D01*
X53728545Y5070440D01*
X54176846Y4981268D01*
X54176846Y4981268D01*
G37*
G36*
X46676846Y4981268D02*
G01*
X46851766Y4908813D01*
X47099141Y4806348D01*
X47479195Y4552404D01*
X47802404Y4229195D01*
X48056348Y3849141D01*
X48158813Y3601766D01*
X48231268Y3426846D01*
X48320440Y2978545D01*
X48320440Y2521455D01*
X48231268Y2073154D01*
X48158813Y1898234D01*
X48056348Y1650859D01*
X47802404Y1270805D01*
X47479195Y947596D01*
X47099141Y693652D01*
X46883080Y604157D01*
X46676846Y518732D01*
X46228545Y429560D01*
X45771455Y429560D01*
X45323154Y518732D01*
X45116920Y604157D01*
X44900859Y693652D01*
X44520805Y947596D01*
X44197596Y1270805D01*
X43943652Y1650859D01*
X43841187Y1898234D01*
X43768732Y2073154D01*
X43679560Y2521455D01*
X43679560Y2978545D01*
X43768732Y3426846D01*
X43841187Y3601766D01*
X43943652Y3849141D01*
X44197596Y4229195D01*
X44520805Y4552404D01*
X44900859Y4806348D01*
X45148234Y4908813D01*
X45323154Y4981268D01*
X45771455Y5070440D01*
X46228545Y5070440D01*
X46676846Y4981268D01*
X46676846Y4981268D01*
G37*
G36*
X18070000Y3370000D02*
G01*
X15930000Y3370000D01*
X15930000Y5510000D01*
X18070000Y5510000D01*
X18070000Y3370000D01*
X18070000Y3370000D01*
G37*
G36*
X36570000Y3370000D02*
G01*
X34430000Y3370000D01*
X34430000Y5510000D01*
X36570000Y5510000D01*
X36570000Y3370000D01*
X36570000Y3370000D01*
G37*
G36*
X19501704Y9653902D02*
G01*
X19814724Y9524245D01*
X19814725Y9524244D01*
X20096436Y9336011D01*
X20336011Y9096436D01*
X20336012Y9096434D01*
X20524245Y8814724D01*
X20653902Y8501704D01*
X20720000Y8169407D01*
X20720000Y7830593D01*
X20653902Y7498296D01*
X20524245Y7185276D01*
X20524244Y7185275D01*
X20336011Y6903564D01*
X20096436Y6663989D01*
X19954623Y6569233D01*
X19814724Y6475755D01*
X19501704Y6346098D01*
X19169407Y6280000D01*
X18830593Y6280000D01*
X18498296Y6346098D01*
X18185276Y6475755D01*
X18045377Y6569233D01*
X17903564Y6663989D01*
X17663989Y6903564D01*
X17475756Y7185275D01*
X17475755Y7185276D01*
X17346098Y7498296D01*
X17280000Y7830593D01*
X17280000Y8169407D01*
X17346098Y8501704D01*
X17475755Y8814724D01*
X17663988Y9096434D01*
X17663989Y9096436D01*
X17903564Y9336011D01*
X18185275Y9524244D01*
X18185276Y9524245D01*
X18498296Y9653902D01*
X18830593Y9720000D01*
X19169407Y9720000D01*
X19501704Y9653902D01*
X19501704Y9653902D01*
G37*
G36*
X33501704Y9653902D02*
G01*
X33814724Y9524245D01*
X33814725Y9524244D01*
X34096436Y9336011D01*
X34336011Y9096436D01*
X34336012Y9096434D01*
X34524245Y8814724D01*
X34653902Y8501704D01*
X34720000Y8169407D01*
X34720000Y7830593D01*
X34653902Y7498296D01*
X34524245Y7185276D01*
X34524244Y7185275D01*
X34336011Y6903564D01*
X34096436Y6663989D01*
X33954623Y6569233D01*
X33814724Y6475755D01*
X33501704Y6346098D01*
X33169407Y6280000D01*
X32830593Y6280000D01*
X32498296Y6346098D01*
X32185276Y6475755D01*
X32045377Y6569233D01*
X31903564Y6663989D01*
X31663989Y6903564D01*
X31475756Y7185275D01*
X31475755Y7185276D01*
X31346098Y7498296D01*
X31280000Y7830593D01*
X31280000Y8169407D01*
X31346098Y8501704D01*
X31475755Y8814724D01*
X31663988Y9096434D01*
X31663989Y9096436D01*
X31903564Y9336011D01*
X32185275Y9524244D01*
X32185276Y9524245D01*
X32498296Y9653902D01*
X32830593Y9720000D01*
X33169407Y9720000D01*
X33501704Y9653902D01*
X33501704Y9653902D01*
G37*
G36*
X52570000Y6680000D02*
G01*
X49930000Y6680000D01*
X49930000Y10320000D01*
X52570000Y10320000D01*
X52570000Y6680000D01*
X52570000Y6680000D01*
G37*
G36*
X6975028Y10519274D02*
G01*
X7197646Y10427063D01*
X7215255Y10419769D01*
X7324086Y10347050D01*
X7364570Y10320000D01*
X7431451Y10275311D01*
X7615311Y10091451D01*
X7705449Y9956551D01*
X7759770Y9875253D01*
X7859274Y9635028D01*
X7910000Y9380010D01*
X7910000Y9119990D01*
X7859274Y8864972D01*
X7859273Y8864970D01*
X7759769Y8624745D01*
X7615311Y8408549D01*
X7431451Y8224689D01*
X7215255Y8080231D01*
X7215254Y8080230D01*
X7215253Y8080230D01*
X6975028Y7980726D01*
X6720010Y7930000D01*
X6459990Y7930000D01*
X6204972Y7980726D01*
X5964747Y8080230D01*
X5964746Y8080230D01*
X5964745Y8080231D01*
X5748549Y8224689D01*
X5564689Y8408549D01*
X5420231Y8624745D01*
X5320727Y8864970D01*
X5320726Y8864972D01*
X5270000Y9119990D01*
X5270000Y9380010D01*
X5320726Y9635028D01*
X5420230Y9875253D01*
X5474552Y9956551D01*
X5564689Y10091451D01*
X5748549Y10275311D01*
X5815431Y10320000D01*
X5855914Y10347050D01*
X5964745Y10419769D01*
X5982354Y10427063D01*
X6204972Y10519274D01*
X6459990Y10570000D01*
X6720010Y10570000D01*
X6975028Y10519274D01*
X6975028Y10519274D01*
G37*
G36*
X11720000Y7930000D02*
G01*
X9080000Y7930000D01*
X9080000Y10570000D01*
X11720000Y10570000D01*
X11720000Y7930000D01*
X11720000Y7930000D01*
G37*
G36*
X3165028Y10519274D02*
G01*
X3387646Y10427063D01*
X3405255Y10419769D01*
X3514086Y10347050D01*
X3554570Y10320000D01*
X3621451Y10275311D01*
X3805311Y10091451D01*
X3895449Y9956551D01*
X3949770Y9875253D01*
X4049274Y9635028D01*
X4100000Y9380010D01*
X4100000Y9119990D01*
X4049274Y8864972D01*
X4049273Y8864970D01*
X3949769Y8624745D01*
X3805311Y8408549D01*
X3621451Y8224689D01*
X3405255Y8080231D01*
X3405254Y8080230D01*
X3405253Y8080230D01*
X3165028Y7980726D01*
X2910010Y7930000D01*
X2649990Y7930000D01*
X2394972Y7980726D01*
X2154747Y8080230D01*
X2154746Y8080230D01*
X2154745Y8080231D01*
X1938549Y8224689D01*
X1754689Y8408549D01*
X1610231Y8624745D01*
X1510727Y8864970D01*
X1510726Y8864972D01*
X1460000Y9119990D01*
X1460000Y9380010D01*
X1510726Y9635028D01*
X1610230Y9875253D01*
X1664552Y9956551D01*
X1754689Y10091451D01*
X1938549Y10275311D01*
X2005431Y10320000D01*
X2045914Y10347050D01*
X2154745Y10419769D01*
X2172354Y10427063D01*
X2394972Y10519274D01*
X2649990Y10570000D01*
X2910010Y10570000D01*
X3165028Y10519274D01*
X3165028Y10519274D01*
G37*
G36*
X29782937Y11642724D02*
G01*
X29959466Y11569603D01*
X29959467Y11569602D01*
X30118339Y11463448D01*
X30253448Y11328339D01*
X30253449Y11328337D01*
X30359603Y11169466D01*
X30432724Y10992937D01*
X30470000Y10805538D01*
X30470000Y10614462D01*
X30432724Y10427063D01*
X30359603Y10250534D01*
X30359602Y10250533D01*
X30253448Y10091661D01*
X30118339Y9956552D01*
X30038364Y9903115D01*
X29959466Y9850397D01*
X29782937Y9777276D01*
X29595538Y9740000D01*
X29404462Y9740000D01*
X29217063Y9777276D01*
X29040534Y9850397D01*
X28961636Y9903115D01*
X28881661Y9956552D01*
X28746552Y10091661D01*
X28640398Y10250533D01*
X28640397Y10250534D01*
X28567276Y10427063D01*
X28530000Y10614462D01*
X28530000Y10805538D01*
X28567276Y10992937D01*
X28640397Y11169466D01*
X28746551Y11328337D01*
X28746552Y11328339D01*
X28881661Y11463448D01*
X29040533Y11569602D01*
X29040534Y11569603D01*
X29217063Y11642724D01*
X29404462Y11680000D01*
X29595538Y11680000D01*
X29782937Y11642724D01*
X29782937Y11642724D01*
G37*
G36*
X22782937Y11642724D02*
G01*
X22959466Y11569603D01*
X22959467Y11569602D01*
X23118339Y11463448D01*
X23253448Y11328339D01*
X23253449Y11328337D01*
X23359603Y11169466D01*
X23432724Y10992937D01*
X23470000Y10805538D01*
X23470000Y10614462D01*
X23432724Y10427063D01*
X23359603Y10250534D01*
X23359602Y10250533D01*
X23253448Y10091661D01*
X23118339Y9956552D01*
X23038364Y9903115D01*
X22959466Y9850397D01*
X22782937Y9777276D01*
X22595538Y9740000D01*
X22404462Y9740000D01*
X22217063Y9777276D01*
X22040534Y9850397D01*
X21961636Y9903115D01*
X21881661Y9956552D01*
X21746552Y10091661D01*
X21640398Y10250533D01*
X21640397Y10250534D01*
X21567276Y10427063D01*
X21530000Y10614462D01*
X21530000Y10805538D01*
X21567276Y10992937D01*
X21640397Y11169466D01*
X21746551Y11328337D01*
X21746552Y11328339D01*
X21881661Y11463448D01*
X22040533Y11569602D01*
X22040534Y11569603D01*
X22217063Y11642724D01*
X22404462Y11680000D01*
X22595538Y11680000D01*
X22782937Y11642724D01*
X22782937Y11642724D01*
G37*
G36*
X25282937Y11642724D02*
G01*
X25459466Y11569603D01*
X25459467Y11569602D01*
X25618339Y11463448D01*
X25753448Y11328339D01*
X25753449Y11328337D01*
X25859603Y11169466D01*
X25932724Y10992937D01*
X25950962Y10901249D01*
X25953807Y10891869D01*
X25958427Y10883225D01*
X25964645Y10875648D01*
X25972222Y10869430D01*
X25980866Y10864810D01*
X25990246Y10861965D01*
X26000000Y10861004D01*
X26009754Y10861965D01*
X26019134Y10864810D01*
X26027778Y10869430D01*
X26035355Y10875648D01*
X26041573Y10883225D01*
X26046193Y10891869D01*
X26049038Y10901249D01*
X26067276Y10992937D01*
X26140397Y11169466D01*
X26246551Y11328337D01*
X26246552Y11328339D01*
X26381661Y11463448D01*
X26540533Y11569602D01*
X26540534Y11569603D01*
X26717063Y11642724D01*
X26904462Y11680000D01*
X27095538Y11680000D01*
X27282937Y11642724D01*
X27459466Y11569603D01*
X27459467Y11569602D01*
X27618339Y11463448D01*
X27753448Y11328339D01*
X27753449Y11328337D01*
X27859603Y11169466D01*
X27932724Y10992937D01*
X27970000Y10805538D01*
X27970000Y10614462D01*
X27932724Y10427063D01*
X27859603Y10250534D01*
X27859602Y10250533D01*
X27753448Y10091661D01*
X27618339Y9956552D01*
X27538364Y9903115D01*
X27459466Y9850397D01*
X27282937Y9777276D01*
X27095538Y9740000D01*
X26904462Y9740000D01*
X26717063Y9777276D01*
X26540534Y9850397D01*
X26461636Y9903115D01*
X26381661Y9956552D01*
X26246552Y10091661D01*
X26140398Y10250533D01*
X26140397Y10250534D01*
X26067276Y10427063D01*
X26049038Y10518751D01*
X26046193Y10528131D01*
X26041573Y10536775D01*
X26035355Y10544352D01*
X26027778Y10550570D01*
X26019134Y10555190D01*
X26009754Y10558035D01*
X26000000Y10558996D01*
X25990246Y10558035D01*
X25980866Y10555190D01*
X25972222Y10550570D01*
X25964645Y10544352D01*
X25958427Y10536775D01*
X25953807Y10528131D01*
X25950962Y10518751D01*
X25932724Y10427063D01*
X25859603Y10250534D01*
X25859602Y10250533D01*
X25753448Y10091661D01*
X25618339Y9956552D01*
X25538364Y9903115D01*
X25459466Y9850397D01*
X25282937Y9777276D01*
X25095538Y9740000D01*
X24904462Y9740000D01*
X24717063Y9777276D01*
X24540534Y9850397D01*
X24461636Y9903115D01*
X24381661Y9956552D01*
X24246552Y10091661D01*
X24140398Y10250533D01*
X24140397Y10250534D01*
X24067276Y10427063D01*
X24030000Y10614462D01*
X24030000Y10805538D01*
X24067276Y10992937D01*
X24140397Y11169466D01*
X24246551Y11328337D01*
X24246552Y11328339D01*
X24381661Y11463448D01*
X24540533Y11569602D01*
X24540534Y11569603D01*
X24717063Y11642724D01*
X24904462Y11680000D01*
X25095538Y11680000D01*
X25282937Y11642724D01*
X25282937Y11642724D01*
G37*
G36*
X3165028Y14019274D02*
G01*
X3165031Y14019273D01*
X3165030Y14019273D01*
X3405255Y13919769D01*
X3514086Y13847050D01*
X3621450Y13775312D01*
X3805312Y13591450D01*
X3949770Y13375253D01*
X4049274Y13135028D01*
X4100000Y12880010D01*
X4100000Y12619990D01*
X4049274Y12364972D01*
X3949770Y12124747D01*
X3805312Y11908550D01*
X3621450Y11724688D01*
X3514086Y11652950D01*
X3405255Y11580231D01*
X3405254Y11580230D01*
X3405253Y11580230D01*
X3165028Y11480726D01*
X2910010Y11430000D01*
X2649990Y11430000D01*
X2394972Y11480726D01*
X2154747Y11580230D01*
X2154746Y11580230D01*
X2154745Y11580231D01*
X2045914Y11652950D01*
X1938550Y11724688D01*
X1754688Y11908550D01*
X1610230Y12124747D01*
X1510726Y12364972D01*
X1460000Y12619990D01*
X1460000Y12880010D01*
X1510726Y13135028D01*
X1610230Y13375253D01*
X1754688Y13591450D01*
X1938550Y13775312D01*
X2045914Y13847050D01*
X2154745Y13919769D01*
X2394970Y14019273D01*
X2394969Y14019273D01*
X2394972Y14019274D01*
X2649990Y14070000D01*
X2910010Y14070000D01*
X3165028Y14019274D01*
X3165028Y14019274D01*
G37*
G36*
X6975028Y14019274D02*
G01*
X6975031Y14019273D01*
X6975030Y14019273D01*
X7215255Y13919769D01*
X7324086Y13847050D01*
X7431450Y13775312D01*
X7615312Y13591450D01*
X7759770Y13375253D01*
X7859274Y13135028D01*
X7910000Y12880010D01*
X7910000Y12619990D01*
X7859274Y12364972D01*
X7759770Y12124747D01*
X7615312Y11908550D01*
X7431450Y11724688D01*
X7324086Y11652950D01*
X7215255Y11580231D01*
X7215254Y11580230D01*
X7215253Y11580230D01*
X6975028Y11480726D01*
X6720010Y11430000D01*
X6459990Y11430000D01*
X6204972Y11480726D01*
X5964747Y11580230D01*
X5964746Y11580230D01*
X5964745Y11580231D01*
X5855914Y11652950D01*
X5748550Y11724688D01*
X5564688Y11908550D01*
X5420230Y12124747D01*
X5320726Y12364972D01*
X5270000Y12619990D01*
X5270000Y12880010D01*
X5320726Y13135028D01*
X5420230Y13375253D01*
X5564688Y13591450D01*
X5748550Y13775312D01*
X5855914Y13847050D01*
X5964745Y13919769D01*
X6204970Y14019273D01*
X6204969Y14019273D01*
X6204972Y14019274D01*
X6459990Y14070000D01*
X6720010Y14070000D01*
X6975028Y14019274D01*
X6975028Y14019274D01*
G37*
G36*
X11720000Y11430000D02*
G01*
X9080000Y11430000D01*
X9080000Y14070000D01*
X11720000Y14070000D01*
X11720000Y11430000D01*
X11720000Y11430000D01*
G37*
G36*
X18070000Y11490000D02*
G01*
X15930000Y11490000D01*
X15930000Y13630000D01*
X18070000Y13630000D01*
X18070000Y11490000D01*
X18070000Y11490000D01*
G37*
G36*
X36570000Y11490000D02*
G01*
X34430000Y11490000D01*
X34430000Y13630000D01*
X36570000Y13630000D01*
X36570000Y11490000D01*
X36570000Y11490000D01*
G37*
G36*
X52570000Y13180000D02*
G01*
X49930000Y13180000D01*
X49930000Y16820000D01*
X52570000Y16820000D01*
X52570000Y13180000D01*
X52570000Y13180000D01*
G37*
G36*
X46340000Y14250000D02*
G01*
X43200000Y14250000D01*
X43200000Y15390000D01*
X46340000Y15390000D01*
X46340000Y14250000D01*
X46340000Y14250000D01*
G37*
G36*
X41300000Y14250000D02*
G01*
X38160000Y14250000D01*
X38160000Y15390000D01*
X41300000Y15390000D01*
X41300000Y14250000D01*
X41300000Y14250000D01*
G37*
G36*
X41300000Y16790000D02*
G01*
X38160000Y16790000D01*
X38160000Y17930000D01*
X41300000Y17930000D01*
X41300000Y16790000D01*
X41300000Y16790000D01*
G37*
G36*
X46340000Y16790000D02*
G01*
X43200000Y16790000D01*
X43200000Y17930000D01*
X46340000Y17930000D01*
X46340000Y16790000D01*
X46340000Y16790000D01*
G37*
G36*
X46340000Y19330000D02*
G01*
X43200000Y19330000D01*
X43200000Y20470000D01*
X46340000Y20470000D01*
X46340000Y19330000D01*
X46340000Y19330000D01*
G37*
G36*
X41300000Y19330000D02*
G01*
X38160000Y19330000D01*
X38160000Y20470000D01*
X41300000Y20470000D01*
X41300000Y19330000D01*
X41300000Y19330000D01*
G37*
G36*
X29240000Y19430000D02*
G01*
X28200000Y19430000D01*
X28200000Y21570000D01*
X29240000Y21570000D01*
X29240000Y19430000D01*
X29240000Y19430000D01*
G37*
G36*
X15270000Y19430000D02*
G01*
X14230000Y19430000D01*
X14230000Y21570000D01*
X15270000Y21570000D01*
X15270000Y19430000D01*
X15270000Y19430000D01*
G37*
G36*
X31780000Y19430000D02*
G01*
X30740000Y19430000D01*
X30740000Y21570000D01*
X31780000Y21570000D01*
X31780000Y19430000D01*
X31780000Y19430000D01*
G37*
G36*
X30510000Y19430000D02*
G01*
X29470000Y19430000D01*
X29470000Y21570000D01*
X30510000Y21570000D01*
X30510000Y19430000D01*
X30510000Y19430000D01*
G37*
G36*
X27970000Y19430000D02*
G01*
X26930000Y19430000D01*
X26930000Y21570000D01*
X27970000Y21570000D01*
X27970000Y19430000D01*
X27970000Y19430000D01*
G37*
G36*
X26700000Y19430000D02*
G01*
X25660000Y19430000D01*
X25660000Y21570000D01*
X26700000Y21570000D01*
X26700000Y19430000D01*
X26700000Y19430000D01*
G37*
G36*
X25430000Y19430000D02*
G01*
X24390000Y19430000D01*
X24390000Y21570000D01*
X25430000Y21570000D01*
X25430000Y19430000D01*
X25430000Y19430000D01*
G37*
G36*
X22890000Y19430000D02*
G01*
X21850000Y19430000D01*
X21850000Y21570000D01*
X22890000Y21570000D01*
X22890000Y19430000D01*
X22890000Y19430000D01*
G37*
G36*
X24160000Y19430000D02*
G01*
X23120000Y19430000D01*
X23120000Y21570000D01*
X24160000Y21570000D01*
X24160000Y19430000D01*
X24160000Y19430000D01*
G37*
G36*
X16540000Y19430000D02*
G01*
X15500000Y19430000D01*
X15500000Y21570000D01*
X16540000Y21570000D01*
X16540000Y19430000D01*
X16540000Y19430000D01*
G37*
G36*
X19080000Y19430000D02*
G01*
X18040000Y19430000D01*
X18040000Y21570000D01*
X19080000Y21570000D01*
X19080000Y19430000D01*
X19080000Y19430000D01*
G37*
G36*
X17810000Y19430000D02*
G01*
X16770000Y19430000D01*
X16770000Y21570000D01*
X17810000Y21570000D01*
X17810000Y19430000D01*
X17810000Y19430000D01*
G37*
G36*
X21620000Y19430000D02*
G01*
X20580000Y19430000D01*
X20580000Y21570000D01*
X21620000Y21570000D01*
X21620000Y19430000D01*
X21620000Y19430000D01*
G37*
G36*
X20350000Y19430000D02*
G01*
X19310000Y19430000D01*
X19310000Y21570000D01*
X20350000Y21570000D01*
X20350000Y19430000D01*
X20350000Y19430000D01*
G37*
G36*
X41300000Y21870000D02*
G01*
X38160000Y21870000D01*
X38160000Y23010000D01*
X41300000Y23010000D01*
X41300000Y21870000D01*
X41300000Y21870000D01*
G37*
G36*
X46340000Y21870000D02*
G01*
X43200000Y21870000D01*
X43200000Y23010000D01*
X46340000Y23010000D01*
X46340000Y21870000D01*
X46340000Y21870000D01*
G37*
G36*
X33330000Y22765000D02*
G01*
X31190000Y22765000D01*
X31190000Y23805000D01*
X33330000Y23805000D01*
X33330000Y22765000D01*
X33330000Y22765000D01*
G37*
G36*
X48180351Y25786689D02*
G01*
X48353773Y25734081D01*
X48513595Y25648655D01*
X48513597Y25648653D01*
X48653686Y25533686D01*
X48738778Y25430000D01*
X48768655Y25393595D01*
X48854081Y25233773D01*
X48906689Y25060351D01*
X48924451Y24880000D01*
X48906689Y24699649D01*
X48854081Y24526227D01*
X48768655Y24366405D01*
X48768653Y24366403D01*
X48653686Y24226314D01*
X48536650Y24130266D01*
X48513595Y24111345D01*
X48353773Y24025919D01*
X48180351Y23973311D01*
X48045196Y23960000D01*
X47954804Y23960000D01*
X47819649Y23973311D01*
X47646227Y24025919D01*
X47486405Y24111345D01*
X47463350Y24130266D01*
X47346314Y24226314D01*
X47231347Y24366403D01*
X47231345Y24366405D01*
X47145919Y24526227D01*
X47093311Y24699649D01*
X47075549Y24880000D01*
X47093311Y25060351D01*
X47145919Y25233773D01*
X47231345Y25393595D01*
X47261222Y25430000D01*
X47346314Y25533686D01*
X47486403Y25648653D01*
X47486405Y25648655D01*
X47646227Y25734081D01*
X47819649Y25786689D01*
X47954804Y25800000D01*
X48045196Y25800000D01*
X48180351Y25786689D01*
X48180351Y25786689D01*
G37*
G36*
X33330000Y24035000D02*
G01*
X31190000Y24035000D01*
X31190000Y25075000D01*
X33330000Y25075000D01*
X33330000Y24035000D01*
X33330000Y24035000D01*
G37*
G36*
X46340000Y24410000D02*
G01*
X43200000Y24410000D01*
X43200000Y25550000D01*
X46340000Y25550000D01*
X46340000Y24410000D01*
X46340000Y24410000D01*
G37*
G36*
X41300000Y24410000D02*
G01*
X38160000Y24410000D01*
X38160000Y25550000D01*
X41300000Y25550000D01*
X41300000Y24410000D01*
X41300000Y24410000D01*
G37*
G36*
X35930351Y26866689D02*
G01*
X36103773Y26814081D01*
X36263595Y26728655D01*
X36263597Y26728653D01*
X36403686Y26613686D01*
X36486060Y26513312D01*
X36518655Y26473595D01*
X36604081Y26313773D01*
X36656689Y26140351D01*
X36674451Y25960000D01*
X36656689Y25779649D01*
X36604081Y25606227D01*
X36518655Y25446405D01*
X36518653Y25446403D01*
X36403686Y25306314D01*
X36315292Y25233772D01*
X36263595Y25191345D01*
X36103773Y25105919D01*
X35930351Y25053311D01*
X35795196Y25040000D01*
X35704804Y25040000D01*
X35569649Y25053311D01*
X35396227Y25105919D01*
X35236405Y25191345D01*
X35184708Y25233772D01*
X35096314Y25306314D01*
X34981347Y25446403D01*
X34981345Y25446405D01*
X34895919Y25606227D01*
X34843311Y25779649D01*
X34825549Y25960000D01*
X34843311Y26140351D01*
X34895919Y26313773D01*
X34981345Y26473595D01*
X35013940Y26513312D01*
X35096314Y26613686D01*
X35236403Y26728653D01*
X35236405Y26728655D01*
X35396227Y26814081D01*
X35569649Y26866689D01*
X35704804Y26880000D01*
X35795196Y26880000D01*
X35930351Y26866689D01*
X35930351Y26866689D01*
G37*
G36*
X33330000Y25305000D02*
G01*
X31190000Y25305000D01*
X31190000Y26345000D01*
X33330000Y26345000D01*
X33330000Y25305000D01*
X33330000Y25305000D01*
G37*
G36*
X24820000Y25430000D02*
G01*
X19680000Y25430000D01*
X19680000Y30570000D01*
X24820000Y30570000D01*
X24820000Y25430000D01*
X24820000Y25430000D01*
G37*
G36*
X48180351Y28326689D02*
G01*
X48353773Y28274081D01*
X48513595Y28188655D01*
X48513597Y28188653D01*
X48653686Y28073686D01*
X48749734Y27956650D01*
X48768655Y27933595D01*
X48854081Y27773773D01*
X48906689Y27600351D01*
X48924451Y27420000D01*
X48906689Y27239649D01*
X48854081Y27066227D01*
X48768655Y26906405D01*
X48768653Y26906403D01*
X48653686Y26766314D01*
X48536650Y26670266D01*
X48513595Y26651345D01*
X48353773Y26565919D01*
X48180351Y26513311D01*
X48045196Y26500000D01*
X47954804Y26500000D01*
X47819649Y26513311D01*
X47646227Y26565919D01*
X47486405Y26651345D01*
X47463350Y26670266D01*
X47346314Y26766314D01*
X47231347Y26906403D01*
X47231345Y26906405D01*
X47145919Y27066227D01*
X47093311Y27239649D01*
X47075549Y27420000D01*
X47093311Y27600351D01*
X47145919Y27773773D01*
X47231345Y27933595D01*
X47250266Y27956650D01*
X47346314Y28073686D01*
X47486403Y28188653D01*
X47486405Y28188655D01*
X47646227Y28274081D01*
X47819649Y28326689D01*
X47954804Y28340000D01*
X48045196Y28340000D01*
X48180351Y28326689D01*
X48180351Y28326689D01*
G37*
G36*
X33330000Y26575000D02*
G01*
X31190000Y26575000D01*
X31190000Y27615000D01*
X33330000Y27615000D01*
X33330000Y26575000D01*
X33330000Y26575000D01*
G37*
G36*
X46340000Y26950000D02*
G01*
X43200000Y26950000D01*
X43200000Y28090000D01*
X46340000Y28090000D01*
X46340000Y26950000D01*
X46340000Y26950000D01*
G37*
G36*
X41300000Y26950000D02*
G01*
X38160000Y26950000D01*
X38160000Y28090000D01*
X41300000Y28090000D01*
X41300000Y26950000D01*
X41300000Y26950000D01*
G37*
G36*
X35930351Y29406689D02*
G01*
X36103773Y29354081D01*
X36263595Y29268655D01*
X36263597Y29268653D01*
X36403686Y29153686D01*
X36486060Y29053312D01*
X36518655Y29013595D01*
X36604081Y28853773D01*
X36656689Y28680351D01*
X36674451Y28500000D01*
X36656689Y28319649D01*
X36604081Y28146227D01*
X36518655Y27986405D01*
X36518653Y27986403D01*
X36403686Y27846314D01*
X36315292Y27773772D01*
X36263595Y27731345D01*
X36103773Y27645919D01*
X35930351Y27593311D01*
X35795196Y27580000D01*
X35704804Y27580000D01*
X35569649Y27593311D01*
X35396227Y27645919D01*
X35236405Y27731345D01*
X35184708Y27773772D01*
X35096314Y27846314D01*
X34981347Y27986403D01*
X34981345Y27986405D01*
X34895919Y28146227D01*
X34843311Y28319649D01*
X34825549Y28500000D01*
X34843311Y28680351D01*
X34895919Y28853773D01*
X34981345Y29013595D01*
X35013940Y29053312D01*
X35096314Y29153686D01*
X35236403Y29268653D01*
X35236405Y29268655D01*
X35396227Y29354081D01*
X35569649Y29406689D01*
X35704804Y29420000D01*
X35795196Y29420000D01*
X35930351Y29406689D01*
X35930351Y29406689D01*
G37*
G36*
X33330000Y27845000D02*
G01*
X31190000Y27845000D01*
X31190000Y28885000D01*
X33330000Y28885000D01*
X33330000Y27845000D01*
X33330000Y27845000D01*
G37*
G36*
X48180351Y30866689D02*
G01*
X48353773Y30814081D01*
X48513595Y30728655D01*
X48513597Y30728653D01*
X48653686Y30613686D01*
X48749734Y30496650D01*
X48768655Y30473595D01*
X48854081Y30313773D01*
X48906689Y30140351D01*
X48924451Y29960000D01*
X48906689Y29779649D01*
X48854081Y29606227D01*
X48768655Y29446405D01*
X48768653Y29446403D01*
X48653686Y29306314D01*
X48536650Y29210266D01*
X48513595Y29191345D01*
X48353773Y29105919D01*
X48180351Y29053311D01*
X48045196Y29040000D01*
X47954804Y29040000D01*
X47819649Y29053311D01*
X47646227Y29105919D01*
X47486405Y29191345D01*
X47463350Y29210266D01*
X47346314Y29306314D01*
X47231347Y29446403D01*
X47231345Y29446405D01*
X47145919Y29606227D01*
X47093311Y29779649D01*
X47075549Y29960000D01*
X47093311Y30140351D01*
X47145919Y30313773D01*
X47231345Y30473595D01*
X47250266Y30496650D01*
X47346314Y30613686D01*
X47486403Y30728653D01*
X47486405Y30728655D01*
X47646227Y30814081D01*
X47819649Y30866689D01*
X47954804Y30880000D01*
X48045196Y30880000D01*
X48180351Y30866689D01*
X48180351Y30866689D01*
G37*
G36*
X33330000Y29115000D02*
G01*
X31190000Y29115000D01*
X31190000Y30155000D01*
X33330000Y30155000D01*
X33330000Y29115000D01*
X33330000Y29115000D01*
G37*
G36*
X41300000Y29490000D02*
G01*
X38160000Y29490000D01*
X38160000Y30630000D01*
X41300000Y30630000D01*
X41300000Y29490000D01*
X41300000Y29490000D01*
G37*
G36*
X46340000Y29490000D02*
G01*
X43200000Y29490000D01*
X43200000Y30630000D01*
X46340000Y30630000D01*
X46340000Y29490000D01*
X46340000Y29490000D01*
G37*
G36*
X36670000Y30120000D02*
G01*
X34830000Y30120000D01*
X34830000Y31960000D01*
X36670000Y31960000D01*
X36670000Y30120000D01*
X36670000Y30120000D01*
G37*
G36*
X33330000Y30385000D02*
G01*
X31190000Y30385000D01*
X31190000Y31425000D01*
X33330000Y31425000D01*
X33330000Y30385000D01*
X33330000Y30385000D01*
G37*
G36*
X48920000Y31580000D02*
G01*
X47080000Y31580000D01*
X47080000Y33420000D01*
X48920000Y33420000D01*
X48920000Y31580000D01*
X48920000Y31580000D01*
G37*
G36*
X33330000Y31655000D02*
G01*
X31190000Y31655000D01*
X31190000Y32695000D01*
X33330000Y32695000D01*
X33330000Y31655000D01*
X33330000Y31655000D01*
G37*
G36*
X46340000Y32030000D02*
G01*
X43200000Y32030000D01*
X43200000Y33170000D01*
X46340000Y33170000D01*
X46340000Y32030000D01*
X46340000Y32030000D01*
G37*
G36*
X41300000Y32030000D02*
G01*
X38160000Y32030000D01*
X38160000Y33170000D01*
X41300000Y33170000D01*
X41300000Y32030000D01*
X41300000Y32030000D01*
G37*
G36*
X33330000Y32925000D02*
G01*
X31190000Y32925000D01*
X31190000Y33965000D01*
X33330000Y33965000D01*
X33330000Y32925000D01*
X33330000Y32925000D01*
G37*
G36*
X33330000Y34195000D02*
G01*
X31190000Y34195000D01*
X31190000Y35235000D01*
X33330000Y35235000D01*
X33330000Y34195000D01*
X33330000Y34195000D01*
G37*
G36*
X41300000Y34570000D02*
G01*
X38160000Y34570000D01*
X38160000Y35710000D01*
X41300000Y35710000D01*
X41300000Y34570000D01*
X41300000Y34570000D01*
G37*
G36*
X46340000Y34570000D02*
G01*
X43200000Y34570000D01*
X43200000Y35710000D01*
X46340000Y35710000D01*
X46340000Y34570000D01*
X46340000Y34570000D01*
G37*
G36*
X16540000Y36430000D02*
G01*
X15500000Y36430000D01*
X15500000Y38570000D01*
X16540000Y38570000D01*
X16540000Y36430000D01*
X16540000Y36430000D01*
G37*
G36*
X31780000Y36430000D02*
G01*
X30740000Y36430000D01*
X30740000Y38570000D01*
X31780000Y38570000D01*
X31780000Y36430000D01*
X31780000Y36430000D01*
G37*
G36*
X30510000Y36430000D02*
G01*
X29470000Y36430000D01*
X29470000Y38570000D01*
X30510000Y38570000D01*
X30510000Y36430000D01*
X30510000Y36430000D01*
G37*
G36*
X29240000Y36430000D02*
G01*
X28200000Y36430000D01*
X28200000Y38570000D01*
X29240000Y38570000D01*
X29240000Y36430000D01*
X29240000Y36430000D01*
G37*
G36*
X27970000Y36430000D02*
G01*
X26930000Y36430000D01*
X26930000Y38570000D01*
X27970000Y38570000D01*
X27970000Y36430000D01*
X27970000Y36430000D01*
G37*
G36*
X22890000Y36430000D02*
G01*
X21850000Y36430000D01*
X21850000Y38570000D01*
X22890000Y38570000D01*
X22890000Y36430000D01*
X22890000Y36430000D01*
G37*
G36*
X26700000Y36430000D02*
G01*
X25660000Y36430000D01*
X25660000Y38570000D01*
X26700000Y38570000D01*
X26700000Y36430000D01*
X26700000Y36430000D01*
G37*
G36*
X24160000Y36430000D02*
G01*
X23120000Y36430000D01*
X23120000Y38570000D01*
X24160000Y38570000D01*
X24160000Y36430000D01*
X24160000Y36430000D01*
G37*
G36*
X25430000Y36430000D02*
G01*
X24390000Y36430000D01*
X24390000Y38570000D01*
X25430000Y38570000D01*
X25430000Y36430000D01*
X25430000Y36430000D01*
G37*
G36*
X17810000Y36430000D02*
G01*
X16770000Y36430000D01*
X16770000Y38570000D01*
X17810000Y38570000D01*
X17810000Y36430000D01*
X17810000Y36430000D01*
G37*
G36*
X15270000Y36430000D02*
G01*
X14230000Y36430000D01*
X14230000Y38570000D01*
X15270000Y38570000D01*
X15270000Y36430000D01*
X15270000Y36430000D01*
G37*
G36*
X20350000Y36430000D02*
G01*
X19310000Y36430000D01*
X19310000Y38570000D01*
X20350000Y38570000D01*
X20350000Y36430000D01*
X20350000Y36430000D01*
G37*
G36*
X19080000Y36430000D02*
G01*
X18040000Y36430000D01*
X18040000Y38570000D01*
X19080000Y38570000D01*
X19080000Y36430000D01*
X19080000Y36430000D01*
G37*
G36*
X21620000Y36430000D02*
G01*
X20580000Y36430000D01*
X20580000Y38570000D01*
X21620000Y38570000D01*
X21620000Y36430000D01*
X21620000Y36430000D01*
G37*
G36*
X46340000Y37110000D02*
G01*
X43200000Y37110000D01*
X43200000Y38250000D01*
X46340000Y38250000D01*
X46340000Y37110000D01*
X46340000Y37110000D01*
G37*
G36*
X41300000Y37110000D02*
G01*
X38160000Y37110000D01*
X38160000Y38250000D01*
X41300000Y38250000D01*
X41300000Y37110000D01*
X41300000Y37110000D01*
G37*
G36*
X42737119Y44355823D02*
G01*
X43041040Y44229935D01*
X43041041Y44229934D01*
X43314563Y44047173D01*
X43547173Y43814563D01*
X43547174Y43814561D01*
X43729935Y43541040D01*
X43855823Y43237119D01*
X43920000Y42914482D01*
X43920000Y42585518D01*
X43855823Y42262881D01*
X43729935Y41958960D01*
X43729934Y41958959D01*
X43547173Y41685437D01*
X43314563Y41452827D01*
X43176873Y41360826D01*
X43041040Y41270065D01*
X42737119Y41144177D01*
X42414482Y41080000D01*
X42085518Y41080000D01*
X41762881Y41144177D01*
X41458960Y41270065D01*
X41323127Y41360826D01*
X41185437Y41452827D01*
X40952827Y41685437D01*
X40770066Y41958959D01*
X40770065Y41958960D01*
X40644177Y42262881D01*
X40580000Y42585518D01*
X40580000Y42914482D01*
X40644177Y43237119D01*
X40770065Y43541040D01*
X40952826Y43814561D01*
X40952827Y43814563D01*
X41185437Y44047173D01*
X41458959Y44229934D01*
X41458960Y44229935D01*
X41762881Y44355823D01*
X42085518Y44420000D01*
X42414482Y44420000D01*
X42737119Y44355823D01*
X42737119Y44355823D01*
G37*
G36*
X14737119Y44355823D02*
G01*
X15041040Y44229935D01*
X15041041Y44229934D01*
X15314563Y44047173D01*
X15547173Y43814563D01*
X15547174Y43814561D01*
X15729935Y43541040D01*
X15855823Y43237119D01*
X15920000Y42914482D01*
X15920000Y42585518D01*
X15855823Y42262881D01*
X15729935Y41958960D01*
X15729934Y41958959D01*
X15547173Y41685437D01*
X15314563Y41452827D01*
X15176873Y41360826D01*
X15041040Y41270065D01*
X14737119Y41144177D01*
X14414482Y41080000D01*
X14085518Y41080000D01*
X13762881Y41144177D01*
X13458960Y41270065D01*
X13323127Y41360826D01*
X13185437Y41452827D01*
X12952827Y41685437D01*
X12770066Y41958959D01*
X12770065Y41958960D01*
X12644177Y42262881D01*
X12580000Y42585518D01*
X12580000Y42914482D01*
X12644177Y43237119D01*
X12770065Y43541040D01*
X12952826Y43814561D01*
X12952827Y43814563D01*
X13185437Y44047173D01*
X13458959Y44229934D01*
X13458960Y44229935D01*
X13762881Y44355823D01*
X14085518Y44420000D01*
X14414482Y44420000D01*
X14737119Y44355823D01*
X14737119Y44355823D01*
G37*
G36*
X1930351Y43956689D02*
G01*
X2103773Y43904081D01*
X2263595Y43818655D01*
X2286650Y43799734D01*
X2403686Y43703686D01*
X2499734Y43586650D01*
X2518655Y43563595D01*
X2604081Y43403773D01*
X2656689Y43230351D01*
X2674451Y43050000D01*
X2656689Y42869649D01*
X2604081Y42696227D01*
X2518655Y42536405D01*
X2518653Y42536403D01*
X2403686Y42396314D01*
X2286650Y42300266D01*
X2263595Y42281345D01*
X2103773Y42195919D01*
X1930351Y42143311D01*
X1795196Y42130000D01*
X1704804Y42130000D01*
X1569649Y42143311D01*
X1396227Y42195919D01*
X1236405Y42281345D01*
X1213350Y42300266D01*
X1096314Y42396314D01*
X981347Y42536403D01*
X981345Y42536405D01*
X895919Y42696227D01*
X843311Y42869649D01*
X825549Y43050000D01*
X843311Y43230351D01*
X895919Y43403773D01*
X981345Y43563595D01*
X1000266Y43586650D01*
X1096314Y43703686D01*
X1213350Y43799734D01*
X1236405Y43818655D01*
X1396227Y43904081D01*
X1569649Y43956689D01*
X1704804Y43970000D01*
X1795196Y43970000D01*
X1930351Y43956689D01*
X1930351Y43956689D01*
G37*
G36*
X36470000Y42130000D02*
G01*
X35630000Y42130000D01*
X35630000Y43870000D01*
X36470000Y43870000D01*
X36470000Y42130000D01*
X36470000Y42130000D01*
G37*
G36*
X35370000Y42130000D02*
G01*
X34530000Y42130000D01*
X34530000Y43870000D01*
X35370000Y43870000D01*
X35370000Y42130000D01*
X35370000Y42130000D01*
G37*
G36*
X34270000Y42130000D02*
G01*
X33430000Y42130000D01*
X33430000Y43870000D01*
X34270000Y43870000D01*
X34270000Y42130000D01*
X34270000Y42130000D01*
G37*
G36*
X33170000Y42130000D02*
G01*
X32330000Y42130000D01*
X32330000Y43870000D01*
X33170000Y43870000D01*
X33170000Y42130000D01*
X33170000Y42130000D01*
G37*
G36*
X32070000Y42130000D02*
G01*
X31230000Y42130000D01*
X31230000Y43870000D01*
X32070000Y43870000D01*
X32070000Y42130000D01*
X32070000Y42130000D01*
G37*
G36*
X30970000Y42130000D02*
G01*
X30130000Y42130000D01*
X30130000Y43870000D01*
X30970000Y43870000D01*
X30970000Y42130000D01*
X30970000Y42130000D01*
G37*
G36*
X29870000Y42130000D02*
G01*
X29030000Y42130000D01*
X29030000Y43870000D01*
X29870000Y43870000D01*
X29870000Y42130000D01*
X29870000Y42130000D01*
G37*
G36*
X27670000Y42130000D02*
G01*
X26830000Y42130000D01*
X26830000Y43870000D01*
X27670000Y43870000D01*
X27670000Y42130000D01*
X27670000Y42130000D01*
G37*
G36*
X28770000Y42130000D02*
G01*
X27930000Y42130000D01*
X27930000Y43870000D01*
X28770000Y43870000D01*
X28770000Y42130000D01*
X28770000Y42130000D01*
G37*
G36*
X23520000Y42730000D02*
G01*
X21780000Y42730000D01*
X21780000Y44270000D01*
X23520000Y44270000D01*
X23520000Y42730000D01*
X23520000Y42730000D01*
G37*
G36*
X37920000Y42730000D02*
G01*
X36580000Y42730000D01*
X36580000Y44270000D01*
X37920000Y44270000D01*
X37920000Y42730000D01*
X37920000Y42730000D01*
G37*
G36*
X5720000Y43480000D02*
G01*
X4580000Y43480000D01*
X4580000Y44520000D01*
X5720000Y44520000D01*
X5720000Y43480000D01*
X5720000Y43480000D01*
G37*
G36*
X9820000Y43480000D02*
G01*
X8680000Y43480000D01*
X8680000Y44520000D01*
X9820000Y44520000D01*
X9820000Y43480000D01*
X9820000Y43480000D01*
G37*
G36*
X18989183Y45538489D02*
G01*
X18989186Y45538488D01*
X18989185Y45538488D01*
X19138416Y45476675D01*
X19272720Y45386936D01*
X19386936Y45272720D01*
X19476675Y45138416D01*
X19476676Y45138414D01*
X19538489Y44989183D01*
X19570000Y44830764D01*
X19570000Y44669236D01*
X19538489Y44510817D01*
X19538488Y44510815D01*
X19476675Y44361584D01*
X19386936Y44227280D01*
X19272720Y44113064D01*
X19138416Y44023325D01*
X19138415Y44023324D01*
X19138414Y44023324D01*
X18989183Y43961511D01*
X18830764Y43930000D01*
X18669236Y43930000D01*
X18510817Y43961511D01*
X18361586Y44023324D01*
X18361585Y44023324D01*
X18361584Y44023325D01*
X18227280Y44113064D01*
X18113064Y44227280D01*
X18023325Y44361584D01*
X17961512Y44510815D01*
X17961511Y44510817D01*
X17930000Y44669236D01*
X17930000Y44830764D01*
X17961511Y44989183D01*
X18023324Y45138414D01*
X18023325Y45138416D01*
X18113064Y45272720D01*
X18227280Y45386936D01*
X18361584Y45476675D01*
X18510815Y45538488D01*
X18510814Y45538488D01*
X18510817Y45538489D01*
X18669236Y45570000D01*
X18830764Y45570000D01*
X18989183Y45538489D01*
X18989183Y45538489D01*
G37*
G36*
X1930351Y46496689D02*
G01*
X2103773Y46444081D01*
X2263595Y46358655D01*
X2263597Y46358653D01*
X2403686Y46243686D01*
X2499734Y46126650D01*
X2518655Y46103595D01*
X2604081Y45943773D01*
X2656689Y45770351D01*
X2674451Y45590000D01*
X2656689Y45409649D01*
X2604081Y45236227D01*
X2518655Y45076405D01*
X2518653Y45076403D01*
X2403686Y44936314D01*
X2286650Y44840266D01*
X2263595Y44821345D01*
X2103773Y44735919D01*
X1930351Y44683311D01*
X1795196Y44670000D01*
X1704804Y44670000D01*
X1569649Y44683311D01*
X1396227Y44735919D01*
X1236405Y44821345D01*
X1213350Y44840266D01*
X1096314Y44936314D01*
X981347Y45076403D01*
X981345Y45076405D01*
X895919Y45236227D01*
X843311Y45409649D01*
X825549Y45590000D01*
X843311Y45770351D01*
X895919Y45943773D01*
X981345Y46103595D01*
X1000266Y46126650D01*
X1096314Y46243686D01*
X1236403Y46358653D01*
X1236405Y46358655D01*
X1396227Y46444081D01*
X1569649Y46496689D01*
X1704804Y46510000D01*
X1795196Y46510000D01*
X1930351Y46496689D01*
X1930351Y46496689D01*
G37*
G36*
X9820000Y45080000D02*
G01*
X8680000Y45080000D01*
X8680000Y46120000D01*
X9820000Y46120000D01*
X9820000Y45080000D01*
X9820000Y45080000D01*
G37*
G36*
X5720000Y45080000D02*
G01*
X4580000Y45080000D01*
X4580000Y46120000D01*
X5720000Y46120000D01*
X5720000Y45080000D01*
X5720000Y45080000D01*
G37*
G36*
X1930351Y49036689D02*
G01*
X2103773Y48984081D01*
X2263595Y48898655D01*
X2263597Y48898653D01*
X2403686Y48783686D01*
X2499734Y48666650D01*
X2518655Y48643595D01*
X2604081Y48483773D01*
X2656689Y48310351D01*
X2674451Y48130000D01*
X2656689Y47949649D01*
X2604081Y47776227D01*
X2518655Y47616405D01*
X2518653Y47616403D01*
X2403686Y47476314D01*
X2304238Y47394700D01*
X2263595Y47361345D01*
X2103773Y47275919D01*
X1930351Y47223311D01*
X1795196Y47210000D01*
X1704804Y47210000D01*
X1569649Y47223311D01*
X1396227Y47275919D01*
X1236405Y47361345D01*
X1195762Y47394700D01*
X1096314Y47476314D01*
X981347Y47616403D01*
X981345Y47616405D01*
X895919Y47776227D01*
X843311Y47949649D01*
X825549Y48130000D01*
X843311Y48310351D01*
X895919Y48483773D01*
X981345Y48643595D01*
X1000266Y48666650D01*
X1096314Y48783686D01*
X1236403Y48898653D01*
X1236405Y48898655D01*
X1396227Y48984081D01*
X1569649Y49036689D01*
X1704804Y49050000D01*
X1795196Y49050000D01*
X1930351Y49036689D01*
X1930351Y49036689D01*
G37*
G36*
X53886726Y49184328D02*
G01*
X54015646Y49158684D01*
X54187625Y49087448D01*
X54263591Y49036689D01*
X54342401Y48984030D01*
X54474030Y48852401D01*
X54496298Y48819074D01*
X54577448Y48697625D01*
X54648684Y48525646D01*
X54685000Y48343074D01*
X54685000Y48156926D01*
X54648684Y47974354D01*
X54577448Y47802375D01*
X54474029Y47647598D01*
X54342402Y47515971D01*
X54187625Y47412552D01*
X54015646Y47341316D01*
X53924360Y47323158D01*
X53833075Y47305000D01*
X53646925Y47305000D01*
X53555640Y47323158D01*
X53464354Y47341316D01*
X53292375Y47412552D01*
X53137598Y47515971D01*
X53005971Y47647598D01*
X52902552Y47802375D01*
X52831316Y47974354D01*
X52795000Y48156926D01*
X52795000Y48343074D01*
X52831316Y48525646D01*
X52902552Y48697625D01*
X52983702Y48819074D01*
X53005970Y48852401D01*
X53137599Y48984030D01*
X53216409Y49036689D01*
X53292375Y49087448D01*
X53464354Y49158684D01*
X53593274Y49184328D01*
X53646925Y49195000D01*
X53833075Y49195000D01*
X53886726Y49184328D01*
X53886726Y49184328D01*
G37*
G36*
X49386726Y49184328D02*
G01*
X49515646Y49158684D01*
X49687625Y49087448D01*
X49763591Y49036689D01*
X49842401Y48984030D01*
X49974030Y48852401D01*
X49996298Y48819074D01*
X50077448Y48697625D01*
X50148684Y48525646D01*
X50185000Y48343074D01*
X50185000Y48156926D01*
X50148684Y47974354D01*
X50077448Y47802375D01*
X49974029Y47647598D01*
X49842402Y47515971D01*
X49687625Y47412552D01*
X49515646Y47341316D01*
X49424360Y47323158D01*
X49333075Y47305000D01*
X49146925Y47305000D01*
X49055640Y47323158D01*
X48964354Y47341316D01*
X48792375Y47412552D01*
X48637598Y47515971D01*
X48505971Y47647598D01*
X48402552Y47802375D01*
X48331316Y47974354D01*
X48295000Y48156926D01*
X48295000Y48343074D01*
X48331316Y48525646D01*
X48402552Y48697625D01*
X48483702Y48819074D01*
X48505970Y48852401D01*
X48637599Y48984030D01*
X48716409Y49036689D01*
X48792375Y49087448D01*
X48964354Y49158684D01*
X49093274Y49184328D01*
X49146925Y49195000D01*
X49333075Y49195000D01*
X49386726Y49184328D01*
X49386726Y49184328D01*
G37*
G36*
X6626284Y48514438D02*
G01*
X6680892Y48503576D01*
X6783770Y48460962D01*
X6876358Y48399097D01*
X6955097Y48320358D01*
X7016962Y48227770D01*
X7059576Y48124892D01*
X7081300Y48015677D01*
X7081300Y47904323D01*
X7059576Y47795108D01*
X7016962Y47692230D01*
X6955097Y47599642D01*
X6876358Y47520903D01*
X6783770Y47459038D01*
X6680892Y47416424D01*
X6626284Y47405562D01*
X6571678Y47394700D01*
X6460322Y47394700D01*
X6351108Y47416424D01*
X6248230Y47459038D01*
X6155642Y47520903D01*
X6076903Y47599642D01*
X6015038Y47692230D01*
X5972424Y47795108D01*
X5950700Y47904323D01*
X5950700Y48015677D01*
X5972424Y48124892D01*
X6015038Y48227770D01*
X6076903Y48320358D01*
X6155642Y48399097D01*
X6248230Y48460962D01*
X6351108Y48503576D01*
X6460322Y48525300D01*
X6571678Y48525300D01*
X6626284Y48514438D01*
X6626284Y48514438D01*
G37*
G36*
X4594284Y48514438D02*
G01*
X4648892Y48503576D01*
X4751770Y48460962D01*
X4844358Y48399097D01*
X4923097Y48320358D01*
X4984962Y48227770D01*
X5027576Y48124892D01*
X5049300Y48015677D01*
X5049300Y47904323D01*
X5027576Y47795108D01*
X4984962Y47692230D01*
X4923097Y47599642D01*
X4844358Y47520903D01*
X4751770Y47459038D01*
X4648892Y47416424D01*
X4594284Y47405562D01*
X4539678Y47394700D01*
X4428322Y47394700D01*
X4319108Y47416424D01*
X4216230Y47459038D01*
X4123642Y47520903D01*
X4044903Y47599642D01*
X3983038Y47692230D01*
X3940424Y47795108D01*
X3918700Y47904323D01*
X3918700Y48015677D01*
X3940424Y48124892D01*
X3983038Y48227770D01*
X4044903Y48320358D01*
X4123642Y48399097D01*
X4216230Y48460962D01*
X4319108Y48503576D01*
X4428322Y48525300D01*
X4539678Y48525300D01*
X4594284Y48514438D01*
X4594284Y48514438D01*
G37*
G36*
X17170000Y48500000D02*
G01*
X16330000Y48500000D01*
X16330000Y50140000D01*
X17170000Y50140000D01*
X17170000Y48500000D01*
X17170000Y48500000D01*
G37*
G36*
X15670000Y48500000D02*
G01*
X14830000Y48500000D01*
X14830000Y50140000D01*
X15670000Y50140000D01*
X15670000Y48500000D01*
X15670000Y48500000D01*
G37*
G36*
X12670000Y48500000D02*
G01*
X11830000Y48500000D01*
X11830000Y50140000D01*
X12670000Y50140000D01*
X12670000Y48500000D01*
X12670000Y48500000D01*
G37*
G36*
X11170000Y48500000D02*
G01*
X10330000Y48500000D01*
X10330000Y50140000D01*
X11170000Y50140000D01*
X11170000Y48500000D01*
X11170000Y48500000D01*
G37*
G36*
X6240394Y49681821D02*
G01*
X6270256Y49675881D01*
X6323472Y49653838D01*
X6354647Y49640925D01*
X6411348Y49603038D01*
X6430592Y49590180D01*
X6495180Y49525592D01*
X6495183Y49525587D01*
X6545925Y49449647D01*
X6580881Y49365255D01*
X6598700Y49275672D01*
X6598700Y49184328D01*
X6580881Y49094745D01*
X6545925Y49010353D01*
X6508038Y48953652D01*
X6495180Y48934408D01*
X6430592Y48869820D01*
X6411348Y48856962D01*
X6354647Y48819075D01*
X6323472Y48806162D01*
X6270256Y48784119D01*
X6240394Y48778179D01*
X6180672Y48766300D01*
X6089328Y48766300D01*
X6029606Y48778179D01*
X5999744Y48784119D01*
X5946528Y48806162D01*
X5915353Y48819075D01*
X5858652Y48856962D01*
X5839408Y48869820D01*
X5774820Y48934408D01*
X5761962Y48953652D01*
X5724075Y49010353D01*
X5689119Y49094745D01*
X5671300Y49184328D01*
X5671300Y49275672D01*
X5689119Y49365255D01*
X5724075Y49449647D01*
X5774817Y49525587D01*
X5774820Y49525592D01*
X5839408Y49590180D01*
X5858652Y49603038D01*
X5915353Y49640925D01*
X5946528Y49653838D01*
X5999744Y49675881D01*
X6029606Y49681821D01*
X6089328Y49693700D01*
X6180672Y49693700D01*
X6240394Y49681821D01*
X6240394Y49681821D01*
G37*
G36*
X4970394Y49681821D02*
G01*
X5000256Y49675881D01*
X5053472Y49653838D01*
X5084647Y49640925D01*
X5141348Y49603038D01*
X5160592Y49590180D01*
X5225180Y49525592D01*
X5225183Y49525587D01*
X5275925Y49449647D01*
X5310881Y49365255D01*
X5328700Y49275672D01*
X5328700Y49184328D01*
X5310881Y49094745D01*
X5275925Y49010353D01*
X5238038Y48953652D01*
X5225180Y48934408D01*
X5160592Y48869820D01*
X5141348Y48856962D01*
X5084647Y48819075D01*
X5053472Y48806162D01*
X5000256Y48784119D01*
X4970394Y48778179D01*
X4910672Y48766300D01*
X4819328Y48766300D01*
X4759606Y48778179D01*
X4729744Y48784119D01*
X4676528Y48806162D01*
X4645353Y48819075D01*
X4588652Y48856962D01*
X4569408Y48869820D01*
X4504820Y48934408D01*
X4491962Y48953652D01*
X4454075Y49010353D01*
X4419119Y49094745D01*
X4401300Y49184328D01*
X4401300Y49275672D01*
X4419119Y49365255D01*
X4454075Y49449647D01*
X4504817Y49525587D01*
X4504820Y49525592D01*
X4569408Y49590180D01*
X4588652Y49603038D01*
X4645353Y49640925D01*
X4676528Y49653838D01*
X4729744Y49675881D01*
X4759606Y49681821D01*
X4819328Y49693700D01*
X4910672Y49693700D01*
X4970394Y49681821D01*
X4970394Y49681821D01*
G37*
G36*
X19470000Y49500000D02*
G01*
X18330000Y49500000D01*
X18330000Y50440000D01*
X19470000Y50440000D01*
X19470000Y49500000D01*
X19470000Y49500000D01*
G37*
G36*
X9170000Y49500000D02*
G01*
X8030000Y49500000D01*
X8030000Y50440000D01*
X9170000Y50440000D01*
X9170000Y49500000D01*
X9170000Y49500000D01*
G37*
G36*
X1930351Y51576689D02*
G01*
X2103773Y51524081D01*
X2263595Y51438655D01*
X2263597Y51438653D01*
X2403686Y51323686D01*
X2449822Y51267468D01*
X2518655Y51183595D01*
X2604081Y51023773D01*
X2656689Y50850351D01*
X2674451Y50670000D01*
X2656689Y50489649D01*
X2604081Y50316227D01*
X2518655Y50156405D01*
X2518653Y50156403D01*
X2403686Y50016314D01*
X2286650Y49920266D01*
X2263595Y49901345D01*
X2103773Y49815919D01*
X1930351Y49763311D01*
X1795196Y49750000D01*
X1704804Y49750000D01*
X1569649Y49763311D01*
X1396227Y49815919D01*
X1236405Y49901345D01*
X1213350Y49920266D01*
X1096314Y50016314D01*
X981347Y50156403D01*
X981345Y50156405D01*
X895919Y50316227D01*
X843311Y50489649D01*
X825549Y50670000D01*
X843311Y50850351D01*
X895919Y51023773D01*
X981345Y51183595D01*
X1050178Y51267468D01*
X1096314Y51323686D01*
X1236403Y51438653D01*
X1236405Y51438655D01*
X1396227Y51524081D01*
X1569649Y51576689D01*
X1704804Y51590000D01*
X1795196Y51590000D01*
X1930351Y51576689D01*
X1930351Y51576689D01*
G37*
G36*
X6240394Y50951821D02*
G01*
X6270256Y50945881D01*
X6312644Y50928323D01*
X6354647Y50910925D01*
X6411348Y50873038D01*
X6430592Y50860180D01*
X6495180Y50795592D01*
X6495183Y50795587D01*
X6545925Y50719647D01*
X6580881Y50635255D01*
X6598700Y50545672D01*
X6598700Y50454328D01*
X6580881Y50364745D01*
X6545925Y50280353D01*
X6508038Y50223652D01*
X6495180Y50204408D01*
X6430592Y50139820D01*
X6411348Y50126962D01*
X6354647Y50089075D01*
X6323472Y50076162D01*
X6270256Y50054119D01*
X6240394Y50048179D01*
X6180672Y50036300D01*
X6089328Y50036300D01*
X6029606Y50048179D01*
X5999744Y50054119D01*
X5946528Y50076162D01*
X5915353Y50089075D01*
X5858652Y50126962D01*
X5839408Y50139820D01*
X5774820Y50204408D01*
X5761962Y50223652D01*
X5724075Y50280353D01*
X5689119Y50364745D01*
X5671300Y50454328D01*
X5671300Y50545672D01*
X5689119Y50635255D01*
X5724075Y50719647D01*
X5774817Y50795587D01*
X5774820Y50795592D01*
X5839408Y50860180D01*
X5858652Y50873038D01*
X5915353Y50910925D01*
X5957356Y50928323D01*
X5999744Y50945881D01*
X6029606Y50951821D01*
X6089328Y50963700D01*
X6180672Y50963700D01*
X6240394Y50951821D01*
X6240394Y50951821D01*
G37*
G36*
X4970394Y50951821D02*
G01*
X5000256Y50945881D01*
X5042644Y50928323D01*
X5084647Y50910925D01*
X5141348Y50873038D01*
X5160592Y50860180D01*
X5225180Y50795592D01*
X5225183Y50795587D01*
X5275925Y50719647D01*
X5310881Y50635255D01*
X5328700Y50545672D01*
X5328700Y50454328D01*
X5310881Y50364745D01*
X5275925Y50280353D01*
X5238038Y50223652D01*
X5225180Y50204408D01*
X5160592Y50139820D01*
X5141348Y50126962D01*
X5084647Y50089075D01*
X5053472Y50076162D01*
X5000256Y50054119D01*
X4970394Y50048179D01*
X4910672Y50036300D01*
X4819328Y50036300D01*
X4759606Y50048179D01*
X4729744Y50054119D01*
X4676528Y50076162D01*
X4645353Y50089075D01*
X4588652Y50126962D01*
X4569408Y50139820D01*
X4504820Y50204408D01*
X4491962Y50223652D01*
X4454075Y50280353D01*
X4419119Y50364745D01*
X4401300Y50454328D01*
X4401300Y50545672D01*
X4419119Y50635255D01*
X4454075Y50719647D01*
X4504817Y50795587D01*
X4504820Y50795592D01*
X4569408Y50860180D01*
X4588652Y50873038D01*
X4645353Y50910925D01*
X4687356Y50928323D01*
X4729744Y50945881D01*
X4759606Y50951821D01*
X4819328Y50963700D01*
X4910672Y50963700D01*
X4970394Y50951821D01*
X4970394Y50951821D01*
G37*
G36*
X16351447Y51590008D02*
G01*
X16401678Y51580017D01*
X16461355Y51555298D01*
X16496315Y51540817D01*
X16581476Y51483914D01*
X16581478Y51483912D01*
X16581481Y51483910D01*
X16653910Y51411481D01*
X16653912Y51411478D01*
X16653914Y51411476D01*
X16710817Y51326315D01*
X16750017Y51231677D01*
X16770000Y51131217D01*
X16770000Y51028783D01*
X16750017Y50928323D01*
X16710817Y50833685D01*
X16653914Y50748524D01*
X16653912Y50748522D01*
X16653910Y50748519D01*
X16581481Y50676090D01*
X16581478Y50676088D01*
X16581476Y50676086D01*
X16496315Y50619183D01*
X16461355Y50604702D01*
X16401678Y50579983D01*
X16351447Y50569991D01*
X16301217Y50560000D01*
X16198783Y50560000D01*
X16148553Y50569991D01*
X16098322Y50579983D01*
X16038645Y50604702D01*
X16003685Y50619183D01*
X15918524Y50676086D01*
X15918522Y50676088D01*
X15918519Y50676090D01*
X15846090Y50748519D01*
X15846088Y50748522D01*
X15846086Y50748524D01*
X15789183Y50833685D01*
X15749983Y50928323D01*
X15730000Y51028783D01*
X15730000Y51131217D01*
X15749983Y51231677D01*
X15789183Y51326315D01*
X15846086Y51411476D01*
X15846088Y51411478D01*
X15846090Y51411481D01*
X15918519Y51483910D01*
X15918522Y51483912D01*
X15918524Y51483914D01*
X16003685Y51540817D01*
X16038645Y51555298D01*
X16098322Y51580017D01*
X16148553Y51590008D01*
X16198783Y51600000D01*
X16301217Y51600000D01*
X16351447Y51590008D01*
X16351447Y51590008D01*
G37*
G36*
X11351447Y51590008D02*
G01*
X11401678Y51580017D01*
X11461355Y51555298D01*
X11496315Y51540817D01*
X11581476Y51483914D01*
X11581478Y51483912D01*
X11581481Y51483910D01*
X11653910Y51411481D01*
X11653912Y51411478D01*
X11653914Y51411476D01*
X11710817Y51326315D01*
X11750017Y51231677D01*
X11770000Y51131217D01*
X11770000Y51028783D01*
X11750017Y50928323D01*
X11710817Y50833685D01*
X11653914Y50748524D01*
X11653912Y50748522D01*
X11653910Y50748519D01*
X11581481Y50676090D01*
X11581478Y50676088D01*
X11581476Y50676086D01*
X11496315Y50619183D01*
X11461355Y50604702D01*
X11401678Y50579983D01*
X11351447Y50569991D01*
X11301217Y50560000D01*
X11198783Y50560000D01*
X11148553Y50569991D01*
X11098322Y50579983D01*
X11038645Y50604702D01*
X11003685Y50619183D01*
X10918524Y50676086D01*
X10918522Y50676088D01*
X10918519Y50676090D01*
X10846090Y50748519D01*
X10846088Y50748522D01*
X10846086Y50748524D01*
X10789183Y50833685D01*
X10749983Y50928323D01*
X10730000Y51028783D01*
X10730000Y51131217D01*
X10749983Y51231677D01*
X10789183Y51326315D01*
X10846086Y51411476D01*
X10846088Y51411478D01*
X10846090Y51411481D01*
X10918519Y51483910D01*
X10918522Y51483912D01*
X10918524Y51483914D01*
X11003685Y51540817D01*
X11038645Y51555298D01*
X11098322Y51580017D01*
X11148553Y51590008D01*
X11198783Y51600000D01*
X11301217Y51600000D01*
X11351447Y51590008D01*
X11351447Y51590008D01*
G37*
G36*
X40520000Y50830000D02*
G01*
X38880000Y50830000D01*
X38880000Y55170000D01*
X40520000Y55170000D01*
X40520000Y50830000D01*
X40520000Y50830000D01*
G37*
G36*
X44120000Y50830000D02*
G01*
X42480000Y50830000D01*
X42480000Y55170000D01*
X44120000Y55170000D01*
X44120000Y50830000D01*
X44120000Y50830000D01*
G37*
G36*
X48208501Y53358479D02*
G01*
X48316692Y53336959D01*
X48520519Y53252531D01*
X48703958Y53129961D01*
X48859961Y52973958D01*
X48982531Y52790519D01*
X49066959Y52586692D01*
X49076438Y52539038D01*
X49110000Y52370312D01*
X49110000Y52149688D01*
X49093272Y52065592D01*
X49066959Y51933308D01*
X48982531Y51729481D01*
X48859961Y51546042D01*
X48703958Y51390039D01*
X48520519Y51267469D01*
X48316692Y51183041D01*
X48208501Y51161521D01*
X48100312Y51140000D01*
X47879688Y51140000D01*
X47771499Y51161520D01*
X47663308Y51183041D01*
X47459481Y51267469D01*
X47276042Y51390039D01*
X47120039Y51546042D01*
X46997469Y51729481D01*
X46913041Y51933308D01*
X46886728Y52065592D01*
X46870000Y52149688D01*
X46870000Y52370312D01*
X46903562Y52539038D01*
X46913041Y52586692D01*
X46997469Y52790519D01*
X47120039Y52973958D01*
X47276042Y53129961D01*
X47459481Y53252531D01*
X47663308Y53336959D01*
X47771499Y53358479D01*
X47879688Y53380000D01*
X48100312Y53380000D01*
X48208501Y53358479D01*
X48208501Y53358479D01*
G37*
G36*
X55218501Y53358479D02*
G01*
X55326692Y53336959D01*
X55530519Y53252531D01*
X55713958Y53129961D01*
X55869961Y52973958D01*
X55992531Y52790519D01*
X56076959Y52586692D01*
X56086438Y52539038D01*
X56120000Y52370312D01*
X56120000Y52149688D01*
X56103272Y52065592D01*
X56076959Y51933308D01*
X55992531Y51729481D01*
X55869961Y51546042D01*
X55713958Y51390039D01*
X55530519Y51267469D01*
X55326692Y51183041D01*
X55218501Y51161521D01*
X55110312Y51140000D01*
X54889688Y51140000D01*
X54781499Y51161520D01*
X54673308Y51183041D01*
X54469481Y51267469D01*
X54286042Y51390039D01*
X54130039Y51546042D01*
X54007469Y51729481D01*
X53923041Y51933308D01*
X53896728Y52065592D01*
X53880000Y52149688D01*
X53880000Y52370312D01*
X53913562Y52539038D01*
X53923041Y52586692D01*
X54007469Y52790519D01*
X54130039Y52973958D01*
X54286042Y53129961D01*
X54469481Y53252531D01*
X54673308Y53336959D01*
X54781499Y53358479D01*
X54889688Y53380000D01*
X55110312Y53380000D01*
X55218501Y53358479D01*
X55218501Y53358479D01*
G37*
G36*
X4970394Y52221821D02*
G01*
X5000256Y52215881D01*
X5053472Y52193838D01*
X5084647Y52180925D01*
X5131393Y52149690D01*
X5160592Y52130180D01*
X5225180Y52065592D01*
X5225183Y52065587D01*
X5275925Y51989647D01*
X5275926Y51989644D01*
X5300632Y51930000D01*
X5310881Y51905255D01*
X5328700Y51815672D01*
X5328700Y51724328D01*
X5310881Y51634745D01*
X5275925Y51550353D01*
X5258370Y51524081D01*
X5225180Y51474408D01*
X5160592Y51409820D01*
X5141348Y51396962D01*
X5084647Y51359075D01*
X5053472Y51346162D01*
X5000256Y51324119D01*
X4970394Y51318179D01*
X4910672Y51306300D01*
X4819328Y51306300D01*
X4759606Y51318179D01*
X4729744Y51324119D01*
X4676528Y51346162D01*
X4645353Y51359075D01*
X4588652Y51396962D01*
X4569408Y51409820D01*
X4504820Y51474408D01*
X4471630Y51524081D01*
X4454075Y51550353D01*
X4419119Y51634745D01*
X4401300Y51724328D01*
X4401300Y51815672D01*
X4419119Y51905255D01*
X4429369Y51930000D01*
X4454074Y51989644D01*
X4454075Y51989647D01*
X4504817Y52065587D01*
X4504820Y52065592D01*
X4569408Y52130180D01*
X4598607Y52149690D01*
X4645353Y52180925D01*
X4676528Y52193838D01*
X4729744Y52215881D01*
X4759606Y52221821D01*
X4819328Y52233700D01*
X4910672Y52233700D01*
X4970394Y52221821D01*
X4970394Y52221821D01*
G37*
G36*
X6240394Y52221821D02*
G01*
X6270256Y52215881D01*
X6323472Y52193838D01*
X6354647Y52180925D01*
X6401393Y52149690D01*
X6430592Y52130180D01*
X6495180Y52065592D01*
X6495183Y52065587D01*
X6545925Y51989647D01*
X6545926Y51989644D01*
X6570632Y51930000D01*
X6580881Y51905255D01*
X6598700Y51815672D01*
X6598700Y51724328D01*
X6580881Y51634745D01*
X6545925Y51550353D01*
X6528370Y51524081D01*
X6495180Y51474408D01*
X6430592Y51409820D01*
X6411348Y51396962D01*
X6354647Y51359075D01*
X6323472Y51346162D01*
X6270256Y51324119D01*
X6240394Y51318179D01*
X6180672Y51306300D01*
X6089328Y51306300D01*
X6029606Y51318179D01*
X5999744Y51324119D01*
X5946528Y51346162D01*
X5915353Y51359075D01*
X5858652Y51396962D01*
X5839408Y51409820D01*
X5774820Y51474408D01*
X5741630Y51524081D01*
X5724075Y51550353D01*
X5689119Y51634745D01*
X5671300Y51724328D01*
X5671300Y51815672D01*
X5689119Y51905255D01*
X5699369Y51930000D01*
X5724074Y51989644D01*
X5724075Y51989647D01*
X5774817Y52065587D01*
X5774820Y52065592D01*
X5839408Y52130180D01*
X5868607Y52149690D01*
X5915353Y52180925D01*
X5946528Y52193838D01*
X5999744Y52215881D01*
X6029606Y52221821D01*
X6089328Y52233700D01*
X6180672Y52233700D01*
X6240394Y52221821D01*
X6240394Y52221821D01*
G37*
G36*
X19470000Y51710000D02*
G01*
X18330000Y51710000D01*
X18330000Y52650000D01*
X19470000Y52650000D01*
X19470000Y51710000D01*
X19470000Y51710000D01*
G37*
G36*
X9170000Y51710000D02*
G01*
X8030000Y51710000D01*
X8030000Y52650000D01*
X9170000Y52650000D01*
X9170000Y51710000D01*
X9170000Y51710000D01*
G37*
G36*
X37920000Y51930000D02*
G01*
X36580000Y51930000D01*
X36580000Y54270000D01*
X37920000Y54270000D01*
X37920000Y51930000D01*
X37920000Y51930000D01*
G37*
G36*
X22420000Y51930000D02*
G01*
X21080000Y51930000D01*
X21080000Y54270000D01*
X22420000Y54270000D01*
X22420000Y51930000D01*
X22420000Y51930000D01*
G37*
G36*
X1930351Y54116689D02*
G01*
X2103773Y54064081D01*
X2263595Y53978655D01*
X2263597Y53978653D01*
X2403686Y53863686D01*
X2499734Y53746650D01*
X2518655Y53723595D01*
X2604081Y53563773D01*
X2656689Y53390351D01*
X2674451Y53210000D01*
X2656689Y53029649D01*
X2604081Y52856227D01*
X2518655Y52696405D01*
X2518653Y52696403D01*
X2403686Y52556314D01*
X2310696Y52480000D01*
X2263595Y52441345D01*
X2103773Y52355919D01*
X1930351Y52303311D01*
X1795196Y52290000D01*
X1704804Y52290000D01*
X1569649Y52303311D01*
X1396227Y52355919D01*
X1236405Y52441345D01*
X1189304Y52480000D01*
X1096314Y52556314D01*
X981347Y52696403D01*
X981345Y52696405D01*
X895919Y52856227D01*
X843311Y53029649D01*
X825549Y53210000D01*
X843311Y53390351D01*
X895919Y53563773D01*
X981345Y53723595D01*
X1000266Y53746650D01*
X1096314Y53863686D01*
X1236403Y53978653D01*
X1236405Y53978655D01*
X1396227Y54064081D01*
X1569649Y54116689D01*
X1704804Y54130000D01*
X1795196Y54130000D01*
X1930351Y54116689D01*
X1930351Y54116689D01*
G37*
G36*
X5610284Y53594438D02*
G01*
X5664892Y53583576D01*
X5767770Y53540962D01*
X5860358Y53479097D01*
X5939097Y53400358D01*
X6000962Y53307770D01*
X6043576Y53204892D01*
X6065300Y53095677D01*
X6065300Y52984323D01*
X6043576Y52875108D01*
X6000962Y52772230D01*
X5939097Y52679642D01*
X5860358Y52600903D01*
X5767770Y52539038D01*
X5664892Y52496424D01*
X5610284Y52485562D01*
X5555678Y52474700D01*
X5444322Y52474700D01*
X5389716Y52485562D01*
X5335108Y52496424D01*
X5232230Y52539038D01*
X5139642Y52600903D01*
X5060903Y52679642D01*
X4999038Y52772230D01*
X4956424Y52875108D01*
X4934700Y52984323D01*
X4934700Y53095677D01*
X4956424Y53204892D01*
X4999038Y53307770D01*
X5060903Y53400358D01*
X5139642Y53479097D01*
X5232230Y53540962D01*
X5335108Y53583576D01*
X5389716Y53594438D01*
X5444322Y53605300D01*
X5555678Y53605300D01*
X5610284Y53594438D01*
X5610284Y53594438D01*
G37*
G36*
X7339183Y54088489D02*
G01*
X7488414Y54026676D01*
X7488416Y54026675D01*
X7622720Y53936936D01*
X7736936Y53822720D01*
X7803169Y53723595D01*
X7826676Y53688414D01*
X7888489Y53539183D01*
X7920000Y53380764D01*
X7920000Y53219236D01*
X7888489Y53060817D01*
X7843376Y52951904D01*
X7826675Y52911584D01*
X7736936Y52777280D01*
X7622720Y52663064D01*
X7488416Y52573325D01*
X7488415Y52573324D01*
X7488414Y52573324D01*
X7339183Y52511511D01*
X7180764Y52480000D01*
X7019236Y52480000D01*
X6860817Y52511511D01*
X6711586Y52573324D01*
X6711585Y52573324D01*
X6711584Y52573325D01*
X6577280Y52663064D01*
X6463064Y52777280D01*
X6373325Y52911584D01*
X6356624Y52951904D01*
X6311511Y53060817D01*
X6280000Y53219236D01*
X6280000Y53380764D01*
X6311511Y53539183D01*
X6373324Y53688414D01*
X6396831Y53723595D01*
X6463064Y53822720D01*
X6577280Y53936936D01*
X6711584Y54026675D01*
X6711586Y54026676D01*
X6860817Y54088489D01*
X7019236Y54120000D01*
X7180764Y54120000D01*
X7339183Y54088489D01*
X7339183Y54088489D01*
G37*
G36*
X26616261Y54048096D02*
G01*
X26719995Y54005128D01*
X26719996Y54005127D01*
X26813354Y53942748D01*
X26892748Y53863354D01*
X26892749Y53863352D01*
X26955128Y53769995D01*
X26998096Y53666261D01*
X27020000Y53556142D01*
X27020000Y53443858D01*
X26998096Y53333739D01*
X26955128Y53230005D01*
X26955127Y53230004D01*
X26892748Y53136646D01*
X26813354Y53057252D01*
X26772043Y53029649D01*
X26719995Y52994872D01*
X26616261Y52951904D01*
X26506142Y52930000D01*
X26393858Y52930000D01*
X26283739Y52951904D01*
X26180005Y52994872D01*
X26127957Y53029649D01*
X26086646Y53057252D01*
X26007252Y53136646D01*
X25944873Y53230004D01*
X25944872Y53230005D01*
X25901904Y53333739D01*
X25880000Y53443858D01*
X25880000Y53556142D01*
X25901904Y53666261D01*
X25944872Y53769995D01*
X26007251Y53863352D01*
X26007252Y53863354D01*
X26086646Y53942748D01*
X26180004Y54005127D01*
X26180005Y54005128D01*
X26283739Y54048096D01*
X26393858Y54070000D01*
X26506142Y54070000D01*
X26616261Y54048096D01*
X26616261Y54048096D01*
G37*
G36*
X34596261Y54048096D02*
G01*
X34699995Y54005128D01*
X34699996Y54005127D01*
X34793354Y53942748D01*
X34872748Y53863354D01*
X34872749Y53863352D01*
X34935128Y53769995D01*
X34978096Y53666261D01*
X35000000Y53556142D01*
X35000000Y53443858D01*
X34978096Y53333739D01*
X34935128Y53230005D01*
X34935127Y53230004D01*
X34872748Y53136646D01*
X34793354Y53057252D01*
X34752043Y53029649D01*
X34699995Y52994872D01*
X34596261Y52951904D01*
X34486142Y52930000D01*
X34373858Y52930000D01*
X34263739Y52951904D01*
X34160005Y52994872D01*
X34107957Y53029649D01*
X34066646Y53057252D01*
X33987252Y53136646D01*
X33924873Y53230004D01*
X33924872Y53230005D01*
X33881904Y53333739D01*
X33860000Y53443858D01*
X33860000Y53556142D01*
X33881904Y53666261D01*
X33924872Y53769995D01*
X33987251Y53863352D01*
X33987252Y53863354D01*
X34066646Y53942748D01*
X34160004Y54005127D01*
X34160005Y54005128D01*
X34263739Y54048096D01*
X34373858Y54070000D01*
X34486142Y54070000D01*
X34596261Y54048096D01*
X34596261Y54048096D01*
G37*
G36*
X49424360Y55676842D02*
G01*
X49515646Y55658684D01*
X49687625Y55587448D01*
X49842402Y55484029D01*
X49974029Y55352402D01*
X50077448Y55197625D01*
X50148684Y55025646D01*
X50185000Y54843074D01*
X50185000Y54656926D01*
X50148684Y54474354D01*
X50077448Y54302375D01*
X50008346Y54198957D01*
X49974030Y54147599D01*
X49842401Y54015970D01*
X49826173Y54005127D01*
X49687625Y53912552D01*
X49515646Y53841316D01*
X49424360Y53823158D01*
X49333075Y53805000D01*
X49146925Y53805000D01*
X49055640Y53823158D01*
X48964354Y53841316D01*
X48792375Y53912552D01*
X48653827Y54005127D01*
X48637599Y54015970D01*
X48505970Y54147599D01*
X48471654Y54198957D01*
X48402552Y54302375D01*
X48331316Y54474354D01*
X48295000Y54656926D01*
X48295000Y54843074D01*
X48331316Y55025646D01*
X48402552Y55197625D01*
X48505971Y55352402D01*
X48637598Y55484029D01*
X48792375Y55587448D01*
X48964354Y55658684D01*
X49055640Y55676842D01*
X49146925Y55695000D01*
X49333075Y55695000D01*
X49424360Y55676842D01*
X49424360Y55676842D01*
G37*
G36*
X53924360Y55676842D02*
G01*
X54015646Y55658684D01*
X54187625Y55587448D01*
X54342402Y55484029D01*
X54474029Y55352402D01*
X54577448Y55197625D01*
X54648684Y55025646D01*
X54685000Y54843074D01*
X54685000Y54656926D01*
X54648684Y54474354D01*
X54577448Y54302375D01*
X54508346Y54198957D01*
X54474030Y54147599D01*
X54342401Y54015970D01*
X54326173Y54005127D01*
X54187625Y53912552D01*
X54015646Y53841316D01*
X53924360Y53823158D01*
X53833075Y53805000D01*
X53646925Y53805000D01*
X53555640Y53823158D01*
X53464354Y53841316D01*
X53292375Y53912552D01*
X53153827Y54005127D01*
X53137599Y54015970D01*
X53005970Y54147599D01*
X52971654Y54198957D01*
X52902552Y54302375D01*
X52831316Y54474354D01*
X52795000Y54656926D01*
X52795000Y54843074D01*
X52831316Y55025646D01*
X52902552Y55197625D01*
X53005971Y55352402D01*
X53137598Y55484029D01*
X53292375Y55587448D01*
X53464354Y55658684D01*
X53555640Y55676842D01*
X53646925Y55695000D01*
X53833075Y55695000D01*
X53924360Y55676842D01*
X53924360Y55676842D01*
G37*
G36*
X645843Y57480786D02*
G01*
X645846Y57480785D01*
X645845Y57480785D01*
X736839Y57443094D01*
X778063Y57415549D01*
X818730Y57388376D01*
X888376Y57318730D01*
X943095Y57236837D01*
X980786Y57145843D01*
X1000000Y57049247D01*
X1000000Y56950753D01*
X980786Y56854157D01*
X943094Y56763160D01*
X932815Y56747776D01*
X928195Y56739132D01*
X925350Y56729753D01*
X924389Y56719998D01*
X925350Y56710244D01*
X928195Y56700864D01*
X932816Y56692220D01*
X939034Y56684644D01*
X946611Y56678426D01*
X955255Y56673806D01*
X964634Y56670961D01*
X974388Y56670000D01*
X2670000Y56670000D01*
X2670000Y54830000D01*
X830000Y54830000D01*
X830000Y56525612D01*
X829039Y56535366D01*
X826194Y56544746D01*
X821574Y56553390D01*
X815356Y56560967D01*
X807779Y56567185D01*
X799135Y56571805D01*
X789755Y56574650D01*
X780001Y56575611D01*
X770247Y56574650D01*
X760867Y56571805D01*
X752224Y56567185D01*
X736840Y56556906D01*
X645843Y56519214D01*
X549247Y56500000D01*
X450753Y56500000D01*
X354157Y56519214D01*
X263163Y56556905D01*
X263162Y56556905D01*
X263161Y56556906D01*
X212504Y56590754D01*
X181270Y56611624D01*
X111624Y56681270D01*
X64207Y56752235D01*
X56906Y56763161D01*
X51023Y56777363D01*
X19214Y56854157D01*
X0Y56950753D01*
X0Y57049247D01*
X19214Y57145843D01*
X56905Y57236837D01*
X111624Y57318730D01*
X181270Y57388376D01*
X221937Y57415549D01*
X263161Y57443094D01*
X354155Y57480785D01*
X354154Y57480785D01*
X354157Y57480786D01*
X450753Y57500000D01*
X549247Y57500000D01*
X645843Y57480786D01*
X645843Y57480786D01*
G37*
G36*
X6310828Y56790368D02*
G01*
X6353698Y56777363D01*
X6393200Y56756249D01*
X6427829Y56727829D01*
X6456249Y56693200D01*
X6477363Y56653698D01*
X6490368Y56610828D01*
X6495000Y56563796D01*
X6495000Y55936204D01*
X6490368Y55889172D01*
X6477363Y55846302D01*
X6456249Y55806800D01*
X6427829Y55772171D01*
X6393200Y55743751D01*
X6353698Y55722637D01*
X6310828Y55709632D01*
X6263796Y55705000D01*
X5711204Y55705000D01*
X5664172Y55709632D01*
X5621302Y55722637D01*
X5581800Y55743751D01*
X5547171Y55772171D01*
X5518751Y55806800D01*
X5497637Y55846302D01*
X5484632Y55889172D01*
X5480000Y55936204D01*
X5480000Y56563796D01*
X5484632Y56610828D01*
X5497637Y56653698D01*
X5518751Y56693200D01*
X5547171Y56727829D01*
X5581800Y56756249D01*
X5621302Y56777363D01*
X5664172Y56790368D01*
X5711204Y56795000D01*
X6263796Y56795000D01*
X6310828Y56790368D01*
X6310828Y56790368D01*
G37*
G36*
X10535828Y56790368D02*
G01*
X10578698Y56777363D01*
X10618200Y56756249D01*
X10652829Y56727829D01*
X10681249Y56693200D01*
X10702363Y56653698D01*
X10715368Y56610828D01*
X10720000Y56563796D01*
X10720000Y55936204D01*
X10715368Y55889172D01*
X10702363Y55846302D01*
X10681249Y55806800D01*
X10652829Y55772171D01*
X10618200Y55743751D01*
X10578698Y55722637D01*
X10535828Y55709632D01*
X10488796Y55705000D01*
X9936204Y55705000D01*
X9889172Y55709632D01*
X9846302Y55722637D01*
X9806800Y55743751D01*
X9772171Y55772171D01*
X9743751Y55806800D01*
X9722637Y55846302D01*
X9709632Y55889172D01*
X9705000Y55936204D01*
X9705000Y56563796D01*
X9709632Y56610828D01*
X9722637Y56653698D01*
X9743751Y56693200D01*
X9772171Y56727829D01*
X9806800Y56756249D01*
X9846302Y56777363D01*
X9889172Y56790368D01*
X9936204Y56795000D01*
X10488796Y56795000D01*
X10535828Y56790368D01*
X10535828Y56790368D01*
G37*
G36*
X12110828Y56790368D02*
G01*
X12153698Y56777363D01*
X12193200Y56756249D01*
X12227829Y56727829D01*
X12256249Y56693200D01*
X12277363Y56653698D01*
X12290368Y56610828D01*
X12295000Y56563796D01*
X12295000Y55936204D01*
X12290368Y55889172D01*
X12277363Y55846302D01*
X12256249Y55806800D01*
X12227829Y55772171D01*
X12193200Y55743751D01*
X12153698Y55722637D01*
X12110828Y55709632D01*
X12063796Y55705000D01*
X11511204Y55705000D01*
X11464172Y55709632D01*
X11421302Y55722637D01*
X11381800Y55743751D01*
X11347171Y55772171D01*
X11318751Y55806800D01*
X11297637Y55846302D01*
X11284632Y55889172D01*
X11280000Y55936204D01*
X11280000Y56563796D01*
X11284632Y56610828D01*
X11297637Y56653698D01*
X11318751Y56693200D01*
X11347171Y56727829D01*
X11381800Y56756249D01*
X11421302Y56777363D01*
X11464172Y56790368D01*
X11511204Y56795000D01*
X12063796Y56795000D01*
X12110828Y56790368D01*
X12110828Y56790368D01*
G37*
G36*
X13435828Y56790368D02*
G01*
X13478698Y56777363D01*
X13518200Y56756249D01*
X13552829Y56727829D01*
X13581249Y56693200D01*
X13602363Y56653698D01*
X13615368Y56610828D01*
X13620000Y56563796D01*
X13620000Y55936204D01*
X13615368Y55889172D01*
X13602363Y55846302D01*
X13581249Y55806800D01*
X13552829Y55772171D01*
X13518200Y55743751D01*
X13478698Y55722637D01*
X13435828Y55709632D01*
X13388796Y55705000D01*
X12836204Y55705000D01*
X12789172Y55709632D01*
X12746302Y55722637D01*
X12706800Y55743751D01*
X12672171Y55772171D01*
X12643751Y55806800D01*
X12622637Y55846302D01*
X12609632Y55889172D01*
X12605000Y55936204D01*
X12605000Y56563796D01*
X12609632Y56610828D01*
X12622637Y56653698D01*
X12643751Y56693200D01*
X12672171Y56727829D01*
X12706800Y56756249D01*
X12746302Y56777363D01*
X12789172Y56790368D01*
X12836204Y56795000D01*
X13388796Y56795000D01*
X13435828Y56790368D01*
X13435828Y56790368D01*
G37*
G36*
X15010828Y56790368D02*
G01*
X15053698Y56777363D01*
X15093200Y56756249D01*
X15127829Y56727829D01*
X15156249Y56693200D01*
X15177363Y56653698D01*
X15190368Y56610828D01*
X15195000Y56563796D01*
X15195000Y55936204D01*
X15190368Y55889172D01*
X15177363Y55846302D01*
X15156249Y55806800D01*
X15127829Y55772171D01*
X15093200Y55743751D01*
X15053698Y55722637D01*
X15010828Y55709632D01*
X14963796Y55705000D01*
X14411204Y55705000D01*
X14364172Y55709632D01*
X14321302Y55722637D01*
X14281800Y55743751D01*
X14247171Y55772171D01*
X14218751Y55806800D01*
X14197637Y55846302D01*
X14184632Y55889172D01*
X14180000Y55936204D01*
X14180000Y56563796D01*
X14184632Y56610828D01*
X14197637Y56653698D01*
X14218751Y56693200D01*
X14247171Y56727829D01*
X14281800Y56756249D01*
X14321302Y56777363D01*
X14364172Y56790368D01*
X14411204Y56795000D01*
X14963796Y56795000D01*
X15010828Y56790368D01*
X15010828Y56790368D01*
G37*
G36*
X16335828Y56790368D02*
G01*
X16378698Y56777363D01*
X16418200Y56756249D01*
X16452829Y56727829D01*
X16481249Y56693200D01*
X16502363Y56653698D01*
X16515368Y56610828D01*
X16520000Y56563796D01*
X16520000Y55936204D01*
X16515368Y55889172D01*
X16502363Y55846302D01*
X16481249Y55806800D01*
X16452829Y55772171D01*
X16418200Y55743751D01*
X16378698Y55722637D01*
X16335828Y55709632D01*
X16288796Y55705000D01*
X15736204Y55705000D01*
X15689172Y55709632D01*
X15646302Y55722637D01*
X15606800Y55743751D01*
X15572171Y55772171D01*
X15543751Y55806800D01*
X15522637Y55846302D01*
X15509632Y55889172D01*
X15505000Y55936204D01*
X15505000Y56563796D01*
X15509632Y56610828D01*
X15522637Y56653698D01*
X15543751Y56693200D01*
X15572171Y56727829D01*
X15606800Y56756249D01*
X15646302Y56777363D01*
X15689172Y56790368D01*
X15736204Y56795000D01*
X16288796Y56795000D01*
X16335828Y56790368D01*
X16335828Y56790368D01*
G37*
G36*
X7635828Y56790368D02*
G01*
X7678698Y56777363D01*
X7718200Y56756249D01*
X7752829Y56727829D01*
X7781249Y56693200D01*
X7802363Y56653698D01*
X7815368Y56610828D01*
X7820000Y56563796D01*
X7820000Y55936204D01*
X7815368Y55889172D01*
X7802363Y55846302D01*
X7781249Y55806800D01*
X7752829Y55772171D01*
X7718200Y55743751D01*
X7678698Y55722637D01*
X7635828Y55709632D01*
X7588796Y55705000D01*
X7036204Y55705000D01*
X6989172Y55709632D01*
X6946302Y55722637D01*
X6906800Y55743751D01*
X6872171Y55772171D01*
X6843751Y55806800D01*
X6822637Y55846302D01*
X6809632Y55889172D01*
X6805000Y55936204D01*
X6805000Y56563796D01*
X6809632Y56610828D01*
X6822637Y56653698D01*
X6843751Y56693200D01*
X6872171Y56727829D01*
X6906800Y56756249D01*
X6946302Y56777363D01*
X6989172Y56790368D01*
X7036204Y56795000D01*
X7588796Y56795000D01*
X7635828Y56790368D01*
X7635828Y56790368D01*
G37*
G36*
X17910828Y56790368D02*
G01*
X17953698Y56777363D01*
X17993200Y56756249D01*
X18027829Y56727829D01*
X18056249Y56693200D01*
X18077363Y56653698D01*
X18090368Y56610828D01*
X18095000Y56563796D01*
X18095000Y55936204D01*
X18090368Y55889172D01*
X18077363Y55846302D01*
X18056249Y55806800D01*
X18027829Y55772171D01*
X17993200Y55743751D01*
X17953698Y55722637D01*
X17910828Y55709632D01*
X17863796Y55705000D01*
X17311204Y55705000D01*
X17264172Y55709632D01*
X17221302Y55722637D01*
X17181800Y55743751D01*
X17147171Y55772171D01*
X17118751Y55806800D01*
X17097637Y55846302D01*
X17084632Y55889172D01*
X17080000Y55936204D01*
X17080000Y56563796D01*
X17084632Y56610828D01*
X17097637Y56653698D01*
X17118751Y56693200D01*
X17147171Y56727829D01*
X17181800Y56756249D01*
X17221302Y56777363D01*
X17264172Y56790368D01*
X17311204Y56795000D01*
X17863796Y56795000D01*
X17910828Y56790368D01*
X17910828Y56790368D01*
G37*
G36*
X19235828Y56790368D02*
G01*
X19278698Y56777363D01*
X19318200Y56756249D01*
X19352829Y56727829D01*
X19381249Y56693200D01*
X19402363Y56653698D01*
X19415368Y56610828D01*
X19420000Y56563796D01*
X19420000Y55936204D01*
X19415368Y55889172D01*
X19402363Y55846302D01*
X19381249Y55806800D01*
X19352829Y55772171D01*
X19318200Y55743751D01*
X19278698Y55722637D01*
X19235828Y55709632D01*
X19188796Y55705000D01*
X18636204Y55705000D01*
X18589172Y55709632D01*
X18546302Y55722637D01*
X18506800Y55743751D01*
X18472171Y55772171D01*
X18443751Y55806800D01*
X18422637Y55846302D01*
X18409632Y55889172D01*
X18405000Y55936204D01*
X18405000Y56563796D01*
X18409632Y56610828D01*
X18422637Y56653698D01*
X18443751Y56693200D01*
X18472171Y56727829D01*
X18506800Y56756249D01*
X18546302Y56777363D01*
X18589172Y56790368D01*
X18636204Y56795000D01*
X19188796Y56795000D01*
X19235828Y56790368D01*
X19235828Y56790368D01*
G37*
G36*
X20810828Y56790368D02*
G01*
X20853698Y56777363D01*
X20893200Y56756249D01*
X20927829Y56727829D01*
X20956249Y56693200D01*
X20977363Y56653698D01*
X20990368Y56610828D01*
X20995000Y56563796D01*
X20995000Y55936204D01*
X20990368Y55889172D01*
X20977363Y55846302D01*
X20956249Y55806800D01*
X20927829Y55772171D01*
X20893200Y55743751D01*
X20853698Y55722637D01*
X20810828Y55709632D01*
X20763796Y55705000D01*
X20211204Y55705000D01*
X20164172Y55709632D01*
X20121302Y55722637D01*
X20081800Y55743751D01*
X20047171Y55772171D01*
X20018751Y55806800D01*
X19997637Y55846302D01*
X19984632Y55889172D01*
X19980000Y55936204D01*
X19980000Y56563796D01*
X19984632Y56610828D01*
X19997637Y56653698D01*
X20018751Y56693200D01*
X20047171Y56727829D01*
X20081800Y56756249D01*
X20121302Y56777363D01*
X20164172Y56790368D01*
X20211204Y56795000D01*
X20763796Y56795000D01*
X20810828Y56790368D01*
X20810828Y56790368D01*
G37*
G36*
X9210828Y56790368D02*
G01*
X9253698Y56777363D01*
X9293200Y56756249D01*
X9327829Y56727829D01*
X9356249Y56693200D01*
X9377363Y56653698D01*
X9390368Y56610828D01*
X9395000Y56563796D01*
X9395000Y55936204D01*
X9390368Y55889172D01*
X9377363Y55846302D01*
X9356249Y55806800D01*
X9327829Y55772171D01*
X9293200Y55743751D01*
X9253698Y55722637D01*
X9210828Y55709632D01*
X9163796Y55705000D01*
X8611204Y55705000D01*
X8564172Y55709632D01*
X8521302Y55722637D01*
X8481800Y55743751D01*
X8447171Y55772171D01*
X8418751Y55806800D01*
X8397637Y55846302D01*
X8384632Y55889172D01*
X8380000Y55936204D01*
X8380000Y56563796D01*
X8384632Y56610828D01*
X8397637Y56653698D01*
X8418751Y56693200D01*
X8447171Y56727829D01*
X8481800Y56756249D01*
X8521302Y56777363D01*
X8564172Y56790368D01*
X8611204Y56795000D01*
X9163796Y56795000D01*
X9210828Y56790368D01*
X9210828Y56790368D01*
G37*
G36*
X4735828Y56790368D02*
G01*
X4778698Y56777363D01*
X4818200Y56756249D01*
X4852829Y56727829D01*
X4881249Y56693200D01*
X4902363Y56653698D01*
X4915368Y56610828D01*
X4920000Y56563796D01*
X4920000Y55936204D01*
X4915368Y55889172D01*
X4902363Y55846302D01*
X4881249Y55806800D01*
X4852829Y55772171D01*
X4818200Y55743751D01*
X4778698Y55722637D01*
X4735828Y55709632D01*
X4688796Y55705000D01*
X4136204Y55705000D01*
X4089172Y55709632D01*
X4046302Y55722637D01*
X4006800Y55743751D01*
X3972171Y55772171D01*
X3943751Y55806800D01*
X3922637Y55846302D01*
X3909632Y55889172D01*
X3905000Y55936204D01*
X3905000Y56563796D01*
X3909632Y56610828D01*
X3922637Y56653698D01*
X3943751Y56693200D01*
X3972171Y56727829D01*
X4006800Y56756249D01*
X4046302Y56777363D01*
X4089172Y56790368D01*
X4136204Y56795000D01*
X4688796Y56795000D01*
X4735828Y56790368D01*
X4735828Y56790368D01*
G37*
M02*
