G04 #@! TF.GenerationSoftware,KiCad,Pcbnew,5.1.10*
G04 #@! TF.CreationDate,2021-09-27T13:14:11+02:00*
G04 #@! TF.ProjectId,KXKM_ESP32_battery_management_board,4b584b4d-5f45-4535-9033-325f62617474,3.0*
G04 #@! TF.SameCoordinates,PX623a7c0PY839b680*
G04 #@! TF.FileFunction,Paste,Top*
G04 #@! TF.FilePolarity,Positive*
%FSLAX46Y46*%
G04 Gerber Fmt 4.6, Leading zero omitted, Abs format (unit mm)*
G04 Created by KiCad (PCBNEW 5.1.10) date 2021-09-27 13:14:11*
%MOMM*%
%LPD*%
G01*
G04 APERTURE LIST*
%ADD10R,0.600000X0.700000*%
%ADD11R,0.450000X0.600000*%
%ADD12R,0.900000X2.000000*%
%ADD13R,2.000000X0.900000*%
%ADD14R,5.000000X5.000000*%
%ADD15R,0.800000X0.900000*%
%ADD16R,2.500000X3.500000*%
%ADD17R,3.050000X2.750000*%
%ADD18R,2.200000X0.800000*%
%ADD19R,3.000000X1.000000*%
%ADD20R,4.200000X1.500000*%
%ADD21R,0.700000X0.450000*%
%ADD22R,2.500000X1.800000*%
%ADD23R,0.700000X1.500000*%
%ADD24R,1.000000X0.800000*%
%ADD25R,1.000000X0.900000*%
%ADD26R,0.600000X0.450000*%
%ADD27R,1.550000X0.600000*%
%ADD28R,1.450000X0.450000*%
%ADD29R,1.060000X0.650000*%
G04 APERTURE END LIST*
G36*
G01*
X21665000Y50743000D02*
X21665000Y51293000D01*
G75*
G02*
X21865000Y51493000I200000J0D01*
G01*
X22265000Y51493000D01*
G75*
G02*
X22465000Y51293000I0J-200000D01*
G01*
X22465000Y50743000D01*
G75*
G02*
X22265000Y50543000I-200000J0D01*
G01*
X21865000Y50543000D01*
G75*
G02*
X21665000Y50743000I0J200000D01*
G01*
G37*
G36*
G01*
X20015000Y50743000D02*
X20015000Y51293000D01*
G75*
G02*
X20215000Y51493000I200000J0D01*
G01*
X20615000Y51493000D01*
G75*
G02*
X20815000Y51293000I0J-200000D01*
G01*
X20815000Y50743000D01*
G75*
G02*
X20615000Y50543000I-200000J0D01*
G01*
X20215000Y50543000D01*
G75*
G02*
X20015000Y50743000I0J200000D01*
G01*
G37*
G36*
G01*
X20815000Y52929000D02*
X20815000Y52379000D01*
G75*
G02*
X20615000Y52179000I-200000J0D01*
G01*
X20215000Y52179000D01*
G75*
G02*
X20015000Y52379000I0J200000D01*
G01*
X20015000Y52929000D01*
G75*
G02*
X20215000Y53129000I200000J0D01*
G01*
X20615000Y53129000D01*
G75*
G02*
X20815000Y52929000I0J-200000D01*
G01*
G37*
G36*
G01*
X22465000Y52929000D02*
X22465000Y52379000D01*
G75*
G02*
X22265000Y52179000I-200000J0D01*
G01*
X21865000Y52179000D01*
G75*
G02*
X21665000Y52379000I0J200000D01*
G01*
X21665000Y52929000D01*
G75*
G02*
X21865000Y53129000I200000J0D01*
G01*
X22265000Y53129000D01*
G75*
G02*
X22465000Y52929000I0J-200000D01*
G01*
G37*
G36*
G01*
X21665000Y54015000D02*
X21665000Y54565000D01*
G75*
G02*
X21865000Y54765000I200000J0D01*
G01*
X22265000Y54765000D01*
G75*
G02*
X22465000Y54565000I0J-200000D01*
G01*
X22465000Y54015000D01*
G75*
G02*
X22265000Y53815000I-200000J0D01*
G01*
X21865000Y53815000D01*
G75*
G02*
X21665000Y54015000I0J200000D01*
G01*
G37*
G36*
G01*
X20015000Y54015000D02*
X20015000Y54565000D01*
G75*
G02*
X20215000Y54765000I200000J0D01*
G01*
X20615000Y54765000D01*
G75*
G02*
X20815000Y54565000I0J-200000D01*
G01*
X20815000Y54015000D01*
G75*
G02*
X20615000Y53815000I-200000J0D01*
G01*
X20215000Y53815000D01*
G75*
G02*
X20015000Y54015000I0J200000D01*
G01*
G37*
G36*
G01*
X21665000Y49107000D02*
X21665000Y49657000D01*
G75*
G02*
X21865000Y49857000I200000J0D01*
G01*
X22265000Y49857000D01*
G75*
G02*
X22465000Y49657000I0J-200000D01*
G01*
X22465000Y49107000D01*
G75*
G02*
X22265000Y48907000I-200000J0D01*
G01*
X21865000Y48907000D01*
G75*
G02*
X21665000Y49107000I0J200000D01*
G01*
G37*
G36*
G01*
X20015000Y49107000D02*
X20015000Y49657000D01*
G75*
G02*
X20215000Y49857000I200000J0D01*
G01*
X20615000Y49857000D01*
G75*
G02*
X20815000Y49657000I0J-200000D01*
G01*
X20815000Y49107000D01*
G75*
G02*
X20615000Y48907000I-200000J0D01*
G01*
X20215000Y48907000D01*
G75*
G02*
X20015000Y49107000I0J200000D01*
G01*
G37*
G36*
G01*
X21665000Y45835000D02*
X21665000Y46385000D01*
G75*
G02*
X21865000Y46585000I200000J0D01*
G01*
X22265000Y46585000D01*
G75*
G02*
X22465000Y46385000I0J-200000D01*
G01*
X22465000Y45835000D01*
G75*
G02*
X22265000Y45635000I-200000J0D01*
G01*
X21865000Y45635000D01*
G75*
G02*
X21665000Y45835000I0J200000D01*
G01*
G37*
G36*
G01*
X20015000Y45835000D02*
X20015000Y46385000D01*
G75*
G02*
X20215000Y46585000I200000J0D01*
G01*
X20615000Y46585000D01*
G75*
G02*
X20815000Y46385000I0J-200000D01*
G01*
X20815000Y45835000D01*
G75*
G02*
X20615000Y45635000I-200000J0D01*
G01*
X20215000Y45635000D01*
G75*
G02*
X20015000Y45835000I0J200000D01*
G01*
G37*
G36*
G01*
X20815000Y48021000D02*
X20815000Y47471000D01*
G75*
G02*
X20615000Y47271000I-200000J0D01*
G01*
X20215000Y47271000D01*
G75*
G02*
X20015000Y47471000I0J200000D01*
G01*
X20015000Y48021000D01*
G75*
G02*
X20215000Y48221000I200000J0D01*
G01*
X20615000Y48221000D01*
G75*
G02*
X20815000Y48021000I0J-200000D01*
G01*
G37*
G36*
G01*
X22465000Y48021000D02*
X22465000Y47471000D01*
G75*
G02*
X22265000Y47271000I-200000J0D01*
G01*
X21865000Y47271000D01*
G75*
G02*
X21665000Y47471000I0J200000D01*
G01*
X21665000Y48021000D01*
G75*
G02*
X21865000Y48221000I200000J0D01*
G01*
X22265000Y48221000D01*
G75*
G02*
X22465000Y48021000I0J-200000D01*
G01*
G37*
G36*
G01*
X46935000Y40685000D02*
X46935000Y40135000D01*
G75*
G02*
X46735000Y39935000I-200000J0D01*
G01*
X46335000Y39935000D01*
G75*
G02*
X46135000Y40135000I0J200000D01*
G01*
X46135000Y40685000D01*
G75*
G02*
X46335000Y40885000I200000J0D01*
G01*
X46735000Y40885000D01*
G75*
G02*
X46935000Y40685000I0J-200000D01*
G01*
G37*
G36*
G01*
X48585000Y40685000D02*
X48585000Y40135000D01*
G75*
G02*
X48385000Y39935000I-200000J0D01*
G01*
X47985000Y39935000D01*
G75*
G02*
X47785000Y40135000I0J200000D01*
G01*
X47785000Y40685000D01*
G75*
G02*
X47985000Y40885000I200000J0D01*
G01*
X48385000Y40885000D01*
G75*
G02*
X48585000Y40685000I0J-200000D01*
G01*
G37*
G36*
G01*
X55185000Y28765000D02*
X54635000Y28765000D01*
G75*
G02*
X54435000Y28965000I0J200000D01*
G01*
X54435000Y29365000D01*
G75*
G02*
X54635000Y29565000I200000J0D01*
G01*
X55185000Y29565000D01*
G75*
G02*
X55385000Y29365000I0J-200000D01*
G01*
X55385000Y28965000D01*
G75*
G02*
X55185000Y28765000I-200000J0D01*
G01*
G37*
G36*
G01*
X55185000Y27115000D02*
X54635000Y27115000D01*
G75*
G02*
X54435000Y27315000I0J200000D01*
G01*
X54435000Y27715000D01*
G75*
G02*
X54635000Y27915000I200000J0D01*
G01*
X55185000Y27915000D01*
G75*
G02*
X55385000Y27715000I0J-200000D01*
G01*
X55385000Y27315000D01*
G75*
G02*
X55185000Y27115000I-200000J0D01*
G01*
G37*
D10*
X49750000Y41440000D03*
X51150000Y41440000D03*
D11*
X47970000Y37140000D03*
X47970000Y35040000D03*
G36*
G01*
X48205000Y38910000D02*
X48205000Y38410000D01*
G75*
G02*
X47980000Y38185000I-225000J0D01*
G01*
X47530000Y38185000D01*
G75*
G02*
X47305000Y38410000I0J225000D01*
G01*
X47305000Y38910000D01*
G75*
G02*
X47530000Y39135000I225000J0D01*
G01*
X47980000Y39135000D01*
G75*
G02*
X48205000Y38910000I0J-225000D01*
G01*
G37*
G36*
G01*
X49755000Y38910000D02*
X49755000Y38410000D01*
G75*
G02*
X49530000Y38185000I-225000J0D01*
G01*
X49080000Y38185000D01*
G75*
G02*
X48855000Y38410000I0J225000D01*
G01*
X48855000Y38910000D01*
G75*
G02*
X49080000Y39135000I225000J0D01*
G01*
X49530000Y39135000D01*
G75*
G02*
X49755000Y38910000I0J-225000D01*
G01*
G37*
D12*
X10595000Y36000000D03*
X11865000Y36000000D03*
X13135000Y36000000D03*
X14405000Y36000000D03*
X15675000Y36000000D03*
X16945000Y36000000D03*
X18215000Y36000000D03*
X19485000Y36000000D03*
X20755000Y36000000D03*
X22025000Y36000000D03*
X23295000Y36000000D03*
X24565000Y36000000D03*
X25835000Y36000000D03*
X27105000Y36000000D03*
D13*
X28105000Y33215000D03*
X28105000Y31945000D03*
X28105000Y30675000D03*
X28105000Y29405000D03*
X28105000Y28135000D03*
X28105000Y26865000D03*
X28105000Y25595000D03*
X28105000Y24325000D03*
X28105000Y23055000D03*
X28105000Y21785000D03*
D12*
X27105000Y19000000D03*
X25835000Y19000000D03*
X24565000Y19000000D03*
X23295000Y19000000D03*
X22025000Y19000000D03*
X20755000Y19000000D03*
X19485000Y19000000D03*
X18215000Y19000000D03*
X16945000Y19000000D03*
X15675000Y19000000D03*
X14405000Y19000000D03*
X13135000Y19000000D03*
X11865000Y19000000D03*
X10595000Y19000000D03*
D14*
X18095000Y26500000D03*
G36*
G01*
X26350000Y12743750D02*
X26350000Y13256250D01*
G75*
G02*
X26568750Y13475000I218750J0D01*
G01*
X27006250Y13475000D01*
G75*
G02*
X27225000Y13256250I0J-218750D01*
G01*
X27225000Y12743750D01*
G75*
G02*
X27006250Y12525000I-218750J0D01*
G01*
X26568750Y12525000D01*
G75*
G02*
X26350000Y12743750I0J218750D01*
G01*
G37*
G36*
G01*
X24775000Y12743750D02*
X24775000Y13256250D01*
G75*
G02*
X24993750Y13475000I218750J0D01*
G01*
X25431250Y13475000D01*
G75*
G02*
X25650000Y13256250I0J-218750D01*
G01*
X25650000Y12743750D01*
G75*
G02*
X25431250Y12525000I-218750J0D01*
G01*
X24993750Y12525000D01*
G75*
G02*
X24775000Y12743750I0J218750D01*
G01*
G37*
D15*
X35500000Y18000000D03*
X34550000Y20000000D03*
X36450000Y20000000D03*
X3310000Y20650000D03*
X1410000Y20650000D03*
X2360000Y18650000D03*
X7020000Y23910000D03*
X5120000Y23910000D03*
X6070000Y21910000D03*
D16*
X51750000Y15250000D03*
X51750000Y21750000D03*
G36*
G01*
X7750000Y56506250D02*
X7750000Y55993750D01*
G75*
G02*
X7531250Y55775000I-218750J0D01*
G01*
X7093750Y55775000D01*
G75*
G02*
X6875000Y55993750I0J218750D01*
G01*
X6875000Y56506250D01*
G75*
G02*
X7093750Y56725000I218750J0D01*
G01*
X7531250Y56725000D01*
G75*
G02*
X7750000Y56506250I0J-218750D01*
G01*
G37*
G36*
G01*
X9325000Y56506250D02*
X9325000Y55993750D01*
G75*
G02*
X9106250Y55775000I-218750J0D01*
G01*
X8668750Y55775000D01*
G75*
G02*
X8450000Y55993750I0J218750D01*
G01*
X8450000Y56506250D01*
G75*
G02*
X8668750Y56725000I218750J0D01*
G01*
X9106250Y56725000D01*
G75*
G02*
X9325000Y56506250I0J-218750D01*
G01*
G37*
D10*
X51140000Y44460000D03*
X49740000Y44460000D03*
G36*
G01*
X37806250Y54075000D02*
X36893750Y54075000D01*
G75*
G02*
X36650000Y54318750I0J243750D01*
G01*
X36650000Y54806250D01*
G75*
G02*
X36893750Y55050000I243750J0D01*
G01*
X37806250Y55050000D01*
G75*
G02*
X38050000Y54806250I0J-243750D01*
G01*
X38050000Y54318750D01*
G75*
G02*
X37806250Y54075000I-243750J0D01*
G01*
G37*
G36*
G01*
X37806250Y55950000D02*
X36893750Y55950000D01*
G75*
G02*
X36650000Y56193750I0J243750D01*
G01*
X36650000Y56681250D01*
G75*
G02*
X36893750Y56925000I243750J0D01*
G01*
X37806250Y56925000D01*
G75*
G02*
X38050000Y56681250I0J-243750D01*
G01*
X38050000Y56193750D01*
G75*
G02*
X37806250Y55950000I-243750J0D01*
G01*
G37*
D17*
X43665000Y7885000D03*
X47015000Y10935000D03*
X43665000Y10935000D03*
X47015000Y7885000D03*
D18*
X39040000Y7130000D03*
X39040000Y8270000D03*
X39040000Y10550000D03*
X39040000Y11690000D03*
G36*
G01*
X40125000Y56143750D02*
X40125000Y56656250D01*
G75*
G02*
X40343750Y56875000I218750J0D01*
G01*
X40781250Y56875000D01*
G75*
G02*
X41000000Y56656250I0J-218750D01*
G01*
X41000000Y56143750D01*
G75*
G02*
X40781250Y55925000I-218750J0D01*
G01*
X40343750Y55925000D01*
G75*
G02*
X40125000Y56143750I0J218750D01*
G01*
G37*
G36*
G01*
X41700000Y56143750D02*
X41700000Y56656250D01*
G75*
G02*
X41918750Y56875000I218750J0D01*
G01*
X42356250Y56875000D01*
G75*
G02*
X42575000Y56656250I0J-218750D01*
G01*
X42575000Y56143750D01*
G75*
G02*
X42356250Y55925000I-218750J0D01*
G01*
X41918750Y55925000D01*
G75*
G02*
X41700000Y56143750I0J218750D01*
G01*
G37*
G36*
G01*
X45668750Y56425000D02*
X46181250Y56425000D01*
G75*
G02*
X46400000Y56206250I0J-218750D01*
G01*
X46400000Y55768750D01*
G75*
G02*
X46181250Y55550000I-218750J0D01*
G01*
X45668750Y55550000D01*
G75*
G02*
X45450000Y55768750I0J218750D01*
G01*
X45450000Y56206250D01*
G75*
G02*
X45668750Y56425000I218750J0D01*
G01*
G37*
G36*
G01*
X45668750Y54850000D02*
X46181250Y54850000D01*
G75*
G02*
X46400000Y54631250I0J-218750D01*
G01*
X46400000Y54193750D01*
G75*
G02*
X46181250Y53975000I-218750J0D01*
G01*
X45668750Y53975000D01*
G75*
G02*
X45450000Y54193750I0J218750D01*
G01*
X45450000Y54631250D01*
G75*
G02*
X45668750Y54850000I218750J0D01*
G01*
G37*
G36*
G01*
X44068750Y54875000D02*
X44581250Y54875000D01*
G75*
G02*
X44800000Y54656250I0J-218750D01*
G01*
X44800000Y54218750D01*
G75*
G02*
X44581250Y54000000I-218750J0D01*
G01*
X44068750Y54000000D01*
G75*
G02*
X43850000Y54218750I0J218750D01*
G01*
X43850000Y54656250D01*
G75*
G02*
X44068750Y54875000I218750J0D01*
G01*
G37*
G36*
G01*
X44068750Y56450000D02*
X44581250Y56450000D01*
G75*
G02*
X44800000Y56231250I0J-218750D01*
G01*
X44800000Y55793750D01*
G75*
G02*
X44581250Y55575000I-218750J0D01*
G01*
X44068750Y55575000D01*
G75*
G02*
X43850000Y55793750I0J218750D01*
G01*
X43850000Y56231250D01*
G75*
G02*
X44068750Y56450000I218750J0D01*
G01*
G37*
G36*
G01*
X45475000Y52618750D02*
X45475000Y53131250D01*
G75*
G02*
X45693750Y53350000I218750J0D01*
G01*
X46131250Y53350000D01*
G75*
G02*
X46350000Y53131250I0J-218750D01*
G01*
X46350000Y52618750D01*
G75*
G02*
X46131250Y52400000I-218750J0D01*
G01*
X45693750Y52400000D01*
G75*
G02*
X45475000Y52618750I0J218750D01*
G01*
G37*
G36*
G01*
X43900000Y52618750D02*
X43900000Y53131250D01*
G75*
G02*
X44118750Y53350000I218750J0D01*
G01*
X44556250Y53350000D01*
G75*
G02*
X44775000Y53131250I0J-218750D01*
G01*
X44775000Y52618750D01*
G75*
G02*
X44556250Y52400000I-218750J0D01*
G01*
X44118750Y52400000D01*
G75*
G02*
X43900000Y52618750I0J218750D01*
G01*
G37*
D19*
X44770000Y37680000D03*
X39730000Y37680000D03*
X44770000Y35140000D03*
X39730000Y35140000D03*
X44770000Y32600000D03*
X39730000Y32600000D03*
X44770000Y30060000D03*
X39730000Y30060000D03*
X44770000Y27520000D03*
X39730000Y27520000D03*
X44770000Y24980000D03*
X39730000Y24980000D03*
X44770000Y22440000D03*
X39730000Y22440000D03*
X44770000Y19900000D03*
X39730000Y19900000D03*
X44770000Y17360000D03*
X39730000Y17360000D03*
X44770000Y14820000D03*
X39730000Y14820000D03*
D20*
X36400000Y52425000D03*
X36400000Y48825000D03*
D21*
X3320000Y28710000D03*
X3320000Y30010000D03*
X1320000Y29360000D03*
G36*
G01*
X1015000Y24113750D02*
X1015000Y24626250D01*
G75*
G02*
X1233750Y24845000I218750J0D01*
G01*
X1671250Y24845000D01*
G75*
G02*
X1890000Y24626250I0J-218750D01*
G01*
X1890000Y24113750D01*
G75*
G02*
X1671250Y23895000I-218750J0D01*
G01*
X1233750Y23895000D01*
G75*
G02*
X1015000Y24113750I0J218750D01*
G01*
G37*
G36*
G01*
X2590000Y24113750D02*
X2590000Y24626250D01*
G75*
G02*
X2808750Y24845000I218750J0D01*
G01*
X3246250Y24845000D01*
G75*
G02*
X3465000Y24626250I0J-218750D01*
G01*
X3465000Y24113750D01*
G75*
G02*
X3246250Y23895000I-218750J0D01*
G01*
X2808750Y23895000D01*
G75*
G02*
X2590000Y24113750I0J218750D01*
G01*
G37*
G36*
G01*
X22835000Y44726250D02*
X22835000Y44213750D01*
G75*
G02*
X22616250Y43995000I-218750J0D01*
G01*
X22178750Y43995000D01*
G75*
G02*
X21960000Y44213750I0J218750D01*
G01*
X21960000Y44726250D01*
G75*
G02*
X22178750Y44945000I218750J0D01*
G01*
X22616250Y44945000D01*
G75*
G02*
X22835000Y44726250I0J-218750D01*
G01*
G37*
G36*
G01*
X21260000Y44726250D02*
X21260000Y44213750D01*
G75*
G02*
X21041250Y43995000I-218750J0D01*
G01*
X20603750Y43995000D01*
G75*
G02*
X20385000Y44213750I0J218750D01*
G01*
X20385000Y44726250D01*
G75*
G02*
X20603750Y44945000I218750J0D01*
G01*
X21041250Y44945000D01*
G75*
G02*
X21260000Y44726250I0J-218750D01*
G01*
G37*
G36*
G01*
X24540000Y38556250D02*
X24540000Y38043750D01*
G75*
G02*
X24321250Y37825000I-218750J0D01*
G01*
X23883750Y37825000D01*
G75*
G02*
X23665000Y38043750I0J218750D01*
G01*
X23665000Y38556250D01*
G75*
G02*
X23883750Y38775000I218750J0D01*
G01*
X24321250Y38775000D01*
G75*
G02*
X24540000Y38556250I0J-218750D01*
G01*
G37*
G36*
G01*
X26115000Y38556250D02*
X26115000Y38043750D01*
G75*
G02*
X25896250Y37825000I-218750J0D01*
G01*
X25458750Y37825000D01*
G75*
G02*
X25240000Y38043750I0J218750D01*
G01*
X25240000Y38556250D01*
G75*
G02*
X25458750Y38775000I218750J0D01*
G01*
X25896250Y38775000D01*
G75*
G02*
X26115000Y38556250I0J-218750D01*
G01*
G37*
G36*
G01*
X26885000Y38033750D02*
X26885000Y38546250D01*
G75*
G02*
X27103750Y38765000I218750J0D01*
G01*
X27541250Y38765000D01*
G75*
G02*
X27760000Y38546250I0J-218750D01*
G01*
X27760000Y38033750D01*
G75*
G02*
X27541250Y37815000I-218750J0D01*
G01*
X27103750Y37815000D01*
G75*
G02*
X26885000Y38033750I0J218750D01*
G01*
G37*
G36*
G01*
X28460000Y38033750D02*
X28460000Y38546250D01*
G75*
G02*
X28678750Y38765000I218750J0D01*
G01*
X29116250Y38765000D01*
G75*
G02*
X29335000Y38546250I0J-218750D01*
G01*
X29335000Y38033750D01*
G75*
G02*
X29116250Y37815000I-218750J0D01*
G01*
X28678750Y37815000D01*
G75*
G02*
X28460000Y38033750I0J218750D01*
G01*
G37*
G36*
G01*
X21375000Y39518750D02*
X21375000Y40031250D01*
G75*
G02*
X21593750Y40250000I218750J0D01*
G01*
X22031250Y40250000D01*
G75*
G02*
X22250000Y40031250I0J-218750D01*
G01*
X22250000Y39518750D01*
G75*
G02*
X22031250Y39300000I-218750J0D01*
G01*
X21593750Y39300000D01*
G75*
G02*
X21375000Y39518750I0J218750D01*
G01*
G37*
G36*
G01*
X19800000Y39518750D02*
X19800000Y40031250D01*
G75*
G02*
X20018750Y40250000I218750J0D01*
G01*
X20456250Y40250000D01*
G75*
G02*
X20675000Y40031250I0J-218750D01*
G01*
X20675000Y39518750D01*
G75*
G02*
X20456250Y39300000I-218750J0D01*
G01*
X20018750Y39300000D01*
G75*
G02*
X19800000Y39518750I0J218750D01*
G01*
G37*
G36*
G01*
X20395000Y37883750D02*
X20395000Y38396250D01*
G75*
G02*
X20613750Y38615000I218750J0D01*
G01*
X21051250Y38615000D01*
G75*
G02*
X21270000Y38396250I0J-218750D01*
G01*
X21270000Y37883750D01*
G75*
G02*
X21051250Y37665000I-218750J0D01*
G01*
X20613750Y37665000D01*
G75*
G02*
X20395000Y37883750I0J218750D01*
G01*
G37*
G36*
G01*
X21970000Y37883750D02*
X21970000Y38396250D01*
G75*
G02*
X22188750Y38615000I218750J0D01*
G01*
X22626250Y38615000D01*
G75*
G02*
X22845000Y38396250I0J-218750D01*
G01*
X22845000Y37883750D01*
G75*
G02*
X22626250Y37665000I-218750J0D01*
G01*
X22188750Y37665000D01*
G75*
G02*
X21970000Y37883750I0J218750D01*
G01*
G37*
D11*
X30500000Y18950000D03*
X30500000Y21050000D03*
D21*
X1320000Y26610000D03*
X3320000Y27260000D03*
X3320000Y25960000D03*
G36*
G01*
X19693750Y15650000D02*
X20206250Y15650000D01*
G75*
G02*
X20425000Y15431250I0J-218750D01*
G01*
X20425000Y14993750D01*
G75*
G02*
X20206250Y14775000I-218750J0D01*
G01*
X19693750Y14775000D01*
G75*
G02*
X19475000Y14993750I0J218750D01*
G01*
X19475000Y15431250D01*
G75*
G02*
X19693750Y15650000I218750J0D01*
G01*
G37*
G36*
G01*
X19693750Y17225000D02*
X20206250Y17225000D01*
G75*
G02*
X20425000Y17006250I0J-218750D01*
G01*
X20425000Y16568750D01*
G75*
G02*
X20206250Y16350000I-218750J0D01*
G01*
X19693750Y16350000D01*
G75*
G02*
X19475000Y16568750I0J218750D01*
G01*
X19475000Y17006250D01*
G75*
G02*
X19693750Y17225000I218750J0D01*
G01*
G37*
G36*
G01*
X6725000Y40756250D02*
X6725000Y40243750D01*
G75*
G02*
X6506250Y40025000I-218750J0D01*
G01*
X6068750Y40025000D01*
G75*
G02*
X5850000Y40243750I0J218750D01*
G01*
X5850000Y40756250D01*
G75*
G02*
X6068750Y40975000I218750J0D01*
G01*
X6506250Y40975000D01*
G75*
G02*
X6725000Y40756250I0J-218750D01*
G01*
G37*
G36*
G01*
X5150000Y40756250D02*
X5150000Y40243750D01*
G75*
G02*
X4931250Y40025000I-218750J0D01*
G01*
X4493750Y40025000D01*
G75*
G02*
X4275000Y40243750I0J218750D01*
G01*
X4275000Y40756250D01*
G75*
G02*
X4493750Y40975000I218750J0D01*
G01*
X4931250Y40975000D01*
G75*
G02*
X5150000Y40756250I0J-218750D01*
G01*
G37*
G36*
G01*
X21343750Y15650000D02*
X21856250Y15650000D01*
G75*
G02*
X22075000Y15431250I0J-218750D01*
G01*
X22075000Y14993750D01*
G75*
G02*
X21856250Y14775000I-218750J0D01*
G01*
X21343750Y14775000D01*
G75*
G02*
X21125000Y14993750I0J218750D01*
G01*
X21125000Y15431250D01*
G75*
G02*
X21343750Y15650000I218750J0D01*
G01*
G37*
G36*
G01*
X21343750Y17225000D02*
X21856250Y17225000D01*
G75*
G02*
X22075000Y17006250I0J-218750D01*
G01*
X22075000Y16568750D01*
G75*
G02*
X21856250Y16350000I-218750J0D01*
G01*
X21343750Y16350000D01*
G75*
G02*
X21125000Y16568750I0J218750D01*
G01*
X21125000Y17006250D01*
G75*
G02*
X21343750Y17225000I218750J0D01*
G01*
G37*
G36*
G01*
X4693750Y29165000D02*
X5206250Y29165000D01*
G75*
G02*
X5425000Y28946250I0J-218750D01*
G01*
X5425000Y28508750D01*
G75*
G02*
X5206250Y28290000I-218750J0D01*
G01*
X4693750Y28290000D01*
G75*
G02*
X4475000Y28508750I0J218750D01*
G01*
X4475000Y28946250D01*
G75*
G02*
X4693750Y29165000I218750J0D01*
G01*
G37*
G36*
G01*
X4693750Y27590000D02*
X5206250Y27590000D01*
G75*
G02*
X5425000Y27371250I0J-218750D01*
G01*
X5425000Y26933750D01*
G75*
G02*
X5206250Y26715000I-218750J0D01*
G01*
X4693750Y26715000D01*
G75*
G02*
X4475000Y26933750I0J218750D01*
G01*
X4475000Y27371250D01*
G75*
G02*
X4693750Y27590000I218750J0D01*
G01*
G37*
G36*
G01*
X2670000Y31283750D02*
X2670000Y31796250D01*
G75*
G02*
X2888750Y32015000I218750J0D01*
G01*
X3326250Y32015000D01*
G75*
G02*
X3545000Y31796250I0J-218750D01*
G01*
X3545000Y31283750D01*
G75*
G02*
X3326250Y31065000I-218750J0D01*
G01*
X2888750Y31065000D01*
G75*
G02*
X2670000Y31283750I0J218750D01*
G01*
G37*
G36*
G01*
X1095000Y31283750D02*
X1095000Y31796250D01*
G75*
G02*
X1313750Y32015000I218750J0D01*
G01*
X1751250Y32015000D01*
G75*
G02*
X1970000Y31796250I0J-218750D01*
G01*
X1970000Y31283750D01*
G75*
G02*
X1751250Y31065000I-218750J0D01*
G01*
X1313750Y31065000D01*
G75*
G02*
X1095000Y31283750I0J218750D01*
G01*
G37*
G36*
G01*
X32756250Y20775000D02*
X32243750Y20775000D01*
G75*
G02*
X32025000Y20993750I0J218750D01*
G01*
X32025000Y21431250D01*
G75*
G02*
X32243750Y21650000I218750J0D01*
G01*
X32756250Y21650000D01*
G75*
G02*
X32975000Y21431250I0J-218750D01*
G01*
X32975000Y20993750D01*
G75*
G02*
X32756250Y20775000I-218750J0D01*
G01*
G37*
G36*
G01*
X32756250Y22350000D02*
X32243750Y22350000D01*
G75*
G02*
X32025000Y22568750I0J218750D01*
G01*
X32025000Y23006250D01*
G75*
G02*
X32243750Y23225000I218750J0D01*
G01*
X32756250Y23225000D01*
G75*
G02*
X32975000Y23006250I0J-218750D01*
G01*
X32975000Y22568750D01*
G75*
G02*
X32756250Y22350000I-218750J0D01*
G01*
G37*
G36*
G01*
X5326250Y19860000D02*
X4813750Y19860000D01*
G75*
G02*
X4595000Y20078750I0J218750D01*
G01*
X4595000Y20516250D01*
G75*
G02*
X4813750Y20735000I218750J0D01*
G01*
X5326250Y20735000D01*
G75*
G02*
X5545000Y20516250I0J-218750D01*
G01*
X5545000Y20078750D01*
G75*
G02*
X5326250Y19860000I-218750J0D01*
G01*
G37*
G36*
G01*
X5326250Y18285000D02*
X4813750Y18285000D01*
G75*
G02*
X4595000Y18503750I0J218750D01*
G01*
X4595000Y18941250D01*
G75*
G02*
X4813750Y19160000I218750J0D01*
G01*
X5326250Y19160000D01*
G75*
G02*
X5545000Y18941250I0J-218750D01*
G01*
X5545000Y18503750D01*
G75*
G02*
X5326250Y18285000I-218750J0D01*
G01*
G37*
G36*
G01*
X7533750Y20675000D02*
X8046250Y20675000D01*
G75*
G02*
X8265000Y20456250I0J-218750D01*
G01*
X8265000Y20018750D01*
G75*
G02*
X8046250Y19800000I-218750J0D01*
G01*
X7533750Y19800000D01*
G75*
G02*
X7315000Y20018750I0J218750D01*
G01*
X7315000Y20456250D01*
G75*
G02*
X7533750Y20675000I218750J0D01*
G01*
G37*
G36*
G01*
X7533750Y19100000D02*
X8046250Y19100000D01*
G75*
G02*
X8265000Y18881250I0J-218750D01*
G01*
X8265000Y18443750D01*
G75*
G02*
X8046250Y18225000I-218750J0D01*
G01*
X7533750Y18225000D01*
G75*
G02*
X7315000Y18443750I0J218750D01*
G01*
X7315000Y18881250D01*
G75*
G02*
X7533750Y19100000I218750J0D01*
G01*
G37*
G36*
G01*
X1135000Y22023750D02*
X1135000Y22536250D01*
G75*
G02*
X1353750Y22755000I218750J0D01*
G01*
X1791250Y22755000D01*
G75*
G02*
X2010000Y22536250I0J-218750D01*
G01*
X2010000Y22023750D01*
G75*
G02*
X1791250Y21805000I-218750J0D01*
G01*
X1353750Y21805000D01*
G75*
G02*
X1135000Y22023750I0J218750D01*
G01*
G37*
G36*
G01*
X2710000Y22023750D02*
X2710000Y22536250D01*
G75*
G02*
X2928750Y22755000I218750J0D01*
G01*
X3366250Y22755000D01*
G75*
G02*
X3585000Y22536250I0J-218750D01*
G01*
X3585000Y22023750D01*
G75*
G02*
X3366250Y21805000I-218750J0D01*
G01*
X2928750Y21805000D01*
G75*
G02*
X2710000Y22023750I0J218750D01*
G01*
G37*
G36*
G01*
X4845000Y25303750D02*
X4845000Y25816250D01*
G75*
G02*
X5063750Y26035000I218750J0D01*
G01*
X5501250Y26035000D01*
G75*
G02*
X5720000Y25816250I0J-218750D01*
G01*
X5720000Y25303750D01*
G75*
G02*
X5501250Y25085000I-218750J0D01*
G01*
X5063750Y25085000D01*
G75*
G02*
X4845000Y25303750I0J218750D01*
G01*
G37*
G36*
G01*
X6420000Y25303750D02*
X6420000Y25816250D01*
G75*
G02*
X6638750Y26035000I218750J0D01*
G01*
X7076250Y26035000D01*
G75*
G02*
X7295000Y25816250I0J-218750D01*
G01*
X7295000Y25303750D01*
G75*
G02*
X7076250Y25085000I-218750J0D01*
G01*
X6638750Y25085000D01*
G75*
G02*
X6420000Y25303750I0J218750D01*
G01*
G37*
G36*
G01*
X31950000Y38143750D02*
X31950000Y38656250D01*
G75*
G02*
X32168750Y38875000I218750J0D01*
G01*
X32606250Y38875000D01*
G75*
G02*
X32825000Y38656250I0J-218750D01*
G01*
X32825000Y38143750D01*
G75*
G02*
X32606250Y37925000I-218750J0D01*
G01*
X32168750Y37925000D01*
G75*
G02*
X31950000Y38143750I0J218750D01*
G01*
G37*
G36*
G01*
X30375000Y38143750D02*
X30375000Y38656250D01*
G75*
G02*
X30593750Y38875000I218750J0D01*
G01*
X31031250Y38875000D01*
G75*
G02*
X31250000Y38656250I0J-218750D01*
G01*
X31250000Y38143750D01*
G75*
G02*
X31031250Y37925000I-218750J0D01*
G01*
X30593750Y37925000D01*
G75*
G02*
X30375000Y38143750I0J218750D01*
G01*
G37*
G36*
G01*
X34275000Y21493750D02*
X34275000Y22006250D01*
G75*
G02*
X34493750Y22225000I218750J0D01*
G01*
X34931250Y22225000D01*
G75*
G02*
X35150000Y22006250I0J-218750D01*
G01*
X35150000Y21493750D01*
G75*
G02*
X34931250Y21275000I-218750J0D01*
G01*
X34493750Y21275000D01*
G75*
G02*
X34275000Y21493750I0J218750D01*
G01*
G37*
G36*
G01*
X35850000Y21493750D02*
X35850000Y22006250D01*
G75*
G02*
X36068750Y22225000I218750J0D01*
G01*
X36506250Y22225000D01*
G75*
G02*
X36725000Y22006250I0J-218750D01*
G01*
X36725000Y21493750D01*
G75*
G02*
X36506250Y21275000I-218750J0D01*
G01*
X36068750Y21275000D01*
G75*
G02*
X35850000Y21493750I0J218750D01*
G01*
G37*
D22*
X41000000Y48175000D03*
X45000000Y48175000D03*
D10*
X43525000Y50975000D03*
X44925000Y50975000D03*
X51140000Y42960000D03*
X49740000Y42960000D03*
D23*
X16750000Y49320000D03*
X15250000Y49320000D03*
X12250000Y49320000D03*
X10750000Y49320000D03*
D24*
X18900000Y52180000D03*
X8600000Y52180000D03*
X8600000Y49970000D03*
X18900000Y49970000D03*
D25*
X8630000Y43930000D03*
X8630000Y45530000D03*
X4530000Y43930000D03*
X4530000Y45530000D03*
G36*
G01*
X10437500Y17106250D02*
X10437500Y16593750D01*
G75*
G02*
X10218750Y16375000I-218750J0D01*
G01*
X9781250Y16375000D01*
G75*
G02*
X9562500Y16593750I0J218750D01*
G01*
X9562500Y17106250D01*
G75*
G02*
X9781250Y17325000I218750J0D01*
G01*
X10218750Y17325000D01*
G75*
G02*
X10437500Y17106250I0J-218750D01*
G01*
G37*
G36*
G01*
X12012500Y17106250D02*
X12012500Y16593750D01*
G75*
G02*
X11793750Y16375000I-218750J0D01*
G01*
X11356250Y16375000D01*
G75*
G02*
X11137500Y16593750I0J218750D01*
G01*
X11137500Y17106250D01*
G75*
G02*
X11356250Y17325000I218750J0D01*
G01*
X11793750Y17325000D01*
G75*
G02*
X12012500Y17106250I0J-218750D01*
G01*
G37*
G36*
G01*
X30625000Y30343750D02*
X30625000Y30856250D01*
G75*
G02*
X30843750Y31075000I218750J0D01*
G01*
X31281250Y31075000D01*
G75*
G02*
X31500000Y30856250I0J-218750D01*
G01*
X31500000Y30343750D01*
G75*
G02*
X31281250Y30125000I-218750J0D01*
G01*
X30843750Y30125000D01*
G75*
G02*
X30625000Y30343750I0J218750D01*
G01*
G37*
G36*
G01*
X32200000Y30343750D02*
X32200000Y30856250D01*
G75*
G02*
X32418750Y31075000I218750J0D01*
G01*
X32856250Y31075000D01*
G75*
G02*
X33075000Y30856250I0J-218750D01*
G01*
X33075000Y30343750D01*
G75*
G02*
X32856250Y30125000I-218750J0D01*
G01*
X32418750Y30125000D01*
G75*
G02*
X32200000Y30343750I0J218750D01*
G01*
G37*
G36*
G01*
X40900000Y51256250D02*
X40900000Y50743750D01*
G75*
G02*
X40681250Y50525000I-218750J0D01*
G01*
X40243750Y50525000D01*
G75*
G02*
X40025000Y50743750I0J218750D01*
G01*
X40025000Y51256250D01*
G75*
G02*
X40243750Y51475000I218750J0D01*
G01*
X40681250Y51475000D01*
G75*
G02*
X40900000Y51256250I0J-218750D01*
G01*
G37*
G36*
G01*
X42475000Y51256250D02*
X42475000Y50743750D01*
G75*
G02*
X42256250Y50525000I-218750J0D01*
G01*
X41818750Y50525000D01*
G75*
G02*
X41600000Y50743750I0J218750D01*
G01*
X41600000Y51256250D01*
G75*
G02*
X41818750Y51475000I218750J0D01*
G01*
X42256250Y51475000D01*
G75*
G02*
X42475000Y51256250I0J-218750D01*
G01*
G37*
G36*
G01*
X32243750Y40500000D02*
X32756250Y40500000D01*
G75*
G02*
X32975000Y40281250I0J-218750D01*
G01*
X32975000Y39843750D01*
G75*
G02*
X32756250Y39625000I-218750J0D01*
G01*
X32243750Y39625000D01*
G75*
G02*
X32025000Y39843750I0J218750D01*
G01*
X32025000Y40281250D01*
G75*
G02*
X32243750Y40500000I218750J0D01*
G01*
G37*
G36*
G01*
X32243750Y42075000D02*
X32756250Y42075000D01*
G75*
G02*
X32975000Y41856250I0J-218750D01*
G01*
X32975000Y41418750D01*
G75*
G02*
X32756250Y41200000I-218750J0D01*
G01*
X32243750Y41200000D01*
G75*
G02*
X32025000Y41418750I0J218750D01*
G01*
X32025000Y41856250D01*
G75*
G02*
X32243750Y42075000I218750J0D01*
G01*
G37*
G36*
G01*
X22300000Y41566250D02*
X22300000Y41053750D01*
G75*
G02*
X22081250Y40835000I-218750J0D01*
G01*
X21643750Y40835000D01*
G75*
G02*
X21425000Y41053750I0J218750D01*
G01*
X21425000Y41566250D01*
G75*
G02*
X21643750Y41785000I218750J0D01*
G01*
X22081250Y41785000D01*
G75*
G02*
X22300000Y41566250I0J-218750D01*
G01*
G37*
G36*
G01*
X20725000Y41566250D02*
X20725000Y41053750D01*
G75*
G02*
X20506250Y40835000I-218750J0D01*
G01*
X20068750Y40835000D01*
G75*
G02*
X19850000Y41053750I0J218750D01*
G01*
X19850000Y41566250D01*
G75*
G02*
X20068750Y41785000I218750J0D01*
G01*
X20506250Y41785000D01*
G75*
G02*
X20725000Y41566250I0J-218750D01*
G01*
G37*
G36*
G01*
X32756250Y44450000D02*
X32243750Y44450000D01*
G75*
G02*
X32025000Y44668750I0J218750D01*
G01*
X32025000Y45106250D01*
G75*
G02*
X32243750Y45325000I218750J0D01*
G01*
X32756250Y45325000D01*
G75*
G02*
X32975000Y45106250I0J-218750D01*
G01*
X32975000Y44668750D01*
G75*
G02*
X32756250Y44450000I-218750J0D01*
G01*
G37*
G36*
G01*
X32756250Y42875000D02*
X32243750Y42875000D01*
G75*
G02*
X32025000Y43093750I0J218750D01*
G01*
X32025000Y43531250D01*
G75*
G02*
X32243750Y43750000I218750J0D01*
G01*
X32756250Y43750000D01*
G75*
G02*
X32975000Y43531250I0J-218750D01*
G01*
X32975000Y43093750D01*
G75*
G02*
X32756250Y42875000I-218750J0D01*
G01*
G37*
G36*
G01*
X22825000Y43156250D02*
X22825000Y42643750D01*
G75*
G02*
X22606250Y42425000I-218750J0D01*
G01*
X22168750Y42425000D01*
G75*
G02*
X21950000Y42643750I0J218750D01*
G01*
X21950000Y43156250D01*
G75*
G02*
X22168750Y43375000I218750J0D01*
G01*
X22606250Y43375000D01*
G75*
G02*
X22825000Y43156250I0J-218750D01*
G01*
G37*
G36*
G01*
X21250000Y43156250D02*
X21250000Y42643750D01*
G75*
G02*
X21031250Y42425000I-218750J0D01*
G01*
X20593750Y42425000D01*
G75*
G02*
X20375000Y42643750I0J218750D01*
G01*
X20375000Y43156250D01*
G75*
G02*
X20593750Y43375000I218750J0D01*
G01*
X21031250Y43375000D01*
G75*
G02*
X21250000Y43156250I0J-218750D01*
G01*
G37*
G36*
G01*
X35756250Y55925000D02*
X34843750Y55925000D01*
G75*
G02*
X34600000Y56168750I0J243750D01*
G01*
X34600000Y56656250D01*
G75*
G02*
X34843750Y56900000I243750J0D01*
G01*
X35756250Y56900000D01*
G75*
G02*
X36000000Y56656250I0J-243750D01*
G01*
X36000000Y56168750D01*
G75*
G02*
X35756250Y55925000I-243750J0D01*
G01*
G37*
G36*
G01*
X35756250Y54050000D02*
X34843750Y54050000D01*
G75*
G02*
X34600000Y54293750I0J243750D01*
G01*
X34600000Y54781250D01*
G75*
G02*
X34843750Y55025000I243750J0D01*
G01*
X35756250Y55025000D01*
G75*
G02*
X36000000Y54781250I0J-243750D01*
G01*
X36000000Y54293750D01*
G75*
G02*
X35756250Y54050000I-243750J0D01*
G01*
G37*
G36*
G01*
X37875000Y47250000D02*
X37875000Y46000000D01*
G75*
G02*
X37625000Y45750000I-250000J0D01*
G01*
X36875000Y45750000D01*
G75*
G02*
X36625000Y46000000I0J250000D01*
G01*
X36625000Y47250000D01*
G75*
G02*
X36875000Y47500000I250000J0D01*
G01*
X37625000Y47500000D01*
G75*
G02*
X37875000Y47250000I0J-250000D01*
G01*
G37*
G36*
G01*
X35075000Y47250000D02*
X35075000Y46000000D01*
G75*
G02*
X34825000Y45750000I-250000J0D01*
G01*
X34075000Y45750000D01*
G75*
G02*
X33825000Y46000000I0J250000D01*
G01*
X33825000Y47250000D01*
G75*
G02*
X34075000Y47500000I250000J0D01*
G01*
X34825000Y47500000D01*
G75*
G02*
X35075000Y47250000I0J-250000D01*
G01*
G37*
G36*
G01*
X35075000Y44750000D02*
X35075000Y43500000D01*
G75*
G02*
X34825000Y43250000I-250000J0D01*
G01*
X34075000Y43250000D01*
G75*
G02*
X33825000Y43500000I0J250000D01*
G01*
X33825000Y44750000D01*
G75*
G02*
X34075000Y45000000I250000J0D01*
G01*
X34825000Y45000000D01*
G75*
G02*
X35075000Y44750000I0J-250000D01*
G01*
G37*
G36*
G01*
X37875000Y44750000D02*
X37875000Y43500000D01*
G75*
G02*
X37625000Y43250000I-250000J0D01*
G01*
X36875000Y43250000D01*
G75*
G02*
X36625000Y43500000I0J250000D01*
G01*
X36625000Y44750000D01*
G75*
G02*
X36875000Y45000000I250000J0D01*
G01*
X37625000Y45000000D01*
G75*
G02*
X37875000Y44750000I0J-250000D01*
G01*
G37*
D26*
X52800000Y42800000D03*
X54900000Y42800000D03*
G36*
G01*
X19350000Y56506250D02*
X19350000Y55993750D01*
G75*
G02*
X19131250Y55775000I-218750J0D01*
G01*
X18693750Y55775000D01*
G75*
G02*
X18475000Y55993750I0J218750D01*
G01*
X18475000Y56506250D01*
G75*
G02*
X18693750Y56725000I218750J0D01*
G01*
X19131250Y56725000D01*
G75*
G02*
X19350000Y56506250I0J-218750D01*
G01*
G37*
G36*
G01*
X20925000Y56506250D02*
X20925000Y55993750D01*
G75*
G02*
X20706250Y55775000I-218750J0D01*
G01*
X20268750Y55775000D01*
G75*
G02*
X20050000Y55993750I0J218750D01*
G01*
X20050000Y56506250D01*
G75*
G02*
X20268750Y56725000I218750J0D01*
G01*
X20706250Y56725000D01*
G75*
G02*
X20925000Y56506250I0J-218750D01*
G01*
G37*
G36*
G01*
X15125000Y56506250D02*
X15125000Y55993750D01*
G75*
G02*
X14906250Y55775000I-218750J0D01*
G01*
X14468750Y55775000D01*
G75*
G02*
X14250000Y55993750I0J218750D01*
G01*
X14250000Y56506250D01*
G75*
G02*
X14468750Y56725000I218750J0D01*
G01*
X14906250Y56725000D01*
G75*
G02*
X15125000Y56506250I0J-218750D01*
G01*
G37*
G36*
G01*
X13550000Y56506250D02*
X13550000Y55993750D01*
G75*
G02*
X13331250Y55775000I-218750J0D01*
G01*
X12893750Y55775000D01*
G75*
G02*
X12675000Y55993750I0J218750D01*
G01*
X12675000Y56506250D01*
G75*
G02*
X12893750Y56725000I218750J0D01*
G01*
X13331250Y56725000D01*
G75*
G02*
X13550000Y56506250I0J-218750D01*
G01*
G37*
G36*
G01*
X16450000Y56506250D02*
X16450000Y55993750D01*
G75*
G02*
X16231250Y55775000I-218750J0D01*
G01*
X15793750Y55775000D01*
G75*
G02*
X15575000Y55993750I0J218750D01*
G01*
X15575000Y56506250D01*
G75*
G02*
X15793750Y56725000I218750J0D01*
G01*
X16231250Y56725000D01*
G75*
G02*
X16450000Y56506250I0J-218750D01*
G01*
G37*
G36*
G01*
X18025000Y56506250D02*
X18025000Y55993750D01*
G75*
G02*
X17806250Y55775000I-218750J0D01*
G01*
X17368750Y55775000D01*
G75*
G02*
X17150000Y55993750I0J218750D01*
G01*
X17150000Y56506250D01*
G75*
G02*
X17368750Y56725000I218750J0D01*
G01*
X17806250Y56725000D01*
G75*
G02*
X18025000Y56506250I0J-218750D01*
G01*
G37*
G36*
G01*
X6425000Y56506250D02*
X6425000Y55993750D01*
G75*
G02*
X6206250Y55775000I-218750J0D01*
G01*
X5768750Y55775000D01*
G75*
G02*
X5550000Y55993750I0J218750D01*
G01*
X5550000Y56506250D01*
G75*
G02*
X5768750Y56725000I218750J0D01*
G01*
X6206250Y56725000D01*
G75*
G02*
X6425000Y56506250I0J-218750D01*
G01*
G37*
G36*
G01*
X4850000Y56506250D02*
X4850000Y55993750D01*
G75*
G02*
X4631250Y55775000I-218750J0D01*
G01*
X4193750Y55775000D01*
G75*
G02*
X3975000Y55993750I0J218750D01*
G01*
X3975000Y56506250D01*
G75*
G02*
X4193750Y56725000I218750J0D01*
G01*
X4631250Y56725000D01*
G75*
G02*
X4850000Y56506250I0J-218750D01*
G01*
G37*
G36*
G01*
X12225000Y56506250D02*
X12225000Y55993750D01*
G75*
G02*
X12006250Y55775000I-218750J0D01*
G01*
X11568750Y55775000D01*
G75*
G02*
X11350000Y55993750I0J218750D01*
G01*
X11350000Y56506250D01*
G75*
G02*
X11568750Y56725000I218750J0D01*
G01*
X12006250Y56725000D01*
G75*
G02*
X12225000Y56506250I0J-218750D01*
G01*
G37*
G36*
G01*
X10650000Y56506250D02*
X10650000Y55993750D01*
G75*
G02*
X10431250Y55775000I-218750J0D01*
G01*
X9993750Y55775000D01*
G75*
G02*
X9775000Y55993750I0J218750D01*
G01*
X9775000Y56506250D01*
G75*
G02*
X9993750Y56725000I218750J0D01*
G01*
X10431250Y56725000D01*
G75*
G02*
X10650000Y56506250I0J-218750D01*
G01*
G37*
D27*
X36600000Y32295000D03*
X36600000Y33565000D03*
X36600000Y34835000D03*
X36600000Y36105000D03*
X31200000Y36105000D03*
X31200000Y34835000D03*
X31200000Y33565000D03*
X31200000Y32295000D03*
D28*
X24550000Y45775000D03*
X24550000Y45125000D03*
X24550000Y44475000D03*
X24550000Y43825000D03*
X24550000Y43175000D03*
X24550000Y42525000D03*
X24550000Y41875000D03*
X24550000Y41225000D03*
X24550000Y40575000D03*
X24550000Y39925000D03*
X30450000Y39925000D03*
X30450000Y40575000D03*
X30450000Y41225000D03*
X30450000Y41875000D03*
X30450000Y42525000D03*
X30450000Y43175000D03*
X30450000Y43825000D03*
X30450000Y44475000D03*
X30450000Y45125000D03*
X30450000Y45775000D03*
D29*
X42650000Y52750000D03*
X42650000Y53700000D03*
X42650000Y54650000D03*
X40450000Y54650000D03*
X40450000Y52750000D03*
X40450000Y53700000D03*
G36*
G01*
X52625000Y40543750D02*
X52625000Y41056250D01*
G75*
G02*
X52843750Y41275000I218750J0D01*
G01*
X53281250Y41275000D01*
G75*
G02*
X53500000Y41056250I0J-218750D01*
G01*
X53500000Y40543750D01*
G75*
G02*
X53281250Y40325000I-218750J0D01*
G01*
X52843750Y40325000D01*
G75*
G02*
X52625000Y40543750I0J218750D01*
G01*
G37*
G36*
G01*
X54200000Y40543750D02*
X54200000Y41056250D01*
G75*
G02*
X54418750Y41275000I218750J0D01*
G01*
X54856250Y41275000D01*
G75*
G02*
X55075000Y41056250I0J-218750D01*
G01*
X55075000Y40543750D01*
G75*
G02*
X54856250Y40325000I-218750J0D01*
G01*
X54418750Y40325000D01*
G75*
G02*
X54200000Y40543750I0J218750D01*
G01*
G37*
G36*
G01*
X48646250Y44010000D02*
X48133750Y44010000D01*
G75*
G02*
X47915000Y44228750I0J218750D01*
G01*
X47915000Y44666250D01*
G75*
G02*
X48133750Y44885000I218750J0D01*
G01*
X48646250Y44885000D01*
G75*
G02*
X48865000Y44666250I0J-218750D01*
G01*
X48865000Y44228750D01*
G75*
G02*
X48646250Y44010000I-218750J0D01*
G01*
G37*
G36*
G01*
X48646250Y42435000D02*
X48133750Y42435000D01*
G75*
G02*
X47915000Y42653750I0J218750D01*
G01*
X47915000Y43091250D01*
G75*
G02*
X48133750Y43310000I218750J0D01*
G01*
X48646250Y43310000D01*
G75*
G02*
X48865000Y43091250I0J-218750D01*
G01*
X48865000Y42653750D01*
G75*
G02*
X48646250Y42435000I-218750J0D01*
G01*
G37*
G36*
G01*
X33036250Y24565000D02*
X32523750Y24565000D01*
G75*
G02*
X32305000Y24783750I0J218750D01*
G01*
X32305000Y25221250D01*
G75*
G02*
X32523750Y25440000I218750J0D01*
G01*
X33036250Y25440000D01*
G75*
G02*
X33255000Y25221250I0J-218750D01*
G01*
X33255000Y24783750D01*
G75*
G02*
X33036250Y24565000I-218750J0D01*
G01*
G37*
G36*
G01*
X33036250Y26140000D02*
X32523750Y26140000D01*
G75*
G02*
X32305000Y26358750I0J218750D01*
G01*
X32305000Y26796250D01*
G75*
G02*
X32523750Y27015000I218750J0D01*
G01*
X33036250Y27015000D01*
G75*
G02*
X33255000Y26796250I0J-218750D01*
G01*
X33255000Y26358750D01*
G75*
G02*
X33036250Y26140000I-218750J0D01*
G01*
G37*
G36*
G01*
X32756250Y17737500D02*
X32243750Y17737500D01*
G75*
G02*
X32025000Y17956250I0J218750D01*
G01*
X32025000Y18393750D01*
G75*
G02*
X32243750Y18612500I218750J0D01*
G01*
X32756250Y18612500D01*
G75*
G02*
X32975000Y18393750I0J-218750D01*
G01*
X32975000Y17956250D01*
G75*
G02*
X32756250Y17737500I-218750J0D01*
G01*
G37*
G36*
G01*
X32756250Y19312500D02*
X32243750Y19312500D01*
G75*
G02*
X32025000Y19531250I0J218750D01*
G01*
X32025000Y19968750D01*
G75*
G02*
X32243750Y20187500I218750J0D01*
G01*
X32756250Y20187500D01*
G75*
G02*
X32975000Y19968750I0J-218750D01*
G01*
X32975000Y19531250D01*
G75*
G02*
X32756250Y19312500I-218750J0D01*
G01*
G37*
G36*
G01*
X38275000Y40706250D02*
X38275000Y40193750D01*
G75*
G02*
X38056250Y39975000I-218750J0D01*
G01*
X37618750Y39975000D01*
G75*
G02*
X37400000Y40193750I0J218750D01*
G01*
X37400000Y40706250D01*
G75*
G02*
X37618750Y40925000I218750J0D01*
G01*
X38056250Y40925000D01*
G75*
G02*
X38275000Y40706250I0J-218750D01*
G01*
G37*
G36*
G01*
X36700000Y40706250D02*
X36700000Y40193750D01*
G75*
G02*
X36481250Y39975000I-218750J0D01*
G01*
X36043750Y39975000D01*
G75*
G02*
X35825000Y40193750I0J218750D01*
G01*
X35825000Y40706250D01*
G75*
G02*
X36043750Y40925000I218750J0D01*
G01*
X36481250Y40925000D01*
G75*
G02*
X36700000Y40706250I0J-218750D01*
G01*
G37*
G36*
G01*
X35825000Y41693750D02*
X35825000Y42206250D01*
G75*
G02*
X36043750Y42425000I218750J0D01*
G01*
X36481250Y42425000D01*
G75*
G02*
X36700000Y42206250I0J-218750D01*
G01*
X36700000Y41693750D01*
G75*
G02*
X36481250Y41475000I-218750J0D01*
G01*
X36043750Y41475000D01*
G75*
G02*
X35825000Y41693750I0J218750D01*
G01*
G37*
G36*
G01*
X37400000Y41693750D02*
X37400000Y42206250D01*
G75*
G02*
X37618750Y42425000I218750J0D01*
G01*
X38056250Y42425000D01*
G75*
G02*
X38275000Y42206250I0J-218750D01*
G01*
X38275000Y41693750D01*
G75*
G02*
X38056250Y41475000I-218750J0D01*
G01*
X37618750Y41475000D01*
G75*
G02*
X37400000Y41693750I0J218750D01*
G01*
G37*
D22*
X54750000Y7500000D03*
X50750000Y7500000D03*
G36*
G01*
X55450000Y12700003D02*
X55450000Y9799997D01*
G75*
G02*
X55200003Y9550000I-249997J0D01*
G01*
X54574997Y9550000D01*
G75*
G02*
X54325000Y9799997I0J249997D01*
G01*
X54325000Y12700003D01*
G75*
G02*
X54574997Y12950000I249997J0D01*
G01*
X55200003Y12950000D01*
G75*
G02*
X55450000Y12700003I0J-249997D01*
G01*
G37*
G36*
G01*
X51175000Y12700003D02*
X51175000Y9799997D01*
G75*
G02*
X50925003Y9550000I-249997J0D01*
G01*
X50299997Y9550000D01*
G75*
G02*
X50050000Y9799997I0J249997D01*
G01*
X50050000Y12700003D01*
G75*
G02*
X50299997Y12950000I249997J0D01*
G01*
X50925003Y12950000D01*
G75*
G02*
X51175000Y12700003I0J-249997D01*
G01*
G37*
M02*
