M48
; DRILL file {KiCad 5.1.10} date Mon Sep 13 08:23:14 2021
; FORMAT={-:-/ absolute / metric / decimal}
; #@! TF.CreationDate,2021-09-13T08:23:14+02:00
; #@! TF.GenerationSoftware,Kicad,Pcbnew,5.1.10
; #@! TF.FileFunction,Plated,1,4,PTH
FMAT,2
METRIC
T1C0.300
T2C0.800
T3C0.900
T4C0.990
T5C1.000
T6C1.199
T7C1.200
T8C1.300
T9C1.999
T10C2.100
%
G90
G05
T1
X1.3Y28.675
X1.625Y23.475
X2.05Y26.275
X2.35Y21.45
X2.9Y49.35
X3.075Y44.075
X3.425Y46.8
X3.55Y51.6
X4.05Y24.5
X4.175Y49.725
X5.2Y31.4
X5.825Y45.725
X6.15Y54.2
X6.325Y27.625
X6.75Y30.5
X7.05Y43.2
X7.25Y54.775
X7.625Y39.025
X7.85Y9.825
X7.925Y21.3
X8.875Y25.2
X9.0Y15.5
X9.025Y47.3
X9.4Y19.575
X9.525Y26.625
X9.675Y38.2
X10.725Y15.175
X11.4Y27.25
X11.75Y54.775
X11.875Y34.15
X12.375Y21.825
X13.05Y23.475
X13.05Y20.625
X13.1Y34.15
X13.5Y9.25
X13.5Y7.75
X13.5Y6.25
X13.575Y50.325
X13.925Y48.925
X14.425Y37.6
X14.75Y31.5
X14.75Y26.75
X14.75Y22.5
X16.05Y55.175
X16.325Y38.325
X16.8Y48.125
X16.85Y20.825
X17.0Y31.5
X17.225Y53.05
X18.025Y21.525
X18.107Y52.921
X18.275Y47.275
X18.275Y41.225
X18.675Y54.45
X19.025Y20.55
X19.225Y38.15
X19.25Y53.625
X19.55Y55.175
X19.55Y40.6
X19.825Y43.75
X19.9Y38.75
X20.25Y31.5
X20.25Y22.5
X20.9Y20.725
X21.925Y56.125
X22.325Y22.6
X23.0Y31.5
X23.0Y26.75
X23.15Y46.925
X23.15Y21.975
X23.425Y34.4
X24.45Y46.55
X24.575Y34.375
X24.575Y22.55
X25.298Y26.05
X25.35Y31.875
X25.568Y53.707
X25.625Y25.375
X25.8Y34.375
X25.875Y23.125
X25.975Y44.225
X26.05Y45.15
X26.25Y43.05
X26.25Y43.05
X26.275Y39.475
X26.4Y29.0
X27.075Y40.475
X27.125Y34.375
X27.4Y53.075
X27.558Y39.279
X27.97Y45.95
X28.65Y44.425
X29.066Y43.801
X29.1Y40.725
X29.95Y37.625
X31.175Y24.925
X31.25Y37.625
X31.3Y19.925
X32.7Y35.525
X32.825Y28.775
X32.829Y34.375
X33.25Y55.25
X33.4Y56.3
X33.775Y22.7
X34.806Y37.0
X35.175Y36.075
X35.175Y32.0
X35.25Y34.75
X36.2Y7.6
X36.675Y17.875
X37.3Y30.375
X37.325Y22.6
X37.35Y19.125
X37.575Y27.675
X38.1Y9.5
X38.724Y9.084
X38.925Y55.75
X39.075Y45.725
X39.1Y53.7
X39.575Y25.975
X40.725Y26.225
X41.5Y54.7
X42.0Y5.0
X42.0Y3.75
X42.0Y2.25
X42.3Y16.2
X42.4Y36.8
X42.425Y31.075
X42.5Y34.15
X43.025Y46.95
X43.625Y18.55
X43.65Y28.725
X44.5Y21.175
X44.55Y33.875
X44.55Y26.35
X45.125Y56.825
X45.85Y51.175
X47.475Y41.65
X47.5Y50.0
X47.5Y49.0
X47.5Y48.0
X48.15Y18.15
X48.375Y13.025
X48.975Y13.6
X48.975Y12.5
X49.525Y14.15
X49.525Y13.05
X50.062Y13.587
X50.6Y42.275
X51.0Y24.5
X51.9Y40.025
X52.0Y24.5
X52.35Y45.0
X53.1Y27.375
X54.0Y24.5
T2
X25.48Y55.64
X25.48Y48.02
X28.02Y55.64
X28.02Y48.02
X30.56Y55.64
X30.56Y48.02
T3
X22.5Y10.71
X25.0Y10.71
X27.0Y10.71
X29.5Y10.71
T4
X49.24Y54.75
X49.24Y48.25
X53.74Y54.75
X53.74Y48.25
T5
X1.75Y55.75
X1.75Y53.21
X1.75Y50.67
X1.75Y48.13
X1.75Y45.59
X1.75Y43.05
X35.65Y29.55
X35.65Y27.01
X35.65Y24.47
X39.325Y4.05
X39.325Y1.51
X48.45Y32.5
X48.45Y29.96
X48.45Y27.42
X48.45Y24.88
T6
X2.45Y15.41
X2.45Y11.6
X2.45Y7.79
X5.95Y15.41
X5.95Y11.6
X5.95Y7.79
T7
X17.0Y12.56
X17.0Y4.44
X35.5Y12.56
X35.5Y4.44
T8
X47.99Y52.26
X55.0Y52.26
T9
X3.0Y2.75
X10.5Y2.75
X46.0Y2.75
X53.5Y2.75
T10
X19.0Y8.0
X33.0Y8.0
T0
M30
