G04 #@! TF.GenerationSoftware,KiCad,Pcbnew,5.1.10*
G04 #@! TF.CreationDate,2021-09-27T13:14:11+02:00*
G04 #@! TF.ProjectId,KXKM_ESP32_battery_management_board,4b584b4d-5f45-4535-9033-325f62617474,3.0*
G04 #@! TF.SameCoordinates,PX623a7c0PY839b680*
G04 #@! TF.FileFunction,Soldermask,Bot*
G04 #@! TF.FilePolarity,Negative*
%FSLAX46Y46*%
G04 Gerber Fmt 4.6, Leading zero omitted, Abs format (unit mm)*
G04 Created by KiCad (PCBNEW 5.1.10) date 2021-09-27 13:14:11*
%MOMM*%
%LPD*%
G01*
G04 APERTURE LIST*
%ADD10O,1.600000X1.600000*%
%ADD11R,1.600000X1.600000*%
%ADD12O,1.700000X1.700000*%
%ADD13R,1.700000X1.700000*%
%ADD14R,2.500000X2.500000*%
%ADD15C,2.500000*%
%ADD16R,2.000000X2.000000*%
%ADD17C,1.800000*%
%ADD18C,3.300000*%
%ADD19C,1.000000*%
%ADD20C,4.500880*%
%ADD21C,0.900000*%
%ADD22C,0.990600*%
%ADD23C,3.200000*%
%ADD24C,2.100000*%
%ADD25C,1.750000*%
G04 APERTURE END LIST*
D10*
X30560000Y48020000D03*
X25480000Y55640000D03*
X28020000Y48020000D03*
X28020000Y55640000D03*
X25480000Y48020000D03*
D11*
X30560000Y55640000D03*
D12*
X39325000Y1510000D03*
D13*
X39325000Y4050000D03*
D14*
X2450000Y15410000D03*
D15*
X2450000Y11600000D03*
X2450000Y7790000D03*
D14*
X5950000Y15410000D03*
D15*
X5950000Y11600000D03*
X5950000Y7790000D03*
D16*
X35500000Y4440000D03*
X35500000Y12560000D03*
X17000000Y4440000D03*
X17000000Y12560000D03*
G36*
G01*
X22650000Y9006250D02*
X22650000Y8493750D01*
G75*
G02*
X22431250Y8275000I-218750J0D01*
G01*
X21993750Y8275000D01*
G75*
G02*
X21775000Y8493750I0J218750D01*
G01*
X21775000Y9006250D01*
G75*
G02*
X21993750Y9225000I218750J0D01*
G01*
X22431250Y9225000D01*
G75*
G02*
X22650000Y9006250I0J-218750D01*
G01*
G37*
G36*
G01*
X24225000Y9006250D02*
X24225000Y8493750D01*
G75*
G02*
X24006250Y8275000I-218750J0D01*
G01*
X23568750Y8275000D01*
G75*
G02*
X23350000Y8493750I0J218750D01*
G01*
X23350000Y9006250D01*
G75*
G02*
X23568750Y9225000I218750J0D01*
G01*
X24006250Y9225000D01*
G75*
G02*
X24225000Y9006250I0J-218750D01*
G01*
G37*
G36*
G01*
X23350000Y6993750D02*
X23350000Y7506250D01*
G75*
G02*
X23568750Y7725000I218750J0D01*
G01*
X24006250Y7725000D01*
G75*
G02*
X24225000Y7506250I0J-218750D01*
G01*
X24225000Y6993750D01*
G75*
G02*
X24006250Y6775000I-218750J0D01*
G01*
X23568750Y6775000D01*
G75*
G02*
X23350000Y6993750I0J218750D01*
G01*
G37*
G36*
G01*
X21775000Y6993750D02*
X21775000Y7506250D01*
G75*
G02*
X21993750Y7725000I218750J0D01*
G01*
X22431250Y7725000D01*
G75*
G02*
X22650000Y7506250I0J-218750D01*
G01*
X22650000Y6993750D01*
G75*
G02*
X22431250Y6775000I-218750J0D01*
G01*
X21993750Y6775000D01*
G75*
G02*
X21775000Y6993750I0J218750D01*
G01*
G37*
G36*
G01*
X29350000Y8493750D02*
X29350000Y9006250D01*
G75*
G02*
X29568750Y9225000I218750J0D01*
G01*
X30006250Y9225000D01*
G75*
G02*
X30225000Y9006250I0J-218750D01*
G01*
X30225000Y8493750D01*
G75*
G02*
X30006250Y8275000I-218750J0D01*
G01*
X29568750Y8275000D01*
G75*
G02*
X29350000Y8493750I0J218750D01*
G01*
G37*
G36*
G01*
X27775000Y8493750D02*
X27775000Y9006250D01*
G75*
G02*
X27993750Y9225000I218750J0D01*
G01*
X28431250Y9225000D01*
G75*
G02*
X28650000Y9006250I0J-218750D01*
G01*
X28650000Y8493750D01*
G75*
G02*
X28431250Y8275000I-218750J0D01*
G01*
X27993750Y8275000D01*
G75*
G02*
X27775000Y8493750I0J218750D01*
G01*
G37*
G36*
G01*
X28650000Y7506250D02*
X28650000Y6993750D01*
G75*
G02*
X28431250Y6775000I-218750J0D01*
G01*
X27993750Y6775000D01*
G75*
G02*
X27775000Y6993750I0J218750D01*
G01*
X27775000Y7506250D01*
G75*
G02*
X27993750Y7725000I218750J0D01*
G01*
X28431250Y7725000D01*
G75*
G02*
X28650000Y7506250I0J-218750D01*
G01*
G37*
G36*
G01*
X30225000Y7506250D02*
X30225000Y6993750D01*
G75*
G02*
X30006250Y6775000I-218750J0D01*
G01*
X29568750Y6775000D01*
G75*
G02*
X29350000Y6993750I0J218750D01*
G01*
X29350000Y7506250D01*
G75*
G02*
X29568750Y7725000I218750J0D01*
G01*
X30006250Y7725000D01*
G75*
G02*
X30225000Y7506250I0J-218750D01*
G01*
G37*
D17*
X29500000Y10710000D03*
X27000000Y10710000D03*
X25000000Y10710000D03*
X22500000Y10710000D03*
D18*
X33000000Y8000000D03*
X19000000Y8000000D03*
D19*
X55750000Y56750000D03*
X750000Y750000D03*
X55750000Y750000D03*
D20*
X10500000Y2750000D03*
D12*
X48450000Y24880000D03*
X48450000Y27420000D03*
X48450000Y29960000D03*
D13*
X48450000Y32500000D03*
D21*
X16250000Y51080000D03*
X11250000Y51080000D03*
D22*
X5640000Y52840000D03*
X4624000Y47760000D03*
X6656000Y47760000D03*
D13*
X1750000Y55750000D03*
D12*
X1750000Y53210000D03*
X1750000Y50670000D03*
X1750000Y48130000D03*
X1750000Y45590000D03*
X1750000Y43050000D03*
D23*
X14250000Y42750000D03*
X42250000Y42750000D03*
D13*
X35650000Y29550000D03*
D12*
X35650000Y27010000D03*
X35650000Y24470000D03*
D20*
X46000000Y2750000D03*
X3000000Y2750000D03*
X53500000Y2750000D03*
D24*
X55000000Y52260000D03*
D25*
X53740000Y54750000D03*
X49240000Y54750000D03*
D24*
X47990000Y52260000D03*
D25*
X49240000Y48250000D03*
X53740000Y48250000D03*
M02*
