G04 #@! TF.GenerationSoftware,KiCad,Pcbnew,5.1.10*
G04 #@! TF.CreationDate,2021-09-27T12:50:11+02:00*
G04 #@! TF.ProjectId,KXKM_ESP32_battery_management_board,4b584b4d-5f45-4535-9033-325f62617474,3.0*
G04 #@! TF.SameCoordinates,PX623a7c0PY839b680*
G04 #@! TF.FileFunction,Paste,Bot*
G04 #@! TF.FilePolarity,Positive*
%FSLAX46Y46*%
G04 Gerber Fmt 4.6, Leading zero omitted, Abs format (unit mm)*
G04 Created by KiCad (PCBNEW 5.1.10) date 2021-09-27 12:50:11*
%MOMM*%
%LPD*%
G01*
G04 APERTURE LIST*
G04 APERTURE END LIST*
G36*
G01*
X22650000Y9006250D02*
X22650000Y8493750D01*
G75*
G02*
X22431250Y8275000I-218750J0D01*
G01*
X21993750Y8275000D01*
G75*
G02*
X21775000Y8493750I0J218750D01*
G01*
X21775000Y9006250D01*
G75*
G02*
X21993750Y9225000I218750J0D01*
G01*
X22431250Y9225000D01*
G75*
G02*
X22650000Y9006250I0J-218750D01*
G01*
G37*
G36*
G01*
X24225000Y9006250D02*
X24225000Y8493750D01*
G75*
G02*
X24006250Y8275000I-218750J0D01*
G01*
X23568750Y8275000D01*
G75*
G02*
X23350000Y8493750I0J218750D01*
G01*
X23350000Y9006250D01*
G75*
G02*
X23568750Y9225000I218750J0D01*
G01*
X24006250Y9225000D01*
G75*
G02*
X24225000Y9006250I0J-218750D01*
G01*
G37*
G36*
G01*
X23350000Y6993750D02*
X23350000Y7506250D01*
G75*
G02*
X23568750Y7725000I218750J0D01*
G01*
X24006250Y7725000D01*
G75*
G02*
X24225000Y7506250I0J-218750D01*
G01*
X24225000Y6993750D01*
G75*
G02*
X24006250Y6775000I-218750J0D01*
G01*
X23568750Y6775000D01*
G75*
G02*
X23350000Y6993750I0J218750D01*
G01*
G37*
G36*
G01*
X21775000Y6993750D02*
X21775000Y7506250D01*
G75*
G02*
X21993750Y7725000I218750J0D01*
G01*
X22431250Y7725000D01*
G75*
G02*
X22650000Y7506250I0J-218750D01*
G01*
X22650000Y6993750D01*
G75*
G02*
X22431250Y6775000I-218750J0D01*
G01*
X21993750Y6775000D01*
G75*
G02*
X21775000Y6993750I0J218750D01*
G01*
G37*
G36*
G01*
X29350000Y8493750D02*
X29350000Y9006250D01*
G75*
G02*
X29568750Y9225000I218750J0D01*
G01*
X30006250Y9225000D01*
G75*
G02*
X30225000Y9006250I0J-218750D01*
G01*
X30225000Y8493750D01*
G75*
G02*
X30006250Y8275000I-218750J0D01*
G01*
X29568750Y8275000D01*
G75*
G02*
X29350000Y8493750I0J218750D01*
G01*
G37*
G36*
G01*
X27775000Y8493750D02*
X27775000Y9006250D01*
G75*
G02*
X27993750Y9225000I218750J0D01*
G01*
X28431250Y9225000D01*
G75*
G02*
X28650000Y9006250I0J-218750D01*
G01*
X28650000Y8493750D01*
G75*
G02*
X28431250Y8275000I-218750J0D01*
G01*
X27993750Y8275000D01*
G75*
G02*
X27775000Y8493750I0J218750D01*
G01*
G37*
G36*
G01*
X28650000Y7506250D02*
X28650000Y6993750D01*
G75*
G02*
X28431250Y6775000I-218750J0D01*
G01*
X27993750Y6775000D01*
G75*
G02*
X27775000Y6993750I0J218750D01*
G01*
X27775000Y7506250D01*
G75*
G02*
X27993750Y7725000I218750J0D01*
G01*
X28431250Y7725000D01*
G75*
G02*
X28650000Y7506250I0J-218750D01*
G01*
G37*
G36*
G01*
X30225000Y7506250D02*
X30225000Y6993750D01*
G75*
G02*
X30006250Y6775000I-218750J0D01*
G01*
X29568750Y6775000D01*
G75*
G02*
X29350000Y6993750I0J218750D01*
G01*
X29350000Y7506250D01*
G75*
G02*
X29568750Y7725000I218750J0D01*
G01*
X30006250Y7725000D01*
G75*
G02*
X30225000Y7506250I0J-218750D01*
G01*
G37*
M02*
