G04 #@! TF.GenerationSoftware,KiCad,Pcbnew,(5.0.0)*
G04 #@! TF.CreationDate,2020-02-26T16:23:42+01:00*
G04 #@! TF.ProjectId,KXKM_esp_remote_control_module,4B584B4D5F6573705F72656D6F74655F,rev?*
G04 #@! TF.SameCoordinates,Original*
G04 #@! TF.FileFunction,Copper,L1,Top,Signal*
G04 #@! TF.FilePolarity,Positive*
%FSLAX46Y46*%
G04 Gerber Fmt 4.6, Leading zero omitted, Abs format (unit mm)*
G04 Created by KiCad (PCBNEW (5.0.0)) date 02/26/20 16:23:42*
%MOMM*%
%LPD*%
G01*
G04 APERTURE LIST*
G04 #@! TA.AperFunction,ComponentPad*
%ADD10R,1.700000X1.700000*%
G04 #@! TD*
G04 #@! TA.AperFunction,ComponentPad*
%ADD11O,1.700000X1.700000*%
G04 #@! TD*
G04 #@! TA.AperFunction,SMDPad,CuDef*
%ADD12R,3.000000X1.000000*%
G04 #@! TD*
G04 #@! TA.AperFunction,ComponentPad*
%ADD13C,1.600000*%
G04 #@! TD*
G04 #@! TA.AperFunction,ComponentPad*
%ADD14R,1.600000X1.600000*%
G04 #@! TD*
G04 #@! TA.AperFunction,ComponentPad*
%ADD15O,1.600000X1.600000*%
G04 #@! TD*
G04 #@! TA.AperFunction,ComponentPad*
%ADD16O,1.500000X1.050000*%
G04 #@! TD*
G04 #@! TA.AperFunction,ComponentPad*
%ADD17R,1.500000X1.050000*%
G04 #@! TD*
G04 #@! TA.AperFunction,ComponentPad*
%ADD18C,1.400000*%
G04 #@! TD*
G04 #@! TA.AperFunction,ComponentPad*
%ADD19O,1.400000X1.400000*%
G04 #@! TD*
G04 #@! TA.AperFunction,ComponentPad*
%ADD20C,2.250000*%
G04 #@! TD*
G04 #@! TA.AperFunction,ComponentPad*
%ADD21R,1.400000X1.400000*%
G04 #@! TD*
G04 #@! TA.AperFunction,ComponentPad*
%ADD22C,2.100000*%
G04 #@! TD*
G04 #@! TA.AperFunction,ComponentPad*
%ADD23C,1.750000*%
G04 #@! TD*
G04 #@! TA.AperFunction,SMDPad,CuDef*
%ADD24C,0.300000*%
G04 #@! TD*
G04 #@! TA.AperFunction,Conductor*
%ADD25C,0.100000*%
G04 #@! TD*
G04 #@! TA.AperFunction,ComponentPad*
%ADD26R,1.350000X1.350000*%
G04 #@! TD*
G04 #@! TA.AperFunction,ComponentPad*
%ADD27O,1.350000X1.350000*%
G04 #@! TD*
G04 #@! TA.AperFunction,SMDPad,CuDef*
%ADD28C,1.150000*%
G04 #@! TD*
G04 #@! TA.AperFunction,ViaPad*
%ADD29C,0.800000*%
G04 #@! TD*
G04 #@! TA.AperFunction,Conductor*
%ADD30C,0.250000*%
G04 #@! TD*
G04 #@! TA.AperFunction,Conductor*
%ADD31C,0.400000*%
G04 #@! TD*
G04 #@! TA.AperFunction,Conductor*
%ADD32C,1.000000*%
G04 #@! TD*
G04 #@! TA.AperFunction,Conductor*
%ADD33C,0.600000*%
G04 #@! TD*
G04 #@! TA.AperFunction,Conductor*
%ADD34C,0.254000*%
G04 #@! TD*
G04 APERTURE END LIST*
D10*
G04 #@! TO.P,J6,1*
G04 #@! TO.N,/ext_3.3*
X177292000Y-70104000D03*
D11*
G04 #@! TO.P,J6,2*
G04 #@! TO.N,/ext_gnd*
X179832000Y-70104000D03*
G04 #@! TO.P,J6,3*
G04 #@! TO.N,/ho10_out*
X182372000Y-70104000D03*
G04 #@! TD*
G04 #@! TO.P,J5,10*
G04 #@! TO.N,+3V3*
X139573000Y-97332800D03*
G04 #@! TO.P,J5,9*
G04 #@! TO.N,/A0*
X139573000Y-94792800D03*
G04 #@! TO.P,J5,8*
G04 #@! TO.N,/A1*
X139573000Y-92252800D03*
G04 #@! TO.P,J5,7*
G04 #@! TO.N,/A2*
X139573000Y-89712800D03*
G04 #@! TO.P,J5,6*
G04 #@! TO.N,/A3*
X139573000Y-87172800D03*
G04 #@! TO.P,J5,5*
G04 #@! TO.N,/A4*
X139573000Y-84632800D03*
G04 #@! TO.P,J5,4*
G04 #@! TO.N,/A5*
X139573000Y-82092800D03*
G04 #@! TO.P,J5,3*
G04 #@! TO.N,/A6*
X139573000Y-79552800D03*
G04 #@! TO.P,J5,2*
G04 #@! TO.N,VBUS*
X139573000Y-77012800D03*
D10*
G04 #@! TO.P,J5,1*
G04 #@! TO.N,GND*
X139573000Y-74472800D03*
G04 #@! TD*
D12*
G04 #@! TO.P,J3,1*
G04 #@! TO.N,+3V3*
X169696760Y-115168680D03*
G04 #@! TO.P,J3,2*
G04 #@! TO.N,+VSW*
X174736760Y-115168680D03*
G04 #@! TO.P,J3,3*
G04 #@! TO.N,VBUS*
X169696760Y-112628680D03*
G04 #@! TO.P,J3,4*
G04 #@! TO.N,+BATT*
X174736760Y-112628680D03*
G04 #@! TO.P,J3,5*
G04 #@! TO.N,/ADC*
X169696760Y-110088680D03*
G04 #@! TO.P,J3,6*
G04 #@! TO.N,/I2C_SDA*
X174736760Y-110088680D03*
G04 #@! TO.P,J3,7*
G04 #@! TO.N,/SPI_SCK*
X169696760Y-107548680D03*
G04 #@! TO.P,J3,8*
G04 #@! TO.N,/I2C_SCL*
X174736760Y-107548680D03*
G04 #@! TO.P,J3,9*
G04 #@! TO.N,/SPI_MISO*
X169696760Y-105008680D03*
G04 #@! TO.P,J3,10*
G04 #@! TO.N,/I2S_LRCK*
X174736760Y-105008680D03*
G04 #@! TO.P,J3,11*
G04 #@! TO.N,/SPI_MOSI*
X169696760Y-102468680D03*
G04 #@! TO.P,J3,12*
G04 #@! TO.N,/I2S_DATA*
X174736760Y-102468680D03*
G04 #@! TO.P,J3,13*
G04 #@! TO.N,/SPI_CS*
X169696760Y-99928680D03*
G04 #@! TO.P,J3,14*
G04 #@! TO.N,/I2S_BCK*
X174736760Y-99928680D03*
G04 #@! TO.P,J3,15*
G04 #@! TO.N,/DMX_DE*
X169696760Y-97388680D03*
G04 #@! TO.P,J3,16*
G04 #@! TO.N,/LED_D1*
X174736760Y-97388680D03*
G04 #@! TO.P,J3,17*
G04 #@! TO.N,/DMX_DI*
X169696760Y-94848680D03*
G04 #@! TO.P,J3,18*
G04 #@! TO.N,/LED_D2*
X174736760Y-94848680D03*
G04 #@! TO.P,J3,19*
G04 #@! TO.N,/DMX_RO*
X169696760Y-92308680D03*
G04 #@! TO.P,J3,20*
G04 #@! TO.N,GND*
X174736760Y-92308680D03*
G04 #@! TD*
D11*
G04 #@! TO.P,J1,3*
G04 #@! TO.N,Net-(J1-Pad3)*
X182372000Y-74676000D03*
G04 #@! TO.P,J1,2*
G04 #@! TO.N,GND*
X179832000Y-74676000D03*
D10*
G04 #@! TO.P,J1,1*
G04 #@! TO.N,+3V3*
X177292000Y-74676000D03*
G04 #@! TD*
G04 #@! TO.P,J4,1*
G04 #@! TO.N,GND*
X154406600Y-97967800D03*
D11*
G04 #@! TO.P,J4,2*
G04 #@! TO.N,VBUS*
X154406600Y-95427800D03*
G04 #@! TO.P,J4,3*
G04 #@! TO.N,/B6*
X154406600Y-92887800D03*
G04 #@! TO.P,J4,4*
G04 #@! TO.N,/B5*
X154406600Y-90347800D03*
G04 #@! TO.P,J4,5*
G04 #@! TO.N,/B4*
X154406600Y-87807800D03*
G04 #@! TO.P,J4,6*
G04 #@! TO.N,/B3*
X154406600Y-85267800D03*
G04 #@! TO.P,J4,7*
G04 #@! TO.N,/B2*
X154406600Y-82727800D03*
G04 #@! TO.P,J4,8*
G04 #@! TO.N,/B1*
X154406600Y-80187800D03*
G04 #@! TO.P,J4,9*
G04 #@! TO.N,/B0*
X154406600Y-77647800D03*
G04 #@! TO.P,J4,10*
G04 #@! TO.N,+3V3*
X154406600Y-75107800D03*
G04 #@! TD*
D13*
G04 #@! TO.P,C1,1*
G04 #@! TO.N,/ext_3.3*
X180848000Y-61976000D03*
G04 #@! TO.P,C1,2*
G04 #@! TO.N,/ext_gnd*
X180848000Y-56976000D03*
G04 #@! TD*
G04 #@! TO.P,C2,1*
G04 #@! TO.N,/ext_gnd*
X184404000Y-61976000D03*
G04 #@! TO.P,C2,2*
G04 #@! TO.N,/ho10_out*
X184404000Y-66976000D03*
G04 #@! TD*
G04 #@! TO.P,C3,2*
G04 #@! TO.N,Net-(C3-Pad2)*
X177720000Y-61976000D03*
G04 #@! TO.P,C3,1*
G04 #@! TO.N,/ext_3.3*
X172720000Y-61976000D03*
G04 #@! TD*
G04 #@! TO.P,C5,1*
G04 #@! TO.N,Net-(C5-Pad1)*
X159004000Y-110490000D03*
G04 #@! TO.P,C5,2*
G04 #@! TO.N,GND*
X154004000Y-110490000D03*
G04 #@! TD*
G04 #@! TO.P,C4,1*
G04 #@! TO.N,+3V3*
X163068000Y-102616000D03*
G04 #@! TO.P,C4,2*
G04 #@! TO.N,GND*
X163068000Y-105116000D03*
G04 #@! TD*
D14*
G04 #@! TO.P,U3,1*
G04 #@! TO.N,/B0*
X150622000Y-76377800D03*
D15*
G04 #@! TO.P,U3,15*
G04 #@! TO.N,GND*
X143002000Y-109397800D03*
G04 #@! TO.P,U3,2*
G04 #@! TO.N,/B1*
X150622000Y-78917800D03*
G04 #@! TO.P,U3,16*
G04 #@! TO.N,GND*
X143002000Y-106857800D03*
G04 #@! TO.P,U3,3*
G04 #@! TO.N,/B2*
X150622000Y-81457800D03*
G04 #@! TO.P,U3,17*
G04 #@! TO.N,GND*
X143002000Y-104317800D03*
G04 #@! TO.P,U3,4*
G04 #@! TO.N,/B3*
X150622000Y-83997800D03*
G04 #@! TO.P,U3,18*
G04 #@! TO.N,+3V3*
X143002000Y-101777800D03*
G04 #@! TO.P,U3,5*
G04 #@! TO.N,/B4*
X150622000Y-86537800D03*
G04 #@! TO.P,U3,19*
G04 #@! TO.N,Net-(U3-Pad19)*
X143002000Y-99237800D03*
G04 #@! TO.P,U3,6*
G04 #@! TO.N,/B5*
X150622000Y-89077800D03*
G04 #@! TO.P,U3,20*
G04 #@! TO.N,Net-(U3-Pad20)*
X143002000Y-96697800D03*
G04 #@! TO.P,U3,7*
G04 #@! TO.N,/B6*
X150622000Y-91617800D03*
G04 #@! TO.P,U3,21*
G04 #@! TO.N,/A0*
X143002000Y-94157800D03*
G04 #@! TO.P,U3,8*
G04 #@! TO.N,/B7*
X150622000Y-94157800D03*
G04 #@! TO.P,U3,22*
G04 #@! TO.N,/A1*
X143002000Y-91617800D03*
G04 #@! TO.P,U3,9*
G04 #@! TO.N,+3V3*
X150622000Y-96697800D03*
G04 #@! TO.P,U3,23*
G04 #@! TO.N,/A2*
X143002000Y-89077800D03*
G04 #@! TO.P,U3,10*
G04 #@! TO.N,GND*
X150622000Y-99237800D03*
G04 #@! TO.P,U3,24*
G04 #@! TO.N,/A3*
X143002000Y-86537800D03*
G04 #@! TO.P,U3,11*
G04 #@! TO.N,Net-(U3-Pad11)*
X150622000Y-101777800D03*
G04 #@! TO.P,U3,25*
G04 #@! TO.N,/A4*
X143002000Y-83997800D03*
G04 #@! TO.P,U3,12*
G04 #@! TO.N,/I2C_SCL*
X150622000Y-104317800D03*
G04 #@! TO.P,U3,26*
G04 #@! TO.N,/A5*
X143002000Y-81457800D03*
G04 #@! TO.P,U3,13*
G04 #@! TO.N,/I2C_SDA*
X150622000Y-106857800D03*
G04 #@! TO.P,U3,27*
G04 #@! TO.N,/A6*
X143002000Y-78917800D03*
G04 #@! TO.P,U3,14*
G04 #@! TO.N,Net-(U3-Pad14)*
X150622000Y-109397800D03*
G04 #@! TO.P,U3,28*
G04 #@! TO.N,/A7*
X143002000Y-76377800D03*
G04 #@! TD*
D16*
G04 #@! TO.P,U4,2*
G04 #@! TO.N,GND*
X159004000Y-106426000D03*
G04 #@! TO.P,U4,3*
G04 #@! TO.N,Net-(C5-Pad1)*
X159004000Y-107696000D03*
D17*
G04 #@! TO.P,U4,1*
G04 #@! TO.N,+3V3*
X159004000Y-105156000D03*
G04 #@! TD*
D18*
G04 #@! TO.P,R1,1*
G04 #@! TO.N,/ext_3.3*
X174244000Y-69596000D03*
D19*
G04 #@! TO.P,R1,2*
G04 #@! TO.N,Net-(R1-Pad2)*
X174244000Y-64516000D03*
G04 #@! TD*
D20*
G04 #@! TO.P,U1,RP6*
G04 #@! TO.N,N/C*
X173154000Y-54304000D03*
G04 #@! TO.P,U1,RP5*
X173154000Y-51205000D03*
G04 #@! TO.P,U1,RP4*
X173154000Y-48104000D03*
G04 #@! TO.P,U1,RP3*
X182954000Y-48104000D03*
G04 #@! TO.P,U1,RP2*
X182954000Y-51205000D03*
G04 #@! TO.P,U1,RP1*
X182954000Y-54304000D03*
D18*
G04 #@! TO.P,U1,5*
G04 #@! TO.N,Net-(R1-Pad2)*
X176784000Y-66040000D03*
G04 #@! TO.P,U1,4*
G04 #@! TO.N,Net-(C3-Pad2)*
X178054000Y-64135000D03*
G04 #@! TO.P,U1,3*
G04 #@! TO.N,/ho10_out*
X179324000Y-66040000D03*
G04 #@! TO.P,U1,2*
G04 #@! TO.N,/ext_gnd*
X180594000Y-64135000D03*
D21*
G04 #@! TO.P,U1,1*
G04 #@! TO.N,/ext_3.3*
X181864000Y-66040000D03*
G04 #@! TD*
D22*
G04 #@! TO.P,SW2,*
G04 #@! TO.N,*
X158374800Y-78105800D03*
D23*
G04 #@! TO.P,SW2,2*
G04 #@! TO.N,GND*
X159634800Y-75615800D03*
G04 #@! TO.P,SW2,1*
G04 #@! TO.N,/A7*
X164134800Y-75615800D03*
D22*
G04 #@! TO.P,SW2,*
G04 #@! TO.N,*
X165384800Y-78105800D03*
G04 #@! TD*
D24*
G04 #@! TO.P,JP1,1*
G04 #@! TO.N,+BATT*
X164555000Y-109220000D03*
D25*
G04 #@! TD*
G04 #@! TO.N,+BATT*
G04 #@! TO.C,JP1*
G36*
X163555000Y-109220000D02*
X164055000Y-108470000D01*
X165055000Y-108470000D01*
X165055000Y-109970000D01*
X164055000Y-109970000D01*
X163555000Y-109220000D01*
X163555000Y-109220000D01*
G37*
D24*
G04 #@! TO.P,JP1,2*
G04 #@! TO.N,Net-(C5-Pad1)*
X163105000Y-109220000D03*
D25*
G04 #@! TD*
G04 #@! TO.N,Net-(C5-Pad1)*
G04 #@! TO.C,JP1*
G36*
X162605000Y-108470000D02*
X163755000Y-108470000D01*
X163255000Y-109220000D01*
X163755000Y-109970000D01*
X162605000Y-109970000D01*
X162605000Y-108470000D01*
X162605000Y-108470000D01*
G37*
D24*
G04 #@! TO.P,JP2,2*
G04 #@! TO.N,/ADC*
X181610000Y-84545000D03*
D25*
G04 #@! TD*
G04 #@! TO.N,/ADC*
G04 #@! TO.C,JP2*
G36*
X180860000Y-85045000D02*
X180860000Y-83895000D01*
X181610000Y-84395000D01*
X182360000Y-83895000D01*
X182360000Y-85045000D01*
X180860000Y-85045000D01*
X180860000Y-85045000D01*
G37*
D24*
G04 #@! TO.P,JP2,1*
G04 #@! TO.N,Net-(J1-Pad3)*
X181610000Y-83095000D03*
D25*
G04 #@! TD*
G04 #@! TO.N,Net-(J1-Pad3)*
G04 #@! TO.C,JP2*
G36*
X181610000Y-84095000D02*
X180860000Y-83595000D01*
X180860000Y-82595000D01*
X182360000Y-82595000D01*
X182360000Y-83595000D01*
X181610000Y-84095000D01*
X181610000Y-84095000D01*
G37*
D26*
G04 #@! TO.P,SW1,1*
G04 #@! TO.N,Net-(C5-Pad1)*
X169494200Y-85775800D03*
D27*
G04 #@! TO.P,SW1,2*
G04 #@! TO.N,+BATT*
X171494200Y-85775800D03*
G04 #@! TO.P,SW1,3*
G04 #@! TO.N,Net-(SW1-Pad3)*
X173494200Y-85775800D03*
G04 #@! TD*
D25*
G04 #@! TO.N,GND*
G04 #@! TO.C,D1*
G36*
X171935505Y-74942404D02*
X171959773Y-74946004D01*
X171983572Y-74951965D01*
X172006671Y-74960230D01*
X172028850Y-74970720D01*
X172049893Y-74983332D01*
X172069599Y-74997947D01*
X172087777Y-75014423D01*
X172104253Y-75032601D01*
X172118868Y-75052307D01*
X172131480Y-75073350D01*
X172141970Y-75095529D01*
X172150235Y-75118628D01*
X172156196Y-75142427D01*
X172159796Y-75166695D01*
X172161000Y-75191199D01*
X172161000Y-76091201D01*
X172159796Y-76115705D01*
X172156196Y-76139973D01*
X172150235Y-76163772D01*
X172141970Y-76186871D01*
X172131480Y-76209050D01*
X172118868Y-76230093D01*
X172104253Y-76249799D01*
X172087777Y-76267977D01*
X172069599Y-76284453D01*
X172049893Y-76299068D01*
X172028850Y-76311680D01*
X172006671Y-76322170D01*
X171983572Y-76330435D01*
X171959773Y-76336396D01*
X171935505Y-76339996D01*
X171911001Y-76341200D01*
X171260999Y-76341200D01*
X171236495Y-76339996D01*
X171212227Y-76336396D01*
X171188428Y-76330435D01*
X171165329Y-76322170D01*
X171143150Y-76311680D01*
X171122107Y-76299068D01*
X171102401Y-76284453D01*
X171084223Y-76267977D01*
X171067747Y-76249799D01*
X171053132Y-76230093D01*
X171040520Y-76209050D01*
X171030030Y-76186871D01*
X171021765Y-76163772D01*
X171015804Y-76139973D01*
X171012204Y-76115705D01*
X171011000Y-76091201D01*
X171011000Y-75191199D01*
X171012204Y-75166695D01*
X171015804Y-75142427D01*
X171021765Y-75118628D01*
X171030030Y-75095529D01*
X171040520Y-75073350D01*
X171053132Y-75052307D01*
X171067747Y-75032601D01*
X171084223Y-75014423D01*
X171102401Y-74997947D01*
X171122107Y-74983332D01*
X171143150Y-74970720D01*
X171165329Y-74960230D01*
X171188428Y-74951965D01*
X171212227Y-74946004D01*
X171236495Y-74942404D01*
X171260999Y-74941200D01*
X171911001Y-74941200D01*
X171935505Y-74942404D01*
X171935505Y-74942404D01*
G37*
D28*
G04 #@! TD*
G04 #@! TO.P,D1,1*
G04 #@! TO.N,GND*
X171586000Y-75641200D03*
D25*
G04 #@! TO.N,Net-(D1-Pad2)*
G04 #@! TO.C,D1*
G36*
X169885505Y-74942404D02*
X169909773Y-74946004D01*
X169933572Y-74951965D01*
X169956671Y-74960230D01*
X169978850Y-74970720D01*
X169999893Y-74983332D01*
X170019599Y-74997947D01*
X170037777Y-75014423D01*
X170054253Y-75032601D01*
X170068868Y-75052307D01*
X170081480Y-75073350D01*
X170091970Y-75095529D01*
X170100235Y-75118628D01*
X170106196Y-75142427D01*
X170109796Y-75166695D01*
X170111000Y-75191199D01*
X170111000Y-76091201D01*
X170109796Y-76115705D01*
X170106196Y-76139973D01*
X170100235Y-76163772D01*
X170091970Y-76186871D01*
X170081480Y-76209050D01*
X170068868Y-76230093D01*
X170054253Y-76249799D01*
X170037777Y-76267977D01*
X170019599Y-76284453D01*
X169999893Y-76299068D01*
X169978850Y-76311680D01*
X169956671Y-76322170D01*
X169933572Y-76330435D01*
X169909773Y-76336396D01*
X169885505Y-76339996D01*
X169861001Y-76341200D01*
X169210999Y-76341200D01*
X169186495Y-76339996D01*
X169162227Y-76336396D01*
X169138428Y-76330435D01*
X169115329Y-76322170D01*
X169093150Y-76311680D01*
X169072107Y-76299068D01*
X169052401Y-76284453D01*
X169034223Y-76267977D01*
X169017747Y-76249799D01*
X169003132Y-76230093D01*
X168990520Y-76209050D01*
X168980030Y-76186871D01*
X168971765Y-76163772D01*
X168965804Y-76139973D01*
X168962204Y-76115705D01*
X168961000Y-76091201D01*
X168961000Y-75191199D01*
X168962204Y-75166695D01*
X168965804Y-75142427D01*
X168971765Y-75118628D01*
X168980030Y-75095529D01*
X168990520Y-75073350D01*
X169003132Y-75052307D01*
X169017747Y-75032601D01*
X169034223Y-75014423D01*
X169052401Y-74997947D01*
X169072107Y-74983332D01*
X169093150Y-74970720D01*
X169115329Y-74960230D01*
X169138428Y-74951965D01*
X169162227Y-74946004D01*
X169186495Y-74942404D01*
X169210999Y-74941200D01*
X169861001Y-74941200D01*
X169885505Y-74942404D01*
X169885505Y-74942404D01*
G37*
D28*
G04 #@! TD*
G04 #@! TO.P,D1,2*
G04 #@! TO.N,Net-(D1-Pad2)*
X169536000Y-75641200D03*
D25*
G04 #@! TO.N,Net-(D1-Pad2)*
G04 #@! TO.C,R2*
G36*
X163020105Y-81444804D02*
X163044373Y-81448404D01*
X163068172Y-81454365D01*
X163091271Y-81462630D01*
X163113450Y-81473120D01*
X163134493Y-81485732D01*
X163154199Y-81500347D01*
X163172377Y-81516823D01*
X163188853Y-81535001D01*
X163203468Y-81554707D01*
X163216080Y-81575750D01*
X163226570Y-81597929D01*
X163234835Y-81621028D01*
X163240796Y-81644827D01*
X163244396Y-81669095D01*
X163245600Y-81693599D01*
X163245600Y-82593601D01*
X163244396Y-82618105D01*
X163240796Y-82642373D01*
X163234835Y-82666172D01*
X163226570Y-82689271D01*
X163216080Y-82711450D01*
X163203468Y-82732493D01*
X163188853Y-82752199D01*
X163172377Y-82770377D01*
X163154199Y-82786853D01*
X163134493Y-82801468D01*
X163113450Y-82814080D01*
X163091271Y-82824570D01*
X163068172Y-82832835D01*
X163044373Y-82838796D01*
X163020105Y-82842396D01*
X162995601Y-82843600D01*
X162345599Y-82843600D01*
X162321095Y-82842396D01*
X162296827Y-82838796D01*
X162273028Y-82832835D01*
X162249929Y-82824570D01*
X162227750Y-82814080D01*
X162206707Y-82801468D01*
X162187001Y-82786853D01*
X162168823Y-82770377D01*
X162152347Y-82752199D01*
X162137732Y-82732493D01*
X162125120Y-82711450D01*
X162114630Y-82689271D01*
X162106365Y-82666172D01*
X162100404Y-82642373D01*
X162096804Y-82618105D01*
X162095600Y-82593601D01*
X162095600Y-81693599D01*
X162096804Y-81669095D01*
X162100404Y-81644827D01*
X162106365Y-81621028D01*
X162114630Y-81597929D01*
X162125120Y-81575750D01*
X162137732Y-81554707D01*
X162152347Y-81535001D01*
X162168823Y-81516823D01*
X162187001Y-81500347D01*
X162206707Y-81485732D01*
X162227750Y-81473120D01*
X162249929Y-81462630D01*
X162273028Y-81454365D01*
X162296827Y-81448404D01*
X162321095Y-81444804D01*
X162345599Y-81443600D01*
X162995601Y-81443600D01*
X163020105Y-81444804D01*
X163020105Y-81444804D01*
G37*
D28*
G04 #@! TD*
G04 #@! TO.P,R2,1*
G04 #@! TO.N,Net-(D1-Pad2)*
X162670600Y-82143600D03*
D25*
G04 #@! TO.N,/B7*
G04 #@! TO.C,R2*
G36*
X160970105Y-81444804D02*
X160994373Y-81448404D01*
X161018172Y-81454365D01*
X161041271Y-81462630D01*
X161063450Y-81473120D01*
X161084493Y-81485732D01*
X161104199Y-81500347D01*
X161122377Y-81516823D01*
X161138853Y-81535001D01*
X161153468Y-81554707D01*
X161166080Y-81575750D01*
X161176570Y-81597929D01*
X161184835Y-81621028D01*
X161190796Y-81644827D01*
X161194396Y-81669095D01*
X161195600Y-81693599D01*
X161195600Y-82593601D01*
X161194396Y-82618105D01*
X161190796Y-82642373D01*
X161184835Y-82666172D01*
X161176570Y-82689271D01*
X161166080Y-82711450D01*
X161153468Y-82732493D01*
X161138853Y-82752199D01*
X161122377Y-82770377D01*
X161104199Y-82786853D01*
X161084493Y-82801468D01*
X161063450Y-82814080D01*
X161041271Y-82824570D01*
X161018172Y-82832835D01*
X160994373Y-82838796D01*
X160970105Y-82842396D01*
X160945601Y-82843600D01*
X160295599Y-82843600D01*
X160271095Y-82842396D01*
X160246827Y-82838796D01*
X160223028Y-82832835D01*
X160199929Y-82824570D01*
X160177750Y-82814080D01*
X160156707Y-82801468D01*
X160137001Y-82786853D01*
X160118823Y-82770377D01*
X160102347Y-82752199D01*
X160087732Y-82732493D01*
X160075120Y-82711450D01*
X160064630Y-82689271D01*
X160056365Y-82666172D01*
X160050404Y-82642373D01*
X160046804Y-82618105D01*
X160045600Y-82593601D01*
X160045600Y-81693599D01*
X160046804Y-81669095D01*
X160050404Y-81644827D01*
X160056365Y-81621028D01*
X160064630Y-81597929D01*
X160075120Y-81575750D01*
X160087732Y-81554707D01*
X160102347Y-81535001D01*
X160118823Y-81516823D01*
X160137001Y-81500347D01*
X160156707Y-81485732D01*
X160177750Y-81473120D01*
X160199929Y-81462630D01*
X160223028Y-81454365D01*
X160246827Y-81448404D01*
X160271095Y-81444804D01*
X160295599Y-81443600D01*
X160945601Y-81443600D01*
X160970105Y-81444804D01*
X160970105Y-81444804D01*
G37*
D28*
G04 #@! TD*
G04 #@! TO.P,R2,2*
G04 #@! TO.N,/B7*
X160620600Y-82143600D03*
D29*
G04 #@! TO.N,/ext_gnd*
X175260000Y-58420000D03*
X177800000Y-55118000D03*
X177800000Y-51816000D03*
X177546000Y-49022000D03*
X183896000Y-58420000D03*
X175260000Y-67564000D03*
X184404000Y-70104000D03*
X179324000Y-62992000D03*
X183388000Y-64262000D03*
G04 #@! TO.N,GND*
X139700000Y-104140000D03*
X139700000Y-106680000D03*
X139700000Y-109220000D03*
X146685000Y-103505000D03*
X146685000Y-106045000D03*
X146685000Y-108585000D03*
X142240000Y-74295000D03*
X156845000Y-75565000D03*
X161925000Y-78740000D03*
X157480000Y-82550000D03*
X158115000Y-86995000D03*
X160655000Y-97790000D03*
X156845000Y-97790000D03*
X166370000Y-94615000D03*
X171450000Y-90170000D03*
X168275000Y-88265000D03*
X173355000Y-82550000D03*
X173990000Y-78105000D03*
X179070000Y-80645000D03*
X154305000Y-107950000D03*
G04 #@! TO.N,Net-(C5-Pad1)*
X160147000Y-93624400D03*
X158115000Y-102362000D03*
G04 #@! TO.N,VBUS*
X166624000Y-103886000D03*
G04 #@! TO.N,+BATT*
X165506400Y-111125000D03*
G04 #@! TO.N,/ADC*
X171018200Y-113893600D03*
X177977800Y-84861400D03*
G04 #@! TD*
D30*
G04 #@! TO.N,/ext_3.3*
X181864000Y-67056000D02*
X181864000Y-66040000D01*
X181102000Y-67818000D02*
X181864000Y-67056000D01*
X178478000Y-67818000D02*
X181102000Y-67818000D01*
X177292000Y-70104000D02*
X177292000Y-69004000D01*
X177292000Y-69004000D02*
X178478000Y-67818000D01*
G04 #@! TO.N,/ext_gnd*
X182245000Y-64135000D02*
X184404000Y-61976000D01*
X180594000Y-64135000D02*
X182245000Y-64135000D01*
D31*
G04 #@! TO.N,Net-(C5-Pad1)*
X160274000Y-109220000D02*
X159004000Y-110490000D01*
X163105000Y-109220000D02*
X160274000Y-109220000D01*
X160274000Y-107816000D02*
X160274000Y-109220000D01*
X160154000Y-107696000D02*
X160274000Y-107816000D01*
X159004000Y-107696000D02*
X160154000Y-107696000D01*
X160147000Y-93624400D02*
X158115000Y-95656400D01*
X158115000Y-95656400D02*
X158115000Y-102362000D01*
G04 #@! TO.N,+3V3*
X171446760Y-115168680D02*
X172313600Y-114301840D01*
X166624000Y-102616000D02*
X163068000Y-102616000D01*
X167690800Y-103682800D02*
X166624000Y-102616000D01*
X171602400Y-103682800D02*
X167690800Y-103682800D01*
X172313600Y-104394000D02*
X171602400Y-103682800D01*
X172313600Y-114301840D02*
X172313600Y-104394000D01*
X169696760Y-115168680D02*
X171446760Y-115168680D01*
X159004000Y-104381000D02*
X159004000Y-105156000D01*
X163068000Y-102616000D02*
X160769000Y-102616000D01*
X160769000Y-102616000D02*
X159004000Y-104381000D01*
X152196800Y-98272600D02*
X150622000Y-96697800D01*
X152196800Y-98573800D02*
X152196800Y-98272600D01*
X159004000Y-105156000D02*
X158779000Y-105156000D01*
X158779000Y-105156000D02*
X152196800Y-98573800D01*
D32*
X148082000Y-96697800D02*
X143002000Y-101777800D01*
X150622000Y-96697800D02*
X148082000Y-96697800D01*
X139573000Y-98534881D02*
X139573000Y-97332800D01*
X139573000Y-99480170D02*
X139573000Y-98534881D01*
X141870630Y-101777800D02*
X139573000Y-99480170D01*
X143002000Y-101777800D02*
X141870630Y-101777800D01*
D31*
X163068000Y-102616000D02*
X163068000Y-86461600D01*
X174853600Y-81000600D02*
X177292000Y-78562200D01*
X177292000Y-78562200D02*
X177292000Y-74676000D01*
X168529000Y-81000600D02*
X174853600Y-81000600D01*
X163068000Y-86461600D02*
X168529000Y-81000600D01*
D32*
X153390600Y-74091800D02*
X154406600Y-75107800D01*
X148793200Y-74091800D02*
X153390600Y-74091800D01*
X148082000Y-96697800D02*
X148082000Y-74803000D01*
X148082000Y-74803000D02*
X148793200Y-74091800D01*
D33*
G04 #@! TO.N,VBUS*
X166624000Y-110555920D02*
X166624000Y-103886000D01*
X166624000Y-103886000D02*
X166624000Y-103886000D01*
X168696760Y-112628680D02*
X166624000Y-110555920D01*
X169696760Y-112628680D02*
X168696760Y-112628680D01*
X166624000Y-103886000D02*
X166624000Y-103886000D01*
G04 #@! TO.N,+BATT*
X173805600Y-88087200D02*
X171494200Y-85775800D01*
X175793400Y-88087200D02*
X173805600Y-88087200D01*
X177258990Y-89552790D02*
X175793400Y-88087200D01*
X177258990Y-111106450D02*
X177258990Y-89552790D01*
X174736760Y-112628680D02*
X175736760Y-112628680D01*
X175736760Y-112628680D02*
X177258990Y-111106450D01*
D31*
X164555000Y-109220000D02*
X164555000Y-110173600D01*
X164555000Y-110173600D02*
X165506400Y-111125000D01*
D30*
G04 #@! TO.N,/ADC*
X169696760Y-110838680D02*
X170135480Y-111277400D01*
X169696760Y-110088680D02*
X169696760Y-110838680D01*
X171521761Y-113390039D02*
X171018200Y-113893600D01*
X171521761Y-111868679D02*
X171521761Y-113390039D01*
X170135480Y-111277400D02*
X170930482Y-111277400D01*
X170930482Y-111277400D02*
X171521761Y-111868679D01*
X181293600Y-84861400D02*
X181610000Y-84545000D01*
X177977800Y-84861400D02*
X181293600Y-84861400D01*
G04 #@! TO.N,/B7*
X160620600Y-82943600D02*
X160620600Y-82143600D01*
X160620600Y-88412802D02*
X160620600Y-82943600D01*
X154875602Y-94157800D02*
X160620600Y-88412802D01*
X150622000Y-94157800D02*
X154875602Y-94157800D01*
D32*
G04 #@! TO.N,/B6*
X151892000Y-92887800D02*
X150622000Y-91617800D01*
X154406600Y-92887800D02*
X151892000Y-92887800D01*
G04 #@! TO.N,/B5*
X151892000Y-90347800D02*
X150622000Y-89077800D01*
X154406600Y-90347800D02*
X151892000Y-90347800D01*
G04 #@! TO.N,/B4*
X151892000Y-87807800D02*
X150622000Y-86537800D01*
X154406600Y-87807800D02*
X151892000Y-87807800D01*
G04 #@! TO.N,/B3*
X151892000Y-85267800D02*
X150622000Y-83997800D01*
X154406600Y-85267800D02*
X151892000Y-85267800D01*
G04 #@! TO.N,/B2*
X151892000Y-82727800D02*
X150622000Y-81457800D01*
X154406600Y-82727800D02*
X151892000Y-82727800D01*
G04 #@! TO.N,/B1*
X151892000Y-80187800D02*
X150622000Y-78917800D01*
X154406600Y-80187800D02*
X151892000Y-80187800D01*
G04 #@! TO.N,/B0*
X151892000Y-77647800D02*
X150622000Y-76377800D01*
X154406600Y-77647800D02*
X151892000Y-77647800D01*
G04 #@! TO.N,/A0*
X142367000Y-94792800D02*
X143002000Y-94157800D01*
X139573000Y-94792800D02*
X142367000Y-94792800D01*
G04 #@! TO.N,/A1*
X142367000Y-92252800D02*
X143002000Y-91617800D01*
X139573000Y-92252800D02*
X142367000Y-92252800D01*
G04 #@! TO.N,/A2*
X142367000Y-89712800D02*
X143002000Y-89077800D01*
X139573000Y-89712800D02*
X142367000Y-89712800D01*
G04 #@! TO.N,/A3*
X142367000Y-87172800D02*
X143002000Y-86537800D01*
X139573000Y-87172800D02*
X142367000Y-87172800D01*
G04 #@! TO.N,/A4*
X142367000Y-84632800D02*
X143002000Y-83997800D01*
X139573000Y-84632800D02*
X142367000Y-84632800D01*
G04 #@! TO.N,/A5*
X142367000Y-82092800D02*
X143002000Y-81457800D01*
X139573000Y-82092800D02*
X142367000Y-82092800D01*
G04 #@! TO.N,/A6*
X142367000Y-79552800D02*
X143002000Y-78917800D01*
X139573000Y-79552800D02*
X142367000Y-79552800D01*
D31*
G04 #@! TO.N,/A7*
X146253200Y-73126600D02*
X143002000Y-76377800D01*
X164134800Y-75615800D02*
X161645600Y-73126600D01*
X161645600Y-73126600D02*
X146253200Y-73126600D01*
D33*
G04 #@! TO.N,Net-(J1-Pad3)*
X182372000Y-82333000D02*
X182372000Y-74676000D01*
X181610000Y-83095000D02*
X182372000Y-82333000D01*
D30*
G04 #@! TO.N,Net-(D1-Pad2)*
X169536000Y-78291800D02*
X169536000Y-75641200D01*
X162670600Y-82143600D02*
X165684200Y-82143600D01*
X165684200Y-82143600D02*
X169536000Y-78291800D01*
G04 #@! TD*
D34*
G04 #@! TO.N,/ext_gnd*
G36*
X171661944Y-47107040D02*
X171394000Y-47753914D01*
X171394000Y-48454086D01*
X171661944Y-49100960D01*
X172157040Y-49596056D01*
X172298136Y-49654500D01*
X172157040Y-49712944D01*
X171661944Y-50208040D01*
X171394000Y-50854914D01*
X171394000Y-51555086D01*
X171661944Y-52201960D01*
X172157040Y-52697056D01*
X172295722Y-52754500D01*
X172157040Y-52811944D01*
X171661944Y-53307040D01*
X171394000Y-53953914D01*
X171394000Y-54654086D01*
X171661944Y-55300960D01*
X172157040Y-55796056D01*
X172803914Y-56064000D01*
X173504086Y-56064000D01*
X173735234Y-55968255D01*
X180019861Y-55968255D01*
X180848000Y-56796395D01*
X181676139Y-55968255D01*
X181602005Y-55722136D01*
X181064777Y-55529035D01*
X180494546Y-55556222D01*
X180093995Y-55722136D01*
X180019861Y-55968255D01*
X173735234Y-55968255D01*
X174150960Y-55796056D01*
X174646056Y-55300960D01*
X174914000Y-54654086D01*
X174914000Y-53953914D01*
X174646056Y-53307040D01*
X174150960Y-52811944D01*
X174012278Y-52754500D01*
X174150960Y-52697056D01*
X174646056Y-52201960D01*
X174914000Y-51555086D01*
X174914000Y-50854914D01*
X174646056Y-50208040D01*
X174150960Y-49712944D01*
X174009864Y-49654500D01*
X174150960Y-49596056D01*
X174646056Y-49100960D01*
X174914000Y-48454086D01*
X174914000Y-47753914D01*
X174646056Y-47107040D01*
X174427016Y-46888000D01*
X181680984Y-46888000D01*
X181461944Y-47107040D01*
X181194000Y-47753914D01*
X181194000Y-48454086D01*
X181461944Y-49100960D01*
X181957040Y-49596056D01*
X182098136Y-49654500D01*
X181957040Y-49712944D01*
X181461944Y-50208040D01*
X181194000Y-50854914D01*
X181194000Y-51555086D01*
X181461944Y-52201960D01*
X181957040Y-52697056D01*
X182095722Y-52754500D01*
X181957040Y-52811944D01*
X181461944Y-53307040D01*
X181194000Y-53953914D01*
X181194000Y-54654086D01*
X181461944Y-55300960D01*
X181957040Y-55796056D01*
X182603914Y-56064000D01*
X183304086Y-56064000D01*
X183950960Y-55796056D01*
X184446056Y-55300960D01*
X184714000Y-54654086D01*
X184714000Y-53953914D01*
X184446056Y-53307040D01*
X183950960Y-52811944D01*
X183812278Y-52754500D01*
X183950960Y-52697056D01*
X184446056Y-52201960D01*
X184714000Y-51555086D01*
X184714000Y-50854914D01*
X184446056Y-50208040D01*
X183950960Y-49712944D01*
X183809864Y-49654500D01*
X183950960Y-49596056D01*
X184446056Y-49100960D01*
X184714000Y-48454086D01*
X184714000Y-47753914D01*
X184446056Y-47107040D01*
X184227016Y-46888000D01*
X184846998Y-46888000D01*
X185037164Y-46925826D01*
X185039000Y-46927053D01*
X185039000Y-60679361D01*
X184620777Y-60529035D01*
X184050546Y-60556222D01*
X183649995Y-60722136D01*
X183575861Y-60968255D01*
X184404000Y-61796395D01*
X184418142Y-61782252D01*
X184597748Y-61961858D01*
X184583605Y-61976000D01*
X184597748Y-61990142D01*
X184418142Y-62169748D01*
X184404000Y-62155605D01*
X183575861Y-62983745D01*
X183649995Y-63229864D01*
X184187223Y-63422965D01*
X184757454Y-63395778D01*
X185039000Y-63279158D01*
X185039000Y-65685793D01*
X184689439Y-65541000D01*
X184118561Y-65541000D01*
X183591138Y-65759466D01*
X183211440Y-66139164D01*
X183211440Y-65340000D01*
X183162157Y-65092235D01*
X183021809Y-64882191D01*
X182811765Y-64741843D01*
X182564000Y-64692560D01*
X181813021Y-64692560D01*
X181941419Y-64327878D01*
X181912664Y-63797560D01*
X181765042Y-63441169D01*
X181529277Y-63379331D01*
X181644526Y-63264082D01*
X181598719Y-63218275D01*
X181660862Y-63192534D01*
X182064534Y-62788862D01*
X182283000Y-62261439D01*
X182283000Y-61759223D01*
X182957035Y-61759223D01*
X182984222Y-62329454D01*
X183150136Y-62730005D01*
X183396255Y-62804139D01*
X184224395Y-61976000D01*
X183396255Y-61147861D01*
X183150136Y-61221995D01*
X182957035Y-61759223D01*
X182283000Y-61759223D01*
X182283000Y-61690561D01*
X182064534Y-61163138D01*
X181660862Y-60759466D01*
X181133439Y-60541000D01*
X180562561Y-60541000D01*
X180035138Y-60759466D01*
X179631466Y-61163138D01*
X179413000Y-61690561D01*
X179413000Y-62261439D01*
X179631466Y-62788862D01*
X179880719Y-63038115D01*
X179838331Y-63199725D01*
X180594000Y-63955395D01*
X180608142Y-63941252D01*
X180787748Y-64120858D01*
X180773605Y-64135000D01*
X180787748Y-64149142D01*
X180608143Y-64328748D01*
X180594000Y-64314605D01*
X180579858Y-64328748D01*
X180400252Y-64149142D01*
X180414395Y-64135000D01*
X179658725Y-63379331D01*
X179422958Y-63441169D01*
X179325847Y-63716987D01*
X179185758Y-63378783D01*
X178810217Y-63003242D01*
X178747947Y-62977449D01*
X178936534Y-62788862D01*
X179155000Y-62261439D01*
X179155000Y-61690561D01*
X178936534Y-61163138D01*
X178532862Y-60759466D01*
X178005439Y-60541000D01*
X177434561Y-60541000D01*
X176907138Y-60759466D01*
X176503466Y-61163138D01*
X176285000Y-61690561D01*
X176285000Y-62261439D01*
X176503466Y-62788862D01*
X176907138Y-63192534D01*
X177049516Y-63251509D01*
X176922242Y-63378783D01*
X176719000Y-63869452D01*
X176719000Y-64400548D01*
X176845108Y-64705000D01*
X176518452Y-64705000D01*
X176027783Y-64908242D01*
X175652242Y-65283783D01*
X175449000Y-65774452D01*
X175449000Y-66305548D01*
X175652242Y-66796217D01*
X176027783Y-67171758D01*
X176518452Y-67375000D01*
X177049548Y-67375000D01*
X177540217Y-67171758D01*
X177915758Y-66796217D01*
X178054000Y-66462472D01*
X178192242Y-66796217D01*
X178445585Y-67049560D01*
X178403152Y-67058000D01*
X178403148Y-67058000D01*
X178181463Y-67102096D01*
X177930071Y-67270071D01*
X177887671Y-67333527D01*
X176807528Y-68413671D01*
X176744072Y-68456071D01*
X176701672Y-68519527D01*
X176701671Y-68519528D01*
X176643518Y-68606560D01*
X176442000Y-68606560D01*
X176194235Y-68655843D01*
X175984191Y-68796191D01*
X175843843Y-69006235D01*
X175794560Y-69254000D01*
X175794560Y-70954000D01*
X175843843Y-71201765D01*
X175984191Y-71411809D01*
X176194235Y-71552157D01*
X176442000Y-71601440D01*
X178142000Y-71601440D01*
X178389765Y-71552157D01*
X178599809Y-71411809D01*
X178740157Y-71201765D01*
X178760739Y-71098292D01*
X179065076Y-71375645D01*
X179475110Y-71545476D01*
X179705000Y-71424155D01*
X179705000Y-70231000D01*
X179685000Y-70231000D01*
X179685000Y-69977000D01*
X179705000Y-69977000D01*
X179705000Y-68783845D01*
X179959000Y-68783845D01*
X179959000Y-69977000D01*
X179979000Y-69977000D01*
X179979000Y-70231000D01*
X179959000Y-70231000D01*
X179959000Y-71424155D01*
X180188890Y-71545476D01*
X180598924Y-71375645D01*
X181027183Y-70985358D01*
X181088157Y-70855522D01*
X181301375Y-71174625D01*
X181792582Y-71502839D01*
X182225744Y-71589000D01*
X182518256Y-71589000D01*
X182951418Y-71502839D01*
X183442625Y-71174625D01*
X183770839Y-70683418D01*
X183886092Y-70104000D01*
X183770839Y-69524582D01*
X183442625Y-69033375D01*
X182951418Y-68705161D01*
X182518256Y-68619000D01*
X182225744Y-68619000D01*
X181792582Y-68705161D01*
X181301375Y-69033375D01*
X181088157Y-69352478D01*
X181027183Y-69222642D01*
X180598924Y-68832355D01*
X180188890Y-68662524D01*
X179959000Y-68783845D01*
X179705000Y-68783845D01*
X179475110Y-68662524D01*
X179065076Y-68832355D01*
X178760739Y-69109708D01*
X178740157Y-69006235D01*
X178599809Y-68796191D01*
X178584704Y-68786098D01*
X178792802Y-68578000D01*
X181027153Y-68578000D01*
X181102000Y-68592888D01*
X181176847Y-68578000D01*
X181176852Y-68578000D01*
X181398537Y-68533904D01*
X181649929Y-68365929D01*
X181692331Y-68302470D01*
X182348473Y-67646329D01*
X182411929Y-67603929D01*
X182556583Y-67387440D01*
X182564000Y-67387440D01*
X182811765Y-67338157D01*
X182969000Y-67233095D01*
X182969000Y-67261439D01*
X183187466Y-67788862D01*
X183591138Y-68192534D01*
X184118561Y-68411000D01*
X184689439Y-68411000D01*
X185039000Y-68266207D01*
X185039000Y-71755000D01*
X171323000Y-71755000D01*
X171323000Y-69330452D01*
X172909000Y-69330452D01*
X172909000Y-69861548D01*
X173112242Y-70352217D01*
X173487783Y-70727758D01*
X173978452Y-70931000D01*
X174509548Y-70931000D01*
X175000217Y-70727758D01*
X175375758Y-70352217D01*
X175579000Y-69861548D01*
X175579000Y-69330452D01*
X175375758Y-68839783D01*
X175000217Y-68464242D01*
X174509548Y-68261000D01*
X173978452Y-68261000D01*
X173487783Y-68464242D01*
X173112242Y-68839783D01*
X172909000Y-69330452D01*
X171323000Y-69330452D01*
X171323000Y-64516000D01*
X172882846Y-64516000D01*
X172986458Y-65036891D01*
X173281519Y-65478481D01*
X173723109Y-65773542D01*
X174112515Y-65851000D01*
X174375485Y-65851000D01*
X174764891Y-65773542D01*
X175206481Y-65478481D01*
X175501542Y-65036891D01*
X175605154Y-64516000D01*
X175501542Y-63995109D01*
X175206481Y-63553519D01*
X174764891Y-63258458D01*
X174375485Y-63181000D01*
X174112515Y-63181000D01*
X173723109Y-63258458D01*
X173281519Y-63553519D01*
X172986458Y-63995109D01*
X172882846Y-64516000D01*
X171323000Y-64516000D01*
X171323000Y-62353179D01*
X171503466Y-62788862D01*
X171907138Y-63192534D01*
X172434561Y-63411000D01*
X173005439Y-63411000D01*
X173532862Y-63192534D01*
X173936534Y-62788862D01*
X174155000Y-62261439D01*
X174155000Y-61690561D01*
X173936534Y-61163138D01*
X173532862Y-60759466D01*
X173005439Y-60541000D01*
X172434561Y-60541000D01*
X171907138Y-60759466D01*
X171503466Y-61163138D01*
X171323000Y-61598821D01*
X171323000Y-57983745D01*
X180019861Y-57983745D01*
X180093995Y-58229864D01*
X180631223Y-58422965D01*
X181201454Y-58395778D01*
X181602005Y-58229864D01*
X181676139Y-57983745D01*
X180848000Y-57155605D01*
X180019861Y-57983745D01*
X171323000Y-57983745D01*
X171323000Y-56759223D01*
X179401035Y-56759223D01*
X179428222Y-57329454D01*
X179594136Y-57730005D01*
X179840255Y-57804139D01*
X180668395Y-56976000D01*
X181027605Y-56976000D01*
X181855745Y-57804139D01*
X182101864Y-57730005D01*
X182294965Y-57192777D01*
X182267778Y-56622546D01*
X182101864Y-56221995D01*
X181855745Y-56147861D01*
X181027605Y-56976000D01*
X180668395Y-56976000D01*
X179840255Y-56147861D01*
X179594136Y-56221995D01*
X179401035Y-56759223D01*
X171323000Y-56759223D01*
X171323000Y-46888000D01*
X171880984Y-46888000D01*
X171661944Y-47107040D01*
X171661944Y-47107040D01*
G37*
X171661944Y-47107040D02*
X171394000Y-47753914D01*
X171394000Y-48454086D01*
X171661944Y-49100960D01*
X172157040Y-49596056D01*
X172298136Y-49654500D01*
X172157040Y-49712944D01*
X171661944Y-50208040D01*
X171394000Y-50854914D01*
X171394000Y-51555086D01*
X171661944Y-52201960D01*
X172157040Y-52697056D01*
X172295722Y-52754500D01*
X172157040Y-52811944D01*
X171661944Y-53307040D01*
X171394000Y-53953914D01*
X171394000Y-54654086D01*
X171661944Y-55300960D01*
X172157040Y-55796056D01*
X172803914Y-56064000D01*
X173504086Y-56064000D01*
X173735234Y-55968255D01*
X180019861Y-55968255D01*
X180848000Y-56796395D01*
X181676139Y-55968255D01*
X181602005Y-55722136D01*
X181064777Y-55529035D01*
X180494546Y-55556222D01*
X180093995Y-55722136D01*
X180019861Y-55968255D01*
X173735234Y-55968255D01*
X174150960Y-55796056D01*
X174646056Y-55300960D01*
X174914000Y-54654086D01*
X174914000Y-53953914D01*
X174646056Y-53307040D01*
X174150960Y-52811944D01*
X174012278Y-52754500D01*
X174150960Y-52697056D01*
X174646056Y-52201960D01*
X174914000Y-51555086D01*
X174914000Y-50854914D01*
X174646056Y-50208040D01*
X174150960Y-49712944D01*
X174009864Y-49654500D01*
X174150960Y-49596056D01*
X174646056Y-49100960D01*
X174914000Y-48454086D01*
X174914000Y-47753914D01*
X174646056Y-47107040D01*
X174427016Y-46888000D01*
X181680984Y-46888000D01*
X181461944Y-47107040D01*
X181194000Y-47753914D01*
X181194000Y-48454086D01*
X181461944Y-49100960D01*
X181957040Y-49596056D01*
X182098136Y-49654500D01*
X181957040Y-49712944D01*
X181461944Y-50208040D01*
X181194000Y-50854914D01*
X181194000Y-51555086D01*
X181461944Y-52201960D01*
X181957040Y-52697056D01*
X182095722Y-52754500D01*
X181957040Y-52811944D01*
X181461944Y-53307040D01*
X181194000Y-53953914D01*
X181194000Y-54654086D01*
X181461944Y-55300960D01*
X181957040Y-55796056D01*
X182603914Y-56064000D01*
X183304086Y-56064000D01*
X183950960Y-55796056D01*
X184446056Y-55300960D01*
X184714000Y-54654086D01*
X184714000Y-53953914D01*
X184446056Y-53307040D01*
X183950960Y-52811944D01*
X183812278Y-52754500D01*
X183950960Y-52697056D01*
X184446056Y-52201960D01*
X184714000Y-51555086D01*
X184714000Y-50854914D01*
X184446056Y-50208040D01*
X183950960Y-49712944D01*
X183809864Y-49654500D01*
X183950960Y-49596056D01*
X184446056Y-49100960D01*
X184714000Y-48454086D01*
X184714000Y-47753914D01*
X184446056Y-47107040D01*
X184227016Y-46888000D01*
X184846998Y-46888000D01*
X185037164Y-46925826D01*
X185039000Y-46927053D01*
X185039000Y-60679361D01*
X184620777Y-60529035D01*
X184050546Y-60556222D01*
X183649995Y-60722136D01*
X183575861Y-60968255D01*
X184404000Y-61796395D01*
X184418142Y-61782252D01*
X184597748Y-61961858D01*
X184583605Y-61976000D01*
X184597748Y-61990142D01*
X184418142Y-62169748D01*
X184404000Y-62155605D01*
X183575861Y-62983745D01*
X183649995Y-63229864D01*
X184187223Y-63422965D01*
X184757454Y-63395778D01*
X185039000Y-63279158D01*
X185039000Y-65685793D01*
X184689439Y-65541000D01*
X184118561Y-65541000D01*
X183591138Y-65759466D01*
X183211440Y-66139164D01*
X183211440Y-65340000D01*
X183162157Y-65092235D01*
X183021809Y-64882191D01*
X182811765Y-64741843D01*
X182564000Y-64692560D01*
X181813021Y-64692560D01*
X181941419Y-64327878D01*
X181912664Y-63797560D01*
X181765042Y-63441169D01*
X181529277Y-63379331D01*
X181644526Y-63264082D01*
X181598719Y-63218275D01*
X181660862Y-63192534D01*
X182064534Y-62788862D01*
X182283000Y-62261439D01*
X182283000Y-61759223D01*
X182957035Y-61759223D01*
X182984222Y-62329454D01*
X183150136Y-62730005D01*
X183396255Y-62804139D01*
X184224395Y-61976000D01*
X183396255Y-61147861D01*
X183150136Y-61221995D01*
X182957035Y-61759223D01*
X182283000Y-61759223D01*
X182283000Y-61690561D01*
X182064534Y-61163138D01*
X181660862Y-60759466D01*
X181133439Y-60541000D01*
X180562561Y-60541000D01*
X180035138Y-60759466D01*
X179631466Y-61163138D01*
X179413000Y-61690561D01*
X179413000Y-62261439D01*
X179631466Y-62788862D01*
X179880719Y-63038115D01*
X179838331Y-63199725D01*
X180594000Y-63955395D01*
X180608142Y-63941252D01*
X180787748Y-64120858D01*
X180773605Y-64135000D01*
X180787748Y-64149142D01*
X180608143Y-64328748D01*
X180594000Y-64314605D01*
X180579858Y-64328748D01*
X180400252Y-64149142D01*
X180414395Y-64135000D01*
X179658725Y-63379331D01*
X179422958Y-63441169D01*
X179325847Y-63716987D01*
X179185758Y-63378783D01*
X178810217Y-63003242D01*
X178747947Y-62977449D01*
X178936534Y-62788862D01*
X179155000Y-62261439D01*
X179155000Y-61690561D01*
X178936534Y-61163138D01*
X178532862Y-60759466D01*
X178005439Y-60541000D01*
X177434561Y-60541000D01*
X176907138Y-60759466D01*
X176503466Y-61163138D01*
X176285000Y-61690561D01*
X176285000Y-62261439D01*
X176503466Y-62788862D01*
X176907138Y-63192534D01*
X177049516Y-63251509D01*
X176922242Y-63378783D01*
X176719000Y-63869452D01*
X176719000Y-64400548D01*
X176845108Y-64705000D01*
X176518452Y-64705000D01*
X176027783Y-64908242D01*
X175652242Y-65283783D01*
X175449000Y-65774452D01*
X175449000Y-66305548D01*
X175652242Y-66796217D01*
X176027783Y-67171758D01*
X176518452Y-67375000D01*
X177049548Y-67375000D01*
X177540217Y-67171758D01*
X177915758Y-66796217D01*
X178054000Y-66462472D01*
X178192242Y-66796217D01*
X178445585Y-67049560D01*
X178403152Y-67058000D01*
X178403148Y-67058000D01*
X178181463Y-67102096D01*
X177930071Y-67270071D01*
X177887671Y-67333527D01*
X176807528Y-68413671D01*
X176744072Y-68456071D01*
X176701672Y-68519527D01*
X176701671Y-68519528D01*
X176643518Y-68606560D01*
X176442000Y-68606560D01*
X176194235Y-68655843D01*
X175984191Y-68796191D01*
X175843843Y-69006235D01*
X175794560Y-69254000D01*
X175794560Y-70954000D01*
X175843843Y-71201765D01*
X175984191Y-71411809D01*
X176194235Y-71552157D01*
X176442000Y-71601440D01*
X178142000Y-71601440D01*
X178389765Y-71552157D01*
X178599809Y-71411809D01*
X178740157Y-71201765D01*
X178760739Y-71098292D01*
X179065076Y-71375645D01*
X179475110Y-71545476D01*
X179705000Y-71424155D01*
X179705000Y-70231000D01*
X179685000Y-70231000D01*
X179685000Y-69977000D01*
X179705000Y-69977000D01*
X179705000Y-68783845D01*
X179959000Y-68783845D01*
X179959000Y-69977000D01*
X179979000Y-69977000D01*
X179979000Y-70231000D01*
X179959000Y-70231000D01*
X179959000Y-71424155D01*
X180188890Y-71545476D01*
X180598924Y-71375645D01*
X181027183Y-70985358D01*
X181088157Y-70855522D01*
X181301375Y-71174625D01*
X181792582Y-71502839D01*
X182225744Y-71589000D01*
X182518256Y-71589000D01*
X182951418Y-71502839D01*
X183442625Y-71174625D01*
X183770839Y-70683418D01*
X183886092Y-70104000D01*
X183770839Y-69524582D01*
X183442625Y-69033375D01*
X182951418Y-68705161D01*
X182518256Y-68619000D01*
X182225744Y-68619000D01*
X181792582Y-68705161D01*
X181301375Y-69033375D01*
X181088157Y-69352478D01*
X181027183Y-69222642D01*
X180598924Y-68832355D01*
X180188890Y-68662524D01*
X179959000Y-68783845D01*
X179705000Y-68783845D01*
X179475110Y-68662524D01*
X179065076Y-68832355D01*
X178760739Y-69109708D01*
X178740157Y-69006235D01*
X178599809Y-68796191D01*
X178584704Y-68786098D01*
X178792802Y-68578000D01*
X181027153Y-68578000D01*
X181102000Y-68592888D01*
X181176847Y-68578000D01*
X181176852Y-68578000D01*
X181398537Y-68533904D01*
X181649929Y-68365929D01*
X181692331Y-68302470D01*
X182348473Y-67646329D01*
X182411929Y-67603929D01*
X182556583Y-67387440D01*
X182564000Y-67387440D01*
X182811765Y-67338157D01*
X182969000Y-67233095D01*
X182969000Y-67261439D01*
X183187466Y-67788862D01*
X183591138Y-68192534D01*
X184118561Y-68411000D01*
X184689439Y-68411000D01*
X185039000Y-68266207D01*
X185039000Y-71755000D01*
X171323000Y-71755000D01*
X171323000Y-69330452D01*
X172909000Y-69330452D01*
X172909000Y-69861548D01*
X173112242Y-70352217D01*
X173487783Y-70727758D01*
X173978452Y-70931000D01*
X174509548Y-70931000D01*
X175000217Y-70727758D01*
X175375758Y-70352217D01*
X175579000Y-69861548D01*
X175579000Y-69330452D01*
X175375758Y-68839783D01*
X175000217Y-68464242D01*
X174509548Y-68261000D01*
X173978452Y-68261000D01*
X173487783Y-68464242D01*
X173112242Y-68839783D01*
X172909000Y-69330452D01*
X171323000Y-69330452D01*
X171323000Y-64516000D01*
X172882846Y-64516000D01*
X172986458Y-65036891D01*
X173281519Y-65478481D01*
X173723109Y-65773542D01*
X174112515Y-65851000D01*
X174375485Y-65851000D01*
X174764891Y-65773542D01*
X175206481Y-65478481D01*
X175501542Y-65036891D01*
X175605154Y-64516000D01*
X175501542Y-63995109D01*
X175206481Y-63553519D01*
X174764891Y-63258458D01*
X174375485Y-63181000D01*
X174112515Y-63181000D01*
X173723109Y-63258458D01*
X173281519Y-63553519D01*
X172986458Y-63995109D01*
X172882846Y-64516000D01*
X171323000Y-64516000D01*
X171323000Y-62353179D01*
X171503466Y-62788862D01*
X171907138Y-63192534D01*
X172434561Y-63411000D01*
X173005439Y-63411000D01*
X173532862Y-63192534D01*
X173936534Y-62788862D01*
X174155000Y-62261439D01*
X174155000Y-61690561D01*
X173936534Y-61163138D01*
X173532862Y-60759466D01*
X173005439Y-60541000D01*
X172434561Y-60541000D01*
X171907138Y-60759466D01*
X171503466Y-61163138D01*
X171323000Y-61598821D01*
X171323000Y-57983745D01*
X180019861Y-57983745D01*
X180093995Y-58229864D01*
X180631223Y-58422965D01*
X181201454Y-58395778D01*
X181602005Y-58229864D01*
X181676139Y-57983745D01*
X180848000Y-57155605D01*
X180019861Y-57983745D01*
X171323000Y-57983745D01*
X171323000Y-56759223D01*
X179401035Y-56759223D01*
X179428222Y-57329454D01*
X179594136Y-57730005D01*
X179840255Y-57804139D01*
X180668395Y-56976000D01*
X181027605Y-56976000D01*
X181855745Y-57804139D01*
X182101864Y-57730005D01*
X182294965Y-57192777D01*
X182267778Y-56622546D01*
X182101864Y-56221995D01*
X181855745Y-56147861D01*
X181027605Y-56976000D01*
X180668395Y-56976000D01*
X179840255Y-56147861D01*
X179594136Y-56221995D01*
X179401035Y-56759223D01*
X171323000Y-56759223D01*
X171323000Y-46888000D01*
X171880984Y-46888000D01*
X171661944Y-47107040D01*
G04 #@! TO.N,GND*
G36*
X138184673Y-73263101D02*
X138088000Y-73496490D01*
X138088000Y-74187050D01*
X138246750Y-74345800D01*
X139446000Y-74345800D01*
X139446000Y-74325800D01*
X139700000Y-74325800D01*
X139700000Y-74345800D01*
X140899250Y-74345800D01*
X141058000Y-74187050D01*
X141058000Y-73496490D01*
X140961327Y-73263101D01*
X140858225Y-73160000D01*
X145038932Y-73160000D01*
X143237418Y-74961515D01*
X143143333Y-74942800D01*
X142860667Y-74942800D01*
X142442091Y-75026060D01*
X141967423Y-75343223D01*
X141650260Y-75817891D01*
X141538887Y-76377800D01*
X141650260Y-76937709D01*
X141967423Y-77412377D01*
X142319758Y-77647800D01*
X141967423Y-77883223D01*
X141650260Y-78357891D01*
X141638343Y-78417800D01*
X140547281Y-78417800D01*
X140345239Y-78282800D01*
X140643625Y-78083425D01*
X140971839Y-77592218D01*
X141087092Y-77012800D01*
X140971839Y-76433382D01*
X140643625Y-75942175D01*
X140621967Y-75927704D01*
X140782698Y-75861127D01*
X140961327Y-75682499D01*
X141058000Y-75449110D01*
X141058000Y-74758550D01*
X140899250Y-74599800D01*
X139700000Y-74599800D01*
X139700000Y-74619800D01*
X139446000Y-74619800D01*
X139446000Y-74599800D01*
X138246750Y-74599800D01*
X138088000Y-74758550D01*
X138088000Y-75449110D01*
X138184673Y-75682499D01*
X138363302Y-75861127D01*
X138524033Y-75927704D01*
X138502375Y-75942175D01*
X138174161Y-76433382D01*
X138058908Y-77012800D01*
X138174161Y-77592218D01*
X138502375Y-78083425D01*
X138800761Y-78282800D01*
X138502375Y-78482175D01*
X138174161Y-78973382D01*
X138058908Y-79552800D01*
X138174161Y-80132218D01*
X138502375Y-80623425D01*
X138800761Y-80822800D01*
X138502375Y-81022175D01*
X138174161Y-81513382D01*
X138058908Y-82092800D01*
X138174161Y-82672218D01*
X138502375Y-83163425D01*
X138800761Y-83362800D01*
X138502375Y-83562175D01*
X138174161Y-84053382D01*
X138058908Y-84632800D01*
X138174161Y-85212218D01*
X138502375Y-85703425D01*
X138800761Y-85902800D01*
X138502375Y-86102175D01*
X138174161Y-86593382D01*
X138058908Y-87172800D01*
X138174161Y-87752218D01*
X138502375Y-88243425D01*
X138800761Y-88442800D01*
X138502375Y-88642175D01*
X138174161Y-89133382D01*
X138058908Y-89712800D01*
X138174161Y-90292218D01*
X138502375Y-90783425D01*
X138800761Y-90982800D01*
X138502375Y-91182175D01*
X138174161Y-91673382D01*
X138058908Y-92252800D01*
X138174161Y-92832218D01*
X138502375Y-93323425D01*
X138800761Y-93522800D01*
X138502375Y-93722175D01*
X138174161Y-94213382D01*
X138058908Y-94792800D01*
X138174161Y-95372218D01*
X138502375Y-95863425D01*
X138800761Y-96062800D01*
X138502375Y-96262175D01*
X138174161Y-96753382D01*
X138058908Y-97332800D01*
X138174161Y-97912218D01*
X138438000Y-98307081D01*
X138438000Y-99368387D01*
X138415765Y-99480170D01*
X138438000Y-99591952D01*
X138503854Y-99923024D01*
X138754711Y-100298459D01*
X138849482Y-100361783D01*
X140989021Y-102501324D01*
X141052341Y-102596089D01*
X141147105Y-102659408D01*
X141147106Y-102659409D01*
X141427775Y-102846946D01*
X141870630Y-102935035D01*
X141982413Y-102912800D01*
X142117717Y-102912800D01*
X142351108Y-103068747D01*
X142146866Y-103165411D01*
X141770959Y-103580377D01*
X141610096Y-103968761D01*
X141732085Y-104190800D01*
X142875000Y-104190800D01*
X142875000Y-104170800D01*
X143129000Y-104170800D01*
X143129000Y-104190800D01*
X144271915Y-104190800D01*
X144393904Y-103968761D01*
X144233041Y-103580377D01*
X143857134Y-103165411D01*
X143652892Y-103068747D01*
X144036577Y-102812377D01*
X144353740Y-102337709D01*
X144429849Y-101955082D01*
X148552132Y-97832800D01*
X149737717Y-97832800D01*
X149971108Y-97988747D01*
X149766866Y-98085411D01*
X149390959Y-98500377D01*
X149230096Y-98888761D01*
X149352085Y-99110800D01*
X150495000Y-99110800D01*
X150495000Y-99090800D01*
X150749000Y-99090800D01*
X150749000Y-99110800D01*
X150769000Y-99110800D01*
X150769000Y-99364800D01*
X150749000Y-99364800D01*
X150749000Y-99384800D01*
X150495000Y-99384800D01*
X150495000Y-99364800D01*
X149352085Y-99364800D01*
X149230096Y-99586839D01*
X149390959Y-99975223D01*
X149766866Y-100390189D01*
X149971108Y-100486853D01*
X149587423Y-100743223D01*
X149270260Y-101217891D01*
X149158887Y-101777800D01*
X149270260Y-102337709D01*
X149587423Y-102812377D01*
X149939758Y-103047800D01*
X149587423Y-103283223D01*
X149270260Y-103757891D01*
X149158887Y-104317800D01*
X149270260Y-104877709D01*
X149587423Y-105352377D01*
X149939758Y-105587800D01*
X149587423Y-105823223D01*
X149270260Y-106297891D01*
X149158887Y-106857800D01*
X149270260Y-107417709D01*
X149587423Y-107892377D01*
X149939758Y-108127800D01*
X149587423Y-108363223D01*
X149270260Y-108837891D01*
X149158887Y-109397800D01*
X149270260Y-109957709D01*
X149587423Y-110432377D01*
X150062091Y-110749540D01*
X150480667Y-110832800D01*
X150763333Y-110832800D01*
X151181909Y-110749540D01*
X151656577Y-110432377D01*
X151973740Y-109957709D01*
X152068313Y-109482255D01*
X153175861Y-109482255D01*
X154004000Y-110310395D01*
X154832139Y-109482255D01*
X154758005Y-109236136D01*
X154220777Y-109043035D01*
X153650546Y-109070222D01*
X153249995Y-109236136D01*
X153175861Y-109482255D01*
X152068313Y-109482255D01*
X152085113Y-109397800D01*
X151973740Y-108837891D01*
X151656577Y-108363223D01*
X151304242Y-108127800D01*
X151656577Y-107892377D01*
X151973740Y-107417709D01*
X152085113Y-106857800D01*
X151973740Y-106297891D01*
X151656577Y-105823223D01*
X151304242Y-105587800D01*
X151656577Y-105352377D01*
X151973740Y-104877709D01*
X152085113Y-104317800D01*
X151973740Y-103757891D01*
X151656577Y-103283223D01*
X151304242Y-103047800D01*
X151656577Y-102812377D01*
X151973740Y-102337709D01*
X152085113Y-101777800D01*
X151973740Y-101217891D01*
X151656577Y-100743223D01*
X151272892Y-100486853D01*
X151477134Y-100390189D01*
X151853041Y-99975223D01*
X152013904Y-99586839D01*
X151995532Y-99553399D01*
X157606560Y-105164428D01*
X157606560Y-105681000D01*
X157655843Y-105928765D01*
X157702662Y-105998835D01*
X157668734Y-106058664D01*
X157660036Y-106120190D01*
X157785837Y-106299000D01*
X158105994Y-106299000D01*
X158254000Y-106328440D01*
X159754000Y-106328440D01*
X159902006Y-106299000D01*
X160222163Y-106299000D01*
X160345462Y-106123745D01*
X162239861Y-106123745D01*
X162313995Y-106369864D01*
X162851223Y-106562965D01*
X163421454Y-106535778D01*
X163822005Y-106369864D01*
X163896139Y-106123745D01*
X163068000Y-105295605D01*
X162239861Y-106123745D01*
X160345462Y-106123745D01*
X160347964Y-106120190D01*
X160339266Y-106058664D01*
X160305338Y-105998835D01*
X160352157Y-105928765D01*
X160401440Y-105681000D01*
X160401440Y-104899223D01*
X161621035Y-104899223D01*
X161648222Y-105469454D01*
X161814136Y-105870005D01*
X162060255Y-105944139D01*
X162888395Y-105116000D01*
X163247605Y-105116000D01*
X164075745Y-105944139D01*
X164321864Y-105870005D01*
X164514965Y-105332777D01*
X164487778Y-104762546D01*
X164321864Y-104361995D01*
X164075745Y-104287861D01*
X163247605Y-105116000D01*
X162888395Y-105116000D01*
X162060255Y-104287861D01*
X161814136Y-104361995D01*
X161621035Y-104899223D01*
X160401440Y-104899223D01*
X160401440Y-104631000D01*
X160352157Y-104383235D01*
X160284255Y-104281613D01*
X161114868Y-103451000D01*
X161873604Y-103451000D01*
X162255138Y-103832534D01*
X162320299Y-103859525D01*
X162313995Y-103862136D01*
X162239861Y-104108255D01*
X163068000Y-104936395D01*
X163896139Y-104108255D01*
X163822005Y-103862136D01*
X163815254Y-103859710D01*
X163880862Y-103832534D01*
X164262396Y-103451000D01*
X165683907Y-103451000D01*
X165589000Y-103680126D01*
X165589000Y-104091874D01*
X165689001Y-104333298D01*
X165689000Y-108402433D01*
X165653157Y-108222235D01*
X165512809Y-108012191D01*
X165302765Y-107871843D01*
X165055000Y-107822560D01*
X164055000Y-107822560D01*
X163928027Y-107835133D01*
X163892471Y-107849904D01*
X163755000Y-107822560D01*
X162605000Y-107822560D01*
X162357235Y-107871843D01*
X162147191Y-108012191D01*
X162006843Y-108222235D01*
X161974467Y-108385000D01*
X161109000Y-108385000D01*
X161109000Y-107898237D01*
X161125358Y-107816000D01*
X161101488Y-107696000D01*
X161060552Y-107490199D01*
X160876001Y-107213999D01*
X160806280Y-107167413D01*
X160802587Y-107163720D01*
X160756001Y-107093999D01*
X160479801Y-106909448D01*
X160294341Y-106872558D01*
X160339266Y-106793336D01*
X160347964Y-106731810D01*
X160222163Y-106553000D01*
X159428710Y-106553000D01*
X159343246Y-106536000D01*
X158664754Y-106536000D01*
X158579290Y-106553000D01*
X157785837Y-106553000D01*
X157660036Y-106731810D01*
X157668734Y-106793336D01*
X157814854Y-107051004D01*
X157686305Y-107243391D01*
X157596275Y-107696000D01*
X157686305Y-108148609D01*
X157942687Y-108532313D01*
X158326391Y-108788695D01*
X158664754Y-108856000D01*
X159343246Y-108856000D01*
X159439001Y-108836953D01*
X159439001Y-108874131D01*
X159258132Y-109055000D01*
X158718561Y-109055000D01*
X158191138Y-109273466D01*
X157787466Y-109677138D01*
X157569000Y-110204561D01*
X157569000Y-110775439D01*
X157699296Y-111090000D01*
X155313219Y-111090000D01*
X155450965Y-110706777D01*
X155423778Y-110136546D01*
X155257864Y-109735995D01*
X155011745Y-109661861D01*
X154183605Y-110490000D01*
X154197748Y-110504142D01*
X154018142Y-110683748D01*
X154004000Y-110669605D01*
X153989858Y-110683748D01*
X153810252Y-110504142D01*
X153824395Y-110490000D01*
X152996255Y-109661861D01*
X152750136Y-109735995D01*
X152557035Y-110273223D01*
X152584222Y-110843454D01*
X152686345Y-111090000D01*
X138065002Y-111090000D01*
X137874836Y-111052174D01*
X137768726Y-110981274D01*
X137697826Y-110875164D01*
X137660000Y-110684998D01*
X137660000Y-109746839D01*
X141610096Y-109746839D01*
X141770959Y-110135223D01*
X142146866Y-110550189D01*
X142652959Y-110789714D01*
X142875000Y-110668429D01*
X142875000Y-109524800D01*
X143129000Y-109524800D01*
X143129000Y-110668429D01*
X143351041Y-110789714D01*
X143857134Y-110550189D01*
X144233041Y-110135223D01*
X144393904Y-109746839D01*
X144271915Y-109524800D01*
X143129000Y-109524800D01*
X142875000Y-109524800D01*
X141732085Y-109524800D01*
X141610096Y-109746839D01*
X137660000Y-109746839D01*
X137660000Y-107206839D01*
X141610096Y-107206839D01*
X141770959Y-107595223D01*
X142146866Y-108010189D01*
X142395367Y-108127800D01*
X142146866Y-108245411D01*
X141770959Y-108660377D01*
X141610096Y-109048761D01*
X141732085Y-109270800D01*
X142875000Y-109270800D01*
X142875000Y-106984800D01*
X143129000Y-106984800D01*
X143129000Y-109270800D01*
X144271915Y-109270800D01*
X144393904Y-109048761D01*
X144233041Y-108660377D01*
X143857134Y-108245411D01*
X143608633Y-108127800D01*
X143857134Y-108010189D01*
X144233041Y-107595223D01*
X144393904Y-107206839D01*
X144271915Y-106984800D01*
X143129000Y-106984800D01*
X142875000Y-106984800D01*
X141732085Y-106984800D01*
X141610096Y-107206839D01*
X137660000Y-107206839D01*
X137660000Y-104666839D01*
X141610096Y-104666839D01*
X141770959Y-105055223D01*
X142146866Y-105470189D01*
X142395367Y-105587800D01*
X142146866Y-105705411D01*
X141770959Y-106120377D01*
X141610096Y-106508761D01*
X141732085Y-106730800D01*
X142875000Y-106730800D01*
X142875000Y-104444800D01*
X143129000Y-104444800D01*
X143129000Y-106730800D01*
X144271915Y-106730800D01*
X144393904Y-106508761D01*
X144233041Y-106120377D01*
X143857134Y-105705411D01*
X143608633Y-105587800D01*
X143857134Y-105470189D01*
X144233041Y-105055223D01*
X144393904Y-104666839D01*
X144271915Y-104444800D01*
X143129000Y-104444800D01*
X142875000Y-104444800D01*
X141732085Y-104444800D01*
X141610096Y-104666839D01*
X137660000Y-104666839D01*
X137660000Y-73565002D01*
X137697826Y-73374836D01*
X137768726Y-73268726D01*
X137874836Y-73197826D01*
X138065002Y-73160000D01*
X138287775Y-73160000D01*
X138184673Y-73263101D01*
X138184673Y-73263101D01*
G37*
X138184673Y-73263101D02*
X138088000Y-73496490D01*
X138088000Y-74187050D01*
X138246750Y-74345800D01*
X139446000Y-74345800D01*
X139446000Y-74325800D01*
X139700000Y-74325800D01*
X139700000Y-74345800D01*
X140899250Y-74345800D01*
X141058000Y-74187050D01*
X141058000Y-73496490D01*
X140961327Y-73263101D01*
X140858225Y-73160000D01*
X145038932Y-73160000D01*
X143237418Y-74961515D01*
X143143333Y-74942800D01*
X142860667Y-74942800D01*
X142442091Y-75026060D01*
X141967423Y-75343223D01*
X141650260Y-75817891D01*
X141538887Y-76377800D01*
X141650260Y-76937709D01*
X141967423Y-77412377D01*
X142319758Y-77647800D01*
X141967423Y-77883223D01*
X141650260Y-78357891D01*
X141638343Y-78417800D01*
X140547281Y-78417800D01*
X140345239Y-78282800D01*
X140643625Y-78083425D01*
X140971839Y-77592218D01*
X141087092Y-77012800D01*
X140971839Y-76433382D01*
X140643625Y-75942175D01*
X140621967Y-75927704D01*
X140782698Y-75861127D01*
X140961327Y-75682499D01*
X141058000Y-75449110D01*
X141058000Y-74758550D01*
X140899250Y-74599800D01*
X139700000Y-74599800D01*
X139700000Y-74619800D01*
X139446000Y-74619800D01*
X139446000Y-74599800D01*
X138246750Y-74599800D01*
X138088000Y-74758550D01*
X138088000Y-75449110D01*
X138184673Y-75682499D01*
X138363302Y-75861127D01*
X138524033Y-75927704D01*
X138502375Y-75942175D01*
X138174161Y-76433382D01*
X138058908Y-77012800D01*
X138174161Y-77592218D01*
X138502375Y-78083425D01*
X138800761Y-78282800D01*
X138502375Y-78482175D01*
X138174161Y-78973382D01*
X138058908Y-79552800D01*
X138174161Y-80132218D01*
X138502375Y-80623425D01*
X138800761Y-80822800D01*
X138502375Y-81022175D01*
X138174161Y-81513382D01*
X138058908Y-82092800D01*
X138174161Y-82672218D01*
X138502375Y-83163425D01*
X138800761Y-83362800D01*
X138502375Y-83562175D01*
X138174161Y-84053382D01*
X138058908Y-84632800D01*
X138174161Y-85212218D01*
X138502375Y-85703425D01*
X138800761Y-85902800D01*
X138502375Y-86102175D01*
X138174161Y-86593382D01*
X138058908Y-87172800D01*
X138174161Y-87752218D01*
X138502375Y-88243425D01*
X138800761Y-88442800D01*
X138502375Y-88642175D01*
X138174161Y-89133382D01*
X138058908Y-89712800D01*
X138174161Y-90292218D01*
X138502375Y-90783425D01*
X138800761Y-90982800D01*
X138502375Y-91182175D01*
X138174161Y-91673382D01*
X138058908Y-92252800D01*
X138174161Y-92832218D01*
X138502375Y-93323425D01*
X138800761Y-93522800D01*
X138502375Y-93722175D01*
X138174161Y-94213382D01*
X138058908Y-94792800D01*
X138174161Y-95372218D01*
X138502375Y-95863425D01*
X138800761Y-96062800D01*
X138502375Y-96262175D01*
X138174161Y-96753382D01*
X138058908Y-97332800D01*
X138174161Y-97912218D01*
X138438000Y-98307081D01*
X138438000Y-99368387D01*
X138415765Y-99480170D01*
X138438000Y-99591952D01*
X138503854Y-99923024D01*
X138754711Y-100298459D01*
X138849482Y-100361783D01*
X140989021Y-102501324D01*
X141052341Y-102596089D01*
X141147105Y-102659408D01*
X141147106Y-102659409D01*
X141427775Y-102846946D01*
X141870630Y-102935035D01*
X141982413Y-102912800D01*
X142117717Y-102912800D01*
X142351108Y-103068747D01*
X142146866Y-103165411D01*
X141770959Y-103580377D01*
X141610096Y-103968761D01*
X141732085Y-104190800D01*
X142875000Y-104190800D01*
X142875000Y-104170800D01*
X143129000Y-104170800D01*
X143129000Y-104190800D01*
X144271915Y-104190800D01*
X144393904Y-103968761D01*
X144233041Y-103580377D01*
X143857134Y-103165411D01*
X143652892Y-103068747D01*
X144036577Y-102812377D01*
X144353740Y-102337709D01*
X144429849Y-101955082D01*
X148552132Y-97832800D01*
X149737717Y-97832800D01*
X149971108Y-97988747D01*
X149766866Y-98085411D01*
X149390959Y-98500377D01*
X149230096Y-98888761D01*
X149352085Y-99110800D01*
X150495000Y-99110800D01*
X150495000Y-99090800D01*
X150749000Y-99090800D01*
X150749000Y-99110800D01*
X150769000Y-99110800D01*
X150769000Y-99364800D01*
X150749000Y-99364800D01*
X150749000Y-99384800D01*
X150495000Y-99384800D01*
X150495000Y-99364800D01*
X149352085Y-99364800D01*
X149230096Y-99586839D01*
X149390959Y-99975223D01*
X149766866Y-100390189D01*
X149971108Y-100486853D01*
X149587423Y-100743223D01*
X149270260Y-101217891D01*
X149158887Y-101777800D01*
X149270260Y-102337709D01*
X149587423Y-102812377D01*
X149939758Y-103047800D01*
X149587423Y-103283223D01*
X149270260Y-103757891D01*
X149158887Y-104317800D01*
X149270260Y-104877709D01*
X149587423Y-105352377D01*
X149939758Y-105587800D01*
X149587423Y-105823223D01*
X149270260Y-106297891D01*
X149158887Y-106857800D01*
X149270260Y-107417709D01*
X149587423Y-107892377D01*
X149939758Y-108127800D01*
X149587423Y-108363223D01*
X149270260Y-108837891D01*
X149158887Y-109397800D01*
X149270260Y-109957709D01*
X149587423Y-110432377D01*
X150062091Y-110749540D01*
X150480667Y-110832800D01*
X150763333Y-110832800D01*
X151181909Y-110749540D01*
X151656577Y-110432377D01*
X151973740Y-109957709D01*
X152068313Y-109482255D01*
X153175861Y-109482255D01*
X154004000Y-110310395D01*
X154832139Y-109482255D01*
X154758005Y-109236136D01*
X154220777Y-109043035D01*
X153650546Y-109070222D01*
X153249995Y-109236136D01*
X153175861Y-109482255D01*
X152068313Y-109482255D01*
X152085113Y-109397800D01*
X151973740Y-108837891D01*
X151656577Y-108363223D01*
X151304242Y-108127800D01*
X151656577Y-107892377D01*
X151973740Y-107417709D01*
X152085113Y-106857800D01*
X151973740Y-106297891D01*
X151656577Y-105823223D01*
X151304242Y-105587800D01*
X151656577Y-105352377D01*
X151973740Y-104877709D01*
X152085113Y-104317800D01*
X151973740Y-103757891D01*
X151656577Y-103283223D01*
X151304242Y-103047800D01*
X151656577Y-102812377D01*
X151973740Y-102337709D01*
X152085113Y-101777800D01*
X151973740Y-101217891D01*
X151656577Y-100743223D01*
X151272892Y-100486853D01*
X151477134Y-100390189D01*
X151853041Y-99975223D01*
X152013904Y-99586839D01*
X151995532Y-99553399D01*
X157606560Y-105164428D01*
X157606560Y-105681000D01*
X157655843Y-105928765D01*
X157702662Y-105998835D01*
X157668734Y-106058664D01*
X157660036Y-106120190D01*
X157785837Y-106299000D01*
X158105994Y-106299000D01*
X158254000Y-106328440D01*
X159754000Y-106328440D01*
X159902006Y-106299000D01*
X160222163Y-106299000D01*
X160345462Y-106123745D01*
X162239861Y-106123745D01*
X162313995Y-106369864D01*
X162851223Y-106562965D01*
X163421454Y-106535778D01*
X163822005Y-106369864D01*
X163896139Y-106123745D01*
X163068000Y-105295605D01*
X162239861Y-106123745D01*
X160345462Y-106123745D01*
X160347964Y-106120190D01*
X160339266Y-106058664D01*
X160305338Y-105998835D01*
X160352157Y-105928765D01*
X160401440Y-105681000D01*
X160401440Y-104899223D01*
X161621035Y-104899223D01*
X161648222Y-105469454D01*
X161814136Y-105870005D01*
X162060255Y-105944139D01*
X162888395Y-105116000D01*
X163247605Y-105116000D01*
X164075745Y-105944139D01*
X164321864Y-105870005D01*
X164514965Y-105332777D01*
X164487778Y-104762546D01*
X164321864Y-104361995D01*
X164075745Y-104287861D01*
X163247605Y-105116000D01*
X162888395Y-105116000D01*
X162060255Y-104287861D01*
X161814136Y-104361995D01*
X161621035Y-104899223D01*
X160401440Y-104899223D01*
X160401440Y-104631000D01*
X160352157Y-104383235D01*
X160284255Y-104281613D01*
X161114868Y-103451000D01*
X161873604Y-103451000D01*
X162255138Y-103832534D01*
X162320299Y-103859525D01*
X162313995Y-103862136D01*
X162239861Y-104108255D01*
X163068000Y-104936395D01*
X163896139Y-104108255D01*
X163822005Y-103862136D01*
X163815254Y-103859710D01*
X163880862Y-103832534D01*
X164262396Y-103451000D01*
X165683907Y-103451000D01*
X165589000Y-103680126D01*
X165589000Y-104091874D01*
X165689001Y-104333298D01*
X165689000Y-108402433D01*
X165653157Y-108222235D01*
X165512809Y-108012191D01*
X165302765Y-107871843D01*
X165055000Y-107822560D01*
X164055000Y-107822560D01*
X163928027Y-107835133D01*
X163892471Y-107849904D01*
X163755000Y-107822560D01*
X162605000Y-107822560D01*
X162357235Y-107871843D01*
X162147191Y-108012191D01*
X162006843Y-108222235D01*
X161974467Y-108385000D01*
X161109000Y-108385000D01*
X161109000Y-107898237D01*
X161125358Y-107816000D01*
X161101488Y-107696000D01*
X161060552Y-107490199D01*
X160876001Y-107213999D01*
X160806280Y-107167413D01*
X160802587Y-107163720D01*
X160756001Y-107093999D01*
X160479801Y-106909448D01*
X160294341Y-106872558D01*
X160339266Y-106793336D01*
X160347964Y-106731810D01*
X160222163Y-106553000D01*
X159428710Y-106553000D01*
X159343246Y-106536000D01*
X158664754Y-106536000D01*
X158579290Y-106553000D01*
X157785837Y-106553000D01*
X157660036Y-106731810D01*
X157668734Y-106793336D01*
X157814854Y-107051004D01*
X157686305Y-107243391D01*
X157596275Y-107696000D01*
X157686305Y-108148609D01*
X157942687Y-108532313D01*
X158326391Y-108788695D01*
X158664754Y-108856000D01*
X159343246Y-108856000D01*
X159439001Y-108836953D01*
X159439001Y-108874131D01*
X159258132Y-109055000D01*
X158718561Y-109055000D01*
X158191138Y-109273466D01*
X157787466Y-109677138D01*
X157569000Y-110204561D01*
X157569000Y-110775439D01*
X157699296Y-111090000D01*
X155313219Y-111090000D01*
X155450965Y-110706777D01*
X155423778Y-110136546D01*
X155257864Y-109735995D01*
X155011745Y-109661861D01*
X154183605Y-110490000D01*
X154197748Y-110504142D01*
X154018142Y-110683748D01*
X154004000Y-110669605D01*
X153989858Y-110683748D01*
X153810252Y-110504142D01*
X153824395Y-110490000D01*
X152996255Y-109661861D01*
X152750136Y-109735995D01*
X152557035Y-110273223D01*
X152584222Y-110843454D01*
X152686345Y-111090000D01*
X138065002Y-111090000D01*
X137874836Y-111052174D01*
X137768726Y-110981274D01*
X137697826Y-110875164D01*
X137660000Y-110684998D01*
X137660000Y-109746839D01*
X141610096Y-109746839D01*
X141770959Y-110135223D01*
X142146866Y-110550189D01*
X142652959Y-110789714D01*
X142875000Y-110668429D01*
X142875000Y-109524800D01*
X143129000Y-109524800D01*
X143129000Y-110668429D01*
X143351041Y-110789714D01*
X143857134Y-110550189D01*
X144233041Y-110135223D01*
X144393904Y-109746839D01*
X144271915Y-109524800D01*
X143129000Y-109524800D01*
X142875000Y-109524800D01*
X141732085Y-109524800D01*
X141610096Y-109746839D01*
X137660000Y-109746839D01*
X137660000Y-107206839D01*
X141610096Y-107206839D01*
X141770959Y-107595223D01*
X142146866Y-108010189D01*
X142395367Y-108127800D01*
X142146866Y-108245411D01*
X141770959Y-108660377D01*
X141610096Y-109048761D01*
X141732085Y-109270800D01*
X142875000Y-109270800D01*
X142875000Y-106984800D01*
X143129000Y-106984800D01*
X143129000Y-109270800D01*
X144271915Y-109270800D01*
X144393904Y-109048761D01*
X144233041Y-108660377D01*
X143857134Y-108245411D01*
X143608633Y-108127800D01*
X143857134Y-108010189D01*
X144233041Y-107595223D01*
X144393904Y-107206839D01*
X144271915Y-106984800D01*
X143129000Y-106984800D01*
X142875000Y-106984800D01*
X141732085Y-106984800D01*
X141610096Y-107206839D01*
X137660000Y-107206839D01*
X137660000Y-104666839D01*
X141610096Y-104666839D01*
X141770959Y-105055223D01*
X142146866Y-105470189D01*
X142395367Y-105587800D01*
X142146866Y-105705411D01*
X141770959Y-106120377D01*
X141610096Y-106508761D01*
X141732085Y-106730800D01*
X142875000Y-106730800D01*
X142875000Y-104444800D01*
X143129000Y-104444800D01*
X143129000Y-106730800D01*
X144271915Y-106730800D01*
X144393904Y-106508761D01*
X144233041Y-106120377D01*
X143857134Y-105705411D01*
X143608633Y-105587800D01*
X143857134Y-105470189D01*
X144233041Y-105055223D01*
X144393904Y-104666839D01*
X144271915Y-104444800D01*
X143129000Y-104444800D01*
X142875000Y-104444800D01*
X141732085Y-104444800D01*
X141610096Y-104666839D01*
X137660000Y-104666839D01*
X137660000Y-73565002D01*
X137697826Y-73374836D01*
X137768726Y-73268726D01*
X137874836Y-73197826D01*
X138065002Y-73160000D01*
X138287775Y-73160000D01*
X138184673Y-73263101D01*
G36*
X172096997Y-73160000D02*
X183993003Y-73160000D01*
X184033222Y-73152000D01*
X185268000Y-73152000D01*
X185268000Y-87224000D01*
X178734997Y-87224000D01*
X178671241Y-87236682D01*
X178661841Y-87236682D01*
X178279158Y-87312802D01*
X178041241Y-87411350D01*
X177716817Y-87628123D01*
X177534723Y-87810217D01*
X177317950Y-88134641D01*
X177272605Y-88244115D01*
X176519661Y-87491172D01*
X176467497Y-87413103D01*
X176158219Y-87206450D01*
X175885486Y-87152200D01*
X175793400Y-87133883D01*
X175701314Y-87152200D01*
X174192890Y-87152200D01*
X174032400Y-86991710D01*
X174438657Y-86720257D01*
X174728193Y-86286936D01*
X174829864Y-85775800D01*
X174728193Y-85264664D01*
X174438657Y-84831343D01*
X174175529Y-84655526D01*
X176942800Y-84655526D01*
X176942800Y-85067274D01*
X177100369Y-85447680D01*
X177391520Y-85738831D01*
X177771926Y-85896400D01*
X178183674Y-85896400D01*
X178564080Y-85738831D01*
X178681511Y-85621400D01*
X180579674Y-85621400D01*
X180612235Y-85643157D01*
X180860000Y-85692440D01*
X182360000Y-85692440D01*
X182607765Y-85643157D01*
X182817809Y-85502809D01*
X182958157Y-85292765D01*
X183007440Y-85045000D01*
X183007440Y-83895000D01*
X182971426Y-83776055D01*
X183007440Y-83595000D01*
X183007440Y-83032927D01*
X183046097Y-83007097D01*
X183252750Y-82697819D01*
X183307000Y-82425086D01*
X183307000Y-82425085D01*
X183325317Y-82333000D01*
X183307000Y-82240914D01*
X183307000Y-75837247D01*
X183442625Y-75746625D01*
X183770839Y-75255418D01*
X183886092Y-74676000D01*
X183770839Y-74096582D01*
X183442625Y-73605375D01*
X182951418Y-73277161D01*
X182518256Y-73191000D01*
X182225744Y-73191000D01*
X181792582Y-73277161D01*
X181301375Y-73605375D01*
X181088157Y-73924478D01*
X181027183Y-73794642D01*
X180598924Y-73404355D01*
X180188890Y-73234524D01*
X179959000Y-73355845D01*
X179959000Y-74549000D01*
X179979000Y-74549000D01*
X179979000Y-74803000D01*
X179959000Y-74803000D01*
X179959000Y-75996155D01*
X180188890Y-76117476D01*
X180598924Y-75947645D01*
X181027183Y-75557358D01*
X181088157Y-75427522D01*
X181301375Y-75746625D01*
X181437001Y-75837247D01*
X181437000Y-81945710D01*
X181435150Y-81947560D01*
X180860000Y-81947560D01*
X180612235Y-81996843D01*
X180402191Y-82137191D01*
X180261843Y-82347235D01*
X180212560Y-82595000D01*
X180212560Y-83595000D01*
X180225133Y-83721973D01*
X180239904Y-83757529D01*
X180212560Y-83895000D01*
X180212560Y-84101400D01*
X178681511Y-84101400D01*
X178564080Y-83983969D01*
X178183674Y-83826400D01*
X177771926Y-83826400D01*
X177391520Y-83983969D01*
X177100369Y-84275120D01*
X176942800Y-84655526D01*
X174175529Y-84655526D01*
X174005336Y-84541807D01*
X173623222Y-84465800D01*
X173365178Y-84465800D01*
X172983064Y-84541807D01*
X172549743Y-84831343D01*
X172494200Y-84914469D01*
X172438657Y-84831343D01*
X172005336Y-84541807D01*
X171623222Y-84465800D01*
X171365178Y-84465800D01*
X170983064Y-84541807D01*
X170690168Y-84737514D01*
X170627009Y-84642991D01*
X170416965Y-84502643D01*
X170169200Y-84453360D01*
X168819200Y-84453360D01*
X168571435Y-84502643D01*
X168361391Y-84642991D01*
X168221043Y-84853035D01*
X168171760Y-85100800D01*
X168171760Y-86450800D01*
X168221043Y-86698565D01*
X168361391Y-86908609D01*
X168571435Y-87048957D01*
X168819200Y-87098240D01*
X170169200Y-87098240D01*
X170416965Y-87048957D01*
X170627009Y-86908609D01*
X170690168Y-86814086D01*
X170983064Y-87009793D01*
X171365178Y-87085800D01*
X171481911Y-87085800D01*
X173079340Y-88683230D01*
X173131503Y-88761297D01*
X173440781Y-88967950D01*
X173713514Y-89022200D01*
X173713517Y-89022200D01*
X173805599Y-89040516D01*
X173897681Y-89022200D01*
X175406111Y-89022200D01*
X176323991Y-89940081D01*
X176323991Y-91173680D01*
X175022510Y-91173680D01*
X174863760Y-91332430D01*
X174863760Y-92181680D01*
X174883760Y-92181680D01*
X174883760Y-92435680D01*
X174863760Y-92435680D01*
X174863760Y-93284930D01*
X175022510Y-93443680D01*
X176323991Y-93443680D01*
X176323991Y-93718591D01*
X176236760Y-93701240D01*
X173236760Y-93701240D01*
X172988995Y-93750523D01*
X172778951Y-93890871D01*
X172638603Y-94100915D01*
X172589320Y-94348680D01*
X172589320Y-95348680D01*
X172638603Y-95596445D01*
X172778951Y-95806489D01*
X172988995Y-95946837D01*
X173236760Y-95996120D01*
X176236760Y-95996120D01*
X176323991Y-95978769D01*
X176323991Y-96258591D01*
X176236760Y-96241240D01*
X173236760Y-96241240D01*
X172988995Y-96290523D01*
X172778951Y-96430871D01*
X172638603Y-96640915D01*
X172589320Y-96888680D01*
X172589320Y-97888680D01*
X172638603Y-98136445D01*
X172778951Y-98346489D01*
X172988995Y-98486837D01*
X173236760Y-98536120D01*
X176236760Y-98536120D01*
X176323991Y-98518769D01*
X176323991Y-98798591D01*
X176236760Y-98781240D01*
X173236760Y-98781240D01*
X172988995Y-98830523D01*
X172778951Y-98970871D01*
X172638603Y-99180915D01*
X172589320Y-99428680D01*
X172589320Y-100428680D01*
X172638603Y-100676445D01*
X172778951Y-100886489D01*
X172988995Y-101026837D01*
X173236760Y-101076120D01*
X176236760Y-101076120D01*
X176323990Y-101058769D01*
X176323990Y-101338591D01*
X176236760Y-101321240D01*
X173236760Y-101321240D01*
X172988995Y-101370523D01*
X172778951Y-101510871D01*
X172638603Y-101720915D01*
X172589320Y-101968680D01*
X172589320Y-102968680D01*
X172638603Y-103216445D01*
X172778951Y-103426489D01*
X172988995Y-103566837D01*
X173236760Y-103616120D01*
X176236760Y-103616120D01*
X176323990Y-103598769D01*
X176323990Y-103878591D01*
X176236760Y-103861240D01*
X173236760Y-103861240D01*
X172994116Y-103909504D01*
X172915601Y-103791999D01*
X172845882Y-103745414D01*
X172250987Y-103150520D01*
X172204401Y-103080799D01*
X171928201Y-102896248D01*
X171844200Y-102879539D01*
X171844200Y-101968680D01*
X171794917Y-101720915D01*
X171654569Y-101510871D01*
X171444525Y-101370523D01*
X171196760Y-101321240D01*
X168196760Y-101321240D01*
X167948995Y-101370523D01*
X167738951Y-101510871D01*
X167598603Y-101720915D01*
X167549320Y-101968680D01*
X167549320Y-102360453D01*
X167272587Y-102083720D01*
X167226001Y-102013999D01*
X166949801Y-101829448D01*
X166706237Y-101781000D01*
X166706233Y-101781000D01*
X166624000Y-101764643D01*
X166541767Y-101781000D01*
X164262396Y-101781000D01*
X163903000Y-101421604D01*
X163903000Y-99428680D01*
X167549320Y-99428680D01*
X167549320Y-100428680D01*
X167598603Y-100676445D01*
X167738951Y-100886489D01*
X167948995Y-101026837D01*
X168196760Y-101076120D01*
X171196760Y-101076120D01*
X171444525Y-101026837D01*
X171654569Y-100886489D01*
X171794917Y-100676445D01*
X171844200Y-100428680D01*
X171844200Y-99428680D01*
X171794917Y-99180915D01*
X171654569Y-98970871D01*
X171444525Y-98830523D01*
X171196760Y-98781240D01*
X168196760Y-98781240D01*
X167948995Y-98830523D01*
X167738951Y-98970871D01*
X167598603Y-99180915D01*
X167549320Y-99428680D01*
X163903000Y-99428680D01*
X163903000Y-96888680D01*
X167549320Y-96888680D01*
X167549320Y-97888680D01*
X167598603Y-98136445D01*
X167738951Y-98346489D01*
X167948995Y-98486837D01*
X168196760Y-98536120D01*
X171196760Y-98536120D01*
X171444525Y-98486837D01*
X171654569Y-98346489D01*
X171794917Y-98136445D01*
X171844200Y-97888680D01*
X171844200Y-96888680D01*
X171794917Y-96640915D01*
X171654569Y-96430871D01*
X171444525Y-96290523D01*
X171196760Y-96241240D01*
X168196760Y-96241240D01*
X167948995Y-96290523D01*
X167738951Y-96430871D01*
X167598603Y-96640915D01*
X167549320Y-96888680D01*
X163903000Y-96888680D01*
X163903000Y-94348680D01*
X167549320Y-94348680D01*
X167549320Y-95348680D01*
X167598603Y-95596445D01*
X167738951Y-95806489D01*
X167948995Y-95946837D01*
X168196760Y-95996120D01*
X171196760Y-95996120D01*
X171444525Y-95946837D01*
X171654569Y-95806489D01*
X171794917Y-95596445D01*
X171844200Y-95348680D01*
X171844200Y-94348680D01*
X171794917Y-94100915D01*
X171654569Y-93890871D01*
X171444525Y-93750523D01*
X171196760Y-93701240D01*
X168196760Y-93701240D01*
X167948995Y-93750523D01*
X167738951Y-93890871D01*
X167598603Y-94100915D01*
X167549320Y-94348680D01*
X163903000Y-94348680D01*
X163903000Y-91808680D01*
X167549320Y-91808680D01*
X167549320Y-92808680D01*
X167598603Y-93056445D01*
X167738951Y-93266489D01*
X167948995Y-93406837D01*
X168196760Y-93456120D01*
X171196760Y-93456120D01*
X171444525Y-93406837D01*
X171654569Y-93266489D01*
X171794917Y-93056445D01*
X171844200Y-92808680D01*
X171844200Y-92594430D01*
X172601760Y-92594430D01*
X172601760Y-92934990D01*
X172698433Y-93168379D01*
X172877062Y-93347007D01*
X173110451Y-93443680D01*
X174451010Y-93443680D01*
X174609760Y-93284930D01*
X174609760Y-92435680D01*
X172760510Y-92435680D01*
X172601760Y-92594430D01*
X171844200Y-92594430D01*
X171844200Y-91808680D01*
X171819076Y-91682370D01*
X172601760Y-91682370D01*
X172601760Y-92022930D01*
X172760510Y-92181680D01*
X174609760Y-92181680D01*
X174609760Y-91332430D01*
X174451010Y-91173680D01*
X173110451Y-91173680D01*
X172877062Y-91270353D01*
X172698433Y-91448981D01*
X172601760Y-91682370D01*
X171819076Y-91682370D01*
X171794917Y-91560915D01*
X171654569Y-91350871D01*
X171444525Y-91210523D01*
X171196760Y-91161240D01*
X168196760Y-91161240D01*
X167948995Y-91210523D01*
X167738951Y-91350871D01*
X167598603Y-91560915D01*
X167549320Y-91808680D01*
X163903000Y-91808680D01*
X163903000Y-86807467D01*
X168874869Y-81835600D01*
X174771367Y-81835600D01*
X174853600Y-81851957D01*
X174935833Y-81835600D01*
X174935837Y-81835600D01*
X175179401Y-81787152D01*
X175455601Y-81602601D01*
X175502187Y-81532880D01*
X177824286Y-79210783D01*
X177894001Y-79164201D01*
X177959157Y-79066689D01*
X178078552Y-78888001D01*
X178109083Y-78734511D01*
X178127000Y-78644437D01*
X178127000Y-78644434D01*
X178143357Y-78562201D01*
X178127000Y-78479968D01*
X178127000Y-76173440D01*
X178142000Y-76173440D01*
X178389765Y-76124157D01*
X178599809Y-75983809D01*
X178740157Y-75773765D01*
X178760739Y-75670292D01*
X179065076Y-75947645D01*
X179475110Y-76117476D01*
X179705000Y-75996155D01*
X179705000Y-74803000D01*
X179685000Y-74803000D01*
X179685000Y-74549000D01*
X179705000Y-74549000D01*
X179705000Y-73355845D01*
X179475110Y-73234524D01*
X179065076Y-73404355D01*
X178760739Y-73681708D01*
X178740157Y-73578235D01*
X178599809Y-73368191D01*
X178389765Y-73227843D01*
X178142000Y-73178560D01*
X176442000Y-73178560D01*
X176194235Y-73227843D01*
X175984191Y-73368191D01*
X175843843Y-73578235D01*
X175794560Y-73826000D01*
X175794560Y-75526000D01*
X175843843Y-75773765D01*
X175984191Y-75983809D01*
X176194235Y-76124157D01*
X176442000Y-76173440D01*
X176457001Y-76173440D01*
X176457000Y-78216331D01*
X174507733Y-80165600D01*
X168737002Y-80165600D01*
X170020473Y-78882129D01*
X170083929Y-78839729D01*
X170175422Y-78702800D01*
X170251904Y-78588338D01*
X170274459Y-78474946D01*
X170296000Y-78366652D01*
X170296000Y-78366648D01*
X170310888Y-78291800D01*
X170296000Y-78216952D01*
X170296000Y-76859146D01*
X170495586Y-76725786D01*
X170496377Y-76724603D01*
X170651302Y-76879527D01*
X170884691Y-76976200D01*
X171300250Y-76976200D01*
X171459000Y-76817450D01*
X171459000Y-75768200D01*
X171713000Y-75768200D01*
X171713000Y-76817450D01*
X171871750Y-76976200D01*
X172287309Y-76976200D01*
X172520698Y-76879527D01*
X172699327Y-76700899D01*
X172796000Y-76467510D01*
X172796000Y-75926950D01*
X172637250Y-75768200D01*
X171713000Y-75768200D01*
X171459000Y-75768200D01*
X171439000Y-75768200D01*
X171439000Y-75514200D01*
X171459000Y-75514200D01*
X171459000Y-74464950D01*
X171713000Y-74464950D01*
X171713000Y-75514200D01*
X172637250Y-75514200D01*
X172796000Y-75355450D01*
X172796000Y-74814890D01*
X172699327Y-74581501D01*
X172520698Y-74402873D01*
X172287309Y-74306200D01*
X171871750Y-74306200D01*
X171713000Y-74464950D01*
X171459000Y-74464950D01*
X171300250Y-74306200D01*
X170884691Y-74306200D01*
X170651302Y-74402873D01*
X170496377Y-74557797D01*
X170495586Y-74556614D01*
X170204436Y-74362073D01*
X169861001Y-74293760D01*
X169210999Y-74293760D01*
X168867564Y-74362073D01*
X168576414Y-74556614D01*
X168381873Y-74847764D01*
X168313560Y-75191199D01*
X168313560Y-76091201D01*
X168381873Y-76434636D01*
X168576414Y-76725786D01*
X168776001Y-76859146D01*
X168776000Y-77976998D01*
X165369399Y-81383600D01*
X163831378Y-81383600D01*
X163824727Y-81350164D01*
X163630186Y-81059014D01*
X163339036Y-80864473D01*
X162995601Y-80796160D01*
X162345599Y-80796160D01*
X162002164Y-80864473D01*
X161711014Y-81059014D01*
X161645600Y-81156913D01*
X161580186Y-81059014D01*
X161289036Y-80864473D01*
X160945601Y-80796160D01*
X160295599Y-80796160D01*
X159952164Y-80864473D01*
X159661014Y-81059014D01*
X159466473Y-81350164D01*
X159398160Y-81693599D01*
X159398160Y-82593601D01*
X159466473Y-82937036D01*
X159661014Y-83228186D01*
X159860601Y-83361546D01*
X159860600Y-88098000D01*
X155743266Y-92215334D01*
X155477225Y-91817175D01*
X155178839Y-91617800D01*
X155477225Y-91418425D01*
X155805439Y-90927218D01*
X155920692Y-90347800D01*
X155805439Y-89768382D01*
X155477225Y-89277175D01*
X155178839Y-89077800D01*
X155477225Y-88878425D01*
X155805439Y-88387218D01*
X155920692Y-87807800D01*
X155805439Y-87228382D01*
X155477225Y-86737175D01*
X155178839Y-86537800D01*
X155477225Y-86338425D01*
X155805439Y-85847218D01*
X155920692Y-85267800D01*
X155805439Y-84688382D01*
X155477225Y-84197175D01*
X155178839Y-83997800D01*
X155477225Y-83798425D01*
X155805439Y-83307218D01*
X155920692Y-82727800D01*
X155805439Y-82148382D01*
X155477225Y-81657175D01*
X155178839Y-81457800D01*
X155477225Y-81258425D01*
X155805439Y-80767218D01*
X155920692Y-80187800D01*
X155805439Y-79608382D01*
X155477225Y-79117175D01*
X155178839Y-78917800D01*
X155477225Y-78718425D01*
X155805439Y-78227218D01*
X155896259Y-77770633D01*
X156689800Y-77770633D01*
X156689800Y-78440967D01*
X156946326Y-79060276D01*
X157420324Y-79534274D01*
X158039633Y-79790800D01*
X158709967Y-79790800D01*
X159329276Y-79534274D01*
X159803274Y-79060276D01*
X160059800Y-78440967D01*
X160059800Y-77770633D01*
X159803274Y-77151324D01*
X159773171Y-77121221D01*
X160000258Y-77111379D01*
X160433916Y-76931753D01*
X160517255Y-76677860D01*
X159634800Y-75795405D01*
X159620658Y-75809548D01*
X159441053Y-75629943D01*
X159455195Y-75615800D01*
X159814405Y-75615800D01*
X160696860Y-76498255D01*
X160950753Y-76414916D01*
X161156390Y-75850494D01*
X161130379Y-75250342D01*
X160950753Y-74816684D01*
X160696860Y-74733345D01*
X159814405Y-75615800D01*
X159455195Y-75615800D01*
X158572740Y-74733345D01*
X158318847Y-74816684D01*
X158113210Y-75381106D01*
X158139221Y-75981258D01*
X158318847Y-76414916D01*
X158336773Y-76420800D01*
X158039633Y-76420800D01*
X157420324Y-76677326D01*
X156946326Y-77151324D01*
X156689800Y-77770633D01*
X155896259Y-77770633D01*
X155920692Y-77647800D01*
X155805439Y-77068382D01*
X155477225Y-76577175D01*
X155178839Y-76377800D01*
X155477225Y-76178425D01*
X155805439Y-75687218D01*
X155920692Y-75107800D01*
X155810484Y-74553740D01*
X158752345Y-74553740D01*
X159634800Y-75436195D01*
X160517255Y-74553740D01*
X160433916Y-74299847D01*
X159869494Y-74094210D01*
X159269342Y-74120221D01*
X158835684Y-74299847D01*
X158752345Y-74553740D01*
X155810484Y-74553740D01*
X155805439Y-74528382D01*
X155477225Y-74037175D01*
X155364119Y-73961600D01*
X161299733Y-73961600D01*
X162633228Y-75295096D01*
X162624800Y-75315442D01*
X162624800Y-75916158D01*
X162854684Y-76471146D01*
X163279454Y-76895916D01*
X163834442Y-77125800D01*
X163981850Y-77125800D01*
X163956326Y-77151324D01*
X163699800Y-77770633D01*
X163699800Y-78440967D01*
X163956326Y-79060276D01*
X164430324Y-79534274D01*
X165049633Y-79790800D01*
X165719967Y-79790800D01*
X166339276Y-79534274D01*
X166813274Y-79060276D01*
X167069800Y-78440967D01*
X167069800Y-77770633D01*
X166813274Y-77151324D01*
X166339276Y-76677326D01*
X165719967Y-76420800D01*
X165435770Y-76420800D01*
X165644800Y-75916158D01*
X165644800Y-75315442D01*
X165414916Y-74760454D01*
X164990146Y-74335684D01*
X164435158Y-74105800D01*
X163834442Y-74105800D01*
X163814096Y-74114228D01*
X162859868Y-73160000D01*
X170096997Y-73160000D01*
X170162000Y-73172930D01*
X170227003Y-73160000D01*
X170267222Y-73152000D01*
X172056778Y-73152000D01*
X172096997Y-73160000D01*
X172096997Y-73160000D01*
G37*
X172096997Y-73160000D02*
X183993003Y-73160000D01*
X184033222Y-73152000D01*
X185268000Y-73152000D01*
X185268000Y-87224000D01*
X178734997Y-87224000D01*
X178671241Y-87236682D01*
X178661841Y-87236682D01*
X178279158Y-87312802D01*
X178041241Y-87411350D01*
X177716817Y-87628123D01*
X177534723Y-87810217D01*
X177317950Y-88134641D01*
X177272605Y-88244115D01*
X176519661Y-87491172D01*
X176467497Y-87413103D01*
X176158219Y-87206450D01*
X175885486Y-87152200D01*
X175793400Y-87133883D01*
X175701314Y-87152200D01*
X174192890Y-87152200D01*
X174032400Y-86991710D01*
X174438657Y-86720257D01*
X174728193Y-86286936D01*
X174829864Y-85775800D01*
X174728193Y-85264664D01*
X174438657Y-84831343D01*
X174175529Y-84655526D01*
X176942800Y-84655526D01*
X176942800Y-85067274D01*
X177100369Y-85447680D01*
X177391520Y-85738831D01*
X177771926Y-85896400D01*
X178183674Y-85896400D01*
X178564080Y-85738831D01*
X178681511Y-85621400D01*
X180579674Y-85621400D01*
X180612235Y-85643157D01*
X180860000Y-85692440D01*
X182360000Y-85692440D01*
X182607765Y-85643157D01*
X182817809Y-85502809D01*
X182958157Y-85292765D01*
X183007440Y-85045000D01*
X183007440Y-83895000D01*
X182971426Y-83776055D01*
X183007440Y-83595000D01*
X183007440Y-83032927D01*
X183046097Y-83007097D01*
X183252750Y-82697819D01*
X183307000Y-82425086D01*
X183307000Y-82425085D01*
X183325317Y-82333000D01*
X183307000Y-82240914D01*
X183307000Y-75837247D01*
X183442625Y-75746625D01*
X183770839Y-75255418D01*
X183886092Y-74676000D01*
X183770839Y-74096582D01*
X183442625Y-73605375D01*
X182951418Y-73277161D01*
X182518256Y-73191000D01*
X182225744Y-73191000D01*
X181792582Y-73277161D01*
X181301375Y-73605375D01*
X181088157Y-73924478D01*
X181027183Y-73794642D01*
X180598924Y-73404355D01*
X180188890Y-73234524D01*
X179959000Y-73355845D01*
X179959000Y-74549000D01*
X179979000Y-74549000D01*
X179979000Y-74803000D01*
X179959000Y-74803000D01*
X179959000Y-75996155D01*
X180188890Y-76117476D01*
X180598924Y-75947645D01*
X181027183Y-75557358D01*
X181088157Y-75427522D01*
X181301375Y-75746625D01*
X181437001Y-75837247D01*
X181437000Y-81945710D01*
X181435150Y-81947560D01*
X180860000Y-81947560D01*
X180612235Y-81996843D01*
X180402191Y-82137191D01*
X180261843Y-82347235D01*
X180212560Y-82595000D01*
X180212560Y-83595000D01*
X180225133Y-83721973D01*
X180239904Y-83757529D01*
X180212560Y-83895000D01*
X180212560Y-84101400D01*
X178681511Y-84101400D01*
X178564080Y-83983969D01*
X178183674Y-83826400D01*
X177771926Y-83826400D01*
X177391520Y-83983969D01*
X177100369Y-84275120D01*
X176942800Y-84655526D01*
X174175529Y-84655526D01*
X174005336Y-84541807D01*
X173623222Y-84465800D01*
X173365178Y-84465800D01*
X172983064Y-84541807D01*
X172549743Y-84831343D01*
X172494200Y-84914469D01*
X172438657Y-84831343D01*
X172005336Y-84541807D01*
X171623222Y-84465800D01*
X171365178Y-84465800D01*
X170983064Y-84541807D01*
X170690168Y-84737514D01*
X170627009Y-84642991D01*
X170416965Y-84502643D01*
X170169200Y-84453360D01*
X168819200Y-84453360D01*
X168571435Y-84502643D01*
X168361391Y-84642991D01*
X168221043Y-84853035D01*
X168171760Y-85100800D01*
X168171760Y-86450800D01*
X168221043Y-86698565D01*
X168361391Y-86908609D01*
X168571435Y-87048957D01*
X168819200Y-87098240D01*
X170169200Y-87098240D01*
X170416965Y-87048957D01*
X170627009Y-86908609D01*
X170690168Y-86814086D01*
X170983064Y-87009793D01*
X171365178Y-87085800D01*
X171481911Y-87085800D01*
X173079340Y-88683230D01*
X173131503Y-88761297D01*
X173440781Y-88967950D01*
X173713514Y-89022200D01*
X173713517Y-89022200D01*
X173805599Y-89040516D01*
X173897681Y-89022200D01*
X175406111Y-89022200D01*
X176323991Y-89940081D01*
X176323991Y-91173680D01*
X175022510Y-91173680D01*
X174863760Y-91332430D01*
X174863760Y-92181680D01*
X174883760Y-92181680D01*
X174883760Y-92435680D01*
X174863760Y-92435680D01*
X174863760Y-93284930D01*
X175022510Y-93443680D01*
X176323991Y-93443680D01*
X176323991Y-93718591D01*
X176236760Y-93701240D01*
X173236760Y-93701240D01*
X172988995Y-93750523D01*
X172778951Y-93890871D01*
X172638603Y-94100915D01*
X172589320Y-94348680D01*
X172589320Y-95348680D01*
X172638603Y-95596445D01*
X172778951Y-95806489D01*
X172988995Y-95946837D01*
X173236760Y-95996120D01*
X176236760Y-95996120D01*
X176323991Y-95978769D01*
X176323991Y-96258591D01*
X176236760Y-96241240D01*
X173236760Y-96241240D01*
X172988995Y-96290523D01*
X172778951Y-96430871D01*
X172638603Y-96640915D01*
X172589320Y-96888680D01*
X172589320Y-97888680D01*
X172638603Y-98136445D01*
X172778951Y-98346489D01*
X172988995Y-98486837D01*
X173236760Y-98536120D01*
X176236760Y-98536120D01*
X176323991Y-98518769D01*
X176323991Y-98798591D01*
X176236760Y-98781240D01*
X173236760Y-98781240D01*
X172988995Y-98830523D01*
X172778951Y-98970871D01*
X172638603Y-99180915D01*
X172589320Y-99428680D01*
X172589320Y-100428680D01*
X172638603Y-100676445D01*
X172778951Y-100886489D01*
X172988995Y-101026837D01*
X173236760Y-101076120D01*
X176236760Y-101076120D01*
X176323990Y-101058769D01*
X176323990Y-101338591D01*
X176236760Y-101321240D01*
X173236760Y-101321240D01*
X172988995Y-101370523D01*
X172778951Y-101510871D01*
X172638603Y-101720915D01*
X172589320Y-101968680D01*
X172589320Y-102968680D01*
X172638603Y-103216445D01*
X172778951Y-103426489D01*
X172988995Y-103566837D01*
X173236760Y-103616120D01*
X176236760Y-103616120D01*
X176323990Y-103598769D01*
X176323990Y-103878591D01*
X176236760Y-103861240D01*
X173236760Y-103861240D01*
X172994116Y-103909504D01*
X172915601Y-103791999D01*
X172845882Y-103745414D01*
X172250987Y-103150520D01*
X172204401Y-103080799D01*
X171928201Y-102896248D01*
X171844200Y-102879539D01*
X171844200Y-101968680D01*
X171794917Y-101720915D01*
X171654569Y-101510871D01*
X171444525Y-101370523D01*
X171196760Y-101321240D01*
X168196760Y-101321240D01*
X167948995Y-101370523D01*
X167738951Y-101510871D01*
X167598603Y-101720915D01*
X167549320Y-101968680D01*
X167549320Y-102360453D01*
X167272587Y-102083720D01*
X167226001Y-102013999D01*
X166949801Y-101829448D01*
X166706237Y-101781000D01*
X166706233Y-101781000D01*
X166624000Y-101764643D01*
X166541767Y-101781000D01*
X164262396Y-101781000D01*
X163903000Y-101421604D01*
X163903000Y-99428680D01*
X167549320Y-99428680D01*
X167549320Y-100428680D01*
X167598603Y-100676445D01*
X167738951Y-100886489D01*
X167948995Y-101026837D01*
X168196760Y-101076120D01*
X171196760Y-101076120D01*
X171444525Y-101026837D01*
X171654569Y-100886489D01*
X171794917Y-100676445D01*
X171844200Y-100428680D01*
X171844200Y-99428680D01*
X171794917Y-99180915D01*
X171654569Y-98970871D01*
X171444525Y-98830523D01*
X171196760Y-98781240D01*
X168196760Y-98781240D01*
X167948995Y-98830523D01*
X167738951Y-98970871D01*
X167598603Y-99180915D01*
X167549320Y-99428680D01*
X163903000Y-99428680D01*
X163903000Y-96888680D01*
X167549320Y-96888680D01*
X167549320Y-97888680D01*
X167598603Y-98136445D01*
X167738951Y-98346489D01*
X167948995Y-98486837D01*
X168196760Y-98536120D01*
X171196760Y-98536120D01*
X171444525Y-98486837D01*
X171654569Y-98346489D01*
X171794917Y-98136445D01*
X171844200Y-97888680D01*
X171844200Y-96888680D01*
X171794917Y-96640915D01*
X171654569Y-96430871D01*
X171444525Y-96290523D01*
X171196760Y-96241240D01*
X168196760Y-96241240D01*
X167948995Y-96290523D01*
X167738951Y-96430871D01*
X167598603Y-96640915D01*
X167549320Y-96888680D01*
X163903000Y-96888680D01*
X163903000Y-94348680D01*
X167549320Y-94348680D01*
X167549320Y-95348680D01*
X167598603Y-95596445D01*
X167738951Y-95806489D01*
X167948995Y-95946837D01*
X168196760Y-95996120D01*
X171196760Y-95996120D01*
X171444525Y-95946837D01*
X171654569Y-95806489D01*
X171794917Y-95596445D01*
X171844200Y-95348680D01*
X171844200Y-94348680D01*
X171794917Y-94100915D01*
X171654569Y-93890871D01*
X171444525Y-93750523D01*
X171196760Y-93701240D01*
X168196760Y-93701240D01*
X167948995Y-93750523D01*
X167738951Y-93890871D01*
X167598603Y-94100915D01*
X167549320Y-94348680D01*
X163903000Y-94348680D01*
X163903000Y-91808680D01*
X167549320Y-91808680D01*
X167549320Y-92808680D01*
X167598603Y-93056445D01*
X167738951Y-93266489D01*
X167948995Y-93406837D01*
X168196760Y-93456120D01*
X171196760Y-93456120D01*
X171444525Y-93406837D01*
X171654569Y-93266489D01*
X171794917Y-93056445D01*
X171844200Y-92808680D01*
X171844200Y-92594430D01*
X172601760Y-92594430D01*
X172601760Y-92934990D01*
X172698433Y-93168379D01*
X172877062Y-93347007D01*
X173110451Y-93443680D01*
X174451010Y-93443680D01*
X174609760Y-93284930D01*
X174609760Y-92435680D01*
X172760510Y-92435680D01*
X172601760Y-92594430D01*
X171844200Y-92594430D01*
X171844200Y-91808680D01*
X171819076Y-91682370D01*
X172601760Y-91682370D01*
X172601760Y-92022930D01*
X172760510Y-92181680D01*
X174609760Y-92181680D01*
X174609760Y-91332430D01*
X174451010Y-91173680D01*
X173110451Y-91173680D01*
X172877062Y-91270353D01*
X172698433Y-91448981D01*
X172601760Y-91682370D01*
X171819076Y-91682370D01*
X171794917Y-91560915D01*
X171654569Y-91350871D01*
X171444525Y-91210523D01*
X171196760Y-91161240D01*
X168196760Y-91161240D01*
X167948995Y-91210523D01*
X167738951Y-91350871D01*
X167598603Y-91560915D01*
X167549320Y-91808680D01*
X163903000Y-91808680D01*
X163903000Y-86807467D01*
X168874869Y-81835600D01*
X174771367Y-81835600D01*
X174853600Y-81851957D01*
X174935833Y-81835600D01*
X174935837Y-81835600D01*
X175179401Y-81787152D01*
X175455601Y-81602601D01*
X175502187Y-81532880D01*
X177824286Y-79210783D01*
X177894001Y-79164201D01*
X177959157Y-79066689D01*
X178078552Y-78888001D01*
X178109083Y-78734511D01*
X178127000Y-78644437D01*
X178127000Y-78644434D01*
X178143357Y-78562201D01*
X178127000Y-78479968D01*
X178127000Y-76173440D01*
X178142000Y-76173440D01*
X178389765Y-76124157D01*
X178599809Y-75983809D01*
X178740157Y-75773765D01*
X178760739Y-75670292D01*
X179065076Y-75947645D01*
X179475110Y-76117476D01*
X179705000Y-75996155D01*
X179705000Y-74803000D01*
X179685000Y-74803000D01*
X179685000Y-74549000D01*
X179705000Y-74549000D01*
X179705000Y-73355845D01*
X179475110Y-73234524D01*
X179065076Y-73404355D01*
X178760739Y-73681708D01*
X178740157Y-73578235D01*
X178599809Y-73368191D01*
X178389765Y-73227843D01*
X178142000Y-73178560D01*
X176442000Y-73178560D01*
X176194235Y-73227843D01*
X175984191Y-73368191D01*
X175843843Y-73578235D01*
X175794560Y-73826000D01*
X175794560Y-75526000D01*
X175843843Y-75773765D01*
X175984191Y-75983809D01*
X176194235Y-76124157D01*
X176442000Y-76173440D01*
X176457001Y-76173440D01*
X176457000Y-78216331D01*
X174507733Y-80165600D01*
X168737002Y-80165600D01*
X170020473Y-78882129D01*
X170083929Y-78839729D01*
X170175422Y-78702800D01*
X170251904Y-78588338D01*
X170274459Y-78474946D01*
X170296000Y-78366652D01*
X170296000Y-78366648D01*
X170310888Y-78291800D01*
X170296000Y-78216952D01*
X170296000Y-76859146D01*
X170495586Y-76725786D01*
X170496377Y-76724603D01*
X170651302Y-76879527D01*
X170884691Y-76976200D01*
X171300250Y-76976200D01*
X171459000Y-76817450D01*
X171459000Y-75768200D01*
X171713000Y-75768200D01*
X171713000Y-76817450D01*
X171871750Y-76976200D01*
X172287309Y-76976200D01*
X172520698Y-76879527D01*
X172699327Y-76700899D01*
X172796000Y-76467510D01*
X172796000Y-75926950D01*
X172637250Y-75768200D01*
X171713000Y-75768200D01*
X171459000Y-75768200D01*
X171439000Y-75768200D01*
X171439000Y-75514200D01*
X171459000Y-75514200D01*
X171459000Y-74464950D01*
X171713000Y-74464950D01*
X171713000Y-75514200D01*
X172637250Y-75514200D01*
X172796000Y-75355450D01*
X172796000Y-74814890D01*
X172699327Y-74581501D01*
X172520698Y-74402873D01*
X172287309Y-74306200D01*
X171871750Y-74306200D01*
X171713000Y-74464950D01*
X171459000Y-74464950D01*
X171300250Y-74306200D01*
X170884691Y-74306200D01*
X170651302Y-74402873D01*
X170496377Y-74557797D01*
X170495586Y-74556614D01*
X170204436Y-74362073D01*
X169861001Y-74293760D01*
X169210999Y-74293760D01*
X168867564Y-74362073D01*
X168576414Y-74556614D01*
X168381873Y-74847764D01*
X168313560Y-75191199D01*
X168313560Y-76091201D01*
X168381873Y-76434636D01*
X168576414Y-76725786D01*
X168776001Y-76859146D01*
X168776000Y-77976998D01*
X165369399Y-81383600D01*
X163831378Y-81383600D01*
X163824727Y-81350164D01*
X163630186Y-81059014D01*
X163339036Y-80864473D01*
X162995601Y-80796160D01*
X162345599Y-80796160D01*
X162002164Y-80864473D01*
X161711014Y-81059014D01*
X161645600Y-81156913D01*
X161580186Y-81059014D01*
X161289036Y-80864473D01*
X160945601Y-80796160D01*
X160295599Y-80796160D01*
X159952164Y-80864473D01*
X159661014Y-81059014D01*
X159466473Y-81350164D01*
X159398160Y-81693599D01*
X159398160Y-82593601D01*
X159466473Y-82937036D01*
X159661014Y-83228186D01*
X159860601Y-83361546D01*
X159860600Y-88098000D01*
X155743266Y-92215334D01*
X155477225Y-91817175D01*
X155178839Y-91617800D01*
X155477225Y-91418425D01*
X155805439Y-90927218D01*
X155920692Y-90347800D01*
X155805439Y-89768382D01*
X155477225Y-89277175D01*
X155178839Y-89077800D01*
X155477225Y-88878425D01*
X155805439Y-88387218D01*
X155920692Y-87807800D01*
X155805439Y-87228382D01*
X155477225Y-86737175D01*
X155178839Y-86537800D01*
X155477225Y-86338425D01*
X155805439Y-85847218D01*
X155920692Y-85267800D01*
X155805439Y-84688382D01*
X155477225Y-84197175D01*
X155178839Y-83997800D01*
X155477225Y-83798425D01*
X155805439Y-83307218D01*
X155920692Y-82727800D01*
X155805439Y-82148382D01*
X155477225Y-81657175D01*
X155178839Y-81457800D01*
X155477225Y-81258425D01*
X155805439Y-80767218D01*
X155920692Y-80187800D01*
X155805439Y-79608382D01*
X155477225Y-79117175D01*
X155178839Y-78917800D01*
X155477225Y-78718425D01*
X155805439Y-78227218D01*
X155896259Y-77770633D01*
X156689800Y-77770633D01*
X156689800Y-78440967D01*
X156946326Y-79060276D01*
X157420324Y-79534274D01*
X158039633Y-79790800D01*
X158709967Y-79790800D01*
X159329276Y-79534274D01*
X159803274Y-79060276D01*
X160059800Y-78440967D01*
X160059800Y-77770633D01*
X159803274Y-77151324D01*
X159773171Y-77121221D01*
X160000258Y-77111379D01*
X160433916Y-76931753D01*
X160517255Y-76677860D01*
X159634800Y-75795405D01*
X159620658Y-75809548D01*
X159441053Y-75629943D01*
X159455195Y-75615800D01*
X159814405Y-75615800D01*
X160696860Y-76498255D01*
X160950753Y-76414916D01*
X161156390Y-75850494D01*
X161130379Y-75250342D01*
X160950753Y-74816684D01*
X160696860Y-74733345D01*
X159814405Y-75615800D01*
X159455195Y-75615800D01*
X158572740Y-74733345D01*
X158318847Y-74816684D01*
X158113210Y-75381106D01*
X158139221Y-75981258D01*
X158318847Y-76414916D01*
X158336773Y-76420800D01*
X158039633Y-76420800D01*
X157420324Y-76677326D01*
X156946326Y-77151324D01*
X156689800Y-77770633D01*
X155896259Y-77770633D01*
X155920692Y-77647800D01*
X155805439Y-77068382D01*
X155477225Y-76577175D01*
X155178839Y-76377800D01*
X155477225Y-76178425D01*
X155805439Y-75687218D01*
X155920692Y-75107800D01*
X155810484Y-74553740D01*
X158752345Y-74553740D01*
X159634800Y-75436195D01*
X160517255Y-74553740D01*
X160433916Y-74299847D01*
X159869494Y-74094210D01*
X159269342Y-74120221D01*
X158835684Y-74299847D01*
X158752345Y-74553740D01*
X155810484Y-74553740D01*
X155805439Y-74528382D01*
X155477225Y-74037175D01*
X155364119Y-73961600D01*
X161299733Y-73961600D01*
X162633228Y-75295096D01*
X162624800Y-75315442D01*
X162624800Y-75916158D01*
X162854684Y-76471146D01*
X163279454Y-76895916D01*
X163834442Y-77125800D01*
X163981850Y-77125800D01*
X163956326Y-77151324D01*
X163699800Y-77770633D01*
X163699800Y-78440967D01*
X163956326Y-79060276D01*
X164430324Y-79534274D01*
X165049633Y-79790800D01*
X165719967Y-79790800D01*
X166339276Y-79534274D01*
X166813274Y-79060276D01*
X167069800Y-78440967D01*
X167069800Y-77770633D01*
X166813274Y-77151324D01*
X166339276Y-76677326D01*
X165719967Y-76420800D01*
X165435770Y-76420800D01*
X165644800Y-75916158D01*
X165644800Y-75315442D01*
X165414916Y-74760454D01*
X164990146Y-74335684D01*
X164435158Y-74105800D01*
X163834442Y-74105800D01*
X163814096Y-74114228D01*
X162859868Y-73160000D01*
X170096997Y-73160000D01*
X170162000Y-73172930D01*
X170227003Y-73160000D01*
X170267222Y-73152000D01*
X172056778Y-73152000D01*
X172096997Y-73160000D01*
G36*
X162535718Y-85813015D02*
X162466000Y-85859599D01*
X162419416Y-85929317D01*
X162281448Y-86135800D01*
X162216643Y-86461600D01*
X162233001Y-86543838D01*
X162233000Y-101421604D01*
X161873604Y-101781000D01*
X160851237Y-101781000D01*
X160769000Y-101764642D01*
X160686763Y-101781000D01*
X160443199Y-101829448D01*
X160166999Y-102013999D01*
X160120415Y-102083717D01*
X158504000Y-103700133D01*
X158200868Y-103397000D01*
X158320874Y-103397000D01*
X158701280Y-103239431D01*
X158992431Y-102948280D01*
X159150000Y-102567874D01*
X159150000Y-102156126D01*
X158992431Y-101775720D01*
X158950000Y-101733289D01*
X158950000Y-96002267D01*
X160292868Y-94659400D01*
X160352874Y-94659400D01*
X160733280Y-94501831D01*
X161024431Y-94210680D01*
X161182000Y-93830274D01*
X161182000Y-93418526D01*
X161024431Y-93038120D01*
X160733280Y-92746969D01*
X160352874Y-92589400D01*
X159941126Y-92589400D01*
X159560720Y-92746969D01*
X159269569Y-93038120D01*
X159112000Y-93418526D01*
X159112000Y-93478532D01*
X157582720Y-95007813D01*
X157512999Y-95054399D01*
X157328448Y-95330600D01*
X157280000Y-95574164D01*
X157280000Y-95574167D01*
X157263643Y-95656400D01*
X157280000Y-95738633D01*
X157280001Y-101733288D01*
X157237569Y-101775720D01*
X157080000Y-102156126D01*
X157080000Y-102276132D01*
X154188759Y-99384891D01*
X154279600Y-99294050D01*
X154279600Y-98094800D01*
X154533600Y-98094800D01*
X154533600Y-99294050D01*
X154692350Y-99452800D01*
X155382909Y-99452800D01*
X155616298Y-99356127D01*
X155794927Y-99177499D01*
X155891600Y-98944110D01*
X155891600Y-98253550D01*
X155732850Y-98094800D01*
X154533600Y-98094800D01*
X154279600Y-98094800D01*
X154259600Y-98094800D01*
X154259600Y-97840800D01*
X154279600Y-97840800D01*
X154279600Y-97820800D01*
X154533600Y-97820800D01*
X154533600Y-97840800D01*
X155732850Y-97840800D01*
X155891600Y-97682050D01*
X155891600Y-96991490D01*
X155794927Y-96758101D01*
X155616298Y-96579473D01*
X155455567Y-96512896D01*
X155477225Y-96498425D01*
X155805439Y-96007218D01*
X155920692Y-95427800D01*
X155805439Y-94848382D01*
X155586895Y-94521308D01*
X161105073Y-89003131D01*
X161168529Y-88960731D01*
X161336504Y-88709339D01*
X161380600Y-88487654D01*
X161380600Y-88487650D01*
X161395488Y-88412803D01*
X161380600Y-88337956D01*
X161380600Y-83361546D01*
X161580186Y-83228186D01*
X161645600Y-83130287D01*
X161711014Y-83228186D01*
X162002164Y-83422727D01*
X162345599Y-83491040D01*
X162995601Y-83491040D01*
X163339036Y-83422727D01*
X163630186Y-83228186D01*
X163824727Y-82937036D01*
X163831378Y-82903600D01*
X165445132Y-82903600D01*
X162535718Y-85813015D01*
X162535718Y-85813015D01*
G37*
X162535718Y-85813015D02*
X162466000Y-85859599D01*
X162419416Y-85929317D01*
X162281448Y-86135800D01*
X162216643Y-86461600D01*
X162233001Y-86543838D01*
X162233000Y-101421604D01*
X161873604Y-101781000D01*
X160851237Y-101781000D01*
X160769000Y-101764642D01*
X160686763Y-101781000D01*
X160443199Y-101829448D01*
X160166999Y-102013999D01*
X160120415Y-102083717D01*
X158504000Y-103700133D01*
X158200868Y-103397000D01*
X158320874Y-103397000D01*
X158701280Y-103239431D01*
X158992431Y-102948280D01*
X159150000Y-102567874D01*
X159150000Y-102156126D01*
X158992431Y-101775720D01*
X158950000Y-101733289D01*
X158950000Y-96002267D01*
X160292868Y-94659400D01*
X160352874Y-94659400D01*
X160733280Y-94501831D01*
X161024431Y-94210680D01*
X161182000Y-93830274D01*
X161182000Y-93418526D01*
X161024431Y-93038120D01*
X160733280Y-92746969D01*
X160352874Y-92589400D01*
X159941126Y-92589400D01*
X159560720Y-92746969D01*
X159269569Y-93038120D01*
X159112000Y-93418526D01*
X159112000Y-93478532D01*
X157582720Y-95007813D01*
X157512999Y-95054399D01*
X157328448Y-95330600D01*
X157280000Y-95574164D01*
X157280000Y-95574167D01*
X157263643Y-95656400D01*
X157280000Y-95738633D01*
X157280001Y-101733288D01*
X157237569Y-101775720D01*
X157080000Y-102156126D01*
X157080000Y-102276132D01*
X154188759Y-99384891D01*
X154279600Y-99294050D01*
X154279600Y-98094800D01*
X154533600Y-98094800D01*
X154533600Y-99294050D01*
X154692350Y-99452800D01*
X155382909Y-99452800D01*
X155616298Y-99356127D01*
X155794927Y-99177499D01*
X155891600Y-98944110D01*
X155891600Y-98253550D01*
X155732850Y-98094800D01*
X154533600Y-98094800D01*
X154279600Y-98094800D01*
X154259600Y-98094800D01*
X154259600Y-97840800D01*
X154279600Y-97840800D01*
X154279600Y-97820800D01*
X154533600Y-97820800D01*
X154533600Y-97840800D01*
X155732850Y-97840800D01*
X155891600Y-97682050D01*
X155891600Y-96991490D01*
X155794927Y-96758101D01*
X155616298Y-96579473D01*
X155455567Y-96512896D01*
X155477225Y-96498425D01*
X155805439Y-96007218D01*
X155920692Y-95427800D01*
X155805439Y-94848382D01*
X155586895Y-94521308D01*
X161105073Y-89003131D01*
X161168529Y-88960731D01*
X161336504Y-88709339D01*
X161380600Y-88487654D01*
X161380600Y-88487650D01*
X161395488Y-88412803D01*
X161380600Y-88337956D01*
X161380600Y-83361546D01*
X161580186Y-83228186D01*
X161645600Y-83130287D01*
X161711014Y-83228186D01*
X162002164Y-83422727D01*
X162345599Y-83491040D01*
X162995601Y-83491040D01*
X163339036Y-83422727D01*
X163630186Y-83228186D01*
X163824727Y-82937036D01*
X163831378Y-82903600D01*
X165445132Y-82903600D01*
X162535718Y-85813015D01*
G04 #@! TD*
M02*
