M48
;DRILL file {KiCad (5.0.0)} date 03/09/20 19:15:06
;FORMAT={-:-/ absolute / inch / decimal}
FMAT,2
INCH,TZ
T1C0.0157
T2C0.0276
T3C0.0295
T4C0.0315
T5C0.0354
T6C0.0390
T7C0.0394
T8C0.0512
T9C0.0591
%
G90
G05
M72
T1
X5.5Y-4.1
X5.5Y-4.2
X5.5Y-4.3
X5.6Y-2.925
X5.775Y-4.075
X5.775Y-4.175
X5.775Y-4.275
X6.075Y-4.25
X6.175Y-2.975
X6.175Y-3.85
X6.2Y-3.25
X6.225Y-3.425
X6.225Y-4.03
X6.305Y-3.686
X6.325Y-3.85
X6.375Y-3.1
X6.516Y-4.375
X6.55Y-3.725
X6.56Y-4.09
X6.625Y-3.475
X6.733Y-4.484
X6.75Y-3.55
X6.825Y-3.25
X6.85Y-3.075
X6.9Y-2.3
X6.9Y-2.66
X6.99Y-1.93
X7.Y-2.04
X7.Y-2.17
X7.007Y-3.341
X7.05Y-3.175
X7.06Y-2.48
X7.22Y-2.53
X7.24Y-2.3
X7.26Y-2.76
T2
X6.86Y-2.54
X6.86Y-2.74
T3
X6.26Y-4.14
X6.26Y-4.19
X6.26Y-4.24
T4
X6.8Y-2.44
X6.9969Y-2.44
X6.673Y-3.377
X6.7517Y-3.377
X6.8305Y-3.377
X6.0631Y-4.35
X6.26Y-4.35
X7.26Y-2.44
X7.26Y-2.6369
X7.12Y-2.2431
X7.12Y-2.44
X6.35Y-4.0394
X6.35Y-4.1378
X5.63Y-3.007
X5.63Y-3.107
X5.63Y-3.207
X5.63Y-3.307
X5.63Y-3.407
X5.63Y-3.507
X5.63Y-3.607
X5.63Y-3.707
X5.63Y-3.807
X5.63Y-3.907
X5.63Y-4.007
X5.63Y-4.107
X5.63Y-4.207
X5.63Y-4.307
X5.93Y-3.007
X5.93Y-3.107
X5.93Y-3.207
X5.93Y-3.307
X5.93Y-3.407
X5.93Y-3.507
X5.93Y-3.607
X5.93Y-3.707
X5.93Y-3.807
X5.93Y-3.907
X5.93Y-4.007
X5.93Y-4.107
X5.93Y-4.207
X5.93Y-4.307
T5
X6.96Y-2.6
X7.01Y-2.525
X7.06Y-2.6
X7.11Y-2.525
X7.16Y-2.6
T6
X6.2848Y-2.977
X6.462Y-2.977
T7
X6.079Y-2.957
X6.079Y-3.057
X6.079Y-3.157
X6.079Y-3.257
X6.079Y-3.357
X6.079Y-3.457
X6.079Y-3.557
X6.079Y-3.657
X6.079Y-3.757
X6.079Y-3.857
X5.495Y-2.932
X5.495Y-3.032
X5.495Y-3.132
X5.495Y-3.232
X5.495Y-3.332
X5.495Y-3.432
X5.495Y-3.532
X5.495Y-3.632
X5.495Y-3.732
X5.495Y-3.832
X6.98Y-2.94
X7.08Y-2.94
X7.18Y-2.94
X6.98Y-2.76
X7.08Y-2.76
X7.18Y-2.76
T8
X6.2352Y-3.075
X6.5112Y-3.075
T9
X6.8171Y-1.8939
X6.8171Y-2.0159
X6.8171Y-2.138
X7.2029Y-1.8939
X7.2029Y-2.0159
X7.2029Y-2.138
T0
M30
