G04 #@! TF.GenerationSoftware,KiCad,Pcbnew,(5.0.0)*
G04 #@! TF.CreationDate,2020-03-09T19:14:55+01:00*
G04 #@! TF.ProjectId,KXKM_esp_remote_control_module,4B584B4D5F6573705F72656D6F74655F,rev?*
G04 #@! TF.SameCoordinates,Original*
G04 #@! TF.FileFunction,Copper,L2,Bot,Signal*
G04 #@! TF.FilePolarity,Positive*
%FSLAX46Y46*%
G04 Gerber Fmt 4.6, Leading zero omitted, Abs format (unit mm)*
G04 Created by KiCad (PCBNEW (5.0.0)) date 03/09/20 19:14:55*
%MOMM*%
%LPD*%
G01*
G04 APERTURE LIST*
G04 #@! TA.AperFunction,ComponentPad*
%ADD10R,1.700000X1.700000*%
G04 #@! TD*
G04 #@! TA.AperFunction,ComponentPad*
%ADD11O,1.700000X1.700000*%
G04 #@! TD*
G04 #@! TA.AperFunction,SMDPad,CuDef*
%ADD12R,3.150000X1.000000*%
G04 #@! TD*
G04 #@! TA.AperFunction,ComponentPad*
%ADD13C,1.600000*%
G04 #@! TD*
G04 #@! TA.AperFunction,ComponentPad*
%ADD14R,1.600000X1.600000*%
G04 #@! TD*
G04 #@! TA.AperFunction,ComponentPad*
%ADD15O,1.600000X1.600000*%
G04 #@! TD*
G04 #@! TA.AperFunction,ComponentPad*
%ADD16O,1.500000X1.050000*%
G04 #@! TD*
G04 #@! TA.AperFunction,ComponentPad*
%ADD17R,1.500000X1.050000*%
G04 #@! TD*
G04 #@! TA.AperFunction,ComponentPad*
%ADD18C,1.400000*%
G04 #@! TD*
G04 #@! TA.AperFunction,ComponentPad*
%ADD19O,1.400000X1.400000*%
G04 #@! TD*
G04 #@! TA.AperFunction,ComponentPad*
%ADD20C,2.250000*%
G04 #@! TD*
G04 #@! TA.AperFunction,ComponentPad*
%ADD21R,1.400000X1.400000*%
G04 #@! TD*
G04 #@! TA.AperFunction,ComponentPad*
%ADD22C,2.100000*%
G04 #@! TD*
G04 #@! TA.AperFunction,ComponentPad*
%ADD23C,1.750000*%
G04 #@! TD*
G04 #@! TA.AperFunction,ComponentPad*
%ADD24R,1.350000X1.350000*%
G04 #@! TD*
G04 #@! TA.AperFunction,ComponentPad*
%ADD25O,1.350000X1.350000*%
G04 #@! TD*
G04 #@! TA.AperFunction,ViaPad*
%ADD26C,0.800000*%
G04 #@! TD*
G04 #@! TA.AperFunction,Conductor*
%ADD27C,0.250000*%
G04 #@! TD*
G04 #@! TA.AperFunction,Conductor*
%ADD28C,0.400000*%
G04 #@! TD*
G04 #@! TA.AperFunction,Conductor*
%ADD29C,0.254000*%
G04 #@! TD*
G04 APERTURE END LIST*
D10*
G04 #@! TO.P,J6,1*
G04 #@! TO.N,/ext_3.3*
X177292000Y-70104000D03*
D11*
G04 #@! TO.P,J6,2*
G04 #@! TO.N,/ext_gnd*
X179832000Y-70104000D03*
G04 #@! TO.P,J6,3*
G04 #@! TO.N,/ho10_out*
X182372000Y-70104000D03*
G04 #@! TD*
G04 #@! TO.P,J5,10*
G04 #@! TO.N,+3V3*
X139573000Y-97332800D03*
G04 #@! TO.P,J5,9*
G04 #@! TO.N,/A0*
X139573000Y-94792800D03*
G04 #@! TO.P,J5,8*
G04 #@! TO.N,/A1*
X139573000Y-92252800D03*
G04 #@! TO.P,J5,7*
G04 #@! TO.N,/A2*
X139573000Y-89712800D03*
G04 #@! TO.P,J5,6*
G04 #@! TO.N,/A3*
X139573000Y-87172800D03*
G04 #@! TO.P,J5,5*
G04 #@! TO.N,/A4*
X139573000Y-84632800D03*
G04 #@! TO.P,J5,4*
G04 #@! TO.N,/A5*
X139573000Y-82092800D03*
G04 #@! TO.P,J5,3*
G04 #@! TO.N,/A6*
X139573000Y-79552800D03*
G04 #@! TO.P,J5,2*
G04 #@! TO.N,VBUS*
X139573000Y-77012800D03*
D10*
G04 #@! TO.P,J5,1*
G04 #@! TO.N,GND*
X139573000Y-74472800D03*
G04 #@! TD*
D12*
G04 #@! TO.P,J2,1*
G04 #@! TO.N,+3V3*
X169620000Y-115170000D03*
G04 #@! TO.P,J2,2*
G04 #@! TO.N,+VSW*
X174670000Y-115170000D03*
G04 #@! TO.P,J2,3*
G04 #@! TO.N,VBUS*
X169620000Y-112630000D03*
G04 #@! TO.P,J2,4*
G04 #@! TO.N,+BATT*
X174670000Y-112630000D03*
G04 #@! TO.P,J2,5*
G04 #@! TO.N,/ADC*
X169620000Y-110090000D03*
G04 #@! TO.P,J2,6*
G04 #@! TO.N,/I2C_SDA*
X174670000Y-110090000D03*
G04 #@! TO.P,J2,7*
G04 #@! TO.N,/SPI_SCK*
X169620000Y-107550000D03*
G04 #@! TO.P,J2,8*
G04 #@! TO.N,/I2C_SCL*
X174670000Y-107550000D03*
G04 #@! TO.P,J2,9*
G04 #@! TO.N,/SPI_MISO*
X169620000Y-105010000D03*
G04 #@! TO.P,J2,10*
G04 #@! TO.N,/I2S_LRCK*
X174670000Y-105010000D03*
G04 #@! TO.P,J2,11*
G04 #@! TO.N,/SPI_MOSI*
X169620000Y-102470000D03*
G04 #@! TO.P,J2,12*
G04 #@! TO.N,/I2S_DATA*
X174670000Y-102470000D03*
G04 #@! TO.P,J2,13*
G04 #@! TO.N,/SPI_CS*
X169620000Y-99930000D03*
G04 #@! TO.P,J2,14*
G04 #@! TO.N,/I2S_BCK*
X174670000Y-99930000D03*
G04 #@! TO.P,J2,15*
G04 #@! TO.N,/DMX_DE*
X169620000Y-97390000D03*
G04 #@! TO.P,J2,16*
G04 #@! TO.N,/LED_D1*
X174670000Y-97390000D03*
G04 #@! TO.P,J2,17*
G04 #@! TO.N,/DMX_DI*
X169620000Y-94850000D03*
G04 #@! TO.P,J2,18*
G04 #@! TO.N,/LED_D2*
X174670000Y-94850000D03*
G04 #@! TO.P,J2,19*
G04 #@! TO.N,/DMX_RO*
X169620000Y-92310000D03*
G04 #@! TO.P,J2,20*
G04 #@! TO.N,GND*
X174670000Y-92310000D03*
G04 #@! TD*
D11*
G04 #@! TO.P,J1,3*
G04 #@! TO.N,Net-(J1-Pad3)*
X182372000Y-74676000D03*
G04 #@! TO.P,J1,2*
G04 #@! TO.N,GND*
X179832000Y-74676000D03*
D10*
G04 #@! TO.P,J1,1*
G04 #@! TO.N,+3V3*
X177292000Y-74676000D03*
G04 #@! TD*
G04 #@! TO.P,J4,1*
G04 #@! TO.N,GND*
X154406600Y-97967800D03*
D11*
G04 #@! TO.P,J4,2*
G04 #@! TO.N,VBUS*
X154406600Y-95427800D03*
G04 #@! TO.P,J4,3*
G04 #@! TO.N,/B6*
X154406600Y-92887800D03*
G04 #@! TO.P,J4,4*
G04 #@! TO.N,/B5*
X154406600Y-90347800D03*
G04 #@! TO.P,J4,5*
G04 #@! TO.N,/B4*
X154406600Y-87807800D03*
G04 #@! TO.P,J4,6*
G04 #@! TO.N,/B3*
X154406600Y-85267800D03*
G04 #@! TO.P,J4,7*
G04 #@! TO.N,/B2*
X154406600Y-82727800D03*
G04 #@! TO.P,J4,8*
G04 #@! TO.N,/B1*
X154406600Y-80187800D03*
G04 #@! TO.P,J4,9*
G04 #@! TO.N,/B0*
X154406600Y-77647800D03*
G04 #@! TO.P,J4,10*
G04 #@! TO.N,+3V3*
X154406600Y-75107800D03*
G04 #@! TD*
D13*
G04 #@! TO.P,C1,1*
G04 #@! TO.N,/ext_3.3*
X180848000Y-61976000D03*
G04 #@! TO.P,C1,2*
G04 #@! TO.N,/ext_gnd*
X180848000Y-56976000D03*
G04 #@! TD*
G04 #@! TO.P,C2,1*
G04 #@! TO.N,/ext_gnd*
X184404000Y-61976000D03*
G04 #@! TO.P,C2,2*
G04 #@! TO.N,/ho10_out*
X184404000Y-66976000D03*
G04 #@! TD*
G04 #@! TO.P,C3,2*
G04 #@! TO.N,Net-(C3-Pad2)*
X177720000Y-61976000D03*
G04 #@! TO.P,C3,1*
G04 #@! TO.N,/ext_3.3*
X172720000Y-61976000D03*
G04 #@! TD*
G04 #@! TO.P,C5,1*
G04 #@! TO.N,Net-(C5-Pad1)*
X159004000Y-110490000D03*
G04 #@! TO.P,C5,2*
G04 #@! TO.N,GND*
X154004000Y-110490000D03*
G04 #@! TD*
G04 #@! TO.P,C4,1*
G04 #@! TO.N,Net-(C4-Pad1)*
X161290000Y-102600000D03*
G04 #@! TO.P,C4,2*
G04 #@! TO.N,GND*
X161290000Y-105100000D03*
G04 #@! TD*
D14*
G04 #@! TO.P,U3,1*
G04 #@! TO.N,/B0*
X150622000Y-76377800D03*
D15*
G04 #@! TO.P,U3,15*
G04 #@! TO.N,GND*
X143002000Y-109397800D03*
G04 #@! TO.P,U3,2*
G04 #@! TO.N,/B1*
X150622000Y-78917800D03*
G04 #@! TO.P,U3,16*
G04 #@! TO.N,GND*
X143002000Y-106857800D03*
G04 #@! TO.P,U3,3*
G04 #@! TO.N,/B2*
X150622000Y-81457800D03*
G04 #@! TO.P,U3,17*
G04 #@! TO.N,GND*
X143002000Y-104317800D03*
G04 #@! TO.P,U3,4*
G04 #@! TO.N,/B3*
X150622000Y-83997800D03*
G04 #@! TO.P,U3,18*
G04 #@! TO.N,+3V3*
X143002000Y-101777800D03*
G04 #@! TO.P,U3,5*
G04 #@! TO.N,/B4*
X150622000Y-86537800D03*
G04 #@! TO.P,U3,19*
G04 #@! TO.N,Net-(U3-Pad19)*
X143002000Y-99237800D03*
G04 #@! TO.P,U3,6*
G04 #@! TO.N,/B5*
X150622000Y-89077800D03*
G04 #@! TO.P,U3,20*
G04 #@! TO.N,Net-(U3-Pad20)*
X143002000Y-96697800D03*
G04 #@! TO.P,U3,7*
G04 #@! TO.N,/B6*
X150622000Y-91617800D03*
G04 #@! TO.P,U3,21*
G04 #@! TO.N,/A0*
X143002000Y-94157800D03*
G04 #@! TO.P,U3,8*
G04 #@! TO.N,/B7*
X150622000Y-94157800D03*
G04 #@! TO.P,U3,22*
G04 #@! TO.N,/A1*
X143002000Y-91617800D03*
G04 #@! TO.P,U3,9*
G04 #@! TO.N,+3V3*
X150622000Y-96697800D03*
G04 #@! TO.P,U3,23*
G04 #@! TO.N,/A2*
X143002000Y-89077800D03*
G04 #@! TO.P,U3,10*
G04 #@! TO.N,GND*
X150622000Y-99237800D03*
G04 #@! TO.P,U3,24*
G04 #@! TO.N,/A3*
X143002000Y-86537800D03*
G04 #@! TO.P,U3,11*
G04 #@! TO.N,Net-(U3-Pad11)*
X150622000Y-101777800D03*
G04 #@! TO.P,U3,25*
G04 #@! TO.N,/A4*
X143002000Y-83997800D03*
G04 #@! TO.P,U3,12*
G04 #@! TO.N,/I2C_SCL*
X150622000Y-104317800D03*
G04 #@! TO.P,U3,26*
G04 #@! TO.N,/A5*
X143002000Y-81457800D03*
G04 #@! TO.P,U3,13*
G04 #@! TO.N,/I2C_SDA*
X150622000Y-106857800D03*
G04 #@! TO.P,U3,27*
G04 #@! TO.N,/A6*
X143002000Y-78917800D03*
G04 #@! TO.P,U3,14*
G04 #@! TO.N,Net-(U3-Pad14)*
X150622000Y-109397800D03*
G04 #@! TO.P,U3,28*
G04 #@! TO.N,/A7*
X143002000Y-76377800D03*
G04 #@! TD*
D16*
G04 #@! TO.P,U4,2*
G04 #@! TO.N,GND*
X159004000Y-106426000D03*
G04 #@! TO.P,U4,3*
G04 #@! TO.N,Net-(C5-Pad1)*
X159004000Y-107696000D03*
D17*
G04 #@! TO.P,U4,1*
G04 #@! TO.N,Net-(C4-Pad1)*
X159004000Y-105156000D03*
G04 #@! TD*
D18*
G04 #@! TO.P,R1,1*
G04 #@! TO.N,/ext_3.3*
X174244000Y-69596000D03*
D19*
G04 #@! TO.P,R1,2*
G04 #@! TO.N,Net-(R1-Pad2)*
X174244000Y-64516000D03*
G04 #@! TD*
D20*
G04 #@! TO.P,U1,RP6*
G04 #@! TO.N,N/C*
X173154000Y-54304000D03*
G04 #@! TO.P,U1,RP5*
X173154000Y-51205000D03*
G04 #@! TO.P,U1,RP4*
X173154000Y-48104000D03*
G04 #@! TO.P,U1,RP3*
X182954000Y-48104000D03*
G04 #@! TO.P,U1,RP2*
X182954000Y-51205000D03*
G04 #@! TO.P,U1,RP1*
X182954000Y-54304000D03*
D18*
G04 #@! TO.P,U1,5*
G04 #@! TO.N,Net-(R1-Pad2)*
X176784000Y-66040000D03*
G04 #@! TO.P,U1,4*
G04 #@! TO.N,Net-(C3-Pad2)*
X178054000Y-64135000D03*
G04 #@! TO.P,U1,3*
G04 #@! TO.N,/ho10_out*
X179324000Y-66040000D03*
G04 #@! TO.P,U1,2*
G04 #@! TO.N,/ext_gnd*
X180594000Y-64135000D03*
D21*
G04 #@! TO.P,U1,1*
G04 #@! TO.N,/ext_3.3*
X181864000Y-66040000D03*
G04 #@! TD*
D22*
G04 #@! TO.P,SW2,*
G04 #@! TO.N,*
X158374800Y-78105800D03*
D23*
G04 #@! TO.P,SW2,2*
G04 #@! TO.N,GND*
X159634800Y-75615800D03*
G04 #@! TO.P,SW2,1*
G04 #@! TO.N,/A7*
X164134800Y-75615800D03*
D22*
G04 #@! TO.P,SW2,*
G04 #@! TO.N,*
X165384800Y-78105800D03*
G04 #@! TD*
D24*
G04 #@! TO.P,SW1,1*
G04 #@! TO.N,Net-(C5-Pad1)*
X169494200Y-85775800D03*
D25*
G04 #@! TO.P,SW1,2*
G04 #@! TO.N,+BATT*
X171494200Y-85775800D03*
G04 #@! TO.P,SW1,3*
G04 #@! TO.N,Net-(SW1-Pad3)*
X173494200Y-85775800D03*
G04 #@! TD*
D26*
G04 #@! TO.N,/ext_gnd*
X175260000Y-58420000D03*
X177800000Y-55118000D03*
X177800000Y-51816000D03*
X177546000Y-49022000D03*
X183896000Y-58420000D03*
X175260000Y-67564000D03*
X184404000Y-70104000D03*
X179324000Y-62992000D03*
X183388000Y-64262000D03*
G04 #@! TO.N,GND*
X139700000Y-104140000D03*
X139700000Y-106680000D03*
X139700000Y-109220000D03*
X146685000Y-103505000D03*
X146685000Y-106045000D03*
X146685000Y-108585000D03*
X142240000Y-74295000D03*
X156845000Y-75565000D03*
X161925000Y-78740000D03*
X157480000Y-82550000D03*
X158115000Y-86995000D03*
X160655000Y-97790000D03*
X156845000Y-97790000D03*
X166370000Y-94615000D03*
X171450000Y-90170000D03*
X168275000Y-88265000D03*
X173355000Y-82550000D03*
X173990000Y-78105000D03*
X179070000Y-80645000D03*
X154305000Y-107950000D03*
G04 #@! TO.N,Net-(C5-Pad1)*
X160147000Y-93624400D03*
X158115000Y-102362000D03*
G04 #@! TO.N,VBUS*
X166624000Y-103886000D03*
G04 #@! TO.N,+BATT*
X165506400Y-111125000D03*
G04 #@! TO.N,/ADC*
X171018200Y-113893600D03*
X177977800Y-84861400D03*
G04 #@! TD*
D27*
G04 #@! TO.N,/ext_3.3*
X174752000Y-70104000D02*
X174244000Y-69596000D01*
X177292000Y-70104000D02*
X174752000Y-70104000D01*
X172720000Y-63107370D02*
X172720000Y-61976000D01*
X172720000Y-69061949D02*
X172720000Y-63107370D01*
X173254051Y-69596000D02*
X172720000Y-69061949D01*
X174244000Y-69596000D02*
X173254051Y-69596000D01*
X179070000Y-60198000D02*
X180848000Y-61976000D01*
X172720000Y-61976000D02*
X174498000Y-60198000D01*
X174498000Y-60198000D02*
X179070000Y-60198000D01*
X180848000Y-61976000D02*
X181864000Y-62992000D01*
X181864000Y-62992000D02*
X181864000Y-66040000D01*
G04 #@! TO.N,/ho10_out*
X184404000Y-68072000D02*
X184404000Y-66976000D01*
X182372000Y-70104000D02*
X184404000Y-68072000D01*
X179324000Y-67056000D02*
X179324000Y-66040000D01*
X182372000Y-70104000D02*
X179324000Y-67056000D01*
G04 #@! TO.N,Net-(C3-Pad2)*
X177720000Y-63801000D02*
X178054000Y-64135000D01*
X177720000Y-61976000D02*
X177720000Y-63801000D01*
D28*
G04 #@! TO.N,Net-(C5-Pad1)*
X169494200Y-85775800D02*
X167995600Y-85775800D01*
X167995600Y-85775800D02*
X160147000Y-93624400D01*
X158115000Y-102362000D02*
X157454600Y-102362000D01*
X157454600Y-102362000D02*
X156235400Y-103581200D01*
X157854000Y-107696000D02*
X159004000Y-107696000D01*
X156235400Y-106077400D02*
X157854000Y-107696000D01*
X156235400Y-103581200D02*
X156235400Y-106077400D01*
G04 #@! TO.N,VBUS*
X167023999Y-103486001D02*
X167023999Y-100196599D01*
X166624000Y-103886000D02*
X167023999Y-103486001D01*
X162255200Y-95427800D02*
X154406600Y-95427800D01*
X167023999Y-100196599D02*
X162255200Y-95427800D01*
X150045999Y-92817801D02*
X146888200Y-89660002D01*
X154406600Y-95427800D02*
X151796601Y-92817801D01*
X151796601Y-92817801D02*
X150045999Y-92817801D01*
X146888200Y-89660002D02*
X146888200Y-80365600D01*
X140775081Y-77012800D02*
X139573000Y-77012800D01*
X141340082Y-77577801D02*
X140775081Y-77012800D01*
X144100401Y-77577801D02*
X141340082Y-77577801D01*
X146888200Y-80365600D02*
X144100401Y-77577801D01*
G04 #@! TO.N,+BATT*
X165506400Y-111125000D02*
X166072085Y-111125000D01*
X166072085Y-111125000D02*
X166224485Y-111277400D01*
X166224485Y-111277400D02*
X171342400Y-111277400D01*
X174670000Y-111730000D02*
X174670000Y-112630000D01*
X171342400Y-111277400D02*
X171367800Y-111302800D01*
X171367800Y-111302800D02*
X174242800Y-111302800D01*
X174242800Y-111302800D02*
X174670000Y-111730000D01*
D27*
G04 #@! TO.N,/ADC*
X171018200Y-113893600D02*
X176707800Y-113893600D01*
X176707800Y-113893600D02*
X177292000Y-113309400D01*
X177292000Y-113309400D02*
X177292000Y-86258400D01*
X177292000Y-86258400D02*
X177292000Y-85547200D01*
X177292000Y-85547200D02*
X177977800Y-84861400D01*
G04 #@! TO.N,/I2C_SDA*
X174670000Y-109340000D02*
X173965800Y-108635800D01*
X174670000Y-110090000D02*
X174670000Y-109340000D01*
X168045798Y-108635800D02*
X165277800Y-105867802D01*
X173965800Y-108635800D02*
X168045798Y-108635800D01*
X165277800Y-105867802D02*
X165277800Y-101828600D01*
X165277800Y-101828600D02*
X164084000Y-100634800D01*
X156845000Y-100634800D02*
X150622000Y-106857800D01*
X164084000Y-100634800D02*
X156845000Y-100634800D01*
G04 #@! TO.N,/I2C_SCL*
X152019000Y-104317800D02*
X150622000Y-104317800D01*
X164160200Y-99771200D02*
X156565600Y-99771200D01*
X174670000Y-106800000D02*
X174092800Y-106222800D01*
X174670000Y-107550000D02*
X174670000Y-106800000D01*
X174092800Y-106222800D02*
X166832800Y-106222800D01*
X166832800Y-106222800D02*
X165887400Y-105277400D01*
X156565600Y-99771200D02*
X152019000Y-104317800D01*
X165887400Y-105277400D02*
X165887400Y-101498400D01*
X165887400Y-101498400D02*
X164160200Y-99771200D01*
G04 #@! TO.N,Net-(R1-Pad2)*
X175768000Y-66040000D02*
X176784000Y-66040000D01*
X174244000Y-64516000D02*
X175768000Y-66040000D01*
G04 #@! TD*
D29*
G04 #@! TO.N,/ext_gnd*
G36*
X171503466Y-62788862D02*
X171907138Y-63192534D01*
X171960001Y-63214431D01*
X171960000Y-68987102D01*
X171945112Y-69061949D01*
X171960000Y-69136796D01*
X171960000Y-69136800D01*
X172004096Y-69358485D01*
X172172071Y-69609878D01*
X172235530Y-69652280D01*
X172663722Y-70080472D01*
X172706122Y-70143929D01*
X172957514Y-70311904D01*
X173107938Y-70341825D01*
X173112242Y-70352217D01*
X173487783Y-70727758D01*
X173978452Y-70931000D01*
X174509548Y-70931000D01*
X174673197Y-70863214D01*
X174677148Y-70864000D01*
X174677152Y-70864000D01*
X174751999Y-70878888D01*
X174826846Y-70864000D01*
X175794560Y-70864000D01*
X175794560Y-70954000D01*
X175843843Y-71201765D01*
X175984191Y-71411809D01*
X176194235Y-71552157D01*
X176442000Y-71601440D01*
X178142000Y-71601440D01*
X178389765Y-71552157D01*
X178599809Y-71411809D01*
X178740157Y-71201765D01*
X178760739Y-71098292D01*
X179065076Y-71375645D01*
X179475110Y-71545476D01*
X179705000Y-71424155D01*
X179705000Y-70231000D01*
X179685000Y-70231000D01*
X179685000Y-69977000D01*
X179705000Y-69977000D01*
X179705000Y-69957000D01*
X179959000Y-69957000D01*
X179959000Y-69977000D01*
X179979000Y-69977000D01*
X179979000Y-70231000D01*
X179959000Y-70231000D01*
X179959000Y-71424155D01*
X180188890Y-71545476D01*
X180598924Y-71375645D01*
X181027183Y-70985358D01*
X181088157Y-70855522D01*
X181301375Y-71174625D01*
X181792582Y-71502839D01*
X182225744Y-71589000D01*
X182518256Y-71589000D01*
X182951418Y-71502839D01*
X183442625Y-71174625D01*
X183770839Y-70683418D01*
X183886092Y-70104000D01*
X183813209Y-69737592D01*
X184888473Y-68662329D01*
X184951929Y-68619929D01*
X185039000Y-68489618D01*
X185039000Y-71755000D01*
X171323000Y-71755000D01*
X171323000Y-62353179D01*
X171503466Y-62788862D01*
X171503466Y-62788862D01*
G37*
X171503466Y-62788862D02*
X171907138Y-63192534D01*
X171960001Y-63214431D01*
X171960000Y-68987102D01*
X171945112Y-69061949D01*
X171960000Y-69136796D01*
X171960000Y-69136800D01*
X172004096Y-69358485D01*
X172172071Y-69609878D01*
X172235530Y-69652280D01*
X172663722Y-70080472D01*
X172706122Y-70143929D01*
X172957514Y-70311904D01*
X173107938Y-70341825D01*
X173112242Y-70352217D01*
X173487783Y-70727758D01*
X173978452Y-70931000D01*
X174509548Y-70931000D01*
X174673197Y-70863214D01*
X174677148Y-70864000D01*
X174677152Y-70864000D01*
X174751999Y-70878888D01*
X174826846Y-70864000D01*
X175794560Y-70864000D01*
X175794560Y-70954000D01*
X175843843Y-71201765D01*
X175984191Y-71411809D01*
X176194235Y-71552157D01*
X176442000Y-71601440D01*
X178142000Y-71601440D01*
X178389765Y-71552157D01*
X178599809Y-71411809D01*
X178740157Y-71201765D01*
X178760739Y-71098292D01*
X179065076Y-71375645D01*
X179475110Y-71545476D01*
X179705000Y-71424155D01*
X179705000Y-70231000D01*
X179685000Y-70231000D01*
X179685000Y-69977000D01*
X179705000Y-69977000D01*
X179705000Y-69957000D01*
X179959000Y-69957000D01*
X179959000Y-69977000D01*
X179979000Y-69977000D01*
X179979000Y-70231000D01*
X179959000Y-70231000D01*
X179959000Y-71424155D01*
X180188890Y-71545476D01*
X180598924Y-71375645D01*
X181027183Y-70985358D01*
X181088157Y-70855522D01*
X181301375Y-71174625D01*
X181792582Y-71502839D01*
X182225744Y-71589000D01*
X182518256Y-71589000D01*
X182951418Y-71502839D01*
X183442625Y-71174625D01*
X183770839Y-70683418D01*
X183886092Y-70104000D01*
X183813209Y-69737592D01*
X184888473Y-68662329D01*
X184951929Y-68619929D01*
X185039000Y-68489618D01*
X185039000Y-71755000D01*
X171323000Y-71755000D01*
X171323000Y-62353179D01*
X171503466Y-62788862D01*
G36*
X173723109Y-65773542D02*
X174112515Y-65851000D01*
X174375485Y-65851000D01*
X174482843Y-65829645D01*
X175177673Y-66524476D01*
X175220071Y-66587929D01*
X175283524Y-66630327D01*
X175283526Y-66630329D01*
X175357061Y-66679463D01*
X175471463Y-66755904D01*
X175650277Y-66791472D01*
X175652242Y-66796217D01*
X176027783Y-67171758D01*
X176518452Y-67375000D01*
X177049548Y-67375000D01*
X177540217Y-67171758D01*
X177915758Y-66796217D01*
X178054000Y-66462472D01*
X178192242Y-66796217D01*
X178567783Y-67171758D01*
X178572528Y-67173723D01*
X178608096Y-67352536D01*
X178776071Y-67603929D01*
X178839530Y-67646331D01*
X179812199Y-68619000D01*
X179704998Y-68619000D01*
X179704998Y-68783844D01*
X179475110Y-68662524D01*
X179065076Y-68832355D01*
X178760739Y-69109708D01*
X178740157Y-69006235D01*
X178599809Y-68796191D01*
X178389765Y-68655843D01*
X178142000Y-68606560D01*
X176442000Y-68606560D01*
X176194235Y-68655843D01*
X175984191Y-68796191D01*
X175843843Y-69006235D01*
X175794560Y-69254000D01*
X175794560Y-69344000D01*
X175579000Y-69344000D01*
X175579000Y-69330452D01*
X175375758Y-68839783D01*
X175000217Y-68464242D01*
X174509548Y-68261000D01*
X173978452Y-68261000D01*
X173487783Y-68464242D01*
X173480000Y-68472025D01*
X173480000Y-65611102D01*
X173723109Y-65773542D01*
X173723109Y-65773542D01*
G37*
X173723109Y-65773542D02*
X174112515Y-65851000D01*
X174375485Y-65851000D01*
X174482843Y-65829645D01*
X175177673Y-66524476D01*
X175220071Y-66587929D01*
X175283524Y-66630327D01*
X175283526Y-66630329D01*
X175357061Y-66679463D01*
X175471463Y-66755904D01*
X175650277Y-66791472D01*
X175652242Y-66796217D01*
X176027783Y-67171758D01*
X176518452Y-67375000D01*
X177049548Y-67375000D01*
X177540217Y-67171758D01*
X177915758Y-66796217D01*
X178054000Y-66462472D01*
X178192242Y-66796217D01*
X178567783Y-67171758D01*
X178572528Y-67173723D01*
X178608096Y-67352536D01*
X178776071Y-67603929D01*
X178839530Y-67646331D01*
X179812199Y-68619000D01*
X179704998Y-68619000D01*
X179704998Y-68783844D01*
X179475110Y-68662524D01*
X179065076Y-68832355D01*
X178760739Y-69109708D01*
X178740157Y-69006235D01*
X178599809Y-68796191D01*
X178389765Y-68655843D01*
X178142000Y-68606560D01*
X176442000Y-68606560D01*
X176194235Y-68655843D01*
X175984191Y-68796191D01*
X175843843Y-69006235D01*
X175794560Y-69254000D01*
X175794560Y-69344000D01*
X175579000Y-69344000D01*
X175579000Y-69330452D01*
X175375758Y-68839783D01*
X175000217Y-68464242D01*
X174509548Y-68261000D01*
X173978452Y-68261000D01*
X173487783Y-68464242D01*
X173480000Y-68472025D01*
X173480000Y-65611102D01*
X173723109Y-65773542D01*
G36*
X171661944Y-47107040D02*
X171394000Y-47753914D01*
X171394000Y-48454086D01*
X171661944Y-49100960D01*
X172157040Y-49596056D01*
X172298136Y-49654500D01*
X172157040Y-49712944D01*
X171661944Y-50208040D01*
X171394000Y-50854914D01*
X171394000Y-51555086D01*
X171661944Y-52201960D01*
X172157040Y-52697056D01*
X172295722Y-52754500D01*
X172157040Y-52811944D01*
X171661944Y-53307040D01*
X171394000Y-53953914D01*
X171394000Y-54654086D01*
X171661944Y-55300960D01*
X172157040Y-55796056D01*
X172803914Y-56064000D01*
X173504086Y-56064000D01*
X173735234Y-55968255D01*
X180019861Y-55968255D01*
X180848000Y-56796395D01*
X181676139Y-55968255D01*
X181602005Y-55722136D01*
X181064777Y-55529035D01*
X180494546Y-55556222D01*
X180093995Y-55722136D01*
X180019861Y-55968255D01*
X173735234Y-55968255D01*
X174150960Y-55796056D01*
X174646056Y-55300960D01*
X174914000Y-54654086D01*
X174914000Y-53953914D01*
X174646056Y-53307040D01*
X174150960Y-52811944D01*
X174012278Y-52754500D01*
X174150960Y-52697056D01*
X174646056Y-52201960D01*
X174914000Y-51555086D01*
X174914000Y-50854914D01*
X174646056Y-50208040D01*
X174150960Y-49712944D01*
X174009864Y-49654500D01*
X174150960Y-49596056D01*
X174646056Y-49100960D01*
X174914000Y-48454086D01*
X174914000Y-47753914D01*
X174646056Y-47107040D01*
X174427016Y-46888000D01*
X181680984Y-46888000D01*
X181461944Y-47107040D01*
X181194000Y-47753914D01*
X181194000Y-48454086D01*
X181461944Y-49100960D01*
X181957040Y-49596056D01*
X182098136Y-49654500D01*
X181957040Y-49712944D01*
X181461944Y-50208040D01*
X181194000Y-50854914D01*
X181194000Y-51555086D01*
X181461944Y-52201960D01*
X181957040Y-52697056D01*
X182095722Y-52754500D01*
X181957040Y-52811944D01*
X181461944Y-53307040D01*
X181194000Y-53953914D01*
X181194000Y-54654086D01*
X181461944Y-55300960D01*
X181957040Y-55796056D01*
X182603914Y-56064000D01*
X183304086Y-56064000D01*
X183950960Y-55796056D01*
X184446056Y-55300960D01*
X184714000Y-54654086D01*
X184714000Y-53953914D01*
X184446056Y-53307040D01*
X183950960Y-52811944D01*
X183812278Y-52754500D01*
X183950960Y-52697056D01*
X184446056Y-52201960D01*
X184714000Y-51555086D01*
X184714000Y-50854914D01*
X184446056Y-50208040D01*
X183950960Y-49712944D01*
X183809864Y-49654500D01*
X183950960Y-49596056D01*
X184446056Y-49100960D01*
X184714000Y-48454086D01*
X184714000Y-47753914D01*
X184446056Y-47107040D01*
X184227016Y-46888000D01*
X184846998Y-46888000D01*
X185037164Y-46925826D01*
X185039000Y-46927053D01*
X185039000Y-60679361D01*
X184620777Y-60529035D01*
X184050546Y-60556222D01*
X183649995Y-60722136D01*
X183575861Y-60968255D01*
X184404000Y-61796395D01*
X184418142Y-61782252D01*
X184597748Y-61961858D01*
X184583605Y-61976000D01*
X184597748Y-61990142D01*
X184418142Y-62169748D01*
X184404000Y-62155605D01*
X183575861Y-62983745D01*
X183649995Y-63229864D01*
X184187223Y-63422965D01*
X184757454Y-63395778D01*
X185039000Y-63279158D01*
X185039000Y-65685793D01*
X184689439Y-65541000D01*
X184118561Y-65541000D01*
X183591138Y-65759466D01*
X183211440Y-66139164D01*
X183211440Y-65340000D01*
X183162157Y-65092235D01*
X183021809Y-64882191D01*
X182811765Y-64741843D01*
X182624000Y-64704495D01*
X182624000Y-63066847D01*
X182638888Y-62992000D01*
X182624000Y-62917153D01*
X182624000Y-62917148D01*
X182579904Y-62695463D01*
X182411929Y-62444071D01*
X182348473Y-62401671D01*
X182261104Y-62314302D01*
X182283000Y-62261439D01*
X182283000Y-61759223D01*
X182957035Y-61759223D01*
X182984222Y-62329454D01*
X183150136Y-62730005D01*
X183396255Y-62804139D01*
X184224395Y-61976000D01*
X183396255Y-61147861D01*
X183150136Y-61221995D01*
X182957035Y-61759223D01*
X182283000Y-61759223D01*
X182283000Y-61690561D01*
X182064534Y-61163138D01*
X181660862Y-60759466D01*
X181133439Y-60541000D01*
X180562561Y-60541000D01*
X180509698Y-60562897D01*
X179660331Y-59713530D01*
X179617929Y-59650071D01*
X179366537Y-59482096D01*
X179144852Y-59438000D01*
X179144847Y-59438000D01*
X179070000Y-59423112D01*
X178995153Y-59438000D01*
X174572848Y-59438000D01*
X174498000Y-59423112D01*
X174423152Y-59438000D01*
X174423148Y-59438000D01*
X174249605Y-59472520D01*
X174201462Y-59482096D01*
X174014418Y-59607076D01*
X173950071Y-59650071D01*
X173907671Y-59713527D01*
X173058302Y-60562897D01*
X173005439Y-60541000D01*
X172434561Y-60541000D01*
X171907138Y-60759466D01*
X171503466Y-61163138D01*
X171323000Y-61598821D01*
X171323000Y-57983745D01*
X180019861Y-57983745D01*
X180093995Y-58229864D01*
X180631223Y-58422965D01*
X181201454Y-58395778D01*
X181602005Y-58229864D01*
X181676139Y-57983745D01*
X180848000Y-57155605D01*
X180019861Y-57983745D01*
X171323000Y-57983745D01*
X171323000Y-56759223D01*
X179401035Y-56759223D01*
X179428222Y-57329454D01*
X179594136Y-57730005D01*
X179840255Y-57804139D01*
X180668395Y-56976000D01*
X181027605Y-56976000D01*
X181855745Y-57804139D01*
X182101864Y-57730005D01*
X182294965Y-57192777D01*
X182267778Y-56622546D01*
X182101864Y-56221995D01*
X181855745Y-56147861D01*
X181027605Y-56976000D01*
X180668395Y-56976000D01*
X179840255Y-56147861D01*
X179594136Y-56221995D01*
X179401035Y-56759223D01*
X171323000Y-56759223D01*
X171323000Y-46888000D01*
X171880984Y-46888000D01*
X171661944Y-47107040D01*
X171661944Y-47107040D01*
G37*
X171661944Y-47107040D02*
X171394000Y-47753914D01*
X171394000Y-48454086D01*
X171661944Y-49100960D01*
X172157040Y-49596056D01*
X172298136Y-49654500D01*
X172157040Y-49712944D01*
X171661944Y-50208040D01*
X171394000Y-50854914D01*
X171394000Y-51555086D01*
X171661944Y-52201960D01*
X172157040Y-52697056D01*
X172295722Y-52754500D01*
X172157040Y-52811944D01*
X171661944Y-53307040D01*
X171394000Y-53953914D01*
X171394000Y-54654086D01*
X171661944Y-55300960D01*
X172157040Y-55796056D01*
X172803914Y-56064000D01*
X173504086Y-56064000D01*
X173735234Y-55968255D01*
X180019861Y-55968255D01*
X180848000Y-56796395D01*
X181676139Y-55968255D01*
X181602005Y-55722136D01*
X181064777Y-55529035D01*
X180494546Y-55556222D01*
X180093995Y-55722136D01*
X180019861Y-55968255D01*
X173735234Y-55968255D01*
X174150960Y-55796056D01*
X174646056Y-55300960D01*
X174914000Y-54654086D01*
X174914000Y-53953914D01*
X174646056Y-53307040D01*
X174150960Y-52811944D01*
X174012278Y-52754500D01*
X174150960Y-52697056D01*
X174646056Y-52201960D01*
X174914000Y-51555086D01*
X174914000Y-50854914D01*
X174646056Y-50208040D01*
X174150960Y-49712944D01*
X174009864Y-49654500D01*
X174150960Y-49596056D01*
X174646056Y-49100960D01*
X174914000Y-48454086D01*
X174914000Y-47753914D01*
X174646056Y-47107040D01*
X174427016Y-46888000D01*
X181680984Y-46888000D01*
X181461944Y-47107040D01*
X181194000Y-47753914D01*
X181194000Y-48454086D01*
X181461944Y-49100960D01*
X181957040Y-49596056D01*
X182098136Y-49654500D01*
X181957040Y-49712944D01*
X181461944Y-50208040D01*
X181194000Y-50854914D01*
X181194000Y-51555086D01*
X181461944Y-52201960D01*
X181957040Y-52697056D01*
X182095722Y-52754500D01*
X181957040Y-52811944D01*
X181461944Y-53307040D01*
X181194000Y-53953914D01*
X181194000Y-54654086D01*
X181461944Y-55300960D01*
X181957040Y-55796056D01*
X182603914Y-56064000D01*
X183304086Y-56064000D01*
X183950960Y-55796056D01*
X184446056Y-55300960D01*
X184714000Y-54654086D01*
X184714000Y-53953914D01*
X184446056Y-53307040D01*
X183950960Y-52811944D01*
X183812278Y-52754500D01*
X183950960Y-52697056D01*
X184446056Y-52201960D01*
X184714000Y-51555086D01*
X184714000Y-50854914D01*
X184446056Y-50208040D01*
X183950960Y-49712944D01*
X183809864Y-49654500D01*
X183950960Y-49596056D01*
X184446056Y-49100960D01*
X184714000Y-48454086D01*
X184714000Y-47753914D01*
X184446056Y-47107040D01*
X184227016Y-46888000D01*
X184846998Y-46888000D01*
X185037164Y-46925826D01*
X185039000Y-46927053D01*
X185039000Y-60679361D01*
X184620777Y-60529035D01*
X184050546Y-60556222D01*
X183649995Y-60722136D01*
X183575861Y-60968255D01*
X184404000Y-61796395D01*
X184418142Y-61782252D01*
X184597748Y-61961858D01*
X184583605Y-61976000D01*
X184597748Y-61990142D01*
X184418142Y-62169748D01*
X184404000Y-62155605D01*
X183575861Y-62983745D01*
X183649995Y-63229864D01*
X184187223Y-63422965D01*
X184757454Y-63395778D01*
X185039000Y-63279158D01*
X185039000Y-65685793D01*
X184689439Y-65541000D01*
X184118561Y-65541000D01*
X183591138Y-65759466D01*
X183211440Y-66139164D01*
X183211440Y-65340000D01*
X183162157Y-65092235D01*
X183021809Y-64882191D01*
X182811765Y-64741843D01*
X182624000Y-64704495D01*
X182624000Y-63066847D01*
X182638888Y-62992000D01*
X182624000Y-62917153D01*
X182624000Y-62917148D01*
X182579904Y-62695463D01*
X182411929Y-62444071D01*
X182348473Y-62401671D01*
X182261104Y-62314302D01*
X182283000Y-62261439D01*
X182283000Y-61759223D01*
X182957035Y-61759223D01*
X182984222Y-62329454D01*
X183150136Y-62730005D01*
X183396255Y-62804139D01*
X184224395Y-61976000D01*
X183396255Y-61147861D01*
X183150136Y-61221995D01*
X182957035Y-61759223D01*
X182283000Y-61759223D01*
X182283000Y-61690561D01*
X182064534Y-61163138D01*
X181660862Y-60759466D01*
X181133439Y-60541000D01*
X180562561Y-60541000D01*
X180509698Y-60562897D01*
X179660331Y-59713530D01*
X179617929Y-59650071D01*
X179366537Y-59482096D01*
X179144852Y-59438000D01*
X179144847Y-59438000D01*
X179070000Y-59423112D01*
X178995153Y-59438000D01*
X174572848Y-59438000D01*
X174498000Y-59423112D01*
X174423152Y-59438000D01*
X174423148Y-59438000D01*
X174249605Y-59472520D01*
X174201462Y-59482096D01*
X174014418Y-59607076D01*
X173950071Y-59650071D01*
X173907671Y-59713527D01*
X173058302Y-60562897D01*
X173005439Y-60541000D01*
X172434561Y-60541000D01*
X171907138Y-60759466D01*
X171503466Y-61163138D01*
X171323000Y-61598821D01*
X171323000Y-57983745D01*
X180019861Y-57983745D01*
X180093995Y-58229864D01*
X180631223Y-58422965D01*
X181201454Y-58395778D01*
X181602005Y-58229864D01*
X181676139Y-57983745D01*
X180848000Y-57155605D01*
X180019861Y-57983745D01*
X171323000Y-57983745D01*
X171323000Y-56759223D01*
X179401035Y-56759223D01*
X179428222Y-57329454D01*
X179594136Y-57730005D01*
X179840255Y-57804139D01*
X180668395Y-56976000D01*
X181027605Y-56976000D01*
X181855745Y-57804139D01*
X182101864Y-57730005D01*
X182294965Y-57192777D01*
X182267778Y-56622546D01*
X182101864Y-56221995D01*
X181855745Y-56147861D01*
X181027605Y-56976000D01*
X180668395Y-56976000D01*
X179840255Y-56147861D01*
X179594136Y-56221995D01*
X179401035Y-56759223D01*
X171323000Y-56759223D01*
X171323000Y-46888000D01*
X171880984Y-46888000D01*
X171661944Y-47107040D01*
G36*
X179434897Y-61637698D02*
X179413000Y-61690561D01*
X179413000Y-62261439D01*
X179631466Y-62788862D01*
X179880719Y-63038115D01*
X179838331Y-63199725D01*
X180594000Y-63955395D01*
X180608142Y-63941252D01*
X180787748Y-64120858D01*
X180773605Y-64135000D01*
X180787748Y-64149143D01*
X180608143Y-64328748D01*
X180594000Y-64314605D01*
X180579858Y-64328748D01*
X180400252Y-64149142D01*
X180414395Y-64135000D01*
X179658725Y-63379331D01*
X179422958Y-63441169D01*
X179325847Y-63716987D01*
X179185758Y-63378783D01*
X178810217Y-63003242D01*
X178747947Y-62977449D01*
X178936534Y-62788862D01*
X179155000Y-62261439D01*
X179155000Y-61690561D01*
X178936534Y-61163138D01*
X178731396Y-60958000D01*
X178755199Y-60958000D01*
X179434897Y-61637698D01*
X179434897Y-61637698D01*
G37*
X179434897Y-61637698D02*
X179413000Y-61690561D01*
X179413000Y-62261439D01*
X179631466Y-62788862D01*
X179880719Y-63038115D01*
X179838331Y-63199725D01*
X180594000Y-63955395D01*
X180608142Y-63941252D01*
X180787748Y-64120858D01*
X180773605Y-64135000D01*
X180787748Y-64149143D01*
X180608143Y-64328748D01*
X180594000Y-64314605D01*
X180579858Y-64328748D01*
X180400252Y-64149142D01*
X180414395Y-64135000D01*
X179658725Y-63379331D01*
X179422958Y-63441169D01*
X179325847Y-63716987D01*
X179185758Y-63378783D01*
X178810217Y-63003242D01*
X178747947Y-62977449D01*
X178936534Y-62788862D01*
X179155000Y-62261439D01*
X179155000Y-61690561D01*
X178936534Y-61163138D01*
X178731396Y-60958000D01*
X178755199Y-60958000D01*
X179434897Y-61637698D01*
G04 #@! TO.N,GND*
G36*
X138184673Y-73263101D02*
X138088000Y-73496490D01*
X138088000Y-74187050D01*
X138246750Y-74345800D01*
X139446000Y-74345800D01*
X139446000Y-74325800D01*
X139700000Y-74325800D01*
X139700000Y-74345800D01*
X140899250Y-74345800D01*
X141058000Y-74187050D01*
X141058000Y-73496490D01*
X140961327Y-73263101D01*
X140858225Y-73160000D01*
X170096997Y-73160000D01*
X170162000Y-73172930D01*
X170227003Y-73160000D01*
X185268000Y-73160000D01*
X185268000Y-87224000D01*
X178734997Y-87224000D01*
X178671241Y-87236682D01*
X178661841Y-87236682D01*
X178279158Y-87312802D01*
X178052000Y-87406893D01*
X178052000Y-85896400D01*
X178183674Y-85896400D01*
X178564080Y-85738831D01*
X178855231Y-85447680D01*
X179012800Y-85067274D01*
X179012800Y-84655526D01*
X178855231Y-84275120D01*
X178564080Y-83983969D01*
X178183674Y-83826400D01*
X177771926Y-83826400D01*
X177391520Y-83983969D01*
X177100369Y-84275120D01*
X176942800Y-84655526D01*
X176942800Y-84821599D01*
X176807528Y-84956871D01*
X176744072Y-84999271D01*
X176701672Y-85062727D01*
X176701671Y-85062728D01*
X176676232Y-85100800D01*
X176576097Y-85250663D01*
X176532000Y-85472348D01*
X176532000Y-85472353D01*
X176517112Y-85547200D01*
X176532000Y-85622047D01*
X176532000Y-86333251D01*
X176532001Y-86333256D01*
X176532001Y-91241561D01*
X176371309Y-91175000D01*
X174955750Y-91175000D01*
X174797000Y-91333750D01*
X174797000Y-92183000D01*
X174817000Y-92183000D01*
X174817000Y-92437000D01*
X174797000Y-92437000D01*
X174797000Y-93286250D01*
X174955750Y-93445000D01*
X176371309Y-93445000D01*
X176532001Y-93378439D01*
X176532001Y-93778060D01*
X176492765Y-93751843D01*
X176245000Y-93702560D01*
X173095000Y-93702560D01*
X172847235Y-93751843D01*
X172637191Y-93892191D01*
X172496843Y-94102235D01*
X172447560Y-94350000D01*
X172447560Y-95350000D01*
X172496843Y-95597765D01*
X172637191Y-95807809D01*
X172847235Y-95948157D01*
X173095000Y-95997440D01*
X176245000Y-95997440D01*
X176492765Y-95948157D01*
X176532001Y-95921940D01*
X176532001Y-96318060D01*
X176492765Y-96291843D01*
X176245000Y-96242560D01*
X173095000Y-96242560D01*
X172847235Y-96291843D01*
X172637191Y-96432191D01*
X172496843Y-96642235D01*
X172447560Y-96890000D01*
X172447560Y-97890000D01*
X172496843Y-98137765D01*
X172637191Y-98347809D01*
X172847235Y-98488157D01*
X173095000Y-98537440D01*
X176245000Y-98537440D01*
X176492765Y-98488157D01*
X176532001Y-98461940D01*
X176532001Y-98858060D01*
X176492765Y-98831843D01*
X176245000Y-98782560D01*
X173095000Y-98782560D01*
X172847235Y-98831843D01*
X172637191Y-98972191D01*
X172496843Y-99182235D01*
X172447560Y-99430000D01*
X172447560Y-100430000D01*
X172496843Y-100677765D01*
X172637191Y-100887809D01*
X172847235Y-101028157D01*
X173095000Y-101077440D01*
X176245000Y-101077440D01*
X176492765Y-101028157D01*
X176532000Y-101001941D01*
X176532000Y-101398059D01*
X176492765Y-101371843D01*
X176245000Y-101322560D01*
X173095000Y-101322560D01*
X172847235Y-101371843D01*
X172637191Y-101512191D01*
X172496843Y-101722235D01*
X172447560Y-101970000D01*
X172447560Y-102970000D01*
X172496843Y-103217765D01*
X172637191Y-103427809D01*
X172847235Y-103568157D01*
X173095000Y-103617440D01*
X176245000Y-103617440D01*
X176492765Y-103568157D01*
X176532000Y-103541941D01*
X176532000Y-103938059D01*
X176492765Y-103911843D01*
X176245000Y-103862560D01*
X173095000Y-103862560D01*
X172847235Y-103911843D01*
X172637191Y-104052191D01*
X172496843Y-104262235D01*
X172447560Y-104510000D01*
X172447560Y-105462800D01*
X171842440Y-105462800D01*
X171842440Y-104510000D01*
X171793157Y-104262235D01*
X171652809Y-104052191D01*
X171442765Y-103911843D01*
X171195000Y-103862560D01*
X168045000Y-103862560D01*
X167797235Y-103911843D01*
X167700530Y-103976459D01*
X167810551Y-103811802D01*
X167856664Y-103579978D01*
X168045000Y-103617440D01*
X171195000Y-103617440D01*
X171442765Y-103568157D01*
X171652809Y-103427809D01*
X171793157Y-103217765D01*
X171842440Y-102970000D01*
X171842440Y-101970000D01*
X171793157Y-101722235D01*
X171652809Y-101512191D01*
X171442765Y-101371843D01*
X171195000Y-101322560D01*
X168045000Y-101322560D01*
X167858999Y-101359558D01*
X167858999Y-101040442D01*
X168045000Y-101077440D01*
X171195000Y-101077440D01*
X171442765Y-101028157D01*
X171652809Y-100887809D01*
X171793157Y-100677765D01*
X171842440Y-100430000D01*
X171842440Y-99430000D01*
X171793157Y-99182235D01*
X171652809Y-98972191D01*
X171442765Y-98831843D01*
X171195000Y-98782560D01*
X168045000Y-98782560D01*
X167797235Y-98831843D01*
X167587191Y-98972191D01*
X167446843Y-99182235D01*
X167404314Y-99396046D01*
X164898268Y-96890000D01*
X167397560Y-96890000D01*
X167397560Y-97890000D01*
X167446843Y-98137765D01*
X167587191Y-98347809D01*
X167797235Y-98488157D01*
X168045000Y-98537440D01*
X171195000Y-98537440D01*
X171442765Y-98488157D01*
X171652809Y-98347809D01*
X171793157Y-98137765D01*
X171842440Y-97890000D01*
X171842440Y-96890000D01*
X171793157Y-96642235D01*
X171652809Y-96432191D01*
X171442765Y-96291843D01*
X171195000Y-96242560D01*
X168045000Y-96242560D01*
X167797235Y-96291843D01*
X167587191Y-96432191D01*
X167446843Y-96642235D01*
X167397560Y-96890000D01*
X164898268Y-96890000D01*
X162903787Y-94895520D01*
X162857201Y-94825799D01*
X162581001Y-94641248D01*
X162337437Y-94592800D01*
X162337433Y-94592800D01*
X162255200Y-94576443D01*
X162172967Y-94592800D01*
X160513661Y-94592800D01*
X160733280Y-94501831D01*
X160885111Y-94350000D01*
X167397560Y-94350000D01*
X167397560Y-95350000D01*
X167446843Y-95597765D01*
X167587191Y-95807809D01*
X167797235Y-95948157D01*
X168045000Y-95997440D01*
X171195000Y-95997440D01*
X171442765Y-95948157D01*
X171652809Y-95807809D01*
X171793157Y-95597765D01*
X171842440Y-95350000D01*
X171842440Y-94350000D01*
X171793157Y-94102235D01*
X171652809Y-93892191D01*
X171442765Y-93751843D01*
X171195000Y-93702560D01*
X168045000Y-93702560D01*
X167797235Y-93751843D01*
X167587191Y-93892191D01*
X167446843Y-94102235D01*
X167397560Y-94350000D01*
X160885111Y-94350000D01*
X161024431Y-94210680D01*
X161182000Y-93830274D01*
X161182000Y-93770267D01*
X163142267Y-91810000D01*
X167397560Y-91810000D01*
X167397560Y-92810000D01*
X167446843Y-93057765D01*
X167587191Y-93267809D01*
X167797235Y-93408157D01*
X168045000Y-93457440D01*
X171195000Y-93457440D01*
X171442765Y-93408157D01*
X171652809Y-93267809D01*
X171793157Y-93057765D01*
X171842440Y-92810000D01*
X171842440Y-92595750D01*
X172460000Y-92595750D01*
X172460000Y-92936310D01*
X172556673Y-93169699D01*
X172735302Y-93348327D01*
X172968691Y-93445000D01*
X174384250Y-93445000D01*
X174543000Y-93286250D01*
X174543000Y-92437000D01*
X172618750Y-92437000D01*
X172460000Y-92595750D01*
X171842440Y-92595750D01*
X171842440Y-91810000D01*
X171817316Y-91683690D01*
X172460000Y-91683690D01*
X172460000Y-92024250D01*
X172618750Y-92183000D01*
X174543000Y-92183000D01*
X174543000Y-91333750D01*
X174384250Y-91175000D01*
X172968691Y-91175000D01*
X172735302Y-91271673D01*
X172556673Y-91450301D01*
X172460000Y-91683690D01*
X171817316Y-91683690D01*
X171793157Y-91562235D01*
X171652809Y-91352191D01*
X171442765Y-91211843D01*
X171195000Y-91162560D01*
X168045000Y-91162560D01*
X167797235Y-91211843D01*
X167587191Y-91352191D01*
X167446843Y-91562235D01*
X167397560Y-91810000D01*
X163142267Y-91810000D01*
X168234125Y-86718143D01*
X168361391Y-86908609D01*
X168571435Y-87048957D01*
X168819200Y-87098240D01*
X170169200Y-87098240D01*
X170416965Y-87048957D01*
X170627009Y-86908609D01*
X170690168Y-86814086D01*
X170983064Y-87009793D01*
X171365178Y-87085800D01*
X171623222Y-87085800D01*
X172005336Y-87009793D01*
X172438657Y-86720257D01*
X172494200Y-86637131D01*
X172549743Y-86720257D01*
X172983064Y-87009793D01*
X173365178Y-87085800D01*
X173623222Y-87085800D01*
X174005336Y-87009793D01*
X174438657Y-86720257D01*
X174728193Y-86286936D01*
X174829864Y-85775800D01*
X174728193Y-85264664D01*
X174438657Y-84831343D01*
X174005336Y-84541807D01*
X173623222Y-84465800D01*
X173365178Y-84465800D01*
X172983064Y-84541807D01*
X172549743Y-84831343D01*
X172494200Y-84914469D01*
X172438657Y-84831343D01*
X172005336Y-84541807D01*
X171623222Y-84465800D01*
X171365178Y-84465800D01*
X170983064Y-84541807D01*
X170690168Y-84737514D01*
X170627009Y-84642991D01*
X170416965Y-84502643D01*
X170169200Y-84453360D01*
X168819200Y-84453360D01*
X168571435Y-84502643D01*
X168361391Y-84642991D01*
X168221043Y-84853035D01*
X168203586Y-84940800D01*
X168077837Y-84940800D01*
X167995600Y-84924442D01*
X167913363Y-84940800D01*
X167669799Y-84989248D01*
X167393599Y-85173799D01*
X167347015Y-85243517D01*
X160001133Y-92589400D01*
X159941126Y-92589400D01*
X159560720Y-92746969D01*
X159269569Y-93038120D01*
X159112000Y-93418526D01*
X159112000Y-93830274D01*
X159269569Y-94210680D01*
X159560720Y-94501831D01*
X159780339Y-94592800D01*
X155634665Y-94592800D01*
X155477225Y-94357175D01*
X155178839Y-94157800D01*
X155477225Y-93958425D01*
X155805439Y-93467218D01*
X155920692Y-92887800D01*
X155805439Y-92308382D01*
X155477225Y-91817175D01*
X155178839Y-91617800D01*
X155477225Y-91418425D01*
X155805439Y-90927218D01*
X155920692Y-90347800D01*
X155805439Y-89768382D01*
X155477225Y-89277175D01*
X155178839Y-89077800D01*
X155477225Y-88878425D01*
X155805439Y-88387218D01*
X155920692Y-87807800D01*
X155805439Y-87228382D01*
X155477225Y-86737175D01*
X155178839Y-86537800D01*
X155477225Y-86338425D01*
X155805439Y-85847218D01*
X155920692Y-85267800D01*
X155805439Y-84688382D01*
X155477225Y-84197175D01*
X155178839Y-83997800D01*
X155477225Y-83798425D01*
X155805439Y-83307218D01*
X155920692Y-82727800D01*
X155805439Y-82148382D01*
X155477225Y-81657175D01*
X155178839Y-81457800D01*
X155477225Y-81258425D01*
X155805439Y-80767218D01*
X155920692Y-80187800D01*
X155805439Y-79608382D01*
X155477225Y-79117175D01*
X155178839Y-78917800D01*
X155477225Y-78718425D01*
X155805439Y-78227218D01*
X155896259Y-77770633D01*
X156689800Y-77770633D01*
X156689800Y-78440967D01*
X156946326Y-79060276D01*
X157420324Y-79534274D01*
X158039633Y-79790800D01*
X158709967Y-79790800D01*
X159329276Y-79534274D01*
X159803274Y-79060276D01*
X160059800Y-78440967D01*
X160059800Y-77770633D01*
X159803274Y-77151324D01*
X159773171Y-77121221D01*
X160000258Y-77111379D01*
X160433916Y-76931753D01*
X160517255Y-76677860D01*
X159634800Y-75795405D01*
X159620658Y-75809548D01*
X159441053Y-75629943D01*
X159455195Y-75615800D01*
X159814405Y-75615800D01*
X160696860Y-76498255D01*
X160950753Y-76414916D01*
X161156390Y-75850494D01*
X161133201Y-75315442D01*
X162624800Y-75315442D01*
X162624800Y-75916158D01*
X162854684Y-76471146D01*
X163279454Y-76895916D01*
X163834442Y-77125800D01*
X163981850Y-77125800D01*
X163956326Y-77151324D01*
X163699800Y-77770633D01*
X163699800Y-78440967D01*
X163956326Y-79060276D01*
X164430324Y-79534274D01*
X165049633Y-79790800D01*
X165719967Y-79790800D01*
X166339276Y-79534274D01*
X166813274Y-79060276D01*
X167069800Y-78440967D01*
X167069800Y-77770633D01*
X166813274Y-77151324D01*
X166339276Y-76677326D01*
X165719967Y-76420800D01*
X165435770Y-76420800D01*
X165644800Y-75916158D01*
X165644800Y-75315442D01*
X165414916Y-74760454D01*
X164990146Y-74335684D01*
X164435158Y-74105800D01*
X163834442Y-74105800D01*
X163279454Y-74335684D01*
X162854684Y-74760454D01*
X162624800Y-75315442D01*
X161133201Y-75315442D01*
X161130379Y-75250342D01*
X160950753Y-74816684D01*
X160696860Y-74733345D01*
X159814405Y-75615800D01*
X159455195Y-75615800D01*
X158572740Y-74733345D01*
X158318847Y-74816684D01*
X158113210Y-75381106D01*
X158139221Y-75981258D01*
X158318847Y-76414916D01*
X158336773Y-76420800D01*
X158039633Y-76420800D01*
X157420324Y-76677326D01*
X156946326Y-77151324D01*
X156689800Y-77770633D01*
X155896259Y-77770633D01*
X155920692Y-77647800D01*
X155805439Y-77068382D01*
X155477225Y-76577175D01*
X155178839Y-76377800D01*
X155477225Y-76178425D01*
X155805439Y-75687218D01*
X155920692Y-75107800D01*
X155810484Y-74553740D01*
X158752345Y-74553740D01*
X159634800Y-75436195D01*
X160517255Y-74553740D01*
X160433916Y-74299847D01*
X159869494Y-74094210D01*
X159269342Y-74120221D01*
X158835684Y-74299847D01*
X158752345Y-74553740D01*
X155810484Y-74553740D01*
X155805439Y-74528382D01*
X155477225Y-74037175D01*
X155161180Y-73826000D01*
X175794560Y-73826000D01*
X175794560Y-75526000D01*
X175843843Y-75773765D01*
X175984191Y-75983809D01*
X176194235Y-76124157D01*
X176442000Y-76173440D01*
X178142000Y-76173440D01*
X178389765Y-76124157D01*
X178599809Y-75983809D01*
X178740157Y-75773765D01*
X178760739Y-75670292D01*
X179065076Y-75947645D01*
X179475110Y-76117476D01*
X179705000Y-75996155D01*
X179705000Y-74803000D01*
X179685000Y-74803000D01*
X179685000Y-74549000D01*
X179705000Y-74549000D01*
X179705000Y-73355845D01*
X179959000Y-73355845D01*
X179959000Y-74549000D01*
X179979000Y-74549000D01*
X179979000Y-74803000D01*
X179959000Y-74803000D01*
X179959000Y-75996155D01*
X180188890Y-76117476D01*
X180598924Y-75947645D01*
X181027183Y-75557358D01*
X181088157Y-75427522D01*
X181301375Y-75746625D01*
X181792582Y-76074839D01*
X182225744Y-76161000D01*
X182518256Y-76161000D01*
X182951418Y-76074839D01*
X183442625Y-75746625D01*
X183770839Y-75255418D01*
X183886092Y-74676000D01*
X183770839Y-74096582D01*
X183442625Y-73605375D01*
X182951418Y-73277161D01*
X182518256Y-73191000D01*
X182225744Y-73191000D01*
X181792582Y-73277161D01*
X181301375Y-73605375D01*
X181088157Y-73924478D01*
X181027183Y-73794642D01*
X180598924Y-73404355D01*
X180188890Y-73234524D01*
X179959000Y-73355845D01*
X179705000Y-73355845D01*
X179475110Y-73234524D01*
X179065076Y-73404355D01*
X178760739Y-73681708D01*
X178740157Y-73578235D01*
X178599809Y-73368191D01*
X178389765Y-73227843D01*
X178142000Y-73178560D01*
X176442000Y-73178560D01*
X176194235Y-73227843D01*
X175984191Y-73368191D01*
X175843843Y-73578235D01*
X175794560Y-73826000D01*
X155161180Y-73826000D01*
X154986018Y-73708961D01*
X154552856Y-73622800D01*
X154260344Y-73622800D01*
X153827182Y-73708961D01*
X153335975Y-74037175D01*
X153007761Y-74528382D01*
X152892508Y-75107800D01*
X153007761Y-75687218D01*
X153335975Y-76178425D01*
X153634361Y-76377800D01*
X153335975Y-76577175D01*
X153007761Y-77068382D01*
X152892508Y-77647800D01*
X153007761Y-78227218D01*
X153335975Y-78718425D01*
X153634361Y-78917800D01*
X153335975Y-79117175D01*
X153007761Y-79608382D01*
X152892508Y-80187800D01*
X153007761Y-80767218D01*
X153335975Y-81258425D01*
X153634361Y-81457800D01*
X153335975Y-81657175D01*
X153007761Y-82148382D01*
X152892508Y-82727800D01*
X153007761Y-83307218D01*
X153335975Y-83798425D01*
X153634361Y-83997800D01*
X153335975Y-84197175D01*
X153007761Y-84688382D01*
X152892508Y-85267800D01*
X153007761Y-85847218D01*
X153335975Y-86338425D01*
X153634361Y-86537800D01*
X153335975Y-86737175D01*
X153007761Y-87228382D01*
X152892508Y-87807800D01*
X153007761Y-88387218D01*
X153335975Y-88878425D01*
X153634361Y-89077800D01*
X153335975Y-89277175D01*
X153007761Y-89768382D01*
X152892508Y-90347800D01*
X153007761Y-90927218D01*
X153335975Y-91418425D01*
X153634361Y-91617800D01*
X153335975Y-91817175D01*
X153007761Y-92308382D01*
X152918217Y-92758550D01*
X152445188Y-92285521D01*
X152398602Y-92215800D01*
X152122402Y-92031249D01*
X152007422Y-92008378D01*
X152085113Y-91617800D01*
X151973740Y-91057891D01*
X151656577Y-90583223D01*
X151304242Y-90347800D01*
X151656577Y-90112377D01*
X151973740Y-89637709D01*
X152085113Y-89077800D01*
X151973740Y-88517891D01*
X151656577Y-88043223D01*
X151304242Y-87807800D01*
X151656577Y-87572377D01*
X151973740Y-87097709D01*
X152085113Y-86537800D01*
X151973740Y-85977891D01*
X151656577Y-85503223D01*
X151304242Y-85267800D01*
X151656577Y-85032377D01*
X151973740Y-84557709D01*
X152085113Y-83997800D01*
X151973740Y-83437891D01*
X151656577Y-82963223D01*
X151304242Y-82727800D01*
X151656577Y-82492377D01*
X151973740Y-82017709D01*
X152085113Y-81457800D01*
X151973740Y-80897891D01*
X151656577Y-80423223D01*
X151304242Y-80187800D01*
X151656577Y-79952377D01*
X151973740Y-79477709D01*
X152085113Y-78917800D01*
X151973740Y-78357891D01*
X151656577Y-77883223D01*
X151535894Y-77802585D01*
X151669765Y-77775957D01*
X151879809Y-77635609D01*
X152020157Y-77425565D01*
X152069440Y-77177800D01*
X152069440Y-75577800D01*
X152020157Y-75330035D01*
X151879809Y-75119991D01*
X151669765Y-74979643D01*
X151422000Y-74930360D01*
X149822000Y-74930360D01*
X149574235Y-74979643D01*
X149364191Y-75119991D01*
X149223843Y-75330035D01*
X149174560Y-75577800D01*
X149174560Y-77177800D01*
X149223843Y-77425565D01*
X149364191Y-77635609D01*
X149574235Y-77775957D01*
X149708106Y-77802585D01*
X149587423Y-77883223D01*
X149270260Y-78357891D01*
X149158887Y-78917800D01*
X149270260Y-79477709D01*
X149587423Y-79952377D01*
X149939758Y-80187800D01*
X149587423Y-80423223D01*
X149270260Y-80897891D01*
X149158887Y-81457800D01*
X149270260Y-82017709D01*
X149587423Y-82492377D01*
X149939758Y-82727800D01*
X149587423Y-82963223D01*
X149270260Y-83437891D01*
X149158887Y-83997800D01*
X149270260Y-84557709D01*
X149587423Y-85032377D01*
X149939758Y-85267800D01*
X149587423Y-85503223D01*
X149270260Y-85977891D01*
X149158887Y-86537800D01*
X149270260Y-87097709D01*
X149587423Y-87572377D01*
X149939758Y-87807800D01*
X149587423Y-88043223D01*
X149270260Y-88517891D01*
X149158887Y-89077800D01*
X149270260Y-89637709D01*
X149587423Y-90112377D01*
X149939758Y-90347800D01*
X149587423Y-90583223D01*
X149349046Y-90939980D01*
X147723200Y-89314135D01*
X147723200Y-80447832D01*
X147739557Y-80365599D01*
X147723200Y-80283366D01*
X147723200Y-80283363D01*
X147674752Y-80039799D01*
X147490201Y-79763599D01*
X147420483Y-79717015D01*
X144748988Y-77045521D01*
X144702402Y-76975800D01*
X144426202Y-76791249D01*
X144384522Y-76782958D01*
X144465113Y-76377800D01*
X144353740Y-75817891D01*
X144036577Y-75343223D01*
X143561909Y-75026060D01*
X143143333Y-74942800D01*
X142860667Y-74942800D01*
X142442091Y-75026060D01*
X141967423Y-75343223D01*
X141650260Y-75817891D01*
X141538887Y-76377800D01*
X141593002Y-76649853D01*
X141423668Y-76480520D01*
X141377082Y-76410799D01*
X141100882Y-76226248D01*
X140857318Y-76177800D01*
X140857314Y-76177800D01*
X140792443Y-76164896D01*
X140643625Y-75942175D01*
X140621967Y-75927704D01*
X140782698Y-75861127D01*
X140961327Y-75682499D01*
X141058000Y-75449110D01*
X141058000Y-74758550D01*
X140899250Y-74599800D01*
X139700000Y-74599800D01*
X139700000Y-74619800D01*
X139446000Y-74619800D01*
X139446000Y-74599800D01*
X138246750Y-74599800D01*
X138088000Y-74758550D01*
X138088000Y-75449110D01*
X138184673Y-75682499D01*
X138363302Y-75861127D01*
X138524033Y-75927704D01*
X138502375Y-75942175D01*
X138174161Y-76433382D01*
X138058908Y-77012800D01*
X138174161Y-77592218D01*
X138502375Y-78083425D01*
X138800761Y-78282800D01*
X138502375Y-78482175D01*
X138174161Y-78973382D01*
X138058908Y-79552800D01*
X138174161Y-80132218D01*
X138502375Y-80623425D01*
X138800761Y-80822800D01*
X138502375Y-81022175D01*
X138174161Y-81513382D01*
X138058908Y-82092800D01*
X138174161Y-82672218D01*
X138502375Y-83163425D01*
X138800761Y-83362800D01*
X138502375Y-83562175D01*
X138174161Y-84053382D01*
X138058908Y-84632800D01*
X138174161Y-85212218D01*
X138502375Y-85703425D01*
X138800761Y-85902800D01*
X138502375Y-86102175D01*
X138174161Y-86593382D01*
X138058908Y-87172800D01*
X138174161Y-87752218D01*
X138502375Y-88243425D01*
X138800761Y-88442800D01*
X138502375Y-88642175D01*
X138174161Y-89133382D01*
X138058908Y-89712800D01*
X138174161Y-90292218D01*
X138502375Y-90783425D01*
X138800761Y-90982800D01*
X138502375Y-91182175D01*
X138174161Y-91673382D01*
X138058908Y-92252800D01*
X138174161Y-92832218D01*
X138502375Y-93323425D01*
X138800761Y-93522800D01*
X138502375Y-93722175D01*
X138174161Y-94213382D01*
X138058908Y-94792800D01*
X138174161Y-95372218D01*
X138502375Y-95863425D01*
X138800761Y-96062800D01*
X138502375Y-96262175D01*
X138174161Y-96753382D01*
X138058908Y-97332800D01*
X138174161Y-97912218D01*
X138502375Y-98403425D01*
X138993582Y-98731639D01*
X139426744Y-98817800D01*
X139719256Y-98817800D01*
X140152418Y-98731639D01*
X140643625Y-98403425D01*
X140971839Y-97912218D01*
X141087092Y-97332800D01*
X140971839Y-96753382D01*
X140643625Y-96262175D01*
X140345239Y-96062800D01*
X140643625Y-95863425D01*
X140971839Y-95372218D01*
X141087092Y-94792800D01*
X140971839Y-94213382D01*
X140643625Y-93722175D01*
X140345239Y-93522800D01*
X140643625Y-93323425D01*
X140971839Y-92832218D01*
X141087092Y-92252800D01*
X140971839Y-91673382D01*
X140643625Y-91182175D01*
X140345239Y-90982800D01*
X140643625Y-90783425D01*
X140971839Y-90292218D01*
X141087092Y-89712800D01*
X140971839Y-89133382D01*
X140643625Y-88642175D01*
X140345239Y-88442800D01*
X140643625Y-88243425D01*
X140971839Y-87752218D01*
X141087092Y-87172800D01*
X140971839Y-86593382D01*
X140643625Y-86102175D01*
X140345239Y-85902800D01*
X140643625Y-85703425D01*
X140971839Y-85212218D01*
X141087092Y-84632800D01*
X140971839Y-84053382D01*
X140643625Y-83562175D01*
X140345239Y-83362800D01*
X140643625Y-83163425D01*
X140971839Y-82672218D01*
X141087092Y-82092800D01*
X140971839Y-81513382D01*
X140643625Y-81022175D01*
X140345239Y-80822800D01*
X140643625Y-80623425D01*
X140971839Y-80132218D01*
X141087092Y-79552800D01*
X140971839Y-78973382D01*
X140643625Y-78482175D01*
X140345239Y-78282800D01*
X140643625Y-78083425D01*
X140652122Y-78070709D01*
X140691496Y-78110083D01*
X140738081Y-78179802D01*
X141014281Y-78364353D01*
X141257845Y-78412801D01*
X141257848Y-78412801D01*
X141340081Y-78429158D01*
X141422314Y-78412801D01*
X141639338Y-78412801D01*
X141538887Y-78917800D01*
X141650260Y-79477709D01*
X141967423Y-79952377D01*
X142319758Y-80187800D01*
X141967423Y-80423223D01*
X141650260Y-80897891D01*
X141538887Y-81457800D01*
X141650260Y-82017709D01*
X141967423Y-82492377D01*
X142319758Y-82727800D01*
X141967423Y-82963223D01*
X141650260Y-83437891D01*
X141538887Y-83997800D01*
X141650260Y-84557709D01*
X141967423Y-85032377D01*
X142319758Y-85267800D01*
X141967423Y-85503223D01*
X141650260Y-85977891D01*
X141538887Y-86537800D01*
X141650260Y-87097709D01*
X141967423Y-87572377D01*
X142319758Y-87807800D01*
X141967423Y-88043223D01*
X141650260Y-88517891D01*
X141538887Y-89077800D01*
X141650260Y-89637709D01*
X141967423Y-90112377D01*
X142319758Y-90347800D01*
X141967423Y-90583223D01*
X141650260Y-91057891D01*
X141538887Y-91617800D01*
X141650260Y-92177709D01*
X141967423Y-92652377D01*
X142319758Y-92887800D01*
X141967423Y-93123223D01*
X141650260Y-93597891D01*
X141538887Y-94157800D01*
X141650260Y-94717709D01*
X141967423Y-95192377D01*
X142319758Y-95427800D01*
X141967423Y-95663223D01*
X141650260Y-96137891D01*
X141538887Y-96697800D01*
X141650260Y-97257709D01*
X141967423Y-97732377D01*
X142319758Y-97967800D01*
X141967423Y-98203223D01*
X141650260Y-98677891D01*
X141538887Y-99237800D01*
X141650260Y-99797709D01*
X141967423Y-100272377D01*
X142319758Y-100507800D01*
X141967423Y-100743223D01*
X141650260Y-101217891D01*
X141538887Y-101777800D01*
X141650260Y-102337709D01*
X141967423Y-102812377D01*
X142351108Y-103068747D01*
X142146866Y-103165411D01*
X141770959Y-103580377D01*
X141610096Y-103968761D01*
X141732085Y-104190800D01*
X142875000Y-104190800D01*
X142875000Y-104170800D01*
X143129000Y-104170800D01*
X143129000Y-104190800D01*
X144271915Y-104190800D01*
X144393904Y-103968761D01*
X144233041Y-103580377D01*
X143857134Y-103165411D01*
X143652892Y-103068747D01*
X144036577Y-102812377D01*
X144353740Y-102337709D01*
X144465113Y-101777800D01*
X144353740Y-101217891D01*
X144036577Y-100743223D01*
X143684242Y-100507800D01*
X144036577Y-100272377D01*
X144353740Y-99797709D01*
X144465113Y-99237800D01*
X144353740Y-98677891D01*
X144036577Y-98203223D01*
X143684242Y-97967800D01*
X144036577Y-97732377D01*
X144353740Y-97257709D01*
X144465113Y-96697800D01*
X144353740Y-96137891D01*
X144036577Y-95663223D01*
X143684242Y-95427800D01*
X144036577Y-95192377D01*
X144353740Y-94717709D01*
X144465113Y-94157800D01*
X144353740Y-93597891D01*
X144036577Y-93123223D01*
X143684242Y-92887800D01*
X144036577Y-92652377D01*
X144353740Y-92177709D01*
X144465113Y-91617800D01*
X144353740Y-91057891D01*
X144036577Y-90583223D01*
X143684242Y-90347800D01*
X144036577Y-90112377D01*
X144353740Y-89637709D01*
X144465113Y-89077800D01*
X144353740Y-88517891D01*
X144036577Y-88043223D01*
X143684242Y-87807800D01*
X144036577Y-87572377D01*
X144353740Y-87097709D01*
X144465113Y-86537800D01*
X144353740Y-85977891D01*
X144036577Y-85503223D01*
X143684242Y-85267800D01*
X144036577Y-85032377D01*
X144353740Y-84557709D01*
X144465113Y-83997800D01*
X144353740Y-83437891D01*
X144036577Y-82963223D01*
X143684242Y-82727800D01*
X144036577Y-82492377D01*
X144353740Y-82017709D01*
X144465113Y-81457800D01*
X144353740Y-80897891D01*
X144036577Y-80423223D01*
X143684242Y-80187800D01*
X144036577Y-79952377D01*
X144353740Y-79477709D01*
X144431005Y-79089272D01*
X146053201Y-80711469D01*
X146053200Y-89577769D01*
X146036843Y-89660002D01*
X146053200Y-89742235D01*
X146053200Y-89742238D01*
X146101648Y-89985802D01*
X146286199Y-90262003D01*
X146355920Y-90308589D01*
X149397414Y-93350084D01*
X149416627Y-93378838D01*
X149270260Y-93597891D01*
X149158887Y-94157800D01*
X149270260Y-94717709D01*
X149587423Y-95192377D01*
X149939758Y-95427800D01*
X149587423Y-95663223D01*
X149270260Y-96137891D01*
X149158887Y-96697800D01*
X149270260Y-97257709D01*
X149587423Y-97732377D01*
X149971108Y-97988747D01*
X149766866Y-98085411D01*
X149390959Y-98500377D01*
X149230096Y-98888761D01*
X149352085Y-99110800D01*
X150495000Y-99110800D01*
X150495000Y-99090800D01*
X150749000Y-99090800D01*
X150749000Y-99110800D01*
X151891915Y-99110800D01*
X152013904Y-98888761D01*
X151853041Y-98500377D01*
X151629447Y-98253550D01*
X152921600Y-98253550D01*
X152921600Y-98944110D01*
X153018273Y-99177499D01*
X153196902Y-99356127D01*
X153430291Y-99452800D01*
X154120850Y-99452800D01*
X154279600Y-99294050D01*
X154279600Y-98094800D01*
X154533600Y-98094800D01*
X154533600Y-99294050D01*
X154692350Y-99452800D01*
X155382909Y-99452800D01*
X155616298Y-99356127D01*
X155794927Y-99177499D01*
X155891600Y-98944110D01*
X155891600Y-98253550D01*
X155732850Y-98094800D01*
X154533600Y-98094800D01*
X154279600Y-98094800D01*
X153080350Y-98094800D01*
X152921600Y-98253550D01*
X151629447Y-98253550D01*
X151477134Y-98085411D01*
X151272892Y-97988747D01*
X151656577Y-97732377D01*
X151973740Y-97257709D01*
X152085113Y-96697800D01*
X151973740Y-96137891D01*
X151656577Y-95663223D01*
X151304242Y-95427800D01*
X151656577Y-95192377D01*
X151973740Y-94717709D01*
X152063647Y-94265715D01*
X152947793Y-95149861D01*
X152892508Y-95427800D01*
X153007761Y-96007218D01*
X153335975Y-96498425D01*
X153357633Y-96512896D01*
X153196902Y-96579473D01*
X153018273Y-96758101D01*
X152921600Y-96991490D01*
X152921600Y-97682050D01*
X153080350Y-97840800D01*
X154279600Y-97840800D01*
X154279600Y-97820800D01*
X154533600Y-97820800D01*
X154533600Y-97840800D01*
X155732850Y-97840800D01*
X155891600Y-97682050D01*
X155891600Y-96991490D01*
X155794927Y-96758101D01*
X155616298Y-96579473D01*
X155455567Y-96512896D01*
X155477225Y-96498425D01*
X155634665Y-96262800D01*
X161909333Y-96262800D01*
X166189000Y-100542468D01*
X166189000Y-100725198D01*
X164750531Y-99286730D01*
X164708129Y-99223271D01*
X164456737Y-99055296D01*
X164235052Y-99011200D01*
X164235047Y-99011200D01*
X164160200Y-98996312D01*
X164085353Y-99011200D01*
X156640446Y-99011200D01*
X156565599Y-98996312D01*
X156490752Y-99011200D01*
X156490748Y-99011200D01*
X156269063Y-99055296D01*
X156269061Y-99055297D01*
X156269062Y-99055297D01*
X156081126Y-99180871D01*
X156081124Y-99180873D01*
X156017671Y-99223271D01*
X155975273Y-99286724D01*
X151785632Y-103476367D01*
X151656577Y-103283223D01*
X151304242Y-103047800D01*
X151656577Y-102812377D01*
X151973740Y-102337709D01*
X152085113Y-101777800D01*
X151973740Y-101217891D01*
X151656577Y-100743223D01*
X151272892Y-100486853D01*
X151477134Y-100390189D01*
X151853041Y-99975223D01*
X152013904Y-99586839D01*
X151891915Y-99364800D01*
X150749000Y-99364800D01*
X150749000Y-99384800D01*
X150495000Y-99384800D01*
X150495000Y-99364800D01*
X149352085Y-99364800D01*
X149230096Y-99586839D01*
X149390959Y-99975223D01*
X149766866Y-100390189D01*
X149971108Y-100486853D01*
X149587423Y-100743223D01*
X149270260Y-101217891D01*
X149158887Y-101777800D01*
X149270260Y-102337709D01*
X149587423Y-102812377D01*
X149939758Y-103047800D01*
X149587423Y-103283223D01*
X149270260Y-103757891D01*
X149158887Y-104317800D01*
X149270260Y-104877709D01*
X149587423Y-105352377D01*
X149939758Y-105587800D01*
X149587423Y-105823223D01*
X149270260Y-106297891D01*
X149158887Y-106857800D01*
X149270260Y-107417709D01*
X149587423Y-107892377D01*
X149939758Y-108127800D01*
X149587423Y-108363223D01*
X149270260Y-108837891D01*
X149158887Y-109397800D01*
X149270260Y-109957709D01*
X149587423Y-110432377D01*
X150062091Y-110749540D01*
X150480667Y-110832800D01*
X150763333Y-110832800D01*
X151181909Y-110749540D01*
X151656577Y-110432377D01*
X151973740Y-109957709D01*
X152068313Y-109482255D01*
X153175861Y-109482255D01*
X154004000Y-110310395D01*
X154832139Y-109482255D01*
X154758005Y-109236136D01*
X154220777Y-109043035D01*
X153650546Y-109070222D01*
X153249995Y-109236136D01*
X153175861Y-109482255D01*
X152068313Y-109482255D01*
X152085113Y-109397800D01*
X151973740Y-108837891D01*
X151656577Y-108363223D01*
X151304242Y-108127800D01*
X151656577Y-107892377D01*
X151973740Y-107417709D01*
X152085113Y-106857800D01*
X152020688Y-106533913D01*
X157159802Y-101394800D01*
X157745442Y-101394800D01*
X157528720Y-101484569D01*
X157494675Y-101518614D01*
X157454599Y-101510643D01*
X157372366Y-101527000D01*
X157372363Y-101527000D01*
X157128799Y-101575448D01*
X156852599Y-101759999D01*
X156806015Y-101829718D01*
X155703120Y-102932613D01*
X155633399Y-102979199D01*
X155448848Y-103255400D01*
X155400400Y-103498964D01*
X155400400Y-103498967D01*
X155384043Y-103581200D01*
X155400400Y-103663433D01*
X155400401Y-105995162D01*
X155384043Y-106077400D01*
X155448848Y-106403200D01*
X155515841Y-106503462D01*
X155633400Y-106679401D01*
X155703118Y-106725985D01*
X157205415Y-108228283D01*
X157251999Y-108298001D01*
X157528199Y-108482552D01*
X157771763Y-108531000D01*
X157771766Y-108531000D01*
X157853999Y-108547357D01*
X157936232Y-108531000D01*
X157941810Y-108531000D01*
X157942687Y-108532313D01*
X158326391Y-108788695D01*
X158664754Y-108856000D01*
X159343246Y-108856000D01*
X159681609Y-108788695D01*
X160065313Y-108532313D01*
X160321695Y-108148609D01*
X160411725Y-107696000D01*
X160321695Y-107243391D01*
X160193146Y-107051004D01*
X160339266Y-106793336D01*
X160347964Y-106731810D01*
X160222163Y-106553000D01*
X159428710Y-106553000D01*
X159343246Y-106536000D01*
X158857000Y-106536000D01*
X158857000Y-106328440D01*
X159754000Y-106328440D01*
X159902006Y-106299000D01*
X160222163Y-106299000D01*
X160305257Y-106180893D01*
X160346986Y-106222622D01*
X160461861Y-106107747D01*
X160535995Y-106353864D01*
X161073223Y-106546965D01*
X161643454Y-106519778D01*
X162044005Y-106353864D01*
X162118139Y-106107745D01*
X161290000Y-105279605D01*
X161275858Y-105293748D01*
X161096252Y-105114142D01*
X161110395Y-105100000D01*
X161469605Y-105100000D01*
X162297745Y-105928139D01*
X162543864Y-105854005D01*
X162736965Y-105316777D01*
X162709778Y-104746546D01*
X162543864Y-104345995D01*
X162297745Y-104271861D01*
X161469605Y-105100000D01*
X161110395Y-105100000D01*
X160282255Y-104271861D01*
X160278495Y-104272993D01*
X160211809Y-104173191D01*
X160001765Y-104032843D01*
X159754000Y-103983560D01*
X158254000Y-103983560D01*
X158006235Y-104032843D01*
X157796191Y-104173191D01*
X157655843Y-104383235D01*
X157606560Y-104631000D01*
X157606560Y-105681000D01*
X157655843Y-105928765D01*
X157702662Y-105998835D01*
X157668734Y-106058664D01*
X157660036Y-106120190D01*
X157785836Y-106298998D01*
X157637866Y-106298998D01*
X157070400Y-105731533D01*
X157070400Y-103927067D01*
X157690871Y-103306596D01*
X157909126Y-103397000D01*
X158320874Y-103397000D01*
X158701280Y-103239431D01*
X158992431Y-102948280D01*
X159150000Y-102567874D01*
X159150000Y-102156126D01*
X158992431Y-101775720D01*
X158701280Y-101484569D01*
X158484558Y-101394800D01*
X160465804Y-101394800D01*
X160073466Y-101787138D01*
X159855000Y-102314561D01*
X159855000Y-102885439D01*
X160073466Y-103412862D01*
X160477138Y-103816534D01*
X160542299Y-103843525D01*
X160535995Y-103846136D01*
X160461861Y-104092255D01*
X161290000Y-104920395D01*
X162118139Y-104092255D01*
X162044005Y-103846136D01*
X162037254Y-103843710D01*
X162102862Y-103816534D01*
X162506534Y-103412862D01*
X162725000Y-102885439D01*
X162725000Y-102314561D01*
X162506534Y-101787138D01*
X162114196Y-101394800D01*
X163769199Y-101394800D01*
X164517801Y-102143403D01*
X164517800Y-105792955D01*
X164502912Y-105867802D01*
X164517800Y-105942649D01*
X164517800Y-105942653D01*
X164561896Y-106164338D01*
X164729871Y-106415731D01*
X164793330Y-106458133D01*
X167455471Y-109120276D01*
X167497869Y-109183729D01*
X167535813Y-109209083D01*
X167446843Y-109342235D01*
X167397560Y-109590000D01*
X167397560Y-110442400D01*
X166553461Y-110442400D01*
X166397886Y-110338448D01*
X166154322Y-110290000D01*
X166154318Y-110290000D01*
X166130342Y-110285231D01*
X166092680Y-110247569D01*
X165712274Y-110090000D01*
X165300526Y-110090000D01*
X164920120Y-110247569D01*
X164628969Y-110538720D01*
X164471400Y-110919126D01*
X164471400Y-111090000D01*
X160308704Y-111090000D01*
X160439000Y-110775439D01*
X160439000Y-110204561D01*
X160220534Y-109677138D01*
X159816862Y-109273466D01*
X159289439Y-109055000D01*
X158718561Y-109055000D01*
X158191138Y-109273466D01*
X157787466Y-109677138D01*
X157569000Y-110204561D01*
X157569000Y-110775439D01*
X157699296Y-111090000D01*
X155313219Y-111090000D01*
X155450965Y-110706777D01*
X155423778Y-110136546D01*
X155257864Y-109735995D01*
X155011745Y-109661861D01*
X154183605Y-110490000D01*
X154197748Y-110504142D01*
X154018142Y-110683748D01*
X154004000Y-110669605D01*
X153989858Y-110683748D01*
X153810252Y-110504142D01*
X153824395Y-110490000D01*
X152996255Y-109661861D01*
X152750136Y-109735995D01*
X152557035Y-110273223D01*
X152584222Y-110843454D01*
X152686345Y-111090000D01*
X138065002Y-111090000D01*
X137874836Y-111052174D01*
X137768726Y-110981274D01*
X137697826Y-110875164D01*
X137660000Y-110684998D01*
X137660000Y-109746839D01*
X141610096Y-109746839D01*
X141770959Y-110135223D01*
X142146866Y-110550189D01*
X142652959Y-110789714D01*
X142875000Y-110668429D01*
X142875000Y-109524800D01*
X143129000Y-109524800D01*
X143129000Y-110668429D01*
X143351041Y-110789714D01*
X143857134Y-110550189D01*
X144233041Y-110135223D01*
X144393904Y-109746839D01*
X144271915Y-109524800D01*
X143129000Y-109524800D01*
X142875000Y-109524800D01*
X141732085Y-109524800D01*
X141610096Y-109746839D01*
X137660000Y-109746839D01*
X137660000Y-107206839D01*
X141610096Y-107206839D01*
X141770959Y-107595223D01*
X142146866Y-108010189D01*
X142395367Y-108127800D01*
X142146866Y-108245411D01*
X141770959Y-108660377D01*
X141610096Y-109048761D01*
X141732085Y-109270800D01*
X142875000Y-109270800D01*
X142875000Y-106984800D01*
X143129000Y-106984800D01*
X143129000Y-109270800D01*
X144271915Y-109270800D01*
X144393904Y-109048761D01*
X144233041Y-108660377D01*
X143857134Y-108245411D01*
X143608633Y-108127800D01*
X143857134Y-108010189D01*
X144233041Y-107595223D01*
X144393904Y-107206839D01*
X144271915Y-106984800D01*
X143129000Y-106984800D01*
X142875000Y-106984800D01*
X141732085Y-106984800D01*
X141610096Y-107206839D01*
X137660000Y-107206839D01*
X137660000Y-104666839D01*
X141610096Y-104666839D01*
X141770959Y-105055223D01*
X142146866Y-105470189D01*
X142395367Y-105587800D01*
X142146866Y-105705411D01*
X141770959Y-106120377D01*
X141610096Y-106508761D01*
X141732085Y-106730800D01*
X142875000Y-106730800D01*
X142875000Y-104444800D01*
X143129000Y-104444800D01*
X143129000Y-106730800D01*
X144271915Y-106730800D01*
X144393904Y-106508761D01*
X144233041Y-106120377D01*
X143857134Y-105705411D01*
X143608633Y-105587800D01*
X143857134Y-105470189D01*
X144233041Y-105055223D01*
X144393904Y-104666839D01*
X144271915Y-104444800D01*
X143129000Y-104444800D01*
X142875000Y-104444800D01*
X141732085Y-104444800D01*
X141610096Y-104666839D01*
X137660000Y-104666839D01*
X137660000Y-73565002D01*
X137697826Y-73374836D01*
X137768726Y-73268726D01*
X137874836Y-73197826D01*
X138065002Y-73160000D01*
X138287775Y-73160000D01*
X138184673Y-73263101D01*
X138184673Y-73263101D01*
G37*
X138184673Y-73263101D02*
X138088000Y-73496490D01*
X138088000Y-74187050D01*
X138246750Y-74345800D01*
X139446000Y-74345800D01*
X139446000Y-74325800D01*
X139700000Y-74325800D01*
X139700000Y-74345800D01*
X140899250Y-74345800D01*
X141058000Y-74187050D01*
X141058000Y-73496490D01*
X140961327Y-73263101D01*
X140858225Y-73160000D01*
X170096997Y-73160000D01*
X170162000Y-73172930D01*
X170227003Y-73160000D01*
X185268000Y-73160000D01*
X185268000Y-87224000D01*
X178734997Y-87224000D01*
X178671241Y-87236682D01*
X178661841Y-87236682D01*
X178279158Y-87312802D01*
X178052000Y-87406893D01*
X178052000Y-85896400D01*
X178183674Y-85896400D01*
X178564080Y-85738831D01*
X178855231Y-85447680D01*
X179012800Y-85067274D01*
X179012800Y-84655526D01*
X178855231Y-84275120D01*
X178564080Y-83983969D01*
X178183674Y-83826400D01*
X177771926Y-83826400D01*
X177391520Y-83983969D01*
X177100369Y-84275120D01*
X176942800Y-84655526D01*
X176942800Y-84821599D01*
X176807528Y-84956871D01*
X176744072Y-84999271D01*
X176701672Y-85062727D01*
X176701671Y-85062728D01*
X176676232Y-85100800D01*
X176576097Y-85250663D01*
X176532000Y-85472348D01*
X176532000Y-85472353D01*
X176517112Y-85547200D01*
X176532000Y-85622047D01*
X176532000Y-86333251D01*
X176532001Y-86333256D01*
X176532001Y-91241561D01*
X176371309Y-91175000D01*
X174955750Y-91175000D01*
X174797000Y-91333750D01*
X174797000Y-92183000D01*
X174817000Y-92183000D01*
X174817000Y-92437000D01*
X174797000Y-92437000D01*
X174797000Y-93286250D01*
X174955750Y-93445000D01*
X176371309Y-93445000D01*
X176532001Y-93378439D01*
X176532001Y-93778060D01*
X176492765Y-93751843D01*
X176245000Y-93702560D01*
X173095000Y-93702560D01*
X172847235Y-93751843D01*
X172637191Y-93892191D01*
X172496843Y-94102235D01*
X172447560Y-94350000D01*
X172447560Y-95350000D01*
X172496843Y-95597765D01*
X172637191Y-95807809D01*
X172847235Y-95948157D01*
X173095000Y-95997440D01*
X176245000Y-95997440D01*
X176492765Y-95948157D01*
X176532001Y-95921940D01*
X176532001Y-96318060D01*
X176492765Y-96291843D01*
X176245000Y-96242560D01*
X173095000Y-96242560D01*
X172847235Y-96291843D01*
X172637191Y-96432191D01*
X172496843Y-96642235D01*
X172447560Y-96890000D01*
X172447560Y-97890000D01*
X172496843Y-98137765D01*
X172637191Y-98347809D01*
X172847235Y-98488157D01*
X173095000Y-98537440D01*
X176245000Y-98537440D01*
X176492765Y-98488157D01*
X176532001Y-98461940D01*
X176532001Y-98858060D01*
X176492765Y-98831843D01*
X176245000Y-98782560D01*
X173095000Y-98782560D01*
X172847235Y-98831843D01*
X172637191Y-98972191D01*
X172496843Y-99182235D01*
X172447560Y-99430000D01*
X172447560Y-100430000D01*
X172496843Y-100677765D01*
X172637191Y-100887809D01*
X172847235Y-101028157D01*
X173095000Y-101077440D01*
X176245000Y-101077440D01*
X176492765Y-101028157D01*
X176532000Y-101001941D01*
X176532000Y-101398059D01*
X176492765Y-101371843D01*
X176245000Y-101322560D01*
X173095000Y-101322560D01*
X172847235Y-101371843D01*
X172637191Y-101512191D01*
X172496843Y-101722235D01*
X172447560Y-101970000D01*
X172447560Y-102970000D01*
X172496843Y-103217765D01*
X172637191Y-103427809D01*
X172847235Y-103568157D01*
X173095000Y-103617440D01*
X176245000Y-103617440D01*
X176492765Y-103568157D01*
X176532000Y-103541941D01*
X176532000Y-103938059D01*
X176492765Y-103911843D01*
X176245000Y-103862560D01*
X173095000Y-103862560D01*
X172847235Y-103911843D01*
X172637191Y-104052191D01*
X172496843Y-104262235D01*
X172447560Y-104510000D01*
X172447560Y-105462800D01*
X171842440Y-105462800D01*
X171842440Y-104510000D01*
X171793157Y-104262235D01*
X171652809Y-104052191D01*
X171442765Y-103911843D01*
X171195000Y-103862560D01*
X168045000Y-103862560D01*
X167797235Y-103911843D01*
X167700530Y-103976459D01*
X167810551Y-103811802D01*
X167856664Y-103579978D01*
X168045000Y-103617440D01*
X171195000Y-103617440D01*
X171442765Y-103568157D01*
X171652809Y-103427809D01*
X171793157Y-103217765D01*
X171842440Y-102970000D01*
X171842440Y-101970000D01*
X171793157Y-101722235D01*
X171652809Y-101512191D01*
X171442765Y-101371843D01*
X171195000Y-101322560D01*
X168045000Y-101322560D01*
X167858999Y-101359558D01*
X167858999Y-101040442D01*
X168045000Y-101077440D01*
X171195000Y-101077440D01*
X171442765Y-101028157D01*
X171652809Y-100887809D01*
X171793157Y-100677765D01*
X171842440Y-100430000D01*
X171842440Y-99430000D01*
X171793157Y-99182235D01*
X171652809Y-98972191D01*
X171442765Y-98831843D01*
X171195000Y-98782560D01*
X168045000Y-98782560D01*
X167797235Y-98831843D01*
X167587191Y-98972191D01*
X167446843Y-99182235D01*
X167404314Y-99396046D01*
X164898268Y-96890000D01*
X167397560Y-96890000D01*
X167397560Y-97890000D01*
X167446843Y-98137765D01*
X167587191Y-98347809D01*
X167797235Y-98488157D01*
X168045000Y-98537440D01*
X171195000Y-98537440D01*
X171442765Y-98488157D01*
X171652809Y-98347809D01*
X171793157Y-98137765D01*
X171842440Y-97890000D01*
X171842440Y-96890000D01*
X171793157Y-96642235D01*
X171652809Y-96432191D01*
X171442765Y-96291843D01*
X171195000Y-96242560D01*
X168045000Y-96242560D01*
X167797235Y-96291843D01*
X167587191Y-96432191D01*
X167446843Y-96642235D01*
X167397560Y-96890000D01*
X164898268Y-96890000D01*
X162903787Y-94895520D01*
X162857201Y-94825799D01*
X162581001Y-94641248D01*
X162337437Y-94592800D01*
X162337433Y-94592800D01*
X162255200Y-94576443D01*
X162172967Y-94592800D01*
X160513661Y-94592800D01*
X160733280Y-94501831D01*
X160885111Y-94350000D01*
X167397560Y-94350000D01*
X167397560Y-95350000D01*
X167446843Y-95597765D01*
X167587191Y-95807809D01*
X167797235Y-95948157D01*
X168045000Y-95997440D01*
X171195000Y-95997440D01*
X171442765Y-95948157D01*
X171652809Y-95807809D01*
X171793157Y-95597765D01*
X171842440Y-95350000D01*
X171842440Y-94350000D01*
X171793157Y-94102235D01*
X171652809Y-93892191D01*
X171442765Y-93751843D01*
X171195000Y-93702560D01*
X168045000Y-93702560D01*
X167797235Y-93751843D01*
X167587191Y-93892191D01*
X167446843Y-94102235D01*
X167397560Y-94350000D01*
X160885111Y-94350000D01*
X161024431Y-94210680D01*
X161182000Y-93830274D01*
X161182000Y-93770267D01*
X163142267Y-91810000D01*
X167397560Y-91810000D01*
X167397560Y-92810000D01*
X167446843Y-93057765D01*
X167587191Y-93267809D01*
X167797235Y-93408157D01*
X168045000Y-93457440D01*
X171195000Y-93457440D01*
X171442765Y-93408157D01*
X171652809Y-93267809D01*
X171793157Y-93057765D01*
X171842440Y-92810000D01*
X171842440Y-92595750D01*
X172460000Y-92595750D01*
X172460000Y-92936310D01*
X172556673Y-93169699D01*
X172735302Y-93348327D01*
X172968691Y-93445000D01*
X174384250Y-93445000D01*
X174543000Y-93286250D01*
X174543000Y-92437000D01*
X172618750Y-92437000D01*
X172460000Y-92595750D01*
X171842440Y-92595750D01*
X171842440Y-91810000D01*
X171817316Y-91683690D01*
X172460000Y-91683690D01*
X172460000Y-92024250D01*
X172618750Y-92183000D01*
X174543000Y-92183000D01*
X174543000Y-91333750D01*
X174384250Y-91175000D01*
X172968691Y-91175000D01*
X172735302Y-91271673D01*
X172556673Y-91450301D01*
X172460000Y-91683690D01*
X171817316Y-91683690D01*
X171793157Y-91562235D01*
X171652809Y-91352191D01*
X171442765Y-91211843D01*
X171195000Y-91162560D01*
X168045000Y-91162560D01*
X167797235Y-91211843D01*
X167587191Y-91352191D01*
X167446843Y-91562235D01*
X167397560Y-91810000D01*
X163142267Y-91810000D01*
X168234125Y-86718143D01*
X168361391Y-86908609D01*
X168571435Y-87048957D01*
X168819200Y-87098240D01*
X170169200Y-87098240D01*
X170416965Y-87048957D01*
X170627009Y-86908609D01*
X170690168Y-86814086D01*
X170983064Y-87009793D01*
X171365178Y-87085800D01*
X171623222Y-87085800D01*
X172005336Y-87009793D01*
X172438657Y-86720257D01*
X172494200Y-86637131D01*
X172549743Y-86720257D01*
X172983064Y-87009793D01*
X173365178Y-87085800D01*
X173623222Y-87085800D01*
X174005336Y-87009793D01*
X174438657Y-86720257D01*
X174728193Y-86286936D01*
X174829864Y-85775800D01*
X174728193Y-85264664D01*
X174438657Y-84831343D01*
X174005336Y-84541807D01*
X173623222Y-84465800D01*
X173365178Y-84465800D01*
X172983064Y-84541807D01*
X172549743Y-84831343D01*
X172494200Y-84914469D01*
X172438657Y-84831343D01*
X172005336Y-84541807D01*
X171623222Y-84465800D01*
X171365178Y-84465800D01*
X170983064Y-84541807D01*
X170690168Y-84737514D01*
X170627009Y-84642991D01*
X170416965Y-84502643D01*
X170169200Y-84453360D01*
X168819200Y-84453360D01*
X168571435Y-84502643D01*
X168361391Y-84642991D01*
X168221043Y-84853035D01*
X168203586Y-84940800D01*
X168077837Y-84940800D01*
X167995600Y-84924442D01*
X167913363Y-84940800D01*
X167669799Y-84989248D01*
X167393599Y-85173799D01*
X167347015Y-85243517D01*
X160001133Y-92589400D01*
X159941126Y-92589400D01*
X159560720Y-92746969D01*
X159269569Y-93038120D01*
X159112000Y-93418526D01*
X159112000Y-93830274D01*
X159269569Y-94210680D01*
X159560720Y-94501831D01*
X159780339Y-94592800D01*
X155634665Y-94592800D01*
X155477225Y-94357175D01*
X155178839Y-94157800D01*
X155477225Y-93958425D01*
X155805439Y-93467218D01*
X155920692Y-92887800D01*
X155805439Y-92308382D01*
X155477225Y-91817175D01*
X155178839Y-91617800D01*
X155477225Y-91418425D01*
X155805439Y-90927218D01*
X155920692Y-90347800D01*
X155805439Y-89768382D01*
X155477225Y-89277175D01*
X155178839Y-89077800D01*
X155477225Y-88878425D01*
X155805439Y-88387218D01*
X155920692Y-87807800D01*
X155805439Y-87228382D01*
X155477225Y-86737175D01*
X155178839Y-86537800D01*
X155477225Y-86338425D01*
X155805439Y-85847218D01*
X155920692Y-85267800D01*
X155805439Y-84688382D01*
X155477225Y-84197175D01*
X155178839Y-83997800D01*
X155477225Y-83798425D01*
X155805439Y-83307218D01*
X155920692Y-82727800D01*
X155805439Y-82148382D01*
X155477225Y-81657175D01*
X155178839Y-81457800D01*
X155477225Y-81258425D01*
X155805439Y-80767218D01*
X155920692Y-80187800D01*
X155805439Y-79608382D01*
X155477225Y-79117175D01*
X155178839Y-78917800D01*
X155477225Y-78718425D01*
X155805439Y-78227218D01*
X155896259Y-77770633D01*
X156689800Y-77770633D01*
X156689800Y-78440967D01*
X156946326Y-79060276D01*
X157420324Y-79534274D01*
X158039633Y-79790800D01*
X158709967Y-79790800D01*
X159329276Y-79534274D01*
X159803274Y-79060276D01*
X160059800Y-78440967D01*
X160059800Y-77770633D01*
X159803274Y-77151324D01*
X159773171Y-77121221D01*
X160000258Y-77111379D01*
X160433916Y-76931753D01*
X160517255Y-76677860D01*
X159634800Y-75795405D01*
X159620658Y-75809548D01*
X159441053Y-75629943D01*
X159455195Y-75615800D01*
X159814405Y-75615800D01*
X160696860Y-76498255D01*
X160950753Y-76414916D01*
X161156390Y-75850494D01*
X161133201Y-75315442D01*
X162624800Y-75315442D01*
X162624800Y-75916158D01*
X162854684Y-76471146D01*
X163279454Y-76895916D01*
X163834442Y-77125800D01*
X163981850Y-77125800D01*
X163956326Y-77151324D01*
X163699800Y-77770633D01*
X163699800Y-78440967D01*
X163956326Y-79060276D01*
X164430324Y-79534274D01*
X165049633Y-79790800D01*
X165719967Y-79790800D01*
X166339276Y-79534274D01*
X166813274Y-79060276D01*
X167069800Y-78440967D01*
X167069800Y-77770633D01*
X166813274Y-77151324D01*
X166339276Y-76677326D01*
X165719967Y-76420800D01*
X165435770Y-76420800D01*
X165644800Y-75916158D01*
X165644800Y-75315442D01*
X165414916Y-74760454D01*
X164990146Y-74335684D01*
X164435158Y-74105800D01*
X163834442Y-74105800D01*
X163279454Y-74335684D01*
X162854684Y-74760454D01*
X162624800Y-75315442D01*
X161133201Y-75315442D01*
X161130379Y-75250342D01*
X160950753Y-74816684D01*
X160696860Y-74733345D01*
X159814405Y-75615800D01*
X159455195Y-75615800D01*
X158572740Y-74733345D01*
X158318847Y-74816684D01*
X158113210Y-75381106D01*
X158139221Y-75981258D01*
X158318847Y-76414916D01*
X158336773Y-76420800D01*
X158039633Y-76420800D01*
X157420324Y-76677326D01*
X156946326Y-77151324D01*
X156689800Y-77770633D01*
X155896259Y-77770633D01*
X155920692Y-77647800D01*
X155805439Y-77068382D01*
X155477225Y-76577175D01*
X155178839Y-76377800D01*
X155477225Y-76178425D01*
X155805439Y-75687218D01*
X155920692Y-75107800D01*
X155810484Y-74553740D01*
X158752345Y-74553740D01*
X159634800Y-75436195D01*
X160517255Y-74553740D01*
X160433916Y-74299847D01*
X159869494Y-74094210D01*
X159269342Y-74120221D01*
X158835684Y-74299847D01*
X158752345Y-74553740D01*
X155810484Y-74553740D01*
X155805439Y-74528382D01*
X155477225Y-74037175D01*
X155161180Y-73826000D01*
X175794560Y-73826000D01*
X175794560Y-75526000D01*
X175843843Y-75773765D01*
X175984191Y-75983809D01*
X176194235Y-76124157D01*
X176442000Y-76173440D01*
X178142000Y-76173440D01*
X178389765Y-76124157D01*
X178599809Y-75983809D01*
X178740157Y-75773765D01*
X178760739Y-75670292D01*
X179065076Y-75947645D01*
X179475110Y-76117476D01*
X179705000Y-75996155D01*
X179705000Y-74803000D01*
X179685000Y-74803000D01*
X179685000Y-74549000D01*
X179705000Y-74549000D01*
X179705000Y-73355845D01*
X179959000Y-73355845D01*
X179959000Y-74549000D01*
X179979000Y-74549000D01*
X179979000Y-74803000D01*
X179959000Y-74803000D01*
X179959000Y-75996155D01*
X180188890Y-76117476D01*
X180598924Y-75947645D01*
X181027183Y-75557358D01*
X181088157Y-75427522D01*
X181301375Y-75746625D01*
X181792582Y-76074839D01*
X182225744Y-76161000D01*
X182518256Y-76161000D01*
X182951418Y-76074839D01*
X183442625Y-75746625D01*
X183770839Y-75255418D01*
X183886092Y-74676000D01*
X183770839Y-74096582D01*
X183442625Y-73605375D01*
X182951418Y-73277161D01*
X182518256Y-73191000D01*
X182225744Y-73191000D01*
X181792582Y-73277161D01*
X181301375Y-73605375D01*
X181088157Y-73924478D01*
X181027183Y-73794642D01*
X180598924Y-73404355D01*
X180188890Y-73234524D01*
X179959000Y-73355845D01*
X179705000Y-73355845D01*
X179475110Y-73234524D01*
X179065076Y-73404355D01*
X178760739Y-73681708D01*
X178740157Y-73578235D01*
X178599809Y-73368191D01*
X178389765Y-73227843D01*
X178142000Y-73178560D01*
X176442000Y-73178560D01*
X176194235Y-73227843D01*
X175984191Y-73368191D01*
X175843843Y-73578235D01*
X175794560Y-73826000D01*
X155161180Y-73826000D01*
X154986018Y-73708961D01*
X154552856Y-73622800D01*
X154260344Y-73622800D01*
X153827182Y-73708961D01*
X153335975Y-74037175D01*
X153007761Y-74528382D01*
X152892508Y-75107800D01*
X153007761Y-75687218D01*
X153335975Y-76178425D01*
X153634361Y-76377800D01*
X153335975Y-76577175D01*
X153007761Y-77068382D01*
X152892508Y-77647800D01*
X153007761Y-78227218D01*
X153335975Y-78718425D01*
X153634361Y-78917800D01*
X153335975Y-79117175D01*
X153007761Y-79608382D01*
X152892508Y-80187800D01*
X153007761Y-80767218D01*
X153335975Y-81258425D01*
X153634361Y-81457800D01*
X153335975Y-81657175D01*
X153007761Y-82148382D01*
X152892508Y-82727800D01*
X153007761Y-83307218D01*
X153335975Y-83798425D01*
X153634361Y-83997800D01*
X153335975Y-84197175D01*
X153007761Y-84688382D01*
X152892508Y-85267800D01*
X153007761Y-85847218D01*
X153335975Y-86338425D01*
X153634361Y-86537800D01*
X153335975Y-86737175D01*
X153007761Y-87228382D01*
X152892508Y-87807800D01*
X153007761Y-88387218D01*
X153335975Y-88878425D01*
X153634361Y-89077800D01*
X153335975Y-89277175D01*
X153007761Y-89768382D01*
X152892508Y-90347800D01*
X153007761Y-90927218D01*
X153335975Y-91418425D01*
X153634361Y-91617800D01*
X153335975Y-91817175D01*
X153007761Y-92308382D01*
X152918217Y-92758550D01*
X152445188Y-92285521D01*
X152398602Y-92215800D01*
X152122402Y-92031249D01*
X152007422Y-92008378D01*
X152085113Y-91617800D01*
X151973740Y-91057891D01*
X151656577Y-90583223D01*
X151304242Y-90347800D01*
X151656577Y-90112377D01*
X151973740Y-89637709D01*
X152085113Y-89077800D01*
X151973740Y-88517891D01*
X151656577Y-88043223D01*
X151304242Y-87807800D01*
X151656577Y-87572377D01*
X151973740Y-87097709D01*
X152085113Y-86537800D01*
X151973740Y-85977891D01*
X151656577Y-85503223D01*
X151304242Y-85267800D01*
X151656577Y-85032377D01*
X151973740Y-84557709D01*
X152085113Y-83997800D01*
X151973740Y-83437891D01*
X151656577Y-82963223D01*
X151304242Y-82727800D01*
X151656577Y-82492377D01*
X151973740Y-82017709D01*
X152085113Y-81457800D01*
X151973740Y-80897891D01*
X151656577Y-80423223D01*
X151304242Y-80187800D01*
X151656577Y-79952377D01*
X151973740Y-79477709D01*
X152085113Y-78917800D01*
X151973740Y-78357891D01*
X151656577Y-77883223D01*
X151535894Y-77802585D01*
X151669765Y-77775957D01*
X151879809Y-77635609D01*
X152020157Y-77425565D01*
X152069440Y-77177800D01*
X152069440Y-75577800D01*
X152020157Y-75330035D01*
X151879809Y-75119991D01*
X151669765Y-74979643D01*
X151422000Y-74930360D01*
X149822000Y-74930360D01*
X149574235Y-74979643D01*
X149364191Y-75119991D01*
X149223843Y-75330035D01*
X149174560Y-75577800D01*
X149174560Y-77177800D01*
X149223843Y-77425565D01*
X149364191Y-77635609D01*
X149574235Y-77775957D01*
X149708106Y-77802585D01*
X149587423Y-77883223D01*
X149270260Y-78357891D01*
X149158887Y-78917800D01*
X149270260Y-79477709D01*
X149587423Y-79952377D01*
X149939758Y-80187800D01*
X149587423Y-80423223D01*
X149270260Y-80897891D01*
X149158887Y-81457800D01*
X149270260Y-82017709D01*
X149587423Y-82492377D01*
X149939758Y-82727800D01*
X149587423Y-82963223D01*
X149270260Y-83437891D01*
X149158887Y-83997800D01*
X149270260Y-84557709D01*
X149587423Y-85032377D01*
X149939758Y-85267800D01*
X149587423Y-85503223D01*
X149270260Y-85977891D01*
X149158887Y-86537800D01*
X149270260Y-87097709D01*
X149587423Y-87572377D01*
X149939758Y-87807800D01*
X149587423Y-88043223D01*
X149270260Y-88517891D01*
X149158887Y-89077800D01*
X149270260Y-89637709D01*
X149587423Y-90112377D01*
X149939758Y-90347800D01*
X149587423Y-90583223D01*
X149349046Y-90939980D01*
X147723200Y-89314135D01*
X147723200Y-80447832D01*
X147739557Y-80365599D01*
X147723200Y-80283366D01*
X147723200Y-80283363D01*
X147674752Y-80039799D01*
X147490201Y-79763599D01*
X147420483Y-79717015D01*
X144748988Y-77045521D01*
X144702402Y-76975800D01*
X144426202Y-76791249D01*
X144384522Y-76782958D01*
X144465113Y-76377800D01*
X144353740Y-75817891D01*
X144036577Y-75343223D01*
X143561909Y-75026060D01*
X143143333Y-74942800D01*
X142860667Y-74942800D01*
X142442091Y-75026060D01*
X141967423Y-75343223D01*
X141650260Y-75817891D01*
X141538887Y-76377800D01*
X141593002Y-76649853D01*
X141423668Y-76480520D01*
X141377082Y-76410799D01*
X141100882Y-76226248D01*
X140857318Y-76177800D01*
X140857314Y-76177800D01*
X140792443Y-76164896D01*
X140643625Y-75942175D01*
X140621967Y-75927704D01*
X140782698Y-75861127D01*
X140961327Y-75682499D01*
X141058000Y-75449110D01*
X141058000Y-74758550D01*
X140899250Y-74599800D01*
X139700000Y-74599800D01*
X139700000Y-74619800D01*
X139446000Y-74619800D01*
X139446000Y-74599800D01*
X138246750Y-74599800D01*
X138088000Y-74758550D01*
X138088000Y-75449110D01*
X138184673Y-75682499D01*
X138363302Y-75861127D01*
X138524033Y-75927704D01*
X138502375Y-75942175D01*
X138174161Y-76433382D01*
X138058908Y-77012800D01*
X138174161Y-77592218D01*
X138502375Y-78083425D01*
X138800761Y-78282800D01*
X138502375Y-78482175D01*
X138174161Y-78973382D01*
X138058908Y-79552800D01*
X138174161Y-80132218D01*
X138502375Y-80623425D01*
X138800761Y-80822800D01*
X138502375Y-81022175D01*
X138174161Y-81513382D01*
X138058908Y-82092800D01*
X138174161Y-82672218D01*
X138502375Y-83163425D01*
X138800761Y-83362800D01*
X138502375Y-83562175D01*
X138174161Y-84053382D01*
X138058908Y-84632800D01*
X138174161Y-85212218D01*
X138502375Y-85703425D01*
X138800761Y-85902800D01*
X138502375Y-86102175D01*
X138174161Y-86593382D01*
X138058908Y-87172800D01*
X138174161Y-87752218D01*
X138502375Y-88243425D01*
X138800761Y-88442800D01*
X138502375Y-88642175D01*
X138174161Y-89133382D01*
X138058908Y-89712800D01*
X138174161Y-90292218D01*
X138502375Y-90783425D01*
X138800761Y-90982800D01*
X138502375Y-91182175D01*
X138174161Y-91673382D01*
X138058908Y-92252800D01*
X138174161Y-92832218D01*
X138502375Y-93323425D01*
X138800761Y-93522800D01*
X138502375Y-93722175D01*
X138174161Y-94213382D01*
X138058908Y-94792800D01*
X138174161Y-95372218D01*
X138502375Y-95863425D01*
X138800761Y-96062800D01*
X138502375Y-96262175D01*
X138174161Y-96753382D01*
X138058908Y-97332800D01*
X138174161Y-97912218D01*
X138502375Y-98403425D01*
X138993582Y-98731639D01*
X139426744Y-98817800D01*
X139719256Y-98817800D01*
X140152418Y-98731639D01*
X140643625Y-98403425D01*
X140971839Y-97912218D01*
X141087092Y-97332800D01*
X140971839Y-96753382D01*
X140643625Y-96262175D01*
X140345239Y-96062800D01*
X140643625Y-95863425D01*
X140971839Y-95372218D01*
X141087092Y-94792800D01*
X140971839Y-94213382D01*
X140643625Y-93722175D01*
X140345239Y-93522800D01*
X140643625Y-93323425D01*
X140971839Y-92832218D01*
X141087092Y-92252800D01*
X140971839Y-91673382D01*
X140643625Y-91182175D01*
X140345239Y-90982800D01*
X140643625Y-90783425D01*
X140971839Y-90292218D01*
X141087092Y-89712800D01*
X140971839Y-89133382D01*
X140643625Y-88642175D01*
X140345239Y-88442800D01*
X140643625Y-88243425D01*
X140971839Y-87752218D01*
X141087092Y-87172800D01*
X140971839Y-86593382D01*
X140643625Y-86102175D01*
X140345239Y-85902800D01*
X140643625Y-85703425D01*
X140971839Y-85212218D01*
X141087092Y-84632800D01*
X140971839Y-84053382D01*
X140643625Y-83562175D01*
X140345239Y-83362800D01*
X140643625Y-83163425D01*
X140971839Y-82672218D01*
X141087092Y-82092800D01*
X140971839Y-81513382D01*
X140643625Y-81022175D01*
X140345239Y-80822800D01*
X140643625Y-80623425D01*
X140971839Y-80132218D01*
X141087092Y-79552800D01*
X140971839Y-78973382D01*
X140643625Y-78482175D01*
X140345239Y-78282800D01*
X140643625Y-78083425D01*
X140652122Y-78070709D01*
X140691496Y-78110083D01*
X140738081Y-78179802D01*
X141014281Y-78364353D01*
X141257845Y-78412801D01*
X141257848Y-78412801D01*
X141340081Y-78429158D01*
X141422314Y-78412801D01*
X141639338Y-78412801D01*
X141538887Y-78917800D01*
X141650260Y-79477709D01*
X141967423Y-79952377D01*
X142319758Y-80187800D01*
X141967423Y-80423223D01*
X141650260Y-80897891D01*
X141538887Y-81457800D01*
X141650260Y-82017709D01*
X141967423Y-82492377D01*
X142319758Y-82727800D01*
X141967423Y-82963223D01*
X141650260Y-83437891D01*
X141538887Y-83997800D01*
X141650260Y-84557709D01*
X141967423Y-85032377D01*
X142319758Y-85267800D01*
X141967423Y-85503223D01*
X141650260Y-85977891D01*
X141538887Y-86537800D01*
X141650260Y-87097709D01*
X141967423Y-87572377D01*
X142319758Y-87807800D01*
X141967423Y-88043223D01*
X141650260Y-88517891D01*
X141538887Y-89077800D01*
X141650260Y-89637709D01*
X141967423Y-90112377D01*
X142319758Y-90347800D01*
X141967423Y-90583223D01*
X141650260Y-91057891D01*
X141538887Y-91617800D01*
X141650260Y-92177709D01*
X141967423Y-92652377D01*
X142319758Y-92887800D01*
X141967423Y-93123223D01*
X141650260Y-93597891D01*
X141538887Y-94157800D01*
X141650260Y-94717709D01*
X141967423Y-95192377D01*
X142319758Y-95427800D01*
X141967423Y-95663223D01*
X141650260Y-96137891D01*
X141538887Y-96697800D01*
X141650260Y-97257709D01*
X141967423Y-97732377D01*
X142319758Y-97967800D01*
X141967423Y-98203223D01*
X141650260Y-98677891D01*
X141538887Y-99237800D01*
X141650260Y-99797709D01*
X141967423Y-100272377D01*
X142319758Y-100507800D01*
X141967423Y-100743223D01*
X141650260Y-101217891D01*
X141538887Y-101777800D01*
X141650260Y-102337709D01*
X141967423Y-102812377D01*
X142351108Y-103068747D01*
X142146866Y-103165411D01*
X141770959Y-103580377D01*
X141610096Y-103968761D01*
X141732085Y-104190800D01*
X142875000Y-104190800D01*
X142875000Y-104170800D01*
X143129000Y-104170800D01*
X143129000Y-104190800D01*
X144271915Y-104190800D01*
X144393904Y-103968761D01*
X144233041Y-103580377D01*
X143857134Y-103165411D01*
X143652892Y-103068747D01*
X144036577Y-102812377D01*
X144353740Y-102337709D01*
X144465113Y-101777800D01*
X144353740Y-101217891D01*
X144036577Y-100743223D01*
X143684242Y-100507800D01*
X144036577Y-100272377D01*
X144353740Y-99797709D01*
X144465113Y-99237800D01*
X144353740Y-98677891D01*
X144036577Y-98203223D01*
X143684242Y-97967800D01*
X144036577Y-97732377D01*
X144353740Y-97257709D01*
X144465113Y-96697800D01*
X144353740Y-96137891D01*
X144036577Y-95663223D01*
X143684242Y-95427800D01*
X144036577Y-95192377D01*
X144353740Y-94717709D01*
X144465113Y-94157800D01*
X144353740Y-93597891D01*
X144036577Y-93123223D01*
X143684242Y-92887800D01*
X144036577Y-92652377D01*
X144353740Y-92177709D01*
X144465113Y-91617800D01*
X144353740Y-91057891D01*
X144036577Y-90583223D01*
X143684242Y-90347800D01*
X144036577Y-90112377D01*
X144353740Y-89637709D01*
X144465113Y-89077800D01*
X144353740Y-88517891D01*
X144036577Y-88043223D01*
X143684242Y-87807800D01*
X144036577Y-87572377D01*
X144353740Y-87097709D01*
X144465113Y-86537800D01*
X144353740Y-85977891D01*
X144036577Y-85503223D01*
X143684242Y-85267800D01*
X144036577Y-85032377D01*
X144353740Y-84557709D01*
X144465113Y-83997800D01*
X144353740Y-83437891D01*
X144036577Y-82963223D01*
X143684242Y-82727800D01*
X144036577Y-82492377D01*
X144353740Y-82017709D01*
X144465113Y-81457800D01*
X144353740Y-80897891D01*
X144036577Y-80423223D01*
X143684242Y-80187800D01*
X144036577Y-79952377D01*
X144353740Y-79477709D01*
X144431005Y-79089272D01*
X146053201Y-80711469D01*
X146053200Y-89577769D01*
X146036843Y-89660002D01*
X146053200Y-89742235D01*
X146053200Y-89742238D01*
X146101648Y-89985802D01*
X146286199Y-90262003D01*
X146355920Y-90308589D01*
X149397414Y-93350084D01*
X149416627Y-93378838D01*
X149270260Y-93597891D01*
X149158887Y-94157800D01*
X149270260Y-94717709D01*
X149587423Y-95192377D01*
X149939758Y-95427800D01*
X149587423Y-95663223D01*
X149270260Y-96137891D01*
X149158887Y-96697800D01*
X149270260Y-97257709D01*
X149587423Y-97732377D01*
X149971108Y-97988747D01*
X149766866Y-98085411D01*
X149390959Y-98500377D01*
X149230096Y-98888761D01*
X149352085Y-99110800D01*
X150495000Y-99110800D01*
X150495000Y-99090800D01*
X150749000Y-99090800D01*
X150749000Y-99110800D01*
X151891915Y-99110800D01*
X152013904Y-98888761D01*
X151853041Y-98500377D01*
X151629447Y-98253550D01*
X152921600Y-98253550D01*
X152921600Y-98944110D01*
X153018273Y-99177499D01*
X153196902Y-99356127D01*
X153430291Y-99452800D01*
X154120850Y-99452800D01*
X154279600Y-99294050D01*
X154279600Y-98094800D01*
X154533600Y-98094800D01*
X154533600Y-99294050D01*
X154692350Y-99452800D01*
X155382909Y-99452800D01*
X155616298Y-99356127D01*
X155794927Y-99177499D01*
X155891600Y-98944110D01*
X155891600Y-98253550D01*
X155732850Y-98094800D01*
X154533600Y-98094800D01*
X154279600Y-98094800D01*
X153080350Y-98094800D01*
X152921600Y-98253550D01*
X151629447Y-98253550D01*
X151477134Y-98085411D01*
X151272892Y-97988747D01*
X151656577Y-97732377D01*
X151973740Y-97257709D01*
X152085113Y-96697800D01*
X151973740Y-96137891D01*
X151656577Y-95663223D01*
X151304242Y-95427800D01*
X151656577Y-95192377D01*
X151973740Y-94717709D01*
X152063647Y-94265715D01*
X152947793Y-95149861D01*
X152892508Y-95427800D01*
X153007761Y-96007218D01*
X153335975Y-96498425D01*
X153357633Y-96512896D01*
X153196902Y-96579473D01*
X153018273Y-96758101D01*
X152921600Y-96991490D01*
X152921600Y-97682050D01*
X153080350Y-97840800D01*
X154279600Y-97840800D01*
X154279600Y-97820800D01*
X154533600Y-97820800D01*
X154533600Y-97840800D01*
X155732850Y-97840800D01*
X155891600Y-97682050D01*
X155891600Y-96991490D01*
X155794927Y-96758101D01*
X155616298Y-96579473D01*
X155455567Y-96512896D01*
X155477225Y-96498425D01*
X155634665Y-96262800D01*
X161909333Y-96262800D01*
X166189000Y-100542468D01*
X166189000Y-100725198D01*
X164750531Y-99286730D01*
X164708129Y-99223271D01*
X164456737Y-99055296D01*
X164235052Y-99011200D01*
X164235047Y-99011200D01*
X164160200Y-98996312D01*
X164085353Y-99011200D01*
X156640446Y-99011200D01*
X156565599Y-98996312D01*
X156490752Y-99011200D01*
X156490748Y-99011200D01*
X156269063Y-99055296D01*
X156269061Y-99055297D01*
X156269062Y-99055297D01*
X156081126Y-99180871D01*
X156081124Y-99180873D01*
X156017671Y-99223271D01*
X155975273Y-99286724D01*
X151785632Y-103476367D01*
X151656577Y-103283223D01*
X151304242Y-103047800D01*
X151656577Y-102812377D01*
X151973740Y-102337709D01*
X152085113Y-101777800D01*
X151973740Y-101217891D01*
X151656577Y-100743223D01*
X151272892Y-100486853D01*
X151477134Y-100390189D01*
X151853041Y-99975223D01*
X152013904Y-99586839D01*
X151891915Y-99364800D01*
X150749000Y-99364800D01*
X150749000Y-99384800D01*
X150495000Y-99384800D01*
X150495000Y-99364800D01*
X149352085Y-99364800D01*
X149230096Y-99586839D01*
X149390959Y-99975223D01*
X149766866Y-100390189D01*
X149971108Y-100486853D01*
X149587423Y-100743223D01*
X149270260Y-101217891D01*
X149158887Y-101777800D01*
X149270260Y-102337709D01*
X149587423Y-102812377D01*
X149939758Y-103047800D01*
X149587423Y-103283223D01*
X149270260Y-103757891D01*
X149158887Y-104317800D01*
X149270260Y-104877709D01*
X149587423Y-105352377D01*
X149939758Y-105587800D01*
X149587423Y-105823223D01*
X149270260Y-106297891D01*
X149158887Y-106857800D01*
X149270260Y-107417709D01*
X149587423Y-107892377D01*
X149939758Y-108127800D01*
X149587423Y-108363223D01*
X149270260Y-108837891D01*
X149158887Y-109397800D01*
X149270260Y-109957709D01*
X149587423Y-110432377D01*
X150062091Y-110749540D01*
X150480667Y-110832800D01*
X150763333Y-110832800D01*
X151181909Y-110749540D01*
X151656577Y-110432377D01*
X151973740Y-109957709D01*
X152068313Y-109482255D01*
X153175861Y-109482255D01*
X154004000Y-110310395D01*
X154832139Y-109482255D01*
X154758005Y-109236136D01*
X154220777Y-109043035D01*
X153650546Y-109070222D01*
X153249995Y-109236136D01*
X153175861Y-109482255D01*
X152068313Y-109482255D01*
X152085113Y-109397800D01*
X151973740Y-108837891D01*
X151656577Y-108363223D01*
X151304242Y-108127800D01*
X151656577Y-107892377D01*
X151973740Y-107417709D01*
X152085113Y-106857800D01*
X152020688Y-106533913D01*
X157159802Y-101394800D01*
X157745442Y-101394800D01*
X157528720Y-101484569D01*
X157494675Y-101518614D01*
X157454599Y-101510643D01*
X157372366Y-101527000D01*
X157372363Y-101527000D01*
X157128799Y-101575448D01*
X156852599Y-101759999D01*
X156806015Y-101829718D01*
X155703120Y-102932613D01*
X155633399Y-102979199D01*
X155448848Y-103255400D01*
X155400400Y-103498964D01*
X155400400Y-103498967D01*
X155384043Y-103581200D01*
X155400400Y-103663433D01*
X155400401Y-105995162D01*
X155384043Y-106077400D01*
X155448848Y-106403200D01*
X155515841Y-106503462D01*
X155633400Y-106679401D01*
X155703118Y-106725985D01*
X157205415Y-108228283D01*
X157251999Y-108298001D01*
X157528199Y-108482552D01*
X157771763Y-108531000D01*
X157771766Y-108531000D01*
X157853999Y-108547357D01*
X157936232Y-108531000D01*
X157941810Y-108531000D01*
X157942687Y-108532313D01*
X158326391Y-108788695D01*
X158664754Y-108856000D01*
X159343246Y-108856000D01*
X159681609Y-108788695D01*
X160065313Y-108532313D01*
X160321695Y-108148609D01*
X160411725Y-107696000D01*
X160321695Y-107243391D01*
X160193146Y-107051004D01*
X160339266Y-106793336D01*
X160347964Y-106731810D01*
X160222163Y-106553000D01*
X159428710Y-106553000D01*
X159343246Y-106536000D01*
X158857000Y-106536000D01*
X158857000Y-106328440D01*
X159754000Y-106328440D01*
X159902006Y-106299000D01*
X160222163Y-106299000D01*
X160305257Y-106180893D01*
X160346986Y-106222622D01*
X160461861Y-106107747D01*
X160535995Y-106353864D01*
X161073223Y-106546965D01*
X161643454Y-106519778D01*
X162044005Y-106353864D01*
X162118139Y-106107745D01*
X161290000Y-105279605D01*
X161275858Y-105293748D01*
X161096252Y-105114142D01*
X161110395Y-105100000D01*
X161469605Y-105100000D01*
X162297745Y-105928139D01*
X162543864Y-105854005D01*
X162736965Y-105316777D01*
X162709778Y-104746546D01*
X162543864Y-104345995D01*
X162297745Y-104271861D01*
X161469605Y-105100000D01*
X161110395Y-105100000D01*
X160282255Y-104271861D01*
X160278495Y-104272993D01*
X160211809Y-104173191D01*
X160001765Y-104032843D01*
X159754000Y-103983560D01*
X158254000Y-103983560D01*
X158006235Y-104032843D01*
X157796191Y-104173191D01*
X157655843Y-104383235D01*
X157606560Y-104631000D01*
X157606560Y-105681000D01*
X157655843Y-105928765D01*
X157702662Y-105998835D01*
X157668734Y-106058664D01*
X157660036Y-106120190D01*
X157785836Y-106298998D01*
X157637866Y-106298998D01*
X157070400Y-105731533D01*
X157070400Y-103927067D01*
X157690871Y-103306596D01*
X157909126Y-103397000D01*
X158320874Y-103397000D01*
X158701280Y-103239431D01*
X158992431Y-102948280D01*
X159150000Y-102567874D01*
X159150000Y-102156126D01*
X158992431Y-101775720D01*
X158701280Y-101484569D01*
X158484558Y-101394800D01*
X160465804Y-101394800D01*
X160073466Y-101787138D01*
X159855000Y-102314561D01*
X159855000Y-102885439D01*
X160073466Y-103412862D01*
X160477138Y-103816534D01*
X160542299Y-103843525D01*
X160535995Y-103846136D01*
X160461861Y-104092255D01*
X161290000Y-104920395D01*
X162118139Y-104092255D01*
X162044005Y-103846136D01*
X162037254Y-103843710D01*
X162102862Y-103816534D01*
X162506534Y-103412862D01*
X162725000Y-102885439D01*
X162725000Y-102314561D01*
X162506534Y-101787138D01*
X162114196Y-101394800D01*
X163769199Y-101394800D01*
X164517801Y-102143403D01*
X164517800Y-105792955D01*
X164502912Y-105867802D01*
X164517800Y-105942649D01*
X164517800Y-105942653D01*
X164561896Y-106164338D01*
X164729871Y-106415731D01*
X164793330Y-106458133D01*
X167455471Y-109120276D01*
X167497869Y-109183729D01*
X167535813Y-109209083D01*
X167446843Y-109342235D01*
X167397560Y-109590000D01*
X167397560Y-110442400D01*
X166553461Y-110442400D01*
X166397886Y-110338448D01*
X166154322Y-110290000D01*
X166154318Y-110290000D01*
X166130342Y-110285231D01*
X166092680Y-110247569D01*
X165712274Y-110090000D01*
X165300526Y-110090000D01*
X164920120Y-110247569D01*
X164628969Y-110538720D01*
X164471400Y-110919126D01*
X164471400Y-111090000D01*
X160308704Y-111090000D01*
X160439000Y-110775439D01*
X160439000Y-110204561D01*
X160220534Y-109677138D01*
X159816862Y-109273466D01*
X159289439Y-109055000D01*
X158718561Y-109055000D01*
X158191138Y-109273466D01*
X157787466Y-109677138D01*
X157569000Y-110204561D01*
X157569000Y-110775439D01*
X157699296Y-111090000D01*
X155313219Y-111090000D01*
X155450965Y-110706777D01*
X155423778Y-110136546D01*
X155257864Y-109735995D01*
X155011745Y-109661861D01*
X154183605Y-110490000D01*
X154197748Y-110504142D01*
X154018142Y-110683748D01*
X154004000Y-110669605D01*
X153989858Y-110683748D01*
X153810252Y-110504142D01*
X153824395Y-110490000D01*
X152996255Y-109661861D01*
X152750136Y-109735995D01*
X152557035Y-110273223D01*
X152584222Y-110843454D01*
X152686345Y-111090000D01*
X138065002Y-111090000D01*
X137874836Y-111052174D01*
X137768726Y-110981274D01*
X137697826Y-110875164D01*
X137660000Y-110684998D01*
X137660000Y-109746839D01*
X141610096Y-109746839D01*
X141770959Y-110135223D01*
X142146866Y-110550189D01*
X142652959Y-110789714D01*
X142875000Y-110668429D01*
X142875000Y-109524800D01*
X143129000Y-109524800D01*
X143129000Y-110668429D01*
X143351041Y-110789714D01*
X143857134Y-110550189D01*
X144233041Y-110135223D01*
X144393904Y-109746839D01*
X144271915Y-109524800D01*
X143129000Y-109524800D01*
X142875000Y-109524800D01*
X141732085Y-109524800D01*
X141610096Y-109746839D01*
X137660000Y-109746839D01*
X137660000Y-107206839D01*
X141610096Y-107206839D01*
X141770959Y-107595223D01*
X142146866Y-108010189D01*
X142395367Y-108127800D01*
X142146866Y-108245411D01*
X141770959Y-108660377D01*
X141610096Y-109048761D01*
X141732085Y-109270800D01*
X142875000Y-109270800D01*
X142875000Y-106984800D01*
X143129000Y-106984800D01*
X143129000Y-109270800D01*
X144271915Y-109270800D01*
X144393904Y-109048761D01*
X144233041Y-108660377D01*
X143857134Y-108245411D01*
X143608633Y-108127800D01*
X143857134Y-108010189D01*
X144233041Y-107595223D01*
X144393904Y-107206839D01*
X144271915Y-106984800D01*
X143129000Y-106984800D01*
X142875000Y-106984800D01*
X141732085Y-106984800D01*
X141610096Y-107206839D01*
X137660000Y-107206839D01*
X137660000Y-104666839D01*
X141610096Y-104666839D01*
X141770959Y-105055223D01*
X142146866Y-105470189D01*
X142395367Y-105587800D01*
X142146866Y-105705411D01*
X141770959Y-106120377D01*
X141610096Y-106508761D01*
X141732085Y-106730800D01*
X142875000Y-106730800D01*
X142875000Y-104444800D01*
X143129000Y-104444800D01*
X143129000Y-106730800D01*
X144271915Y-106730800D01*
X144393904Y-106508761D01*
X144233041Y-106120377D01*
X143857134Y-105705411D01*
X143608633Y-105587800D01*
X143857134Y-105470189D01*
X144233041Y-105055223D01*
X144393904Y-104666839D01*
X144271915Y-104444800D01*
X143129000Y-104444800D01*
X142875000Y-104444800D01*
X141732085Y-104444800D01*
X141610096Y-104666839D01*
X137660000Y-104666839D01*
X137660000Y-73565002D01*
X137697826Y-73374836D01*
X137768726Y-73268726D01*
X137874836Y-73197826D01*
X138065002Y-73160000D01*
X138287775Y-73160000D01*
X138184673Y-73263101D01*
G04 #@! TD*
M02*
