G04 #@! TF.GenerationSoftware,KiCad,Pcbnew,(5.0.0)*
G04 #@! TF.CreationDate,2020-03-09T19:14:55+01:00*
G04 #@! TF.ProjectId,KXKM_esp_remote_control_module,4B584B4D5F6573705F72656D6F74655F,rev?*
G04 #@! TF.SameCoordinates,Original*
G04 #@! TF.FileFunction,Legend,Bot*
G04 #@! TF.FilePolarity,Positive*
%FSLAX46Y46*%
G04 Gerber Fmt 4.6, Leading zero omitted, Abs format (unit mm)*
G04 Created by KiCad (PCBNEW (5.0.0)) date 03/09/20 19:14:55*
%MOMM*%
%LPD*%
G01*
G04 APERTURE LIST*
%ADD10C,0.120000*%
%ADD11C,0.150000*%
G04 APERTURE END LIST*
D10*
G04 #@! TO.C,J2*
X169545000Y-116500000D02*
X174745000Y-116500000D01*
X169545000Y-90980000D02*
X174745000Y-90980000D01*
X168105000Y-115930000D02*
X169545000Y-115930000D01*
X169545000Y-116500000D02*
X169545000Y-115930000D01*
X174745000Y-116500000D02*
X174745000Y-115930000D01*
X169545000Y-91550000D02*
X169545000Y-90980000D01*
X174745000Y-91550000D02*
X174745000Y-90980000D01*
X169545000Y-114410000D02*
X169545000Y-113390000D01*
X174745000Y-114410000D02*
X174745000Y-113390000D01*
X169545000Y-111870000D02*
X169545000Y-110850000D01*
X174745000Y-111870000D02*
X174745000Y-110850000D01*
X169545000Y-109330000D02*
X169545000Y-108310000D01*
X174745000Y-109330000D02*
X174745000Y-108310000D01*
X169545000Y-106790000D02*
X169545000Y-105770000D01*
X174745000Y-106790000D02*
X174745000Y-105770000D01*
X169545000Y-104250000D02*
X169545000Y-103230000D01*
X174745000Y-104250000D02*
X174745000Y-103230000D01*
X169545000Y-101710000D02*
X169545000Y-100690000D01*
X174745000Y-101710000D02*
X174745000Y-100690000D01*
X169545000Y-99170000D02*
X169545000Y-98150000D01*
X174745000Y-99170000D02*
X174745000Y-98150000D01*
X169545000Y-96630000D02*
X169545000Y-95610000D01*
X174745000Y-96630000D02*
X174745000Y-95610000D01*
X169545000Y-94090000D02*
X169545000Y-93070000D01*
X174745000Y-94090000D02*
X174745000Y-93070000D01*
G04 #@! TO.C,C1*
X181918000Y-61746000D02*
X181918000Y-57206000D01*
X179778000Y-61746000D02*
X179778000Y-57206000D01*
X181918000Y-61746000D02*
X181903000Y-61746000D01*
X179793000Y-61746000D02*
X179778000Y-61746000D01*
X181918000Y-57206000D02*
X181903000Y-57206000D01*
X179793000Y-57206000D02*
X179778000Y-57206000D01*
G04 #@! TO.C,C2*
X183334000Y-62206000D02*
X183334000Y-66746000D01*
X185474000Y-62206000D02*
X185474000Y-66746000D01*
X183334000Y-62206000D02*
X183349000Y-62206000D01*
X185459000Y-62206000D02*
X185474000Y-62206000D01*
X183334000Y-66746000D02*
X183349000Y-66746000D01*
X185459000Y-66746000D02*
X185474000Y-66746000D01*
G04 #@! TO.C,C3*
X177490000Y-60921000D02*
X177490000Y-60906000D01*
X177490000Y-63046000D02*
X177490000Y-63031000D01*
X172950000Y-60921000D02*
X172950000Y-60906000D01*
X172950000Y-63046000D02*
X172950000Y-63031000D01*
X172950000Y-60906000D02*
X177490000Y-60906000D01*
X172950000Y-63046000D02*
X177490000Y-63046000D01*
G04 #@! TO.C,C5*
X158774000Y-109420000D02*
X154234000Y-109420000D01*
X158774000Y-111560000D02*
X154234000Y-111560000D01*
X158774000Y-109420000D02*
X158774000Y-109435000D01*
X158774000Y-111545000D02*
X158774000Y-111560000D01*
X154234000Y-109420000D02*
X154234000Y-109435000D01*
X154234000Y-111545000D02*
X154234000Y-111560000D01*
G04 #@! TO.C,C4*
X160370000Y-103221000D02*
X160370000Y-104479000D01*
X162210000Y-103221000D02*
X162210000Y-104479000D01*
G04 #@! TO.C,U3*
X145812000Y-75047800D02*
G75*
G03X147812000Y-75047800I1000000J0D01*
G01*
X147812000Y-75047800D02*
X149462000Y-75047800D01*
X149462000Y-75047800D02*
X149462000Y-110727800D01*
X149462000Y-110727800D02*
X144162000Y-110727800D01*
X144162000Y-110727800D02*
X144162000Y-75047800D01*
X144162000Y-75047800D02*
X145812000Y-75047800D01*
G04 #@! TO.C,U4*
X160854000Y-104626000D02*
X160854000Y-108226000D01*
X160842478Y-104587522D02*
G75*
G03X156404000Y-106426000I-1838478J-1838478D01*
G01*
X160842478Y-108264478D02*
G75*
G02X156404000Y-106426000I-1838478J1838478D01*
G01*
G04 #@! TO.C,R1*
X175164000Y-68976000D02*
X175164000Y-65136000D01*
X173324000Y-68976000D02*
X173324000Y-65136000D01*
G04 #@! TO.C,SW2*
X165224800Y-76585800D02*
X165224800Y-76815800D01*
X165744800Y-72915800D02*
X158024800Y-72915800D01*
X158024800Y-72915800D02*
X158024800Y-76815800D01*
X165744800Y-79925800D02*
X165224800Y-79925800D01*
X165744800Y-72915800D02*
X165744800Y-76815800D01*
X158544800Y-76585800D02*
X158544800Y-76815800D01*
X165224800Y-79415800D02*
X165224800Y-79925800D01*
X165744800Y-79415800D02*
X165744800Y-79925800D01*
X159084800Y-76585800D02*
X158544800Y-76585800D01*
X158544800Y-79415800D02*
X158544800Y-79925800D01*
X158544800Y-79925800D02*
X158024800Y-79925800D01*
X158024800Y-79415800D02*
X158024800Y-79925800D01*
X165224800Y-76585800D02*
X164684800Y-76585800D01*
X163584800Y-76585800D02*
X160184800Y-76585800D01*
G04 #@! TO.C,J2*
D11*
X172478333Y-114387380D02*
X172478333Y-115101666D01*
X172525952Y-115244523D01*
X172621190Y-115339761D01*
X172764047Y-115387380D01*
X172859285Y-115387380D01*
X172049761Y-114482619D02*
X172002142Y-114435000D01*
X171906904Y-114387380D01*
X171668809Y-114387380D01*
X171573571Y-114435000D01*
X171525952Y-114482619D01*
X171478333Y-114577857D01*
X171478333Y-114673095D01*
X171525952Y-114815952D01*
X172097380Y-115387380D01*
X171478333Y-115387380D01*
G04 #@! TO.C,C1*
X183405142Y-59309333D02*
X183452761Y-59261714D01*
X183500380Y-59118857D01*
X183500380Y-59023619D01*
X183452761Y-58880761D01*
X183357523Y-58785523D01*
X183262285Y-58737904D01*
X183071809Y-58690285D01*
X182928952Y-58690285D01*
X182738476Y-58737904D01*
X182643238Y-58785523D01*
X182548000Y-58880761D01*
X182500380Y-59023619D01*
X182500380Y-59118857D01*
X182548000Y-59261714D01*
X182595619Y-59309333D01*
X183500380Y-60261714D02*
X183500380Y-59690285D01*
X183500380Y-59976000D02*
X182500380Y-59976000D01*
X182643238Y-59880761D01*
X182738476Y-59785523D01*
X182786095Y-59690285D01*
G04 #@! TO.C,C2*
X182561142Y-64309333D02*
X182608761Y-64261714D01*
X182656380Y-64118857D01*
X182656380Y-64023619D01*
X182608761Y-63880761D01*
X182513523Y-63785523D01*
X182418285Y-63737904D01*
X182227809Y-63690285D01*
X182084952Y-63690285D01*
X181894476Y-63737904D01*
X181799238Y-63785523D01*
X181704000Y-63880761D01*
X181656380Y-64023619D01*
X181656380Y-64118857D01*
X181704000Y-64261714D01*
X181751619Y-64309333D01*
X181751619Y-64690285D02*
X181704000Y-64737904D01*
X181656380Y-64833142D01*
X181656380Y-65071238D01*
X181704000Y-65166476D01*
X181751619Y-65214095D01*
X181846857Y-65261714D01*
X181942095Y-65261714D01*
X182084952Y-65214095D01*
X182656380Y-64642666D01*
X182656380Y-65261714D01*
G04 #@! TO.C,C3*
X175386666Y-64533142D02*
X175434285Y-64580761D01*
X175577142Y-64628380D01*
X175672380Y-64628380D01*
X175815238Y-64580761D01*
X175910476Y-64485523D01*
X175958095Y-64390285D01*
X176005714Y-64199809D01*
X176005714Y-64056952D01*
X175958095Y-63866476D01*
X175910476Y-63771238D01*
X175815238Y-63676000D01*
X175672380Y-63628380D01*
X175577142Y-63628380D01*
X175434285Y-63676000D01*
X175386666Y-63723619D01*
X175053333Y-63628380D02*
X174434285Y-63628380D01*
X174767619Y-64009333D01*
X174624761Y-64009333D01*
X174529523Y-64056952D01*
X174481904Y-64104571D01*
X174434285Y-64199809D01*
X174434285Y-64437904D01*
X174481904Y-64533142D01*
X174529523Y-64580761D01*
X174624761Y-64628380D01*
X174910476Y-64628380D01*
X175005714Y-64580761D01*
X175053333Y-64533142D01*
G04 #@! TO.C,C5*
X156670666Y-111101142D02*
X156718285Y-111148761D01*
X156861142Y-111196380D01*
X156956380Y-111196380D01*
X157099238Y-111148761D01*
X157194476Y-111053523D01*
X157242095Y-110958285D01*
X157289714Y-110767809D01*
X157289714Y-110624952D01*
X157242095Y-110434476D01*
X157194476Y-110339238D01*
X157099238Y-110244000D01*
X156956380Y-110196380D01*
X156861142Y-110196380D01*
X156718285Y-110244000D01*
X156670666Y-110291619D01*
X155765904Y-110196380D02*
X156242095Y-110196380D01*
X156289714Y-110672571D01*
X156242095Y-110624952D01*
X156146857Y-110577333D01*
X155908761Y-110577333D01*
X155813523Y-110624952D01*
X155765904Y-110672571D01*
X155718285Y-110767809D01*
X155718285Y-111005904D01*
X155765904Y-111101142D01*
X155813523Y-111148761D01*
X155908761Y-111196380D01*
X156146857Y-111196380D01*
X156242095Y-111148761D01*
X156289714Y-111101142D01*
X156122476Y-108164380D02*
X156027238Y-108164380D01*
X155932000Y-108212000D01*
X155884380Y-108259619D01*
X155836761Y-108354857D01*
X155789142Y-108545333D01*
X155789142Y-108783428D01*
X155836761Y-108973904D01*
X155884380Y-109069142D01*
X155932000Y-109116761D01*
X156027238Y-109164380D01*
X156122476Y-109164380D01*
X156217714Y-109116761D01*
X156265333Y-109069142D01*
X156312952Y-108973904D01*
X156360571Y-108783428D01*
X156360571Y-108545333D01*
X156312952Y-108354857D01*
X156265333Y-108259619D01*
X156217714Y-108212000D01*
X156122476Y-108164380D01*
X155360571Y-109069142D02*
X155312952Y-109116761D01*
X155360571Y-109164380D01*
X155408190Y-109116761D01*
X155360571Y-109069142D01*
X155360571Y-109164380D01*
X154979619Y-108164380D02*
X154360571Y-108164380D01*
X154693904Y-108545333D01*
X154551047Y-108545333D01*
X154455809Y-108592952D01*
X154408190Y-108640571D01*
X154360571Y-108735809D01*
X154360571Y-108973904D01*
X154408190Y-109069142D01*
X154455809Y-109116761D01*
X154551047Y-109164380D01*
X154836761Y-109164380D01*
X154932000Y-109116761D01*
X154979619Y-109069142D01*
X154027238Y-108164380D02*
X153408190Y-108164380D01*
X153741523Y-108545333D01*
X153598666Y-108545333D01*
X153503428Y-108592952D01*
X153455809Y-108640571D01*
X153408190Y-108735809D01*
X153408190Y-108973904D01*
X153455809Y-109069142D01*
X153503428Y-109116761D01*
X153598666Y-109164380D01*
X153884380Y-109164380D01*
X153979619Y-109116761D01*
X154027238Y-109069142D01*
X152551047Y-108497714D02*
X152551047Y-109164380D01*
X152979619Y-108497714D02*
X152979619Y-109021523D01*
X152932000Y-109116761D01*
X152836761Y-109164380D01*
X152693904Y-109164380D01*
X152598666Y-109116761D01*
X152551047Y-109069142D01*
G04 #@! TO.C,C4*
X163679142Y-103449333D02*
X163726761Y-103401714D01*
X163774380Y-103258857D01*
X163774380Y-103163619D01*
X163726761Y-103020761D01*
X163631523Y-102925523D01*
X163536285Y-102877904D01*
X163345809Y-102830285D01*
X163202952Y-102830285D01*
X163012476Y-102877904D01*
X162917238Y-102925523D01*
X162822000Y-103020761D01*
X162774380Y-103163619D01*
X162774380Y-103258857D01*
X162822000Y-103401714D01*
X162869619Y-103449333D01*
X163107714Y-104306476D02*
X163774380Y-104306476D01*
X162726761Y-104068380D02*
X163441047Y-103830285D01*
X163441047Y-104449333D01*
X164298380Y-102635714D02*
X164298380Y-102730952D01*
X164346000Y-102826190D01*
X164393619Y-102873809D01*
X164488857Y-102921428D01*
X164679333Y-102969047D01*
X164917428Y-102969047D01*
X165107904Y-102921428D01*
X165203142Y-102873809D01*
X165250761Y-102826190D01*
X165298380Y-102730952D01*
X165298380Y-102635714D01*
X165250761Y-102540476D01*
X165203142Y-102492857D01*
X165107904Y-102445238D01*
X164917428Y-102397619D01*
X164679333Y-102397619D01*
X164488857Y-102445238D01*
X164393619Y-102492857D01*
X164346000Y-102540476D01*
X164298380Y-102635714D01*
X165203142Y-103397619D02*
X165250761Y-103445238D01*
X165298380Y-103397619D01*
X165250761Y-103350000D01*
X165203142Y-103397619D01*
X165298380Y-103397619D01*
X165298380Y-104397619D02*
X165298380Y-103826190D01*
X165298380Y-104111904D02*
X164298380Y-104111904D01*
X164441238Y-104016666D01*
X164536476Y-103921428D01*
X164584095Y-103826190D01*
X164631714Y-105254761D02*
X165298380Y-105254761D01*
X164631714Y-104826190D02*
X165155523Y-104826190D01*
X165250761Y-104873809D01*
X165298380Y-104969047D01*
X165298380Y-105111904D01*
X165250761Y-105207142D01*
X165203142Y-105254761D01*
G04 #@! TO.C,U3*
X147573904Y-73500180D02*
X147573904Y-74309704D01*
X147526285Y-74404942D01*
X147478666Y-74452561D01*
X147383428Y-74500180D01*
X147192952Y-74500180D01*
X147097714Y-74452561D01*
X147050095Y-74404942D01*
X147002476Y-74309704D01*
X147002476Y-73500180D01*
X146621523Y-73500180D02*
X146002476Y-73500180D01*
X146335809Y-73881133D01*
X146192952Y-73881133D01*
X146097714Y-73928752D01*
X146050095Y-73976371D01*
X146002476Y-74071609D01*
X146002476Y-74309704D01*
X146050095Y-74404942D01*
X146097714Y-74452561D01*
X146192952Y-74500180D01*
X146478666Y-74500180D01*
X146573904Y-74452561D01*
X146621523Y-74404942D01*
G04 #@! TO.C,U4*
X154896380Y-105664095D02*
X155705904Y-105664095D01*
X155801142Y-105711714D01*
X155848761Y-105759333D01*
X155896380Y-105854571D01*
X155896380Y-106045047D01*
X155848761Y-106140285D01*
X155801142Y-106187904D01*
X155705904Y-106235523D01*
X154896380Y-106235523D01*
X155229714Y-107140285D02*
X155896380Y-107140285D01*
X154848761Y-106902190D02*
X155563047Y-106664095D01*
X155563047Y-107283142D01*
G04 #@! TO.C,R1*
X176616380Y-66889333D02*
X176140190Y-66556000D01*
X176616380Y-66317904D02*
X175616380Y-66317904D01*
X175616380Y-66698857D01*
X175664000Y-66794095D01*
X175711619Y-66841714D01*
X175806857Y-66889333D01*
X175949714Y-66889333D01*
X176044952Y-66841714D01*
X176092571Y-66794095D01*
X176140190Y-66698857D01*
X176140190Y-66317904D01*
X176616380Y-67841714D02*
X176616380Y-67270285D01*
X176616380Y-67556000D02*
X175616380Y-67556000D01*
X175759238Y-67460761D01*
X175854476Y-67365523D01*
X175902095Y-67270285D01*
X173791619Y-65889333D02*
X173744000Y-65936952D01*
X173696380Y-66032190D01*
X173696380Y-66270285D01*
X173744000Y-66365523D01*
X173791619Y-66413142D01*
X173886857Y-66460761D01*
X173982095Y-66460761D01*
X174124952Y-66413142D01*
X174696380Y-65841714D01*
X174696380Y-66460761D01*
X173791619Y-66841714D02*
X173744000Y-66889333D01*
X173696380Y-66984571D01*
X173696380Y-67222666D01*
X173744000Y-67317904D01*
X173791619Y-67365523D01*
X173886857Y-67413142D01*
X173982095Y-67413142D01*
X174124952Y-67365523D01*
X174696380Y-66794095D01*
X174696380Y-67413142D01*
X174696380Y-67841714D02*
X173696380Y-67841714D01*
X174315428Y-67936952D02*
X174696380Y-68222666D01*
X174029714Y-68222666D02*
X174410666Y-67841714D01*
G04 #@! TO.C,SW2*
X163218133Y-77700561D02*
X163075276Y-77748180D01*
X162837180Y-77748180D01*
X162741942Y-77700561D01*
X162694323Y-77652942D01*
X162646704Y-77557704D01*
X162646704Y-77462466D01*
X162694323Y-77367228D01*
X162741942Y-77319609D01*
X162837180Y-77271990D01*
X163027657Y-77224371D01*
X163122895Y-77176752D01*
X163170514Y-77129133D01*
X163218133Y-77033895D01*
X163218133Y-76938657D01*
X163170514Y-76843419D01*
X163122895Y-76795800D01*
X163027657Y-76748180D01*
X162789561Y-76748180D01*
X162646704Y-76795800D01*
X162313371Y-76748180D02*
X162075276Y-77748180D01*
X161884800Y-77033895D01*
X161694323Y-77748180D01*
X161456228Y-76748180D01*
X161122895Y-76843419D02*
X161075276Y-76795800D01*
X160980038Y-76748180D01*
X160741942Y-76748180D01*
X160646704Y-76795800D01*
X160599085Y-76843419D01*
X160551466Y-76938657D01*
X160551466Y-77033895D01*
X160599085Y-77176752D01*
X161170514Y-77748180D01*
X160551466Y-77748180D01*
G04 #@! TD*
M02*
