%TF.GenerationSoftware,KiCad,Pcbnew,8.0.3*%
%TF.CreationDate,2024-09-27T14:44:26+02:00*%
%TF.ProjectId,KXKM_ESP32_battery_management_board,4b584b4d-5f45-4535-9033-325f62617474,3.2*%
%TF.SameCoordinates,PX623a7c0PY839b680*%
%TF.FileFunction,Soldermask,Top*%
%TF.FilePolarity,Negative*%
%FSLAX46Y46*%
G04 Gerber Fmt 4.6, Leading zero omitted, Abs format (unit mm)*
G04 Created by KiCad (PCBNEW 8.0.3) date 2024-09-27 14:44:26*
%MOMM*%
%LPD*%
G01*
G04 APERTURE LIST*
G04 Aperture macros list*
%AMRoundRect*
0 Rectangle with rounded corners*
0 $1 Rounding radius*
0 $2 $3 $4 $5 $6 $7 $8 $9 X,Y pos of 4 corners*
0 Add a 4 corners polygon primitive as box body*
4,1,4,$2,$3,$4,$5,$6,$7,$8,$9,$2,$3,0*
0 Add four circle primitives for the rounded corners*
1,1,$1+$1,$2,$3*
1,1,$1+$1,$4,$5*
1,1,$1+$1,$6,$7*
1,1,$1+$1,$8,$9*
0 Add four rect primitives between the rounded corners*
20,1,$1+$1,$2,$3,$4,$5,0*
20,1,$1+$1,$4,$5,$6,$7,0*
20,1,$1+$1,$6,$7,$8,$9,0*
20,1,$1+$1,$8,$9,$2,$3,0*%
G04 Aperture macros list end*
%ADD10C,1.300000*%
%ADD11R,3.200000X0.800000*%
%ADD12C,2.000000*%
%ADD13C,1.500000*%
%ADD14C,4.500880*%
%ADD15RoundRect,0.218750X-0.218750X-0.256250X0.218750X-0.256250X0.218750X0.256250X-0.218750X0.256250X0*%
%ADD16RoundRect,0.218750X-0.256250X0.218750X-0.256250X-0.218750X0.256250X-0.218750X0.256250X0.218750X0*%
%ADD17C,1.800000*%
%ADD18C,3.300000*%
%ADD19RoundRect,0.218750X0.218750X0.256250X-0.218750X0.256250X-0.218750X-0.256250X0.218750X-0.256250X0*%
%ADD20RoundRect,0.218750X0.256250X-0.218750X0.256250X0.218750X-0.256250X0.218750X-0.256250X-0.218750X0*%
%ADD21R,1.450000X0.450000*%
%ADD22C,3.200000*%
%ADD23R,1.700000X1.700000*%
%ADD24O,1.700000X1.700000*%
%ADD25R,2.500000X3.500000*%
%ADD26R,1.000000X0.800000*%
%ADD27C,0.900000*%
%ADD28R,0.700000X1.500000*%
%ADD29RoundRect,0.249998X-1.450002X0.312502X-1.450002X-0.312502X1.450002X-0.312502X1.450002X0.312502X0*%
%ADD30R,2.500000X1.800000*%
%ADD31R,0.600000X0.700000*%
%ADD32R,1.060000X0.650000*%
%ADD33RoundRect,0.243750X0.456250X-0.243750X0.456250X0.243750X-0.456250X0.243750X-0.456250X-0.243750X0*%
%ADD34R,1.800000X2.500000*%
%ADD35RoundRect,0.250000X0.375000X0.625000X-0.375000X0.625000X-0.375000X-0.625000X0.375000X-0.625000X0*%
%ADD36R,0.450000X0.600000*%
%ADD37R,1.550000X0.600000*%
%ADD38C,1.000000*%
%ADD39R,0.800000X0.900000*%
%ADD40R,2.000000X2.000000*%
%ADD41C,0.990600*%
%ADD42C,0.787400*%
%ADD43RoundRect,0.250000X-0.725000X0.600000X-0.725000X-0.600000X0.725000X-0.600000X0.725000X0.600000X0*%
%ADD44O,1.950000X1.700000*%
%ADD45R,0.900000X2.000000*%
%ADD46R,2.000000X0.900000*%
%ADD47R,5.000000X5.000000*%
%ADD48R,4.200000X1.500000*%
%ADD49R,0.700000X0.450000*%
%ADD50RoundRect,0.250000X0.250000X0.475000X-0.250000X0.475000X-0.250000X-0.475000X0.250000X-0.475000X0*%
%ADD51R,0.600000X0.450000*%
%ADD52RoundRect,0.200000X0.200000X0.275000X-0.200000X0.275000X-0.200000X-0.275000X0.200000X-0.275000X0*%
%ADD53RoundRect,0.200000X-0.200000X-0.275000X0.200000X-0.275000X0.200000X0.275000X-0.200000X0.275000X0*%
%ADD54R,1.600000X1.600000*%
%ADD55O,1.600000X1.600000*%
%ADD56R,3.716000X3.716000*%
%ADD57C,3.716000*%
%ADD58O,1.200000X2.400000*%
%ADD59C,1.600000*%
%ADD60RoundRect,0.250000X-0.475000X0.250000X-0.475000X-0.250000X0.475000X-0.250000X0.475000X0.250000X0*%
%ADD61R,0.800000X1.520000*%
G04 APERTURE END LIST*
D10*
%TO.C,J3*%
X42250000Y36410000D03*
X42250000Y16090000D03*
D11*
X44650000Y14820000D03*
X39850000Y14820000D03*
X44650000Y17360000D03*
X39850000Y17360000D03*
X44650000Y19900000D03*
X39850000Y19900000D03*
X44650000Y22440000D03*
X39850000Y22440000D03*
X44650000Y24980000D03*
X39850000Y24980000D03*
X44650000Y27520000D03*
X39850000Y27520000D03*
X44650000Y30060000D03*
X39850000Y30060000D03*
X44650000Y32600000D03*
X39850000Y32600000D03*
X44650000Y35140000D03*
X39850000Y35140000D03*
X44650000Y37680000D03*
X39850000Y37680000D03*
%TD*%
D12*
%TO.C,SW3*%
X48000000Y52312500D03*
X55000000Y52312500D03*
D13*
X53750000Y54812500D03*
X49250000Y54812500D03*
%TD*%
D14*
%TO.C,J16*%
X3000000Y2750000D03*
%TD*%
%TO.C,J15*%
X10500000Y2750000D03*
%TD*%
D15*
%TO.C,C26*%
X40562500Y56400000D03*
X42137500Y56400000D03*
%TD*%
%TO.C,R10*%
X44337500Y52875000D03*
X45912500Y52875000D03*
%TD*%
D16*
%TO.C,R9*%
X44325000Y56012500D03*
X44325000Y54437500D03*
%TD*%
D17*
%TO.C,J9*%
X22500000Y10710000D03*
X25000000Y10710000D03*
X27000000Y10710000D03*
X29500000Y10710000D03*
D18*
X19000000Y8000000D03*
X33000000Y8000000D03*
%TD*%
D16*
%TO.C,C8*%
X45925000Y55987500D03*
X45925000Y54412500D03*
%TD*%
D19*
%TO.C,R24*%
X25677500Y38300000D03*
X24102500Y38300000D03*
%TD*%
D15*
%TO.C,R25*%
X27322500Y38290000D03*
X28897500Y38290000D03*
%TD*%
D13*
%TO.C,J11*%
X9300000Y40000000D03*
%TD*%
D20*
%TO.C,R12*%
X32458200Y18746900D03*
X32458200Y20321900D03*
%TD*%
%TO.C,R7*%
X32780000Y25002500D03*
X32780000Y26577500D03*
%TD*%
D21*
%TO.C,U7*%
X24550000Y45775000D03*
X24550000Y45125000D03*
X24550000Y44475000D03*
X24550000Y43825000D03*
X24550000Y43175000D03*
X24550000Y42525000D03*
X24550000Y41875000D03*
X24550000Y41225000D03*
X24550000Y40575000D03*
X24550000Y39925000D03*
X30450000Y39925000D03*
X30450000Y40575000D03*
X30450000Y41225000D03*
X30450000Y41875000D03*
X30450000Y42525000D03*
X30450000Y43175000D03*
X30450000Y43825000D03*
X30450000Y44475000D03*
X30450000Y45125000D03*
X30450000Y45775000D03*
%TD*%
D22*
%TO.C,MK2*%
X42250000Y42750000D03*
%TD*%
%TO.C,MK1*%
X14250000Y42750000D03*
%TD*%
D19*
%TO.C,D7*%
X11787500Y56250000D03*
X10212500Y56250000D03*
%TD*%
%TO.C,D6*%
X8887500Y56250000D03*
X7312500Y56250000D03*
%TD*%
%TO.C,D5*%
X5987500Y56250000D03*
X4412500Y56250000D03*
%TD*%
%TO.C,D9*%
X17587500Y56250000D03*
X16012500Y56250000D03*
%TD*%
%TO.C,D8*%
X14687500Y56250000D03*
X13112500Y56250000D03*
%TD*%
%TO.C,D10*%
X20487500Y56250000D03*
X18912500Y56250000D03*
%TD*%
D23*
%TO.C,J1*%
X1750000Y55750000D03*
D24*
X1750000Y53210000D03*
X1750000Y50670000D03*
X1750000Y48130000D03*
X1750000Y45590000D03*
X1750000Y43050000D03*
%TD*%
D19*
%TO.C,C24*%
X22298300Y43004000D03*
X20723300Y43004000D03*
%TD*%
D20*
%TO.C,C23*%
X32500000Y43312500D03*
X32500000Y44887500D03*
%TD*%
D19*
%TO.C,C22*%
X21862500Y41310000D03*
X20287500Y41310000D03*
%TD*%
D15*
%TO.C,C3*%
X31062500Y30600000D03*
X32637500Y30600000D03*
%TD*%
D25*
%TO.C,C6*%
X51533600Y23752000D03*
X51533600Y30252000D03*
%TD*%
D26*
%TO.C,SW4*%
X18900000Y49970000D03*
X18900000Y52180000D03*
D27*
X16250000Y51080000D03*
X11250000Y51080000D03*
D26*
X8600000Y49970000D03*
X8600000Y52180000D03*
D28*
X16750000Y49320000D03*
X15250000Y49320000D03*
X12250000Y49320000D03*
X10750000Y49320000D03*
%TD*%
D29*
%TO.C,F1*%
X54226000Y17760300D03*
X54226000Y13485300D03*
%TD*%
D15*
%TO.C,R11*%
X30812500Y38400000D03*
X32387500Y38400000D03*
%TD*%
%TO.C,C1*%
X1452500Y24370000D03*
X3027500Y24370000D03*
%TD*%
%TO.C,R16*%
X34236100Y41886400D03*
X35811100Y41886400D03*
%TD*%
D19*
%TO.C,R15*%
X35811100Y40362400D03*
X34236100Y40362400D03*
%TD*%
D30*
%TO.C,D3*%
X41000000Y48175000D03*
X45000000Y48175000D03*
%TD*%
D31*
%TO.C,D12*%
X43525000Y50975000D03*
X44925000Y50975000D03*
%TD*%
D32*
%TO.C,U3*%
X42650000Y52750000D03*
X42650000Y53700000D03*
X42650000Y54650000D03*
X40450000Y54650000D03*
X40450000Y53700000D03*
X40450000Y52750000D03*
%TD*%
D33*
%TO.C,C9*%
X37350000Y54562500D03*
X37350000Y56437500D03*
%TD*%
D16*
%TO.C,C21*%
X32500000Y41637500D03*
X32500000Y40062500D03*
%TD*%
D34*
%TO.C,D11*%
X50365200Y18181600D03*
X50365200Y14181600D03*
%TD*%
D35*
%TO.C,C4*%
X37250000Y44125000D03*
X34450000Y44125000D03*
%TD*%
%TO.C,C5*%
X37250000Y46625000D03*
X34450000Y46625000D03*
%TD*%
D36*
%TO.C,D13*%
X30500000Y18950000D03*
X30500000Y21050000D03*
%TD*%
D37*
%TO.C,U2*%
X36600000Y32295000D03*
X36600000Y33565000D03*
X36600000Y34835000D03*
X36600000Y36105000D03*
X31200000Y36105000D03*
X31200000Y34835000D03*
X31200000Y33565000D03*
X31200000Y32295000D03*
%TD*%
D23*
%TO.C,J6*%
X35650000Y29550000D03*
D24*
X35650000Y27010000D03*
X35650000Y24470000D03*
%TD*%
D33*
%TO.C,C10*%
X35300000Y54537500D03*
X35300000Y56412500D03*
%TD*%
D15*
%TO.C,R21*%
X34712500Y21750000D03*
X36287500Y21750000D03*
%TD*%
D19*
%TO.C,C7*%
X42037500Y51000000D03*
X40462500Y51000000D03*
%TD*%
D38*
%TO.C,FID2*%
X55750000Y750000D03*
%TD*%
%TO.C,FID3*%
X500000Y57000000D03*
%TD*%
%TO.C,FID1*%
X750000Y750000D03*
%TD*%
D15*
%TO.C,R17*%
X4924500Y27256000D03*
X6499500Y27256000D03*
%TD*%
%TO.C,R31*%
X25212500Y13000000D03*
X26787500Y13000000D03*
%TD*%
D39*
%TO.C,Q4*%
X7020000Y25716000D03*
X5120000Y25716000D03*
X6070000Y23716000D03*
%TD*%
D15*
%TO.C,R18*%
X1572500Y22280000D03*
X3147500Y22280000D03*
%TD*%
D39*
%TO.C,Q5*%
X3310000Y20650000D03*
X1410000Y20650000D03*
X2360000Y18650000D03*
%TD*%
D16*
%TO.C,R20*%
X5679600Y22201500D03*
X5679600Y20626500D03*
%TD*%
D40*
%TO.C,U5*%
X35500000Y4440000D03*
X35500000Y12560000D03*
X17000000Y4440000D03*
X17000000Y12560000D03*
%TD*%
D39*
%TO.C,Q6*%
X36380000Y20271000D03*
X34480000Y20271000D03*
X35430000Y18271000D03*
%TD*%
D16*
%TO.C,R19*%
X7236000Y22201500D03*
X7236000Y20626500D03*
%TD*%
D20*
%TO.C,R22*%
X32458200Y21871100D03*
X32458200Y23446100D03*
%TD*%
D19*
%TO.C,R2*%
X6287500Y40500000D03*
X4712500Y40500000D03*
%TD*%
D15*
%TO.C,R27*%
X20832500Y38140000D03*
X22407500Y38140000D03*
%TD*%
D41*
%TO.C,P1*%
X5640000Y52840000D03*
X6656000Y47760000D03*
X4624000Y47760000D03*
D42*
X5005000Y51570000D03*
X6275000Y51570000D03*
X5005000Y50300000D03*
X6275000Y50300000D03*
X5005000Y49030000D03*
X6275000Y49030000D03*
%TD*%
D43*
%TO.C,J8*%
X7536000Y14770000D03*
D44*
X7536000Y12270000D03*
X7536000Y9770000D03*
%TD*%
D43*
%TO.C,J7*%
X2664000Y14770000D03*
D44*
X2664000Y12270000D03*
X2664000Y9770000D03*
%TD*%
D19*
%TO.C,C2*%
X12113000Y16842000D03*
X10538000Y16842000D03*
%TD*%
D16*
%TO.C,R3*%
X19950000Y16787500D03*
X19950000Y15212500D03*
%TD*%
%TO.C,R4*%
X21600000Y16787500D03*
X21600000Y15212500D03*
%TD*%
D45*
%TO.C,U1*%
X10595000Y19000000D03*
X11865000Y19000000D03*
X13135000Y19000000D03*
X14405000Y19000000D03*
X15675000Y19000000D03*
X16945000Y19000000D03*
X18215000Y19000000D03*
X19485000Y19000000D03*
X20755000Y19000000D03*
X22025000Y19000000D03*
X23295000Y19000000D03*
X24565000Y19000000D03*
X25835000Y19000000D03*
X27105000Y19000000D03*
D46*
X28105000Y21785000D03*
X28105000Y23055000D03*
X28105000Y24325000D03*
X28105000Y25595000D03*
X28105000Y26865000D03*
X28105000Y28135000D03*
X28105000Y29405000D03*
X28105000Y30675000D03*
X28105000Y31945000D03*
X28105000Y33215000D03*
D45*
X27105000Y36000000D03*
X25835000Y36000000D03*
X24565000Y36000000D03*
X23295000Y36000000D03*
X22025000Y36000000D03*
X20755000Y36000000D03*
X19485000Y36000000D03*
X18215000Y36000000D03*
X16945000Y36000000D03*
X15675000Y36000000D03*
X14405000Y36000000D03*
X13135000Y36000000D03*
X11865000Y36000000D03*
X10595000Y36000000D03*
D47*
X18095000Y26500000D03*
%TD*%
D48*
%TO.C,L1*%
X36400000Y48825000D03*
X36400000Y52425000D03*
%TD*%
D13*
%TO.C,J2*%
X18412000Y45544000D03*
%TD*%
D49*
%TO.C,Q1*%
X3320000Y28710000D03*
X3320000Y30010000D03*
X1320000Y29360000D03*
%TD*%
%TO.C,Q2*%
X3320000Y25960000D03*
X3320000Y27260000D03*
X1320000Y26610000D03*
%TD*%
D15*
%TO.C,R6*%
X1532500Y31540000D03*
X3107500Y31540000D03*
%TD*%
D16*
%TO.C,R5*%
X4950000Y30583500D03*
X4950000Y29008500D03*
%TD*%
D50*
%TO.C,C11*%
X53271000Y42445200D03*
X51371000Y42445200D03*
%TD*%
D51*
%TO.C,D14*%
X36513600Y1170200D03*
X38613600Y1170200D03*
%TD*%
D23*
%TO.C,J5*%
X55013400Y48012800D03*
D24*
X55013400Y45472800D03*
%TD*%
D15*
%TO.C,R26*%
X20237500Y39775000D03*
X21812500Y39775000D03*
%TD*%
D52*
%TO.C,R33*%
X22065000Y47746000D03*
X20415000Y47746000D03*
%TD*%
D53*
%TO.C,R34*%
X20415000Y46110000D03*
X22065000Y46110000D03*
%TD*%
%TO.C,R35*%
X20415000Y49382000D03*
X22065000Y49382000D03*
%TD*%
%TO.C,R36*%
X20415000Y54290000D03*
X22065000Y54290000D03*
%TD*%
D52*
%TO.C,R37*%
X22065000Y52654000D03*
X20415000Y52654000D03*
%TD*%
D53*
%TO.C,R38*%
X20415000Y51018000D03*
X22065000Y51018000D03*
%TD*%
D54*
%TO.C,SW2*%
X30560000Y55640000D03*
D55*
X28020000Y55640000D03*
X25480000Y55640000D03*
X25480000Y48020000D03*
X28020000Y48020000D03*
X30560000Y48020000D03*
%TD*%
D19*
%TO.C,R23*%
X22397500Y44470000D03*
X20822500Y44470000D03*
%TD*%
D16*
%TO.C,R8*%
X35176000Y2516500D03*
X35176000Y941500D03*
%TD*%
D31*
%TO.C,D15*%
X38543000Y2999000D03*
X37143000Y2999000D03*
%TD*%
D56*
%TO.C,J10*%
X43691800Y9504550D03*
D57*
X50891800Y9504550D03*
D58*
X40541800Y3504550D03*
X54041800Y3504550D03*
%TD*%
D31*
%TO.C,D1*%
X38416000Y10212600D03*
X37016000Y10212600D03*
%TD*%
D53*
%TO.C,R28*%
X51292800Y40616400D03*
X52942800Y40616400D03*
%TD*%
D54*
%TO.C,C13*%
X13992400Y9919112D03*
D59*
X13992400Y7419112D03*
%TD*%
D60*
%TO.C,C12*%
X51863800Y46468600D03*
X51863800Y44568600D03*
%TD*%
D23*
%TO.C,J12*%
X48384000Y45031000D03*
D24*
X48384000Y47571000D03*
%TD*%
D31*
%TO.C,D4*%
X38441400Y8561600D03*
X37041400Y8561600D03*
%TD*%
D16*
%TO.C,R1*%
X38351000Y6072500D03*
X38351000Y4497500D03*
%TD*%
D51*
%TO.C,D2*%
X16566400Y1348000D03*
X14466400Y1348000D03*
%TD*%
D38*
%TO.C,J4*%
X11697000Y22052000D03*
X11697000Y30052000D03*
%TD*%
D61*
%TO.C,SW1*%
X4930000Y44730000D03*
X8230000Y44730000D03*
%TD*%
M02*
