%TF.GenerationSoftware,KiCad,Pcbnew,8.0.3*%
%TF.CreationDate,2024-09-27T14:44:27+02:00*%
%TF.ProjectId,KXKM_ESP32_battery_management_board,4b584b4d-5f45-4535-9033-325f62617474,3.2*%
%TF.SameCoordinates,PX623a7c0PY839b680*%
%TF.FileFunction,Soldermask,Bot*%
%TF.FilePolarity,Negative*%
%FSLAX46Y46*%
G04 Gerber Fmt 4.6, Leading zero omitted, Abs format (unit mm)*
G04 Created by KiCad (PCBNEW 8.0.3) date 2024-09-27 14:44:27*
%MOMM*%
%LPD*%
G01*
G04 APERTURE LIST*
G04 Aperture macros list*
%AMRoundRect*
0 Rectangle with rounded corners*
0 $1 Rounding radius*
0 $2 $3 $4 $5 $6 $7 $8 $9 X,Y pos of 4 corners*
0 Add a 4 corners polygon primitive as box body*
4,1,4,$2,$3,$4,$5,$6,$7,$8,$9,$2,$3,0*
0 Add four circle primitives for the rounded corners*
1,1,$1+$1,$2,$3*
1,1,$1+$1,$4,$5*
1,1,$1+$1,$6,$7*
1,1,$1+$1,$8,$9*
0 Add four rect primitives between the rounded corners*
20,1,$1+$1,$2,$3,$4,$5,0*
20,1,$1+$1,$4,$5,$6,$7,0*
20,1,$1+$1,$6,$7,$8,$9,0*
20,1,$1+$1,$8,$9,$2,$3,0*%
G04 Aperture macros list end*
%ADD10C,1.300000*%
%ADD11C,2.000000*%
%ADD12C,1.500000*%
%ADD13C,4.500880*%
%ADD14C,1.800000*%
%ADD15C,3.300000*%
%ADD16C,3.200000*%
%ADD17R,1.700000X1.700000*%
%ADD18O,1.700000X1.700000*%
%ADD19C,0.900000*%
%ADD20R,2.000000X2.000000*%
%ADD21C,0.990600*%
%ADD22RoundRect,0.250000X-0.725000X0.600000X-0.725000X-0.600000X0.725000X-0.600000X0.725000X0.600000X0*%
%ADD23O,1.950000X1.700000*%
%ADD24R,1.600000X1.600000*%
%ADD25O,1.600000X1.600000*%
%ADD26R,3.716000X3.716000*%
%ADD27C,3.716000*%
%ADD28O,1.200000X2.400000*%
%ADD29C,1.600000*%
%ADD30C,1.000000*%
%ADD31RoundRect,0.218750X0.218750X0.256250X-0.218750X0.256250X-0.218750X-0.256250X0.218750X-0.256250X0*%
%ADD32RoundRect,0.218750X-0.218750X-0.256250X0.218750X-0.256250X0.218750X0.256250X-0.218750X0.256250X0*%
%ADD33R,1.600000X0.700000*%
%ADD34R,1.400000X1.200000*%
%ADD35R,1.400000X1.600000*%
%ADD36R,2.200000X1.200000*%
%ADD37R,0.800000X2.200000*%
%ADD38R,5.800000X6.400000*%
G04 APERTURE END LIST*
D10*
%TO.C,J3*%
X42250000Y36410000D03*
X42250000Y16090000D03*
%TD*%
D11*
%TO.C,SW3*%
X48000000Y52312500D03*
X55000000Y52312500D03*
D12*
X53750000Y54812500D03*
X49250000Y54812500D03*
%TD*%
D13*
%TO.C,J16*%
X3000000Y2750000D03*
%TD*%
%TO.C,J15*%
X10500000Y2750000D03*
%TD*%
D14*
%TO.C,J9*%
X22500000Y10710000D03*
X25000000Y10710000D03*
X27000000Y10710000D03*
X29500000Y10710000D03*
D15*
X19000000Y8000000D03*
X33000000Y8000000D03*
%TD*%
D16*
%TO.C,MK2*%
X42250000Y42750000D03*
%TD*%
%TO.C,MK1*%
X14250000Y42750000D03*
%TD*%
D17*
%TO.C,J1*%
X1750000Y55750000D03*
D18*
X1750000Y53210000D03*
X1750000Y50670000D03*
X1750000Y48130000D03*
X1750000Y45590000D03*
X1750000Y43050000D03*
%TD*%
D19*
%TO.C,SW4*%
X16250000Y51080000D03*
X11250000Y51080000D03*
%TD*%
D17*
%TO.C,J6*%
X35650000Y29550000D03*
D18*
X35650000Y27010000D03*
X35650000Y24470000D03*
%TD*%
D20*
%TO.C,U5*%
X35500000Y4440000D03*
X35500000Y12560000D03*
X17000000Y4440000D03*
X17000000Y12560000D03*
%TD*%
D21*
%TO.C,P1*%
X5640000Y52840000D03*
X6656000Y47760000D03*
X4624000Y47760000D03*
%TD*%
D22*
%TO.C,J8*%
X7536000Y14770000D03*
D23*
X7536000Y12270000D03*
X7536000Y9770000D03*
%TD*%
D22*
%TO.C,J7*%
X2664000Y14770000D03*
D23*
X2664000Y12270000D03*
X2664000Y9770000D03*
%TD*%
D17*
%TO.C,J5*%
X55013400Y48012800D03*
D18*
X55013400Y45472800D03*
%TD*%
D24*
%TO.C,SW2*%
X30560000Y55640000D03*
D25*
X28020000Y55640000D03*
X25480000Y55640000D03*
X25480000Y48020000D03*
X28020000Y48020000D03*
X30560000Y48020000D03*
%TD*%
D26*
%TO.C,J10*%
X43691800Y9504550D03*
D27*
X50891800Y9504550D03*
D28*
X40541800Y3504550D03*
X54041800Y3504550D03*
%TD*%
D24*
%TO.C,C13*%
X13992400Y9919112D03*
D29*
X13992400Y7419112D03*
%TD*%
D17*
%TO.C,J12*%
X48384000Y45031000D03*
D18*
X48384000Y47571000D03*
%TD*%
D30*
%TO.C,FID4*%
X55750000Y750000D03*
%TD*%
%TO.C,FID5*%
X750000Y750000D03*
%TD*%
%TO.C,FID6*%
X55750000Y56750000D03*
%TD*%
D31*
%TO.C,R13*%
X29787500Y7250000D03*
X28212500Y7250000D03*
%TD*%
D32*
%TO.C,R29*%
X22212500Y7250000D03*
X23787500Y7250000D03*
%TD*%
D31*
%TO.C,R30*%
X23787500Y8750000D03*
X22212500Y8750000D03*
%TD*%
D32*
%TO.C,R14*%
X28212500Y8750000D03*
X29787500Y8750000D03*
%TD*%
D30*
%TO.C,J4*%
X11697000Y22052000D03*
X11697000Y30052000D03*
D33*
X22197000Y29252000D03*
X22197000Y28152000D03*
X22197000Y27052000D03*
X22197000Y25952000D03*
X22197000Y24852000D03*
X22197000Y23752000D03*
X22197000Y22652000D03*
X22197000Y21552000D03*
X22197000Y20452000D03*
D34*
X21697000Y19252000D03*
D35*
X21697000Y33852000D03*
D36*
X12097000Y34752000D03*
X12097000Y19252000D03*
%TD*%
D37*
%TO.C,U4*%
X50497200Y22991000D03*
X51637200Y22991000D03*
D38*
X52777200Y16691000D03*
D37*
X53917200Y22991000D03*
X55057200Y22991000D03*
%TD*%
M02*
