M48
; DRILL file {KiCad 8.0.3} date 2024-09-27T14:44:27+0200
; FORMAT={-:-/ absolute / inch / decimal}
; #@! TF.CreationDate,2024-09-27T14:44:27+02:00
; #@! TF.GenerationSoftware,Kicad,Pcbnew,8.0.3
; #@! TF.FileFunction,Plated,1,4,PTH
FMAT,2
INCH
; #@! TA.AperFunction,Plated,PTH,ViaDrill
T1C0.0118
; #@! TA.AperFunction,Plated,PTH,ComponentDrill
T2C0.0236
; #@! TA.AperFunction,Plated,PTH,ComponentDrill
T3C0.0315
; #@! TA.AperFunction,Plated,PTH,ComponentDrill
T4C0.0354
; #@! TA.AperFunction,Plated,PTH,ComponentDrill
T5C0.0374
; #@! TA.AperFunction,Plated,PTH,ComponentDrill
T6C0.0394
; #@! TA.AperFunction,Plated,PTH,ComponentDrill
T7C0.0394
; #@! TA.AperFunction,Plated,PTH,ComponentDrill
T8C0.0472
; #@! TA.AperFunction,Plated,PTH,ComponentDrill
T9C0.0512
; #@! TA.AperFunction,Plated,PTH,ComponentDrill
T10C0.0512
; #@! TA.AperFunction,Plated,PTH,ComponentDrill
T11C0.0787
; #@! TA.AperFunction,Plated,PTH,ComponentDrill
T12C0.0827
; #@! TA.AperFunction,Plated,PTH,ComponentDrill
T13C0.1063
%
G90
G05
T1
X0.0512Y1.1289
X0.064Y0.9242
X0.0807Y1.0344
X0.0925Y0.8445
X0.1199Y2.0303
X0.1211Y1.7352
X0.1359Y1.8261
X0.1515Y1.9721
X0.1559Y1.2631
X0.1594Y0.9646
X0.2293Y1.8002
X0.2421Y2.1339
X0.2776Y1.7008
X0.2854Y2.1565
X0.3002Y1.5364
X0.3179Y1.3131
X0.3349Y0.8406
X0.3494Y0.9921
X0.3701Y0.7707
X0.3749Y1.8431
X0.3749Y0.6231
X0.375Y1.0482
X0.4049Y1.1131
X0.4069Y1.5311
X0.4085Y0.9031
X0.4139Y0.4472
X0.4139Y0.3879
X0.4139Y0.3285
X0.4139Y0.2691
X0.4222Y0.5974
X0.4549Y1.3231
X0.4626Y2.1565
X0.5138Y0.9242
X0.5138Y0.812
X0.5149Y1.3131
X0.5344Y1.9813
X0.5482Y1.9262
X0.5679Y1.4803
X0.5713Y0.6101
X0.5807Y1.2402
X0.5807Y1.0531
X0.5807Y0.8858
X0.5899Y2.1381
X0.6024Y1.4856
X0.6299Y0.6101
X0.6319Y2.1722
X0.6614Y1.8947
X0.6649Y1.3331
X0.6693Y1.2402
X0.6781Y2.0886
X0.6919Y0.6101
X0.6949Y0.8131
X0.7129Y2.0835
X0.7195Y1.623
X0.7199Y1.8581
X0.7249Y0.8331
X0.7352Y2.1437
X0.7449Y0.8687
X0.7609Y1.4744
X0.7649Y1.2431
X0.7649Y0.8231
X0.7697Y2.1722
X0.7749Y1.5931
X0.7805Y1.7224
X0.7835Y1.5256
X0.7972Y1.2402
X0.8249Y1.2231
X0.8455Y1.249
X0.8539Y0.5051
X0.8632Y2.2096
X0.9055Y1.2402
X0.9114Y1.8474
X0.9222Y1.3543
X0.9292Y0.8474
X0.9453Y0.8927
X0.9561Y0.8553
X0.9626Y1.8327
X0.9675Y1.3533
X0.9849Y0.8731
X0.996Y1.0256
X0.998Y1.2549
X1.0066Y2.1145
X1.0089Y0.999
X1.0157Y1.3533
X1.0229Y0.6171
X1.0229Y0.5787
X1.0306Y1.7282
X1.0329Y0.3521
X1.0335Y1.6949
X1.0336Y1.7575
X1.0394Y1.1417
X1.0555Y1.5482
X1.0646Y0.5787
X1.0646Y0.6171
X1.0679Y1.3533
X1.0787Y2.0896
X1.085Y1.5464
X1.0989Y1.7721
X1.1012Y1.8091
X1.1063Y0.5787
X1.1063Y0.6171
X1.1069Y1.6024
X1.128Y1.749
X1.1412Y1.6265
X1.1443Y1.7244
X1.1791Y1.4813
X1.2099Y0.7185
X1.2274Y0.9813
X1.2303Y1.4813
X1.2624Y0.4366
X1.2923Y1.1329
X1.2925Y1.3533
X1.2925Y1.3829
X1.3026Y0.4158
X1.315Y2.2165
X1.3299Y0.0981
X1.3449Y0.9531
X1.3449Y0.7531
X1.3703Y1.4567
X1.3796Y0.3584
X1.3848Y1.4203
X1.3848Y1.2598
X1.3849Y1.3611
X1.4349Y0.1031
X1.4567Y0.6102
X1.4685Y1.1959
X1.4695Y0.8898
X1.4793Y1.0896
X1.4799Y0.7668
X1.4819Y0.5111
X1.5207Y0.8274
X1.5325Y2.1949
X1.5384Y1.8002
X1.5394Y2.1142
X1.5439Y2.1571
X1.5494Y0.5101
X1.579Y1.021
X1.6169Y0.5111
X1.6191Y1.0388
X1.6209Y0.9361
X1.6614Y1.5197
X1.6654Y1.2283
X1.6732Y1.3445
X1.7185Y1.1309
X1.7539Y1.3337
X1.7539Y1.0374
X1.7719Y0.8274
X1.7766Y2.2372
X1.8051Y2.0148
X1.8053Y0.8407
X1.8169Y0.4759
X1.832Y0.4439
X1.8445Y0.8215
X1.8471Y0.4759
X1.8622Y0.4449
X1.9355Y1.0366
X1.9869Y1.0561
X2.0449Y0.8071
X2.0539Y1.0571
X2.0829Y0.8071
X2.1019Y0.5741
X2.1209Y1.0531
X2.1229Y0.8071
X2.126Y1.5945
X2.1409Y0.5741
X2.1549Y1.0171
X2.1746Y0.9771
X2.1799Y0.5741
X2.1839Y0.8221
T3
X0.5509Y0.3905
X0.5509Y0.2921
X1.0031Y2.1906
X1.0031Y1.8906
X1.1031Y2.1906
X1.1031Y1.8906
X1.2031Y2.1906
X1.2031Y1.8906
T4
X0.8858Y0.4217
X0.9843Y0.4217
X1.063Y0.4217
X1.1614Y0.4217
T5
X0.1049Y0.5815
X0.1049Y0.4831
X0.1049Y0.3846
X0.2967Y0.5815
X0.2967Y0.4831
X0.2967Y0.3846
T6
X1.939Y2.158
X2.1161Y2.158
T7
X0.0689Y2.1949
X0.0689Y2.0949
X0.0689Y1.9949
X0.0689Y1.8949
X0.0689Y1.7949
X0.0689Y1.6949
X1.4035Y1.1634
X1.4035Y1.0634
X1.4035Y0.9634
X1.9049Y1.8729
X1.9049Y1.7729
X2.1659Y1.8903
X2.1659Y1.7903
T8
X0.6693Y0.4945
X0.6693Y0.1748
X1.3976Y0.4945
X1.3976Y0.1748
T9
X1.6634Y1.4335
X1.6634Y0.6335
T10
X1.8898Y2.0595
X2.1654Y2.0595
T11
X0.1181Y0.1083
X0.4134Y0.1083
T12
X0.748Y0.315
X1.2992Y0.315
T13
X1.7201Y0.3742
X2.0036Y0.3742
T2
G00X1.5961Y0.1163
M15
G01X1.5961Y0.1596
M16
G05
G00X2.1276Y0.1163
M15
G01X2.1276Y0.1596
M16
G05
M30
