%TF.GenerationSoftware,KiCad,Pcbnew,7.0.7*%
%TF.CreationDate,2023-09-07T10:43:14+02:00*%
%TF.ProjectId,KXKM_ESP32_battery_management_board,4b584b4d-5f45-4535-9033-325f62617474,3.2*%
%TF.SameCoordinates,PX623a7c0PY839b680*%
%TF.FileFunction,Legend,Bot*%
%TF.FilePolarity,Positive*%
%FSLAX46Y46*%
G04 Gerber Fmt 4.6, Leading zero omitted, Abs format (unit mm)*
G04 Created by KiCad (PCBNEW 7.0.7) date 2023-09-07 10:43:14*
%MOMM*%
%LPD*%
G01*
G04 APERTURE LIST*
G04 Aperture macros list*
%AMRoundRect*
0 Rectangle with rounded corners*
0 $1 Rounding radius*
0 $2 $3 $4 $5 $6 $7 $8 $9 X,Y pos of 4 corners*
0 Add a 4 corners polygon primitive as box body*
4,1,4,$2,$3,$4,$5,$6,$7,$8,$9,$2,$3,0*
0 Add four circle primitives for the rounded corners*
1,1,$1+$1,$2,$3*
1,1,$1+$1,$4,$5*
1,1,$1+$1,$6,$7*
1,1,$1+$1,$8,$9*
0 Add four rect primitives between the rounded corners*
20,1,$1+$1,$2,$3,$4,$5,0*
20,1,$1+$1,$4,$5,$6,$7,0*
20,1,$1+$1,$6,$7,$8,$9,0*
20,1,$1+$1,$8,$9,$2,$3,0*%
G04 Aperture macros list end*
%ADD10C,0.300000*%
%ADD11C,0.150000*%
%ADD12C,0.200000*%
%ADD13C,0.250000*%
%ADD14C,0.254000*%
%ADD15C,0.120000*%
%ADD16C,0.100000*%
%ADD17C,4.500880*%
%ADD18C,1.800000*%
%ADD19C,3.300000*%
%ADD20C,3.200000*%
%ADD21R,1.700000X1.700000*%
%ADD22O,1.700000X1.700000*%
%ADD23C,0.900000*%
%ADD24C,2.100000*%
%ADD25C,1.750000*%
%ADD26R,2.000000X2.000000*%
%ADD27C,0.990600*%
%ADD28RoundRect,0.250000X-0.725000X0.600000X-0.725000X-0.600000X0.725000X-0.600000X0.725000X0.600000X0*%
%ADD29O,1.950000X1.700000*%
%ADD30R,1.600000X1.600000*%
%ADD31O,1.600000X1.600000*%
%ADD32R,3.716000X3.716000*%
%ADD33C,3.716000*%
%ADD34O,1.200000X2.400000*%
%ADD35C,1.600000*%
%ADD36C,1.000000*%
%ADD37RoundRect,0.218750X0.218750X0.256250X-0.218750X0.256250X-0.218750X-0.256250X0.218750X-0.256250X0*%
%ADD38RoundRect,0.218750X-0.218750X-0.256250X0.218750X-0.256250X0.218750X0.256250X-0.218750X0.256250X0*%
%ADD39R,1.600000X0.700000*%
%ADD40R,1.400000X1.200000*%
%ADD41R,1.400000X1.600000*%
%ADD42R,2.200000X1.200000*%
%ADD43R,0.800000X2.200000*%
%ADD44R,5.800000X6.400000*%
G04 APERTURE END LIST*
D10*
X13071428Y5393100D02*
X11928571Y5393100D01*
X12499999Y4821672D02*
X12499999Y5964529D01*
X5571428Y5393100D02*
X4428571Y5393100D01*
D11*
X4302819Y18080286D02*
X4302819Y18651714D01*
X4302819Y18366000D02*
X3302819Y18366000D01*
X3302819Y18366000D02*
X3445676Y18461238D01*
X3445676Y18461238D02*
X3540914Y18556476D01*
X3540914Y18556476D02*
X3588533Y18651714D01*
X6618057Y18651714D02*
X6570438Y18604095D01*
X6570438Y18604095D02*
X6522819Y18508857D01*
X6522819Y18508857D02*
X6522819Y18270762D01*
X6522819Y18270762D02*
X6570438Y18175524D01*
X6570438Y18175524D02*
X6618057Y18127905D01*
X6618057Y18127905D02*
X6713295Y18080286D01*
X6713295Y18080286D02*
X6808533Y18080286D01*
X6808533Y18080286D02*
X6951390Y18127905D01*
X6951390Y18127905D02*
X7522819Y18699333D01*
X7522819Y18699333D02*
X7522819Y18080286D01*
D12*
X10371600Y15898572D02*
X10371600Y14984286D01*
X10828742Y15441429D02*
X9914457Y15441429D01*
X10828742Y12584286D02*
X9628742Y12584286D01*
X9628742Y12584286D02*
X9628742Y12298572D01*
X9628742Y12298572D02*
X9685885Y12127143D01*
X9685885Y12127143D02*
X9800171Y12012858D01*
X9800171Y12012858D02*
X9914457Y11955715D01*
X9914457Y11955715D02*
X10143028Y11898572D01*
X10143028Y11898572D02*
X10314457Y11898572D01*
X10314457Y11898572D02*
X10543028Y11955715D01*
X10543028Y11955715D02*
X10657314Y12012858D01*
X10657314Y12012858D02*
X10771600Y12127143D01*
X10771600Y12127143D02*
X10828742Y12298572D01*
X10828742Y12298572D02*
X10828742Y12584286D01*
X10371600Y9555714D02*
X10371600Y8641428D01*
X26607019Y16209523D02*
X26559400Y16161904D01*
X26559400Y16161904D02*
X26511780Y16019047D01*
X26511780Y16019047D02*
X26511780Y15923809D01*
X26511780Y15923809D02*
X26559400Y15780952D01*
X26559400Y15780952D02*
X26654638Y15685714D01*
X26654638Y15685714D02*
X26749876Y15638095D01*
X26749876Y15638095D02*
X26940352Y15590476D01*
X26940352Y15590476D02*
X27083209Y15590476D01*
X27083209Y15590476D02*
X27273685Y15638095D01*
X27273685Y15638095D02*
X27368923Y15685714D01*
X27368923Y15685714D02*
X27464161Y15780952D01*
X27464161Y15780952D02*
X27511780Y15923809D01*
X27511780Y15923809D02*
X27511780Y16019047D01*
X27511780Y16019047D02*
X27464161Y16161904D01*
X27464161Y16161904D02*
X27416542Y16209523D01*
X26607019Y16638095D02*
X26559400Y16685714D01*
X26559400Y16685714D02*
X26511780Y16638095D01*
X26511780Y16638095D02*
X26559400Y16590476D01*
X26559400Y16590476D02*
X26607019Y16638095D01*
X26607019Y16638095D02*
X26511780Y16638095D01*
X26559400Y17828571D02*
X26511780Y17971428D01*
X26511780Y17971428D02*
X26511780Y18209523D01*
X26511780Y18209523D02*
X26559400Y18304761D01*
X26559400Y18304761D02*
X26607019Y18352380D01*
X26607019Y18352380D02*
X26702257Y18399999D01*
X26702257Y18399999D02*
X26797495Y18399999D01*
X26797495Y18399999D02*
X26892733Y18352380D01*
X26892733Y18352380D02*
X26940352Y18304761D01*
X26940352Y18304761D02*
X26987971Y18209523D01*
X26987971Y18209523D02*
X27035590Y18019047D01*
X27035590Y18019047D02*
X27083209Y17923809D01*
X27083209Y17923809D02*
X27130828Y17876190D01*
X27130828Y17876190D02*
X27226066Y17828571D01*
X27226066Y17828571D02*
X27321304Y17828571D01*
X27321304Y17828571D02*
X27416542Y17876190D01*
X27416542Y17876190D02*
X27464161Y17923809D01*
X27464161Y17923809D02*
X27511780Y18019047D01*
X27511780Y18019047D02*
X27511780Y18257142D01*
X27511780Y18257142D02*
X27464161Y18399999D01*
X26511780Y19257142D02*
X27035590Y19257142D01*
X27035590Y19257142D02*
X27130828Y19209523D01*
X27130828Y19209523D02*
X27178447Y19114285D01*
X27178447Y19114285D02*
X27178447Y18923809D01*
X27178447Y18923809D02*
X27130828Y18828571D01*
X26559400Y19257142D02*
X26511780Y19161904D01*
X26511780Y19161904D02*
X26511780Y18923809D01*
X26511780Y18923809D02*
X26559400Y18828571D01*
X26559400Y18828571D02*
X26654638Y18780952D01*
X26654638Y18780952D02*
X26749876Y18780952D01*
X26749876Y18780952D02*
X26845114Y18828571D01*
X26845114Y18828571D02*
X26892733Y18923809D01*
X26892733Y18923809D02*
X26892733Y19161904D01*
X26892733Y19161904D02*
X26940352Y19257142D01*
X26511780Y19733333D02*
X27178447Y19733333D01*
X27511780Y19733333D02*
X27464161Y19685714D01*
X27464161Y19685714D02*
X27416542Y19733333D01*
X27416542Y19733333D02*
X27464161Y19780952D01*
X27464161Y19780952D02*
X27511780Y19733333D01*
X27511780Y19733333D02*
X27416542Y19733333D01*
X26511780Y20352380D02*
X26559400Y20257142D01*
X26559400Y20257142D02*
X26654638Y20209523D01*
X26654638Y20209523D02*
X27511780Y20209523D01*
X26511780Y20876190D02*
X26559400Y20780952D01*
X26559400Y20780952D02*
X26654638Y20733333D01*
X26654638Y20733333D02*
X27511780Y20733333D01*
X26511780Y21685714D02*
X27035590Y21685714D01*
X27035590Y21685714D02*
X27130828Y21638095D01*
X27130828Y21638095D02*
X27178447Y21542857D01*
X27178447Y21542857D02*
X27178447Y21352381D01*
X27178447Y21352381D02*
X27130828Y21257143D01*
X26559400Y21685714D02*
X26511780Y21590476D01*
X26511780Y21590476D02*
X26511780Y21352381D01*
X26511780Y21352381D02*
X26559400Y21257143D01*
X26559400Y21257143D02*
X26654638Y21209524D01*
X26654638Y21209524D02*
X26749876Y21209524D01*
X26749876Y21209524D02*
X26845114Y21257143D01*
X26845114Y21257143D02*
X26892733Y21352381D01*
X26892733Y21352381D02*
X26892733Y21590476D01*
X26892733Y21590476D02*
X26940352Y21685714D01*
X27178447Y22161905D02*
X26511780Y22161905D01*
X27083209Y22161905D02*
X27130828Y22209524D01*
X27130828Y22209524D02*
X27178447Y22304762D01*
X27178447Y22304762D02*
X27178447Y22447619D01*
X27178447Y22447619D02*
X27130828Y22542857D01*
X27130828Y22542857D02*
X27035590Y22590476D01*
X27035590Y22590476D02*
X26511780Y22590476D01*
X27178447Y22923810D02*
X27178447Y23304762D01*
X27511780Y23066667D02*
X26654638Y23066667D01*
X26654638Y23066667D02*
X26559400Y23114286D01*
X26559400Y23114286D02*
X26511780Y23209524D01*
X26511780Y23209524D02*
X26511780Y23304762D01*
X27559400Y25114286D02*
X26273685Y24257144D01*
X27511780Y26066668D02*
X26511780Y26400001D01*
X26511780Y26400001D02*
X27511780Y26733334D01*
X26607019Y27066668D02*
X26559400Y27114287D01*
X26559400Y27114287D02*
X26511780Y27066668D01*
X26511780Y27066668D02*
X26559400Y27019049D01*
X26559400Y27019049D02*
X26607019Y27066668D01*
X26607019Y27066668D02*
X26511780Y27066668D01*
X26511780Y28304763D02*
X27511780Y28304763D01*
X27035590Y28304763D02*
X27035590Y28876191D01*
X26511780Y28876191D02*
X27511780Y28876191D01*
X26559400Y29733334D02*
X26511780Y29638096D01*
X26511780Y29638096D02*
X26511780Y29447620D01*
X26511780Y29447620D02*
X26559400Y29352382D01*
X26559400Y29352382D02*
X26654638Y29304763D01*
X26654638Y29304763D02*
X27035590Y29304763D01*
X27035590Y29304763D02*
X27130828Y29352382D01*
X27130828Y29352382D02*
X27178447Y29447620D01*
X27178447Y29447620D02*
X27178447Y29638096D01*
X27178447Y29638096D02*
X27130828Y29733334D01*
X27130828Y29733334D02*
X27035590Y29780953D01*
X27035590Y29780953D02*
X26940352Y29780953D01*
X26940352Y29780953D02*
X26845114Y29304763D01*
X27178447Y30209525D02*
X26511780Y30209525D01*
X27083209Y30209525D02*
X27130828Y30257144D01*
X27130828Y30257144D02*
X27178447Y30352382D01*
X27178447Y30352382D02*
X27178447Y30495239D01*
X27178447Y30495239D02*
X27130828Y30590477D01*
X27130828Y30590477D02*
X27035590Y30638096D01*
X27035590Y30638096D02*
X26511780Y30638096D01*
X26511780Y31114287D02*
X27178447Y31114287D01*
X26987971Y31114287D02*
X27083209Y31161906D01*
X27083209Y31161906D02*
X27130828Y31209525D01*
X27130828Y31209525D02*
X27178447Y31304763D01*
X27178447Y31304763D02*
X27178447Y31400001D01*
X27178447Y31638097D02*
X26511780Y31876192D01*
X27178447Y32114287D02*
X26511780Y31876192D01*
X26511780Y31876192D02*
X26273685Y31780954D01*
X26273685Y31780954D02*
X26226066Y31733335D01*
X26226066Y31733335D02*
X26178447Y31638097D01*
X27559400Y33971430D02*
X26273685Y33114288D01*
X27511780Y34923812D02*
X27511780Y35495240D01*
X26511780Y35209526D02*
X27511780Y35209526D01*
X26511780Y35971431D02*
X26559400Y35876193D01*
X26559400Y35876193D02*
X26607019Y35828574D01*
X26607019Y35828574D02*
X26702257Y35780955D01*
X26702257Y35780955D02*
X26987971Y35780955D01*
X26987971Y35780955D02*
X27083209Y35828574D01*
X27083209Y35828574D02*
X27130828Y35876193D01*
X27130828Y35876193D02*
X27178447Y35971431D01*
X27178447Y35971431D02*
X27178447Y36114288D01*
X27178447Y36114288D02*
X27130828Y36209526D01*
X27130828Y36209526D02*
X27083209Y36257145D01*
X27083209Y36257145D02*
X26987971Y36304764D01*
X26987971Y36304764D02*
X26702257Y36304764D01*
X26702257Y36304764D02*
X26607019Y36257145D01*
X26607019Y36257145D02*
X26559400Y36209526D01*
X26559400Y36209526D02*
X26511780Y36114288D01*
X26511780Y36114288D02*
X26511780Y35971431D01*
X26511780Y36733336D02*
X27178447Y36733336D01*
X27083209Y36733336D02*
X27130828Y36780955D01*
X27130828Y36780955D02*
X27178447Y36876193D01*
X27178447Y36876193D02*
X27178447Y37019050D01*
X27178447Y37019050D02*
X27130828Y37114288D01*
X27130828Y37114288D02*
X27035590Y37161907D01*
X27035590Y37161907D02*
X26511780Y37161907D01*
X27035590Y37161907D02*
X27130828Y37209526D01*
X27130828Y37209526D02*
X27178447Y37304764D01*
X27178447Y37304764D02*
X27178447Y37447621D01*
X27178447Y37447621D02*
X27130828Y37542860D01*
X27130828Y37542860D02*
X27035590Y37590479D01*
X27035590Y37590479D02*
X26511780Y37590479D01*
X26511780Y38828574D02*
X27511780Y38828574D01*
X27511780Y38828574D02*
X26797495Y39161907D01*
X26797495Y39161907D02*
X27511780Y39495240D01*
X27511780Y39495240D02*
X26511780Y39495240D01*
X26511780Y40400002D02*
X27035590Y40400002D01*
X27035590Y40400002D02*
X27130828Y40352383D01*
X27130828Y40352383D02*
X27178447Y40257145D01*
X27178447Y40257145D02*
X27178447Y40066669D01*
X27178447Y40066669D02*
X27130828Y39971431D01*
X26559400Y40400002D02*
X26511780Y40304764D01*
X26511780Y40304764D02*
X26511780Y40066669D01*
X26511780Y40066669D02*
X26559400Y39971431D01*
X26559400Y39971431D02*
X26654638Y39923812D01*
X26654638Y39923812D02*
X26749876Y39923812D01*
X26749876Y39923812D02*
X26845114Y39971431D01*
X26845114Y39971431D02*
X26892733Y40066669D01*
X26892733Y40066669D02*
X26892733Y40304764D01*
X26892733Y40304764D02*
X26940352Y40400002D01*
X27178447Y41304764D02*
X26368923Y41304764D01*
X26368923Y41304764D02*
X26273685Y41257145D01*
X26273685Y41257145D02*
X26226066Y41209526D01*
X26226066Y41209526D02*
X26178447Y41114288D01*
X26178447Y41114288D02*
X26178447Y40971431D01*
X26178447Y40971431D02*
X26226066Y40876193D01*
X26559400Y41304764D02*
X26511780Y41209526D01*
X26511780Y41209526D02*
X26511780Y41019050D01*
X26511780Y41019050D02*
X26559400Y40923812D01*
X26559400Y40923812D02*
X26607019Y40876193D01*
X26607019Y40876193D02*
X26702257Y40828574D01*
X26702257Y40828574D02*
X26987971Y40828574D01*
X26987971Y40828574D02*
X27083209Y40876193D01*
X27083209Y40876193D02*
X27130828Y40923812D01*
X27130828Y40923812D02*
X27178447Y41019050D01*
X27178447Y41019050D02*
X27178447Y41209526D01*
X27178447Y41209526D02*
X27130828Y41304764D01*
X27178447Y41780955D02*
X26511780Y41780955D01*
X27083209Y41780955D02*
X27130828Y41828574D01*
X27130828Y41828574D02*
X27178447Y41923812D01*
X27178447Y41923812D02*
X27178447Y42066669D01*
X27178447Y42066669D02*
X27130828Y42161907D01*
X27130828Y42161907D02*
X27035590Y42209526D01*
X27035590Y42209526D02*
X26511780Y42209526D01*
X26511780Y42685717D02*
X27178447Y42685717D01*
X27511780Y42685717D02*
X27464161Y42638098D01*
X27464161Y42638098D02*
X27416542Y42685717D01*
X27416542Y42685717D02*
X27464161Y42733336D01*
X27464161Y42733336D02*
X27511780Y42685717D01*
X27511780Y42685717D02*
X27416542Y42685717D01*
X26559400Y43542859D02*
X26511780Y43447621D01*
X26511780Y43447621D02*
X26511780Y43257145D01*
X26511780Y43257145D02*
X26559400Y43161907D01*
X26559400Y43161907D02*
X26654638Y43114288D01*
X26654638Y43114288D02*
X27035590Y43114288D01*
X27035590Y43114288D02*
X27130828Y43161907D01*
X27130828Y43161907D02*
X27178447Y43257145D01*
X27178447Y43257145D02*
X27178447Y43447621D01*
X27178447Y43447621D02*
X27130828Y43542859D01*
X27130828Y43542859D02*
X27035590Y43590478D01*
X27035590Y43590478D02*
X26940352Y43590478D01*
X26940352Y43590478D02*
X26845114Y43114288D01*
X26511780Y44019050D02*
X27178447Y44019050D01*
X26987971Y44019050D02*
X27083209Y44066669D01*
X27083209Y44066669D02*
X27130828Y44114288D01*
X27130828Y44114288D02*
X27178447Y44209526D01*
X27178447Y44209526D02*
X27178447Y44304764D01*
X25568447Y23709525D02*
X24901780Y23947620D01*
X24901780Y23947620D02*
X25568447Y24185715D01*
X25901780Y24471430D02*
X25901780Y25090477D01*
X25901780Y25090477D02*
X25520828Y24757144D01*
X25520828Y24757144D02*
X25520828Y24900001D01*
X25520828Y24900001D02*
X25473209Y24995239D01*
X25473209Y24995239D02*
X25425590Y25042858D01*
X25425590Y25042858D02*
X25330352Y25090477D01*
X25330352Y25090477D02*
X25092257Y25090477D01*
X25092257Y25090477D02*
X24997019Y25042858D01*
X24997019Y25042858D02*
X24949400Y24995239D01*
X24949400Y24995239D02*
X24901780Y24900001D01*
X24901780Y24900001D02*
X24901780Y24614287D01*
X24901780Y24614287D02*
X24949400Y24519049D01*
X24949400Y24519049D02*
X24997019Y24471430D01*
X24997019Y25519049D02*
X24949400Y25566668D01*
X24949400Y25566668D02*
X24901780Y25519049D01*
X24901780Y25519049D02*
X24949400Y25471430D01*
X24949400Y25471430D02*
X24997019Y25519049D01*
X24997019Y25519049D02*
X24901780Y25519049D01*
X25806542Y25947620D02*
X25854161Y25995239D01*
X25854161Y25995239D02*
X25901780Y26090477D01*
X25901780Y26090477D02*
X25901780Y26328572D01*
X25901780Y26328572D02*
X25854161Y26423810D01*
X25854161Y26423810D02*
X25806542Y26471429D01*
X25806542Y26471429D02*
X25711304Y26519048D01*
X25711304Y26519048D02*
X25616066Y26519048D01*
X25616066Y26519048D02*
X25473209Y26471429D01*
X25473209Y26471429D02*
X24901780Y25900001D01*
X24901780Y25900001D02*
X24901780Y26519048D01*
X25282733Y27709525D02*
X25282733Y28471429D01*
X25901780Y29900001D02*
X25901780Y29995239D01*
X25901780Y29995239D02*
X25854161Y30090477D01*
X25854161Y30090477D02*
X25806542Y30138096D01*
X25806542Y30138096D02*
X25711304Y30185715D01*
X25711304Y30185715D02*
X25520828Y30233334D01*
X25520828Y30233334D02*
X25282733Y30233334D01*
X25282733Y30233334D02*
X25092257Y30185715D01*
X25092257Y30185715D02*
X24997019Y30138096D01*
X24997019Y30138096D02*
X24949400Y30090477D01*
X24949400Y30090477D02*
X24901780Y29995239D01*
X24901780Y29995239D02*
X24901780Y29900001D01*
X24901780Y29900001D02*
X24949400Y29804763D01*
X24949400Y29804763D02*
X24997019Y29757144D01*
X24997019Y29757144D02*
X25092257Y29709525D01*
X25092257Y29709525D02*
X25282733Y29661906D01*
X25282733Y29661906D02*
X25520828Y29661906D01*
X25520828Y29661906D02*
X25711304Y29709525D01*
X25711304Y29709525D02*
X25806542Y29757144D01*
X25806542Y29757144D02*
X25854161Y29804763D01*
X25854161Y29804763D02*
X25901780Y29900001D01*
X25901780Y31090477D02*
X25901780Y30900001D01*
X25901780Y30900001D02*
X25854161Y30804763D01*
X25854161Y30804763D02*
X25806542Y30757144D01*
X25806542Y30757144D02*
X25663685Y30661906D01*
X25663685Y30661906D02*
X25473209Y30614287D01*
X25473209Y30614287D02*
X25092257Y30614287D01*
X25092257Y30614287D02*
X24997019Y30661906D01*
X24997019Y30661906D02*
X24949400Y30709525D01*
X24949400Y30709525D02*
X24901780Y30804763D01*
X24901780Y30804763D02*
X24901780Y30995239D01*
X24901780Y30995239D02*
X24949400Y31090477D01*
X24949400Y31090477D02*
X24997019Y31138096D01*
X24997019Y31138096D02*
X25092257Y31185715D01*
X25092257Y31185715D02*
X25330352Y31185715D01*
X25330352Y31185715D02*
X25425590Y31138096D01*
X25425590Y31138096D02*
X25473209Y31090477D01*
X25473209Y31090477D02*
X25520828Y30995239D01*
X25520828Y30995239D02*
X25520828Y30804763D01*
X25520828Y30804763D02*
X25473209Y30709525D01*
X25473209Y30709525D02*
X25425590Y30661906D01*
X25425590Y30661906D02*
X25330352Y30614287D01*
X25949400Y32328572D02*
X24663685Y31471430D01*
X25806542Y32614287D02*
X25854161Y32661906D01*
X25854161Y32661906D02*
X25901780Y32757144D01*
X25901780Y32757144D02*
X25901780Y32995239D01*
X25901780Y32995239D02*
X25854161Y33090477D01*
X25854161Y33090477D02*
X25806542Y33138096D01*
X25806542Y33138096D02*
X25711304Y33185715D01*
X25711304Y33185715D02*
X25616066Y33185715D01*
X25616066Y33185715D02*
X25473209Y33138096D01*
X25473209Y33138096D02*
X24901780Y32566668D01*
X24901780Y32566668D02*
X24901780Y33185715D01*
X25901780Y33804763D02*
X25901780Y33900001D01*
X25901780Y33900001D02*
X25854161Y33995239D01*
X25854161Y33995239D02*
X25806542Y34042858D01*
X25806542Y34042858D02*
X25711304Y34090477D01*
X25711304Y34090477D02*
X25520828Y34138096D01*
X25520828Y34138096D02*
X25282733Y34138096D01*
X25282733Y34138096D02*
X25092257Y34090477D01*
X25092257Y34090477D02*
X24997019Y34042858D01*
X24997019Y34042858D02*
X24949400Y33995239D01*
X24949400Y33995239D02*
X24901780Y33900001D01*
X24901780Y33900001D02*
X24901780Y33804763D01*
X24901780Y33804763D02*
X24949400Y33709525D01*
X24949400Y33709525D02*
X24997019Y33661906D01*
X24997019Y33661906D02*
X25092257Y33614287D01*
X25092257Y33614287D02*
X25282733Y33566668D01*
X25282733Y33566668D02*
X25520828Y33566668D01*
X25520828Y33566668D02*
X25711304Y33614287D01*
X25711304Y33614287D02*
X25806542Y33661906D01*
X25806542Y33661906D02*
X25854161Y33709525D01*
X25854161Y33709525D02*
X25901780Y33804763D01*
X25806542Y34519049D02*
X25854161Y34566668D01*
X25854161Y34566668D02*
X25901780Y34661906D01*
X25901780Y34661906D02*
X25901780Y34900001D01*
X25901780Y34900001D02*
X25854161Y34995239D01*
X25854161Y34995239D02*
X25806542Y35042858D01*
X25806542Y35042858D02*
X25711304Y35090477D01*
X25711304Y35090477D02*
X25616066Y35090477D01*
X25616066Y35090477D02*
X25473209Y35042858D01*
X25473209Y35042858D02*
X24901780Y34471430D01*
X24901780Y34471430D02*
X24901780Y35090477D01*
X25901780Y35423811D02*
X25901780Y36042858D01*
X25901780Y36042858D02*
X25520828Y35709525D01*
X25520828Y35709525D02*
X25520828Y35852382D01*
X25520828Y35852382D02*
X25473209Y35947620D01*
X25473209Y35947620D02*
X25425590Y35995239D01*
X25425590Y35995239D02*
X25330352Y36042858D01*
X25330352Y36042858D02*
X25092257Y36042858D01*
X25092257Y36042858D02*
X24997019Y35995239D01*
X24997019Y35995239D02*
X24949400Y35947620D01*
X24949400Y35947620D02*
X24901780Y35852382D01*
X24901780Y35852382D02*
X24901780Y35566668D01*
X24901780Y35566668D02*
X24949400Y35471430D01*
X24949400Y35471430D02*
X24997019Y35423811D01*
D11*
X7749999Y1295181D02*
X7559523Y1295181D01*
X7559523Y1295181D02*
X7464285Y1247562D01*
X7464285Y1247562D02*
X7369047Y1152324D01*
X7369047Y1152324D02*
X7321428Y961848D01*
X7321428Y961848D02*
X7321428Y628515D01*
X7321428Y628515D02*
X7369047Y438039D01*
X7369047Y438039D02*
X7464285Y342800D01*
X7464285Y342800D02*
X7559523Y295181D01*
X7559523Y295181D02*
X7749999Y295181D01*
X7749999Y295181D02*
X7845237Y342800D01*
X7845237Y342800D02*
X7940475Y438039D01*
X7940475Y438039D02*
X7988094Y628515D01*
X7988094Y628515D02*
X7988094Y961848D01*
X7988094Y961848D02*
X7940475Y1152324D01*
X7940475Y1152324D02*
X7845237Y1247562D01*
X7845237Y1247562D02*
X7749999Y1295181D01*
X6892856Y1295181D02*
X6892856Y485658D01*
X6892856Y485658D02*
X6845237Y390420D01*
X6845237Y390420D02*
X6797618Y342800D01*
X6797618Y342800D02*
X6702380Y295181D01*
X6702380Y295181D02*
X6511904Y295181D01*
X6511904Y295181D02*
X6416666Y342800D01*
X6416666Y342800D02*
X6369047Y390420D01*
X6369047Y390420D02*
X6321428Y485658D01*
X6321428Y485658D02*
X6321428Y1295181D01*
X5988094Y1295181D02*
X5416666Y1295181D01*
X5702380Y295181D02*
X5702380Y1295181D01*
X3137704Y42357141D02*
X3937704Y42357141D01*
X3937704Y42357141D02*
X3937704Y42535712D01*
X3937704Y42535712D02*
X3899609Y42642855D01*
X3899609Y42642855D02*
X3823419Y42714284D01*
X3823419Y42714284D02*
X3747228Y42749998D01*
X3747228Y42749998D02*
X3594847Y42785712D01*
X3594847Y42785712D02*
X3480561Y42785712D01*
X3480561Y42785712D02*
X3328180Y42749998D01*
X3328180Y42749998D02*
X3251990Y42714284D01*
X3251990Y42714284D02*
X3175800Y42642855D01*
X3175800Y42642855D02*
X3137704Y42535712D01*
X3137704Y42535712D02*
X3137704Y42357141D01*
X3937704Y42999998D02*
X3937704Y43428569D01*
X3137704Y43214284D02*
X3937704Y43214284D01*
X3137704Y44107141D02*
X3518657Y43857141D01*
X3137704Y43678570D02*
X3937704Y43678570D01*
X3937704Y43678570D02*
X3937704Y43964284D01*
X3937704Y43964284D02*
X3899609Y44035713D01*
X3899609Y44035713D02*
X3861514Y44071427D01*
X3861514Y44071427D02*
X3785323Y44107141D01*
X3785323Y44107141D02*
X3671038Y44107141D01*
X3671038Y44107141D02*
X3594847Y44071427D01*
X3594847Y44071427D02*
X3556752Y44035713D01*
X3556752Y44035713D02*
X3518657Y43964284D01*
X3518657Y43964284D02*
X3518657Y43678570D01*
X3137704Y45428570D02*
X3518657Y45178570D01*
X3137704Y44999999D02*
X3937704Y44999999D01*
X3937704Y44999999D02*
X3937704Y45285713D01*
X3937704Y45285713D02*
X3899609Y45357142D01*
X3899609Y45357142D02*
X3861514Y45392856D01*
X3861514Y45392856D02*
X3785323Y45428570D01*
X3785323Y45428570D02*
X3671038Y45428570D01*
X3671038Y45428570D02*
X3594847Y45392856D01*
X3594847Y45392856D02*
X3556752Y45357142D01*
X3556752Y45357142D02*
X3518657Y45285713D01*
X3518657Y45285713D02*
X3518657Y44999999D01*
X3937704Y45678570D02*
X3137704Y46178570D01*
X3937704Y46178570D02*
X3137704Y45678570D01*
X3937704Y47500000D02*
X3937704Y47928571D01*
X3137704Y47714286D02*
X3937704Y47714286D01*
X3937704Y48107143D02*
X3137704Y48607143D01*
X3937704Y48607143D02*
X3137704Y48107143D01*
X3937704Y49392858D02*
X3937704Y49857144D01*
X3937704Y49857144D02*
X3632942Y49607144D01*
X3632942Y49607144D02*
X3632942Y49714287D01*
X3632942Y49714287D02*
X3594847Y49785715D01*
X3594847Y49785715D02*
X3556752Y49821430D01*
X3556752Y49821430D02*
X3480561Y49857144D01*
X3480561Y49857144D02*
X3290085Y49857144D01*
X3290085Y49857144D02*
X3213895Y49821430D01*
X3213895Y49821430D02*
X3175800Y49785715D01*
X3175800Y49785715D02*
X3137704Y49714287D01*
X3137704Y49714287D02*
X3137704Y49500001D01*
X3137704Y49500001D02*
X3175800Y49428573D01*
X3175800Y49428573D02*
X3213895Y49392858D01*
X3937704Y50071430D02*
X3137704Y50321430D01*
X3137704Y50321430D02*
X3937704Y50571430D01*
X3937704Y50750001D02*
X3937704Y51214287D01*
X3937704Y51214287D02*
X3632942Y50964287D01*
X3632942Y50964287D02*
X3632942Y51071430D01*
X3632942Y51071430D02*
X3594847Y51142858D01*
X3594847Y51142858D02*
X3556752Y51178573D01*
X3556752Y51178573D02*
X3480561Y51214287D01*
X3480561Y51214287D02*
X3290085Y51214287D01*
X3290085Y51214287D02*
X3213895Y51178573D01*
X3213895Y51178573D02*
X3175800Y51142858D01*
X3175800Y51142858D02*
X3137704Y51071430D01*
X3137704Y51071430D02*
X3137704Y50857144D01*
X3137704Y50857144D02*
X3175800Y50785716D01*
X3175800Y50785716D02*
X3213895Y50750001D01*
X3137704Y52535716D02*
X3518657Y52285716D01*
X3137704Y52107145D02*
X3937704Y52107145D01*
X3937704Y52107145D02*
X3937704Y52392859D01*
X3937704Y52392859D02*
X3899609Y52464288D01*
X3899609Y52464288D02*
X3861514Y52500002D01*
X3861514Y52500002D02*
X3785323Y52535716D01*
X3785323Y52535716D02*
X3671038Y52535716D01*
X3671038Y52535716D02*
X3594847Y52500002D01*
X3594847Y52500002D02*
X3556752Y52464288D01*
X3556752Y52464288D02*
X3518657Y52392859D01*
X3518657Y52392859D02*
X3518657Y52107145D01*
X3937704Y52750002D02*
X3937704Y53178573D01*
X3137704Y52964288D02*
X3937704Y52964288D01*
X3175800Y53392860D02*
X3137704Y53500002D01*
X3137704Y53500002D02*
X3137704Y53678574D01*
X3137704Y53678574D02*
X3175800Y53750002D01*
X3175800Y53750002D02*
X3213895Y53785717D01*
X3213895Y53785717D02*
X3290085Y53821431D01*
X3290085Y53821431D02*
X3366276Y53821431D01*
X3366276Y53821431D02*
X3442466Y53785717D01*
X3442466Y53785717D02*
X3480561Y53750002D01*
X3480561Y53750002D02*
X3518657Y53678574D01*
X3518657Y53678574D02*
X3556752Y53535717D01*
X3556752Y53535717D02*
X3594847Y53464288D01*
X3594847Y53464288D02*
X3632942Y53428574D01*
X3632942Y53428574D02*
X3709133Y53392860D01*
X3709133Y53392860D02*
X3785323Y53392860D01*
X3785323Y53392860D02*
X3861514Y53428574D01*
X3861514Y53428574D02*
X3899609Y53464288D01*
X3899609Y53464288D02*
X3937704Y53535717D01*
X3937704Y53535717D02*
X3937704Y53714288D01*
X3937704Y53714288D02*
X3899609Y53821431D01*
X3899609Y55107146D02*
X3937704Y55035717D01*
X3937704Y55035717D02*
X3937704Y54928575D01*
X3937704Y54928575D02*
X3899609Y54821432D01*
X3899609Y54821432D02*
X3823419Y54750003D01*
X3823419Y54750003D02*
X3747228Y54714289D01*
X3747228Y54714289D02*
X3594847Y54678575D01*
X3594847Y54678575D02*
X3480561Y54678575D01*
X3480561Y54678575D02*
X3328180Y54714289D01*
X3328180Y54714289D02*
X3251990Y54750003D01*
X3251990Y54750003D02*
X3175800Y54821432D01*
X3175800Y54821432D02*
X3137704Y54928575D01*
X3137704Y54928575D02*
X3137704Y55000003D01*
X3137704Y55000003D02*
X3175800Y55107146D01*
X3175800Y55107146D02*
X3213895Y55142860D01*
X3213895Y55142860D02*
X3480561Y55142860D01*
X3480561Y55142860D02*
X3480561Y55000003D01*
X3137704Y55464289D02*
X3937704Y55464289D01*
X3937704Y55464289D02*
X3137704Y55892860D01*
X3137704Y55892860D02*
X3937704Y55892860D01*
X3137704Y56250003D02*
X3937704Y56250003D01*
X3937704Y56250003D02*
X3937704Y56428574D01*
X3937704Y56428574D02*
X3899609Y56535717D01*
X3899609Y56535717D02*
X3823419Y56607146D01*
X3823419Y56607146D02*
X3747228Y56642860D01*
X3747228Y56642860D02*
X3594847Y56678574D01*
X3594847Y56678574D02*
X3480561Y56678574D01*
X3480561Y56678574D02*
X3328180Y56642860D01*
X3328180Y56642860D02*
X3251990Y56607146D01*
X3251990Y56607146D02*
X3175800Y56535717D01*
X3175800Y56535717D02*
X3137704Y56428574D01*
X3137704Y56428574D02*
X3137704Y56250003D01*
D13*
X29923857Y26078572D02*
X31123857Y26078572D01*
X29923857Y26764286D02*
X30609571Y26250000D01*
X31123857Y26764286D02*
X30438142Y26078572D01*
X31123857Y27164286D02*
X29923857Y27964286D01*
X31123857Y27964286D02*
X29923857Y27164286D01*
X29923857Y28421429D02*
X31123857Y28421429D01*
X29923857Y29107143D02*
X30609571Y28592857D01*
X31123857Y29107143D02*
X30438142Y28421429D01*
X29923857Y29621429D02*
X31123857Y29621429D01*
X31123857Y29621429D02*
X30266714Y30021429D01*
X30266714Y30021429D02*
X31123857Y30421429D01*
X31123857Y30421429D02*
X29923857Y30421429D01*
X28620428Y12964289D02*
X28620428Y13364289D01*
X27991857Y13535717D02*
X27991857Y12964289D01*
X27991857Y12964289D02*
X29191857Y12964289D01*
X29191857Y12964289D02*
X29191857Y13535717D01*
X28049000Y13992860D02*
X27991857Y14164288D01*
X27991857Y14164288D02*
X27991857Y14450003D01*
X27991857Y14450003D02*
X28049000Y14564288D01*
X28049000Y14564288D02*
X28106142Y14621431D01*
X28106142Y14621431D02*
X28220428Y14678574D01*
X28220428Y14678574D02*
X28334714Y14678574D01*
X28334714Y14678574D02*
X28449000Y14621431D01*
X28449000Y14621431D02*
X28506142Y14564288D01*
X28506142Y14564288D02*
X28563285Y14450003D01*
X28563285Y14450003D02*
X28620428Y14221431D01*
X28620428Y14221431D02*
X28677571Y14107146D01*
X28677571Y14107146D02*
X28734714Y14050003D01*
X28734714Y14050003D02*
X28849000Y13992860D01*
X28849000Y13992860D02*
X28963285Y13992860D01*
X28963285Y13992860D02*
X29077571Y14050003D01*
X29077571Y14050003D02*
X29134714Y14107146D01*
X29134714Y14107146D02*
X29191857Y14221431D01*
X29191857Y14221431D02*
X29191857Y14507146D01*
X29191857Y14507146D02*
X29134714Y14678574D01*
X27991857Y15192860D02*
X29191857Y15192860D01*
X29191857Y15192860D02*
X29191857Y15650003D01*
X29191857Y15650003D02*
X29134714Y15764288D01*
X29134714Y15764288D02*
X29077571Y15821431D01*
X29077571Y15821431D02*
X28963285Y15878574D01*
X28963285Y15878574D02*
X28791857Y15878574D01*
X28791857Y15878574D02*
X28677571Y15821431D01*
X28677571Y15821431D02*
X28620428Y15764288D01*
X28620428Y15764288D02*
X28563285Y15650003D01*
X28563285Y15650003D02*
X28563285Y15192860D01*
X29191857Y16278574D02*
X29191857Y17021431D01*
X29191857Y17021431D02*
X28734714Y16621431D01*
X28734714Y16621431D02*
X28734714Y16792860D01*
X28734714Y16792860D02*
X28677571Y16907145D01*
X28677571Y16907145D02*
X28620428Y16964288D01*
X28620428Y16964288D02*
X28506142Y17021431D01*
X28506142Y17021431D02*
X28220428Y17021431D01*
X28220428Y17021431D02*
X28106142Y16964288D01*
X28106142Y16964288D02*
X28049000Y16907145D01*
X28049000Y16907145D02*
X27991857Y16792860D01*
X27991857Y16792860D02*
X27991857Y16450003D01*
X27991857Y16450003D02*
X28049000Y16335717D01*
X28049000Y16335717D02*
X28106142Y16278574D01*
X29077571Y17478574D02*
X29134714Y17535717D01*
X29134714Y17535717D02*
X29191857Y17650002D01*
X29191857Y17650002D02*
X29191857Y17935717D01*
X29191857Y17935717D02*
X29134714Y18050002D01*
X29134714Y18050002D02*
X29077571Y18107145D01*
X29077571Y18107145D02*
X28963285Y18164288D01*
X28963285Y18164288D02*
X28849000Y18164288D01*
X28849000Y18164288D02*
X28677571Y18107145D01*
X28677571Y18107145D02*
X27991857Y17421431D01*
X27991857Y17421431D02*
X27991857Y18164288D01*
X27991857Y19592860D02*
X29191857Y19592860D01*
X28734714Y19592860D02*
X28791857Y19707145D01*
X28791857Y19707145D02*
X28791857Y19935717D01*
X28791857Y19935717D02*
X28734714Y20050003D01*
X28734714Y20050003D02*
X28677571Y20107145D01*
X28677571Y20107145D02*
X28563285Y20164288D01*
X28563285Y20164288D02*
X28220428Y20164288D01*
X28220428Y20164288D02*
X28106142Y20107145D01*
X28106142Y20107145D02*
X28049000Y20050003D01*
X28049000Y20050003D02*
X27991857Y19935717D01*
X27991857Y19935717D02*
X27991857Y19707145D01*
X27991857Y19707145D02*
X28049000Y19592860D01*
X27991857Y21192859D02*
X28620428Y21192859D01*
X28620428Y21192859D02*
X28734714Y21135717D01*
X28734714Y21135717D02*
X28791857Y21021431D01*
X28791857Y21021431D02*
X28791857Y20792859D01*
X28791857Y20792859D02*
X28734714Y20678574D01*
X28049000Y21192859D02*
X27991857Y21078574D01*
X27991857Y21078574D02*
X27991857Y20792859D01*
X27991857Y20792859D02*
X28049000Y20678574D01*
X28049000Y20678574D02*
X28163285Y20621431D01*
X28163285Y20621431D02*
X28277571Y20621431D01*
X28277571Y20621431D02*
X28391857Y20678574D01*
X28391857Y20678574D02*
X28449000Y20792859D01*
X28449000Y20792859D02*
X28449000Y21078574D01*
X28449000Y21078574D02*
X28506142Y21192859D01*
X28791857Y21592859D02*
X28791857Y22050002D01*
X29191857Y21764288D02*
X28163285Y21764288D01*
X28163285Y21764288D02*
X28049000Y21821431D01*
X28049000Y21821431D02*
X27991857Y21935716D01*
X27991857Y21935716D02*
X27991857Y22050002D01*
X28791857Y22278573D02*
X28791857Y22735716D01*
X29191857Y22450002D02*
X28163285Y22450002D01*
X28163285Y22450002D02*
X28049000Y22507145D01*
X28049000Y22507145D02*
X27991857Y22621430D01*
X27991857Y22621430D02*
X27991857Y22735716D01*
X28049000Y23592859D02*
X27991857Y23478573D01*
X27991857Y23478573D02*
X27991857Y23250001D01*
X27991857Y23250001D02*
X28049000Y23135716D01*
X28049000Y23135716D02*
X28163285Y23078573D01*
X28163285Y23078573D02*
X28620428Y23078573D01*
X28620428Y23078573D02*
X28734714Y23135716D01*
X28734714Y23135716D02*
X28791857Y23250001D01*
X28791857Y23250001D02*
X28791857Y23478573D01*
X28791857Y23478573D02*
X28734714Y23592859D01*
X28734714Y23592859D02*
X28620428Y23650001D01*
X28620428Y23650001D02*
X28506142Y23650001D01*
X28506142Y23650001D02*
X28391857Y23078573D01*
X27991857Y24164287D02*
X28791857Y24164287D01*
X28563285Y24164287D02*
X28677571Y24221430D01*
X28677571Y24221430D02*
X28734714Y24278572D01*
X28734714Y24278572D02*
X28791857Y24392858D01*
X28791857Y24392858D02*
X28791857Y24507144D01*
X28791857Y24792858D02*
X27991857Y25078572D01*
X28791857Y25364287D02*
X27991857Y25078572D01*
X27991857Y25078572D02*
X27706142Y24964287D01*
X27706142Y24964287D02*
X27649000Y24907144D01*
X27649000Y24907144D02*
X27591857Y24792858D01*
X27991857Y26735716D02*
X28791857Y26735716D01*
X28677571Y26735716D02*
X28734714Y26792859D01*
X28734714Y26792859D02*
X28791857Y26907144D01*
X28791857Y26907144D02*
X28791857Y27078573D01*
X28791857Y27078573D02*
X28734714Y27192859D01*
X28734714Y27192859D02*
X28620428Y27250001D01*
X28620428Y27250001D02*
X27991857Y27250001D01*
X28620428Y27250001D02*
X28734714Y27307144D01*
X28734714Y27307144D02*
X28791857Y27421430D01*
X28791857Y27421430D02*
X28791857Y27592859D01*
X28791857Y27592859D02*
X28734714Y27707144D01*
X28734714Y27707144D02*
X28620428Y27764287D01*
X28620428Y27764287D02*
X27991857Y27764287D01*
X27991857Y28850001D02*
X28620428Y28850001D01*
X28620428Y28850001D02*
X28734714Y28792859D01*
X28734714Y28792859D02*
X28791857Y28678573D01*
X28791857Y28678573D02*
X28791857Y28450001D01*
X28791857Y28450001D02*
X28734714Y28335716D01*
X28049000Y28850001D02*
X27991857Y28735716D01*
X27991857Y28735716D02*
X27991857Y28450001D01*
X27991857Y28450001D02*
X28049000Y28335716D01*
X28049000Y28335716D02*
X28163285Y28278573D01*
X28163285Y28278573D02*
X28277571Y28278573D01*
X28277571Y28278573D02*
X28391857Y28335716D01*
X28391857Y28335716D02*
X28449000Y28450001D01*
X28449000Y28450001D02*
X28449000Y28735716D01*
X28449000Y28735716D02*
X28506142Y28850001D01*
X28791857Y29421430D02*
X27991857Y29421430D01*
X28677571Y29421430D02*
X28734714Y29478573D01*
X28734714Y29478573D02*
X28791857Y29592858D01*
X28791857Y29592858D02*
X28791857Y29764287D01*
X28791857Y29764287D02*
X28734714Y29878573D01*
X28734714Y29878573D02*
X28620428Y29935715D01*
X28620428Y29935715D02*
X27991857Y29935715D01*
X27991857Y31021429D02*
X28620428Y31021429D01*
X28620428Y31021429D02*
X28734714Y30964287D01*
X28734714Y30964287D02*
X28791857Y30850001D01*
X28791857Y30850001D02*
X28791857Y30621429D01*
X28791857Y30621429D02*
X28734714Y30507144D01*
X28049000Y31021429D02*
X27991857Y30907144D01*
X27991857Y30907144D02*
X27991857Y30621429D01*
X27991857Y30621429D02*
X28049000Y30507144D01*
X28049000Y30507144D02*
X28163285Y30450001D01*
X28163285Y30450001D02*
X28277571Y30450001D01*
X28277571Y30450001D02*
X28391857Y30507144D01*
X28391857Y30507144D02*
X28449000Y30621429D01*
X28449000Y30621429D02*
X28449000Y30907144D01*
X28449000Y30907144D02*
X28506142Y31021429D01*
X28791857Y32107143D02*
X27820428Y32107143D01*
X27820428Y32107143D02*
X27706142Y32050001D01*
X27706142Y32050001D02*
X27649000Y31992858D01*
X27649000Y31992858D02*
X27591857Y31878572D01*
X27591857Y31878572D02*
X27591857Y31707143D01*
X27591857Y31707143D02*
X27649000Y31592858D01*
X28049000Y32107143D02*
X27991857Y31992858D01*
X27991857Y31992858D02*
X27991857Y31764286D01*
X27991857Y31764286D02*
X28049000Y31650001D01*
X28049000Y31650001D02*
X28106142Y31592858D01*
X28106142Y31592858D02*
X28220428Y31535715D01*
X28220428Y31535715D02*
X28563285Y31535715D01*
X28563285Y31535715D02*
X28677571Y31592858D01*
X28677571Y31592858D02*
X28734714Y31650001D01*
X28734714Y31650001D02*
X28791857Y31764286D01*
X28791857Y31764286D02*
X28791857Y31992858D01*
X28791857Y31992858D02*
X28734714Y32107143D01*
X28049000Y33135715D02*
X27991857Y33021429D01*
X27991857Y33021429D02*
X27991857Y32792857D01*
X27991857Y32792857D02*
X28049000Y32678572D01*
X28049000Y32678572D02*
X28163285Y32621429D01*
X28163285Y32621429D02*
X28620428Y32621429D01*
X28620428Y32621429D02*
X28734714Y32678572D01*
X28734714Y32678572D02*
X28791857Y32792857D01*
X28791857Y32792857D02*
X28791857Y33021429D01*
X28791857Y33021429D02*
X28734714Y33135715D01*
X28734714Y33135715D02*
X28620428Y33192857D01*
X28620428Y33192857D02*
X28506142Y33192857D01*
X28506142Y33192857D02*
X28391857Y32621429D01*
X27991857Y33707143D02*
X28791857Y33707143D01*
X28677571Y33707143D02*
X28734714Y33764286D01*
X28734714Y33764286D02*
X28791857Y33878571D01*
X28791857Y33878571D02*
X28791857Y34050000D01*
X28791857Y34050000D02*
X28734714Y34164286D01*
X28734714Y34164286D02*
X28620428Y34221428D01*
X28620428Y34221428D02*
X27991857Y34221428D01*
X28620428Y34221428D02*
X28734714Y34278571D01*
X28734714Y34278571D02*
X28791857Y34392857D01*
X28791857Y34392857D02*
X28791857Y34564286D01*
X28791857Y34564286D02*
X28734714Y34678571D01*
X28734714Y34678571D02*
X28620428Y34735714D01*
X28620428Y34735714D02*
X27991857Y34735714D01*
X28049000Y35764286D02*
X27991857Y35650000D01*
X27991857Y35650000D02*
X27991857Y35421428D01*
X27991857Y35421428D02*
X28049000Y35307143D01*
X28049000Y35307143D02*
X28163285Y35250000D01*
X28163285Y35250000D02*
X28620428Y35250000D01*
X28620428Y35250000D02*
X28734714Y35307143D01*
X28734714Y35307143D02*
X28791857Y35421428D01*
X28791857Y35421428D02*
X28791857Y35650000D01*
X28791857Y35650000D02*
X28734714Y35764286D01*
X28734714Y35764286D02*
X28620428Y35821428D01*
X28620428Y35821428D02*
X28506142Y35821428D01*
X28506142Y35821428D02*
X28391857Y35250000D01*
X28791857Y36335714D02*
X27991857Y36335714D01*
X28677571Y36335714D02*
X28734714Y36392857D01*
X28734714Y36392857D02*
X28791857Y36507142D01*
X28791857Y36507142D02*
X28791857Y36678571D01*
X28791857Y36678571D02*
X28734714Y36792857D01*
X28734714Y36792857D02*
X28620428Y36849999D01*
X28620428Y36849999D02*
X27991857Y36849999D01*
X28791857Y37249999D02*
X28791857Y37707142D01*
X29191857Y37421428D02*
X28163285Y37421428D01*
X28163285Y37421428D02*
X28049000Y37478571D01*
X28049000Y37478571D02*
X27991857Y37592856D01*
X27991857Y37592856D02*
X27991857Y37707142D01*
X27991857Y39021428D02*
X29191857Y39021428D01*
X28734714Y39021428D02*
X28791857Y39135713D01*
X28791857Y39135713D02*
X28791857Y39364285D01*
X28791857Y39364285D02*
X28734714Y39478571D01*
X28734714Y39478571D02*
X28677571Y39535713D01*
X28677571Y39535713D02*
X28563285Y39592856D01*
X28563285Y39592856D02*
X28220428Y39592856D01*
X28220428Y39592856D02*
X28106142Y39535713D01*
X28106142Y39535713D02*
X28049000Y39478571D01*
X28049000Y39478571D02*
X27991857Y39364285D01*
X27991857Y39364285D02*
X27991857Y39135713D01*
X27991857Y39135713D02*
X28049000Y39021428D01*
X27991857Y40278570D02*
X28049000Y40164285D01*
X28049000Y40164285D02*
X28106142Y40107142D01*
X28106142Y40107142D02*
X28220428Y40049999D01*
X28220428Y40049999D02*
X28563285Y40049999D01*
X28563285Y40049999D02*
X28677571Y40107142D01*
X28677571Y40107142D02*
X28734714Y40164285D01*
X28734714Y40164285D02*
X28791857Y40278570D01*
X28791857Y40278570D02*
X28791857Y40449999D01*
X28791857Y40449999D02*
X28734714Y40564285D01*
X28734714Y40564285D02*
X28677571Y40621427D01*
X28677571Y40621427D02*
X28563285Y40678570D01*
X28563285Y40678570D02*
X28220428Y40678570D01*
X28220428Y40678570D02*
X28106142Y40621427D01*
X28106142Y40621427D02*
X28049000Y40564285D01*
X28049000Y40564285D02*
X27991857Y40449999D01*
X27991857Y40449999D02*
X27991857Y40278570D01*
X27991857Y41707141D02*
X28620428Y41707141D01*
X28620428Y41707141D02*
X28734714Y41649999D01*
X28734714Y41649999D02*
X28791857Y41535713D01*
X28791857Y41535713D02*
X28791857Y41307141D01*
X28791857Y41307141D02*
X28734714Y41192856D01*
X28049000Y41707141D02*
X27991857Y41592856D01*
X27991857Y41592856D02*
X27991857Y41307141D01*
X27991857Y41307141D02*
X28049000Y41192856D01*
X28049000Y41192856D02*
X28163285Y41135713D01*
X28163285Y41135713D02*
X28277571Y41135713D01*
X28277571Y41135713D02*
X28391857Y41192856D01*
X28391857Y41192856D02*
X28449000Y41307141D01*
X28449000Y41307141D02*
X28449000Y41592856D01*
X28449000Y41592856D02*
X28506142Y41707141D01*
X27991857Y42278570D02*
X28791857Y42278570D01*
X28563285Y42278570D02*
X28677571Y42335713D01*
X28677571Y42335713D02*
X28734714Y42392855D01*
X28734714Y42392855D02*
X28791857Y42507141D01*
X28791857Y42507141D02*
X28791857Y42621427D01*
X27991857Y43535712D02*
X29191857Y43535712D01*
X28049000Y43535712D02*
X27991857Y43421427D01*
X27991857Y43421427D02*
X27991857Y43192855D01*
X27991857Y43192855D02*
X28049000Y43078570D01*
X28049000Y43078570D02*
X28106142Y43021427D01*
X28106142Y43021427D02*
X28220428Y42964284D01*
X28220428Y42964284D02*
X28563285Y42964284D01*
X28563285Y42964284D02*
X28677571Y43021427D01*
X28677571Y43021427D02*
X28734714Y43078570D01*
X28734714Y43078570D02*
X28791857Y43192855D01*
X28791857Y43192855D02*
X28791857Y43421427D01*
X28791857Y43421427D02*
X28734714Y43535712D01*
D14*
X15176318Y27425333D02*
X16083461Y27425333D01*
X16083461Y27425333D02*
X16264889Y27485810D01*
X16264889Y27485810D02*
X16385842Y27606762D01*
X16385842Y27606762D02*
X16446318Y27788191D01*
X16446318Y27788191D02*
X16446318Y27909143D01*
X15599651Y26276286D02*
X16446318Y26276286D01*
X15115842Y26578667D02*
X16022984Y26881048D01*
X16022984Y26881048D02*
X16022984Y26094857D01*
D15*
%TO.C,R13*%
X29162779Y6740000D02*
X28837221Y6740000D01*
X29162779Y7760000D02*
X28837221Y7760000D01*
%TO.C,R29*%
X22837221Y7760000D02*
X23162779Y7760000D01*
X22837221Y6740000D02*
X23162779Y6740000D01*
%TO.C,R30*%
X23162779Y8240000D02*
X22837221Y8240000D01*
X23162779Y9260000D02*
X22837221Y9260000D01*
%TO.C,R14*%
X28837221Y9260000D02*
X29162779Y9260000D01*
X28837221Y8240000D02*
X29162779Y8240000D01*
D16*
%TO.C,J4*%
X7697000Y19652000D02*
X7697000Y19652000D01*
X7697000Y19652000D02*
X7697000Y19652000D01*
X7697000Y19652000D02*
X10447000Y19652000D01*
X7697000Y19652000D02*
X7697000Y34352000D01*
X10447000Y19652000D02*
X7697000Y19652000D01*
X10447000Y19652000D02*
X10447000Y19652000D01*
X13697000Y19652000D02*
X13697000Y19652000D01*
X13697000Y19652000D02*
X20447000Y19652000D01*
X20447000Y19652000D02*
X13697000Y19652000D01*
X20447000Y19652000D02*
X20447000Y19652000D01*
D12*
X23947000Y29252000D02*
X23947000Y29252000D01*
X24047000Y29252000D02*
X24047000Y29252000D01*
X24047000Y29252000D02*
X24047000Y29252000D01*
D16*
X22197000Y30252000D02*
X22197000Y30252000D01*
X22197000Y30252000D02*
X22197000Y32502000D01*
X22197000Y32502000D02*
X22197000Y30252000D01*
X22197000Y32502000D02*
X22197000Y32502000D01*
X7697000Y34352000D02*
X7697000Y19652000D01*
X7697000Y34352000D02*
X7697000Y34352000D01*
X7697000Y34352000D02*
X7697000Y34352000D01*
X7697000Y34352000D02*
X10447000Y34352000D01*
X10447000Y34352000D02*
X7697000Y34352000D01*
X10447000Y34352000D02*
X10447000Y34352000D01*
X13697000Y34352000D02*
X13697000Y34352000D01*
X13697000Y34352000D02*
X20447000Y34352000D01*
X20447000Y34352000D02*
X13697000Y34352000D01*
X20447000Y34352000D02*
X20447000Y34352000D01*
D12*
X24047000Y29252000D02*
G75*
G03*
X23947000Y29252000I-50000J0D01*
G01*
X23947000Y29252000D02*
G75*
G03*
X24047000Y29252000I50000J0D01*
G01*
X23947000Y29252000D02*
G75*
G03*
X24047000Y29252000I50000J0D01*
G01*
D15*
%TO.C,U4*%
X56227200Y21261000D02*
X55757200Y21261000D01*
X55757200Y21261000D02*
X55757200Y22361000D01*
X49797200Y21261000D02*
X49797200Y24091000D01*
X49327200Y21261000D02*
X49797200Y21261000D01*
X56227200Y19761000D02*
X56227200Y21261000D01*
X49327200Y19761000D02*
X49327200Y21261000D01*
%TD*%
%LPC*%
D17*
%TO.C,J16*%
X3000000Y2750000D03*
%TD*%
%TO.C,J15*%
X10500000Y2750000D03*
%TD*%
D18*
%TO.C,J9*%
X22500000Y10710000D03*
X25000000Y10710000D03*
X27000000Y10710000D03*
X29500000Y10710000D03*
D19*
X19000000Y8000000D03*
X33000000Y8000000D03*
%TD*%
D20*
%TO.C,MK2*%
X42250000Y42750000D03*
%TD*%
%TO.C,MK1*%
X14250000Y42750000D03*
%TD*%
D21*
%TO.C,J1*%
X1750000Y55750000D03*
D22*
X1750000Y53210000D03*
X1750000Y50670000D03*
X1750000Y48130000D03*
X1750000Y45590000D03*
X1750000Y43050000D03*
%TD*%
D23*
%TO.C,SW4*%
X16250000Y51080000D03*
X11250000Y51080000D03*
%TD*%
D24*
%TO.C,SW3*%
X47990000Y52260000D03*
X55000000Y52260000D03*
D25*
X49240000Y54750000D03*
X53740000Y54750000D03*
%TD*%
D21*
%TO.C,J6*%
X35650000Y29550000D03*
D22*
X35650000Y27010000D03*
X35650000Y24470000D03*
%TD*%
D26*
%TO.C,U5*%
X35500000Y4440000D03*
X35500000Y12560000D03*
X17000000Y4440000D03*
X17000000Y12560000D03*
%TD*%
D27*
%TO.C,P1*%
X5640000Y52840000D03*
X6656000Y47760000D03*
X4624000Y47760000D03*
%TD*%
D28*
%TO.C,J8*%
X7536000Y14770000D03*
D29*
X7536000Y12270000D03*
X7536000Y9770000D03*
%TD*%
D28*
%TO.C,J7*%
X2664000Y14770000D03*
D29*
X2664000Y12270000D03*
X2664000Y9770000D03*
%TD*%
D21*
%TO.C,J5*%
X55013400Y48012800D03*
D22*
X55013400Y45472800D03*
%TD*%
D30*
%TO.C,SW2*%
X30560000Y55640000D03*
D31*
X28020000Y55640000D03*
X25480000Y55640000D03*
X25480000Y48020000D03*
X28020000Y48020000D03*
X30560000Y48020000D03*
%TD*%
D32*
%TO.C,J10*%
X43691800Y9504550D03*
D33*
X50891800Y9504550D03*
D34*
X40541800Y3504550D03*
X54041800Y3504550D03*
%TD*%
D30*
%TO.C,C13*%
X13992400Y9919112D03*
D35*
X13992400Y7419112D03*
%TD*%
D21*
%TO.C,J12*%
X48384000Y45031000D03*
D22*
X48384000Y47571000D03*
%TD*%
D36*
%TO.C,FID4*%
X55750000Y750000D03*
%TD*%
%TO.C,FID5*%
X750000Y750000D03*
%TD*%
%TO.C,FID6*%
X55750000Y56750000D03*
%TD*%
D37*
%TO.C,R13*%
X29787500Y7250000D03*
X28212500Y7250000D03*
%TD*%
D38*
%TO.C,R29*%
X22212500Y7250000D03*
X23787500Y7250000D03*
%TD*%
D37*
%TO.C,R30*%
X23787500Y8750000D03*
X22212500Y8750000D03*
%TD*%
D38*
%TO.C,R14*%
X28212500Y8750000D03*
X29787500Y8750000D03*
%TD*%
D36*
%TO.C,J4*%
X11697000Y22052000D03*
X11697000Y30052000D03*
D39*
X22197000Y29252000D03*
X22197000Y28152000D03*
X22197000Y27052000D03*
X22197000Y25952000D03*
X22197000Y24852000D03*
X22197000Y23752000D03*
X22197000Y22652000D03*
X22197000Y21552000D03*
X22197000Y20452000D03*
D40*
X21697000Y19252000D03*
D41*
X21697000Y33852000D03*
D42*
X12097000Y34752000D03*
X12097000Y19252000D03*
%TD*%
D43*
%TO.C,U4*%
X50497200Y22991000D03*
X51637200Y22991000D03*
D44*
X52777200Y16691000D03*
D43*
X53917200Y22991000D03*
X55057200Y22991000D03*
%TD*%
%LPD*%
M02*
