%TF.GenerationSoftware,KiCad,Pcbnew,8.0.3*%
%TF.CreationDate,2024-09-27T14:44:27+02:00*%
%TF.ProjectId,KXKM_ESP32_battery_management_board,4b584b4d-5f45-4535-9033-325f62617474,3.2*%
%TF.SameCoordinates,PX623a7c0PY839b680*%
%TF.FileFunction,Legend,Bot*%
%TF.FilePolarity,Positive*%
%FSLAX46Y46*%
G04 Gerber Fmt 4.6, Leading zero omitted, Abs format (unit mm)*
G04 Created by KiCad (PCBNEW 8.0.3) date 2024-09-27 14:44:27*
%MOMM*%
%LPD*%
G01*
G04 APERTURE LIST*
G04 Aperture macros list*
%AMRoundRect*
0 Rectangle with rounded corners*
0 $1 Rounding radius*
0 $2 $3 $4 $5 $6 $7 $8 $9 X,Y pos of 4 corners*
0 Add a 4 corners polygon primitive as box body*
4,1,4,$2,$3,$4,$5,$6,$7,$8,$9,$2,$3,0*
0 Add four circle primitives for the rounded corners*
1,1,$1+$1,$2,$3*
1,1,$1+$1,$4,$5*
1,1,$1+$1,$6,$7*
1,1,$1+$1,$8,$9*
0 Add four rect primitives between the rounded corners*
20,1,$1+$1,$2,$3,$4,$5,0*
20,1,$1+$1,$4,$5,$6,$7,0*
20,1,$1+$1,$6,$7,$8,$9,0*
20,1,$1+$1,$8,$9,$2,$3,0*%
G04 Aperture macros list end*
%ADD10C,0.300000*%
%ADD11C,0.150000*%
%ADD12C,0.200000*%
%ADD13C,0.250000*%
%ADD14C,0.254000*%
%ADD15C,0.120000*%
%ADD16C,0.100000*%
%ADD17C,1.300000*%
%ADD18C,2.000000*%
%ADD19C,1.500000*%
%ADD20C,4.500880*%
%ADD21C,1.800000*%
%ADD22C,3.300000*%
%ADD23C,3.200000*%
%ADD24R,1.700000X1.700000*%
%ADD25O,1.700000X1.700000*%
%ADD26C,0.900000*%
%ADD27R,2.000000X2.000000*%
%ADD28C,0.990600*%
%ADD29RoundRect,0.250000X-0.725000X0.600000X-0.725000X-0.600000X0.725000X-0.600000X0.725000X0.600000X0*%
%ADD30O,1.950000X1.700000*%
%ADD31R,1.600000X1.600000*%
%ADD32O,1.600000X1.600000*%
%ADD33R,3.716000X3.716000*%
%ADD34C,3.716000*%
%ADD35O,1.200000X2.400000*%
%ADD36C,1.600000*%
%ADD37C,1.000000*%
%ADD38RoundRect,0.218750X0.218750X0.256250X-0.218750X0.256250X-0.218750X-0.256250X0.218750X-0.256250X0*%
%ADD39RoundRect,0.218750X-0.218750X-0.256250X0.218750X-0.256250X0.218750X0.256250X-0.218750X0.256250X0*%
%ADD40R,1.600000X0.700000*%
%ADD41R,1.400000X1.200000*%
%ADD42R,1.400000X1.600000*%
%ADD43R,2.200000X1.200000*%
%ADD44R,0.800000X2.200000*%
%ADD45R,5.800000X6.400000*%
G04 APERTURE END LIST*
D10*
X13071428Y5393100D02*
X11928571Y5393100D01*
X12499999Y4821672D02*
X12499999Y5964529D01*
X5571428Y5393100D02*
X4428571Y5393100D01*
D11*
X7964858Y17714287D02*
X8012477Y17761906D01*
X8012477Y17761906D02*
X8060096Y17857144D01*
X8060096Y17857144D02*
X8060096Y18095239D01*
X8060096Y18095239D02*
X8012477Y18190477D01*
X8012477Y18190477D02*
X7964858Y18238096D01*
X7964858Y18238096D02*
X7869620Y18285715D01*
X7869620Y18285715D02*
X7774382Y18285715D01*
X7774382Y18285715D02*
X7631525Y18238096D01*
X7631525Y18238096D02*
X7060096Y17666668D01*
X7060096Y17666668D02*
X7060096Y18285715D01*
X2230264Y18285715D02*
X2230264Y17714287D01*
X2230264Y18000001D02*
X3230264Y18000001D01*
X3230264Y18000001D02*
X3087407Y17904763D01*
X3087407Y17904763D02*
X2992169Y17809525D01*
X2992169Y17809525D02*
X2944550Y17714287D01*
D12*
X812400Y9585715D02*
X812400Y10500000D01*
X355257Y11985715D02*
X1555257Y11985715D01*
X1555257Y11985715D02*
X1555257Y12271429D01*
X1555257Y12271429D02*
X1498114Y12442858D01*
X1498114Y12442858D02*
X1383828Y12557143D01*
X1383828Y12557143D02*
X1269542Y12614286D01*
X1269542Y12614286D02*
X1040971Y12671429D01*
X1040971Y12671429D02*
X869542Y12671429D01*
X869542Y12671429D02*
X640971Y12614286D01*
X640971Y12614286D02*
X526685Y12557143D01*
X526685Y12557143D02*
X412400Y12442858D01*
X412400Y12442858D02*
X355257Y12271429D01*
X355257Y12271429D02*
X355257Y11985715D01*
X812400Y14100001D02*
X812400Y15014286D01*
X355257Y14557144D02*
X1269542Y14557144D01*
X6452752Y22680953D02*
X7452752Y22680953D01*
X7452752Y22680953D02*
X6738467Y23014286D01*
X6738467Y23014286D02*
X7452752Y23347619D01*
X7452752Y23347619D02*
X6452752Y23347619D01*
X6452752Y23823810D02*
X7119419Y23823810D01*
X7452752Y23823810D02*
X7405133Y23776191D01*
X7405133Y23776191D02*
X7357514Y23823810D01*
X7357514Y23823810D02*
X7405133Y23871429D01*
X7405133Y23871429D02*
X7452752Y23823810D01*
X7452752Y23823810D02*
X7357514Y23823810D01*
X6500372Y24728571D02*
X6452752Y24633333D01*
X6452752Y24633333D02*
X6452752Y24442857D01*
X6452752Y24442857D02*
X6500372Y24347619D01*
X6500372Y24347619D02*
X6547991Y24300000D01*
X6547991Y24300000D02*
X6643229Y24252381D01*
X6643229Y24252381D02*
X6928943Y24252381D01*
X6928943Y24252381D02*
X7024181Y24300000D01*
X7024181Y24300000D02*
X7071800Y24347619D01*
X7071800Y24347619D02*
X7119419Y24442857D01*
X7119419Y24442857D02*
X7119419Y24633333D01*
X7119419Y24633333D02*
X7071800Y24728571D01*
X6452752Y25157143D02*
X7119419Y25157143D01*
X6928943Y25157143D02*
X7024181Y25204762D01*
X7024181Y25204762D02*
X7071800Y25252381D01*
X7071800Y25252381D02*
X7119419Y25347619D01*
X7119419Y25347619D02*
X7119419Y25442857D01*
X6452752Y25919048D02*
X6500372Y25823810D01*
X6500372Y25823810D02*
X6547991Y25776191D01*
X6547991Y25776191D02*
X6643229Y25728572D01*
X6643229Y25728572D02*
X6928943Y25728572D01*
X6928943Y25728572D02*
X7024181Y25776191D01*
X7024181Y25776191D02*
X7071800Y25823810D01*
X7071800Y25823810D02*
X7119419Y25919048D01*
X7119419Y25919048D02*
X7119419Y26061905D01*
X7119419Y26061905D02*
X7071800Y26157143D01*
X7071800Y26157143D02*
X7024181Y26204762D01*
X7024181Y26204762D02*
X6928943Y26252381D01*
X6928943Y26252381D02*
X6643229Y26252381D01*
X6643229Y26252381D02*
X6547991Y26204762D01*
X6547991Y26204762D02*
X6500372Y26157143D01*
X6500372Y26157143D02*
X6452752Y26061905D01*
X6452752Y26061905D02*
X6452752Y25919048D01*
X6357514Y26442857D02*
X6357514Y27204762D01*
X6500372Y27395239D02*
X6452752Y27538096D01*
X6452752Y27538096D02*
X6452752Y27776191D01*
X6452752Y27776191D02*
X6500372Y27871429D01*
X6500372Y27871429D02*
X6547991Y27919048D01*
X6547991Y27919048D02*
X6643229Y27966667D01*
X6643229Y27966667D02*
X6738467Y27966667D01*
X6738467Y27966667D02*
X6833705Y27919048D01*
X6833705Y27919048D02*
X6881324Y27871429D01*
X6881324Y27871429D02*
X6928943Y27776191D01*
X6928943Y27776191D02*
X6976562Y27585715D01*
X6976562Y27585715D02*
X7024181Y27490477D01*
X7024181Y27490477D02*
X7071800Y27442858D01*
X7071800Y27442858D02*
X7167038Y27395239D01*
X7167038Y27395239D02*
X7262276Y27395239D01*
X7262276Y27395239D02*
X7357514Y27442858D01*
X7357514Y27442858D02*
X7405133Y27490477D01*
X7405133Y27490477D02*
X7452752Y27585715D01*
X7452752Y27585715D02*
X7452752Y27823810D01*
X7452752Y27823810D02*
X7405133Y27966667D01*
X6452752Y28395239D02*
X7452752Y28395239D01*
X7452752Y28395239D02*
X7452752Y28633334D01*
X7452752Y28633334D02*
X7405133Y28776191D01*
X7405133Y28776191D02*
X7309895Y28871429D01*
X7309895Y28871429D02*
X7214657Y28919048D01*
X7214657Y28919048D02*
X7024181Y28966667D01*
X7024181Y28966667D02*
X6881324Y28966667D01*
X6881324Y28966667D02*
X6690848Y28919048D01*
X6690848Y28919048D02*
X6595610Y28871429D01*
X6595610Y28871429D02*
X6500372Y28776191D01*
X6500372Y28776191D02*
X6452752Y28633334D01*
X6452752Y28633334D02*
X6452752Y28395239D01*
X4842808Y20252381D02*
X4842808Y19680953D01*
X4842808Y19966667D02*
X5842808Y19966667D01*
X5842808Y19966667D02*
X5699951Y19871429D01*
X5699951Y19871429D02*
X5604713Y19776191D01*
X5604713Y19776191D02*
X5557094Y19680953D01*
X4842808Y21204762D02*
X4842808Y20633334D01*
X4842808Y20919048D02*
X5842808Y20919048D01*
X5842808Y20919048D02*
X5699951Y20823810D01*
X5699951Y20823810D02*
X5604713Y20728572D01*
X5604713Y20728572D02*
X5557094Y20633334D01*
X5747570Y21585715D02*
X5795189Y21633334D01*
X5795189Y21633334D02*
X5842808Y21728572D01*
X5842808Y21728572D02*
X5842808Y21966667D01*
X5842808Y21966667D02*
X5795189Y22061905D01*
X5795189Y22061905D02*
X5747570Y22109524D01*
X5747570Y22109524D02*
X5652332Y22157143D01*
X5652332Y22157143D02*
X5557094Y22157143D01*
X5557094Y22157143D02*
X5414237Y22109524D01*
X5414237Y22109524D02*
X4842808Y21538096D01*
X4842808Y21538096D02*
X4842808Y22157143D01*
X5842808Y22871429D02*
X5128523Y22871429D01*
X5128523Y22871429D02*
X4985666Y22823810D01*
X4985666Y22823810D02*
X4890428Y22728572D01*
X4890428Y22728572D02*
X4842808Y22585715D01*
X4842808Y22585715D02*
X4842808Y22490477D01*
X5223761Y23347620D02*
X5223761Y24109524D01*
X5842808Y24442858D02*
X5842808Y25014286D01*
X4842808Y24728572D02*
X5842808Y24728572D01*
X4842808Y25347620D02*
X5842808Y25347620D01*
X5842808Y25347620D02*
X5842808Y25585715D01*
X5842808Y25585715D02*
X5795189Y25728572D01*
X5795189Y25728572D02*
X5699951Y25823810D01*
X5699951Y25823810D02*
X5604713Y25871429D01*
X5604713Y25871429D02*
X5414237Y25919048D01*
X5414237Y25919048D02*
X5271380Y25919048D01*
X5271380Y25919048D02*
X5080904Y25871429D01*
X5080904Y25871429D02*
X4985666Y25823810D01*
X4985666Y25823810D02*
X4890428Y25728572D01*
X4890428Y25728572D02*
X4842808Y25585715D01*
X4842808Y25585715D02*
X4842808Y25347620D01*
X5128523Y26300001D02*
X5128523Y26776191D01*
X4842808Y26204763D02*
X5842808Y26538096D01*
X5842808Y26538096D02*
X4842808Y26871429D01*
X4842808Y27776191D02*
X5318999Y27442858D01*
X4842808Y27204763D02*
X5842808Y27204763D01*
X5842808Y27204763D02*
X5842808Y27585715D01*
X5842808Y27585715D02*
X5795189Y27680953D01*
X5795189Y27680953D02*
X5747570Y27728572D01*
X5747570Y27728572D02*
X5652332Y27776191D01*
X5652332Y27776191D02*
X5509475Y27776191D01*
X5509475Y27776191D02*
X5414237Y27728572D01*
X5414237Y27728572D02*
X5366618Y27680953D01*
X5366618Y27680953D02*
X5318999Y27585715D01*
X5318999Y27585715D02*
X5318999Y27204763D01*
X5223761Y28204763D02*
X5223761Y28966667D01*
X4842808Y30014286D02*
X5318999Y29680953D01*
X4842808Y29442858D02*
X5842808Y29442858D01*
X5842808Y29442858D02*
X5842808Y29823810D01*
X5842808Y29823810D02*
X5795189Y29919048D01*
X5795189Y29919048D02*
X5747570Y29966667D01*
X5747570Y29966667D02*
X5652332Y30014286D01*
X5652332Y30014286D02*
X5509475Y30014286D01*
X5509475Y30014286D02*
X5414237Y29966667D01*
X5414237Y29966667D02*
X5366618Y29919048D01*
X5366618Y29919048D02*
X5318999Y29823810D01*
X5318999Y29823810D02*
X5318999Y29442858D01*
X5842808Y30633334D02*
X5842808Y30728572D01*
X5842808Y30728572D02*
X5795189Y30823810D01*
X5795189Y30823810D02*
X5747570Y30871429D01*
X5747570Y30871429D02*
X5652332Y30919048D01*
X5652332Y30919048D02*
X5461856Y30966667D01*
X5461856Y30966667D02*
X5223761Y30966667D01*
X5223761Y30966667D02*
X5033285Y30919048D01*
X5033285Y30919048D02*
X4938047Y30871429D01*
X4938047Y30871429D02*
X4890428Y30823810D01*
X4890428Y30823810D02*
X4842808Y30728572D01*
X4842808Y30728572D02*
X4842808Y30633334D01*
X4842808Y30633334D02*
X4890428Y30538096D01*
X4890428Y30538096D02*
X4938047Y30490477D01*
X4938047Y30490477D02*
X5033285Y30442858D01*
X5033285Y30442858D02*
X5223761Y30395239D01*
X5223761Y30395239D02*
X5461856Y30395239D01*
X5461856Y30395239D02*
X5652332Y30442858D01*
X5652332Y30442858D02*
X5747570Y30490477D01*
X5747570Y30490477D02*
X5795189Y30538096D01*
X5795189Y30538096D02*
X5842808Y30633334D01*
X4842808Y31919048D02*
X4842808Y31347620D01*
X4842808Y31633334D02*
X5842808Y31633334D01*
X5842808Y31633334D02*
X5699951Y31538096D01*
X5699951Y31538096D02*
X5604713Y31442858D01*
X5604713Y31442858D02*
X5557094Y31347620D01*
X26606991Y16209523D02*
X26559372Y16161904D01*
X26559372Y16161904D02*
X26511752Y16019047D01*
X26511752Y16019047D02*
X26511752Y15923809D01*
X26511752Y15923809D02*
X26559372Y15780952D01*
X26559372Y15780952D02*
X26654610Y15685714D01*
X26654610Y15685714D02*
X26749848Y15638095D01*
X26749848Y15638095D02*
X26940324Y15590476D01*
X26940324Y15590476D02*
X27083181Y15590476D01*
X27083181Y15590476D02*
X27273657Y15638095D01*
X27273657Y15638095D02*
X27368895Y15685714D01*
X27368895Y15685714D02*
X27464133Y15780952D01*
X27464133Y15780952D02*
X27511752Y15923809D01*
X27511752Y15923809D02*
X27511752Y16019047D01*
X27511752Y16019047D02*
X27464133Y16161904D01*
X27464133Y16161904D02*
X27416514Y16209523D01*
X26606991Y16638095D02*
X26559372Y16685714D01*
X26559372Y16685714D02*
X26511752Y16638095D01*
X26511752Y16638095D02*
X26559372Y16590476D01*
X26559372Y16590476D02*
X26606991Y16638095D01*
X26606991Y16638095D02*
X26511752Y16638095D01*
X26559372Y17828571D02*
X26511752Y17971428D01*
X26511752Y17971428D02*
X26511752Y18209523D01*
X26511752Y18209523D02*
X26559372Y18304761D01*
X26559372Y18304761D02*
X26606991Y18352380D01*
X26606991Y18352380D02*
X26702229Y18399999D01*
X26702229Y18399999D02*
X26797467Y18399999D01*
X26797467Y18399999D02*
X26892705Y18352380D01*
X26892705Y18352380D02*
X26940324Y18304761D01*
X26940324Y18304761D02*
X26987943Y18209523D01*
X26987943Y18209523D02*
X27035562Y18019047D01*
X27035562Y18019047D02*
X27083181Y17923809D01*
X27083181Y17923809D02*
X27130800Y17876190D01*
X27130800Y17876190D02*
X27226038Y17828571D01*
X27226038Y17828571D02*
X27321276Y17828571D01*
X27321276Y17828571D02*
X27416514Y17876190D01*
X27416514Y17876190D02*
X27464133Y17923809D01*
X27464133Y17923809D02*
X27511752Y18019047D01*
X27511752Y18019047D02*
X27511752Y18257142D01*
X27511752Y18257142D02*
X27464133Y18399999D01*
X26511752Y19257142D02*
X27035562Y19257142D01*
X27035562Y19257142D02*
X27130800Y19209523D01*
X27130800Y19209523D02*
X27178419Y19114285D01*
X27178419Y19114285D02*
X27178419Y18923809D01*
X27178419Y18923809D02*
X27130800Y18828571D01*
X26559372Y19257142D02*
X26511752Y19161904D01*
X26511752Y19161904D02*
X26511752Y18923809D01*
X26511752Y18923809D02*
X26559372Y18828571D01*
X26559372Y18828571D02*
X26654610Y18780952D01*
X26654610Y18780952D02*
X26749848Y18780952D01*
X26749848Y18780952D02*
X26845086Y18828571D01*
X26845086Y18828571D02*
X26892705Y18923809D01*
X26892705Y18923809D02*
X26892705Y19161904D01*
X26892705Y19161904D02*
X26940324Y19257142D01*
X26511752Y19733333D02*
X27178419Y19733333D01*
X27511752Y19733333D02*
X27464133Y19685714D01*
X27464133Y19685714D02*
X27416514Y19733333D01*
X27416514Y19733333D02*
X27464133Y19780952D01*
X27464133Y19780952D02*
X27511752Y19733333D01*
X27511752Y19733333D02*
X27416514Y19733333D01*
X26511752Y20352380D02*
X26559372Y20257142D01*
X26559372Y20257142D02*
X26654610Y20209523D01*
X26654610Y20209523D02*
X27511752Y20209523D01*
X26511752Y20876190D02*
X26559372Y20780952D01*
X26559372Y20780952D02*
X26654610Y20733333D01*
X26654610Y20733333D02*
X27511752Y20733333D01*
X26511752Y21685714D02*
X27035562Y21685714D01*
X27035562Y21685714D02*
X27130800Y21638095D01*
X27130800Y21638095D02*
X27178419Y21542857D01*
X27178419Y21542857D02*
X27178419Y21352381D01*
X27178419Y21352381D02*
X27130800Y21257143D01*
X26559372Y21685714D02*
X26511752Y21590476D01*
X26511752Y21590476D02*
X26511752Y21352381D01*
X26511752Y21352381D02*
X26559372Y21257143D01*
X26559372Y21257143D02*
X26654610Y21209524D01*
X26654610Y21209524D02*
X26749848Y21209524D01*
X26749848Y21209524D02*
X26845086Y21257143D01*
X26845086Y21257143D02*
X26892705Y21352381D01*
X26892705Y21352381D02*
X26892705Y21590476D01*
X26892705Y21590476D02*
X26940324Y21685714D01*
X27178419Y22161905D02*
X26511752Y22161905D01*
X27083181Y22161905D02*
X27130800Y22209524D01*
X27130800Y22209524D02*
X27178419Y22304762D01*
X27178419Y22304762D02*
X27178419Y22447619D01*
X27178419Y22447619D02*
X27130800Y22542857D01*
X27130800Y22542857D02*
X27035562Y22590476D01*
X27035562Y22590476D02*
X26511752Y22590476D01*
X27178419Y22923810D02*
X27178419Y23304762D01*
X27511752Y23066667D02*
X26654610Y23066667D01*
X26654610Y23066667D02*
X26559372Y23114286D01*
X26559372Y23114286D02*
X26511752Y23209524D01*
X26511752Y23209524D02*
X26511752Y23304762D01*
X27559372Y25114286D02*
X26273657Y24257144D01*
X27511752Y26066668D02*
X26511752Y26400001D01*
X26511752Y26400001D02*
X27511752Y26733334D01*
X26606991Y27066668D02*
X26559372Y27114287D01*
X26559372Y27114287D02*
X26511752Y27066668D01*
X26511752Y27066668D02*
X26559372Y27019049D01*
X26559372Y27019049D02*
X26606991Y27066668D01*
X26606991Y27066668D02*
X26511752Y27066668D01*
X26511752Y28304763D02*
X27511752Y28304763D01*
X27035562Y28304763D02*
X27035562Y28876191D01*
X26511752Y28876191D02*
X27511752Y28876191D01*
X26559372Y29733334D02*
X26511752Y29638096D01*
X26511752Y29638096D02*
X26511752Y29447620D01*
X26511752Y29447620D02*
X26559372Y29352382D01*
X26559372Y29352382D02*
X26654610Y29304763D01*
X26654610Y29304763D02*
X27035562Y29304763D01*
X27035562Y29304763D02*
X27130800Y29352382D01*
X27130800Y29352382D02*
X27178419Y29447620D01*
X27178419Y29447620D02*
X27178419Y29638096D01*
X27178419Y29638096D02*
X27130800Y29733334D01*
X27130800Y29733334D02*
X27035562Y29780953D01*
X27035562Y29780953D02*
X26940324Y29780953D01*
X26940324Y29780953D02*
X26845086Y29304763D01*
X27178419Y30209525D02*
X26511752Y30209525D01*
X27083181Y30209525D02*
X27130800Y30257144D01*
X27130800Y30257144D02*
X27178419Y30352382D01*
X27178419Y30352382D02*
X27178419Y30495239D01*
X27178419Y30495239D02*
X27130800Y30590477D01*
X27130800Y30590477D02*
X27035562Y30638096D01*
X27035562Y30638096D02*
X26511752Y30638096D01*
X26511752Y31114287D02*
X27178419Y31114287D01*
X26987943Y31114287D02*
X27083181Y31161906D01*
X27083181Y31161906D02*
X27130800Y31209525D01*
X27130800Y31209525D02*
X27178419Y31304763D01*
X27178419Y31304763D02*
X27178419Y31400001D01*
X27178419Y31638097D02*
X26511752Y31876192D01*
X27178419Y32114287D02*
X26511752Y31876192D01*
X26511752Y31876192D02*
X26273657Y31780954D01*
X26273657Y31780954D02*
X26226038Y31733335D01*
X26226038Y31733335D02*
X26178419Y31638097D01*
X27559372Y33971430D02*
X26273657Y33114288D01*
X27511752Y34923812D02*
X27511752Y35495240D01*
X26511752Y35209526D02*
X27511752Y35209526D01*
X26511752Y35971431D02*
X26559372Y35876193D01*
X26559372Y35876193D02*
X26606991Y35828574D01*
X26606991Y35828574D02*
X26702229Y35780955D01*
X26702229Y35780955D02*
X26987943Y35780955D01*
X26987943Y35780955D02*
X27083181Y35828574D01*
X27083181Y35828574D02*
X27130800Y35876193D01*
X27130800Y35876193D02*
X27178419Y35971431D01*
X27178419Y35971431D02*
X27178419Y36114288D01*
X27178419Y36114288D02*
X27130800Y36209526D01*
X27130800Y36209526D02*
X27083181Y36257145D01*
X27083181Y36257145D02*
X26987943Y36304764D01*
X26987943Y36304764D02*
X26702229Y36304764D01*
X26702229Y36304764D02*
X26606991Y36257145D01*
X26606991Y36257145D02*
X26559372Y36209526D01*
X26559372Y36209526D02*
X26511752Y36114288D01*
X26511752Y36114288D02*
X26511752Y35971431D01*
X26511752Y36733336D02*
X27178419Y36733336D01*
X27083181Y36733336D02*
X27130800Y36780955D01*
X27130800Y36780955D02*
X27178419Y36876193D01*
X27178419Y36876193D02*
X27178419Y37019050D01*
X27178419Y37019050D02*
X27130800Y37114288D01*
X27130800Y37114288D02*
X27035562Y37161907D01*
X27035562Y37161907D02*
X26511752Y37161907D01*
X27035562Y37161907D02*
X27130800Y37209526D01*
X27130800Y37209526D02*
X27178419Y37304764D01*
X27178419Y37304764D02*
X27178419Y37447621D01*
X27178419Y37447621D02*
X27130800Y37542860D01*
X27130800Y37542860D02*
X27035562Y37590479D01*
X27035562Y37590479D02*
X26511752Y37590479D01*
X26511752Y38828574D02*
X27511752Y38828574D01*
X27511752Y38828574D02*
X26797467Y39161907D01*
X26797467Y39161907D02*
X27511752Y39495240D01*
X27511752Y39495240D02*
X26511752Y39495240D01*
X26511752Y40400002D02*
X27035562Y40400002D01*
X27035562Y40400002D02*
X27130800Y40352383D01*
X27130800Y40352383D02*
X27178419Y40257145D01*
X27178419Y40257145D02*
X27178419Y40066669D01*
X27178419Y40066669D02*
X27130800Y39971431D01*
X26559372Y40400002D02*
X26511752Y40304764D01*
X26511752Y40304764D02*
X26511752Y40066669D01*
X26511752Y40066669D02*
X26559372Y39971431D01*
X26559372Y39971431D02*
X26654610Y39923812D01*
X26654610Y39923812D02*
X26749848Y39923812D01*
X26749848Y39923812D02*
X26845086Y39971431D01*
X26845086Y39971431D02*
X26892705Y40066669D01*
X26892705Y40066669D02*
X26892705Y40304764D01*
X26892705Y40304764D02*
X26940324Y40400002D01*
X27178419Y41304764D02*
X26368895Y41304764D01*
X26368895Y41304764D02*
X26273657Y41257145D01*
X26273657Y41257145D02*
X26226038Y41209526D01*
X26226038Y41209526D02*
X26178419Y41114288D01*
X26178419Y41114288D02*
X26178419Y40971431D01*
X26178419Y40971431D02*
X26226038Y40876193D01*
X26559372Y41304764D02*
X26511752Y41209526D01*
X26511752Y41209526D02*
X26511752Y41019050D01*
X26511752Y41019050D02*
X26559372Y40923812D01*
X26559372Y40923812D02*
X26606991Y40876193D01*
X26606991Y40876193D02*
X26702229Y40828574D01*
X26702229Y40828574D02*
X26987943Y40828574D01*
X26987943Y40828574D02*
X27083181Y40876193D01*
X27083181Y40876193D02*
X27130800Y40923812D01*
X27130800Y40923812D02*
X27178419Y41019050D01*
X27178419Y41019050D02*
X27178419Y41209526D01*
X27178419Y41209526D02*
X27130800Y41304764D01*
X27178419Y41780955D02*
X26511752Y41780955D01*
X27083181Y41780955D02*
X27130800Y41828574D01*
X27130800Y41828574D02*
X27178419Y41923812D01*
X27178419Y41923812D02*
X27178419Y42066669D01*
X27178419Y42066669D02*
X27130800Y42161907D01*
X27130800Y42161907D02*
X27035562Y42209526D01*
X27035562Y42209526D02*
X26511752Y42209526D01*
X26511752Y42685717D02*
X27178419Y42685717D01*
X27511752Y42685717D02*
X27464133Y42638098D01*
X27464133Y42638098D02*
X27416514Y42685717D01*
X27416514Y42685717D02*
X27464133Y42733336D01*
X27464133Y42733336D02*
X27511752Y42685717D01*
X27511752Y42685717D02*
X27416514Y42685717D01*
X26559372Y43542859D02*
X26511752Y43447621D01*
X26511752Y43447621D02*
X26511752Y43257145D01*
X26511752Y43257145D02*
X26559372Y43161907D01*
X26559372Y43161907D02*
X26654610Y43114288D01*
X26654610Y43114288D02*
X27035562Y43114288D01*
X27035562Y43114288D02*
X27130800Y43161907D01*
X27130800Y43161907D02*
X27178419Y43257145D01*
X27178419Y43257145D02*
X27178419Y43447621D01*
X27178419Y43447621D02*
X27130800Y43542859D01*
X27130800Y43542859D02*
X27035562Y43590478D01*
X27035562Y43590478D02*
X26940324Y43590478D01*
X26940324Y43590478D02*
X26845086Y43114288D01*
X26511752Y44019050D02*
X27178419Y44019050D01*
X26987943Y44019050D02*
X27083181Y44066669D01*
X27083181Y44066669D02*
X27130800Y44114288D01*
X27130800Y44114288D02*
X27178419Y44209526D01*
X27178419Y44209526D02*
X27178419Y44304764D01*
X25568475Y23709525D02*
X24901808Y23947620D01*
X24901808Y23947620D02*
X25568475Y24185715D01*
X25901808Y24471430D02*
X25901808Y25090477D01*
X25901808Y25090477D02*
X25520856Y24757144D01*
X25520856Y24757144D02*
X25520856Y24900001D01*
X25520856Y24900001D02*
X25473237Y24995239D01*
X25473237Y24995239D02*
X25425618Y25042858D01*
X25425618Y25042858D02*
X25330380Y25090477D01*
X25330380Y25090477D02*
X25092285Y25090477D01*
X25092285Y25090477D02*
X24997047Y25042858D01*
X24997047Y25042858D02*
X24949428Y24995239D01*
X24949428Y24995239D02*
X24901808Y24900001D01*
X24901808Y24900001D02*
X24901808Y24614287D01*
X24901808Y24614287D02*
X24949428Y24519049D01*
X24949428Y24519049D02*
X24997047Y24471430D01*
X24997047Y25519049D02*
X24949428Y25566668D01*
X24949428Y25566668D02*
X24901808Y25519049D01*
X24901808Y25519049D02*
X24949428Y25471430D01*
X24949428Y25471430D02*
X24997047Y25519049D01*
X24997047Y25519049D02*
X24901808Y25519049D01*
X25806570Y25947620D02*
X25854189Y25995239D01*
X25854189Y25995239D02*
X25901808Y26090477D01*
X25901808Y26090477D02*
X25901808Y26328572D01*
X25901808Y26328572D02*
X25854189Y26423810D01*
X25854189Y26423810D02*
X25806570Y26471429D01*
X25806570Y26471429D02*
X25711332Y26519048D01*
X25711332Y26519048D02*
X25616094Y26519048D01*
X25616094Y26519048D02*
X25473237Y26471429D01*
X25473237Y26471429D02*
X24901808Y25900001D01*
X24901808Y25900001D02*
X24901808Y26519048D01*
X25282761Y27709525D02*
X25282761Y28471429D01*
X25901808Y29900001D02*
X25901808Y29995239D01*
X25901808Y29995239D02*
X25854189Y30090477D01*
X25854189Y30090477D02*
X25806570Y30138096D01*
X25806570Y30138096D02*
X25711332Y30185715D01*
X25711332Y30185715D02*
X25520856Y30233334D01*
X25520856Y30233334D02*
X25282761Y30233334D01*
X25282761Y30233334D02*
X25092285Y30185715D01*
X25092285Y30185715D02*
X24997047Y30138096D01*
X24997047Y30138096D02*
X24949428Y30090477D01*
X24949428Y30090477D02*
X24901808Y29995239D01*
X24901808Y29995239D02*
X24901808Y29900001D01*
X24901808Y29900001D02*
X24949428Y29804763D01*
X24949428Y29804763D02*
X24997047Y29757144D01*
X24997047Y29757144D02*
X25092285Y29709525D01*
X25092285Y29709525D02*
X25282761Y29661906D01*
X25282761Y29661906D02*
X25520856Y29661906D01*
X25520856Y29661906D02*
X25711332Y29709525D01*
X25711332Y29709525D02*
X25806570Y29757144D01*
X25806570Y29757144D02*
X25854189Y29804763D01*
X25854189Y29804763D02*
X25901808Y29900001D01*
X25901808Y31090477D02*
X25901808Y30900001D01*
X25901808Y30900001D02*
X25854189Y30804763D01*
X25854189Y30804763D02*
X25806570Y30757144D01*
X25806570Y30757144D02*
X25663713Y30661906D01*
X25663713Y30661906D02*
X25473237Y30614287D01*
X25473237Y30614287D02*
X25092285Y30614287D01*
X25092285Y30614287D02*
X24997047Y30661906D01*
X24997047Y30661906D02*
X24949428Y30709525D01*
X24949428Y30709525D02*
X24901808Y30804763D01*
X24901808Y30804763D02*
X24901808Y30995239D01*
X24901808Y30995239D02*
X24949428Y31090477D01*
X24949428Y31090477D02*
X24997047Y31138096D01*
X24997047Y31138096D02*
X25092285Y31185715D01*
X25092285Y31185715D02*
X25330380Y31185715D01*
X25330380Y31185715D02*
X25425618Y31138096D01*
X25425618Y31138096D02*
X25473237Y31090477D01*
X25473237Y31090477D02*
X25520856Y30995239D01*
X25520856Y30995239D02*
X25520856Y30804763D01*
X25520856Y30804763D02*
X25473237Y30709525D01*
X25473237Y30709525D02*
X25425618Y30661906D01*
X25425618Y30661906D02*
X25330380Y30614287D01*
X25949428Y32328572D02*
X24663713Y31471430D01*
X25806570Y32614287D02*
X25854189Y32661906D01*
X25854189Y32661906D02*
X25901808Y32757144D01*
X25901808Y32757144D02*
X25901808Y32995239D01*
X25901808Y32995239D02*
X25854189Y33090477D01*
X25854189Y33090477D02*
X25806570Y33138096D01*
X25806570Y33138096D02*
X25711332Y33185715D01*
X25711332Y33185715D02*
X25616094Y33185715D01*
X25616094Y33185715D02*
X25473237Y33138096D01*
X25473237Y33138096D02*
X24901808Y32566668D01*
X24901808Y32566668D02*
X24901808Y33185715D01*
X25901808Y33804763D02*
X25901808Y33900001D01*
X25901808Y33900001D02*
X25854189Y33995239D01*
X25854189Y33995239D02*
X25806570Y34042858D01*
X25806570Y34042858D02*
X25711332Y34090477D01*
X25711332Y34090477D02*
X25520856Y34138096D01*
X25520856Y34138096D02*
X25282761Y34138096D01*
X25282761Y34138096D02*
X25092285Y34090477D01*
X25092285Y34090477D02*
X24997047Y34042858D01*
X24997047Y34042858D02*
X24949428Y33995239D01*
X24949428Y33995239D02*
X24901808Y33900001D01*
X24901808Y33900001D02*
X24901808Y33804763D01*
X24901808Y33804763D02*
X24949428Y33709525D01*
X24949428Y33709525D02*
X24997047Y33661906D01*
X24997047Y33661906D02*
X25092285Y33614287D01*
X25092285Y33614287D02*
X25282761Y33566668D01*
X25282761Y33566668D02*
X25520856Y33566668D01*
X25520856Y33566668D02*
X25711332Y33614287D01*
X25711332Y33614287D02*
X25806570Y33661906D01*
X25806570Y33661906D02*
X25854189Y33709525D01*
X25854189Y33709525D02*
X25901808Y33804763D01*
X25806570Y34519049D02*
X25854189Y34566668D01*
X25854189Y34566668D02*
X25901808Y34661906D01*
X25901808Y34661906D02*
X25901808Y34900001D01*
X25901808Y34900001D02*
X25854189Y34995239D01*
X25854189Y34995239D02*
X25806570Y35042858D01*
X25806570Y35042858D02*
X25711332Y35090477D01*
X25711332Y35090477D02*
X25616094Y35090477D01*
X25616094Y35090477D02*
X25473237Y35042858D01*
X25473237Y35042858D02*
X24901808Y34471430D01*
X24901808Y34471430D02*
X24901808Y35090477D01*
X25901808Y35423811D02*
X25901808Y36042858D01*
X25901808Y36042858D02*
X25520856Y35709525D01*
X25520856Y35709525D02*
X25520856Y35852382D01*
X25520856Y35852382D02*
X25473237Y35947620D01*
X25473237Y35947620D02*
X25425618Y35995239D01*
X25425618Y35995239D02*
X25330380Y36042858D01*
X25330380Y36042858D02*
X25092285Y36042858D01*
X25092285Y36042858D02*
X24997047Y35995239D01*
X24997047Y35995239D02*
X24949428Y35947620D01*
X24949428Y35947620D02*
X24901808Y35852382D01*
X24901808Y35852382D02*
X24901808Y35566668D01*
X24901808Y35566668D02*
X24949428Y35471430D01*
X24949428Y35471430D02*
X24997047Y35423811D01*
D11*
X7749999Y1295181D02*
X7559523Y1295181D01*
X7559523Y1295181D02*
X7464285Y1247562D01*
X7464285Y1247562D02*
X7369047Y1152324D01*
X7369047Y1152324D02*
X7321428Y961848D01*
X7321428Y961848D02*
X7321428Y628515D01*
X7321428Y628515D02*
X7369047Y438039D01*
X7369047Y438039D02*
X7464285Y342800D01*
X7464285Y342800D02*
X7559523Y295181D01*
X7559523Y295181D02*
X7749999Y295181D01*
X7749999Y295181D02*
X7845237Y342800D01*
X7845237Y342800D02*
X7940475Y438039D01*
X7940475Y438039D02*
X7988094Y628515D01*
X7988094Y628515D02*
X7988094Y961848D01*
X7988094Y961848D02*
X7940475Y1152324D01*
X7940475Y1152324D02*
X7845237Y1247562D01*
X7845237Y1247562D02*
X7749999Y1295181D01*
X6892856Y1295181D02*
X6892856Y485658D01*
X6892856Y485658D02*
X6845237Y390420D01*
X6845237Y390420D02*
X6797618Y342800D01*
X6797618Y342800D02*
X6702380Y295181D01*
X6702380Y295181D02*
X6511904Y295181D01*
X6511904Y295181D02*
X6416666Y342800D01*
X6416666Y342800D02*
X6369047Y390420D01*
X6369047Y390420D02*
X6321428Y485658D01*
X6321428Y485658D02*
X6321428Y1295181D01*
X5988094Y1295181D02*
X5416666Y1295181D01*
X5702380Y295181D02*
X5702380Y1295181D01*
D12*
X47971590Y12876191D02*
X47923971Y13019048D01*
X47923971Y13019048D02*
X47876352Y13066667D01*
X47876352Y13066667D02*
X47781114Y13114286D01*
X47781114Y13114286D02*
X47638257Y13114286D01*
X47638257Y13114286D02*
X47543019Y13066667D01*
X47543019Y13066667D02*
X47495400Y13019048D01*
X47495400Y13019048D02*
X47447780Y12923810D01*
X47447780Y12923810D02*
X47447780Y12542858D01*
X47447780Y12542858D02*
X48447780Y12542858D01*
X48447780Y12542858D02*
X48447780Y12876191D01*
X48447780Y12876191D02*
X48400161Y12971429D01*
X48400161Y12971429D02*
X48352542Y13019048D01*
X48352542Y13019048D02*
X48257304Y13066667D01*
X48257304Y13066667D02*
X48162066Y13066667D01*
X48162066Y13066667D02*
X48066828Y13019048D01*
X48066828Y13019048D02*
X48019209Y12971429D01*
X48019209Y12971429D02*
X47971590Y12876191D01*
X47971590Y12876191D02*
X47971590Y12542858D01*
X48447780Y13400001D02*
X48447780Y13971429D01*
X47447780Y13685715D02*
X48447780Y13685715D01*
X47495400Y14257144D02*
X47447780Y14400001D01*
X47447780Y14400001D02*
X47447780Y14638096D01*
X47447780Y14638096D02*
X47495400Y14733334D01*
X47495400Y14733334D02*
X47543019Y14780953D01*
X47543019Y14780953D02*
X47638257Y14828572D01*
X47638257Y14828572D02*
X47733495Y14828572D01*
X47733495Y14828572D02*
X47828733Y14780953D01*
X47828733Y14780953D02*
X47876352Y14733334D01*
X47876352Y14733334D02*
X47923971Y14638096D01*
X47923971Y14638096D02*
X47971590Y14447620D01*
X47971590Y14447620D02*
X48019209Y14352382D01*
X48019209Y14352382D02*
X48066828Y14304763D01*
X48066828Y14304763D02*
X48162066Y14257144D01*
X48162066Y14257144D02*
X48257304Y14257144D01*
X48257304Y14257144D02*
X48352542Y14304763D01*
X48352542Y14304763D02*
X48400161Y14352382D01*
X48400161Y14352382D02*
X48447780Y14447620D01*
X48447780Y14447620D02*
X48447780Y14685715D01*
X48447780Y14685715D02*
X48400161Y14828572D01*
X48447780Y15733334D02*
X48447780Y15257144D01*
X48447780Y15257144D02*
X47971590Y15209525D01*
X47971590Y15209525D02*
X48019209Y15257144D01*
X48019209Y15257144D02*
X48066828Y15352382D01*
X48066828Y15352382D02*
X48066828Y15590477D01*
X48066828Y15590477D02*
X48019209Y15685715D01*
X48019209Y15685715D02*
X47971590Y15733334D01*
X47971590Y15733334D02*
X47876352Y15780953D01*
X47876352Y15780953D02*
X47638257Y15780953D01*
X47638257Y15780953D02*
X47543019Y15733334D01*
X47543019Y15733334D02*
X47495400Y15685715D01*
X47495400Y15685715D02*
X47447780Y15590477D01*
X47447780Y15590477D02*
X47447780Y15352382D01*
X47447780Y15352382D02*
X47495400Y15257144D01*
X47495400Y15257144D02*
X47543019Y15209525D01*
X48447780Y16400001D02*
X48447780Y16495239D01*
X48447780Y16495239D02*
X48400161Y16590477D01*
X48400161Y16590477D02*
X48352542Y16638096D01*
X48352542Y16638096D02*
X48257304Y16685715D01*
X48257304Y16685715D02*
X48066828Y16733334D01*
X48066828Y16733334D02*
X47828733Y16733334D01*
X47828733Y16733334D02*
X47638257Y16685715D01*
X47638257Y16685715D02*
X47543019Y16638096D01*
X47543019Y16638096D02*
X47495400Y16590477D01*
X47495400Y16590477D02*
X47447780Y16495239D01*
X47447780Y16495239D02*
X47447780Y16400001D01*
X47447780Y16400001D02*
X47495400Y16304763D01*
X47495400Y16304763D02*
X47543019Y16257144D01*
X47543019Y16257144D02*
X47638257Y16209525D01*
X47638257Y16209525D02*
X47828733Y16161906D01*
X47828733Y16161906D02*
X48066828Y16161906D01*
X48066828Y16161906D02*
X48257304Y16209525D01*
X48257304Y16209525D02*
X48352542Y16257144D01*
X48352542Y16257144D02*
X48400161Y16304763D01*
X48400161Y16304763D02*
X48447780Y16400001D01*
X48447780Y17352382D02*
X48447780Y17447620D01*
X48447780Y17447620D02*
X48400161Y17542858D01*
X48400161Y17542858D02*
X48352542Y17590477D01*
X48352542Y17590477D02*
X48257304Y17638096D01*
X48257304Y17638096D02*
X48066828Y17685715D01*
X48066828Y17685715D02*
X47828733Y17685715D01*
X47828733Y17685715D02*
X47638257Y17638096D01*
X47638257Y17638096D02*
X47543019Y17590477D01*
X47543019Y17590477D02*
X47495400Y17542858D01*
X47495400Y17542858D02*
X47447780Y17447620D01*
X47447780Y17447620D02*
X47447780Y17352382D01*
X47447780Y17352382D02*
X47495400Y17257144D01*
X47495400Y17257144D02*
X47543019Y17209525D01*
X47543019Y17209525D02*
X47638257Y17161906D01*
X47638257Y17161906D02*
X47828733Y17114287D01*
X47828733Y17114287D02*
X48066828Y17114287D01*
X48066828Y17114287D02*
X48257304Y17161906D01*
X48257304Y17161906D02*
X48352542Y17209525D01*
X48352542Y17209525D02*
X48400161Y17257144D01*
X48400161Y17257144D02*
X48447780Y17352382D01*
X48019209Y18257144D02*
X48066828Y18161906D01*
X48066828Y18161906D02*
X48114447Y18114287D01*
X48114447Y18114287D02*
X48209685Y18066668D01*
X48209685Y18066668D02*
X48257304Y18066668D01*
X48257304Y18066668D02*
X48352542Y18114287D01*
X48352542Y18114287D02*
X48400161Y18161906D01*
X48400161Y18161906D02*
X48447780Y18257144D01*
X48447780Y18257144D02*
X48447780Y18447620D01*
X48447780Y18447620D02*
X48400161Y18542858D01*
X48400161Y18542858D02*
X48352542Y18590477D01*
X48352542Y18590477D02*
X48257304Y18638096D01*
X48257304Y18638096D02*
X48209685Y18638096D01*
X48209685Y18638096D02*
X48114447Y18590477D01*
X48114447Y18590477D02*
X48066828Y18542858D01*
X48066828Y18542858D02*
X48019209Y18447620D01*
X48019209Y18447620D02*
X48019209Y18257144D01*
X48019209Y18257144D02*
X47971590Y18161906D01*
X47971590Y18161906D02*
X47923971Y18114287D01*
X47923971Y18114287D02*
X47828733Y18066668D01*
X47828733Y18066668D02*
X47638257Y18066668D01*
X47638257Y18066668D02*
X47543019Y18114287D01*
X47543019Y18114287D02*
X47495400Y18161906D01*
X47495400Y18161906D02*
X47447780Y18257144D01*
X47447780Y18257144D02*
X47447780Y18447620D01*
X47447780Y18447620D02*
X47495400Y18542858D01*
X47495400Y18542858D02*
X47543019Y18590477D01*
X47543019Y18590477D02*
X47638257Y18638096D01*
X47638257Y18638096D02*
X47828733Y18638096D01*
X47828733Y18638096D02*
X47923971Y18590477D01*
X47923971Y18590477D02*
X47971590Y18542858D01*
X47971590Y18542858D02*
X48019209Y18447620D01*
X48447780Y19257144D02*
X48447780Y19352382D01*
X48447780Y19352382D02*
X48400161Y19447620D01*
X48400161Y19447620D02*
X48352542Y19495239D01*
X48352542Y19495239D02*
X48257304Y19542858D01*
X48257304Y19542858D02*
X48066828Y19590477D01*
X48066828Y19590477D02*
X47828733Y19590477D01*
X47828733Y19590477D02*
X47638257Y19542858D01*
X47638257Y19542858D02*
X47543019Y19495239D01*
X47543019Y19495239D02*
X47495400Y19447620D01*
X47495400Y19447620D02*
X47447780Y19352382D01*
X47447780Y19352382D02*
X47447780Y19257144D01*
X47447780Y19257144D02*
X47495400Y19161906D01*
X47495400Y19161906D02*
X47543019Y19114287D01*
X47543019Y19114287D02*
X47638257Y19066668D01*
X47638257Y19066668D02*
X47828733Y19019049D01*
X47828733Y19019049D02*
X48066828Y19019049D01*
X48066828Y19019049D02*
X48257304Y19066668D01*
X48257304Y19066668D02*
X48352542Y19114287D01*
X48352542Y19114287D02*
X48400161Y19161906D01*
X48400161Y19161906D02*
X48447780Y19257144D01*
X47828733Y20019049D02*
X47828733Y20780953D01*
X47447780Y21780953D02*
X47447780Y21209525D01*
X47447780Y21495239D02*
X48447780Y21495239D01*
X48447780Y21495239D02*
X48304923Y21400001D01*
X48304923Y21400001D02*
X48209685Y21304763D01*
X48209685Y21304763D02*
X48162066Y21209525D01*
X48447780Y22066668D02*
X48447780Y22638096D01*
X47447780Y22352382D02*
X48447780Y22352382D01*
X47971590Y22971430D02*
X47971590Y23304763D01*
X47447780Y23447620D02*
X47447780Y22971430D01*
X47447780Y22971430D02*
X48447780Y22971430D01*
X48447780Y22971430D02*
X48447780Y23447620D01*
X47733495Y23828573D02*
X47733495Y24304763D01*
X47447780Y23733335D02*
X48447780Y24066668D01*
X48447780Y24066668D02*
X47447780Y24400001D01*
D11*
X9530228Y10671430D02*
X9530228Y10385716D01*
X9530228Y10385716D02*
X10130228Y10385716D01*
X9844514Y10871430D02*
X9844514Y11071430D01*
X9530228Y11157144D02*
X9530228Y10871430D01*
X9530228Y10871430D02*
X10130228Y10871430D01*
X10130228Y10871430D02*
X10130228Y11157144D01*
X9530228Y11414287D02*
X10130228Y11414287D01*
X10130228Y11414287D02*
X10130228Y11557144D01*
X10130228Y11557144D02*
X10101657Y11642858D01*
X10101657Y11642858D02*
X10044514Y11700001D01*
X10044514Y11700001D02*
X9987371Y11728572D01*
X9987371Y11728572D02*
X9873085Y11757144D01*
X9873085Y11757144D02*
X9787371Y11757144D01*
X9787371Y11757144D02*
X9673085Y11728572D01*
X9673085Y11728572D02*
X9615942Y11700001D01*
X9615942Y11700001D02*
X9558800Y11642858D01*
X9558800Y11642858D02*
X9530228Y11557144D01*
X9530228Y11557144D02*
X9530228Y11414287D01*
X9558800Y12442858D02*
X9530228Y12500001D01*
X9530228Y12500001D02*
X9530228Y12614287D01*
X9530228Y12614287D02*
X9558800Y12671430D01*
X9558800Y12671430D02*
X9615942Y12700001D01*
X9615942Y12700001D02*
X9644514Y12700001D01*
X9644514Y12700001D02*
X9701657Y12671430D01*
X9701657Y12671430D02*
X9730228Y12614287D01*
X9730228Y12614287D02*
X9730228Y12528572D01*
X9730228Y12528572D02*
X9758800Y12471430D01*
X9758800Y12471430D02*
X9815942Y12442858D01*
X9815942Y12442858D02*
X9844514Y12442858D01*
X9844514Y12442858D02*
X9901657Y12471430D01*
X9901657Y12471430D02*
X9930228Y12528572D01*
X9930228Y12528572D02*
X9930228Y12614287D01*
X9930228Y12614287D02*
X9901657Y12671430D01*
X9930228Y12871429D02*
X9930228Y13100001D01*
X10130228Y12957144D02*
X9615942Y12957144D01*
X9615942Y12957144D02*
X9558800Y12985715D01*
X9558800Y12985715D02*
X9530228Y13042858D01*
X9530228Y13042858D02*
X9530228Y13100001D01*
X9530228Y13300001D02*
X9930228Y13300001D01*
X9815942Y13300001D02*
X9873085Y13328572D01*
X9873085Y13328572D02*
X9901657Y13357143D01*
X9901657Y13357143D02*
X9930228Y13414286D01*
X9930228Y13414286D02*
X9930228Y13471429D01*
X9530228Y13671430D02*
X9930228Y13671430D01*
X10130228Y13671430D02*
X10101657Y13642858D01*
X10101657Y13642858D02*
X10073085Y13671430D01*
X10073085Y13671430D02*
X10101657Y13700001D01*
X10101657Y13700001D02*
X10130228Y13671430D01*
X10130228Y13671430D02*
X10073085Y13671430D01*
X9930228Y13957144D02*
X9330228Y13957144D01*
X9901657Y13957144D02*
X9930228Y14014286D01*
X9930228Y14014286D02*
X9930228Y14128572D01*
X9930228Y14128572D02*
X9901657Y14185715D01*
X9901657Y14185715D02*
X9873085Y14214286D01*
X9873085Y14214286D02*
X9815942Y14242858D01*
X9815942Y14242858D02*
X9644514Y14242858D01*
X9644514Y14242858D02*
X9587371Y14214286D01*
X9587371Y14214286D02*
X9558800Y14185715D01*
X9558800Y14185715D02*
X9530228Y14128572D01*
X9530228Y14128572D02*
X9530228Y14014286D01*
X9530228Y14014286D02*
X9558800Y13957144D01*
X3137704Y42357141D02*
X3937704Y42357141D01*
X3937704Y42357141D02*
X3937704Y42535712D01*
X3937704Y42535712D02*
X3899609Y42642855D01*
X3899609Y42642855D02*
X3823419Y42714284D01*
X3823419Y42714284D02*
X3747228Y42749998D01*
X3747228Y42749998D02*
X3594847Y42785712D01*
X3594847Y42785712D02*
X3480561Y42785712D01*
X3480561Y42785712D02*
X3328180Y42749998D01*
X3328180Y42749998D02*
X3251990Y42714284D01*
X3251990Y42714284D02*
X3175800Y42642855D01*
X3175800Y42642855D02*
X3137704Y42535712D01*
X3137704Y42535712D02*
X3137704Y42357141D01*
X3937704Y42999998D02*
X3937704Y43428569D01*
X3137704Y43214284D02*
X3937704Y43214284D01*
X3137704Y44107141D02*
X3518657Y43857141D01*
X3137704Y43678570D02*
X3937704Y43678570D01*
X3937704Y43678570D02*
X3937704Y43964284D01*
X3937704Y43964284D02*
X3899609Y44035713D01*
X3899609Y44035713D02*
X3861514Y44071427D01*
X3861514Y44071427D02*
X3785323Y44107141D01*
X3785323Y44107141D02*
X3671038Y44107141D01*
X3671038Y44107141D02*
X3594847Y44071427D01*
X3594847Y44071427D02*
X3556752Y44035713D01*
X3556752Y44035713D02*
X3518657Y43964284D01*
X3518657Y43964284D02*
X3518657Y43678570D01*
X3137704Y45428570D02*
X3518657Y45178570D01*
X3137704Y44999999D02*
X3937704Y44999999D01*
X3937704Y44999999D02*
X3937704Y45285713D01*
X3937704Y45285713D02*
X3899609Y45357142D01*
X3899609Y45357142D02*
X3861514Y45392856D01*
X3861514Y45392856D02*
X3785323Y45428570D01*
X3785323Y45428570D02*
X3671038Y45428570D01*
X3671038Y45428570D02*
X3594847Y45392856D01*
X3594847Y45392856D02*
X3556752Y45357142D01*
X3556752Y45357142D02*
X3518657Y45285713D01*
X3518657Y45285713D02*
X3518657Y44999999D01*
X3937704Y45678570D02*
X3137704Y46178570D01*
X3937704Y46178570D02*
X3137704Y45678570D01*
X3937704Y47500000D02*
X3937704Y47928571D01*
X3137704Y47714286D02*
X3937704Y47714286D01*
X3937704Y48107143D02*
X3137704Y48607143D01*
X3937704Y48607143D02*
X3137704Y48107143D01*
X3937704Y49392858D02*
X3937704Y49857144D01*
X3937704Y49857144D02*
X3632942Y49607144D01*
X3632942Y49607144D02*
X3632942Y49714287D01*
X3632942Y49714287D02*
X3594847Y49785715D01*
X3594847Y49785715D02*
X3556752Y49821430D01*
X3556752Y49821430D02*
X3480561Y49857144D01*
X3480561Y49857144D02*
X3290085Y49857144D01*
X3290085Y49857144D02*
X3213895Y49821430D01*
X3213895Y49821430D02*
X3175800Y49785715D01*
X3175800Y49785715D02*
X3137704Y49714287D01*
X3137704Y49714287D02*
X3137704Y49500001D01*
X3137704Y49500001D02*
X3175800Y49428573D01*
X3175800Y49428573D02*
X3213895Y49392858D01*
X3937704Y50071430D02*
X3137704Y50321430D01*
X3137704Y50321430D02*
X3937704Y50571430D01*
X3937704Y50750001D02*
X3937704Y51214287D01*
X3937704Y51214287D02*
X3632942Y50964287D01*
X3632942Y50964287D02*
X3632942Y51071430D01*
X3632942Y51071430D02*
X3594847Y51142858D01*
X3594847Y51142858D02*
X3556752Y51178573D01*
X3556752Y51178573D02*
X3480561Y51214287D01*
X3480561Y51214287D02*
X3290085Y51214287D01*
X3290085Y51214287D02*
X3213895Y51178573D01*
X3213895Y51178573D02*
X3175800Y51142858D01*
X3175800Y51142858D02*
X3137704Y51071430D01*
X3137704Y51071430D02*
X3137704Y50857144D01*
X3137704Y50857144D02*
X3175800Y50785716D01*
X3175800Y50785716D02*
X3213895Y50750001D01*
X3137704Y52535716D02*
X3518657Y52285716D01*
X3137704Y52107145D02*
X3937704Y52107145D01*
X3937704Y52107145D02*
X3937704Y52392859D01*
X3937704Y52392859D02*
X3899609Y52464288D01*
X3899609Y52464288D02*
X3861514Y52500002D01*
X3861514Y52500002D02*
X3785323Y52535716D01*
X3785323Y52535716D02*
X3671038Y52535716D01*
X3671038Y52535716D02*
X3594847Y52500002D01*
X3594847Y52500002D02*
X3556752Y52464288D01*
X3556752Y52464288D02*
X3518657Y52392859D01*
X3518657Y52392859D02*
X3518657Y52107145D01*
X3937704Y52750002D02*
X3937704Y53178573D01*
X3137704Y52964288D02*
X3937704Y52964288D01*
X3175800Y53392860D02*
X3137704Y53500002D01*
X3137704Y53500002D02*
X3137704Y53678574D01*
X3137704Y53678574D02*
X3175800Y53750002D01*
X3175800Y53750002D02*
X3213895Y53785717D01*
X3213895Y53785717D02*
X3290085Y53821431D01*
X3290085Y53821431D02*
X3366276Y53821431D01*
X3366276Y53821431D02*
X3442466Y53785717D01*
X3442466Y53785717D02*
X3480561Y53750002D01*
X3480561Y53750002D02*
X3518657Y53678574D01*
X3518657Y53678574D02*
X3556752Y53535717D01*
X3556752Y53535717D02*
X3594847Y53464288D01*
X3594847Y53464288D02*
X3632942Y53428574D01*
X3632942Y53428574D02*
X3709133Y53392860D01*
X3709133Y53392860D02*
X3785323Y53392860D01*
X3785323Y53392860D02*
X3861514Y53428574D01*
X3861514Y53428574D02*
X3899609Y53464288D01*
X3899609Y53464288D02*
X3937704Y53535717D01*
X3937704Y53535717D02*
X3937704Y53714288D01*
X3937704Y53714288D02*
X3899609Y53821431D01*
X3899609Y55107146D02*
X3937704Y55035717D01*
X3937704Y55035717D02*
X3937704Y54928575D01*
X3937704Y54928575D02*
X3899609Y54821432D01*
X3899609Y54821432D02*
X3823419Y54750003D01*
X3823419Y54750003D02*
X3747228Y54714289D01*
X3747228Y54714289D02*
X3594847Y54678575D01*
X3594847Y54678575D02*
X3480561Y54678575D01*
X3480561Y54678575D02*
X3328180Y54714289D01*
X3328180Y54714289D02*
X3251990Y54750003D01*
X3251990Y54750003D02*
X3175800Y54821432D01*
X3175800Y54821432D02*
X3137704Y54928575D01*
X3137704Y54928575D02*
X3137704Y55000003D01*
X3137704Y55000003D02*
X3175800Y55107146D01*
X3175800Y55107146D02*
X3213895Y55142860D01*
X3213895Y55142860D02*
X3480561Y55142860D01*
X3480561Y55142860D02*
X3480561Y55000003D01*
X3137704Y55464289D02*
X3937704Y55464289D01*
X3937704Y55464289D02*
X3137704Y55892860D01*
X3137704Y55892860D02*
X3937704Y55892860D01*
X3137704Y56250003D02*
X3937704Y56250003D01*
X3937704Y56250003D02*
X3937704Y56428574D01*
X3937704Y56428574D02*
X3899609Y56535717D01*
X3899609Y56535717D02*
X3823419Y56607146D01*
X3823419Y56607146D02*
X3747228Y56642860D01*
X3747228Y56642860D02*
X3594847Y56678574D01*
X3594847Y56678574D02*
X3480561Y56678574D01*
X3480561Y56678574D02*
X3328180Y56642860D01*
X3328180Y56642860D02*
X3251990Y56607146D01*
X3251990Y56607146D02*
X3175800Y56535717D01*
X3175800Y56535717D02*
X3137704Y56428574D01*
X3137704Y56428574D02*
X3137704Y56250003D01*
D13*
G36*
X30300946Y16971837D02*
G01*
X30330759Y16943355D01*
X30367022Y16873604D01*
X30368549Y16567619D01*
X29987700Y16566871D01*
X29986202Y16867165D01*
X30020055Y16937630D01*
X30048538Y16967443D01*
X30118668Y17003903D01*
X30231326Y17005285D01*
X30300946Y16971837D01*
G37*
G36*
X29900945Y21257552D02*
G01*
X29930760Y21229069D01*
X29967143Y21159086D01*
X29968754Y20989457D01*
X29957875Y20966813D01*
X29426000Y20965769D01*
X29416638Y20983778D01*
X29415027Y21153406D01*
X29448628Y21223345D01*
X29477108Y21253157D01*
X29546940Y21289462D01*
X29830663Y21291317D01*
X29900945Y21257552D01*
G37*
G36*
X29625995Y22075375D02*
G01*
X29600256Y22021801D01*
X29550557Y21995963D01*
X29494739Y21994996D01*
X29442260Y22020209D01*
X29416685Y22069401D01*
X29414929Y22296059D01*
X29425639Y22318352D01*
X29624107Y22319082D01*
X29625995Y22075375D01*
G37*
G36*
X29941522Y24751224D02*
G01*
X29967143Y24701942D01*
X29968754Y24532313D01*
X29943113Y24478943D01*
X29894062Y24453442D01*
X29843676Y24453190D01*
X29905452Y24768553D01*
X29941522Y24751224D01*
G37*
G36*
X29625995Y29732517D02*
G01*
X29600256Y29678943D01*
X29550557Y29653105D01*
X29494739Y29652138D01*
X29442260Y29677351D01*
X29416685Y29726543D01*
X29414929Y29953201D01*
X29425639Y29975494D01*
X29624107Y29976224D01*
X29625995Y29732517D01*
G37*
G36*
X29625995Y31903945D02*
G01*
X29600256Y31850371D01*
X29550557Y31824533D01*
X29494739Y31823566D01*
X29442260Y31848779D01*
X29416685Y31897971D01*
X29414929Y32124629D01*
X29425639Y32146922D01*
X29624107Y32147652D01*
X29625995Y31903945D01*
G37*
G36*
X29967143Y33216226D02*
G01*
X29968754Y33046598D01*
X29935154Y32976662D01*
X29906672Y32946848D01*
X29836839Y32910542D01*
X29553117Y32908687D01*
X29482834Y32942452D01*
X29453022Y32970934D01*
X29416638Y33040919D01*
X29415027Y33210547D01*
X29425756Y33232880D01*
X29957818Y33234163D01*
X29967143Y33216226D01*
G37*
G36*
X29941522Y34294080D02*
G01*
X29967143Y34244798D01*
X29968754Y34075169D01*
X29943113Y34021799D01*
X29894062Y33996298D01*
X29843676Y33996046D01*
X29905452Y34311409D01*
X29941522Y34294080D01*
G37*
G36*
X29941522Y36922651D02*
G01*
X29967143Y36873369D01*
X29968754Y36703740D01*
X29943113Y36650370D01*
X29894062Y36624869D01*
X29843676Y36624617D01*
X29905452Y36939980D01*
X29941522Y36922651D01*
G37*
G36*
X29900945Y40686120D02*
G01*
X29930760Y40657637D01*
X29967143Y40587654D01*
X29968754Y40418025D01*
X29957875Y40395381D01*
X29426000Y40394337D01*
X29416638Y40412346D01*
X29415027Y40581974D01*
X29448628Y40651913D01*
X29477108Y40681725D01*
X29546940Y40718030D01*
X29830663Y40719885D01*
X29900945Y40686120D01*
G37*
G36*
X29900945Y41771834D02*
G01*
X29930760Y41743351D01*
X29967219Y41673222D01*
X29968601Y41560564D01*
X29935154Y41490946D01*
X29906672Y41461132D01*
X29836839Y41424826D01*
X29553117Y41422971D01*
X29482834Y41456736D01*
X29453022Y41485218D01*
X29416562Y41555348D01*
X29415180Y41668007D01*
X29448628Y41737627D01*
X29477108Y41767439D01*
X29546940Y41803744D01*
X29830663Y41805599D01*
X29900945Y41771834D01*
G37*
G36*
X29625995Y42589657D02*
G01*
X29600256Y42536083D01*
X29550557Y42510245D01*
X29494739Y42509278D01*
X29442260Y42534491D01*
X29416685Y42583683D01*
X29414929Y42810341D01*
X29425639Y42832634D01*
X29624107Y42833364D01*
X29625995Y42589657D01*
G37*
G36*
X29967143Y44644795D02*
G01*
X29968754Y44475167D01*
X29935154Y44405231D01*
X29906672Y44375417D01*
X29836839Y44339111D01*
X29553117Y44337256D01*
X29482834Y44371021D01*
X29453022Y44399503D01*
X29416638Y44469488D01*
X29415027Y44639116D01*
X29425529Y44660975D01*
X29958188Y44662020D01*
X29967143Y44644795D01*
G37*
G36*
X32682156Y13955956D02*
G01*
X28633558Y13955956D01*
X28633558Y14785717D01*
X29166891Y14785717D01*
X29169293Y14189903D01*
X29187957Y14144843D01*
X29222445Y14110355D01*
X29267505Y14091691D01*
X29291891Y14089289D01*
X30516277Y14091691D01*
X30561337Y14110355D01*
X30595825Y14144843D01*
X30614489Y14189903D01*
X30616891Y14214289D01*
X30614489Y14810103D01*
X30595825Y14855163D01*
X30561337Y14889651D01*
X30516277Y14908315D01*
X30467505Y14908315D01*
X30422445Y14889651D01*
X30387957Y14855163D01*
X30369293Y14810103D01*
X30366891Y14785717D01*
X30368691Y14339048D01*
X30044759Y14338412D01*
X30043060Y14638675D01*
X30024396Y14683735D01*
X29989908Y14718223D01*
X29944848Y14736887D01*
X29896076Y14736887D01*
X29851016Y14718223D01*
X29816528Y14683735D01*
X29797864Y14638675D01*
X29795462Y14614289D01*
X29797026Y14337926D01*
X29416395Y14337180D01*
X29414489Y14810103D01*
X29395825Y14855163D01*
X29361337Y14889651D01*
X29316277Y14908315D01*
X29267505Y14908315D01*
X29222445Y14889651D01*
X29187957Y14855163D01*
X29169293Y14810103D01*
X29166891Y14785717D01*
X28633558Y14785717D01*
X28633558Y15700003D01*
X29166891Y15700003D01*
X29169092Y15415813D01*
X29167873Y15398653D01*
X29169272Y15392497D01*
X29169293Y15389902D01*
X29170556Y15386853D01*
X29173306Y15374759D01*
X29240439Y15180956D01*
X29272394Y15144111D01*
X29316019Y15122299D01*
X29364668Y15118842D01*
X29410938Y15134265D01*
X29447783Y15166221D01*
X29469595Y15209845D01*
X29473052Y15258495D01*
X29467619Y15282389D01*
X29416775Y15429166D01*
X29414929Y15667488D01*
X29448627Y15737629D01*
X29477110Y15767444D01*
X29547508Y15804043D01*
X29603327Y15805010D01*
X29672373Y15771838D01*
X29702187Y15743355D01*
X29743613Y15663673D01*
X29799056Y15450300D01*
X29799901Y15438415D01*
X29806889Y15420154D01*
X29807439Y15418038D01*
X29807976Y15417313D01*
X29808659Y15415529D01*
X29868010Y15301367D01*
X29873672Y15287700D01*
X29877611Y15282900D01*
X29878856Y15280506D01*
X29881353Y15278340D01*
X29889217Y15268758D01*
X29949572Y15211097D01*
X29958109Y15201254D01*
X29963285Y15197996D01*
X29965301Y15196070D01*
X29968351Y15194807D01*
X29978846Y15188200D01*
X30077904Y15140610D01*
X30079588Y15138926D01*
X30092799Y15133454D01*
X30116018Y15122299D01*
X30120499Y15121981D01*
X30124648Y15120262D01*
X30149034Y15117860D01*
X30245609Y15119533D01*
X30247685Y15118841D01*
X30261223Y15119804D01*
X30287705Y15120262D01*
X30291853Y15121981D01*
X30296335Y15122299D01*
X30319221Y15131057D01*
X30433379Y15190407D01*
X30447051Y15196070D01*
X30451853Y15200012D01*
X30454244Y15201254D01*
X30456407Y15203749D01*
X30465993Y15211615D01*
X30523654Y15271971D01*
X30533497Y15280507D01*
X30536755Y15285684D01*
X30538681Y15287699D01*
X30539944Y15290750D01*
X30546551Y15301244D01*
X30594140Y15400301D01*
X30595825Y15401985D01*
X30601297Y15415199D01*
X30612452Y15438415D01*
X30612770Y15442897D01*
X30614489Y15447045D01*
X30616891Y15471431D01*
X30614689Y15755622D01*
X30615909Y15772781D01*
X30614509Y15778938D01*
X30614489Y15781532D01*
X30613225Y15784582D01*
X30610476Y15796675D01*
X30543343Y15990478D01*
X30511388Y16027323D01*
X30467763Y16049135D01*
X30419113Y16052592D01*
X30372844Y16037169D01*
X30335999Y16005214D01*
X30314187Y15961589D01*
X30310730Y15912939D01*
X30316163Y15889045D01*
X30367006Y15742269D01*
X30368852Y15503947D01*
X30335154Y15433807D01*
X30306672Y15403993D01*
X30236271Y15367392D01*
X30180454Y15366425D01*
X30111407Y15399597D01*
X30081593Y15428080D01*
X30040167Y15507761D01*
X29984724Y15721134D01*
X29983880Y15733019D01*
X29976890Y15751283D01*
X29976342Y15753395D01*
X29975805Y15754120D01*
X29975122Y15755905D01*
X29915774Y15870060D01*
X29910110Y15883733D01*
X29906167Y15888537D01*
X29904925Y15890927D01*
X29902430Y15893091D01*
X29894565Y15902675D01*
X29834210Y15960337D01*
X29825673Y15970180D01*
X29820495Y15973439D01*
X29818481Y15975364D01*
X29815430Y15976628D01*
X29804936Y15983234D01*
X29705877Y16030825D01*
X29704194Y16032508D01*
X29690982Y16037981D01*
X29667764Y16049135D01*
X29663282Y16049454D01*
X29659134Y16051172D01*
X29634748Y16053574D01*
X29538171Y16051902D01*
X29536096Y16052593D01*
X29522557Y16051631D01*
X29496076Y16051172D01*
X29491927Y16049454D01*
X29487446Y16049135D01*
X29464561Y16040378D01*
X29350404Y15981029D01*
X29336729Y15975364D01*
X29331924Y15971422D01*
X29329537Y15970180D01*
X29327375Y15967689D01*
X29317787Y15959819D01*
X29260134Y15899471D01*
X29250285Y15890928D01*
X29247023Y15885747D01*
X29245100Y15883733D01*
X29243837Y15880686D01*
X29237231Y15870190D01*
X29189641Y15771134D01*
X29187957Y15769449D01*
X29182484Y15756236D01*
X29171330Y15733019D01*
X29171011Y15728538D01*
X29169293Y15724389D01*
X29166891Y15700003D01*
X28633558Y15700003D01*
X28633558Y16467246D01*
X29169293Y16467246D01*
X29169293Y16418474D01*
X29187957Y16373414D01*
X29222445Y16338926D01*
X29267505Y16320262D01*
X29291891Y16317860D01*
X30516277Y16320262D01*
X30561337Y16338926D01*
X30595825Y16373414D01*
X30614489Y16418474D01*
X30616891Y16442860D01*
X30614706Y16880760D01*
X30615910Y16884370D01*
X30614596Y16902850D01*
X30614489Y16924389D01*
X30612770Y16928538D01*
X30612452Y16933019D01*
X30603694Y16955905D01*
X30544345Y17070061D01*
X30538681Y17083735D01*
X30534738Y17088540D01*
X30533497Y17090927D01*
X30531005Y17093089D01*
X30523136Y17102677D01*
X30462783Y17160335D01*
X30454244Y17170180D01*
X30449064Y17173441D01*
X30447051Y17175364D01*
X30444003Y17176627D01*
X30433507Y17183234D01*
X30334448Y17230825D01*
X30332765Y17232508D01*
X30319553Y17237981D01*
X30296335Y17249135D01*
X30291853Y17249454D01*
X30287705Y17251172D01*
X30263319Y17253574D01*
X30110216Y17251696D01*
X30107525Y17252593D01*
X30091710Y17251469D01*
X30067505Y17251172D01*
X30063356Y17249454D01*
X30058875Y17249135D01*
X30035990Y17240378D01*
X29921832Y17181029D01*
X29908158Y17175364D01*
X29903353Y17171422D01*
X29900966Y17170180D01*
X29898804Y17167689D01*
X29889216Y17159819D01*
X29831563Y17099472D01*
X29821713Y17090928D01*
X29818450Y17085746D01*
X29816529Y17083734D01*
X29815267Y17080689D01*
X29808659Y17070190D01*
X29761069Y16971134D01*
X29759385Y16969449D01*
X29753912Y16956236D01*
X29742758Y16933019D01*
X29742439Y16928538D01*
X29740721Y16924389D01*
X29738319Y16900003D01*
X29739983Y16566385D01*
X29267505Y16565458D01*
X29222445Y16546794D01*
X29187957Y16512306D01*
X29169293Y16467246D01*
X28633558Y16467246D01*
X28633558Y18042860D01*
X29166891Y18042860D01*
X29169008Y17719048D01*
X29167872Y17715637D01*
X29169148Y17697675D01*
X29169293Y17675617D01*
X29171011Y17671469D01*
X29171330Y17666987D01*
X29180088Y17644101D01*
X29239436Y17529945D01*
X29245100Y17516272D01*
X29249042Y17511468D01*
X29250285Y17509078D01*
X29252777Y17506917D01*
X29260645Y17497329D01*
X29336729Y17424641D01*
X29381788Y17405976D01*
X29430562Y17405975D01*
X29475622Y17424640D01*
X29510109Y17459127D01*
X29528774Y17504186D01*
X29528775Y17552959D01*
X29510110Y17598019D01*
X29494565Y17616961D01*
X29453023Y17656649D01*
X29416717Y17726483D01*
X29414862Y18010205D01*
X29448627Y18080486D01*
X29477110Y18110301D01*
X29547002Y18146637D01*
X29773661Y18148393D01*
X29843803Y18114694D01*
X29873616Y18086212D01*
X29910076Y18016082D01*
X29911855Y17871091D01*
X29910799Y17855253D01*
X29912096Y17851418D01*
X29912150Y17847045D01*
X29919918Y17828291D01*
X29926425Y17809052D01*
X29929200Y17805880D01*
X29930814Y17801985D01*
X29945171Y17787628D01*
X29958542Y17772347D01*
X29962320Y17770479D01*
X29965302Y17767497D01*
X29984061Y17759727D01*
X30002260Y17750727D01*
X30006466Y17750447D01*
X30010362Y17748833D01*
X30030665Y17748833D01*
X30050926Y17747482D01*
X30054920Y17748833D01*
X30059134Y17748833D01*
X30077888Y17756602D01*
X30097127Y17763108D01*
X30101988Y17766584D01*
X30104194Y17767497D01*
X30106520Y17769824D01*
X30117061Y17777359D01*
X30367745Y17998397D01*
X30369293Y17504188D01*
X30387957Y17459128D01*
X30422445Y17424640D01*
X30467505Y17405976D01*
X30516277Y17405976D01*
X30561337Y17424640D01*
X30595825Y17459128D01*
X30614489Y17504188D01*
X30616891Y17528574D01*
X30614574Y18268625D01*
X30615840Y18287609D01*
X30614502Y18291565D01*
X30614489Y18295817D01*
X30606720Y18314572D01*
X30600214Y18333810D01*
X30597438Y18336983D01*
X30595825Y18340877D01*
X30581467Y18355235D01*
X30568097Y18370515D01*
X30564318Y18372384D01*
X30561337Y18375365D01*
X30542577Y18383136D01*
X30524379Y18392135D01*
X30520172Y18392416D01*
X30516277Y18394029D01*
X30495974Y18394029D01*
X30475713Y18395380D01*
X30471719Y18394029D01*
X30467505Y18394029D01*
X30448750Y18386261D01*
X30429512Y18379754D01*
X30424650Y18376279D01*
X30422445Y18375365D01*
X30420118Y18373039D01*
X30409578Y18365503D01*
X30134137Y18122639D01*
X30087202Y18212918D01*
X30081538Y18226592D01*
X30077595Y18231397D01*
X30076354Y18233784D01*
X30073862Y18235946D01*
X30065993Y18245534D01*
X30005640Y18303192D01*
X29997101Y18313037D01*
X29991921Y18316298D01*
X29989908Y18318221D01*
X29986860Y18319484D01*
X29976364Y18326091D01*
X29877305Y18373682D01*
X29875622Y18375365D01*
X29862410Y18380838D01*
X29839192Y18391992D01*
X29834710Y18392311D01*
X29830562Y18394029D01*
X29806176Y18396431D01*
X29539353Y18394365D01*
X29536096Y18395450D01*
X29518553Y18394204D01*
X29496076Y18394029D01*
X29491927Y18392311D01*
X29487446Y18391992D01*
X29464561Y18383235D01*
X29350404Y18323886D01*
X29336729Y18318221D01*
X29331924Y18314279D01*
X29329537Y18313037D01*
X29327375Y18310546D01*
X29317787Y18302676D01*
X29260134Y18242328D01*
X29250285Y18233785D01*
X29247023Y18228604D01*
X29245100Y18226590D01*
X29243837Y18223543D01*
X29237231Y18213047D01*
X29189641Y18113991D01*
X29187957Y18112306D01*
X29182484Y18099093D01*
X29171330Y18075876D01*
X29171011Y18071395D01*
X29169293Y18067246D01*
X29166891Y18042860D01*
X28633558Y18042860D01*
X28633558Y19414288D01*
X29166891Y19414288D01*
X29169293Y18647045D01*
X29187957Y18601985D01*
X29222445Y18567497D01*
X29254306Y18554300D01*
X29267504Y18548833D01*
X29267505Y18548833D01*
X29316277Y18548833D01*
X29316278Y18548833D01*
X29329475Y18554300D01*
X29361337Y18567497D01*
X29361342Y18567503D01*
X29380279Y18583043D01*
X30040791Y19246756D01*
X30164343Y19289554D01*
X30231898Y19290724D01*
X30300946Y19257551D01*
X30330759Y19229069D01*
X30367096Y19159175D01*
X30368852Y18932518D01*
X30335154Y18862378D01*
X30273672Y18798020D01*
X30255007Y18752961D01*
X30255007Y18704187D01*
X30273672Y18659128D01*
X30308159Y18624641D01*
X30353218Y18605976D01*
X30401992Y18605976D01*
X30447051Y18624641D01*
X30465993Y18640186D01*
X30523654Y18700542D01*
X30533497Y18709078D01*
X30536755Y18714255D01*
X30538681Y18716270D01*
X30539944Y18719321D01*
X30546551Y18729815D01*
X30594140Y18828872D01*
X30595825Y18830556D01*
X30601297Y18843770D01*
X30612452Y18866986D01*
X30612770Y18871468D01*
X30614489Y18875616D01*
X30616891Y18900002D01*
X30614824Y19166827D01*
X30615910Y19170084D01*
X30614663Y19187627D01*
X30614489Y19210103D01*
X30612770Y19214252D01*
X30612452Y19218733D01*
X30603694Y19241619D01*
X30544345Y19355775D01*
X30538681Y19369449D01*
X30534738Y19374254D01*
X30533497Y19376641D01*
X30531005Y19378803D01*
X30523136Y19388391D01*
X30462783Y19446049D01*
X30454244Y19455894D01*
X30449064Y19459155D01*
X30447051Y19461078D01*
X30444003Y19462341D01*
X30433507Y19468948D01*
X30334448Y19516539D01*
X30332765Y19518222D01*
X30319553Y19523695D01*
X30296335Y19534849D01*
X30291853Y19535168D01*
X30287705Y19536886D01*
X30263319Y19539288D01*
X30147751Y19537287D01*
X30133400Y19538306D01*
X30127361Y19536933D01*
X30124648Y19536886D01*
X30121597Y19535623D01*
X30109505Y19532873D01*
X29956127Y19479743D01*
X29953218Y19479743D01*
X29938365Y19473591D01*
X29915702Y19465740D01*
X29912308Y19462797D01*
X29908159Y19461078D01*
X29889217Y19445533D01*
X29415956Y18969980D01*
X29414489Y19438674D01*
X29395825Y19483734D01*
X29361337Y19518222D01*
X29316277Y19536886D01*
X29267505Y19536886D01*
X29222445Y19518222D01*
X29187957Y19483734D01*
X29169293Y19438674D01*
X29166891Y19414288D01*
X28633558Y19414288D01*
X28633558Y21185717D01*
X29166891Y21185717D01*
X29168884Y20975815D01*
X29167872Y20972778D01*
X29169073Y20955875D01*
X29169293Y20932759D01*
X29171011Y20928611D01*
X29171330Y20924129D01*
X29180088Y20901243D01*
X29181917Y20897725D01*
X29169293Y20867246D01*
X29169293Y20818474D01*
X29187957Y20773414D01*
X29222445Y20738926D01*
X29267505Y20720262D01*
X29291891Y20717860D01*
X30043439Y20719335D01*
X30050381Y20718841D01*
X30051910Y20719352D01*
X30516277Y20720262D01*
X30561337Y20738926D01*
X30595825Y20773414D01*
X30614489Y20818474D01*
X30614489Y20867246D01*
X30595825Y20912306D01*
X30561337Y20946794D01*
X30516277Y20965458D01*
X30491891Y20967860D01*
X30216794Y20967321D01*
X30214897Y21167047D01*
X30215910Y21170083D01*
X30214708Y21186987D01*
X30214489Y21210103D01*
X30212770Y21214252D01*
X30212452Y21218733D01*
X30203695Y21241618D01*
X30144345Y21355775D01*
X30138681Y21369450D01*
X30134738Y21374255D01*
X30133497Y21376642D01*
X30131005Y21378804D01*
X30123136Y21388392D01*
X30062781Y21446050D01*
X30054244Y21455894D01*
X30049064Y21459155D01*
X30047050Y21461079D01*
X30044001Y21462342D01*
X30033507Y21468948D01*
X29934448Y21516539D01*
X29932765Y21518222D01*
X29919553Y21523695D01*
X29896335Y21534849D01*
X29891853Y21535168D01*
X29887705Y21536886D01*
X29863319Y21539288D01*
X29539506Y21537171D01*
X29536096Y21538307D01*
X29518133Y21537031D01*
X29496076Y21536886D01*
X29491927Y21535168D01*
X29487446Y21534849D01*
X29464561Y21526092D01*
X29350400Y21466741D01*
X29336730Y21461078D01*
X29331927Y21457137D01*
X29329537Y21455894D01*
X29327373Y21453400D01*
X29317788Y21445533D01*
X29260131Y21385183D01*
X29250285Y21376642D01*
X29247024Y21371463D01*
X29245101Y21369449D01*
X29243838Y21366402D01*
X29237231Y21355905D01*
X29189640Y21256847D01*
X29187957Y21255163D01*
X29182484Y21241952D01*
X29171330Y21218733D01*
X29171011Y21214252D01*
X29169293Y21210103D01*
X29166891Y21185717D01*
X28633558Y21185717D01*
X28633558Y22328574D01*
X29166891Y22328574D01*
X29168957Y22061750D01*
X29167872Y22058492D01*
X29169118Y22040950D01*
X29169293Y22018473D01*
X29171011Y22014325D01*
X29171330Y22009843D01*
X29180088Y21986957D01*
X29236534Y21878383D01*
X29240439Y21866670D01*
X29245893Y21860382D01*
X29250285Y21851934D01*
X29262129Y21841662D01*
X29272395Y21829825D01*
X29284727Y21822062D01*
X29287130Y21819978D01*
X29289058Y21819336D01*
X29293132Y21816771D01*
X29392188Y21769182D01*
X29393873Y21767497D01*
X29407086Y21762025D01*
X29430303Y21750870D01*
X29434784Y21750552D01*
X29438933Y21748833D01*
X29463319Y21746431D01*
X29559895Y21748104D01*
X29561971Y21747412D01*
X29575509Y21748375D01*
X29601991Y21748833D01*
X29606139Y21750552D01*
X29610621Y21750870D01*
X29633507Y21759628D01*
X29742079Y21816074D01*
X29753795Y21819979D01*
X29760085Y21825435D01*
X29768530Y21829825D01*
X29778799Y21841666D01*
X29790640Y21851935D01*
X29798406Y21864272D01*
X29800486Y21866670D01*
X29801127Y21868596D01*
X29803694Y21872672D01*
X29851283Y21971729D01*
X29852968Y21973413D01*
X29858440Y21986627D01*
X29869595Y22009843D01*
X29869913Y22014325D01*
X29871632Y22018473D01*
X29874034Y22042859D01*
X29872072Y22296059D01*
X29883591Y22320036D01*
X29887468Y22320050D01*
X29941522Y22294082D01*
X29967143Y22244800D01*
X29968754Y22075171D01*
X29914187Y21961590D01*
X29910729Y21912941D01*
X29926153Y21866670D01*
X29958109Y21829825D01*
X30001732Y21808013D01*
X30050381Y21804555D01*
X30096652Y21819979D01*
X30133497Y21851935D01*
X30146551Y21872672D01*
X30194140Y21971729D01*
X30195825Y21973413D01*
X30201297Y21986627D01*
X30212452Y22009843D01*
X30212770Y22014325D01*
X30214489Y22018473D01*
X30216891Y22042859D01*
X30214897Y22252761D01*
X30215910Y22255797D01*
X30214708Y22272701D01*
X30214489Y22295817D01*
X30212770Y22299966D01*
X30212452Y22304447D01*
X30203695Y22327332D01*
X30147246Y22435910D01*
X30143342Y22447622D01*
X30137887Y22453911D01*
X30133497Y22462356D01*
X30121655Y22472626D01*
X30111386Y22484467D01*
X30099048Y22492234D01*
X30096652Y22494312D01*
X30094727Y22494954D01*
X30090649Y22497521D01*
X29991591Y22545110D01*
X29989908Y22546793D01*
X29976694Y22552267D01*
X29953477Y22563420D01*
X29948997Y22563739D01*
X29944848Y22565457D01*
X29920462Y22567859D01*
X29349166Y22565758D01*
X29333401Y22566878D01*
X29329825Y22565687D01*
X29267505Y22565457D01*
X29222445Y22546793D01*
X29187957Y22512305D01*
X29169293Y22467245D01*
X29169293Y22418473D01*
X29182860Y22385717D01*
X29182484Y22384807D01*
X29171330Y22361590D01*
X29171011Y22357109D01*
X29169293Y22352960D01*
X29166891Y22328574D01*
X28633558Y22328574D01*
X28633558Y23985716D01*
X29166891Y23985716D01*
X29168563Y23889139D01*
X29167872Y23887063D01*
X29168834Y23873525D01*
X29169293Y23847044D01*
X29171011Y23842896D01*
X29171330Y23838414D01*
X29180088Y23815528D01*
X29236534Y23706954D01*
X29240439Y23695241D01*
X29245893Y23688953D01*
X29250285Y23680505D01*
X29262129Y23670233D01*
X29272395Y23658396D01*
X29284727Y23650633D01*
X29287130Y23648549D01*
X29289058Y23647907D01*
X29293132Y23645342D01*
X29392188Y23597753D01*
X29393873Y23596068D01*
X29407086Y23590596D01*
X29430303Y23579441D01*
X29434784Y23579123D01*
X29438933Y23577404D01*
X29463319Y23575002D01*
X29968934Y23576156D01*
X29969293Y23504187D01*
X29987957Y23459127D01*
X30022445Y23424639D01*
X30047436Y23414288D01*
X30022445Y23403936D01*
X29987957Y23369448D01*
X29969293Y23324388D01*
X29966891Y23300002D01*
X29967698Y23138093D01*
X29496478Y23137018D01*
X29442260Y23163066D01*
X29416422Y23212764D01*
X29414489Y23324388D01*
X29395825Y23369448D01*
X29361337Y23403936D01*
X29316277Y23422600D01*
X29267505Y23422600D01*
X29222445Y23403936D01*
X29187957Y23369448D01*
X29169293Y23324388D01*
X29166891Y23300002D01*
X29168563Y23203425D01*
X29167872Y23201349D01*
X29168834Y23187811D01*
X29169293Y23161330D01*
X29171011Y23157182D01*
X29171330Y23152700D01*
X29180088Y23129814D01*
X29236534Y23021240D01*
X29240439Y23009527D01*
X29245893Y23003239D01*
X29250285Y22994791D01*
X29262129Y22984519D01*
X29272395Y22972682D01*
X29284727Y22964919D01*
X29287130Y22962835D01*
X29289058Y22962193D01*
X29293132Y22959628D01*
X29392188Y22912039D01*
X29393873Y22910354D01*
X29407086Y22904882D01*
X29430303Y22893727D01*
X29434784Y22893409D01*
X29438933Y22891690D01*
X29463319Y22889288D01*
X29968934Y22890442D01*
X29969293Y22818473D01*
X29987957Y22773413D01*
X30022445Y22738925D01*
X30067505Y22720261D01*
X30116277Y22720261D01*
X30161337Y22738925D01*
X30195825Y22773413D01*
X30214489Y22818473D01*
X30216891Y22842859D01*
X30216650Y22891007D01*
X30516277Y22891690D01*
X30561337Y22910354D01*
X30595825Y22944842D01*
X30614489Y22989902D01*
X30614489Y23038674D01*
X30595825Y23083734D01*
X30561337Y23118222D01*
X30516277Y23136886D01*
X30491891Y23139288D01*
X30215415Y23138658D01*
X30214489Y23324388D01*
X30195825Y23369448D01*
X30161337Y23403936D01*
X30136345Y23414288D01*
X30161337Y23424639D01*
X30195825Y23459127D01*
X30214489Y23504187D01*
X30216891Y23528573D01*
X30216650Y23576721D01*
X30516277Y23577404D01*
X30561337Y23596068D01*
X30595825Y23630556D01*
X30614489Y23675616D01*
X30614489Y23724388D01*
X30595825Y23769448D01*
X30561337Y23803936D01*
X30516277Y23822600D01*
X30491891Y23825002D01*
X30215415Y23824372D01*
X30214489Y24010102D01*
X30195825Y24055162D01*
X30161337Y24089650D01*
X30116277Y24108314D01*
X30067505Y24108314D01*
X30022445Y24089650D01*
X29987957Y24055162D01*
X29969293Y24010102D01*
X29966891Y23985716D01*
X29967698Y23823807D01*
X29496478Y23822732D01*
X29442260Y23848780D01*
X29416422Y23898478D01*
X29414489Y24010102D01*
X29395825Y24055162D01*
X29361337Y24089650D01*
X29316277Y24108314D01*
X29267505Y24108314D01*
X29222445Y24089650D01*
X29187957Y24055162D01*
X29169293Y24010102D01*
X29166891Y23985716D01*
X28633558Y23985716D01*
X28633558Y24728573D01*
X29166891Y24728573D01*
X29168884Y24518671D01*
X29167872Y24515634D01*
X29169073Y24498731D01*
X29169293Y24475615D01*
X29171011Y24471467D01*
X29171330Y24466985D01*
X29180088Y24444099D01*
X29236534Y24335525D01*
X29240439Y24323812D01*
X29245893Y24317524D01*
X29250285Y24309076D01*
X29262129Y24298804D01*
X29272395Y24286967D01*
X29284727Y24279204D01*
X29287130Y24277120D01*
X29289058Y24276478D01*
X29293132Y24273913D01*
X29392188Y24226324D01*
X29393873Y24224639D01*
X29407086Y24219167D01*
X29430303Y24208012D01*
X29434784Y24207694D01*
X29438933Y24205975D01*
X29463319Y24203573D01*
X29686201Y24204685D01*
X29691760Y24203573D01*
X29697669Y24204743D01*
X29901218Y24205758D01*
X29904828Y24204554D01*
X29923308Y24205868D01*
X29944848Y24205975D01*
X29948996Y24207694D01*
X29953478Y24208012D01*
X29976364Y24216770D01*
X30084936Y24273216D01*
X30096652Y24277121D01*
X30102942Y24282577D01*
X30111387Y24286967D01*
X30121656Y24298808D01*
X30133497Y24309077D01*
X30141263Y24321414D01*
X30143343Y24323812D01*
X30143984Y24325738D01*
X30146551Y24329814D01*
X30194140Y24428871D01*
X30195825Y24430555D01*
X30201297Y24443769D01*
X30212452Y24466985D01*
X30212770Y24471467D01*
X30214489Y24475615D01*
X30216891Y24500001D01*
X30214897Y24709903D01*
X30215910Y24712939D01*
X30214708Y24729843D01*
X30214489Y24752959D01*
X30212770Y24757108D01*
X30212452Y24761589D01*
X30203695Y24784474D01*
X30147246Y24893052D01*
X30143342Y24904764D01*
X30137887Y24911053D01*
X30133497Y24919498D01*
X30121655Y24929768D01*
X30111386Y24941609D01*
X30099048Y24949376D01*
X30096652Y24951454D01*
X30094727Y24952096D01*
X30090649Y24954663D01*
X29991591Y25002252D01*
X29989908Y25003935D01*
X29976694Y25009409D01*
X29953477Y25020562D01*
X29948997Y25020881D01*
X29944848Y25022599D01*
X29920462Y25025001D01*
X29815401Y25023182D01*
X29806307Y25025000D01*
X29795356Y25022834D01*
X29781790Y25022599D01*
X29770474Y25017913D01*
X29758462Y25015536D01*
X29748165Y25008672D01*
X29736730Y25003935D01*
X29728068Y24995274D01*
X29717880Y24988481D01*
X29710994Y24978200D01*
X29702242Y24969447D01*
X29697554Y24958131D01*
X29690741Y24947956D01*
X29683603Y24924515D01*
X29591029Y24451930D01*
X29496157Y24451457D01*
X29442260Y24477351D01*
X29416638Y24526634D01*
X29415027Y24696262D01*
X29469595Y24809843D01*
X29473053Y24858493D01*
X29457629Y24904764D01*
X29425673Y24941609D01*
X29382050Y24963420D01*
X29333400Y24966878D01*
X29287130Y24951454D01*
X29250285Y24919498D01*
X29237231Y24898761D01*
X29189640Y24799703D01*
X29187957Y24798019D01*
X29182484Y24784808D01*
X29171330Y24761589D01*
X29171011Y24757108D01*
X29169293Y24752959D01*
X29166891Y24728573D01*
X28633558Y24728573D01*
X28633558Y25438673D01*
X29169293Y25438673D01*
X29169293Y25389901D01*
X29187957Y25344841D01*
X29222445Y25310353D01*
X29267505Y25291689D01*
X29291891Y25289287D01*
X29845786Y25290901D01*
X29847685Y25290268D01*
X29857050Y25290934D01*
X30116277Y25291689D01*
X30161337Y25310353D01*
X30195825Y25344841D01*
X30214489Y25389901D01*
X30214489Y25438673D01*
X30195825Y25483733D01*
X30166131Y25513427D01*
X30194141Y25571729D01*
X30195825Y25573412D01*
X30201297Y25586624D01*
X30212452Y25609842D01*
X30212770Y25614324D01*
X30214489Y25618472D01*
X30216891Y25642858D01*
X30214489Y25781530D01*
X30195825Y25826590D01*
X30161337Y25861078D01*
X30116277Y25879742D01*
X30067505Y25879742D01*
X30022445Y25861078D01*
X29987957Y25826590D01*
X29969293Y25781530D01*
X29966891Y25757144D01*
X29968326Y25674279D01*
X29935154Y25605231D01*
X29906673Y25575420D01*
X29835737Y25538541D01*
X29267505Y25536885D01*
X29222445Y25518221D01*
X29187957Y25483733D01*
X29169293Y25438673D01*
X28633558Y25438673D01*
X28633558Y26027224D01*
X28767872Y26027224D01*
X28783296Y25980954D01*
X28815252Y25944109D01*
X28858875Y25922297D01*
X28907525Y25918839D01*
X28953795Y25934263D01*
X28990640Y25966219D01*
X29003694Y25986956D01*
X29048627Y26080485D01*
X29073880Y26106919D01*
X29291907Y26195964D01*
X30073623Y25919200D01*
X30122335Y25921622D01*
X30166413Y25942501D01*
X30199145Y25978658D01*
X30215549Y26024589D01*
X30213128Y26073301D01*
X30192248Y26117380D01*
X30156091Y26150112D01*
X30133933Y26160576D01*
X29660072Y26328345D01*
X30156091Y26507033D01*
X30192248Y26539765D01*
X30213127Y26583844D01*
X30215549Y26632556D01*
X30199145Y26678487D01*
X30166413Y26714644D01*
X30122334Y26735523D01*
X30073622Y26737945D01*
X30049849Y26732005D01*
X29271015Y26451434D01*
X29269001Y26451458D01*
X29263697Y26449920D01*
X29261448Y26449808D01*
X29258503Y26448414D01*
X29245467Y26444632D01*
X28938003Y26319060D01*
X28937447Y26318518D01*
X28936729Y26318220D01*
X28917787Y26302675D01*
X28860129Y26242321D01*
X28850285Y26233783D01*
X28847024Y26228604D01*
X28845100Y26226589D01*
X28843837Y26223541D01*
X28837231Y26213046D01*
X28771330Y26075874D01*
X28767872Y26027224D01*
X28633558Y26027224D01*
X28633558Y29038673D01*
X29169293Y29038673D01*
X29169293Y28989901D01*
X29187957Y28944841D01*
X29222445Y28910353D01*
X29267505Y28891689D01*
X29291891Y28889287D01*
X29887468Y28891478D01*
X29941521Y28865510D01*
X29967219Y28816081D01*
X29968601Y28703423D01*
X29943113Y28650371D01*
X29894129Y28624905D01*
X29267505Y28622599D01*
X29222445Y28603935D01*
X29187957Y28569447D01*
X29169293Y28524387D01*
X29169293Y28475615D01*
X29187957Y28430555D01*
X29222445Y28396067D01*
X29267505Y28377403D01*
X29291891Y28375001D01*
X29887468Y28377192D01*
X29941522Y28351224D01*
X29967219Y28301796D01*
X29968601Y28189138D01*
X29935154Y28119520D01*
X29926283Y28110234D01*
X29267505Y28108314D01*
X29222445Y28089650D01*
X29187957Y28055162D01*
X29169293Y28010102D01*
X29169293Y27961330D01*
X29187957Y27916270D01*
X29222445Y27881782D01*
X29267505Y27863118D01*
X29291891Y27860716D01*
X30116277Y27863118D01*
X30161337Y27881782D01*
X30195825Y27916270D01*
X30214489Y27961330D01*
X30214489Y28010102D01*
X30209938Y28021090D01*
X31099008Y28021090D01*
X31105906Y27972806D01*
X31130755Y27930839D01*
X31148823Y27914286D01*
X31722325Y27486596D01*
X31688024Y27452129D01*
X31199437Y27451170D01*
X31154377Y27432506D01*
X31119889Y27398018D01*
X31101225Y27352958D01*
X31101225Y27304186D01*
X31119889Y27259126D01*
X31154377Y27224638D01*
X31199437Y27205974D01*
X31223823Y27203572D01*
X32448209Y27205974D01*
X32493269Y27224638D01*
X32527757Y27259126D01*
X32546421Y27304186D01*
X32546421Y27352958D01*
X32527757Y27398018D01*
X32493269Y27432506D01*
X32448209Y27451170D01*
X32423823Y27453572D01*
X32038102Y27452816D01*
X32527757Y27944840D01*
X32546421Y27989899D01*
X32546421Y28038673D01*
X32527757Y28083732D01*
X32493270Y28118220D01*
X32448210Y28136884D01*
X32399437Y28136884D01*
X32354377Y28118220D01*
X32335435Y28102675D01*
X31898807Y27663933D01*
X31277873Y28126996D01*
X31230627Y28139101D01*
X31182343Y28132203D01*
X31140376Y28107354D01*
X31111113Y28068336D01*
X31099008Y28021090D01*
X30209938Y28021090D01*
X30195825Y28055162D01*
X30184675Y28066312D01*
X30194140Y28086014D01*
X30195825Y28087698D01*
X30201297Y28100912D01*
X30212452Y28124128D01*
X30212770Y28128610D01*
X30214489Y28132758D01*
X30216891Y28157144D01*
X30215012Y28310248D01*
X30215910Y28312939D01*
X30214785Y28328754D01*
X30214489Y28352959D01*
X30212770Y28357108D01*
X30212452Y28361589D01*
X30203695Y28384474D01*
X30147246Y28493052D01*
X30145220Y28499129D01*
X30146551Y28501242D01*
X30194141Y28600301D01*
X30195825Y28601984D01*
X30201297Y28615196D01*
X30212452Y28638414D01*
X30212770Y28642896D01*
X30214489Y28647044D01*
X30216891Y28671430D01*
X30215012Y28824535D01*
X30215910Y28827226D01*
X30214785Y28843041D01*
X30214489Y28867245D01*
X30212770Y28871394D01*
X30212452Y28875875D01*
X30203694Y28898761D01*
X30147248Y29007334D01*
X30143343Y29019048D01*
X30137887Y29025339D01*
X30133497Y29033783D01*
X30121656Y29044053D01*
X30111387Y29055893D01*
X30099050Y29063660D01*
X30096652Y29065739D01*
X30094726Y29066381D01*
X30090650Y29068947D01*
X29991591Y29116538D01*
X29989908Y29118221D01*
X29976696Y29123694D01*
X29953478Y29134848D01*
X29948996Y29135167D01*
X29944848Y29136885D01*
X29920462Y29139287D01*
X29267505Y29136885D01*
X29222445Y29118221D01*
X29187957Y29083733D01*
X29169293Y29038673D01*
X28633558Y29038673D01*
X28633558Y29214156D01*
X31098823Y29214156D01*
X31108388Y29166329D01*
X31135527Y29125805D01*
X31154485Y29110280D01*
X31600605Y28813921D01*
X31135527Y28502767D01*
X31108388Y28462243D01*
X31098823Y28414416D01*
X31108288Y28366571D01*
X31135342Y28325990D01*
X31175866Y28298851D01*
X31223693Y28289286D01*
X31271538Y28298751D01*
X31293161Y28310280D01*
X31824066Y28665475D01*
X32376109Y28298751D01*
X32423954Y28289286D01*
X32471780Y28298851D01*
X32512304Y28325990D01*
X32539358Y28366571D01*
X32548823Y28414416D01*
X32539258Y28462242D01*
X32512119Y28502767D01*
X32493161Y28518292D01*
X32047040Y28814652D01*
X32512119Y29125805D01*
X32539258Y29166330D01*
X32548823Y29214156D01*
X32539358Y29262001D01*
X32512304Y29302582D01*
X32471780Y29329721D01*
X32423954Y29339286D01*
X32376109Y29329821D01*
X32354486Y29318293D01*
X31823579Y28963098D01*
X31271538Y29329821D01*
X31223693Y29339286D01*
X31175866Y29329721D01*
X31135342Y29302582D01*
X31108288Y29262001D01*
X31098823Y29214156D01*
X28633558Y29214156D01*
X28633558Y29985716D01*
X29166891Y29985716D01*
X29168957Y29718892D01*
X29167872Y29715634D01*
X29169118Y29698092D01*
X29169293Y29675615D01*
X29171011Y29671467D01*
X29171330Y29666985D01*
X29180088Y29644099D01*
X29236534Y29535525D01*
X29240439Y29523812D01*
X29245893Y29517524D01*
X29250285Y29509076D01*
X29262129Y29498804D01*
X29272395Y29486967D01*
X29284727Y29479204D01*
X29287130Y29477120D01*
X29289058Y29476478D01*
X29293132Y29473913D01*
X29392188Y29426324D01*
X29393873Y29424639D01*
X29407086Y29419167D01*
X29430303Y29408012D01*
X29434784Y29407694D01*
X29438933Y29405975D01*
X29463319Y29403573D01*
X29559895Y29405246D01*
X29561971Y29404554D01*
X29575509Y29405517D01*
X29601991Y29405975D01*
X29606139Y29407694D01*
X29610621Y29408012D01*
X29633507Y29416770D01*
X29742079Y29473216D01*
X29753795Y29477121D01*
X29760085Y29482577D01*
X29768530Y29486967D01*
X29778799Y29498808D01*
X29790640Y29509077D01*
X29798406Y29521414D01*
X29800486Y29523812D01*
X29801127Y29525738D01*
X29803694Y29529814D01*
X29851283Y29628871D01*
X29852968Y29630555D01*
X29858440Y29643769D01*
X29869595Y29666985D01*
X29869913Y29671467D01*
X29871632Y29675615D01*
X29874034Y29700001D01*
X29872072Y29953201D01*
X29883591Y29977178D01*
X29887468Y29977192D01*
X29941522Y29951224D01*
X29967143Y29901942D01*
X29968754Y29732313D01*
X29914187Y29618732D01*
X29910729Y29570083D01*
X29926153Y29523812D01*
X29958109Y29486967D01*
X30001732Y29465155D01*
X30050381Y29461697D01*
X30096652Y29477121D01*
X30133497Y29509077D01*
X30146551Y29529814D01*
X30194140Y29628871D01*
X30195825Y29630555D01*
X30201297Y29643769D01*
X30212452Y29666985D01*
X30212770Y29671467D01*
X30214489Y29675615D01*
X30216891Y29700001D01*
X30214897Y29909903D01*
X30215910Y29912939D01*
X30214708Y29929843D01*
X30214489Y29952959D01*
X30212770Y29957108D01*
X30212452Y29961589D01*
X30203695Y29984474D01*
X30147246Y30093052D01*
X30143342Y30104764D01*
X30137887Y30111053D01*
X30133497Y30119498D01*
X30121655Y30129768D01*
X30111386Y30141609D01*
X30099048Y30149376D01*
X30096652Y30151454D01*
X30094727Y30152096D01*
X30090649Y30154663D01*
X29991591Y30202252D01*
X29989908Y30203935D01*
X29976694Y30209409D01*
X29953477Y30220562D01*
X29948997Y30220881D01*
X29944848Y30222599D01*
X29920462Y30225001D01*
X29349166Y30222900D01*
X29333401Y30224020D01*
X29329825Y30222829D01*
X29267505Y30222599D01*
X29222445Y30203935D01*
X29187957Y30169447D01*
X29169293Y30124387D01*
X29169293Y30075615D01*
X29182860Y30042859D01*
X29182484Y30041949D01*
X29171330Y30018732D01*
X29171011Y30014251D01*
X29169293Y30010102D01*
X29166891Y29985716D01*
X28633558Y29985716D01*
X28633558Y30363947D01*
X31099008Y30363947D01*
X31105906Y30315663D01*
X31130755Y30273696D01*
X31148823Y30257143D01*
X31722325Y29829453D01*
X31688024Y29794986D01*
X31199437Y29794027D01*
X31154377Y29775363D01*
X31119889Y29740875D01*
X31101225Y29695815D01*
X31101225Y29647043D01*
X31119889Y29601983D01*
X31154377Y29567495D01*
X31199437Y29548831D01*
X31223823Y29546429D01*
X32448209Y29548831D01*
X32493269Y29567495D01*
X32527757Y29601983D01*
X32546421Y29647043D01*
X32546421Y29695815D01*
X32527757Y29740875D01*
X32493269Y29775363D01*
X32448209Y29794027D01*
X32423823Y29796429D01*
X32038102Y29795673D01*
X32527757Y30287697D01*
X32546421Y30332756D01*
X32546421Y30381530D01*
X32527757Y30426589D01*
X32493270Y30461077D01*
X32448210Y30479741D01*
X32399437Y30479741D01*
X32354377Y30461077D01*
X32335435Y30445532D01*
X31898807Y30006790D01*
X31277873Y30469853D01*
X31230627Y30481958D01*
X31182343Y30475060D01*
X31140376Y30450211D01*
X31111113Y30411193D01*
X31099008Y30363947D01*
X28633558Y30363947D01*
X28633558Y31210101D01*
X29169293Y31210101D01*
X29169293Y31161329D01*
X29187957Y31116269D01*
X29222445Y31081781D01*
X29267505Y31063117D01*
X29291891Y31060715D01*
X29887468Y31062906D01*
X29941522Y31036938D01*
X29967219Y30987510D01*
X29968601Y30874852D01*
X29935154Y30805234D01*
X29926283Y30795948D01*
X29267505Y30794028D01*
X29222445Y30775364D01*
X29187957Y30740876D01*
X29169293Y30695816D01*
X29169293Y30647044D01*
X29187957Y30601984D01*
X29222445Y30567496D01*
X29267505Y30548832D01*
X29291891Y30546430D01*
X30116277Y30548832D01*
X30161337Y30567496D01*
X30195825Y30601984D01*
X30214489Y30647044D01*
X30214489Y30695816D01*
X30195825Y30740876D01*
X30184675Y30752026D01*
X30194140Y30771728D01*
X30195825Y30773412D01*
X30201297Y30786626D01*
X30212452Y30809842D01*
X30212770Y30814324D01*
X30214489Y30818472D01*
X30216891Y30842858D01*
X30215012Y30995962D01*
X30215910Y30998653D01*
X30214785Y31014468D01*
X30214489Y31038673D01*
X30212770Y31042822D01*
X30212452Y31047303D01*
X30203695Y31070188D01*
X30147246Y31178766D01*
X30143342Y31190478D01*
X30137887Y31196767D01*
X30133497Y31205212D01*
X30121655Y31215482D01*
X30111386Y31227323D01*
X30099048Y31235090D01*
X30096652Y31237168D01*
X30094727Y31237810D01*
X30090649Y31240377D01*
X29991591Y31287966D01*
X29989908Y31289649D01*
X29976694Y31295123D01*
X29953477Y31306276D01*
X29948997Y31306595D01*
X29944848Y31308313D01*
X29920462Y31310715D01*
X29267505Y31308313D01*
X29222445Y31289649D01*
X29187957Y31255161D01*
X29169293Y31210101D01*
X28633558Y31210101D01*
X28633558Y32157144D01*
X29166891Y32157144D01*
X29168957Y31890320D01*
X29167872Y31887062D01*
X29169118Y31869520D01*
X29169293Y31847043D01*
X29171011Y31842895D01*
X29171330Y31838413D01*
X29180088Y31815527D01*
X29236534Y31706953D01*
X29240439Y31695240D01*
X29245893Y31688952D01*
X29250285Y31680504D01*
X29262129Y31670232D01*
X29272395Y31658395D01*
X29284727Y31650632D01*
X29287130Y31648548D01*
X29289058Y31647906D01*
X29293132Y31645341D01*
X29392188Y31597752D01*
X29393873Y31596067D01*
X29407086Y31590595D01*
X29430303Y31579440D01*
X29434784Y31579122D01*
X29438933Y31577403D01*
X29463319Y31575001D01*
X29559895Y31576674D01*
X29561971Y31575982D01*
X29575509Y31576945D01*
X29601991Y31577403D01*
X29606139Y31579122D01*
X29610621Y31579440D01*
X29633507Y31588198D01*
X29742079Y31644644D01*
X29753795Y31648549D01*
X29760085Y31654005D01*
X29768530Y31658395D01*
X29778799Y31670236D01*
X29790640Y31680505D01*
X29798406Y31692842D01*
X29800486Y31695240D01*
X29801127Y31697166D01*
X29803694Y31701242D01*
X29851283Y31800299D01*
X29852968Y31801983D01*
X29858440Y31815197D01*
X29869595Y31838413D01*
X29869913Y31842895D01*
X29871632Y31847043D01*
X29874034Y31871429D01*
X29872072Y32124629D01*
X29883591Y32148606D01*
X29887468Y32148620D01*
X29941522Y32122652D01*
X29967143Y32073370D01*
X29968754Y31903741D01*
X29914187Y31790160D01*
X29910729Y31741511D01*
X29926153Y31695240D01*
X29958109Y31658395D01*
X30001732Y31636583D01*
X30050381Y31633125D01*
X30096652Y31648549D01*
X30133497Y31680505D01*
X30143135Y31695815D01*
X31101225Y31695815D01*
X31101225Y31647043D01*
X31119889Y31601983D01*
X31154377Y31567495D01*
X31199437Y31548831D01*
X31223823Y31546429D01*
X31866342Y31547690D01*
X31518952Y31384526D01*
X31501864Y31378312D01*
X31497801Y31374592D01*
X31492737Y31372213D01*
X31479906Y31358203D01*
X31465896Y31345372D01*
X31463548Y31340342D01*
X31459797Y31336245D01*
X31453304Y31318390D01*
X31445271Y31301176D01*
X31445027Y31295628D01*
X31443129Y31290408D01*
X31443963Y31271429D01*
X31443129Y31252450D01*
X31445027Y31247231D01*
X31445271Y31241682D01*
X31453304Y31224469D01*
X31459797Y31206613D01*
X31463548Y31202517D01*
X31465896Y31197486D01*
X31479906Y31184656D01*
X31492737Y31170645D01*
X31499723Y31166506D01*
X31501864Y31164546D01*
X31504889Y31163446D01*
X31513819Y31158156D01*
X31864992Y30995333D01*
X31199437Y30994027D01*
X31154377Y30975363D01*
X31119889Y30940875D01*
X31101225Y30895815D01*
X31101225Y30847043D01*
X31119889Y30801983D01*
X31154377Y30767495D01*
X31199437Y30748831D01*
X31223823Y30746429D01*
X32422280Y30748781D01*
X32442802Y30747878D01*
X32445407Y30748826D01*
X32448209Y30748831D01*
X32468245Y30757131D01*
X32488639Y30764546D01*
X32490694Y30766429D01*
X32493269Y30767495D01*
X32508606Y30782833D01*
X32524607Y30797486D01*
X32525785Y30800012D01*
X32527757Y30801983D01*
X32536057Y30822022D01*
X32545232Y30841682D01*
X32545354Y30844469D01*
X32546421Y30847043D01*
X32546421Y30868730D01*
X32547374Y30890408D01*
X32546421Y30893029D01*
X32546421Y30895815D01*
X32538120Y30915856D01*
X32530706Y30936244D01*
X32528823Y30938300D01*
X32527757Y30940875D01*
X32512414Y30956218D01*
X32497766Y30972213D01*
X32494461Y30974171D01*
X32493269Y30975363D01*
X32490541Y30976493D01*
X32476684Y30984702D01*
X31859501Y31270862D01*
X32474563Y31559747D01*
X32493269Y31567495D01*
X32495226Y31569453D01*
X32497766Y31570645D01*
X32512414Y31586641D01*
X32527757Y31601983D01*
X32528823Y31604559D01*
X32530706Y31606614D01*
X32538120Y31627003D01*
X32546421Y31647043D01*
X32546421Y31649830D01*
X32547374Y31652450D01*
X32546421Y31674129D01*
X32546421Y31695815D01*
X32545354Y31698390D01*
X32545232Y31701176D01*
X32536057Y31720837D01*
X32527757Y31740875D01*
X32525785Y31742847D01*
X32524607Y31745372D01*
X32508606Y31760026D01*
X32493269Y31775363D01*
X32490694Y31776430D01*
X32488639Y31778312D01*
X32468245Y31785728D01*
X32448209Y31794027D01*
X32444387Y31794404D01*
X32442802Y31794980D01*
X32439850Y31794851D01*
X32423823Y31796429D01*
X31199437Y31794027D01*
X31154377Y31775363D01*
X31119889Y31740875D01*
X31101225Y31695815D01*
X30143135Y31695815D01*
X30146551Y31701242D01*
X30194140Y31800299D01*
X30195825Y31801983D01*
X30201297Y31815197D01*
X30212452Y31838413D01*
X30212770Y31842895D01*
X30214489Y31847043D01*
X30216891Y31871429D01*
X30214897Y32081331D01*
X30215910Y32084367D01*
X30214708Y32101271D01*
X30214489Y32124387D01*
X30212770Y32128536D01*
X30212452Y32133017D01*
X30203695Y32155902D01*
X30147246Y32264480D01*
X30143342Y32276192D01*
X30137887Y32282481D01*
X30133497Y32290926D01*
X30121655Y32301196D01*
X30111386Y32313037D01*
X30099048Y32320804D01*
X30096652Y32322882D01*
X30094727Y32323524D01*
X30090649Y32326091D01*
X29991591Y32373680D01*
X29989908Y32375363D01*
X29976694Y32380837D01*
X29953477Y32391990D01*
X29948997Y32392309D01*
X29944848Y32394027D01*
X29920462Y32396429D01*
X29349166Y32394328D01*
X29333401Y32395448D01*
X29329825Y32394257D01*
X29267505Y32394027D01*
X29222445Y32375363D01*
X29187957Y32340875D01*
X29169293Y32295815D01*
X29169293Y32247043D01*
X29182860Y32214287D01*
X29182484Y32213377D01*
X29171330Y32190160D01*
X29171011Y32185679D01*
X29169293Y32181530D01*
X29166891Y32157144D01*
X28633558Y32157144D01*
X28633558Y33128572D01*
X28766891Y33128572D01*
X28768769Y32975468D01*
X28767872Y32972776D01*
X28768996Y32956962D01*
X28769293Y32932757D01*
X28771011Y32928609D01*
X28771330Y32924127D01*
X28780088Y32901241D01*
X28850285Y32766218D01*
X28887130Y32734262D01*
X28933401Y32718839D01*
X28982051Y32722297D01*
X29025673Y32744109D01*
X29057629Y32780954D01*
X29073053Y32827225D01*
X29069595Y32875874D01*
X29060837Y32898760D01*
X29016562Y32983921D01*
X29015180Y33096580D01*
X29048627Y33166199D01*
X29077109Y33196012D01*
X29146729Y33232207D01*
X29166991Y33232256D01*
X29168884Y33032956D01*
X29167872Y33029919D01*
X29169073Y33013016D01*
X29169293Y32989900D01*
X29171011Y32985752D01*
X29171330Y32981270D01*
X29180088Y32958384D01*
X29239438Y32844225D01*
X29245100Y32830556D01*
X29249041Y32825754D01*
X29250285Y32823361D01*
X29252780Y32821197D01*
X29260645Y32811613D01*
X29321000Y32753952D01*
X29329537Y32744109D01*
X29334713Y32740851D01*
X29336729Y32738925D01*
X29339779Y32737662D01*
X29350274Y32731055D01*
X29449332Y32683465D01*
X29451016Y32681781D01*
X29464227Y32676309D01*
X29487446Y32665154D01*
X29491927Y32664836D01*
X29496076Y32663117D01*
X29520462Y32660715D01*
X29844274Y32662833D01*
X29847685Y32661696D01*
X29865647Y32662973D01*
X29887705Y32663117D01*
X29891853Y32664836D01*
X29896335Y32665154D01*
X29919221Y32673912D01*
X30033379Y32733262D01*
X30047051Y32738925D01*
X30051853Y32742867D01*
X30054244Y32744109D01*
X30056407Y32746604D01*
X30065993Y32754470D01*
X30123654Y32814826D01*
X30133497Y32823362D01*
X30136755Y32828539D01*
X30138681Y32830554D01*
X30139944Y32833605D01*
X30146551Y32844099D01*
X30194140Y32943156D01*
X30195825Y32944840D01*
X30201297Y32958054D01*
X30212452Y32981270D01*
X30212770Y32985752D01*
X30214489Y32989900D01*
X30216891Y33014286D01*
X30214897Y33224189D01*
X30215910Y33227225D01*
X30214708Y33244129D01*
X30214489Y33267244D01*
X30212770Y33271393D01*
X30212452Y33275874D01*
X30203694Y33298760D01*
X30201864Y33302279D01*
X30214489Y33332757D01*
X30214489Y33381529D01*
X30195825Y33426589D01*
X30161337Y33461077D01*
X30116277Y33479741D01*
X30091891Y33482143D01*
X29344947Y33480342D01*
X29333401Y33481162D01*
X29330836Y33480308D01*
X29140038Y33479848D01*
X29136096Y33481161D01*
X29116816Y33479792D01*
X29096076Y33479741D01*
X29091926Y33478023D01*
X29087447Y33477704D01*
X29064561Y33468947D01*
X28950402Y33409598D01*
X28936729Y33403934D01*
X28931926Y33399993D01*
X28929538Y33398751D01*
X28927376Y33396259D01*
X28917787Y33388389D01*
X28860129Y33328035D01*
X28850285Y33319497D01*
X28847024Y33314318D01*
X28845100Y33312303D01*
X28843837Y33309255D01*
X28837231Y33298760D01*
X28789640Y33199702D01*
X28787957Y33198018D01*
X28782484Y33184807D01*
X28771330Y33161588D01*
X28771011Y33157107D01*
X28769293Y33152958D01*
X28766891Y33128572D01*
X28633558Y33128572D01*
X28633558Y34271429D01*
X29166891Y34271429D01*
X29168884Y34061527D01*
X29167872Y34058490D01*
X29169073Y34041587D01*
X29169293Y34018471D01*
X29171011Y34014323D01*
X29171330Y34009841D01*
X29180088Y33986955D01*
X29236534Y33878381D01*
X29240439Y33866668D01*
X29245893Y33860380D01*
X29250285Y33851932D01*
X29262129Y33841660D01*
X29272395Y33829823D01*
X29284727Y33822060D01*
X29287130Y33819976D01*
X29289058Y33819334D01*
X29293132Y33816769D01*
X29392188Y33769180D01*
X29393873Y33767495D01*
X29407086Y33762023D01*
X29430303Y33750868D01*
X29434784Y33750550D01*
X29438933Y33748831D01*
X29463319Y33746429D01*
X29686201Y33747541D01*
X29691760Y33746429D01*
X29697669Y33747599D01*
X29901218Y33748614D01*
X29904828Y33747410D01*
X29923308Y33748724D01*
X29944848Y33748831D01*
X29948996Y33750550D01*
X29953478Y33750868D01*
X29976364Y33759626D01*
X30084936Y33816072D01*
X30096652Y33819977D01*
X30102942Y33825433D01*
X30111387Y33829823D01*
X30121656Y33841664D01*
X30133497Y33851933D01*
X30141263Y33864270D01*
X30143343Y33866668D01*
X30143984Y33868594D01*
X30146551Y33872670D01*
X30194140Y33971727D01*
X30195825Y33973411D01*
X30201297Y33986625D01*
X30212452Y34009841D01*
X30212770Y34014323D01*
X30214489Y34018471D01*
X30216891Y34042857D01*
X30214897Y34252759D01*
X30215910Y34255795D01*
X30214708Y34272699D01*
X30214489Y34295815D01*
X30212770Y34299964D01*
X30212452Y34304445D01*
X30203695Y34327330D01*
X30147246Y34435908D01*
X30143342Y34447620D01*
X30137887Y34453909D01*
X30133497Y34462354D01*
X30121655Y34472624D01*
X30111386Y34484465D01*
X30099048Y34492232D01*
X30096652Y34494310D01*
X30094727Y34494952D01*
X30090649Y34497519D01*
X29991591Y34545108D01*
X29989908Y34546791D01*
X29976694Y34552265D01*
X29953477Y34563418D01*
X29948997Y34563737D01*
X29944848Y34565455D01*
X29920462Y34567857D01*
X29815401Y34566038D01*
X29806307Y34567856D01*
X29795356Y34565690D01*
X29781790Y34565455D01*
X29770474Y34560769D01*
X29758462Y34558392D01*
X29748165Y34551528D01*
X29736730Y34546791D01*
X29728068Y34538130D01*
X29717880Y34531337D01*
X29710994Y34521056D01*
X29702242Y34512303D01*
X29697554Y34500987D01*
X29690741Y34490812D01*
X29683603Y34467371D01*
X29591029Y33994786D01*
X29496157Y33994313D01*
X29442260Y34020207D01*
X29416638Y34069490D01*
X29415027Y34239118D01*
X29469595Y34352699D01*
X29473053Y34401349D01*
X29457629Y34447620D01*
X29425673Y34484465D01*
X29382050Y34506276D01*
X29333400Y34509734D01*
X29287130Y34494310D01*
X29250285Y34462354D01*
X29237231Y34441617D01*
X29189640Y34342559D01*
X29187957Y34340875D01*
X29182484Y34327664D01*
X29171330Y34304445D01*
X29171011Y34299964D01*
X29169293Y34295815D01*
X29166891Y34271429D01*
X28633558Y34271429D01*
X28633558Y36010100D01*
X29169293Y36010100D01*
X29169293Y35961328D01*
X29187957Y35916268D01*
X29222445Y35881780D01*
X29267505Y35863116D01*
X29291891Y35860714D01*
X29887468Y35862905D01*
X29941521Y35836937D01*
X29967219Y35787508D01*
X29968601Y35674850D01*
X29943113Y35621798D01*
X29894129Y35596332D01*
X29267505Y35594026D01*
X29222445Y35575362D01*
X29187957Y35540874D01*
X29169293Y35495814D01*
X29169293Y35447042D01*
X29187957Y35401982D01*
X29222445Y35367494D01*
X29267505Y35348830D01*
X29291891Y35346428D01*
X29887468Y35348619D01*
X29941522Y35322651D01*
X29967219Y35273223D01*
X29968601Y35160565D01*
X29935154Y35090947D01*
X29926283Y35081661D01*
X29267505Y35079741D01*
X29222445Y35061077D01*
X29187957Y35026589D01*
X29169293Y34981529D01*
X29169293Y34932757D01*
X29187957Y34887697D01*
X29222445Y34853209D01*
X29267505Y34834545D01*
X29291891Y34832143D01*
X30116277Y34834545D01*
X30161337Y34853209D01*
X30195825Y34887697D01*
X30214489Y34932757D01*
X30214489Y34981529D01*
X30195825Y35026589D01*
X30184675Y35037739D01*
X30194140Y35057441D01*
X30195825Y35059125D01*
X30201297Y35072339D01*
X30212452Y35095555D01*
X30212770Y35100037D01*
X30214489Y35104185D01*
X30216891Y35128571D01*
X30215012Y35281675D01*
X30215910Y35284366D01*
X30214785Y35300181D01*
X30214489Y35324386D01*
X30212770Y35328535D01*
X30212452Y35333016D01*
X30203695Y35355901D01*
X30147246Y35464479D01*
X30145220Y35470556D01*
X30146551Y35472669D01*
X30194141Y35571728D01*
X30195825Y35573411D01*
X30201297Y35586623D01*
X30212452Y35609841D01*
X30212770Y35614323D01*
X30214489Y35618471D01*
X30216891Y35642857D01*
X30215012Y35795962D01*
X30215910Y35798653D01*
X30214785Y35814468D01*
X30214489Y35838672D01*
X30212770Y35842821D01*
X30212452Y35847302D01*
X30203694Y35870188D01*
X30147248Y35978761D01*
X30143343Y35990475D01*
X30137887Y35996766D01*
X30133497Y36005210D01*
X30121656Y36015480D01*
X30111387Y36027320D01*
X30099050Y36035087D01*
X30096652Y36037166D01*
X30094726Y36037808D01*
X30090650Y36040374D01*
X29991591Y36087965D01*
X29989908Y36089648D01*
X29976696Y36095121D01*
X29953478Y36106275D01*
X29948996Y36106594D01*
X29944848Y36108312D01*
X29920462Y36110714D01*
X29267505Y36108312D01*
X29222445Y36089648D01*
X29187957Y36055160D01*
X29169293Y36010100D01*
X28633558Y36010100D01*
X28633558Y36900000D01*
X29166891Y36900000D01*
X29168884Y36690098D01*
X29167872Y36687061D01*
X29169073Y36670158D01*
X29169293Y36647042D01*
X29171011Y36642894D01*
X29171330Y36638412D01*
X29180088Y36615526D01*
X29236534Y36506952D01*
X29240439Y36495239D01*
X29245893Y36488951D01*
X29250285Y36480503D01*
X29262129Y36470231D01*
X29272395Y36458394D01*
X29284727Y36450631D01*
X29287130Y36448547D01*
X29289058Y36447905D01*
X29293132Y36445340D01*
X29392188Y36397751D01*
X29393873Y36396066D01*
X29407086Y36390594D01*
X29430303Y36379439D01*
X29434784Y36379121D01*
X29438933Y36377402D01*
X29463319Y36375000D01*
X29686201Y36376112D01*
X29691760Y36375000D01*
X29697669Y36376170D01*
X29901218Y36377185D01*
X29904828Y36375981D01*
X29923308Y36377295D01*
X29944848Y36377402D01*
X29948996Y36379121D01*
X29953478Y36379439D01*
X29976364Y36388197D01*
X30084936Y36444643D01*
X30096652Y36448548D01*
X30102942Y36454004D01*
X30111387Y36458394D01*
X30121656Y36470235D01*
X30133497Y36480504D01*
X30141263Y36492841D01*
X30143343Y36495239D01*
X30143984Y36497165D01*
X30146551Y36501241D01*
X30194140Y36600298D01*
X30195825Y36601982D01*
X30201297Y36615196D01*
X30212452Y36638412D01*
X30212770Y36642894D01*
X30214489Y36647042D01*
X30216891Y36671428D01*
X30214897Y36881330D01*
X30215910Y36884366D01*
X30214708Y36901270D01*
X30214489Y36924386D01*
X30212770Y36928535D01*
X30212452Y36933016D01*
X30203695Y36955901D01*
X30147246Y37064479D01*
X30143342Y37076191D01*
X30137887Y37082480D01*
X30133497Y37090925D01*
X30121655Y37101195D01*
X30111386Y37113036D01*
X30099048Y37120803D01*
X30096652Y37122881D01*
X30094727Y37123523D01*
X30090649Y37126090D01*
X29991591Y37173679D01*
X29989908Y37175362D01*
X29976694Y37180836D01*
X29953477Y37191989D01*
X29948997Y37192308D01*
X29944848Y37194026D01*
X29920462Y37196428D01*
X29815401Y37194609D01*
X29806307Y37196427D01*
X29795356Y37194261D01*
X29781790Y37194026D01*
X29770474Y37189340D01*
X29758462Y37186963D01*
X29748165Y37180099D01*
X29736730Y37175362D01*
X29728068Y37166701D01*
X29717880Y37159908D01*
X29710994Y37149627D01*
X29702242Y37140874D01*
X29697554Y37129558D01*
X29690741Y37119383D01*
X29683603Y37095942D01*
X29591029Y36623357D01*
X29496157Y36622884D01*
X29442260Y36648778D01*
X29416638Y36698061D01*
X29415027Y36867689D01*
X29469595Y36981270D01*
X29473053Y37029920D01*
X29457629Y37076191D01*
X29425673Y37113036D01*
X29382050Y37134847D01*
X29333400Y37138305D01*
X29287130Y37122881D01*
X29250285Y37090925D01*
X29237231Y37070188D01*
X29189640Y36971130D01*
X29187957Y36969446D01*
X29182484Y36956235D01*
X29171330Y36933016D01*
X29171011Y36928535D01*
X29169293Y36924386D01*
X29166891Y36900000D01*
X28633558Y36900000D01*
X28633558Y38124385D01*
X29169293Y38124385D01*
X29169293Y38075613D01*
X29187957Y38030553D01*
X29222445Y37996065D01*
X29267505Y37977401D01*
X29291891Y37974999D01*
X29887468Y37977190D01*
X29941522Y37951222D01*
X29967219Y37901794D01*
X29968601Y37789136D01*
X29935154Y37719518D01*
X29926283Y37710232D01*
X29267505Y37708312D01*
X29222445Y37689648D01*
X29187957Y37655160D01*
X29169293Y37610100D01*
X29169293Y37561328D01*
X29187957Y37516268D01*
X29222445Y37481780D01*
X29267505Y37463116D01*
X29291891Y37460714D01*
X30116277Y37463116D01*
X30161337Y37481780D01*
X30195825Y37516268D01*
X30214489Y37561328D01*
X30214489Y37610100D01*
X30195825Y37655160D01*
X30184675Y37666310D01*
X30194140Y37686012D01*
X30195825Y37687696D01*
X30201297Y37700910D01*
X30212452Y37724126D01*
X30212770Y37728608D01*
X30214489Y37732756D01*
X30216891Y37757142D01*
X30215012Y37910246D01*
X30215910Y37912937D01*
X30214785Y37928752D01*
X30214489Y37952957D01*
X30212770Y37957106D01*
X30212452Y37961587D01*
X30203695Y37984472D01*
X30147246Y38093050D01*
X30143342Y38104762D01*
X30137887Y38111051D01*
X30133497Y38119496D01*
X30121655Y38129766D01*
X30111386Y38141607D01*
X30099048Y38149374D01*
X30096652Y38151452D01*
X30094727Y38152094D01*
X30090649Y38154661D01*
X29991591Y38202250D01*
X29989908Y38203933D01*
X29976694Y38209407D01*
X29953477Y38220560D01*
X29948997Y38220879D01*
X29944848Y38222597D01*
X29920462Y38224999D01*
X29267505Y38222597D01*
X29222445Y38203933D01*
X29187957Y38169445D01*
X29169293Y38124385D01*
X28633558Y38124385D01*
X28633558Y38957142D01*
X29166891Y38957142D01*
X29168563Y38860565D01*
X29167872Y38858489D01*
X29168834Y38844951D01*
X29169293Y38818470D01*
X29171011Y38814322D01*
X29171330Y38809840D01*
X29180088Y38786954D01*
X29236534Y38678380D01*
X29240439Y38666667D01*
X29245893Y38660379D01*
X29250285Y38651931D01*
X29262129Y38641659D01*
X29272395Y38629822D01*
X29284727Y38622059D01*
X29287130Y38619975D01*
X29289058Y38619333D01*
X29293132Y38616768D01*
X29392188Y38569179D01*
X29393873Y38567494D01*
X29407086Y38562022D01*
X29430303Y38550867D01*
X29434784Y38550549D01*
X29438933Y38548830D01*
X29463319Y38546428D01*
X29968934Y38547582D01*
X29969293Y38475613D01*
X29987957Y38430553D01*
X30022445Y38396065D01*
X30067505Y38377401D01*
X30116277Y38377401D01*
X30161337Y38396065D01*
X30195825Y38430553D01*
X30214489Y38475613D01*
X30216891Y38499999D01*
X30216650Y38548147D01*
X30516277Y38548830D01*
X30561337Y38567494D01*
X30595825Y38601982D01*
X30614489Y38647042D01*
X30614489Y38695814D01*
X30595825Y38740874D01*
X30561337Y38775362D01*
X30516277Y38794026D01*
X30491891Y38796428D01*
X30215415Y38795798D01*
X30214489Y38981528D01*
X30195825Y39026588D01*
X30161337Y39061076D01*
X30116277Y39079740D01*
X30067505Y39079740D01*
X30022445Y39061076D01*
X29987957Y39026588D01*
X29969293Y38981528D01*
X29966891Y38957142D01*
X29967698Y38795233D01*
X29496478Y38794158D01*
X29442260Y38820206D01*
X29416422Y38869904D01*
X29414489Y38981528D01*
X29395825Y39026588D01*
X29361337Y39061076D01*
X29316277Y39079740D01*
X29267505Y39079740D01*
X29222445Y39061076D01*
X29187957Y39026588D01*
X29169293Y38981528D01*
X29166891Y38957142D01*
X28633558Y38957142D01*
X28633558Y40614285D01*
X29166891Y40614285D01*
X29168884Y40404383D01*
X29167872Y40401346D01*
X29169073Y40384443D01*
X29169293Y40361327D01*
X29171011Y40357179D01*
X29171330Y40352697D01*
X29180088Y40329811D01*
X29181917Y40326293D01*
X29169293Y40295814D01*
X29169293Y40247042D01*
X29187957Y40201982D01*
X29222445Y40167494D01*
X29267505Y40148830D01*
X29291891Y40146428D01*
X30043439Y40147903D01*
X30050381Y40147409D01*
X30051910Y40147920D01*
X30516277Y40148830D01*
X30561337Y40167494D01*
X30595825Y40201982D01*
X30614489Y40247042D01*
X30614489Y40295814D01*
X30595825Y40340874D01*
X30561337Y40375362D01*
X30516277Y40394026D01*
X30491891Y40396428D01*
X30216794Y40395889D01*
X30214897Y40595615D01*
X30215910Y40598651D01*
X30214708Y40615555D01*
X30214489Y40638671D01*
X30212770Y40642820D01*
X30212452Y40647301D01*
X30203695Y40670186D01*
X30144345Y40784343D01*
X30138681Y40798018D01*
X30134738Y40802823D01*
X30133497Y40805210D01*
X30131005Y40807372D01*
X30123136Y40816960D01*
X30062781Y40874618D01*
X30054244Y40884462D01*
X30049064Y40887723D01*
X30047050Y40889647D01*
X30044001Y40890910D01*
X30033507Y40897516D01*
X29934448Y40945107D01*
X29932765Y40946790D01*
X29919553Y40952263D01*
X29896335Y40963417D01*
X29891853Y40963736D01*
X29887705Y40965454D01*
X29863319Y40967856D01*
X29539506Y40965739D01*
X29536096Y40966875D01*
X29518133Y40965599D01*
X29496076Y40965454D01*
X29491927Y40963736D01*
X29487446Y40963417D01*
X29464561Y40954660D01*
X29350400Y40895309D01*
X29336730Y40889646D01*
X29331927Y40885705D01*
X29329537Y40884462D01*
X29327373Y40881968D01*
X29317788Y40874101D01*
X29260131Y40813751D01*
X29250285Y40805210D01*
X29247024Y40800031D01*
X29245101Y40798017D01*
X29243838Y40794970D01*
X29237231Y40784473D01*
X29189640Y40685415D01*
X29187957Y40683731D01*
X29182484Y40670520D01*
X29171330Y40647301D01*
X29171011Y40642820D01*
X29169293Y40638671D01*
X29166891Y40614285D01*
X28633558Y40614285D01*
X28633558Y41699999D01*
X29166891Y41699999D01*
X29168769Y41546895D01*
X29167872Y41544203D01*
X29168996Y41528389D01*
X29169293Y41504184D01*
X29171011Y41500036D01*
X29171330Y41495554D01*
X29180088Y41472668D01*
X29239438Y41358509D01*
X29245100Y41344840D01*
X29249041Y41340038D01*
X29250285Y41337645D01*
X29252780Y41335481D01*
X29260645Y41325897D01*
X29321000Y41268236D01*
X29329537Y41258393D01*
X29334713Y41255135D01*
X29336729Y41253209D01*
X29339779Y41251946D01*
X29350274Y41245339D01*
X29449332Y41197749D01*
X29451016Y41196065D01*
X29464227Y41190593D01*
X29487446Y41179438D01*
X29491927Y41179120D01*
X29496076Y41177401D01*
X29520462Y41174999D01*
X29844274Y41177117D01*
X29847685Y41175980D01*
X29865647Y41177257D01*
X29887705Y41177401D01*
X29891853Y41179120D01*
X29896335Y41179438D01*
X29919221Y41188196D01*
X30033379Y41247546D01*
X30047051Y41253209D01*
X30051853Y41257151D01*
X30054244Y41258393D01*
X30056407Y41260888D01*
X30065993Y41268754D01*
X30123654Y41329110D01*
X30133497Y41337646D01*
X30136755Y41342823D01*
X30138681Y41344838D01*
X30139944Y41347889D01*
X30146551Y41358383D01*
X30194140Y41457440D01*
X30195825Y41459124D01*
X30201297Y41472338D01*
X30212452Y41495554D01*
X30212770Y41500036D01*
X30214489Y41504184D01*
X30216891Y41528570D01*
X30215012Y41681674D01*
X30215910Y41684365D01*
X30214785Y41700180D01*
X30214489Y41724385D01*
X30212770Y41728534D01*
X30212452Y41733015D01*
X30203695Y41755900D01*
X30144345Y41870057D01*
X30138681Y41883732D01*
X30134738Y41888537D01*
X30133497Y41890924D01*
X30131005Y41893086D01*
X30123136Y41902674D01*
X30062781Y41960332D01*
X30054244Y41970176D01*
X30049064Y41973437D01*
X30047050Y41975361D01*
X30044001Y41976624D01*
X30033507Y41983230D01*
X29934448Y42030821D01*
X29932765Y42032504D01*
X29919553Y42037977D01*
X29896335Y42049131D01*
X29891853Y42049450D01*
X29887705Y42051168D01*
X29863319Y42053570D01*
X29539506Y42051453D01*
X29536096Y42052589D01*
X29518133Y42051313D01*
X29496076Y42051168D01*
X29491927Y42049450D01*
X29487446Y42049131D01*
X29464561Y42040374D01*
X29350400Y41981023D01*
X29336730Y41975360D01*
X29331927Y41971419D01*
X29329537Y41970176D01*
X29327373Y41967682D01*
X29317788Y41959815D01*
X29260131Y41899465D01*
X29250285Y41890924D01*
X29247024Y41885745D01*
X29245101Y41883731D01*
X29243838Y41880684D01*
X29237231Y41870187D01*
X29189640Y41771129D01*
X29187957Y41769445D01*
X29182484Y41756234D01*
X29171330Y41733015D01*
X29171011Y41728534D01*
X29169293Y41724385D01*
X29166891Y41699999D01*
X28633558Y41699999D01*
X28633558Y42842856D01*
X29166891Y42842856D01*
X29168957Y42576032D01*
X29167872Y42572774D01*
X29169118Y42555232D01*
X29169293Y42532755D01*
X29171011Y42528607D01*
X29171330Y42524125D01*
X29180088Y42501239D01*
X29236534Y42392665D01*
X29240439Y42380952D01*
X29245893Y42374664D01*
X29250285Y42366216D01*
X29262129Y42355944D01*
X29272395Y42344107D01*
X29284727Y42336344D01*
X29287130Y42334260D01*
X29289058Y42333618D01*
X29293132Y42331053D01*
X29392188Y42283464D01*
X29393873Y42281779D01*
X29407086Y42276307D01*
X29430303Y42265152D01*
X29434784Y42264834D01*
X29438933Y42263115D01*
X29463319Y42260713D01*
X29559895Y42262386D01*
X29561971Y42261694D01*
X29575509Y42262657D01*
X29601991Y42263115D01*
X29606139Y42264834D01*
X29610621Y42265152D01*
X29633507Y42273910D01*
X29742079Y42330356D01*
X29753795Y42334261D01*
X29760085Y42339717D01*
X29768530Y42344107D01*
X29778799Y42355948D01*
X29790640Y42366217D01*
X29798406Y42378554D01*
X29800486Y42380952D01*
X29801127Y42382878D01*
X29803694Y42386954D01*
X29851283Y42486011D01*
X29852968Y42487695D01*
X29858440Y42500909D01*
X29869595Y42524125D01*
X29869913Y42528607D01*
X29871632Y42532755D01*
X29874034Y42557141D01*
X29872072Y42810341D01*
X29883591Y42834318D01*
X29887468Y42834332D01*
X29941522Y42808364D01*
X29967143Y42759082D01*
X29968754Y42589453D01*
X29914187Y42475872D01*
X29910729Y42427223D01*
X29926153Y42380952D01*
X29958109Y42344107D01*
X30001732Y42322295D01*
X30050381Y42318837D01*
X30096652Y42334261D01*
X30133497Y42366217D01*
X30146551Y42386954D01*
X30194140Y42486011D01*
X30195825Y42487695D01*
X30201297Y42500909D01*
X30212452Y42524125D01*
X30212770Y42528607D01*
X30214489Y42532755D01*
X30216891Y42557141D01*
X30214897Y42767043D01*
X30215910Y42770079D01*
X30214708Y42786983D01*
X30214489Y42810099D01*
X30212770Y42814248D01*
X30212452Y42818729D01*
X30203695Y42841614D01*
X30147246Y42950192D01*
X30143342Y42961904D01*
X30137887Y42968193D01*
X30133497Y42976638D01*
X30121655Y42986908D01*
X30111386Y42998749D01*
X30099048Y43006516D01*
X30096652Y43008594D01*
X30094727Y43009236D01*
X30090649Y43011803D01*
X29991591Y43059392D01*
X29989908Y43061075D01*
X29976694Y43066549D01*
X29953477Y43077702D01*
X29948997Y43078021D01*
X29944848Y43079739D01*
X29920462Y43082141D01*
X29349166Y43080040D01*
X29333401Y43081160D01*
X29329825Y43079969D01*
X29267505Y43079739D01*
X29222445Y43061075D01*
X29187957Y43026587D01*
X29169293Y42981527D01*
X29169293Y42932755D01*
X29182860Y42899999D01*
X29182484Y42899089D01*
X29171330Y42875872D01*
X29171011Y42871391D01*
X29169293Y42867242D01*
X29166891Y42842856D01*
X28633558Y42842856D01*
X28633558Y43552956D01*
X29169293Y43552956D01*
X29169293Y43504184D01*
X29187957Y43459124D01*
X29222445Y43424636D01*
X29267505Y43405972D01*
X29291891Y43403570D01*
X29845786Y43405184D01*
X29847685Y43404551D01*
X29857050Y43405217D01*
X30116277Y43405972D01*
X30161337Y43424636D01*
X30195825Y43459124D01*
X30214489Y43504184D01*
X30214489Y43552956D01*
X30195825Y43598016D01*
X30166131Y43627710D01*
X30194141Y43686012D01*
X30195825Y43687695D01*
X30201297Y43700907D01*
X30212452Y43724125D01*
X30212770Y43728607D01*
X30214489Y43732755D01*
X30216891Y43757141D01*
X30214489Y43895813D01*
X30195825Y43940873D01*
X30161337Y43975361D01*
X30116277Y43994025D01*
X30067505Y43994025D01*
X30022445Y43975361D01*
X29987957Y43940873D01*
X29969293Y43895813D01*
X29966891Y43871427D01*
X29968326Y43788562D01*
X29935154Y43719514D01*
X29906673Y43689703D01*
X29835737Y43652824D01*
X29267505Y43651168D01*
X29222445Y43632504D01*
X29187957Y43598016D01*
X29169293Y43552956D01*
X28633558Y43552956D01*
X28633558Y44671427D01*
X29166891Y44671427D01*
X29168884Y44461525D01*
X29167872Y44458488D01*
X29169073Y44441585D01*
X29169293Y44418469D01*
X29171011Y44414321D01*
X29171330Y44409839D01*
X29180088Y44386953D01*
X29239438Y44272794D01*
X29245100Y44259125D01*
X29249041Y44254323D01*
X29250285Y44251930D01*
X29252780Y44249766D01*
X29260645Y44240182D01*
X29321000Y44182521D01*
X29329537Y44172678D01*
X29334713Y44169420D01*
X29336729Y44167494D01*
X29339779Y44166231D01*
X29350274Y44159624D01*
X29449332Y44112034D01*
X29451016Y44110350D01*
X29464227Y44104878D01*
X29487446Y44093723D01*
X29491927Y44093405D01*
X29496076Y44091686D01*
X29520462Y44089284D01*
X29844274Y44091402D01*
X29847685Y44090265D01*
X29865647Y44091542D01*
X29887705Y44091686D01*
X29891853Y44093405D01*
X29896335Y44093723D01*
X29919221Y44102481D01*
X30033379Y44161831D01*
X30047051Y44167494D01*
X30051853Y44171436D01*
X30054244Y44172678D01*
X30056407Y44175173D01*
X30065993Y44183039D01*
X30123654Y44243395D01*
X30133497Y44251931D01*
X30136755Y44257108D01*
X30138681Y44259123D01*
X30139944Y44262174D01*
X30146551Y44272668D01*
X30194140Y44371725D01*
X30195825Y44373409D01*
X30201297Y44386623D01*
X30212452Y44409839D01*
X30212770Y44414321D01*
X30214489Y44418469D01*
X30216891Y44442855D01*
X30214897Y44652758D01*
X30215910Y44655794D01*
X30215431Y44662524D01*
X30516277Y44663114D01*
X30561337Y44681778D01*
X30595825Y44716266D01*
X30614489Y44761326D01*
X30614489Y44810098D01*
X30595825Y44855158D01*
X30561337Y44889646D01*
X30516277Y44908310D01*
X30491891Y44910712D01*
X29351085Y44908474D01*
X29333401Y44909731D01*
X29329502Y44908432D01*
X29267505Y44908310D01*
X29222445Y44889646D01*
X29187957Y44855158D01*
X29169293Y44810098D01*
X29169293Y44761326D01*
X29182860Y44728570D01*
X29182484Y44727660D01*
X29171330Y44704443D01*
X29171011Y44699962D01*
X29169293Y44695813D01*
X29166891Y44671427D01*
X28633558Y44671427D01*
X28633558Y45044045D01*
X32682156Y45044045D01*
X32682156Y13955956D01*
G37*
D14*
X15176318Y27425333D02*
X16083461Y27425333D01*
X16083461Y27425333D02*
X16264889Y27485810D01*
X16264889Y27485810D02*
X16385842Y27606762D01*
X16385842Y27606762D02*
X16446318Y27788191D01*
X16446318Y27788191D02*
X16446318Y27909143D01*
X15599651Y26276286D02*
X16446318Y26276286D01*
X15115842Y26578667D02*
X16022984Y26881048D01*
X16022984Y26881048D02*
X16022984Y26094857D01*
D15*
%TO.C,R13*%
X29162779Y6740000D02*
X28837221Y6740000D01*
X29162779Y7760000D02*
X28837221Y7760000D01*
%TO.C,R29*%
X22837221Y7760000D02*
X23162779Y7760000D01*
X22837221Y6740000D02*
X23162779Y6740000D01*
%TO.C,R30*%
X23162779Y8240000D02*
X22837221Y8240000D01*
X23162779Y9260000D02*
X22837221Y9260000D01*
%TO.C,R14*%
X28837221Y9260000D02*
X29162779Y9260000D01*
X28837221Y8240000D02*
X29162779Y8240000D01*
D16*
%TO.C,J4*%
X7697000Y19652000D02*
X7697000Y19652000D01*
X7697000Y19652000D02*
X7697000Y19652000D01*
X7697000Y19652000D02*
X10447000Y19652000D01*
X7697000Y19652000D02*
X7697000Y34352000D01*
X10447000Y19652000D02*
X7697000Y19652000D01*
X10447000Y19652000D02*
X10447000Y19652000D01*
X13697000Y19652000D02*
X13697000Y19652000D01*
X13697000Y19652000D02*
X20447000Y19652000D01*
X20447000Y19652000D02*
X13697000Y19652000D01*
X20447000Y19652000D02*
X20447000Y19652000D01*
D12*
X23947000Y29252000D02*
X23947000Y29252000D01*
X24047000Y29252000D02*
X24047000Y29252000D01*
X24047000Y29252000D02*
X24047000Y29252000D01*
D16*
X22197000Y30252000D02*
X22197000Y30252000D01*
X22197000Y30252000D02*
X22197000Y32502000D01*
X22197000Y32502000D02*
X22197000Y30252000D01*
X22197000Y32502000D02*
X22197000Y32502000D01*
X7697000Y34352000D02*
X7697000Y19652000D01*
X7697000Y34352000D02*
X7697000Y34352000D01*
X7697000Y34352000D02*
X7697000Y34352000D01*
X7697000Y34352000D02*
X10447000Y34352000D01*
X10447000Y34352000D02*
X7697000Y34352000D01*
X10447000Y34352000D02*
X10447000Y34352000D01*
X13697000Y34352000D02*
X13697000Y34352000D01*
X13697000Y34352000D02*
X20447000Y34352000D01*
X20447000Y34352000D02*
X13697000Y34352000D01*
X20447000Y34352000D02*
X20447000Y34352000D01*
D12*
X23947000Y29252000D02*
G75*
G02*
X24047000Y29252000I50000J0D01*
G01*
X24047000Y29252000D02*
G75*
G02*
X23947000Y29252000I-50000J0D01*
G01*
X24047000Y29252000D02*
G75*
G02*
X23947000Y29252000I-50000J0D01*
G01*
D15*
%TO.C,U4*%
X56227200Y21261000D02*
X55757200Y21261000D01*
X55757200Y21261000D02*
X55757200Y22361000D01*
X49797200Y21261000D02*
X49797200Y24091000D01*
X49327200Y21261000D02*
X49797200Y21261000D01*
X56227200Y19761000D02*
X56227200Y21261000D01*
X49327200Y19761000D02*
X49327200Y21261000D01*
%TD*%
%LPC*%
D17*
%TO.C,J3*%
X42250000Y36410000D03*
X42250000Y16090000D03*
%TD*%
D18*
%TO.C,SW3*%
X48000000Y52312500D03*
X55000000Y52312500D03*
D19*
X53750000Y54812500D03*
X49250000Y54812500D03*
%TD*%
D20*
%TO.C,J16*%
X3000000Y2750000D03*
%TD*%
%TO.C,J15*%
X10500000Y2750000D03*
%TD*%
D21*
%TO.C,J9*%
X22500000Y10710000D03*
X25000000Y10710000D03*
X27000000Y10710000D03*
X29500000Y10710000D03*
D22*
X19000000Y8000000D03*
X33000000Y8000000D03*
%TD*%
D23*
%TO.C,MK2*%
X42250000Y42750000D03*
%TD*%
%TO.C,MK1*%
X14250000Y42750000D03*
%TD*%
D24*
%TO.C,J1*%
X1750000Y55750000D03*
D25*
X1750000Y53210000D03*
X1750000Y50670000D03*
X1750000Y48130000D03*
X1750000Y45590000D03*
X1750000Y43050000D03*
%TD*%
D26*
%TO.C,SW4*%
X16250000Y51080000D03*
X11250000Y51080000D03*
%TD*%
D24*
%TO.C,J6*%
X35650000Y29550000D03*
D25*
X35650000Y27010000D03*
X35650000Y24470000D03*
%TD*%
D27*
%TO.C,U5*%
X35500000Y4440000D03*
X35500000Y12560000D03*
X17000000Y4440000D03*
X17000000Y12560000D03*
%TD*%
D28*
%TO.C,P1*%
X5640000Y52840000D03*
X6656000Y47760000D03*
X4624000Y47760000D03*
%TD*%
D29*
%TO.C,J8*%
X7536000Y14770000D03*
D30*
X7536000Y12270000D03*
X7536000Y9770000D03*
%TD*%
D29*
%TO.C,J7*%
X2664000Y14770000D03*
D30*
X2664000Y12270000D03*
X2664000Y9770000D03*
%TD*%
D24*
%TO.C,J5*%
X55013400Y48012800D03*
D25*
X55013400Y45472800D03*
%TD*%
D31*
%TO.C,SW2*%
X30560000Y55640000D03*
D32*
X28020000Y55640000D03*
X25480000Y55640000D03*
X25480000Y48020000D03*
X28020000Y48020000D03*
X30560000Y48020000D03*
%TD*%
D33*
%TO.C,J10*%
X43691800Y9504550D03*
D34*
X50891800Y9504550D03*
D35*
X40541800Y3504550D03*
X54041800Y3504550D03*
%TD*%
D31*
%TO.C,C13*%
X13992400Y9919112D03*
D36*
X13992400Y7419112D03*
%TD*%
D24*
%TO.C,J12*%
X48384000Y45031000D03*
D25*
X48384000Y47571000D03*
%TD*%
D37*
%TO.C,FID4*%
X55750000Y750000D03*
%TD*%
%TO.C,FID5*%
X750000Y750000D03*
%TD*%
%TO.C,FID6*%
X55750000Y56750000D03*
%TD*%
D38*
%TO.C,R13*%
X29787500Y7250000D03*
X28212500Y7250000D03*
%TD*%
D39*
%TO.C,R29*%
X22212500Y7250000D03*
X23787500Y7250000D03*
%TD*%
D38*
%TO.C,R30*%
X23787500Y8750000D03*
X22212500Y8750000D03*
%TD*%
D39*
%TO.C,R14*%
X28212500Y8750000D03*
X29787500Y8750000D03*
%TD*%
D37*
%TO.C,J4*%
X11697000Y22052000D03*
X11697000Y30052000D03*
D40*
X22197000Y29252000D03*
X22197000Y28152000D03*
X22197000Y27052000D03*
X22197000Y25952000D03*
X22197000Y24852000D03*
X22197000Y23752000D03*
X22197000Y22652000D03*
X22197000Y21552000D03*
X22197000Y20452000D03*
D41*
X21697000Y19252000D03*
D42*
X21697000Y33852000D03*
D43*
X12097000Y34752000D03*
X12097000Y19252000D03*
%TD*%
D44*
%TO.C,U4*%
X50497200Y22991000D03*
X51637200Y22991000D03*
D45*
X52777200Y16691000D03*
D44*
X53917200Y22991000D03*
X55057200Y22991000D03*
%TD*%
%LPD*%
M02*
