<?xml version="1.0" standalone="no"?>
 <!DOCTYPE svg PUBLIC "-//W3C//DTD SVG 1.1//EN" 
 "http://www.w3.org/Graphics/SVG/1.1/DTD/svg11.dtd"> 
<svg xmlns="http://www.w3.org/2000/svg" version="1.1" 
    width="29.7002cm" height="21.0007cm" viewBox="0 0 116930 82680 ">
<title>SVG Picture created as KXKM_ESP32_battery_management_board-F_Mask.svg date 2019/05/14 10:44:54 </title>
  <desc>Picture generated by PCBNEW </desc>
<g style="fill:#000000; fill-opacity:1;stroke:#000000; stroke-opacity:1;
stroke-linecap:round; stroke-linejoin:round; "
 transform="translate(0 0) scale(1 1)">
</g>
<g style="fill:#000000; fill-opacity:0.0; 
stroke:#000000; stroke-width:-0.000393701; stroke-opacity:1; 
stroke-linecap:round; stroke-linejoin:round;">
</g>
<g style="fill:#000000; fill-opacity:1.0; 
stroke:#000000; stroke-width:0; stroke-opacity:1; 
stroke-linecap:round; stroke-linejoin:round;">
<path style="fill:#000000; fill-opacity:1.0; 
stroke:#000000; stroke-width:0; stroke-opacity:1; 
stroke-linecap:round; stroke-linejoin:round;fill-rule:evenodd;"
d="M 62557,53846
62557,53846
62557,53846
62593,53860
62609,53871
62625,53882
62652,53909
62674,53942
62689,53978
62696,54016
62696,54054
62689,54092
62689,54092
62674,54128
62652,54160
62625,54188
62593,54209
62593,54209
62593,54209
62557,54224
62519,54232
62480,54232
62442,54224
62406,54209
62406,54209
62406,54209
62374,54188
62347,54160
62325,54128
62310,54092
62310,54092
62303,54054
62303,54016
62310,53978
62325,53942
62347,53909
62374,53882
62390,53871
62406,53860
62442,53846
62442,53846
62442,53846
62480,53838
62519,53838
62557,53846
Z" /> 
<path style="fill:#000000; fill-opacity:1.0; 
stroke:#000000; stroke-width:0; stroke-opacity:1; 
stroke-linecap:round; stroke-linejoin:round;fill-rule:evenodd;"
d="M 40903,53846
40903,53846
40903,53846
40939,53860
40955,53871
40971,53882
40999,53909
41020,53942
41035,53978
41043,54016
41043,54054
41035,54092
41035,54092
41020,54128
40999,54160
40971,54188
40939,54209
40939,54209
40939,54209
40903,54224
40865,54232
40827,54232
40789,54224
40753,54209
40753,54209
40753,54209
40720,54188
40693,54160
40672,54128
40657,54092
40657,54092
40649,54054
40649,54016
40657,53978
40672,53942
40693,53909
40720,53882
40736,53871
40753,53860
40789,53846
40789,53846
40789,53846
40827,53838
40865,53838
40903,53846
Z" /> 
<path style="fill:#000000; fill-opacity:1.0; 
stroke:#000000; stroke-width:0; stroke-opacity:1; 
stroke-linecap:round; stroke-linejoin:round;fill-rule:evenodd;"
d="M 41998,52369
42067,52398
42165,52438
42314,52538
42441,52665
42541,52815
42582,52912
42610,52981
42645,53158
42645,53338
42610,53514
42582,53583
42541,53680
42441,53830
42314,53957
42165,54057
42079,54092
41998,54126
41822,54161
41642,54161
41465,54126
41384,54092
41299,54057
41149,53957
41022,53830
40922,53680
40882,53583
40853,53514
40818,53338
40818,53158
40853,52981
40882,52912
40922,52815
41022,52665
41149,52538
41299,52438
41396,52398
41465,52369
41642,52334
41822,52334
41998,52369
Z" /> 
<path style="fill:#000000; fill-opacity:1.0; 
stroke:#000000; stroke-width:0; stroke-opacity:1; 
stroke-linecap:round; stroke-linejoin:round;fill-rule:evenodd;"
d="M 44951,52369
45020,52398
45117,52438
45267,52538
45394,52665
45494,52815
45534,52912
45563,52981
45598,53158
45598,53338
45563,53514
45534,53583
45494,53680
45394,53830
45267,53957
45117,54057
45032,54092
44951,54126
44775,54161
44595,54161
44418,54126
44337,54092
44252,54057
44102,53957
43975,53830
43875,53680
43835,53583
43806,53514
43771,53338
43771,53158
43806,52981
43835,52912
43875,52815
43975,52665
44102,52538
44252,52438
44349,52398
44418,52369
44595,52334
44775,52334
44951,52369
Z" /> 
<path style="fill:#000000; fill-opacity:1.0; 
stroke:#000000; stroke-width:0; stroke-opacity:1; 
stroke-linecap:round; stroke-linejoin:round;fill-rule:evenodd;"
d="M 61880,52369
61949,52398
62046,52438
62196,52538
62323,52665
62423,52815
62464,52912
62492,52981
62527,53158
62527,53338
62492,53514
62464,53583
62423,53680
62323,53830
62196,53957
62046,54057
61961,54092
61880,54126
61704,54161
61524,54161
61347,54126
61266,54092
61181,54057
61031,53957
60904,53830
60804,53680
60764,53583
60735,53514
60700,53338
60700,53158
60735,52981
60764,52912
60804,52815
60904,52665
61031,52538
61181,52438
61278,52398
61347,52369
61524,52334
61704,52334
61880,52369
Z" /> 
<path style="fill:#000000; fill-opacity:1.0; 
stroke:#000000; stroke-width:0; stroke-opacity:1; 
stroke-linecap:round; stroke-linejoin:round;fill-rule:evenodd;"
d="M 58927,52369
58996,52398
59094,52438
59243,52538
59371,52665
59471,52815
59511,52912
59539,52981
59574,53158
59574,53338
59539,53514
59511,53583
59471,53680
59371,53830
59243,53957
59094,54057
59009,54092
58927,54126
58751,54161
58571,54161
58394,54126
58313,54092
58228,54057
58079,53957
57951,53830
57851,53680
57811,53583
57782,53514
57747,53338
57747,53158
57782,52981
57811,52912
57851,52815
57951,52665
58079,52538
58228,52438
58326,52398
58394,52369
58571,52334
58751,52334
58927,52369
Z" /> 
<path style="fill:#000000; fill-opacity:1.0; 
stroke:#000000; stroke-width:0; stroke-opacity:1; 
stroke-linecap:round; stroke-linejoin:round;fill-rule:evenodd;"
d="M 47665,53003
46822,53003
46822,52161
47665,52161
47665,53003
Z" /> 
<path style="fill:#000000; fill-opacity:1.0; 
stroke:#000000; stroke-width:0; stroke-opacity:1; 
stroke-linecap:round; stroke-linejoin:round;fill-rule:evenodd;"
d="M 54948,53003
54106,53003
54106,52161
54948,52161
54948,53003
Z" /> 
<path style="fill:#000000; fill-opacity:1.0; 
stroke:#000000; stroke-width:0; stroke-opacity:1; 
stroke-linecap:round; stroke-linejoin:round;fill-rule:evenodd;"
d="M 48229,50529
48352,50581
48352,50581
48463,50655
48557,50749
48557,50749
48631,50860
48682,50983
48708,51114
48708,51247
48682,51378
48631,51501
48631,51501
48557,51612
48463,51707
48407,51744
48352,51781
48229,51832
48098,51858
47964,51858
47833,51832
47710,51781
47655,51744
47599,51707
47505,51612
47431,51501
47431,51501
47380,51378
47354,51247
47354,51114
47380,50983
47431,50860
47505,50749
47505,50749
47599,50655
47710,50581
47710,50581
47833,50529
47964,50503
48098,50503
48229,50529
Z" /> 
<path style="fill:#000000; fill-opacity:1.0; 
stroke:#000000; stroke-width:0; stroke-opacity:1; 
stroke-linecap:round; stroke-linejoin:round;fill-rule:evenodd;"
d="M 53740,50529
53864,50581
53864,50581
53974,50655
54069,50749
54069,50749
54143,50860
54194,50983
54220,51114
54220,51247
54194,51378
54143,51501
54143,51501
54069,51612
53974,51707
53919,51744
53864,51781
53740,51832
53610,51858
53476,51858
53345,51832
53222,51781
53167,51744
53111,51707
53017,51612
52943,51501
52943,51501
52892,51378
52866,51247
52866,51114
52892,50983
52943,50860
53017,50749
53017,50749
53111,50655
53222,50581
53222,50581
53345,50529
53476,50503
53610,50503
53740,50529
Z" /> 
<path style="fill:#000000; fill-opacity:1.0; 
stroke:#000000; stroke-width:0; stroke-opacity:1; 
stroke-linecap:round; stroke-linejoin:round;fill-rule:evenodd;"
d="M 61248,51700
60208,51700
60208,50267
61248,50267
61248,51700
Z" /> 
<path style="fill:#000000; fill-opacity:1.0; 
stroke:#000000; stroke-width:0; stroke-opacity:1; 
stroke-linecap:round; stroke-linejoin:round;fill-rule:evenodd;"
d="M 43297,50189
43384,50225
43391,50228
43434,50257
43450,50267
43476,50285
43549,50357
43584,50410
43606,50442
43645,50537
43665,50637
43665,50740
43645,50840
43645,50840
43606,50935
43549,51020
43476,51092
43391,51149
43391,51149
43391,51149
43297,51188
43196,51208
43094,51208
42994,51188
42899,51149
42899,51149
42899,51149
42814,51092
42742,51020
42685,50935
42645,50840
42645,50840
42625,50740
42625,50637
42645,50537
42685,50442
42706,50410
42742,50357
42814,50285
42840,50267
42856,50257
42899,50228
42906,50225
42994,50189
43094,50169
43196,50169
43297,50189
Z" /> 
<path style="fill:#000000; fill-opacity:1.0; 
stroke:#000000; stroke-width:0; stroke-opacity:1; 
stroke-linecap:round; stroke-linejoin:round;fill-rule:evenodd;"
d="M 45165,51208
44125,51208
44125,50169
45165,50169
45165,51208
Z" /> 
<path style="fill:#000000; fill-opacity:1.0; 
stroke:#000000; stroke-width:0; stroke-opacity:1; 
stroke-linecap:round; stroke-linejoin:round;fill-rule:evenodd;"
d="M 41797,50189
41884,50225
41891,50228
41934,50257
41950,50267
41976,50285
42049,50357
42084,50410
42106,50442
42145,50537
42165,50637
42165,50740
42145,50840
42145,50840
42106,50935
42049,51020
41976,51092
41891,51149
41891,51149
41891,51149
41797,51188
41696,51208
41594,51208
41494,51188
41399,51149
41399,51149
41399,51149
41314,51092
41242,51020
41185,50935
41145,50840
41145,50840
41125,50740
41125,50637
41145,50537
41185,50442
41206,50410
41242,50357
41314,50285
41340,50267
41356,50257
41399,50228
41406,50225
41494,50189
41594,50169
41696,50169
41797,50189
Z" /> 
<path style="fill:#000000; fill-opacity:1.0; 
stroke:#000000; stroke-width:0; stroke-opacity:1; 
stroke-linecap:round; stroke-linejoin:round;fill-rule:evenodd;"
d="M 52276,49746
52346,49775
52346,49775
52408,49817
52461,49870
52461,49870
52503,49933
52532,50002
52547,50076
52547,50151
52532,50225
52503,50295
52503,50295
52461,50357
52408,50410
52377,50431
52346,50452
52276,50481
52202,50496
52127,50496
52053,50481
51984,50452
51953,50431
51921,50410
51868,50357
51826,50295
51826,50295
51798,50225
51783,50151
51783,50076
51798,50002
51826,49933
51868,49870
51868,49870
51921,49817
51984,49775
51984,49775
52053,49746
52127,49732
52202,49732
52276,49746
Z" /> 
<path style="fill:#000000; fill-opacity:1.0; 
stroke:#000000; stroke-width:0; stroke-opacity:1; 
stroke-linecap:round; stroke-linejoin:round;fill-rule:evenodd;"
d="M 49520,49746
49590,49775
49590,49775
49652,49817
49706,49870
49706,49870
49747,49933
49776,50002
49791,50076
49791,50151
49776,50225
49747,50295
49747,50295
49706,50357
49652,50410
49621,50431
49590,50452
49520,50481
49447,50496
49371,50496
49298,50481
49228,50452
49197,50431
49166,50410
49112,50357
49071,50295
49071,50295
49042,50225
49027,50151
49027,50076
49042,50002
49071,49933
49112,49870
49112,49870
49166,49817
49228,49775
49228,49775
49298,49746
49371,49732
49447,49732
49520,49746
Z" /> 
<path style="fill:#000000; fill-opacity:1.0; 
stroke:#000000; stroke-width:0; stroke-opacity:1; 
stroke-linecap:round; stroke-linejoin:round;fill-rule:evenodd;"
d="M 50505,49746
50574,49775
50574,49775
50637,49817
50690,49870
50690,49870
50732,49933
50760,50002
50768,50038
50769,50042
50771,50045
50773,50048
50776,50051
50779,50053
50783,50054
50787,50054
50791,50054
50794,50053
50798,50051
50801,50048
50803,50045
50805,50042
50806,50038
50813,50002
50842,49933
50884,49870
50884,49870
50937,49817
51000,49775
51000,49775
51069,49746
51143,49732
51218,49732
51292,49746
51361,49775
51361,49775
51424,49817
51477,49870
51477,49870
51519,49933
51548,50002
51562,50076
51562,50151
51548,50225
51519,50295
51519,50295
51477,50357
51424,50410
51393,50431
51361,50452
51292,50481
51218,50496
51143,50496
51069,50481
51000,50452
50969,50431
50937,50410
50884,50357
50842,50295
50842,50295
50813,50225
50806,50189
50805,50185
50803,50182
50801,50179
50798,50176
50794,50175
50791,50174
50787,50173
50783,50174
50779,50175
50776,50176
50773,50179
50771,50182
50769,50185
50768,50189
50760,50225
50732,50295
50732,50295
50690,50357
50637,50410
50605,50431
50574,50452
50505,50481
50431,50496
50356,50496
50282,50481
50212,50452
50181,50431
50150,50410
50097,50357
50055,50295
50055,50295
50026,50225
50011,50151
50011,50076
50026,50002
50055,49933
50097,49870
50097,49870
50150,49817
50212,49775
50212,49775
50282,49746
50356,49732
50431,49732
50505,49746
Z" /> 
<path style="fill:#000000; fill-opacity:1.0; 
stroke:#000000; stroke-width:0; stroke-opacity:1; 
stroke-linecap:round; stroke-linejoin:round;fill-rule:evenodd;"
d="M 41797,48811
41797,48811
41797,48811
41891,48850
41934,48879
41976,48907
42049,48979
42106,49064
42145,49159
42165,49259
42165,49362
42145,49462
42106,49557
42049,49642
41976,49714
41934,49742
41891,49771
41891,49771
41891,49771
41797,49810
41696,49830
41594,49830
41494,49810
41399,49771
41399,49771
41399,49771
41356,49742
41314,49714
41242,49642
41185,49557
41145,49462
41125,49362
41125,49259
41145,49159
41185,49064
41242,48979
41314,48907
41356,48879
41399,48850
41494,48811
41494,48811
41494,48811
41594,48791
41696,48791
41797,48811
Z" /> 
<path style="fill:#000000; fill-opacity:1.0; 
stroke:#000000; stroke-width:0; stroke-opacity:1; 
stroke-linecap:round; stroke-linejoin:round;fill-rule:evenodd;"
d="M 43297,48811
43297,48811
43297,48811
43391,48850
43434,48879
43476,48907
43549,48979
43606,49064
43645,49159
43665,49259
43665,49362
43645,49462
43606,49557
43549,49642
43476,49714
43434,49742
43391,49771
43391,49771
43391,49771
43297,49810
43196,49830
43094,49830
42994,49810
42899,49771
42899,49771
42899,49771
42856,49742
42814,49714
42742,49642
42685,49557
42645,49462
42625,49362
42625,49259
42645,49159
42685,49064
42742,48979
42814,48907
42856,48879
42899,48850
42994,48811
42994,48811
42994,48811
43094,48791
43196,48791
43297,48811
Z" /> 
<path style="fill:#000000; fill-opacity:1.0; 
stroke:#000000; stroke-width:0; stroke-opacity:1; 
stroke-linecap:round; stroke-linejoin:round;fill-rule:evenodd;"
d="M 45165,49830
44125,49830
44125,48791
45165,48791
45165,49830
Z" /> 
<path style="fill:#000000; fill-opacity:1.0; 
stroke:#000000; stroke-width:0; stroke-opacity:1; 
stroke-linecap:round; stroke-linejoin:round;fill-rule:evenodd;"
d="M 47665,49807
46822,49807
46822,48964
47665,48964
47665,49807
Z" /> 
<path style="fill:#000000; fill-opacity:1.0; 
stroke:#000000; stroke-width:0; stroke-opacity:1; 
stroke-linecap:round; stroke-linejoin:round;fill-rule:evenodd;"
d="M 54948,49807
54106,49807
54106,48964
54948,48964
54948,49807
Z" /> 
<path style="fill:#000000; fill-opacity:1.0; 
stroke:#000000; stroke-width:0; stroke-opacity:1; 
stroke-linecap:round; stroke-linejoin:round;fill-rule:evenodd;"
d="M 61248,49141
60208,49141
60208,47708
61248,47708
61248,49141
Z" /> 
<path style="fill:#000000; fill-opacity:1.0; 
stroke:#000000; stroke-width:0; stroke-opacity:1; 
stroke-linecap:round; stroke-linejoin:round;fill-rule:evenodd;"
d="M 58795,48720
57559,48720
57559,48271
58795,48271
58795,48720
Z" /> 
<path style="fill:#000000; fill-opacity:1.0; 
stroke:#000000; stroke-width:0; stroke-opacity:1; 
stroke-linecap:round; stroke-linejoin:round;fill-rule:evenodd;"
d="M 56811,48720
55574,48720
55574,48271
56811,48271
56811,48720
Z" /> 
<path style="fill:#000000; fill-opacity:1.0; 
stroke:#000000; stroke-width:0; stroke-opacity:1; 
stroke-linecap:round; stroke-linejoin:round;fill-rule:evenodd;"
d="M 56811,47720
55574,47720
55574,47271
56811,47271
56811,47720
Z" /> 
<path style="fill:#000000; fill-opacity:1.0; 
stroke:#000000; stroke-width:0; stroke-opacity:1; 
stroke-linecap:round; stroke-linejoin:round;fill-rule:evenodd;"
d="M 58795,47720
57559,47720
57559,47271
58795,47271
58795,47720
Z" /> 
<path style="fill:#000000; fill-opacity:1.0; 
stroke:#000000; stroke-width:0; stroke-opacity:1; 
stroke-linecap:round; stroke-linejoin:round;fill-rule:evenodd;"
d="M 58795,46720
57559,46720
57559,46271
58795,46271
58795,46720
Z" /> 
<path style="fill:#000000; fill-opacity:1.0; 
stroke:#000000; stroke-width:0; stroke-opacity:1; 
stroke-linecap:round; stroke-linejoin:round;fill-rule:evenodd;"
d="M 56811,46720
55574,46720
55574,46271
56811,46271
56811,46720
Z" /> 
<path style="fill:#000000; fill-opacity:1.0; 
stroke:#000000; stroke-width:0; stroke-opacity:1; 
stroke-linecap:round; stroke-linejoin:round;fill-rule:evenodd;"
d="M 52062,46681
51653,46681
51653,45838
52062,45838
52062,46681
Z" /> 
<path style="fill:#000000; fill-opacity:1.0; 
stroke:#000000; stroke-width:0; stroke-opacity:1; 
stroke-linecap:round; stroke-linejoin:round;fill-rule:evenodd;"
d="M 46562,46681
46153,46681
46153,45838
46562,45838
46562,46681
Z" /> 
<path style="fill:#000000; fill-opacity:1.0; 
stroke:#000000; stroke-width:0; stroke-opacity:1; 
stroke-linecap:round; stroke-linejoin:round;fill-rule:evenodd;"
d="M 53062,46681
52653,46681
52653,45838
53062,45838
53062,46681
Z" /> 
<path style="fill:#000000; fill-opacity:1.0; 
stroke:#000000; stroke-width:0; stroke-opacity:1; 
stroke-linecap:round; stroke-linejoin:round;fill-rule:evenodd;"
d="M 52562,46681
52153,46681
52153,45838
52562,45838
52562,46681
Z" /> 
<path style="fill:#000000; fill-opacity:1.0; 
stroke:#000000; stroke-width:0; stroke-opacity:1; 
stroke-linecap:round; stroke-linejoin:round;fill-rule:evenodd;"
d="M 51562,46681
51153,46681
51153,45838
51562,45838
51562,46681
Z" /> 
<path style="fill:#000000; fill-opacity:1.0; 
stroke:#000000; stroke-width:0; stroke-opacity:1; 
stroke-linecap:round; stroke-linejoin:round;fill-rule:evenodd;"
d="M 51062,46681
50653,46681
50653,45838
51062,45838
51062,46681
Z" /> 
<path style="fill:#000000; fill-opacity:1.0; 
stroke:#000000; stroke-width:0; stroke-opacity:1; 
stroke-linecap:round; stroke-linejoin:round;fill-rule:evenodd;"
d="M 50562,46681
50153,46681
50153,45838
50562,45838
50562,46681
Z" /> 
<path style="fill:#000000; fill-opacity:1.0; 
stroke:#000000; stroke-width:0; stroke-opacity:1; 
stroke-linecap:round; stroke-linejoin:round;fill-rule:evenodd;"
d="M 49562,46681
49153,46681
49153,45838
49562,45838
49562,46681
Z" /> 
<path style="fill:#000000; fill-opacity:1.0; 
stroke:#000000; stroke-width:0; stroke-opacity:1; 
stroke-linecap:round; stroke-linejoin:round;fill-rule:evenodd;"
d="M 50062,46681
49653,46681
49653,45838
50062,45838
50062,46681
Z" /> 
<path style="fill:#000000; fill-opacity:1.0; 
stroke:#000000; stroke-width:0; stroke-opacity:1; 
stroke-linecap:round; stroke-linejoin:round;fill-rule:evenodd;"
d="M 47062,46681
46653,46681
46653,45838
47062,45838
47062,46681
Z" /> 
<path style="fill:#000000; fill-opacity:1.0; 
stroke:#000000; stroke-width:0; stroke-opacity:1; 
stroke-linecap:round; stroke-linejoin:round;fill-rule:evenodd;"
d="M 48062,46681
47653,46681
47653,45838
48062,45838
48062,46681
Z" /> 
<path style="fill:#000000; fill-opacity:1.0; 
stroke:#000000; stroke-width:0; stroke-opacity:1; 
stroke-linecap:round; stroke-linejoin:round;fill-rule:evenodd;"
d="M 47562,46681
47153,46681
47153,45838
47562,45838
47562,46681
Z" /> 
<path style="fill:#000000; fill-opacity:1.0; 
stroke:#000000; stroke-width:0; stroke-opacity:1; 
stroke-linecap:round; stroke-linejoin:round;fill-rule:evenodd;"
d="M 49062,46681
48653,46681
48653,45838
49062,45838
49062,46681
Z" /> 
<path style="fill:#000000; fill-opacity:1.0; 
stroke:#000000; stroke-width:0; stroke-opacity:1; 
stroke-linecap:round; stroke-linejoin:round;fill-rule:evenodd;"
d="M 48562,46681
48153,46681
48153,45838
48562,45838
48562,46681
Z" /> 
<path style="fill:#000000; fill-opacity:1.0; 
stroke:#000000; stroke-width:0; stroke-opacity:1; 
stroke-linecap:round; stroke-linejoin:round;fill-rule:evenodd;"
d="M 56811,45720
55574,45720
55574,45271
56811,45271
56811,45720
Z" /> 
<path style="fill:#000000; fill-opacity:1.0; 
stroke:#000000; stroke-width:0; stroke-opacity:1; 
stroke-linecap:round; stroke-linejoin:round;fill-rule:evenodd;"
d="M 58795,45720
57559,45720
57559,45271
58795,45271
58795,45720
Z" /> 
<path style="fill:#000000; fill-opacity:1.0; 
stroke:#000000; stroke-width:0; stroke-opacity:1; 
stroke-linecap:round; stroke-linejoin:round;fill-rule:evenodd;"
d="M 53673,45368
52830,45368
52830,44958
53673,44958
53673,45368
Z" /> 
<path style="fill:#000000; fill-opacity:1.0; 
stroke:#000000; stroke-width:0; stroke-opacity:1; 
stroke-linecap:round; stroke-linejoin:round;fill-rule:evenodd;"
d="M 59519,44178
59588,44199
59651,44232
59651,44232
59706,44278
59739,44318
59751,44333
59785,44396
59805,44464
59812,44535
59805,44606
59785,44674
59751,44737
59751,44737
59706,44792
59660,44830
59651,44838
59588,44871
59519,44892
59466,44897
59431,44897
59377,44892
59309,44871
59246,44838
59237,44830
59191,44792
59146,44737
59146,44737
59112,44674
59091,44606
59084,44535
59091,44464
59112,44396
59146,44333
59157,44318
59191,44278
59246,44232
59246,44232
59309,44199
59377,44178
59431,44173
59466,44173
59519,44178
Z" /> 
<path style="fill:#000000; fill-opacity:1.0; 
stroke:#000000; stroke-width:0; stroke-opacity:1; 
stroke-linecap:round; stroke-linejoin:round;fill-rule:evenodd;"
d="M 53673,44868
52830,44868
52830,44458
53673,44458
53673,44868
Z" /> 
<path style="fill:#000000; fill-opacity:1.0; 
stroke:#000000; stroke-width:0; stroke-opacity:1; 
stroke-linecap:round; stroke-linejoin:round;fill-rule:evenodd;"
d="M 58795,44720
57559,44720
57559,44271
58795,44271
58795,44720
Z" /> 
<path style="fill:#000000; fill-opacity:1.0; 
stroke:#000000; stroke-width:0; stroke-opacity:1; 
stroke-linecap:round; stroke-linejoin:round;fill-rule:evenodd;"
d="M 56811,44720
55574,44720
55574,44271
56811,44271
56811,44720
Z" /> 
<path style="fill:#000000; fill-opacity:1.0; 
stroke:#000000; stroke-width:0; stroke-opacity:1; 
stroke-linecap:round; stroke-linejoin:round;fill-rule:evenodd;"
d="M 54696,43753
54765,43773
54828,43807
54828,43807
54883,43852
54915,43892
54928,43908
54962,43970
54982,44039
54989,44110
54982,44181
54962,44249
54928,44312
54928,44312
54883,44367
54848,44396
54828,44412
54765,44446
54696,44467
54643,44472
54608,44472
54554,44467
54486,44446
54423,44412
54403,44396
54368,44367
54323,44312
54323,44312
54289,44249
54269,44181
54262,44110
54269,44039
54289,43970
54323,43908
54336,43892
54368,43852
54423,43807
54423,43807
54486,43773
54554,43753
54608,43748
54643,43748
54696,43753
Z" /> 
<path style="fill:#000000; fill-opacity:1.0; 
stroke:#000000; stroke-width:0; stroke-opacity:1; 
stroke-linecap:round; stroke-linejoin:round;fill-rule:evenodd;"
d="M 53673,44368
52830,44368
52830,43958
53673,43958
53673,44368
Z" /> 
<path style="fill:#000000; fill-opacity:1.0; 
stroke:#000000; stroke-width:0; stroke-opacity:1; 
stroke-linecap:round; stroke-linejoin:round;fill-rule:evenodd;"
d="M 50322,44318
48299,44318
48299,42295
50322,42295
50322,44318
Z" /> 
<path style="fill:#000000; fill-opacity:1.0; 
stroke:#000000; stroke-width:0; stroke-opacity:1; 
stroke-linecap:round; stroke-linejoin:round;fill-rule:evenodd;"
d="M 59519,43178
59588,43199
59651,43232
59651,43232
59706,43278
59743,43324
59751,43333
59785,43396
59805,43464
59812,43535
59805,43606
59785,43674
59751,43737
59751,43737
59706,43792
59660,43830
59651,43838
59588,43871
59519,43892
59466,43897
59431,43897
59377,43892
59309,43871
59246,43838
59237,43830
59191,43792
59146,43737
59146,43737
59112,43674
59091,43606
59084,43535
59091,43464
59112,43396
59146,43333
59153,43324
59191,43278
59246,43232
59246,43232
59309,43199
59377,43178
59431,43173
59466,43173
59519,43178
Z" /> 
<path style="fill:#000000; fill-opacity:1.0; 
stroke:#000000; stroke-width:0; stroke-opacity:1; 
stroke-linecap:round; stroke-linejoin:round;fill-rule:evenodd;"
d="M 53673,43868
52830,43868
52830,43458
53673,43458
53673,43868
Z" /> 
<path style="fill:#000000; fill-opacity:1.0; 
stroke:#000000; stroke-width:0; stroke-opacity:1; 
stroke-linecap:round; stroke-linejoin:round;fill-rule:evenodd;"
d="M 58795,43720
57559,43720
57559,43271
58795,43271
58795,43720
Z" /> 
<path style="fill:#000000; fill-opacity:1.0; 
stroke:#000000; stroke-width:0; stroke-opacity:1; 
stroke-linecap:round; stroke-linejoin:round;fill-rule:evenodd;"
d="M 56811,43720
55574,43720
55574,43271
56811,43271
56811,43720
Z" /> 
<path style="fill:#000000; fill-opacity:1.0; 
stroke:#000000; stroke-width:0; stroke-opacity:1; 
stroke-linecap:round; stroke-linejoin:round;fill-rule:evenodd;"
d="M 54696,42753
54765,42773
54828,42807
54828,42807
54883,42852
54915,42892
54928,42908
54962,42970
54982,43039
54989,43110
54982,43181
54962,43249
54928,43312
54928,43312
54883,43367
54848,43396
54828,43412
54765,43446
54696,43467
54643,43472
54608,43472
54554,43467
54486,43446
54423,43412
54403,43396
54368,43367
54323,43312
54323,43312
54289,43249
54269,43181
54262,43110
54269,43039
54289,42970
54323,42908
54336,42892
54368,42852
54423,42807
54423,42807
54486,42773
54554,42753
54608,42748
54643,42748
54696,42753
Z" /> 
<path style="fill:#000000; fill-opacity:1.0; 
stroke:#000000; stroke-width:0; stroke-opacity:1; 
stroke-linecap:round; stroke-linejoin:round;fill-rule:evenodd;"
d="M 53673,43368
52830,43368
52830,42958
53673,42958
53673,43368
Z" /> 
<path style="fill:#000000; fill-opacity:1.0; 
stroke:#000000; stroke-width:0; stroke-opacity:1; 
stroke-linecap:round; stroke-linejoin:round;fill-rule:evenodd;"
d="M 59519,42178
59588,42199
59651,42232
59651,42232
59706,42278
59743,42324
59751,42333
59785,42396
59805,42464
59812,42535
59805,42606
59785,42674
59751,42737
59751,42737
59706,42792
59660,42830
59651,42838
59588,42871
59519,42892
59466,42897
59431,42897
59377,42892
59309,42871
59246,42838
59237,42830
59191,42792
59146,42737
59146,42737
59112,42674
59091,42606
59084,42535
59091,42464
59112,42396
59146,42333
59153,42324
59191,42278
59246,42232
59246,42232
59309,42199
59377,42178
59431,42173
59466,42173
59519,42178
Z" /> 
<path style="fill:#000000; fill-opacity:1.0; 
stroke:#000000; stroke-width:0; stroke-opacity:1; 
stroke-linecap:round; stroke-linejoin:round;fill-rule:evenodd;"
d="M 53673,42868
52830,42868
52830,42458
53673,42458
53673,42868
Z" /> 
<path style="fill:#000000; fill-opacity:1.0; 
stroke:#000000; stroke-width:0; stroke-opacity:1; 
stroke-linecap:round; stroke-linejoin:round;fill-rule:evenodd;"
d="M 56811,42720
55574,42720
55574,42271
56811,42271
56811,42720
Z" /> 
<path style="fill:#000000; fill-opacity:1.0; 
stroke:#000000; stroke-width:0; stroke-opacity:1; 
stroke-linecap:round; stroke-linejoin:round;fill-rule:evenodd;"
d="M 58795,42720
57559,42720
57559,42271
58795,42271
58795,42720
Z" /> 
<path style="fill:#000000; fill-opacity:1.0; 
stroke:#000000; stroke-width:0; stroke-opacity:1; 
stroke-linecap:round; stroke-linejoin:round;fill-rule:evenodd;"
d="M 54988,42472
54263,42472
54263,41748
54988,41748
54988,42472
Z" /> 
<path style="fill:#000000; fill-opacity:1.0; 
stroke:#000000; stroke-width:0; stroke-opacity:1; 
stroke-linecap:round; stroke-linejoin:round;fill-rule:evenodd;"
d="M 53673,42368
52830,42368
52830,41958
53673,41958
53673,42368
Z" /> 
<path style="fill:#000000; fill-opacity:1.0; 
stroke:#000000; stroke-width:0; stroke-opacity:1; 
stroke-linecap:round; stroke-linejoin:round;fill-rule:evenodd;"
d="M 59811,41897
59086,41897
59086,41173
59811,41173
59811,41897
Z" /> 
<path style="fill:#000000; fill-opacity:1.0; 
stroke:#000000; stroke-width:0; stroke-opacity:1; 
stroke-linecap:round; stroke-linejoin:round;fill-rule:evenodd;"
d="M 53673,41868
52830,41868
52830,41458
53673,41458
53673,41868
Z" /> 
<path style="fill:#000000; fill-opacity:1.0; 
stroke:#000000; stroke-width:0; stroke-opacity:1; 
stroke-linecap:round; stroke-linejoin:round;fill-rule:evenodd;"
d="M 58795,41720
57559,41720
57559,41271
58795,41271
58795,41720
Z" /> 
<path style="fill:#000000; fill-opacity:1.0; 
stroke:#000000; stroke-width:0; stroke-opacity:1; 
stroke-linecap:round; stroke-linejoin:round;fill-rule:evenodd;"
d="M 56811,41720
55574,41720
55574,41271
56811,41271
56811,41720
Z" /> 
<path style="fill:#000000; fill-opacity:1.0; 
stroke:#000000; stroke-width:0; stroke-opacity:1; 
stroke-linecap:round; stroke-linejoin:round;fill-rule:evenodd;"
d="M 53673,41368
52830,41368
52830,40958
53673,40958
53673,41368
Z" /> 
<path style="fill:#000000; fill-opacity:1.0; 
stroke:#000000; stroke-width:0; stroke-opacity:1; 
stroke-linecap:round; stroke-linejoin:round;fill-rule:evenodd;"
d="M 53673,40868
52830,40868
52830,40458
53673,40458
53673,40868
Z" /> 
<path style="fill:#000000; fill-opacity:1.0; 
stroke:#000000; stroke-width:0; stroke-opacity:1; 
stroke-linecap:round; stroke-linejoin:round;fill-rule:evenodd;"
d="M 56811,40720
55574,40720
55574,40271
56811,40271
56811,40720
Z" /> 
<path style="fill:#000000; fill-opacity:1.0; 
stroke:#000000; stroke-width:0; stroke-opacity:1; 
stroke-linecap:round; stroke-linejoin:round;fill-rule:evenodd;"
d="M 58795,40720
57559,40720
57559,40271
58795,40271
58795,40720
Z" /> 
<path style="fill:#000000; fill-opacity:1.0; 
stroke:#000000; stroke-width:0; stroke-opacity:1; 
stroke-linecap:round; stroke-linejoin:round;fill-rule:evenodd;"
d="M 47062,39988
46653,39988
46653,39145
47062,39145
47062,39988
Z" /> 
<path style="fill:#000000; fill-opacity:1.0; 
stroke:#000000; stroke-width:0; stroke-opacity:1; 
stroke-linecap:round; stroke-linejoin:round;fill-rule:evenodd;"
d="M 53062,39988
52653,39988
52653,39145
53062,39145
53062,39988
Z" /> 
<path style="fill:#000000; fill-opacity:1.0; 
stroke:#000000; stroke-width:0; stroke-opacity:1; 
stroke-linecap:round; stroke-linejoin:round;fill-rule:evenodd;"
d="M 52562,39988
52153,39988
52153,39145
52562,39145
52562,39988
Z" /> 
<path style="fill:#000000; fill-opacity:1.0; 
stroke:#000000; stroke-width:0; stroke-opacity:1; 
stroke-linecap:round; stroke-linejoin:round;fill-rule:evenodd;"
d="M 52062,39988
51653,39988
51653,39145
52062,39145
52062,39988
Z" /> 
<path style="fill:#000000; fill-opacity:1.0; 
stroke:#000000; stroke-width:0; stroke-opacity:1; 
stroke-linecap:round; stroke-linejoin:round;fill-rule:evenodd;"
d="M 51562,39988
51153,39988
51153,39145
51562,39145
51562,39988
Z" /> 
<path style="fill:#000000; fill-opacity:1.0; 
stroke:#000000; stroke-width:0; stroke-opacity:1; 
stroke-linecap:round; stroke-linejoin:round;fill-rule:evenodd;"
d="M 49562,39988
49153,39988
49153,39145
49562,39145
49562,39988
Z" /> 
<path style="fill:#000000; fill-opacity:1.0; 
stroke:#000000; stroke-width:0; stroke-opacity:1; 
stroke-linecap:round; stroke-linejoin:round;fill-rule:evenodd;"
d="M 51062,39988
50653,39988
50653,39145
51062,39145
51062,39988
Z" /> 
<path style="fill:#000000; fill-opacity:1.0; 
stroke:#000000; stroke-width:0; stroke-opacity:1; 
stroke-linecap:round; stroke-linejoin:round;fill-rule:evenodd;"
d="M 50062,39988
49653,39988
49653,39145
50062,39145
50062,39988
Z" /> 
<path style="fill:#000000; fill-opacity:1.0; 
stroke:#000000; stroke-width:0; stroke-opacity:1; 
stroke-linecap:round; stroke-linejoin:round;fill-rule:evenodd;"
d="M 50562,39988
50153,39988
50153,39145
50562,39145
50562,39988
Z" /> 
<path style="fill:#000000; fill-opacity:1.0; 
stroke:#000000; stroke-width:0; stroke-opacity:1; 
stroke-linecap:round; stroke-linejoin:round;fill-rule:evenodd;"
d="M 47562,39988
47153,39988
47153,39145
47562,39145
47562,39988
Z" /> 
<path style="fill:#000000; fill-opacity:1.0; 
stroke:#000000; stroke-width:0; stroke-opacity:1; 
stroke-linecap:round; stroke-linejoin:round;fill-rule:evenodd;"
d="M 46562,39988
46153,39988
46153,39145
46562,39145
46562,39988
Z" /> 
<path style="fill:#000000; fill-opacity:1.0; 
stroke:#000000; stroke-width:0; stroke-opacity:1; 
stroke-linecap:round; stroke-linejoin:round;fill-rule:evenodd;"
d="M 48562,39988
48153,39988
48153,39145
48562,39145
48562,39988
Z" /> 
<path style="fill:#000000; fill-opacity:1.0; 
stroke:#000000; stroke-width:0; stroke-opacity:1; 
stroke-linecap:round; stroke-linejoin:round;fill-rule:evenodd;"
d="M 48062,39988
47653,39988
47653,39145
48062,39145
48062,39988
Z" /> 
<path style="fill:#000000; fill-opacity:1.0; 
stroke:#000000; stroke-width:0; stroke-opacity:1; 
stroke-linecap:round; stroke-linejoin:round;fill-rule:evenodd;"
d="M 49062,39988
48653,39988
48653,39145
49062,39145
49062,39988
Z" /> 
<path style="fill:#000000; fill-opacity:1.0; 
stroke:#000000; stroke-width:0; stroke-opacity:1; 
stroke-linecap:round; stroke-linejoin:round;fill-rule:evenodd;"
d="M 58795,39720
57559,39720
57559,39271
58795,39271
58795,39720
Z" /> 
<path style="fill:#000000; fill-opacity:1.0; 
stroke:#000000; stroke-width:0; stroke-opacity:1; 
stroke-linecap:round; stroke-linejoin:round;fill-rule:evenodd;"
d="M 56811,39720
55574,39720
55574,39271
56811,39271
56811,39720
Z" /> 
<path style="fill:#000000; fill-opacity:1.0; 
stroke:#000000; stroke-width:0; stroke-opacity:1; 
stroke-linecap:round; stroke-linejoin:round;fill-rule:evenodd;"
d="M 57376,36867
57496,36917
57496,36917
57604,36989
57695,37080
57695,37080
57767,37188
57817,37308
57842,37435
57842,37564
57817,37691
57767,37811
57767,37811
57695,37919
57604,38010
57549,38046
57496,38082
57376,38132
57249,38157
57120,38157
56993,38132
56873,38082
56820,38046
56765,38010
56674,37919
56602,37811
56602,37811
56552,37691
56527,37564
56527,37435
56552,37308
56602,37188
56674,37080
56674,37080
56765,36989
56873,36917
56873,36917
56993,36867
57120,36842
57249,36842
57376,36867
Z" /> 
<path style="fill:#000000; fill-opacity:1.0; 
stroke:#000000; stroke-width:0; stroke-opacity:1; 
stroke-linecap:round; stroke-linejoin:round;fill-rule:evenodd;"
d="M 46353,36867
46472,36917
46472,36917
46580,36989
46672,37080
46672,37080
46744,37188
46793,37308
46818,37435
46818,37564
46793,37691
46744,37811
46744,37811
46672,37919
46580,38010
46526,38046
46472,38082
46353,38132
46226,38157
46096,38157
45969,38132
45849,38082
45796,38046
45742,38010
45650,37919
45578,37811
45578,37811
45529,37691
45503,37564
45503,37435
45529,37308
45578,37188
45650,37080
45650,37080
45742,36989
45849,36917
45849,36917
45969,36867
46096,36842
46226,36842
46353,36867
Z" /> 
<path style="fill:#000000; fill-opacity:1.0; 
stroke:#000000; stroke-width:0; stroke-opacity:1; 
stroke-linecap:round; stroke-linejoin:round;fill-rule:evenodd;"
d="M 41311,37024
41379,37045
41442,37079
41451,37086
41497,37124
41535,37170
41542,37179
41576,37242
41597,37310
41604,37381
41597,37452
41576,37521
41542,37584
41542,37584
41497,37639
41451,37677
41442,37684
41379,37718
41311,37738
41257,37744
41222,37744
41169,37738
41100,37718
41037,37684
41028,37677
40982,37639
40937,37584
40937,37584
40903,37521
40883,37452
40876,37381
40883,37310
40903,37242
40937,37179
40944,37170
40982,37124
41028,37086
41037,37079
41100,37045
41169,37024
41222,37019
41257,37019
41311,37024
Z" /> 
<path style="fill:#000000; fill-opacity:1.0; 
stroke:#000000; stroke-width:0; stroke-opacity:1; 
stroke-linecap:round; stroke-linejoin:round;fill-rule:evenodd;"
d="M 54909,37744
54578,37744
54578,37059
54909,37059
54909,37744
Z" /> 
<path style="fill:#000000; fill-opacity:1.0; 
stroke:#000000; stroke-width:0; stroke-opacity:1; 
stroke-linecap:round; stroke-linejoin:round;fill-rule:evenodd;"
d="M 54476,37744
54145,37744
54145,37059
54476,37059
54476,37744
Z" /> 
<path style="fill:#000000; fill-opacity:1.0; 
stroke:#000000; stroke-width:0; stroke-opacity:1; 
stroke-linecap:round; stroke-linejoin:round;fill-rule:evenodd;"
d="M 54043,37744
53712,37744
53712,37059
54043,37059
54043,37744
Z" /> 
<path style="fill:#000000; fill-opacity:1.0; 
stroke:#000000; stroke-width:0; stroke-opacity:1; 
stroke-linecap:round; stroke-linejoin:round;fill-rule:evenodd;"
d="M 53610,37744
53279,37744
53279,37059
53610,37059
53610,37744
Z" /> 
<path style="fill:#000000; fill-opacity:1.0; 
stroke:#000000; stroke-width:0; stroke-opacity:1; 
stroke-linecap:round; stroke-linejoin:round;fill-rule:evenodd;"
d="M 53177,37744
52846,37744
52846,37059
53177,37059
53177,37744
Z" /> 
<path style="fill:#000000; fill-opacity:1.0; 
stroke:#000000; stroke-width:0; stroke-opacity:1; 
stroke-linecap:round; stroke-linejoin:round;fill-rule:evenodd;"
d="M 52744,37744
52413,37744
52413,37059
52744,37059
52744,37744
Z" /> 
<path style="fill:#000000; fill-opacity:1.0; 
stroke:#000000; stroke-width:0; stroke-opacity:1; 
stroke-linecap:round; stroke-linejoin:round;fill-rule:evenodd;"
d="M 52311,37744
51980,37744
51980,37059
52311,37059
52311,37744
Z" /> 
<path style="fill:#000000; fill-opacity:1.0; 
stroke:#000000; stroke-width:0; stroke-opacity:1; 
stroke-linecap:round; stroke-linejoin:round;fill-rule:evenodd;"
d="M 51444,37744
51114,37744
51114,37059
51444,37059
51444,37744
Z" /> 
<path style="fill:#000000; fill-opacity:1.0; 
stroke:#000000; stroke-width:0; stroke-opacity:1; 
stroke-linecap:round; stroke-linejoin:round;fill-rule:evenodd;"
d="M 51877,37744
51547,37744
51547,37059
51877,37059
51877,37744
Z" /> 
<path style="fill:#000000; fill-opacity:1.0; 
stroke:#000000; stroke-width:0; stroke-opacity:1; 
stroke-linecap:round; stroke-linejoin:round;fill-rule:evenodd;"
d="M 49811,37507
49125,37507
49125,36901
49811,36901
49811,37507
Z" /> 
<path style="fill:#000000; fill-opacity:1.0; 
stroke:#000000; stroke-width:0; stroke-opacity:1; 
stroke-linecap:round; stroke-linejoin:round;fill-rule:evenodd;"
d="M 55480,37507
54952,37507
54952,36901
55480,36901
55480,37507
Z" /> 
<path style="fill:#000000; fill-opacity:1.0; 
stroke:#000000; stroke-width:0; stroke-opacity:1; 
stroke-linecap:round; stroke-linejoin:round;fill-rule:evenodd;"
d="M 42803,37212
42354,37212
42354,36803
42803,36803
42803,37212
Z" /> 
<path style="fill:#000000; fill-opacity:1.0; 
stroke:#000000; stroke-width:0; stroke-opacity:1; 
stroke-linecap:round; stroke-linejoin:round;fill-rule:evenodd;"
d="M 44417,37212
43968,37212
43968,36803
44417,36803
44417,37212
Z" /> 
<path style="fill:#000000; fill-opacity:1.0; 
stroke:#000000; stroke-width:0; stroke-opacity:1; 
stroke-linecap:round; stroke-linejoin:round;fill-rule:evenodd;"
d="M 48027,36402
48027,36402
48027,36402
48085,36426
48138,36461
48183,36506
48219,36559
48219,36559
48243,36618
48255,36680
48255,36744
48243,36806
48243,36806
48219,36865
48183,36918
48138,36963
48085,36998
48085,36998
48085,36998
48027,37023
47964,37035
47901,37035
47838,37023
47780,36998
47780,36998
47780,36998
47727,36963
47682,36918
47646,36865
47622,36806
47622,36806
47610,36744
47610,36680
47622,36618
47646,36559
47646,36559
47682,36506
47727,36461
47780,36426
47838,36402
47838,36402
47838,36402
47901,36389
47964,36389
48027,36402
Z" /> 
<path style="fill:#000000; fill-opacity:1.0; 
stroke:#000000; stroke-width:0; stroke-opacity:1; 
stroke-linecap:round; stroke-linejoin:round;fill-rule:evenodd;"
d="M 41311,36024
41379,36045
41442,36079
41442,36079
41497,36124
41535,36170
41542,36179
41576,36242
41597,36310
41604,36381
41597,36452
41576,36521
41542,36584
41542,36584
41497,36639
41451,36677
41442,36684
41379,36718
41311,36738
41257,36744
41222,36744
41169,36738
41100,36718
41037,36684
41028,36677
40982,36639
40937,36584
40937,36584
40903,36521
40883,36452
40876,36381
40883,36310
40903,36242
40937,36179
40944,36170
40982,36124
41037,36079
41037,36079
41100,36045
41169,36024
41222,36019
41257,36019
41311,36024
Z" /> 
<path style="fill:#000000; fill-opacity:1.0; 
stroke:#000000; stroke-width:0; stroke-opacity:1; 
stroke-linecap:round; stroke-linejoin:round;fill-rule:evenodd;"
d="M 44417,36582
43968,36582
43968,36173
44417,36173
44417,36582
Z" /> 
<path style="fill:#000000; fill-opacity:1.0; 
stroke:#000000; stroke-width:0; stroke-opacity:1; 
stroke-linecap:round; stroke-linejoin:round;fill-rule:evenodd;"
d="M 42803,36582
42354,36582
42354,36173
42803,36173
42803,36582
Z" /> 
<path style="fill:#000000; fill-opacity:1.0; 
stroke:#000000; stroke-width:0; stroke-opacity:1; 
stroke-linecap:round; stroke-linejoin:round;fill-rule:evenodd;"
d="M 41311,35024
41379,35045
41442,35079
41442,35079
41497,35124
41535,35170
41542,35179
41576,35242
41597,35310
41604,35381
41597,35452
41576,35521
41542,35584
41542,35584
41497,35639
41458,35671
41442,35684
41379,35718
41311,35738
41257,35744
41222,35744
41169,35738
41100,35718
41037,35684
41021,35671
40982,35639
40937,35584
40937,35584
40903,35521
40883,35452
40876,35381
40883,35310
40903,35242
40937,35179
40944,35170
40982,35124
41037,35079
41037,35079
41100,35045
41169,35024
41222,35019
41257,35019
41311,35024
Z" /> 
<path style="fill:#000000; fill-opacity:1.0; 
stroke:#000000; stroke-width:0; stroke-opacity:1; 
stroke-linecap:round; stroke-linejoin:round;fill-rule:evenodd;"
d="M 61766,34966
61817,34976
61884,35004
61914,35024
61945,35045
61997,35097
62006,35110
62038,35158
62066,35226
62080,35298
62080,35371
62066,35443
62038,35510
61997,35571
61945,35623
61884,35664
61817,35692
61781,35699
61745,35706
61672,35706
61636,35699
61600,35692
61532,35664
61471,35623
61419,35571
61378,35510
61350,35443
61336,35371
61336,35298
61350,35226
61378,35158
61410,35110
61419,35097
61471,35045
61502,35024
61532,35004
61600,34976
61650,34966
61672,34962
61745,34962
61766,34966
Z" /> 
<path style="fill:#000000; fill-opacity:1.0; 
stroke:#000000; stroke-width:0; stroke-opacity:1; 
stroke-linecap:round; stroke-linejoin:round;fill-rule:evenodd;"
d="M 59994,34966
60045,34976
60113,35004
60143,35024
60174,35045
60225,35097
60234,35110
60266,35158
60294,35226
60309,35298
60309,35371
60294,35443
60266,35510
60225,35571
60174,35623
60113,35664
60045,35692
60009,35699
59973,35706
59900,35706
59864,35699
59828,35692
59760,35664
59699,35623
59648,35571
59607,35510
59579,35443
59564,35371
59564,35298
59579,35226
59607,35158
59639,35110
59648,35097
59699,35045
59730,35024
59760,35004
59828,34976
59879,34966
59900,34962
59973,34962
59994,34966
Z" /> 
<path style="fill:#000000; fill-opacity:1.0; 
stroke:#000000; stroke-width:0; stroke-opacity:1; 
stroke-linecap:round; stroke-linejoin:round;fill-rule:evenodd;"
d="M 43159,35230
43181,35234
43221,35251
43258,35275
43289,35306
43313,35343
43330,35383
43339,35426
43339,35470
43330,35513
43313,35554
43289,35590
43258,35621
43221,35646
43181,35662
43159,35667
43138,35671
43094,35671
43051,35662
43011,35646
42974,35621
42943,35590
42919,35554
42902,35513
42893,35470
42893,35426
42902,35383
42919,35343
42943,35306
42974,35275
43011,35251
43051,35234
43094,35226
43138,35226
43159,35230
Z" /> 
<path style="fill:#000000; fill-opacity:1.0; 
stroke:#000000; stroke-width:0; stroke-opacity:1; 
stroke-linecap:round; stroke-linejoin:round;fill-rule:evenodd;"
d="M 42359,35230
42381,35234
42421,35251
42458,35275
42489,35306
42513,35343
42530,35383
42539,35426
42539,35470
42530,35513
42513,35554
42489,35590
42458,35621
42421,35646
42381,35662
42359,35667
42338,35671
42294,35671
42251,35662
42211,35646
42174,35621
42143,35590
42119,35554
42102,35513
42093,35470
42093,35426
42102,35383
42119,35343
42143,35306
42174,35275
42211,35251
42251,35234
42294,35226
42338,35226
42359,35230
Z" /> 
<path style="fill:#000000; fill-opacity:1.0; 
stroke:#000000; stroke-width:0; stroke-opacity:1; 
stroke-linecap:round; stroke-linejoin:round;fill-rule:evenodd;"
d="M 47311,35236
46980,35236
46980,34590
47311,34590
47311,35236
Z" /> 
<path style="fill:#000000; fill-opacity:1.0; 
stroke:#000000; stroke-width:0; stroke-opacity:1; 
stroke-linecap:round; stroke-linejoin:round;fill-rule:evenodd;"
d="M 46720,35236
46389,35236
46389,34590
46720,34590
46720,35236
Z" /> 
<path style="fill:#000000; fill-opacity:1.0; 
stroke:#000000; stroke-width:0; stroke-opacity:1; 
stroke-linecap:round; stroke-linejoin:round;fill-rule:evenodd;"
d="M 45539,35236
45208,35236
45208,34590
45539,34590
45539,35236
Z" /> 
<path style="fill:#000000; fill-opacity:1.0; 
stroke:#000000; stroke-width:0; stroke-opacity:1; 
stroke-linecap:round; stroke-linejoin:round;fill-rule:evenodd;"
d="M 44948,35236
44618,35236
44618,34590
44948,34590
44948,35236
Z" /> 
<path style="fill:#000000; fill-opacity:1.0; 
stroke:#000000; stroke-width:0; stroke-opacity:1; 
stroke-linecap:round; stroke-linejoin:round;fill-rule:evenodd;"
d="M 43008,34770
43019,34773
43040,34781
43053,34787
43075,34801
43082,34807
43108,34832
43108,34832
43128,34862
43142,34895
43149,34930
43149,34966
43142,35002
43128,35035
43113,35057
43108,35065
43082,35090
43075,35095
43053,35110
43040,35115
43019,35124
43008,35126
42984,35131
42948,35131
42925,35126
42913,35124
42892,35115
42880,35110
42857,35095
42850,35090
42824,35065
42819,35057
42804,35035
42790,35002
42783,34966
42783,34930
42790,34895
42804,34862
42824,34832
42824,34832
42850,34807
42857,34801
42880,34787
42892,34781
42913,34773
42925,34770
42948,34766
42984,34766
43008,34770
Z" /> 
<path style="fill:#000000; fill-opacity:1.0; 
stroke:#000000; stroke-width:0; stroke-opacity:1; 
stroke-linecap:round; stroke-linejoin:round;fill-rule:evenodd;"
d="M 42508,34770
42519,34773
42540,34781
42553,34787
42575,34801
42582,34807
42608,34832
42608,34832
42628,34862
42642,34895
42649,34930
42649,34966
42642,35002
42628,35035
42613,35057
42608,35065
42582,35090
42575,35095
42553,35110
42540,35115
42519,35124
42508,35126
42484,35131
42448,35131
42425,35126
42413,35124
42392,35115
42380,35110
42357,35095
42350,35090
42324,35065
42319,35057
42304,35035
42290,35002
42283,34966
42283,34930
42290,34895
42304,34862
42324,34832
42324,34832
42350,34807
42357,34801
42380,34787
42392,34781
42413,34773
42425,34770
42448,34766
42484,34766
42508,34770
Z" /> 
<path style="fill:#000000; fill-opacity:1.0; 
stroke:#000000; stroke-width:0; stroke-opacity:1; 
stroke-linecap:round; stroke-linejoin:round;fill-rule:evenodd;"
d="M 48216,34842
47767,34842
47767,34472
48216,34472
48216,34842
Z" /> 
<path style="fill:#000000; fill-opacity:1.0; 
stroke:#000000; stroke-width:0; stroke-opacity:1; 
stroke-linecap:round; stroke-linejoin:round;fill-rule:evenodd;"
d="M 44161,34842
43712,34842
43712,34472
44161,34472
44161,34842
Z" /> 
<path style="fill:#000000; fill-opacity:1.0; 
stroke:#000000; stroke-width:0; stroke-opacity:1; 
stroke-linecap:round; stroke-linejoin:round;fill-rule:evenodd;"
d="M 41311,34024
41379,34045
41442,34079
41442,34079
41497,34124
41515,34146
41542,34179
41576,34242
41597,34310
41604,34381
41597,34452
41576,34521
41542,34584
41542,34584
41497,34639
41451,34677
41442,34684
41379,34718
41311,34738
41257,34744
41222,34744
41169,34738
41100,34718
41037,34684
41028,34677
40982,34639
40937,34584
40937,34584
40903,34521
40883,34452
40876,34381
40883,34310
40903,34242
40937,34179
40964,34146
40982,34124
41037,34079
41037,34079
41100,34045
41169,34024
41222,34019
41257,34019
41311,34024
Z" /> 
<path style="fill:#000000; fill-opacity:1.0; 
stroke:#000000; stroke-width:0; stroke-opacity:1; 
stroke-linecap:round; stroke-linejoin:round;fill-rule:evenodd;"
d="M 43008,34270
43019,34273
43036,34280
43053,34287
43075,34301
43082,34307
43108,34332
43108,34332
43128,34362
43142,34395
43149,34430
43149,34466
43142,34502
43128,34535
43113,34557
43108,34565
43082,34590
43075,34595
43053,34610
43040,34615
43019,34624
43008,34626
42984,34631
42948,34631
42925,34626
42913,34624
42892,34615
42880,34610
42857,34595
42850,34590
42824,34565
42819,34557
42804,34535
42790,34502
42783,34466
42783,34430
42790,34395
42804,34362
42824,34332
42824,34332
42850,34307
42857,34301
42880,34287
42896,34280
42913,34273
42925,34270
42948,34266
42984,34266
43008,34270
Z" /> 
<path style="fill:#000000; fill-opacity:1.0; 
stroke:#000000; stroke-width:0; stroke-opacity:1; 
stroke-linecap:round; stroke-linejoin:round;fill-rule:evenodd;"
d="M 42508,34270
42519,34273
42536,34280
42553,34287
42575,34301
42582,34307
42608,34332
42608,34332
42628,34362
42642,34395
42649,34430
42649,34466
42642,34502
42628,34535
42613,34557
42608,34565
42582,34590
42575,34595
42553,34610
42540,34615
42519,34624
42508,34626
42484,34631
42448,34631
42425,34626
42413,34624
42392,34615
42380,34610
42357,34595
42350,34590
42324,34565
42319,34557
42304,34535
42290,34502
42283,34466
42283,34430
42290,34395
42304,34362
42324,34332
42324,34332
42350,34307
42357,34301
42380,34287
42396,34280
42413,34273
42425,34270
42448,34266
42484,34266
42508,34270
Z" /> 
<path style="fill:#000000; fill-opacity:1.0; 
stroke:#000000; stroke-width:0; stroke-opacity:1; 
stroke-linecap:round; stroke-linejoin:round;fill-rule:evenodd;"
d="M 46988,34019
47008,34023
47032,34033
47045,34039
47079,34061
47079,34061
47079,34061
47107,34089
47107,34089
47107,34089
47130,34123
47145,34160
47153,34200
47153,34240
47145,34280
47130,34317
47107,34350
47107,34350
47107,34350
47079,34379
47079,34379
47079,34379
47045,34401
47032,34407
47008,34417
46988,34421
46968,34425
46928,34425
46908,34421
46889,34417
46865,34407
46851,34401
46818,34379
46818,34379
46818,34379
46789,34350
46789,34350
46789,34350
46767,34317
46751,34280
46744,34240
46744,34200
46751,34160
46767,34123
46789,34089
46789,34089
46789,34089
46818,34061
46818,34061
46818,34061
46851,34039
46865,34033
46889,34023
46908,34019
46928,34015
46968,34015
46988,34019
Z" /> 
<path style="fill:#000000; fill-opacity:1.0; 
stroke:#000000; stroke-width:0; stroke-opacity:1; 
stroke-linecap:round; stroke-linejoin:round;fill-rule:evenodd;"
d="M 45020,34019
45040,34023
45063,34033
45077,34039
45110,34061
45110,34061
45110,34061
45139,34089
45139,34089
45139,34089
45161,34123
45177,34160
45185,34200
45185,34240
45177,34280
45161,34317
45139,34350
45139,34350
45139,34350
45110,34379
45110,34379
45110,34379
45077,34401
45063,34407
45040,34417
45020,34421
45000,34425
44960,34425
44940,34421
44920,34417
44897,34407
44883,34401
44849,34379
44849,34379
44849,34379
44821,34350
44821,34350
44821,34350
44798,34317
44783,34280
44775,34240
44775,34200
44783,34160
44798,34123
44821,34089
44821,34089
44821,34089
44849,34061
44849,34061
44849,34061
44883,34039
44897,34033
44920,34023
44940,34019
44960,34015
45000,34015
45020,34019
Z" /> 
<path style="fill:#000000; fill-opacity:1.0; 
stroke:#000000; stroke-width:0; stroke-opacity:1; 
stroke-linecap:round; stroke-linejoin:round;fill-rule:evenodd;"
d="M 56503,34318
55858,34318
55858,32610
56503,32610
56503,34318
Z" /> 
<path style="fill:#000000; fill-opacity:1.0; 
stroke:#000000; stroke-width:0; stroke-opacity:1; 
stroke-linecap:round; stroke-linejoin:round;fill-rule:evenodd;"
d="M 57921,34318
57275,34318
57275,32610
57921,32610
57921,34318
Z" /> 
<path style="fill:#000000; fill-opacity:1.0; 
stroke:#000000; stroke-width:0; stroke-opacity:1; 
stroke-linecap:round; stroke-linejoin:round;fill-rule:evenodd;"
d="M 59530,33323
59573,33331
59653,33365
59725,33413
59787,33474
59835,33547
59868,33627
59872,33646
59885,33712
59885,33799
59879,33832
59868,33884
59835,33964
59787,34036
59725,34098
59653,34146
59573,34179
59530,34188
59488,34196
59401,34196
59358,34188
59316,34179
59236,34146
59163,34098
59102,34036
59054,33964
59020,33884
59010,33832
59003,33799
59003,33712
59017,33646
59020,33627
59054,33547
59102,33474
59163,33413
59236,33365
59316,33331
59358,33323
59401,33314
59488,33314
59530,33323
Z" /> 
<path style="fill:#000000; fill-opacity:1.0; 
stroke:#000000; stroke-width:0; stroke-opacity:1; 
stroke-linecap:round; stroke-linejoin:round;fill-rule:evenodd;"
d="M 62290,33323
62333,33331
62413,33365
62485,33413
62547,33474
62595,33547
62628,33627
62632,33646
62645,33712
62645,33799
62639,33832
62628,33884
62595,33964
62547,34036
62485,34098
62413,34146
62333,34179
62290,34188
62248,34196
62161,34196
62118,34188
62076,34179
61995,34146
61923,34098
61862,34036
61813,33964
61780,33884
61770,33832
61763,33799
61763,33712
61776,33646
61780,33627
61813,33547
61862,33474
61923,33413
61995,33365
62076,33331
62118,33323
62161,33314
62248,33314
62290,33323
Z" /> 
<path style="fill:#000000; fill-opacity:1.0; 
stroke:#000000; stroke-width:0; stroke-opacity:1; 
stroke-linecap:round; stroke-linejoin:round;fill-rule:evenodd;"
d="M 42508,33770
42519,33773
42540,33781
42553,33787
42571,33799
42582,33807
42608,33832
42608,33832
42628,33862
42628,33862
42638,33885
42642,33895
42649,33930
42649,33966
42642,34002
42628,34035
42621,34045
42608,34065
42582,34090
42575,34095
42553,34110
42540,34115
42519,34124
42508,34126
42484,34131
42448,34131
42425,34126
42413,34124
42392,34115
42380,34110
42357,34095
42350,34090
42324,34065
42311,34045
42304,34035
42290,34002
42283,33966
42283,33930
42290,33895
42295,33885
42304,33862
42304,33862
42324,33832
42324,33832
42350,33807
42361,33799
42380,33787
42392,33781
42413,33773
42425,33770
42448,33766
42484,33766
42508,33770
Z" /> 
<path style="fill:#000000; fill-opacity:1.0; 
stroke:#000000; stroke-width:0; stroke-opacity:1; 
stroke-linecap:round; stroke-linejoin:round;fill-rule:evenodd;"
d="M 43008,33770
43019,33773
43040,33781
43053,33787
43071,33799
43082,33807
43108,33832
43108,33832
43128,33862
43128,33862
43138,33885
43142,33895
43149,33930
43149,33966
43142,34002
43128,34035
43121,34045
43108,34065
43082,34090
43075,34095
43053,34110
43040,34115
43019,34124
43008,34126
42984,34131
42948,34131
42925,34126
42913,34124
42892,34115
42880,34110
42857,34095
42850,34090
42824,34065
42811,34045
42804,34035
42790,34002
42783,33966
42783,33930
42790,33895
42795,33885
42804,33862
42804,33862
42824,33832
42824,33832
42850,33807
42861,33799
42880,33787
42892,33781
42913,33773
42925,33770
42948,33766
42984,33766
43008,33770
Z" /> 
<path style="fill:#000000; fill-opacity:1.0; 
stroke:#000000; stroke-width:0; stroke-opacity:1; 
stroke-linecap:round; stroke-linejoin:round;fill-rule:evenodd;"
d="M 48216,33972
47767,33972
47767,33602
48216,33602
48216,33972
Z" /> 
<path style="fill:#000000; fill-opacity:1.0; 
stroke:#000000; stroke-width:0; stroke-opacity:1; 
stroke-linecap:round; stroke-linejoin:round;fill-rule:evenodd;"
d="M 44161,33972
43712,33972
43712,33602
44161,33602
44161,33972
Z" /> 
<path style="fill:#000000; fill-opacity:1.0; 
stroke:#000000; stroke-width:0; stroke-opacity:1; 
stroke-linecap:round; stroke-linejoin:round;fill-rule:evenodd;"
d="M 55480,33885
54952,33885
54952,32964
55480,32964
55480,33885
Z" /> 
<path style="fill:#000000; fill-opacity:1.0; 
stroke:#000000; stroke-width:0; stroke-opacity:1; 
stroke-linecap:round; stroke-linejoin:round;fill-rule:evenodd;"
d="M 49377,33885
48850,33885
48850,32964
49377,32964
49377,33885
Z" /> 
<path style="fill:#000000; fill-opacity:1.0; 
stroke:#000000; stroke-width:0; stroke-opacity:1; 
stroke-linecap:round; stroke-linejoin:round;fill-rule:evenodd;"
d="M 41311,33024
41379,33045
41442,33079
41442,33079
41497,33124
41535,33170
41542,33179
41576,33242
41597,33310
41604,33381
41597,33452
41576,33521
41542,33584
41542,33584
41497,33639
41460,33669
41442,33684
41379,33718
41311,33738
41257,33744
41222,33744
41169,33738
41100,33718
41037,33684
41019,33669
40982,33639
40937,33584
40937,33584
40903,33521
40883,33452
40876,33381
40883,33310
40903,33242
40937,33179
40944,33170
40982,33124
41037,33079
41037,33079
41100,33045
41169,33024
41222,33019
41257,33019
41311,33024
Z" /> 
<path style="fill:#000000; fill-opacity:1.0; 
stroke:#000000; stroke-width:0; stroke-opacity:1; 
stroke-linecap:round; stroke-linejoin:round;fill-rule:evenodd;"
d="M 42759,33230
42781,33234
42821,33251
42858,33275
42889,33306
42913,33343
42930,33383
42939,33426
42939,33470
42930,33513
42913,33554
42889,33590
42858,33621
42821,33646
42781,33662
42759,33667
42738,33671
42694,33671
42673,33667
42651,33662
42611,33646
42574,33621
42543,33590
42519,33554
42502,33513
42493,33470
42493,33426
42502,33383
42519,33343
42543,33306
42574,33275
42611,33251
42651,33234
42673,33230
42694,33226
42738,33226
42759,33230
Z" /> 
<path style="fill:#000000; fill-opacity:1.0; 
stroke:#000000; stroke-width:0; stroke-opacity:1; 
stroke-linecap:round; stroke-linejoin:round;fill-rule:evenodd;"
d="M 43440,33036
43499,33060
43499,33060
43552,33095
43597,33140
43623,33179
43632,33193
43656,33252
43669,33314
43669,33378
43656,33440
43639,33483
43632,33499
43597,33552
43552,33597
43499,33632
43499,33632
43499,33632
43440,33656
43378,33669
43314,33669
43252,33656
43193,33632
43193,33632
43193,33632
43140,33597
43095,33552
43060,33499
43053,33483
43036,33440
43023,33378
43023,33314
43036,33252
43060,33193
43069,33179
43095,33140
43140,33095
43193,33060
43193,33060
43252,33036
43314,33023
43378,33023
43440,33036
Z" /> 
<path style="fill:#000000; fill-opacity:1.0; 
stroke:#000000; stroke-width:0; stroke-opacity:1; 
stroke-linecap:round; stroke-linejoin:round;fill-rule:evenodd;"
d="M 51030,33051
51070,33068
51070,33068
51107,33093
51138,33124
51138,33124
51163,33161
51180,33202
51188,33245
51188,33289
51180,33333
51163,33374
51163,33374
51138,33410
51107,33442
51091,33452
51070,33466
51030,33483
50986,33492
50942,33492
50899,33483
50858,33466
50837,33452
50821,33442
50790,33410
50765,33374
50765,33374
50748,33333
50740,33289
50740,33245
50748,33202
50765,33161
50790,33124
50790,33124
50821,33093
50858,33068
50858,33068
50899,33051
50942,33043
50986,33043
51030,33051
Z" /> 
<path style="fill:#000000; fill-opacity:1.0; 
stroke:#000000; stroke-width:0; stroke-opacity:1; 
stroke-linecap:round; stroke-linejoin:round;fill-rule:evenodd;"
d="M 54171,33051
54212,33068
54212,33068
54249,33093
54280,33124
54280,33124
54305,33161
54322,33202
54330,33245
54330,33289
54322,33333
54305,33374
54305,33374
54280,33410
54249,33442
54233,33452
54212,33466
54171,33483
54128,33492
54084,33492
54040,33483
54000,33466
53979,33452
53963,33442
53931,33410
53907,33374
53907,33374
53890,33333
53881,33289
53881,33245
53890,33202
53907,33161
53931,33124
53931,33124
53963,33093
54000,33068
54000,33068
54040,33051
54084,33043
54128,33043
54171,33051
Z" /> 
<path style="fill:#000000; fill-opacity:1.0; 
stroke:#000000; stroke-width:0; stroke-opacity:1; 
stroke-linecap:round; stroke-linejoin:round;fill-rule:evenodd;"
d="M 60009,32410
60045,32417
60113,32445
60174,32486
60225,32538
60266,32599
60294,32667
60309,32738
60309,32812
60294,32884
60266,32951
60239,32992
60225,33012
60174,33064
60167,33068
60113,33105
60045,33133
60009,33140
59973,33147
59900,33147
59864,33140
59828,33133
59760,33105
59706,33068
59699,33064
59648,33012
59634,32992
59607,32951
59579,32884
59564,32812
59564,32738
59579,32667
59607,32599
59648,32538
59699,32486
59760,32445
59828,32417
59864,32410
59900,32403
59973,32403
60009,32410
Z" /> 
<path style="fill:#000000; fill-opacity:1.0; 
stroke:#000000; stroke-width:0; stroke-opacity:1; 
stroke-linecap:round; stroke-linejoin:round;fill-rule:evenodd;"
d="M 61781,32410
61817,32417
61884,32445
61945,32486
61997,32538
62038,32599
62066,32667
62080,32738
62080,32812
62066,32884
62038,32951
62011,32992
61997,33012
61945,33064
61939,33068
61884,33105
61817,33133
61781,33140
61745,33147
61672,33147
61636,33140
61600,33133
61532,33105
61477,33068
61471,33064
61419,33012
61406,32992
61378,32951
61350,32884
61336,32812
61336,32738
61350,32667
61378,32599
61419,32538
61471,32486
61532,32445
61600,32417
61636,32410
61672,32403
61745,32403
61781,32410
Z" /> 
<path style="fill:#000000; fill-opacity:1.0; 
stroke:#000000; stroke-width:0; stroke-opacity:1; 
stroke-linecap:round; stroke-linejoin:round;fill-rule:evenodd;"
d="M 40805,31700
40805,31700
40805,31700
40841,31715
40857,31726
40873,31736
40900,31764
40922,31796
40937,31832
40944,31870
40944,31909
40937,31947
40922,31983
40918,31989
40916,31992
40915,31996
40915,32000
40915,32003
40916,32007
40918,32010
40920,32013
40923,32016
40927,32018
40930,32019
40934,32019
41602,32019
41602,32744
40877,32744
40877,32076
40877,32072
40876,32068
40874,32065
40872,32062
40869,32060
40865,32058
40862,32057
40858,32056
40854,32057
40850,32058
40847,32060
40841,32064
40805,32079
40767,32086
40728,32086
40690,32079
40654,32064
40654,32064
40654,32064
40634,32050
40622,32042
40595,32015
40576,31987
40573,31983
40571,31977
40558,31947
40551,31909
40551,31870
40558,31832
40573,31796
40595,31764
40622,31736
40638,31726
40654,31715
40690,31700
40690,31700
40690,31700
40728,31692
40767,31692
40805,31700
Z" /> 
<path style="fill:#000000; fill-opacity:1.0; 
stroke:#000000; stroke-width:0; stroke-opacity:1; 
stroke-linecap:round; stroke-linejoin:round;fill-rule:evenodd;"
d="M 43035,31972
43052,31977
43068,31985
43081,31996
43093,32010
43101,32026
43106,32042
43108,32061
43108,32308
43106,32327
43101,32343
43093,32359
43081,32373
43068,32384
43052,32392
43035,32397
43017,32399
42799,32399
42781,32397
42764,32392
42748,32384
42735,32373
42723,32359
42715,32343
42710,32327
42708,32308
42708,32061
42710,32042
42715,32026
42723,32010
42735,31996
42748,31985
42764,31977
42781,31972
42799,31970
43017,31970
43035,31972
Z" /> 
<path style="fill:#000000; fill-opacity:1.0; 
stroke:#000000; stroke-width:0; stroke-opacity:1; 
stroke-linecap:round; stroke-linejoin:round;fill-rule:evenodd;"
d="M 44699,31972
44716,31977
44731,31985
44745,31996
44756,32010
44764,32026
44769,32042
44771,32061
44771,32308
44769,32327
44764,32343
44756,32359
44745,32373
44731,32384
44716,32392
44699,32397
44680,32399
44463,32399
44444,32397
44427,32392
44412,32384
44398,32373
44387,32359
44378,32343
44373,32327
44372,32308
44372,32061
44373,32042
44378,32026
44387,32010
44398,31996
44412,31985
44427,31977
44444,31972
44463,31970
44680,31970
44699,31972
Z" /> 
<path style="fill:#000000; fill-opacity:1.0; 
stroke:#000000; stroke-width:0; stroke-opacity:1; 
stroke-linecap:round; stroke-linejoin:round;fill-rule:evenodd;"
d="M 45319,31972
45336,31977
45351,31985
45365,31996
45376,32010
45384,32026
45389,32042
45391,32061
45391,32308
45389,32327
45384,32343
45376,32359
45365,32373
45351,32384
45336,32392
45319,32397
45300,32399
45083,32399
45064,32397
45047,32392
45032,32384
45018,32373
45007,32359
44999,32343
44993,32327
44992,32308
44992,32061
44993,32042
44999,32026
45007,32010
45018,31996
45032,31985
45047,31977
45064,31972
45083,31970
45300,31970
45319,31972
Z" /> 
<path style="fill:#000000; fill-opacity:1.0; 
stroke:#000000; stroke-width:0; stroke-opacity:1; 
stroke-linecap:round; stroke-linejoin:round;fill-rule:evenodd;"
d="M 45840,31972
45857,31977
45873,31985
45886,31996
45898,32010
45906,32026
45911,32042
45913,32061
45913,32308
45911,32327
45906,32343
45898,32359
45886,32373
45873,32384
45857,32392
45840,32397
45822,32399
45604,32399
45586,32397
45569,32392
45553,32384
45540,32373
45529,32359
45520,32343
45515,32327
45513,32308
45513,32061
45515,32042
45520,32026
45529,32010
45540,31996
45553,31985
45569,31977
45586,31972
45604,31970
45822,31970
45840,31972
Z" /> 
<path style="fill:#000000; fill-opacity:1.0; 
stroke:#000000; stroke-width:0; stroke-opacity:1; 
stroke-linecap:round; stroke-linejoin:round;fill-rule:evenodd;"
d="M 46460,31972
46477,31977
46493,31985
46507,31996
46518,32010
46526,32026
46531,32042
46533,32061
46533,32308
46531,32327
46526,32343
46518,32359
46507,32373
46493,32384
46477,32392
46460,32397
46442,32399
46224,32399
46206,32397
46189,32392
46173,32384
46160,32373
46149,32359
46140,32343
46135,32327
46133,32308
46133,32061
46135,32042
46140,32026
46149,32010
46160,31996
46173,31985
46189,31977
46206,31972
46224,31970
46442,31970
46460,31972
Z" /> 
<path style="fill:#000000; fill-opacity:1.0; 
stroke:#000000; stroke-width:0; stroke-opacity:1; 
stroke-linecap:round; stroke-linejoin:round;fill-rule:evenodd;"
d="M 46982,31972
46999,31977
47015,31985
47028,31996
47039,32010
47048,32026
47053,32042
47055,32061
47055,32308
47053,32327
47048,32343
47039,32359
47028,32373
47015,32384
46999,32392
46982,32397
46964,32399
46746,32399
46728,32397
46711,32392
46695,32384
46681,32373
46670,32359
46662,32343
46657,32327
46655,32308
46655,32061
46657,32042
46662,32026
46670,32010
46681,31996
46695,31985
46711,31977
46728,31972
46746,31970
46964,31970
46982,31972
Z" /> 
<path style="fill:#000000; fill-opacity:1.0; 
stroke:#000000; stroke-width:0; stroke-opacity:1; 
stroke-linecap:round; stroke-linejoin:round;fill-rule:evenodd;"
d="M 43557,31972
43574,31977
43589,31985
43603,31996
43614,32010
43622,32026
43628,32042
43629,32061
43629,32308
43628,32327
43622,32343
43614,32359
43603,32373
43589,32384
43574,32392
43557,32397
43538,32399
43321,32399
43302,32397
43285,32392
43270,32384
43256,32373
43245,32359
43237,32343
43232,32327
43230,32308
43230,32061
43232,32042
43237,32026
43245,32010
43256,31996
43270,31985
43285,31977
43302,31972
43321,31970
43538,31970
43557,31972
Z" /> 
<path style="fill:#000000; fill-opacity:1.0; 
stroke:#000000; stroke-width:0; stroke-opacity:1; 
stroke-linecap:round; stroke-linejoin:round;fill-rule:evenodd;"
d="M 47602,31972
47619,31977
47635,31985
47648,31996
47659,32010
47668,32026
47673,32042
47675,32061
47675,32308
47673,32327
47668,32343
47659,32359
47648,32373
47635,32384
47619,32392
47602,32397
47584,32399
47366,32399
47348,32397
47331,32392
47315,32384
47302,32373
47290,32359
47282,32343
47277,32327
47275,32308
47275,32061
47277,32042
47282,32026
47290,32010
47302,31996
47315,31985
47331,31977
47348,31972
47366,31970
47584,31970
47602,31972
Z" /> 
<path style="fill:#000000; fill-opacity:1.0; 
stroke:#000000; stroke-width:0; stroke-opacity:1; 
stroke-linecap:round; stroke-linejoin:round;fill-rule:evenodd;"
d="M 48124,31972
48141,31977
48156,31985
48170,31996
48181,32010
48189,32026
48195,32042
48196,32061
48196,32308
48195,32327
48189,32343
48181,32359
48170,32373
48156,32384
48141,32392
48124,32397
48105,32399
47888,32399
47869,32397
47852,32392
47837,32384
47823,32373
47812,32359
47804,32343
47799,32327
47797,32308
47797,32061
47799,32042
47804,32026
47812,32010
47823,31996
47837,31985
47852,31977
47869,31972
47888,31970
48105,31970
48124,31972
Z" /> 
<path style="fill:#000000; fill-opacity:1.0; 
stroke:#000000; stroke-width:0; stroke-opacity:1; 
stroke-linecap:round; stroke-linejoin:round;fill-rule:evenodd;"
d="M 48744,31972
48761,31977
48776,31985
48790,31996
48801,32010
48809,32026
48815,32042
48816,32061
48816,32308
48815,32327
48809,32343
48801,32359
48790,32373
48776,32384
48761,32392
48744,32397
48725,32399
48508,32399
48489,32397
48472,32392
48457,32384
48443,32373
48432,32359
48424,32343
48419,32327
48417,32308
48417,32061
48419,32042
48424,32026
48432,32010
48443,31996
48457,31985
48472,31977
48489,31972
48508,31970
48725,31970
48744,31972
Z" /> 
<path style="fill:#000000; fill-opacity:1.0; 
stroke:#000000; stroke-width:0; stroke-opacity:1; 
stroke-linecap:round; stroke-linejoin:round;fill-rule:evenodd;"
d="M 44177,31972
44194,31977
44209,31985
44223,31996
44234,32010
44243,32026
44248,32042
44250,32061
44250,32308
44248,32327
44243,32343
44234,32359
44223,32373
44209,32384
44194,32392
44177,32397
44158,32399
43941,32399
43922,32397
43906,32392
43890,32384
43876,32373
43865,32359
43857,32343
43852,32327
43850,32308
43850,32061
43852,32042
43857,32026
43865,32010
43876,31996
43890,31985
43906,31977
43922,31972
43941,31970
44158,31970
44177,31972
Z" /> 
<path style="fill:#000000; fill-opacity:1.0; 
stroke:#000000; stroke-width:0; stroke-opacity:1; 
stroke-linecap:round; stroke-linejoin:round;fill-rule:evenodd;"
d="M 42415,31972
42432,31977
42448,31985
42461,31996
42472,32010
42481,32026
42486,32042
42488,32061
42488,32308
42486,32327
42481,32343
42472,32359
42461,32373
42448,32384
42432,32392
42415,32397
42397,32399
42179,32399
42161,32397
42144,32392
42128,32384
42115,32373
42103,32359
42095,32343
42090,32327
42088,32308
42088,32061
42090,32042
42095,32026
42103,32010
42115,31996
42128,31985
42144,31977
42161,31972
42179,31970
42397,31970
42415,31972
Z" /> 
</g> 
</svg>
