<?xml version="1.0" standalone="no"?>
 <!DOCTYPE svg PUBLIC "-//W3C//DTD SVG 1.1//EN" 
 "http://www.w3.org/Graphics/SVG/1.1/DTD/svg11.dtd"> 
<svg xmlns="http://www.w3.org/2000/svg" version="1.1" 
    width="29.7002cm" height="21.0007cm" viewBox="0 0 116930 82680 ">
<title>SVG Picture created as KXKM_ESP32_battery_management_board-F_SilkS.svg date 2019/05/14 10:44:54 </title>
  <desc>Picture generated by PCBNEW </desc>
<g style="fill:#000000; fill-opacity:1;stroke:#000000; stroke-opacity:1;
stroke-linecap:round; stroke-linejoin:round; "
 transform="translate(0 0) scale(1 1)">
</g>
<g style="fill:#000000; fill-opacity:0.0; 
stroke:#000000; stroke-width:-0.000393701; stroke-opacity:1; 
stroke-linecap:round; stroke-linejoin:round;">
</g>
<g style="fill:#000000; fill-opacity:0.0; 
stroke:#000000; stroke-width:59.0551; stroke-opacity:1; 
stroke-linecap:round; stroke-linejoin:round;">
<path d="M40649 50000
L41240 50000
" />
<path d="M41017 49567
L40793 49567
" />
<path d="M40905 49567
L40905 49174
L40868 49230
L40830 49267
L40793 49286
" />
<path d="M40793 50510
L40811 50492
L40849 50473
L40943 50473
L40980 50492
L40999 50510
L41017 50548
L41017 50585
L40999 50642
L40774 50867
L41017 50867
" />
<path d="M45590 48740
L40649 48740
" />
<path d="M45590 51259
L45590 48740
" />
<path d="M40649 51259
L45590 51259
" />
<path d="M40649 48740
L40649 51259
" />
</g>
<g style="fill:#000000; fill-opacity:0.0; 
stroke:#000000; stroke-width:78.7402; stroke-opacity:1; 
stroke-linecap:round; stroke-linejoin:round;">
<path d="M41912 50033
L42272 50033
" />
<path d="M43577 50213
L43577 49741
L43689 49741
L43757 49763
L43802 49808
L43824 49853
L43847 49943
L43847 50011
L43824 50101
L43802 50146
L43757 50191
L43689 50213
L43577 50213
" />
<path d="M45129 50033
L45489 50033
" />
<path d="M45309 50213
L45309 49853
" />
<path d="M42041 48603
L41854 48603
L41854 48209
" />
<path d="M42172 48397
L42304 48397
" />
<path d="M42360 48603
L42172 48603
L42172 48209
L42360 48209
" />
<path d="M42529 48603
L42529 48209
L42622 48209
L42679 48228
L42716 48265
L42735 48303
L42754 48378
L42754 48434
L42735 48509
L42716 48547
L42679 48584
L42622 48603
L42529 48603
" />
<path d="M43203 48584
L43241 48603
L43316 48603
L43353 48584
L43372 48547
L43372 48528
L43353 48490
L43316 48472
L43260 48472
L43222 48453
L43203 48415
L43203 48397
L43222 48359
L43260 48340
L43316 48340
L43353 48359
" />
<path d="M43485 48340
L43635 48340
" />
<path d="M43541 48209
L43541 48547
L43560 48584
L43597 48603
L43635 48603
" />
<path d="M43766 48603
L43766 48340
" />
<path d="M43766 48415
L43785 48378
L43803 48359
L43841 48340
L43878 48340
" />
<path d="M44010 48603
L44010 48340
" />
<path d="M44010 48209
L43991 48228
L44010 48247
L44028 48228
L44010 48209
L44010 48247
" />
<path d="M44197 48340
L44197 48734
" />
<path d="M44197 48359
L44235 48340
L44310 48340
L44347 48359
L44366 48378
L44385 48415
L44385 48528
L44366 48565
L44347 48584
L44310 48603
L44235 48603
L44197 48584
" />
<path d="M57770 51645
L57827 51663
L57845 51682
L57864 51720
L57864 51776
L57845 51813
L57827 51832
L57789 51851
L57639 51851
L57639 51457
L57770 51457
L57808 51476
L57827 51495
L57845 51532
L57845 51570
L57827 51607
L57808 51626
L57770 51645
L57639 51645
" />
<path d="M58014 51738
L58202 51738
" />
<path d="M57977 51851
L58108 51457
L58239 51851
" />
<path d="M58314 51457
L58539 51457
" />
<path d="M58427 51851
L58427 51457
" />
<path d="M58614 51457
L58839 51457
" />
<path d="M58727 51851
L58727 51457
" />
<path d="M59270 51851
L59270 51457
" />
<path d="M59458 51851
L59458 51457
L59683 51851
L59683 51457
" />
</g>
<g style="fill:#000000; fill-opacity:0.0; 
stroke:#000000; stroke-width:59.0551; stroke-opacity:1; 
stroke-linecap:round; stroke-linejoin:round;">
<path d="M45767 51968
L40649 51968
" />
<path d="M45767 54232
L45767 51968
" />
<path d="M40649 54232
L40649 51968
" />
<path d="M45767 54232
L40649 54232
" />
<path d="M62696 51968
L62696 54232
" />
<path d="M57578 51968
L62696 51968
" />
<path d="M57578 54232
L57578 51968
" />
<path d="M62696 54232
L57578 54232
" />
<path d="M59940 48031
L58858 48031
" />
<path d="M59940 45078
L59940 48031
" />
<path d="M58858 45078
L59940 45078
" />
<path d="M58858 48031
L58858 45078
" />
<path d="M59310 47886
L59325 47841
L59325 47766
L59310 47736
L59295 47721
L59265 47706
L59235 47706
L59205 47721
L59190 47736
L59175 47766
L59160 47826
L59145 47856
L59130 47871
L59100 47886
L59070 47886
L59040 47871
L59025 47856
L59010 47826
L59010 47751
L59025 47706
" />
<path d="M59325 47571
L59010 47571
L59010 47496
L59025 47451
L59055 47421
L59085 47406
L59145 47391
L59190 47391
L59250 47406
L59280 47421
L59310 47451
L59325 47496
L59325 47571
" />
<path d="M59235 47271
L59235 47121
" />
<path d="M59325 47301
L59010 47196
L59325 47091
" />
<path d="M59010 46776
L59010 46581
L59130 46686
L59130 46641
L59145 46611
L59160 46596
L59190 46581
L59265 46581
L59295 46596
L59310 46611
L59325 46641
L59325 46731
L59310 46761
L59295 46776
" />
<path d="M59010 46491
L59325 46386
L59010 46281
" />
<path d="M59010 46206
L59010 46011
L59130 46116
L59130 46071
L59145 46041
L59160 46026
L59190 46011
L59265 46011
L59295 46026
L59310 46041
L59325 46071
L59325 46161
L59310 46191
L59295 46206
" />
<path d="M59842 47083
L59857 47038
L59857 46963
L59842 46933
L59827 46918
L59797 46903
L59767 46903
L59737 46918
L59722 46933
L59707 46963
L59692 47023
L59677 47053
L59662 47068
L59632 47083
L59602 47083
L59572 47068
L59557 47053
L59542 47023
L59542 46948
L59557 46903
" />
<path d="M59827 46588
L59842 46603
L59857 46648
L59857 46678
L59842 46723
L59812 46753
L59782 46768
L59722 46783
L59677 46783
L59617 46768
L59587 46753
L59557 46723
L59542 46678
L59542 46648
L59557 46603
L59572 46588
" />
<path d="M59857 46303
L59857 46453
L59542 46453
" />
<path d="M59557 45793
L59542 45823
L59542 45868
L59557 45913
L59587 45943
L59617 45958
L59677 45973
L59722 45973
L59782 45958
L59812 45943
L59842 45913
L59857 45868
L59857 45838
L59842 45793
L59827 45778
L59722 45778
L59722 45838
" />
<path d="M59857 45643
L59542 45643
L59857 45464
L59542 45464
" />
<path d="M59857 45314
L59542 45314
L59542 45239
L59557 45194
L59587 45164
L59617 45149
L59677 45134
L59722 45134
L59782 45149
L59812 45164
L59842 45194
L59857 45239
L59857 45314
" />
<path d="M54625 44881
L54625 46751
" />
<path d="M54035 44881
L54625 44881
" />
<path d="M54035 46751
L54035 44881
" />
<path d="M54625 46751
L54035 46751
" />
</g>
<g style="fill:#000000; fill-opacity:0.0; 
stroke:#000000; stroke-width:78.7402; stroke-opacity:1; 
stroke-linecap:round; stroke-linejoin:round;">
<path d="M55099 46381
L54705 46381
L54705 46287
L54724 46231
L54761 46194
L54799 46175
L54874 46156
L54930 46156
L55005 46175
L55043 46194
L55080 46231
L55099 46287
L55099 46381
" />
<path d="M55099 45988
L54705 45988
L54986 45856
L54705 45725
L55099 45725
" />
<path d="M54705 45575
L55099 45313
" />
<path d="M54705 45313
L55099 45575
" />
</g>
<g style="fill:#000000; fill-opacity:0.0; 
stroke:#000000; stroke-width:59.0551; stroke-opacity:1; 
stroke-linecap:round; stroke-linejoin:round;">
<path d="M41988 32156
L42003 32128
L42003 32086
L41988 32044
L41958 32016
L41928 32002
L41868 31988
L41823 31988
L41763 32002
L41733 32016
L41703 32044
L41688 32086
L41688 32114
L41703 32156
L41718 32170
L41823 32170
L41823 32114
" />
<path d="M41688 32297
L42003 32297
L41688 32466
L42003 32466
" />
<path d="M41688 32606
L42003 32606
L42003 32677
L41988 32719
L41958 32747
L41928 32761
L41868 32775
L41823 32775
L41763 32761
L41733 32747
L41703 32719
L41688 32677
L41688 32606
" />
<path d="M41786 37064
L42101 37064
L42101 37134
L42086 37176
L42056 37204
L42026 37218
L41966 37232
L41921 37232
L41861 37218
L41831 37204
L41801 37176
L41786 37134
L41786 37064
" />
<path d="M42101 37317
L42101 37485
" />
<path d="M41786 37401
L42101 37401
" />
<path d="M41786 37753
L41936 37654
" />
<path d="M41786 37584
L42101 37584
L42101 37696
L42086 37724
L42071 37739
L42041 37753
L41996 37753
L41966 37739
L41951 37724
L41936 37696
L41936 37584
" />
</g>
<g style="fill:#000000; fill-opacity:0.0; 
stroke:#000000; stroke-width:78.7402; stroke-opacity:1; 
stroke-linecap:round; stroke-linejoin:round;">
<path d="M47314 36344
L47220 36081
L47126 36344
" />
<path d="M46995 36437
L46976 36456
L46939 36475
L46845 36475
L46808 36456
L46789 36437
L46770 36400
L46770 36362
L46789 36306
L47014 36081
L46770 36081
" />
<path d="M46601 36119
L46583 36100
L46601 36081
L46620 36100
L46601 36119
L46601 36081
" />
<path d="M46339 36475
L46302 36475
L46264 36456
L46245 36437
L46227 36400
L46208 36325
L46208 36231
L46227 36156
L46245 36119
L46264 36100
L46302 36081
L46339 36081
L46377 36100
L46395 36119
L46414 36156
L46433 36231
L46433 36325
L46414 36400
L46395 36437
L46377 36456
L46339 36475
" />
<path d="M47914 35806
L47876 35806
L47839 35787
L47820 35768
L47801 35731
L47783 35656
L47783 35562
L47801 35487
L47820 35449
L47839 35431
L47876 35412
L47914 35412
L47951 35431
L47970 35449
L47989 35487
L48008 35562
L48008 35656
L47989 35731
L47970 35768
L47951 35787
L47914 35806
" />
<path d="M47445 35674
L47445 35412
" />
<path d="M47539 35824
L47633 35543
L47389 35543
" />
<path d="M46958 35824
L47295 35318
" />
<path d="M46845 35768
L46826 35787
L46789 35806
L46695 35806
L46658 35787
L46639 35768
L46620 35731
L46620 35693
L46639 35637
L46864 35412
L46620 35412
" />
<path d="M46377 35806
L46339 35806
L46302 35787
L46283 35768
L46264 35731
L46245 35656
L46245 35562
L46264 35487
L46283 35449
L46302 35431
L46339 35412
L46377 35412
L46414 35431
L46433 35449
L46452 35487
L46470 35562
L46470 35656
L46452 35731
L46433 35768
L46414 35787
L46377 35806
" />
<path d="M45870 35412
L46095 35412
" />
<path d="M45983 35412
L45983 35806
L46020 35749
L46058 35712
L46095 35693
" />
<path d="M45683 35412
L45608 35412
L45570 35431
L45552 35449
L45514 35506
L45495 35581
L45495 35731
L45514 35768
L45533 35787
L45570 35806
L45645 35806
L45683 35787
L45702 35768
L45720 35731
L45720 35637
L45702 35599
L45683 35581
L45645 35562
L45570 35562
L45533 35581
L45514 35599
L45495 35637
" />
<path d="M56017 49390
L55793 49390
" />
<path d="M55905 49390
L55905 48997
L55868 49053
L55830 49090
L55793 49109
" />
</g>
<g style="fill:#000000; fill-opacity:0.0; 
stroke:#000000; stroke-width:118.11; stroke-opacity:1; 
stroke-linecap:round; stroke-linejoin:round;">
<path d="M45149 52305
L45598 52305
" />
<path d="M45374 52530
L45374 52080
" />
<path d="M42196 52305
L42646 52305
" />
<path d="M59223 52305
L59673 52305
" />
<path d="M62078 52305
L62528 52305
" />
<path d="M62303 52530
L62303 52080
" />
</g>
<g style="fill:#000000; fill-opacity:0.0; 
stroke:#000000; stroke-width:78.7402; stroke-opacity:1; 
stroke-linecap:round; stroke-linejoin:round;">
<path d="M54396 46601
L54396 46414
" />
<path d="M54508 46639
L54115 46508
L54508 46377
" />
<path d="M54302 45814
L54321 45758
L54340 45739
L54377 45720
L54433 45720
L54471 45739
L54490 45758
L54508 45795
L54508 45945
L54115 45945
L54115 45814
L54133 45777
L54152 45758
L54190 45739
L54227 45739
L54265 45758
L54283 45777
L54302 45814
L54302 45945
" />
<path d="M54358 45252
L54358 44952
" />
<path d="M40907 51645
L40963 51663
L40982 51682
L41001 51720
L41001 51776
L40982 51813
L40963 51832
L40926 51851
L40776 51851
L40776 51457
L40907 51457
L40944 51476
L40963 51495
L40982 51532
L40982 51570
L40963 51607
L40944 51626
L40907 51645
L40776 51645
" />
<path d="M41151 51738
L41338 51738
" />
<path d="M41113 51851
L41244 51457
L41376 51851
" />
<path d="M41451 51457
L41676 51457
" />
<path d="M41563 51851
L41563 51457
" />
<path d="M41751 51457
L41976 51457
" />
<path d="M41863 51851
L41863 51457
" />
<path d="M42482 51457
L42557 51457
L42594 51476
L42632 51513
L42650 51588
L42650 51720
L42632 51795
L42594 51832
L42557 51851
L42482 51851
L42444 51832
L42407 51795
L42388 51720
L42388 51588
L42407 51513
L42444 51476
L42482 51457
" />
<path d="M42819 51457
L42819 51776
L42838 51813
L42857 51832
L42894 51851
L42969 51851
L43007 51832
L43025 51813
L43044 51776
L43044 51457
" />
<path d="M43175 51457
L43400 51457
" />
<path d="M43288 51851
L43288 51457
" />
<path d="M43832 51851
L43832 51588
" />
<path d="M43832 51626
L43850 51607
L43888 51588
L43944 51588
L43982 51607
L44000 51645
L44000 51851
" />
<path d="M44000 51645
L44019 51607
L44056 51588
L44113 51588
L44150 51607
L44169 51645
L44169 51851
" />
<path d="M44525 51851
L44525 51645
L44506 51607
L44469 51588
L44394 51588
L44356 51607
" />
<path d="M44525 51832
L44488 51851
L44394 51851
L44356 51832
L44338 51795
L44338 51757
L44356 51720
L44394 51701
L44488 51701
L44525 51682
" />
<path d="M44675 51851
L44881 51588
" />
<path d="M44675 51588
L44881 51851
" />
<path d="M45538 51851
L45313 51851
" />
<path d="M45425 51851
L45425 51457
L45388 51513
L45350 51551
L45313 51570
" />
<path d="M45781 51457
L45819 51457
L45856 51476
L45875 51495
L45894 51532
L45913 51607
L45913 51701
L45894 51776
L45875 51813
L45856 51832
L45819 51851
L45781 51851
L45744 51832
L45725 51813
L45706 51776
L45688 51701
L45688 51607
L45706 51532
L45725 51495
L45744 51476
L45781 51457
" />
<path d="M46062 51738
L46250 51738
" />
<path d="M46025 51851
L46156 51457
L46287 51851
" />
</g>
<g style="fill:#000000; fill-opacity:0.0; 
stroke:#000000; stroke-width:59.0551; stroke-opacity:1; 
stroke-linecap:round; stroke-linejoin:round;">
<path d="M47430 32534
L47580 32534
L47580 32849
" />
<path d="M47325 32534
L47325 32744
" />
<path d="M47325 32849
L47340 32834
L47325 32819
L47310 32834
L47325 32849
L47325 32819
" />
<path d="M47175 32534
L47175 32849
L47055 32849
L47025 32834
L47010 32819
L46995 32789
L46995 32744
L47010 32714
L47025 32699
L47055 32684
L47175 32684
" />
<path d="M46815 32534
L46845 32549
L46860 32564
L46875 32594
L46875 32684
L46860 32714
L46845 32729
L46815 32744
L46770 32744
L46740 32729
L46725 32714
L46710 32684
L46710 32594
L46725 32564
L46740 32549
L46770 32534
L46815 32534
" />
<path d="M46185 32534
L46335 32534
L46335 32849
" />
<path d="M46080 32534
L46080 32744
" />
<path d="M46080 32849
L46095 32834
L46080 32819
L46065 32834
L46080 32849
L46080 32819
" />
<path d="M45825 32699
L45930 32699
" />
<path d="M45930 32534
L45930 32849
L45780 32849
" />
<path d="M45540 32549
L45570 32534
L45630 32534
L45660 32549
L45675 32579
L45675 32699
L45660 32729
L45630 32744
L45570 32744
L45540 32729
L45525 32699
L45525 32669
L45675 32639
" />
<path d="M44970 32564
L44985 32549
L45030 32534
L45060 32534
L45105 32549
L45135 32579
L45150 32609
L45165 32669
L45165 32714
L45150 32774
L45135 32804
L45105 32834
L45060 32849
L45030 32849
L44985 32834
L44970 32819
" />
<path d="M44700 32744
L44700 32534
" />
<path d="M44835 32744
L44835 32579
L44820 32549
L44790 32534
L44745 32534
L44715 32549
L44700 32564
" />
<path d="M44565 32549
L44535 32534
L44476 32534
L44446 32549
L44431 32579
L44431 32594
L44446 32624
L44476 32639
L44520 32639
L44550 32654
L44565 32684
L44565 32699
L44550 32729
L44520 32744
L44476 32744
L44446 32729
" />
<path d="M44341 32744
L44221 32744
" />
<path d="M44296 32849
L44296 32579
L44281 32549
L44251 32534
L44221 32534
" />
<path d="M44071 32534
L44101 32549
L44116 32564
L44131 32594
L44131 32684
L44116 32714
L44101 32729
L44071 32744
L44026 32744
L43996 32729
L43981 32714
L43966 32684
L43966 32594
L43981 32564
L43996 32549
L44026 32534
L44071 32534
" />
<path d="M43831 32534
L43831 32744
" />
<path d="M43831 32714
L43816 32729
L43786 32744
L43741 32744
L43711 32729
L43696 32699
L43696 32534
" />
<path d="M43696 32699
L43681 32729
L43651 32744
L43606 32744
L43576 32729
L43561 32699
L43561 32534
" />
</g>
<g style="fill:#000000; fill-opacity:0.0; 
stroke:#000000; stroke-width:78.7402; stroke-opacity:1; 
stroke-linecap:round; stroke-linejoin:round;">
<path d="M43892 37420
L44024 37607
" />
<path d="M44117 37420
L44117 37814
L43967 37814
L43930 37795
L43911 37776
L43892 37739
L43892 37682
L43911 37645
L43930 37626
L43967 37607
L44117 37607
" />
<path d="M43574 37439
L43611 37420
L43686 37420
L43724 37439
L43742 37476
L43742 37626
L43724 37664
L43686 37682
L43611 37682
L43574 37664
L43555 37626
L43555 37589
L43742 37551
" />
<path d="M43405 37439
L43368 37420
L43293 37420
L43255 37439
L43236 37476
L43236 37495
L43255 37532
L43293 37551
L43349 37551
L43386 37570
L43405 37607
L43405 37626
L43386 37664
L43349 37682
L43293 37682
L43255 37664
" />
<path d="M42918 37439
L42955 37420
L43030 37420
L43068 37439
L43086 37476
L43086 37626
L43068 37664
L43030 37682
L42955 37682
L42918 37664
L42899 37626
L42899 37589
L43086 37551
" />
<path d="M42786 37682
L42636 37682
" />
<path d="M42730 37814
L42730 37476
L42711 37439
L42674 37420
L42636 37420
" />
<path d="M56969 53960
L56969 54035
L56988 54072
L57006 54091
L57063 54129
L57138 54147
L57288 54147
L57325 54129
L57344 54110
L57363 54072
L57363 53997
L57344 53960
L57325 53941
L57288 53922
L57194 53922
L57156 53941
L57138 53960
L57119 53997
L57119 54072
L57138 54110
L57156 54129
L57194 54147
" />
<path d="M57213 53754
L57213 53454
" />
<path d="M56969 53304
L56969 53060
L57119 53191
L57119 53135
L57138 53098
L57156 53079
L57194 53060
L57288 53060
L57325 53079
L57344 53098
L57363 53135
L57363 53248
L57344 53285
L57325 53304
" />
<path d="M56969 52816
L56969 52779
L56988 52741
L57006 52723
L57044 52704
L57119 52685
L57213 52685
L57288 52704
L57325 52723
L57344 52741
L57363 52779
L57363 52816
L57344 52854
L57325 52873
L57288 52891
L57213 52910
L57119 52910
L57044 52891
L57006 52873
L56988 52854
L56969 52816
" />
<path d="M56969 52573
L57363 52441
L56969 52310
" />
<path d="M57363 52179
L56969 52179
L56969 52085
L56988 52029
L57025 51991
L57063 51973
L57138 51954
L57194 51954
L57269 51973
L57306 51991
L57344 52029
L57363 52085
L57363 52179
" />
<path d="M57325 51560
L57344 51579
L57363 51635
L57363 51673
L57344 51729
L57306 51766
L57269 51785
L57194 51804
L57138 51804
L57063 51785
L57025 51766
L56988 51729
L56969 51673
L56969 51635
L56988 51579
L57006 51560
" />
</g>
<g style="fill:#000000; fill-opacity:0.0; 
stroke:#000000; stroke-width:118.11; stroke-opacity:1; 
stroke-linecap:round; stroke-linejoin:round;">
<path d="M61614 33323
L61529 33295
L61389 33295
L61332 33323
L61304 33352
L61276 33408
L61276 33464
L61304 33520
L61332 33548
L61389 33577
L61501 33605
L61557 33633
L61586 33661
L61614 33717
L61614 33773
L61586 33830
L61557 33858
L61501 33886
L61361 33886
L61276 33858
" />
<path d="M61079 33886
L60939 33295
L60826 33717
L60714 33295
L60573 33886
" />
<path d="M60404 33886
L60039 33886
L60236 33661
L60151 33661
L60095 33633
L60067 33605
L60039 33548
L60039 33408
L60067 33352
L60095 33323
L60151 33295
L60320 33295
L60376 33323
L60404 33352
" />
</g>
<g style="fill:#000000; fill-opacity:0.0; 
stroke:#000000; stroke-width:78.7402; stroke-opacity:1; 
stroke-linecap:round; stroke-linejoin:round;">
<circle cx="61338.6" cy="34527.6" r="39.3701" /> 
<circle cx="60315" cy="34527.6" r="39.3701" /> 
<path d="M61732 34527
L61732 34960
" />
<path d="M61338 34527
L61732 34527
" />
<path d="M60314 34527
L61338 34212
" />
<path d="M59921 34527
L60314 34527
" />
<path d="M59921 34960
L59921 34527
" />
</g>
<g style="fill:#000000; fill-opacity:0.0; 
stroke:#000000; stroke-width:59.0551; stroke-opacity:1; 
stroke-linecap:round; stroke-linejoin:round;">
<path d="M49572 51624
L49572 51231
L49666 51231
L49722 51250
L49760 51287
L49778 51324
L49797 51399
L49797 51456
L49778 51531
L49760 51568
L49722 51606
L49666 51624
L49572 51624
" />
<path d="M50191 51587
L50172 51606
L50116 51624
L50078 51624
L50022 51606
L49985 51568
L49966 51531
L49947 51456
L49947 51399
L49966 51324
L49985 51287
L50022 51250
L50078 51231
L50116 51231
L50172 51250
L50191 51268
" />
<path d="M50641 51212
L50303 51718
" />
<path d="M50772 51624
L50772 51231
L50866 51231
L50922 51250
L50959 51287
L50978 51324
L50997 51399
L50997 51456
L50978 51531
L50959 51568
L50922 51606
L50866 51624
L50772 51624
" />
<path d="M51391 51587
L51372 51606
L51316 51624
L51278 51624
L51222 51606
L51184 51568
L51166 51531
L51147 51456
L51147 51399
L51166 51324
L51184 51287
L51222 51250
L51278 51231
L51316 51231
L51372 51250
L51391 51268
" />
<path d="M49497 52274
L49497 52012
" />
<path d="M49497 52049
L49516 52030
L49553 52012
L49610 52012
L49647 52030
L49666 52068
L49666 52274
" />
<path d="M49666 52068
L49685 52030
L49722 52012
L49778 52012
L49816 52030
L49835 52068
L49835 52274
" />
<path d="M50078 52274
L50041 52255
L50022 52237
L50003 52199
L50003 52087
L50022 52049
L50041 52030
L50078 52012
L50134 52012
L50172 52030
L50191 52049
L50209 52087
L50209 52199
L50191 52237
L50172 52255
L50134 52274
L50078 52274
" />
<path d="M50547 52274
L50547 51880
" />
<path d="M50547 52255
L50509 52274
L50434 52274
L50397 52255
L50378 52237
L50359 52199
L50359 52087
L50378 52049
L50397 52030
L50434 52012
L50509 52012
L50547 52030
" />
<path d="M50903 52012
L50903 52274
" />
<path d="M50734 52012
L50734 52218
L50753 52255
L50791 52274
L50847 52274
L50884 52255
L50903 52237
" />
<path d="M51147 52274
L51109 52255
L51091 52218
L51091 51880
" />
<path d="M51447 52255
L51409 52274
L51334 52274
L51297 52255
L51278 52218
L51278 52068
L51297 52030
L51334 52012
L51409 52012
L51447 52030
L51466 52068
L51466 52105
L51278 52143
" />
<path d="M55255 54291
L55255 47677
" />
<path d="M55255 47677
L46515 47677
" />
<path d="M46515 47677
L46515 54291
" />
<path d="M46515 54291
L55255 54291
" />
<path d="M52657 50984
L49114 50984
" />
<path d="M49114 50984
L49704 50393
" />
<path d="M49114 50984
L49704 51377
" />
<path d="M53622 49645
L47952 49645
" />
<path d="M53622 55157
L53622 49645
" />
<path d="M47952 55157
L53622 55157
" />
<path d="M47952 49645
L47952 55157
" />
</g>
<g style="fill:#000000; fill-opacity:0.0; 
stroke:#000000; stroke-width:39.3701; stroke-opacity:1; 
stroke-linecap:round; stroke-linejoin:round;">
<path d="M53415 50029
L53415 50314
" />
<path d="M53041 50029
L53415 50029
" />
<path d="M48159 50029
L48159 50344
" />
<path d="M48562 50029
L48159 50029
" />
<path d="M53415 57785
L53139 57785
" />
<path d="M53415 57529
L53415 57785
" />
<path d="M48159 57785
L48159 57519
" />
<path d="M48543 57785
L48159 57785
" />
</g>
<g style="fill:#000000; fill-opacity:0.0; 
stroke:#000000; stroke-width:47.2441; stroke-opacity:1; 
stroke-linecap:round; stroke-linejoin:round;">
<path d="M62405 48027
L61322 48027
" />
<path d="M59051 48027
L60133 48027
" />
<path d="M59051 50962
L59051 48027
" />
<path d="M62405 50962
L62405 48027
" />
<path d="M61986 51381
L61322 51381
" />
<path d="M59470 51381
L60133 51381
" />
<path d="M59470 51381
L59051 50962
" />
<path d="M61986 51381
L62405 50962
" />
<path d="M59740 51240
L59740 50846
" />
<path d="M59543 51043
L59937 51043
" />
</g>
<g style="fill:#000000; fill-opacity:0.0; 
stroke:#000000; stroke-width:59.0551; stroke-opacity:1; 
stroke-linecap:round; stroke-linejoin:round;">
<path d="M50196 31692
L49251 31692
" />
<path d="M51377 31968
L50196 31692
" />
<path d="M55078 31968
L51377 31968
" />
<path d="M55078 37401
L55078 31968
" />
<path d="M49251 37401
L55078 37401
" />
<path d="M49251 31692
L49251 37401
" />
</g>
<g style="fill:#000000; fill-opacity:0.0; 
stroke:#000000; stroke-width:47.2441; stroke-opacity:1; 
stroke-linecap:round; stroke-linejoin:round;">
<path d="M44324 31895
L43425 31895
" />
<path d="M44324 32474
L44324 31895
" />
<path d="M43425 32474
L44324 32474
" />
<path d="M59448 41011
L59972 41011
" />
<path d="M59972 41011
L59972 41535
" />
<path d="M59972 42035
L59972 45059
" />
<path d="M58925 45059
L59972 45059
" />
<path d="M58925 42035
L58925 45059
" />
<path d="M58925 42035
L59972 42035
" />
<path d="M56161 48795
L55625 48795
" />
<path d="M58208 39196
L58208 38972
" />
<path d="M58208 40196
L58208 39795
" />
<path d="M58208 41196
L58208 40795
" />
<path d="M58208 42196
L58208 41795
" />
<path d="M58208 43196
L58208 42795
" />
<path d="M58208 44196
L58208 43795
" />
<path d="M58208 45196
L58208 44795
" />
<path d="M58208 46196
L58208 45795
" />
<path d="M58208 47196
L58208 46795
" />
<path d="M58208 48196
L58208 47795
" />
<path d="M58208 49019
L58208 48795
" />
<path d="M58208 38972
L56161 38972
" />
<path d="M56161 39196
L56161 38972
" />
<path d="M56161 40196
L56161 39795
" />
<path d="M56161 41196
L56161 40795
" />
<path d="M56161 42196
L56161 41795
" />
<path d="M56161 43196
L56161 42795
" />
<path d="M56161 44196
L56161 43795
" />
<path d="M56161 45196
L56161 44795
" />
<path d="M56161 46196
L56161 45795
" />
<path d="M56161 47196
L56161 46795
" />
<path d="M56161 48196
L56161 47795
" />
<path d="M56161 49019
L56161 48795
" />
<path d="M58208 49019
L56161 49019
" />
<path d="M57893 32460
L55885 32460
" />
<path d="M57893 34468
L55885 34468
" />
<path d="M53190 46503
L53498 46503
" />
<path d="M53498 46503
L53498 46110
" />
<path d="M53190 39322
L53498 39322
" />
<path d="M53498 39322
L53498 39716
" />
<path d="M43362 46503
L43362 39322
" />
<path d="M43362 39322
L45889 39322
" />
<path d="M43362 46503
L45889 46503
" />
<path d="M45889 46503
L45889 46653
" />
<path d="M47677 34771
L47401 34771
" />
<path d="M44527 34771
L44251 34771
" />
<path d="M46889 34771
L46811 34771
" />
<path d="M45118 34771
L45039 34771
" />
<path d="M46220 33161
L46141 33082
" />
<path d="M45708 33161
L45787 33082
" />
<path d="M46220 33673
L46220 33161
" />
<path d="M45787 33082
L46141 33082
" />
<path d="M45708 33161
L45708 33673
" />
<path d="M47677 33673
L44251 33673
" />
<path d="M46299 34771
L45629 34771
" />
<path d="M47913 34377
L47913 34066
" />
<path d="M44015 34066
L44015 34377
" />
<path d="M44251 36712
L44251 36673
" />
<path d="M42519 37303
L44251 37303
" />
<path d="M44251 36082
L42519 36082
" />
<path d="M42519 36712
L42519 36673
" />
<path d="M42216 33698
L42466 33698
" />
<path d="M42216 33948
L42216 33698
" />
<path d="M40716 37905
L41763 37905
" />
<path d="M40716 32881
L40716 37905
" />
<path d="M41763 32881
L41763 37905
" />
<path d="M40716 32881
L41763 32881
" />
<path d="M40716 32381
L40716 31858
" />
<path d="M40716 31858
L41240 31858
" />
<path d="M48891 31895
L47992 31895
" />
<path d="M48891 32474
L48891 31895
" />
<path d="M47992 32474
L48891 32474
" />
<path d="M45708 32474
L46608 32474
" />
<path d="M46608 32474
L46608 31895
" />
<path d="M46608 31895
L45708 31895
" />
<path d="M47750 31895
L46850 31895
" />
<path d="M47750 32474
L47750 31895
" />
<path d="M46850 32474
L47750 32474
" />
<path d="M42283 32474
L43183 32474
" />
<path d="M43183 32474
L43183 31895
" />
<path d="M43183 31895
L42283 31895
" />
<path d="M44566 32474
L45466 32474
" />
<path d="M45466 32474
L45466 31895
" />
<path d="M45466 31895
L44566 31895
" />
<circle cx="47933.1" cy="36712.6" r="374.016" /> 
<circle cx="43346.5" cy="33346.5" r="374.016" /> 
<path d="M54102 44633
L55149 44633
" />
<path d="M54102 42610
L54102 44633
" />
<path d="M55149 42610
L55149 44633
" />
<path d="M54102 42610
L55149 42610
" />
<path d="M54102 42110
L54102 41586
" />
<path d="M54102 41586
L54625 41586
" />
</g>
<g style="fill:#000000; fill-opacity:0.0; 
stroke:#000000; stroke-width:59.0551; stroke-opacity:1; 
stroke-linecap:round; stroke-linejoin:round;">
<path d="M59641 35236
L59641 34153
" />
<path d="M62003 35236
L62003 34153
" />
<path d="M59641 35236
L62003 35236
" />
</g>
<g style="fill:#000000; fill-opacity:0.0; 
stroke:#000000; stroke-width:47.2441; stroke-opacity:1; 
stroke-linecap:round; stroke-linejoin:round;">
<path d="M59507 33157
L59507 33248
" />
<path d="M59303 31712
L62342 31712
" />
<path d="M62342 31712
L62342 33248
" />
<path d="M59303 34472
L59507 34472
" />
<path d="M59303 31712
L59303 33248
" />
<path d="M62137 33157
L62137 33248
" />
<path d="M59507 34271
L59507 34472
" />
<path d="M59303 34271
L59303 34472
" />
<path d="M61925 33157
L62137 33157
" />
<path d="M62137 34271
L62137 34472
" />
<path d="M62137 34472
L62342 34472
" />
<path d="M62342 34271
L62342 34472
" />
<path d="M59507 33157
L59720 33157
" />
<path d="M60153 33157
L61492 33157
" />
</g>
<g style="fill:#000000; fill-opacity:0.0; 
stroke:#000000; stroke-width:39.3701; stroke-opacity:1; 
stroke-linecap:round; stroke-linejoin:round;">
<path d="M53281 52701
L53281 52386
" />
<path d="M53431 52701
L53431 52386
L53611 52701
L53611 52386
" />
<path d="M53761 52581
L54001 52581
" />
<path d="M53281 49551
L53281 49236
" />
<path d="M53431 49551
L53431 49236
L53611 49551
L53611 49236
" />
<path d="M53761 49431
L54001 49431
" />
<path d="M53881 49551
L53881 49311
" />
<path d="M47816 52386
L47876 52386
L47906 52401
L47936 52431
L47951 52491
L47951 52596
L47936 52656
L47906 52686
L47876 52701
L47816 52701
L47786 52686
L47756 52656
L47741 52596
L47741 52491
L47756 52431
L47786 52401
L47816 52386
" />
<path d="M48086 52386
L48086 52641
L48101 52671
L48116 52686
L48146 52701
L48206 52701
L48236 52686
L48251 52671
L48266 52641
L48266 52386
" />
<path d="M48371 52386
L48551 52386
" />
<path d="M48461 52701
L48461 52386
" />
<path d="M48656 52581
L48896 52581
" />
<path d="M47816 49236
L47876 49236
L47906 49251
L47936 49281
L47951 49341
L47951 49446
L47936 49506
L47906 49536
L47876 49551
L47816 49551
L47786 49536
L47756 49506
L47741 49446
L47741 49341
L47756 49281
L47786 49251
L47816 49236
" />
<path d="M48086 49236
L48086 49491
L48101 49521
L48116 49536
L48146 49551
L48206 49551
L48236 49536
L48251 49521
L48266 49491
L48266 49236
" />
<path d="M48371 49236
L48551 49236
" />
<path d="M48461 49551
L48461 49236
" />
<path d="M48656 49431
L48896 49431
" />
<path d="M48776 49551
L48776 49311
" />
</g>
<g style="fill:#000000; fill-opacity:0.0; 
stroke:#000000; stroke-width:59.0551; stroke-opacity:1; 
stroke-linecap:round; stroke-linejoin:round;">
<path d="M59233 40780
L59514 40780
L59570 40799
L59608 40837
L59626 40893
L59626 40930
" />
<path d="M59364 40424
L59626 40424
" />
<path d="M59214 40518
L59495 40612
L59495 40368
" />
<path d="M57053 49371
L57053 49652
L57035 49708
L56997 49745
L56941 49764
L56903 49764
" />
<path d="M57203 49371
L57447 49371
L57316 49520
L57372 49520
L57410 49539
L57428 49558
L57447 49595
L57447 49689
L57428 49727
L57410 49745
L57372 49764
L57260 49764
L57222 49745
L57203 49727
" />
<path d="M43510 34227
L43510 34002
L43525 33957
L43555 33927
L43600 33912
L43630 33912
" />
<path d="M43375 34197
L43360 34212
L43330 34227
L43255 34227
L43225 34212
L43210 34197
L43195 34167
L43195 34137
L43210 34092
L43390 33912
L43195 33912
" />
<path d="M54410 41324
L54691 41324
L54747 41342
L54785 41380
L54804 41436
L54804 41474
" />
<path d="M54410 40967
L54410 41042
L54429 41080
L54447 41099
L54504 41136
L54579 41155
L54729 41155
L54766 41136
L54785 41117
L54804 41080
L54804 41005
L54785 40967
L54766 40949
L54729 40930
L54635 40930
L54597 40949
L54579 40967
L54560 41005
L54560 41080
L54579 41117
L54597 41136
L54635 41155
" />
<g >
</g>
<g style="fill:#000000; fill-opacity:1.0; 
stroke:#000000; stroke-width:100; stroke-opacity:1; 
stroke-linecap:round; stroke-linejoin:round;">
<path style="fill:#000000; fill-opacity:1.0; 
stroke:#000000; stroke-width:100; stroke-opacity:1; 
stroke-linecap:round; stroke-linejoin:round;fill-rule:evenodd;"
d="M 62548,38237
58514,38237
58514,35778
62548,35778
62548,38237
Z" /> 
</g>
</g> 
</svg>
