G04 #@! TF.GenerationSoftware,KiCad,Pcbnew,5.1.0*
G04 #@! TF.CreationDate,2019-04-16T15:55:50+02:00*
G04 #@! TF.ProjectId,KXKM_audio_board_for_ESP32,4b584b4d-5f61-4756-9469-6f5f626f6172,1.0*
G04 #@! TF.SameCoordinates,PX82a7440PY6f94740*
G04 #@! TF.FileFunction,Legend,Top*
G04 #@! TF.FilePolarity,Positive*
%FSLAX46Y46*%
G04 Gerber Fmt 4.6, Leading zero omitted, Abs format (unit mm)*
G04 Created by KiCad (PCBNEW 5.1.0) date 2019-04-16 15:55:50*
%MOMM*%
%LPD*%
G04 APERTURE LIST*
%ADD10C,0.120000*%
%ADD11C,0.100000*%
%ADD12C,0.150000*%
%ADD13C,0.254000*%
%ADD14C,3.940000*%
%ADD15O,2.640000X1.840000*%
%ADD16O,1.540000X2.940000*%
%ADD17C,3.139740*%
%ADD18R,3.139740X3.139740*%
%ADD19C,1.740000*%
%ADD20C,2.140000*%
%ADD21R,3.140000X1.140000*%
%ADD22C,3.340000*%
G04 APERTURE END LIST*
D10*
X8250000Y38750000D02*
X13500000Y38750000D01*
X13500000Y38750000D02*
X13500000Y41500000D01*
X3000000Y41500000D02*
X13500000Y41500000D01*
X3000000Y38750000D02*
X3000000Y41500000D01*
X8250000Y38750000D02*
X3000000Y38750000D01*
X8250000Y41500000D02*
X8250000Y38750000D01*
D11*
X11247619Y39388096D02*
X10980952Y39769048D01*
X10790476Y39388096D02*
X10790476Y40188096D01*
X11095238Y40188096D01*
X11171428Y40150000D01*
X11209523Y40111905D01*
X11247619Y40035715D01*
X11247619Y39921429D01*
X11209523Y39845239D01*
X11171428Y39807143D01*
X11095238Y39769048D01*
X10790476Y39769048D01*
X3785714Y39388096D02*
X3404761Y39388096D01*
X3404761Y40188096D01*
X4623809Y40226191D02*
X3938095Y39197620D01*
X4890476Y39388096D02*
X4890476Y40188096D01*
X5157142Y39616667D01*
X5423809Y40188096D01*
X5423809Y39388096D01*
X5919047Y39388096D02*
X5842857Y39426191D01*
X5804761Y39464286D01*
X5766666Y39540477D01*
X5766666Y39769048D01*
X5804761Y39845239D01*
X5842857Y39883334D01*
X5919047Y39921429D01*
X6033333Y39921429D01*
X6109523Y39883334D01*
X6147619Y39845239D01*
X6185714Y39769048D01*
X6185714Y39540477D01*
X6147619Y39464286D01*
X6109523Y39426191D01*
X6033333Y39388096D01*
X5919047Y39388096D01*
X6528571Y39921429D02*
X6528571Y39388096D01*
X6528571Y39845239D02*
X6566666Y39883334D01*
X6642857Y39921429D01*
X6757142Y39921429D01*
X6833333Y39883334D01*
X6871428Y39807143D01*
X6871428Y39388096D01*
X7366666Y39388096D02*
X7290476Y39426191D01*
X7252380Y39464286D01*
X7214285Y39540477D01*
X7214285Y39769048D01*
X7252380Y39845239D01*
X7290476Y39883334D01*
X7366666Y39921429D01*
X7480952Y39921429D01*
X7557142Y39883334D01*
X7595238Y39845239D01*
X7633333Y39769048D01*
X7633333Y39540477D01*
X7595238Y39464286D01*
X7557142Y39426191D01*
X7480952Y39388096D01*
X7366666Y39388096D01*
D12*
X3726190Y40678572D02*
X4488095Y40678572D01*
X4107142Y40297620D02*
X4107142Y41059524D01*
X6488095Y40678572D02*
X7250000Y40678572D01*
X9250000Y40678572D02*
X10011904Y40678572D01*
X9630952Y40297620D02*
X9630952Y41059524D01*
X12011904Y40678572D02*
X12773809Y40678572D01*
X916666Y32595239D02*
X1059523Y32547620D01*
X1297619Y32547620D01*
X1392857Y32595239D01*
X1440476Y32642858D01*
X1488095Y32738096D01*
X1488095Y32833334D01*
X1440476Y32928572D01*
X1392857Y32976191D01*
X1297619Y33023810D01*
X1107142Y33071429D01*
X1011904Y33119048D01*
X964285Y33166667D01*
X916666Y33261905D01*
X916666Y33357143D01*
X964285Y33452381D01*
X1011904Y33500000D01*
X1107142Y33547620D01*
X1345238Y33547620D01*
X1488095Y33500000D01*
X1916666Y33214286D02*
X1916666Y32214286D01*
X1916666Y33166667D02*
X2011904Y33214286D01*
X2202380Y33214286D01*
X2297619Y33166667D01*
X2345238Y33119048D01*
X2392857Y33023810D01*
X2392857Y32738096D01*
X2345238Y32642858D01*
X2297619Y32595239D01*
X2202380Y32547620D01*
X2011904Y32547620D01*
X1916666Y32595239D01*
X3202380Y32595239D02*
X3107142Y32547620D01*
X2916666Y32547620D01*
X2821428Y32595239D01*
X2773809Y32690477D01*
X2773809Y33071429D01*
X2821428Y33166667D01*
X2916666Y33214286D01*
X3107142Y33214286D01*
X3202380Y33166667D01*
X3250000Y33071429D01*
X3250000Y32976191D01*
X2773809Y32880953D01*
X4107142Y32547620D02*
X4107142Y33071429D01*
X4059523Y33166667D01*
X3964285Y33214286D01*
X3773809Y33214286D01*
X3678571Y33166667D01*
X4107142Y32595239D02*
X4011904Y32547620D01*
X3773809Y32547620D01*
X3678571Y32595239D01*
X3630952Y32690477D01*
X3630952Y32785715D01*
X3678571Y32880953D01*
X3773809Y32928572D01*
X4011904Y32928572D01*
X4107142Y32976191D01*
X4583333Y32547620D02*
X4583333Y33547620D01*
X4678571Y32928572D02*
X4964285Y32547620D01*
X4964285Y33214286D02*
X4583333Y32833334D01*
X5773809Y32595239D02*
X5678571Y32547620D01*
X5488095Y32547620D01*
X5392857Y32595239D01*
X5345238Y32690477D01*
X5345238Y33071429D01*
X5392857Y33166667D01*
X5488095Y33214286D01*
X5678571Y33214286D01*
X5773809Y33166667D01*
X5821428Y33071429D01*
X5821428Y32976191D01*
X5345238Y32880953D01*
X6250000Y32547620D02*
X6250000Y33214286D01*
X6250000Y33023810D02*
X6297619Y33119048D01*
X6345238Y33166667D01*
X6440476Y33214286D01*
X6535714Y33214286D01*
X7773809Y32547620D02*
X7678571Y32595239D01*
X7630952Y32642858D01*
X7583333Y32738096D01*
X7583333Y33023810D01*
X7630952Y33119048D01*
X7678571Y33166667D01*
X7773809Y33214286D01*
X7916666Y33214286D01*
X8011904Y33166667D01*
X8059523Y33119048D01*
X8107142Y33023810D01*
X8107142Y32738096D01*
X8059523Y32642858D01*
X8011904Y32595239D01*
X7916666Y32547620D01*
X7773809Y32547620D01*
X8964285Y33214286D02*
X8964285Y32547620D01*
X8535714Y33214286D02*
X8535714Y32690477D01*
X8583333Y32595239D01*
X8678571Y32547620D01*
X8821428Y32547620D01*
X8916666Y32595239D01*
X8964285Y32642858D01*
X9297619Y33214286D02*
X9678571Y33214286D01*
X9440476Y33547620D02*
X9440476Y32690477D01*
X9488095Y32595239D01*
X9583333Y32547620D01*
X9678571Y32547620D01*
D11*
G36*
X14250000Y11250000D02*
G01*
X11500000Y11250000D01*
X11500000Y13750000D01*
X14250000Y13750000D01*
X14250000Y11250000D01*
G37*
X14250000Y11250000D02*
X11500000Y11250000D01*
X11500000Y13750000D01*
X14250000Y13750000D01*
X14250000Y11250000D01*
D10*
X17000000Y12250000D02*
X18000000Y12750000D01*
X17000000Y12250000D02*
X18000000Y11750000D01*
X24750000Y12250000D02*
X17000000Y12250000D01*
X24750000Y18250000D02*
X24750000Y12250000D01*
X24000000Y18250000D02*
X24750000Y18250000D01*
D12*
X19254761Y14549881D02*
X20540476Y13692739D01*
X20207142Y14883215D02*
X20254761Y14930834D01*
X20302380Y14883215D01*
X20254761Y14835596D01*
X20207142Y14883215D01*
X20302380Y14883215D01*
X19921428Y14883215D02*
X19350000Y14835596D01*
X19302380Y14883215D01*
X19350000Y14930834D01*
X19921428Y14883215D01*
X19302380Y14883215D01*
X19207142Y15026072D02*
X20492857Y15883215D01*
X19302380Y16978453D02*
X19302380Y17168929D01*
X19350000Y17264167D01*
X19445238Y17359405D01*
X19635714Y17407024D01*
X19969047Y17407024D01*
X20159523Y17359405D01*
X20254761Y17264167D01*
X20302380Y17168929D01*
X20302380Y16978453D01*
X20254761Y16883215D01*
X20159523Y16787977D01*
X19969047Y16740358D01*
X19635714Y16740358D01*
X19445238Y16787977D01*
X19350000Y16883215D01*
X19302380Y16978453D01*
X19778571Y17835596D02*
X19778571Y18168929D01*
X20302380Y18311786D02*
X20302380Y17835596D01*
X19302380Y17835596D01*
X19302380Y18311786D01*
X20302380Y18740358D02*
X19302380Y18740358D01*
X19302380Y19121310D01*
X19350000Y19216548D01*
X19397619Y19264167D01*
X19492857Y19311786D01*
X19635714Y19311786D01*
X19730952Y19264167D01*
X19778571Y19216548D01*
X19826190Y19121310D01*
X19826190Y18740358D01*
X19302380Y19645120D02*
X19302380Y20264167D01*
X19683333Y19930834D01*
X19683333Y20073691D01*
X19730952Y20168929D01*
X19778571Y20216548D01*
X19873809Y20264167D01*
X20111904Y20264167D01*
X20207142Y20216548D01*
X20254761Y20168929D01*
X20302380Y20073691D01*
X20302380Y19787977D01*
X20254761Y19692739D01*
X20207142Y19645120D01*
X19302380Y20883215D02*
X19302380Y20978453D01*
X19350000Y21073691D01*
X19397619Y21121310D01*
X19492857Y21168929D01*
X19683333Y21216548D01*
X19921428Y21216548D01*
X20111904Y21168929D01*
X20207142Y21121310D01*
X20254761Y21073691D01*
X20302380Y20978453D01*
X20302380Y20883215D01*
X20254761Y20787977D01*
X20207142Y20740358D01*
X20111904Y20692739D01*
X19921428Y20645120D01*
X19683333Y20645120D01*
X19492857Y20692739D01*
X19397619Y20740358D01*
X19350000Y20787977D01*
X19302380Y20883215D01*
X19302380Y21549881D02*
X20302380Y21787977D01*
X19588095Y21978453D01*
X20302380Y22168929D01*
X19302380Y22407024D01*
X20207142Y23549881D02*
X20254761Y23597500D01*
X20302380Y23549881D01*
X20254761Y23502262D01*
X20207142Y23549881D01*
X20302380Y23549881D01*
X19683333Y23549881D02*
X19730952Y23597500D01*
X19778571Y23549881D01*
X19730952Y23502262D01*
X19683333Y23549881D01*
X19778571Y23549881D01*
X21952380Y14264167D02*
X20952380Y14264167D01*
X21904761Y14264167D02*
X21952380Y14168929D01*
X21952380Y13978453D01*
X21904761Y13883215D01*
X21857142Y13835596D01*
X21761904Y13787977D01*
X21476190Y13787977D01*
X21380952Y13835596D01*
X21333333Y13883215D01*
X21285714Y13978453D01*
X21285714Y14168929D01*
X21333333Y14264167D01*
X21952380Y14883215D02*
X21904761Y14787977D01*
X21857142Y14740358D01*
X21761904Y14692739D01*
X21476190Y14692739D01*
X21380952Y14740358D01*
X21333333Y14787977D01*
X21285714Y14883215D01*
X21285714Y15026072D01*
X21333333Y15121310D01*
X21380952Y15168929D01*
X21476190Y15216548D01*
X21761904Y15216548D01*
X21857142Y15168929D01*
X21904761Y15121310D01*
X21952380Y15026072D01*
X21952380Y14883215D01*
X21285714Y16407024D02*
X21952380Y16407024D01*
X21380952Y16407024D02*
X21333333Y16454643D01*
X21285714Y16549881D01*
X21285714Y16692739D01*
X21333333Y16787977D01*
X21428571Y16835596D01*
X21952380Y16835596D01*
X21952380Y17454643D02*
X21904761Y17359405D01*
X21857142Y17311786D01*
X21761904Y17264167D01*
X21476190Y17264167D01*
X21380952Y17311786D01*
X21333333Y17359405D01*
X21285714Y17454643D01*
X21285714Y17597500D01*
X21333333Y17692739D01*
X21380952Y17740358D01*
X21476190Y17787977D01*
X21761904Y17787977D01*
X21857142Y17740358D01*
X21904761Y17692739D01*
X21952380Y17597500D01*
X21952380Y17454643D01*
X21285714Y18073691D02*
X21285714Y18454643D01*
X20952380Y18216548D02*
X21809523Y18216548D01*
X21904761Y18264167D01*
X21952380Y18359405D01*
X21952380Y18454643D01*
X21904761Y19978453D02*
X21952380Y19883215D01*
X21952380Y19692739D01*
X21904761Y19597500D01*
X21857142Y19549881D01*
X21761904Y19502262D01*
X21476190Y19502262D01*
X21380952Y19549881D01*
X21333333Y19597500D01*
X21285714Y19692739D01*
X21285714Y19883215D01*
X21333333Y19978453D01*
X21952380Y20549881D02*
X21904761Y20454643D01*
X21857142Y20407024D01*
X21761904Y20359405D01*
X21476190Y20359405D01*
X21380952Y20407024D01*
X21333333Y20454643D01*
X21285714Y20549881D01*
X21285714Y20692739D01*
X21333333Y20787977D01*
X21380952Y20835596D01*
X21476190Y20883215D01*
X21761904Y20883215D01*
X21857142Y20835596D01*
X21904761Y20787977D01*
X21952380Y20692739D01*
X21952380Y20549881D01*
X21285714Y21311786D02*
X21952380Y21311786D01*
X21380952Y21311786D02*
X21333333Y21359405D01*
X21285714Y21454643D01*
X21285714Y21597500D01*
X21333333Y21692739D01*
X21428571Y21740358D01*
X21952380Y21740358D01*
X21285714Y22216548D02*
X21952380Y22216548D01*
X21380952Y22216548D02*
X21333333Y22264167D01*
X21285714Y22359405D01*
X21285714Y22502262D01*
X21333333Y22597500D01*
X21428571Y22645120D01*
X21952380Y22645120D01*
X21904761Y23502262D02*
X21952380Y23407024D01*
X21952380Y23216548D01*
X21904761Y23121310D01*
X21809523Y23073691D01*
X21428571Y23073691D01*
X21333333Y23121310D01*
X21285714Y23216548D01*
X21285714Y23407024D01*
X21333333Y23502262D01*
X21428571Y23549881D01*
X21523809Y23549881D01*
X21619047Y23073691D01*
X21904761Y24407024D02*
X21952380Y24311786D01*
X21952380Y24121310D01*
X21904761Y24026072D01*
X21857142Y23978453D01*
X21761904Y23930834D01*
X21476190Y23930834D01*
X21380952Y23978453D01*
X21333333Y24026072D01*
X21285714Y24121310D01*
X21285714Y24311786D01*
X21333333Y24407024D01*
X21285714Y24692739D02*
X21285714Y25073691D01*
X20952380Y24835596D02*
X21809523Y24835596D01*
X21904761Y24883215D01*
X21952380Y24978453D01*
X21952380Y25073691D01*
X22935714Y13692739D02*
X22935714Y14073691D01*
X22602380Y13835596D02*
X23459523Y13835596D01*
X23554761Y13883215D01*
X23602380Y13978453D01*
X23602380Y14073691D01*
X23602380Y14407024D02*
X22602380Y14407024D01*
X23602380Y14835596D02*
X23078571Y14835596D01*
X22983333Y14787977D01*
X22935714Y14692739D01*
X22935714Y14549881D01*
X22983333Y14454643D01*
X23030952Y14407024D01*
X23602380Y15311786D02*
X22935714Y15311786D01*
X22602380Y15311786D02*
X22650000Y15264167D01*
X22697619Y15311786D01*
X22650000Y15359405D01*
X22602380Y15311786D01*
X22697619Y15311786D01*
X23554761Y15740358D02*
X23602380Y15835596D01*
X23602380Y16026072D01*
X23554761Y16121310D01*
X23459523Y16168929D01*
X23411904Y16168929D01*
X23316666Y16121310D01*
X23269047Y16026072D01*
X23269047Y15883215D01*
X23221428Y15787977D01*
X23126190Y15740358D01*
X23078571Y15740358D01*
X22983333Y15787977D01*
X22935714Y15883215D01*
X22935714Y16026072D01*
X22983333Y16121310D01*
X22935714Y17359405D02*
X23935714Y17359405D01*
X22983333Y17359405D02*
X22935714Y17454643D01*
X22935714Y17645120D01*
X22983333Y17740358D01*
X23030952Y17787977D01*
X23126190Y17835596D01*
X23411904Y17835596D01*
X23507142Y17787977D01*
X23554761Y17740358D01*
X23602380Y17645120D01*
X23602380Y17454643D01*
X23554761Y17359405D01*
X23602380Y18264167D02*
X22935714Y18264167D01*
X22602380Y18264167D02*
X22650000Y18216548D01*
X22697619Y18264167D01*
X22650000Y18311786D01*
X22602380Y18264167D01*
X22697619Y18264167D01*
X22935714Y18740358D02*
X23602380Y18740358D01*
X23030952Y18740358D02*
X22983333Y18787977D01*
X22935714Y18883215D01*
X22935714Y19026072D01*
X22983333Y19121310D01*
X23078571Y19168929D01*
X23602380Y19168929D01*
D11*
X20897619Y8338096D02*
X21354761Y8338096D01*
X21126190Y7538096D02*
X21126190Y8338096D01*
X21621428Y7614286D02*
X21659523Y7576191D01*
X21621428Y7538096D01*
X21583333Y7576191D01*
X21621428Y7614286D01*
X21621428Y7538096D01*
X22611904Y7538096D02*
X22611904Y8338096D01*
X22878571Y7766667D01*
X23145238Y8338096D01*
X23145238Y7538096D01*
X23869047Y7538096D02*
X23869047Y7957143D01*
X23830952Y8033334D01*
X23754761Y8071429D01*
X23602380Y8071429D01*
X23526190Y8033334D01*
X23869047Y7576191D02*
X23792857Y7538096D01*
X23602380Y7538096D01*
X23526190Y7576191D01*
X23488095Y7652381D01*
X23488095Y7728572D01*
X23526190Y7804762D01*
X23602380Y7842858D01*
X23792857Y7842858D01*
X23869047Y7880953D01*
X24592857Y8071429D02*
X24592857Y7423810D01*
X24554761Y7347620D01*
X24516666Y7309524D01*
X24440476Y7271429D01*
X24326190Y7271429D01*
X24250000Y7309524D01*
X24592857Y7576191D02*
X24516666Y7538096D01*
X24364285Y7538096D01*
X24288095Y7576191D01*
X24250000Y7614286D01*
X24211904Y7690477D01*
X24211904Y7919048D01*
X24250000Y7995239D01*
X24288095Y8033334D01*
X24364285Y8071429D01*
X24516666Y8071429D01*
X24592857Y8033334D01*
X24973809Y8071429D02*
X24973809Y7538096D01*
X24973809Y7995239D02*
X25011904Y8033334D01*
X25088095Y8071429D01*
X25202380Y8071429D01*
X25278571Y8033334D01*
X25316666Y7957143D01*
X25316666Y7538096D01*
X25697619Y7538096D02*
X25697619Y8071429D01*
X25697619Y8338096D02*
X25659523Y8300000D01*
X25697619Y8261905D01*
X25735714Y8300000D01*
X25697619Y8338096D01*
X25697619Y8261905D01*
X26383333Y7576191D02*
X26307142Y7538096D01*
X26154761Y7538096D01*
X26078571Y7576191D01*
X26040476Y7652381D01*
X26040476Y7957143D01*
X26078571Y8033334D01*
X26154761Y8071429D01*
X26307142Y8071429D01*
X26383333Y8033334D01*
X26421428Y7957143D01*
X26421428Y7880953D01*
X26040476Y7804762D01*
X26764285Y7538096D02*
X26764285Y8071429D01*
X26764285Y7919048D02*
X26802380Y7995239D01*
X26840476Y8033334D01*
X26916666Y8071429D01*
X26992857Y8071429D01*
X20059523Y6771429D02*
X20250000Y6238096D01*
X20440476Y6771429D01*
X21164285Y6238096D02*
X20707142Y6238096D01*
X20935714Y6238096D02*
X20935714Y7038096D01*
X20859523Y6923810D01*
X20783333Y6847620D01*
X20707142Y6809524D01*
X21507142Y6314286D02*
X21545238Y6276191D01*
X21507142Y6238096D01*
X21469047Y6276191D01*
X21507142Y6314286D01*
X21507142Y6238096D01*
X22040476Y7038096D02*
X22116666Y7038096D01*
X22192857Y7000000D01*
X22230952Y6961905D01*
X22269047Y6885715D01*
X22307142Y6733334D01*
X22307142Y6542858D01*
X22269047Y6390477D01*
X22230952Y6314286D01*
X22192857Y6276191D01*
X22116666Y6238096D01*
X22040476Y6238096D01*
X21964285Y6276191D01*
X21926190Y6314286D01*
X21888095Y6390477D01*
X21850000Y6542858D01*
X21850000Y6733334D01*
X21888095Y6885715D01*
X21926190Y6961905D01*
X21964285Y7000000D01*
X22040476Y7038096D01*
X23259523Y6542858D02*
X23869047Y6542858D01*
X25011904Y7038096D02*
X25088095Y7038096D01*
X25164285Y7000000D01*
X25202380Y6961905D01*
X25240476Y6885715D01*
X25278571Y6733334D01*
X25278571Y6542858D01*
X25240476Y6390477D01*
X25202380Y6314286D01*
X25164285Y6276191D01*
X25088095Y6238096D01*
X25011904Y6238096D01*
X24935714Y6276191D01*
X24897619Y6314286D01*
X24859523Y6390477D01*
X24821428Y6542858D01*
X24821428Y6733334D01*
X24859523Y6885715D01*
X24897619Y6961905D01*
X24935714Y7000000D01*
X25011904Y7038096D01*
X25964285Y6771429D02*
X25964285Y6238096D01*
X25773809Y7076191D02*
X25583333Y6504762D01*
X26078571Y6504762D01*
X26954761Y7076191D02*
X26269047Y6047620D01*
X27640476Y6238096D02*
X27183333Y6238096D01*
X27411904Y6238096D02*
X27411904Y7038096D01*
X27335714Y6923810D01*
X27259523Y6847620D01*
X27183333Y6809524D01*
X28021428Y6238096D02*
X28173809Y6238096D01*
X28250000Y6276191D01*
X28288095Y6314286D01*
X28364285Y6428572D01*
X28402380Y6580953D01*
X28402380Y6885715D01*
X28364285Y6961905D01*
X28326190Y7000000D01*
X28250000Y7038096D01*
X28097619Y7038096D01*
X28021428Y7000000D01*
X27983333Y6961905D01*
X27945238Y6885715D01*
X27945238Y6695239D01*
X27983333Y6619048D01*
X28021428Y6580953D01*
X28097619Y6542858D01*
X28250000Y6542858D01*
X28326190Y6580953D01*
X28364285Y6619048D01*
X28402380Y6695239D01*
D12*
X3940476Y12197620D02*
X3940476Y13197620D01*
X4511904Y12197620D02*
X4083333Y12769048D01*
X4511904Y13197620D02*
X3940476Y12626191D01*
X4845238Y13197620D02*
X5511904Y12197620D01*
X5511904Y13197620D02*
X4845238Y12197620D01*
X5892857Y12197620D02*
X5892857Y13197620D01*
X6464285Y12197620D02*
X6035714Y12769048D01*
X6464285Y13197620D02*
X5892857Y12626191D01*
X6892857Y12197620D02*
X6892857Y13197620D01*
X7226190Y12483334D01*
X7559523Y13197620D01*
X7559523Y12197620D01*
X678571Y10833334D02*
X1154761Y10833334D01*
X583333Y10547620D02*
X916666Y11547620D01*
X1250000Y10547620D01*
X2011904Y11214286D02*
X2011904Y10547620D01*
X1583333Y11214286D02*
X1583333Y10690477D01*
X1630952Y10595239D01*
X1726190Y10547620D01*
X1869047Y10547620D01*
X1964285Y10595239D01*
X2011904Y10642858D01*
X2916666Y10547620D02*
X2916666Y11547620D01*
X2916666Y10595239D02*
X2821428Y10547620D01*
X2630952Y10547620D01*
X2535714Y10595239D01*
X2488095Y10642858D01*
X2440476Y10738096D01*
X2440476Y11023810D01*
X2488095Y11119048D01*
X2535714Y11166667D01*
X2630952Y11214286D01*
X2821428Y11214286D01*
X2916666Y11166667D01*
X3392857Y10547620D02*
X3392857Y11214286D01*
X3392857Y11547620D02*
X3345238Y11500000D01*
X3392857Y11452381D01*
X3440476Y11500000D01*
X3392857Y11547620D01*
X3392857Y11452381D01*
X4011904Y10547620D02*
X3916666Y10595239D01*
X3869047Y10642858D01*
X3821428Y10738096D01*
X3821428Y11023810D01*
X3869047Y11119048D01*
X3916666Y11166667D01*
X4011904Y11214286D01*
X4154761Y11214286D01*
X4250000Y11166667D01*
X4297619Y11119048D01*
X4345238Y11023810D01*
X4345238Y10738096D01*
X4297619Y10642858D01*
X4250000Y10595239D01*
X4154761Y10547620D01*
X4011904Y10547620D01*
X5535714Y10547620D02*
X5535714Y11547620D01*
X5773809Y11547620D01*
X5916666Y11500000D01*
X6011904Y11404762D01*
X6059523Y11309524D01*
X6107142Y11119048D01*
X6107142Y10976191D01*
X6059523Y10785715D01*
X6011904Y10690477D01*
X5916666Y10595239D01*
X5773809Y10547620D01*
X5535714Y10547620D01*
X6488095Y10833334D02*
X6964285Y10833334D01*
X6392857Y10547620D02*
X6726190Y11547620D01*
X7059523Y10547620D01*
X7964285Y10642858D02*
X7916666Y10595239D01*
X7773809Y10547620D01*
X7678571Y10547620D01*
X7535714Y10595239D01*
X7440476Y10690477D01*
X7392857Y10785715D01*
X7345238Y10976191D01*
X7345238Y11119048D01*
X7392857Y11309524D01*
X7440476Y11404762D01*
X7535714Y11500000D01*
X7678571Y11547620D01*
X7773809Y11547620D01*
X7916666Y11500000D01*
X7964285Y11452381D01*
X9011904Y11214286D02*
X9392857Y11214286D01*
X9154761Y10547620D02*
X9154761Y11404762D01*
X9202380Y11500000D01*
X9297619Y11547620D01*
X9392857Y11547620D01*
X9869047Y10547620D02*
X9773809Y10595239D01*
X9726190Y10642858D01*
X9678571Y10738096D01*
X9678571Y11023810D01*
X9726190Y11119048D01*
X9773809Y11166667D01*
X9869047Y11214286D01*
X10011904Y11214286D01*
X10107142Y11166667D01*
X10154761Y11119048D01*
X10202380Y11023810D01*
X10202380Y10738096D01*
X10154761Y10642858D01*
X10107142Y10595239D01*
X10011904Y10547620D01*
X9869047Y10547620D01*
X10630952Y10547620D02*
X10630952Y11214286D01*
X10630952Y11023810D02*
X10678571Y11119048D01*
X10726190Y11166667D01*
X10821428Y11214286D01*
X10916666Y11214286D01*
X511904Y9421429D02*
X845238Y9421429D01*
X988095Y8897620D02*
X511904Y8897620D01*
X511904Y9897620D01*
X988095Y9897620D01*
X1369047Y8945239D02*
X1511904Y8897620D01*
X1750000Y8897620D01*
X1845238Y8945239D01*
X1892857Y8992858D01*
X1940476Y9088096D01*
X1940476Y9183334D01*
X1892857Y9278572D01*
X1845238Y9326191D01*
X1750000Y9373810D01*
X1559523Y9421429D01*
X1464285Y9469048D01*
X1416666Y9516667D01*
X1369047Y9611905D01*
X1369047Y9707143D01*
X1416666Y9802381D01*
X1464285Y9850000D01*
X1559523Y9897620D01*
X1797619Y9897620D01*
X1940476Y9850000D01*
X2369047Y8897620D02*
X2369047Y9897620D01*
X2750000Y9897620D01*
X2845238Y9850000D01*
X2892857Y9802381D01*
X2940476Y9707143D01*
X2940476Y9564286D01*
X2892857Y9469048D01*
X2845238Y9421429D01*
X2750000Y9373810D01*
X2369047Y9373810D01*
X3273809Y9897620D02*
X3892857Y9897620D01*
X3559523Y9516667D01*
X3702380Y9516667D01*
X3797619Y9469048D01*
X3845238Y9421429D01*
X3892857Y9326191D01*
X3892857Y9088096D01*
X3845238Y8992858D01*
X3797619Y8945239D01*
X3702380Y8897620D01*
X3416666Y8897620D01*
X3321428Y8945239D01*
X3273809Y8992858D01*
X4273809Y9802381D02*
X4321428Y9850000D01*
X4416666Y9897620D01*
X4654761Y9897620D01*
X4750000Y9850000D01*
X4797619Y9802381D01*
X4845238Y9707143D01*
X4845238Y9611905D01*
X4797619Y9469048D01*
X4226190Y8897620D01*
X4845238Y8897620D01*
X6035714Y8897620D02*
X6035714Y9564286D01*
X6035714Y9469048D02*
X6083333Y9516667D01*
X6178571Y9564286D01*
X6321428Y9564286D01*
X6416666Y9516667D01*
X6464285Y9421429D01*
X6464285Y8897620D01*
X6464285Y9421429D02*
X6511904Y9516667D01*
X6607142Y9564286D01*
X6750000Y9564286D01*
X6845238Y9516667D01*
X6892857Y9421429D01*
X6892857Y8897620D01*
X7511904Y8897620D02*
X7416666Y8945239D01*
X7369047Y8992858D01*
X7321428Y9088096D01*
X7321428Y9373810D01*
X7369047Y9469048D01*
X7416666Y9516667D01*
X7511904Y9564286D01*
X7654761Y9564286D01*
X7750000Y9516667D01*
X7797619Y9469048D01*
X7845238Y9373810D01*
X7845238Y9088096D01*
X7797619Y8992858D01*
X7750000Y8945239D01*
X7654761Y8897620D01*
X7511904Y8897620D01*
X8702380Y8897620D02*
X8702380Y9897620D01*
X8702380Y8945239D02*
X8607142Y8897620D01*
X8416666Y8897620D01*
X8321428Y8945239D01*
X8273809Y8992858D01*
X8226190Y9088096D01*
X8226190Y9373810D01*
X8273809Y9469048D01*
X8321428Y9516667D01*
X8416666Y9564286D01*
X8607142Y9564286D01*
X8702380Y9516667D01*
X9607142Y9564286D02*
X9607142Y8897620D01*
X9178571Y9564286D02*
X9178571Y9040477D01*
X9226190Y8945239D01*
X9321428Y8897620D01*
X9464285Y8897620D01*
X9559523Y8945239D01*
X9607142Y8992858D01*
X10226190Y8897620D02*
X10130952Y8945239D01*
X10083333Y9040477D01*
X10083333Y9897620D01*
X10988095Y8945239D02*
X10892857Y8897620D01*
X10702380Y8897620D01*
X10607142Y8945239D01*
X10559523Y9040477D01*
X10559523Y9421429D01*
X10607142Y9516667D01*
X10702380Y9564286D01*
X10892857Y9564286D01*
X10988095Y9516667D01*
X11035714Y9421429D01*
X11035714Y9326191D01*
X10559523Y9230953D01*
X15710714Y24726191D02*
X15710714Y24488096D01*
X14282142Y24488096D01*
X14282142Y24726191D01*
X14996428Y25107143D02*
X14996428Y25869048D01*
X15377380Y25488096D02*
X14615476Y25488096D01*
X14996428Y27869048D02*
X14996428Y28630953D01*
X14996428Y29869048D02*
X14996428Y30630953D01*
X15377380Y30250000D02*
X14615476Y30250000D01*
X14996428Y32630953D02*
X14996428Y33392858D01*
X15710714Y33773810D02*
X15710714Y34011905D01*
X14282142Y34011905D01*
X14282142Y33773810D01*
X16979761Y26083334D02*
X17027380Y26226191D01*
X17027380Y26464286D01*
X16979761Y26559524D01*
X16932142Y26607143D01*
X16836904Y26654762D01*
X16741666Y26654762D01*
X16646428Y26607143D01*
X16598809Y26559524D01*
X16551190Y26464286D01*
X16503571Y26273810D01*
X16455952Y26178572D01*
X16408333Y26130953D01*
X16313095Y26083334D01*
X16217857Y26083334D01*
X16122619Y26130953D01*
X16075000Y26178572D01*
X16027380Y26273810D01*
X16027380Y26511905D01*
X16075000Y26654762D01*
X16360714Y27083334D02*
X17360714Y27083334D01*
X16408333Y27083334D02*
X16360714Y27178572D01*
X16360714Y27369048D01*
X16408333Y27464286D01*
X16455952Y27511905D01*
X16551190Y27559524D01*
X16836904Y27559524D01*
X16932142Y27511905D01*
X16979761Y27464286D01*
X17027380Y27369048D01*
X17027380Y27178572D01*
X16979761Y27083334D01*
X16979761Y28369048D02*
X17027380Y28273810D01*
X17027380Y28083334D01*
X16979761Y27988096D01*
X16884523Y27940477D01*
X16503571Y27940477D01*
X16408333Y27988096D01*
X16360714Y28083334D01*
X16360714Y28273810D01*
X16408333Y28369048D01*
X16503571Y28416667D01*
X16598809Y28416667D01*
X16694047Y27940477D01*
X17027380Y29273810D02*
X16503571Y29273810D01*
X16408333Y29226191D01*
X16360714Y29130953D01*
X16360714Y28940477D01*
X16408333Y28845239D01*
X16979761Y29273810D02*
X17027380Y29178572D01*
X17027380Y28940477D01*
X16979761Y28845239D01*
X16884523Y28797620D01*
X16789285Y28797620D01*
X16694047Y28845239D01*
X16646428Y28940477D01*
X16646428Y29178572D01*
X16598809Y29273810D01*
X17027380Y29750000D02*
X16027380Y29750000D01*
X16646428Y29845239D02*
X17027380Y30130953D01*
X16360714Y30130953D02*
X16741666Y29750000D01*
X16979761Y30940477D02*
X17027380Y30845239D01*
X17027380Y30654762D01*
X16979761Y30559524D01*
X16884523Y30511905D01*
X16503571Y30511905D01*
X16408333Y30559524D01*
X16360714Y30654762D01*
X16360714Y30845239D01*
X16408333Y30940477D01*
X16503571Y30988096D01*
X16598809Y30988096D01*
X16694047Y30511905D01*
X17027380Y31416667D02*
X16360714Y31416667D01*
X16551190Y31416667D02*
X16455952Y31464286D01*
X16408333Y31511905D01*
X16360714Y31607143D01*
X16360714Y31702381D01*
X16979761Y31988096D02*
X17027380Y32083334D01*
X17027380Y32273810D01*
X16979761Y32369048D01*
X16884523Y32416667D01*
X16836904Y32416667D01*
X16741666Y32369048D01*
X16694047Y32273810D01*
X16694047Y32130953D01*
X16646428Y32035715D01*
X16551190Y31988096D01*
X16503571Y31988096D01*
X16408333Y32035715D01*
X16360714Y32130953D01*
X16360714Y32273810D01*
X16408333Y32369048D01*
X18797619Y33297620D02*
X18988095Y33297620D01*
X19083333Y33250000D01*
X19178571Y33154762D01*
X19226190Y32964286D01*
X19226190Y32630953D01*
X19178571Y32440477D01*
X19083333Y32345239D01*
X18988095Y32297620D01*
X18797619Y32297620D01*
X18702380Y32345239D01*
X18607142Y32440477D01*
X18559523Y32630953D01*
X18559523Y32964286D01*
X18607142Y33154762D01*
X18702380Y33250000D01*
X18797619Y33297620D01*
X19654761Y32821429D02*
X19988095Y32821429D01*
X20130952Y32297620D02*
X19654761Y32297620D01*
X19654761Y33297620D01*
X20130952Y33297620D01*
X20559523Y32297620D02*
X20559523Y33297620D01*
X20940476Y33297620D01*
X21035714Y33250000D01*
X21083333Y33202381D01*
X21130952Y33107143D01*
X21130952Y32964286D01*
X21083333Y32869048D01*
X21035714Y32821429D01*
X20940476Y32773810D01*
X20559523Y32773810D01*
X21464285Y33297620D02*
X22083333Y33297620D01*
X21750000Y32916667D01*
X21892857Y32916667D01*
X21988095Y32869048D01*
X22035714Y32821429D01*
X22083333Y32726191D01*
X22083333Y32488096D01*
X22035714Y32392858D01*
X21988095Y32345239D01*
X21892857Y32297620D01*
X21607142Y32297620D01*
X21511904Y32345239D01*
X21464285Y32392858D01*
X22702380Y33297620D02*
X22797619Y33297620D01*
X22892857Y33250000D01*
X22940476Y33202381D01*
X22988095Y33107143D01*
X23035714Y32916667D01*
X23035714Y32678572D01*
X22988095Y32488096D01*
X22940476Y32392858D01*
X22892857Y32345239D01*
X22797619Y32297620D01*
X22702380Y32297620D01*
X22607142Y32345239D01*
X22559523Y32392858D01*
X22511904Y32488096D01*
X22464285Y32678572D01*
X22464285Y32916667D01*
X22511904Y33107143D01*
X22559523Y33202381D01*
X22607142Y33250000D01*
X22702380Y33297620D01*
X23369047Y33297620D02*
X23607142Y32297620D01*
X23797619Y33011905D01*
X23988095Y32297620D01*
X24226190Y33297620D01*
X24511904Y32297620D02*
X25035714Y32964286D01*
X24511904Y32964286D02*
X25035714Y32297620D01*
X25369047Y33202381D02*
X25416666Y33250000D01*
X25511904Y33297620D01*
X25750000Y33297620D01*
X25845238Y33250000D01*
X25892857Y33202381D01*
X25940476Y33107143D01*
X25940476Y33011905D01*
X25892857Y32869048D01*
X25321428Y32297620D01*
X25940476Y32297620D01*
X20178571Y28047620D02*
X20369047Y28047620D01*
X20464285Y28000000D01*
X20559523Y27904762D01*
X20607142Y27714286D01*
X20607142Y27380953D01*
X20559523Y27190477D01*
X20464285Y27095239D01*
X20369047Y27047620D01*
X20178571Y27047620D01*
X20083333Y27095239D01*
X19988095Y27190477D01*
X19940476Y27380953D01*
X19940476Y27714286D01*
X19988095Y27904762D01*
X20083333Y28000000D01*
X20178571Y28047620D01*
X21035714Y27571429D02*
X21369047Y27571429D01*
X21511904Y27047620D02*
X21035714Y27047620D01*
X21035714Y28047620D01*
X21511904Y28047620D01*
X21940476Y27047620D02*
X21940476Y28047620D01*
X22321428Y28047620D01*
X22416666Y28000000D01*
X22464285Y27952381D01*
X22511904Y27857143D01*
X22511904Y27714286D01*
X22464285Y27619048D01*
X22416666Y27571429D01*
X22321428Y27523810D01*
X21940476Y27523810D01*
X22845238Y28047620D02*
X23464285Y28047620D01*
X23130952Y27666667D01*
X23273809Y27666667D01*
X23369047Y27619048D01*
X23416666Y27571429D01*
X23464285Y27476191D01*
X23464285Y27238096D01*
X23416666Y27142858D01*
X23369047Y27095239D01*
X23273809Y27047620D01*
X22988095Y27047620D01*
X22892857Y27095239D01*
X22845238Y27142858D01*
X24083333Y28047620D02*
X24178571Y28047620D01*
X24273809Y28000000D01*
X24321428Y27952381D01*
X24369047Y27857143D01*
X24416666Y27666667D01*
X24416666Y27428572D01*
X24369047Y27238096D01*
X24321428Y27142858D01*
X24273809Y27095239D01*
X24178571Y27047620D01*
X24083333Y27047620D01*
X23988095Y27095239D01*
X23940476Y27142858D01*
X23892857Y27238096D01*
X23845238Y27428572D01*
X23845238Y27666667D01*
X23892857Y27857143D01*
X23940476Y27952381D01*
X23988095Y28000000D01*
X24083333Y28047620D01*
X24750000Y28047620D02*
X24988095Y27047620D01*
X25178571Y27761905D01*
X25369047Y27047620D01*
X25607142Y28047620D01*
X15710714Y19357143D02*
X15710714Y19119048D01*
X14282142Y19119048D01*
X14282142Y19357143D01*
X14996428Y19738096D02*
X14996428Y20500000D01*
X14996428Y22500000D02*
X14996428Y23261905D01*
X15377380Y22880953D02*
X14615476Y22880953D01*
X15710714Y23642858D02*
X15710714Y23880953D01*
X14282142Y23880953D01*
X14282142Y23642858D01*
X17027380Y19523810D02*
X16027380Y19523810D01*
X16027380Y19904762D01*
X16075000Y20000000D01*
X16122619Y20047620D01*
X16217857Y20095239D01*
X16360714Y20095239D01*
X16455952Y20047620D01*
X16503571Y20000000D01*
X16551190Y19904762D01*
X16551190Y19523810D01*
X17027380Y20666667D02*
X16979761Y20571429D01*
X16932142Y20523810D01*
X16836904Y20476191D01*
X16551190Y20476191D01*
X16455952Y20523810D01*
X16408333Y20571429D01*
X16360714Y20666667D01*
X16360714Y20809524D01*
X16408333Y20904762D01*
X16455952Y20952381D01*
X16551190Y21000000D01*
X16836904Y21000000D01*
X16932142Y20952381D01*
X16979761Y20904762D01*
X17027380Y20809524D01*
X17027380Y20666667D01*
X16360714Y21333334D02*
X17027380Y21523810D01*
X16551190Y21714286D01*
X17027380Y21904762D01*
X16360714Y22095239D01*
X16979761Y22857143D02*
X17027380Y22761905D01*
X17027380Y22571429D01*
X16979761Y22476191D01*
X16884523Y22428572D01*
X16503571Y22428572D01*
X16408333Y22476191D01*
X16360714Y22571429D01*
X16360714Y22761905D01*
X16408333Y22857143D01*
X16503571Y22904762D01*
X16598809Y22904762D01*
X16694047Y22428572D01*
X17027380Y23333334D02*
X16360714Y23333334D01*
X16551190Y23333334D02*
X16455952Y23380953D01*
X16408333Y23428572D01*
X16360714Y23523810D01*
X16360714Y23619048D01*
X15710714Y11785715D02*
X15710714Y11547620D01*
X14282142Y11547620D01*
X14282142Y11785715D01*
X15377380Y12738096D02*
X14901190Y12404762D01*
X15377380Y12166667D02*
X14377380Y12166667D01*
X14377380Y12547620D01*
X14425000Y12642858D01*
X14472619Y12690477D01*
X14567857Y12738096D01*
X14710714Y12738096D01*
X14805952Y12690477D01*
X14853571Y12642858D01*
X14901190Y12547620D01*
X14901190Y12166667D01*
X14425000Y14452381D02*
X14377380Y14357143D01*
X14377380Y14214286D01*
X14425000Y14071429D01*
X14520238Y13976191D01*
X14615476Y13928572D01*
X14805952Y13880953D01*
X14948809Y13880953D01*
X15139285Y13928572D01*
X15234523Y13976191D01*
X15329761Y14071429D01*
X15377380Y14214286D01*
X15377380Y14309524D01*
X15329761Y14452381D01*
X15282142Y14500000D01*
X14948809Y14500000D01*
X14948809Y14309524D01*
X14710714Y14928572D02*
X15377380Y14928572D01*
X14805952Y14928572D02*
X14758333Y14976191D01*
X14710714Y15071429D01*
X14710714Y15214286D01*
X14758333Y15309524D01*
X14853571Y15357143D01*
X15377380Y15357143D01*
X15377380Y16261905D02*
X14377380Y16261905D01*
X15329761Y16261905D02*
X15377380Y16166667D01*
X15377380Y15976191D01*
X15329761Y15880953D01*
X15282142Y15833334D01*
X15186904Y15785715D01*
X14901190Y15785715D01*
X14805952Y15833334D01*
X14758333Y15880953D01*
X14710714Y15976191D01*
X14710714Y16166667D01*
X14758333Y16261905D01*
X15377380Y17976191D02*
X15377380Y17500000D01*
X14377380Y17500000D01*
X15710714Y18214286D02*
X15710714Y18452381D01*
X14282142Y18452381D01*
X14282142Y18214286D01*
X16741666Y13166667D02*
X16741666Y13642858D01*
X17027380Y13071429D02*
X16027380Y13404762D01*
X17027380Y13738096D01*
X16360714Y14500000D02*
X17027380Y14500000D01*
X16360714Y14071429D02*
X16884523Y14071429D01*
X16979761Y14119048D01*
X17027380Y14214286D01*
X17027380Y14357143D01*
X16979761Y14452381D01*
X16932142Y14500000D01*
X17027380Y15404762D02*
X16027380Y15404762D01*
X16979761Y15404762D02*
X17027380Y15309524D01*
X17027380Y15119048D01*
X16979761Y15023810D01*
X16932142Y14976191D01*
X16836904Y14928572D01*
X16551190Y14928572D01*
X16455952Y14976191D01*
X16408333Y15023810D01*
X16360714Y15119048D01*
X16360714Y15309524D01*
X16408333Y15404762D01*
X17027380Y15880953D02*
X16360714Y15880953D01*
X16027380Y15880953D02*
X16075000Y15833334D01*
X16122619Y15880953D01*
X16075000Y15928572D01*
X16027380Y15880953D01*
X16122619Y15880953D01*
X17027380Y16500000D02*
X16979761Y16404762D01*
X16932142Y16357143D01*
X16836904Y16309524D01*
X16551190Y16309524D01*
X16455952Y16357143D01*
X16408333Y16404762D01*
X16360714Y16500000D01*
X16360714Y16642858D01*
X16408333Y16738096D01*
X16455952Y16785715D01*
X16551190Y16833334D01*
X16836904Y16833334D01*
X16932142Y16785715D01*
X16979761Y16738096D01*
X17027380Y16642858D01*
X17027380Y16500000D01*
X28900000Y13450000D02*
G75*
G03X28900000Y13450000I-1400000J0D01*
G01*
X28900000Y27050000D02*
G75*
G03X28900000Y27050000I-1400000J0D01*
G01*
X29500000Y11250000D02*
X29500000Y29250000D01*
X11500000Y11250000D02*
X29500000Y11250000D01*
X11500000Y29250000D02*
X11500000Y11250000D01*
X29500000Y29250000D02*
X11500000Y29250000D01*
X11500000Y34000000D02*
X11500000Y9000000D01*
X11500000Y9000000D02*
X29500000Y9000000D01*
X29500000Y9000000D02*
X29500000Y34000000D01*
X29500000Y34000000D02*
X11500000Y34000000D01*
X28900000Y32000000D02*
G75*
G03X28900000Y32000000I-1400000J0D01*
G01*
X28900000Y11000000D02*
G75*
G03X28900000Y11000000I-1400000J0D01*
G01*
D10*
X32650000Y1060000D02*
X31290000Y1060000D01*
X37850000Y25440000D02*
X37850000Y26010000D01*
X37850000Y22900000D02*
X37850000Y23920000D01*
X37850000Y20360000D02*
X37850000Y21380000D01*
X37850000Y17820000D02*
X37850000Y18840000D01*
X37850000Y15280000D02*
X37850000Y16300000D01*
X37850000Y12740000D02*
X37850000Y13760000D01*
X37850000Y10200000D02*
X37850000Y11220000D01*
X37850000Y7660000D02*
X37850000Y8680000D01*
X37850000Y5120000D02*
X37850000Y6140000D01*
X37850000Y2580000D02*
X37850000Y3600000D01*
X37850000Y490000D02*
X37850000Y1060000D01*
X37850000Y26010000D02*
X32650000Y26010000D01*
X32650000Y25440000D02*
X32650000Y26010000D01*
X32650000Y22900000D02*
X32650000Y23920000D01*
X32650000Y20360000D02*
X32650000Y21380000D01*
X32650000Y17820000D02*
X32650000Y18840000D01*
X32650000Y15280000D02*
X32650000Y16300000D01*
X32650000Y12740000D02*
X32650000Y13760000D01*
X32650000Y10200000D02*
X32650000Y11220000D01*
X32650000Y7660000D02*
X32650000Y8680000D01*
X32650000Y5120000D02*
X32650000Y6140000D01*
X32650000Y2580000D02*
X32650000Y3600000D01*
X32650000Y490000D02*
X32650000Y1060000D01*
X37850000Y490000D02*
X32650000Y490000D01*
D12*
X34666666Y1747620D02*
X34666666Y1033334D01*
X34619047Y890477D01*
X34523809Y795239D01*
X34380952Y747620D01*
X34285714Y747620D01*
X35047619Y1747620D02*
X35666666Y1747620D01*
X35333333Y1366667D01*
X35476190Y1366667D01*
X35571428Y1319048D01*
X35619047Y1271429D01*
X35666666Y1176191D01*
X35666666Y938096D01*
X35619047Y842858D01*
X35571428Y795239D01*
X35476190Y747620D01*
X35190476Y747620D01*
X35095238Y795239D01*
X35047619Y842858D01*
D13*
G36*
X38873000Y35627000D02*
G01*
X25627000Y35627000D01*
X25627000Y43623000D01*
X38873000Y43623000D01*
X38873000Y35627000D01*
X38873000Y35627000D01*
G37*
X38873000Y35627000D02*
X25627000Y35627000D01*
X25627000Y43623000D01*
X38873000Y43623000D01*
X38873000Y35627000D01*
%LPC*%
D14*
X27500000Y27050000D03*
X27500000Y13450000D03*
D15*
X12600000Y32930000D03*
X12600000Y30390000D03*
X12600000Y27850000D03*
X12600000Y25310000D03*
X12600000Y22770000D03*
X12600000Y20230000D03*
X12600000Y17690000D03*
X12600000Y15150000D03*
X12600000Y12610000D03*
X12600000Y10070000D03*
D14*
X27500000Y32000000D03*
X27500000Y11000000D03*
D16*
X1500000Y16250000D03*
X9750000Y16250000D03*
X1500000Y40250000D03*
D17*
X13680000Y36250000D03*
X9870000Y36250000D03*
X6060000Y36250000D03*
D18*
X2250000Y36250000D03*
D16*
X14750000Y40250000D03*
D19*
X20500000Y42000000D03*
X20500000Y36000000D03*
D20*
X23650000Y36000000D03*
X17350000Y36000000D03*
X17350000Y39500000D03*
X23650000Y42700000D03*
X17350000Y42700000D03*
D21*
X37770000Y24680000D03*
X32730000Y24680000D03*
X37770000Y22140000D03*
X32730000Y22140000D03*
X37770000Y19600000D03*
X32730000Y19600000D03*
X37770000Y17060000D03*
X32730000Y17060000D03*
X37770000Y14520000D03*
X32730000Y14520000D03*
X37770000Y11980000D03*
X32730000Y11980000D03*
X37770000Y9440000D03*
X32730000Y9440000D03*
X37770000Y6900000D03*
X32730000Y6900000D03*
X37770000Y4360000D03*
X32730000Y4360000D03*
X37770000Y1820000D03*
X32730000Y1820000D03*
D22*
X35250000Y29750000D03*
X7250000Y29750000D03*
M02*
