G04 #@! TF.GenerationSoftware,KiCad,Pcbnew,5.1.0*
G04 #@! TF.CreationDate,2019-04-16T15:55:50+02:00*
G04 #@! TF.ProjectId,KXKM_audio_board_for_ESP32,4b584b4d-5f61-4756-9469-6f5f626f6172,1.0*
G04 #@! TF.SameCoordinates,PX82a7440PY6f94740*
G04 #@! TF.FileFunction,Legend,Bot*
G04 #@! TF.FilePolarity,Positive*
%FSLAX46Y46*%
G04 Gerber Fmt 4.6, Leading zero omitted, Abs format (unit mm)*
G04 Created by KiCad (PCBNEW 5.1.0) date 2019-04-16 15:55:50*
%MOMM*%
%LPD*%
G04 APERTURE LIST*
%ADD10C,0.120000*%
%ADD11C,0.150000*%
%ADD12C,0.100000*%
%ADD13O,2.640000X1.840000*%
%ADD14C,1.015000*%
%ADD15O,1.540000X2.940000*%
%ADD16C,3.139740*%
%ADD17R,3.139740X3.139740*%
%ADD18C,1.000000*%
%ADD19C,1.115000*%
%ADD20R,1.200000X0.790000*%
%ADD21C,1.740000*%
%ADD22C,2.140000*%
%ADD23R,3.290000X1.140000*%
%ADD24C,1.390000*%
%ADD25R,0.540000X1.240000*%
%ADD26C,3.340000*%
G04 APERTURE END LIST*
D10*
X8250000Y41500000D02*
X3000000Y41500000D01*
D11*
X12773809Y39428572D02*
X12011904Y39428572D01*
X10011904Y39428572D02*
X9249999Y39428572D01*
X9630952Y39047620D02*
X9630952Y39809524D01*
X7249999Y39428572D02*
X6488095Y39428572D01*
X4488095Y39428572D02*
X3726190Y39428572D01*
X4107142Y39047620D02*
X4107142Y39809524D01*
D12*
X7214285Y40138096D02*
X7595238Y40138096D01*
X7595238Y40938096D01*
X6376190Y40976191D02*
X7061904Y39947620D01*
X6109523Y40138096D02*
X6109523Y40938096D01*
X5842857Y40366667D01*
X5576190Y40938096D01*
X5576190Y40138096D01*
X5080952Y40138096D02*
X5157142Y40176191D01*
X5195238Y40214286D01*
X5233333Y40290477D01*
X5233333Y40519048D01*
X5195238Y40595239D01*
X5157142Y40633334D01*
X5080952Y40671429D01*
X4966666Y40671429D01*
X4890476Y40633334D01*
X4852380Y40595239D01*
X4814285Y40519048D01*
X4814285Y40290477D01*
X4852380Y40214286D01*
X4890476Y40176191D01*
X4966666Y40138096D01*
X5080952Y40138096D01*
X4471428Y40671429D02*
X4471428Y40138096D01*
X4471428Y40595239D02*
X4433333Y40633334D01*
X4357142Y40671429D01*
X4242857Y40671429D01*
X4166666Y40633334D01*
X4128571Y40557143D01*
X4128571Y40138096D01*
X3633333Y40138096D02*
X3709523Y40176191D01*
X3747619Y40214286D01*
X3785714Y40290477D01*
X3785714Y40519048D01*
X3747619Y40595239D01*
X3709523Y40633334D01*
X3633333Y40671429D01*
X3519047Y40671429D01*
X3442857Y40633334D01*
X3404761Y40595239D01*
X3366666Y40519048D01*
X3366666Y40290477D01*
X3404761Y40214286D01*
X3442857Y40176191D01*
X3519047Y40138096D01*
X3633333Y40138096D01*
D10*
X3000000Y41500000D02*
X3000000Y38750000D01*
X8250000Y41500000D02*
X13500000Y41500000D01*
X13500000Y41500000D02*
X13500000Y38750000D01*
X8250000Y38750000D02*
X8250000Y41500000D01*
D12*
X10752380Y40138096D02*
X11019047Y40519048D01*
X11209523Y40138096D02*
X11209523Y40938096D01*
X10904761Y40938096D01*
X10828571Y40900000D01*
X10790476Y40861905D01*
X10752380Y40785715D01*
X10752380Y40671429D01*
X10790476Y40595239D01*
X10828571Y40557143D01*
X10904761Y40519048D01*
X11209523Y40519048D01*
D10*
X3000000Y38750000D02*
X13500000Y38750000D01*
X21087221Y26660000D02*
X21412779Y26660000D01*
X21087221Y25640000D02*
X21412779Y25640000D01*
X30460000Y27458578D02*
X30460000Y26941422D01*
X29040000Y27458578D02*
X29040000Y26941422D01*
X31850000Y38110000D02*
X34300000Y38110000D01*
X33650000Y34890000D02*
X31850000Y34890000D01*
X24610000Y16212779D02*
X24610000Y15887221D01*
X23590000Y16212779D02*
X23590000Y15887221D01*
D11*
X17500000Y33000000D02*
X23500000Y33000000D01*
X23500000Y33000000D02*
X23500000Y44500000D01*
X23500000Y44500000D02*
X23000000Y44500000D01*
X23000000Y44500000D02*
X23000000Y47000000D01*
X23000000Y47000000D02*
X18000000Y47000000D01*
X18000000Y47000000D02*
X18000000Y44500000D01*
X18000000Y44500000D02*
X17500000Y44500000D01*
X17500000Y44500000D02*
X17500000Y33000000D01*
X23000000Y44500000D02*
X18000000Y44500000D01*
X17500000Y33000000D02*
X23500000Y33000000D01*
D10*
X37850000Y22900000D02*
X37850000Y23920000D01*
X32650000Y22900000D02*
X32650000Y23920000D01*
X37850000Y20360000D02*
X37850000Y21380000D01*
X32650000Y20360000D02*
X32650000Y21380000D01*
X37850000Y17820000D02*
X37850000Y18840000D01*
X32650000Y17820000D02*
X32650000Y18840000D01*
X37850000Y15280000D02*
X37850000Y16300000D01*
X32650000Y15280000D02*
X32650000Y16300000D01*
X37850000Y12740000D02*
X37850000Y13760000D01*
X32650000Y12740000D02*
X32650000Y13760000D01*
X37850000Y10200000D02*
X37850000Y11220000D01*
X32650000Y10200000D02*
X32650000Y11220000D01*
X37850000Y7660000D02*
X37850000Y8680000D01*
X32650000Y7660000D02*
X32650000Y8680000D01*
X37850000Y5120000D02*
X37850000Y6140000D01*
X32650000Y5120000D02*
X32650000Y6140000D01*
X37850000Y2580000D02*
X37850000Y3600000D01*
X32650000Y2580000D02*
X32650000Y3600000D01*
X37850000Y25440000D02*
X37850000Y26010000D01*
X32650000Y25440000D02*
X32650000Y26010000D01*
X37850000Y490000D02*
X37850000Y1060000D01*
X32650000Y490000D02*
X32650000Y1060000D01*
X31210000Y1060000D02*
X32650000Y1060000D01*
X32650000Y26010000D02*
X37850000Y26010000D01*
X32650000Y490000D02*
X37850000Y490000D01*
X22737221Y31930000D02*
X23062779Y31930000D01*
X22737221Y30910000D02*
X23062779Y30910000D01*
X20910000Y16212779D02*
X20910000Y15887221D01*
X19890000Y16212779D02*
X19890000Y15887221D01*
X20991422Y14210000D02*
X21508578Y14210000D01*
X20991422Y12790000D02*
X21508578Y12790000D01*
X8840000Y22102064D02*
X8840000Y20897936D01*
X10660000Y22102064D02*
X10660000Y20897936D01*
X29535000Y16412779D02*
X29535000Y16087221D01*
X28515000Y16412779D02*
X28515000Y16087221D01*
D11*
X20250000Y23825000D02*
X20250000Y24900000D01*
X29975000Y23825000D02*
X29975000Y19175000D01*
X20025000Y23825000D02*
X20025000Y19175000D01*
X29975000Y23825000D02*
X29650000Y23825000D01*
X29975000Y19175000D02*
X29650000Y19175000D01*
X20025000Y19175000D02*
X20350000Y19175000D01*
X20025000Y23825000D02*
X20250000Y23825000D01*
D10*
X26562779Y30430000D02*
X26237221Y30430000D01*
X26562779Y29410000D02*
X26237221Y29410000D01*
X22737221Y30430000D02*
X23062779Y30430000D01*
X22737221Y29410000D02*
X23062779Y29410000D01*
X26562779Y30910000D02*
X26237221Y30910000D01*
X26562779Y31930000D02*
X26237221Y31930000D01*
X21990000Y16212779D02*
X21990000Y15887221D01*
X23010000Y16212779D02*
X23010000Y15887221D01*
X22990000Y26737221D02*
X22990000Y27062779D01*
X24010000Y26737221D02*
X24010000Y27062779D01*
X25490000Y26837221D02*
X25490000Y27162779D01*
X26510000Y26837221D02*
X26510000Y27162779D01*
X19460000Y23412779D02*
X19460000Y23087221D01*
X18440000Y23412779D02*
X18440000Y23087221D01*
X29040000Y30491422D02*
X29040000Y31008578D01*
X30460000Y30491422D02*
X30460000Y31008578D01*
X26990000Y26837221D02*
X26990000Y27162779D01*
X28010000Y26837221D02*
X28010000Y27162779D01*
X29240000Y34637221D02*
X29240000Y34962779D01*
X30260000Y34637221D02*
X30260000Y34962779D01*
X34990000Y36337221D02*
X34990000Y36662779D01*
X36010000Y36337221D02*
X36010000Y36662779D01*
D12*
X21061904Y39266667D02*
X21633333Y39266667D01*
X21747619Y39304762D01*
X21823809Y39380953D01*
X21861904Y39495239D01*
X21861904Y39571429D01*
X21138095Y38923810D02*
X21100000Y38885715D01*
X21061904Y38809524D01*
X21061904Y38619048D01*
X21100000Y38542858D01*
X21138095Y38504762D01*
X21214285Y38466667D01*
X21290476Y38466667D01*
X21404761Y38504762D01*
X21861904Y38961905D01*
X21861904Y38466667D01*
%LPC*%
D13*
X12600000Y32930000D03*
X12600000Y30390000D03*
X12600000Y27850000D03*
X12600000Y25310000D03*
X12600000Y22770000D03*
X12600000Y20230000D03*
X12600000Y17690000D03*
X12600000Y15150000D03*
X12600000Y12610000D03*
X12600000Y10070000D03*
D12*
G36*
X22316122Y26693778D02*
G01*
X22340754Y26690124D01*
X22364910Y26684074D01*
X22388356Y26675684D01*
X22410867Y26665038D01*
X22432226Y26652235D01*
X22452227Y26637401D01*
X22470678Y26620678D01*
X22487401Y26602227D01*
X22502235Y26582226D01*
X22515038Y26560867D01*
X22525684Y26538356D01*
X22534074Y26514910D01*
X22540124Y26490754D01*
X22543778Y26466122D01*
X22545000Y26441250D01*
X22545000Y25858750D01*
X22543778Y25833878D01*
X22540124Y25809246D01*
X22534074Y25785090D01*
X22525684Y25761644D01*
X22515038Y25739133D01*
X22502235Y25717774D01*
X22487401Y25697773D01*
X22470678Y25679322D01*
X22452227Y25662599D01*
X22432226Y25647765D01*
X22410867Y25634962D01*
X22388356Y25624316D01*
X22364910Y25615926D01*
X22340754Y25609876D01*
X22316122Y25606222D01*
X22291250Y25605000D01*
X21783750Y25605000D01*
X21758878Y25606222D01*
X21734246Y25609876D01*
X21710090Y25615926D01*
X21686644Y25624316D01*
X21664133Y25634962D01*
X21642774Y25647765D01*
X21622773Y25662599D01*
X21604322Y25679322D01*
X21587599Y25697773D01*
X21572765Y25717774D01*
X21559962Y25739133D01*
X21549316Y25761644D01*
X21540926Y25785090D01*
X21534876Y25809246D01*
X21531222Y25833878D01*
X21530000Y25858750D01*
X21530000Y26441250D01*
X21531222Y26466122D01*
X21534876Y26490754D01*
X21540926Y26514910D01*
X21549316Y26538356D01*
X21559962Y26560867D01*
X21572765Y26582226D01*
X21587599Y26602227D01*
X21604322Y26620678D01*
X21622773Y26637401D01*
X21642774Y26652235D01*
X21664133Y26665038D01*
X21686644Y26675684D01*
X21710090Y26684074D01*
X21734246Y26690124D01*
X21758878Y26693778D01*
X21783750Y26695000D01*
X22291250Y26695000D01*
X22316122Y26693778D01*
X22316122Y26693778D01*
G37*
D14*
X22037500Y26150000D03*
D12*
G36*
X20741122Y26693778D02*
G01*
X20765754Y26690124D01*
X20789910Y26684074D01*
X20813356Y26675684D01*
X20835867Y26665038D01*
X20857226Y26652235D01*
X20877227Y26637401D01*
X20895678Y26620678D01*
X20912401Y26602227D01*
X20927235Y26582226D01*
X20940038Y26560867D01*
X20950684Y26538356D01*
X20959074Y26514910D01*
X20965124Y26490754D01*
X20968778Y26466122D01*
X20970000Y26441250D01*
X20970000Y25858750D01*
X20968778Y25833878D01*
X20965124Y25809246D01*
X20959074Y25785090D01*
X20950684Y25761644D01*
X20940038Y25739133D01*
X20927235Y25717774D01*
X20912401Y25697773D01*
X20895678Y25679322D01*
X20877227Y25662599D01*
X20857226Y25647765D01*
X20835867Y25634962D01*
X20813356Y25624316D01*
X20789910Y25615926D01*
X20765754Y25609876D01*
X20741122Y25606222D01*
X20716250Y25605000D01*
X20208750Y25605000D01*
X20183878Y25606222D01*
X20159246Y25609876D01*
X20135090Y25615926D01*
X20111644Y25624316D01*
X20089133Y25634962D01*
X20067774Y25647765D01*
X20047773Y25662599D01*
X20029322Y25679322D01*
X20012599Y25697773D01*
X19997765Y25717774D01*
X19984962Y25739133D01*
X19974316Y25761644D01*
X19965926Y25785090D01*
X19959876Y25809246D01*
X19956222Y25833878D01*
X19955000Y25858750D01*
X19955000Y26441250D01*
X19956222Y26466122D01*
X19959876Y26490754D01*
X19965926Y26514910D01*
X19974316Y26538356D01*
X19984962Y26560867D01*
X19997765Y26582226D01*
X20012599Y26602227D01*
X20029322Y26620678D01*
X20047773Y26637401D01*
X20067774Y26652235D01*
X20089133Y26665038D01*
X20111644Y26675684D01*
X20135090Y26684074D01*
X20159246Y26690124D01*
X20183878Y26693778D01*
X20208750Y26695000D01*
X20716250Y26695000D01*
X20741122Y26693778D01*
X20741122Y26693778D01*
G37*
D14*
X20462500Y26150000D03*
D15*
X1500000Y16250000D03*
X9750000Y16250000D03*
X1500000Y40250000D03*
D16*
X13680000Y36250000D03*
X9870000Y36250000D03*
X6060000Y36250000D03*
D17*
X2250000Y36250000D03*
D15*
X14750000Y40250000D03*
D18*
X1000000Y33500000D03*
X35250000Y750000D03*
X38750000Y43500000D03*
D12*
G36*
X30268572Y26818658D02*
G01*
X30295631Y26814644D01*
X30322167Y26807997D01*
X30347923Y26798781D01*
X30372652Y26787086D01*
X30396115Y26773022D01*
X30418087Y26756727D01*
X30438356Y26738356D01*
X30456727Y26718087D01*
X30473022Y26696115D01*
X30487086Y26672652D01*
X30498781Y26647923D01*
X30507997Y26622167D01*
X30514644Y26595631D01*
X30518658Y26568572D01*
X30520000Y26541250D01*
X30520000Y25983750D01*
X30518658Y25956428D01*
X30514644Y25929369D01*
X30507997Y25902833D01*
X30498781Y25877077D01*
X30487086Y25852348D01*
X30473022Y25828885D01*
X30456727Y25806913D01*
X30438356Y25786644D01*
X30418087Y25768273D01*
X30396115Y25751978D01*
X30372652Y25737914D01*
X30347923Y25726219D01*
X30322167Y25717003D01*
X30295631Y25710356D01*
X30268572Y25706342D01*
X30241250Y25705000D01*
X29258750Y25705000D01*
X29231428Y25706342D01*
X29204369Y25710356D01*
X29177833Y25717003D01*
X29152077Y25726219D01*
X29127348Y25737914D01*
X29103885Y25751978D01*
X29081913Y25768273D01*
X29061644Y25786644D01*
X29043273Y25806913D01*
X29026978Y25828885D01*
X29012914Y25852348D01*
X29001219Y25877077D01*
X28992003Y25902833D01*
X28985356Y25929369D01*
X28981342Y25956428D01*
X28980000Y25983750D01*
X28980000Y26541250D01*
X28981342Y26568572D01*
X28985356Y26595631D01*
X28992003Y26622167D01*
X29001219Y26647923D01*
X29012914Y26672652D01*
X29026978Y26696115D01*
X29043273Y26718087D01*
X29061644Y26738356D01*
X29081913Y26756727D01*
X29103885Y26773022D01*
X29127348Y26787086D01*
X29152077Y26798781D01*
X29177833Y26807997D01*
X29204369Y26814644D01*
X29231428Y26818658D01*
X29258750Y26820000D01*
X30241250Y26820000D01*
X30268572Y26818658D01*
X30268572Y26818658D01*
G37*
D19*
X29750000Y26262500D03*
D12*
G36*
X30268572Y28693658D02*
G01*
X30295631Y28689644D01*
X30322167Y28682997D01*
X30347923Y28673781D01*
X30372652Y28662086D01*
X30396115Y28648022D01*
X30418087Y28631727D01*
X30438356Y28613356D01*
X30456727Y28593087D01*
X30473022Y28571115D01*
X30487086Y28547652D01*
X30498781Y28522923D01*
X30507997Y28497167D01*
X30514644Y28470631D01*
X30518658Y28443572D01*
X30520000Y28416250D01*
X30520000Y27858750D01*
X30518658Y27831428D01*
X30514644Y27804369D01*
X30507997Y27777833D01*
X30498781Y27752077D01*
X30487086Y27727348D01*
X30473022Y27703885D01*
X30456727Y27681913D01*
X30438356Y27661644D01*
X30418087Y27643273D01*
X30396115Y27626978D01*
X30372652Y27612914D01*
X30347923Y27601219D01*
X30322167Y27592003D01*
X30295631Y27585356D01*
X30268572Y27581342D01*
X30241250Y27580000D01*
X29258750Y27580000D01*
X29231428Y27581342D01*
X29204369Y27585356D01*
X29177833Y27592003D01*
X29152077Y27601219D01*
X29127348Y27612914D01*
X29103885Y27626978D01*
X29081913Y27643273D01*
X29061644Y27661644D01*
X29043273Y27681913D01*
X29026978Y27703885D01*
X29012914Y27727348D01*
X29001219Y27752077D01*
X28992003Y27777833D01*
X28985356Y27804369D01*
X28981342Y27831428D01*
X28980000Y27858750D01*
X28980000Y28416250D01*
X28981342Y28443572D01*
X28985356Y28470631D01*
X28992003Y28497167D01*
X29001219Y28522923D01*
X29012914Y28547652D01*
X29026978Y28571115D01*
X29043273Y28593087D01*
X29061644Y28613356D01*
X29081913Y28631727D01*
X29103885Y28648022D01*
X29127348Y28662086D01*
X29152077Y28673781D01*
X29177833Y28682997D01*
X29204369Y28689644D01*
X29231428Y28693658D01*
X29258750Y28695000D01*
X30241250Y28695000D01*
X30268572Y28693658D01*
X30268572Y28693658D01*
G37*
D19*
X29750000Y28137500D03*
D20*
X31650000Y37450000D03*
X31650000Y35550000D03*
X33850000Y35550000D03*
X33850000Y36500000D03*
X33850000Y37450000D03*
D12*
G36*
X24416122Y15768778D02*
G01*
X24440754Y15765124D01*
X24464910Y15759074D01*
X24488356Y15750684D01*
X24510867Y15740038D01*
X24532226Y15727235D01*
X24552227Y15712401D01*
X24570678Y15695678D01*
X24587401Y15677227D01*
X24602235Y15657226D01*
X24615038Y15635867D01*
X24625684Y15613356D01*
X24634074Y15589910D01*
X24640124Y15565754D01*
X24643778Y15541122D01*
X24645000Y15516250D01*
X24645000Y15008750D01*
X24643778Y14983878D01*
X24640124Y14959246D01*
X24634074Y14935090D01*
X24625684Y14911644D01*
X24615038Y14889133D01*
X24602235Y14867774D01*
X24587401Y14847773D01*
X24570678Y14829322D01*
X24552227Y14812599D01*
X24532226Y14797765D01*
X24510867Y14784962D01*
X24488356Y14774316D01*
X24464910Y14765926D01*
X24440754Y14759876D01*
X24416122Y14756222D01*
X24391250Y14755000D01*
X23808750Y14755000D01*
X23783878Y14756222D01*
X23759246Y14759876D01*
X23735090Y14765926D01*
X23711644Y14774316D01*
X23689133Y14784962D01*
X23667774Y14797765D01*
X23647773Y14812599D01*
X23629322Y14829322D01*
X23612599Y14847773D01*
X23597765Y14867774D01*
X23584962Y14889133D01*
X23574316Y14911644D01*
X23565926Y14935090D01*
X23559876Y14959246D01*
X23556222Y14983878D01*
X23555000Y15008750D01*
X23555000Y15516250D01*
X23556222Y15541122D01*
X23559876Y15565754D01*
X23565926Y15589910D01*
X23574316Y15613356D01*
X23584962Y15635867D01*
X23597765Y15657226D01*
X23612599Y15677227D01*
X23629322Y15695678D01*
X23647773Y15712401D01*
X23667774Y15727235D01*
X23689133Y15740038D01*
X23711644Y15750684D01*
X23735090Y15759074D01*
X23759246Y15765124D01*
X23783878Y15768778D01*
X23808750Y15770000D01*
X24391250Y15770000D01*
X24416122Y15768778D01*
X24416122Y15768778D01*
G37*
D14*
X24100000Y15262500D03*
D12*
G36*
X24416122Y17343778D02*
G01*
X24440754Y17340124D01*
X24464910Y17334074D01*
X24488356Y17325684D01*
X24510867Y17315038D01*
X24532226Y17302235D01*
X24552227Y17287401D01*
X24570678Y17270678D01*
X24587401Y17252227D01*
X24602235Y17232226D01*
X24615038Y17210867D01*
X24625684Y17188356D01*
X24634074Y17164910D01*
X24640124Y17140754D01*
X24643778Y17116122D01*
X24645000Y17091250D01*
X24645000Y16583750D01*
X24643778Y16558878D01*
X24640124Y16534246D01*
X24634074Y16510090D01*
X24625684Y16486644D01*
X24615038Y16464133D01*
X24602235Y16442774D01*
X24587401Y16422773D01*
X24570678Y16404322D01*
X24552227Y16387599D01*
X24532226Y16372765D01*
X24510867Y16359962D01*
X24488356Y16349316D01*
X24464910Y16340926D01*
X24440754Y16334876D01*
X24416122Y16331222D01*
X24391250Y16330000D01*
X23808750Y16330000D01*
X23783878Y16331222D01*
X23759246Y16334876D01*
X23735090Y16340926D01*
X23711644Y16349316D01*
X23689133Y16359962D01*
X23667774Y16372765D01*
X23647773Y16387599D01*
X23629322Y16404322D01*
X23612599Y16422773D01*
X23597765Y16442774D01*
X23584962Y16464133D01*
X23574316Y16486644D01*
X23565926Y16510090D01*
X23559876Y16534246D01*
X23556222Y16558878D01*
X23555000Y16583750D01*
X23555000Y17091250D01*
X23556222Y17116122D01*
X23559876Y17140754D01*
X23565926Y17164910D01*
X23574316Y17188356D01*
X23584962Y17210867D01*
X23597765Y17232226D01*
X23612599Y17252227D01*
X23629322Y17270678D01*
X23647773Y17287401D01*
X23667774Y17302235D01*
X23689133Y17315038D01*
X23711644Y17325684D01*
X23735090Y17334074D01*
X23759246Y17340124D01*
X23783878Y17343778D01*
X23808750Y17345000D01*
X24391250Y17345000D01*
X24416122Y17343778D01*
X24416122Y17343778D01*
G37*
D14*
X24100000Y16837500D03*
D21*
X20500000Y42000000D03*
X20500000Y36000000D03*
D22*
X23650000Y36000000D03*
X17350000Y36000000D03*
X17350000Y39500000D03*
X23650000Y42700000D03*
X17350000Y42700000D03*
D23*
X37775000Y24680000D03*
X32725000Y24680000D03*
X37775000Y22140000D03*
X32725000Y22140000D03*
X37775000Y19600000D03*
X32725000Y19600000D03*
X37775000Y17060000D03*
X32725000Y17060000D03*
X37775000Y14520000D03*
X32725000Y14520000D03*
X37775000Y11980000D03*
X32725000Y11980000D03*
X37775000Y9440000D03*
X32725000Y9440000D03*
X37775000Y6900000D03*
X32725000Y6900000D03*
X37775000Y4360000D03*
X32725000Y4360000D03*
X37775000Y1820000D03*
X32725000Y1820000D03*
D12*
G36*
X23966122Y31963778D02*
G01*
X23990754Y31960124D01*
X24014910Y31954074D01*
X24038356Y31945684D01*
X24060867Y31935038D01*
X24082226Y31922235D01*
X24102227Y31907401D01*
X24120678Y31890678D01*
X24137401Y31872227D01*
X24152235Y31852226D01*
X24165038Y31830867D01*
X24175684Y31808356D01*
X24184074Y31784910D01*
X24190124Y31760754D01*
X24193778Y31736122D01*
X24195000Y31711250D01*
X24195000Y31128750D01*
X24193778Y31103878D01*
X24190124Y31079246D01*
X24184074Y31055090D01*
X24175684Y31031644D01*
X24165038Y31009133D01*
X24152235Y30987774D01*
X24137401Y30967773D01*
X24120678Y30949322D01*
X24102227Y30932599D01*
X24082226Y30917765D01*
X24060867Y30904962D01*
X24038356Y30894316D01*
X24014910Y30885926D01*
X23990754Y30879876D01*
X23966122Y30876222D01*
X23941250Y30875000D01*
X23433750Y30875000D01*
X23408878Y30876222D01*
X23384246Y30879876D01*
X23360090Y30885926D01*
X23336644Y30894316D01*
X23314133Y30904962D01*
X23292774Y30917765D01*
X23272773Y30932599D01*
X23254322Y30949322D01*
X23237599Y30967773D01*
X23222765Y30987774D01*
X23209962Y31009133D01*
X23199316Y31031644D01*
X23190926Y31055090D01*
X23184876Y31079246D01*
X23181222Y31103878D01*
X23180000Y31128750D01*
X23180000Y31711250D01*
X23181222Y31736122D01*
X23184876Y31760754D01*
X23190926Y31784910D01*
X23199316Y31808356D01*
X23209962Y31830867D01*
X23222765Y31852226D01*
X23237599Y31872227D01*
X23254322Y31890678D01*
X23272773Y31907401D01*
X23292774Y31922235D01*
X23314133Y31935038D01*
X23336644Y31945684D01*
X23360090Y31954074D01*
X23384246Y31960124D01*
X23408878Y31963778D01*
X23433750Y31965000D01*
X23941250Y31965000D01*
X23966122Y31963778D01*
X23966122Y31963778D01*
G37*
D14*
X23687500Y31420000D03*
D12*
G36*
X22391122Y31963778D02*
G01*
X22415754Y31960124D01*
X22439910Y31954074D01*
X22463356Y31945684D01*
X22485867Y31935038D01*
X22507226Y31922235D01*
X22527227Y31907401D01*
X22545678Y31890678D01*
X22562401Y31872227D01*
X22577235Y31852226D01*
X22590038Y31830867D01*
X22600684Y31808356D01*
X22609074Y31784910D01*
X22615124Y31760754D01*
X22618778Y31736122D01*
X22620000Y31711250D01*
X22620000Y31128750D01*
X22618778Y31103878D01*
X22615124Y31079246D01*
X22609074Y31055090D01*
X22600684Y31031644D01*
X22590038Y31009133D01*
X22577235Y30987774D01*
X22562401Y30967773D01*
X22545678Y30949322D01*
X22527227Y30932599D01*
X22507226Y30917765D01*
X22485867Y30904962D01*
X22463356Y30894316D01*
X22439910Y30885926D01*
X22415754Y30879876D01*
X22391122Y30876222D01*
X22366250Y30875000D01*
X21858750Y30875000D01*
X21833878Y30876222D01*
X21809246Y30879876D01*
X21785090Y30885926D01*
X21761644Y30894316D01*
X21739133Y30904962D01*
X21717774Y30917765D01*
X21697773Y30932599D01*
X21679322Y30949322D01*
X21662599Y30967773D01*
X21647765Y30987774D01*
X21634962Y31009133D01*
X21624316Y31031644D01*
X21615926Y31055090D01*
X21609876Y31079246D01*
X21606222Y31103878D01*
X21605000Y31128750D01*
X21605000Y31711250D01*
X21606222Y31736122D01*
X21609876Y31760754D01*
X21615926Y31784910D01*
X21624316Y31808356D01*
X21634962Y31830867D01*
X21647765Y31852226D01*
X21662599Y31872227D01*
X21679322Y31890678D01*
X21697773Y31907401D01*
X21717774Y31922235D01*
X21739133Y31935038D01*
X21761644Y31945684D01*
X21785090Y31954074D01*
X21809246Y31960124D01*
X21833878Y31963778D01*
X21858750Y31965000D01*
X22366250Y31965000D01*
X22391122Y31963778D01*
X22391122Y31963778D01*
G37*
D14*
X22112500Y31420000D03*
D12*
G36*
X20716122Y15768778D02*
G01*
X20740754Y15765124D01*
X20764910Y15759074D01*
X20788356Y15750684D01*
X20810867Y15740038D01*
X20832226Y15727235D01*
X20852227Y15712401D01*
X20870678Y15695678D01*
X20887401Y15677227D01*
X20902235Y15657226D01*
X20915038Y15635867D01*
X20925684Y15613356D01*
X20934074Y15589910D01*
X20940124Y15565754D01*
X20943778Y15541122D01*
X20945000Y15516250D01*
X20945000Y15008750D01*
X20943778Y14983878D01*
X20940124Y14959246D01*
X20934074Y14935090D01*
X20925684Y14911644D01*
X20915038Y14889133D01*
X20902235Y14867774D01*
X20887401Y14847773D01*
X20870678Y14829322D01*
X20852227Y14812599D01*
X20832226Y14797765D01*
X20810867Y14784962D01*
X20788356Y14774316D01*
X20764910Y14765926D01*
X20740754Y14759876D01*
X20716122Y14756222D01*
X20691250Y14755000D01*
X20108750Y14755000D01*
X20083878Y14756222D01*
X20059246Y14759876D01*
X20035090Y14765926D01*
X20011644Y14774316D01*
X19989133Y14784962D01*
X19967774Y14797765D01*
X19947773Y14812599D01*
X19929322Y14829322D01*
X19912599Y14847773D01*
X19897765Y14867774D01*
X19884962Y14889133D01*
X19874316Y14911644D01*
X19865926Y14935090D01*
X19859876Y14959246D01*
X19856222Y14983878D01*
X19855000Y15008750D01*
X19855000Y15516250D01*
X19856222Y15541122D01*
X19859876Y15565754D01*
X19865926Y15589910D01*
X19874316Y15613356D01*
X19884962Y15635867D01*
X19897765Y15657226D01*
X19912599Y15677227D01*
X19929322Y15695678D01*
X19947773Y15712401D01*
X19967774Y15727235D01*
X19989133Y15740038D01*
X20011644Y15750684D01*
X20035090Y15759074D01*
X20059246Y15765124D01*
X20083878Y15768778D01*
X20108750Y15770000D01*
X20691250Y15770000D01*
X20716122Y15768778D01*
X20716122Y15768778D01*
G37*
D14*
X20400000Y15262500D03*
D12*
G36*
X20716122Y17343778D02*
G01*
X20740754Y17340124D01*
X20764910Y17334074D01*
X20788356Y17325684D01*
X20810867Y17315038D01*
X20832226Y17302235D01*
X20852227Y17287401D01*
X20870678Y17270678D01*
X20887401Y17252227D01*
X20902235Y17232226D01*
X20915038Y17210867D01*
X20925684Y17188356D01*
X20934074Y17164910D01*
X20940124Y17140754D01*
X20943778Y17116122D01*
X20945000Y17091250D01*
X20945000Y16583750D01*
X20943778Y16558878D01*
X20940124Y16534246D01*
X20934074Y16510090D01*
X20925684Y16486644D01*
X20915038Y16464133D01*
X20902235Y16442774D01*
X20887401Y16422773D01*
X20870678Y16404322D01*
X20852227Y16387599D01*
X20832226Y16372765D01*
X20810867Y16359962D01*
X20788356Y16349316D01*
X20764910Y16340926D01*
X20740754Y16334876D01*
X20716122Y16331222D01*
X20691250Y16330000D01*
X20108750Y16330000D01*
X20083878Y16331222D01*
X20059246Y16334876D01*
X20035090Y16340926D01*
X20011644Y16349316D01*
X19989133Y16359962D01*
X19967774Y16372765D01*
X19947773Y16387599D01*
X19929322Y16404322D01*
X19912599Y16422773D01*
X19897765Y16442774D01*
X19884962Y16464133D01*
X19874316Y16486644D01*
X19865926Y16510090D01*
X19859876Y16534246D01*
X19856222Y16558878D01*
X19855000Y16583750D01*
X19855000Y17091250D01*
X19856222Y17116122D01*
X19859876Y17140754D01*
X19865926Y17164910D01*
X19874316Y17188356D01*
X19884962Y17210867D01*
X19897765Y17232226D01*
X19912599Y17252227D01*
X19929322Y17270678D01*
X19947773Y17287401D01*
X19967774Y17302235D01*
X19989133Y17315038D01*
X20011644Y17325684D01*
X20035090Y17334074D01*
X20059246Y17340124D01*
X20083878Y17343778D01*
X20108750Y17345000D01*
X20691250Y17345000D01*
X20716122Y17343778D01*
X20716122Y17343778D01*
G37*
D14*
X20400000Y16837500D03*
D12*
G36*
X22493572Y14268658D02*
G01*
X22520631Y14264644D01*
X22547167Y14257997D01*
X22572923Y14248781D01*
X22597652Y14237086D01*
X22621115Y14223022D01*
X22643087Y14206727D01*
X22663356Y14188356D01*
X22681727Y14168087D01*
X22698022Y14146115D01*
X22712086Y14122652D01*
X22723781Y14097923D01*
X22732997Y14072167D01*
X22739644Y14045631D01*
X22743658Y14018572D01*
X22745000Y13991250D01*
X22745000Y13008750D01*
X22743658Y12981428D01*
X22739644Y12954369D01*
X22732997Y12927833D01*
X22723781Y12902077D01*
X22712086Y12877348D01*
X22698022Y12853885D01*
X22681727Y12831913D01*
X22663356Y12811644D01*
X22643087Y12793273D01*
X22621115Y12776978D01*
X22597652Y12762914D01*
X22572923Y12751219D01*
X22547167Y12742003D01*
X22520631Y12735356D01*
X22493572Y12731342D01*
X22466250Y12730000D01*
X21908750Y12730000D01*
X21881428Y12731342D01*
X21854369Y12735356D01*
X21827833Y12742003D01*
X21802077Y12751219D01*
X21777348Y12762914D01*
X21753885Y12776978D01*
X21731913Y12793273D01*
X21711644Y12811644D01*
X21693273Y12831913D01*
X21676978Y12853885D01*
X21662914Y12877348D01*
X21651219Y12902077D01*
X21642003Y12927833D01*
X21635356Y12954369D01*
X21631342Y12981428D01*
X21630000Y13008750D01*
X21630000Y13991250D01*
X21631342Y14018572D01*
X21635356Y14045631D01*
X21642003Y14072167D01*
X21651219Y14097923D01*
X21662914Y14122652D01*
X21676978Y14146115D01*
X21693273Y14168087D01*
X21711644Y14188356D01*
X21731913Y14206727D01*
X21753885Y14223022D01*
X21777348Y14237086D01*
X21802077Y14248781D01*
X21827833Y14257997D01*
X21854369Y14264644D01*
X21881428Y14268658D01*
X21908750Y14270000D01*
X22466250Y14270000D01*
X22493572Y14268658D01*
X22493572Y14268658D01*
G37*
D19*
X22187500Y13500000D03*
D12*
G36*
X20618572Y14268658D02*
G01*
X20645631Y14264644D01*
X20672167Y14257997D01*
X20697923Y14248781D01*
X20722652Y14237086D01*
X20746115Y14223022D01*
X20768087Y14206727D01*
X20788356Y14188356D01*
X20806727Y14168087D01*
X20823022Y14146115D01*
X20837086Y14122652D01*
X20848781Y14097923D01*
X20857997Y14072167D01*
X20864644Y14045631D01*
X20868658Y14018572D01*
X20870000Y13991250D01*
X20870000Y13008750D01*
X20868658Y12981428D01*
X20864644Y12954369D01*
X20857997Y12927833D01*
X20848781Y12902077D01*
X20837086Y12877348D01*
X20823022Y12853885D01*
X20806727Y12831913D01*
X20788356Y12811644D01*
X20768087Y12793273D01*
X20746115Y12776978D01*
X20722652Y12762914D01*
X20697923Y12751219D01*
X20672167Y12742003D01*
X20645631Y12735356D01*
X20618572Y12731342D01*
X20591250Y12730000D01*
X20033750Y12730000D01*
X20006428Y12731342D01*
X19979369Y12735356D01*
X19952833Y12742003D01*
X19927077Y12751219D01*
X19902348Y12762914D01*
X19878885Y12776978D01*
X19856913Y12793273D01*
X19836644Y12811644D01*
X19818273Y12831913D01*
X19801978Y12853885D01*
X19787914Y12877348D01*
X19776219Y12902077D01*
X19767003Y12927833D01*
X19760356Y12954369D01*
X19756342Y12981428D01*
X19755000Y13008750D01*
X19755000Y13991250D01*
X19756342Y14018572D01*
X19760356Y14045631D01*
X19767003Y14072167D01*
X19776219Y14097923D01*
X19787914Y14122652D01*
X19801978Y14146115D01*
X19818273Y14168087D01*
X19836644Y14188356D01*
X19856913Y14206727D01*
X19878885Y14223022D01*
X19902348Y14237086D01*
X19927077Y14248781D01*
X19952833Y14257997D01*
X19979369Y14264644D01*
X20006428Y14268658D01*
X20033750Y14270000D01*
X20591250Y14270000D01*
X20618572Y14268658D01*
X20618572Y14268658D01*
G37*
D19*
X20312500Y13500000D03*
D12*
G36*
X10444249Y23593661D02*
G01*
X10471235Y23589658D01*
X10497699Y23583029D01*
X10523386Y23573839D01*
X10548048Y23562174D01*
X10571449Y23548149D01*
X10593361Y23531897D01*
X10613576Y23513576D01*
X10631897Y23493361D01*
X10648149Y23471449D01*
X10662174Y23448048D01*
X10673839Y23423386D01*
X10683029Y23397699D01*
X10689658Y23371235D01*
X10693661Y23344249D01*
X10695000Y23317000D01*
X10695000Y22483000D01*
X10693661Y22455751D01*
X10689658Y22428765D01*
X10683029Y22402301D01*
X10673839Y22376614D01*
X10662174Y22351952D01*
X10648149Y22328551D01*
X10631897Y22306639D01*
X10613576Y22286424D01*
X10593361Y22268103D01*
X10571449Y22251851D01*
X10548048Y22237826D01*
X10523386Y22226161D01*
X10497699Y22216971D01*
X10471235Y22210342D01*
X10444249Y22206339D01*
X10417000Y22205000D01*
X9083000Y22205000D01*
X9055751Y22206339D01*
X9028765Y22210342D01*
X9002301Y22216971D01*
X8976614Y22226161D01*
X8951952Y22237826D01*
X8928551Y22251851D01*
X8906639Y22268103D01*
X8886424Y22286424D01*
X8868103Y22306639D01*
X8851851Y22328551D01*
X8837826Y22351952D01*
X8826161Y22376614D01*
X8816971Y22402301D01*
X8810342Y22428765D01*
X8806339Y22455751D01*
X8805000Y22483000D01*
X8805000Y23317000D01*
X8806339Y23344249D01*
X8810342Y23371235D01*
X8816971Y23397699D01*
X8826161Y23423386D01*
X8837826Y23448048D01*
X8851851Y23471449D01*
X8868103Y23493361D01*
X8886424Y23513576D01*
X8906639Y23531897D01*
X8928551Y23548149D01*
X8951952Y23562174D01*
X8976614Y23573839D01*
X9002301Y23583029D01*
X9028765Y23589658D01*
X9055751Y23593661D01*
X9083000Y23595000D01*
X10417000Y23595000D01*
X10444249Y23593661D01*
X10444249Y23593661D01*
G37*
D24*
X9750000Y22900000D03*
D12*
G36*
X10444249Y20793661D02*
G01*
X10471235Y20789658D01*
X10497699Y20783029D01*
X10523386Y20773839D01*
X10548048Y20762174D01*
X10571449Y20748149D01*
X10593361Y20731897D01*
X10613576Y20713576D01*
X10631897Y20693361D01*
X10648149Y20671449D01*
X10662174Y20648048D01*
X10673839Y20623386D01*
X10683029Y20597699D01*
X10689658Y20571235D01*
X10693661Y20544249D01*
X10695000Y20517000D01*
X10695000Y19683000D01*
X10693661Y19655751D01*
X10689658Y19628765D01*
X10683029Y19602301D01*
X10673839Y19576614D01*
X10662174Y19551952D01*
X10648149Y19528551D01*
X10631897Y19506639D01*
X10613576Y19486424D01*
X10593361Y19468103D01*
X10571449Y19451851D01*
X10548048Y19437826D01*
X10523386Y19426161D01*
X10497699Y19416971D01*
X10471235Y19410342D01*
X10444249Y19406339D01*
X10417000Y19405000D01*
X9083000Y19405000D01*
X9055751Y19406339D01*
X9028765Y19410342D01*
X9002301Y19416971D01*
X8976614Y19426161D01*
X8951952Y19437826D01*
X8928551Y19451851D01*
X8906639Y19468103D01*
X8886424Y19486424D01*
X8868103Y19506639D01*
X8851851Y19528551D01*
X8837826Y19551952D01*
X8826161Y19576614D01*
X8816971Y19602301D01*
X8810342Y19628765D01*
X8806339Y19655751D01*
X8805000Y19683000D01*
X8805000Y20517000D01*
X8806339Y20544249D01*
X8810342Y20571235D01*
X8816971Y20597699D01*
X8826161Y20623386D01*
X8837826Y20648048D01*
X8851851Y20671449D01*
X8868103Y20693361D01*
X8886424Y20713576D01*
X8906639Y20731897D01*
X8928551Y20748149D01*
X8951952Y20762174D01*
X8976614Y20773839D01*
X9002301Y20783029D01*
X9028765Y20789658D01*
X9055751Y20793661D01*
X9083000Y20795000D01*
X10417000Y20795000D01*
X10444249Y20793661D01*
X10444249Y20793661D01*
G37*
D24*
X9750000Y20100000D03*
D12*
G36*
X29341122Y15968778D02*
G01*
X29365754Y15965124D01*
X29389910Y15959074D01*
X29413356Y15950684D01*
X29435867Y15940038D01*
X29457226Y15927235D01*
X29477227Y15912401D01*
X29495678Y15895678D01*
X29512401Y15877227D01*
X29527235Y15857226D01*
X29540038Y15835867D01*
X29550684Y15813356D01*
X29559074Y15789910D01*
X29565124Y15765754D01*
X29568778Y15741122D01*
X29570000Y15716250D01*
X29570000Y15208750D01*
X29568778Y15183878D01*
X29565124Y15159246D01*
X29559074Y15135090D01*
X29550684Y15111644D01*
X29540038Y15089133D01*
X29527235Y15067774D01*
X29512401Y15047773D01*
X29495678Y15029322D01*
X29477227Y15012599D01*
X29457226Y14997765D01*
X29435867Y14984962D01*
X29413356Y14974316D01*
X29389910Y14965926D01*
X29365754Y14959876D01*
X29341122Y14956222D01*
X29316250Y14955000D01*
X28733750Y14955000D01*
X28708878Y14956222D01*
X28684246Y14959876D01*
X28660090Y14965926D01*
X28636644Y14974316D01*
X28614133Y14984962D01*
X28592774Y14997765D01*
X28572773Y15012599D01*
X28554322Y15029322D01*
X28537599Y15047773D01*
X28522765Y15067774D01*
X28509962Y15089133D01*
X28499316Y15111644D01*
X28490926Y15135090D01*
X28484876Y15159246D01*
X28481222Y15183878D01*
X28480000Y15208750D01*
X28480000Y15716250D01*
X28481222Y15741122D01*
X28484876Y15765754D01*
X28490926Y15789910D01*
X28499316Y15813356D01*
X28509962Y15835867D01*
X28522765Y15857226D01*
X28537599Y15877227D01*
X28554322Y15895678D01*
X28572773Y15912401D01*
X28592774Y15927235D01*
X28614133Y15940038D01*
X28636644Y15950684D01*
X28660090Y15959074D01*
X28684246Y15965124D01*
X28708878Y15968778D01*
X28733750Y15970000D01*
X29316250Y15970000D01*
X29341122Y15968778D01*
X29341122Y15968778D01*
G37*
D14*
X29025000Y15462500D03*
D12*
G36*
X29341122Y17543778D02*
G01*
X29365754Y17540124D01*
X29389910Y17534074D01*
X29413356Y17525684D01*
X29435867Y17515038D01*
X29457226Y17502235D01*
X29477227Y17487401D01*
X29495678Y17470678D01*
X29512401Y17452227D01*
X29527235Y17432226D01*
X29540038Y17410867D01*
X29550684Y17388356D01*
X29559074Y17364910D01*
X29565124Y17340754D01*
X29568778Y17316122D01*
X29570000Y17291250D01*
X29570000Y16783750D01*
X29568778Y16758878D01*
X29565124Y16734246D01*
X29559074Y16710090D01*
X29550684Y16686644D01*
X29540038Y16664133D01*
X29527235Y16642774D01*
X29512401Y16622773D01*
X29495678Y16604322D01*
X29477227Y16587599D01*
X29457226Y16572765D01*
X29435867Y16559962D01*
X29413356Y16549316D01*
X29389910Y16540926D01*
X29365754Y16534876D01*
X29341122Y16531222D01*
X29316250Y16530000D01*
X28733750Y16530000D01*
X28708878Y16531222D01*
X28684246Y16534876D01*
X28660090Y16540926D01*
X28636644Y16549316D01*
X28614133Y16559962D01*
X28592774Y16572765D01*
X28572773Y16587599D01*
X28554322Y16604322D01*
X28537599Y16622773D01*
X28522765Y16642774D01*
X28509962Y16664133D01*
X28499316Y16686644D01*
X28490926Y16710090D01*
X28484876Y16734246D01*
X28481222Y16758878D01*
X28480000Y16783750D01*
X28480000Y17291250D01*
X28481222Y17316122D01*
X28484876Y17340754D01*
X28490926Y17364910D01*
X28499316Y17388356D01*
X28509962Y17410867D01*
X28522765Y17432226D01*
X28537599Y17452227D01*
X28554322Y17470678D01*
X28572773Y17487401D01*
X28592774Y17502235D01*
X28614133Y17515038D01*
X28636644Y17525684D01*
X28660090Y17534074D01*
X28684246Y17540124D01*
X28708878Y17543778D01*
X28733750Y17545000D01*
X29316250Y17545000D01*
X29341122Y17543778D01*
X29341122Y17543778D01*
G37*
D14*
X29025000Y17037500D03*
D25*
X20775000Y18650000D03*
X21425000Y18650000D03*
X22075000Y18650000D03*
X22725000Y18650000D03*
X23375000Y18650000D03*
X24025000Y18650000D03*
X24675000Y18650000D03*
X25325000Y18650000D03*
X25975000Y18650000D03*
X26625000Y18650000D03*
X27275000Y18650000D03*
X27925000Y18650000D03*
X28575000Y18650000D03*
X29225000Y18650000D03*
X29225000Y24350000D03*
X28575000Y24350000D03*
X27925000Y24350000D03*
X27275000Y24350000D03*
X26625000Y24350000D03*
X25975000Y24350000D03*
X25325000Y24350000D03*
X24675000Y24350000D03*
X24025000Y24350000D03*
X23375000Y24350000D03*
X22725000Y24350000D03*
X22075000Y24350000D03*
X21425000Y24350000D03*
X20775000Y24350000D03*
D12*
G36*
X27466122Y30463778D02*
G01*
X27490754Y30460124D01*
X27514910Y30454074D01*
X27538356Y30445684D01*
X27560867Y30435038D01*
X27582226Y30422235D01*
X27602227Y30407401D01*
X27620678Y30390678D01*
X27637401Y30372227D01*
X27652235Y30352226D01*
X27665038Y30330867D01*
X27675684Y30308356D01*
X27684074Y30284910D01*
X27690124Y30260754D01*
X27693778Y30236122D01*
X27695000Y30211250D01*
X27695000Y29628750D01*
X27693778Y29603878D01*
X27690124Y29579246D01*
X27684074Y29555090D01*
X27675684Y29531644D01*
X27665038Y29509133D01*
X27652235Y29487774D01*
X27637401Y29467773D01*
X27620678Y29449322D01*
X27602227Y29432599D01*
X27582226Y29417765D01*
X27560867Y29404962D01*
X27538356Y29394316D01*
X27514910Y29385926D01*
X27490754Y29379876D01*
X27466122Y29376222D01*
X27441250Y29375000D01*
X26933750Y29375000D01*
X26908878Y29376222D01*
X26884246Y29379876D01*
X26860090Y29385926D01*
X26836644Y29394316D01*
X26814133Y29404962D01*
X26792774Y29417765D01*
X26772773Y29432599D01*
X26754322Y29449322D01*
X26737599Y29467773D01*
X26722765Y29487774D01*
X26709962Y29509133D01*
X26699316Y29531644D01*
X26690926Y29555090D01*
X26684876Y29579246D01*
X26681222Y29603878D01*
X26680000Y29628750D01*
X26680000Y30211250D01*
X26681222Y30236122D01*
X26684876Y30260754D01*
X26690926Y30284910D01*
X26699316Y30308356D01*
X26709962Y30330867D01*
X26722765Y30352226D01*
X26737599Y30372227D01*
X26754322Y30390678D01*
X26772773Y30407401D01*
X26792774Y30422235D01*
X26814133Y30435038D01*
X26836644Y30445684D01*
X26860090Y30454074D01*
X26884246Y30460124D01*
X26908878Y30463778D01*
X26933750Y30465000D01*
X27441250Y30465000D01*
X27466122Y30463778D01*
X27466122Y30463778D01*
G37*
D14*
X27187500Y29920000D03*
D12*
G36*
X25891122Y30463778D02*
G01*
X25915754Y30460124D01*
X25939910Y30454074D01*
X25963356Y30445684D01*
X25985867Y30435038D01*
X26007226Y30422235D01*
X26027227Y30407401D01*
X26045678Y30390678D01*
X26062401Y30372227D01*
X26077235Y30352226D01*
X26090038Y30330867D01*
X26100684Y30308356D01*
X26109074Y30284910D01*
X26115124Y30260754D01*
X26118778Y30236122D01*
X26120000Y30211250D01*
X26120000Y29628750D01*
X26118778Y29603878D01*
X26115124Y29579246D01*
X26109074Y29555090D01*
X26100684Y29531644D01*
X26090038Y29509133D01*
X26077235Y29487774D01*
X26062401Y29467773D01*
X26045678Y29449322D01*
X26027227Y29432599D01*
X26007226Y29417765D01*
X25985867Y29404962D01*
X25963356Y29394316D01*
X25939910Y29385926D01*
X25915754Y29379876D01*
X25891122Y29376222D01*
X25866250Y29375000D01*
X25358750Y29375000D01*
X25333878Y29376222D01*
X25309246Y29379876D01*
X25285090Y29385926D01*
X25261644Y29394316D01*
X25239133Y29404962D01*
X25217774Y29417765D01*
X25197773Y29432599D01*
X25179322Y29449322D01*
X25162599Y29467773D01*
X25147765Y29487774D01*
X25134962Y29509133D01*
X25124316Y29531644D01*
X25115926Y29555090D01*
X25109876Y29579246D01*
X25106222Y29603878D01*
X25105000Y29628750D01*
X25105000Y30211250D01*
X25106222Y30236122D01*
X25109876Y30260754D01*
X25115926Y30284910D01*
X25124316Y30308356D01*
X25134962Y30330867D01*
X25147765Y30352226D01*
X25162599Y30372227D01*
X25179322Y30390678D01*
X25197773Y30407401D01*
X25217774Y30422235D01*
X25239133Y30435038D01*
X25261644Y30445684D01*
X25285090Y30454074D01*
X25309246Y30460124D01*
X25333878Y30463778D01*
X25358750Y30465000D01*
X25866250Y30465000D01*
X25891122Y30463778D01*
X25891122Y30463778D01*
G37*
D14*
X25612500Y29920000D03*
D12*
G36*
X23966122Y30463778D02*
G01*
X23990754Y30460124D01*
X24014910Y30454074D01*
X24038356Y30445684D01*
X24060867Y30435038D01*
X24082226Y30422235D01*
X24102227Y30407401D01*
X24120678Y30390678D01*
X24137401Y30372227D01*
X24152235Y30352226D01*
X24165038Y30330867D01*
X24175684Y30308356D01*
X24184074Y30284910D01*
X24190124Y30260754D01*
X24193778Y30236122D01*
X24195000Y30211250D01*
X24195000Y29628750D01*
X24193778Y29603878D01*
X24190124Y29579246D01*
X24184074Y29555090D01*
X24175684Y29531644D01*
X24165038Y29509133D01*
X24152235Y29487774D01*
X24137401Y29467773D01*
X24120678Y29449322D01*
X24102227Y29432599D01*
X24082226Y29417765D01*
X24060867Y29404962D01*
X24038356Y29394316D01*
X24014910Y29385926D01*
X23990754Y29379876D01*
X23966122Y29376222D01*
X23941250Y29375000D01*
X23433750Y29375000D01*
X23408878Y29376222D01*
X23384246Y29379876D01*
X23360090Y29385926D01*
X23336644Y29394316D01*
X23314133Y29404962D01*
X23292774Y29417765D01*
X23272773Y29432599D01*
X23254322Y29449322D01*
X23237599Y29467773D01*
X23222765Y29487774D01*
X23209962Y29509133D01*
X23199316Y29531644D01*
X23190926Y29555090D01*
X23184876Y29579246D01*
X23181222Y29603878D01*
X23180000Y29628750D01*
X23180000Y30211250D01*
X23181222Y30236122D01*
X23184876Y30260754D01*
X23190926Y30284910D01*
X23199316Y30308356D01*
X23209962Y30330867D01*
X23222765Y30352226D01*
X23237599Y30372227D01*
X23254322Y30390678D01*
X23272773Y30407401D01*
X23292774Y30422235D01*
X23314133Y30435038D01*
X23336644Y30445684D01*
X23360090Y30454074D01*
X23384246Y30460124D01*
X23408878Y30463778D01*
X23433750Y30465000D01*
X23941250Y30465000D01*
X23966122Y30463778D01*
X23966122Y30463778D01*
G37*
D14*
X23687500Y29920000D03*
D12*
G36*
X22391122Y30463778D02*
G01*
X22415754Y30460124D01*
X22439910Y30454074D01*
X22463356Y30445684D01*
X22485867Y30435038D01*
X22507226Y30422235D01*
X22527227Y30407401D01*
X22545678Y30390678D01*
X22562401Y30372227D01*
X22577235Y30352226D01*
X22590038Y30330867D01*
X22600684Y30308356D01*
X22609074Y30284910D01*
X22615124Y30260754D01*
X22618778Y30236122D01*
X22620000Y30211250D01*
X22620000Y29628750D01*
X22618778Y29603878D01*
X22615124Y29579246D01*
X22609074Y29555090D01*
X22600684Y29531644D01*
X22590038Y29509133D01*
X22577235Y29487774D01*
X22562401Y29467773D01*
X22545678Y29449322D01*
X22527227Y29432599D01*
X22507226Y29417765D01*
X22485867Y29404962D01*
X22463356Y29394316D01*
X22439910Y29385926D01*
X22415754Y29379876D01*
X22391122Y29376222D01*
X22366250Y29375000D01*
X21858750Y29375000D01*
X21833878Y29376222D01*
X21809246Y29379876D01*
X21785090Y29385926D01*
X21761644Y29394316D01*
X21739133Y29404962D01*
X21717774Y29417765D01*
X21697773Y29432599D01*
X21679322Y29449322D01*
X21662599Y29467773D01*
X21647765Y29487774D01*
X21634962Y29509133D01*
X21624316Y29531644D01*
X21615926Y29555090D01*
X21609876Y29579246D01*
X21606222Y29603878D01*
X21605000Y29628750D01*
X21605000Y30211250D01*
X21606222Y30236122D01*
X21609876Y30260754D01*
X21615926Y30284910D01*
X21624316Y30308356D01*
X21634962Y30330867D01*
X21647765Y30352226D01*
X21662599Y30372227D01*
X21679322Y30390678D01*
X21697773Y30407401D01*
X21717774Y30422235D01*
X21739133Y30435038D01*
X21761644Y30445684D01*
X21785090Y30454074D01*
X21809246Y30460124D01*
X21833878Y30463778D01*
X21858750Y30465000D01*
X22366250Y30465000D01*
X22391122Y30463778D01*
X22391122Y30463778D01*
G37*
D14*
X22112500Y29920000D03*
D12*
G36*
X25891122Y31963778D02*
G01*
X25915754Y31960124D01*
X25939910Y31954074D01*
X25963356Y31945684D01*
X25985867Y31935038D01*
X26007226Y31922235D01*
X26027227Y31907401D01*
X26045678Y31890678D01*
X26062401Y31872227D01*
X26077235Y31852226D01*
X26090038Y31830867D01*
X26100684Y31808356D01*
X26109074Y31784910D01*
X26115124Y31760754D01*
X26118778Y31736122D01*
X26120000Y31711250D01*
X26120000Y31128750D01*
X26118778Y31103878D01*
X26115124Y31079246D01*
X26109074Y31055090D01*
X26100684Y31031644D01*
X26090038Y31009133D01*
X26077235Y30987774D01*
X26062401Y30967773D01*
X26045678Y30949322D01*
X26027227Y30932599D01*
X26007226Y30917765D01*
X25985867Y30904962D01*
X25963356Y30894316D01*
X25939910Y30885926D01*
X25915754Y30879876D01*
X25891122Y30876222D01*
X25866250Y30875000D01*
X25358750Y30875000D01*
X25333878Y30876222D01*
X25309246Y30879876D01*
X25285090Y30885926D01*
X25261644Y30894316D01*
X25239133Y30904962D01*
X25217774Y30917765D01*
X25197773Y30932599D01*
X25179322Y30949322D01*
X25162599Y30967773D01*
X25147765Y30987774D01*
X25134962Y31009133D01*
X25124316Y31031644D01*
X25115926Y31055090D01*
X25109876Y31079246D01*
X25106222Y31103878D01*
X25105000Y31128750D01*
X25105000Y31711250D01*
X25106222Y31736122D01*
X25109876Y31760754D01*
X25115926Y31784910D01*
X25124316Y31808356D01*
X25134962Y31830867D01*
X25147765Y31852226D01*
X25162599Y31872227D01*
X25179322Y31890678D01*
X25197773Y31907401D01*
X25217774Y31922235D01*
X25239133Y31935038D01*
X25261644Y31945684D01*
X25285090Y31954074D01*
X25309246Y31960124D01*
X25333878Y31963778D01*
X25358750Y31965000D01*
X25866250Y31965000D01*
X25891122Y31963778D01*
X25891122Y31963778D01*
G37*
D14*
X25612500Y31420000D03*
D12*
G36*
X27466122Y31963778D02*
G01*
X27490754Y31960124D01*
X27514910Y31954074D01*
X27538356Y31945684D01*
X27560867Y31935038D01*
X27582226Y31922235D01*
X27602227Y31907401D01*
X27620678Y31890678D01*
X27637401Y31872227D01*
X27652235Y31852226D01*
X27665038Y31830867D01*
X27675684Y31808356D01*
X27684074Y31784910D01*
X27690124Y31760754D01*
X27693778Y31736122D01*
X27695000Y31711250D01*
X27695000Y31128750D01*
X27693778Y31103878D01*
X27690124Y31079246D01*
X27684074Y31055090D01*
X27675684Y31031644D01*
X27665038Y31009133D01*
X27652235Y30987774D01*
X27637401Y30967773D01*
X27620678Y30949322D01*
X27602227Y30932599D01*
X27582226Y30917765D01*
X27560867Y30904962D01*
X27538356Y30894316D01*
X27514910Y30885926D01*
X27490754Y30879876D01*
X27466122Y30876222D01*
X27441250Y30875000D01*
X26933750Y30875000D01*
X26908878Y30876222D01*
X26884246Y30879876D01*
X26860090Y30885926D01*
X26836644Y30894316D01*
X26814133Y30904962D01*
X26792774Y30917765D01*
X26772773Y30932599D01*
X26754322Y30949322D01*
X26737599Y30967773D01*
X26722765Y30987774D01*
X26709962Y31009133D01*
X26699316Y31031644D01*
X26690926Y31055090D01*
X26684876Y31079246D01*
X26681222Y31103878D01*
X26680000Y31128750D01*
X26680000Y31711250D01*
X26681222Y31736122D01*
X26684876Y31760754D01*
X26690926Y31784910D01*
X26699316Y31808356D01*
X26709962Y31830867D01*
X26722765Y31852226D01*
X26737599Y31872227D01*
X26754322Y31890678D01*
X26772773Y31907401D01*
X26792774Y31922235D01*
X26814133Y31935038D01*
X26836644Y31945684D01*
X26860090Y31954074D01*
X26884246Y31960124D01*
X26908878Y31963778D01*
X26933750Y31965000D01*
X27441250Y31965000D01*
X27466122Y31963778D01*
X27466122Y31963778D01*
G37*
D14*
X27187500Y31420000D03*
D12*
G36*
X22816122Y17343778D02*
G01*
X22840754Y17340124D01*
X22864910Y17334074D01*
X22888356Y17325684D01*
X22910867Y17315038D01*
X22932226Y17302235D01*
X22952227Y17287401D01*
X22970678Y17270678D01*
X22987401Y17252227D01*
X23002235Y17232226D01*
X23015038Y17210867D01*
X23025684Y17188356D01*
X23034074Y17164910D01*
X23040124Y17140754D01*
X23043778Y17116122D01*
X23045000Y17091250D01*
X23045000Y16583750D01*
X23043778Y16558878D01*
X23040124Y16534246D01*
X23034074Y16510090D01*
X23025684Y16486644D01*
X23015038Y16464133D01*
X23002235Y16442774D01*
X22987401Y16422773D01*
X22970678Y16404322D01*
X22952227Y16387599D01*
X22932226Y16372765D01*
X22910867Y16359962D01*
X22888356Y16349316D01*
X22864910Y16340926D01*
X22840754Y16334876D01*
X22816122Y16331222D01*
X22791250Y16330000D01*
X22208750Y16330000D01*
X22183878Y16331222D01*
X22159246Y16334876D01*
X22135090Y16340926D01*
X22111644Y16349316D01*
X22089133Y16359962D01*
X22067774Y16372765D01*
X22047773Y16387599D01*
X22029322Y16404322D01*
X22012599Y16422773D01*
X21997765Y16442774D01*
X21984962Y16464133D01*
X21974316Y16486644D01*
X21965926Y16510090D01*
X21959876Y16534246D01*
X21956222Y16558878D01*
X21955000Y16583750D01*
X21955000Y17091250D01*
X21956222Y17116122D01*
X21959876Y17140754D01*
X21965926Y17164910D01*
X21974316Y17188356D01*
X21984962Y17210867D01*
X21997765Y17232226D01*
X22012599Y17252227D01*
X22029322Y17270678D01*
X22047773Y17287401D01*
X22067774Y17302235D01*
X22089133Y17315038D01*
X22111644Y17325684D01*
X22135090Y17334074D01*
X22159246Y17340124D01*
X22183878Y17343778D01*
X22208750Y17345000D01*
X22791250Y17345000D01*
X22816122Y17343778D01*
X22816122Y17343778D01*
G37*
D14*
X22500000Y16837500D03*
D12*
G36*
X22816122Y15768778D02*
G01*
X22840754Y15765124D01*
X22864910Y15759074D01*
X22888356Y15750684D01*
X22910867Y15740038D01*
X22932226Y15727235D01*
X22952227Y15712401D01*
X22970678Y15695678D01*
X22987401Y15677227D01*
X23002235Y15657226D01*
X23015038Y15635867D01*
X23025684Y15613356D01*
X23034074Y15589910D01*
X23040124Y15565754D01*
X23043778Y15541122D01*
X23045000Y15516250D01*
X23045000Y15008750D01*
X23043778Y14983878D01*
X23040124Y14959246D01*
X23034074Y14935090D01*
X23025684Y14911644D01*
X23015038Y14889133D01*
X23002235Y14867774D01*
X22987401Y14847773D01*
X22970678Y14829322D01*
X22952227Y14812599D01*
X22932226Y14797765D01*
X22910867Y14784962D01*
X22888356Y14774316D01*
X22864910Y14765926D01*
X22840754Y14759876D01*
X22816122Y14756222D01*
X22791250Y14755000D01*
X22208750Y14755000D01*
X22183878Y14756222D01*
X22159246Y14759876D01*
X22135090Y14765926D01*
X22111644Y14774316D01*
X22089133Y14784962D01*
X22067774Y14797765D01*
X22047773Y14812599D01*
X22029322Y14829322D01*
X22012599Y14847773D01*
X21997765Y14867774D01*
X21984962Y14889133D01*
X21974316Y14911644D01*
X21965926Y14935090D01*
X21959876Y14959246D01*
X21956222Y14983878D01*
X21955000Y15008750D01*
X21955000Y15516250D01*
X21956222Y15541122D01*
X21959876Y15565754D01*
X21965926Y15589910D01*
X21974316Y15613356D01*
X21984962Y15635867D01*
X21997765Y15657226D01*
X22012599Y15677227D01*
X22029322Y15695678D01*
X22047773Y15712401D01*
X22067774Y15727235D01*
X22089133Y15740038D01*
X22111644Y15750684D01*
X22135090Y15759074D01*
X22159246Y15765124D01*
X22183878Y15768778D01*
X22208750Y15770000D01*
X22791250Y15770000D01*
X22816122Y15768778D01*
X22816122Y15768778D01*
G37*
D14*
X22500000Y15262500D03*
D12*
G36*
X23816122Y28193778D02*
G01*
X23840754Y28190124D01*
X23864910Y28184074D01*
X23888356Y28175684D01*
X23910867Y28165038D01*
X23932226Y28152235D01*
X23952227Y28137401D01*
X23970678Y28120678D01*
X23987401Y28102227D01*
X24002235Y28082226D01*
X24015038Y28060867D01*
X24025684Y28038356D01*
X24034074Y28014910D01*
X24040124Y27990754D01*
X24043778Y27966122D01*
X24045000Y27941250D01*
X24045000Y27433750D01*
X24043778Y27408878D01*
X24040124Y27384246D01*
X24034074Y27360090D01*
X24025684Y27336644D01*
X24015038Y27314133D01*
X24002235Y27292774D01*
X23987401Y27272773D01*
X23970678Y27254322D01*
X23952227Y27237599D01*
X23932226Y27222765D01*
X23910867Y27209962D01*
X23888356Y27199316D01*
X23864910Y27190926D01*
X23840754Y27184876D01*
X23816122Y27181222D01*
X23791250Y27180000D01*
X23208750Y27180000D01*
X23183878Y27181222D01*
X23159246Y27184876D01*
X23135090Y27190926D01*
X23111644Y27199316D01*
X23089133Y27209962D01*
X23067774Y27222765D01*
X23047773Y27237599D01*
X23029322Y27254322D01*
X23012599Y27272773D01*
X22997765Y27292774D01*
X22984962Y27314133D01*
X22974316Y27336644D01*
X22965926Y27360090D01*
X22959876Y27384246D01*
X22956222Y27408878D01*
X22955000Y27433750D01*
X22955000Y27941250D01*
X22956222Y27966122D01*
X22959876Y27990754D01*
X22965926Y28014910D01*
X22974316Y28038356D01*
X22984962Y28060867D01*
X22997765Y28082226D01*
X23012599Y28102227D01*
X23029322Y28120678D01*
X23047773Y28137401D01*
X23067774Y28152235D01*
X23089133Y28165038D01*
X23111644Y28175684D01*
X23135090Y28184074D01*
X23159246Y28190124D01*
X23183878Y28193778D01*
X23208750Y28195000D01*
X23791250Y28195000D01*
X23816122Y28193778D01*
X23816122Y28193778D01*
G37*
D14*
X23500000Y27687500D03*
D12*
G36*
X23816122Y26618778D02*
G01*
X23840754Y26615124D01*
X23864910Y26609074D01*
X23888356Y26600684D01*
X23910867Y26590038D01*
X23932226Y26577235D01*
X23952227Y26562401D01*
X23970678Y26545678D01*
X23987401Y26527227D01*
X24002235Y26507226D01*
X24015038Y26485867D01*
X24025684Y26463356D01*
X24034074Y26439910D01*
X24040124Y26415754D01*
X24043778Y26391122D01*
X24045000Y26366250D01*
X24045000Y25858750D01*
X24043778Y25833878D01*
X24040124Y25809246D01*
X24034074Y25785090D01*
X24025684Y25761644D01*
X24015038Y25739133D01*
X24002235Y25717774D01*
X23987401Y25697773D01*
X23970678Y25679322D01*
X23952227Y25662599D01*
X23932226Y25647765D01*
X23910867Y25634962D01*
X23888356Y25624316D01*
X23864910Y25615926D01*
X23840754Y25609876D01*
X23816122Y25606222D01*
X23791250Y25605000D01*
X23208750Y25605000D01*
X23183878Y25606222D01*
X23159246Y25609876D01*
X23135090Y25615926D01*
X23111644Y25624316D01*
X23089133Y25634962D01*
X23067774Y25647765D01*
X23047773Y25662599D01*
X23029322Y25679322D01*
X23012599Y25697773D01*
X22997765Y25717774D01*
X22984962Y25739133D01*
X22974316Y25761644D01*
X22965926Y25785090D01*
X22959876Y25809246D01*
X22956222Y25833878D01*
X22955000Y25858750D01*
X22955000Y26366250D01*
X22956222Y26391122D01*
X22959876Y26415754D01*
X22965926Y26439910D01*
X22974316Y26463356D01*
X22984962Y26485867D01*
X22997765Y26507226D01*
X23012599Y26527227D01*
X23029322Y26545678D01*
X23047773Y26562401D01*
X23067774Y26577235D01*
X23089133Y26590038D01*
X23111644Y26600684D01*
X23135090Y26609074D01*
X23159246Y26615124D01*
X23183878Y26618778D01*
X23208750Y26620000D01*
X23791250Y26620000D01*
X23816122Y26618778D01*
X23816122Y26618778D01*
G37*
D14*
X23500000Y26112500D03*
D12*
G36*
X26316122Y28293778D02*
G01*
X26340754Y28290124D01*
X26364910Y28284074D01*
X26388356Y28275684D01*
X26410867Y28265038D01*
X26432226Y28252235D01*
X26452227Y28237401D01*
X26470678Y28220678D01*
X26487401Y28202227D01*
X26502235Y28182226D01*
X26515038Y28160867D01*
X26525684Y28138356D01*
X26534074Y28114910D01*
X26540124Y28090754D01*
X26543778Y28066122D01*
X26545000Y28041250D01*
X26545000Y27533750D01*
X26543778Y27508878D01*
X26540124Y27484246D01*
X26534074Y27460090D01*
X26525684Y27436644D01*
X26515038Y27414133D01*
X26502235Y27392774D01*
X26487401Y27372773D01*
X26470678Y27354322D01*
X26452227Y27337599D01*
X26432226Y27322765D01*
X26410867Y27309962D01*
X26388356Y27299316D01*
X26364910Y27290926D01*
X26340754Y27284876D01*
X26316122Y27281222D01*
X26291250Y27280000D01*
X25708750Y27280000D01*
X25683878Y27281222D01*
X25659246Y27284876D01*
X25635090Y27290926D01*
X25611644Y27299316D01*
X25589133Y27309962D01*
X25567774Y27322765D01*
X25547773Y27337599D01*
X25529322Y27354322D01*
X25512599Y27372773D01*
X25497765Y27392774D01*
X25484962Y27414133D01*
X25474316Y27436644D01*
X25465926Y27460090D01*
X25459876Y27484246D01*
X25456222Y27508878D01*
X25455000Y27533750D01*
X25455000Y28041250D01*
X25456222Y28066122D01*
X25459876Y28090754D01*
X25465926Y28114910D01*
X25474316Y28138356D01*
X25484962Y28160867D01*
X25497765Y28182226D01*
X25512599Y28202227D01*
X25529322Y28220678D01*
X25547773Y28237401D01*
X25567774Y28252235D01*
X25589133Y28265038D01*
X25611644Y28275684D01*
X25635090Y28284074D01*
X25659246Y28290124D01*
X25683878Y28293778D01*
X25708750Y28295000D01*
X26291250Y28295000D01*
X26316122Y28293778D01*
X26316122Y28293778D01*
G37*
D14*
X26000000Y27787500D03*
D12*
G36*
X26316122Y26718778D02*
G01*
X26340754Y26715124D01*
X26364910Y26709074D01*
X26388356Y26700684D01*
X26410867Y26690038D01*
X26432226Y26677235D01*
X26452227Y26662401D01*
X26470678Y26645678D01*
X26487401Y26627227D01*
X26502235Y26607226D01*
X26515038Y26585867D01*
X26525684Y26563356D01*
X26534074Y26539910D01*
X26540124Y26515754D01*
X26543778Y26491122D01*
X26545000Y26466250D01*
X26545000Y25958750D01*
X26543778Y25933878D01*
X26540124Y25909246D01*
X26534074Y25885090D01*
X26525684Y25861644D01*
X26515038Y25839133D01*
X26502235Y25817774D01*
X26487401Y25797773D01*
X26470678Y25779322D01*
X26452227Y25762599D01*
X26432226Y25747765D01*
X26410867Y25734962D01*
X26388356Y25724316D01*
X26364910Y25715926D01*
X26340754Y25709876D01*
X26316122Y25706222D01*
X26291250Y25705000D01*
X25708750Y25705000D01*
X25683878Y25706222D01*
X25659246Y25709876D01*
X25635090Y25715926D01*
X25611644Y25724316D01*
X25589133Y25734962D01*
X25567774Y25747765D01*
X25547773Y25762599D01*
X25529322Y25779322D01*
X25512599Y25797773D01*
X25497765Y25817774D01*
X25484962Y25839133D01*
X25474316Y25861644D01*
X25465926Y25885090D01*
X25459876Y25909246D01*
X25456222Y25933878D01*
X25455000Y25958750D01*
X25455000Y26466250D01*
X25456222Y26491122D01*
X25459876Y26515754D01*
X25465926Y26539910D01*
X25474316Y26563356D01*
X25484962Y26585867D01*
X25497765Y26607226D01*
X25512599Y26627227D01*
X25529322Y26645678D01*
X25547773Y26662401D01*
X25567774Y26677235D01*
X25589133Y26690038D01*
X25611644Y26700684D01*
X25635090Y26709074D01*
X25659246Y26715124D01*
X25683878Y26718778D01*
X25708750Y26720000D01*
X26291250Y26720000D01*
X26316122Y26718778D01*
X26316122Y26718778D01*
G37*
D14*
X26000000Y26212500D03*
D12*
G36*
X19266122Y22968778D02*
G01*
X19290754Y22965124D01*
X19314910Y22959074D01*
X19338356Y22950684D01*
X19360867Y22940038D01*
X19382226Y22927235D01*
X19402227Y22912401D01*
X19420678Y22895678D01*
X19437401Y22877227D01*
X19452235Y22857226D01*
X19465038Y22835867D01*
X19475684Y22813356D01*
X19484074Y22789910D01*
X19490124Y22765754D01*
X19493778Y22741122D01*
X19495000Y22716250D01*
X19495000Y22208750D01*
X19493778Y22183878D01*
X19490124Y22159246D01*
X19484074Y22135090D01*
X19475684Y22111644D01*
X19465038Y22089133D01*
X19452235Y22067774D01*
X19437401Y22047773D01*
X19420678Y22029322D01*
X19402227Y22012599D01*
X19382226Y21997765D01*
X19360867Y21984962D01*
X19338356Y21974316D01*
X19314910Y21965926D01*
X19290754Y21959876D01*
X19266122Y21956222D01*
X19241250Y21955000D01*
X18658750Y21955000D01*
X18633878Y21956222D01*
X18609246Y21959876D01*
X18585090Y21965926D01*
X18561644Y21974316D01*
X18539133Y21984962D01*
X18517774Y21997765D01*
X18497773Y22012599D01*
X18479322Y22029322D01*
X18462599Y22047773D01*
X18447765Y22067774D01*
X18434962Y22089133D01*
X18424316Y22111644D01*
X18415926Y22135090D01*
X18409876Y22159246D01*
X18406222Y22183878D01*
X18405000Y22208750D01*
X18405000Y22716250D01*
X18406222Y22741122D01*
X18409876Y22765754D01*
X18415926Y22789910D01*
X18424316Y22813356D01*
X18434962Y22835867D01*
X18447765Y22857226D01*
X18462599Y22877227D01*
X18479322Y22895678D01*
X18497773Y22912401D01*
X18517774Y22927235D01*
X18539133Y22940038D01*
X18561644Y22950684D01*
X18585090Y22959074D01*
X18609246Y22965124D01*
X18633878Y22968778D01*
X18658750Y22970000D01*
X19241250Y22970000D01*
X19266122Y22968778D01*
X19266122Y22968778D01*
G37*
D14*
X18950000Y22462500D03*
D12*
G36*
X19266122Y24543778D02*
G01*
X19290754Y24540124D01*
X19314910Y24534074D01*
X19338356Y24525684D01*
X19360867Y24515038D01*
X19382226Y24502235D01*
X19402227Y24487401D01*
X19420678Y24470678D01*
X19437401Y24452227D01*
X19452235Y24432226D01*
X19465038Y24410867D01*
X19475684Y24388356D01*
X19484074Y24364910D01*
X19490124Y24340754D01*
X19493778Y24316122D01*
X19495000Y24291250D01*
X19495000Y23783750D01*
X19493778Y23758878D01*
X19490124Y23734246D01*
X19484074Y23710090D01*
X19475684Y23686644D01*
X19465038Y23664133D01*
X19452235Y23642774D01*
X19437401Y23622773D01*
X19420678Y23604322D01*
X19402227Y23587599D01*
X19382226Y23572765D01*
X19360867Y23559962D01*
X19338356Y23549316D01*
X19314910Y23540926D01*
X19290754Y23534876D01*
X19266122Y23531222D01*
X19241250Y23530000D01*
X18658750Y23530000D01*
X18633878Y23531222D01*
X18609246Y23534876D01*
X18585090Y23540926D01*
X18561644Y23549316D01*
X18539133Y23559962D01*
X18517774Y23572765D01*
X18497773Y23587599D01*
X18479322Y23604322D01*
X18462599Y23622773D01*
X18447765Y23642774D01*
X18434962Y23664133D01*
X18424316Y23686644D01*
X18415926Y23710090D01*
X18409876Y23734246D01*
X18406222Y23758878D01*
X18405000Y23783750D01*
X18405000Y24291250D01*
X18406222Y24316122D01*
X18409876Y24340754D01*
X18415926Y24364910D01*
X18424316Y24388356D01*
X18434962Y24410867D01*
X18447765Y24432226D01*
X18462599Y24452227D01*
X18479322Y24470678D01*
X18497773Y24487401D01*
X18517774Y24502235D01*
X18539133Y24515038D01*
X18561644Y24525684D01*
X18585090Y24534074D01*
X18609246Y24540124D01*
X18633878Y24543778D01*
X18658750Y24545000D01*
X19241250Y24545000D01*
X19266122Y24543778D01*
X19266122Y24543778D01*
G37*
D14*
X18950000Y24037500D03*
D12*
G36*
X30268572Y32243658D02*
G01*
X30295631Y32239644D01*
X30322167Y32232997D01*
X30347923Y32223781D01*
X30372652Y32212086D01*
X30396115Y32198022D01*
X30418087Y32181727D01*
X30438356Y32163356D01*
X30456727Y32143087D01*
X30473022Y32121115D01*
X30487086Y32097652D01*
X30498781Y32072923D01*
X30507997Y32047167D01*
X30514644Y32020631D01*
X30518658Y31993572D01*
X30520000Y31966250D01*
X30520000Y31408750D01*
X30518658Y31381428D01*
X30514644Y31354369D01*
X30507997Y31327833D01*
X30498781Y31302077D01*
X30487086Y31277348D01*
X30473022Y31253885D01*
X30456727Y31231913D01*
X30438356Y31211644D01*
X30418087Y31193273D01*
X30396115Y31176978D01*
X30372652Y31162914D01*
X30347923Y31151219D01*
X30322167Y31142003D01*
X30295631Y31135356D01*
X30268572Y31131342D01*
X30241250Y31130000D01*
X29258750Y31130000D01*
X29231428Y31131342D01*
X29204369Y31135356D01*
X29177833Y31142003D01*
X29152077Y31151219D01*
X29127348Y31162914D01*
X29103885Y31176978D01*
X29081913Y31193273D01*
X29061644Y31211644D01*
X29043273Y31231913D01*
X29026978Y31253885D01*
X29012914Y31277348D01*
X29001219Y31302077D01*
X28992003Y31327833D01*
X28985356Y31354369D01*
X28981342Y31381428D01*
X28980000Y31408750D01*
X28980000Y31966250D01*
X28981342Y31993572D01*
X28985356Y32020631D01*
X28992003Y32047167D01*
X29001219Y32072923D01*
X29012914Y32097652D01*
X29026978Y32121115D01*
X29043273Y32143087D01*
X29061644Y32163356D01*
X29081913Y32181727D01*
X29103885Y32198022D01*
X29127348Y32212086D01*
X29152077Y32223781D01*
X29177833Y32232997D01*
X29204369Y32239644D01*
X29231428Y32243658D01*
X29258750Y32245000D01*
X30241250Y32245000D01*
X30268572Y32243658D01*
X30268572Y32243658D01*
G37*
D19*
X29750000Y31687500D03*
D12*
G36*
X30268572Y30368658D02*
G01*
X30295631Y30364644D01*
X30322167Y30357997D01*
X30347923Y30348781D01*
X30372652Y30337086D01*
X30396115Y30323022D01*
X30418087Y30306727D01*
X30438356Y30288356D01*
X30456727Y30268087D01*
X30473022Y30246115D01*
X30487086Y30222652D01*
X30498781Y30197923D01*
X30507997Y30172167D01*
X30514644Y30145631D01*
X30518658Y30118572D01*
X30520000Y30091250D01*
X30520000Y29533750D01*
X30518658Y29506428D01*
X30514644Y29479369D01*
X30507997Y29452833D01*
X30498781Y29427077D01*
X30487086Y29402348D01*
X30473022Y29378885D01*
X30456727Y29356913D01*
X30438356Y29336644D01*
X30418087Y29318273D01*
X30396115Y29301978D01*
X30372652Y29287914D01*
X30347923Y29276219D01*
X30322167Y29267003D01*
X30295631Y29260356D01*
X30268572Y29256342D01*
X30241250Y29255000D01*
X29258750Y29255000D01*
X29231428Y29256342D01*
X29204369Y29260356D01*
X29177833Y29267003D01*
X29152077Y29276219D01*
X29127348Y29287914D01*
X29103885Y29301978D01*
X29081913Y29318273D01*
X29061644Y29336644D01*
X29043273Y29356913D01*
X29026978Y29378885D01*
X29012914Y29402348D01*
X29001219Y29427077D01*
X28992003Y29452833D01*
X28985356Y29479369D01*
X28981342Y29506428D01*
X28980000Y29533750D01*
X28980000Y30091250D01*
X28981342Y30118572D01*
X28985356Y30145631D01*
X28992003Y30172167D01*
X29001219Y30197923D01*
X29012914Y30222652D01*
X29026978Y30246115D01*
X29043273Y30268087D01*
X29061644Y30288356D01*
X29081913Y30306727D01*
X29103885Y30323022D01*
X29127348Y30337086D01*
X29152077Y30348781D01*
X29177833Y30357997D01*
X29204369Y30364644D01*
X29231428Y30368658D01*
X29258750Y30370000D01*
X30241250Y30370000D01*
X30268572Y30368658D01*
X30268572Y30368658D01*
G37*
D19*
X29750000Y29812500D03*
D12*
G36*
X27816122Y28293778D02*
G01*
X27840754Y28290124D01*
X27864910Y28284074D01*
X27888356Y28275684D01*
X27910867Y28265038D01*
X27932226Y28252235D01*
X27952227Y28237401D01*
X27970678Y28220678D01*
X27987401Y28202227D01*
X28002235Y28182226D01*
X28015038Y28160867D01*
X28025684Y28138356D01*
X28034074Y28114910D01*
X28040124Y28090754D01*
X28043778Y28066122D01*
X28045000Y28041250D01*
X28045000Y27533750D01*
X28043778Y27508878D01*
X28040124Y27484246D01*
X28034074Y27460090D01*
X28025684Y27436644D01*
X28015038Y27414133D01*
X28002235Y27392774D01*
X27987401Y27372773D01*
X27970678Y27354322D01*
X27952227Y27337599D01*
X27932226Y27322765D01*
X27910867Y27309962D01*
X27888356Y27299316D01*
X27864910Y27290926D01*
X27840754Y27284876D01*
X27816122Y27281222D01*
X27791250Y27280000D01*
X27208750Y27280000D01*
X27183878Y27281222D01*
X27159246Y27284876D01*
X27135090Y27290926D01*
X27111644Y27299316D01*
X27089133Y27309962D01*
X27067774Y27322765D01*
X27047773Y27337599D01*
X27029322Y27354322D01*
X27012599Y27372773D01*
X26997765Y27392774D01*
X26984962Y27414133D01*
X26974316Y27436644D01*
X26965926Y27460090D01*
X26959876Y27484246D01*
X26956222Y27508878D01*
X26955000Y27533750D01*
X26955000Y28041250D01*
X26956222Y28066122D01*
X26959876Y28090754D01*
X26965926Y28114910D01*
X26974316Y28138356D01*
X26984962Y28160867D01*
X26997765Y28182226D01*
X27012599Y28202227D01*
X27029322Y28220678D01*
X27047773Y28237401D01*
X27067774Y28252235D01*
X27089133Y28265038D01*
X27111644Y28275684D01*
X27135090Y28284074D01*
X27159246Y28290124D01*
X27183878Y28293778D01*
X27208750Y28295000D01*
X27791250Y28295000D01*
X27816122Y28293778D01*
X27816122Y28293778D01*
G37*
D14*
X27500000Y27787500D03*
D12*
G36*
X27816122Y26718778D02*
G01*
X27840754Y26715124D01*
X27864910Y26709074D01*
X27888356Y26700684D01*
X27910867Y26690038D01*
X27932226Y26677235D01*
X27952227Y26662401D01*
X27970678Y26645678D01*
X27987401Y26627227D01*
X28002235Y26607226D01*
X28015038Y26585867D01*
X28025684Y26563356D01*
X28034074Y26539910D01*
X28040124Y26515754D01*
X28043778Y26491122D01*
X28045000Y26466250D01*
X28045000Y25958750D01*
X28043778Y25933878D01*
X28040124Y25909246D01*
X28034074Y25885090D01*
X28025684Y25861644D01*
X28015038Y25839133D01*
X28002235Y25817774D01*
X27987401Y25797773D01*
X27970678Y25779322D01*
X27952227Y25762599D01*
X27932226Y25747765D01*
X27910867Y25734962D01*
X27888356Y25724316D01*
X27864910Y25715926D01*
X27840754Y25709876D01*
X27816122Y25706222D01*
X27791250Y25705000D01*
X27208750Y25705000D01*
X27183878Y25706222D01*
X27159246Y25709876D01*
X27135090Y25715926D01*
X27111644Y25724316D01*
X27089133Y25734962D01*
X27067774Y25747765D01*
X27047773Y25762599D01*
X27029322Y25779322D01*
X27012599Y25797773D01*
X26997765Y25817774D01*
X26984962Y25839133D01*
X26974316Y25861644D01*
X26965926Y25885090D01*
X26959876Y25909246D01*
X26956222Y25933878D01*
X26955000Y25958750D01*
X26955000Y26466250D01*
X26956222Y26491122D01*
X26959876Y26515754D01*
X26965926Y26539910D01*
X26974316Y26563356D01*
X26984962Y26585867D01*
X26997765Y26607226D01*
X27012599Y26627227D01*
X27029322Y26645678D01*
X27047773Y26662401D01*
X27067774Y26677235D01*
X27089133Y26690038D01*
X27111644Y26700684D01*
X27135090Y26709074D01*
X27159246Y26715124D01*
X27183878Y26718778D01*
X27208750Y26720000D01*
X27791250Y26720000D01*
X27816122Y26718778D01*
X27816122Y26718778D01*
G37*
D14*
X27500000Y26212500D03*
D12*
G36*
X30066122Y36093778D02*
G01*
X30090754Y36090124D01*
X30114910Y36084074D01*
X30138356Y36075684D01*
X30160867Y36065038D01*
X30182226Y36052235D01*
X30202227Y36037401D01*
X30220678Y36020678D01*
X30237401Y36002227D01*
X30252235Y35982226D01*
X30265038Y35960867D01*
X30275684Y35938356D01*
X30284074Y35914910D01*
X30290124Y35890754D01*
X30293778Y35866122D01*
X30295000Y35841250D01*
X30295000Y35333750D01*
X30293778Y35308878D01*
X30290124Y35284246D01*
X30284074Y35260090D01*
X30275684Y35236644D01*
X30265038Y35214133D01*
X30252235Y35192774D01*
X30237401Y35172773D01*
X30220678Y35154322D01*
X30202227Y35137599D01*
X30182226Y35122765D01*
X30160867Y35109962D01*
X30138356Y35099316D01*
X30114910Y35090926D01*
X30090754Y35084876D01*
X30066122Y35081222D01*
X30041250Y35080000D01*
X29458750Y35080000D01*
X29433878Y35081222D01*
X29409246Y35084876D01*
X29385090Y35090926D01*
X29361644Y35099316D01*
X29339133Y35109962D01*
X29317774Y35122765D01*
X29297773Y35137599D01*
X29279322Y35154322D01*
X29262599Y35172773D01*
X29247765Y35192774D01*
X29234962Y35214133D01*
X29224316Y35236644D01*
X29215926Y35260090D01*
X29209876Y35284246D01*
X29206222Y35308878D01*
X29205000Y35333750D01*
X29205000Y35841250D01*
X29206222Y35866122D01*
X29209876Y35890754D01*
X29215926Y35914910D01*
X29224316Y35938356D01*
X29234962Y35960867D01*
X29247765Y35982226D01*
X29262599Y36002227D01*
X29279322Y36020678D01*
X29297773Y36037401D01*
X29317774Y36052235D01*
X29339133Y36065038D01*
X29361644Y36075684D01*
X29385090Y36084074D01*
X29409246Y36090124D01*
X29433878Y36093778D01*
X29458750Y36095000D01*
X30041250Y36095000D01*
X30066122Y36093778D01*
X30066122Y36093778D01*
G37*
D14*
X29750000Y35587500D03*
D12*
G36*
X30066122Y34518778D02*
G01*
X30090754Y34515124D01*
X30114910Y34509074D01*
X30138356Y34500684D01*
X30160867Y34490038D01*
X30182226Y34477235D01*
X30202227Y34462401D01*
X30220678Y34445678D01*
X30237401Y34427227D01*
X30252235Y34407226D01*
X30265038Y34385867D01*
X30275684Y34363356D01*
X30284074Y34339910D01*
X30290124Y34315754D01*
X30293778Y34291122D01*
X30295000Y34266250D01*
X30295000Y33758750D01*
X30293778Y33733878D01*
X30290124Y33709246D01*
X30284074Y33685090D01*
X30275684Y33661644D01*
X30265038Y33639133D01*
X30252235Y33617774D01*
X30237401Y33597773D01*
X30220678Y33579322D01*
X30202227Y33562599D01*
X30182226Y33547765D01*
X30160867Y33534962D01*
X30138356Y33524316D01*
X30114910Y33515926D01*
X30090754Y33509876D01*
X30066122Y33506222D01*
X30041250Y33505000D01*
X29458750Y33505000D01*
X29433878Y33506222D01*
X29409246Y33509876D01*
X29385090Y33515926D01*
X29361644Y33524316D01*
X29339133Y33534962D01*
X29317774Y33547765D01*
X29297773Y33562599D01*
X29279322Y33579322D01*
X29262599Y33597773D01*
X29247765Y33617774D01*
X29234962Y33639133D01*
X29224316Y33661644D01*
X29215926Y33685090D01*
X29209876Y33709246D01*
X29206222Y33733878D01*
X29205000Y33758750D01*
X29205000Y34266250D01*
X29206222Y34291122D01*
X29209876Y34315754D01*
X29215926Y34339910D01*
X29224316Y34363356D01*
X29234962Y34385867D01*
X29247765Y34407226D01*
X29262599Y34427227D01*
X29279322Y34445678D01*
X29297773Y34462401D01*
X29317774Y34477235D01*
X29339133Y34490038D01*
X29361644Y34500684D01*
X29385090Y34509074D01*
X29409246Y34515124D01*
X29433878Y34518778D01*
X29458750Y34520000D01*
X30041250Y34520000D01*
X30066122Y34518778D01*
X30066122Y34518778D01*
G37*
D14*
X29750000Y34012500D03*
D12*
G36*
X35816122Y37793778D02*
G01*
X35840754Y37790124D01*
X35864910Y37784074D01*
X35888356Y37775684D01*
X35910867Y37765038D01*
X35932226Y37752235D01*
X35952227Y37737401D01*
X35970678Y37720678D01*
X35987401Y37702227D01*
X36002235Y37682226D01*
X36015038Y37660867D01*
X36025684Y37638356D01*
X36034074Y37614910D01*
X36040124Y37590754D01*
X36043778Y37566122D01*
X36045000Y37541250D01*
X36045000Y37033750D01*
X36043778Y37008878D01*
X36040124Y36984246D01*
X36034074Y36960090D01*
X36025684Y36936644D01*
X36015038Y36914133D01*
X36002235Y36892774D01*
X35987401Y36872773D01*
X35970678Y36854322D01*
X35952227Y36837599D01*
X35932226Y36822765D01*
X35910867Y36809962D01*
X35888356Y36799316D01*
X35864910Y36790926D01*
X35840754Y36784876D01*
X35816122Y36781222D01*
X35791250Y36780000D01*
X35208750Y36780000D01*
X35183878Y36781222D01*
X35159246Y36784876D01*
X35135090Y36790926D01*
X35111644Y36799316D01*
X35089133Y36809962D01*
X35067774Y36822765D01*
X35047773Y36837599D01*
X35029322Y36854322D01*
X35012599Y36872773D01*
X34997765Y36892774D01*
X34984962Y36914133D01*
X34974316Y36936644D01*
X34965926Y36960090D01*
X34959876Y36984246D01*
X34956222Y37008878D01*
X34955000Y37033750D01*
X34955000Y37541250D01*
X34956222Y37566122D01*
X34959876Y37590754D01*
X34965926Y37614910D01*
X34974316Y37638356D01*
X34984962Y37660867D01*
X34997765Y37682226D01*
X35012599Y37702227D01*
X35029322Y37720678D01*
X35047773Y37737401D01*
X35067774Y37752235D01*
X35089133Y37765038D01*
X35111644Y37775684D01*
X35135090Y37784074D01*
X35159246Y37790124D01*
X35183878Y37793778D01*
X35208750Y37795000D01*
X35791250Y37795000D01*
X35816122Y37793778D01*
X35816122Y37793778D01*
G37*
D14*
X35500000Y37287500D03*
D12*
G36*
X35816122Y36218778D02*
G01*
X35840754Y36215124D01*
X35864910Y36209074D01*
X35888356Y36200684D01*
X35910867Y36190038D01*
X35932226Y36177235D01*
X35952227Y36162401D01*
X35970678Y36145678D01*
X35987401Y36127227D01*
X36002235Y36107226D01*
X36015038Y36085867D01*
X36025684Y36063356D01*
X36034074Y36039910D01*
X36040124Y36015754D01*
X36043778Y35991122D01*
X36045000Y35966250D01*
X36045000Y35458750D01*
X36043778Y35433878D01*
X36040124Y35409246D01*
X36034074Y35385090D01*
X36025684Y35361644D01*
X36015038Y35339133D01*
X36002235Y35317774D01*
X35987401Y35297773D01*
X35970678Y35279322D01*
X35952227Y35262599D01*
X35932226Y35247765D01*
X35910867Y35234962D01*
X35888356Y35224316D01*
X35864910Y35215926D01*
X35840754Y35209876D01*
X35816122Y35206222D01*
X35791250Y35205000D01*
X35208750Y35205000D01*
X35183878Y35206222D01*
X35159246Y35209876D01*
X35135090Y35215926D01*
X35111644Y35224316D01*
X35089133Y35234962D01*
X35067774Y35247765D01*
X35047773Y35262599D01*
X35029322Y35279322D01*
X35012599Y35297773D01*
X34997765Y35317774D01*
X34984962Y35339133D01*
X34974316Y35361644D01*
X34965926Y35385090D01*
X34959876Y35409246D01*
X34956222Y35433878D01*
X34955000Y35458750D01*
X34955000Y35966250D01*
X34956222Y35991122D01*
X34959876Y36015754D01*
X34965926Y36039910D01*
X34974316Y36063356D01*
X34984962Y36085867D01*
X34997765Y36107226D01*
X35012599Y36127227D01*
X35029322Y36145678D01*
X35047773Y36162401D01*
X35067774Y36177235D01*
X35089133Y36190038D01*
X35111644Y36200684D01*
X35135090Y36209074D01*
X35159246Y36215124D01*
X35183878Y36218778D01*
X35208750Y36220000D01*
X35791250Y36220000D01*
X35816122Y36218778D01*
X35816122Y36218778D01*
G37*
D14*
X35500000Y35712500D03*
D26*
X35250000Y29750000D03*
X7250000Y29750000D03*
M02*
