G04 #@! TF.GenerationSoftware,KiCad,Pcbnew,5.1.0*
G04 #@! TF.CreationDate,2019-04-16T15:55:50+02:00*
G04 #@! TF.ProjectId,KXKM_audio_board_for_ESP32,4b584b4d-5f61-4756-9469-6f5f626f6172,1.0*
G04 #@! TF.SameCoordinates,PX82a7440PY6f94740*
G04 #@! TF.FileFunction,Paste,Bot*
G04 #@! TF.FilePolarity,Positive*
%FSLAX46Y46*%
G04 Gerber Fmt 4.6, Leading zero omitted, Abs format (unit mm)*
G04 Created by KiCad (PCBNEW 5.1.0) date 2019-04-16 15:55:50*
%MOMM*%
%LPD*%
G04 APERTURE LIST*
%ADD10C,0.100000*%
%ADD11C,0.875000*%
%ADD12C,0.975000*%
%ADD13R,1.060000X0.650000*%
%ADD14R,3.150000X1.000000*%
%ADD15C,1.250000*%
%ADD16R,0.400000X1.100000*%
G04 APERTURE END LIST*
D10*
G36*
X22277691Y26623947D02*
G01*
X22298926Y26620797D01*
X22319750Y26615581D01*
X22339962Y26608349D01*
X22359368Y26599170D01*
X22377781Y26588134D01*
X22395024Y26575346D01*
X22410930Y26560930D01*
X22425346Y26545024D01*
X22438134Y26527781D01*
X22449170Y26509368D01*
X22458349Y26489962D01*
X22465581Y26469750D01*
X22470797Y26448926D01*
X22473947Y26427691D01*
X22475000Y26406250D01*
X22475000Y25893750D01*
X22473947Y25872309D01*
X22470797Y25851074D01*
X22465581Y25830250D01*
X22458349Y25810038D01*
X22449170Y25790632D01*
X22438134Y25772219D01*
X22425346Y25754976D01*
X22410930Y25739070D01*
X22395024Y25724654D01*
X22377781Y25711866D01*
X22359368Y25700830D01*
X22339962Y25691651D01*
X22319750Y25684419D01*
X22298926Y25679203D01*
X22277691Y25676053D01*
X22256250Y25675000D01*
X21818750Y25675000D01*
X21797309Y25676053D01*
X21776074Y25679203D01*
X21755250Y25684419D01*
X21735038Y25691651D01*
X21715632Y25700830D01*
X21697219Y25711866D01*
X21679976Y25724654D01*
X21664070Y25739070D01*
X21649654Y25754976D01*
X21636866Y25772219D01*
X21625830Y25790632D01*
X21616651Y25810038D01*
X21609419Y25830250D01*
X21604203Y25851074D01*
X21601053Y25872309D01*
X21600000Y25893750D01*
X21600000Y26406250D01*
X21601053Y26427691D01*
X21604203Y26448926D01*
X21609419Y26469750D01*
X21616651Y26489962D01*
X21625830Y26509368D01*
X21636866Y26527781D01*
X21649654Y26545024D01*
X21664070Y26560930D01*
X21679976Y26575346D01*
X21697219Y26588134D01*
X21715632Y26599170D01*
X21735038Y26608349D01*
X21755250Y26615581D01*
X21776074Y26620797D01*
X21797309Y26623947D01*
X21818750Y26625000D01*
X22256250Y26625000D01*
X22277691Y26623947D01*
X22277691Y26623947D01*
G37*
D11*
X22037500Y26150000D03*
D10*
G36*
X20702691Y26623947D02*
G01*
X20723926Y26620797D01*
X20744750Y26615581D01*
X20764962Y26608349D01*
X20784368Y26599170D01*
X20802781Y26588134D01*
X20820024Y26575346D01*
X20835930Y26560930D01*
X20850346Y26545024D01*
X20863134Y26527781D01*
X20874170Y26509368D01*
X20883349Y26489962D01*
X20890581Y26469750D01*
X20895797Y26448926D01*
X20898947Y26427691D01*
X20900000Y26406250D01*
X20900000Y25893750D01*
X20898947Y25872309D01*
X20895797Y25851074D01*
X20890581Y25830250D01*
X20883349Y25810038D01*
X20874170Y25790632D01*
X20863134Y25772219D01*
X20850346Y25754976D01*
X20835930Y25739070D01*
X20820024Y25724654D01*
X20802781Y25711866D01*
X20784368Y25700830D01*
X20764962Y25691651D01*
X20744750Y25684419D01*
X20723926Y25679203D01*
X20702691Y25676053D01*
X20681250Y25675000D01*
X20243750Y25675000D01*
X20222309Y25676053D01*
X20201074Y25679203D01*
X20180250Y25684419D01*
X20160038Y25691651D01*
X20140632Y25700830D01*
X20122219Y25711866D01*
X20104976Y25724654D01*
X20089070Y25739070D01*
X20074654Y25754976D01*
X20061866Y25772219D01*
X20050830Y25790632D01*
X20041651Y25810038D01*
X20034419Y25830250D01*
X20029203Y25851074D01*
X20026053Y25872309D01*
X20025000Y25893750D01*
X20025000Y26406250D01*
X20026053Y26427691D01*
X20029203Y26448926D01*
X20034419Y26469750D01*
X20041651Y26489962D01*
X20050830Y26509368D01*
X20061866Y26527781D01*
X20074654Y26545024D01*
X20089070Y26560930D01*
X20104976Y26575346D01*
X20122219Y26588134D01*
X20140632Y26599170D01*
X20160038Y26608349D01*
X20180250Y26615581D01*
X20201074Y26620797D01*
X20222309Y26623947D01*
X20243750Y26625000D01*
X20681250Y26625000D01*
X20702691Y26623947D01*
X20702691Y26623947D01*
G37*
D11*
X20462500Y26150000D03*
D10*
G36*
X30230142Y26748826D02*
G01*
X30253803Y26745316D01*
X30277007Y26739504D01*
X30299529Y26731446D01*
X30321153Y26721218D01*
X30341670Y26708921D01*
X30360883Y26694671D01*
X30378607Y26678607D01*
X30394671Y26660883D01*
X30408921Y26641670D01*
X30421218Y26621153D01*
X30431446Y26599529D01*
X30439504Y26577007D01*
X30445316Y26553803D01*
X30448826Y26530142D01*
X30450000Y26506250D01*
X30450000Y26018750D01*
X30448826Y25994858D01*
X30445316Y25971197D01*
X30439504Y25947993D01*
X30431446Y25925471D01*
X30421218Y25903847D01*
X30408921Y25883330D01*
X30394671Y25864117D01*
X30378607Y25846393D01*
X30360883Y25830329D01*
X30341670Y25816079D01*
X30321153Y25803782D01*
X30299529Y25793554D01*
X30277007Y25785496D01*
X30253803Y25779684D01*
X30230142Y25776174D01*
X30206250Y25775000D01*
X29293750Y25775000D01*
X29269858Y25776174D01*
X29246197Y25779684D01*
X29222993Y25785496D01*
X29200471Y25793554D01*
X29178847Y25803782D01*
X29158330Y25816079D01*
X29139117Y25830329D01*
X29121393Y25846393D01*
X29105329Y25864117D01*
X29091079Y25883330D01*
X29078782Y25903847D01*
X29068554Y25925471D01*
X29060496Y25947993D01*
X29054684Y25971197D01*
X29051174Y25994858D01*
X29050000Y26018750D01*
X29050000Y26506250D01*
X29051174Y26530142D01*
X29054684Y26553803D01*
X29060496Y26577007D01*
X29068554Y26599529D01*
X29078782Y26621153D01*
X29091079Y26641670D01*
X29105329Y26660883D01*
X29121393Y26678607D01*
X29139117Y26694671D01*
X29158330Y26708921D01*
X29178847Y26721218D01*
X29200471Y26731446D01*
X29222993Y26739504D01*
X29246197Y26745316D01*
X29269858Y26748826D01*
X29293750Y26750000D01*
X30206250Y26750000D01*
X30230142Y26748826D01*
X30230142Y26748826D01*
G37*
D12*
X29750000Y26262500D03*
D10*
G36*
X30230142Y28623826D02*
G01*
X30253803Y28620316D01*
X30277007Y28614504D01*
X30299529Y28606446D01*
X30321153Y28596218D01*
X30341670Y28583921D01*
X30360883Y28569671D01*
X30378607Y28553607D01*
X30394671Y28535883D01*
X30408921Y28516670D01*
X30421218Y28496153D01*
X30431446Y28474529D01*
X30439504Y28452007D01*
X30445316Y28428803D01*
X30448826Y28405142D01*
X30450000Y28381250D01*
X30450000Y27893750D01*
X30448826Y27869858D01*
X30445316Y27846197D01*
X30439504Y27822993D01*
X30431446Y27800471D01*
X30421218Y27778847D01*
X30408921Y27758330D01*
X30394671Y27739117D01*
X30378607Y27721393D01*
X30360883Y27705329D01*
X30341670Y27691079D01*
X30321153Y27678782D01*
X30299529Y27668554D01*
X30277007Y27660496D01*
X30253803Y27654684D01*
X30230142Y27651174D01*
X30206250Y27650000D01*
X29293750Y27650000D01*
X29269858Y27651174D01*
X29246197Y27654684D01*
X29222993Y27660496D01*
X29200471Y27668554D01*
X29178847Y27678782D01*
X29158330Y27691079D01*
X29139117Y27705329D01*
X29121393Y27721393D01*
X29105329Y27739117D01*
X29091079Y27758330D01*
X29078782Y27778847D01*
X29068554Y27800471D01*
X29060496Y27822993D01*
X29054684Y27846197D01*
X29051174Y27869858D01*
X29050000Y27893750D01*
X29050000Y28381250D01*
X29051174Y28405142D01*
X29054684Y28428803D01*
X29060496Y28452007D01*
X29068554Y28474529D01*
X29078782Y28496153D01*
X29091079Y28516670D01*
X29105329Y28535883D01*
X29121393Y28553607D01*
X29139117Y28569671D01*
X29158330Y28583921D01*
X29178847Y28596218D01*
X29200471Y28606446D01*
X29222993Y28614504D01*
X29246197Y28620316D01*
X29269858Y28623826D01*
X29293750Y28625000D01*
X30206250Y28625000D01*
X30230142Y28623826D01*
X30230142Y28623826D01*
G37*
D12*
X29750000Y28137500D03*
D13*
X31650000Y37450000D03*
X31650000Y35550000D03*
X33850000Y35550000D03*
X33850000Y36500000D03*
X33850000Y37450000D03*
D10*
G36*
X24377691Y15698947D02*
G01*
X24398926Y15695797D01*
X24419750Y15690581D01*
X24439962Y15683349D01*
X24459368Y15674170D01*
X24477781Y15663134D01*
X24495024Y15650346D01*
X24510930Y15635930D01*
X24525346Y15620024D01*
X24538134Y15602781D01*
X24549170Y15584368D01*
X24558349Y15564962D01*
X24565581Y15544750D01*
X24570797Y15523926D01*
X24573947Y15502691D01*
X24575000Y15481250D01*
X24575000Y15043750D01*
X24573947Y15022309D01*
X24570797Y15001074D01*
X24565581Y14980250D01*
X24558349Y14960038D01*
X24549170Y14940632D01*
X24538134Y14922219D01*
X24525346Y14904976D01*
X24510930Y14889070D01*
X24495024Y14874654D01*
X24477781Y14861866D01*
X24459368Y14850830D01*
X24439962Y14841651D01*
X24419750Y14834419D01*
X24398926Y14829203D01*
X24377691Y14826053D01*
X24356250Y14825000D01*
X23843750Y14825000D01*
X23822309Y14826053D01*
X23801074Y14829203D01*
X23780250Y14834419D01*
X23760038Y14841651D01*
X23740632Y14850830D01*
X23722219Y14861866D01*
X23704976Y14874654D01*
X23689070Y14889070D01*
X23674654Y14904976D01*
X23661866Y14922219D01*
X23650830Y14940632D01*
X23641651Y14960038D01*
X23634419Y14980250D01*
X23629203Y15001074D01*
X23626053Y15022309D01*
X23625000Y15043750D01*
X23625000Y15481250D01*
X23626053Y15502691D01*
X23629203Y15523926D01*
X23634419Y15544750D01*
X23641651Y15564962D01*
X23650830Y15584368D01*
X23661866Y15602781D01*
X23674654Y15620024D01*
X23689070Y15635930D01*
X23704976Y15650346D01*
X23722219Y15663134D01*
X23740632Y15674170D01*
X23760038Y15683349D01*
X23780250Y15690581D01*
X23801074Y15695797D01*
X23822309Y15698947D01*
X23843750Y15700000D01*
X24356250Y15700000D01*
X24377691Y15698947D01*
X24377691Y15698947D01*
G37*
D11*
X24100000Y15262500D03*
D10*
G36*
X24377691Y17273947D02*
G01*
X24398926Y17270797D01*
X24419750Y17265581D01*
X24439962Y17258349D01*
X24459368Y17249170D01*
X24477781Y17238134D01*
X24495024Y17225346D01*
X24510930Y17210930D01*
X24525346Y17195024D01*
X24538134Y17177781D01*
X24549170Y17159368D01*
X24558349Y17139962D01*
X24565581Y17119750D01*
X24570797Y17098926D01*
X24573947Y17077691D01*
X24575000Y17056250D01*
X24575000Y16618750D01*
X24573947Y16597309D01*
X24570797Y16576074D01*
X24565581Y16555250D01*
X24558349Y16535038D01*
X24549170Y16515632D01*
X24538134Y16497219D01*
X24525346Y16479976D01*
X24510930Y16464070D01*
X24495024Y16449654D01*
X24477781Y16436866D01*
X24459368Y16425830D01*
X24439962Y16416651D01*
X24419750Y16409419D01*
X24398926Y16404203D01*
X24377691Y16401053D01*
X24356250Y16400000D01*
X23843750Y16400000D01*
X23822309Y16401053D01*
X23801074Y16404203D01*
X23780250Y16409419D01*
X23760038Y16416651D01*
X23740632Y16425830D01*
X23722219Y16436866D01*
X23704976Y16449654D01*
X23689070Y16464070D01*
X23674654Y16479976D01*
X23661866Y16497219D01*
X23650830Y16515632D01*
X23641651Y16535038D01*
X23634419Y16555250D01*
X23629203Y16576074D01*
X23626053Y16597309D01*
X23625000Y16618750D01*
X23625000Y17056250D01*
X23626053Y17077691D01*
X23629203Y17098926D01*
X23634419Y17119750D01*
X23641651Y17139962D01*
X23650830Y17159368D01*
X23661866Y17177781D01*
X23674654Y17195024D01*
X23689070Y17210930D01*
X23704976Y17225346D01*
X23722219Y17238134D01*
X23740632Y17249170D01*
X23760038Y17258349D01*
X23780250Y17265581D01*
X23801074Y17270797D01*
X23822309Y17273947D01*
X23843750Y17275000D01*
X24356250Y17275000D01*
X24377691Y17273947D01*
X24377691Y17273947D01*
G37*
D11*
X24100000Y16837500D03*
D14*
X37775000Y24680000D03*
X32725000Y24680000D03*
X37775000Y22140000D03*
X32725000Y22140000D03*
X37775000Y19600000D03*
X32725000Y19600000D03*
X37775000Y17060000D03*
X32725000Y17060000D03*
X37775000Y14520000D03*
X32725000Y14520000D03*
X37775000Y11980000D03*
X32725000Y11980000D03*
X37775000Y9440000D03*
X32725000Y9440000D03*
X37775000Y6900000D03*
X32725000Y6900000D03*
X37775000Y4360000D03*
X32725000Y4360000D03*
X37775000Y1820000D03*
X32725000Y1820000D03*
D10*
G36*
X23927691Y31893947D02*
G01*
X23948926Y31890797D01*
X23969750Y31885581D01*
X23989962Y31878349D01*
X24009368Y31869170D01*
X24027781Y31858134D01*
X24045024Y31845346D01*
X24060930Y31830930D01*
X24075346Y31815024D01*
X24088134Y31797781D01*
X24099170Y31779368D01*
X24108349Y31759962D01*
X24115581Y31739750D01*
X24120797Y31718926D01*
X24123947Y31697691D01*
X24125000Y31676250D01*
X24125000Y31163750D01*
X24123947Y31142309D01*
X24120797Y31121074D01*
X24115581Y31100250D01*
X24108349Y31080038D01*
X24099170Y31060632D01*
X24088134Y31042219D01*
X24075346Y31024976D01*
X24060930Y31009070D01*
X24045024Y30994654D01*
X24027781Y30981866D01*
X24009368Y30970830D01*
X23989962Y30961651D01*
X23969750Y30954419D01*
X23948926Y30949203D01*
X23927691Y30946053D01*
X23906250Y30945000D01*
X23468750Y30945000D01*
X23447309Y30946053D01*
X23426074Y30949203D01*
X23405250Y30954419D01*
X23385038Y30961651D01*
X23365632Y30970830D01*
X23347219Y30981866D01*
X23329976Y30994654D01*
X23314070Y31009070D01*
X23299654Y31024976D01*
X23286866Y31042219D01*
X23275830Y31060632D01*
X23266651Y31080038D01*
X23259419Y31100250D01*
X23254203Y31121074D01*
X23251053Y31142309D01*
X23250000Y31163750D01*
X23250000Y31676250D01*
X23251053Y31697691D01*
X23254203Y31718926D01*
X23259419Y31739750D01*
X23266651Y31759962D01*
X23275830Y31779368D01*
X23286866Y31797781D01*
X23299654Y31815024D01*
X23314070Y31830930D01*
X23329976Y31845346D01*
X23347219Y31858134D01*
X23365632Y31869170D01*
X23385038Y31878349D01*
X23405250Y31885581D01*
X23426074Y31890797D01*
X23447309Y31893947D01*
X23468750Y31895000D01*
X23906250Y31895000D01*
X23927691Y31893947D01*
X23927691Y31893947D01*
G37*
D11*
X23687500Y31420000D03*
D10*
G36*
X22352691Y31893947D02*
G01*
X22373926Y31890797D01*
X22394750Y31885581D01*
X22414962Y31878349D01*
X22434368Y31869170D01*
X22452781Y31858134D01*
X22470024Y31845346D01*
X22485930Y31830930D01*
X22500346Y31815024D01*
X22513134Y31797781D01*
X22524170Y31779368D01*
X22533349Y31759962D01*
X22540581Y31739750D01*
X22545797Y31718926D01*
X22548947Y31697691D01*
X22550000Y31676250D01*
X22550000Y31163750D01*
X22548947Y31142309D01*
X22545797Y31121074D01*
X22540581Y31100250D01*
X22533349Y31080038D01*
X22524170Y31060632D01*
X22513134Y31042219D01*
X22500346Y31024976D01*
X22485930Y31009070D01*
X22470024Y30994654D01*
X22452781Y30981866D01*
X22434368Y30970830D01*
X22414962Y30961651D01*
X22394750Y30954419D01*
X22373926Y30949203D01*
X22352691Y30946053D01*
X22331250Y30945000D01*
X21893750Y30945000D01*
X21872309Y30946053D01*
X21851074Y30949203D01*
X21830250Y30954419D01*
X21810038Y30961651D01*
X21790632Y30970830D01*
X21772219Y30981866D01*
X21754976Y30994654D01*
X21739070Y31009070D01*
X21724654Y31024976D01*
X21711866Y31042219D01*
X21700830Y31060632D01*
X21691651Y31080038D01*
X21684419Y31100250D01*
X21679203Y31121074D01*
X21676053Y31142309D01*
X21675000Y31163750D01*
X21675000Y31676250D01*
X21676053Y31697691D01*
X21679203Y31718926D01*
X21684419Y31739750D01*
X21691651Y31759962D01*
X21700830Y31779368D01*
X21711866Y31797781D01*
X21724654Y31815024D01*
X21739070Y31830930D01*
X21754976Y31845346D01*
X21772219Y31858134D01*
X21790632Y31869170D01*
X21810038Y31878349D01*
X21830250Y31885581D01*
X21851074Y31890797D01*
X21872309Y31893947D01*
X21893750Y31895000D01*
X22331250Y31895000D01*
X22352691Y31893947D01*
X22352691Y31893947D01*
G37*
D11*
X22112500Y31420000D03*
D10*
G36*
X20677691Y15698947D02*
G01*
X20698926Y15695797D01*
X20719750Y15690581D01*
X20739962Y15683349D01*
X20759368Y15674170D01*
X20777781Y15663134D01*
X20795024Y15650346D01*
X20810930Y15635930D01*
X20825346Y15620024D01*
X20838134Y15602781D01*
X20849170Y15584368D01*
X20858349Y15564962D01*
X20865581Y15544750D01*
X20870797Y15523926D01*
X20873947Y15502691D01*
X20875000Y15481250D01*
X20875000Y15043750D01*
X20873947Y15022309D01*
X20870797Y15001074D01*
X20865581Y14980250D01*
X20858349Y14960038D01*
X20849170Y14940632D01*
X20838134Y14922219D01*
X20825346Y14904976D01*
X20810930Y14889070D01*
X20795024Y14874654D01*
X20777781Y14861866D01*
X20759368Y14850830D01*
X20739962Y14841651D01*
X20719750Y14834419D01*
X20698926Y14829203D01*
X20677691Y14826053D01*
X20656250Y14825000D01*
X20143750Y14825000D01*
X20122309Y14826053D01*
X20101074Y14829203D01*
X20080250Y14834419D01*
X20060038Y14841651D01*
X20040632Y14850830D01*
X20022219Y14861866D01*
X20004976Y14874654D01*
X19989070Y14889070D01*
X19974654Y14904976D01*
X19961866Y14922219D01*
X19950830Y14940632D01*
X19941651Y14960038D01*
X19934419Y14980250D01*
X19929203Y15001074D01*
X19926053Y15022309D01*
X19925000Y15043750D01*
X19925000Y15481250D01*
X19926053Y15502691D01*
X19929203Y15523926D01*
X19934419Y15544750D01*
X19941651Y15564962D01*
X19950830Y15584368D01*
X19961866Y15602781D01*
X19974654Y15620024D01*
X19989070Y15635930D01*
X20004976Y15650346D01*
X20022219Y15663134D01*
X20040632Y15674170D01*
X20060038Y15683349D01*
X20080250Y15690581D01*
X20101074Y15695797D01*
X20122309Y15698947D01*
X20143750Y15700000D01*
X20656250Y15700000D01*
X20677691Y15698947D01*
X20677691Y15698947D01*
G37*
D11*
X20400000Y15262500D03*
D10*
G36*
X20677691Y17273947D02*
G01*
X20698926Y17270797D01*
X20719750Y17265581D01*
X20739962Y17258349D01*
X20759368Y17249170D01*
X20777781Y17238134D01*
X20795024Y17225346D01*
X20810930Y17210930D01*
X20825346Y17195024D01*
X20838134Y17177781D01*
X20849170Y17159368D01*
X20858349Y17139962D01*
X20865581Y17119750D01*
X20870797Y17098926D01*
X20873947Y17077691D01*
X20875000Y17056250D01*
X20875000Y16618750D01*
X20873947Y16597309D01*
X20870797Y16576074D01*
X20865581Y16555250D01*
X20858349Y16535038D01*
X20849170Y16515632D01*
X20838134Y16497219D01*
X20825346Y16479976D01*
X20810930Y16464070D01*
X20795024Y16449654D01*
X20777781Y16436866D01*
X20759368Y16425830D01*
X20739962Y16416651D01*
X20719750Y16409419D01*
X20698926Y16404203D01*
X20677691Y16401053D01*
X20656250Y16400000D01*
X20143750Y16400000D01*
X20122309Y16401053D01*
X20101074Y16404203D01*
X20080250Y16409419D01*
X20060038Y16416651D01*
X20040632Y16425830D01*
X20022219Y16436866D01*
X20004976Y16449654D01*
X19989070Y16464070D01*
X19974654Y16479976D01*
X19961866Y16497219D01*
X19950830Y16515632D01*
X19941651Y16535038D01*
X19934419Y16555250D01*
X19929203Y16576074D01*
X19926053Y16597309D01*
X19925000Y16618750D01*
X19925000Y17056250D01*
X19926053Y17077691D01*
X19929203Y17098926D01*
X19934419Y17119750D01*
X19941651Y17139962D01*
X19950830Y17159368D01*
X19961866Y17177781D01*
X19974654Y17195024D01*
X19989070Y17210930D01*
X20004976Y17225346D01*
X20022219Y17238134D01*
X20040632Y17249170D01*
X20060038Y17258349D01*
X20080250Y17265581D01*
X20101074Y17270797D01*
X20122309Y17273947D01*
X20143750Y17275000D01*
X20656250Y17275000D01*
X20677691Y17273947D01*
X20677691Y17273947D01*
G37*
D11*
X20400000Y16837500D03*
D10*
G36*
X22455142Y14198826D02*
G01*
X22478803Y14195316D01*
X22502007Y14189504D01*
X22524529Y14181446D01*
X22546153Y14171218D01*
X22566670Y14158921D01*
X22585883Y14144671D01*
X22603607Y14128607D01*
X22619671Y14110883D01*
X22633921Y14091670D01*
X22646218Y14071153D01*
X22656446Y14049529D01*
X22664504Y14027007D01*
X22670316Y14003803D01*
X22673826Y13980142D01*
X22675000Y13956250D01*
X22675000Y13043750D01*
X22673826Y13019858D01*
X22670316Y12996197D01*
X22664504Y12972993D01*
X22656446Y12950471D01*
X22646218Y12928847D01*
X22633921Y12908330D01*
X22619671Y12889117D01*
X22603607Y12871393D01*
X22585883Y12855329D01*
X22566670Y12841079D01*
X22546153Y12828782D01*
X22524529Y12818554D01*
X22502007Y12810496D01*
X22478803Y12804684D01*
X22455142Y12801174D01*
X22431250Y12800000D01*
X21943750Y12800000D01*
X21919858Y12801174D01*
X21896197Y12804684D01*
X21872993Y12810496D01*
X21850471Y12818554D01*
X21828847Y12828782D01*
X21808330Y12841079D01*
X21789117Y12855329D01*
X21771393Y12871393D01*
X21755329Y12889117D01*
X21741079Y12908330D01*
X21728782Y12928847D01*
X21718554Y12950471D01*
X21710496Y12972993D01*
X21704684Y12996197D01*
X21701174Y13019858D01*
X21700000Y13043750D01*
X21700000Y13956250D01*
X21701174Y13980142D01*
X21704684Y14003803D01*
X21710496Y14027007D01*
X21718554Y14049529D01*
X21728782Y14071153D01*
X21741079Y14091670D01*
X21755329Y14110883D01*
X21771393Y14128607D01*
X21789117Y14144671D01*
X21808330Y14158921D01*
X21828847Y14171218D01*
X21850471Y14181446D01*
X21872993Y14189504D01*
X21896197Y14195316D01*
X21919858Y14198826D01*
X21943750Y14200000D01*
X22431250Y14200000D01*
X22455142Y14198826D01*
X22455142Y14198826D01*
G37*
D12*
X22187500Y13500000D03*
D10*
G36*
X20580142Y14198826D02*
G01*
X20603803Y14195316D01*
X20627007Y14189504D01*
X20649529Y14181446D01*
X20671153Y14171218D01*
X20691670Y14158921D01*
X20710883Y14144671D01*
X20728607Y14128607D01*
X20744671Y14110883D01*
X20758921Y14091670D01*
X20771218Y14071153D01*
X20781446Y14049529D01*
X20789504Y14027007D01*
X20795316Y14003803D01*
X20798826Y13980142D01*
X20800000Y13956250D01*
X20800000Y13043750D01*
X20798826Y13019858D01*
X20795316Y12996197D01*
X20789504Y12972993D01*
X20781446Y12950471D01*
X20771218Y12928847D01*
X20758921Y12908330D01*
X20744671Y12889117D01*
X20728607Y12871393D01*
X20710883Y12855329D01*
X20691670Y12841079D01*
X20671153Y12828782D01*
X20649529Y12818554D01*
X20627007Y12810496D01*
X20603803Y12804684D01*
X20580142Y12801174D01*
X20556250Y12800000D01*
X20068750Y12800000D01*
X20044858Y12801174D01*
X20021197Y12804684D01*
X19997993Y12810496D01*
X19975471Y12818554D01*
X19953847Y12828782D01*
X19933330Y12841079D01*
X19914117Y12855329D01*
X19896393Y12871393D01*
X19880329Y12889117D01*
X19866079Y12908330D01*
X19853782Y12928847D01*
X19843554Y12950471D01*
X19835496Y12972993D01*
X19829684Y12996197D01*
X19826174Y13019858D01*
X19825000Y13043750D01*
X19825000Y13956250D01*
X19826174Y13980142D01*
X19829684Y14003803D01*
X19835496Y14027007D01*
X19843554Y14049529D01*
X19853782Y14071153D01*
X19866079Y14091670D01*
X19880329Y14110883D01*
X19896393Y14128607D01*
X19914117Y14144671D01*
X19933330Y14158921D01*
X19953847Y14171218D01*
X19975471Y14181446D01*
X19997993Y14189504D01*
X20021197Y14195316D01*
X20044858Y14198826D01*
X20068750Y14200000D01*
X20556250Y14200000D01*
X20580142Y14198826D01*
X20580142Y14198826D01*
G37*
D12*
X20312500Y13500000D03*
D10*
G36*
X10399504Y23523796D02*
G01*
X10423773Y23520196D01*
X10447571Y23514235D01*
X10470671Y23505970D01*
X10492849Y23495480D01*
X10513893Y23482867D01*
X10533598Y23468253D01*
X10551777Y23451777D01*
X10568253Y23433598D01*
X10582867Y23413893D01*
X10595480Y23392849D01*
X10605970Y23370671D01*
X10614235Y23347571D01*
X10620196Y23323773D01*
X10623796Y23299504D01*
X10625000Y23275000D01*
X10625000Y22525000D01*
X10623796Y22500496D01*
X10620196Y22476227D01*
X10614235Y22452429D01*
X10605970Y22429329D01*
X10595480Y22407151D01*
X10582867Y22386107D01*
X10568253Y22366402D01*
X10551777Y22348223D01*
X10533598Y22331747D01*
X10513893Y22317133D01*
X10492849Y22304520D01*
X10470671Y22294030D01*
X10447571Y22285765D01*
X10423773Y22279804D01*
X10399504Y22276204D01*
X10375000Y22275000D01*
X9125000Y22275000D01*
X9100496Y22276204D01*
X9076227Y22279804D01*
X9052429Y22285765D01*
X9029329Y22294030D01*
X9007151Y22304520D01*
X8986107Y22317133D01*
X8966402Y22331747D01*
X8948223Y22348223D01*
X8931747Y22366402D01*
X8917133Y22386107D01*
X8904520Y22407151D01*
X8894030Y22429329D01*
X8885765Y22452429D01*
X8879804Y22476227D01*
X8876204Y22500496D01*
X8875000Y22525000D01*
X8875000Y23275000D01*
X8876204Y23299504D01*
X8879804Y23323773D01*
X8885765Y23347571D01*
X8894030Y23370671D01*
X8904520Y23392849D01*
X8917133Y23413893D01*
X8931747Y23433598D01*
X8948223Y23451777D01*
X8966402Y23468253D01*
X8986107Y23482867D01*
X9007151Y23495480D01*
X9029329Y23505970D01*
X9052429Y23514235D01*
X9076227Y23520196D01*
X9100496Y23523796D01*
X9125000Y23525000D01*
X10375000Y23525000D01*
X10399504Y23523796D01*
X10399504Y23523796D01*
G37*
D15*
X9750000Y22900000D03*
D10*
G36*
X10399504Y20723796D02*
G01*
X10423773Y20720196D01*
X10447571Y20714235D01*
X10470671Y20705970D01*
X10492849Y20695480D01*
X10513893Y20682867D01*
X10533598Y20668253D01*
X10551777Y20651777D01*
X10568253Y20633598D01*
X10582867Y20613893D01*
X10595480Y20592849D01*
X10605970Y20570671D01*
X10614235Y20547571D01*
X10620196Y20523773D01*
X10623796Y20499504D01*
X10625000Y20475000D01*
X10625000Y19725000D01*
X10623796Y19700496D01*
X10620196Y19676227D01*
X10614235Y19652429D01*
X10605970Y19629329D01*
X10595480Y19607151D01*
X10582867Y19586107D01*
X10568253Y19566402D01*
X10551777Y19548223D01*
X10533598Y19531747D01*
X10513893Y19517133D01*
X10492849Y19504520D01*
X10470671Y19494030D01*
X10447571Y19485765D01*
X10423773Y19479804D01*
X10399504Y19476204D01*
X10375000Y19475000D01*
X9125000Y19475000D01*
X9100496Y19476204D01*
X9076227Y19479804D01*
X9052429Y19485765D01*
X9029329Y19494030D01*
X9007151Y19504520D01*
X8986107Y19517133D01*
X8966402Y19531747D01*
X8948223Y19548223D01*
X8931747Y19566402D01*
X8917133Y19586107D01*
X8904520Y19607151D01*
X8894030Y19629329D01*
X8885765Y19652429D01*
X8879804Y19676227D01*
X8876204Y19700496D01*
X8875000Y19725000D01*
X8875000Y20475000D01*
X8876204Y20499504D01*
X8879804Y20523773D01*
X8885765Y20547571D01*
X8894030Y20570671D01*
X8904520Y20592849D01*
X8917133Y20613893D01*
X8931747Y20633598D01*
X8948223Y20651777D01*
X8966402Y20668253D01*
X8986107Y20682867D01*
X9007151Y20695480D01*
X9029329Y20705970D01*
X9052429Y20714235D01*
X9076227Y20720196D01*
X9100496Y20723796D01*
X9125000Y20725000D01*
X10375000Y20725000D01*
X10399504Y20723796D01*
X10399504Y20723796D01*
G37*
D15*
X9750000Y20100000D03*
D10*
G36*
X29302691Y15898947D02*
G01*
X29323926Y15895797D01*
X29344750Y15890581D01*
X29364962Y15883349D01*
X29384368Y15874170D01*
X29402781Y15863134D01*
X29420024Y15850346D01*
X29435930Y15835930D01*
X29450346Y15820024D01*
X29463134Y15802781D01*
X29474170Y15784368D01*
X29483349Y15764962D01*
X29490581Y15744750D01*
X29495797Y15723926D01*
X29498947Y15702691D01*
X29500000Y15681250D01*
X29500000Y15243750D01*
X29498947Y15222309D01*
X29495797Y15201074D01*
X29490581Y15180250D01*
X29483349Y15160038D01*
X29474170Y15140632D01*
X29463134Y15122219D01*
X29450346Y15104976D01*
X29435930Y15089070D01*
X29420024Y15074654D01*
X29402781Y15061866D01*
X29384368Y15050830D01*
X29364962Y15041651D01*
X29344750Y15034419D01*
X29323926Y15029203D01*
X29302691Y15026053D01*
X29281250Y15025000D01*
X28768750Y15025000D01*
X28747309Y15026053D01*
X28726074Y15029203D01*
X28705250Y15034419D01*
X28685038Y15041651D01*
X28665632Y15050830D01*
X28647219Y15061866D01*
X28629976Y15074654D01*
X28614070Y15089070D01*
X28599654Y15104976D01*
X28586866Y15122219D01*
X28575830Y15140632D01*
X28566651Y15160038D01*
X28559419Y15180250D01*
X28554203Y15201074D01*
X28551053Y15222309D01*
X28550000Y15243750D01*
X28550000Y15681250D01*
X28551053Y15702691D01*
X28554203Y15723926D01*
X28559419Y15744750D01*
X28566651Y15764962D01*
X28575830Y15784368D01*
X28586866Y15802781D01*
X28599654Y15820024D01*
X28614070Y15835930D01*
X28629976Y15850346D01*
X28647219Y15863134D01*
X28665632Y15874170D01*
X28685038Y15883349D01*
X28705250Y15890581D01*
X28726074Y15895797D01*
X28747309Y15898947D01*
X28768750Y15900000D01*
X29281250Y15900000D01*
X29302691Y15898947D01*
X29302691Y15898947D01*
G37*
D11*
X29025000Y15462500D03*
D10*
G36*
X29302691Y17473947D02*
G01*
X29323926Y17470797D01*
X29344750Y17465581D01*
X29364962Y17458349D01*
X29384368Y17449170D01*
X29402781Y17438134D01*
X29420024Y17425346D01*
X29435930Y17410930D01*
X29450346Y17395024D01*
X29463134Y17377781D01*
X29474170Y17359368D01*
X29483349Y17339962D01*
X29490581Y17319750D01*
X29495797Y17298926D01*
X29498947Y17277691D01*
X29500000Y17256250D01*
X29500000Y16818750D01*
X29498947Y16797309D01*
X29495797Y16776074D01*
X29490581Y16755250D01*
X29483349Y16735038D01*
X29474170Y16715632D01*
X29463134Y16697219D01*
X29450346Y16679976D01*
X29435930Y16664070D01*
X29420024Y16649654D01*
X29402781Y16636866D01*
X29384368Y16625830D01*
X29364962Y16616651D01*
X29344750Y16609419D01*
X29323926Y16604203D01*
X29302691Y16601053D01*
X29281250Y16600000D01*
X28768750Y16600000D01*
X28747309Y16601053D01*
X28726074Y16604203D01*
X28705250Y16609419D01*
X28685038Y16616651D01*
X28665632Y16625830D01*
X28647219Y16636866D01*
X28629976Y16649654D01*
X28614070Y16664070D01*
X28599654Y16679976D01*
X28586866Y16697219D01*
X28575830Y16715632D01*
X28566651Y16735038D01*
X28559419Y16755250D01*
X28554203Y16776074D01*
X28551053Y16797309D01*
X28550000Y16818750D01*
X28550000Y17256250D01*
X28551053Y17277691D01*
X28554203Y17298926D01*
X28559419Y17319750D01*
X28566651Y17339962D01*
X28575830Y17359368D01*
X28586866Y17377781D01*
X28599654Y17395024D01*
X28614070Y17410930D01*
X28629976Y17425346D01*
X28647219Y17438134D01*
X28665632Y17449170D01*
X28685038Y17458349D01*
X28705250Y17465581D01*
X28726074Y17470797D01*
X28747309Y17473947D01*
X28768750Y17475000D01*
X29281250Y17475000D01*
X29302691Y17473947D01*
X29302691Y17473947D01*
G37*
D11*
X29025000Y17037500D03*
D16*
X20775000Y18650000D03*
X21425000Y18650000D03*
X22075000Y18650000D03*
X22725000Y18650000D03*
X23375000Y18650000D03*
X24025000Y18650000D03*
X24675000Y18650000D03*
X25325000Y18650000D03*
X25975000Y18650000D03*
X26625000Y18650000D03*
X27275000Y18650000D03*
X27925000Y18650000D03*
X28575000Y18650000D03*
X29225000Y18650000D03*
X29225000Y24350000D03*
X28575000Y24350000D03*
X27925000Y24350000D03*
X27275000Y24350000D03*
X26625000Y24350000D03*
X25975000Y24350000D03*
X25325000Y24350000D03*
X24675000Y24350000D03*
X24025000Y24350000D03*
X23375000Y24350000D03*
X22725000Y24350000D03*
X22075000Y24350000D03*
X21425000Y24350000D03*
X20775000Y24350000D03*
D10*
G36*
X27427691Y30393947D02*
G01*
X27448926Y30390797D01*
X27469750Y30385581D01*
X27489962Y30378349D01*
X27509368Y30369170D01*
X27527781Y30358134D01*
X27545024Y30345346D01*
X27560930Y30330930D01*
X27575346Y30315024D01*
X27588134Y30297781D01*
X27599170Y30279368D01*
X27608349Y30259962D01*
X27615581Y30239750D01*
X27620797Y30218926D01*
X27623947Y30197691D01*
X27625000Y30176250D01*
X27625000Y29663750D01*
X27623947Y29642309D01*
X27620797Y29621074D01*
X27615581Y29600250D01*
X27608349Y29580038D01*
X27599170Y29560632D01*
X27588134Y29542219D01*
X27575346Y29524976D01*
X27560930Y29509070D01*
X27545024Y29494654D01*
X27527781Y29481866D01*
X27509368Y29470830D01*
X27489962Y29461651D01*
X27469750Y29454419D01*
X27448926Y29449203D01*
X27427691Y29446053D01*
X27406250Y29445000D01*
X26968750Y29445000D01*
X26947309Y29446053D01*
X26926074Y29449203D01*
X26905250Y29454419D01*
X26885038Y29461651D01*
X26865632Y29470830D01*
X26847219Y29481866D01*
X26829976Y29494654D01*
X26814070Y29509070D01*
X26799654Y29524976D01*
X26786866Y29542219D01*
X26775830Y29560632D01*
X26766651Y29580038D01*
X26759419Y29600250D01*
X26754203Y29621074D01*
X26751053Y29642309D01*
X26750000Y29663750D01*
X26750000Y30176250D01*
X26751053Y30197691D01*
X26754203Y30218926D01*
X26759419Y30239750D01*
X26766651Y30259962D01*
X26775830Y30279368D01*
X26786866Y30297781D01*
X26799654Y30315024D01*
X26814070Y30330930D01*
X26829976Y30345346D01*
X26847219Y30358134D01*
X26865632Y30369170D01*
X26885038Y30378349D01*
X26905250Y30385581D01*
X26926074Y30390797D01*
X26947309Y30393947D01*
X26968750Y30395000D01*
X27406250Y30395000D01*
X27427691Y30393947D01*
X27427691Y30393947D01*
G37*
D11*
X27187500Y29920000D03*
D10*
G36*
X25852691Y30393947D02*
G01*
X25873926Y30390797D01*
X25894750Y30385581D01*
X25914962Y30378349D01*
X25934368Y30369170D01*
X25952781Y30358134D01*
X25970024Y30345346D01*
X25985930Y30330930D01*
X26000346Y30315024D01*
X26013134Y30297781D01*
X26024170Y30279368D01*
X26033349Y30259962D01*
X26040581Y30239750D01*
X26045797Y30218926D01*
X26048947Y30197691D01*
X26050000Y30176250D01*
X26050000Y29663750D01*
X26048947Y29642309D01*
X26045797Y29621074D01*
X26040581Y29600250D01*
X26033349Y29580038D01*
X26024170Y29560632D01*
X26013134Y29542219D01*
X26000346Y29524976D01*
X25985930Y29509070D01*
X25970024Y29494654D01*
X25952781Y29481866D01*
X25934368Y29470830D01*
X25914962Y29461651D01*
X25894750Y29454419D01*
X25873926Y29449203D01*
X25852691Y29446053D01*
X25831250Y29445000D01*
X25393750Y29445000D01*
X25372309Y29446053D01*
X25351074Y29449203D01*
X25330250Y29454419D01*
X25310038Y29461651D01*
X25290632Y29470830D01*
X25272219Y29481866D01*
X25254976Y29494654D01*
X25239070Y29509070D01*
X25224654Y29524976D01*
X25211866Y29542219D01*
X25200830Y29560632D01*
X25191651Y29580038D01*
X25184419Y29600250D01*
X25179203Y29621074D01*
X25176053Y29642309D01*
X25175000Y29663750D01*
X25175000Y30176250D01*
X25176053Y30197691D01*
X25179203Y30218926D01*
X25184419Y30239750D01*
X25191651Y30259962D01*
X25200830Y30279368D01*
X25211866Y30297781D01*
X25224654Y30315024D01*
X25239070Y30330930D01*
X25254976Y30345346D01*
X25272219Y30358134D01*
X25290632Y30369170D01*
X25310038Y30378349D01*
X25330250Y30385581D01*
X25351074Y30390797D01*
X25372309Y30393947D01*
X25393750Y30395000D01*
X25831250Y30395000D01*
X25852691Y30393947D01*
X25852691Y30393947D01*
G37*
D11*
X25612500Y29920000D03*
D10*
G36*
X23927691Y30393947D02*
G01*
X23948926Y30390797D01*
X23969750Y30385581D01*
X23989962Y30378349D01*
X24009368Y30369170D01*
X24027781Y30358134D01*
X24045024Y30345346D01*
X24060930Y30330930D01*
X24075346Y30315024D01*
X24088134Y30297781D01*
X24099170Y30279368D01*
X24108349Y30259962D01*
X24115581Y30239750D01*
X24120797Y30218926D01*
X24123947Y30197691D01*
X24125000Y30176250D01*
X24125000Y29663750D01*
X24123947Y29642309D01*
X24120797Y29621074D01*
X24115581Y29600250D01*
X24108349Y29580038D01*
X24099170Y29560632D01*
X24088134Y29542219D01*
X24075346Y29524976D01*
X24060930Y29509070D01*
X24045024Y29494654D01*
X24027781Y29481866D01*
X24009368Y29470830D01*
X23989962Y29461651D01*
X23969750Y29454419D01*
X23948926Y29449203D01*
X23927691Y29446053D01*
X23906250Y29445000D01*
X23468750Y29445000D01*
X23447309Y29446053D01*
X23426074Y29449203D01*
X23405250Y29454419D01*
X23385038Y29461651D01*
X23365632Y29470830D01*
X23347219Y29481866D01*
X23329976Y29494654D01*
X23314070Y29509070D01*
X23299654Y29524976D01*
X23286866Y29542219D01*
X23275830Y29560632D01*
X23266651Y29580038D01*
X23259419Y29600250D01*
X23254203Y29621074D01*
X23251053Y29642309D01*
X23250000Y29663750D01*
X23250000Y30176250D01*
X23251053Y30197691D01*
X23254203Y30218926D01*
X23259419Y30239750D01*
X23266651Y30259962D01*
X23275830Y30279368D01*
X23286866Y30297781D01*
X23299654Y30315024D01*
X23314070Y30330930D01*
X23329976Y30345346D01*
X23347219Y30358134D01*
X23365632Y30369170D01*
X23385038Y30378349D01*
X23405250Y30385581D01*
X23426074Y30390797D01*
X23447309Y30393947D01*
X23468750Y30395000D01*
X23906250Y30395000D01*
X23927691Y30393947D01*
X23927691Y30393947D01*
G37*
D11*
X23687500Y29920000D03*
D10*
G36*
X22352691Y30393947D02*
G01*
X22373926Y30390797D01*
X22394750Y30385581D01*
X22414962Y30378349D01*
X22434368Y30369170D01*
X22452781Y30358134D01*
X22470024Y30345346D01*
X22485930Y30330930D01*
X22500346Y30315024D01*
X22513134Y30297781D01*
X22524170Y30279368D01*
X22533349Y30259962D01*
X22540581Y30239750D01*
X22545797Y30218926D01*
X22548947Y30197691D01*
X22550000Y30176250D01*
X22550000Y29663750D01*
X22548947Y29642309D01*
X22545797Y29621074D01*
X22540581Y29600250D01*
X22533349Y29580038D01*
X22524170Y29560632D01*
X22513134Y29542219D01*
X22500346Y29524976D01*
X22485930Y29509070D01*
X22470024Y29494654D01*
X22452781Y29481866D01*
X22434368Y29470830D01*
X22414962Y29461651D01*
X22394750Y29454419D01*
X22373926Y29449203D01*
X22352691Y29446053D01*
X22331250Y29445000D01*
X21893750Y29445000D01*
X21872309Y29446053D01*
X21851074Y29449203D01*
X21830250Y29454419D01*
X21810038Y29461651D01*
X21790632Y29470830D01*
X21772219Y29481866D01*
X21754976Y29494654D01*
X21739070Y29509070D01*
X21724654Y29524976D01*
X21711866Y29542219D01*
X21700830Y29560632D01*
X21691651Y29580038D01*
X21684419Y29600250D01*
X21679203Y29621074D01*
X21676053Y29642309D01*
X21675000Y29663750D01*
X21675000Y30176250D01*
X21676053Y30197691D01*
X21679203Y30218926D01*
X21684419Y30239750D01*
X21691651Y30259962D01*
X21700830Y30279368D01*
X21711866Y30297781D01*
X21724654Y30315024D01*
X21739070Y30330930D01*
X21754976Y30345346D01*
X21772219Y30358134D01*
X21790632Y30369170D01*
X21810038Y30378349D01*
X21830250Y30385581D01*
X21851074Y30390797D01*
X21872309Y30393947D01*
X21893750Y30395000D01*
X22331250Y30395000D01*
X22352691Y30393947D01*
X22352691Y30393947D01*
G37*
D11*
X22112500Y29920000D03*
D10*
G36*
X25852691Y31893947D02*
G01*
X25873926Y31890797D01*
X25894750Y31885581D01*
X25914962Y31878349D01*
X25934368Y31869170D01*
X25952781Y31858134D01*
X25970024Y31845346D01*
X25985930Y31830930D01*
X26000346Y31815024D01*
X26013134Y31797781D01*
X26024170Y31779368D01*
X26033349Y31759962D01*
X26040581Y31739750D01*
X26045797Y31718926D01*
X26048947Y31697691D01*
X26050000Y31676250D01*
X26050000Y31163750D01*
X26048947Y31142309D01*
X26045797Y31121074D01*
X26040581Y31100250D01*
X26033349Y31080038D01*
X26024170Y31060632D01*
X26013134Y31042219D01*
X26000346Y31024976D01*
X25985930Y31009070D01*
X25970024Y30994654D01*
X25952781Y30981866D01*
X25934368Y30970830D01*
X25914962Y30961651D01*
X25894750Y30954419D01*
X25873926Y30949203D01*
X25852691Y30946053D01*
X25831250Y30945000D01*
X25393750Y30945000D01*
X25372309Y30946053D01*
X25351074Y30949203D01*
X25330250Y30954419D01*
X25310038Y30961651D01*
X25290632Y30970830D01*
X25272219Y30981866D01*
X25254976Y30994654D01*
X25239070Y31009070D01*
X25224654Y31024976D01*
X25211866Y31042219D01*
X25200830Y31060632D01*
X25191651Y31080038D01*
X25184419Y31100250D01*
X25179203Y31121074D01*
X25176053Y31142309D01*
X25175000Y31163750D01*
X25175000Y31676250D01*
X25176053Y31697691D01*
X25179203Y31718926D01*
X25184419Y31739750D01*
X25191651Y31759962D01*
X25200830Y31779368D01*
X25211866Y31797781D01*
X25224654Y31815024D01*
X25239070Y31830930D01*
X25254976Y31845346D01*
X25272219Y31858134D01*
X25290632Y31869170D01*
X25310038Y31878349D01*
X25330250Y31885581D01*
X25351074Y31890797D01*
X25372309Y31893947D01*
X25393750Y31895000D01*
X25831250Y31895000D01*
X25852691Y31893947D01*
X25852691Y31893947D01*
G37*
D11*
X25612500Y31420000D03*
D10*
G36*
X27427691Y31893947D02*
G01*
X27448926Y31890797D01*
X27469750Y31885581D01*
X27489962Y31878349D01*
X27509368Y31869170D01*
X27527781Y31858134D01*
X27545024Y31845346D01*
X27560930Y31830930D01*
X27575346Y31815024D01*
X27588134Y31797781D01*
X27599170Y31779368D01*
X27608349Y31759962D01*
X27615581Y31739750D01*
X27620797Y31718926D01*
X27623947Y31697691D01*
X27625000Y31676250D01*
X27625000Y31163750D01*
X27623947Y31142309D01*
X27620797Y31121074D01*
X27615581Y31100250D01*
X27608349Y31080038D01*
X27599170Y31060632D01*
X27588134Y31042219D01*
X27575346Y31024976D01*
X27560930Y31009070D01*
X27545024Y30994654D01*
X27527781Y30981866D01*
X27509368Y30970830D01*
X27489962Y30961651D01*
X27469750Y30954419D01*
X27448926Y30949203D01*
X27427691Y30946053D01*
X27406250Y30945000D01*
X26968750Y30945000D01*
X26947309Y30946053D01*
X26926074Y30949203D01*
X26905250Y30954419D01*
X26885038Y30961651D01*
X26865632Y30970830D01*
X26847219Y30981866D01*
X26829976Y30994654D01*
X26814070Y31009070D01*
X26799654Y31024976D01*
X26786866Y31042219D01*
X26775830Y31060632D01*
X26766651Y31080038D01*
X26759419Y31100250D01*
X26754203Y31121074D01*
X26751053Y31142309D01*
X26750000Y31163750D01*
X26750000Y31676250D01*
X26751053Y31697691D01*
X26754203Y31718926D01*
X26759419Y31739750D01*
X26766651Y31759962D01*
X26775830Y31779368D01*
X26786866Y31797781D01*
X26799654Y31815024D01*
X26814070Y31830930D01*
X26829976Y31845346D01*
X26847219Y31858134D01*
X26865632Y31869170D01*
X26885038Y31878349D01*
X26905250Y31885581D01*
X26926074Y31890797D01*
X26947309Y31893947D01*
X26968750Y31895000D01*
X27406250Y31895000D01*
X27427691Y31893947D01*
X27427691Y31893947D01*
G37*
D11*
X27187500Y31420000D03*
D10*
G36*
X22777691Y17273947D02*
G01*
X22798926Y17270797D01*
X22819750Y17265581D01*
X22839962Y17258349D01*
X22859368Y17249170D01*
X22877781Y17238134D01*
X22895024Y17225346D01*
X22910930Y17210930D01*
X22925346Y17195024D01*
X22938134Y17177781D01*
X22949170Y17159368D01*
X22958349Y17139962D01*
X22965581Y17119750D01*
X22970797Y17098926D01*
X22973947Y17077691D01*
X22975000Y17056250D01*
X22975000Y16618750D01*
X22973947Y16597309D01*
X22970797Y16576074D01*
X22965581Y16555250D01*
X22958349Y16535038D01*
X22949170Y16515632D01*
X22938134Y16497219D01*
X22925346Y16479976D01*
X22910930Y16464070D01*
X22895024Y16449654D01*
X22877781Y16436866D01*
X22859368Y16425830D01*
X22839962Y16416651D01*
X22819750Y16409419D01*
X22798926Y16404203D01*
X22777691Y16401053D01*
X22756250Y16400000D01*
X22243750Y16400000D01*
X22222309Y16401053D01*
X22201074Y16404203D01*
X22180250Y16409419D01*
X22160038Y16416651D01*
X22140632Y16425830D01*
X22122219Y16436866D01*
X22104976Y16449654D01*
X22089070Y16464070D01*
X22074654Y16479976D01*
X22061866Y16497219D01*
X22050830Y16515632D01*
X22041651Y16535038D01*
X22034419Y16555250D01*
X22029203Y16576074D01*
X22026053Y16597309D01*
X22025000Y16618750D01*
X22025000Y17056250D01*
X22026053Y17077691D01*
X22029203Y17098926D01*
X22034419Y17119750D01*
X22041651Y17139962D01*
X22050830Y17159368D01*
X22061866Y17177781D01*
X22074654Y17195024D01*
X22089070Y17210930D01*
X22104976Y17225346D01*
X22122219Y17238134D01*
X22140632Y17249170D01*
X22160038Y17258349D01*
X22180250Y17265581D01*
X22201074Y17270797D01*
X22222309Y17273947D01*
X22243750Y17275000D01*
X22756250Y17275000D01*
X22777691Y17273947D01*
X22777691Y17273947D01*
G37*
D11*
X22500000Y16837500D03*
D10*
G36*
X22777691Y15698947D02*
G01*
X22798926Y15695797D01*
X22819750Y15690581D01*
X22839962Y15683349D01*
X22859368Y15674170D01*
X22877781Y15663134D01*
X22895024Y15650346D01*
X22910930Y15635930D01*
X22925346Y15620024D01*
X22938134Y15602781D01*
X22949170Y15584368D01*
X22958349Y15564962D01*
X22965581Y15544750D01*
X22970797Y15523926D01*
X22973947Y15502691D01*
X22975000Y15481250D01*
X22975000Y15043750D01*
X22973947Y15022309D01*
X22970797Y15001074D01*
X22965581Y14980250D01*
X22958349Y14960038D01*
X22949170Y14940632D01*
X22938134Y14922219D01*
X22925346Y14904976D01*
X22910930Y14889070D01*
X22895024Y14874654D01*
X22877781Y14861866D01*
X22859368Y14850830D01*
X22839962Y14841651D01*
X22819750Y14834419D01*
X22798926Y14829203D01*
X22777691Y14826053D01*
X22756250Y14825000D01*
X22243750Y14825000D01*
X22222309Y14826053D01*
X22201074Y14829203D01*
X22180250Y14834419D01*
X22160038Y14841651D01*
X22140632Y14850830D01*
X22122219Y14861866D01*
X22104976Y14874654D01*
X22089070Y14889070D01*
X22074654Y14904976D01*
X22061866Y14922219D01*
X22050830Y14940632D01*
X22041651Y14960038D01*
X22034419Y14980250D01*
X22029203Y15001074D01*
X22026053Y15022309D01*
X22025000Y15043750D01*
X22025000Y15481250D01*
X22026053Y15502691D01*
X22029203Y15523926D01*
X22034419Y15544750D01*
X22041651Y15564962D01*
X22050830Y15584368D01*
X22061866Y15602781D01*
X22074654Y15620024D01*
X22089070Y15635930D01*
X22104976Y15650346D01*
X22122219Y15663134D01*
X22140632Y15674170D01*
X22160038Y15683349D01*
X22180250Y15690581D01*
X22201074Y15695797D01*
X22222309Y15698947D01*
X22243750Y15700000D01*
X22756250Y15700000D01*
X22777691Y15698947D01*
X22777691Y15698947D01*
G37*
D11*
X22500000Y15262500D03*
D10*
G36*
X23777691Y28123947D02*
G01*
X23798926Y28120797D01*
X23819750Y28115581D01*
X23839962Y28108349D01*
X23859368Y28099170D01*
X23877781Y28088134D01*
X23895024Y28075346D01*
X23910930Y28060930D01*
X23925346Y28045024D01*
X23938134Y28027781D01*
X23949170Y28009368D01*
X23958349Y27989962D01*
X23965581Y27969750D01*
X23970797Y27948926D01*
X23973947Y27927691D01*
X23975000Y27906250D01*
X23975000Y27468750D01*
X23973947Y27447309D01*
X23970797Y27426074D01*
X23965581Y27405250D01*
X23958349Y27385038D01*
X23949170Y27365632D01*
X23938134Y27347219D01*
X23925346Y27329976D01*
X23910930Y27314070D01*
X23895024Y27299654D01*
X23877781Y27286866D01*
X23859368Y27275830D01*
X23839962Y27266651D01*
X23819750Y27259419D01*
X23798926Y27254203D01*
X23777691Y27251053D01*
X23756250Y27250000D01*
X23243750Y27250000D01*
X23222309Y27251053D01*
X23201074Y27254203D01*
X23180250Y27259419D01*
X23160038Y27266651D01*
X23140632Y27275830D01*
X23122219Y27286866D01*
X23104976Y27299654D01*
X23089070Y27314070D01*
X23074654Y27329976D01*
X23061866Y27347219D01*
X23050830Y27365632D01*
X23041651Y27385038D01*
X23034419Y27405250D01*
X23029203Y27426074D01*
X23026053Y27447309D01*
X23025000Y27468750D01*
X23025000Y27906250D01*
X23026053Y27927691D01*
X23029203Y27948926D01*
X23034419Y27969750D01*
X23041651Y27989962D01*
X23050830Y28009368D01*
X23061866Y28027781D01*
X23074654Y28045024D01*
X23089070Y28060930D01*
X23104976Y28075346D01*
X23122219Y28088134D01*
X23140632Y28099170D01*
X23160038Y28108349D01*
X23180250Y28115581D01*
X23201074Y28120797D01*
X23222309Y28123947D01*
X23243750Y28125000D01*
X23756250Y28125000D01*
X23777691Y28123947D01*
X23777691Y28123947D01*
G37*
D11*
X23500000Y27687500D03*
D10*
G36*
X23777691Y26548947D02*
G01*
X23798926Y26545797D01*
X23819750Y26540581D01*
X23839962Y26533349D01*
X23859368Y26524170D01*
X23877781Y26513134D01*
X23895024Y26500346D01*
X23910930Y26485930D01*
X23925346Y26470024D01*
X23938134Y26452781D01*
X23949170Y26434368D01*
X23958349Y26414962D01*
X23965581Y26394750D01*
X23970797Y26373926D01*
X23973947Y26352691D01*
X23975000Y26331250D01*
X23975000Y25893750D01*
X23973947Y25872309D01*
X23970797Y25851074D01*
X23965581Y25830250D01*
X23958349Y25810038D01*
X23949170Y25790632D01*
X23938134Y25772219D01*
X23925346Y25754976D01*
X23910930Y25739070D01*
X23895024Y25724654D01*
X23877781Y25711866D01*
X23859368Y25700830D01*
X23839962Y25691651D01*
X23819750Y25684419D01*
X23798926Y25679203D01*
X23777691Y25676053D01*
X23756250Y25675000D01*
X23243750Y25675000D01*
X23222309Y25676053D01*
X23201074Y25679203D01*
X23180250Y25684419D01*
X23160038Y25691651D01*
X23140632Y25700830D01*
X23122219Y25711866D01*
X23104976Y25724654D01*
X23089070Y25739070D01*
X23074654Y25754976D01*
X23061866Y25772219D01*
X23050830Y25790632D01*
X23041651Y25810038D01*
X23034419Y25830250D01*
X23029203Y25851074D01*
X23026053Y25872309D01*
X23025000Y25893750D01*
X23025000Y26331250D01*
X23026053Y26352691D01*
X23029203Y26373926D01*
X23034419Y26394750D01*
X23041651Y26414962D01*
X23050830Y26434368D01*
X23061866Y26452781D01*
X23074654Y26470024D01*
X23089070Y26485930D01*
X23104976Y26500346D01*
X23122219Y26513134D01*
X23140632Y26524170D01*
X23160038Y26533349D01*
X23180250Y26540581D01*
X23201074Y26545797D01*
X23222309Y26548947D01*
X23243750Y26550000D01*
X23756250Y26550000D01*
X23777691Y26548947D01*
X23777691Y26548947D01*
G37*
D11*
X23500000Y26112500D03*
D10*
G36*
X26277691Y28223947D02*
G01*
X26298926Y28220797D01*
X26319750Y28215581D01*
X26339962Y28208349D01*
X26359368Y28199170D01*
X26377781Y28188134D01*
X26395024Y28175346D01*
X26410930Y28160930D01*
X26425346Y28145024D01*
X26438134Y28127781D01*
X26449170Y28109368D01*
X26458349Y28089962D01*
X26465581Y28069750D01*
X26470797Y28048926D01*
X26473947Y28027691D01*
X26475000Y28006250D01*
X26475000Y27568750D01*
X26473947Y27547309D01*
X26470797Y27526074D01*
X26465581Y27505250D01*
X26458349Y27485038D01*
X26449170Y27465632D01*
X26438134Y27447219D01*
X26425346Y27429976D01*
X26410930Y27414070D01*
X26395024Y27399654D01*
X26377781Y27386866D01*
X26359368Y27375830D01*
X26339962Y27366651D01*
X26319750Y27359419D01*
X26298926Y27354203D01*
X26277691Y27351053D01*
X26256250Y27350000D01*
X25743750Y27350000D01*
X25722309Y27351053D01*
X25701074Y27354203D01*
X25680250Y27359419D01*
X25660038Y27366651D01*
X25640632Y27375830D01*
X25622219Y27386866D01*
X25604976Y27399654D01*
X25589070Y27414070D01*
X25574654Y27429976D01*
X25561866Y27447219D01*
X25550830Y27465632D01*
X25541651Y27485038D01*
X25534419Y27505250D01*
X25529203Y27526074D01*
X25526053Y27547309D01*
X25525000Y27568750D01*
X25525000Y28006250D01*
X25526053Y28027691D01*
X25529203Y28048926D01*
X25534419Y28069750D01*
X25541651Y28089962D01*
X25550830Y28109368D01*
X25561866Y28127781D01*
X25574654Y28145024D01*
X25589070Y28160930D01*
X25604976Y28175346D01*
X25622219Y28188134D01*
X25640632Y28199170D01*
X25660038Y28208349D01*
X25680250Y28215581D01*
X25701074Y28220797D01*
X25722309Y28223947D01*
X25743750Y28225000D01*
X26256250Y28225000D01*
X26277691Y28223947D01*
X26277691Y28223947D01*
G37*
D11*
X26000000Y27787500D03*
D10*
G36*
X26277691Y26648947D02*
G01*
X26298926Y26645797D01*
X26319750Y26640581D01*
X26339962Y26633349D01*
X26359368Y26624170D01*
X26377781Y26613134D01*
X26395024Y26600346D01*
X26410930Y26585930D01*
X26425346Y26570024D01*
X26438134Y26552781D01*
X26449170Y26534368D01*
X26458349Y26514962D01*
X26465581Y26494750D01*
X26470797Y26473926D01*
X26473947Y26452691D01*
X26475000Y26431250D01*
X26475000Y25993750D01*
X26473947Y25972309D01*
X26470797Y25951074D01*
X26465581Y25930250D01*
X26458349Y25910038D01*
X26449170Y25890632D01*
X26438134Y25872219D01*
X26425346Y25854976D01*
X26410930Y25839070D01*
X26395024Y25824654D01*
X26377781Y25811866D01*
X26359368Y25800830D01*
X26339962Y25791651D01*
X26319750Y25784419D01*
X26298926Y25779203D01*
X26277691Y25776053D01*
X26256250Y25775000D01*
X25743750Y25775000D01*
X25722309Y25776053D01*
X25701074Y25779203D01*
X25680250Y25784419D01*
X25660038Y25791651D01*
X25640632Y25800830D01*
X25622219Y25811866D01*
X25604976Y25824654D01*
X25589070Y25839070D01*
X25574654Y25854976D01*
X25561866Y25872219D01*
X25550830Y25890632D01*
X25541651Y25910038D01*
X25534419Y25930250D01*
X25529203Y25951074D01*
X25526053Y25972309D01*
X25525000Y25993750D01*
X25525000Y26431250D01*
X25526053Y26452691D01*
X25529203Y26473926D01*
X25534419Y26494750D01*
X25541651Y26514962D01*
X25550830Y26534368D01*
X25561866Y26552781D01*
X25574654Y26570024D01*
X25589070Y26585930D01*
X25604976Y26600346D01*
X25622219Y26613134D01*
X25640632Y26624170D01*
X25660038Y26633349D01*
X25680250Y26640581D01*
X25701074Y26645797D01*
X25722309Y26648947D01*
X25743750Y26650000D01*
X26256250Y26650000D01*
X26277691Y26648947D01*
X26277691Y26648947D01*
G37*
D11*
X26000000Y26212500D03*
D10*
G36*
X19227691Y22898947D02*
G01*
X19248926Y22895797D01*
X19269750Y22890581D01*
X19289962Y22883349D01*
X19309368Y22874170D01*
X19327781Y22863134D01*
X19345024Y22850346D01*
X19360930Y22835930D01*
X19375346Y22820024D01*
X19388134Y22802781D01*
X19399170Y22784368D01*
X19408349Y22764962D01*
X19415581Y22744750D01*
X19420797Y22723926D01*
X19423947Y22702691D01*
X19425000Y22681250D01*
X19425000Y22243750D01*
X19423947Y22222309D01*
X19420797Y22201074D01*
X19415581Y22180250D01*
X19408349Y22160038D01*
X19399170Y22140632D01*
X19388134Y22122219D01*
X19375346Y22104976D01*
X19360930Y22089070D01*
X19345024Y22074654D01*
X19327781Y22061866D01*
X19309368Y22050830D01*
X19289962Y22041651D01*
X19269750Y22034419D01*
X19248926Y22029203D01*
X19227691Y22026053D01*
X19206250Y22025000D01*
X18693750Y22025000D01*
X18672309Y22026053D01*
X18651074Y22029203D01*
X18630250Y22034419D01*
X18610038Y22041651D01*
X18590632Y22050830D01*
X18572219Y22061866D01*
X18554976Y22074654D01*
X18539070Y22089070D01*
X18524654Y22104976D01*
X18511866Y22122219D01*
X18500830Y22140632D01*
X18491651Y22160038D01*
X18484419Y22180250D01*
X18479203Y22201074D01*
X18476053Y22222309D01*
X18475000Y22243750D01*
X18475000Y22681250D01*
X18476053Y22702691D01*
X18479203Y22723926D01*
X18484419Y22744750D01*
X18491651Y22764962D01*
X18500830Y22784368D01*
X18511866Y22802781D01*
X18524654Y22820024D01*
X18539070Y22835930D01*
X18554976Y22850346D01*
X18572219Y22863134D01*
X18590632Y22874170D01*
X18610038Y22883349D01*
X18630250Y22890581D01*
X18651074Y22895797D01*
X18672309Y22898947D01*
X18693750Y22900000D01*
X19206250Y22900000D01*
X19227691Y22898947D01*
X19227691Y22898947D01*
G37*
D11*
X18950000Y22462500D03*
D10*
G36*
X19227691Y24473947D02*
G01*
X19248926Y24470797D01*
X19269750Y24465581D01*
X19289962Y24458349D01*
X19309368Y24449170D01*
X19327781Y24438134D01*
X19345024Y24425346D01*
X19360930Y24410930D01*
X19375346Y24395024D01*
X19388134Y24377781D01*
X19399170Y24359368D01*
X19408349Y24339962D01*
X19415581Y24319750D01*
X19420797Y24298926D01*
X19423947Y24277691D01*
X19425000Y24256250D01*
X19425000Y23818750D01*
X19423947Y23797309D01*
X19420797Y23776074D01*
X19415581Y23755250D01*
X19408349Y23735038D01*
X19399170Y23715632D01*
X19388134Y23697219D01*
X19375346Y23679976D01*
X19360930Y23664070D01*
X19345024Y23649654D01*
X19327781Y23636866D01*
X19309368Y23625830D01*
X19289962Y23616651D01*
X19269750Y23609419D01*
X19248926Y23604203D01*
X19227691Y23601053D01*
X19206250Y23600000D01*
X18693750Y23600000D01*
X18672309Y23601053D01*
X18651074Y23604203D01*
X18630250Y23609419D01*
X18610038Y23616651D01*
X18590632Y23625830D01*
X18572219Y23636866D01*
X18554976Y23649654D01*
X18539070Y23664070D01*
X18524654Y23679976D01*
X18511866Y23697219D01*
X18500830Y23715632D01*
X18491651Y23735038D01*
X18484419Y23755250D01*
X18479203Y23776074D01*
X18476053Y23797309D01*
X18475000Y23818750D01*
X18475000Y24256250D01*
X18476053Y24277691D01*
X18479203Y24298926D01*
X18484419Y24319750D01*
X18491651Y24339962D01*
X18500830Y24359368D01*
X18511866Y24377781D01*
X18524654Y24395024D01*
X18539070Y24410930D01*
X18554976Y24425346D01*
X18572219Y24438134D01*
X18590632Y24449170D01*
X18610038Y24458349D01*
X18630250Y24465581D01*
X18651074Y24470797D01*
X18672309Y24473947D01*
X18693750Y24475000D01*
X19206250Y24475000D01*
X19227691Y24473947D01*
X19227691Y24473947D01*
G37*
D11*
X18950000Y24037500D03*
D10*
G36*
X30230142Y32173826D02*
G01*
X30253803Y32170316D01*
X30277007Y32164504D01*
X30299529Y32156446D01*
X30321153Y32146218D01*
X30341670Y32133921D01*
X30360883Y32119671D01*
X30378607Y32103607D01*
X30394671Y32085883D01*
X30408921Y32066670D01*
X30421218Y32046153D01*
X30431446Y32024529D01*
X30439504Y32002007D01*
X30445316Y31978803D01*
X30448826Y31955142D01*
X30450000Y31931250D01*
X30450000Y31443750D01*
X30448826Y31419858D01*
X30445316Y31396197D01*
X30439504Y31372993D01*
X30431446Y31350471D01*
X30421218Y31328847D01*
X30408921Y31308330D01*
X30394671Y31289117D01*
X30378607Y31271393D01*
X30360883Y31255329D01*
X30341670Y31241079D01*
X30321153Y31228782D01*
X30299529Y31218554D01*
X30277007Y31210496D01*
X30253803Y31204684D01*
X30230142Y31201174D01*
X30206250Y31200000D01*
X29293750Y31200000D01*
X29269858Y31201174D01*
X29246197Y31204684D01*
X29222993Y31210496D01*
X29200471Y31218554D01*
X29178847Y31228782D01*
X29158330Y31241079D01*
X29139117Y31255329D01*
X29121393Y31271393D01*
X29105329Y31289117D01*
X29091079Y31308330D01*
X29078782Y31328847D01*
X29068554Y31350471D01*
X29060496Y31372993D01*
X29054684Y31396197D01*
X29051174Y31419858D01*
X29050000Y31443750D01*
X29050000Y31931250D01*
X29051174Y31955142D01*
X29054684Y31978803D01*
X29060496Y32002007D01*
X29068554Y32024529D01*
X29078782Y32046153D01*
X29091079Y32066670D01*
X29105329Y32085883D01*
X29121393Y32103607D01*
X29139117Y32119671D01*
X29158330Y32133921D01*
X29178847Y32146218D01*
X29200471Y32156446D01*
X29222993Y32164504D01*
X29246197Y32170316D01*
X29269858Y32173826D01*
X29293750Y32175000D01*
X30206250Y32175000D01*
X30230142Y32173826D01*
X30230142Y32173826D01*
G37*
D12*
X29750000Y31687500D03*
D10*
G36*
X30230142Y30298826D02*
G01*
X30253803Y30295316D01*
X30277007Y30289504D01*
X30299529Y30281446D01*
X30321153Y30271218D01*
X30341670Y30258921D01*
X30360883Y30244671D01*
X30378607Y30228607D01*
X30394671Y30210883D01*
X30408921Y30191670D01*
X30421218Y30171153D01*
X30431446Y30149529D01*
X30439504Y30127007D01*
X30445316Y30103803D01*
X30448826Y30080142D01*
X30450000Y30056250D01*
X30450000Y29568750D01*
X30448826Y29544858D01*
X30445316Y29521197D01*
X30439504Y29497993D01*
X30431446Y29475471D01*
X30421218Y29453847D01*
X30408921Y29433330D01*
X30394671Y29414117D01*
X30378607Y29396393D01*
X30360883Y29380329D01*
X30341670Y29366079D01*
X30321153Y29353782D01*
X30299529Y29343554D01*
X30277007Y29335496D01*
X30253803Y29329684D01*
X30230142Y29326174D01*
X30206250Y29325000D01*
X29293750Y29325000D01*
X29269858Y29326174D01*
X29246197Y29329684D01*
X29222993Y29335496D01*
X29200471Y29343554D01*
X29178847Y29353782D01*
X29158330Y29366079D01*
X29139117Y29380329D01*
X29121393Y29396393D01*
X29105329Y29414117D01*
X29091079Y29433330D01*
X29078782Y29453847D01*
X29068554Y29475471D01*
X29060496Y29497993D01*
X29054684Y29521197D01*
X29051174Y29544858D01*
X29050000Y29568750D01*
X29050000Y30056250D01*
X29051174Y30080142D01*
X29054684Y30103803D01*
X29060496Y30127007D01*
X29068554Y30149529D01*
X29078782Y30171153D01*
X29091079Y30191670D01*
X29105329Y30210883D01*
X29121393Y30228607D01*
X29139117Y30244671D01*
X29158330Y30258921D01*
X29178847Y30271218D01*
X29200471Y30281446D01*
X29222993Y30289504D01*
X29246197Y30295316D01*
X29269858Y30298826D01*
X29293750Y30300000D01*
X30206250Y30300000D01*
X30230142Y30298826D01*
X30230142Y30298826D01*
G37*
D12*
X29750000Y29812500D03*
D10*
G36*
X27777691Y28223947D02*
G01*
X27798926Y28220797D01*
X27819750Y28215581D01*
X27839962Y28208349D01*
X27859368Y28199170D01*
X27877781Y28188134D01*
X27895024Y28175346D01*
X27910930Y28160930D01*
X27925346Y28145024D01*
X27938134Y28127781D01*
X27949170Y28109368D01*
X27958349Y28089962D01*
X27965581Y28069750D01*
X27970797Y28048926D01*
X27973947Y28027691D01*
X27975000Y28006250D01*
X27975000Y27568750D01*
X27973947Y27547309D01*
X27970797Y27526074D01*
X27965581Y27505250D01*
X27958349Y27485038D01*
X27949170Y27465632D01*
X27938134Y27447219D01*
X27925346Y27429976D01*
X27910930Y27414070D01*
X27895024Y27399654D01*
X27877781Y27386866D01*
X27859368Y27375830D01*
X27839962Y27366651D01*
X27819750Y27359419D01*
X27798926Y27354203D01*
X27777691Y27351053D01*
X27756250Y27350000D01*
X27243750Y27350000D01*
X27222309Y27351053D01*
X27201074Y27354203D01*
X27180250Y27359419D01*
X27160038Y27366651D01*
X27140632Y27375830D01*
X27122219Y27386866D01*
X27104976Y27399654D01*
X27089070Y27414070D01*
X27074654Y27429976D01*
X27061866Y27447219D01*
X27050830Y27465632D01*
X27041651Y27485038D01*
X27034419Y27505250D01*
X27029203Y27526074D01*
X27026053Y27547309D01*
X27025000Y27568750D01*
X27025000Y28006250D01*
X27026053Y28027691D01*
X27029203Y28048926D01*
X27034419Y28069750D01*
X27041651Y28089962D01*
X27050830Y28109368D01*
X27061866Y28127781D01*
X27074654Y28145024D01*
X27089070Y28160930D01*
X27104976Y28175346D01*
X27122219Y28188134D01*
X27140632Y28199170D01*
X27160038Y28208349D01*
X27180250Y28215581D01*
X27201074Y28220797D01*
X27222309Y28223947D01*
X27243750Y28225000D01*
X27756250Y28225000D01*
X27777691Y28223947D01*
X27777691Y28223947D01*
G37*
D11*
X27500000Y27787500D03*
D10*
G36*
X27777691Y26648947D02*
G01*
X27798926Y26645797D01*
X27819750Y26640581D01*
X27839962Y26633349D01*
X27859368Y26624170D01*
X27877781Y26613134D01*
X27895024Y26600346D01*
X27910930Y26585930D01*
X27925346Y26570024D01*
X27938134Y26552781D01*
X27949170Y26534368D01*
X27958349Y26514962D01*
X27965581Y26494750D01*
X27970797Y26473926D01*
X27973947Y26452691D01*
X27975000Y26431250D01*
X27975000Y25993750D01*
X27973947Y25972309D01*
X27970797Y25951074D01*
X27965581Y25930250D01*
X27958349Y25910038D01*
X27949170Y25890632D01*
X27938134Y25872219D01*
X27925346Y25854976D01*
X27910930Y25839070D01*
X27895024Y25824654D01*
X27877781Y25811866D01*
X27859368Y25800830D01*
X27839962Y25791651D01*
X27819750Y25784419D01*
X27798926Y25779203D01*
X27777691Y25776053D01*
X27756250Y25775000D01*
X27243750Y25775000D01*
X27222309Y25776053D01*
X27201074Y25779203D01*
X27180250Y25784419D01*
X27160038Y25791651D01*
X27140632Y25800830D01*
X27122219Y25811866D01*
X27104976Y25824654D01*
X27089070Y25839070D01*
X27074654Y25854976D01*
X27061866Y25872219D01*
X27050830Y25890632D01*
X27041651Y25910038D01*
X27034419Y25930250D01*
X27029203Y25951074D01*
X27026053Y25972309D01*
X27025000Y25993750D01*
X27025000Y26431250D01*
X27026053Y26452691D01*
X27029203Y26473926D01*
X27034419Y26494750D01*
X27041651Y26514962D01*
X27050830Y26534368D01*
X27061866Y26552781D01*
X27074654Y26570024D01*
X27089070Y26585930D01*
X27104976Y26600346D01*
X27122219Y26613134D01*
X27140632Y26624170D01*
X27160038Y26633349D01*
X27180250Y26640581D01*
X27201074Y26645797D01*
X27222309Y26648947D01*
X27243750Y26650000D01*
X27756250Y26650000D01*
X27777691Y26648947D01*
X27777691Y26648947D01*
G37*
D11*
X27500000Y26212500D03*
D10*
G36*
X30027691Y36023947D02*
G01*
X30048926Y36020797D01*
X30069750Y36015581D01*
X30089962Y36008349D01*
X30109368Y35999170D01*
X30127781Y35988134D01*
X30145024Y35975346D01*
X30160930Y35960930D01*
X30175346Y35945024D01*
X30188134Y35927781D01*
X30199170Y35909368D01*
X30208349Y35889962D01*
X30215581Y35869750D01*
X30220797Y35848926D01*
X30223947Y35827691D01*
X30225000Y35806250D01*
X30225000Y35368750D01*
X30223947Y35347309D01*
X30220797Y35326074D01*
X30215581Y35305250D01*
X30208349Y35285038D01*
X30199170Y35265632D01*
X30188134Y35247219D01*
X30175346Y35229976D01*
X30160930Y35214070D01*
X30145024Y35199654D01*
X30127781Y35186866D01*
X30109368Y35175830D01*
X30089962Y35166651D01*
X30069750Y35159419D01*
X30048926Y35154203D01*
X30027691Y35151053D01*
X30006250Y35150000D01*
X29493750Y35150000D01*
X29472309Y35151053D01*
X29451074Y35154203D01*
X29430250Y35159419D01*
X29410038Y35166651D01*
X29390632Y35175830D01*
X29372219Y35186866D01*
X29354976Y35199654D01*
X29339070Y35214070D01*
X29324654Y35229976D01*
X29311866Y35247219D01*
X29300830Y35265632D01*
X29291651Y35285038D01*
X29284419Y35305250D01*
X29279203Y35326074D01*
X29276053Y35347309D01*
X29275000Y35368750D01*
X29275000Y35806250D01*
X29276053Y35827691D01*
X29279203Y35848926D01*
X29284419Y35869750D01*
X29291651Y35889962D01*
X29300830Y35909368D01*
X29311866Y35927781D01*
X29324654Y35945024D01*
X29339070Y35960930D01*
X29354976Y35975346D01*
X29372219Y35988134D01*
X29390632Y35999170D01*
X29410038Y36008349D01*
X29430250Y36015581D01*
X29451074Y36020797D01*
X29472309Y36023947D01*
X29493750Y36025000D01*
X30006250Y36025000D01*
X30027691Y36023947D01*
X30027691Y36023947D01*
G37*
D11*
X29750000Y35587500D03*
D10*
G36*
X30027691Y34448947D02*
G01*
X30048926Y34445797D01*
X30069750Y34440581D01*
X30089962Y34433349D01*
X30109368Y34424170D01*
X30127781Y34413134D01*
X30145024Y34400346D01*
X30160930Y34385930D01*
X30175346Y34370024D01*
X30188134Y34352781D01*
X30199170Y34334368D01*
X30208349Y34314962D01*
X30215581Y34294750D01*
X30220797Y34273926D01*
X30223947Y34252691D01*
X30225000Y34231250D01*
X30225000Y33793750D01*
X30223947Y33772309D01*
X30220797Y33751074D01*
X30215581Y33730250D01*
X30208349Y33710038D01*
X30199170Y33690632D01*
X30188134Y33672219D01*
X30175346Y33654976D01*
X30160930Y33639070D01*
X30145024Y33624654D01*
X30127781Y33611866D01*
X30109368Y33600830D01*
X30089962Y33591651D01*
X30069750Y33584419D01*
X30048926Y33579203D01*
X30027691Y33576053D01*
X30006250Y33575000D01*
X29493750Y33575000D01*
X29472309Y33576053D01*
X29451074Y33579203D01*
X29430250Y33584419D01*
X29410038Y33591651D01*
X29390632Y33600830D01*
X29372219Y33611866D01*
X29354976Y33624654D01*
X29339070Y33639070D01*
X29324654Y33654976D01*
X29311866Y33672219D01*
X29300830Y33690632D01*
X29291651Y33710038D01*
X29284419Y33730250D01*
X29279203Y33751074D01*
X29276053Y33772309D01*
X29275000Y33793750D01*
X29275000Y34231250D01*
X29276053Y34252691D01*
X29279203Y34273926D01*
X29284419Y34294750D01*
X29291651Y34314962D01*
X29300830Y34334368D01*
X29311866Y34352781D01*
X29324654Y34370024D01*
X29339070Y34385930D01*
X29354976Y34400346D01*
X29372219Y34413134D01*
X29390632Y34424170D01*
X29410038Y34433349D01*
X29430250Y34440581D01*
X29451074Y34445797D01*
X29472309Y34448947D01*
X29493750Y34450000D01*
X30006250Y34450000D01*
X30027691Y34448947D01*
X30027691Y34448947D01*
G37*
D11*
X29750000Y34012500D03*
D10*
G36*
X35777691Y37723947D02*
G01*
X35798926Y37720797D01*
X35819750Y37715581D01*
X35839962Y37708349D01*
X35859368Y37699170D01*
X35877781Y37688134D01*
X35895024Y37675346D01*
X35910930Y37660930D01*
X35925346Y37645024D01*
X35938134Y37627781D01*
X35949170Y37609368D01*
X35958349Y37589962D01*
X35965581Y37569750D01*
X35970797Y37548926D01*
X35973947Y37527691D01*
X35975000Y37506250D01*
X35975000Y37068750D01*
X35973947Y37047309D01*
X35970797Y37026074D01*
X35965581Y37005250D01*
X35958349Y36985038D01*
X35949170Y36965632D01*
X35938134Y36947219D01*
X35925346Y36929976D01*
X35910930Y36914070D01*
X35895024Y36899654D01*
X35877781Y36886866D01*
X35859368Y36875830D01*
X35839962Y36866651D01*
X35819750Y36859419D01*
X35798926Y36854203D01*
X35777691Y36851053D01*
X35756250Y36850000D01*
X35243750Y36850000D01*
X35222309Y36851053D01*
X35201074Y36854203D01*
X35180250Y36859419D01*
X35160038Y36866651D01*
X35140632Y36875830D01*
X35122219Y36886866D01*
X35104976Y36899654D01*
X35089070Y36914070D01*
X35074654Y36929976D01*
X35061866Y36947219D01*
X35050830Y36965632D01*
X35041651Y36985038D01*
X35034419Y37005250D01*
X35029203Y37026074D01*
X35026053Y37047309D01*
X35025000Y37068750D01*
X35025000Y37506250D01*
X35026053Y37527691D01*
X35029203Y37548926D01*
X35034419Y37569750D01*
X35041651Y37589962D01*
X35050830Y37609368D01*
X35061866Y37627781D01*
X35074654Y37645024D01*
X35089070Y37660930D01*
X35104976Y37675346D01*
X35122219Y37688134D01*
X35140632Y37699170D01*
X35160038Y37708349D01*
X35180250Y37715581D01*
X35201074Y37720797D01*
X35222309Y37723947D01*
X35243750Y37725000D01*
X35756250Y37725000D01*
X35777691Y37723947D01*
X35777691Y37723947D01*
G37*
D11*
X35500000Y37287500D03*
D10*
G36*
X35777691Y36148947D02*
G01*
X35798926Y36145797D01*
X35819750Y36140581D01*
X35839962Y36133349D01*
X35859368Y36124170D01*
X35877781Y36113134D01*
X35895024Y36100346D01*
X35910930Y36085930D01*
X35925346Y36070024D01*
X35938134Y36052781D01*
X35949170Y36034368D01*
X35958349Y36014962D01*
X35965581Y35994750D01*
X35970797Y35973926D01*
X35973947Y35952691D01*
X35975000Y35931250D01*
X35975000Y35493750D01*
X35973947Y35472309D01*
X35970797Y35451074D01*
X35965581Y35430250D01*
X35958349Y35410038D01*
X35949170Y35390632D01*
X35938134Y35372219D01*
X35925346Y35354976D01*
X35910930Y35339070D01*
X35895024Y35324654D01*
X35877781Y35311866D01*
X35859368Y35300830D01*
X35839962Y35291651D01*
X35819750Y35284419D01*
X35798926Y35279203D01*
X35777691Y35276053D01*
X35756250Y35275000D01*
X35243750Y35275000D01*
X35222309Y35276053D01*
X35201074Y35279203D01*
X35180250Y35284419D01*
X35160038Y35291651D01*
X35140632Y35300830D01*
X35122219Y35311866D01*
X35104976Y35324654D01*
X35089070Y35339070D01*
X35074654Y35354976D01*
X35061866Y35372219D01*
X35050830Y35390632D01*
X35041651Y35410038D01*
X35034419Y35430250D01*
X35029203Y35451074D01*
X35026053Y35472309D01*
X35025000Y35493750D01*
X35025000Y35931250D01*
X35026053Y35952691D01*
X35029203Y35973926D01*
X35034419Y35994750D01*
X35041651Y36014962D01*
X35050830Y36034368D01*
X35061866Y36052781D01*
X35074654Y36070024D01*
X35089070Y36085930D01*
X35104976Y36100346D01*
X35122219Y36113134D01*
X35140632Y36124170D01*
X35160038Y36133349D01*
X35180250Y36140581D01*
X35201074Y36145797D01*
X35222309Y36148947D01*
X35243750Y36150000D01*
X35756250Y36150000D01*
X35777691Y36148947D01*
X35777691Y36148947D01*
G37*
D11*
X35500000Y35712500D03*
M02*
