G04 #@! TF.GenerationSoftware,KiCad,Pcbnew,5.1.0*
G04 #@! TF.CreationDate,2019-04-16T15:55:50+02:00*
G04 #@! TF.ProjectId,KXKM_audio_board_for_ESP32,4b584b4d-5f61-4756-9469-6f5f626f6172,1.0*
G04 #@! TF.SameCoordinates,PX82a7440PY6f94740*
G04 #@! TF.FileFunction,Soldermask,Top*
G04 #@! TF.FilePolarity,Negative*
%FSLAX46Y46*%
G04 Gerber Fmt 4.6, Leading zero omitted, Abs format (unit mm)*
G04 Created by KiCad (PCBNEW 5.1.0) date 2019-04-16 15:55:50*
%MOMM*%
%LPD*%
G04 APERTURE LIST*
%ADD10C,0.100000*%
G04 APERTURE END LIST*
D10*
G36*
X39340000Y1250000D02*
G01*
X36200000Y1250000D01*
X36200000Y2390000D01*
X39340000Y2390000D01*
X39340000Y1250000D01*
X39340000Y1250000D01*
G37*
G36*
X34300000Y1250000D02*
G01*
X31160000Y1250000D01*
X31160000Y2390000D01*
X34300000Y2390000D01*
X34300000Y1250000D01*
X34300000Y1250000D01*
G37*
G36*
X34300000Y3790000D02*
G01*
X31160000Y3790000D01*
X31160000Y4930000D01*
X34300000Y4930000D01*
X34300000Y3790000D01*
X34300000Y3790000D01*
G37*
G36*
X39340000Y3790000D02*
G01*
X36200000Y3790000D01*
X36200000Y4930000D01*
X39340000Y4930000D01*
X39340000Y3790000D01*
X39340000Y3790000D01*
G37*
G36*
X34300000Y6330000D02*
G01*
X31160000Y6330000D01*
X31160000Y7470000D01*
X34300000Y7470000D01*
X34300000Y6330000D01*
X34300000Y6330000D01*
G37*
G36*
X39340000Y6330000D02*
G01*
X36200000Y6330000D01*
X36200000Y7470000D01*
X39340000Y7470000D01*
X39340000Y6330000D01*
X39340000Y6330000D01*
G37*
G36*
X39340000Y8870000D02*
G01*
X36200000Y8870000D01*
X36200000Y10010000D01*
X39340000Y10010000D01*
X39340000Y8870000D01*
X39340000Y8870000D01*
G37*
G36*
X34300000Y8870000D02*
G01*
X31160000Y8870000D01*
X31160000Y10010000D01*
X34300000Y10010000D01*
X34300000Y8870000D01*
X34300000Y8870000D01*
G37*
G36*
X28074626Y15344295D02*
G01*
X28292839Y15253908D01*
X28433145Y15195791D01*
X28755802Y14980199D01*
X29030199Y14705802D01*
X29170173Y14496315D01*
X29245792Y14383143D01*
X29394295Y14024626D01*
X29470000Y13644030D01*
X29470000Y13255970D01*
X29394295Y12875374D01*
X29394294Y12875372D01*
X29245791Y12516855D01*
X29069337Y12252772D01*
X29064720Y12244134D01*
X29061875Y12234754D01*
X29060914Y12225000D01*
X29061875Y12215246D01*
X29064720Y12205866D01*
X29069337Y12197228D01*
X29230309Y11956315D01*
X29245792Y11933143D01*
X29394295Y11574626D01*
X29470000Y11194030D01*
X29470000Y10805970D01*
X29394295Y10425374D01*
X29394294Y10425372D01*
X29245791Y10066855D01*
X29030199Y9744198D01*
X28755802Y9469801D01*
X28433145Y9254209D01*
X28433144Y9254208D01*
X28433143Y9254208D01*
X28074626Y9105705D01*
X27694030Y9030000D01*
X27305970Y9030000D01*
X26925374Y9105705D01*
X26566857Y9254208D01*
X26566856Y9254208D01*
X26566855Y9254209D01*
X26244198Y9469801D01*
X25969801Y9744198D01*
X25754209Y10066855D01*
X25605706Y10425372D01*
X25605705Y10425374D01*
X25530000Y10805970D01*
X25530000Y11194030D01*
X25605705Y11574626D01*
X25754208Y11933143D01*
X25769691Y11956315D01*
X25930663Y12197228D01*
X25935280Y12205866D01*
X25938125Y12215246D01*
X25939086Y12225000D01*
X25938125Y12234754D01*
X25935280Y12244134D01*
X25930663Y12252772D01*
X25754209Y12516855D01*
X25605706Y12875372D01*
X25605705Y12875374D01*
X25530000Y13255970D01*
X25530000Y13644030D01*
X25605705Y14024626D01*
X25754208Y14383143D01*
X25829827Y14496315D01*
X25969801Y14705802D01*
X26244198Y14980199D01*
X26566855Y15195791D01*
X26707161Y15253908D01*
X26925374Y15344295D01*
X27305970Y15420000D01*
X27694030Y15420000D01*
X28074626Y15344295D01*
X28074626Y15344295D01*
G37*
G36*
X13180351Y10976689D02*
G01*
X13353773Y10924081D01*
X13513595Y10838655D01*
X13513597Y10838653D01*
X13653686Y10723686D01*
X13749734Y10606650D01*
X13768655Y10583595D01*
X13854081Y10423773D01*
X13906689Y10250351D01*
X13924451Y10070000D01*
X13906689Y9889649D01*
X13854081Y9716227D01*
X13768655Y9556405D01*
X13768653Y9556403D01*
X13653686Y9416314D01*
X13536650Y9320266D01*
X13513595Y9301345D01*
X13353773Y9215919D01*
X13180351Y9163311D01*
X13045196Y9150000D01*
X12154804Y9150000D01*
X12019649Y9163311D01*
X11846227Y9215919D01*
X11686405Y9301345D01*
X11663350Y9320266D01*
X11546314Y9416314D01*
X11431347Y9556403D01*
X11431345Y9556405D01*
X11345919Y9716227D01*
X11293311Y9889649D01*
X11275549Y10070000D01*
X11293311Y10250351D01*
X11345919Y10423773D01*
X11431345Y10583595D01*
X11450266Y10606650D01*
X11546314Y10723686D01*
X11686403Y10838653D01*
X11686405Y10838655D01*
X11846227Y10924081D01*
X12019649Y10976689D01*
X12154804Y10990000D01*
X13045196Y10990000D01*
X13180351Y10976689D01*
X13180351Y10976689D01*
G37*
G36*
X34300000Y11410000D02*
G01*
X31160000Y11410000D01*
X31160000Y12550000D01*
X34300000Y12550000D01*
X34300000Y11410000D01*
X34300000Y11410000D01*
G37*
G36*
X39340000Y11410000D02*
G01*
X36200000Y11410000D01*
X36200000Y12550000D01*
X39340000Y12550000D01*
X39340000Y11410000D01*
X39340000Y11410000D01*
G37*
G36*
X13180351Y13516689D02*
G01*
X13353773Y13464081D01*
X13513595Y13378655D01*
X13513597Y13378653D01*
X13653686Y13263686D01*
X13749734Y13146650D01*
X13768655Y13123595D01*
X13854081Y12963773D01*
X13906689Y12790351D01*
X13924451Y12610000D01*
X13906689Y12429649D01*
X13854081Y12256227D01*
X13768655Y12096405D01*
X13768653Y12096403D01*
X13653686Y11956314D01*
X13536650Y11860266D01*
X13513595Y11841345D01*
X13353773Y11755919D01*
X13180351Y11703311D01*
X13045196Y11690000D01*
X12154804Y11690000D01*
X12019649Y11703311D01*
X11846227Y11755919D01*
X11686405Y11841345D01*
X11663350Y11860266D01*
X11546314Y11956314D01*
X11431347Y12096403D01*
X11431345Y12096405D01*
X11345919Y12256227D01*
X11293311Y12429649D01*
X11275549Y12610000D01*
X11293311Y12790351D01*
X11345919Y12963773D01*
X11431345Y13123595D01*
X11450266Y13146650D01*
X11546314Y13263686D01*
X11686403Y13378653D01*
X11686405Y13378655D01*
X11846227Y13464081D01*
X12019649Y13516689D01*
X12154804Y13530000D01*
X13045196Y13530000D01*
X13180351Y13516689D01*
X13180351Y13516689D01*
G37*
G36*
X39340000Y13950000D02*
G01*
X36200000Y13950000D01*
X36200000Y15090000D01*
X39340000Y15090000D01*
X39340000Y13950000D01*
X39340000Y13950000D01*
G37*
G36*
X34300000Y13950000D02*
G01*
X31160000Y13950000D01*
X31160000Y15090000D01*
X34300000Y15090000D01*
X34300000Y13950000D01*
X34300000Y13950000D01*
G37*
G36*
X13180351Y16056689D02*
G01*
X13353773Y16004081D01*
X13513595Y15918655D01*
X13513597Y15918653D01*
X13653686Y15803686D01*
X13749734Y15686650D01*
X13768655Y15663595D01*
X13854081Y15503773D01*
X13906689Y15330351D01*
X13924451Y15150000D01*
X13906689Y14969649D01*
X13854081Y14796227D01*
X13768655Y14636405D01*
X13768653Y14636403D01*
X13653686Y14496314D01*
X13536650Y14400266D01*
X13513595Y14381345D01*
X13353773Y14295919D01*
X13180351Y14243311D01*
X13045196Y14230000D01*
X12154804Y14230000D01*
X12019649Y14243311D01*
X11846227Y14295919D01*
X11686405Y14381345D01*
X11663350Y14400266D01*
X11546314Y14496314D01*
X11431347Y14636403D01*
X11431345Y14636405D01*
X11345919Y14796227D01*
X11293311Y14969649D01*
X11275549Y15150000D01*
X11293311Y15330351D01*
X11345919Y15503773D01*
X11431345Y15663595D01*
X11450266Y15686650D01*
X11546314Y15803686D01*
X11686403Y15918653D01*
X11686405Y15918655D01*
X11846227Y16004081D01*
X12019649Y16056689D01*
X12154804Y16070000D01*
X13045196Y16070000D01*
X13180351Y16056689D01*
X13180351Y16056689D01*
G37*
G36*
X9900945Y17708859D02*
G01*
X9986494Y17682907D01*
X10046091Y17664829D01*
X10090680Y17640996D01*
X10179856Y17593331D01*
X10297106Y17497106D01*
X10393331Y17379857D01*
X10416651Y17336227D01*
X10464829Y17246092D01*
X10464829Y17246091D01*
X10508859Y17100946D01*
X10520000Y16987824D01*
X10520000Y15512176D01*
X10508859Y15399054D01*
X10482907Y15313505D01*
X10464829Y15253908D01*
X10464828Y15253907D01*
X10393331Y15120143D01*
X10297106Y15002894D01*
X10179857Y14906669D01*
X10090681Y14859004D01*
X10046092Y14835171D01*
X9986495Y14817093D01*
X9900946Y14791141D01*
X9750000Y14776275D01*
X9599055Y14791141D01*
X9513506Y14817093D01*
X9453909Y14835171D01*
X9409320Y14859004D01*
X9320144Y14906669D01*
X9202895Y15002894D01*
X9106670Y15120143D01*
X9035173Y15253907D01*
X9035172Y15253908D01*
X9017094Y15313505D01*
X8991142Y15399054D01*
X8980001Y15512176D01*
X8980000Y16987823D01*
X8991141Y17100945D01*
X9017093Y17186494D01*
X9035171Y17246091D01*
X9059004Y17290680D01*
X9106669Y17379856D01*
X9202894Y17497106D01*
X9320143Y17593331D01*
X9409319Y17640996D01*
X9453908Y17664829D01*
X9513505Y17682907D01*
X9599054Y17708859D01*
X9750000Y17723725D01*
X9900945Y17708859D01*
X9900945Y17708859D01*
G37*
G36*
X1650945Y17708859D02*
G01*
X1736494Y17682907D01*
X1796091Y17664829D01*
X1840680Y17640996D01*
X1929856Y17593331D01*
X2047106Y17497106D01*
X2143331Y17379857D01*
X2166651Y17336227D01*
X2214829Y17246092D01*
X2214829Y17246091D01*
X2258859Y17100946D01*
X2270000Y16987824D01*
X2270000Y15512176D01*
X2258859Y15399054D01*
X2232907Y15313505D01*
X2214829Y15253908D01*
X2214828Y15253907D01*
X2143331Y15120143D01*
X2047106Y15002894D01*
X1929857Y14906669D01*
X1840681Y14859004D01*
X1796092Y14835171D01*
X1736495Y14817093D01*
X1650946Y14791141D01*
X1500000Y14776275D01*
X1349055Y14791141D01*
X1263506Y14817093D01*
X1203909Y14835171D01*
X1159320Y14859004D01*
X1070144Y14906669D01*
X952895Y15002894D01*
X856670Y15120143D01*
X785173Y15253907D01*
X785172Y15253908D01*
X767094Y15313505D01*
X741142Y15399054D01*
X730001Y15512176D01*
X730000Y16987823D01*
X741141Y17100945D01*
X767093Y17186494D01*
X785171Y17246091D01*
X809004Y17290680D01*
X856669Y17379856D01*
X952894Y17497106D01*
X1070143Y17593331D01*
X1159319Y17640996D01*
X1203908Y17664829D01*
X1263505Y17682907D01*
X1349054Y17708859D01*
X1500000Y17723725D01*
X1650945Y17708859D01*
X1650945Y17708859D01*
G37*
G36*
X39340000Y16490000D02*
G01*
X36200000Y16490000D01*
X36200000Y17630000D01*
X39340000Y17630000D01*
X39340000Y16490000D01*
X39340000Y16490000D01*
G37*
G36*
X34300000Y16490000D02*
G01*
X31160000Y16490000D01*
X31160000Y17630000D01*
X34300000Y17630000D01*
X34300000Y16490000D01*
X34300000Y16490000D01*
G37*
G36*
X13180351Y18596689D02*
G01*
X13353773Y18544081D01*
X13513595Y18458655D01*
X13513597Y18458653D01*
X13653686Y18343686D01*
X13749734Y18226650D01*
X13768655Y18203595D01*
X13854081Y18043773D01*
X13906689Y17870351D01*
X13924451Y17690000D01*
X13906689Y17509649D01*
X13854081Y17336227D01*
X13768655Y17176405D01*
X13768653Y17176403D01*
X13653686Y17036314D01*
X13536650Y16940266D01*
X13513595Y16921345D01*
X13353773Y16835919D01*
X13180351Y16783311D01*
X13045196Y16770000D01*
X12154804Y16770000D01*
X12019649Y16783311D01*
X11846227Y16835919D01*
X11686405Y16921345D01*
X11663350Y16940266D01*
X11546314Y17036314D01*
X11431347Y17176403D01*
X11431345Y17176405D01*
X11345919Y17336227D01*
X11293311Y17509649D01*
X11275549Y17690000D01*
X11293311Y17870351D01*
X11345919Y18043773D01*
X11431345Y18203595D01*
X11450266Y18226650D01*
X11546314Y18343686D01*
X11686403Y18458653D01*
X11686405Y18458655D01*
X11846227Y18544081D01*
X12019649Y18596689D01*
X12154804Y18610000D01*
X13045196Y18610000D01*
X13180351Y18596689D01*
X13180351Y18596689D01*
G37*
G36*
X39340000Y19030000D02*
G01*
X36200000Y19030000D01*
X36200000Y20170000D01*
X39340000Y20170000D01*
X39340000Y19030000D01*
X39340000Y19030000D01*
G37*
G36*
X34300000Y19030000D02*
G01*
X31160000Y19030000D01*
X31160000Y20170000D01*
X34300000Y20170000D01*
X34300000Y19030000D01*
X34300000Y19030000D01*
G37*
G36*
X13180351Y21136689D02*
G01*
X13353773Y21084081D01*
X13513595Y20998655D01*
X13513597Y20998653D01*
X13653686Y20883686D01*
X13749734Y20766650D01*
X13768655Y20743595D01*
X13854081Y20583773D01*
X13906689Y20410351D01*
X13924451Y20230000D01*
X13906689Y20049649D01*
X13854081Y19876227D01*
X13768655Y19716405D01*
X13768653Y19716403D01*
X13653686Y19576314D01*
X13536650Y19480266D01*
X13513595Y19461345D01*
X13353773Y19375919D01*
X13180351Y19323311D01*
X13045196Y19310000D01*
X12154804Y19310000D01*
X12019649Y19323311D01*
X11846227Y19375919D01*
X11686405Y19461345D01*
X11663350Y19480266D01*
X11546314Y19576314D01*
X11431347Y19716403D01*
X11431345Y19716405D01*
X11345919Y19876227D01*
X11293311Y20049649D01*
X11275549Y20230000D01*
X11293311Y20410351D01*
X11345919Y20583773D01*
X11431345Y20743595D01*
X11450266Y20766650D01*
X11546314Y20883686D01*
X11686403Y20998653D01*
X11686405Y20998655D01*
X11846227Y21084081D01*
X12019649Y21136689D01*
X12154804Y21150000D01*
X13045196Y21150000D01*
X13180351Y21136689D01*
X13180351Y21136689D01*
G37*
G36*
X39340000Y21570000D02*
G01*
X36200000Y21570000D01*
X36200000Y22710000D01*
X39340000Y22710000D01*
X39340000Y21570000D01*
X39340000Y21570000D01*
G37*
G36*
X34300000Y21570000D02*
G01*
X31160000Y21570000D01*
X31160000Y22710000D01*
X34300000Y22710000D01*
X34300000Y21570000D01*
X34300000Y21570000D01*
G37*
G36*
X13180351Y23676689D02*
G01*
X13353773Y23624081D01*
X13513595Y23538655D01*
X13513597Y23538653D01*
X13653686Y23423686D01*
X13749734Y23306650D01*
X13768655Y23283595D01*
X13854081Y23123773D01*
X13906689Y22950351D01*
X13924451Y22770000D01*
X13906689Y22589649D01*
X13854081Y22416227D01*
X13768655Y22256405D01*
X13768653Y22256403D01*
X13653686Y22116314D01*
X13536650Y22020266D01*
X13513595Y22001345D01*
X13353773Y21915919D01*
X13180351Y21863311D01*
X13045196Y21850000D01*
X12154804Y21850000D01*
X12019649Y21863311D01*
X11846227Y21915919D01*
X11686405Y22001345D01*
X11663350Y22020266D01*
X11546314Y22116314D01*
X11431347Y22256403D01*
X11431345Y22256405D01*
X11345919Y22416227D01*
X11293311Y22589649D01*
X11275549Y22770000D01*
X11293311Y22950351D01*
X11345919Y23123773D01*
X11431345Y23283595D01*
X11450266Y23306650D01*
X11546314Y23423686D01*
X11686403Y23538653D01*
X11686405Y23538655D01*
X11846227Y23624081D01*
X12019649Y23676689D01*
X12154804Y23690000D01*
X13045196Y23690000D01*
X13180351Y23676689D01*
X13180351Y23676689D01*
G37*
G36*
X39340000Y24110000D02*
G01*
X36200000Y24110000D01*
X36200000Y25250000D01*
X39340000Y25250000D01*
X39340000Y24110000D01*
X39340000Y24110000D01*
G37*
G36*
X34300000Y24110000D02*
G01*
X31160000Y24110000D01*
X31160000Y25250000D01*
X34300000Y25250000D01*
X34300000Y24110000D01*
X34300000Y24110000D01*
G37*
G36*
X13180351Y26216689D02*
G01*
X13353773Y26164081D01*
X13513595Y26078655D01*
X13513597Y26078653D01*
X13653686Y25963686D01*
X13749734Y25846650D01*
X13768655Y25823595D01*
X13854081Y25663773D01*
X13906689Y25490351D01*
X13924451Y25310000D01*
X13906689Y25129649D01*
X13854081Y24956227D01*
X13768655Y24796405D01*
X13768653Y24796403D01*
X13653686Y24656314D01*
X13536650Y24560266D01*
X13513595Y24541345D01*
X13353773Y24455919D01*
X13180351Y24403311D01*
X13045196Y24390000D01*
X12154804Y24390000D01*
X12019649Y24403311D01*
X11846227Y24455919D01*
X11686405Y24541345D01*
X11663350Y24560266D01*
X11546314Y24656314D01*
X11431347Y24796403D01*
X11431345Y24796405D01*
X11345919Y24956227D01*
X11293311Y25129649D01*
X11275549Y25310000D01*
X11293311Y25490351D01*
X11345919Y25663773D01*
X11431345Y25823595D01*
X11450266Y25846650D01*
X11546314Y25963686D01*
X11686403Y26078653D01*
X11686405Y26078655D01*
X11846227Y26164081D01*
X12019649Y26216689D01*
X12154804Y26230000D01*
X13045196Y26230000D01*
X13180351Y26216689D01*
X13180351Y26216689D01*
G37*
G36*
X28074626Y28944295D02*
G01*
X28074629Y28944294D01*
X28074628Y28944294D01*
X28433145Y28795791D01*
X28755802Y28580199D01*
X29030199Y28305802D01*
X29214249Y28030351D01*
X29245792Y27983143D01*
X29394295Y27624626D01*
X29470000Y27244030D01*
X29470000Y26855970D01*
X29394295Y26475374D01*
X29394294Y26475372D01*
X29245791Y26116855D01*
X29030199Y25794198D01*
X28755802Y25519801D01*
X28433145Y25304209D01*
X28433144Y25304208D01*
X28433143Y25304208D01*
X28074626Y25155705D01*
X27694030Y25080000D01*
X27305970Y25080000D01*
X26925374Y25155705D01*
X26566857Y25304208D01*
X26566856Y25304208D01*
X26566855Y25304209D01*
X26244198Y25519801D01*
X25969801Y25794198D01*
X25754209Y26116855D01*
X25605706Y26475372D01*
X25605705Y26475374D01*
X25530000Y26855970D01*
X25530000Y27244030D01*
X25605705Y27624626D01*
X25754208Y27983143D01*
X25785751Y28030351D01*
X25969801Y28305802D01*
X26244198Y28580199D01*
X26566855Y28795791D01*
X26925372Y28944294D01*
X26925371Y28944294D01*
X26925374Y28944295D01*
X27305970Y29020000D01*
X27694030Y29020000D01*
X28074626Y28944295D01*
X28074626Y28944295D01*
G37*
G36*
X13180351Y28756689D02*
G01*
X13353773Y28704081D01*
X13513595Y28618655D01*
X13513597Y28618653D01*
X13653686Y28503686D01*
X13749734Y28386650D01*
X13768655Y28363595D01*
X13854081Y28203773D01*
X13906689Y28030351D01*
X13924451Y27850000D01*
X13906689Y27669649D01*
X13854081Y27496227D01*
X13768655Y27336405D01*
X13768653Y27336403D01*
X13653686Y27196314D01*
X13536650Y27100266D01*
X13513595Y27081345D01*
X13353773Y26995919D01*
X13180351Y26943311D01*
X13045196Y26930000D01*
X12154804Y26930000D01*
X12019649Y26943311D01*
X11846227Y26995919D01*
X11686405Y27081345D01*
X11663350Y27100266D01*
X11546314Y27196314D01*
X11431347Y27336403D01*
X11431345Y27336405D01*
X11345919Y27496227D01*
X11293311Y27669649D01*
X11275549Y27850000D01*
X11293311Y28030351D01*
X11345919Y28203773D01*
X11431345Y28363595D01*
X11450266Y28386650D01*
X11546314Y28503686D01*
X11686403Y28618653D01*
X11686405Y28618655D01*
X11846227Y28704081D01*
X12019649Y28756689D01*
X12154804Y28770000D01*
X13045196Y28770000D01*
X13180351Y28756689D01*
X13180351Y28756689D01*
G37*
G36*
X7737119Y31355823D02*
G01*
X8041040Y31229935D01*
X8041041Y31229934D01*
X8314563Y31047173D01*
X8547173Y30814563D01*
X8547174Y30814561D01*
X8729935Y30541040D01*
X8855823Y30237119D01*
X8920000Y29914482D01*
X8920000Y29585518D01*
X8855823Y29262881D01*
X8729935Y28958960D01*
X8729934Y28958959D01*
X8547173Y28685437D01*
X8314563Y28452827D01*
X8181020Y28363597D01*
X8041040Y28270065D01*
X7737119Y28144177D01*
X7414482Y28080000D01*
X7085518Y28080000D01*
X6762881Y28144177D01*
X6458960Y28270065D01*
X6318980Y28363597D01*
X6185437Y28452827D01*
X5952827Y28685437D01*
X5770066Y28958959D01*
X5770065Y28958960D01*
X5644177Y29262881D01*
X5580000Y29585518D01*
X5580000Y29914482D01*
X5644177Y30237119D01*
X5770065Y30541040D01*
X5952826Y30814561D01*
X5952827Y30814563D01*
X6185437Y31047173D01*
X6458959Y31229934D01*
X6458960Y31229935D01*
X6762881Y31355823D01*
X7085518Y31420000D01*
X7414482Y31420000D01*
X7737119Y31355823D01*
X7737119Y31355823D01*
G37*
G36*
X35737119Y31355823D02*
G01*
X36041040Y31229935D01*
X36041041Y31229934D01*
X36314563Y31047173D01*
X36547173Y30814563D01*
X36547174Y30814561D01*
X36729935Y30541040D01*
X36855823Y30237119D01*
X36920000Y29914482D01*
X36920000Y29585518D01*
X36855823Y29262881D01*
X36729935Y28958960D01*
X36729934Y28958959D01*
X36547173Y28685437D01*
X36314563Y28452827D01*
X36181020Y28363597D01*
X36041040Y28270065D01*
X35737119Y28144177D01*
X35414482Y28080000D01*
X35085518Y28080000D01*
X34762881Y28144177D01*
X34458960Y28270065D01*
X34318980Y28363597D01*
X34185437Y28452827D01*
X33952827Y28685437D01*
X33770066Y28958959D01*
X33770065Y28958960D01*
X33644177Y29262881D01*
X33580000Y29585518D01*
X33580000Y29914482D01*
X33644177Y30237119D01*
X33770065Y30541040D01*
X33952826Y30814561D01*
X33952827Y30814563D01*
X34185437Y31047173D01*
X34458959Y31229934D01*
X34458960Y31229935D01*
X34762881Y31355823D01*
X35085518Y31420000D01*
X35414482Y31420000D01*
X35737119Y31355823D01*
X35737119Y31355823D01*
G37*
G36*
X13180351Y31296689D02*
G01*
X13353773Y31244081D01*
X13513595Y31158655D01*
X13513597Y31158653D01*
X13653686Y31043686D01*
X13749734Y30926650D01*
X13768655Y30903595D01*
X13854081Y30743773D01*
X13906689Y30570351D01*
X13924451Y30390000D01*
X13906689Y30209649D01*
X13854081Y30036227D01*
X13768655Y29876405D01*
X13768653Y29876403D01*
X13653686Y29736314D01*
X13536650Y29640266D01*
X13513595Y29621345D01*
X13353773Y29535919D01*
X13180351Y29483311D01*
X13045196Y29470000D01*
X12154804Y29470000D01*
X12019649Y29483311D01*
X11846227Y29535919D01*
X11686405Y29621345D01*
X11663350Y29640266D01*
X11546314Y29736314D01*
X11431347Y29876403D01*
X11431345Y29876405D01*
X11345919Y30036227D01*
X11293311Y30209649D01*
X11275549Y30390000D01*
X11293311Y30570351D01*
X11345919Y30743773D01*
X11431345Y30903595D01*
X11450266Y30926650D01*
X11546314Y31043686D01*
X11686403Y31158653D01*
X11686405Y31158655D01*
X11846227Y31244081D01*
X12019649Y31296689D01*
X12154804Y31310000D01*
X13045196Y31310000D01*
X13180351Y31296689D01*
X13180351Y31296689D01*
G37*
G36*
X28074626Y33894295D02*
G01*
X28213701Y33836688D01*
X28433145Y33745791D01*
X28755802Y33530199D01*
X29030199Y33255802D01*
X29030200Y33255800D01*
X29245792Y32933143D01*
X29394295Y32574626D01*
X29470000Y32194030D01*
X29470000Y31805970D01*
X29394295Y31425374D01*
X29346505Y31310000D01*
X29245791Y31066855D01*
X29030199Y30744198D01*
X28755802Y30469801D01*
X28433145Y30254209D01*
X28433144Y30254208D01*
X28433143Y30254208D01*
X28074626Y30105705D01*
X27694030Y30030000D01*
X27305970Y30030000D01*
X26925374Y30105705D01*
X26566857Y30254208D01*
X26566856Y30254208D01*
X26566855Y30254209D01*
X26244198Y30469801D01*
X25969801Y30744198D01*
X25754209Y31066855D01*
X25653495Y31310000D01*
X25605705Y31425374D01*
X25530000Y31805970D01*
X25530000Y32194030D01*
X25605705Y32574626D01*
X25754208Y32933143D01*
X25969800Y33255800D01*
X25969801Y33255802D01*
X26244198Y33530199D01*
X26566855Y33745791D01*
X26786299Y33836688D01*
X26925374Y33894295D01*
X27305970Y33970000D01*
X27694030Y33970000D01*
X28074626Y33894295D01*
X28074626Y33894295D01*
G37*
G36*
X13180351Y33836689D02*
G01*
X13353773Y33784081D01*
X13513595Y33698655D01*
X13513597Y33698653D01*
X13653686Y33583686D01*
X13749734Y33466650D01*
X13768655Y33443595D01*
X13854081Y33283773D01*
X13906689Y33110351D01*
X13924451Y32930000D01*
X13906689Y32749649D01*
X13854081Y32576227D01*
X13768655Y32416405D01*
X13768653Y32416403D01*
X13653686Y32276314D01*
X13553419Y32194028D01*
X13513595Y32161345D01*
X13353773Y32075919D01*
X13180351Y32023311D01*
X13045196Y32010000D01*
X12154804Y32010000D01*
X12019649Y32023311D01*
X11846227Y32075919D01*
X11686405Y32161345D01*
X11646581Y32194028D01*
X11546314Y32276314D01*
X11431347Y32416403D01*
X11431345Y32416405D01*
X11345919Y32576227D01*
X11293311Y32749649D01*
X11275549Y32930000D01*
X11293311Y33110351D01*
X11345919Y33283773D01*
X11431345Y33443595D01*
X11450266Y33466650D01*
X11546314Y33583686D01*
X11686403Y33698653D01*
X11686405Y33698655D01*
X11846227Y33784081D01*
X12019649Y33836689D01*
X12154804Y33850000D01*
X13045196Y33850000D01*
X13180351Y33836689D01*
X13180351Y33836689D01*
G37*
G36*
X3819870Y34680130D02*
G01*
X680130Y34680130D01*
X680130Y37819870D01*
X3819870Y37819870D01*
X3819870Y34680130D01*
X3819870Y34680130D01*
G37*
G36*
X6315717Y37799760D02*
G01*
X6517914Y37759541D01*
X6803612Y37641201D01*
X7060734Y37469398D01*
X7279398Y37250734D01*
X7451201Y36993612D01*
X7569541Y36707914D01*
X7574679Y36682084D01*
X7628383Y36412098D01*
X7629870Y36404619D01*
X7629870Y36095381D01*
X7569541Y35792086D01*
X7451201Y35506388D01*
X7279398Y35249266D01*
X7060734Y35030602D01*
X6803612Y34858799D01*
X6517914Y34740459D01*
X6315717Y34700240D01*
X6214620Y34680130D01*
X5905380Y34680130D01*
X5804283Y34700240D01*
X5602086Y34740459D01*
X5316388Y34858799D01*
X5059266Y35030602D01*
X4840602Y35249266D01*
X4668799Y35506388D01*
X4550459Y35792086D01*
X4490130Y36095381D01*
X4490130Y36404619D01*
X4491618Y36412098D01*
X4545321Y36682084D01*
X4550459Y36707914D01*
X4668799Y36993612D01*
X4840602Y37250734D01*
X5059266Y37469398D01*
X5316388Y37641201D01*
X5602086Y37759541D01*
X5804283Y37799760D01*
X5905380Y37819870D01*
X6214620Y37819870D01*
X6315717Y37799760D01*
X6315717Y37799760D01*
G37*
G36*
X10125717Y37799760D02*
G01*
X10327914Y37759541D01*
X10613612Y37641201D01*
X10870734Y37469398D01*
X11089398Y37250734D01*
X11261201Y36993612D01*
X11379541Y36707914D01*
X11384679Y36682084D01*
X11438383Y36412098D01*
X11439870Y36404619D01*
X11439870Y36095381D01*
X11379541Y35792086D01*
X11261201Y35506388D01*
X11089398Y35249266D01*
X10870734Y35030602D01*
X10613612Y34858799D01*
X10327914Y34740459D01*
X10125717Y34700240D01*
X10024620Y34680130D01*
X9715380Y34680130D01*
X9614283Y34700240D01*
X9412086Y34740459D01*
X9126388Y34858799D01*
X8869266Y35030602D01*
X8650602Y35249266D01*
X8478799Y35506388D01*
X8360459Y35792086D01*
X8300130Y36095381D01*
X8300130Y36404619D01*
X8301618Y36412098D01*
X8355321Y36682084D01*
X8360459Y36707914D01*
X8478799Y36993612D01*
X8650602Y37250734D01*
X8869266Y37469398D01*
X9126388Y37641201D01*
X9412086Y37759541D01*
X9614283Y37799760D01*
X9715380Y37819870D01*
X10024620Y37819870D01*
X10125717Y37799760D01*
X10125717Y37799760D01*
G37*
G36*
X13935717Y37799760D02*
G01*
X14137914Y37759541D01*
X14423612Y37641201D01*
X14680734Y37469398D01*
X14899398Y37250734D01*
X15071201Y36993612D01*
X15189541Y36707914D01*
X15194679Y36682084D01*
X15248383Y36412098D01*
X15249870Y36404619D01*
X15249870Y36095381D01*
X15189541Y35792086D01*
X15071201Y35506388D01*
X14899398Y35249266D01*
X14680734Y35030602D01*
X14423612Y34858799D01*
X14137914Y34740459D01*
X13935717Y34700240D01*
X13834620Y34680130D01*
X13525380Y34680130D01*
X13424283Y34700240D01*
X13222086Y34740459D01*
X12936388Y34858799D01*
X12679266Y35030602D01*
X12460602Y35249266D01*
X12288799Y35506388D01*
X12170459Y35792086D01*
X12110130Y36095381D01*
X12110130Y36404619D01*
X12111618Y36412098D01*
X12165321Y36682084D01*
X12170459Y36707914D01*
X12288799Y36993612D01*
X12460602Y37250734D01*
X12679266Y37469398D01*
X12936388Y37641201D01*
X13222086Y37759541D01*
X13424283Y37799760D01*
X13525380Y37819870D01*
X13834620Y37819870D01*
X13935717Y37799760D01*
X13935717Y37799760D01*
G37*
G36*
X17662106Y37028881D02*
G01*
X17856833Y36948222D01*
X17856835Y36948221D01*
X17945053Y36889276D01*
X18023938Y36836567D01*
X18032085Y36831123D01*
X18181123Y36682085D01*
X18266312Y36554591D01*
X18298222Y36506833D01*
X18378881Y36312106D01*
X18420000Y36105387D01*
X18420000Y35894613D01*
X18378881Y35687894D01*
X18337462Y35587900D01*
X18298221Y35493165D01*
X18266310Y35445407D01*
X18181124Y35317916D01*
X18032084Y35168876D01*
X17973901Y35130000D01*
X17856835Y35051779D01*
X17856834Y35051778D01*
X17856833Y35051778D01*
X17662106Y34971119D01*
X17455387Y34930000D01*
X17244613Y34930000D01*
X17037894Y34971119D01*
X16843167Y35051778D01*
X16843166Y35051778D01*
X16843165Y35051779D01*
X16726099Y35130000D01*
X16667916Y35168876D01*
X16518876Y35317916D01*
X16433690Y35445407D01*
X16401779Y35493165D01*
X16362538Y35587900D01*
X16321119Y35687894D01*
X16280000Y35894613D01*
X16280000Y36105387D01*
X16321119Y36312106D01*
X16401778Y36506833D01*
X16433689Y36554591D01*
X16518877Y36682085D01*
X16667915Y36831123D01*
X16676063Y36836567D01*
X16754947Y36889276D01*
X16843165Y36948221D01*
X16843167Y36948222D01*
X17037894Y37028881D01*
X17244613Y37070000D01*
X17455387Y37070000D01*
X17662106Y37028881D01*
X17662106Y37028881D01*
G37*
G36*
X23962106Y37028881D02*
G01*
X24156833Y36948222D01*
X24156835Y36948221D01*
X24245053Y36889276D01*
X24323938Y36836567D01*
X24332085Y36831123D01*
X24481123Y36682085D01*
X24566312Y36554591D01*
X24598222Y36506833D01*
X24678881Y36312106D01*
X24720000Y36105387D01*
X24720000Y35894613D01*
X24678881Y35687894D01*
X24637462Y35587900D01*
X24598221Y35493165D01*
X24566310Y35445407D01*
X24481124Y35317916D01*
X24332084Y35168876D01*
X24273901Y35130000D01*
X24156835Y35051779D01*
X24156834Y35051778D01*
X24156833Y35051778D01*
X23962106Y34971119D01*
X23755387Y34930000D01*
X23544613Y34930000D01*
X23337894Y34971119D01*
X23143167Y35051778D01*
X23143166Y35051778D01*
X23143165Y35051779D01*
X23026099Y35130000D01*
X22967916Y35168876D01*
X22818876Y35317916D01*
X22733690Y35445407D01*
X22701779Y35493165D01*
X22662538Y35587900D01*
X22621119Y35687894D01*
X22580000Y35894613D01*
X22580000Y36105387D01*
X22621119Y36312106D01*
X22701778Y36506833D01*
X22733689Y36554591D01*
X22818877Y36682085D01*
X22967915Y36831123D01*
X22976063Y36836567D01*
X23054947Y36889276D01*
X23143165Y36948221D01*
X23143167Y36948222D01*
X23337894Y37028881D01*
X23544613Y37070000D01*
X23755387Y37070000D01*
X23962106Y37028881D01*
X23962106Y37028881D01*
G37*
G36*
X20753770Y36836567D02*
G01*
X20912100Y36770984D01*
X21054593Y36675773D01*
X21175773Y36554593D01*
X21270984Y36412100D01*
X21336567Y36253770D01*
X21370000Y36085688D01*
X21370000Y35914312D01*
X21336567Y35746230D01*
X21270984Y35587900D01*
X21175773Y35445407D01*
X21054593Y35324227D01*
X20912100Y35229016D01*
X20753770Y35163433D01*
X20585688Y35130000D01*
X20414312Y35130000D01*
X20246230Y35163433D01*
X20087900Y35229016D01*
X19945407Y35324227D01*
X19824227Y35445407D01*
X19729016Y35587900D01*
X19663433Y35746230D01*
X19630000Y35914312D01*
X19630000Y36085688D01*
X19663433Y36253770D01*
X19729016Y36412100D01*
X19824227Y36554593D01*
X19945407Y36675773D01*
X20087900Y36770984D01*
X20246230Y36836567D01*
X20414312Y36870000D01*
X20585688Y36870000D01*
X20753770Y36836567D01*
X20753770Y36836567D01*
G37*
G36*
X17662106Y40528881D02*
G01*
X17856833Y40448222D01*
X17856835Y40448221D01*
X17945053Y40389276D01*
X18032084Y40331124D01*
X18181124Y40182084D01*
X18298222Y40006833D01*
X18378881Y39812106D01*
X18420000Y39605387D01*
X18420000Y39394613D01*
X18378881Y39187894D01*
X18302251Y39002894D01*
X18298221Y38993165D01*
X18181123Y38817915D01*
X18032085Y38668877D01*
X17856835Y38551779D01*
X17856834Y38551778D01*
X17856833Y38551778D01*
X17662106Y38471119D01*
X17455387Y38430000D01*
X17244613Y38430000D01*
X17037894Y38471119D01*
X16843167Y38551778D01*
X16843166Y38551778D01*
X16843165Y38551779D01*
X16667915Y38668877D01*
X16518877Y38817915D01*
X16401779Y38993165D01*
X16397749Y39002894D01*
X16321119Y39187894D01*
X16280000Y39394613D01*
X16280000Y39605387D01*
X16321119Y39812106D01*
X16401778Y40006833D01*
X16518876Y40182084D01*
X16667916Y40331124D01*
X16754947Y40389276D01*
X16843165Y40448221D01*
X16843167Y40448222D01*
X17037894Y40528881D01*
X17244613Y40570000D01*
X17455387Y40570000D01*
X17662106Y40528881D01*
X17662106Y40528881D01*
G37*
G36*
X1650945Y41708859D02*
G01*
X1736494Y41682907D01*
X1796091Y41664829D01*
X1840680Y41640996D01*
X1929856Y41593331D01*
X2047106Y41497106D01*
X2143331Y41379857D01*
X2190996Y41290681D01*
X2214829Y41246092D01*
X2232907Y41186495D01*
X2258859Y41100946D01*
X2270000Y40987824D01*
X2270000Y39512176D01*
X2258859Y39399054D01*
X2232907Y39313505D01*
X2214829Y39253908D01*
X2214828Y39253907D01*
X2143331Y39120143D01*
X2047106Y39002894D01*
X1929857Y38906669D01*
X1840681Y38859004D01*
X1796092Y38835171D01*
X1739209Y38817916D01*
X1650946Y38791141D01*
X1500000Y38776275D01*
X1349055Y38791141D01*
X1260792Y38817916D01*
X1203909Y38835171D01*
X1159320Y38859004D01*
X1070144Y38906669D01*
X952895Y39002894D01*
X856670Y39120143D01*
X785173Y39253907D01*
X785172Y39253908D01*
X767094Y39313505D01*
X741142Y39399054D01*
X730001Y39512176D01*
X730000Y40987823D01*
X741141Y41100945D01*
X767093Y41186494D01*
X785171Y41246091D01*
X826935Y41324226D01*
X856669Y41379856D01*
X952894Y41497106D01*
X1070143Y41593331D01*
X1159319Y41640996D01*
X1203908Y41664829D01*
X1263505Y41682907D01*
X1349054Y41708859D01*
X1500000Y41723725D01*
X1650945Y41708859D01*
X1650945Y41708859D01*
G37*
G36*
X14900945Y41708859D02*
G01*
X14986494Y41682907D01*
X15046091Y41664829D01*
X15090680Y41640996D01*
X15179856Y41593331D01*
X15297106Y41497106D01*
X15393331Y41379857D01*
X15440996Y41290681D01*
X15464829Y41246092D01*
X15482907Y41186495D01*
X15508859Y41100946D01*
X15520000Y40987824D01*
X15520000Y39512176D01*
X15508859Y39399054D01*
X15482907Y39313505D01*
X15464829Y39253908D01*
X15464828Y39253907D01*
X15393331Y39120143D01*
X15297106Y39002894D01*
X15179857Y38906669D01*
X15090681Y38859004D01*
X15046092Y38835171D01*
X14989209Y38817916D01*
X14900946Y38791141D01*
X14750000Y38776275D01*
X14599055Y38791141D01*
X14510792Y38817916D01*
X14453909Y38835171D01*
X14409320Y38859004D01*
X14320144Y38906669D01*
X14202895Y39002894D01*
X14106670Y39120143D01*
X14035173Y39253907D01*
X14035172Y39253908D01*
X14017094Y39313505D01*
X13991142Y39399054D01*
X13980001Y39512176D01*
X13980000Y40987823D01*
X13991141Y41100945D01*
X14017093Y41186494D01*
X14035171Y41246091D01*
X14076935Y41324226D01*
X14106669Y41379856D01*
X14202894Y41497106D01*
X14320143Y41593331D01*
X14409319Y41640996D01*
X14453908Y41664829D01*
X14513505Y41682907D01*
X14599054Y41708859D01*
X14750000Y41723725D01*
X14900945Y41708859D01*
X14900945Y41708859D01*
G37*
G36*
X20753770Y42836567D02*
G01*
X20912100Y42770984D01*
X21054593Y42675773D01*
X21175773Y42554593D01*
X21270984Y42412100D01*
X21336567Y42253770D01*
X21370000Y42085688D01*
X21370000Y41914312D01*
X21336567Y41746230D01*
X21270984Y41587900D01*
X21175773Y41445407D01*
X21054593Y41324227D01*
X20912100Y41229016D01*
X20753770Y41163433D01*
X20585688Y41130000D01*
X20414312Y41130000D01*
X20246230Y41163433D01*
X20087900Y41229016D01*
X19945407Y41324227D01*
X19824227Y41445407D01*
X19729016Y41587900D01*
X19663433Y41746230D01*
X19630000Y41914312D01*
X19630000Y42085688D01*
X19663433Y42253770D01*
X19729016Y42412100D01*
X19824227Y42554593D01*
X19945407Y42675773D01*
X20087900Y42770984D01*
X20246230Y42836567D01*
X20414312Y42870000D01*
X20585688Y42870000D01*
X20753770Y42836567D01*
X20753770Y42836567D01*
G37*
G36*
X23962106Y43728881D02*
G01*
X24156833Y43648222D01*
X24156835Y43648221D01*
X24245053Y43589276D01*
X24332084Y43531124D01*
X24481124Y43382084D01*
X24598222Y43206833D01*
X24678881Y43012106D01*
X24720000Y42805387D01*
X24720000Y42594613D01*
X24678881Y42387894D01*
X24623324Y42253769D01*
X24598221Y42193165D01*
X24481123Y42017915D01*
X24332085Y41868877D01*
X24156835Y41751779D01*
X24156834Y41751778D01*
X24156833Y41751778D01*
X23962106Y41671119D01*
X23755387Y41630000D01*
X23544613Y41630000D01*
X23337894Y41671119D01*
X23143167Y41751778D01*
X23143166Y41751778D01*
X23143165Y41751779D01*
X22967915Y41868877D01*
X22818877Y42017915D01*
X22701779Y42193165D01*
X22676676Y42253769D01*
X22621119Y42387894D01*
X22580000Y42594613D01*
X22580000Y42805387D01*
X22621119Y43012106D01*
X22701778Y43206833D01*
X22818876Y43382084D01*
X22967916Y43531124D01*
X23054947Y43589276D01*
X23143165Y43648221D01*
X23143167Y43648222D01*
X23337894Y43728881D01*
X23544613Y43770000D01*
X23755387Y43770000D01*
X23962106Y43728881D01*
X23962106Y43728881D01*
G37*
G36*
X17662106Y43728881D02*
G01*
X17856833Y43648222D01*
X17856835Y43648221D01*
X17945053Y43589276D01*
X18032084Y43531124D01*
X18181124Y43382084D01*
X18298222Y43206833D01*
X18378881Y43012106D01*
X18420000Y42805387D01*
X18420000Y42594613D01*
X18378881Y42387894D01*
X18323324Y42253769D01*
X18298221Y42193165D01*
X18181123Y42017915D01*
X18032085Y41868877D01*
X17856835Y41751779D01*
X17856834Y41751778D01*
X17856833Y41751778D01*
X17662106Y41671119D01*
X17455387Y41630000D01*
X17244613Y41630000D01*
X17037894Y41671119D01*
X16843167Y41751778D01*
X16843166Y41751778D01*
X16843165Y41751779D01*
X16667915Y41868877D01*
X16518877Y42017915D01*
X16401779Y42193165D01*
X16376676Y42253769D01*
X16321119Y42387894D01*
X16280000Y42594613D01*
X16280000Y42805387D01*
X16321119Y43012106D01*
X16401778Y43206833D01*
X16518876Y43382084D01*
X16667916Y43531124D01*
X16754947Y43589276D01*
X16843165Y43648221D01*
X16843167Y43648222D01*
X17037894Y43728881D01*
X17244613Y43770000D01*
X17455387Y43770000D01*
X17662106Y43728881D01*
X17662106Y43728881D01*
G37*
M02*
