G04 #@! TF.GenerationSoftware,KiCad,Pcbnew,5.1.0*
G04 #@! TF.CreationDate,2019-04-16T15:55:50+02:00*
G04 #@! TF.ProjectId,KXKM_audio_board_for_ESP32,4b584b4d-5f61-4756-9469-6f5f626f6172,1.0*
G04 #@! TF.SameCoordinates,PX82a7440PY6f94740*
G04 #@! TF.FileFunction,Copper,L1,Top*
G04 #@! TF.FilePolarity,Positive*
%FSLAX46Y46*%
G04 Gerber Fmt 4.6, Leading zero omitted, Abs format (unit mm)*
G04 Created by KiCad (PCBNEW 5.1.0) date 2019-04-16 15:55:50*
%MOMM*%
%LPD*%
G04 APERTURE LIST*
%ADD10C,3.800000*%
%ADD11O,2.500000X1.700000*%
%ADD12C,2.999740*%
%ADD13R,2.999740X2.999740*%
%ADD14C,2.000000*%
%ADD15R,3.000000X1.000000*%
%ADD16C,0.800000*%
%ADD17C,0.600000*%
%ADD18C,0.800000*%
%ADD19C,0.200000*%
%ADD20C,1.000000*%
%ADD21C,1.500000*%
G04 APERTURE END LIST*
D10*
X27500000Y27050000D03*
X27500000Y13450000D03*
D11*
X12600000Y32930000D03*
X12600000Y30390000D03*
X12600000Y27850000D03*
X12600000Y25310000D03*
X12600000Y22770000D03*
X12600000Y20230000D03*
X12600000Y17690000D03*
X12600000Y15150000D03*
X12600000Y12610000D03*
X12600000Y10070000D03*
D10*
X27500000Y32000000D03*
X27500000Y11000000D03*
D12*
X13680000Y36250000D03*
X9870000Y36250000D03*
X6060000Y36250000D03*
D13*
X2250000Y36250000D03*
D14*
X23650000Y36000000D03*
X17350000Y36000000D03*
X17350000Y39500000D03*
X23650000Y42700000D03*
X17350000Y42700000D03*
D15*
X37770000Y24680000D03*
X32730000Y24680000D03*
X37770000Y22140000D03*
X32730000Y22140000D03*
X37770000Y19600000D03*
X32730000Y19600000D03*
X37770000Y17060000D03*
X32730000Y17060000D03*
X37770000Y14520000D03*
X32730000Y14520000D03*
X37770000Y11980000D03*
X32730000Y11980000D03*
X37770000Y9440000D03*
X32730000Y9440000D03*
X37770000Y6900000D03*
X32730000Y6900000D03*
X37770000Y4360000D03*
X32730000Y4360000D03*
X37770000Y1820000D03*
X32730000Y1820000D03*
D16*
X38250008Y27250000D03*
X32672000Y3462000D03*
X14250000Y11250000D03*
X9750000Y18750000D03*
X24250000Y14250000D03*
X22250000Y12500000D03*
X21500000Y15749996D03*
X19000000Y21600000D03*
X22100000Y23000000D03*
X21500000Y19900000D03*
X26000000Y23000000D03*
X26000000Y19900000D03*
X23500000Y28600000D03*
X26000000Y28600000D03*
X27500000Y28600000D03*
X24600000Y32000000D03*
X27500000Y17300000D03*
X30750000Y34000000D03*
X31000000Y31750000D03*
X35500000Y34750000D03*
X32750000Y36500000D03*
X38514000Y23528000D03*
X38514000Y25814000D03*
X34649998Y25850002D03*
X35750000Y27000000D03*
X30515684Y24100000D03*
X30545651Y22299978D03*
X32750000Y1000000D03*
X33800000Y5700000D03*
X37752000Y922000D03*
X31910000Y25560000D03*
X37752000Y21242000D03*
X32672000Y21242000D03*
X37752000Y18702000D03*
X32672000Y18702000D03*
X37752000Y11082000D03*
X32672000Y16162000D03*
X37752000Y13622000D03*
X30640000Y14638000D03*
X37752000Y16162000D03*
X30640000Y11844000D03*
X36799065Y23356198D03*
X37752000Y8542000D03*
X33815000Y8415000D03*
X35517181Y23343689D03*
X37752000Y6002000D03*
X31656000Y8034000D03*
X37752000Y3462000D03*
D17*
X31100000Y10700000D02*
X34450000Y10700000D01*
X37434299Y27250000D02*
X37684323Y27250000D01*
X37684323Y27250000D02*
X38250008Y27250000D01*
X32140000Y4360000D02*
X30200000Y6300000D01*
X35300000Y24487868D02*
X35300000Y25115701D01*
X35300000Y25115701D02*
X37434299Y27250000D01*
X34450000Y10700000D02*
X34899990Y11149990D01*
X30200000Y9800000D02*
X31100000Y10700000D01*
X32730000Y4360000D02*
X32140000Y4360000D01*
X34492131Y23679999D02*
X35300000Y24487868D01*
X34899990Y22684272D02*
X34492131Y23092131D01*
X34899990Y11149990D02*
X34899990Y22684272D01*
X30200000Y6300000D02*
X30200000Y9800000D01*
X34492131Y23092131D02*
X34492131Y23679999D01*
D18*
X32672000Y4302000D02*
X32730000Y4360000D01*
X32672000Y3462000D02*
X32672000Y4302000D01*
X38514000Y23936000D02*
X37770000Y24680000D01*
X38514000Y23528000D02*
X38514000Y23936000D01*
X37770000Y24680000D02*
X37770000Y25070000D01*
X37770000Y25070000D02*
X38514000Y25814000D01*
D17*
X30545651Y24070033D02*
X30515684Y24100000D01*
X30545651Y22299978D02*
X30545651Y24070033D01*
D18*
X32730000Y1820000D02*
X32730000Y1020000D01*
X32730000Y1020000D02*
X32750000Y1000000D01*
D19*
X17350000Y36000000D02*
X18550001Y34799999D01*
X22650001Y35000001D02*
X23650000Y36000000D01*
X22449999Y34799999D02*
X22650001Y35000001D01*
X18550001Y34799999D02*
X22449999Y34799999D01*
D20*
X34365685Y5700000D02*
X33800000Y5700000D01*
X34465681Y5700000D02*
X34365685Y5700000D01*
X37770000Y1820000D02*
X36770000Y1820000D01*
X35295000Y4870681D02*
X34465681Y5700000D01*
X35295000Y3295000D02*
X35295000Y4870681D01*
X36770000Y1820000D02*
X35295000Y3295000D01*
D18*
X37752000Y1802000D02*
X37770000Y1820000D01*
X37752000Y922000D02*
X37752000Y1802000D01*
X31910000Y25500000D02*
X32730000Y24680000D01*
X31910000Y25560000D02*
X31910000Y25500000D01*
X37770000Y22140000D02*
X37770000Y21260000D01*
X37770000Y21260000D02*
X37752000Y21242000D01*
X32672000Y22082000D02*
X32730000Y22140000D01*
X32672000Y21242000D02*
X32672000Y22082000D01*
X37752000Y19582000D02*
X37770000Y19600000D01*
X37752000Y18702000D02*
X37752000Y19582000D01*
X32730000Y19600000D02*
X32730000Y18760000D01*
X32730000Y18760000D02*
X32672000Y18702000D01*
X37752000Y11962000D02*
X37770000Y11980000D01*
X37752000Y11082000D02*
X37752000Y11962000D01*
X32730000Y17060000D02*
X32730000Y16220000D01*
X32730000Y16220000D02*
X32672000Y16162000D01*
X37770000Y14520000D02*
X37770000Y13640000D01*
X37770000Y13640000D02*
X37752000Y13622000D01*
X32730000Y14520000D02*
X30758000Y14520000D01*
X30758000Y14520000D02*
X30640000Y14638000D01*
X37752000Y17042000D02*
X37770000Y17060000D01*
X37752000Y16162000D02*
X37752000Y17042000D01*
X30776000Y11980000D02*
X30640000Y11844000D01*
X32730000Y11980000D02*
X30776000Y11980000D01*
D19*
X36556192Y23356198D02*
X36799065Y23356198D01*
X35900011Y22700017D02*
X36556192Y23356198D01*
X35900011Y10309989D02*
X35900011Y22700017D01*
X37770000Y9440000D02*
X36770000Y9440000D01*
X36770000Y9440000D02*
X35900011Y10309989D01*
D18*
X37770000Y9440000D02*
X37770000Y8560000D01*
X37770000Y8560000D02*
X37752000Y8542000D01*
X33755000Y8415000D02*
X32730000Y9440000D01*
X33815000Y8415000D02*
X33755000Y8415000D01*
D19*
X36770000Y6900000D02*
X35500001Y8169999D01*
X37770000Y6900000D02*
X36770000Y6900000D01*
X35500001Y23326509D02*
X35517181Y23343689D01*
X35500001Y8169999D02*
X35500001Y23326509D01*
D18*
X37752000Y6882000D02*
X37770000Y6900000D01*
X37752000Y6002000D02*
X37752000Y6882000D01*
X32730000Y6960000D02*
X32055999Y7634001D01*
X32055999Y7634001D02*
X31656000Y8034000D01*
X32730000Y6900000D02*
X32730000Y6960000D01*
X37770000Y4360000D02*
X37770000Y3480000D01*
X37770000Y3480000D02*
X37752000Y3462000D01*
D21*
X12600000Y35170000D02*
X13680000Y36250000D01*
X12600000Y32930000D02*
X12600000Y35170000D01*
X9870000Y32714402D02*
X9870000Y34128864D01*
X12600000Y30390000D02*
X12194402Y30390000D01*
X9870000Y34128864D02*
X9870000Y36250000D01*
X12194402Y30390000D02*
X9870000Y32714402D01*
X9850000Y27850000D02*
X9199999Y27199999D01*
X4000000Y32068864D02*
X6060000Y34128864D01*
X6060000Y34128864D02*
X6060000Y36250000D01*
X12600000Y27850000D02*
X9850000Y27850000D01*
X9199999Y27199999D02*
X6025999Y27199999D01*
X6025999Y27199999D02*
X4000000Y29225998D01*
X4000000Y29225998D02*
X4000000Y32068864D01*
X2250000Y33250130D02*
X2250000Y36250000D01*
X2250000Y28571820D02*
X2250000Y33250130D01*
X12600000Y25310000D02*
X5511820Y25310000D01*
X5511820Y25310000D02*
X2250000Y28571820D01*
D19*
G36*
X38880805Y44160616D02*
G01*
X39006629Y44122627D01*
X39122675Y44060924D01*
X39224532Y43977852D01*
X39308310Y43876582D01*
X39370819Y43760973D01*
X39409686Y43635414D01*
X39425001Y43489705D01*
X39425001Y25437317D01*
X39385361Y25458505D01*
X39328810Y25475660D01*
X39270000Y25481452D01*
X37999000Y25480000D01*
X37924000Y25405000D01*
X37924000Y24834000D01*
X37944000Y24834000D01*
X37944000Y24526000D01*
X37924000Y24526000D01*
X37924000Y23955000D01*
X37999000Y23880000D01*
X39270000Y23878548D01*
X39328810Y23884340D01*
X39385361Y23901495D01*
X39425001Y23922683D01*
X39425001Y22897316D01*
X39385360Y22918504D01*
X39328810Y22935659D01*
X39270000Y22941451D01*
X37363823Y22941451D01*
X37419397Y23024624D01*
X37472164Y23152016D01*
X37499065Y23287254D01*
X37499065Y23425142D01*
X37472164Y23560380D01*
X37419397Y23687772D01*
X37342791Y23802422D01*
X37265528Y23879685D01*
X37541000Y23880000D01*
X37616000Y23955000D01*
X37616000Y24526000D01*
X36045000Y24526000D01*
X35970000Y24451000D01*
X35968548Y24180000D01*
X35974340Y24121190D01*
X35991495Y24064639D01*
X36019352Y24012522D01*
X36056841Y23966841D01*
X36102522Y23929352D01*
X36154639Y23901495D01*
X36211190Y23884340D01*
X36270000Y23878548D01*
X36331535Y23878618D01*
X36255339Y23802422D01*
X36178733Y23687772D01*
X36155532Y23631760D01*
X36137513Y23675263D01*
X36060907Y23789913D01*
X35963405Y23887415D01*
X35848755Y23964021D01*
X35721363Y24016788D01*
X35684735Y24024074D01*
X35703426Y24042765D01*
X35726317Y24061551D01*
X35801296Y24152913D01*
X35857010Y24257147D01*
X35891318Y24370247D01*
X35900000Y24458394D01*
X35900000Y24458395D01*
X35902903Y24487867D01*
X35900000Y24517341D01*
X35900000Y24867174D01*
X35969850Y24937024D01*
X35970000Y24909000D01*
X36045000Y24834000D01*
X37616000Y24834000D01*
X37616000Y25405000D01*
X37541000Y25480000D01*
X36514000Y25481173D01*
X37682827Y26650000D01*
X37888005Y26650000D01*
X37918434Y26629668D01*
X38045826Y26576901D01*
X38181064Y26550000D01*
X38318952Y26550000D01*
X38454190Y26576901D01*
X38581582Y26629668D01*
X38696232Y26706274D01*
X38793734Y26803776D01*
X38870340Y26918426D01*
X38923107Y27045818D01*
X38950008Y27181056D01*
X38950008Y27318944D01*
X38923107Y27454182D01*
X38870340Y27581574D01*
X38793734Y27696224D01*
X38696232Y27793726D01*
X38581582Y27870332D01*
X38454190Y27923099D01*
X38318952Y27950000D01*
X38181064Y27950000D01*
X38045826Y27923099D01*
X37918434Y27870332D01*
X37888005Y27850000D01*
X37463775Y27850000D01*
X37434299Y27852903D01*
X37316678Y27841319D01*
X37203578Y27807010D01*
X37099344Y27751296D01*
X37007982Y27676317D01*
X36989190Y27653419D01*
X34896582Y25560810D01*
X34873684Y25542018D01*
X34798705Y25450656D01*
X34742990Y25346422D01*
X34727501Y25295360D01*
X34708682Y25233321D01*
X34697097Y25115701D01*
X34700000Y25086227D01*
X34700000Y24736397D01*
X34531451Y24567847D01*
X34531451Y25180000D01*
X34525659Y25238810D01*
X34508504Y25295360D01*
X34480647Y25347477D01*
X34443158Y25393158D01*
X34397477Y25430647D01*
X34345360Y25458504D01*
X34288810Y25475659D01*
X34230000Y25481451D01*
X32918499Y25481451D01*
X32547295Y25852654D01*
X32543554Y25859654D01*
X32530332Y25891574D01*
X32511135Y25920304D01*
X32494845Y25950781D01*
X32472925Y25977490D01*
X32453726Y26006224D01*
X32429287Y26030663D01*
X32407369Y26057370D01*
X32380663Y26079287D01*
X32356224Y26103726D01*
X32327487Y26122928D01*
X32300780Y26144845D01*
X32270308Y26161133D01*
X32241574Y26180332D01*
X32209650Y26193555D01*
X32179174Y26209845D01*
X32146103Y26219877D01*
X32114182Y26233099D01*
X32080295Y26239840D01*
X32047223Y26249872D01*
X32012832Y26253259D01*
X31978944Y26260000D01*
X31944390Y26260000D01*
X31910000Y26263387D01*
X31875610Y26260000D01*
X31841056Y26260000D01*
X31807169Y26253259D01*
X31772776Y26249872D01*
X31739702Y26239839D01*
X31705818Y26233099D01*
X31673900Y26219878D01*
X31640825Y26209845D01*
X31610346Y26193554D01*
X31578426Y26180332D01*
X31549696Y26161135D01*
X31519219Y26144845D01*
X31492510Y26122925D01*
X31463776Y26103726D01*
X31439337Y26079287D01*
X31412630Y26057369D01*
X31390713Y26030663D01*
X31366274Y26006224D01*
X31347072Y25977487D01*
X31325155Y25950780D01*
X31308867Y25920308D01*
X31289668Y25891574D01*
X31276445Y25859650D01*
X31260155Y25829174D01*
X31250123Y25796103D01*
X31236901Y25764182D01*
X31230160Y25730295D01*
X31220128Y25697223D01*
X31216741Y25662832D01*
X31210000Y25628944D01*
X31210000Y25534387D01*
X31206613Y25500000D01*
X31208647Y25479348D01*
X31171190Y25475659D01*
X31114640Y25458504D01*
X31062523Y25430647D01*
X31016842Y25393158D01*
X30979353Y25347477D01*
X30951496Y25295360D01*
X30934341Y25238810D01*
X30928549Y25180000D01*
X30928549Y24666016D01*
X30847258Y24720332D01*
X30719866Y24773099D01*
X30584628Y24800000D01*
X30446740Y24800000D01*
X30311502Y24773099D01*
X30184110Y24720332D01*
X30069460Y24643726D01*
X29971958Y24546224D01*
X29895352Y24431574D01*
X29842585Y24304182D01*
X29815684Y24168944D01*
X29815684Y24031056D01*
X29842585Y23895818D01*
X29895352Y23768426D01*
X29945652Y23693146D01*
X29945651Y22661982D01*
X29925319Y22631552D01*
X29872552Y22504160D01*
X29845651Y22368922D01*
X29845651Y22231034D01*
X29872552Y22095796D01*
X29925319Y21968404D01*
X30001925Y21853754D01*
X30099427Y21756252D01*
X30214077Y21679646D01*
X30341469Y21626879D01*
X30476707Y21599978D01*
X30614595Y21599978D01*
X30749833Y21626879D01*
X30877225Y21679646D01*
X30928549Y21713939D01*
X30928549Y21640000D01*
X30934341Y21581190D01*
X30951496Y21524640D01*
X30979353Y21472523D01*
X31016842Y21426842D01*
X31062523Y21389353D01*
X31114640Y21361496D01*
X31171190Y21344341D01*
X31230000Y21338549D01*
X31972000Y21338549D01*
X31972000Y21173056D01*
X31978741Y21139168D01*
X31982128Y21104777D01*
X31992160Y21071705D01*
X31998901Y21037818D01*
X32012123Y21005897D01*
X32022155Y20972826D01*
X32038445Y20942350D01*
X32051668Y20910426D01*
X32070867Y20881692D01*
X32087155Y20851220D01*
X32109072Y20824513D01*
X32128274Y20795776D01*
X32152713Y20771337D01*
X32174630Y20744631D01*
X32201337Y20722713D01*
X32225776Y20698274D01*
X32254510Y20679075D01*
X32281219Y20657155D01*
X32311696Y20640865D01*
X32340426Y20621668D01*
X32372346Y20608446D01*
X32402825Y20592155D01*
X32435900Y20582122D01*
X32467818Y20568901D01*
X32501702Y20562161D01*
X32534776Y20552128D01*
X32569169Y20548741D01*
X32603056Y20542000D01*
X32637610Y20542000D01*
X32672000Y20538613D01*
X32706390Y20542000D01*
X32740944Y20542000D01*
X32774832Y20548741D01*
X32809223Y20552128D01*
X32842295Y20562160D01*
X32876182Y20568901D01*
X32908103Y20582123D01*
X32941174Y20592155D01*
X32971650Y20608445D01*
X33003574Y20621668D01*
X33032308Y20640867D01*
X33062780Y20657155D01*
X33089487Y20679072D01*
X33118224Y20698274D01*
X33142663Y20722713D01*
X33169369Y20744630D01*
X33191287Y20771337D01*
X33215726Y20795776D01*
X33234925Y20824510D01*
X33256845Y20851219D01*
X33273135Y20881696D01*
X33292332Y20910426D01*
X33305554Y20942346D01*
X33321845Y20972825D01*
X33331878Y21005900D01*
X33345099Y21037818D01*
X33351839Y21071702D01*
X33361872Y21104776D01*
X33365259Y21139169D01*
X33372000Y21173056D01*
X33372000Y21338549D01*
X34230000Y21338549D01*
X34288810Y21344341D01*
X34299991Y21347733D01*
X34299991Y20392267D01*
X34288810Y20395659D01*
X34230000Y20401451D01*
X31230000Y20401451D01*
X31171190Y20395659D01*
X31114640Y20378504D01*
X31062523Y20350647D01*
X31016842Y20313158D01*
X30979353Y20267477D01*
X30951496Y20215360D01*
X30934341Y20158810D01*
X30928549Y20100000D01*
X30928549Y19100000D01*
X30934341Y19041190D01*
X30951496Y18984640D01*
X30979353Y18932523D01*
X31016842Y18886842D01*
X31062523Y18849353D01*
X31114640Y18821496D01*
X31171190Y18804341D01*
X31230000Y18798549D01*
X31977491Y18798549D01*
X31972000Y18770944D01*
X31972000Y18736387D01*
X31968613Y18702000D01*
X31972000Y18667613D01*
X31972000Y18633056D01*
X31978742Y18599161D01*
X31982129Y18564777D01*
X31992159Y18531712D01*
X31998901Y18497818D01*
X32012124Y18465895D01*
X32022155Y18432826D01*
X32038445Y18402349D01*
X32051668Y18370426D01*
X32070865Y18341695D01*
X32087155Y18311219D01*
X32109074Y18284511D01*
X32128274Y18255776D01*
X32152716Y18231334D01*
X32174631Y18204631D01*
X32201334Y18182716D01*
X32225776Y18158274D01*
X32254511Y18139074D01*
X32281219Y18117155D01*
X32311695Y18100865D01*
X32340426Y18081668D01*
X32372349Y18068445D01*
X32402826Y18052155D01*
X32435895Y18042124D01*
X32467818Y18028901D01*
X32501712Y18022159D01*
X32534777Y18012129D01*
X32569161Y18008742D01*
X32603056Y18002000D01*
X32637613Y18002000D01*
X32672000Y17998613D01*
X32706387Y18002000D01*
X32740944Y18002000D01*
X32774839Y18008742D01*
X32809223Y18012129D01*
X32842288Y18022159D01*
X32876182Y18028901D01*
X32908105Y18042124D01*
X32941174Y18052155D01*
X32971651Y18068445D01*
X33003574Y18081668D01*
X33032305Y18100865D01*
X33062781Y18117155D01*
X33089490Y18139075D01*
X33118224Y18158274D01*
X33200659Y18240709D01*
X33227370Y18262630D01*
X33314845Y18369219D01*
X33379845Y18490825D01*
X33419872Y18622776D01*
X33430000Y18725610D01*
X33430000Y18725612D01*
X33433387Y18759999D01*
X33430000Y18794386D01*
X33430000Y18798549D01*
X34230000Y18798549D01*
X34288810Y18804341D01*
X34299991Y18807733D01*
X34299991Y17852267D01*
X34288810Y17855659D01*
X34230000Y17861451D01*
X31230000Y17861451D01*
X31171190Y17855659D01*
X31114640Y17838504D01*
X31062523Y17810647D01*
X31016842Y17773158D01*
X30979353Y17727477D01*
X30951496Y17675360D01*
X30934341Y17618810D01*
X30928549Y17560000D01*
X30928549Y16560000D01*
X30934341Y16501190D01*
X30951496Y16444640D01*
X30979353Y16392523D01*
X31016842Y16346842D01*
X31062523Y16309353D01*
X31114640Y16281496D01*
X31171190Y16264341D01*
X31230000Y16258549D01*
X31977491Y16258549D01*
X31972000Y16230944D01*
X31972000Y16196387D01*
X31968613Y16162000D01*
X31972000Y16127613D01*
X31972000Y16093056D01*
X31978742Y16059161D01*
X31982129Y16024777D01*
X31992159Y15991712D01*
X31998901Y15957818D01*
X32012124Y15925895D01*
X32022155Y15892826D01*
X32038445Y15862349D01*
X32051668Y15830426D01*
X32070865Y15801695D01*
X32087155Y15771219D01*
X32109074Y15744511D01*
X32128274Y15715776D01*
X32152716Y15691334D01*
X32174631Y15664631D01*
X32201334Y15642716D01*
X32225776Y15618274D01*
X32254511Y15599074D01*
X32281219Y15577155D01*
X32311695Y15560865D01*
X32340426Y15541668D01*
X32372349Y15528445D01*
X32402826Y15512155D01*
X32435895Y15502124D01*
X32467818Y15488901D01*
X32501712Y15482159D01*
X32534777Y15472129D01*
X32569161Y15468742D01*
X32603056Y15462000D01*
X32637613Y15462000D01*
X32672000Y15458613D01*
X32706387Y15462000D01*
X32740944Y15462000D01*
X32774839Y15468742D01*
X32809223Y15472129D01*
X32842288Y15482159D01*
X32876182Y15488901D01*
X32908105Y15502124D01*
X32941174Y15512155D01*
X32971651Y15528445D01*
X33003574Y15541668D01*
X33032305Y15560865D01*
X33062781Y15577155D01*
X33089490Y15599075D01*
X33118224Y15618274D01*
X33200659Y15700709D01*
X33227370Y15722630D01*
X33314845Y15829219D01*
X33379845Y15950825D01*
X33419872Y16082776D01*
X33430000Y16185610D01*
X33430000Y16185612D01*
X33433387Y16219999D01*
X33430000Y16254386D01*
X33430000Y16258549D01*
X34230000Y16258549D01*
X34288810Y16264341D01*
X34299990Y16267733D01*
X34299990Y15312267D01*
X34288810Y15315659D01*
X34230000Y15321451D01*
X31230000Y15321451D01*
X31171190Y15315659D01*
X31114640Y15298504D01*
X31062523Y15270647D01*
X31016842Y15233158D01*
X31015209Y15231168D01*
X31000305Y15239135D01*
X30971574Y15258332D01*
X30939651Y15271555D01*
X30909174Y15287845D01*
X30876105Y15297876D01*
X30844182Y15311099D01*
X30810288Y15317841D01*
X30777223Y15327871D01*
X30742839Y15331258D01*
X30708944Y15338000D01*
X30674387Y15338000D01*
X30640000Y15341387D01*
X30605613Y15338000D01*
X30571056Y15338000D01*
X30537161Y15331258D01*
X30502777Y15327871D01*
X30469712Y15317841D01*
X30435818Y15311099D01*
X30403895Y15297876D01*
X30370826Y15287845D01*
X30340349Y15271555D01*
X30308426Y15258332D01*
X30279695Y15239135D01*
X30249219Y15222845D01*
X30222511Y15200926D01*
X30193776Y15181726D01*
X30169334Y15157284D01*
X30142631Y15135369D01*
X30120716Y15108666D01*
X30096274Y15084224D01*
X30077074Y15055489D01*
X30055155Y15028781D01*
X30038865Y14998305D01*
X30019668Y14969574D01*
X30006445Y14937651D01*
X29990155Y14907174D01*
X29980124Y14874105D01*
X29966901Y14842182D01*
X29960159Y14808288D01*
X29950129Y14775223D01*
X29946742Y14740839D01*
X29940000Y14706944D01*
X29940000Y14672387D01*
X29936613Y14638000D01*
X29940000Y14603613D01*
X29940000Y14569056D01*
X29946742Y14535161D01*
X29950129Y14500777D01*
X29960159Y14467712D01*
X29966901Y14433818D01*
X29980124Y14401895D01*
X29990155Y14368826D01*
X30006445Y14338349D01*
X30019668Y14306426D01*
X30038865Y14277695D01*
X30055155Y14247219D01*
X30077075Y14220510D01*
X30096274Y14191776D01*
X30193776Y14094274D01*
X30193779Y14094272D01*
X30238704Y14049347D01*
X30260630Y14022630D01*
X30367219Y13935155D01*
X30488825Y13870155D01*
X30620776Y13830128D01*
X30723610Y13820000D01*
X30723612Y13820000D01*
X30757999Y13816613D01*
X30792386Y13820000D01*
X31006044Y13820000D01*
X31016842Y13806842D01*
X31062523Y13769353D01*
X31114640Y13741496D01*
X31171190Y13724341D01*
X31230000Y13718549D01*
X34230000Y13718549D01*
X34288810Y13724341D01*
X34299990Y13727733D01*
X34299990Y12772267D01*
X34288810Y12775659D01*
X34230000Y12781451D01*
X31230000Y12781451D01*
X31171190Y12775659D01*
X31114640Y12758504D01*
X31062523Y12730647D01*
X31016842Y12693158D01*
X31006044Y12680000D01*
X30810386Y12680000D01*
X30775999Y12683387D01*
X30741612Y12680000D01*
X30741610Y12680000D01*
X30638776Y12669872D01*
X30506825Y12629845D01*
X30385219Y12564845D01*
X30278630Y12477370D01*
X30256704Y12450653D01*
X30193779Y12387728D01*
X30193776Y12387726D01*
X30096274Y12290224D01*
X30077075Y12261490D01*
X30055155Y12234781D01*
X30038865Y12204305D01*
X30019668Y12175574D01*
X30006445Y12143651D01*
X29990155Y12113174D01*
X29980124Y12080105D01*
X29966901Y12048182D01*
X29960159Y12014288D01*
X29950129Y11981223D01*
X29946742Y11946839D01*
X29940000Y11912944D01*
X29940000Y11878387D01*
X29936613Y11844000D01*
X29940000Y11809613D01*
X29940000Y11775056D01*
X29946742Y11741161D01*
X29950129Y11706777D01*
X29960159Y11673712D01*
X29966901Y11639818D01*
X29980124Y11607895D01*
X29990155Y11574826D01*
X30006445Y11544349D01*
X30019668Y11512426D01*
X30038865Y11483695D01*
X30055155Y11453219D01*
X30077074Y11426511D01*
X30096274Y11397776D01*
X30120716Y11373334D01*
X30142631Y11346631D01*
X30169334Y11324716D01*
X30193776Y11300274D01*
X30222511Y11281074D01*
X30249219Y11259155D01*
X30279695Y11242865D01*
X30308426Y11223668D01*
X30340349Y11210445D01*
X30370826Y11194155D01*
X30403895Y11184124D01*
X30435818Y11170901D01*
X30469712Y11164159D01*
X30502777Y11154129D01*
X30537161Y11150742D01*
X30571056Y11144000D01*
X30605613Y11144000D01*
X30640000Y11140613D01*
X30674387Y11144000D01*
X30695230Y11144000D01*
X30673683Y11126317D01*
X30654894Y11103422D01*
X29796581Y10245108D01*
X29773684Y10226317D01*
X29698705Y10134955D01*
X29672905Y10086686D01*
X29642991Y10030721D01*
X29608682Y9917620D01*
X29597097Y9800000D01*
X29600001Y9770516D01*
X29600000Y6329474D01*
X29597097Y6300000D01*
X29602132Y6248883D01*
X29608682Y6182380D01*
X29642990Y6069280D01*
X29698704Y5965046D01*
X29773683Y5873683D01*
X29796586Y5854887D01*
X30140191Y5511282D01*
X30038169Y5542084D01*
X30009285Y5547803D01*
X29980462Y5553929D01*
X29975948Y5554404D01*
X29781715Y5573449D01*
X29781708Y5573449D01*
X29765961Y5575000D01*
X1015896Y5575000D01*
X869195Y5589384D01*
X743371Y5627373D01*
X627325Y5689076D01*
X525469Y5772147D01*
X441693Y5873414D01*
X379181Y5989027D01*
X340313Y6114590D01*
X325000Y6260284D01*
X325000Y10070000D01*
X11044436Y10070000D01*
X11066640Y9844561D01*
X11132398Y9627785D01*
X11239184Y9428003D01*
X11382893Y9252893D01*
X11558003Y9109184D01*
X11757785Y9002398D01*
X11974561Y8936640D01*
X12143508Y8920000D01*
X13056492Y8920000D01*
X13225439Y8936640D01*
X13442215Y9002398D01*
X13641997Y9109184D01*
X13817107Y9252893D01*
X13960816Y9428003D01*
X14067602Y9627785D01*
X14133360Y9844561D01*
X14155564Y10070000D01*
X14133360Y10295439D01*
X14067602Y10512215D01*
X13960816Y10711997D01*
X13817107Y10887107D01*
X13641997Y11030816D01*
X13442215Y11137602D01*
X13225439Y11203360D01*
X13056492Y11220000D01*
X12143508Y11220000D01*
X11974561Y11203360D01*
X11757785Y11137602D01*
X11558003Y11030816D01*
X11382893Y10887107D01*
X11239184Y10711997D01*
X11132398Y10512215D01*
X11066640Y10295439D01*
X11044436Y10070000D01*
X325000Y10070000D01*
X325000Y12610000D01*
X11044436Y12610000D01*
X11066640Y12384561D01*
X11132398Y12167785D01*
X11239184Y11968003D01*
X11382893Y11792893D01*
X11558003Y11649184D01*
X11757785Y11542398D01*
X11974561Y11476640D01*
X12143508Y11460000D01*
X13056492Y11460000D01*
X13225439Y11476640D01*
X13442215Y11542398D01*
X13641997Y11649184D01*
X13817107Y11792893D01*
X13960816Y11968003D01*
X14067602Y12167785D01*
X14133360Y12384561D01*
X14155564Y12610000D01*
X14133360Y12835439D01*
X14067602Y13052215D01*
X13960816Y13251997D01*
X13817107Y13427107D01*
X13641997Y13570816D01*
X13442215Y13677602D01*
X13225439Y13743360D01*
X13056492Y13760000D01*
X12143508Y13760000D01*
X11974561Y13743360D01*
X11757785Y13677602D01*
X11558003Y13570816D01*
X11382893Y13427107D01*
X11239184Y13251997D01*
X11132398Y13052215D01*
X11066640Y12835439D01*
X11044436Y12610000D01*
X325000Y12610000D01*
X325000Y16999119D01*
X500000Y16999119D01*
X500001Y15500880D01*
X514471Y15353966D01*
X571652Y15165465D01*
X664509Y14991742D01*
X789473Y14839472D01*
X941743Y14714508D01*
X1115466Y14621651D01*
X1303967Y14564470D01*
X1500000Y14545162D01*
X1696034Y14564470D01*
X1884535Y14621651D01*
X2058258Y14714508D01*
X2210528Y14839472D01*
X2335492Y14991742D01*
X2428349Y15165465D01*
X2485530Y15353966D01*
X2500000Y15500880D01*
X2500000Y16999119D01*
X8750000Y16999119D01*
X8750001Y15500880D01*
X8764471Y15353966D01*
X8821652Y15165465D01*
X8914509Y14991742D01*
X9039473Y14839472D01*
X9191743Y14714508D01*
X9365466Y14621651D01*
X9553967Y14564470D01*
X9750000Y14545162D01*
X9946034Y14564470D01*
X10134535Y14621651D01*
X10308258Y14714508D01*
X10436334Y14819617D01*
X11098480Y14819617D01*
X11158251Y14639141D01*
X11277932Y14445722D01*
X11433047Y14279368D01*
X11617636Y14146472D01*
X11824605Y14052141D01*
X12046000Y14000000D01*
X12446000Y14000000D01*
X12446000Y14996000D01*
X12754000Y14996000D01*
X12754000Y14000000D01*
X13154000Y14000000D01*
X13375395Y14052141D01*
X13582364Y14146472D01*
X13766953Y14279368D01*
X13922068Y14445722D01*
X14041749Y14639141D01*
X14101520Y14819617D01*
X14063912Y14996000D01*
X12754000Y14996000D01*
X12446000Y14996000D01*
X11136088Y14996000D01*
X11098480Y14819617D01*
X10436334Y14819617D01*
X10460528Y14839472D01*
X10585492Y14991742D01*
X10678349Y15165465D01*
X10735530Y15353966D01*
X10747981Y15480383D01*
X11098480Y15480383D01*
X11136088Y15304000D01*
X12446000Y15304000D01*
X12446000Y15324000D01*
X12754000Y15324000D01*
X12754000Y15304000D01*
X14063912Y15304000D01*
X14101520Y15480383D01*
X14041749Y15660859D01*
X13922068Y15854278D01*
X13766953Y16020632D01*
X13582364Y16153528D01*
X13375395Y16247859D01*
X13154000Y16300000D01*
X12046000Y16300000D01*
X11824605Y16247859D01*
X11617636Y16153528D01*
X11433047Y16020632D01*
X11277932Y15854278D01*
X11158251Y15660859D01*
X11098480Y15480383D01*
X10747981Y15480383D01*
X10750000Y15500880D01*
X10750000Y16999120D01*
X10735530Y17146034D01*
X10678349Y17334535D01*
X10585492Y17508258D01*
X10460528Y17660528D01*
X10424617Y17690000D01*
X11044436Y17690000D01*
X11066640Y17464561D01*
X11132398Y17247785D01*
X11239184Y17048003D01*
X11382893Y16872893D01*
X11558003Y16729184D01*
X11757785Y16622398D01*
X11974561Y16556640D01*
X12143508Y16540000D01*
X13056492Y16540000D01*
X13225439Y16556640D01*
X13442215Y16622398D01*
X13641997Y16729184D01*
X13817107Y16872893D01*
X13960816Y17048003D01*
X14067602Y17247785D01*
X14133360Y17464561D01*
X14155564Y17690000D01*
X14133360Y17915439D01*
X14067602Y18132215D01*
X13960816Y18331997D01*
X13817107Y18507107D01*
X13641997Y18650816D01*
X13442215Y18757602D01*
X13225439Y18823360D01*
X13056492Y18840000D01*
X12143508Y18840000D01*
X11974561Y18823360D01*
X11757785Y18757602D01*
X11558003Y18650816D01*
X11382893Y18507107D01*
X11239184Y18331997D01*
X11132398Y18132215D01*
X11066640Y17915439D01*
X11044436Y17690000D01*
X10424617Y17690000D01*
X10308258Y17785492D01*
X10134534Y17878349D01*
X9946033Y17935530D01*
X9750000Y17954838D01*
X9553966Y17935530D01*
X9365465Y17878349D01*
X9191742Y17785492D01*
X9039472Y17660528D01*
X8914508Y17508258D01*
X8821651Y17334534D01*
X8764470Y17146033D01*
X8750000Y16999119D01*
X2500000Y16999119D01*
X2500000Y16999120D01*
X2485530Y17146034D01*
X2428349Y17334535D01*
X2335492Y17508258D01*
X2210528Y17660528D01*
X2058258Y17785492D01*
X1884534Y17878349D01*
X1696033Y17935530D01*
X1500000Y17954838D01*
X1303966Y17935530D01*
X1115465Y17878349D01*
X941742Y17785492D01*
X789472Y17660528D01*
X664508Y17508258D01*
X571651Y17334534D01*
X514470Y17146033D01*
X500000Y16999119D01*
X325000Y16999119D01*
X325000Y19899617D01*
X11098480Y19899617D01*
X11158251Y19719141D01*
X11277932Y19525722D01*
X11433047Y19359368D01*
X11617636Y19226472D01*
X11824605Y19132141D01*
X12046000Y19080000D01*
X12446000Y19080000D01*
X12446000Y20076000D01*
X12754000Y20076000D01*
X12754000Y19080000D01*
X13154000Y19080000D01*
X13375395Y19132141D01*
X13582364Y19226472D01*
X13766953Y19359368D01*
X13922068Y19525722D01*
X14041749Y19719141D01*
X14101520Y19899617D01*
X14063912Y20076000D01*
X12754000Y20076000D01*
X12446000Y20076000D01*
X11136088Y20076000D01*
X11098480Y19899617D01*
X325000Y19899617D01*
X325000Y20560383D01*
X11098480Y20560383D01*
X11136088Y20384000D01*
X12446000Y20384000D01*
X12446000Y20404000D01*
X12754000Y20404000D01*
X12754000Y20384000D01*
X14063912Y20384000D01*
X14101520Y20560383D01*
X14041749Y20740859D01*
X13922068Y20934278D01*
X13766953Y21100632D01*
X13582364Y21233528D01*
X13375395Y21327859D01*
X13154000Y21380000D01*
X12046000Y21380000D01*
X11824605Y21327859D01*
X11617636Y21233528D01*
X11433047Y21100632D01*
X11277932Y20934278D01*
X11158251Y20740859D01*
X11098480Y20560383D01*
X325000Y20560383D01*
X325000Y22770000D01*
X11044436Y22770000D01*
X11066640Y22544561D01*
X11132398Y22327785D01*
X11239184Y22128003D01*
X11382893Y21952893D01*
X11558003Y21809184D01*
X11757785Y21702398D01*
X11974561Y21636640D01*
X12143508Y21620000D01*
X13056492Y21620000D01*
X13225439Y21636640D01*
X13442215Y21702398D01*
X13641997Y21809184D01*
X13817107Y21952893D01*
X13960816Y22128003D01*
X14067602Y22327785D01*
X14133360Y22544561D01*
X14155564Y22770000D01*
X14133360Y22995439D01*
X14067602Y23212215D01*
X13960816Y23411997D01*
X13817107Y23587107D01*
X13641997Y23730816D01*
X13442215Y23837602D01*
X13225439Y23903360D01*
X13056492Y23920000D01*
X12143508Y23920000D01*
X11974561Y23903360D01*
X11757785Y23837602D01*
X11558003Y23730816D01*
X11382893Y23587107D01*
X11239184Y23411997D01*
X11132398Y23212215D01*
X11066640Y22995439D01*
X11044436Y22770000D01*
X325000Y22770000D01*
X325000Y37749870D01*
X448679Y37749870D01*
X448679Y34750130D01*
X454471Y34691320D01*
X471626Y34634770D01*
X499483Y34582653D01*
X536972Y34536972D01*
X582653Y34499483D01*
X634770Y34471626D01*
X691320Y34454471D01*
X750130Y34448679D01*
X1200000Y34448679D01*
X1200000Y33198553D01*
X1200001Y33198543D01*
X1200000Y28623388D01*
X1194921Y28571820D01*
X1200000Y28520252D01*
X1200000Y28520243D01*
X1215193Y28365985D01*
X1275233Y28168059D01*
X1372733Y27985649D01*
X1503946Y27825766D01*
X1544014Y27792883D01*
X4732892Y24604003D01*
X4765766Y24563946D01*
X4805823Y24531072D01*
X4805828Y24531067D01*
X4925648Y24432733D01*
X5108058Y24335233D01*
X5305984Y24275193D01*
X5460242Y24260000D01*
X5460251Y24260000D01*
X5511819Y24254921D01*
X5563387Y24260000D01*
X11724854Y24260000D01*
X11757785Y24242398D01*
X11974561Y24176640D01*
X12143508Y24160000D01*
X13056492Y24160000D01*
X13225439Y24176640D01*
X13442215Y24242398D01*
X13641997Y24349184D01*
X13817107Y24492893D01*
X13960816Y24668003D01*
X14067602Y24867785D01*
X14133360Y25084561D01*
X14155564Y25310000D01*
X14133360Y25535439D01*
X14067602Y25752215D01*
X13960816Y25951997D01*
X13817107Y26127107D01*
X13641997Y26270816D01*
X13442215Y26377602D01*
X13225439Y26443360D01*
X13056492Y26460000D01*
X12143508Y26460000D01*
X11974561Y26443360D01*
X11757785Y26377602D01*
X11724854Y26360000D01*
X9831581Y26360000D01*
X9946053Y26453945D01*
X9978936Y26494013D01*
X10284924Y26800000D01*
X11724854Y26800000D01*
X11757785Y26782398D01*
X11974561Y26716640D01*
X12143508Y26700000D01*
X13056492Y26700000D01*
X13225439Y26716640D01*
X13442215Y26782398D01*
X13641997Y26889184D01*
X13817107Y27032893D01*
X13960816Y27208003D01*
X14067602Y27407785D01*
X14133360Y27624561D01*
X14155564Y27850000D01*
X14133360Y28075439D01*
X14067602Y28292215D01*
X13960816Y28491997D01*
X13817107Y28667107D01*
X13641997Y28810816D01*
X13442215Y28917602D01*
X13225439Y28983360D01*
X13056492Y29000000D01*
X12143508Y29000000D01*
X11974561Y28983360D01*
X11757785Y28917602D01*
X11724854Y28900000D01*
X9901567Y28900000D01*
X9849999Y28905079D01*
X9798431Y28900000D01*
X9798422Y28900000D01*
X9644164Y28884807D01*
X9446238Y28824767D01*
X9263829Y28727267D01*
X9103946Y28596054D01*
X9071067Y28555991D01*
X8765076Y28249999D01*
X8424999Y28249999D01*
X8461179Y28274174D01*
X8725826Y28538821D01*
X8933758Y28850013D01*
X9076984Y29195791D01*
X9150000Y29562866D01*
X9150000Y29937134D01*
X9076984Y30304209D01*
X8933758Y30649987D01*
X8725826Y30961179D01*
X8461179Y31225826D01*
X8149987Y31433758D01*
X7804209Y31576984D01*
X7437134Y31650000D01*
X7062866Y31650000D01*
X6695791Y31576984D01*
X6350013Y31433758D01*
X6038821Y31225826D01*
X5774174Y30961179D01*
X5566242Y30649987D01*
X5423016Y30304209D01*
X5350000Y29937134D01*
X5350000Y29562866D01*
X5400144Y29310778D01*
X5050000Y29660921D01*
X5050000Y31633941D01*
X6765991Y33349931D01*
X6806054Y33382810D01*
X6937267Y33542693D01*
X7034767Y33725102D01*
X7094807Y33923028D01*
X7110000Y34077286D01*
X7110000Y34077296D01*
X7115079Y34128864D01*
X7110000Y34180432D01*
X7110000Y34786903D01*
X7207350Y34851950D01*
X7458050Y35102650D01*
X7655024Y35397442D01*
X7790702Y35724997D01*
X7859870Y36072728D01*
X7859870Y36427272D01*
X8070130Y36427272D01*
X8070130Y36072728D01*
X8139298Y35724997D01*
X8274976Y35397442D01*
X8471950Y35102650D01*
X8722650Y34851950D01*
X8820000Y34786903D01*
X8820000Y32765970D01*
X8814921Y32714402D01*
X8820000Y32662834D01*
X8820000Y32662825D01*
X8835193Y32508567D01*
X8895233Y32310641D01*
X8992733Y32128231D01*
X9123946Y31968348D01*
X9164014Y31935465D01*
X11123996Y29975482D01*
X11132398Y29947785D01*
X11239184Y29748003D01*
X11382893Y29572893D01*
X11558003Y29429184D01*
X11757785Y29322398D01*
X11974561Y29256640D01*
X12143508Y29240000D01*
X13056492Y29240000D01*
X13225439Y29256640D01*
X13442215Y29322398D01*
X13641997Y29429184D01*
X13817107Y29572893D01*
X13960816Y29748003D01*
X14061908Y29937134D01*
X33350000Y29937134D01*
X33350000Y29562866D01*
X33423016Y29195791D01*
X33566242Y28850013D01*
X33774174Y28538821D01*
X34038821Y28274174D01*
X34350013Y28066242D01*
X34695791Y27923016D01*
X35062866Y27850000D01*
X35437134Y27850000D01*
X35804209Y27923016D01*
X36149987Y28066242D01*
X36461179Y28274174D01*
X36725826Y28538821D01*
X36933758Y28850013D01*
X37076984Y29195791D01*
X37150000Y29562866D01*
X37150000Y29937134D01*
X37076984Y30304209D01*
X36933758Y30649987D01*
X36725826Y30961179D01*
X36461179Y31225826D01*
X36149987Y31433758D01*
X35804209Y31576984D01*
X35437134Y31650000D01*
X35062866Y31650000D01*
X34695791Y31576984D01*
X34350013Y31433758D01*
X34038821Y31225826D01*
X33774174Y30961179D01*
X33566242Y30649987D01*
X33423016Y30304209D01*
X33350000Y29937134D01*
X14061908Y29937134D01*
X14067602Y29947785D01*
X14133360Y30164561D01*
X14155564Y30390000D01*
X14133360Y30615439D01*
X14067602Y30832215D01*
X13960816Y31031997D01*
X13817107Y31207107D01*
X13641997Y31350816D01*
X13442215Y31457602D01*
X13225439Y31523360D01*
X13056492Y31540000D01*
X12529326Y31540000D01*
X12289326Y31780000D01*
X13056492Y31780000D01*
X13225439Y31796640D01*
X13442215Y31862398D01*
X13641997Y31969184D01*
X13817107Y32112893D01*
X13960816Y32288003D01*
X14067602Y32487785D01*
X14133360Y32704561D01*
X14155564Y32930000D01*
X14133360Y33155439D01*
X14067602Y33372215D01*
X13960816Y33571997D01*
X13817107Y33747107D01*
X13650000Y33884248D01*
X13650000Y34450130D01*
X13857272Y34450130D01*
X14205003Y34519298D01*
X14532558Y34654976D01*
X14827350Y34851950D01*
X15078050Y35102650D01*
X15275024Y35397442D01*
X15410702Y35724997D01*
X15479870Y36072728D01*
X15479870Y36128039D01*
X16050000Y36128039D01*
X16050000Y35871961D01*
X16099958Y35620804D01*
X16197955Y35384219D01*
X16340224Y35171298D01*
X16521298Y34990224D01*
X16734219Y34847955D01*
X16970804Y34749958D01*
X17221961Y34700000D01*
X17478039Y34700000D01*
X17729196Y34749958D01*
X17944977Y34839338D01*
X18253264Y34531051D01*
X18265790Y34515788D01*
X18326698Y34465802D01*
X18396187Y34428659D01*
X18471587Y34405787D01*
X18550001Y34398064D01*
X18569648Y34399999D01*
X22430353Y34399999D01*
X22449999Y34398064D01*
X22469645Y34399999D01*
X22469646Y34399999D01*
X22528413Y34405787D01*
X22603813Y34428659D01*
X22673302Y34465802D01*
X22734210Y34515788D01*
X22746737Y34531052D01*
X22918946Y34703262D01*
X22918951Y34703266D01*
X23055023Y34839338D01*
X23270804Y34749958D01*
X23521961Y34700000D01*
X23778039Y34700000D01*
X24029196Y34749958D01*
X24265781Y34847955D01*
X24478702Y34990224D01*
X24659776Y35171298D01*
X24802045Y35384219D01*
X24900042Y35620804D01*
X24950000Y35871961D01*
X24950000Y36128039D01*
X24900042Y36379196D01*
X24802045Y36615781D01*
X24659776Y36828702D01*
X24478702Y37009776D01*
X24265781Y37152045D01*
X24029196Y37250042D01*
X23778039Y37300000D01*
X23521961Y37300000D01*
X23270804Y37250042D01*
X23034219Y37152045D01*
X22821298Y37009776D01*
X22640224Y36828702D01*
X22497955Y36615781D01*
X22399958Y36379196D01*
X22350000Y36128039D01*
X22350000Y35871961D01*
X22399958Y35620804D01*
X22489338Y35405023D01*
X22353266Y35268951D01*
X22353262Y35268946D01*
X22284315Y35199999D01*
X21255633Y35199999D01*
X21354425Y35298791D01*
X21474807Y35478955D01*
X21557727Y35679142D01*
X21600000Y35891659D01*
X21600000Y36108341D01*
X21557727Y36320858D01*
X21474807Y36521045D01*
X21354425Y36701209D01*
X21201209Y36854425D01*
X21021045Y36974807D01*
X20820858Y37057727D01*
X20608341Y37100000D01*
X20391659Y37100000D01*
X20179142Y37057727D01*
X19978955Y36974807D01*
X19798791Y36854425D01*
X19645575Y36701209D01*
X19525193Y36521045D01*
X19442273Y36320858D01*
X19400000Y36108341D01*
X19400000Y35891659D01*
X19442273Y35679142D01*
X19525193Y35478955D01*
X19645575Y35298791D01*
X19744367Y35199999D01*
X18715686Y35199999D01*
X18510662Y35405023D01*
X18600042Y35620804D01*
X18650000Y35871961D01*
X18650000Y36128039D01*
X18600042Y36379196D01*
X18502045Y36615781D01*
X18359776Y36828702D01*
X18178702Y37009776D01*
X17965781Y37152045D01*
X17729196Y37250042D01*
X17478039Y37300000D01*
X17221961Y37300000D01*
X16970804Y37250042D01*
X16734219Y37152045D01*
X16521298Y37009776D01*
X16340224Y36828702D01*
X16197955Y36615781D01*
X16099958Y36379196D01*
X16050000Y36128039D01*
X15479870Y36128039D01*
X15479870Y36427272D01*
X15410702Y36775003D01*
X15275024Y37102558D01*
X15078050Y37397350D01*
X14827350Y37648050D01*
X14532558Y37845024D01*
X14205003Y37980702D01*
X13857272Y38049870D01*
X13502728Y38049870D01*
X13154997Y37980702D01*
X12827442Y37845024D01*
X12532650Y37648050D01*
X12281950Y37397350D01*
X12084976Y37102558D01*
X11949298Y36775003D01*
X11880130Y36427272D01*
X11880130Y36072728D01*
X11902972Y35957895D01*
X11894009Y35948932D01*
X11853947Y35916054D01*
X11821068Y35875991D01*
X11821067Y35875990D01*
X11722733Y35756171D01*
X11625233Y35573761D01*
X11565194Y35375835D01*
X11544921Y35170000D01*
X11550001Y35118422D01*
X11550000Y33884248D01*
X11382893Y33747107D01*
X11239184Y33571997D01*
X11132398Y33372215D01*
X11066640Y33155439D01*
X11052944Y33016381D01*
X10920000Y33149325D01*
X10920000Y34786903D01*
X11017350Y34851950D01*
X11268050Y35102650D01*
X11465024Y35397442D01*
X11600702Y35724997D01*
X11669870Y36072728D01*
X11669870Y36427272D01*
X11600702Y36775003D01*
X11465024Y37102558D01*
X11268050Y37397350D01*
X11017350Y37648050D01*
X10722558Y37845024D01*
X10395003Y37980702D01*
X10047272Y38049870D01*
X9692728Y38049870D01*
X9344997Y37980702D01*
X9017442Y37845024D01*
X8722650Y37648050D01*
X8471950Y37397350D01*
X8274976Y37102558D01*
X8139298Y36775003D01*
X8070130Y36427272D01*
X7859870Y36427272D01*
X7790702Y36775003D01*
X7655024Y37102558D01*
X7458050Y37397350D01*
X7207350Y37648050D01*
X6912558Y37845024D01*
X6585003Y37980702D01*
X6237272Y38049870D01*
X5882728Y38049870D01*
X5534997Y37980702D01*
X5207442Y37845024D01*
X4912650Y37648050D01*
X4661950Y37397350D01*
X4464976Y37102558D01*
X4329298Y36775003D01*
X4260130Y36427272D01*
X4260130Y36072728D01*
X4329298Y35724997D01*
X4464976Y35397442D01*
X4661950Y35102650D01*
X4912650Y34851950D01*
X5010000Y34786903D01*
X5010000Y34563788D01*
X3300000Y32853787D01*
X3300000Y34448679D01*
X3749870Y34448679D01*
X3808680Y34454471D01*
X3865230Y34471626D01*
X3917347Y34499483D01*
X3963028Y34536972D01*
X4000517Y34582653D01*
X4028374Y34634770D01*
X4045529Y34691320D01*
X4051321Y34750130D01*
X4051321Y37749870D01*
X4045529Y37808680D01*
X4028374Y37865230D01*
X4000517Y37917347D01*
X3963028Y37963028D01*
X3917347Y38000517D01*
X3865230Y38028374D01*
X3808680Y38045529D01*
X3749870Y38051321D01*
X750130Y38051321D01*
X691320Y38045529D01*
X634770Y38028374D01*
X582653Y38000517D01*
X536972Y37963028D01*
X499483Y37917347D01*
X471626Y37865230D01*
X454471Y37808680D01*
X448679Y37749870D01*
X325000Y37749870D01*
X325000Y40999119D01*
X500000Y40999119D01*
X500001Y39500880D01*
X514471Y39353966D01*
X571652Y39165465D01*
X664509Y38991742D01*
X789473Y38839472D01*
X941743Y38714508D01*
X1115466Y38621651D01*
X1303967Y38564470D01*
X1500000Y38545162D01*
X1696034Y38564470D01*
X1884535Y38621651D01*
X2058258Y38714508D01*
X2210528Y38839472D01*
X2335492Y38991742D01*
X2428349Y39165465D01*
X2485530Y39353966D01*
X2500000Y39500880D01*
X2500000Y40999119D01*
X13750000Y40999119D01*
X13750001Y39500880D01*
X13764471Y39353966D01*
X13821652Y39165465D01*
X13914509Y38991742D01*
X14039473Y38839472D01*
X14191743Y38714508D01*
X14365466Y38621651D01*
X14553967Y38564470D01*
X14750000Y38545162D01*
X14946034Y38564470D01*
X15134535Y38621651D01*
X15308258Y38714508D01*
X15460528Y38839472D01*
X15585492Y38991742D01*
X15678349Y39165465D01*
X15735530Y39353966D01*
X15750000Y39500880D01*
X15750000Y39628039D01*
X16050000Y39628039D01*
X16050000Y39371961D01*
X16099958Y39120804D01*
X16197955Y38884219D01*
X16340224Y38671298D01*
X16521298Y38490224D01*
X16734219Y38347955D01*
X16970804Y38249958D01*
X17221961Y38200000D01*
X17478039Y38200000D01*
X17729196Y38249958D01*
X17965781Y38347955D01*
X18178702Y38490224D01*
X18359776Y38671298D01*
X18502045Y38884219D01*
X18600042Y39120804D01*
X18650000Y39371961D01*
X18650000Y39628039D01*
X18600042Y39879196D01*
X18502045Y40115781D01*
X18359776Y40328702D01*
X18178702Y40509776D01*
X17965781Y40652045D01*
X17729196Y40750042D01*
X17478039Y40800000D01*
X17221961Y40800000D01*
X16970804Y40750042D01*
X16734219Y40652045D01*
X16521298Y40509776D01*
X16340224Y40328702D01*
X16197955Y40115781D01*
X16099958Y39879196D01*
X16050000Y39628039D01*
X15750000Y39628039D01*
X15750000Y40999120D01*
X15735530Y41146034D01*
X15678349Y41334535D01*
X15585492Y41508258D01*
X15460528Y41660528D01*
X15379179Y41727289D01*
X16595078Y41727289D01*
X16712125Y41560039D01*
X16946777Y41457500D01*
X17196924Y41402709D01*
X17452954Y41397773D01*
X17705028Y41442881D01*
X17943458Y41536299D01*
X17987875Y41560039D01*
X18104922Y41727289D01*
X17350000Y42482211D01*
X16595078Y41727289D01*
X15379179Y41727289D01*
X15308258Y41785492D01*
X15134534Y41878349D01*
X14946033Y41935530D01*
X14750000Y41954838D01*
X14553966Y41935530D01*
X14365465Y41878349D01*
X14191742Y41785492D01*
X14039472Y41660528D01*
X13914508Y41508258D01*
X13821651Y41334534D01*
X13764470Y41146033D01*
X13750000Y40999119D01*
X2500000Y40999119D01*
X2500000Y40999120D01*
X2485530Y41146034D01*
X2428349Y41334535D01*
X2335492Y41508258D01*
X2210528Y41660528D01*
X2058258Y41785492D01*
X1884534Y41878349D01*
X1696033Y41935530D01*
X1500000Y41954838D01*
X1303966Y41935530D01*
X1115465Y41878349D01*
X941742Y41785492D01*
X789472Y41660528D01*
X664508Y41508258D01*
X571651Y41334534D01*
X514470Y41146033D01*
X500000Y40999119D01*
X325000Y40999119D01*
X325000Y41484103D01*
X339384Y41630805D01*
X377373Y41756629D01*
X439076Y41872675D01*
X522148Y41974532D01*
X623418Y42058310D01*
X739027Y42120819D01*
X864586Y42159686D01*
X1010285Y42175000D01*
X14765961Y42175000D01*
X14780229Y42176405D01*
X14786437Y42176362D01*
X14790954Y42176804D01*
X14985051Y42197205D01*
X15013938Y42203135D01*
X15042838Y42208648D01*
X15047183Y42209959D01*
X15233621Y42267671D01*
X15260810Y42279100D01*
X15288086Y42290121D01*
X15292093Y42292251D01*
X15463770Y42385076D01*
X15488192Y42401549D01*
X15512839Y42417678D01*
X15516356Y42420546D01*
X15666734Y42544949D01*
X15687498Y42565859D01*
X15708535Y42586460D01*
X15711428Y42589956D01*
X15717210Y42597046D01*
X16047773Y42597046D01*
X16092881Y42344972D01*
X16186299Y42106542D01*
X16210039Y42062125D01*
X16377289Y41945078D01*
X17132211Y42700000D01*
X17567789Y42700000D01*
X18322711Y41945078D01*
X18489961Y42062125D01*
X18510156Y42108341D01*
X19400000Y42108341D01*
X19400000Y41891659D01*
X19442273Y41679142D01*
X19525193Y41478955D01*
X19645575Y41298791D01*
X19798791Y41145575D01*
X19978955Y41025193D01*
X20179142Y40942273D01*
X20391659Y40900000D01*
X20608341Y40900000D01*
X20820858Y40942273D01*
X21021045Y41025193D01*
X21201209Y41145575D01*
X21354425Y41298791D01*
X21474807Y41478955D01*
X21557727Y41679142D01*
X21567304Y41727289D01*
X22895078Y41727289D01*
X23012125Y41560039D01*
X23246777Y41457500D01*
X23496924Y41402709D01*
X23752954Y41397773D01*
X24005028Y41442881D01*
X24243458Y41536299D01*
X24287875Y41560039D01*
X24404922Y41727289D01*
X23650000Y42482211D01*
X22895078Y41727289D01*
X21567304Y41727289D01*
X21600000Y41891659D01*
X21600000Y42108341D01*
X21557727Y42320858D01*
X21474807Y42521045D01*
X21424025Y42597046D01*
X22347773Y42597046D01*
X22392881Y42344972D01*
X22486299Y42106542D01*
X22510039Y42062125D01*
X22677289Y41945078D01*
X23432211Y42700000D01*
X23867789Y42700000D01*
X24622711Y41945078D01*
X24789961Y42062125D01*
X24892500Y42296777D01*
X24947291Y42546924D01*
X24952227Y42802954D01*
X24907119Y43055028D01*
X24813701Y43293458D01*
X24789961Y43337875D01*
X24622711Y43454922D01*
X23867789Y42700000D01*
X23432211Y42700000D01*
X22677289Y43454922D01*
X22510039Y43337875D01*
X22407500Y43103223D01*
X22352709Y42853076D01*
X22347773Y42597046D01*
X21424025Y42597046D01*
X21354425Y42701209D01*
X21201209Y42854425D01*
X21021045Y42974807D01*
X20820858Y43057727D01*
X20608341Y43100000D01*
X20391659Y43100000D01*
X20179142Y43057727D01*
X19978955Y42974807D01*
X19798791Y42854425D01*
X19645575Y42701209D01*
X19525193Y42521045D01*
X19442273Y42320858D01*
X19400000Y42108341D01*
X18510156Y42108341D01*
X18592500Y42296777D01*
X18647291Y42546924D01*
X18652227Y42802954D01*
X18607119Y43055028D01*
X18513701Y43293458D01*
X18489961Y43337875D01*
X18322711Y43454922D01*
X17567789Y42700000D01*
X17132211Y42700000D01*
X16377289Y43454922D01*
X16210039Y43337875D01*
X16107500Y43103223D01*
X16052709Y42853076D01*
X16047773Y42597046D01*
X15717210Y42597046D01*
X15834778Y42741198D01*
X15851096Y42765759D01*
X15867720Y42790038D01*
X15869879Y42794030D01*
X15961504Y42966352D01*
X15972725Y42993576D01*
X15984333Y43020660D01*
X15985675Y43024995D01*
X16042084Y43211831D01*
X16047809Y43240747D01*
X16053929Y43269538D01*
X16054404Y43274051D01*
X16073449Y43468285D01*
X16073449Y43468286D01*
X16089384Y43630805D01*
X16102036Y43672711D01*
X16595078Y43672711D01*
X17350000Y42917789D01*
X18104922Y43672711D01*
X22895078Y43672711D01*
X23650000Y42917789D01*
X24404922Y43672711D01*
X24287875Y43839961D01*
X24053223Y43942500D01*
X23803076Y43997291D01*
X23547046Y44002227D01*
X23294972Y43957119D01*
X23056542Y43863701D01*
X23012125Y43839961D01*
X22895078Y43672711D01*
X18104922Y43672711D01*
X17987875Y43839961D01*
X17753223Y43942500D01*
X17503076Y43997291D01*
X17247046Y44002227D01*
X16994972Y43957119D01*
X16756542Y43863701D01*
X16712125Y43839961D01*
X16595078Y43672711D01*
X16102036Y43672711D01*
X16127373Y43756629D01*
X16189076Y43872675D01*
X16272148Y43974532D01*
X16373418Y44058310D01*
X16489027Y44120819D01*
X16614586Y44159686D01*
X16760285Y44175000D01*
X38734103Y44175000D01*
X38880805Y44160616D01*
X38880805Y44160616D01*
G37*
X38880805Y44160616D02*
X39006629Y44122627D01*
X39122675Y44060924D01*
X39224532Y43977852D01*
X39308310Y43876582D01*
X39370819Y43760973D01*
X39409686Y43635414D01*
X39425001Y43489705D01*
X39425001Y25437317D01*
X39385361Y25458505D01*
X39328810Y25475660D01*
X39270000Y25481452D01*
X37999000Y25480000D01*
X37924000Y25405000D01*
X37924000Y24834000D01*
X37944000Y24834000D01*
X37944000Y24526000D01*
X37924000Y24526000D01*
X37924000Y23955000D01*
X37999000Y23880000D01*
X39270000Y23878548D01*
X39328810Y23884340D01*
X39385361Y23901495D01*
X39425001Y23922683D01*
X39425001Y22897316D01*
X39385360Y22918504D01*
X39328810Y22935659D01*
X39270000Y22941451D01*
X37363823Y22941451D01*
X37419397Y23024624D01*
X37472164Y23152016D01*
X37499065Y23287254D01*
X37499065Y23425142D01*
X37472164Y23560380D01*
X37419397Y23687772D01*
X37342791Y23802422D01*
X37265528Y23879685D01*
X37541000Y23880000D01*
X37616000Y23955000D01*
X37616000Y24526000D01*
X36045000Y24526000D01*
X35970000Y24451000D01*
X35968548Y24180000D01*
X35974340Y24121190D01*
X35991495Y24064639D01*
X36019352Y24012522D01*
X36056841Y23966841D01*
X36102522Y23929352D01*
X36154639Y23901495D01*
X36211190Y23884340D01*
X36270000Y23878548D01*
X36331535Y23878618D01*
X36255339Y23802422D01*
X36178733Y23687772D01*
X36155532Y23631760D01*
X36137513Y23675263D01*
X36060907Y23789913D01*
X35963405Y23887415D01*
X35848755Y23964021D01*
X35721363Y24016788D01*
X35684735Y24024074D01*
X35703426Y24042765D01*
X35726317Y24061551D01*
X35801296Y24152913D01*
X35857010Y24257147D01*
X35891318Y24370247D01*
X35900000Y24458394D01*
X35900000Y24458395D01*
X35902903Y24487867D01*
X35900000Y24517341D01*
X35900000Y24867174D01*
X35969850Y24937024D01*
X35970000Y24909000D01*
X36045000Y24834000D01*
X37616000Y24834000D01*
X37616000Y25405000D01*
X37541000Y25480000D01*
X36514000Y25481173D01*
X37682827Y26650000D01*
X37888005Y26650000D01*
X37918434Y26629668D01*
X38045826Y26576901D01*
X38181064Y26550000D01*
X38318952Y26550000D01*
X38454190Y26576901D01*
X38581582Y26629668D01*
X38696232Y26706274D01*
X38793734Y26803776D01*
X38870340Y26918426D01*
X38923107Y27045818D01*
X38950008Y27181056D01*
X38950008Y27318944D01*
X38923107Y27454182D01*
X38870340Y27581574D01*
X38793734Y27696224D01*
X38696232Y27793726D01*
X38581582Y27870332D01*
X38454190Y27923099D01*
X38318952Y27950000D01*
X38181064Y27950000D01*
X38045826Y27923099D01*
X37918434Y27870332D01*
X37888005Y27850000D01*
X37463775Y27850000D01*
X37434299Y27852903D01*
X37316678Y27841319D01*
X37203578Y27807010D01*
X37099344Y27751296D01*
X37007982Y27676317D01*
X36989190Y27653419D01*
X34896582Y25560810D01*
X34873684Y25542018D01*
X34798705Y25450656D01*
X34742990Y25346422D01*
X34727501Y25295360D01*
X34708682Y25233321D01*
X34697097Y25115701D01*
X34700000Y25086227D01*
X34700000Y24736397D01*
X34531451Y24567847D01*
X34531451Y25180000D01*
X34525659Y25238810D01*
X34508504Y25295360D01*
X34480647Y25347477D01*
X34443158Y25393158D01*
X34397477Y25430647D01*
X34345360Y25458504D01*
X34288810Y25475659D01*
X34230000Y25481451D01*
X32918499Y25481451D01*
X32547295Y25852654D01*
X32543554Y25859654D01*
X32530332Y25891574D01*
X32511135Y25920304D01*
X32494845Y25950781D01*
X32472925Y25977490D01*
X32453726Y26006224D01*
X32429287Y26030663D01*
X32407369Y26057370D01*
X32380663Y26079287D01*
X32356224Y26103726D01*
X32327487Y26122928D01*
X32300780Y26144845D01*
X32270308Y26161133D01*
X32241574Y26180332D01*
X32209650Y26193555D01*
X32179174Y26209845D01*
X32146103Y26219877D01*
X32114182Y26233099D01*
X32080295Y26239840D01*
X32047223Y26249872D01*
X32012832Y26253259D01*
X31978944Y26260000D01*
X31944390Y26260000D01*
X31910000Y26263387D01*
X31875610Y26260000D01*
X31841056Y26260000D01*
X31807169Y26253259D01*
X31772776Y26249872D01*
X31739702Y26239839D01*
X31705818Y26233099D01*
X31673900Y26219878D01*
X31640825Y26209845D01*
X31610346Y26193554D01*
X31578426Y26180332D01*
X31549696Y26161135D01*
X31519219Y26144845D01*
X31492510Y26122925D01*
X31463776Y26103726D01*
X31439337Y26079287D01*
X31412630Y26057369D01*
X31390713Y26030663D01*
X31366274Y26006224D01*
X31347072Y25977487D01*
X31325155Y25950780D01*
X31308867Y25920308D01*
X31289668Y25891574D01*
X31276445Y25859650D01*
X31260155Y25829174D01*
X31250123Y25796103D01*
X31236901Y25764182D01*
X31230160Y25730295D01*
X31220128Y25697223D01*
X31216741Y25662832D01*
X31210000Y25628944D01*
X31210000Y25534387D01*
X31206613Y25500000D01*
X31208647Y25479348D01*
X31171190Y25475659D01*
X31114640Y25458504D01*
X31062523Y25430647D01*
X31016842Y25393158D01*
X30979353Y25347477D01*
X30951496Y25295360D01*
X30934341Y25238810D01*
X30928549Y25180000D01*
X30928549Y24666016D01*
X30847258Y24720332D01*
X30719866Y24773099D01*
X30584628Y24800000D01*
X30446740Y24800000D01*
X30311502Y24773099D01*
X30184110Y24720332D01*
X30069460Y24643726D01*
X29971958Y24546224D01*
X29895352Y24431574D01*
X29842585Y24304182D01*
X29815684Y24168944D01*
X29815684Y24031056D01*
X29842585Y23895818D01*
X29895352Y23768426D01*
X29945652Y23693146D01*
X29945651Y22661982D01*
X29925319Y22631552D01*
X29872552Y22504160D01*
X29845651Y22368922D01*
X29845651Y22231034D01*
X29872552Y22095796D01*
X29925319Y21968404D01*
X30001925Y21853754D01*
X30099427Y21756252D01*
X30214077Y21679646D01*
X30341469Y21626879D01*
X30476707Y21599978D01*
X30614595Y21599978D01*
X30749833Y21626879D01*
X30877225Y21679646D01*
X30928549Y21713939D01*
X30928549Y21640000D01*
X30934341Y21581190D01*
X30951496Y21524640D01*
X30979353Y21472523D01*
X31016842Y21426842D01*
X31062523Y21389353D01*
X31114640Y21361496D01*
X31171190Y21344341D01*
X31230000Y21338549D01*
X31972000Y21338549D01*
X31972000Y21173056D01*
X31978741Y21139168D01*
X31982128Y21104777D01*
X31992160Y21071705D01*
X31998901Y21037818D01*
X32012123Y21005897D01*
X32022155Y20972826D01*
X32038445Y20942350D01*
X32051668Y20910426D01*
X32070867Y20881692D01*
X32087155Y20851220D01*
X32109072Y20824513D01*
X32128274Y20795776D01*
X32152713Y20771337D01*
X32174630Y20744631D01*
X32201337Y20722713D01*
X32225776Y20698274D01*
X32254510Y20679075D01*
X32281219Y20657155D01*
X32311696Y20640865D01*
X32340426Y20621668D01*
X32372346Y20608446D01*
X32402825Y20592155D01*
X32435900Y20582122D01*
X32467818Y20568901D01*
X32501702Y20562161D01*
X32534776Y20552128D01*
X32569169Y20548741D01*
X32603056Y20542000D01*
X32637610Y20542000D01*
X32672000Y20538613D01*
X32706390Y20542000D01*
X32740944Y20542000D01*
X32774832Y20548741D01*
X32809223Y20552128D01*
X32842295Y20562160D01*
X32876182Y20568901D01*
X32908103Y20582123D01*
X32941174Y20592155D01*
X32971650Y20608445D01*
X33003574Y20621668D01*
X33032308Y20640867D01*
X33062780Y20657155D01*
X33089487Y20679072D01*
X33118224Y20698274D01*
X33142663Y20722713D01*
X33169369Y20744630D01*
X33191287Y20771337D01*
X33215726Y20795776D01*
X33234925Y20824510D01*
X33256845Y20851219D01*
X33273135Y20881696D01*
X33292332Y20910426D01*
X33305554Y20942346D01*
X33321845Y20972825D01*
X33331878Y21005900D01*
X33345099Y21037818D01*
X33351839Y21071702D01*
X33361872Y21104776D01*
X33365259Y21139169D01*
X33372000Y21173056D01*
X33372000Y21338549D01*
X34230000Y21338549D01*
X34288810Y21344341D01*
X34299991Y21347733D01*
X34299991Y20392267D01*
X34288810Y20395659D01*
X34230000Y20401451D01*
X31230000Y20401451D01*
X31171190Y20395659D01*
X31114640Y20378504D01*
X31062523Y20350647D01*
X31016842Y20313158D01*
X30979353Y20267477D01*
X30951496Y20215360D01*
X30934341Y20158810D01*
X30928549Y20100000D01*
X30928549Y19100000D01*
X30934341Y19041190D01*
X30951496Y18984640D01*
X30979353Y18932523D01*
X31016842Y18886842D01*
X31062523Y18849353D01*
X31114640Y18821496D01*
X31171190Y18804341D01*
X31230000Y18798549D01*
X31977491Y18798549D01*
X31972000Y18770944D01*
X31972000Y18736387D01*
X31968613Y18702000D01*
X31972000Y18667613D01*
X31972000Y18633056D01*
X31978742Y18599161D01*
X31982129Y18564777D01*
X31992159Y18531712D01*
X31998901Y18497818D01*
X32012124Y18465895D01*
X32022155Y18432826D01*
X32038445Y18402349D01*
X32051668Y18370426D01*
X32070865Y18341695D01*
X32087155Y18311219D01*
X32109074Y18284511D01*
X32128274Y18255776D01*
X32152716Y18231334D01*
X32174631Y18204631D01*
X32201334Y18182716D01*
X32225776Y18158274D01*
X32254511Y18139074D01*
X32281219Y18117155D01*
X32311695Y18100865D01*
X32340426Y18081668D01*
X32372349Y18068445D01*
X32402826Y18052155D01*
X32435895Y18042124D01*
X32467818Y18028901D01*
X32501712Y18022159D01*
X32534777Y18012129D01*
X32569161Y18008742D01*
X32603056Y18002000D01*
X32637613Y18002000D01*
X32672000Y17998613D01*
X32706387Y18002000D01*
X32740944Y18002000D01*
X32774839Y18008742D01*
X32809223Y18012129D01*
X32842288Y18022159D01*
X32876182Y18028901D01*
X32908105Y18042124D01*
X32941174Y18052155D01*
X32971651Y18068445D01*
X33003574Y18081668D01*
X33032305Y18100865D01*
X33062781Y18117155D01*
X33089490Y18139075D01*
X33118224Y18158274D01*
X33200659Y18240709D01*
X33227370Y18262630D01*
X33314845Y18369219D01*
X33379845Y18490825D01*
X33419872Y18622776D01*
X33430000Y18725610D01*
X33430000Y18725612D01*
X33433387Y18759999D01*
X33430000Y18794386D01*
X33430000Y18798549D01*
X34230000Y18798549D01*
X34288810Y18804341D01*
X34299991Y18807733D01*
X34299991Y17852267D01*
X34288810Y17855659D01*
X34230000Y17861451D01*
X31230000Y17861451D01*
X31171190Y17855659D01*
X31114640Y17838504D01*
X31062523Y17810647D01*
X31016842Y17773158D01*
X30979353Y17727477D01*
X30951496Y17675360D01*
X30934341Y17618810D01*
X30928549Y17560000D01*
X30928549Y16560000D01*
X30934341Y16501190D01*
X30951496Y16444640D01*
X30979353Y16392523D01*
X31016842Y16346842D01*
X31062523Y16309353D01*
X31114640Y16281496D01*
X31171190Y16264341D01*
X31230000Y16258549D01*
X31977491Y16258549D01*
X31972000Y16230944D01*
X31972000Y16196387D01*
X31968613Y16162000D01*
X31972000Y16127613D01*
X31972000Y16093056D01*
X31978742Y16059161D01*
X31982129Y16024777D01*
X31992159Y15991712D01*
X31998901Y15957818D01*
X32012124Y15925895D01*
X32022155Y15892826D01*
X32038445Y15862349D01*
X32051668Y15830426D01*
X32070865Y15801695D01*
X32087155Y15771219D01*
X32109074Y15744511D01*
X32128274Y15715776D01*
X32152716Y15691334D01*
X32174631Y15664631D01*
X32201334Y15642716D01*
X32225776Y15618274D01*
X32254511Y15599074D01*
X32281219Y15577155D01*
X32311695Y15560865D01*
X32340426Y15541668D01*
X32372349Y15528445D01*
X32402826Y15512155D01*
X32435895Y15502124D01*
X32467818Y15488901D01*
X32501712Y15482159D01*
X32534777Y15472129D01*
X32569161Y15468742D01*
X32603056Y15462000D01*
X32637613Y15462000D01*
X32672000Y15458613D01*
X32706387Y15462000D01*
X32740944Y15462000D01*
X32774839Y15468742D01*
X32809223Y15472129D01*
X32842288Y15482159D01*
X32876182Y15488901D01*
X32908105Y15502124D01*
X32941174Y15512155D01*
X32971651Y15528445D01*
X33003574Y15541668D01*
X33032305Y15560865D01*
X33062781Y15577155D01*
X33089490Y15599075D01*
X33118224Y15618274D01*
X33200659Y15700709D01*
X33227370Y15722630D01*
X33314845Y15829219D01*
X33379845Y15950825D01*
X33419872Y16082776D01*
X33430000Y16185610D01*
X33430000Y16185612D01*
X33433387Y16219999D01*
X33430000Y16254386D01*
X33430000Y16258549D01*
X34230000Y16258549D01*
X34288810Y16264341D01*
X34299990Y16267733D01*
X34299990Y15312267D01*
X34288810Y15315659D01*
X34230000Y15321451D01*
X31230000Y15321451D01*
X31171190Y15315659D01*
X31114640Y15298504D01*
X31062523Y15270647D01*
X31016842Y15233158D01*
X31015209Y15231168D01*
X31000305Y15239135D01*
X30971574Y15258332D01*
X30939651Y15271555D01*
X30909174Y15287845D01*
X30876105Y15297876D01*
X30844182Y15311099D01*
X30810288Y15317841D01*
X30777223Y15327871D01*
X30742839Y15331258D01*
X30708944Y15338000D01*
X30674387Y15338000D01*
X30640000Y15341387D01*
X30605613Y15338000D01*
X30571056Y15338000D01*
X30537161Y15331258D01*
X30502777Y15327871D01*
X30469712Y15317841D01*
X30435818Y15311099D01*
X30403895Y15297876D01*
X30370826Y15287845D01*
X30340349Y15271555D01*
X30308426Y15258332D01*
X30279695Y15239135D01*
X30249219Y15222845D01*
X30222511Y15200926D01*
X30193776Y15181726D01*
X30169334Y15157284D01*
X30142631Y15135369D01*
X30120716Y15108666D01*
X30096274Y15084224D01*
X30077074Y15055489D01*
X30055155Y15028781D01*
X30038865Y14998305D01*
X30019668Y14969574D01*
X30006445Y14937651D01*
X29990155Y14907174D01*
X29980124Y14874105D01*
X29966901Y14842182D01*
X29960159Y14808288D01*
X29950129Y14775223D01*
X29946742Y14740839D01*
X29940000Y14706944D01*
X29940000Y14672387D01*
X29936613Y14638000D01*
X29940000Y14603613D01*
X29940000Y14569056D01*
X29946742Y14535161D01*
X29950129Y14500777D01*
X29960159Y14467712D01*
X29966901Y14433818D01*
X29980124Y14401895D01*
X29990155Y14368826D01*
X30006445Y14338349D01*
X30019668Y14306426D01*
X30038865Y14277695D01*
X30055155Y14247219D01*
X30077075Y14220510D01*
X30096274Y14191776D01*
X30193776Y14094274D01*
X30193779Y14094272D01*
X30238704Y14049347D01*
X30260630Y14022630D01*
X30367219Y13935155D01*
X30488825Y13870155D01*
X30620776Y13830128D01*
X30723610Y13820000D01*
X30723612Y13820000D01*
X30757999Y13816613D01*
X30792386Y13820000D01*
X31006044Y13820000D01*
X31016842Y13806842D01*
X31062523Y13769353D01*
X31114640Y13741496D01*
X31171190Y13724341D01*
X31230000Y13718549D01*
X34230000Y13718549D01*
X34288810Y13724341D01*
X34299990Y13727733D01*
X34299990Y12772267D01*
X34288810Y12775659D01*
X34230000Y12781451D01*
X31230000Y12781451D01*
X31171190Y12775659D01*
X31114640Y12758504D01*
X31062523Y12730647D01*
X31016842Y12693158D01*
X31006044Y12680000D01*
X30810386Y12680000D01*
X30775999Y12683387D01*
X30741612Y12680000D01*
X30741610Y12680000D01*
X30638776Y12669872D01*
X30506825Y12629845D01*
X30385219Y12564845D01*
X30278630Y12477370D01*
X30256704Y12450653D01*
X30193779Y12387728D01*
X30193776Y12387726D01*
X30096274Y12290224D01*
X30077075Y12261490D01*
X30055155Y12234781D01*
X30038865Y12204305D01*
X30019668Y12175574D01*
X30006445Y12143651D01*
X29990155Y12113174D01*
X29980124Y12080105D01*
X29966901Y12048182D01*
X29960159Y12014288D01*
X29950129Y11981223D01*
X29946742Y11946839D01*
X29940000Y11912944D01*
X29940000Y11878387D01*
X29936613Y11844000D01*
X29940000Y11809613D01*
X29940000Y11775056D01*
X29946742Y11741161D01*
X29950129Y11706777D01*
X29960159Y11673712D01*
X29966901Y11639818D01*
X29980124Y11607895D01*
X29990155Y11574826D01*
X30006445Y11544349D01*
X30019668Y11512426D01*
X30038865Y11483695D01*
X30055155Y11453219D01*
X30077074Y11426511D01*
X30096274Y11397776D01*
X30120716Y11373334D01*
X30142631Y11346631D01*
X30169334Y11324716D01*
X30193776Y11300274D01*
X30222511Y11281074D01*
X30249219Y11259155D01*
X30279695Y11242865D01*
X30308426Y11223668D01*
X30340349Y11210445D01*
X30370826Y11194155D01*
X30403895Y11184124D01*
X30435818Y11170901D01*
X30469712Y11164159D01*
X30502777Y11154129D01*
X30537161Y11150742D01*
X30571056Y11144000D01*
X30605613Y11144000D01*
X30640000Y11140613D01*
X30674387Y11144000D01*
X30695230Y11144000D01*
X30673683Y11126317D01*
X30654894Y11103422D01*
X29796581Y10245108D01*
X29773684Y10226317D01*
X29698705Y10134955D01*
X29672905Y10086686D01*
X29642991Y10030721D01*
X29608682Y9917620D01*
X29597097Y9800000D01*
X29600001Y9770516D01*
X29600000Y6329474D01*
X29597097Y6300000D01*
X29602132Y6248883D01*
X29608682Y6182380D01*
X29642990Y6069280D01*
X29698704Y5965046D01*
X29773683Y5873683D01*
X29796586Y5854887D01*
X30140191Y5511282D01*
X30038169Y5542084D01*
X30009285Y5547803D01*
X29980462Y5553929D01*
X29975948Y5554404D01*
X29781715Y5573449D01*
X29781708Y5573449D01*
X29765961Y5575000D01*
X1015896Y5575000D01*
X869195Y5589384D01*
X743371Y5627373D01*
X627325Y5689076D01*
X525469Y5772147D01*
X441693Y5873414D01*
X379181Y5989027D01*
X340313Y6114590D01*
X325000Y6260284D01*
X325000Y10070000D01*
X11044436Y10070000D01*
X11066640Y9844561D01*
X11132398Y9627785D01*
X11239184Y9428003D01*
X11382893Y9252893D01*
X11558003Y9109184D01*
X11757785Y9002398D01*
X11974561Y8936640D01*
X12143508Y8920000D01*
X13056492Y8920000D01*
X13225439Y8936640D01*
X13442215Y9002398D01*
X13641997Y9109184D01*
X13817107Y9252893D01*
X13960816Y9428003D01*
X14067602Y9627785D01*
X14133360Y9844561D01*
X14155564Y10070000D01*
X14133360Y10295439D01*
X14067602Y10512215D01*
X13960816Y10711997D01*
X13817107Y10887107D01*
X13641997Y11030816D01*
X13442215Y11137602D01*
X13225439Y11203360D01*
X13056492Y11220000D01*
X12143508Y11220000D01*
X11974561Y11203360D01*
X11757785Y11137602D01*
X11558003Y11030816D01*
X11382893Y10887107D01*
X11239184Y10711997D01*
X11132398Y10512215D01*
X11066640Y10295439D01*
X11044436Y10070000D01*
X325000Y10070000D01*
X325000Y12610000D01*
X11044436Y12610000D01*
X11066640Y12384561D01*
X11132398Y12167785D01*
X11239184Y11968003D01*
X11382893Y11792893D01*
X11558003Y11649184D01*
X11757785Y11542398D01*
X11974561Y11476640D01*
X12143508Y11460000D01*
X13056492Y11460000D01*
X13225439Y11476640D01*
X13442215Y11542398D01*
X13641997Y11649184D01*
X13817107Y11792893D01*
X13960816Y11968003D01*
X14067602Y12167785D01*
X14133360Y12384561D01*
X14155564Y12610000D01*
X14133360Y12835439D01*
X14067602Y13052215D01*
X13960816Y13251997D01*
X13817107Y13427107D01*
X13641997Y13570816D01*
X13442215Y13677602D01*
X13225439Y13743360D01*
X13056492Y13760000D01*
X12143508Y13760000D01*
X11974561Y13743360D01*
X11757785Y13677602D01*
X11558003Y13570816D01*
X11382893Y13427107D01*
X11239184Y13251997D01*
X11132398Y13052215D01*
X11066640Y12835439D01*
X11044436Y12610000D01*
X325000Y12610000D01*
X325000Y16999119D01*
X500000Y16999119D01*
X500001Y15500880D01*
X514471Y15353966D01*
X571652Y15165465D01*
X664509Y14991742D01*
X789473Y14839472D01*
X941743Y14714508D01*
X1115466Y14621651D01*
X1303967Y14564470D01*
X1500000Y14545162D01*
X1696034Y14564470D01*
X1884535Y14621651D01*
X2058258Y14714508D01*
X2210528Y14839472D01*
X2335492Y14991742D01*
X2428349Y15165465D01*
X2485530Y15353966D01*
X2500000Y15500880D01*
X2500000Y16999119D01*
X8750000Y16999119D01*
X8750001Y15500880D01*
X8764471Y15353966D01*
X8821652Y15165465D01*
X8914509Y14991742D01*
X9039473Y14839472D01*
X9191743Y14714508D01*
X9365466Y14621651D01*
X9553967Y14564470D01*
X9750000Y14545162D01*
X9946034Y14564470D01*
X10134535Y14621651D01*
X10308258Y14714508D01*
X10436334Y14819617D01*
X11098480Y14819617D01*
X11158251Y14639141D01*
X11277932Y14445722D01*
X11433047Y14279368D01*
X11617636Y14146472D01*
X11824605Y14052141D01*
X12046000Y14000000D01*
X12446000Y14000000D01*
X12446000Y14996000D01*
X12754000Y14996000D01*
X12754000Y14000000D01*
X13154000Y14000000D01*
X13375395Y14052141D01*
X13582364Y14146472D01*
X13766953Y14279368D01*
X13922068Y14445722D01*
X14041749Y14639141D01*
X14101520Y14819617D01*
X14063912Y14996000D01*
X12754000Y14996000D01*
X12446000Y14996000D01*
X11136088Y14996000D01*
X11098480Y14819617D01*
X10436334Y14819617D01*
X10460528Y14839472D01*
X10585492Y14991742D01*
X10678349Y15165465D01*
X10735530Y15353966D01*
X10747981Y15480383D01*
X11098480Y15480383D01*
X11136088Y15304000D01*
X12446000Y15304000D01*
X12446000Y15324000D01*
X12754000Y15324000D01*
X12754000Y15304000D01*
X14063912Y15304000D01*
X14101520Y15480383D01*
X14041749Y15660859D01*
X13922068Y15854278D01*
X13766953Y16020632D01*
X13582364Y16153528D01*
X13375395Y16247859D01*
X13154000Y16300000D01*
X12046000Y16300000D01*
X11824605Y16247859D01*
X11617636Y16153528D01*
X11433047Y16020632D01*
X11277932Y15854278D01*
X11158251Y15660859D01*
X11098480Y15480383D01*
X10747981Y15480383D01*
X10750000Y15500880D01*
X10750000Y16999120D01*
X10735530Y17146034D01*
X10678349Y17334535D01*
X10585492Y17508258D01*
X10460528Y17660528D01*
X10424617Y17690000D01*
X11044436Y17690000D01*
X11066640Y17464561D01*
X11132398Y17247785D01*
X11239184Y17048003D01*
X11382893Y16872893D01*
X11558003Y16729184D01*
X11757785Y16622398D01*
X11974561Y16556640D01*
X12143508Y16540000D01*
X13056492Y16540000D01*
X13225439Y16556640D01*
X13442215Y16622398D01*
X13641997Y16729184D01*
X13817107Y16872893D01*
X13960816Y17048003D01*
X14067602Y17247785D01*
X14133360Y17464561D01*
X14155564Y17690000D01*
X14133360Y17915439D01*
X14067602Y18132215D01*
X13960816Y18331997D01*
X13817107Y18507107D01*
X13641997Y18650816D01*
X13442215Y18757602D01*
X13225439Y18823360D01*
X13056492Y18840000D01*
X12143508Y18840000D01*
X11974561Y18823360D01*
X11757785Y18757602D01*
X11558003Y18650816D01*
X11382893Y18507107D01*
X11239184Y18331997D01*
X11132398Y18132215D01*
X11066640Y17915439D01*
X11044436Y17690000D01*
X10424617Y17690000D01*
X10308258Y17785492D01*
X10134534Y17878349D01*
X9946033Y17935530D01*
X9750000Y17954838D01*
X9553966Y17935530D01*
X9365465Y17878349D01*
X9191742Y17785492D01*
X9039472Y17660528D01*
X8914508Y17508258D01*
X8821651Y17334534D01*
X8764470Y17146033D01*
X8750000Y16999119D01*
X2500000Y16999119D01*
X2500000Y16999120D01*
X2485530Y17146034D01*
X2428349Y17334535D01*
X2335492Y17508258D01*
X2210528Y17660528D01*
X2058258Y17785492D01*
X1884534Y17878349D01*
X1696033Y17935530D01*
X1500000Y17954838D01*
X1303966Y17935530D01*
X1115465Y17878349D01*
X941742Y17785492D01*
X789472Y17660528D01*
X664508Y17508258D01*
X571651Y17334534D01*
X514470Y17146033D01*
X500000Y16999119D01*
X325000Y16999119D01*
X325000Y19899617D01*
X11098480Y19899617D01*
X11158251Y19719141D01*
X11277932Y19525722D01*
X11433047Y19359368D01*
X11617636Y19226472D01*
X11824605Y19132141D01*
X12046000Y19080000D01*
X12446000Y19080000D01*
X12446000Y20076000D01*
X12754000Y20076000D01*
X12754000Y19080000D01*
X13154000Y19080000D01*
X13375395Y19132141D01*
X13582364Y19226472D01*
X13766953Y19359368D01*
X13922068Y19525722D01*
X14041749Y19719141D01*
X14101520Y19899617D01*
X14063912Y20076000D01*
X12754000Y20076000D01*
X12446000Y20076000D01*
X11136088Y20076000D01*
X11098480Y19899617D01*
X325000Y19899617D01*
X325000Y20560383D01*
X11098480Y20560383D01*
X11136088Y20384000D01*
X12446000Y20384000D01*
X12446000Y20404000D01*
X12754000Y20404000D01*
X12754000Y20384000D01*
X14063912Y20384000D01*
X14101520Y20560383D01*
X14041749Y20740859D01*
X13922068Y20934278D01*
X13766953Y21100632D01*
X13582364Y21233528D01*
X13375395Y21327859D01*
X13154000Y21380000D01*
X12046000Y21380000D01*
X11824605Y21327859D01*
X11617636Y21233528D01*
X11433047Y21100632D01*
X11277932Y20934278D01*
X11158251Y20740859D01*
X11098480Y20560383D01*
X325000Y20560383D01*
X325000Y22770000D01*
X11044436Y22770000D01*
X11066640Y22544561D01*
X11132398Y22327785D01*
X11239184Y22128003D01*
X11382893Y21952893D01*
X11558003Y21809184D01*
X11757785Y21702398D01*
X11974561Y21636640D01*
X12143508Y21620000D01*
X13056492Y21620000D01*
X13225439Y21636640D01*
X13442215Y21702398D01*
X13641997Y21809184D01*
X13817107Y21952893D01*
X13960816Y22128003D01*
X14067602Y22327785D01*
X14133360Y22544561D01*
X14155564Y22770000D01*
X14133360Y22995439D01*
X14067602Y23212215D01*
X13960816Y23411997D01*
X13817107Y23587107D01*
X13641997Y23730816D01*
X13442215Y23837602D01*
X13225439Y23903360D01*
X13056492Y23920000D01*
X12143508Y23920000D01*
X11974561Y23903360D01*
X11757785Y23837602D01*
X11558003Y23730816D01*
X11382893Y23587107D01*
X11239184Y23411997D01*
X11132398Y23212215D01*
X11066640Y22995439D01*
X11044436Y22770000D01*
X325000Y22770000D01*
X325000Y37749870D01*
X448679Y37749870D01*
X448679Y34750130D01*
X454471Y34691320D01*
X471626Y34634770D01*
X499483Y34582653D01*
X536972Y34536972D01*
X582653Y34499483D01*
X634770Y34471626D01*
X691320Y34454471D01*
X750130Y34448679D01*
X1200000Y34448679D01*
X1200000Y33198553D01*
X1200001Y33198543D01*
X1200000Y28623388D01*
X1194921Y28571820D01*
X1200000Y28520252D01*
X1200000Y28520243D01*
X1215193Y28365985D01*
X1275233Y28168059D01*
X1372733Y27985649D01*
X1503946Y27825766D01*
X1544014Y27792883D01*
X4732892Y24604003D01*
X4765766Y24563946D01*
X4805823Y24531072D01*
X4805828Y24531067D01*
X4925648Y24432733D01*
X5108058Y24335233D01*
X5305984Y24275193D01*
X5460242Y24260000D01*
X5460251Y24260000D01*
X5511819Y24254921D01*
X5563387Y24260000D01*
X11724854Y24260000D01*
X11757785Y24242398D01*
X11974561Y24176640D01*
X12143508Y24160000D01*
X13056492Y24160000D01*
X13225439Y24176640D01*
X13442215Y24242398D01*
X13641997Y24349184D01*
X13817107Y24492893D01*
X13960816Y24668003D01*
X14067602Y24867785D01*
X14133360Y25084561D01*
X14155564Y25310000D01*
X14133360Y25535439D01*
X14067602Y25752215D01*
X13960816Y25951997D01*
X13817107Y26127107D01*
X13641997Y26270816D01*
X13442215Y26377602D01*
X13225439Y26443360D01*
X13056492Y26460000D01*
X12143508Y26460000D01*
X11974561Y26443360D01*
X11757785Y26377602D01*
X11724854Y26360000D01*
X9831581Y26360000D01*
X9946053Y26453945D01*
X9978936Y26494013D01*
X10284924Y26800000D01*
X11724854Y26800000D01*
X11757785Y26782398D01*
X11974561Y26716640D01*
X12143508Y26700000D01*
X13056492Y26700000D01*
X13225439Y26716640D01*
X13442215Y26782398D01*
X13641997Y26889184D01*
X13817107Y27032893D01*
X13960816Y27208003D01*
X14067602Y27407785D01*
X14133360Y27624561D01*
X14155564Y27850000D01*
X14133360Y28075439D01*
X14067602Y28292215D01*
X13960816Y28491997D01*
X13817107Y28667107D01*
X13641997Y28810816D01*
X13442215Y28917602D01*
X13225439Y28983360D01*
X13056492Y29000000D01*
X12143508Y29000000D01*
X11974561Y28983360D01*
X11757785Y28917602D01*
X11724854Y28900000D01*
X9901567Y28900000D01*
X9849999Y28905079D01*
X9798431Y28900000D01*
X9798422Y28900000D01*
X9644164Y28884807D01*
X9446238Y28824767D01*
X9263829Y28727267D01*
X9103946Y28596054D01*
X9071067Y28555991D01*
X8765076Y28249999D01*
X8424999Y28249999D01*
X8461179Y28274174D01*
X8725826Y28538821D01*
X8933758Y28850013D01*
X9076984Y29195791D01*
X9150000Y29562866D01*
X9150000Y29937134D01*
X9076984Y30304209D01*
X8933758Y30649987D01*
X8725826Y30961179D01*
X8461179Y31225826D01*
X8149987Y31433758D01*
X7804209Y31576984D01*
X7437134Y31650000D01*
X7062866Y31650000D01*
X6695791Y31576984D01*
X6350013Y31433758D01*
X6038821Y31225826D01*
X5774174Y30961179D01*
X5566242Y30649987D01*
X5423016Y30304209D01*
X5350000Y29937134D01*
X5350000Y29562866D01*
X5400144Y29310778D01*
X5050000Y29660921D01*
X5050000Y31633941D01*
X6765991Y33349931D01*
X6806054Y33382810D01*
X6937267Y33542693D01*
X7034767Y33725102D01*
X7094807Y33923028D01*
X7110000Y34077286D01*
X7110000Y34077296D01*
X7115079Y34128864D01*
X7110000Y34180432D01*
X7110000Y34786903D01*
X7207350Y34851950D01*
X7458050Y35102650D01*
X7655024Y35397442D01*
X7790702Y35724997D01*
X7859870Y36072728D01*
X7859870Y36427272D01*
X8070130Y36427272D01*
X8070130Y36072728D01*
X8139298Y35724997D01*
X8274976Y35397442D01*
X8471950Y35102650D01*
X8722650Y34851950D01*
X8820000Y34786903D01*
X8820000Y32765970D01*
X8814921Y32714402D01*
X8820000Y32662834D01*
X8820000Y32662825D01*
X8835193Y32508567D01*
X8895233Y32310641D01*
X8992733Y32128231D01*
X9123946Y31968348D01*
X9164014Y31935465D01*
X11123996Y29975482D01*
X11132398Y29947785D01*
X11239184Y29748003D01*
X11382893Y29572893D01*
X11558003Y29429184D01*
X11757785Y29322398D01*
X11974561Y29256640D01*
X12143508Y29240000D01*
X13056492Y29240000D01*
X13225439Y29256640D01*
X13442215Y29322398D01*
X13641997Y29429184D01*
X13817107Y29572893D01*
X13960816Y29748003D01*
X14061908Y29937134D01*
X33350000Y29937134D01*
X33350000Y29562866D01*
X33423016Y29195791D01*
X33566242Y28850013D01*
X33774174Y28538821D01*
X34038821Y28274174D01*
X34350013Y28066242D01*
X34695791Y27923016D01*
X35062866Y27850000D01*
X35437134Y27850000D01*
X35804209Y27923016D01*
X36149987Y28066242D01*
X36461179Y28274174D01*
X36725826Y28538821D01*
X36933758Y28850013D01*
X37076984Y29195791D01*
X37150000Y29562866D01*
X37150000Y29937134D01*
X37076984Y30304209D01*
X36933758Y30649987D01*
X36725826Y30961179D01*
X36461179Y31225826D01*
X36149987Y31433758D01*
X35804209Y31576984D01*
X35437134Y31650000D01*
X35062866Y31650000D01*
X34695791Y31576984D01*
X34350013Y31433758D01*
X34038821Y31225826D01*
X33774174Y30961179D01*
X33566242Y30649987D01*
X33423016Y30304209D01*
X33350000Y29937134D01*
X14061908Y29937134D01*
X14067602Y29947785D01*
X14133360Y30164561D01*
X14155564Y30390000D01*
X14133360Y30615439D01*
X14067602Y30832215D01*
X13960816Y31031997D01*
X13817107Y31207107D01*
X13641997Y31350816D01*
X13442215Y31457602D01*
X13225439Y31523360D01*
X13056492Y31540000D01*
X12529326Y31540000D01*
X12289326Y31780000D01*
X13056492Y31780000D01*
X13225439Y31796640D01*
X13442215Y31862398D01*
X13641997Y31969184D01*
X13817107Y32112893D01*
X13960816Y32288003D01*
X14067602Y32487785D01*
X14133360Y32704561D01*
X14155564Y32930000D01*
X14133360Y33155439D01*
X14067602Y33372215D01*
X13960816Y33571997D01*
X13817107Y33747107D01*
X13650000Y33884248D01*
X13650000Y34450130D01*
X13857272Y34450130D01*
X14205003Y34519298D01*
X14532558Y34654976D01*
X14827350Y34851950D01*
X15078050Y35102650D01*
X15275024Y35397442D01*
X15410702Y35724997D01*
X15479870Y36072728D01*
X15479870Y36128039D01*
X16050000Y36128039D01*
X16050000Y35871961D01*
X16099958Y35620804D01*
X16197955Y35384219D01*
X16340224Y35171298D01*
X16521298Y34990224D01*
X16734219Y34847955D01*
X16970804Y34749958D01*
X17221961Y34700000D01*
X17478039Y34700000D01*
X17729196Y34749958D01*
X17944977Y34839338D01*
X18253264Y34531051D01*
X18265790Y34515788D01*
X18326698Y34465802D01*
X18396187Y34428659D01*
X18471587Y34405787D01*
X18550001Y34398064D01*
X18569648Y34399999D01*
X22430353Y34399999D01*
X22449999Y34398064D01*
X22469645Y34399999D01*
X22469646Y34399999D01*
X22528413Y34405787D01*
X22603813Y34428659D01*
X22673302Y34465802D01*
X22734210Y34515788D01*
X22746737Y34531052D01*
X22918946Y34703262D01*
X22918951Y34703266D01*
X23055023Y34839338D01*
X23270804Y34749958D01*
X23521961Y34700000D01*
X23778039Y34700000D01*
X24029196Y34749958D01*
X24265781Y34847955D01*
X24478702Y34990224D01*
X24659776Y35171298D01*
X24802045Y35384219D01*
X24900042Y35620804D01*
X24950000Y35871961D01*
X24950000Y36128039D01*
X24900042Y36379196D01*
X24802045Y36615781D01*
X24659776Y36828702D01*
X24478702Y37009776D01*
X24265781Y37152045D01*
X24029196Y37250042D01*
X23778039Y37300000D01*
X23521961Y37300000D01*
X23270804Y37250042D01*
X23034219Y37152045D01*
X22821298Y37009776D01*
X22640224Y36828702D01*
X22497955Y36615781D01*
X22399958Y36379196D01*
X22350000Y36128039D01*
X22350000Y35871961D01*
X22399958Y35620804D01*
X22489338Y35405023D01*
X22353266Y35268951D01*
X22353262Y35268946D01*
X22284315Y35199999D01*
X21255633Y35199999D01*
X21354425Y35298791D01*
X21474807Y35478955D01*
X21557727Y35679142D01*
X21600000Y35891659D01*
X21600000Y36108341D01*
X21557727Y36320858D01*
X21474807Y36521045D01*
X21354425Y36701209D01*
X21201209Y36854425D01*
X21021045Y36974807D01*
X20820858Y37057727D01*
X20608341Y37100000D01*
X20391659Y37100000D01*
X20179142Y37057727D01*
X19978955Y36974807D01*
X19798791Y36854425D01*
X19645575Y36701209D01*
X19525193Y36521045D01*
X19442273Y36320858D01*
X19400000Y36108341D01*
X19400000Y35891659D01*
X19442273Y35679142D01*
X19525193Y35478955D01*
X19645575Y35298791D01*
X19744367Y35199999D01*
X18715686Y35199999D01*
X18510662Y35405023D01*
X18600042Y35620804D01*
X18650000Y35871961D01*
X18650000Y36128039D01*
X18600042Y36379196D01*
X18502045Y36615781D01*
X18359776Y36828702D01*
X18178702Y37009776D01*
X17965781Y37152045D01*
X17729196Y37250042D01*
X17478039Y37300000D01*
X17221961Y37300000D01*
X16970804Y37250042D01*
X16734219Y37152045D01*
X16521298Y37009776D01*
X16340224Y36828702D01*
X16197955Y36615781D01*
X16099958Y36379196D01*
X16050000Y36128039D01*
X15479870Y36128039D01*
X15479870Y36427272D01*
X15410702Y36775003D01*
X15275024Y37102558D01*
X15078050Y37397350D01*
X14827350Y37648050D01*
X14532558Y37845024D01*
X14205003Y37980702D01*
X13857272Y38049870D01*
X13502728Y38049870D01*
X13154997Y37980702D01*
X12827442Y37845024D01*
X12532650Y37648050D01*
X12281950Y37397350D01*
X12084976Y37102558D01*
X11949298Y36775003D01*
X11880130Y36427272D01*
X11880130Y36072728D01*
X11902972Y35957895D01*
X11894009Y35948932D01*
X11853947Y35916054D01*
X11821068Y35875991D01*
X11821067Y35875990D01*
X11722733Y35756171D01*
X11625233Y35573761D01*
X11565194Y35375835D01*
X11544921Y35170000D01*
X11550001Y35118422D01*
X11550000Y33884248D01*
X11382893Y33747107D01*
X11239184Y33571997D01*
X11132398Y33372215D01*
X11066640Y33155439D01*
X11052944Y33016381D01*
X10920000Y33149325D01*
X10920000Y34786903D01*
X11017350Y34851950D01*
X11268050Y35102650D01*
X11465024Y35397442D01*
X11600702Y35724997D01*
X11669870Y36072728D01*
X11669870Y36427272D01*
X11600702Y36775003D01*
X11465024Y37102558D01*
X11268050Y37397350D01*
X11017350Y37648050D01*
X10722558Y37845024D01*
X10395003Y37980702D01*
X10047272Y38049870D01*
X9692728Y38049870D01*
X9344997Y37980702D01*
X9017442Y37845024D01*
X8722650Y37648050D01*
X8471950Y37397350D01*
X8274976Y37102558D01*
X8139298Y36775003D01*
X8070130Y36427272D01*
X7859870Y36427272D01*
X7790702Y36775003D01*
X7655024Y37102558D01*
X7458050Y37397350D01*
X7207350Y37648050D01*
X6912558Y37845024D01*
X6585003Y37980702D01*
X6237272Y38049870D01*
X5882728Y38049870D01*
X5534997Y37980702D01*
X5207442Y37845024D01*
X4912650Y37648050D01*
X4661950Y37397350D01*
X4464976Y37102558D01*
X4329298Y36775003D01*
X4260130Y36427272D01*
X4260130Y36072728D01*
X4329298Y35724997D01*
X4464976Y35397442D01*
X4661950Y35102650D01*
X4912650Y34851950D01*
X5010000Y34786903D01*
X5010000Y34563788D01*
X3300000Y32853787D01*
X3300000Y34448679D01*
X3749870Y34448679D01*
X3808680Y34454471D01*
X3865230Y34471626D01*
X3917347Y34499483D01*
X3963028Y34536972D01*
X4000517Y34582653D01*
X4028374Y34634770D01*
X4045529Y34691320D01*
X4051321Y34750130D01*
X4051321Y37749870D01*
X4045529Y37808680D01*
X4028374Y37865230D01*
X4000517Y37917347D01*
X3963028Y37963028D01*
X3917347Y38000517D01*
X3865230Y38028374D01*
X3808680Y38045529D01*
X3749870Y38051321D01*
X750130Y38051321D01*
X691320Y38045529D01*
X634770Y38028374D01*
X582653Y38000517D01*
X536972Y37963028D01*
X499483Y37917347D01*
X471626Y37865230D01*
X454471Y37808680D01*
X448679Y37749870D01*
X325000Y37749870D01*
X325000Y40999119D01*
X500000Y40999119D01*
X500001Y39500880D01*
X514471Y39353966D01*
X571652Y39165465D01*
X664509Y38991742D01*
X789473Y38839472D01*
X941743Y38714508D01*
X1115466Y38621651D01*
X1303967Y38564470D01*
X1500000Y38545162D01*
X1696034Y38564470D01*
X1884535Y38621651D01*
X2058258Y38714508D01*
X2210528Y38839472D01*
X2335492Y38991742D01*
X2428349Y39165465D01*
X2485530Y39353966D01*
X2500000Y39500880D01*
X2500000Y40999119D01*
X13750000Y40999119D01*
X13750001Y39500880D01*
X13764471Y39353966D01*
X13821652Y39165465D01*
X13914509Y38991742D01*
X14039473Y38839472D01*
X14191743Y38714508D01*
X14365466Y38621651D01*
X14553967Y38564470D01*
X14750000Y38545162D01*
X14946034Y38564470D01*
X15134535Y38621651D01*
X15308258Y38714508D01*
X15460528Y38839472D01*
X15585492Y38991742D01*
X15678349Y39165465D01*
X15735530Y39353966D01*
X15750000Y39500880D01*
X15750000Y39628039D01*
X16050000Y39628039D01*
X16050000Y39371961D01*
X16099958Y39120804D01*
X16197955Y38884219D01*
X16340224Y38671298D01*
X16521298Y38490224D01*
X16734219Y38347955D01*
X16970804Y38249958D01*
X17221961Y38200000D01*
X17478039Y38200000D01*
X17729196Y38249958D01*
X17965781Y38347955D01*
X18178702Y38490224D01*
X18359776Y38671298D01*
X18502045Y38884219D01*
X18600042Y39120804D01*
X18650000Y39371961D01*
X18650000Y39628039D01*
X18600042Y39879196D01*
X18502045Y40115781D01*
X18359776Y40328702D01*
X18178702Y40509776D01*
X17965781Y40652045D01*
X17729196Y40750042D01*
X17478039Y40800000D01*
X17221961Y40800000D01*
X16970804Y40750042D01*
X16734219Y40652045D01*
X16521298Y40509776D01*
X16340224Y40328702D01*
X16197955Y40115781D01*
X16099958Y39879196D01*
X16050000Y39628039D01*
X15750000Y39628039D01*
X15750000Y40999120D01*
X15735530Y41146034D01*
X15678349Y41334535D01*
X15585492Y41508258D01*
X15460528Y41660528D01*
X15379179Y41727289D01*
X16595078Y41727289D01*
X16712125Y41560039D01*
X16946777Y41457500D01*
X17196924Y41402709D01*
X17452954Y41397773D01*
X17705028Y41442881D01*
X17943458Y41536299D01*
X17987875Y41560039D01*
X18104922Y41727289D01*
X17350000Y42482211D01*
X16595078Y41727289D01*
X15379179Y41727289D01*
X15308258Y41785492D01*
X15134534Y41878349D01*
X14946033Y41935530D01*
X14750000Y41954838D01*
X14553966Y41935530D01*
X14365465Y41878349D01*
X14191742Y41785492D01*
X14039472Y41660528D01*
X13914508Y41508258D01*
X13821651Y41334534D01*
X13764470Y41146033D01*
X13750000Y40999119D01*
X2500000Y40999119D01*
X2500000Y40999120D01*
X2485530Y41146034D01*
X2428349Y41334535D01*
X2335492Y41508258D01*
X2210528Y41660528D01*
X2058258Y41785492D01*
X1884534Y41878349D01*
X1696033Y41935530D01*
X1500000Y41954838D01*
X1303966Y41935530D01*
X1115465Y41878349D01*
X941742Y41785492D01*
X789472Y41660528D01*
X664508Y41508258D01*
X571651Y41334534D01*
X514470Y41146033D01*
X500000Y40999119D01*
X325000Y40999119D01*
X325000Y41484103D01*
X339384Y41630805D01*
X377373Y41756629D01*
X439076Y41872675D01*
X522148Y41974532D01*
X623418Y42058310D01*
X739027Y42120819D01*
X864586Y42159686D01*
X1010285Y42175000D01*
X14765961Y42175000D01*
X14780229Y42176405D01*
X14786437Y42176362D01*
X14790954Y42176804D01*
X14985051Y42197205D01*
X15013938Y42203135D01*
X15042838Y42208648D01*
X15047183Y42209959D01*
X15233621Y42267671D01*
X15260810Y42279100D01*
X15288086Y42290121D01*
X15292093Y42292251D01*
X15463770Y42385076D01*
X15488192Y42401549D01*
X15512839Y42417678D01*
X15516356Y42420546D01*
X15666734Y42544949D01*
X15687498Y42565859D01*
X15708535Y42586460D01*
X15711428Y42589956D01*
X15717210Y42597046D01*
X16047773Y42597046D01*
X16092881Y42344972D01*
X16186299Y42106542D01*
X16210039Y42062125D01*
X16377289Y41945078D01*
X17132211Y42700000D01*
X17567789Y42700000D01*
X18322711Y41945078D01*
X18489961Y42062125D01*
X18510156Y42108341D01*
X19400000Y42108341D01*
X19400000Y41891659D01*
X19442273Y41679142D01*
X19525193Y41478955D01*
X19645575Y41298791D01*
X19798791Y41145575D01*
X19978955Y41025193D01*
X20179142Y40942273D01*
X20391659Y40900000D01*
X20608341Y40900000D01*
X20820858Y40942273D01*
X21021045Y41025193D01*
X21201209Y41145575D01*
X21354425Y41298791D01*
X21474807Y41478955D01*
X21557727Y41679142D01*
X21567304Y41727289D01*
X22895078Y41727289D01*
X23012125Y41560039D01*
X23246777Y41457500D01*
X23496924Y41402709D01*
X23752954Y41397773D01*
X24005028Y41442881D01*
X24243458Y41536299D01*
X24287875Y41560039D01*
X24404922Y41727289D01*
X23650000Y42482211D01*
X22895078Y41727289D01*
X21567304Y41727289D01*
X21600000Y41891659D01*
X21600000Y42108341D01*
X21557727Y42320858D01*
X21474807Y42521045D01*
X21424025Y42597046D01*
X22347773Y42597046D01*
X22392881Y42344972D01*
X22486299Y42106542D01*
X22510039Y42062125D01*
X22677289Y41945078D01*
X23432211Y42700000D01*
X23867789Y42700000D01*
X24622711Y41945078D01*
X24789961Y42062125D01*
X24892500Y42296777D01*
X24947291Y42546924D01*
X24952227Y42802954D01*
X24907119Y43055028D01*
X24813701Y43293458D01*
X24789961Y43337875D01*
X24622711Y43454922D01*
X23867789Y42700000D01*
X23432211Y42700000D01*
X22677289Y43454922D01*
X22510039Y43337875D01*
X22407500Y43103223D01*
X22352709Y42853076D01*
X22347773Y42597046D01*
X21424025Y42597046D01*
X21354425Y42701209D01*
X21201209Y42854425D01*
X21021045Y42974807D01*
X20820858Y43057727D01*
X20608341Y43100000D01*
X20391659Y43100000D01*
X20179142Y43057727D01*
X19978955Y42974807D01*
X19798791Y42854425D01*
X19645575Y42701209D01*
X19525193Y42521045D01*
X19442273Y42320858D01*
X19400000Y42108341D01*
X18510156Y42108341D01*
X18592500Y42296777D01*
X18647291Y42546924D01*
X18652227Y42802954D01*
X18607119Y43055028D01*
X18513701Y43293458D01*
X18489961Y43337875D01*
X18322711Y43454922D01*
X17567789Y42700000D01*
X17132211Y42700000D01*
X16377289Y43454922D01*
X16210039Y43337875D01*
X16107500Y43103223D01*
X16052709Y42853076D01*
X16047773Y42597046D01*
X15717210Y42597046D01*
X15834778Y42741198D01*
X15851096Y42765759D01*
X15867720Y42790038D01*
X15869879Y42794030D01*
X15961504Y42966352D01*
X15972725Y42993576D01*
X15984333Y43020660D01*
X15985675Y43024995D01*
X16042084Y43211831D01*
X16047809Y43240747D01*
X16053929Y43269538D01*
X16054404Y43274051D01*
X16073449Y43468285D01*
X16073449Y43468286D01*
X16089384Y43630805D01*
X16102036Y43672711D01*
X16595078Y43672711D01*
X17350000Y42917789D01*
X18104922Y43672711D01*
X22895078Y43672711D01*
X23650000Y42917789D01*
X24404922Y43672711D01*
X24287875Y43839961D01*
X24053223Y43942500D01*
X23803076Y43997291D01*
X23547046Y44002227D01*
X23294972Y43957119D01*
X23056542Y43863701D01*
X23012125Y43839961D01*
X22895078Y43672711D01*
X18104922Y43672711D01*
X17987875Y43839961D01*
X17753223Y43942500D01*
X17503076Y43997291D01*
X17247046Y44002227D01*
X16994972Y43957119D01*
X16756542Y43863701D01*
X16712125Y43839961D01*
X16595078Y43672711D01*
X16102036Y43672711D01*
X16127373Y43756629D01*
X16189076Y43872675D01*
X16272148Y43974532D01*
X16373418Y44058310D01*
X16489027Y44120819D01*
X16614586Y44159686D01*
X16760285Y44175000D01*
X38734103Y44175000D01*
X38880805Y44160616D01*
M02*
