M48
; DRILL file {KiCad 5.1.0} date mar. 16 avril 2019 15:55:53 CEST
; FORMAT={-:-/ absolute / metric / decimal}
; #@! TF.CreationDate,2019-04-16T15:55:53+02:00
; #@! TF.GenerationSoftware,Kicad,Pcbnew,5.1.0
FMAT,2
METRIC
T1C0.400
T2C1.000
T3C1.199
T4C1.300
T5C1.400
T6C1.600
T7C3.200
%
G90
G05
T1
X9.75Y18.75
X14.25Y11.25
X19.0Y21.6
X21.5Y19.9
X21.5Y15.75
X22.1Y23.0
X22.25Y12.5
X23.5Y28.6
X24.25Y14.25
X24.6Y32.0
X26.0Y28.6
X26.0Y23.0
X26.0Y19.9
X27.5Y28.6
X27.5Y17.3
X30.516Y24.1
X30.546Y22.3
X30.64Y14.638
X30.64Y11.844
X30.75Y34.0
X31.0Y31.75
X31.656Y8.034
X31.91Y25.56
X32.672Y21.242
X32.672Y18.702
X32.672Y16.162
X32.672Y3.462
X32.75Y36.5
X32.75Y1.0
X33.8Y5.7
X33.815Y8.415
X34.65Y25.85
X35.5Y34.75
X35.517Y23.344
X35.75Y27.0
X36.799Y23.356
X37.752Y21.242
X37.752Y18.702
X37.752Y16.162
X37.752Y13.622
X37.752Y11.082
X37.752Y8.542
X37.752Y6.002
X37.752Y3.462
X37.752Y0.922
X38.25Y27.25
X38.514Y25.814
X38.514Y23.528
T2
X12.6Y32.93
X12.6Y30.39
X12.6Y27.85
X12.6Y25.31
X12.6Y22.77
X12.6Y20.23
X12.6Y17.69
X12.6Y15.15
X12.6Y12.61
X12.6Y10.07
T3
X2.25Y36.25
X6.06Y36.25
X9.87Y36.25
X13.68Y36.25
T4
X17.35Y42.7
X17.35Y39.5
X17.35Y36.0
X23.65Y42.7
X23.65Y36.0
T6
X20.5Y42.0
X20.5Y36.0
T7
X7.25Y29.75
X35.25Y29.75
T5
G00X1.5Y40.95
M15
G01X1.5Y39.55
M16
G05
G00X9.75Y16.95
M15
G01X9.75Y15.55
M16
G05
G00X1.5Y16.95
M15
G01X1.5Y15.55
M16
G05
G00X14.75Y40.95
M15
G01X14.75Y39.55
M16
G05
T0
M30
