G04 #@! TF.GenerationSoftware,KiCad,Pcbnew,5.1.0*
G04 #@! TF.CreationDate,2019-04-16T15:55:50+02:00*
G04 #@! TF.ProjectId,KXKM_audio_board_for_ESP32,4b584b4d-5f61-4756-9469-6f5f626f6172,1.0*
G04 #@! TF.SameCoordinates,PX82a7440PY6f94740*
G04 #@! TF.FileFunction,Soldermask,Bot*
G04 #@! TF.FilePolarity,Negative*
%FSLAX46Y46*%
G04 Gerber Fmt 4.6, Leading zero omitted, Abs format (unit mm)*
G04 Created by KiCad (PCBNEW 5.1.0) date 2019-04-16 15:55:50*
%MOMM*%
%LPD*%
G04 APERTURE LIST*
%ADD10C,0.100000*%
G04 APERTURE END LIST*
D10*
G36*
X35395843Y1230786D02*
G01*
X35395846Y1230785D01*
X35395845Y1230785D01*
X35486839Y1193094D01*
X35528063Y1165549D01*
X35568730Y1138376D01*
X35638376Y1068730D01*
X35693095Y986837D01*
X35730786Y895843D01*
X35750000Y799247D01*
X35750000Y700753D01*
X35730786Y604157D01*
X35730785Y604155D01*
X35693094Y513161D01*
X35638375Y431269D01*
X35568731Y361625D01*
X35486839Y306906D01*
X35486838Y306905D01*
X35486837Y306905D01*
X35395843Y269214D01*
X35299247Y250000D01*
X35200753Y250000D01*
X35104157Y269214D01*
X35013163Y306905D01*
X35013162Y306905D01*
X35013161Y306906D01*
X34931269Y361625D01*
X34861625Y431269D01*
X34806906Y513161D01*
X34769215Y604155D01*
X34769214Y604157D01*
X34750000Y700753D01*
X34750000Y799247D01*
X34769214Y895843D01*
X34806905Y986837D01*
X34861624Y1068730D01*
X34931270Y1138376D01*
X34971937Y1165549D01*
X35013161Y1193094D01*
X35104155Y1230785D01*
X35104154Y1230785D01*
X35104157Y1230786D01*
X35200753Y1250000D01*
X35299247Y1250000D01*
X35395843Y1230786D01*
X35395843Y1230786D01*
G37*
G36*
X39420000Y1250000D02*
G01*
X36130000Y1250000D01*
X36130000Y2390000D01*
X39420000Y2390000D01*
X39420000Y1250000D01*
X39420000Y1250000D01*
G37*
G36*
X34370000Y1250000D02*
G01*
X31080000Y1250000D01*
X31080000Y2390000D01*
X34370000Y2390000D01*
X34370000Y1250000D01*
X34370000Y1250000D01*
G37*
G36*
X39420000Y3790000D02*
G01*
X36130000Y3790000D01*
X36130000Y4930000D01*
X39420000Y4930000D01*
X39420000Y3790000D01*
X39420000Y3790000D01*
G37*
G36*
X34370000Y3790000D02*
G01*
X31080000Y3790000D01*
X31080000Y4930000D01*
X34370000Y4930000D01*
X34370000Y3790000D01*
X34370000Y3790000D01*
G37*
G36*
X39420000Y6330000D02*
G01*
X36130000Y6330000D01*
X36130000Y7470000D01*
X39420000Y7470000D01*
X39420000Y6330000D01*
X39420000Y6330000D01*
G37*
G36*
X34370000Y6330000D02*
G01*
X31080000Y6330000D01*
X31080000Y7470000D01*
X34370000Y7470000D01*
X34370000Y6330000D01*
X34370000Y6330000D01*
G37*
G36*
X34370000Y8870000D02*
G01*
X31080000Y8870000D01*
X31080000Y10010000D01*
X34370000Y10010000D01*
X34370000Y8870000D01*
X34370000Y8870000D01*
G37*
G36*
X39420000Y8870000D02*
G01*
X36130000Y8870000D01*
X36130000Y10010000D01*
X39420000Y10010000D01*
X39420000Y8870000D01*
X39420000Y8870000D01*
G37*
G36*
X13180351Y10976689D02*
G01*
X13353773Y10924081D01*
X13513595Y10838655D01*
X13513597Y10838653D01*
X13653686Y10723686D01*
X13749734Y10606650D01*
X13768655Y10583595D01*
X13854081Y10423773D01*
X13906689Y10250351D01*
X13924451Y10070000D01*
X13906689Y9889649D01*
X13854081Y9716227D01*
X13768655Y9556405D01*
X13768653Y9556403D01*
X13653686Y9416314D01*
X13536650Y9320266D01*
X13513595Y9301345D01*
X13353773Y9215919D01*
X13180351Y9163311D01*
X13045196Y9150000D01*
X12154804Y9150000D01*
X12019649Y9163311D01*
X11846227Y9215919D01*
X11686405Y9301345D01*
X11663350Y9320266D01*
X11546314Y9416314D01*
X11431347Y9556403D01*
X11431345Y9556405D01*
X11345919Y9716227D01*
X11293311Y9889649D01*
X11275549Y10070000D01*
X11293311Y10250351D01*
X11345919Y10423773D01*
X11431345Y10583595D01*
X11450266Y10606650D01*
X11546314Y10723686D01*
X11686403Y10838653D01*
X11686405Y10838655D01*
X11846227Y10924081D01*
X12019649Y10976689D01*
X12154804Y10990000D01*
X13045196Y10990000D01*
X13180351Y10976689D01*
X13180351Y10976689D01*
G37*
G36*
X34370000Y11410000D02*
G01*
X31080000Y11410000D01*
X31080000Y12550000D01*
X34370000Y12550000D01*
X34370000Y11410000D01*
X34370000Y11410000D01*
G37*
G36*
X39420000Y11410000D02*
G01*
X36130000Y11410000D01*
X36130000Y12550000D01*
X39420000Y12550000D01*
X39420000Y11410000D01*
X39420000Y11410000D01*
G37*
G36*
X13180351Y13516689D02*
G01*
X13353773Y13464081D01*
X13513595Y13378655D01*
X13513597Y13378653D01*
X13653686Y13263686D01*
X13749734Y13146650D01*
X13768655Y13123595D01*
X13854081Y12963773D01*
X13906689Y12790351D01*
X13924451Y12610000D01*
X13906689Y12429649D01*
X13854081Y12256227D01*
X13768655Y12096405D01*
X13768653Y12096403D01*
X13653686Y11956314D01*
X13536650Y11860266D01*
X13513595Y11841345D01*
X13353773Y11755919D01*
X13180351Y11703311D01*
X13045196Y11690000D01*
X12154804Y11690000D01*
X12019649Y11703311D01*
X11846227Y11755919D01*
X11686405Y11841345D01*
X11663350Y11860266D01*
X11546314Y11956314D01*
X11431347Y12096403D01*
X11431345Y12096405D01*
X11345919Y12256227D01*
X11293311Y12429649D01*
X11275549Y12610000D01*
X11293311Y12790351D01*
X11345919Y12963773D01*
X11431345Y13123595D01*
X11450266Y13146650D01*
X11546314Y13263686D01*
X11686403Y13378653D01*
X11686405Y13378655D01*
X11846227Y13464081D01*
X12019649Y13516689D01*
X12154804Y13530000D01*
X13045196Y13530000D01*
X13180351Y13516689D01*
X13180351Y13516689D01*
G37*
G36*
X20665705Y14264888D02*
G01*
X20713265Y14250460D01*
X20757090Y14227036D01*
X20795507Y14195507D01*
X20827036Y14157090D01*
X20850460Y14113265D01*
X20864888Y14065705D01*
X20870000Y14013797D01*
X20870000Y12986203D01*
X20864888Y12934295D01*
X20850460Y12886735D01*
X20827036Y12842910D01*
X20795507Y12804493D01*
X20757090Y12772964D01*
X20713265Y12749540D01*
X20665705Y12735112D01*
X20613797Y12730000D01*
X20011203Y12730000D01*
X19959295Y12735112D01*
X19911735Y12749540D01*
X19867910Y12772964D01*
X19829493Y12804493D01*
X19797964Y12842910D01*
X19774540Y12886735D01*
X19760112Y12934295D01*
X19755000Y12986203D01*
X19755000Y14013797D01*
X19760112Y14065705D01*
X19774540Y14113265D01*
X19797964Y14157090D01*
X19829493Y14195507D01*
X19867910Y14227036D01*
X19911735Y14250460D01*
X19959295Y14264888D01*
X20011203Y14270000D01*
X20613797Y14270000D01*
X20665705Y14264888D01*
X20665705Y14264888D01*
G37*
G36*
X22540705Y14264888D02*
G01*
X22588265Y14250460D01*
X22632090Y14227036D01*
X22670507Y14195507D01*
X22702036Y14157090D01*
X22725460Y14113265D01*
X22739888Y14065705D01*
X22745000Y14013797D01*
X22745000Y12986203D01*
X22739888Y12934295D01*
X22725460Y12886735D01*
X22702036Y12842910D01*
X22670507Y12804493D01*
X22632090Y12772964D01*
X22588265Y12749540D01*
X22540705Y12735112D01*
X22488797Y12730000D01*
X21886203Y12730000D01*
X21834295Y12735112D01*
X21786735Y12749540D01*
X21742910Y12772964D01*
X21704493Y12804493D01*
X21672964Y12842910D01*
X21649540Y12886735D01*
X21635112Y12934295D01*
X21630000Y12986203D01*
X21630000Y14013797D01*
X21635112Y14065705D01*
X21649540Y14113265D01*
X21672964Y14157090D01*
X21704493Y14195507D01*
X21742910Y14227036D01*
X21786735Y14250460D01*
X21834295Y14264888D01*
X21886203Y14270000D01*
X22488797Y14270000D01*
X22540705Y14264888D01*
X22540705Y14264888D01*
G37*
G36*
X39420000Y13950000D02*
G01*
X36130000Y13950000D01*
X36130000Y15090000D01*
X39420000Y15090000D01*
X39420000Y13950000D01*
X39420000Y13950000D01*
G37*
G36*
X34370000Y13950000D02*
G01*
X31080000Y13950000D01*
X31080000Y15090000D01*
X34370000Y15090000D01*
X34370000Y13950000D01*
X34370000Y13950000D01*
G37*
G36*
X13180351Y16056689D02*
G01*
X13353773Y16004081D01*
X13513595Y15918655D01*
X13513597Y15918653D01*
X13653686Y15803686D01*
X13725442Y15716250D01*
X13768655Y15663595D01*
X13854081Y15503773D01*
X13906689Y15330351D01*
X13924451Y15150000D01*
X13906689Y14969649D01*
X13854081Y14796227D01*
X13768655Y14636405D01*
X13768653Y14636403D01*
X13653686Y14496314D01*
X13536650Y14400266D01*
X13513595Y14381345D01*
X13353773Y14295919D01*
X13180351Y14243311D01*
X13045196Y14230000D01*
X12154804Y14230000D01*
X12019649Y14243311D01*
X11846227Y14295919D01*
X11686405Y14381345D01*
X11663350Y14400266D01*
X11546314Y14496314D01*
X11431347Y14636403D01*
X11431345Y14636405D01*
X11345919Y14796227D01*
X11293311Y14969649D01*
X11275549Y15150000D01*
X11293311Y15330351D01*
X11345919Y15503773D01*
X11431345Y15663595D01*
X11474558Y15716250D01*
X11546314Y15803686D01*
X11686403Y15918653D01*
X11686405Y15918655D01*
X11846227Y16004081D01*
X12019649Y16056689D01*
X12154804Y16070000D01*
X13045196Y16070000D01*
X13180351Y16056689D01*
X13180351Y16056689D01*
G37*
G36*
X22860828Y15765368D02*
G01*
X22903698Y15752363D01*
X22943200Y15731249D01*
X22977829Y15702829D01*
X23006249Y15668200D01*
X23027363Y15628698D01*
X23040368Y15585828D01*
X23045000Y15538796D01*
X23045000Y14986204D01*
X23040368Y14939172D01*
X23027363Y14896302D01*
X23006249Y14856800D01*
X22977829Y14822171D01*
X22943200Y14793751D01*
X22903698Y14772637D01*
X22860828Y14759632D01*
X22813796Y14755000D01*
X22186204Y14755000D01*
X22139172Y14759632D01*
X22096302Y14772637D01*
X22056800Y14793751D01*
X22022171Y14822171D01*
X21993751Y14856800D01*
X21972637Y14896302D01*
X21959632Y14939172D01*
X21955000Y14986204D01*
X21955000Y15538796D01*
X21959632Y15585828D01*
X21972637Y15628698D01*
X21993751Y15668200D01*
X22022171Y15702829D01*
X22056800Y15731249D01*
X22096302Y15752363D01*
X22139172Y15765368D01*
X22186204Y15770000D01*
X22813796Y15770000D01*
X22860828Y15765368D01*
X22860828Y15765368D01*
G37*
G36*
X20760828Y15765368D02*
G01*
X20803698Y15752363D01*
X20843200Y15731249D01*
X20877829Y15702829D01*
X20906249Y15668200D01*
X20927363Y15628698D01*
X20940368Y15585828D01*
X20945000Y15538796D01*
X20945000Y14986204D01*
X20940368Y14939172D01*
X20927363Y14896302D01*
X20906249Y14856800D01*
X20877829Y14822171D01*
X20843200Y14793751D01*
X20803698Y14772637D01*
X20760828Y14759632D01*
X20713796Y14755000D01*
X20086204Y14755000D01*
X20039172Y14759632D01*
X19996302Y14772637D01*
X19956800Y14793751D01*
X19922171Y14822171D01*
X19893751Y14856800D01*
X19872637Y14896302D01*
X19859632Y14939172D01*
X19855000Y14986204D01*
X19855000Y15538796D01*
X19859632Y15585828D01*
X19872637Y15628698D01*
X19893751Y15668200D01*
X19922171Y15702829D01*
X19956800Y15731249D01*
X19996302Y15752363D01*
X20039172Y15765368D01*
X20086204Y15770000D01*
X20713796Y15770000D01*
X20760828Y15765368D01*
X20760828Y15765368D01*
G37*
G36*
X24460828Y15765368D02*
G01*
X24503698Y15752363D01*
X24543200Y15731249D01*
X24577829Y15702829D01*
X24606249Y15668200D01*
X24627363Y15628698D01*
X24640368Y15585828D01*
X24645000Y15538796D01*
X24645000Y14986204D01*
X24640368Y14939172D01*
X24627363Y14896302D01*
X24606249Y14856800D01*
X24577829Y14822171D01*
X24543200Y14793751D01*
X24503698Y14772637D01*
X24460828Y14759632D01*
X24413796Y14755000D01*
X23786204Y14755000D01*
X23739172Y14759632D01*
X23696302Y14772637D01*
X23656800Y14793751D01*
X23622171Y14822171D01*
X23593751Y14856800D01*
X23572637Y14896302D01*
X23559632Y14939172D01*
X23555000Y14986204D01*
X23555000Y15538796D01*
X23559632Y15585828D01*
X23572637Y15628698D01*
X23593751Y15668200D01*
X23622171Y15702829D01*
X23656800Y15731249D01*
X23696302Y15752363D01*
X23739172Y15765368D01*
X23786204Y15770000D01*
X24413796Y15770000D01*
X24460828Y15765368D01*
X24460828Y15765368D01*
G37*
G36*
X1650945Y17708859D02*
G01*
X1736494Y17682907D01*
X1796091Y17664829D01*
X1840680Y17640996D01*
X1929856Y17593331D01*
X2047106Y17497106D01*
X2143331Y17379857D01*
X2184820Y17302235D01*
X2214829Y17246092D01*
X2214829Y17246091D01*
X2258859Y17100946D01*
X2270000Y16987824D01*
X2270000Y15512176D01*
X2258859Y15399054D01*
X2232907Y15313505D01*
X2214829Y15253908D01*
X2214828Y15253907D01*
X2143331Y15120143D01*
X2047106Y15002894D01*
X1929857Y14906669D01*
X1857088Y14867774D01*
X1796092Y14835171D01*
X1753236Y14822171D01*
X1650946Y14791141D01*
X1500000Y14776275D01*
X1349055Y14791141D01*
X1246765Y14822171D01*
X1203909Y14835171D01*
X1142913Y14867774D01*
X1070144Y14906669D01*
X952895Y15002894D01*
X856670Y15120143D01*
X785173Y15253907D01*
X785172Y15253908D01*
X767094Y15313505D01*
X741142Y15399054D01*
X730001Y15512176D01*
X730000Y16987823D01*
X741141Y17100945D01*
X767658Y17188356D01*
X785171Y17246091D01*
X809309Y17291250D01*
X856669Y17379856D01*
X952894Y17497106D01*
X1070143Y17593331D01*
X1159319Y17640996D01*
X1203908Y17664829D01*
X1263505Y17682907D01*
X1349054Y17708859D01*
X1500000Y17723725D01*
X1650945Y17708859D01*
X1650945Y17708859D01*
G37*
G36*
X9900945Y17708859D02*
G01*
X9986494Y17682907D01*
X10046091Y17664829D01*
X10090680Y17640996D01*
X10179856Y17593331D01*
X10297106Y17497106D01*
X10393331Y17379857D01*
X10434820Y17302235D01*
X10464829Y17246092D01*
X10464829Y17246091D01*
X10508859Y17100946D01*
X10520000Y16987824D01*
X10520000Y15512176D01*
X10508859Y15399054D01*
X10482907Y15313505D01*
X10464829Y15253908D01*
X10464828Y15253907D01*
X10393331Y15120143D01*
X10297106Y15002894D01*
X10179857Y14906669D01*
X10107088Y14867774D01*
X10046092Y14835171D01*
X10003236Y14822171D01*
X9900946Y14791141D01*
X9750000Y14776275D01*
X9599055Y14791141D01*
X9496765Y14822171D01*
X9453909Y14835171D01*
X9392913Y14867774D01*
X9320144Y14906669D01*
X9202895Y15002894D01*
X9106670Y15120143D01*
X9035173Y15253907D01*
X9035172Y15253908D01*
X9017094Y15313505D01*
X8991142Y15399054D01*
X8980001Y15512176D01*
X8980000Y16987823D01*
X8991141Y17100945D01*
X9017658Y17188356D01*
X9035171Y17246091D01*
X9059309Y17291250D01*
X9106669Y17379856D01*
X9202894Y17497106D01*
X9320143Y17593331D01*
X9409319Y17640996D01*
X9453908Y17664829D01*
X9513505Y17682907D01*
X9599054Y17708859D01*
X9750000Y17723725D01*
X9900945Y17708859D01*
X9900945Y17708859D01*
G37*
G36*
X29385828Y15965368D02*
G01*
X29428698Y15952363D01*
X29468200Y15931249D01*
X29502829Y15902829D01*
X29531249Y15868200D01*
X29552363Y15828698D01*
X29565368Y15785828D01*
X29570000Y15738796D01*
X29570000Y15186204D01*
X29565368Y15139172D01*
X29552363Y15096302D01*
X29531249Y15056800D01*
X29502829Y15022171D01*
X29468200Y14993751D01*
X29428698Y14972637D01*
X29385828Y14959632D01*
X29338796Y14955000D01*
X28711204Y14955000D01*
X28664172Y14959632D01*
X28621302Y14972637D01*
X28581800Y14993751D01*
X28547171Y15022171D01*
X28518751Y15056800D01*
X28497637Y15096302D01*
X28484632Y15139172D01*
X28480000Y15186204D01*
X28480000Y15738796D01*
X28484632Y15785828D01*
X28497637Y15828698D01*
X28518751Y15868200D01*
X28547171Y15902829D01*
X28581800Y15931249D01*
X28621302Y15952363D01*
X28664172Y15965368D01*
X28711204Y15970000D01*
X29338796Y15970000D01*
X29385828Y15965368D01*
X29385828Y15965368D01*
G37*
G36*
X20760828Y17340368D02*
G01*
X20803698Y17327363D01*
X20843200Y17306249D01*
X20877829Y17277829D01*
X20906249Y17243200D01*
X20927363Y17203698D01*
X20940368Y17160828D01*
X20945000Y17113796D01*
X20945000Y16561204D01*
X20940368Y16514172D01*
X20927363Y16471302D01*
X20906249Y16431800D01*
X20877829Y16397171D01*
X20843200Y16368751D01*
X20803698Y16347637D01*
X20760828Y16334632D01*
X20713796Y16330000D01*
X20086204Y16330000D01*
X20039172Y16334632D01*
X19996302Y16347637D01*
X19956800Y16368751D01*
X19922171Y16397171D01*
X19893751Y16431800D01*
X19872637Y16471302D01*
X19859632Y16514172D01*
X19855000Y16561204D01*
X19855000Y17113796D01*
X19859632Y17160828D01*
X19872637Y17203698D01*
X19893751Y17243200D01*
X19922171Y17277829D01*
X19956800Y17306249D01*
X19996302Y17327363D01*
X20039172Y17340368D01*
X20086204Y17345000D01*
X20713796Y17345000D01*
X20760828Y17340368D01*
X20760828Y17340368D01*
G37*
G36*
X24460828Y17340368D02*
G01*
X24503698Y17327363D01*
X24543200Y17306249D01*
X24577829Y17277829D01*
X24606249Y17243200D01*
X24627363Y17203698D01*
X24640368Y17160828D01*
X24645000Y17113796D01*
X24645000Y16561204D01*
X24640368Y16514172D01*
X24627363Y16471302D01*
X24606249Y16431800D01*
X24577829Y16397171D01*
X24543200Y16368751D01*
X24503698Y16347637D01*
X24460828Y16334632D01*
X24413796Y16330000D01*
X23786204Y16330000D01*
X23739172Y16334632D01*
X23696302Y16347637D01*
X23656800Y16368751D01*
X23622171Y16397171D01*
X23593751Y16431800D01*
X23572637Y16471302D01*
X23559632Y16514172D01*
X23555000Y16561204D01*
X23555000Y17113796D01*
X23559632Y17160828D01*
X23572637Y17203698D01*
X23593751Y17243200D01*
X23622171Y17277829D01*
X23656800Y17306249D01*
X23696302Y17327363D01*
X23739172Y17340368D01*
X23786204Y17345000D01*
X24413796Y17345000D01*
X24460828Y17340368D01*
X24460828Y17340368D01*
G37*
G36*
X22860828Y17340368D02*
G01*
X22903698Y17327363D01*
X22943200Y17306249D01*
X22977829Y17277829D01*
X23006249Y17243200D01*
X23027363Y17203698D01*
X23040368Y17160828D01*
X23045000Y17113796D01*
X23045000Y16561204D01*
X23040368Y16514172D01*
X23027363Y16471302D01*
X23006249Y16431800D01*
X22977829Y16397171D01*
X22943200Y16368751D01*
X22903698Y16347637D01*
X22860828Y16334632D01*
X22813796Y16330000D01*
X22186204Y16330000D01*
X22139172Y16334632D01*
X22096302Y16347637D01*
X22056800Y16368751D01*
X22022171Y16397171D01*
X21993751Y16431800D01*
X21972637Y16471302D01*
X21959632Y16514172D01*
X21955000Y16561204D01*
X21955000Y17113796D01*
X21959632Y17160828D01*
X21972637Y17203698D01*
X21993751Y17243200D01*
X22022171Y17277829D01*
X22056800Y17306249D01*
X22096302Y17327363D01*
X22139172Y17340368D01*
X22186204Y17345000D01*
X22813796Y17345000D01*
X22860828Y17340368D01*
X22860828Y17340368D01*
G37*
G36*
X39420000Y16490000D02*
G01*
X36130000Y16490000D01*
X36130000Y17630000D01*
X39420000Y17630000D01*
X39420000Y16490000D01*
X39420000Y16490000D01*
G37*
G36*
X34370000Y16490000D02*
G01*
X31080000Y16490000D01*
X31080000Y17630000D01*
X34370000Y17630000D01*
X34370000Y16490000D01*
X34370000Y16490000D01*
G37*
G36*
X29385828Y17540368D02*
G01*
X29428698Y17527363D01*
X29468200Y17506249D01*
X29502829Y17477829D01*
X29531249Y17443200D01*
X29552363Y17403698D01*
X29565368Y17360828D01*
X29570000Y17313796D01*
X29570000Y16761204D01*
X29565368Y16714172D01*
X29552363Y16671302D01*
X29531249Y16631800D01*
X29502829Y16597171D01*
X29468200Y16568751D01*
X29428698Y16547637D01*
X29385828Y16534632D01*
X29338796Y16530000D01*
X28711204Y16530000D01*
X28664172Y16534632D01*
X28621302Y16547637D01*
X28581800Y16568751D01*
X28547171Y16597171D01*
X28518751Y16631800D01*
X28497637Y16671302D01*
X28484632Y16714172D01*
X28480000Y16761204D01*
X28480000Y17313796D01*
X28484632Y17360828D01*
X28497637Y17403698D01*
X28518751Y17443200D01*
X28547171Y17477829D01*
X28581800Y17506249D01*
X28621302Y17527363D01*
X28664172Y17540368D01*
X28711204Y17545000D01*
X29338796Y17545000D01*
X29385828Y17540368D01*
X29385828Y17540368D01*
G37*
G36*
X13180351Y18596689D02*
G01*
X13353773Y18544081D01*
X13513595Y18458655D01*
X13513597Y18458653D01*
X13653686Y18343686D01*
X13749734Y18226650D01*
X13768655Y18203595D01*
X13854081Y18043773D01*
X13906689Y17870351D01*
X13924451Y17690000D01*
X13906689Y17509649D01*
X13854081Y17336227D01*
X13768655Y17176405D01*
X13768653Y17176403D01*
X13653686Y17036314D01*
X13536650Y16940266D01*
X13513595Y16921345D01*
X13353773Y16835919D01*
X13180351Y16783311D01*
X13045196Y16770000D01*
X12154804Y16770000D01*
X12019649Y16783311D01*
X11846227Y16835919D01*
X11686405Y16921345D01*
X11663350Y16940266D01*
X11546314Y17036314D01*
X11431347Y17176403D01*
X11431345Y17176405D01*
X11345919Y17336227D01*
X11293311Y17509649D01*
X11275549Y17690000D01*
X11293311Y17870351D01*
X11345919Y18043773D01*
X11431345Y18203595D01*
X11450266Y18226650D01*
X11546314Y18343686D01*
X11686403Y18458653D01*
X11686405Y18458655D01*
X11846227Y18544081D01*
X12019649Y18596689D01*
X12154804Y18610000D01*
X13045196Y18610000D01*
X13180351Y18596689D01*
X13180351Y18596689D01*
G37*
G36*
X21045000Y18030000D02*
G01*
X20505000Y18030000D01*
X20505000Y19270000D01*
X21045000Y19270000D01*
X21045000Y18030000D01*
X21045000Y18030000D01*
G37*
G36*
X29495000Y18030000D02*
G01*
X28955000Y18030000D01*
X28955000Y19270000D01*
X29495000Y19270000D01*
X29495000Y18030000D01*
X29495000Y18030000D01*
G37*
G36*
X28195000Y18030000D02*
G01*
X27655000Y18030000D01*
X27655000Y19270000D01*
X28195000Y19270000D01*
X28195000Y18030000D01*
X28195000Y18030000D01*
G37*
G36*
X27545000Y18030000D02*
G01*
X27005000Y18030000D01*
X27005000Y19270000D01*
X27545000Y19270000D01*
X27545000Y18030000D01*
X27545000Y18030000D01*
G37*
G36*
X26895000Y18030000D02*
G01*
X26355000Y18030000D01*
X26355000Y19270000D01*
X26895000Y19270000D01*
X26895000Y18030000D01*
X26895000Y18030000D01*
G37*
G36*
X26245000Y18030000D02*
G01*
X25705000Y18030000D01*
X25705000Y19270000D01*
X26245000Y19270000D01*
X26245000Y18030000D01*
X26245000Y18030000D01*
G37*
G36*
X25595000Y18030000D02*
G01*
X25055000Y18030000D01*
X25055000Y19270000D01*
X25595000Y19270000D01*
X25595000Y18030000D01*
X25595000Y18030000D01*
G37*
G36*
X24295000Y18030000D02*
G01*
X23755000Y18030000D01*
X23755000Y19270000D01*
X24295000Y19270000D01*
X24295000Y18030000D01*
X24295000Y18030000D01*
G37*
G36*
X23645000Y18030000D02*
G01*
X23105000Y18030000D01*
X23105000Y19270000D01*
X23645000Y19270000D01*
X23645000Y18030000D01*
X23645000Y18030000D01*
G37*
G36*
X22995000Y18030000D02*
G01*
X22455000Y18030000D01*
X22455000Y19270000D01*
X22995000Y19270000D01*
X22995000Y18030000D01*
X22995000Y18030000D01*
G37*
G36*
X22345000Y18030000D02*
G01*
X21805000Y18030000D01*
X21805000Y19270000D01*
X22345000Y19270000D01*
X22345000Y18030000D01*
X22345000Y18030000D01*
G37*
G36*
X21695000Y18030000D02*
G01*
X21155000Y18030000D01*
X21155000Y19270000D01*
X21695000Y19270000D01*
X21695000Y18030000D01*
X21695000Y18030000D01*
G37*
G36*
X28845000Y18030000D02*
G01*
X28305000Y18030000D01*
X28305000Y19270000D01*
X28845000Y19270000D01*
X28845000Y18030000D01*
X28845000Y18030000D01*
G37*
G36*
X24945000Y18030000D02*
G01*
X24405000Y18030000D01*
X24405000Y19270000D01*
X24945000Y19270000D01*
X24945000Y18030000D01*
X24945000Y18030000D01*
G37*
G36*
X39420000Y19030000D02*
G01*
X36130000Y19030000D01*
X36130000Y20170000D01*
X39420000Y20170000D01*
X39420000Y19030000D01*
X39420000Y19030000D01*
G37*
G36*
X34370000Y19030000D02*
G01*
X31080000Y19030000D01*
X31080000Y20170000D01*
X34370000Y20170000D01*
X34370000Y19030000D01*
X34370000Y19030000D01*
G37*
G36*
X13180351Y21136689D02*
G01*
X13353773Y21084081D01*
X13513595Y20998655D01*
X13513597Y20998653D01*
X13653686Y20883686D01*
X13743834Y20773839D01*
X13768655Y20743595D01*
X13854081Y20583773D01*
X13906689Y20410351D01*
X13924451Y20230000D01*
X13906689Y20049649D01*
X13854081Y19876227D01*
X13768655Y19716405D01*
X13768653Y19716403D01*
X13653686Y19576314D01*
X13544154Y19486424D01*
X13513595Y19461345D01*
X13353773Y19375919D01*
X13180351Y19323311D01*
X13045196Y19310000D01*
X12154804Y19310000D01*
X12019649Y19323311D01*
X11846227Y19375919D01*
X11686405Y19461345D01*
X11655846Y19486424D01*
X11546314Y19576314D01*
X11431347Y19716403D01*
X11431345Y19716405D01*
X11345919Y19876227D01*
X11293311Y20049649D01*
X11275549Y20230000D01*
X11293311Y20410351D01*
X11345919Y20583773D01*
X11431345Y20743595D01*
X11456166Y20773839D01*
X11546314Y20883686D01*
X11686403Y20998653D01*
X11686405Y20998655D01*
X11846227Y21084081D01*
X12019649Y21136689D01*
X12154804Y21150000D01*
X13045196Y21150000D01*
X13180351Y21136689D01*
X13180351Y21136689D01*
G37*
G36*
X10495334Y20789998D02*
G01*
X10541814Y20775898D01*
X10584645Y20753005D01*
X10622191Y20722191D01*
X10653005Y20684645D01*
X10675898Y20641814D01*
X10689998Y20595334D01*
X10695000Y20544546D01*
X10695000Y19655454D01*
X10689998Y19604666D01*
X10675898Y19558186D01*
X10653005Y19515355D01*
X10622191Y19477809D01*
X10584645Y19446995D01*
X10541814Y19424102D01*
X10495334Y19410002D01*
X10444546Y19405000D01*
X9055454Y19405000D01*
X9004666Y19410002D01*
X8958186Y19424102D01*
X8915355Y19446995D01*
X8877809Y19477809D01*
X8846995Y19515355D01*
X8824102Y19558186D01*
X8810002Y19604666D01*
X8805000Y19655454D01*
X8805000Y20544546D01*
X8810002Y20595334D01*
X8824102Y20641814D01*
X8846995Y20684645D01*
X8877809Y20722191D01*
X8915355Y20753005D01*
X8958186Y20775898D01*
X9004666Y20789998D01*
X9055454Y20795000D01*
X10444546Y20795000D01*
X10495334Y20789998D01*
X10495334Y20789998D01*
G37*
G36*
X34370000Y21570000D02*
G01*
X31080000Y21570000D01*
X31080000Y22710000D01*
X34370000Y22710000D01*
X34370000Y21570000D01*
X34370000Y21570000D01*
G37*
G36*
X39420000Y21570000D02*
G01*
X36130000Y21570000D01*
X36130000Y22710000D01*
X39420000Y22710000D01*
X39420000Y21570000D01*
X39420000Y21570000D01*
G37*
G36*
X13180351Y23676689D02*
G01*
X13353773Y23624081D01*
X13513595Y23538655D01*
X13518497Y23534632D01*
X13653686Y23423686D01*
X13741240Y23317000D01*
X13768655Y23283595D01*
X13854081Y23123773D01*
X13906689Y22950351D01*
X13924451Y22770000D01*
X13906689Y22589649D01*
X13854081Y22416227D01*
X13768655Y22256405D01*
X13760932Y22246995D01*
X13653686Y22116314D01*
X13547685Y22029322D01*
X13513595Y22001345D01*
X13353773Y21915919D01*
X13180351Y21863311D01*
X13045196Y21850000D01*
X12154804Y21850000D01*
X12019649Y21863311D01*
X11846227Y21915919D01*
X11686405Y22001345D01*
X11652315Y22029322D01*
X11546314Y22116314D01*
X11439068Y22246995D01*
X11431345Y22256405D01*
X11345919Y22416227D01*
X11293311Y22589649D01*
X11275549Y22770000D01*
X11293311Y22950351D01*
X11345919Y23123773D01*
X11431345Y23283595D01*
X11458760Y23317000D01*
X11546314Y23423686D01*
X11681503Y23534632D01*
X11686405Y23538655D01*
X11846227Y23624081D01*
X12019649Y23676689D01*
X12154804Y23690000D01*
X13045196Y23690000D01*
X13180351Y23676689D01*
X13180351Y23676689D01*
G37*
G36*
X19310828Y22965368D02*
G01*
X19353698Y22952363D01*
X19393200Y22931249D01*
X19427829Y22902829D01*
X19456249Y22868200D01*
X19477363Y22828698D01*
X19490368Y22785828D01*
X19495000Y22738796D01*
X19495000Y22186204D01*
X19490368Y22139172D01*
X19477363Y22096302D01*
X19456249Y22056800D01*
X19427829Y22022171D01*
X19393200Y21993751D01*
X19353698Y21972637D01*
X19310828Y21959632D01*
X19263796Y21955000D01*
X18636204Y21955000D01*
X18589172Y21959632D01*
X18546302Y21972637D01*
X18506800Y21993751D01*
X18472171Y22022171D01*
X18443751Y22056800D01*
X18422637Y22096302D01*
X18409632Y22139172D01*
X18405000Y22186204D01*
X18405000Y22738796D01*
X18409632Y22785828D01*
X18422637Y22828698D01*
X18443751Y22868200D01*
X18472171Y22902829D01*
X18506800Y22931249D01*
X18546302Y22952363D01*
X18589172Y22965368D01*
X18636204Y22970000D01*
X19263796Y22970000D01*
X19310828Y22965368D01*
X19310828Y22965368D01*
G37*
G36*
X10495334Y23589998D02*
G01*
X10541814Y23575898D01*
X10584645Y23553005D01*
X10622191Y23522191D01*
X10653005Y23484645D01*
X10675898Y23441814D01*
X10689998Y23395334D01*
X10695000Y23344546D01*
X10695000Y22455454D01*
X10689998Y22404666D01*
X10675898Y22358186D01*
X10653005Y22315355D01*
X10622191Y22277809D01*
X10584645Y22246995D01*
X10541814Y22224102D01*
X10495334Y22210002D01*
X10444546Y22205000D01*
X9055454Y22205000D01*
X9004666Y22210002D01*
X8958186Y22224102D01*
X8915355Y22246995D01*
X8877809Y22277809D01*
X8846995Y22315355D01*
X8824102Y22358186D01*
X8810002Y22404666D01*
X8805000Y22455454D01*
X8805000Y23344546D01*
X8810002Y23395334D01*
X8824102Y23441814D01*
X8846995Y23484645D01*
X8877809Y23522191D01*
X8915355Y23553005D01*
X8958186Y23575898D01*
X9004666Y23589998D01*
X9055454Y23595000D01*
X10444546Y23595000D01*
X10495334Y23589998D01*
X10495334Y23589998D01*
G37*
G36*
X19310828Y24540368D02*
G01*
X19353698Y24527363D01*
X19393200Y24506249D01*
X19427829Y24477829D01*
X19456249Y24443200D01*
X19477363Y24403698D01*
X19490368Y24360828D01*
X19495000Y24313796D01*
X19495000Y23761204D01*
X19490368Y23714172D01*
X19477363Y23671302D01*
X19456249Y23631800D01*
X19427829Y23597171D01*
X19393200Y23568751D01*
X19353698Y23547637D01*
X19310828Y23534632D01*
X19263796Y23530000D01*
X18636204Y23530000D01*
X18589172Y23534632D01*
X18546302Y23547637D01*
X18506800Y23568751D01*
X18472171Y23597171D01*
X18443751Y23631800D01*
X18422637Y23671302D01*
X18409632Y23714172D01*
X18405000Y23761204D01*
X18405000Y24313796D01*
X18409632Y24360828D01*
X18422637Y24403698D01*
X18443751Y24443200D01*
X18472171Y24477829D01*
X18506800Y24506249D01*
X18546302Y24527363D01*
X18589172Y24540368D01*
X18636204Y24545000D01*
X19263796Y24545000D01*
X19310828Y24540368D01*
X19310828Y24540368D01*
G37*
G36*
X27545000Y23730000D02*
G01*
X27005000Y23730000D01*
X27005000Y24970000D01*
X27545000Y24970000D01*
X27545000Y23730000D01*
X27545000Y23730000D01*
G37*
G36*
X26895000Y23730000D02*
G01*
X26355000Y23730000D01*
X26355000Y24970000D01*
X26895000Y24970000D01*
X26895000Y23730000D01*
X26895000Y23730000D01*
G37*
G36*
X26245000Y23730000D02*
G01*
X25705000Y23730000D01*
X25705000Y24970000D01*
X26245000Y24970000D01*
X26245000Y23730000D01*
X26245000Y23730000D01*
G37*
G36*
X25595000Y23730000D02*
G01*
X25055000Y23730000D01*
X25055000Y24970000D01*
X25595000Y24970000D01*
X25595000Y23730000D01*
X25595000Y23730000D01*
G37*
G36*
X29495000Y23730000D02*
G01*
X28955000Y23730000D01*
X28955000Y24970000D01*
X29495000Y24970000D01*
X29495000Y23730000D01*
X29495000Y23730000D01*
G37*
G36*
X22995000Y23730000D02*
G01*
X22455000Y23730000D01*
X22455000Y24970000D01*
X22995000Y24970000D01*
X22995000Y23730000D01*
X22995000Y23730000D01*
G37*
G36*
X21045000Y23730000D02*
G01*
X20505000Y23730000D01*
X20505000Y24970000D01*
X21045000Y24970000D01*
X21045000Y23730000D01*
X21045000Y23730000D01*
G37*
G36*
X22345000Y23730000D02*
G01*
X21805000Y23730000D01*
X21805000Y24970000D01*
X22345000Y24970000D01*
X22345000Y23730000D01*
X22345000Y23730000D01*
G37*
G36*
X23645000Y23730000D02*
G01*
X23105000Y23730000D01*
X23105000Y24970000D01*
X23645000Y24970000D01*
X23645000Y23730000D01*
X23645000Y23730000D01*
G37*
G36*
X24295000Y23730000D02*
G01*
X23755000Y23730000D01*
X23755000Y24970000D01*
X24295000Y24970000D01*
X24295000Y23730000D01*
X24295000Y23730000D01*
G37*
G36*
X24945000Y23730000D02*
G01*
X24405000Y23730000D01*
X24405000Y24970000D01*
X24945000Y24970000D01*
X24945000Y23730000D01*
X24945000Y23730000D01*
G37*
G36*
X28845000Y23730000D02*
G01*
X28305000Y23730000D01*
X28305000Y24970000D01*
X28845000Y24970000D01*
X28845000Y23730000D01*
X28845000Y23730000D01*
G37*
G36*
X28195000Y23730000D02*
G01*
X27655000Y23730000D01*
X27655000Y24970000D01*
X28195000Y24970000D01*
X28195000Y23730000D01*
X28195000Y23730000D01*
G37*
G36*
X21695000Y23730000D02*
G01*
X21155000Y23730000D01*
X21155000Y24970000D01*
X21695000Y24970000D01*
X21695000Y23730000D01*
X21695000Y23730000D01*
G37*
G36*
X39420000Y24110000D02*
G01*
X36130000Y24110000D01*
X36130000Y25250000D01*
X39420000Y25250000D01*
X39420000Y24110000D01*
X39420000Y24110000D01*
G37*
G36*
X34370000Y24110000D02*
G01*
X31080000Y24110000D01*
X31080000Y25250000D01*
X34370000Y25250000D01*
X34370000Y24110000D01*
X34370000Y24110000D01*
G37*
G36*
X13180351Y26216689D02*
G01*
X13353773Y26164081D01*
X13513595Y26078655D01*
X13513597Y26078653D01*
X13653686Y25963686D01*
X13737354Y25861735D01*
X13768655Y25823595D01*
X13854081Y25663773D01*
X13906689Y25490351D01*
X13924451Y25310000D01*
X13906689Y25129649D01*
X13854081Y24956227D01*
X13768655Y24796405D01*
X13768653Y24796403D01*
X13653686Y24656314D01*
X13536650Y24560266D01*
X13513595Y24541345D01*
X13353773Y24455919D01*
X13180351Y24403311D01*
X13045196Y24390000D01*
X12154804Y24390000D01*
X12019649Y24403311D01*
X11846227Y24455919D01*
X11686405Y24541345D01*
X11663350Y24560266D01*
X11546314Y24656314D01*
X11431347Y24796403D01*
X11431345Y24796405D01*
X11345919Y24956227D01*
X11293311Y25129649D01*
X11275549Y25310000D01*
X11293311Y25490351D01*
X11345919Y25663773D01*
X11431345Y25823595D01*
X11462646Y25861735D01*
X11546314Y25963686D01*
X11686403Y26078653D01*
X11686405Y26078655D01*
X11846227Y26164081D01*
X12019649Y26216689D01*
X12154804Y26230000D01*
X13045196Y26230000D01*
X13180351Y26216689D01*
X13180351Y26216689D01*
G37*
G36*
X20785828Y26690368D02*
G01*
X20828698Y26677363D01*
X20868200Y26656249D01*
X20902829Y26627829D01*
X20931249Y26593200D01*
X20952363Y26553698D01*
X20965368Y26510828D01*
X20970000Y26463796D01*
X20970000Y25836204D01*
X20965368Y25789172D01*
X20952363Y25746302D01*
X20931249Y25706800D01*
X20902829Y25672171D01*
X20868200Y25643751D01*
X20828698Y25622637D01*
X20785828Y25609632D01*
X20738796Y25605000D01*
X20186204Y25605000D01*
X20139172Y25609632D01*
X20096302Y25622637D01*
X20056800Y25643751D01*
X20022171Y25672171D01*
X19993751Y25706800D01*
X19972637Y25746302D01*
X19959632Y25789172D01*
X19955000Y25836204D01*
X19955000Y26463796D01*
X19959632Y26510828D01*
X19972637Y26553698D01*
X19993751Y26593200D01*
X20022171Y26627829D01*
X20056800Y26656249D01*
X20096302Y26677363D01*
X20139172Y26690368D01*
X20186204Y26695000D01*
X20738796Y26695000D01*
X20785828Y26690368D01*
X20785828Y26690368D01*
G37*
G36*
X22360828Y26690368D02*
G01*
X22403698Y26677363D01*
X22443200Y26656249D01*
X22477829Y26627829D01*
X22506249Y26593200D01*
X22527363Y26553698D01*
X22540368Y26510828D01*
X22545000Y26463796D01*
X22545000Y25836204D01*
X22540368Y25789172D01*
X22527363Y25746302D01*
X22506249Y25706800D01*
X22477829Y25672171D01*
X22443200Y25643751D01*
X22403698Y25622637D01*
X22360828Y25609632D01*
X22313796Y25605000D01*
X21761204Y25605000D01*
X21714172Y25609632D01*
X21671302Y25622637D01*
X21631800Y25643751D01*
X21597171Y25672171D01*
X21568751Y25706800D01*
X21547637Y25746302D01*
X21534632Y25789172D01*
X21530000Y25836204D01*
X21530000Y26463796D01*
X21534632Y26510828D01*
X21547637Y26553698D01*
X21568751Y26593200D01*
X21597171Y26627829D01*
X21631800Y26656249D01*
X21671302Y26677363D01*
X21714172Y26690368D01*
X21761204Y26695000D01*
X22313796Y26695000D01*
X22360828Y26690368D01*
X22360828Y26690368D01*
G37*
G36*
X23860828Y26615368D02*
G01*
X23903698Y26602363D01*
X23943200Y26581249D01*
X23977829Y26552829D01*
X24006249Y26518200D01*
X24027363Y26478698D01*
X24040368Y26435828D01*
X24045000Y26388796D01*
X24045000Y25836204D01*
X24040368Y25789172D01*
X24027363Y25746302D01*
X24006249Y25706800D01*
X23977829Y25672171D01*
X23943200Y25643751D01*
X23903698Y25622637D01*
X23860828Y25609632D01*
X23813796Y25605000D01*
X23186204Y25605000D01*
X23139172Y25609632D01*
X23096302Y25622637D01*
X23056800Y25643751D01*
X23022171Y25672171D01*
X22993751Y25706800D01*
X22972637Y25746302D01*
X22959632Y25789172D01*
X22955000Y25836204D01*
X22955000Y26388796D01*
X22959632Y26435828D01*
X22972637Y26478698D01*
X22993751Y26518200D01*
X23022171Y26552829D01*
X23056800Y26581249D01*
X23096302Y26602363D01*
X23139172Y26615368D01*
X23186204Y26620000D01*
X23813796Y26620000D01*
X23860828Y26615368D01*
X23860828Y26615368D01*
G37*
G36*
X26360828Y26715368D02*
G01*
X26403698Y26702363D01*
X26443200Y26681249D01*
X26477829Y26652829D01*
X26506249Y26618200D01*
X26527363Y26578698D01*
X26540368Y26535828D01*
X26545000Y26488796D01*
X26545000Y25936204D01*
X26540368Y25889172D01*
X26527363Y25846302D01*
X26506249Y25806800D01*
X26477829Y25772171D01*
X26443200Y25743751D01*
X26403698Y25722637D01*
X26360828Y25709632D01*
X26313796Y25705000D01*
X25686204Y25705000D01*
X25639172Y25709632D01*
X25596302Y25722637D01*
X25556800Y25743751D01*
X25522171Y25772171D01*
X25493751Y25806800D01*
X25472637Y25846302D01*
X25459632Y25889172D01*
X25455000Y25936204D01*
X25455000Y26488796D01*
X25459632Y26535828D01*
X25472637Y26578698D01*
X25493751Y26618200D01*
X25522171Y26652829D01*
X25556800Y26681249D01*
X25596302Y26702363D01*
X25639172Y26715368D01*
X25686204Y26720000D01*
X26313796Y26720000D01*
X26360828Y26715368D01*
X26360828Y26715368D01*
G37*
G36*
X30315705Y26814888D02*
G01*
X30363265Y26800460D01*
X30407090Y26777036D01*
X30445507Y26745507D01*
X30477036Y26707090D01*
X30500460Y26663265D01*
X30514888Y26615705D01*
X30520000Y26563797D01*
X30520000Y25961203D01*
X30514888Y25909295D01*
X30500460Y25861735D01*
X30477036Y25817910D01*
X30445507Y25779493D01*
X30407090Y25747964D01*
X30363265Y25724540D01*
X30315705Y25710112D01*
X30263797Y25705000D01*
X29236203Y25705000D01*
X29184295Y25710112D01*
X29136735Y25724540D01*
X29092910Y25747964D01*
X29054493Y25779493D01*
X29022964Y25817910D01*
X28999540Y25861735D01*
X28985112Y25909295D01*
X28980000Y25961203D01*
X28980000Y26563797D01*
X28985112Y26615705D01*
X28999540Y26663265D01*
X29022964Y26707090D01*
X29054493Y26745507D01*
X29092910Y26777036D01*
X29136735Y26800460D01*
X29184295Y26814888D01*
X29236203Y26820000D01*
X30263797Y26820000D01*
X30315705Y26814888D01*
X30315705Y26814888D01*
G37*
G36*
X27860828Y26715368D02*
G01*
X27903698Y26702363D01*
X27943200Y26681249D01*
X27977829Y26652829D01*
X28006249Y26618200D01*
X28027363Y26578698D01*
X28040368Y26535828D01*
X28045000Y26488796D01*
X28045000Y25936204D01*
X28040368Y25889172D01*
X28027363Y25846302D01*
X28006249Y25806800D01*
X27977829Y25772171D01*
X27943200Y25743751D01*
X27903698Y25722637D01*
X27860828Y25709632D01*
X27813796Y25705000D01*
X27186204Y25705000D01*
X27139172Y25709632D01*
X27096302Y25722637D01*
X27056800Y25743751D01*
X27022171Y25772171D01*
X26993751Y25806800D01*
X26972637Y25846302D01*
X26959632Y25889172D01*
X26955000Y25936204D01*
X26955000Y26488796D01*
X26959632Y26535828D01*
X26972637Y26578698D01*
X26993751Y26618200D01*
X27022171Y26652829D01*
X27056800Y26681249D01*
X27096302Y26702363D01*
X27139172Y26715368D01*
X27186204Y26720000D01*
X27813796Y26720000D01*
X27860828Y26715368D01*
X27860828Y26715368D01*
G37*
G36*
X13180351Y28756689D02*
G01*
X13353773Y28704081D01*
X13513595Y28618655D01*
X13536650Y28599734D01*
X13653686Y28503686D01*
X13725442Y28416250D01*
X13768655Y28363595D01*
X13854081Y28203773D01*
X13906689Y28030351D01*
X13924451Y27850000D01*
X13906689Y27669649D01*
X13854081Y27496227D01*
X13768655Y27336405D01*
X13768653Y27336403D01*
X13653686Y27196314D01*
X13536650Y27100266D01*
X13513595Y27081345D01*
X13353773Y26995919D01*
X13180351Y26943311D01*
X13045196Y26930000D01*
X12154804Y26930000D01*
X12019649Y26943311D01*
X11846227Y26995919D01*
X11686405Y27081345D01*
X11663350Y27100266D01*
X11546314Y27196314D01*
X11431347Y27336403D01*
X11431345Y27336405D01*
X11345919Y27496227D01*
X11293311Y27669649D01*
X11275549Y27850000D01*
X11293311Y28030351D01*
X11345919Y28203773D01*
X11431345Y28363595D01*
X11474558Y28416250D01*
X11546314Y28503686D01*
X11663350Y28599734D01*
X11686405Y28618655D01*
X11846227Y28704081D01*
X12019649Y28756689D01*
X12154804Y28770000D01*
X13045196Y28770000D01*
X13180351Y28756689D01*
X13180351Y28756689D01*
G37*
G36*
X23860828Y28190368D02*
G01*
X23903698Y28177363D01*
X23943200Y28156249D01*
X23977829Y28127829D01*
X24006249Y28093200D01*
X24027363Y28053698D01*
X24040368Y28010828D01*
X24045000Y27963796D01*
X24045000Y27411204D01*
X24040368Y27364172D01*
X24027363Y27321302D01*
X24006249Y27281800D01*
X23977829Y27247171D01*
X23943200Y27218751D01*
X23903698Y27197637D01*
X23860828Y27184632D01*
X23813796Y27180000D01*
X23186204Y27180000D01*
X23139172Y27184632D01*
X23096302Y27197637D01*
X23056800Y27218751D01*
X23022171Y27247171D01*
X22993751Y27281800D01*
X22972637Y27321302D01*
X22959632Y27364172D01*
X22955000Y27411204D01*
X22955000Y27963796D01*
X22959632Y28010828D01*
X22972637Y28053698D01*
X22993751Y28093200D01*
X23022171Y28127829D01*
X23056800Y28156249D01*
X23096302Y28177363D01*
X23139172Y28190368D01*
X23186204Y28195000D01*
X23813796Y28195000D01*
X23860828Y28190368D01*
X23860828Y28190368D01*
G37*
G36*
X27860828Y28290368D02*
G01*
X27903698Y28277363D01*
X27943200Y28256249D01*
X27977829Y28227829D01*
X28006249Y28193200D01*
X28027363Y28153698D01*
X28040368Y28110828D01*
X28045000Y28063796D01*
X28045000Y27511204D01*
X28040368Y27464172D01*
X28027363Y27421302D01*
X28006249Y27381800D01*
X27977829Y27347171D01*
X27943200Y27318751D01*
X27903698Y27297637D01*
X27860828Y27284632D01*
X27813796Y27280000D01*
X27186204Y27280000D01*
X27139172Y27284632D01*
X27096302Y27297637D01*
X27056800Y27318751D01*
X27022171Y27347171D01*
X26993751Y27381800D01*
X26972637Y27421302D01*
X26959632Y27464172D01*
X26955000Y27511204D01*
X26955000Y28063796D01*
X26959632Y28110828D01*
X26972637Y28153698D01*
X26993751Y28193200D01*
X27022171Y28227829D01*
X27056800Y28256249D01*
X27096302Y28277363D01*
X27139172Y28290368D01*
X27186204Y28295000D01*
X27813796Y28295000D01*
X27860828Y28290368D01*
X27860828Y28290368D01*
G37*
G36*
X26360828Y28290368D02*
G01*
X26403698Y28277363D01*
X26443200Y28256249D01*
X26477829Y28227829D01*
X26506249Y28193200D01*
X26527363Y28153698D01*
X26540368Y28110828D01*
X26545000Y28063796D01*
X26545000Y27511204D01*
X26540368Y27464172D01*
X26527363Y27421302D01*
X26506249Y27381800D01*
X26477829Y27347171D01*
X26443200Y27318751D01*
X26403698Y27297637D01*
X26360828Y27284632D01*
X26313796Y27280000D01*
X25686204Y27280000D01*
X25639172Y27284632D01*
X25596302Y27297637D01*
X25556800Y27318751D01*
X25522171Y27347171D01*
X25493751Y27381800D01*
X25472637Y27421302D01*
X25459632Y27464172D01*
X25455000Y27511204D01*
X25455000Y28063796D01*
X25459632Y28110828D01*
X25472637Y28153698D01*
X25493751Y28193200D01*
X25522171Y28227829D01*
X25556800Y28256249D01*
X25596302Y28277363D01*
X25639172Y28290368D01*
X25686204Y28295000D01*
X26313796Y28295000D01*
X26360828Y28290368D01*
X26360828Y28290368D01*
G37*
G36*
X30315705Y28689888D02*
G01*
X30363265Y28675460D01*
X30407090Y28652036D01*
X30445507Y28620507D01*
X30477036Y28582090D01*
X30500460Y28538265D01*
X30514888Y28490705D01*
X30520000Y28438797D01*
X30520000Y27836203D01*
X30514888Y27784295D01*
X30500460Y27736735D01*
X30477036Y27692910D01*
X30445507Y27654493D01*
X30407090Y27622964D01*
X30363265Y27599540D01*
X30315705Y27585112D01*
X30263797Y27580000D01*
X29236203Y27580000D01*
X29184295Y27585112D01*
X29136735Y27599540D01*
X29092910Y27622964D01*
X29054493Y27654493D01*
X29022964Y27692910D01*
X28999540Y27736735D01*
X28985112Y27784295D01*
X28980000Y27836203D01*
X28980000Y28438797D01*
X28985112Y28490705D01*
X28999540Y28538265D01*
X29022964Y28582090D01*
X29054493Y28620507D01*
X29092910Y28652036D01*
X29136735Y28675460D01*
X29184295Y28689888D01*
X29236203Y28695000D01*
X30263797Y28695000D01*
X30315705Y28689888D01*
X30315705Y28689888D01*
G37*
G36*
X35737119Y31355823D02*
G01*
X36041040Y31229935D01*
X36176873Y31139174D01*
X36314563Y31047173D01*
X36547173Y30814563D01*
X36547174Y30814561D01*
X36729935Y30541040D01*
X36855823Y30237119D01*
X36920000Y29914482D01*
X36920000Y29585518D01*
X36855823Y29262881D01*
X36729935Y28958960D01*
X36729934Y28958959D01*
X36547173Y28685437D01*
X36314563Y28452827D01*
X36259821Y28416250D01*
X36041040Y28270065D01*
X35737119Y28144177D01*
X35414482Y28080000D01*
X35085518Y28080000D01*
X34762881Y28144177D01*
X34458960Y28270065D01*
X34240179Y28416250D01*
X34185437Y28452827D01*
X33952827Y28685437D01*
X33770066Y28958959D01*
X33770065Y28958960D01*
X33644177Y29262881D01*
X33580000Y29585518D01*
X33580000Y29914482D01*
X33644177Y30237119D01*
X33770065Y30541040D01*
X33952826Y30814561D01*
X33952827Y30814563D01*
X34185437Y31047173D01*
X34323127Y31139174D01*
X34458960Y31229935D01*
X34762881Y31355823D01*
X35085518Y31420000D01*
X35414482Y31420000D01*
X35737119Y31355823D01*
X35737119Y31355823D01*
G37*
G36*
X7737119Y31355823D02*
G01*
X8041040Y31229935D01*
X8176873Y31139174D01*
X8314563Y31047173D01*
X8547173Y30814563D01*
X8547174Y30814561D01*
X8729935Y30541040D01*
X8855823Y30237119D01*
X8920000Y29914482D01*
X8920000Y29585518D01*
X8855823Y29262881D01*
X8729935Y28958960D01*
X8729934Y28958959D01*
X8547173Y28685437D01*
X8314563Y28452827D01*
X8259821Y28416250D01*
X8041040Y28270065D01*
X7737119Y28144177D01*
X7414482Y28080000D01*
X7085518Y28080000D01*
X6762881Y28144177D01*
X6458960Y28270065D01*
X6240179Y28416250D01*
X6185437Y28452827D01*
X5952827Y28685437D01*
X5770066Y28958959D01*
X5770065Y28958960D01*
X5644177Y29262881D01*
X5580000Y29585518D01*
X5580000Y29914482D01*
X5644177Y30237119D01*
X5770065Y30541040D01*
X5952826Y30814561D01*
X5952827Y30814563D01*
X6185437Y31047173D01*
X6323127Y31139174D01*
X6458960Y31229935D01*
X6762881Y31355823D01*
X7085518Y31420000D01*
X7414482Y31420000D01*
X7737119Y31355823D01*
X7737119Y31355823D01*
G37*
G36*
X30315705Y30364888D02*
G01*
X30363265Y30350460D01*
X30407090Y30327036D01*
X30445507Y30295507D01*
X30477036Y30257090D01*
X30500460Y30213265D01*
X30514888Y30165705D01*
X30520000Y30113797D01*
X30520000Y29511203D01*
X30514888Y29459295D01*
X30500460Y29411735D01*
X30477036Y29367910D01*
X30445507Y29329493D01*
X30407090Y29297964D01*
X30363265Y29274540D01*
X30315705Y29260112D01*
X30263797Y29255000D01*
X29236203Y29255000D01*
X29184295Y29260112D01*
X29136735Y29274540D01*
X29092910Y29297964D01*
X29054493Y29329493D01*
X29022964Y29367910D01*
X28999540Y29411735D01*
X28985112Y29459295D01*
X28980000Y29511203D01*
X28980000Y30113797D01*
X28985112Y30165705D01*
X28999540Y30213265D01*
X29022964Y30257090D01*
X29054493Y30295507D01*
X29092910Y30327036D01*
X29136735Y30350460D01*
X29184295Y30364888D01*
X29236203Y30370000D01*
X30263797Y30370000D01*
X30315705Y30364888D01*
X30315705Y30364888D01*
G37*
G36*
X27510828Y30460368D02*
G01*
X27553698Y30447363D01*
X27593200Y30426249D01*
X27627829Y30397829D01*
X27656249Y30363200D01*
X27677363Y30323698D01*
X27690368Y30280828D01*
X27695000Y30233796D01*
X27695000Y29606204D01*
X27690368Y29559172D01*
X27677363Y29516302D01*
X27656249Y29476800D01*
X27627829Y29442171D01*
X27593200Y29413751D01*
X27553698Y29392637D01*
X27510828Y29379632D01*
X27463796Y29375000D01*
X26911204Y29375000D01*
X26864172Y29379632D01*
X26821302Y29392637D01*
X26781800Y29413751D01*
X26747171Y29442171D01*
X26718751Y29476800D01*
X26697637Y29516302D01*
X26684632Y29559172D01*
X26680000Y29606204D01*
X26680000Y30233796D01*
X26684632Y30280828D01*
X26697637Y30323698D01*
X26718751Y30363200D01*
X26747171Y30397829D01*
X26781800Y30426249D01*
X26821302Y30447363D01*
X26864172Y30460368D01*
X26911204Y30465000D01*
X27463796Y30465000D01*
X27510828Y30460368D01*
X27510828Y30460368D01*
G37*
G36*
X24010828Y30460368D02*
G01*
X24053698Y30447363D01*
X24093200Y30426249D01*
X24127829Y30397829D01*
X24156249Y30363200D01*
X24177363Y30323698D01*
X24190368Y30280828D01*
X24195000Y30233796D01*
X24195000Y29606204D01*
X24190368Y29559172D01*
X24177363Y29516302D01*
X24156249Y29476800D01*
X24127829Y29442171D01*
X24093200Y29413751D01*
X24053698Y29392637D01*
X24010828Y29379632D01*
X23963796Y29375000D01*
X23411204Y29375000D01*
X23364172Y29379632D01*
X23321302Y29392637D01*
X23281800Y29413751D01*
X23247171Y29442171D01*
X23218751Y29476800D01*
X23197637Y29516302D01*
X23184632Y29559172D01*
X23180000Y29606204D01*
X23180000Y30233796D01*
X23184632Y30280828D01*
X23197637Y30323698D01*
X23218751Y30363200D01*
X23247171Y30397829D01*
X23281800Y30426249D01*
X23321302Y30447363D01*
X23364172Y30460368D01*
X23411204Y30465000D01*
X23963796Y30465000D01*
X24010828Y30460368D01*
X24010828Y30460368D01*
G37*
G36*
X22435828Y30460368D02*
G01*
X22478698Y30447363D01*
X22518200Y30426249D01*
X22552829Y30397829D01*
X22581249Y30363200D01*
X22602363Y30323698D01*
X22615368Y30280828D01*
X22620000Y30233796D01*
X22620000Y29606204D01*
X22615368Y29559172D01*
X22602363Y29516302D01*
X22581249Y29476800D01*
X22552829Y29442171D01*
X22518200Y29413751D01*
X22478698Y29392637D01*
X22435828Y29379632D01*
X22388796Y29375000D01*
X21836204Y29375000D01*
X21789172Y29379632D01*
X21746302Y29392637D01*
X21706800Y29413751D01*
X21672171Y29442171D01*
X21643751Y29476800D01*
X21622637Y29516302D01*
X21609632Y29559172D01*
X21605000Y29606204D01*
X21605000Y30233796D01*
X21609632Y30280828D01*
X21622637Y30323698D01*
X21643751Y30363200D01*
X21672171Y30397829D01*
X21706800Y30426249D01*
X21746302Y30447363D01*
X21789172Y30460368D01*
X21836204Y30465000D01*
X22388796Y30465000D01*
X22435828Y30460368D01*
X22435828Y30460368D01*
G37*
G36*
X25935828Y30460368D02*
G01*
X25978698Y30447363D01*
X26018200Y30426249D01*
X26052829Y30397829D01*
X26081249Y30363200D01*
X26102363Y30323698D01*
X26115368Y30280828D01*
X26120000Y30233796D01*
X26120000Y29606204D01*
X26115368Y29559172D01*
X26102363Y29516302D01*
X26081249Y29476800D01*
X26052829Y29442171D01*
X26018200Y29413751D01*
X25978698Y29392637D01*
X25935828Y29379632D01*
X25888796Y29375000D01*
X25336204Y29375000D01*
X25289172Y29379632D01*
X25246302Y29392637D01*
X25206800Y29413751D01*
X25172171Y29442171D01*
X25143751Y29476800D01*
X25122637Y29516302D01*
X25109632Y29559172D01*
X25105000Y29606204D01*
X25105000Y30233796D01*
X25109632Y30280828D01*
X25122637Y30323698D01*
X25143751Y30363200D01*
X25172171Y30397829D01*
X25206800Y30426249D01*
X25246302Y30447363D01*
X25289172Y30460368D01*
X25336204Y30465000D01*
X25888796Y30465000D01*
X25935828Y30460368D01*
X25935828Y30460368D01*
G37*
G36*
X13180351Y31296689D02*
G01*
X13353773Y31244081D01*
X13513595Y31158655D01*
X13536650Y31139734D01*
X13653686Y31043686D01*
X13736996Y30942171D01*
X13768655Y30903595D01*
X13854081Y30743773D01*
X13906689Y30570351D01*
X13924451Y30390000D01*
X13906689Y30209649D01*
X13854081Y30036227D01*
X13768655Y29876405D01*
X13768653Y29876403D01*
X13653686Y29736314D01*
X13536650Y29640266D01*
X13513595Y29621345D01*
X13353773Y29535919D01*
X13180351Y29483311D01*
X13045196Y29470000D01*
X12154804Y29470000D01*
X12019649Y29483311D01*
X11846227Y29535919D01*
X11686405Y29621345D01*
X11663350Y29640266D01*
X11546314Y29736314D01*
X11431347Y29876403D01*
X11431345Y29876405D01*
X11345919Y30036227D01*
X11293311Y30209649D01*
X11275549Y30390000D01*
X11293311Y30570351D01*
X11345919Y30743773D01*
X11431345Y30903595D01*
X11463004Y30942171D01*
X11546314Y31043686D01*
X11663350Y31139734D01*
X11686405Y31158655D01*
X11846227Y31244081D01*
X12019649Y31296689D01*
X12154804Y31310000D01*
X13045196Y31310000D01*
X13180351Y31296689D01*
X13180351Y31296689D01*
G37*
G36*
X22435828Y31960368D02*
G01*
X22478698Y31947363D01*
X22518200Y31926249D01*
X22552829Y31897829D01*
X22581249Y31863200D01*
X22602363Y31823698D01*
X22615368Y31780828D01*
X22620000Y31733796D01*
X22620000Y31106204D01*
X22615368Y31059172D01*
X22602363Y31016302D01*
X22581249Y30976800D01*
X22552829Y30942171D01*
X22518200Y30913751D01*
X22478698Y30892637D01*
X22435828Y30879632D01*
X22388796Y30875000D01*
X21836204Y30875000D01*
X21789172Y30879632D01*
X21746302Y30892637D01*
X21706800Y30913751D01*
X21672171Y30942171D01*
X21643751Y30976800D01*
X21622637Y31016302D01*
X21609632Y31059172D01*
X21605000Y31106204D01*
X21605000Y31733796D01*
X21609632Y31780828D01*
X21622637Y31823698D01*
X21643751Y31863200D01*
X21672171Y31897829D01*
X21706800Y31926249D01*
X21746302Y31947363D01*
X21789172Y31960368D01*
X21836204Y31965000D01*
X22388796Y31965000D01*
X22435828Y31960368D01*
X22435828Y31960368D01*
G37*
G36*
X27510828Y31960368D02*
G01*
X27553698Y31947363D01*
X27593200Y31926249D01*
X27627829Y31897829D01*
X27656249Y31863200D01*
X27677363Y31823698D01*
X27690368Y31780828D01*
X27695000Y31733796D01*
X27695000Y31106204D01*
X27690368Y31059172D01*
X27677363Y31016302D01*
X27656249Y30976800D01*
X27627829Y30942171D01*
X27593200Y30913751D01*
X27553698Y30892637D01*
X27510828Y30879632D01*
X27463796Y30875000D01*
X26911204Y30875000D01*
X26864172Y30879632D01*
X26821302Y30892637D01*
X26781800Y30913751D01*
X26747171Y30942171D01*
X26718751Y30976800D01*
X26697637Y31016302D01*
X26684632Y31059172D01*
X26680000Y31106204D01*
X26680000Y31733796D01*
X26684632Y31780828D01*
X26697637Y31823698D01*
X26718751Y31863200D01*
X26747171Y31897829D01*
X26781800Y31926249D01*
X26821302Y31947363D01*
X26864172Y31960368D01*
X26911204Y31965000D01*
X27463796Y31965000D01*
X27510828Y31960368D01*
X27510828Y31960368D01*
G37*
G36*
X24010828Y31960368D02*
G01*
X24053698Y31947363D01*
X24093200Y31926249D01*
X24127829Y31897829D01*
X24156249Y31863200D01*
X24177363Y31823698D01*
X24190368Y31780828D01*
X24195000Y31733796D01*
X24195000Y31106204D01*
X24190368Y31059172D01*
X24177363Y31016302D01*
X24156249Y30976800D01*
X24127829Y30942171D01*
X24093200Y30913751D01*
X24053698Y30892637D01*
X24010828Y30879632D01*
X23963796Y30875000D01*
X23411204Y30875000D01*
X23364172Y30879632D01*
X23321302Y30892637D01*
X23281800Y30913751D01*
X23247171Y30942171D01*
X23218751Y30976800D01*
X23197637Y31016302D01*
X23184632Y31059172D01*
X23180000Y31106204D01*
X23180000Y31733796D01*
X23184632Y31780828D01*
X23197637Y31823698D01*
X23218751Y31863200D01*
X23247171Y31897829D01*
X23281800Y31926249D01*
X23321302Y31947363D01*
X23364172Y31960368D01*
X23411204Y31965000D01*
X23963796Y31965000D01*
X24010828Y31960368D01*
X24010828Y31960368D01*
G37*
G36*
X25935828Y31960368D02*
G01*
X25978698Y31947363D01*
X26018200Y31926249D01*
X26052829Y31897829D01*
X26081249Y31863200D01*
X26102363Y31823698D01*
X26115368Y31780828D01*
X26120000Y31733796D01*
X26120000Y31106204D01*
X26115368Y31059172D01*
X26102363Y31016302D01*
X26081249Y30976800D01*
X26052829Y30942171D01*
X26018200Y30913751D01*
X25978698Y30892637D01*
X25935828Y30879632D01*
X25888796Y30875000D01*
X25336204Y30875000D01*
X25289172Y30879632D01*
X25246302Y30892637D01*
X25206800Y30913751D01*
X25172171Y30942171D01*
X25143751Y30976800D01*
X25122637Y31016302D01*
X25109632Y31059172D01*
X25105000Y31106204D01*
X25105000Y31733796D01*
X25109632Y31780828D01*
X25122637Y31823698D01*
X25143751Y31863200D01*
X25172171Y31897829D01*
X25206800Y31926249D01*
X25246302Y31947363D01*
X25289172Y31960368D01*
X25336204Y31965000D01*
X25888796Y31965000D01*
X25935828Y31960368D01*
X25935828Y31960368D01*
G37*
G36*
X30315705Y32239888D02*
G01*
X30363265Y32225460D01*
X30407090Y32202036D01*
X30445507Y32170507D01*
X30477036Y32132090D01*
X30500460Y32088265D01*
X30514888Y32040705D01*
X30520000Y31988797D01*
X30520000Y31386203D01*
X30514888Y31334295D01*
X30500460Y31286735D01*
X30477036Y31242910D01*
X30445507Y31204493D01*
X30407090Y31172964D01*
X30363265Y31149540D01*
X30315705Y31135112D01*
X30263797Y31130000D01*
X29236203Y31130000D01*
X29184295Y31135112D01*
X29136735Y31149540D01*
X29092910Y31172964D01*
X29054493Y31204493D01*
X29022964Y31242910D01*
X28999540Y31286735D01*
X28985112Y31334295D01*
X28980000Y31386203D01*
X28980000Y31988797D01*
X28985112Y32040705D01*
X28999540Y32088265D01*
X29022964Y32132090D01*
X29054493Y32170507D01*
X29092910Y32202036D01*
X29136735Y32225460D01*
X29184295Y32239888D01*
X29236203Y32245000D01*
X30263797Y32245000D01*
X30315705Y32239888D01*
X30315705Y32239888D01*
G37*
G36*
X13180351Y33836689D02*
G01*
X13353773Y33784081D01*
X13513595Y33698655D01*
X13513597Y33698653D01*
X13653686Y33583686D01*
X13718261Y33505000D01*
X13768655Y33443595D01*
X13854081Y33283773D01*
X13906689Y33110351D01*
X13924451Y32930000D01*
X13906689Y32749649D01*
X13854081Y32576227D01*
X13768655Y32416405D01*
X13768653Y32416403D01*
X13653686Y32276314D01*
X13563177Y32202036D01*
X13513595Y32161345D01*
X13353773Y32075919D01*
X13180351Y32023311D01*
X13045196Y32010000D01*
X12154804Y32010000D01*
X12019649Y32023311D01*
X11846227Y32075919D01*
X11686405Y32161345D01*
X11636823Y32202036D01*
X11546314Y32276314D01*
X11431347Y32416403D01*
X11431345Y32416405D01*
X11345919Y32576227D01*
X11293311Y32749649D01*
X11275549Y32930000D01*
X11293311Y33110351D01*
X11345919Y33283773D01*
X11431345Y33443595D01*
X11481739Y33505000D01*
X11546314Y33583686D01*
X11686403Y33698653D01*
X11686405Y33698655D01*
X11846227Y33784081D01*
X12019649Y33836689D01*
X12154804Y33850000D01*
X13045196Y33850000D01*
X13180351Y33836689D01*
X13180351Y33836689D01*
G37*
G36*
X1145843Y33980786D02*
G01*
X1145846Y33980785D01*
X1145845Y33980785D01*
X1236839Y33943094D01*
X1278063Y33915549D01*
X1318730Y33888376D01*
X1388376Y33818730D01*
X1443095Y33736837D01*
X1480786Y33645843D01*
X1500000Y33549247D01*
X1500000Y33450753D01*
X1480786Y33354157D01*
X1443095Y33263163D01*
X1388376Y33181270D01*
X1318730Y33111624D01*
X1278063Y33084451D01*
X1236839Y33056906D01*
X1236838Y33056905D01*
X1236837Y33056905D01*
X1145843Y33019214D01*
X1049247Y33000000D01*
X950753Y33000000D01*
X854157Y33019214D01*
X763163Y33056905D01*
X763162Y33056905D01*
X763161Y33056906D01*
X721937Y33084451D01*
X681270Y33111624D01*
X611624Y33181270D01*
X556905Y33263163D01*
X519214Y33354157D01*
X500000Y33450753D01*
X500000Y33549247D01*
X519214Y33645843D01*
X556905Y33736837D01*
X611624Y33818730D01*
X681270Y33888376D01*
X721937Y33915549D01*
X763161Y33943094D01*
X854155Y33980785D01*
X854154Y33980785D01*
X854157Y33980786D01*
X950753Y34000000D01*
X1049247Y34000000D01*
X1145843Y33980786D01*
X1145843Y33980786D01*
G37*
G36*
X30110828Y34515368D02*
G01*
X30153698Y34502363D01*
X30193200Y34481249D01*
X30227829Y34452829D01*
X30256249Y34418200D01*
X30277363Y34378698D01*
X30290368Y34335828D01*
X30295000Y34288796D01*
X30295000Y33736204D01*
X30290368Y33689172D01*
X30277363Y33646302D01*
X30256249Y33606800D01*
X30227829Y33572171D01*
X30193200Y33543751D01*
X30153698Y33522637D01*
X30110828Y33509632D01*
X30063796Y33505000D01*
X29436204Y33505000D01*
X29389172Y33509632D01*
X29346302Y33522637D01*
X29306800Y33543751D01*
X29272171Y33572171D01*
X29243751Y33606800D01*
X29222637Y33646302D01*
X29209632Y33689172D01*
X29205000Y33736204D01*
X29205000Y34288796D01*
X29209632Y34335828D01*
X29222637Y34378698D01*
X29243751Y34418200D01*
X29272171Y34452829D01*
X29306800Y34481249D01*
X29346302Y34502363D01*
X29389172Y34515368D01*
X29436204Y34520000D01*
X30063796Y34520000D01*
X30110828Y34515368D01*
X30110828Y34515368D01*
G37*
G36*
X13935717Y37799760D02*
G01*
X14137914Y37759541D01*
X14423612Y37641201D01*
X14680734Y37469398D01*
X14899398Y37250734D01*
X15071201Y36993612D01*
X15189541Y36707914D01*
X15194679Y36682084D01*
X15249870Y36404620D01*
X15249870Y36095380D01*
X15247942Y36085688D01*
X15189541Y35792086D01*
X15071201Y35506388D01*
X14899398Y35249266D01*
X14680734Y35030602D01*
X14423612Y34858799D01*
X14137914Y34740459D01*
X13935717Y34700240D01*
X13834620Y34680130D01*
X13525380Y34680130D01*
X13424283Y34700240D01*
X13222086Y34740459D01*
X12936388Y34858799D01*
X12679266Y35030602D01*
X12460602Y35249266D01*
X12288799Y35506388D01*
X12170459Y35792086D01*
X12112058Y36085688D01*
X12110130Y36095380D01*
X12110130Y36404620D01*
X12165321Y36682084D01*
X12170459Y36707914D01*
X12288799Y36993612D01*
X12460602Y37250734D01*
X12679266Y37469398D01*
X12936388Y37641201D01*
X13222086Y37759541D01*
X13424283Y37799760D01*
X13525380Y37819870D01*
X13834620Y37819870D01*
X13935717Y37799760D01*
X13935717Y37799760D01*
G37*
G36*
X10125717Y37799760D02*
G01*
X10327914Y37759541D01*
X10613612Y37641201D01*
X10870734Y37469398D01*
X11089398Y37250734D01*
X11261201Y36993612D01*
X11379541Y36707914D01*
X11384679Y36682084D01*
X11439870Y36404620D01*
X11439870Y36095380D01*
X11437942Y36085688D01*
X11379541Y35792086D01*
X11261201Y35506388D01*
X11089398Y35249266D01*
X10870734Y35030602D01*
X10613612Y34858799D01*
X10327914Y34740459D01*
X10125717Y34700240D01*
X10024620Y34680130D01*
X9715380Y34680130D01*
X9614283Y34700240D01*
X9412086Y34740459D01*
X9126388Y34858799D01*
X8869266Y35030602D01*
X8650602Y35249266D01*
X8478799Y35506388D01*
X8360459Y35792086D01*
X8302058Y36085688D01*
X8300130Y36095380D01*
X8300130Y36404620D01*
X8355321Y36682084D01*
X8360459Y36707914D01*
X8478799Y36993612D01*
X8650602Y37250734D01*
X8869266Y37469398D01*
X9126388Y37641201D01*
X9412086Y37759541D01*
X9614283Y37799760D01*
X9715380Y37819870D01*
X10024620Y37819870D01*
X10125717Y37799760D01*
X10125717Y37799760D01*
G37*
G36*
X6315717Y37799760D02*
G01*
X6517914Y37759541D01*
X6803612Y37641201D01*
X7060734Y37469398D01*
X7279398Y37250734D01*
X7451201Y36993612D01*
X7569541Y36707914D01*
X7574679Y36682084D01*
X7629870Y36404620D01*
X7629870Y36095380D01*
X7627942Y36085688D01*
X7569541Y35792086D01*
X7451201Y35506388D01*
X7279398Y35249266D01*
X7060734Y35030602D01*
X6803612Y34858799D01*
X6517914Y34740459D01*
X6315717Y34700240D01*
X6214620Y34680130D01*
X5905380Y34680130D01*
X5804283Y34700240D01*
X5602086Y34740459D01*
X5316388Y34858799D01*
X5059266Y35030602D01*
X4840602Y35249266D01*
X4668799Y35506388D01*
X4550459Y35792086D01*
X4492058Y36085688D01*
X4490130Y36095380D01*
X4490130Y36404620D01*
X4545321Y36682084D01*
X4550459Y36707914D01*
X4668799Y36993612D01*
X4840602Y37250734D01*
X5059266Y37469398D01*
X5316388Y37641201D01*
X5602086Y37759541D01*
X5804283Y37799760D01*
X5905380Y37819870D01*
X6214620Y37819870D01*
X6315717Y37799760D01*
X6315717Y37799760D01*
G37*
G36*
X3819870Y34680130D02*
G01*
X680130Y34680130D01*
X680130Y37819870D01*
X3819870Y37819870D01*
X3819870Y34680130D01*
X3819870Y34680130D01*
G37*
G36*
X23962106Y37028881D02*
G01*
X24156833Y36948222D01*
X24156835Y36948221D01*
X24245053Y36889276D01*
X24323938Y36836567D01*
X24332085Y36831123D01*
X24481123Y36682085D01*
X24566312Y36554591D01*
X24598222Y36506833D01*
X24678881Y36312106D01*
X24720000Y36105387D01*
X24720000Y35894613D01*
X24678881Y35687894D01*
X24637462Y35587900D01*
X24598221Y35493165D01*
X24566310Y35445407D01*
X24481124Y35317916D01*
X24332084Y35168876D01*
X24311317Y35155000D01*
X24156835Y35051779D01*
X24156834Y35051778D01*
X24156833Y35051778D01*
X23962106Y34971119D01*
X23755387Y34930000D01*
X23544613Y34930000D01*
X23337894Y34971119D01*
X23143167Y35051778D01*
X23143166Y35051778D01*
X23143165Y35051779D01*
X22988683Y35155000D01*
X22967916Y35168876D01*
X22818876Y35317916D01*
X22733690Y35445407D01*
X22701779Y35493165D01*
X22662538Y35587900D01*
X22621119Y35687894D01*
X22580000Y35894613D01*
X22580000Y36105387D01*
X22621119Y36312106D01*
X22701778Y36506833D01*
X22733689Y36554591D01*
X22818877Y36682085D01*
X22967915Y36831123D01*
X22976063Y36836567D01*
X23054947Y36889276D01*
X23143165Y36948221D01*
X23143167Y36948222D01*
X23337894Y37028881D01*
X23544613Y37070000D01*
X23755387Y37070000D01*
X23962106Y37028881D01*
X23962106Y37028881D01*
G37*
G36*
X17662106Y37028881D02*
G01*
X17856833Y36948222D01*
X17856835Y36948221D01*
X17945053Y36889276D01*
X18023938Y36836567D01*
X18032085Y36831123D01*
X18181123Y36682085D01*
X18266312Y36554591D01*
X18298222Y36506833D01*
X18378881Y36312106D01*
X18420000Y36105387D01*
X18420000Y35894613D01*
X18378881Y35687894D01*
X18337462Y35587900D01*
X18298221Y35493165D01*
X18266310Y35445407D01*
X18181124Y35317916D01*
X18032084Y35168876D01*
X18011317Y35155000D01*
X17856835Y35051779D01*
X17856834Y35051778D01*
X17856833Y35051778D01*
X17662106Y34971119D01*
X17455387Y34930000D01*
X17244613Y34930000D01*
X17037894Y34971119D01*
X16843167Y35051778D01*
X16843166Y35051778D01*
X16843165Y35051779D01*
X16688683Y35155000D01*
X16667916Y35168876D01*
X16518876Y35317916D01*
X16433690Y35445407D01*
X16401779Y35493165D01*
X16362538Y35587900D01*
X16321119Y35687894D01*
X16280000Y35894613D01*
X16280000Y36105387D01*
X16321119Y36312106D01*
X16401778Y36506833D01*
X16433689Y36554591D01*
X16518877Y36682085D01*
X16667915Y36831123D01*
X16676063Y36836567D01*
X16754947Y36889276D01*
X16843165Y36948221D01*
X16843167Y36948222D01*
X17037894Y37028881D01*
X17244613Y37070000D01*
X17455387Y37070000D01*
X17662106Y37028881D01*
X17662106Y37028881D01*
G37*
G36*
X30110828Y36090368D02*
G01*
X30153698Y36077363D01*
X30193200Y36056249D01*
X30227829Y36027829D01*
X30256249Y35993200D01*
X30277363Y35953698D01*
X30290368Y35910828D01*
X30295000Y35863796D01*
X30295000Y35311204D01*
X30290368Y35264172D01*
X30277363Y35221302D01*
X30256249Y35181800D01*
X30227829Y35147171D01*
X30193200Y35118751D01*
X30153698Y35097637D01*
X30110828Y35084632D01*
X30063796Y35080000D01*
X29436204Y35080000D01*
X29389172Y35084632D01*
X29346302Y35097637D01*
X29306800Y35118751D01*
X29272171Y35147171D01*
X29243751Y35181800D01*
X29222637Y35221302D01*
X29209632Y35264172D01*
X29205000Y35311204D01*
X29205000Y35863796D01*
X29209632Y35910828D01*
X29222637Y35953698D01*
X29243751Y35993200D01*
X29272171Y36027829D01*
X29306800Y36056249D01*
X29346302Y36077363D01*
X29389172Y36090368D01*
X29436204Y36095000D01*
X30063796Y36095000D01*
X30110828Y36090368D01*
X30110828Y36090368D01*
G37*
G36*
X20753770Y36836567D02*
G01*
X20912100Y36770984D01*
X21054593Y36675773D01*
X21175773Y36554593D01*
X21270984Y36412100D01*
X21336567Y36253770D01*
X21370000Y36085688D01*
X21370000Y35914312D01*
X21336567Y35746230D01*
X21270984Y35587900D01*
X21175773Y35445407D01*
X21054593Y35324227D01*
X20912100Y35229016D01*
X20753770Y35163433D01*
X20585688Y35130000D01*
X20414312Y35130000D01*
X20246230Y35163433D01*
X20087900Y35229016D01*
X19945407Y35324227D01*
X19824227Y35445407D01*
X19729016Y35587900D01*
X19663433Y35746230D01*
X19630000Y35914312D01*
X19630000Y36085688D01*
X19663433Y36253770D01*
X19729016Y36412100D01*
X19824227Y36554593D01*
X19945407Y36675773D01*
X20087900Y36770984D01*
X20246230Y36836567D01*
X20414312Y36870000D01*
X20585688Y36870000D01*
X20753770Y36836567D01*
X20753770Y36836567D01*
G37*
G36*
X34450000Y35155000D02*
G01*
X33250000Y35155000D01*
X33250000Y35945000D01*
X34450000Y35945000D01*
X34450000Y35155000D01*
X34450000Y35155000D01*
G37*
G36*
X32250000Y35155000D02*
G01*
X31050000Y35155000D01*
X31050000Y35945000D01*
X32250000Y35945000D01*
X32250000Y35155000D01*
X32250000Y35155000D01*
G37*
G36*
X35860828Y36215368D02*
G01*
X35903698Y36202363D01*
X35943200Y36181249D01*
X35977829Y36152829D01*
X36006249Y36118200D01*
X36027363Y36078698D01*
X36040368Y36035828D01*
X36045000Y35988796D01*
X36045000Y35436204D01*
X36040368Y35389172D01*
X36027363Y35346302D01*
X36006249Y35306800D01*
X35977829Y35272171D01*
X35943200Y35243751D01*
X35903698Y35222637D01*
X35860828Y35209632D01*
X35813796Y35205000D01*
X35186204Y35205000D01*
X35139172Y35209632D01*
X35096302Y35222637D01*
X35056800Y35243751D01*
X35022171Y35272171D01*
X34993751Y35306800D01*
X34972637Y35346302D01*
X34959632Y35389172D01*
X34955000Y35436204D01*
X34955000Y35988796D01*
X34959632Y36035828D01*
X34972637Y36078698D01*
X34993751Y36118200D01*
X35022171Y36152829D01*
X35056800Y36181249D01*
X35096302Y36202363D01*
X35139172Y36215368D01*
X35186204Y36220000D01*
X35813796Y36220000D01*
X35860828Y36215368D01*
X35860828Y36215368D01*
G37*
G36*
X34450000Y36105000D02*
G01*
X33250000Y36105000D01*
X33250000Y36895000D01*
X34450000Y36895000D01*
X34450000Y36105000D01*
X34450000Y36105000D01*
G37*
G36*
X35860828Y37790368D02*
G01*
X35903698Y37777363D01*
X35943200Y37756249D01*
X35977829Y37727829D01*
X36006249Y37693200D01*
X36027363Y37653698D01*
X36040368Y37610828D01*
X36045000Y37563796D01*
X36045000Y37011204D01*
X36040368Y36964172D01*
X36027363Y36921302D01*
X36006249Y36881800D01*
X35977829Y36847171D01*
X35943200Y36818751D01*
X35903698Y36797637D01*
X35860828Y36784632D01*
X35813796Y36780000D01*
X35186204Y36780000D01*
X35139172Y36784632D01*
X35096302Y36797637D01*
X35056800Y36818751D01*
X35022171Y36847171D01*
X34993751Y36881800D01*
X34972637Y36921302D01*
X34959632Y36964172D01*
X34955000Y37011204D01*
X34955000Y37563796D01*
X34959632Y37610828D01*
X34972637Y37653698D01*
X34993751Y37693200D01*
X35022171Y37727829D01*
X35056800Y37756249D01*
X35096302Y37777363D01*
X35139172Y37790368D01*
X35186204Y37795000D01*
X35813796Y37795000D01*
X35860828Y37790368D01*
X35860828Y37790368D01*
G37*
G36*
X34450000Y37055000D02*
G01*
X33250000Y37055000D01*
X33250000Y37845000D01*
X34450000Y37845000D01*
X34450000Y37055000D01*
X34450000Y37055000D01*
G37*
G36*
X32250000Y37055000D02*
G01*
X31050000Y37055000D01*
X31050000Y37845000D01*
X32250000Y37845000D01*
X32250000Y37055000D01*
X32250000Y37055000D01*
G37*
G36*
X17662106Y40528881D02*
G01*
X17856833Y40448222D01*
X17856835Y40448221D01*
X17945053Y40389276D01*
X18032084Y40331124D01*
X18181124Y40182084D01*
X18298222Y40006833D01*
X18378881Y39812106D01*
X18420000Y39605387D01*
X18420000Y39394613D01*
X18378881Y39187894D01*
X18302251Y39002894D01*
X18298221Y38993165D01*
X18181123Y38817915D01*
X18032085Y38668877D01*
X17856835Y38551779D01*
X17856834Y38551778D01*
X17856833Y38551778D01*
X17662106Y38471119D01*
X17455387Y38430000D01*
X17244613Y38430000D01*
X17037894Y38471119D01*
X16843167Y38551778D01*
X16843166Y38551778D01*
X16843165Y38551779D01*
X16667915Y38668877D01*
X16518877Y38817915D01*
X16401779Y38993165D01*
X16397749Y39002894D01*
X16321119Y39187894D01*
X16280000Y39394613D01*
X16280000Y39605387D01*
X16321119Y39812106D01*
X16401778Y40006833D01*
X16518876Y40182084D01*
X16667916Y40331124D01*
X16754947Y40389276D01*
X16843165Y40448221D01*
X16843167Y40448222D01*
X17037894Y40528881D01*
X17244613Y40570000D01*
X17455387Y40570000D01*
X17662106Y40528881D01*
X17662106Y40528881D01*
G37*
G36*
X14900945Y41708859D02*
G01*
X14986494Y41682907D01*
X15046091Y41664829D01*
X15090680Y41640996D01*
X15179856Y41593331D01*
X15297106Y41497106D01*
X15393331Y41379857D01*
X15440996Y41290681D01*
X15464829Y41246092D01*
X15482907Y41186495D01*
X15508859Y41100946D01*
X15520000Y40987824D01*
X15520000Y39512176D01*
X15508859Y39399054D01*
X15482907Y39313505D01*
X15464829Y39253908D01*
X15464828Y39253907D01*
X15393331Y39120143D01*
X15297106Y39002894D01*
X15179857Y38906669D01*
X15090681Y38859004D01*
X15046092Y38835171D01*
X14989209Y38817916D01*
X14900946Y38791141D01*
X14750000Y38776275D01*
X14599055Y38791141D01*
X14510792Y38817916D01*
X14453909Y38835171D01*
X14409320Y38859004D01*
X14320144Y38906669D01*
X14202895Y39002894D01*
X14106670Y39120143D01*
X14035173Y39253907D01*
X14035172Y39253908D01*
X14017094Y39313505D01*
X13991142Y39399054D01*
X13980001Y39512176D01*
X13980000Y40987823D01*
X13991141Y41100945D01*
X14017093Y41186494D01*
X14035171Y41246091D01*
X14076935Y41324226D01*
X14106669Y41379856D01*
X14202894Y41497106D01*
X14320143Y41593331D01*
X14409319Y41640996D01*
X14453908Y41664829D01*
X14513505Y41682907D01*
X14599054Y41708859D01*
X14750000Y41723725D01*
X14900945Y41708859D01*
X14900945Y41708859D01*
G37*
G36*
X1650945Y41708859D02*
G01*
X1736494Y41682907D01*
X1796091Y41664829D01*
X1840680Y41640996D01*
X1929856Y41593331D01*
X2047106Y41497106D01*
X2143331Y41379857D01*
X2190996Y41290681D01*
X2214829Y41246092D01*
X2232907Y41186495D01*
X2258859Y41100946D01*
X2270000Y40987824D01*
X2270000Y39512176D01*
X2258859Y39399054D01*
X2232907Y39313505D01*
X2214829Y39253908D01*
X2214828Y39253907D01*
X2143331Y39120143D01*
X2047106Y39002894D01*
X1929857Y38906669D01*
X1840681Y38859004D01*
X1796092Y38835171D01*
X1739209Y38817916D01*
X1650946Y38791141D01*
X1500000Y38776275D01*
X1349055Y38791141D01*
X1260792Y38817916D01*
X1203909Y38835171D01*
X1159320Y38859004D01*
X1070144Y38906669D01*
X952895Y39002894D01*
X856670Y39120143D01*
X785173Y39253907D01*
X785172Y39253908D01*
X767094Y39313505D01*
X741142Y39399054D01*
X730001Y39512176D01*
X730000Y40987823D01*
X741141Y41100945D01*
X767093Y41186494D01*
X785171Y41246091D01*
X826935Y41324226D01*
X856669Y41379856D01*
X952894Y41497106D01*
X1070143Y41593331D01*
X1159319Y41640996D01*
X1203908Y41664829D01*
X1263505Y41682907D01*
X1349054Y41708859D01*
X1500000Y41723725D01*
X1650945Y41708859D01*
X1650945Y41708859D01*
G37*
G36*
X20753770Y42836567D02*
G01*
X20912100Y42770984D01*
X21054593Y42675773D01*
X21175773Y42554593D01*
X21270984Y42412100D01*
X21336567Y42253770D01*
X21370000Y42085688D01*
X21370000Y41914312D01*
X21336567Y41746230D01*
X21270984Y41587900D01*
X21175773Y41445407D01*
X21054593Y41324227D01*
X20912100Y41229016D01*
X20753770Y41163433D01*
X20585688Y41130000D01*
X20414312Y41130000D01*
X20246230Y41163433D01*
X20087900Y41229016D01*
X19945407Y41324227D01*
X19824227Y41445407D01*
X19729016Y41587900D01*
X19663433Y41746230D01*
X19630000Y41914312D01*
X19630000Y42085688D01*
X19663433Y42253770D01*
X19729016Y42412100D01*
X19824227Y42554593D01*
X19945407Y42675773D01*
X20087900Y42770984D01*
X20246230Y42836567D01*
X20414312Y42870000D01*
X20585688Y42870000D01*
X20753770Y42836567D01*
X20753770Y42836567D01*
G37*
G36*
X17662106Y43728881D02*
G01*
X17856833Y43648222D01*
X17856835Y43648221D01*
X17945053Y43589276D01*
X18032084Y43531124D01*
X18181124Y43382084D01*
X18298222Y43206833D01*
X18378881Y43012106D01*
X18420000Y42805387D01*
X18420000Y42594613D01*
X18378881Y42387894D01*
X18323324Y42253769D01*
X18298221Y42193165D01*
X18181123Y42017915D01*
X18032085Y41868877D01*
X17856835Y41751779D01*
X17856834Y41751778D01*
X17856833Y41751778D01*
X17662106Y41671119D01*
X17455387Y41630000D01*
X17244613Y41630000D01*
X17037894Y41671119D01*
X16843167Y41751778D01*
X16843166Y41751778D01*
X16843165Y41751779D01*
X16667915Y41868877D01*
X16518877Y42017915D01*
X16401779Y42193165D01*
X16376676Y42253769D01*
X16321119Y42387894D01*
X16280000Y42594613D01*
X16280000Y42805387D01*
X16321119Y43012106D01*
X16401778Y43206833D01*
X16518876Y43382084D01*
X16667916Y43531124D01*
X16754947Y43589276D01*
X16843165Y43648221D01*
X16843167Y43648222D01*
X17037894Y43728881D01*
X17244613Y43770000D01*
X17455387Y43770000D01*
X17662106Y43728881D01*
X17662106Y43728881D01*
G37*
G36*
X23962106Y43728881D02*
G01*
X24156833Y43648222D01*
X24156835Y43648221D01*
X24245053Y43589276D01*
X24332084Y43531124D01*
X24481124Y43382084D01*
X24598222Y43206833D01*
X24678881Y43012106D01*
X24720000Y42805387D01*
X24720000Y42594613D01*
X24678881Y42387894D01*
X24623324Y42253769D01*
X24598221Y42193165D01*
X24481123Y42017915D01*
X24332085Y41868877D01*
X24156835Y41751779D01*
X24156834Y41751778D01*
X24156833Y41751778D01*
X23962106Y41671119D01*
X23755387Y41630000D01*
X23544613Y41630000D01*
X23337894Y41671119D01*
X23143167Y41751778D01*
X23143166Y41751778D01*
X23143165Y41751779D01*
X22967915Y41868877D01*
X22818877Y42017915D01*
X22701779Y42193165D01*
X22676676Y42253769D01*
X22621119Y42387894D01*
X22580000Y42594613D01*
X22580000Y42805387D01*
X22621119Y43012106D01*
X22701778Y43206833D01*
X22818876Y43382084D01*
X22967916Y43531124D01*
X23054947Y43589276D01*
X23143165Y43648221D01*
X23143167Y43648222D01*
X23337894Y43728881D01*
X23544613Y43770000D01*
X23755387Y43770000D01*
X23962106Y43728881D01*
X23962106Y43728881D01*
G37*
G36*
X38895843Y43980786D02*
G01*
X38895846Y43980785D01*
X38895845Y43980785D01*
X38986839Y43943094D01*
X39028063Y43915549D01*
X39068730Y43888376D01*
X39138376Y43818730D01*
X39193095Y43736837D01*
X39230786Y43645843D01*
X39250000Y43549247D01*
X39250000Y43450753D01*
X39230786Y43354157D01*
X39193095Y43263163D01*
X39155457Y43206833D01*
X39138375Y43181269D01*
X39068731Y43111625D01*
X38986839Y43056906D01*
X38986838Y43056905D01*
X38986837Y43056905D01*
X38895843Y43019214D01*
X38799247Y43000000D01*
X38700753Y43000000D01*
X38604157Y43019214D01*
X38513163Y43056905D01*
X38513162Y43056905D01*
X38513161Y43056906D01*
X38431269Y43111625D01*
X38361625Y43181269D01*
X38344544Y43206833D01*
X38306905Y43263163D01*
X38269214Y43354157D01*
X38250000Y43450753D01*
X38250000Y43549247D01*
X38269214Y43645843D01*
X38306905Y43736837D01*
X38361624Y43818730D01*
X38431270Y43888376D01*
X38471937Y43915549D01*
X38513161Y43943094D01*
X38604155Y43980785D01*
X38604154Y43980785D01*
X38604157Y43980786D01*
X38700753Y44000000D01*
X38799247Y44000000D01*
X38895843Y43980786D01*
X38895843Y43980786D01*
G37*
M02*
