M48
; DRILL file {KiCad 5.1.0} date mar. 16 avril 2019 13:05:16 CEST
; FORMAT={-:-/ absolute / metric / decimal}
; #@! TF.CreationDate,2019-04-16T13:05:16+02:00
; #@! TF.GenerationSoftware,Kicad,Pcbnew,5.1.0
FMAT,2
METRIC
T1C0.300
T2C0.900
T3C0.990
T4C1.000
T5C1.199
T6C1.200
T7C1.300
T8C1.999
T9C2.100
T10C0.900
T11C0.991
T12C1.000
T13C3.200
%
G90
G05
T1
X3.6Y56.35
X4.4Y50.8
X5.805Y55.525
X6.341Y53.472
X7.0Y50.425
X8.75Y54.5
X9.35Y55.85
X10.4Y44.1
X11.575Y54.317
X11.575Y45.927
X13.5Y17.0
X13.7Y33.7
X13.8Y22.8
X14.268Y55.432
X14.5Y48.875
X15.0Y54.5
X15.0Y52.6
X15.0Y46.6
X15.55Y22.1
X16.4Y35.0
X16.425Y38.95
X16.55Y22.1
X17.5Y48.825
X17.5Y21.75
X18.174Y47.25
X18.25Y22.25
X18.5Y39.0
X18.8Y35.9
X19.209Y22.396
X19.5Y39.0
X19.535Y35.554
X19.75Y41.0
X19.946Y55.534
X20.564Y23.186
X20.908Y18.763
X21.0Y45.7
X22.75Y35.2
X22.75Y9.25
X23.75Y40.25
X23.75Y18.8
X25.355Y18.955
X29.2Y16.1
X29.215Y23.285
X29.7Y45.3
X30.2Y34.95
X30.5Y31.0
X30.5Y8.75
X31.5Y47.9
X32.1Y44.9
X32.2Y37.5
X32.75Y41.75
X33.75Y21.25
X34.0Y40.5
X34.507Y21.764
X34.9Y36.6
X35.5Y22.75
X36.0Y7.5
X36.174Y15.25
X36.2Y52.2
X36.3Y38.7
X36.4Y18.1
X36.444Y55.0
X37.0Y46.525
X37.0Y41.4
X37.0Y4.0
X37.228Y17.972
X37.25Y19.8
X37.5Y55.0
X37.6Y36.8
X37.625Y34.681
X37.7Y51.4
X37.7Y47.7
X37.75Y29.75
X37.75Y50.0
X37.75Y46.25
X37.875Y11.0
X38.0Y5.0
X38.25Y38.5
X38.25Y9.75
X38.75Y56.5
X39.0Y6.0
X39.5Y45.25
X39.75Y1.25
X40.1Y50.0
X40.1Y47.7
X40.5Y55.75
X40.75Y2.25
X40.9Y54.8
X41.495Y35.5
X41.5Y12.75
X41.5Y11.5
X41.5Y7.0
X41.5Y5.75
X41.75Y14.75
X41.75Y3.25
X42.0Y17.5
X42.1Y54.5
X42.1Y53.0
X42.1Y51.5
X42.5Y34.0
X42.5Y30.0
X42.5Y40.65
X42.75Y12.75
X42.75Y11.5
X42.75Y7.0
X42.75Y5.75
X44.0Y31.25
X44.0Y12.75
X44.0Y5.75
X44.5Y54.5
X44.5Y51.5
X44.7Y47.975
X44.75Y49.25
X45.0Y45.7
X45.25Y12.75
X45.25Y5.75
X46.2Y44.5
X46.3Y40.6
X46.3Y38.6
X46.4Y17.3
X46.5Y49.25
X46.7Y43.9
X47.4Y54.3
X48.073Y49.079
X48.25Y6.0
X48.75Y20.5
X49.75Y6.0
X49.75Y4.5
X51.0Y47.2
X51.25Y6.0
X51.25Y4.5
X52.75Y6.0
X54.25Y12.0
X54.25Y10.5
X54.25Y9.0
X54.25Y7.5
X54.25Y6.0
X55.75Y12.0
X55.75Y10.5
X55.75Y9.0
X55.75Y7.5
X55.75Y6.0
T2
X22.5Y10.71
X25.0Y10.71
X27.0Y10.71
X29.5Y10.71
T3
X49.24Y54.75
X49.24Y48.25
X53.74Y54.75
X53.74Y48.25
T4
X48.0Y32.5
X48.0Y29.96
X48.0Y27.42
X48.0Y24.88
X35.75Y31.04
X35.75Y28.5
X35.75Y25.96
X1.75Y55.75
X1.75Y53.21
X1.75Y50.67
X1.75Y48.13
X1.75Y45.59
X1.75Y43.05
T5
X2.78Y9.25
X6.59Y9.25
X10.4Y9.25
X2.78Y12.75
X6.59Y12.75
X10.4Y12.75
T6
X17.0Y12.56
X17.0Y4.44
X35.5Y12.56
X35.5Y4.44
T7
X47.99Y52.26
X55.0Y52.26
T8
X53.5Y2.75
X10.5Y2.75
X46.0Y2.75
X3.0Y2.75
T9
X19.0Y8.0
X33.0Y8.0
T10
X11.25Y51.08
X16.25Y51.08
T11
X4.484Y47.96
X5.5Y53.04
X6.516Y47.96
T12
X26.45Y53.5
X34.43Y53.5
T13
X14.25Y42.75
X42.25Y42.75
T0
M30
