G04 #@! TF.GenerationSoftware,KiCad,Pcbnew,5.1.0*
G04 #@! TF.CreationDate,2019-04-16T13:05:14+02:00*
G04 #@! TF.ProjectId,KXKM_audio_battery_module,4b584b4d-5f61-4756-9469-6f5f62617474,2.0*
G04 #@! TF.SameCoordinates,PX623a7c0PY839b680*
G04 #@! TF.FileFunction,Legend,Bot*
G04 #@! TF.FilePolarity,Positive*
%FSLAX46Y46*%
G04 Gerber Fmt 4.6, Leading zero omitted, Abs format (unit mm)*
G04 Created by KiCad (PCBNEW 5.1.0) date 2019-04-16 13:05:14*
%MOMM*%
%LPD*%
G04 APERTURE LIST*
%ADD10C,0.200000*%
%ADD11C,0.150000*%
%ADD12C,0.250000*%
%ADD13C,0.300000*%
%ADD14C,0.120000*%
G04 APERTURE END LIST*
D10*
X12542857Y10914286D02*
X11628571Y10914286D01*
X12085714Y10457143D02*
X12085714Y11371429D01*
X8314285Y10457143D02*
X8314285Y11657143D01*
X8028571Y11657143D01*
X7857142Y11600000D01*
X7742857Y11485715D01*
X7685714Y11371429D01*
X7628571Y11142858D01*
X7628571Y10971429D01*
X7685714Y10742858D01*
X7742857Y10628572D01*
X7857142Y10514286D01*
X8028571Y10457143D01*
X8314285Y10457143D01*
X4371428Y10914286D02*
X3457142Y10914286D01*
D11*
X50273809Y297620D02*
X50273809Y1297620D01*
X49797619Y297620D02*
X49797619Y1297620D01*
X49226190Y297620D01*
X49226190Y1297620D01*
X7750000Y1297620D02*
X7559523Y1297620D01*
X7464285Y1250000D01*
X7369047Y1154762D01*
X7321428Y964286D01*
X7321428Y630953D01*
X7369047Y440477D01*
X7464285Y345239D01*
X7559523Y297620D01*
X7750000Y297620D01*
X7845238Y345239D01*
X7940476Y440477D01*
X7988095Y630953D01*
X7988095Y964286D01*
X7940476Y1154762D01*
X7845238Y1250000D01*
X7750000Y1297620D01*
X6892857Y1297620D02*
X6892857Y488096D01*
X6845238Y392858D01*
X6797619Y345239D01*
X6702380Y297620D01*
X6511904Y297620D01*
X6416666Y345239D01*
X6369047Y392858D01*
X6321428Y488096D01*
X6321428Y1297620D01*
X5988095Y1297620D02*
X5416666Y1297620D01*
X5702380Y297620D02*
X5702380Y1297620D01*
X614285Y12097620D02*
X1185714Y12097620D01*
X900000Y12097620D02*
X900000Y13097620D01*
X995238Y12954762D01*
X1090476Y12859524D01*
X1185714Y12811905D01*
X1185714Y9702381D02*
X1138095Y9750000D01*
X1042857Y9797620D01*
X804761Y9797620D01*
X709523Y9750000D01*
X661904Y9702381D01*
X614285Y9607143D01*
X614285Y9511905D01*
X661904Y9369048D01*
X1233333Y8797620D01*
X614285Y8797620D01*
D10*
X13250000Y43250000D02*
X13250000Y38750000D01*
X0Y43250000D02*
X13250000Y43250000D01*
X13250000Y14750000D02*
X13250000Y38750000D01*
X0Y14750000D02*
X13250000Y14750000D01*
X27047619Y16726191D02*
X27047619Y17297620D01*
X26047619Y17011905D02*
X27047619Y17011905D01*
X26142857Y17630953D02*
X26095238Y17678572D01*
X26047619Y17630953D01*
X26095238Y17583334D01*
X26142857Y17630953D01*
X26047619Y17630953D01*
X26047619Y18869048D02*
X27047619Y18869048D01*
X26333333Y19202381D01*
X27047619Y19535715D01*
X26047619Y19535715D01*
X26047619Y20440477D02*
X26571428Y20440477D01*
X26666666Y20392858D01*
X26714285Y20297620D01*
X26714285Y20107143D01*
X26666666Y20011905D01*
X26095238Y20440477D02*
X26047619Y20345239D01*
X26047619Y20107143D01*
X26095238Y20011905D01*
X26190476Y19964286D01*
X26285714Y19964286D01*
X26380952Y20011905D01*
X26428571Y20107143D01*
X26428571Y20345239D01*
X26476190Y20440477D01*
X26714285Y21345239D02*
X25904761Y21345239D01*
X25809523Y21297620D01*
X25761904Y21250000D01*
X25714285Y21154762D01*
X25714285Y21011905D01*
X25761904Y20916667D01*
X26095238Y21345239D02*
X26047619Y21250000D01*
X26047619Y21059524D01*
X26095238Y20964286D01*
X26142857Y20916667D01*
X26238095Y20869048D01*
X26523809Y20869048D01*
X26619047Y20916667D01*
X26666666Y20964286D01*
X26714285Y21059524D01*
X26714285Y21250000D01*
X26666666Y21345239D01*
X26714285Y21821429D02*
X26047619Y21821429D01*
X26619047Y21821429D02*
X26666666Y21869048D01*
X26714285Y21964286D01*
X26714285Y22107143D01*
X26666666Y22202381D01*
X26571428Y22250000D01*
X26047619Y22250000D01*
X26047619Y22726191D02*
X26714285Y22726191D01*
X27047619Y22726191D02*
X27000000Y22678572D01*
X26952380Y22726191D01*
X27000000Y22773810D01*
X27047619Y22726191D01*
X26952380Y22726191D01*
X26095238Y23583334D02*
X26047619Y23488096D01*
X26047619Y23297620D01*
X26095238Y23202381D01*
X26190476Y23154762D01*
X26571428Y23154762D01*
X26666666Y23202381D01*
X26714285Y23297620D01*
X26714285Y23488096D01*
X26666666Y23583334D01*
X26571428Y23630953D01*
X26476190Y23630953D01*
X26380952Y23154762D01*
X26047619Y24059524D02*
X26714285Y24059524D01*
X26523809Y24059524D02*
X26619047Y24107143D01*
X26666666Y24154762D01*
X26714285Y24250000D01*
X26714285Y24345239D01*
X26428571Y25440477D02*
X26428571Y26202381D01*
X26714285Y27345239D02*
X26047619Y27583334D01*
X26714285Y27821429D01*
X26952380Y28154762D02*
X27000000Y28202381D01*
X27047619Y28297620D01*
X27047619Y28535715D01*
X27000000Y28630953D01*
X26952380Y28678572D01*
X26857142Y28726191D01*
X26761904Y28726191D01*
X26619047Y28678572D01*
X26047619Y28107143D01*
X26047619Y28726191D01*
X26142857Y29154762D02*
X26095238Y29202381D01*
X26047619Y29154762D01*
X26095238Y29107143D01*
X26142857Y29154762D01*
X26047619Y29154762D01*
X27047619Y29821429D02*
X27047619Y29916667D01*
X27000000Y30011905D01*
X26952380Y30059524D01*
X26857142Y30107143D01*
X26666666Y30154762D01*
X26428571Y30154762D01*
X26238095Y30107143D01*
X26142857Y30059524D01*
X26095238Y30011905D01*
X26047619Y29916667D01*
X26047619Y29821429D01*
X26095238Y29726191D01*
X26142857Y29678572D01*
X26238095Y29630953D01*
X26428571Y29583334D01*
X26666666Y29583334D01*
X26857142Y29630953D01*
X26952380Y29678572D01*
X27000000Y29726191D01*
X27047619Y29821429D01*
X26428571Y31345239D02*
X26428571Y32107143D01*
X27047619Y33535715D02*
X27047619Y33630953D01*
X27000000Y33726191D01*
X26952380Y33773810D01*
X26857142Y33821429D01*
X26666666Y33869048D01*
X26428571Y33869048D01*
X26238095Y33821429D01*
X26142857Y33773810D01*
X26095238Y33726191D01*
X26047619Y33630953D01*
X26047619Y33535715D01*
X26095238Y33440477D01*
X26142857Y33392858D01*
X26238095Y33345239D01*
X26428571Y33297620D01*
X26666666Y33297620D01*
X26857142Y33345239D01*
X26952380Y33392858D01*
X27000000Y33440477D01*
X27047619Y33535715D01*
X26714285Y34726191D02*
X26047619Y34726191D01*
X27095238Y34488096D02*
X26380952Y34250000D01*
X26380952Y34869048D01*
X27095238Y35964286D02*
X25809523Y35107143D01*
X26952380Y36250000D02*
X27000000Y36297620D01*
X27047619Y36392858D01*
X27047619Y36630953D01*
X27000000Y36726191D01*
X26952380Y36773810D01*
X26857142Y36821429D01*
X26761904Y36821429D01*
X26619047Y36773810D01*
X26047619Y36202381D01*
X26047619Y36821429D01*
X27047619Y37440477D02*
X27047619Y37535715D01*
X27000000Y37630953D01*
X26952380Y37678572D01*
X26857142Y37726191D01*
X26666666Y37773810D01*
X26428571Y37773810D01*
X26238095Y37726191D01*
X26142857Y37678572D01*
X26095238Y37630953D01*
X26047619Y37535715D01*
X26047619Y37440477D01*
X26095238Y37345239D01*
X26142857Y37297620D01*
X26238095Y37250000D01*
X26428571Y37202381D01*
X26666666Y37202381D01*
X26857142Y37250000D01*
X26952380Y37297620D01*
X27000000Y37345239D01*
X27047619Y37440477D01*
X26047619Y38726191D02*
X26047619Y38154762D01*
X26047619Y38440477D02*
X27047619Y38440477D01*
X26904761Y38345239D01*
X26809523Y38250000D01*
X26761904Y38154762D01*
X26047619Y39202381D02*
X26047619Y39392858D01*
X26095238Y39488096D01*
X26142857Y39535715D01*
X26285714Y39630953D01*
X26476190Y39678572D01*
X26857142Y39678572D01*
X26952380Y39630953D01*
X27000000Y39583334D01*
X27047619Y39488096D01*
X27047619Y39297620D01*
X27000000Y39202381D01*
X26952380Y39154762D01*
X26857142Y39107143D01*
X26619047Y39107143D01*
X26523809Y39154762D01*
X26476190Y39202381D01*
X26428571Y39297620D01*
X26428571Y39488096D01*
X26476190Y39583334D01*
X26523809Y39630953D01*
X26619047Y39678572D01*
D12*
X29982142Y26078572D02*
X31182142Y26078572D01*
X29982142Y26764286D02*
X30667857Y26250000D01*
X31182142Y26764286D02*
X30496428Y26078572D01*
X31182142Y27164286D02*
X29982142Y27964286D01*
X31182142Y27964286D02*
X29982142Y27164286D01*
X29982142Y28421429D02*
X31182142Y28421429D01*
X29982142Y29107143D02*
X30667857Y28592858D01*
X31182142Y29107143D02*
X30496428Y28421429D01*
X29982142Y29621429D02*
X31182142Y29621429D01*
X30325000Y30021429D01*
X31182142Y30421429D01*
X29982142Y30421429D01*
X28560714Y12964286D02*
X28560714Y13364286D01*
X27932142Y13535715D02*
X27932142Y12964286D01*
X29132142Y12964286D01*
X29132142Y13535715D01*
X27989285Y13992858D02*
X27932142Y14164286D01*
X27932142Y14450000D01*
X27989285Y14564286D01*
X28046428Y14621429D01*
X28160714Y14678572D01*
X28275000Y14678572D01*
X28389285Y14621429D01*
X28446428Y14564286D01*
X28503571Y14450000D01*
X28560714Y14221429D01*
X28617857Y14107143D01*
X28675000Y14050000D01*
X28789285Y13992858D01*
X28903571Y13992858D01*
X29017857Y14050000D01*
X29075000Y14107143D01*
X29132142Y14221429D01*
X29132142Y14507143D01*
X29075000Y14678572D01*
X27932142Y15192858D02*
X29132142Y15192858D01*
X29132142Y15650000D01*
X29075000Y15764286D01*
X29017857Y15821429D01*
X28903571Y15878572D01*
X28732142Y15878572D01*
X28617857Y15821429D01*
X28560714Y15764286D01*
X28503571Y15650000D01*
X28503571Y15192858D01*
X29132142Y16278572D02*
X29132142Y17021429D01*
X28675000Y16621429D01*
X28675000Y16792858D01*
X28617857Y16907143D01*
X28560714Y16964286D01*
X28446428Y17021429D01*
X28160714Y17021429D01*
X28046428Y16964286D01*
X27989285Y16907143D01*
X27932142Y16792858D01*
X27932142Y16450000D01*
X27989285Y16335715D01*
X28046428Y16278572D01*
X29017857Y17478572D02*
X29075000Y17535715D01*
X29132142Y17650000D01*
X29132142Y17935715D01*
X29075000Y18050000D01*
X29017857Y18107143D01*
X28903571Y18164286D01*
X28789285Y18164286D01*
X28617857Y18107143D01*
X27932142Y17421429D01*
X27932142Y18164286D01*
X27932142Y19592858D02*
X29132142Y19592858D01*
X28675000Y19592858D02*
X28732142Y19707143D01*
X28732142Y19935715D01*
X28675000Y20050000D01*
X28617857Y20107143D01*
X28503571Y20164286D01*
X28160714Y20164286D01*
X28046428Y20107143D01*
X27989285Y20050000D01*
X27932142Y19935715D01*
X27932142Y19707143D01*
X27989285Y19592858D01*
X27932142Y21192858D02*
X28560714Y21192858D01*
X28675000Y21135715D01*
X28732142Y21021429D01*
X28732142Y20792858D01*
X28675000Y20678572D01*
X27989285Y21192858D02*
X27932142Y21078572D01*
X27932142Y20792858D01*
X27989285Y20678572D01*
X28103571Y20621429D01*
X28217857Y20621429D01*
X28332142Y20678572D01*
X28389285Y20792858D01*
X28389285Y21078572D01*
X28446428Y21192858D01*
X28732142Y21592858D02*
X28732142Y22050000D01*
X29132142Y21764286D02*
X28103571Y21764286D01*
X27989285Y21821429D01*
X27932142Y21935715D01*
X27932142Y22050000D01*
X28732142Y22278572D02*
X28732142Y22735715D01*
X29132142Y22450000D02*
X28103571Y22450000D01*
X27989285Y22507143D01*
X27932142Y22621429D01*
X27932142Y22735715D01*
X27989285Y23592858D02*
X27932142Y23478572D01*
X27932142Y23250000D01*
X27989285Y23135715D01*
X28103571Y23078572D01*
X28560714Y23078572D01*
X28675000Y23135715D01*
X28732142Y23250000D01*
X28732142Y23478572D01*
X28675000Y23592858D01*
X28560714Y23650000D01*
X28446428Y23650000D01*
X28332142Y23078572D01*
X27932142Y24164286D02*
X28732142Y24164286D01*
X28503571Y24164286D02*
X28617857Y24221429D01*
X28675000Y24278572D01*
X28732142Y24392858D01*
X28732142Y24507143D01*
X28732142Y24792858D02*
X27932142Y25078572D01*
X28732142Y25364286D02*
X27932142Y25078572D01*
X27646428Y24964286D01*
X27589285Y24907143D01*
X27532142Y24792858D01*
X27932142Y26735715D02*
X28732142Y26735715D01*
X28617857Y26735715D02*
X28675000Y26792858D01*
X28732142Y26907143D01*
X28732142Y27078572D01*
X28675000Y27192858D01*
X28560714Y27250000D01*
X27932142Y27250000D01*
X28560714Y27250000D02*
X28675000Y27307143D01*
X28732142Y27421429D01*
X28732142Y27592858D01*
X28675000Y27707143D01*
X28560714Y27764286D01*
X27932142Y27764286D01*
X27932142Y28850000D02*
X28560714Y28850000D01*
X28675000Y28792858D01*
X28732142Y28678572D01*
X28732142Y28450000D01*
X28675000Y28335715D01*
X27989285Y28850000D02*
X27932142Y28735715D01*
X27932142Y28450000D01*
X27989285Y28335715D01*
X28103571Y28278572D01*
X28217857Y28278572D01*
X28332142Y28335715D01*
X28389285Y28450000D01*
X28389285Y28735715D01*
X28446428Y28850000D01*
X28732142Y29421429D02*
X27932142Y29421429D01*
X28617857Y29421429D02*
X28675000Y29478572D01*
X28732142Y29592858D01*
X28732142Y29764286D01*
X28675000Y29878572D01*
X28560714Y29935715D01*
X27932142Y29935715D01*
X27932142Y31021429D02*
X28560714Y31021429D01*
X28675000Y30964286D01*
X28732142Y30850000D01*
X28732142Y30621429D01*
X28675000Y30507143D01*
X27989285Y31021429D02*
X27932142Y30907143D01*
X27932142Y30621429D01*
X27989285Y30507143D01*
X28103571Y30450000D01*
X28217857Y30450000D01*
X28332142Y30507143D01*
X28389285Y30621429D01*
X28389285Y30907143D01*
X28446428Y31021429D01*
X28732142Y32107143D02*
X27760714Y32107143D01*
X27646428Y32050000D01*
X27589285Y31992858D01*
X27532142Y31878572D01*
X27532142Y31707143D01*
X27589285Y31592858D01*
X27989285Y32107143D02*
X27932142Y31992858D01*
X27932142Y31764286D01*
X27989285Y31650000D01*
X28046428Y31592858D01*
X28160714Y31535715D01*
X28503571Y31535715D01*
X28617857Y31592858D01*
X28675000Y31650000D01*
X28732142Y31764286D01*
X28732142Y31992858D01*
X28675000Y32107143D01*
X27989285Y33135715D02*
X27932142Y33021429D01*
X27932142Y32792858D01*
X27989285Y32678572D01*
X28103571Y32621429D01*
X28560714Y32621429D01*
X28675000Y32678572D01*
X28732142Y32792858D01*
X28732142Y33021429D01*
X28675000Y33135715D01*
X28560714Y33192858D01*
X28446428Y33192858D01*
X28332142Y32621429D01*
X27932142Y33707143D02*
X28732142Y33707143D01*
X28617857Y33707143D02*
X28675000Y33764286D01*
X28732142Y33878572D01*
X28732142Y34050000D01*
X28675000Y34164286D01*
X28560714Y34221429D01*
X27932142Y34221429D01*
X28560714Y34221429D02*
X28675000Y34278572D01*
X28732142Y34392858D01*
X28732142Y34564286D01*
X28675000Y34678572D01*
X28560714Y34735715D01*
X27932142Y34735715D01*
X27989285Y35764286D02*
X27932142Y35650000D01*
X27932142Y35421429D01*
X27989285Y35307143D01*
X28103571Y35250000D01*
X28560714Y35250000D01*
X28675000Y35307143D01*
X28732142Y35421429D01*
X28732142Y35650000D01*
X28675000Y35764286D01*
X28560714Y35821429D01*
X28446428Y35821429D01*
X28332142Y35250000D01*
X28732142Y36335715D02*
X27932142Y36335715D01*
X28617857Y36335715D02*
X28675000Y36392858D01*
X28732142Y36507143D01*
X28732142Y36678572D01*
X28675000Y36792858D01*
X28560714Y36850000D01*
X27932142Y36850000D01*
X28732142Y37250000D02*
X28732142Y37707143D01*
X29132142Y37421429D02*
X28103571Y37421429D01*
X27989285Y37478572D01*
X27932142Y37592858D01*
X27932142Y37707143D01*
X27932142Y39021429D02*
X29132142Y39021429D01*
X28675000Y39021429D02*
X28732142Y39135715D01*
X28732142Y39364286D01*
X28675000Y39478572D01*
X28617857Y39535715D01*
X28503571Y39592858D01*
X28160714Y39592858D01*
X28046428Y39535715D01*
X27989285Y39478572D01*
X27932142Y39364286D01*
X27932142Y39135715D01*
X27989285Y39021429D01*
X27932142Y40278572D02*
X27989285Y40164286D01*
X28046428Y40107143D01*
X28160714Y40050000D01*
X28503571Y40050000D01*
X28617857Y40107143D01*
X28675000Y40164286D01*
X28732142Y40278572D01*
X28732142Y40450000D01*
X28675000Y40564286D01*
X28617857Y40621429D01*
X28503571Y40678572D01*
X28160714Y40678572D01*
X28046428Y40621429D01*
X27989285Y40564286D01*
X27932142Y40450000D01*
X27932142Y40278572D01*
X27932142Y41707143D02*
X28560714Y41707143D01*
X28675000Y41650000D01*
X28732142Y41535715D01*
X28732142Y41307143D01*
X28675000Y41192858D01*
X27989285Y41707143D02*
X27932142Y41592858D01*
X27932142Y41307143D01*
X27989285Y41192858D01*
X28103571Y41135715D01*
X28217857Y41135715D01*
X28332142Y41192858D01*
X28389285Y41307143D01*
X28389285Y41592858D01*
X28446428Y41707143D01*
X27932142Y42278572D02*
X28732142Y42278572D01*
X28503571Y42278572D02*
X28617857Y42335715D01*
X28675000Y42392858D01*
X28732142Y42507143D01*
X28732142Y42621429D01*
X27932142Y43535715D02*
X29132142Y43535715D01*
X27989285Y43535715D02*
X27932142Y43421429D01*
X27932142Y43192858D01*
X27989285Y43078572D01*
X28046428Y43021429D01*
X28160714Y42964286D01*
X28503571Y42964286D01*
X28617857Y43021429D01*
X28675000Y43078572D01*
X28732142Y43192858D01*
X28732142Y43421429D01*
X28675000Y43535715D01*
D13*
X48571428Y5392858D02*
X47428571Y5392858D01*
X56071428Y5392858D02*
X54928571Y5392858D01*
X55500000Y4821429D02*
X55500000Y5964286D01*
X5571428Y5392858D02*
X4428571Y5392858D01*
X13071428Y5392858D02*
X11928571Y5392858D01*
X12500000Y4821429D02*
X12500000Y5964286D01*
D11*
X3138095Y42357143D02*
X3938095Y42357143D01*
X3938095Y42535715D01*
X3900000Y42642858D01*
X3823809Y42714286D01*
X3747619Y42750000D01*
X3595238Y42785715D01*
X3480952Y42785715D01*
X3328571Y42750000D01*
X3252380Y42714286D01*
X3176190Y42642858D01*
X3138095Y42535715D01*
X3138095Y42357143D01*
X3938095Y43000000D02*
X3938095Y43428572D01*
X3138095Y43214286D02*
X3938095Y43214286D01*
X3138095Y44107143D02*
X3519047Y43857143D01*
X3138095Y43678572D02*
X3938095Y43678572D01*
X3938095Y43964286D01*
X3900000Y44035715D01*
X3861904Y44071429D01*
X3785714Y44107143D01*
X3671428Y44107143D01*
X3595238Y44071429D01*
X3557142Y44035715D01*
X3519047Y43964286D01*
X3519047Y43678572D01*
X3138095Y45428572D02*
X3519047Y45178572D01*
X3138095Y45000000D02*
X3938095Y45000000D01*
X3938095Y45285715D01*
X3900000Y45357143D01*
X3861904Y45392858D01*
X3785714Y45428572D01*
X3671428Y45428572D01*
X3595238Y45392858D01*
X3557142Y45357143D01*
X3519047Y45285715D01*
X3519047Y45000000D01*
X3938095Y45678572D02*
X3138095Y46178572D01*
X3938095Y46178572D02*
X3138095Y45678572D01*
X3938095Y47500000D02*
X3938095Y47928572D01*
X3138095Y47714286D02*
X3938095Y47714286D01*
X3938095Y48107143D02*
X3138095Y48607143D01*
X3938095Y48607143D02*
X3138095Y48107143D01*
X3938095Y49392858D02*
X3938095Y49857143D01*
X3633333Y49607143D01*
X3633333Y49714286D01*
X3595238Y49785715D01*
X3557142Y49821429D01*
X3480952Y49857143D01*
X3290476Y49857143D01*
X3214285Y49821429D01*
X3176190Y49785715D01*
X3138095Y49714286D01*
X3138095Y49500000D01*
X3176190Y49428572D01*
X3214285Y49392858D01*
X3938095Y50071429D02*
X3138095Y50321429D01*
X3938095Y50571429D01*
X3938095Y50750000D02*
X3938095Y51214286D01*
X3633333Y50964286D01*
X3633333Y51071429D01*
X3595238Y51142858D01*
X3557142Y51178572D01*
X3480952Y51214286D01*
X3290476Y51214286D01*
X3214285Y51178572D01*
X3176190Y51142858D01*
X3138095Y51071429D01*
X3138095Y50857143D01*
X3176190Y50785715D01*
X3214285Y50750000D01*
X3138095Y52535715D02*
X3519047Y52285715D01*
X3138095Y52107143D02*
X3938095Y52107143D01*
X3938095Y52392858D01*
X3900000Y52464286D01*
X3861904Y52500000D01*
X3785714Y52535715D01*
X3671428Y52535715D01*
X3595238Y52500000D01*
X3557142Y52464286D01*
X3519047Y52392858D01*
X3519047Y52107143D01*
X3938095Y52750000D02*
X3938095Y53178572D01*
X3138095Y52964286D02*
X3938095Y52964286D01*
X3176190Y53392858D02*
X3138095Y53500000D01*
X3138095Y53678572D01*
X3176190Y53750000D01*
X3214285Y53785715D01*
X3290476Y53821429D01*
X3366666Y53821429D01*
X3442857Y53785715D01*
X3480952Y53750000D01*
X3519047Y53678572D01*
X3557142Y53535715D01*
X3595238Y53464286D01*
X3633333Y53428572D01*
X3709523Y53392858D01*
X3785714Y53392858D01*
X3861904Y53428572D01*
X3900000Y53464286D01*
X3938095Y53535715D01*
X3938095Y53714286D01*
X3900000Y53821429D01*
X3900000Y55107143D02*
X3938095Y55035715D01*
X3938095Y54928572D01*
X3900000Y54821429D01*
X3823809Y54750000D01*
X3747619Y54714286D01*
X3595238Y54678572D01*
X3480952Y54678572D01*
X3328571Y54714286D01*
X3252380Y54750000D01*
X3176190Y54821429D01*
X3138095Y54928572D01*
X3138095Y55000000D01*
X3176190Y55107143D01*
X3214285Y55142858D01*
X3480952Y55142858D01*
X3480952Y55000000D01*
X3138095Y55464286D02*
X3938095Y55464286D01*
X3138095Y55892858D01*
X3938095Y55892858D01*
X3138095Y56250000D02*
X3938095Y56250000D01*
X3938095Y56428572D01*
X3900000Y56535715D01*
X3823809Y56607143D01*
X3747619Y56642858D01*
X3595238Y56678572D01*
X3480952Y56678572D01*
X3328571Y56642858D01*
X3252380Y56607143D01*
X3176190Y56535715D01*
X3138095Y56428572D01*
X3138095Y56250000D01*
D14*
X25837221Y9260000D02*
X26162779Y9260000D01*
X25837221Y8240000D02*
X26162779Y8240000D01*
X40010000Y9830000D02*
X38550000Y9830000D01*
X40010000Y6670000D02*
X37850000Y6670000D01*
X40010000Y6670000D02*
X40010000Y7600000D01*
X40010000Y9830000D02*
X40010000Y8900000D01*
X23162779Y8240000D02*
X22837221Y8240000D01*
X23162779Y9260000D02*
X22837221Y9260000D01*
X22837221Y7760000D02*
X23162779Y7760000D01*
X22837221Y6740000D02*
X23162779Y6740000D01*
X28837221Y9260000D02*
X29162779Y9260000D01*
X28837221Y8240000D02*
X29162779Y8240000D01*
X29162779Y6740000D02*
X28837221Y6740000D01*
X29162779Y7760000D02*
X28837221Y7760000D01*
X24330000Y15740000D02*
X23400000Y15740000D01*
X21170000Y15740000D02*
X22100000Y15740000D01*
X21170000Y15740000D02*
X21170000Y17900000D01*
X24330000Y15740000D02*
X24330000Y17200000D01*
X20080000Y15740000D02*
X19150000Y15740000D01*
X16920000Y15740000D02*
X17850000Y15740000D01*
X16920000Y15740000D02*
X16920000Y17900000D01*
X20080000Y15740000D02*
X20080000Y17200000D01*
X47150000Y42400000D02*
X47150000Y43600000D01*
X49000000Y42400000D02*
X47150000Y42400000D01*
X49000000Y43600000D02*
X47150000Y43600000D01*
X36290000Y53508578D02*
X36290000Y52991422D01*
X37710000Y53508578D02*
X37710000Y52991422D01*
X46280000Y12230000D02*
X45180000Y12230000D01*
X46280000Y12700000D02*
X46280000Y12230000D01*
X47780000Y12700000D02*
X46280000Y12700000D01*
X46280000Y6270000D02*
X43450000Y6270000D01*
X46280000Y5800000D02*
X46280000Y6270000D01*
X47780000Y5800000D02*
X46280000Y5800000D01*
X44087221Y45990000D02*
X44412779Y45990000D01*
X44087221Y47010000D02*
X44412779Y47010000D01*
X47412779Y47010000D02*
X47087221Y47010000D01*
X47412779Y45990000D02*
X47087221Y45990000D01*
X50010000Y45912779D02*
X50010000Y45587221D01*
X48990000Y45912779D02*
X48990000Y45587221D01*
X50490000Y45587221D02*
X50490000Y45912779D01*
X51510000Y45587221D02*
X51510000Y45912779D01*
X25000000Y46020000D02*
X25660000Y46020000D01*
X23340000Y46020000D02*
X24000000Y46020000D01*
X23340000Y46020000D02*
X23340000Y48050000D01*
X25660000Y47430000D02*
X25660000Y46020000D01*
X16662779Y53990000D02*
X16337221Y53990000D01*
X16662779Y55010000D02*
X16337221Y55010000D01*
X19662779Y55010000D02*
X19337221Y55010000D01*
X19662779Y53990000D02*
X19337221Y53990000D01*
X18837221Y20490000D02*
X19162779Y20490000D01*
X18837221Y21510000D02*
X19162779Y21510000D01*
X6390000Y52362779D02*
X6390000Y52037221D01*
X7410000Y52362779D02*
X7410000Y52037221D01*
X16962779Y55690000D02*
X16637221Y55690000D01*
X16962779Y56710000D02*
X16637221Y56710000D01*
X13962779Y56710000D02*
X13637221Y56710000D01*
X13962779Y55690000D02*
X13637221Y55690000D01*
X6899721Y56710000D02*
X7225279Y56710000D01*
X6899721Y55690000D02*
X7225279Y55690000D01*
X10637221Y55690000D02*
X10962779Y55690000D01*
X10637221Y56710000D02*
X10962779Y56710000D01*
X40750000Y12100000D02*
X40750000Y10400000D01*
X40750000Y10400000D02*
X38200000Y10400000D01*
X40750000Y12100000D02*
X38200000Y12100000D01*
X22910000Y47430000D02*
X22910000Y46020000D01*
X20590000Y46020000D02*
X20590000Y48050000D01*
X20590000Y46020000D02*
X21250000Y46020000D01*
X22250000Y46020000D02*
X22910000Y46020000D01*
X22662779Y19240000D02*
X22337221Y19240000D01*
X22662779Y20260000D02*
X22337221Y20260000D01*
X7662779Y45260000D02*
X7337221Y45260000D01*
X7662779Y44240000D02*
X7337221Y44240000D01*
X22662779Y20740000D02*
X22337221Y20740000D01*
X22662779Y21760000D02*
X22337221Y21760000D01*
X24912779Y49760000D02*
X24587221Y49760000D01*
X24912779Y48740000D02*
X24587221Y48740000D01*
X21337221Y49760000D02*
X21662779Y49760000D01*
X21337221Y48740000D02*
X21662779Y48740000D01*
X37990000Y17162779D02*
X37990000Y16837221D01*
X39010000Y17162779D02*
X39010000Y16837221D01*
X22874721Y14510000D02*
X23200279Y14510000D01*
X22874721Y13490000D02*
X23200279Y13490000D01*
X19837221Y13490000D02*
X20162779Y13490000D01*
X19837221Y14510000D02*
X20162779Y14510000D01*
X26010000Y16587221D02*
X26010000Y16912779D01*
X24990000Y16587221D02*
X24990000Y16912779D01*
X15837221Y18990000D02*
X16162779Y18990000D01*
X15837221Y20010000D02*
X16162779Y20010000D01*
X19240000Y42337221D02*
X19240000Y42662779D01*
X20260000Y42337221D02*
X20260000Y42662779D01*
X37260000Y8087221D02*
X37260000Y8412779D01*
X36240000Y8087221D02*
X36240000Y8412779D01*
X44900000Y54650000D02*
X44900000Y51350000D01*
X44900000Y51350000D02*
X39500000Y51350000D01*
X44900000Y54650000D02*
X39500000Y54650000D01*
X44550000Y54900000D02*
X46400000Y54900000D01*
X44550000Y56100000D02*
X46400000Y56100000D01*
X46400000Y56100000D02*
X46400000Y54900000D01*
X47150000Y40900000D02*
X47150000Y42100000D01*
X49000000Y40900000D02*
X47150000Y40900000D01*
X49000000Y42100000D02*
X47150000Y42100000D01*
X16125279Y20490000D02*
X15799721Y20490000D01*
X16125279Y21510000D02*
X15799721Y21510000D01*
X37990000Y30662779D02*
X37990000Y30337221D01*
X39010000Y30662779D02*
X39010000Y30337221D01*
X45240000Y52587221D02*
X45240000Y52912779D01*
X46260000Y52587221D02*
X46260000Y52912779D01*
X16337221Y48010000D02*
X16662779Y48010000D01*
X16337221Y46990000D02*
X16662779Y46990000D01*
X10412779Y55010000D02*
X10087221Y55010000D01*
X10412779Y53990000D02*
X10087221Y53990000D01*
X10337221Y45260000D02*
X10662779Y45260000D01*
X10337221Y44240000D02*
X10662779Y44240000D01*
X7087221Y53990000D02*
X7412779Y53990000D01*
X7087221Y55010000D02*
X7412779Y55010000D01*
X37991422Y56460000D02*
X38508578Y56460000D01*
X37991422Y55040000D02*
X38508578Y55040000D01*
X40952064Y50910000D02*
X39747936Y50910000D01*
X40952064Y49090000D02*
X39747936Y49090000D01*
X40952064Y46590000D02*
X39747936Y46590000D01*
X40952064Y48410000D02*
X39747936Y48410000D01*
X52500000Y53350000D02*
X52500000Y51650000D01*
X52500000Y51650000D02*
X49950000Y51650000D01*
X52500000Y53350000D02*
X49950000Y53350000D01*
D11*
X38425000Y37825000D02*
X38475000Y37825000D01*
X38425000Y33675000D02*
X38570000Y33675000D01*
X43575000Y33675000D02*
X43430000Y33675000D01*
X43575000Y37825000D02*
X43430000Y37825000D01*
X38425000Y37825000D02*
X38425000Y33675000D01*
X43575000Y37825000D02*
X43575000Y33675000D01*
X38475000Y37825000D02*
X38475000Y39225000D01*
X14700000Y51975000D02*
X14700000Y47525000D01*
X7800000Y53500000D02*
X7800000Y47525000D01*
D14*
X45550000Y47740000D02*
X43750000Y47740000D01*
X43750000Y50960000D02*
X46200000Y50960000D01*
X50837221Y50240000D02*
X51162779Y50240000D01*
X50837221Y51260000D02*
X51162779Y51260000D01*
X46760000Y42362779D02*
X46760000Y42037221D01*
X45740000Y42362779D02*
X45740000Y42037221D01*
X39010000Y27087221D02*
X39010000Y27412779D01*
X37990000Y27087221D02*
X37990000Y27412779D01*
X37990000Y14162779D02*
X37990000Y13837221D01*
X39010000Y14162779D02*
X39010000Y13837221D01*
X37912779Y44010000D02*
X37587221Y44010000D01*
X37912779Y42990000D02*
X37587221Y42990000D01*
X37587221Y44490000D02*
X37912779Y44490000D01*
X37587221Y45510000D02*
X37912779Y45510000D01*
X49650000Y13100000D02*
X46350000Y13100000D01*
X46350000Y13100000D02*
X46350000Y18500000D01*
X49650000Y13100000D02*
X49650000Y18500000D01*
X51613748Y13540000D02*
X54386252Y13540000D01*
X51613748Y16960000D02*
X54386252Y16960000D01*
M02*
