G04 #@! TF.FileFunction,Legend,Bot*
%FSLAX46Y46*%
G04 Gerber Fmt 4.6, Leading zero omitted, Abs format (unit mm)*
G04 Created by KiCad (PCBNEW 4.0.7) date Fri Mar 30 11:17:55 2018*
%MOMM*%
%LPD*%
G01*
G04 APERTURE LIST*
%ADD10C,0.100000*%
%ADD11C,0.200000*%
%ADD12C,0.250000*%
%ADD13C,0.150000*%
%ADD14C,0.300000*%
%ADD15C,0.304800*%
%ADD16C,0.508000*%
%ADD17C,0.120000*%
%ADD18C,0.254000*%
G04 APERTURE END LIST*
D10*
D11*
X29559524Y41602381D02*
X30130953Y41602381D01*
X29845238Y42602381D02*
X29845238Y41602381D01*
X30607143Y42602381D02*
X30511905Y42554762D01*
X30464286Y42507143D01*
X30416667Y42411905D01*
X30416667Y42126190D01*
X30464286Y42030952D01*
X30511905Y41983333D01*
X30607143Y41935714D01*
X30750001Y41935714D01*
X30845239Y41983333D01*
X30892858Y42030952D01*
X30940477Y42126190D01*
X30940477Y42411905D01*
X30892858Y42507143D01*
X30845239Y42554762D01*
X30750001Y42602381D01*
X30607143Y42602381D01*
X31369048Y42602381D02*
X31369048Y41935714D01*
X31369048Y42030952D02*
X31416667Y41983333D01*
X31511905Y41935714D01*
X31654763Y41935714D01*
X31750001Y41983333D01*
X31797620Y42078571D01*
X31797620Y42602381D01*
X31797620Y42078571D02*
X31845239Y41983333D01*
X31940477Y41935714D01*
X32083334Y41935714D01*
X32178572Y41983333D01*
X32226191Y42078571D01*
X32226191Y42602381D01*
X33464286Y42602381D02*
X33464286Y41602381D01*
X33797620Y42316667D01*
X34130953Y41602381D01*
X34130953Y42602381D01*
X35035715Y42602381D02*
X35035715Y42078571D01*
X34988096Y41983333D01*
X34892858Y41935714D01*
X34702381Y41935714D01*
X34607143Y41983333D01*
X35035715Y42554762D02*
X34940477Y42602381D01*
X34702381Y42602381D01*
X34607143Y42554762D01*
X34559524Y42459524D01*
X34559524Y42364286D01*
X34607143Y42269048D01*
X34702381Y42221429D01*
X34940477Y42221429D01*
X35035715Y42173810D01*
X35940477Y41935714D02*
X35940477Y42745238D01*
X35892858Y42840476D01*
X35845239Y42888095D01*
X35750000Y42935714D01*
X35607143Y42935714D01*
X35511905Y42888095D01*
X35940477Y42554762D02*
X35845239Y42602381D01*
X35654762Y42602381D01*
X35559524Y42554762D01*
X35511905Y42507143D01*
X35464286Y42411905D01*
X35464286Y42126190D01*
X35511905Y42030952D01*
X35559524Y41983333D01*
X35654762Y41935714D01*
X35845239Y41935714D01*
X35940477Y41983333D01*
X36416667Y41935714D02*
X36416667Y42602381D01*
X36416667Y42030952D02*
X36464286Y41983333D01*
X36559524Y41935714D01*
X36702382Y41935714D01*
X36797620Y41983333D01*
X36845239Y42078571D01*
X36845239Y42602381D01*
X37321429Y42602381D02*
X37321429Y41935714D01*
X37321429Y41602381D02*
X37273810Y41650000D01*
X37321429Y41697619D01*
X37369048Y41650000D01*
X37321429Y41602381D01*
X37321429Y41697619D01*
X38178572Y42554762D02*
X38083334Y42602381D01*
X37892857Y42602381D01*
X37797619Y42554762D01*
X37750000Y42459524D01*
X37750000Y42078571D01*
X37797619Y41983333D01*
X37892857Y41935714D01*
X38083334Y41935714D01*
X38178572Y41983333D01*
X38226191Y42078571D01*
X38226191Y42173810D01*
X37750000Y42269048D01*
X38654762Y42602381D02*
X38654762Y41935714D01*
X38654762Y42126190D02*
X38702381Y42030952D01*
X38750000Y41983333D01*
X38845238Y41935714D01*
X38940477Y41935714D01*
X29059524Y43635714D02*
X29297619Y44302381D01*
X29535715Y43635714D01*
X30440477Y44302381D02*
X29869048Y44302381D01*
X30154762Y44302381D02*
X30154762Y43302381D01*
X30059524Y43445238D01*
X29964286Y43540476D01*
X29869048Y43588095D01*
X30869048Y44207143D02*
X30916667Y44254762D01*
X30869048Y44302381D01*
X30821429Y44254762D01*
X30869048Y44207143D01*
X30869048Y44302381D01*
X31869048Y44302381D02*
X31297619Y44302381D01*
X31583333Y44302381D02*
X31583333Y43302381D01*
X31488095Y43445238D01*
X31392857Y43540476D01*
X31297619Y43588095D01*
X33250000Y43302381D02*
X33345239Y43302381D01*
X33440477Y43350000D01*
X33488096Y43397619D01*
X33535715Y43492857D01*
X33583334Y43683333D01*
X33583334Y43921429D01*
X33535715Y44111905D01*
X33488096Y44207143D01*
X33440477Y44254762D01*
X33345239Y44302381D01*
X33250000Y44302381D01*
X33154762Y44254762D01*
X33107143Y44207143D01*
X33059524Y44111905D01*
X33011905Y43921429D01*
X33011905Y43683333D01*
X33059524Y43492857D01*
X33107143Y43397619D01*
X33154762Y43350000D01*
X33250000Y43302381D01*
X34440477Y43635714D02*
X34440477Y44302381D01*
X34202381Y43254762D02*
X33964286Y43969048D01*
X34583334Y43969048D01*
X35678572Y43254762D02*
X34821429Y44540476D01*
X35964286Y43397619D02*
X36011905Y43350000D01*
X36107143Y43302381D01*
X36345239Y43302381D01*
X36440477Y43350000D01*
X36488096Y43397619D01*
X36535715Y43492857D01*
X36535715Y43588095D01*
X36488096Y43730952D01*
X35916667Y44302381D01*
X36535715Y44302381D01*
X37154762Y43302381D02*
X37250001Y43302381D01*
X37345239Y43350000D01*
X37392858Y43397619D01*
X37440477Y43492857D01*
X37488096Y43683333D01*
X37488096Y43921429D01*
X37440477Y44111905D01*
X37392858Y44207143D01*
X37345239Y44254762D01*
X37250001Y44302381D01*
X37154762Y44302381D01*
X37059524Y44254762D01*
X37011905Y44207143D01*
X36964286Y44111905D01*
X36916667Y43921429D01*
X36916667Y43683333D01*
X36964286Y43492857D01*
X37011905Y43397619D01*
X37059524Y43350000D01*
X37154762Y43302381D01*
X38440477Y44302381D02*
X37869048Y44302381D01*
X38154762Y44302381D02*
X38154762Y43302381D01*
X38059524Y43445238D01*
X37964286Y43540476D01*
X37869048Y43588095D01*
X39011905Y43730952D02*
X38916667Y43683333D01*
X38869048Y43635714D01*
X38821429Y43540476D01*
X38821429Y43492857D01*
X38869048Y43397619D01*
X38916667Y43350000D01*
X39011905Y43302381D01*
X39202382Y43302381D01*
X39297620Y43350000D01*
X39345239Y43397619D01*
X39392858Y43492857D01*
X39392858Y43540476D01*
X39345239Y43635714D01*
X39297620Y43683333D01*
X39202382Y43730952D01*
X39011905Y43730952D01*
X38916667Y43778571D01*
X38869048Y43826190D01*
X38821429Y43921429D01*
X38821429Y44111905D01*
X38869048Y44207143D01*
X38916667Y44254762D01*
X39011905Y44302381D01*
X39202382Y44302381D01*
X39297620Y44254762D01*
X39345239Y44207143D01*
X39392858Y44111905D01*
X39392858Y43921429D01*
X39345239Y43826190D01*
X39297620Y43778571D01*
X39202382Y43730952D01*
D12*
X10017857Y30921429D02*
X8817857Y30921429D01*
X10017857Y30235714D02*
X9332143Y30750000D01*
X8817857Y30235714D02*
X9503571Y30921429D01*
X8817857Y29835714D02*
X10017857Y29035714D01*
X8817857Y29035714D02*
X10017857Y29835714D01*
X10017857Y28578572D02*
X8817857Y28578572D01*
X10017857Y27892857D02*
X9332143Y28407143D01*
X8817857Y27892857D02*
X9503571Y28578572D01*
X10017857Y27378572D02*
X8817857Y27378572D01*
X9675000Y26978572D01*
X8817857Y26578572D01*
X10017857Y26578572D01*
X11439286Y39035713D02*
X11439286Y38635713D01*
X12067857Y38464284D02*
X12067857Y39035713D01*
X10867857Y39035713D01*
X10867857Y38464284D01*
X12010714Y38007142D02*
X12067857Y37835713D01*
X12067857Y37549999D01*
X12010714Y37435713D01*
X11953571Y37378570D01*
X11839286Y37321427D01*
X11725000Y37321427D01*
X11610714Y37378570D01*
X11553571Y37435713D01*
X11496429Y37549999D01*
X11439286Y37778570D01*
X11382143Y37892856D01*
X11325000Y37949999D01*
X11210714Y38007142D01*
X11096429Y38007142D01*
X10982143Y37949999D01*
X10925000Y37892856D01*
X10867857Y37778570D01*
X10867857Y37492856D01*
X10925000Y37321427D01*
X12067857Y36807142D02*
X10867857Y36807142D01*
X10867857Y36349999D01*
X10925000Y36235713D01*
X10982143Y36178570D01*
X11096429Y36121427D01*
X11267857Y36121427D01*
X11382143Y36178570D01*
X11439286Y36235713D01*
X11496429Y36349999D01*
X11496429Y36807142D01*
X10867857Y35721427D02*
X10867857Y34978570D01*
X11325000Y35378570D01*
X11325000Y35207142D01*
X11382143Y35092856D01*
X11439286Y35035713D01*
X11553571Y34978570D01*
X11839286Y34978570D01*
X11953571Y35035713D01*
X12010714Y35092856D01*
X12067857Y35207142D01*
X12067857Y35549999D01*
X12010714Y35664285D01*
X11953571Y35721427D01*
X10982143Y34521428D02*
X10925000Y34464285D01*
X10867857Y34349999D01*
X10867857Y34064285D01*
X10925000Y33949999D01*
X10982143Y33892856D01*
X11096429Y33835713D01*
X11210714Y33835713D01*
X11382143Y33892856D01*
X12067857Y34578570D01*
X12067857Y33835713D01*
X11725000Y32464285D02*
X11725000Y31892856D01*
X12067857Y32578570D02*
X10867857Y32178570D01*
X12067857Y31778570D01*
X11267857Y30864285D02*
X12067857Y30864285D01*
X11267857Y31378571D02*
X11896429Y31378571D01*
X12010714Y31321428D01*
X12067857Y31207142D01*
X12067857Y31035714D01*
X12010714Y30921428D01*
X11953571Y30864285D01*
X12067857Y29778571D02*
X10867857Y29778571D01*
X12010714Y29778571D02*
X12067857Y29892857D01*
X12067857Y30121428D01*
X12010714Y30235714D01*
X11953571Y30292857D01*
X11839286Y30350000D01*
X11496429Y30350000D01*
X11382143Y30292857D01*
X11325000Y30235714D01*
X11267857Y30121428D01*
X11267857Y29892857D01*
X11325000Y29778571D01*
X12067857Y29207143D02*
X11267857Y29207143D01*
X10867857Y29207143D02*
X10925000Y29264286D01*
X10982143Y29207143D01*
X10925000Y29150000D01*
X10867857Y29207143D01*
X10982143Y29207143D01*
X12067857Y28464285D02*
X12010714Y28578571D01*
X11953571Y28635714D01*
X11839286Y28692857D01*
X11496429Y28692857D01*
X11382143Y28635714D01*
X11325000Y28578571D01*
X11267857Y28464285D01*
X11267857Y28292857D01*
X11325000Y28178571D01*
X11382143Y28121428D01*
X11496429Y28064285D01*
X11839286Y28064285D01*
X11953571Y28121428D01*
X12010714Y28178571D01*
X12067857Y28292857D01*
X12067857Y28464285D01*
X12067857Y25664285D02*
X12067857Y25721428D01*
X12010714Y25835714D01*
X11839286Y26007142D01*
X11496429Y26292857D01*
X11325000Y26407142D01*
X11153571Y26464285D01*
X11039286Y26464285D01*
X10925000Y26407142D01*
X10867857Y26292857D01*
X10867857Y26235714D01*
X10925000Y26121428D01*
X11039286Y26064285D01*
X11096429Y26064285D01*
X11210714Y26121428D01*
X11267857Y26178571D01*
X11496429Y26521428D01*
X11553571Y26578571D01*
X11667857Y26635714D01*
X11839286Y26635714D01*
X11953571Y26578571D01*
X12010714Y26521428D01*
X12067857Y26407142D01*
X12067857Y26235714D01*
X12010714Y26121428D01*
X11953571Y26064285D01*
X11725000Y25892857D01*
X11553571Y25835714D01*
X11439286Y25835714D01*
X11439286Y23835714D02*
X11496429Y23664285D01*
X11553571Y23607142D01*
X11667857Y23549999D01*
X11839286Y23549999D01*
X11953571Y23607142D01*
X12010714Y23664285D01*
X12067857Y23778571D01*
X12067857Y24235714D01*
X10867857Y24235714D01*
X10867857Y23835714D01*
X10925000Y23721428D01*
X10982143Y23664285D01*
X11096429Y23607142D01*
X11210714Y23607142D01*
X11325000Y23664285D01*
X11382143Y23721428D01*
X11439286Y23835714D01*
X11439286Y24235714D01*
X12067857Y22521428D02*
X11439286Y22521428D01*
X11325000Y22578571D01*
X11267857Y22692857D01*
X11267857Y22921428D01*
X11325000Y23035714D01*
X12010714Y22521428D02*
X12067857Y22635714D01*
X12067857Y22921428D01*
X12010714Y23035714D01*
X11896429Y23092857D01*
X11782143Y23092857D01*
X11667857Y23035714D01*
X11610714Y22921428D01*
X11610714Y22635714D01*
X11553571Y22521428D01*
X11267857Y22121428D02*
X11267857Y21664285D01*
X10867857Y21950000D02*
X11896429Y21950000D01*
X12010714Y21892857D01*
X12067857Y21778571D01*
X12067857Y21664285D01*
X11267857Y21435714D02*
X11267857Y20978571D01*
X10867857Y21264286D02*
X11896429Y21264286D01*
X12010714Y21207143D01*
X12067857Y21092857D01*
X12067857Y20978571D01*
X12010714Y20121429D02*
X12067857Y20235715D01*
X12067857Y20464286D01*
X12010714Y20578572D01*
X11896429Y20635715D01*
X11439286Y20635715D01*
X11325000Y20578572D01*
X11267857Y20464286D01*
X11267857Y20235715D01*
X11325000Y20121429D01*
X11439286Y20064286D01*
X11553571Y20064286D01*
X11667857Y20635715D01*
X12067857Y19550001D02*
X11267857Y19550001D01*
X11496429Y19550001D02*
X11382143Y19492858D01*
X11325000Y19435715D01*
X11267857Y19321429D01*
X11267857Y19207144D01*
X11267857Y18921429D02*
X12067857Y18635715D01*
X11267857Y18350001D02*
X12067857Y18635715D01*
X12353571Y18750001D01*
X12410714Y18807144D01*
X12467857Y18921429D01*
D13*
X35058929Y32428572D02*
X35058929Y32678572D01*
X35451786Y32678572D02*
X34701786Y32678572D01*
X34701786Y32321429D01*
X35451786Y31928572D02*
X35416071Y32000000D01*
X35380357Y32035715D01*
X35308929Y32071429D01*
X35094643Y32071429D01*
X35023214Y32035715D01*
X34987500Y32000000D01*
X34951786Y31928572D01*
X34951786Y31821429D01*
X34987500Y31750000D01*
X35023214Y31714286D01*
X35094643Y31678572D01*
X35308929Y31678572D01*
X35380357Y31714286D01*
X35416071Y31750000D01*
X35451786Y31821429D01*
X35451786Y31928572D01*
X35451786Y31357144D02*
X34951786Y31357144D01*
X35094643Y31357144D02*
X35023214Y31321429D01*
X34987500Y31285715D01*
X34951786Y31214286D01*
X34951786Y31142858D01*
X35166071Y30321429D02*
X35166071Y29750000D01*
X35451786Y30035714D02*
X34880357Y30035714D01*
X34701786Y29035715D02*
X34701786Y29392858D01*
X35058929Y29428572D01*
X35023214Y29392858D01*
X34987500Y29321429D01*
X34987500Y29142858D01*
X35023214Y29071429D01*
X35058929Y29035715D01*
X35130357Y29000000D01*
X35308929Y29000000D01*
X35380357Y29035715D01*
X35416071Y29071429D01*
X35451786Y29142858D01*
X35451786Y29321429D01*
X35416071Y29392858D01*
X35380357Y29428572D01*
X34701786Y28785714D02*
X35451786Y28535714D01*
X34701786Y28285714D01*
X36691071Y32535714D02*
X36726786Y32607143D01*
X36726786Y32750000D01*
X36691071Y32821428D01*
X36655357Y32857143D01*
X36583929Y32892857D01*
X36369643Y32892857D01*
X36298214Y32857143D01*
X36262500Y32821428D01*
X36226786Y32750000D01*
X36226786Y32607143D01*
X36262500Y32535714D01*
X36726786Y32107143D02*
X36691071Y32178571D01*
X36619643Y32214286D01*
X35976786Y32214286D01*
X36726786Y31714286D02*
X36691071Y31785714D01*
X36655357Y31821429D01*
X36583929Y31857143D01*
X36369643Y31857143D01*
X36298214Y31821429D01*
X36262500Y31785714D01*
X36226786Y31714286D01*
X36226786Y31607143D01*
X36262500Y31535714D01*
X36298214Y31500000D01*
X36369643Y31464286D01*
X36583929Y31464286D01*
X36655357Y31500000D01*
X36691071Y31535714D01*
X36726786Y31607143D01*
X36726786Y31714286D01*
X36691071Y31178572D02*
X36726786Y31107143D01*
X36726786Y30964286D01*
X36691071Y30892858D01*
X36619643Y30857143D01*
X36583929Y30857143D01*
X36512500Y30892858D01*
X36476786Y30964286D01*
X36476786Y31071429D01*
X36441071Y31142858D01*
X36369643Y31178572D01*
X36333929Y31178572D01*
X36262500Y31142858D01*
X36226786Y31071429D01*
X36226786Y30964286D01*
X36262500Y30892858D01*
X36691071Y30250000D02*
X36726786Y30321429D01*
X36726786Y30464286D01*
X36691071Y30535715D01*
X36619643Y30571429D01*
X36333929Y30571429D01*
X36262500Y30535715D01*
X36226786Y30464286D01*
X36226786Y30321429D01*
X36262500Y30250000D01*
X36333929Y30214286D01*
X36405357Y30214286D01*
X36476786Y30571429D01*
X35976786Y29107143D02*
X36512500Y29107143D01*
X36619643Y29142857D01*
X36691071Y29214286D01*
X36726786Y29321429D01*
X36726786Y29392857D01*
X36726786Y28750000D02*
X35976786Y28750000D01*
X35976786Y28464285D01*
X36012500Y28392857D01*
X36048214Y28357142D01*
X36119643Y28321428D01*
X36226786Y28321428D01*
X36298214Y28357142D01*
X36333929Y28392857D01*
X36369643Y28464285D01*
X36369643Y28750000D01*
X36726786Y27607142D02*
X36726786Y28035714D01*
X36726786Y27821428D02*
X35976786Y27821428D01*
X36083929Y27892857D01*
X36155357Y27964285D01*
X36191071Y28035714D01*
D12*
X19098810Y23157142D02*
X19098810Y22414285D01*
X19708333Y22814285D01*
X19708333Y22642857D01*
X19784524Y22528571D01*
X19860714Y22471428D01*
X20013095Y22414285D01*
X20394048Y22414285D01*
X20546429Y22471428D01*
X20622619Y22528571D01*
X20698810Y22642857D01*
X20698810Y22985714D01*
X20622619Y23100000D01*
X20546429Y23157142D01*
X19098810Y21385714D02*
X19098810Y21614285D01*
X19175000Y21728571D01*
X19251190Y21785714D01*
X19479762Y21900000D01*
X19784524Y21957143D01*
X20394048Y21957143D01*
X20546429Y21900000D01*
X20622619Y21842857D01*
X20698810Y21728571D01*
X20698810Y21500000D01*
X20622619Y21385714D01*
X20546429Y21328571D01*
X20394048Y21271428D01*
X20013095Y21271428D01*
X19860714Y21328571D01*
X19784524Y21385714D01*
X19708333Y21500000D01*
X19708333Y21728571D01*
X19784524Y21842857D01*
X19860714Y21900000D01*
X20013095Y21957143D01*
X19022619Y19900000D02*
X21079762Y20928571D01*
X20241667Y19557143D02*
X20241667Y18985714D01*
X20698810Y19671428D02*
X19098810Y19271428D01*
X20698810Y18871428D01*
X20698810Y18471429D02*
X19098810Y18471429D01*
X20698810Y17785714D01*
X19098810Y17785714D01*
X21748810Y24128571D02*
X21748810Y23385714D01*
X22358333Y23785714D01*
X22358333Y23614286D01*
X22434524Y23500000D01*
X22510714Y23442857D01*
X22663095Y23385714D01*
X23044048Y23385714D01*
X23196429Y23442857D01*
X23272619Y23500000D01*
X23348810Y23614286D01*
X23348810Y23957143D01*
X23272619Y24071429D01*
X23196429Y24128571D01*
X21748810Y22985714D02*
X21748810Y22242857D01*
X22358333Y22642857D01*
X22358333Y22471429D01*
X22434524Y22357143D01*
X22510714Y22300000D01*
X22663095Y22242857D01*
X23044048Y22242857D01*
X23196429Y22300000D01*
X23272619Y22357143D01*
X23348810Y22471429D01*
X23348810Y22814286D01*
X23272619Y22928572D01*
X23196429Y22985714D01*
X21672619Y20871429D02*
X23729762Y21900000D01*
X23348810Y19785714D02*
X22586905Y20185714D01*
X23348810Y20471429D02*
X21748810Y20471429D01*
X21748810Y20014286D01*
X21825000Y19900000D01*
X21901190Y19842857D01*
X22053571Y19785714D01*
X22282143Y19785714D01*
X22434524Y19842857D01*
X22510714Y19900000D01*
X22586905Y20014286D01*
X22586905Y20471429D01*
X23272619Y19328572D02*
X23348810Y19157143D01*
X23348810Y18871429D01*
X23272619Y18757143D01*
X23196429Y18700000D01*
X23044048Y18642857D01*
X22891667Y18642857D01*
X22739286Y18700000D01*
X22663095Y18757143D01*
X22586905Y18871429D01*
X22510714Y19100000D01*
X22434524Y19214286D01*
X22358333Y19271429D01*
X22205952Y19328572D01*
X22053571Y19328572D01*
X21901190Y19271429D01*
X21825000Y19214286D01*
X21748810Y19100000D01*
X21748810Y18814286D01*
X21825000Y18642857D01*
X21748810Y18300000D02*
X21748810Y17614286D01*
X23348810Y17957143D02*
X21748810Y17957143D01*
X25998810Y22471428D02*
X25998810Y23157143D01*
X25998810Y22814285D02*
X24398810Y22814285D01*
X24627381Y22928571D01*
X24779762Y23042857D01*
X24855952Y23157143D01*
X24398810Y21385714D02*
X24398810Y21957143D01*
X25160714Y22014286D01*
X25084524Y21957143D01*
X25008333Y21842857D01*
X25008333Y21557143D01*
X25084524Y21442857D01*
X25160714Y21385714D01*
X25313095Y21328571D01*
X25694048Y21328571D01*
X25846429Y21385714D01*
X25922619Y21442857D01*
X25998810Y21557143D01*
X25998810Y21842857D01*
X25922619Y21957143D01*
X25846429Y22014286D01*
X24322619Y19957143D02*
X26379762Y20985714D01*
X25846429Y18871428D02*
X25922619Y18928571D01*
X25998810Y19100000D01*
X25998810Y19214286D01*
X25922619Y19385714D01*
X25770238Y19500000D01*
X25617857Y19557143D01*
X25313095Y19614286D01*
X25084524Y19614286D01*
X24779762Y19557143D01*
X24627381Y19500000D01*
X24475000Y19385714D01*
X24398810Y19214286D01*
X24398810Y19100000D01*
X24475000Y18928571D01*
X24551190Y18871428D01*
X25922619Y18414286D02*
X25998810Y18242857D01*
X25998810Y17957143D01*
X25922619Y17842857D01*
X25846429Y17785714D01*
X25694048Y17728571D01*
X25541667Y17728571D01*
X25389286Y17785714D01*
X25313095Y17842857D01*
X25236905Y17957143D01*
X25160714Y18185714D01*
X25084524Y18300000D01*
X25008333Y18357143D01*
X24855952Y18414286D01*
X24703571Y18414286D01*
X24551190Y18357143D01*
X24475000Y18300000D01*
X24398810Y18185714D01*
X24398810Y17900000D01*
X24475000Y17728571D01*
X28648810Y23671428D02*
X28648810Y24357143D01*
X28648810Y24014285D02*
X27048810Y24014285D01*
X27277381Y24128571D01*
X27429762Y24242857D01*
X27505952Y24357143D01*
X27582143Y22642857D02*
X28648810Y22642857D01*
X26972619Y22928571D02*
X28115476Y23214286D01*
X28115476Y22471428D01*
X26972619Y21157143D02*
X29029762Y22185714D01*
X28572619Y20814286D02*
X28648810Y20642857D01*
X28648810Y20357143D01*
X28572619Y20242857D01*
X28496429Y20185714D01*
X28344048Y20128571D01*
X28191667Y20128571D01*
X28039286Y20185714D01*
X27963095Y20242857D01*
X27886905Y20357143D01*
X27810714Y20585714D01*
X27734524Y20700000D01*
X27658333Y20757143D01*
X27505952Y20814286D01*
X27353571Y20814286D01*
X27201190Y20757143D01*
X27125000Y20700000D01*
X27048810Y20585714D01*
X27048810Y20300000D01*
X27125000Y20128571D01*
X28496429Y18928571D02*
X28572619Y18985714D01*
X28648810Y19157143D01*
X28648810Y19271429D01*
X28572619Y19442857D01*
X28420238Y19557143D01*
X28267857Y19614286D01*
X27963095Y19671429D01*
X27734524Y19671429D01*
X27429762Y19614286D01*
X27277381Y19557143D01*
X27125000Y19442857D01*
X27048810Y19271429D01*
X27048810Y19157143D01*
X27125000Y18985714D01*
X27201190Y18928571D01*
X28648810Y18414286D02*
X27048810Y18414286D01*
X28648810Y17728571D02*
X27734524Y18242857D01*
X27048810Y17728571D02*
X27963095Y18414286D01*
X31298810Y24471429D02*
X31298810Y25157144D01*
X31298810Y24814286D02*
X29698810Y24814286D01*
X29927381Y24928572D01*
X30079762Y25042858D01*
X30155952Y25157144D01*
X29851190Y24014287D02*
X29775000Y23957144D01*
X29698810Y23842858D01*
X29698810Y23557144D01*
X29775000Y23442858D01*
X29851190Y23385715D01*
X30003571Y23328572D01*
X30155952Y23328572D01*
X30384524Y23385715D01*
X31298810Y24071429D01*
X31298810Y23328572D01*
X29622619Y21957144D02*
X31679762Y22985715D01*
X31298810Y21557144D02*
X29698810Y21557144D01*
X30841667Y21157144D01*
X29698810Y20757144D01*
X31298810Y20757144D01*
X31298810Y20185715D02*
X29698810Y20185715D01*
X31222619Y19671429D02*
X31298810Y19500000D01*
X31298810Y19214286D01*
X31222619Y19100000D01*
X31146429Y19042857D01*
X30994048Y18985714D01*
X30841667Y18985714D01*
X30689286Y19042857D01*
X30613095Y19100000D01*
X30536905Y19214286D01*
X30460714Y19442857D01*
X30384524Y19557143D01*
X30308333Y19614286D01*
X30155952Y19671429D01*
X30003571Y19671429D01*
X29851190Y19614286D01*
X29775000Y19557143D01*
X29698810Y19442857D01*
X29698810Y19157143D01*
X29775000Y18985714D01*
X29698810Y18242857D02*
X29698810Y18014286D01*
X29775000Y17900000D01*
X29927381Y17785714D01*
X30232143Y17728572D01*
X30765476Y17728572D01*
X31070238Y17785714D01*
X31222619Y17900000D01*
X31298810Y18014286D01*
X31298810Y18242857D01*
X31222619Y18357143D01*
X31070238Y18471429D01*
X30765476Y18528572D01*
X30232143Y18528572D01*
X29927381Y18471429D01*
X29775000Y18357143D01*
X29698810Y18242857D01*
X33948810Y24471429D02*
X33948810Y25157144D01*
X33948810Y24814286D02*
X32348810Y24814286D01*
X32577381Y24928572D01*
X32729762Y25042858D01*
X32805952Y25157144D01*
X32348810Y24071429D02*
X32348810Y23328572D01*
X32958333Y23728572D01*
X32958333Y23557144D01*
X33034524Y23442858D01*
X33110714Y23385715D01*
X33263095Y23328572D01*
X33644048Y23328572D01*
X33796429Y23385715D01*
X33872619Y23442858D01*
X33948810Y23557144D01*
X33948810Y23900001D01*
X33872619Y24014287D01*
X33796429Y24071429D01*
X32272619Y21957144D02*
X34329762Y22985715D01*
X33948810Y21557144D02*
X32348810Y21557144D01*
X33491667Y21157144D01*
X32348810Y20757144D01*
X33948810Y20757144D01*
X32348810Y19957143D02*
X32348810Y19728572D01*
X32425000Y19614286D01*
X32577381Y19500000D01*
X32882143Y19442858D01*
X33415476Y19442858D01*
X33720238Y19500000D01*
X33872619Y19614286D01*
X33948810Y19728572D01*
X33948810Y19957143D01*
X33872619Y20071429D01*
X33720238Y20185715D01*
X33415476Y20242858D01*
X32882143Y20242858D01*
X32577381Y20185715D01*
X32425000Y20071429D01*
X32348810Y19957143D01*
X33872619Y18985715D02*
X33948810Y18814286D01*
X33948810Y18528572D01*
X33872619Y18414286D01*
X33796429Y18357143D01*
X33644048Y18300000D01*
X33491667Y18300000D01*
X33339286Y18357143D01*
X33263095Y18414286D01*
X33186905Y18528572D01*
X33110714Y18757143D01*
X33034524Y18871429D01*
X32958333Y18928572D01*
X32805952Y18985715D01*
X32653571Y18985715D01*
X32501190Y18928572D01*
X32425000Y18871429D01*
X32348810Y18757143D01*
X32348810Y18471429D01*
X32425000Y18300000D01*
X33948810Y17785715D02*
X32348810Y17785715D01*
X35989286Y22585714D02*
X35989286Y21671428D01*
X36598810Y22128571D02*
X35379762Y22128571D01*
X34998810Y21214285D02*
X34998810Y20471428D01*
X35608333Y20871428D01*
X35608333Y20700000D01*
X35684524Y20585714D01*
X35760714Y20528571D01*
X35913095Y20471428D01*
X36294048Y20471428D01*
X36446429Y20528571D01*
X36522619Y20585714D01*
X36598810Y20700000D01*
X36598810Y21042857D01*
X36522619Y21157143D01*
X36446429Y21214285D01*
X36446429Y19957143D02*
X36522619Y19900000D01*
X36598810Y19957143D01*
X36522619Y20014286D01*
X36446429Y19957143D01*
X36598810Y19957143D01*
X34998810Y19499999D02*
X34998810Y18757142D01*
X35608333Y19157142D01*
X35608333Y18985714D01*
X35684524Y18871428D01*
X35760714Y18814285D01*
X35913095Y18757142D01*
X36294048Y18757142D01*
X36446429Y18814285D01*
X36522619Y18871428D01*
X36598810Y18985714D01*
X36598810Y19328571D01*
X36522619Y19442857D01*
X36446429Y19499999D01*
X34998810Y18414285D02*
X36598810Y18014285D01*
X34998810Y17614285D01*
X37725000Y20242857D02*
X37648810Y20357143D01*
X37648810Y20528572D01*
X37725000Y20700000D01*
X37877381Y20814286D01*
X38029762Y20871429D01*
X38334524Y20928572D01*
X38563095Y20928572D01*
X38867857Y20871429D01*
X39020238Y20814286D01*
X39172619Y20700000D01*
X39248810Y20528572D01*
X39248810Y20414286D01*
X39172619Y20242857D01*
X39096429Y20185714D01*
X38563095Y20185714D01*
X38563095Y20414286D01*
X39248810Y19671429D02*
X37648810Y19671429D01*
X39248810Y18985714D01*
X37648810Y18985714D01*
X39248810Y18414286D02*
X37648810Y18414286D01*
X37648810Y18128571D01*
X37725000Y17957143D01*
X37877381Y17842857D01*
X38029762Y17785714D01*
X38334524Y17728571D01*
X38563095Y17728571D01*
X38867857Y17785714D01*
X39020238Y17842857D01*
X39172619Y17957143D01*
X39248810Y18128571D01*
X39248810Y18414286D01*
X20698810Y36464286D02*
X19098810Y36464286D01*
X19098810Y36007143D01*
X19175000Y35892857D01*
X19251190Y35835714D01*
X19403571Y35778571D01*
X19632143Y35778571D01*
X19784524Y35835714D01*
X19860714Y35892857D01*
X19936905Y36007143D01*
X19936905Y36464286D01*
X19098810Y35378571D02*
X20698810Y35092857D01*
X19555952Y34864286D01*
X20698810Y34635714D01*
X19098810Y34350000D01*
X20698810Y33892857D02*
X19098810Y33892857D01*
X20241667Y33492857D01*
X19098810Y33092857D01*
X20698810Y33092857D01*
X19022619Y31664285D02*
X21079762Y32692856D01*
X19251190Y31321428D02*
X19175000Y31264285D01*
X19098810Y31149999D01*
X19098810Y30864285D01*
X19175000Y30749999D01*
X19251190Y30692856D01*
X19403571Y30635713D01*
X19555952Y30635713D01*
X19784524Y30692856D01*
X20698810Y31378570D01*
X20698810Y30635713D01*
X19251190Y30178571D02*
X19175000Y30121428D01*
X19098810Y30007142D01*
X19098810Y29721428D01*
X19175000Y29607142D01*
X19251190Y29549999D01*
X19403571Y29492856D01*
X19555952Y29492856D01*
X19784524Y29549999D01*
X20698810Y30235713D01*
X20698810Y29492856D01*
X23348810Y36464286D02*
X21748810Y36464286D01*
X23348810Y35892857D02*
X21748810Y35892857D01*
X23348810Y35207142D01*
X21748810Y35207142D01*
X21748810Y34807142D02*
X21748810Y34121428D01*
X23348810Y34464285D02*
X21748810Y34464285D01*
X21672619Y32864285D02*
X23729762Y33892856D01*
X21901190Y32521428D02*
X21825000Y32464285D01*
X21748810Y32349999D01*
X21748810Y32064285D01*
X21825000Y31949999D01*
X21901190Y31892856D01*
X22053571Y31835713D01*
X22205952Y31835713D01*
X22434524Y31892856D01*
X23348810Y32578570D01*
X23348810Y31835713D01*
X23348810Y30692856D02*
X23348810Y31378571D01*
X23348810Y31035713D02*
X21748810Y31035713D01*
X21977381Y31149999D01*
X22129762Y31264285D01*
X22205952Y31378571D01*
X25998810Y35778571D02*
X25236905Y36178571D01*
X25998810Y36464286D02*
X24398810Y36464286D01*
X24398810Y36007143D01*
X24475000Y35892857D01*
X24551190Y35835714D01*
X24703571Y35778571D01*
X24932143Y35778571D01*
X25084524Y35835714D01*
X25160714Y35892857D01*
X25236905Y36007143D01*
X25236905Y36464286D01*
X24398810Y35378571D02*
X25998810Y34578571D01*
X24398810Y34578571D02*
X25998810Y35378571D01*
X24322619Y33264286D02*
X26379762Y34292857D01*
X24398810Y32978571D02*
X24398810Y32235714D01*
X25008333Y32635714D01*
X25008333Y32464286D01*
X25084524Y32350000D01*
X25160714Y32292857D01*
X25313095Y32235714D01*
X25694048Y32235714D01*
X25846429Y32292857D01*
X25922619Y32350000D01*
X25998810Y32464286D01*
X25998810Y32807143D01*
X25922619Y32921429D01*
X25846429Y32978571D01*
X24398810Y31150000D02*
X24398810Y31721429D01*
X25160714Y31778572D01*
X25084524Y31721429D01*
X25008333Y31607143D01*
X25008333Y31321429D01*
X25084524Y31207143D01*
X25160714Y31150000D01*
X25313095Y31092857D01*
X25694048Y31092857D01*
X25846429Y31150000D01*
X25922619Y31207143D01*
X25998810Y31321429D01*
X25998810Y31607143D01*
X25922619Y31721429D01*
X25846429Y31778572D01*
X27048810Y36635714D02*
X27048810Y35950000D01*
X28648810Y36292857D02*
X27048810Y36292857D01*
X27048810Y35664285D02*
X28648810Y34864285D01*
X27048810Y34864285D02*
X28648810Y35664285D01*
X26972619Y33550000D02*
X29029762Y34578571D01*
X27048810Y33264285D02*
X27048810Y32521428D01*
X27658333Y32921428D01*
X27658333Y32750000D01*
X27734524Y32635714D01*
X27810714Y32578571D01*
X27963095Y32521428D01*
X28344048Y32521428D01*
X28496429Y32578571D01*
X28572619Y32635714D01*
X28648810Y32750000D01*
X28648810Y33092857D01*
X28572619Y33207143D01*
X28496429Y33264285D01*
X27201190Y32064286D02*
X27125000Y32007143D01*
X27048810Y31892857D01*
X27048810Y31607143D01*
X27125000Y31492857D01*
X27201190Y31435714D01*
X27353571Y31378571D01*
X27505952Y31378571D01*
X27734524Y31435714D01*
X28648810Y32121428D01*
X28648810Y31378571D01*
X31222619Y36521429D02*
X31298810Y36350000D01*
X31298810Y36064286D01*
X31222619Y35950000D01*
X31146429Y35892857D01*
X30994048Y35835714D01*
X30841667Y35835714D01*
X30689286Y35892857D01*
X30613095Y35950000D01*
X30536905Y36064286D01*
X30460714Y36292857D01*
X30384524Y36407143D01*
X30308333Y36464286D01*
X30155952Y36521429D01*
X30003571Y36521429D01*
X29851190Y36464286D01*
X29775000Y36407143D01*
X29698810Y36292857D01*
X29698810Y36007143D01*
X29775000Y35835714D01*
X31146429Y34635714D02*
X31222619Y34692857D01*
X31298810Y34864286D01*
X31298810Y34978572D01*
X31222619Y35150000D01*
X31070238Y35264286D01*
X30917857Y35321429D01*
X30613095Y35378572D01*
X30384524Y35378572D01*
X30079762Y35321429D01*
X29927381Y35264286D01*
X29775000Y35150000D01*
X29698810Y34978572D01*
X29698810Y34864286D01*
X29775000Y34692857D01*
X29851190Y34635714D01*
X31298810Y33550000D02*
X31298810Y34121429D01*
X29698810Y34121429D01*
X29622619Y32292857D02*
X31679762Y33321428D01*
X30232143Y31378571D02*
X31298810Y31378571D01*
X29622619Y31664285D02*
X30765476Y31950000D01*
X30765476Y31207142D01*
X33872619Y36521429D02*
X33948810Y36350000D01*
X33948810Y36064286D01*
X33872619Y35950000D01*
X33796429Y35892857D01*
X33644048Y35835714D01*
X33491667Y35835714D01*
X33339286Y35892857D01*
X33263095Y35950000D01*
X33186905Y36064286D01*
X33110714Y36292857D01*
X33034524Y36407143D01*
X32958333Y36464286D01*
X32805952Y36521429D01*
X32653571Y36521429D01*
X32501190Y36464286D01*
X32425000Y36407143D01*
X32348810Y36292857D01*
X32348810Y36007143D01*
X32425000Y35835714D01*
X33948810Y35321429D02*
X32348810Y35321429D01*
X32348810Y35035714D01*
X32425000Y34864286D01*
X32577381Y34750000D01*
X32729762Y34692857D01*
X33034524Y34635714D01*
X33263095Y34635714D01*
X33567857Y34692857D01*
X33720238Y34750000D01*
X33872619Y34864286D01*
X33948810Y35035714D01*
X33948810Y35321429D01*
X33491667Y34178572D02*
X33491667Y33607143D01*
X33948810Y34292857D02*
X32348810Y33892857D01*
X33948810Y33492857D01*
X32272619Y32235715D02*
X34329762Y33264286D01*
X32501190Y31892858D02*
X32425000Y31835715D01*
X32348810Y31721429D01*
X32348810Y31435715D01*
X32425000Y31321429D01*
X32501190Y31264286D01*
X32653571Y31207143D01*
X32805952Y31207143D01*
X33034524Y31264286D01*
X33948810Y31950000D01*
X33948810Y31207143D01*
X35989286Y36464286D02*
X35989286Y35550000D01*
X36598810Y36007143D02*
X35379762Y36007143D01*
X34998810Y34407143D02*
X34998810Y34978572D01*
X35760714Y35035715D01*
X35684524Y34978572D01*
X35608333Y34864286D01*
X35608333Y34578572D01*
X35684524Y34464286D01*
X35760714Y34407143D01*
X35913095Y34350000D01*
X36294048Y34350000D01*
X36446429Y34407143D01*
X36522619Y34464286D01*
X36598810Y34578572D01*
X36598810Y34864286D01*
X36522619Y34978572D01*
X36446429Y35035715D01*
X34998810Y34007143D02*
X36598810Y33607143D01*
X34998810Y33207143D01*
X37725000Y35835714D02*
X37648810Y35950000D01*
X37648810Y36121429D01*
X37725000Y36292857D01*
X37877381Y36407143D01*
X38029762Y36464286D01*
X38334524Y36521429D01*
X38563095Y36521429D01*
X38867857Y36464286D01*
X39020238Y36407143D01*
X39172619Y36292857D01*
X39248810Y36121429D01*
X39248810Y36007143D01*
X39172619Y35835714D01*
X39096429Y35778571D01*
X38563095Y35778571D01*
X38563095Y36007143D01*
X39248810Y35264286D02*
X37648810Y35264286D01*
X39248810Y34578571D01*
X37648810Y34578571D01*
X39248810Y34007143D02*
X37648810Y34007143D01*
X37648810Y33721428D01*
X37725000Y33550000D01*
X37877381Y33435714D01*
X38029762Y33378571D01*
X38334524Y33321428D01*
X38563095Y33321428D01*
X38867857Y33378571D01*
X39020238Y33435714D01*
X39172619Y33550000D01*
X39248810Y33721428D01*
X39248810Y34007143D01*
D11*
X39952381Y30083333D02*
X39285714Y30083333D01*
X39380952Y30083333D02*
X39333333Y30035714D01*
X39285714Y29940476D01*
X39285714Y29797618D01*
X39333333Y29702380D01*
X39428571Y29654761D01*
X39952381Y29654761D01*
X39428571Y29654761D02*
X39333333Y29607142D01*
X39285714Y29511904D01*
X39285714Y29369047D01*
X39333333Y29273809D01*
X39428571Y29226190D01*
X39952381Y29226190D01*
X39952381Y28750000D02*
X39285714Y28750000D01*
X38952381Y28750000D02*
X39000000Y28797619D01*
X39047619Y28750000D01*
X39000000Y28702381D01*
X38952381Y28750000D01*
X39047619Y28750000D01*
X39952381Y28273810D02*
X38952381Y28273810D01*
X39571429Y28178572D02*
X39952381Y27892857D01*
X39285714Y27892857D02*
X39666667Y28273810D01*
X39952381Y27464286D02*
X39285714Y27464286D01*
X39476190Y27464286D02*
X39380952Y27416667D01*
X39333333Y27369048D01*
X39285714Y27273810D01*
X39285714Y27178571D01*
X39952381Y26702381D02*
X39904762Y26797619D01*
X39857143Y26845238D01*
X39761905Y26892857D01*
X39476190Y26892857D01*
X39380952Y26845238D01*
X39333333Y26797619D01*
X39285714Y26702381D01*
X39285714Y26559523D01*
X39333333Y26464285D01*
X39380952Y26416666D01*
X39476190Y26369047D01*
X39761905Y26369047D01*
X39857143Y26416666D01*
X39904762Y26464285D01*
X39952381Y26559523D01*
X39952381Y26702381D01*
X39428571Y25607142D02*
X39476190Y25464285D01*
X39523810Y25416666D01*
X39619048Y25369047D01*
X39761905Y25369047D01*
X39857143Y25416666D01*
X39904762Y25464285D01*
X39952381Y25559523D01*
X39952381Y25940476D01*
X38952381Y25940476D01*
X38952381Y25607142D01*
X39000000Y25511904D01*
X39047619Y25464285D01*
X39142857Y25416666D01*
X39238095Y25416666D01*
X39333333Y25464285D01*
X39380952Y25511904D01*
X39428571Y25607142D01*
X39428571Y25940476D01*
X38952381Y24940476D02*
X39761905Y24940476D01*
X39857143Y24892857D01*
X39904762Y24845238D01*
X39952381Y24750000D01*
X39952381Y24559523D01*
X39904762Y24464285D01*
X39857143Y24416666D01*
X39761905Y24369047D01*
X38952381Y24369047D01*
X39904762Y23940476D02*
X39952381Y23797619D01*
X39952381Y23559523D01*
X39904762Y23464285D01*
X39857143Y23416666D01*
X39761905Y23369047D01*
X39666667Y23369047D01*
X39571429Y23416666D01*
X39523810Y23464285D01*
X39476190Y23559523D01*
X39428571Y23750000D01*
X39380952Y23845238D01*
X39333333Y23892857D01*
X39238095Y23940476D01*
X39142857Y23940476D01*
X39047619Y23892857D01*
X39000000Y23845238D01*
X38952381Y23750000D01*
X38952381Y23511904D01*
X39000000Y23369047D01*
D13*
X7714286Y388095D02*
X7714286Y1188095D01*
X7535714Y1188095D01*
X7428571Y1150000D01*
X7357143Y1073810D01*
X7321428Y997619D01*
X7285714Y845238D01*
X7285714Y730952D01*
X7321428Y578571D01*
X7357143Y502381D01*
X7428571Y426190D01*
X7535714Y388095D01*
X7714286Y388095D01*
X6964286Y692857D02*
X6392857Y692857D01*
X6678571Y388095D02*
X6678571Y997619D01*
X5464286Y388095D02*
X5464286Y1188095D01*
X5285714Y1188095D01*
X5178571Y1150000D01*
X5107143Y1073810D01*
X5071428Y997619D01*
X5035714Y845238D01*
X5035714Y730952D01*
X5071428Y578571D01*
X5107143Y502381D01*
X5178571Y426190D01*
X5285714Y388095D01*
X5464286Y388095D01*
X4714286Y692857D02*
X4142857Y692857D01*
X2821428Y1150000D02*
X2892857Y1188095D01*
X3000000Y1188095D01*
X3107143Y1150000D01*
X3178571Y1073810D01*
X3214286Y997619D01*
X3250000Y845238D01*
X3250000Y730952D01*
X3214286Y578571D01*
X3178571Y502381D01*
X3107143Y426190D01*
X3000000Y388095D01*
X2928571Y388095D01*
X2821428Y426190D01*
X2785714Y464286D01*
X2785714Y730952D01*
X2928571Y730952D01*
X2464286Y388095D02*
X2464286Y1188095D01*
X2035714Y388095D01*
X2035714Y1188095D01*
X1678572Y388095D02*
X1678572Y1188095D01*
X1500000Y1188095D01*
X1392857Y1150000D01*
X1321429Y1073810D01*
X1285714Y997619D01*
X1250000Y845238D01*
X1250000Y730952D01*
X1285714Y578571D01*
X1321429Y502381D01*
X1392857Y426190D01*
X1500000Y388095D01*
X1678572Y388095D01*
X23642858Y638095D02*
X23892858Y1019048D01*
X24071430Y638095D02*
X24071430Y1438095D01*
X23785715Y1438095D01*
X23714287Y1400000D01*
X23678572Y1361905D01*
X23642858Y1285714D01*
X23642858Y1171429D01*
X23678572Y1095238D01*
X23714287Y1057143D01*
X23785715Y1019048D01*
X24071430Y1019048D01*
X21785714Y1400000D02*
X21857143Y1438095D01*
X21964286Y1438095D01*
X22071429Y1400000D01*
X22142857Y1323810D01*
X22178572Y1247619D01*
X22214286Y1095238D01*
X22214286Y980952D01*
X22178572Y828571D01*
X22142857Y752381D01*
X22071429Y676190D01*
X21964286Y638095D01*
X21892857Y638095D01*
X21785714Y676190D01*
X21750000Y714286D01*
X21750000Y980952D01*
X21892857Y980952D01*
X21428572Y638095D02*
X21428572Y1438095D01*
X21000000Y638095D01*
X21000000Y1438095D01*
X20642858Y638095D02*
X20642858Y1438095D01*
X20464286Y1438095D01*
X20357143Y1400000D01*
X20285715Y1323810D01*
X20250000Y1247619D01*
X20214286Y1095238D01*
X20214286Y980952D01*
X20250000Y828571D01*
X20285715Y752381D01*
X20357143Y676190D01*
X20464286Y638095D01*
X20642858Y638095D01*
X18392857Y638095D02*
X18750000Y638095D01*
X18750000Y1438095D01*
X16607141Y1400000D02*
X16678570Y1438095D01*
X16785713Y1438095D01*
X16892856Y1400000D01*
X16964284Y1323810D01*
X16999999Y1247619D01*
X17035713Y1095238D01*
X17035713Y980952D01*
X16999999Y828571D01*
X16964284Y752381D01*
X16892856Y676190D01*
X16785713Y638095D01*
X16714284Y638095D01*
X16607141Y676190D01*
X16571427Y714286D01*
X16571427Y980952D01*
X16714284Y980952D01*
X16249999Y638095D02*
X16249999Y1438095D01*
X15821427Y638095D01*
X15821427Y1438095D01*
X15464285Y638095D02*
X15464285Y1438095D01*
X15285713Y1438095D01*
X15178570Y1400000D01*
X15107142Y1323810D01*
X15071427Y1247619D01*
X15035713Y1095238D01*
X15035713Y980952D01*
X15071427Y828571D01*
X15107142Y752381D01*
X15178570Y676190D01*
X15285713Y638095D01*
X15464285Y638095D01*
X14249998Y1438095D02*
X13999998Y638095D01*
X13749998Y1438095D01*
X13071427Y714286D02*
X13107141Y676190D01*
X13214284Y638095D01*
X13285713Y638095D01*
X13392856Y676190D01*
X13464284Y752381D01*
X13499999Y828571D01*
X13535713Y980952D01*
X13535713Y1095238D01*
X13499999Y1247619D01*
X13464284Y1323810D01*
X13392856Y1400000D01*
X13285713Y1438095D01*
X13214284Y1438095D01*
X13107141Y1400000D01*
X13071427Y1361905D01*
X12321427Y714286D02*
X12357141Y676190D01*
X12464284Y638095D01*
X12535713Y638095D01*
X12642856Y676190D01*
X12714284Y752381D01*
X12749999Y828571D01*
X12785713Y980952D01*
X12785713Y1095238D01*
X12749999Y1247619D01*
X12714284Y1323810D01*
X12642856Y1400000D01*
X12535713Y1438095D01*
X12464284Y1438095D01*
X12357141Y1400000D01*
X12321427Y1361905D01*
D14*
X43071428Y2392857D02*
X41928571Y2392857D01*
X39571428Y2392857D02*
X38428571Y2392857D01*
X39000000Y1821429D02*
X39000000Y2964286D01*
X53821428Y1142857D02*
X52678571Y1142857D01*
X48821428Y1142857D02*
X47678571Y1142857D01*
X48250000Y571429D02*
X48250000Y1714286D01*
D13*
X3138095Y42357140D02*
X3938095Y42357140D01*
X3938095Y42535712D01*
X3900000Y42642855D01*
X3823810Y42714283D01*
X3747619Y42749998D01*
X3595238Y42785712D01*
X3480952Y42785712D01*
X3328571Y42749998D01*
X3252381Y42714283D01*
X3176190Y42642855D01*
X3138095Y42535712D01*
X3138095Y42357140D01*
X3938095Y42999998D02*
X3938095Y43428569D01*
X3138095Y43214283D02*
X3938095Y43214283D01*
X3138095Y44107141D02*
X3519048Y43857141D01*
X3138095Y43678569D02*
X3938095Y43678569D01*
X3938095Y43964284D01*
X3900000Y44035712D01*
X3861905Y44071427D01*
X3785714Y44107141D01*
X3671429Y44107141D01*
X3595238Y44071427D01*
X3557143Y44035712D01*
X3519048Y43964284D01*
X3519048Y43678569D01*
X3138095Y45428570D02*
X3519048Y45178570D01*
X3138095Y44999998D02*
X3938095Y44999998D01*
X3938095Y45285713D01*
X3900000Y45357141D01*
X3861905Y45392856D01*
X3785714Y45428570D01*
X3671429Y45428570D01*
X3595238Y45392856D01*
X3557143Y45357141D01*
X3519048Y45285713D01*
X3519048Y44999998D01*
X3938095Y45678570D02*
X3138095Y46178570D01*
X3938095Y46178570D02*
X3138095Y45678570D01*
X3938095Y47500000D02*
X3938095Y47928571D01*
X3138095Y47714285D02*
X3938095Y47714285D01*
X3938095Y48107143D02*
X3138095Y48607143D01*
X3938095Y48607143D02*
X3138095Y48107143D01*
X3938095Y49392858D02*
X3938095Y49857144D01*
X3633333Y49607144D01*
X3633333Y49714286D01*
X3595238Y49785715D01*
X3557143Y49821429D01*
X3480952Y49857144D01*
X3290476Y49857144D01*
X3214286Y49821429D01*
X3176190Y49785715D01*
X3138095Y49714286D01*
X3138095Y49500001D01*
X3176190Y49428572D01*
X3214286Y49392858D01*
X3938095Y50071430D02*
X3138095Y50321430D01*
X3938095Y50571430D01*
X3938095Y50750001D02*
X3938095Y51214287D01*
X3633333Y50964287D01*
X3633333Y51071429D01*
X3595238Y51142858D01*
X3557143Y51178572D01*
X3480952Y51214287D01*
X3290476Y51214287D01*
X3214286Y51178572D01*
X3176190Y51142858D01*
X3138095Y51071429D01*
X3138095Y50857144D01*
X3176190Y50785715D01*
X3214286Y50750001D01*
X3138095Y52535716D02*
X3519048Y52285716D01*
X3138095Y52107144D02*
X3938095Y52107144D01*
X3938095Y52392859D01*
X3900000Y52464287D01*
X3861905Y52500002D01*
X3785714Y52535716D01*
X3671429Y52535716D01*
X3595238Y52500002D01*
X3557143Y52464287D01*
X3519048Y52392859D01*
X3519048Y52107144D01*
X3938095Y52750002D02*
X3938095Y53178573D01*
X3138095Y52964287D02*
X3938095Y52964287D01*
X3176190Y53392859D02*
X3138095Y53500002D01*
X3138095Y53678573D01*
X3176190Y53750002D01*
X3214286Y53785716D01*
X3290476Y53821431D01*
X3366667Y53821431D01*
X3442857Y53785716D01*
X3480952Y53750002D01*
X3519048Y53678573D01*
X3557143Y53535716D01*
X3595238Y53464288D01*
X3633333Y53428573D01*
X3709524Y53392859D01*
X3785714Y53392859D01*
X3861905Y53428573D01*
X3900000Y53464288D01*
X3938095Y53535716D01*
X3938095Y53714288D01*
X3900000Y53821431D01*
X3900000Y55107146D02*
X3938095Y55035717D01*
X3938095Y54928574D01*
X3900000Y54821431D01*
X3823810Y54750003D01*
X3747619Y54714288D01*
X3595238Y54678574D01*
X3480952Y54678574D01*
X3328571Y54714288D01*
X3252381Y54750003D01*
X3176190Y54821431D01*
X3138095Y54928574D01*
X3138095Y55000003D01*
X3176190Y55107146D01*
X3214286Y55142860D01*
X3480952Y55142860D01*
X3480952Y55000003D01*
X3138095Y55464288D02*
X3938095Y55464288D01*
X3138095Y55892860D01*
X3938095Y55892860D01*
X3138095Y56250002D02*
X3938095Y56250002D01*
X3938095Y56428574D01*
X3900000Y56535717D01*
X3823810Y56607145D01*
X3747619Y56642860D01*
X3595238Y56678574D01*
X3480952Y56678574D01*
X3328571Y56642860D01*
X3252381Y56607145D01*
X3176190Y56535717D01*
X3138095Y56428574D01*
X3138095Y56250002D01*
D14*
X54892857Y50142857D02*
X53750000Y50142857D01*
X54321429Y49571429D02*
X54321429Y50714286D01*
X50750000Y50142857D02*
X49607143Y50142857D01*
D11*
X16750000Y42750000D02*
G75*
G03X16750000Y42750000I-2500000J0D01*
G01*
X44750000Y42750000D02*
G75*
G03X44750000Y42750000I-2500000J0D01*
G01*
X16750000Y14750000D02*
G75*
G03X16750000Y14750000I-2500000J0D01*
G01*
X44762469Y14750000D02*
G75*
G03X44762469Y14750000I-2512469J0D01*
G01*
D13*
X40510000Y14250000D02*
X39260000Y14250000D01*
X40510000Y38300000D02*
X40510000Y14250000D01*
X39210000Y39600000D02*
X40510000Y38300000D01*
X21460000Y14250000D02*
X21460000Y16750000D01*
X39260000Y14250000D02*
X18960000Y14250000D01*
X39260000Y16750000D02*
X39260000Y14250000D01*
X18960000Y16750000D02*
X39260000Y16750000D01*
X18960000Y14250000D02*
X18960000Y16750000D01*
X21510000Y39600000D02*
X21510000Y37100000D01*
X39210000Y37100000D02*
X18910000Y37100000D01*
X39210000Y39600000D02*
X39210000Y37100000D01*
X18910000Y39600000D02*
X39210000Y39600000D01*
X18910000Y37100000D02*
X18910000Y39600000D01*
D15*
X16980200Y28994000D02*
X16980200Y27978000D01*
X16980200Y27978000D02*
X16980200Y26835000D01*
X16980200Y26835000D02*
X16980200Y25692000D01*
X16980200Y25692000D02*
X16980200Y24549000D01*
X16980200Y28994000D02*
X18504200Y28994000D01*
X16980200Y26835000D02*
X18504200Y26835000D01*
X16980200Y24549000D02*
X18504200Y24549000D01*
X16980200Y27978000D02*
X15329200Y27978000D01*
X16980200Y25692000D02*
X15329200Y25692000D01*
D16*
X15557800Y27978000D02*
G75*
G03X15557800Y27978000I-228600J0D01*
G01*
X18732800Y28994000D02*
G75*
G03X18732800Y28994000I-228600J0D01*
G01*
X18732800Y26835000D02*
G75*
G03X18732800Y26835000I-228600J0D01*
G01*
X18732800Y24549000D02*
G75*
G03X18732800Y24549000I-228600J0D01*
G01*
X15557800Y25692000D02*
G75*
G03X15557800Y25692000I-228600J0D01*
G01*
D17*
X5900000Y40900000D02*
X6600000Y40900000D01*
X6600000Y42100000D02*
X5900000Y42100000D01*
X9900000Y15650000D02*
X10600000Y15650000D01*
X10600000Y16850000D02*
X9900000Y16850000D01*
X2150000Y4400000D02*
X2850000Y4400000D01*
X2850000Y5600000D02*
X2150000Y5600000D01*
X32230000Y46500000D02*
X32230000Y48500000D01*
X34270000Y48500000D02*
X34270000Y46500000D01*
X29730000Y46500000D02*
X29730000Y48500000D01*
X31770000Y48500000D02*
X31770000Y46500000D01*
X28850000Y51650000D02*
X28850000Y52350000D01*
X27650000Y52350000D02*
X27650000Y51650000D01*
X29150000Y55850000D02*
X29150000Y55150000D01*
X30350000Y55150000D02*
X30350000Y55850000D01*
X26250000Y46900000D02*
X25250000Y46900000D01*
X25250000Y48600000D02*
X26250000Y48600000D01*
X26250000Y44900000D02*
X25250000Y44900000D01*
X25250000Y46600000D02*
X26250000Y46600000D01*
X27250000Y12900000D02*
X26250000Y12900000D01*
X26250000Y14600000D02*
X27250000Y14600000D01*
X26306908Y10951016D02*
X26306908Y11651016D01*
X25106908Y11651016D02*
X25106908Y10951016D01*
X26106908Y2201016D02*
X26806908Y2201016D01*
X26806908Y3401016D02*
X26106908Y3401016D01*
X34100000Y2400000D02*
X34800000Y2400000D01*
X34800000Y3600000D02*
X34100000Y3600000D01*
X26606908Y11651016D02*
X26606908Y10951016D01*
X27806908Y10951016D02*
X27806908Y11651016D01*
X26606908Y5401016D02*
X26606908Y4701016D01*
X27806908Y4701016D02*
X27806908Y5401016D01*
X26306908Y4701016D02*
X26306908Y5401016D01*
X25106908Y5401016D02*
X25106908Y4701016D01*
X37350000Y4900000D02*
X37350000Y5600000D01*
X36150000Y5600000D02*
X36150000Y4900000D01*
X24806908Y9451016D02*
X24806908Y10151016D01*
X23606908Y10151016D02*
X23606908Y9451016D01*
X23606908Y7151016D02*
X23606908Y6451016D01*
X24806908Y6451016D02*
X24806908Y7151016D01*
X16600000Y55100000D02*
X15900000Y55100000D01*
X15900000Y53900000D02*
X16600000Y53900000D01*
X9900000Y53900000D02*
X10600000Y53900000D01*
X10600000Y55100000D02*
X9900000Y55100000D01*
X10850000Y45350000D02*
X10150000Y45350000D01*
X10150000Y44150000D02*
X10850000Y44150000D01*
X7600000Y55100000D02*
X6900000Y55100000D01*
X6900000Y53900000D02*
X7600000Y53900000D01*
X35770000Y51000000D02*
X35770000Y50340000D01*
X35770000Y52660000D02*
X35770000Y52000000D01*
X35770000Y52660000D02*
X37800000Y52660000D01*
X37180000Y50340000D02*
X35770000Y50340000D01*
X41650000Y52000000D02*
X43350000Y52000000D01*
X43350000Y52000000D02*
X43350000Y49450000D01*
X41650000Y52000000D02*
X41650000Y49450000D01*
X27480000Y56000000D02*
X27480000Y56660000D01*
X27480000Y54340000D02*
X27480000Y55000000D01*
X27480000Y54340000D02*
X25450000Y54340000D01*
X26070000Y56660000D02*
X27480000Y56660000D01*
X21150000Y45300000D02*
X23450000Y45300000D01*
X23450000Y45300000D02*
X23450000Y52700000D01*
X23450000Y52700000D02*
X21150000Y52700000D01*
X18350000Y52700000D02*
X16050000Y52700000D01*
X16050000Y52700000D02*
X16050000Y45300000D01*
X16050000Y45300000D02*
X18350000Y45300000D01*
X6950000Y42590000D02*
X5050000Y42590000D01*
X5550000Y44910000D02*
X6950000Y44910000D01*
X50900000Y7840000D02*
X49000000Y7840000D01*
X49500000Y10160000D02*
X50900000Y10160000D01*
X22450000Y40940000D02*
X20550000Y40940000D01*
X21050000Y43260000D02*
X22450000Y43260000D01*
X5000000Y4320000D02*
X6000000Y4320000D01*
X6000000Y5680000D02*
X5000000Y5680000D01*
X44930000Y50000000D02*
X44930000Y51000000D01*
X43570000Y51000000D02*
X43570000Y50000000D01*
X30570000Y56000000D02*
X30570000Y55000000D01*
X31930000Y55000000D02*
X31930000Y56000000D01*
X33430000Y55000000D02*
X33430000Y56000000D01*
X32070000Y56000000D02*
X32070000Y55000000D01*
X25430000Y41600000D02*
X25430000Y42600000D01*
X24070000Y42600000D02*
X24070000Y41600000D01*
X26956908Y8231016D02*
X25956908Y8231016D01*
X25956908Y6871016D02*
X26956908Y6871016D01*
X26956908Y9731016D02*
X25956908Y9731016D01*
X25956908Y8371016D02*
X26956908Y8371016D01*
X37820000Y56000000D02*
X37820000Y55000000D01*
X39180000Y55000000D02*
X39180000Y56000000D01*
X37680000Y55000000D02*
X37680000Y56000000D01*
X36320000Y56000000D02*
X36320000Y55000000D01*
X49020000Y11350000D02*
X49020000Y11850000D01*
X51380000Y11350000D02*
X51380000Y11850000D01*
D13*
X1675000Y12075000D02*
X1725000Y12075000D01*
X1675000Y7925000D02*
X1820000Y7925000D01*
X6825000Y7925000D02*
X6680000Y7925000D01*
X6825000Y12075000D02*
X6680000Y12075000D01*
X1675000Y12075000D02*
X1675000Y7925000D01*
X6825000Y12075000D02*
X6825000Y7925000D01*
X1725000Y12075000D02*
X1725000Y13475000D01*
D17*
X32610000Y52900000D02*
X32610000Y51100000D01*
X29390000Y51100000D02*
X29390000Y53550000D01*
D13*
X30036909Y4011016D02*
X30036909Y4236016D01*
X34686909Y4011016D02*
X34686909Y4336016D01*
X34686909Y13961016D02*
X34686909Y13636016D01*
X30036909Y13961016D02*
X30036909Y13636016D01*
X30036909Y4011016D02*
X34686909Y4011016D01*
X30036909Y13961016D02*
X34686909Y13961016D01*
X30036909Y4236016D02*
X28961909Y4236016D01*
X14700000Y51975000D02*
X14700000Y47525000D01*
X7800000Y53500000D02*
X7800000Y47525000D01*
D17*
X49450000Y33430000D02*
X49450000Y31930000D01*
X49450000Y31930000D02*
X48980000Y31930000D01*
X48980000Y31930000D02*
X48980000Y29100000D01*
X42550000Y33430000D02*
X42550000Y31930000D01*
X42550000Y31930000D02*
X43020000Y31930000D01*
X43020000Y31930000D02*
X43020000Y30830000D01*
X18550000Y40920000D02*
X18050000Y40920000D01*
X18550000Y43280000D02*
X18050000Y43280000D01*
X5070000Y46000000D02*
X5070000Y46500000D01*
X7430000Y46000000D02*
X7430000Y46500000D01*
X14430000Y55000000D02*
X14430000Y54500000D01*
X12070000Y55000000D02*
X12070000Y54500000D01*
X24000000Y53200000D02*
X26000000Y53200000D01*
X26000000Y53200000D02*
X26000000Y49350000D01*
X24000000Y53200000D02*
X24000000Y49350000D01*
X12020000Y4250000D02*
X12020000Y2250000D01*
X9980000Y2250000D02*
X9980000Y4250000D01*
X33070000Y52000000D02*
X33070000Y51000000D01*
X34430000Y51000000D02*
X34430000Y52000000D01*
X3250000Y16430000D02*
X2250000Y16430000D01*
X2250000Y15070000D02*
X3250000Y15070000D01*
D18*
G36*
X48873000Y18127000D02*
X41127000Y18127000D01*
X41127000Y28373000D01*
X48873000Y28373000D01*
X48873000Y18127000D01*
X48873000Y18127000D01*
G37*
X48873000Y18127000D02*
X41127000Y18127000D01*
X41127000Y28373000D01*
X48873000Y28373000D01*
X48873000Y18127000D01*
M02*
