G04 #@! TF.GenerationSoftware,KiCad,Pcbnew,5.1.0*
G04 #@! TF.CreationDate,2019-04-16T13:05:14+02:00*
G04 #@! TF.ProjectId,KXKM_audio_battery_module,4b584b4d-5f61-4756-9469-6f5f62617474,2.0*
G04 #@! TF.SameCoordinates,PX623a7c0PY839b680*
G04 #@! TF.FileFunction,Paste,Bot*
G04 #@! TF.FilePolarity,Positive*
%FSLAX46Y46*%
G04 Gerber Fmt 4.6, Leading zero omitted, Abs format (unit mm)*
G04 Created by KiCad (PCBNEW 5.1.0) date 2019-04-16 13:05:14*
%MOMM*%
%LPD*%
G04 APERTURE LIST*
%ADD10C,0.100000*%
%ADD11C,0.875000*%
%ADD12R,0.900000X0.800000*%
%ADD13R,0.800000X0.900000*%
%ADD14R,0.600000X0.700000*%
%ADD15C,0.975000*%
%ADD16R,3.050000X2.750000*%
%ADD17R,2.200000X0.800000*%
%ADD18R,0.450000X0.700000*%
%ADD19R,0.600000X0.450000*%
%ADD20R,2.500000X1.800000*%
%ADD21C,1.250000*%
%ADD22R,0.600000X1.550000*%
%ADD23R,0.450000X1.450000*%
%ADD24R,1.060000X0.650000*%
%ADD25R,1.800000X2.500000*%
%ADD26C,1.125000*%
G04 APERTURE END LIST*
D10*
G36*
X27027691Y9223947D02*
G01*
X27048926Y9220797D01*
X27069750Y9215581D01*
X27089962Y9208349D01*
X27109368Y9199170D01*
X27127781Y9188134D01*
X27145024Y9175346D01*
X27160930Y9160930D01*
X27175346Y9145024D01*
X27188134Y9127781D01*
X27199170Y9109368D01*
X27208349Y9089962D01*
X27215581Y9069750D01*
X27220797Y9048926D01*
X27223947Y9027691D01*
X27225000Y9006250D01*
X27225000Y8493750D01*
X27223947Y8472309D01*
X27220797Y8451074D01*
X27215581Y8430250D01*
X27208349Y8410038D01*
X27199170Y8390632D01*
X27188134Y8372219D01*
X27175346Y8354976D01*
X27160930Y8339070D01*
X27145024Y8324654D01*
X27127781Y8311866D01*
X27109368Y8300830D01*
X27089962Y8291651D01*
X27069750Y8284419D01*
X27048926Y8279203D01*
X27027691Y8276053D01*
X27006250Y8275000D01*
X26568750Y8275000D01*
X26547309Y8276053D01*
X26526074Y8279203D01*
X26505250Y8284419D01*
X26485038Y8291651D01*
X26465632Y8300830D01*
X26447219Y8311866D01*
X26429976Y8324654D01*
X26414070Y8339070D01*
X26399654Y8354976D01*
X26386866Y8372219D01*
X26375830Y8390632D01*
X26366651Y8410038D01*
X26359419Y8430250D01*
X26354203Y8451074D01*
X26351053Y8472309D01*
X26350000Y8493750D01*
X26350000Y9006250D01*
X26351053Y9027691D01*
X26354203Y9048926D01*
X26359419Y9069750D01*
X26366651Y9089962D01*
X26375830Y9109368D01*
X26386866Y9127781D01*
X26399654Y9145024D01*
X26414070Y9160930D01*
X26429976Y9175346D01*
X26447219Y9188134D01*
X26465632Y9199170D01*
X26485038Y9208349D01*
X26505250Y9215581D01*
X26526074Y9220797D01*
X26547309Y9223947D01*
X26568750Y9225000D01*
X27006250Y9225000D01*
X27027691Y9223947D01*
X27027691Y9223947D01*
G37*
D11*
X26787500Y8750000D03*
D10*
G36*
X25452691Y9223947D02*
G01*
X25473926Y9220797D01*
X25494750Y9215581D01*
X25514962Y9208349D01*
X25534368Y9199170D01*
X25552781Y9188134D01*
X25570024Y9175346D01*
X25585930Y9160930D01*
X25600346Y9145024D01*
X25613134Y9127781D01*
X25624170Y9109368D01*
X25633349Y9089962D01*
X25640581Y9069750D01*
X25645797Y9048926D01*
X25648947Y9027691D01*
X25650000Y9006250D01*
X25650000Y8493750D01*
X25648947Y8472309D01*
X25645797Y8451074D01*
X25640581Y8430250D01*
X25633349Y8410038D01*
X25624170Y8390632D01*
X25613134Y8372219D01*
X25600346Y8354976D01*
X25585930Y8339070D01*
X25570024Y8324654D01*
X25552781Y8311866D01*
X25534368Y8300830D01*
X25514962Y8291651D01*
X25494750Y8284419D01*
X25473926Y8279203D01*
X25452691Y8276053D01*
X25431250Y8275000D01*
X24993750Y8275000D01*
X24972309Y8276053D01*
X24951074Y8279203D01*
X24930250Y8284419D01*
X24910038Y8291651D01*
X24890632Y8300830D01*
X24872219Y8311866D01*
X24854976Y8324654D01*
X24839070Y8339070D01*
X24824654Y8354976D01*
X24811866Y8372219D01*
X24800830Y8390632D01*
X24791651Y8410038D01*
X24784419Y8430250D01*
X24779203Y8451074D01*
X24776053Y8472309D01*
X24775000Y8493750D01*
X24775000Y9006250D01*
X24776053Y9027691D01*
X24779203Y9048926D01*
X24784419Y9069750D01*
X24791651Y9089962D01*
X24800830Y9109368D01*
X24811866Y9127781D01*
X24824654Y9145024D01*
X24839070Y9160930D01*
X24854976Y9175346D01*
X24872219Y9188134D01*
X24890632Y9199170D01*
X24910038Y9208349D01*
X24930250Y9215581D01*
X24951074Y9220797D01*
X24972309Y9223947D01*
X24993750Y9225000D01*
X25431250Y9225000D01*
X25452691Y9223947D01*
X25452691Y9223947D01*
G37*
D11*
X25212500Y8750000D03*
D12*
X40250000Y8250000D03*
X38250000Y9200000D03*
X38250000Y7300000D03*
D10*
G36*
X22452691Y9223947D02*
G01*
X22473926Y9220797D01*
X22494750Y9215581D01*
X22514962Y9208349D01*
X22534368Y9199170D01*
X22552781Y9188134D01*
X22570024Y9175346D01*
X22585930Y9160930D01*
X22600346Y9145024D01*
X22613134Y9127781D01*
X22624170Y9109368D01*
X22633349Y9089962D01*
X22640581Y9069750D01*
X22645797Y9048926D01*
X22648947Y9027691D01*
X22650000Y9006250D01*
X22650000Y8493750D01*
X22648947Y8472309D01*
X22645797Y8451074D01*
X22640581Y8430250D01*
X22633349Y8410038D01*
X22624170Y8390632D01*
X22613134Y8372219D01*
X22600346Y8354976D01*
X22585930Y8339070D01*
X22570024Y8324654D01*
X22552781Y8311866D01*
X22534368Y8300830D01*
X22514962Y8291651D01*
X22494750Y8284419D01*
X22473926Y8279203D01*
X22452691Y8276053D01*
X22431250Y8275000D01*
X21993750Y8275000D01*
X21972309Y8276053D01*
X21951074Y8279203D01*
X21930250Y8284419D01*
X21910038Y8291651D01*
X21890632Y8300830D01*
X21872219Y8311866D01*
X21854976Y8324654D01*
X21839070Y8339070D01*
X21824654Y8354976D01*
X21811866Y8372219D01*
X21800830Y8390632D01*
X21791651Y8410038D01*
X21784419Y8430250D01*
X21779203Y8451074D01*
X21776053Y8472309D01*
X21775000Y8493750D01*
X21775000Y9006250D01*
X21776053Y9027691D01*
X21779203Y9048926D01*
X21784419Y9069750D01*
X21791651Y9089962D01*
X21800830Y9109368D01*
X21811866Y9127781D01*
X21824654Y9145024D01*
X21839070Y9160930D01*
X21854976Y9175346D01*
X21872219Y9188134D01*
X21890632Y9199170D01*
X21910038Y9208349D01*
X21930250Y9215581D01*
X21951074Y9220797D01*
X21972309Y9223947D01*
X21993750Y9225000D01*
X22431250Y9225000D01*
X22452691Y9223947D01*
X22452691Y9223947D01*
G37*
D11*
X22212500Y8750000D03*
D10*
G36*
X24027691Y9223947D02*
G01*
X24048926Y9220797D01*
X24069750Y9215581D01*
X24089962Y9208349D01*
X24109368Y9199170D01*
X24127781Y9188134D01*
X24145024Y9175346D01*
X24160930Y9160930D01*
X24175346Y9145024D01*
X24188134Y9127781D01*
X24199170Y9109368D01*
X24208349Y9089962D01*
X24215581Y9069750D01*
X24220797Y9048926D01*
X24223947Y9027691D01*
X24225000Y9006250D01*
X24225000Y8493750D01*
X24223947Y8472309D01*
X24220797Y8451074D01*
X24215581Y8430250D01*
X24208349Y8410038D01*
X24199170Y8390632D01*
X24188134Y8372219D01*
X24175346Y8354976D01*
X24160930Y8339070D01*
X24145024Y8324654D01*
X24127781Y8311866D01*
X24109368Y8300830D01*
X24089962Y8291651D01*
X24069750Y8284419D01*
X24048926Y8279203D01*
X24027691Y8276053D01*
X24006250Y8275000D01*
X23568750Y8275000D01*
X23547309Y8276053D01*
X23526074Y8279203D01*
X23505250Y8284419D01*
X23485038Y8291651D01*
X23465632Y8300830D01*
X23447219Y8311866D01*
X23429976Y8324654D01*
X23414070Y8339070D01*
X23399654Y8354976D01*
X23386866Y8372219D01*
X23375830Y8390632D01*
X23366651Y8410038D01*
X23359419Y8430250D01*
X23354203Y8451074D01*
X23351053Y8472309D01*
X23350000Y8493750D01*
X23350000Y9006250D01*
X23351053Y9027691D01*
X23354203Y9048926D01*
X23359419Y9069750D01*
X23366651Y9089962D01*
X23375830Y9109368D01*
X23386866Y9127781D01*
X23399654Y9145024D01*
X23414070Y9160930D01*
X23429976Y9175346D01*
X23447219Y9188134D01*
X23465632Y9199170D01*
X23485038Y9208349D01*
X23505250Y9215581D01*
X23526074Y9220797D01*
X23547309Y9223947D01*
X23568750Y9225000D01*
X24006250Y9225000D01*
X24027691Y9223947D01*
X24027691Y9223947D01*
G37*
D11*
X23787500Y8750000D03*
D10*
G36*
X24027691Y7723947D02*
G01*
X24048926Y7720797D01*
X24069750Y7715581D01*
X24089962Y7708349D01*
X24109368Y7699170D01*
X24127781Y7688134D01*
X24145024Y7675346D01*
X24160930Y7660930D01*
X24175346Y7645024D01*
X24188134Y7627781D01*
X24199170Y7609368D01*
X24208349Y7589962D01*
X24215581Y7569750D01*
X24220797Y7548926D01*
X24223947Y7527691D01*
X24225000Y7506250D01*
X24225000Y6993750D01*
X24223947Y6972309D01*
X24220797Y6951074D01*
X24215581Y6930250D01*
X24208349Y6910038D01*
X24199170Y6890632D01*
X24188134Y6872219D01*
X24175346Y6854976D01*
X24160930Y6839070D01*
X24145024Y6824654D01*
X24127781Y6811866D01*
X24109368Y6800830D01*
X24089962Y6791651D01*
X24069750Y6784419D01*
X24048926Y6779203D01*
X24027691Y6776053D01*
X24006250Y6775000D01*
X23568750Y6775000D01*
X23547309Y6776053D01*
X23526074Y6779203D01*
X23505250Y6784419D01*
X23485038Y6791651D01*
X23465632Y6800830D01*
X23447219Y6811866D01*
X23429976Y6824654D01*
X23414070Y6839070D01*
X23399654Y6854976D01*
X23386866Y6872219D01*
X23375830Y6890632D01*
X23366651Y6910038D01*
X23359419Y6930250D01*
X23354203Y6951074D01*
X23351053Y6972309D01*
X23350000Y6993750D01*
X23350000Y7506250D01*
X23351053Y7527691D01*
X23354203Y7548926D01*
X23359419Y7569750D01*
X23366651Y7589962D01*
X23375830Y7609368D01*
X23386866Y7627781D01*
X23399654Y7645024D01*
X23414070Y7660930D01*
X23429976Y7675346D01*
X23447219Y7688134D01*
X23465632Y7699170D01*
X23485038Y7708349D01*
X23505250Y7715581D01*
X23526074Y7720797D01*
X23547309Y7723947D01*
X23568750Y7725000D01*
X24006250Y7725000D01*
X24027691Y7723947D01*
X24027691Y7723947D01*
G37*
D11*
X23787500Y7250000D03*
D10*
G36*
X22452691Y7723947D02*
G01*
X22473926Y7720797D01*
X22494750Y7715581D01*
X22514962Y7708349D01*
X22534368Y7699170D01*
X22552781Y7688134D01*
X22570024Y7675346D01*
X22585930Y7660930D01*
X22600346Y7645024D01*
X22613134Y7627781D01*
X22624170Y7609368D01*
X22633349Y7589962D01*
X22640581Y7569750D01*
X22645797Y7548926D01*
X22648947Y7527691D01*
X22650000Y7506250D01*
X22650000Y6993750D01*
X22648947Y6972309D01*
X22645797Y6951074D01*
X22640581Y6930250D01*
X22633349Y6910038D01*
X22624170Y6890632D01*
X22613134Y6872219D01*
X22600346Y6854976D01*
X22585930Y6839070D01*
X22570024Y6824654D01*
X22552781Y6811866D01*
X22534368Y6800830D01*
X22514962Y6791651D01*
X22494750Y6784419D01*
X22473926Y6779203D01*
X22452691Y6776053D01*
X22431250Y6775000D01*
X21993750Y6775000D01*
X21972309Y6776053D01*
X21951074Y6779203D01*
X21930250Y6784419D01*
X21910038Y6791651D01*
X21890632Y6800830D01*
X21872219Y6811866D01*
X21854976Y6824654D01*
X21839070Y6839070D01*
X21824654Y6854976D01*
X21811866Y6872219D01*
X21800830Y6890632D01*
X21791651Y6910038D01*
X21784419Y6930250D01*
X21779203Y6951074D01*
X21776053Y6972309D01*
X21775000Y6993750D01*
X21775000Y7506250D01*
X21776053Y7527691D01*
X21779203Y7548926D01*
X21784419Y7569750D01*
X21791651Y7589962D01*
X21800830Y7609368D01*
X21811866Y7627781D01*
X21824654Y7645024D01*
X21839070Y7660930D01*
X21854976Y7675346D01*
X21872219Y7688134D01*
X21890632Y7699170D01*
X21910038Y7708349D01*
X21930250Y7715581D01*
X21951074Y7720797D01*
X21972309Y7723947D01*
X21993750Y7725000D01*
X22431250Y7725000D01*
X22452691Y7723947D01*
X22452691Y7723947D01*
G37*
D11*
X22212500Y7250000D03*
D10*
G36*
X30027691Y9223947D02*
G01*
X30048926Y9220797D01*
X30069750Y9215581D01*
X30089962Y9208349D01*
X30109368Y9199170D01*
X30127781Y9188134D01*
X30145024Y9175346D01*
X30160930Y9160930D01*
X30175346Y9145024D01*
X30188134Y9127781D01*
X30199170Y9109368D01*
X30208349Y9089962D01*
X30215581Y9069750D01*
X30220797Y9048926D01*
X30223947Y9027691D01*
X30225000Y9006250D01*
X30225000Y8493750D01*
X30223947Y8472309D01*
X30220797Y8451074D01*
X30215581Y8430250D01*
X30208349Y8410038D01*
X30199170Y8390632D01*
X30188134Y8372219D01*
X30175346Y8354976D01*
X30160930Y8339070D01*
X30145024Y8324654D01*
X30127781Y8311866D01*
X30109368Y8300830D01*
X30089962Y8291651D01*
X30069750Y8284419D01*
X30048926Y8279203D01*
X30027691Y8276053D01*
X30006250Y8275000D01*
X29568750Y8275000D01*
X29547309Y8276053D01*
X29526074Y8279203D01*
X29505250Y8284419D01*
X29485038Y8291651D01*
X29465632Y8300830D01*
X29447219Y8311866D01*
X29429976Y8324654D01*
X29414070Y8339070D01*
X29399654Y8354976D01*
X29386866Y8372219D01*
X29375830Y8390632D01*
X29366651Y8410038D01*
X29359419Y8430250D01*
X29354203Y8451074D01*
X29351053Y8472309D01*
X29350000Y8493750D01*
X29350000Y9006250D01*
X29351053Y9027691D01*
X29354203Y9048926D01*
X29359419Y9069750D01*
X29366651Y9089962D01*
X29375830Y9109368D01*
X29386866Y9127781D01*
X29399654Y9145024D01*
X29414070Y9160930D01*
X29429976Y9175346D01*
X29447219Y9188134D01*
X29465632Y9199170D01*
X29485038Y9208349D01*
X29505250Y9215581D01*
X29526074Y9220797D01*
X29547309Y9223947D01*
X29568750Y9225000D01*
X30006250Y9225000D01*
X30027691Y9223947D01*
X30027691Y9223947D01*
G37*
D11*
X29787500Y8750000D03*
D10*
G36*
X28452691Y9223947D02*
G01*
X28473926Y9220797D01*
X28494750Y9215581D01*
X28514962Y9208349D01*
X28534368Y9199170D01*
X28552781Y9188134D01*
X28570024Y9175346D01*
X28585930Y9160930D01*
X28600346Y9145024D01*
X28613134Y9127781D01*
X28624170Y9109368D01*
X28633349Y9089962D01*
X28640581Y9069750D01*
X28645797Y9048926D01*
X28648947Y9027691D01*
X28650000Y9006250D01*
X28650000Y8493750D01*
X28648947Y8472309D01*
X28645797Y8451074D01*
X28640581Y8430250D01*
X28633349Y8410038D01*
X28624170Y8390632D01*
X28613134Y8372219D01*
X28600346Y8354976D01*
X28585930Y8339070D01*
X28570024Y8324654D01*
X28552781Y8311866D01*
X28534368Y8300830D01*
X28514962Y8291651D01*
X28494750Y8284419D01*
X28473926Y8279203D01*
X28452691Y8276053D01*
X28431250Y8275000D01*
X27993750Y8275000D01*
X27972309Y8276053D01*
X27951074Y8279203D01*
X27930250Y8284419D01*
X27910038Y8291651D01*
X27890632Y8300830D01*
X27872219Y8311866D01*
X27854976Y8324654D01*
X27839070Y8339070D01*
X27824654Y8354976D01*
X27811866Y8372219D01*
X27800830Y8390632D01*
X27791651Y8410038D01*
X27784419Y8430250D01*
X27779203Y8451074D01*
X27776053Y8472309D01*
X27775000Y8493750D01*
X27775000Y9006250D01*
X27776053Y9027691D01*
X27779203Y9048926D01*
X27784419Y9069750D01*
X27791651Y9089962D01*
X27800830Y9109368D01*
X27811866Y9127781D01*
X27824654Y9145024D01*
X27839070Y9160930D01*
X27854976Y9175346D01*
X27872219Y9188134D01*
X27890632Y9199170D01*
X27910038Y9208349D01*
X27930250Y9215581D01*
X27951074Y9220797D01*
X27972309Y9223947D01*
X27993750Y9225000D01*
X28431250Y9225000D01*
X28452691Y9223947D01*
X28452691Y9223947D01*
G37*
D11*
X28212500Y8750000D03*
D10*
G36*
X28452691Y7723947D02*
G01*
X28473926Y7720797D01*
X28494750Y7715581D01*
X28514962Y7708349D01*
X28534368Y7699170D01*
X28552781Y7688134D01*
X28570024Y7675346D01*
X28585930Y7660930D01*
X28600346Y7645024D01*
X28613134Y7627781D01*
X28624170Y7609368D01*
X28633349Y7589962D01*
X28640581Y7569750D01*
X28645797Y7548926D01*
X28648947Y7527691D01*
X28650000Y7506250D01*
X28650000Y6993750D01*
X28648947Y6972309D01*
X28645797Y6951074D01*
X28640581Y6930250D01*
X28633349Y6910038D01*
X28624170Y6890632D01*
X28613134Y6872219D01*
X28600346Y6854976D01*
X28585930Y6839070D01*
X28570024Y6824654D01*
X28552781Y6811866D01*
X28534368Y6800830D01*
X28514962Y6791651D01*
X28494750Y6784419D01*
X28473926Y6779203D01*
X28452691Y6776053D01*
X28431250Y6775000D01*
X27993750Y6775000D01*
X27972309Y6776053D01*
X27951074Y6779203D01*
X27930250Y6784419D01*
X27910038Y6791651D01*
X27890632Y6800830D01*
X27872219Y6811866D01*
X27854976Y6824654D01*
X27839070Y6839070D01*
X27824654Y6854976D01*
X27811866Y6872219D01*
X27800830Y6890632D01*
X27791651Y6910038D01*
X27784419Y6930250D01*
X27779203Y6951074D01*
X27776053Y6972309D01*
X27775000Y6993750D01*
X27775000Y7506250D01*
X27776053Y7527691D01*
X27779203Y7548926D01*
X27784419Y7569750D01*
X27791651Y7589962D01*
X27800830Y7609368D01*
X27811866Y7627781D01*
X27824654Y7645024D01*
X27839070Y7660930D01*
X27854976Y7675346D01*
X27872219Y7688134D01*
X27890632Y7699170D01*
X27910038Y7708349D01*
X27930250Y7715581D01*
X27951074Y7720797D01*
X27972309Y7723947D01*
X27993750Y7725000D01*
X28431250Y7725000D01*
X28452691Y7723947D01*
X28452691Y7723947D01*
G37*
D11*
X28212500Y7250000D03*
D10*
G36*
X30027691Y7723947D02*
G01*
X30048926Y7720797D01*
X30069750Y7715581D01*
X30089962Y7708349D01*
X30109368Y7699170D01*
X30127781Y7688134D01*
X30145024Y7675346D01*
X30160930Y7660930D01*
X30175346Y7645024D01*
X30188134Y7627781D01*
X30199170Y7609368D01*
X30208349Y7589962D01*
X30215581Y7569750D01*
X30220797Y7548926D01*
X30223947Y7527691D01*
X30225000Y7506250D01*
X30225000Y6993750D01*
X30223947Y6972309D01*
X30220797Y6951074D01*
X30215581Y6930250D01*
X30208349Y6910038D01*
X30199170Y6890632D01*
X30188134Y6872219D01*
X30175346Y6854976D01*
X30160930Y6839070D01*
X30145024Y6824654D01*
X30127781Y6811866D01*
X30109368Y6800830D01*
X30089962Y6791651D01*
X30069750Y6784419D01*
X30048926Y6779203D01*
X30027691Y6776053D01*
X30006250Y6775000D01*
X29568750Y6775000D01*
X29547309Y6776053D01*
X29526074Y6779203D01*
X29505250Y6784419D01*
X29485038Y6791651D01*
X29465632Y6800830D01*
X29447219Y6811866D01*
X29429976Y6824654D01*
X29414070Y6839070D01*
X29399654Y6854976D01*
X29386866Y6872219D01*
X29375830Y6890632D01*
X29366651Y6910038D01*
X29359419Y6930250D01*
X29354203Y6951074D01*
X29351053Y6972309D01*
X29350000Y6993750D01*
X29350000Y7506250D01*
X29351053Y7527691D01*
X29354203Y7548926D01*
X29359419Y7569750D01*
X29366651Y7589962D01*
X29375830Y7609368D01*
X29386866Y7627781D01*
X29399654Y7645024D01*
X29414070Y7660930D01*
X29429976Y7675346D01*
X29447219Y7688134D01*
X29465632Y7699170D01*
X29485038Y7708349D01*
X29505250Y7715581D01*
X29526074Y7720797D01*
X29547309Y7723947D01*
X29568750Y7725000D01*
X30006250Y7725000D01*
X30027691Y7723947D01*
X30027691Y7723947D01*
G37*
D11*
X29787500Y7250000D03*
D13*
X21800000Y17500000D03*
X23700000Y17500000D03*
X22750000Y15500000D03*
X17550000Y17500000D03*
X19450000Y17500000D03*
X18500000Y15500000D03*
D14*
X49000000Y43000000D03*
X47600000Y43000000D03*
D10*
G36*
X37480142Y54673826D02*
G01*
X37503803Y54670316D01*
X37527007Y54664504D01*
X37549529Y54656446D01*
X37571153Y54646218D01*
X37591670Y54633921D01*
X37610883Y54619671D01*
X37628607Y54603607D01*
X37644671Y54585883D01*
X37658921Y54566670D01*
X37671218Y54546153D01*
X37681446Y54524529D01*
X37689504Y54502007D01*
X37695316Y54478803D01*
X37698826Y54455142D01*
X37700000Y54431250D01*
X37700000Y53943750D01*
X37698826Y53919858D01*
X37695316Y53896197D01*
X37689504Y53872993D01*
X37681446Y53850471D01*
X37671218Y53828847D01*
X37658921Y53808330D01*
X37644671Y53789117D01*
X37628607Y53771393D01*
X37610883Y53755329D01*
X37591670Y53741079D01*
X37571153Y53728782D01*
X37549529Y53718554D01*
X37527007Y53710496D01*
X37503803Y53704684D01*
X37480142Y53701174D01*
X37456250Y53700000D01*
X36543750Y53700000D01*
X36519858Y53701174D01*
X36496197Y53704684D01*
X36472993Y53710496D01*
X36450471Y53718554D01*
X36428847Y53728782D01*
X36408330Y53741079D01*
X36389117Y53755329D01*
X36371393Y53771393D01*
X36355329Y53789117D01*
X36341079Y53808330D01*
X36328782Y53828847D01*
X36318554Y53850471D01*
X36310496Y53872993D01*
X36304684Y53896197D01*
X36301174Y53919858D01*
X36300000Y53943750D01*
X36300000Y54431250D01*
X36301174Y54455142D01*
X36304684Y54478803D01*
X36310496Y54502007D01*
X36318554Y54524529D01*
X36328782Y54546153D01*
X36341079Y54566670D01*
X36355329Y54585883D01*
X36371393Y54603607D01*
X36389117Y54619671D01*
X36408330Y54633921D01*
X36428847Y54646218D01*
X36450471Y54656446D01*
X36472993Y54664504D01*
X36496197Y54670316D01*
X36519858Y54673826D01*
X36543750Y54675000D01*
X37456250Y54675000D01*
X37480142Y54673826D01*
X37480142Y54673826D01*
G37*
D15*
X37000000Y54187500D03*
D10*
G36*
X37480142Y52798826D02*
G01*
X37503803Y52795316D01*
X37527007Y52789504D01*
X37549529Y52781446D01*
X37571153Y52771218D01*
X37591670Y52758921D01*
X37610883Y52744671D01*
X37628607Y52728607D01*
X37644671Y52710883D01*
X37658921Y52691670D01*
X37671218Y52671153D01*
X37681446Y52649529D01*
X37689504Y52627007D01*
X37695316Y52603803D01*
X37698826Y52580142D01*
X37700000Y52556250D01*
X37700000Y52068750D01*
X37698826Y52044858D01*
X37695316Y52021197D01*
X37689504Y51997993D01*
X37681446Y51975471D01*
X37671218Y51953847D01*
X37658921Y51933330D01*
X37644671Y51914117D01*
X37628607Y51896393D01*
X37610883Y51880329D01*
X37591670Y51866079D01*
X37571153Y51853782D01*
X37549529Y51843554D01*
X37527007Y51835496D01*
X37503803Y51829684D01*
X37480142Y51826174D01*
X37456250Y51825000D01*
X36543750Y51825000D01*
X36519858Y51826174D01*
X36496197Y51829684D01*
X36472993Y51835496D01*
X36450471Y51843554D01*
X36428847Y51853782D01*
X36408330Y51866079D01*
X36389117Y51880329D01*
X36371393Y51896393D01*
X36355329Y51914117D01*
X36341079Y51933330D01*
X36328782Y51953847D01*
X36318554Y51975471D01*
X36310496Y51997993D01*
X36304684Y52021197D01*
X36301174Y52044858D01*
X36300000Y52068750D01*
X36300000Y52556250D01*
X36301174Y52580142D01*
X36304684Y52603803D01*
X36310496Y52627007D01*
X36318554Y52649529D01*
X36328782Y52671153D01*
X36341079Y52691670D01*
X36355329Y52710883D01*
X36371393Y52728607D01*
X36389117Y52744671D01*
X36408330Y52758921D01*
X36428847Y52771218D01*
X36450471Y52781446D01*
X36472993Y52789504D01*
X36496197Y52795316D01*
X36519858Y52798826D01*
X36543750Y52800000D01*
X37456250Y52800000D01*
X37480142Y52798826D01*
X37480142Y52798826D01*
G37*
D15*
X37000000Y52312500D03*
D16*
X49175000Y10775000D03*
X52525000Y7725000D03*
X49175000Y7725000D03*
X52525000Y10775000D03*
D17*
X44550000Y11530000D03*
X44550000Y10390000D03*
X44550000Y8110000D03*
X44550000Y6970000D03*
D10*
G36*
X43702691Y46973947D02*
G01*
X43723926Y46970797D01*
X43744750Y46965581D01*
X43764962Y46958349D01*
X43784368Y46949170D01*
X43802781Y46938134D01*
X43820024Y46925346D01*
X43835930Y46910930D01*
X43850346Y46895024D01*
X43863134Y46877781D01*
X43874170Y46859368D01*
X43883349Y46839962D01*
X43890581Y46819750D01*
X43895797Y46798926D01*
X43898947Y46777691D01*
X43900000Y46756250D01*
X43900000Y46243750D01*
X43898947Y46222309D01*
X43895797Y46201074D01*
X43890581Y46180250D01*
X43883349Y46160038D01*
X43874170Y46140632D01*
X43863134Y46122219D01*
X43850346Y46104976D01*
X43835930Y46089070D01*
X43820024Y46074654D01*
X43802781Y46061866D01*
X43784368Y46050830D01*
X43764962Y46041651D01*
X43744750Y46034419D01*
X43723926Y46029203D01*
X43702691Y46026053D01*
X43681250Y46025000D01*
X43243750Y46025000D01*
X43222309Y46026053D01*
X43201074Y46029203D01*
X43180250Y46034419D01*
X43160038Y46041651D01*
X43140632Y46050830D01*
X43122219Y46061866D01*
X43104976Y46074654D01*
X43089070Y46089070D01*
X43074654Y46104976D01*
X43061866Y46122219D01*
X43050830Y46140632D01*
X43041651Y46160038D01*
X43034419Y46180250D01*
X43029203Y46201074D01*
X43026053Y46222309D01*
X43025000Y46243750D01*
X43025000Y46756250D01*
X43026053Y46777691D01*
X43029203Y46798926D01*
X43034419Y46819750D01*
X43041651Y46839962D01*
X43050830Y46859368D01*
X43061866Y46877781D01*
X43074654Y46895024D01*
X43089070Y46910930D01*
X43104976Y46925346D01*
X43122219Y46938134D01*
X43140632Y46949170D01*
X43160038Y46958349D01*
X43180250Y46965581D01*
X43201074Y46970797D01*
X43222309Y46973947D01*
X43243750Y46975000D01*
X43681250Y46975000D01*
X43702691Y46973947D01*
X43702691Y46973947D01*
G37*
D11*
X43462500Y46500000D03*
D10*
G36*
X45277691Y46973947D02*
G01*
X45298926Y46970797D01*
X45319750Y46965581D01*
X45339962Y46958349D01*
X45359368Y46949170D01*
X45377781Y46938134D01*
X45395024Y46925346D01*
X45410930Y46910930D01*
X45425346Y46895024D01*
X45438134Y46877781D01*
X45449170Y46859368D01*
X45458349Y46839962D01*
X45465581Y46819750D01*
X45470797Y46798926D01*
X45473947Y46777691D01*
X45475000Y46756250D01*
X45475000Y46243750D01*
X45473947Y46222309D01*
X45470797Y46201074D01*
X45465581Y46180250D01*
X45458349Y46160038D01*
X45449170Y46140632D01*
X45438134Y46122219D01*
X45425346Y46104976D01*
X45410930Y46089070D01*
X45395024Y46074654D01*
X45377781Y46061866D01*
X45359368Y46050830D01*
X45339962Y46041651D01*
X45319750Y46034419D01*
X45298926Y46029203D01*
X45277691Y46026053D01*
X45256250Y46025000D01*
X44818750Y46025000D01*
X44797309Y46026053D01*
X44776074Y46029203D01*
X44755250Y46034419D01*
X44735038Y46041651D01*
X44715632Y46050830D01*
X44697219Y46061866D01*
X44679976Y46074654D01*
X44664070Y46089070D01*
X44649654Y46104976D01*
X44636866Y46122219D01*
X44625830Y46140632D01*
X44616651Y46160038D01*
X44609419Y46180250D01*
X44604203Y46201074D01*
X44601053Y46222309D01*
X44600000Y46243750D01*
X44600000Y46756250D01*
X44601053Y46777691D01*
X44604203Y46798926D01*
X44609419Y46819750D01*
X44616651Y46839962D01*
X44625830Y46859368D01*
X44636866Y46877781D01*
X44649654Y46895024D01*
X44664070Y46910930D01*
X44679976Y46925346D01*
X44697219Y46938134D01*
X44715632Y46949170D01*
X44735038Y46958349D01*
X44755250Y46965581D01*
X44776074Y46970797D01*
X44797309Y46973947D01*
X44818750Y46975000D01*
X45256250Y46975000D01*
X45277691Y46973947D01*
X45277691Y46973947D01*
G37*
D11*
X45037500Y46500000D03*
D10*
G36*
X48277691Y46973947D02*
G01*
X48298926Y46970797D01*
X48319750Y46965581D01*
X48339962Y46958349D01*
X48359368Y46949170D01*
X48377781Y46938134D01*
X48395024Y46925346D01*
X48410930Y46910930D01*
X48425346Y46895024D01*
X48438134Y46877781D01*
X48449170Y46859368D01*
X48458349Y46839962D01*
X48465581Y46819750D01*
X48470797Y46798926D01*
X48473947Y46777691D01*
X48475000Y46756250D01*
X48475000Y46243750D01*
X48473947Y46222309D01*
X48470797Y46201074D01*
X48465581Y46180250D01*
X48458349Y46160038D01*
X48449170Y46140632D01*
X48438134Y46122219D01*
X48425346Y46104976D01*
X48410930Y46089070D01*
X48395024Y46074654D01*
X48377781Y46061866D01*
X48359368Y46050830D01*
X48339962Y46041651D01*
X48319750Y46034419D01*
X48298926Y46029203D01*
X48277691Y46026053D01*
X48256250Y46025000D01*
X47818750Y46025000D01*
X47797309Y46026053D01*
X47776074Y46029203D01*
X47755250Y46034419D01*
X47735038Y46041651D01*
X47715632Y46050830D01*
X47697219Y46061866D01*
X47679976Y46074654D01*
X47664070Y46089070D01*
X47649654Y46104976D01*
X47636866Y46122219D01*
X47625830Y46140632D01*
X47616651Y46160038D01*
X47609419Y46180250D01*
X47604203Y46201074D01*
X47601053Y46222309D01*
X47600000Y46243750D01*
X47600000Y46756250D01*
X47601053Y46777691D01*
X47604203Y46798926D01*
X47609419Y46819750D01*
X47616651Y46839962D01*
X47625830Y46859368D01*
X47636866Y46877781D01*
X47649654Y46895024D01*
X47664070Y46910930D01*
X47679976Y46925346D01*
X47697219Y46938134D01*
X47715632Y46949170D01*
X47735038Y46958349D01*
X47755250Y46965581D01*
X47776074Y46970797D01*
X47797309Y46973947D01*
X47818750Y46975000D01*
X48256250Y46975000D01*
X48277691Y46973947D01*
X48277691Y46973947D01*
G37*
D11*
X48037500Y46500000D03*
D10*
G36*
X46702691Y46973947D02*
G01*
X46723926Y46970797D01*
X46744750Y46965581D01*
X46764962Y46958349D01*
X46784368Y46949170D01*
X46802781Y46938134D01*
X46820024Y46925346D01*
X46835930Y46910930D01*
X46850346Y46895024D01*
X46863134Y46877781D01*
X46874170Y46859368D01*
X46883349Y46839962D01*
X46890581Y46819750D01*
X46895797Y46798926D01*
X46898947Y46777691D01*
X46900000Y46756250D01*
X46900000Y46243750D01*
X46898947Y46222309D01*
X46895797Y46201074D01*
X46890581Y46180250D01*
X46883349Y46160038D01*
X46874170Y46140632D01*
X46863134Y46122219D01*
X46850346Y46104976D01*
X46835930Y46089070D01*
X46820024Y46074654D01*
X46802781Y46061866D01*
X46784368Y46050830D01*
X46764962Y46041651D01*
X46744750Y46034419D01*
X46723926Y46029203D01*
X46702691Y46026053D01*
X46681250Y46025000D01*
X46243750Y46025000D01*
X46222309Y46026053D01*
X46201074Y46029203D01*
X46180250Y46034419D01*
X46160038Y46041651D01*
X46140632Y46050830D01*
X46122219Y46061866D01*
X46104976Y46074654D01*
X46089070Y46089070D01*
X46074654Y46104976D01*
X46061866Y46122219D01*
X46050830Y46140632D01*
X46041651Y46160038D01*
X46034419Y46180250D01*
X46029203Y46201074D01*
X46026053Y46222309D01*
X46025000Y46243750D01*
X46025000Y46756250D01*
X46026053Y46777691D01*
X46029203Y46798926D01*
X46034419Y46819750D01*
X46041651Y46839962D01*
X46050830Y46859368D01*
X46061866Y46877781D01*
X46074654Y46895024D01*
X46089070Y46910930D01*
X46104976Y46925346D01*
X46122219Y46938134D01*
X46140632Y46949170D01*
X46160038Y46958349D01*
X46180250Y46965581D01*
X46201074Y46970797D01*
X46222309Y46973947D01*
X46243750Y46975000D01*
X46681250Y46975000D01*
X46702691Y46973947D01*
X46702691Y46973947D01*
G37*
D11*
X46462500Y46500000D03*
D10*
G36*
X49777691Y45398947D02*
G01*
X49798926Y45395797D01*
X49819750Y45390581D01*
X49839962Y45383349D01*
X49859368Y45374170D01*
X49877781Y45363134D01*
X49895024Y45350346D01*
X49910930Y45335930D01*
X49925346Y45320024D01*
X49938134Y45302781D01*
X49949170Y45284368D01*
X49958349Y45264962D01*
X49965581Y45244750D01*
X49970797Y45223926D01*
X49973947Y45202691D01*
X49975000Y45181250D01*
X49975000Y44743750D01*
X49973947Y44722309D01*
X49970797Y44701074D01*
X49965581Y44680250D01*
X49958349Y44660038D01*
X49949170Y44640632D01*
X49938134Y44622219D01*
X49925346Y44604976D01*
X49910930Y44589070D01*
X49895024Y44574654D01*
X49877781Y44561866D01*
X49859368Y44550830D01*
X49839962Y44541651D01*
X49819750Y44534419D01*
X49798926Y44529203D01*
X49777691Y44526053D01*
X49756250Y44525000D01*
X49243750Y44525000D01*
X49222309Y44526053D01*
X49201074Y44529203D01*
X49180250Y44534419D01*
X49160038Y44541651D01*
X49140632Y44550830D01*
X49122219Y44561866D01*
X49104976Y44574654D01*
X49089070Y44589070D01*
X49074654Y44604976D01*
X49061866Y44622219D01*
X49050830Y44640632D01*
X49041651Y44660038D01*
X49034419Y44680250D01*
X49029203Y44701074D01*
X49026053Y44722309D01*
X49025000Y44743750D01*
X49025000Y45181250D01*
X49026053Y45202691D01*
X49029203Y45223926D01*
X49034419Y45244750D01*
X49041651Y45264962D01*
X49050830Y45284368D01*
X49061866Y45302781D01*
X49074654Y45320024D01*
X49089070Y45335930D01*
X49104976Y45350346D01*
X49122219Y45363134D01*
X49140632Y45374170D01*
X49160038Y45383349D01*
X49180250Y45390581D01*
X49201074Y45395797D01*
X49222309Y45398947D01*
X49243750Y45400000D01*
X49756250Y45400000D01*
X49777691Y45398947D01*
X49777691Y45398947D01*
G37*
D11*
X49500000Y44962500D03*
D10*
G36*
X49777691Y46973947D02*
G01*
X49798926Y46970797D01*
X49819750Y46965581D01*
X49839962Y46958349D01*
X49859368Y46949170D01*
X49877781Y46938134D01*
X49895024Y46925346D01*
X49910930Y46910930D01*
X49925346Y46895024D01*
X49938134Y46877781D01*
X49949170Y46859368D01*
X49958349Y46839962D01*
X49965581Y46819750D01*
X49970797Y46798926D01*
X49973947Y46777691D01*
X49975000Y46756250D01*
X49975000Y46318750D01*
X49973947Y46297309D01*
X49970797Y46276074D01*
X49965581Y46255250D01*
X49958349Y46235038D01*
X49949170Y46215632D01*
X49938134Y46197219D01*
X49925346Y46179976D01*
X49910930Y46164070D01*
X49895024Y46149654D01*
X49877781Y46136866D01*
X49859368Y46125830D01*
X49839962Y46116651D01*
X49819750Y46109419D01*
X49798926Y46104203D01*
X49777691Y46101053D01*
X49756250Y46100000D01*
X49243750Y46100000D01*
X49222309Y46101053D01*
X49201074Y46104203D01*
X49180250Y46109419D01*
X49160038Y46116651D01*
X49140632Y46125830D01*
X49122219Y46136866D01*
X49104976Y46149654D01*
X49089070Y46164070D01*
X49074654Y46179976D01*
X49061866Y46197219D01*
X49050830Y46215632D01*
X49041651Y46235038D01*
X49034419Y46255250D01*
X49029203Y46276074D01*
X49026053Y46297309D01*
X49025000Y46318750D01*
X49025000Y46756250D01*
X49026053Y46777691D01*
X49029203Y46798926D01*
X49034419Y46819750D01*
X49041651Y46839962D01*
X49050830Y46859368D01*
X49061866Y46877781D01*
X49074654Y46895024D01*
X49089070Y46910930D01*
X49104976Y46925346D01*
X49122219Y46938134D01*
X49140632Y46949170D01*
X49160038Y46958349D01*
X49180250Y46965581D01*
X49201074Y46970797D01*
X49222309Y46973947D01*
X49243750Y46975000D01*
X49756250Y46975000D01*
X49777691Y46973947D01*
X49777691Y46973947D01*
G37*
D11*
X49500000Y46537500D03*
D10*
G36*
X51277691Y46973947D02*
G01*
X51298926Y46970797D01*
X51319750Y46965581D01*
X51339962Y46958349D01*
X51359368Y46949170D01*
X51377781Y46938134D01*
X51395024Y46925346D01*
X51410930Y46910930D01*
X51425346Y46895024D01*
X51438134Y46877781D01*
X51449170Y46859368D01*
X51458349Y46839962D01*
X51465581Y46819750D01*
X51470797Y46798926D01*
X51473947Y46777691D01*
X51475000Y46756250D01*
X51475000Y46318750D01*
X51473947Y46297309D01*
X51470797Y46276074D01*
X51465581Y46255250D01*
X51458349Y46235038D01*
X51449170Y46215632D01*
X51438134Y46197219D01*
X51425346Y46179976D01*
X51410930Y46164070D01*
X51395024Y46149654D01*
X51377781Y46136866D01*
X51359368Y46125830D01*
X51339962Y46116651D01*
X51319750Y46109419D01*
X51298926Y46104203D01*
X51277691Y46101053D01*
X51256250Y46100000D01*
X50743750Y46100000D01*
X50722309Y46101053D01*
X50701074Y46104203D01*
X50680250Y46109419D01*
X50660038Y46116651D01*
X50640632Y46125830D01*
X50622219Y46136866D01*
X50604976Y46149654D01*
X50589070Y46164070D01*
X50574654Y46179976D01*
X50561866Y46197219D01*
X50550830Y46215632D01*
X50541651Y46235038D01*
X50534419Y46255250D01*
X50529203Y46276074D01*
X50526053Y46297309D01*
X50525000Y46318750D01*
X50525000Y46756250D01*
X50526053Y46777691D01*
X50529203Y46798926D01*
X50534419Y46819750D01*
X50541651Y46839962D01*
X50550830Y46859368D01*
X50561866Y46877781D01*
X50574654Y46895024D01*
X50589070Y46910930D01*
X50604976Y46925346D01*
X50622219Y46938134D01*
X50640632Y46949170D01*
X50660038Y46958349D01*
X50680250Y46965581D01*
X50701074Y46970797D01*
X50722309Y46973947D01*
X50743750Y46975000D01*
X51256250Y46975000D01*
X51277691Y46973947D01*
X51277691Y46973947D01*
G37*
D11*
X51000000Y46537500D03*
D10*
G36*
X51277691Y45398947D02*
G01*
X51298926Y45395797D01*
X51319750Y45390581D01*
X51339962Y45383349D01*
X51359368Y45374170D01*
X51377781Y45363134D01*
X51395024Y45350346D01*
X51410930Y45335930D01*
X51425346Y45320024D01*
X51438134Y45302781D01*
X51449170Y45284368D01*
X51458349Y45264962D01*
X51465581Y45244750D01*
X51470797Y45223926D01*
X51473947Y45202691D01*
X51475000Y45181250D01*
X51475000Y44743750D01*
X51473947Y44722309D01*
X51470797Y44701074D01*
X51465581Y44680250D01*
X51458349Y44660038D01*
X51449170Y44640632D01*
X51438134Y44622219D01*
X51425346Y44604976D01*
X51410930Y44589070D01*
X51395024Y44574654D01*
X51377781Y44561866D01*
X51359368Y44550830D01*
X51339962Y44541651D01*
X51319750Y44534419D01*
X51298926Y44529203D01*
X51277691Y44526053D01*
X51256250Y44525000D01*
X50743750Y44525000D01*
X50722309Y44526053D01*
X50701074Y44529203D01*
X50680250Y44534419D01*
X50660038Y44541651D01*
X50640632Y44550830D01*
X50622219Y44561866D01*
X50604976Y44574654D01*
X50589070Y44589070D01*
X50574654Y44604976D01*
X50561866Y44622219D01*
X50550830Y44640632D01*
X50541651Y44660038D01*
X50534419Y44680250D01*
X50529203Y44701074D01*
X50526053Y44722309D01*
X50525000Y44743750D01*
X50525000Y45181250D01*
X50526053Y45202691D01*
X50529203Y45223926D01*
X50534419Y45244750D01*
X50541651Y45264962D01*
X50550830Y45284368D01*
X50561866Y45302781D01*
X50574654Y45320024D01*
X50589070Y45335930D01*
X50604976Y45350346D01*
X50622219Y45363134D01*
X50640632Y45374170D01*
X50660038Y45383349D01*
X50680250Y45390581D01*
X50701074Y45395797D01*
X50722309Y45398947D01*
X50743750Y45400000D01*
X51256250Y45400000D01*
X51277691Y45398947D01*
X51277691Y45398947D01*
G37*
D11*
X51000000Y44962500D03*
D18*
X23850000Y47750000D03*
X25150000Y47750000D03*
X24500000Y45750000D03*
D10*
G36*
X15952691Y54973947D02*
G01*
X15973926Y54970797D01*
X15994750Y54965581D01*
X16014962Y54958349D01*
X16034368Y54949170D01*
X16052781Y54938134D01*
X16070024Y54925346D01*
X16085930Y54910930D01*
X16100346Y54895024D01*
X16113134Y54877781D01*
X16124170Y54859368D01*
X16133349Y54839962D01*
X16140581Y54819750D01*
X16145797Y54798926D01*
X16148947Y54777691D01*
X16150000Y54756250D01*
X16150000Y54243750D01*
X16148947Y54222309D01*
X16145797Y54201074D01*
X16140581Y54180250D01*
X16133349Y54160038D01*
X16124170Y54140632D01*
X16113134Y54122219D01*
X16100346Y54104976D01*
X16085930Y54089070D01*
X16070024Y54074654D01*
X16052781Y54061866D01*
X16034368Y54050830D01*
X16014962Y54041651D01*
X15994750Y54034419D01*
X15973926Y54029203D01*
X15952691Y54026053D01*
X15931250Y54025000D01*
X15493750Y54025000D01*
X15472309Y54026053D01*
X15451074Y54029203D01*
X15430250Y54034419D01*
X15410038Y54041651D01*
X15390632Y54050830D01*
X15372219Y54061866D01*
X15354976Y54074654D01*
X15339070Y54089070D01*
X15324654Y54104976D01*
X15311866Y54122219D01*
X15300830Y54140632D01*
X15291651Y54160038D01*
X15284419Y54180250D01*
X15279203Y54201074D01*
X15276053Y54222309D01*
X15275000Y54243750D01*
X15275000Y54756250D01*
X15276053Y54777691D01*
X15279203Y54798926D01*
X15284419Y54819750D01*
X15291651Y54839962D01*
X15300830Y54859368D01*
X15311866Y54877781D01*
X15324654Y54895024D01*
X15339070Y54910930D01*
X15354976Y54925346D01*
X15372219Y54938134D01*
X15390632Y54949170D01*
X15410038Y54958349D01*
X15430250Y54965581D01*
X15451074Y54970797D01*
X15472309Y54973947D01*
X15493750Y54975000D01*
X15931250Y54975000D01*
X15952691Y54973947D01*
X15952691Y54973947D01*
G37*
D11*
X15712500Y54500000D03*
D10*
G36*
X17527691Y54973947D02*
G01*
X17548926Y54970797D01*
X17569750Y54965581D01*
X17589962Y54958349D01*
X17609368Y54949170D01*
X17627781Y54938134D01*
X17645024Y54925346D01*
X17660930Y54910930D01*
X17675346Y54895024D01*
X17688134Y54877781D01*
X17699170Y54859368D01*
X17708349Y54839962D01*
X17715581Y54819750D01*
X17720797Y54798926D01*
X17723947Y54777691D01*
X17725000Y54756250D01*
X17725000Y54243750D01*
X17723947Y54222309D01*
X17720797Y54201074D01*
X17715581Y54180250D01*
X17708349Y54160038D01*
X17699170Y54140632D01*
X17688134Y54122219D01*
X17675346Y54104976D01*
X17660930Y54089070D01*
X17645024Y54074654D01*
X17627781Y54061866D01*
X17609368Y54050830D01*
X17589962Y54041651D01*
X17569750Y54034419D01*
X17548926Y54029203D01*
X17527691Y54026053D01*
X17506250Y54025000D01*
X17068750Y54025000D01*
X17047309Y54026053D01*
X17026074Y54029203D01*
X17005250Y54034419D01*
X16985038Y54041651D01*
X16965632Y54050830D01*
X16947219Y54061866D01*
X16929976Y54074654D01*
X16914070Y54089070D01*
X16899654Y54104976D01*
X16886866Y54122219D01*
X16875830Y54140632D01*
X16866651Y54160038D01*
X16859419Y54180250D01*
X16854203Y54201074D01*
X16851053Y54222309D01*
X16850000Y54243750D01*
X16850000Y54756250D01*
X16851053Y54777691D01*
X16854203Y54798926D01*
X16859419Y54819750D01*
X16866651Y54839962D01*
X16875830Y54859368D01*
X16886866Y54877781D01*
X16899654Y54895024D01*
X16914070Y54910930D01*
X16929976Y54925346D01*
X16947219Y54938134D01*
X16965632Y54949170D01*
X16985038Y54958349D01*
X17005250Y54965581D01*
X17026074Y54970797D01*
X17047309Y54973947D01*
X17068750Y54975000D01*
X17506250Y54975000D01*
X17527691Y54973947D01*
X17527691Y54973947D01*
G37*
D11*
X17287500Y54500000D03*
D10*
G36*
X20527691Y54973947D02*
G01*
X20548926Y54970797D01*
X20569750Y54965581D01*
X20589962Y54958349D01*
X20609368Y54949170D01*
X20627781Y54938134D01*
X20645024Y54925346D01*
X20660930Y54910930D01*
X20675346Y54895024D01*
X20688134Y54877781D01*
X20699170Y54859368D01*
X20708349Y54839962D01*
X20715581Y54819750D01*
X20720797Y54798926D01*
X20723947Y54777691D01*
X20725000Y54756250D01*
X20725000Y54243750D01*
X20723947Y54222309D01*
X20720797Y54201074D01*
X20715581Y54180250D01*
X20708349Y54160038D01*
X20699170Y54140632D01*
X20688134Y54122219D01*
X20675346Y54104976D01*
X20660930Y54089070D01*
X20645024Y54074654D01*
X20627781Y54061866D01*
X20609368Y54050830D01*
X20589962Y54041651D01*
X20569750Y54034419D01*
X20548926Y54029203D01*
X20527691Y54026053D01*
X20506250Y54025000D01*
X20068750Y54025000D01*
X20047309Y54026053D01*
X20026074Y54029203D01*
X20005250Y54034419D01*
X19985038Y54041651D01*
X19965632Y54050830D01*
X19947219Y54061866D01*
X19929976Y54074654D01*
X19914070Y54089070D01*
X19899654Y54104976D01*
X19886866Y54122219D01*
X19875830Y54140632D01*
X19866651Y54160038D01*
X19859419Y54180250D01*
X19854203Y54201074D01*
X19851053Y54222309D01*
X19850000Y54243750D01*
X19850000Y54756250D01*
X19851053Y54777691D01*
X19854203Y54798926D01*
X19859419Y54819750D01*
X19866651Y54839962D01*
X19875830Y54859368D01*
X19886866Y54877781D01*
X19899654Y54895024D01*
X19914070Y54910930D01*
X19929976Y54925346D01*
X19947219Y54938134D01*
X19965632Y54949170D01*
X19985038Y54958349D01*
X20005250Y54965581D01*
X20026074Y54970797D01*
X20047309Y54973947D01*
X20068750Y54975000D01*
X20506250Y54975000D01*
X20527691Y54973947D01*
X20527691Y54973947D01*
G37*
D11*
X20287500Y54500000D03*
D10*
G36*
X18952691Y54973947D02*
G01*
X18973926Y54970797D01*
X18994750Y54965581D01*
X19014962Y54958349D01*
X19034368Y54949170D01*
X19052781Y54938134D01*
X19070024Y54925346D01*
X19085930Y54910930D01*
X19100346Y54895024D01*
X19113134Y54877781D01*
X19124170Y54859368D01*
X19133349Y54839962D01*
X19140581Y54819750D01*
X19145797Y54798926D01*
X19148947Y54777691D01*
X19150000Y54756250D01*
X19150000Y54243750D01*
X19148947Y54222309D01*
X19145797Y54201074D01*
X19140581Y54180250D01*
X19133349Y54160038D01*
X19124170Y54140632D01*
X19113134Y54122219D01*
X19100346Y54104976D01*
X19085930Y54089070D01*
X19070024Y54074654D01*
X19052781Y54061866D01*
X19034368Y54050830D01*
X19014962Y54041651D01*
X18994750Y54034419D01*
X18973926Y54029203D01*
X18952691Y54026053D01*
X18931250Y54025000D01*
X18493750Y54025000D01*
X18472309Y54026053D01*
X18451074Y54029203D01*
X18430250Y54034419D01*
X18410038Y54041651D01*
X18390632Y54050830D01*
X18372219Y54061866D01*
X18354976Y54074654D01*
X18339070Y54089070D01*
X18324654Y54104976D01*
X18311866Y54122219D01*
X18300830Y54140632D01*
X18291651Y54160038D01*
X18284419Y54180250D01*
X18279203Y54201074D01*
X18276053Y54222309D01*
X18275000Y54243750D01*
X18275000Y54756250D01*
X18276053Y54777691D01*
X18279203Y54798926D01*
X18284419Y54819750D01*
X18291651Y54839962D01*
X18300830Y54859368D01*
X18311866Y54877781D01*
X18324654Y54895024D01*
X18339070Y54910930D01*
X18354976Y54925346D01*
X18372219Y54938134D01*
X18390632Y54949170D01*
X18410038Y54958349D01*
X18430250Y54965581D01*
X18451074Y54970797D01*
X18472309Y54973947D01*
X18493750Y54975000D01*
X18931250Y54975000D01*
X18952691Y54973947D01*
X18952691Y54973947D01*
G37*
D11*
X18712500Y54500000D03*
D10*
G36*
X18452691Y21473947D02*
G01*
X18473926Y21470797D01*
X18494750Y21465581D01*
X18514962Y21458349D01*
X18534368Y21449170D01*
X18552781Y21438134D01*
X18570024Y21425346D01*
X18585930Y21410930D01*
X18600346Y21395024D01*
X18613134Y21377781D01*
X18624170Y21359368D01*
X18633349Y21339962D01*
X18640581Y21319750D01*
X18645797Y21298926D01*
X18648947Y21277691D01*
X18650000Y21256250D01*
X18650000Y20743750D01*
X18648947Y20722309D01*
X18645797Y20701074D01*
X18640581Y20680250D01*
X18633349Y20660038D01*
X18624170Y20640632D01*
X18613134Y20622219D01*
X18600346Y20604976D01*
X18585930Y20589070D01*
X18570024Y20574654D01*
X18552781Y20561866D01*
X18534368Y20550830D01*
X18514962Y20541651D01*
X18494750Y20534419D01*
X18473926Y20529203D01*
X18452691Y20526053D01*
X18431250Y20525000D01*
X17993750Y20525000D01*
X17972309Y20526053D01*
X17951074Y20529203D01*
X17930250Y20534419D01*
X17910038Y20541651D01*
X17890632Y20550830D01*
X17872219Y20561866D01*
X17854976Y20574654D01*
X17839070Y20589070D01*
X17824654Y20604976D01*
X17811866Y20622219D01*
X17800830Y20640632D01*
X17791651Y20660038D01*
X17784419Y20680250D01*
X17779203Y20701074D01*
X17776053Y20722309D01*
X17775000Y20743750D01*
X17775000Y21256250D01*
X17776053Y21277691D01*
X17779203Y21298926D01*
X17784419Y21319750D01*
X17791651Y21339962D01*
X17800830Y21359368D01*
X17811866Y21377781D01*
X17824654Y21395024D01*
X17839070Y21410930D01*
X17854976Y21425346D01*
X17872219Y21438134D01*
X17890632Y21449170D01*
X17910038Y21458349D01*
X17930250Y21465581D01*
X17951074Y21470797D01*
X17972309Y21473947D01*
X17993750Y21475000D01*
X18431250Y21475000D01*
X18452691Y21473947D01*
X18452691Y21473947D01*
G37*
D11*
X18212500Y21000000D03*
D10*
G36*
X20027691Y21473947D02*
G01*
X20048926Y21470797D01*
X20069750Y21465581D01*
X20089962Y21458349D01*
X20109368Y21449170D01*
X20127781Y21438134D01*
X20145024Y21425346D01*
X20160930Y21410930D01*
X20175346Y21395024D01*
X20188134Y21377781D01*
X20199170Y21359368D01*
X20208349Y21339962D01*
X20215581Y21319750D01*
X20220797Y21298926D01*
X20223947Y21277691D01*
X20225000Y21256250D01*
X20225000Y20743750D01*
X20223947Y20722309D01*
X20220797Y20701074D01*
X20215581Y20680250D01*
X20208349Y20660038D01*
X20199170Y20640632D01*
X20188134Y20622219D01*
X20175346Y20604976D01*
X20160930Y20589070D01*
X20145024Y20574654D01*
X20127781Y20561866D01*
X20109368Y20550830D01*
X20089962Y20541651D01*
X20069750Y20534419D01*
X20048926Y20529203D01*
X20027691Y20526053D01*
X20006250Y20525000D01*
X19568750Y20525000D01*
X19547309Y20526053D01*
X19526074Y20529203D01*
X19505250Y20534419D01*
X19485038Y20541651D01*
X19465632Y20550830D01*
X19447219Y20561866D01*
X19429976Y20574654D01*
X19414070Y20589070D01*
X19399654Y20604976D01*
X19386866Y20622219D01*
X19375830Y20640632D01*
X19366651Y20660038D01*
X19359419Y20680250D01*
X19354203Y20701074D01*
X19351053Y20722309D01*
X19350000Y20743750D01*
X19350000Y21256250D01*
X19351053Y21277691D01*
X19354203Y21298926D01*
X19359419Y21319750D01*
X19366651Y21339962D01*
X19375830Y21359368D01*
X19386866Y21377781D01*
X19399654Y21395024D01*
X19414070Y21410930D01*
X19429976Y21425346D01*
X19447219Y21438134D01*
X19465632Y21449170D01*
X19485038Y21458349D01*
X19505250Y21465581D01*
X19526074Y21470797D01*
X19547309Y21473947D01*
X19568750Y21475000D01*
X20006250Y21475000D01*
X20027691Y21473947D01*
X20027691Y21473947D01*
G37*
D11*
X19787500Y21000000D03*
D10*
G36*
X7177691Y53423947D02*
G01*
X7198926Y53420797D01*
X7219750Y53415581D01*
X7239962Y53408349D01*
X7259368Y53399170D01*
X7277781Y53388134D01*
X7295024Y53375346D01*
X7310930Y53360930D01*
X7325346Y53345024D01*
X7338134Y53327781D01*
X7349170Y53309368D01*
X7358349Y53289962D01*
X7365581Y53269750D01*
X7370797Y53248926D01*
X7373947Y53227691D01*
X7375000Y53206250D01*
X7375000Y52768750D01*
X7373947Y52747309D01*
X7370797Y52726074D01*
X7365581Y52705250D01*
X7358349Y52685038D01*
X7349170Y52665632D01*
X7338134Y52647219D01*
X7325346Y52629976D01*
X7310930Y52614070D01*
X7295024Y52599654D01*
X7277781Y52586866D01*
X7259368Y52575830D01*
X7239962Y52566651D01*
X7219750Y52559419D01*
X7198926Y52554203D01*
X7177691Y52551053D01*
X7156250Y52550000D01*
X6643750Y52550000D01*
X6622309Y52551053D01*
X6601074Y52554203D01*
X6580250Y52559419D01*
X6560038Y52566651D01*
X6540632Y52575830D01*
X6522219Y52586866D01*
X6504976Y52599654D01*
X6489070Y52614070D01*
X6474654Y52629976D01*
X6461866Y52647219D01*
X6450830Y52665632D01*
X6441651Y52685038D01*
X6434419Y52705250D01*
X6429203Y52726074D01*
X6426053Y52747309D01*
X6425000Y52768750D01*
X6425000Y53206250D01*
X6426053Y53227691D01*
X6429203Y53248926D01*
X6434419Y53269750D01*
X6441651Y53289962D01*
X6450830Y53309368D01*
X6461866Y53327781D01*
X6474654Y53345024D01*
X6489070Y53360930D01*
X6504976Y53375346D01*
X6522219Y53388134D01*
X6540632Y53399170D01*
X6560038Y53408349D01*
X6580250Y53415581D01*
X6601074Y53420797D01*
X6622309Y53423947D01*
X6643750Y53425000D01*
X7156250Y53425000D01*
X7177691Y53423947D01*
X7177691Y53423947D01*
G37*
D11*
X6900000Y52987500D03*
D10*
G36*
X7177691Y51848947D02*
G01*
X7198926Y51845797D01*
X7219750Y51840581D01*
X7239962Y51833349D01*
X7259368Y51824170D01*
X7277781Y51813134D01*
X7295024Y51800346D01*
X7310930Y51785930D01*
X7325346Y51770024D01*
X7338134Y51752781D01*
X7349170Y51734368D01*
X7358349Y51714962D01*
X7365581Y51694750D01*
X7370797Y51673926D01*
X7373947Y51652691D01*
X7375000Y51631250D01*
X7375000Y51193750D01*
X7373947Y51172309D01*
X7370797Y51151074D01*
X7365581Y51130250D01*
X7358349Y51110038D01*
X7349170Y51090632D01*
X7338134Y51072219D01*
X7325346Y51054976D01*
X7310930Y51039070D01*
X7295024Y51024654D01*
X7277781Y51011866D01*
X7259368Y51000830D01*
X7239962Y50991651D01*
X7219750Y50984419D01*
X7198926Y50979203D01*
X7177691Y50976053D01*
X7156250Y50975000D01*
X6643750Y50975000D01*
X6622309Y50976053D01*
X6601074Y50979203D01*
X6580250Y50984419D01*
X6560038Y50991651D01*
X6540632Y51000830D01*
X6522219Y51011866D01*
X6504976Y51024654D01*
X6489070Y51039070D01*
X6474654Y51054976D01*
X6461866Y51072219D01*
X6450830Y51090632D01*
X6441651Y51110038D01*
X6434419Y51130250D01*
X6429203Y51151074D01*
X6426053Y51172309D01*
X6425000Y51193750D01*
X6425000Y51631250D01*
X6426053Y51652691D01*
X6429203Y51673926D01*
X6434419Y51694750D01*
X6441651Y51714962D01*
X6450830Y51734368D01*
X6461866Y51752781D01*
X6474654Y51770024D01*
X6489070Y51785930D01*
X6504976Y51800346D01*
X6522219Y51813134D01*
X6540632Y51824170D01*
X6560038Y51833349D01*
X6580250Y51840581D01*
X6601074Y51845797D01*
X6622309Y51848947D01*
X6643750Y51850000D01*
X7156250Y51850000D01*
X7177691Y51848947D01*
X7177691Y51848947D01*
G37*
D11*
X6900000Y51412500D03*
D10*
G36*
X16252691Y56673947D02*
G01*
X16273926Y56670797D01*
X16294750Y56665581D01*
X16314962Y56658349D01*
X16334368Y56649170D01*
X16352781Y56638134D01*
X16370024Y56625346D01*
X16385930Y56610930D01*
X16400346Y56595024D01*
X16413134Y56577781D01*
X16424170Y56559368D01*
X16433349Y56539962D01*
X16440581Y56519750D01*
X16445797Y56498926D01*
X16448947Y56477691D01*
X16450000Y56456250D01*
X16450000Y55943750D01*
X16448947Y55922309D01*
X16445797Y55901074D01*
X16440581Y55880250D01*
X16433349Y55860038D01*
X16424170Y55840632D01*
X16413134Y55822219D01*
X16400346Y55804976D01*
X16385930Y55789070D01*
X16370024Y55774654D01*
X16352781Y55761866D01*
X16334368Y55750830D01*
X16314962Y55741651D01*
X16294750Y55734419D01*
X16273926Y55729203D01*
X16252691Y55726053D01*
X16231250Y55725000D01*
X15793750Y55725000D01*
X15772309Y55726053D01*
X15751074Y55729203D01*
X15730250Y55734419D01*
X15710038Y55741651D01*
X15690632Y55750830D01*
X15672219Y55761866D01*
X15654976Y55774654D01*
X15639070Y55789070D01*
X15624654Y55804976D01*
X15611866Y55822219D01*
X15600830Y55840632D01*
X15591651Y55860038D01*
X15584419Y55880250D01*
X15579203Y55901074D01*
X15576053Y55922309D01*
X15575000Y55943750D01*
X15575000Y56456250D01*
X15576053Y56477691D01*
X15579203Y56498926D01*
X15584419Y56519750D01*
X15591651Y56539962D01*
X15600830Y56559368D01*
X15611866Y56577781D01*
X15624654Y56595024D01*
X15639070Y56610930D01*
X15654976Y56625346D01*
X15672219Y56638134D01*
X15690632Y56649170D01*
X15710038Y56658349D01*
X15730250Y56665581D01*
X15751074Y56670797D01*
X15772309Y56673947D01*
X15793750Y56675000D01*
X16231250Y56675000D01*
X16252691Y56673947D01*
X16252691Y56673947D01*
G37*
D11*
X16012500Y56200000D03*
D10*
G36*
X17827691Y56673947D02*
G01*
X17848926Y56670797D01*
X17869750Y56665581D01*
X17889962Y56658349D01*
X17909368Y56649170D01*
X17927781Y56638134D01*
X17945024Y56625346D01*
X17960930Y56610930D01*
X17975346Y56595024D01*
X17988134Y56577781D01*
X17999170Y56559368D01*
X18008349Y56539962D01*
X18015581Y56519750D01*
X18020797Y56498926D01*
X18023947Y56477691D01*
X18025000Y56456250D01*
X18025000Y55943750D01*
X18023947Y55922309D01*
X18020797Y55901074D01*
X18015581Y55880250D01*
X18008349Y55860038D01*
X17999170Y55840632D01*
X17988134Y55822219D01*
X17975346Y55804976D01*
X17960930Y55789070D01*
X17945024Y55774654D01*
X17927781Y55761866D01*
X17909368Y55750830D01*
X17889962Y55741651D01*
X17869750Y55734419D01*
X17848926Y55729203D01*
X17827691Y55726053D01*
X17806250Y55725000D01*
X17368750Y55725000D01*
X17347309Y55726053D01*
X17326074Y55729203D01*
X17305250Y55734419D01*
X17285038Y55741651D01*
X17265632Y55750830D01*
X17247219Y55761866D01*
X17229976Y55774654D01*
X17214070Y55789070D01*
X17199654Y55804976D01*
X17186866Y55822219D01*
X17175830Y55840632D01*
X17166651Y55860038D01*
X17159419Y55880250D01*
X17154203Y55901074D01*
X17151053Y55922309D01*
X17150000Y55943750D01*
X17150000Y56456250D01*
X17151053Y56477691D01*
X17154203Y56498926D01*
X17159419Y56519750D01*
X17166651Y56539962D01*
X17175830Y56559368D01*
X17186866Y56577781D01*
X17199654Y56595024D01*
X17214070Y56610930D01*
X17229976Y56625346D01*
X17247219Y56638134D01*
X17265632Y56649170D01*
X17285038Y56658349D01*
X17305250Y56665581D01*
X17326074Y56670797D01*
X17347309Y56673947D01*
X17368750Y56675000D01*
X17806250Y56675000D01*
X17827691Y56673947D01*
X17827691Y56673947D01*
G37*
D11*
X17587500Y56200000D03*
D10*
G36*
X14827691Y56673947D02*
G01*
X14848926Y56670797D01*
X14869750Y56665581D01*
X14889962Y56658349D01*
X14909368Y56649170D01*
X14927781Y56638134D01*
X14945024Y56625346D01*
X14960930Y56610930D01*
X14975346Y56595024D01*
X14988134Y56577781D01*
X14999170Y56559368D01*
X15008349Y56539962D01*
X15015581Y56519750D01*
X15020797Y56498926D01*
X15023947Y56477691D01*
X15025000Y56456250D01*
X15025000Y55943750D01*
X15023947Y55922309D01*
X15020797Y55901074D01*
X15015581Y55880250D01*
X15008349Y55860038D01*
X14999170Y55840632D01*
X14988134Y55822219D01*
X14975346Y55804976D01*
X14960930Y55789070D01*
X14945024Y55774654D01*
X14927781Y55761866D01*
X14909368Y55750830D01*
X14889962Y55741651D01*
X14869750Y55734419D01*
X14848926Y55729203D01*
X14827691Y55726053D01*
X14806250Y55725000D01*
X14368750Y55725000D01*
X14347309Y55726053D01*
X14326074Y55729203D01*
X14305250Y55734419D01*
X14285038Y55741651D01*
X14265632Y55750830D01*
X14247219Y55761866D01*
X14229976Y55774654D01*
X14214070Y55789070D01*
X14199654Y55804976D01*
X14186866Y55822219D01*
X14175830Y55840632D01*
X14166651Y55860038D01*
X14159419Y55880250D01*
X14154203Y55901074D01*
X14151053Y55922309D01*
X14150000Y55943750D01*
X14150000Y56456250D01*
X14151053Y56477691D01*
X14154203Y56498926D01*
X14159419Y56519750D01*
X14166651Y56539962D01*
X14175830Y56559368D01*
X14186866Y56577781D01*
X14199654Y56595024D01*
X14214070Y56610930D01*
X14229976Y56625346D01*
X14247219Y56638134D01*
X14265632Y56649170D01*
X14285038Y56658349D01*
X14305250Y56665581D01*
X14326074Y56670797D01*
X14347309Y56673947D01*
X14368750Y56675000D01*
X14806250Y56675000D01*
X14827691Y56673947D01*
X14827691Y56673947D01*
G37*
D11*
X14587500Y56200000D03*
D10*
G36*
X13252691Y56673947D02*
G01*
X13273926Y56670797D01*
X13294750Y56665581D01*
X13314962Y56658349D01*
X13334368Y56649170D01*
X13352781Y56638134D01*
X13370024Y56625346D01*
X13385930Y56610930D01*
X13400346Y56595024D01*
X13413134Y56577781D01*
X13424170Y56559368D01*
X13433349Y56539962D01*
X13440581Y56519750D01*
X13445797Y56498926D01*
X13448947Y56477691D01*
X13450000Y56456250D01*
X13450000Y55943750D01*
X13448947Y55922309D01*
X13445797Y55901074D01*
X13440581Y55880250D01*
X13433349Y55860038D01*
X13424170Y55840632D01*
X13413134Y55822219D01*
X13400346Y55804976D01*
X13385930Y55789070D01*
X13370024Y55774654D01*
X13352781Y55761866D01*
X13334368Y55750830D01*
X13314962Y55741651D01*
X13294750Y55734419D01*
X13273926Y55729203D01*
X13252691Y55726053D01*
X13231250Y55725000D01*
X12793750Y55725000D01*
X12772309Y55726053D01*
X12751074Y55729203D01*
X12730250Y55734419D01*
X12710038Y55741651D01*
X12690632Y55750830D01*
X12672219Y55761866D01*
X12654976Y55774654D01*
X12639070Y55789070D01*
X12624654Y55804976D01*
X12611866Y55822219D01*
X12600830Y55840632D01*
X12591651Y55860038D01*
X12584419Y55880250D01*
X12579203Y55901074D01*
X12576053Y55922309D01*
X12575000Y55943750D01*
X12575000Y56456250D01*
X12576053Y56477691D01*
X12579203Y56498926D01*
X12584419Y56519750D01*
X12591651Y56539962D01*
X12600830Y56559368D01*
X12611866Y56577781D01*
X12624654Y56595024D01*
X12639070Y56610930D01*
X12654976Y56625346D01*
X12672219Y56638134D01*
X12690632Y56649170D01*
X12710038Y56658349D01*
X12730250Y56665581D01*
X12751074Y56670797D01*
X12772309Y56673947D01*
X12793750Y56675000D01*
X13231250Y56675000D01*
X13252691Y56673947D01*
X13252691Y56673947D01*
G37*
D11*
X13012500Y56200000D03*
D10*
G36*
X8090191Y56673947D02*
G01*
X8111426Y56670797D01*
X8132250Y56665581D01*
X8152462Y56658349D01*
X8171868Y56649170D01*
X8190281Y56638134D01*
X8207524Y56625346D01*
X8223430Y56610930D01*
X8237846Y56595024D01*
X8250634Y56577781D01*
X8261670Y56559368D01*
X8270849Y56539962D01*
X8278081Y56519750D01*
X8283297Y56498926D01*
X8286447Y56477691D01*
X8287500Y56456250D01*
X8287500Y55943750D01*
X8286447Y55922309D01*
X8283297Y55901074D01*
X8278081Y55880250D01*
X8270849Y55860038D01*
X8261670Y55840632D01*
X8250634Y55822219D01*
X8237846Y55804976D01*
X8223430Y55789070D01*
X8207524Y55774654D01*
X8190281Y55761866D01*
X8171868Y55750830D01*
X8152462Y55741651D01*
X8132250Y55734419D01*
X8111426Y55729203D01*
X8090191Y55726053D01*
X8068750Y55725000D01*
X7631250Y55725000D01*
X7609809Y55726053D01*
X7588574Y55729203D01*
X7567750Y55734419D01*
X7547538Y55741651D01*
X7528132Y55750830D01*
X7509719Y55761866D01*
X7492476Y55774654D01*
X7476570Y55789070D01*
X7462154Y55804976D01*
X7449366Y55822219D01*
X7438330Y55840632D01*
X7429151Y55860038D01*
X7421919Y55880250D01*
X7416703Y55901074D01*
X7413553Y55922309D01*
X7412500Y55943750D01*
X7412500Y56456250D01*
X7413553Y56477691D01*
X7416703Y56498926D01*
X7421919Y56519750D01*
X7429151Y56539962D01*
X7438330Y56559368D01*
X7449366Y56577781D01*
X7462154Y56595024D01*
X7476570Y56610930D01*
X7492476Y56625346D01*
X7509719Y56638134D01*
X7528132Y56649170D01*
X7547538Y56658349D01*
X7567750Y56665581D01*
X7588574Y56670797D01*
X7609809Y56673947D01*
X7631250Y56675000D01*
X8068750Y56675000D01*
X8090191Y56673947D01*
X8090191Y56673947D01*
G37*
D11*
X7850000Y56200000D03*
D10*
G36*
X6515191Y56673947D02*
G01*
X6536426Y56670797D01*
X6557250Y56665581D01*
X6577462Y56658349D01*
X6596868Y56649170D01*
X6615281Y56638134D01*
X6632524Y56625346D01*
X6648430Y56610930D01*
X6662846Y56595024D01*
X6675634Y56577781D01*
X6686670Y56559368D01*
X6695849Y56539962D01*
X6703081Y56519750D01*
X6708297Y56498926D01*
X6711447Y56477691D01*
X6712500Y56456250D01*
X6712500Y55943750D01*
X6711447Y55922309D01*
X6708297Y55901074D01*
X6703081Y55880250D01*
X6695849Y55860038D01*
X6686670Y55840632D01*
X6675634Y55822219D01*
X6662846Y55804976D01*
X6648430Y55789070D01*
X6632524Y55774654D01*
X6615281Y55761866D01*
X6596868Y55750830D01*
X6577462Y55741651D01*
X6557250Y55734419D01*
X6536426Y55729203D01*
X6515191Y55726053D01*
X6493750Y55725000D01*
X6056250Y55725000D01*
X6034809Y55726053D01*
X6013574Y55729203D01*
X5992750Y55734419D01*
X5972538Y55741651D01*
X5953132Y55750830D01*
X5934719Y55761866D01*
X5917476Y55774654D01*
X5901570Y55789070D01*
X5887154Y55804976D01*
X5874366Y55822219D01*
X5863330Y55840632D01*
X5854151Y55860038D01*
X5846919Y55880250D01*
X5841703Y55901074D01*
X5838553Y55922309D01*
X5837500Y55943750D01*
X5837500Y56456250D01*
X5838553Y56477691D01*
X5841703Y56498926D01*
X5846919Y56519750D01*
X5854151Y56539962D01*
X5863330Y56559368D01*
X5874366Y56577781D01*
X5887154Y56595024D01*
X5901570Y56610930D01*
X5917476Y56625346D01*
X5934719Y56638134D01*
X5953132Y56649170D01*
X5972538Y56658349D01*
X5992750Y56665581D01*
X6013574Y56670797D01*
X6034809Y56673947D01*
X6056250Y56675000D01*
X6493750Y56675000D01*
X6515191Y56673947D01*
X6515191Y56673947D01*
G37*
D11*
X6275000Y56200000D03*
D10*
G36*
X10252691Y56673947D02*
G01*
X10273926Y56670797D01*
X10294750Y56665581D01*
X10314962Y56658349D01*
X10334368Y56649170D01*
X10352781Y56638134D01*
X10370024Y56625346D01*
X10385930Y56610930D01*
X10400346Y56595024D01*
X10413134Y56577781D01*
X10424170Y56559368D01*
X10433349Y56539962D01*
X10440581Y56519750D01*
X10445797Y56498926D01*
X10448947Y56477691D01*
X10450000Y56456250D01*
X10450000Y55943750D01*
X10448947Y55922309D01*
X10445797Y55901074D01*
X10440581Y55880250D01*
X10433349Y55860038D01*
X10424170Y55840632D01*
X10413134Y55822219D01*
X10400346Y55804976D01*
X10385930Y55789070D01*
X10370024Y55774654D01*
X10352781Y55761866D01*
X10334368Y55750830D01*
X10314962Y55741651D01*
X10294750Y55734419D01*
X10273926Y55729203D01*
X10252691Y55726053D01*
X10231250Y55725000D01*
X9793750Y55725000D01*
X9772309Y55726053D01*
X9751074Y55729203D01*
X9730250Y55734419D01*
X9710038Y55741651D01*
X9690632Y55750830D01*
X9672219Y55761866D01*
X9654976Y55774654D01*
X9639070Y55789070D01*
X9624654Y55804976D01*
X9611866Y55822219D01*
X9600830Y55840632D01*
X9591651Y55860038D01*
X9584419Y55880250D01*
X9579203Y55901074D01*
X9576053Y55922309D01*
X9575000Y55943750D01*
X9575000Y56456250D01*
X9576053Y56477691D01*
X9579203Y56498926D01*
X9584419Y56519750D01*
X9591651Y56539962D01*
X9600830Y56559368D01*
X9611866Y56577781D01*
X9624654Y56595024D01*
X9639070Y56610930D01*
X9654976Y56625346D01*
X9672219Y56638134D01*
X9690632Y56649170D01*
X9710038Y56658349D01*
X9730250Y56665581D01*
X9751074Y56670797D01*
X9772309Y56673947D01*
X9793750Y56675000D01*
X10231250Y56675000D01*
X10252691Y56673947D01*
X10252691Y56673947D01*
G37*
D11*
X10012500Y56200000D03*
D10*
G36*
X11827691Y56673947D02*
G01*
X11848926Y56670797D01*
X11869750Y56665581D01*
X11889962Y56658349D01*
X11909368Y56649170D01*
X11927781Y56638134D01*
X11945024Y56625346D01*
X11960930Y56610930D01*
X11975346Y56595024D01*
X11988134Y56577781D01*
X11999170Y56559368D01*
X12008349Y56539962D01*
X12015581Y56519750D01*
X12020797Y56498926D01*
X12023947Y56477691D01*
X12025000Y56456250D01*
X12025000Y55943750D01*
X12023947Y55922309D01*
X12020797Y55901074D01*
X12015581Y55880250D01*
X12008349Y55860038D01*
X11999170Y55840632D01*
X11988134Y55822219D01*
X11975346Y55804976D01*
X11960930Y55789070D01*
X11945024Y55774654D01*
X11927781Y55761866D01*
X11909368Y55750830D01*
X11889962Y55741651D01*
X11869750Y55734419D01*
X11848926Y55729203D01*
X11827691Y55726053D01*
X11806250Y55725000D01*
X11368750Y55725000D01*
X11347309Y55726053D01*
X11326074Y55729203D01*
X11305250Y55734419D01*
X11285038Y55741651D01*
X11265632Y55750830D01*
X11247219Y55761866D01*
X11229976Y55774654D01*
X11214070Y55789070D01*
X11199654Y55804976D01*
X11186866Y55822219D01*
X11175830Y55840632D01*
X11166651Y55860038D01*
X11159419Y55880250D01*
X11154203Y55901074D01*
X11151053Y55922309D01*
X11150000Y55943750D01*
X11150000Y56456250D01*
X11151053Y56477691D01*
X11154203Y56498926D01*
X11159419Y56519750D01*
X11166651Y56539962D01*
X11175830Y56559368D01*
X11186866Y56577781D01*
X11199654Y56595024D01*
X11214070Y56610930D01*
X11229976Y56625346D01*
X11247219Y56638134D01*
X11265632Y56649170D01*
X11285038Y56658349D01*
X11305250Y56665581D01*
X11326074Y56670797D01*
X11347309Y56673947D01*
X11368750Y56675000D01*
X11806250Y56675000D01*
X11827691Y56673947D01*
X11827691Y56673947D01*
G37*
D11*
X11587500Y56200000D03*
D19*
X40300000Y11250000D03*
X38200000Y11250000D03*
D18*
X21750000Y45750000D03*
X22400000Y47750000D03*
X21100000Y47750000D03*
D10*
G36*
X21952691Y20223947D02*
G01*
X21973926Y20220797D01*
X21994750Y20215581D01*
X22014962Y20208349D01*
X22034368Y20199170D01*
X22052781Y20188134D01*
X22070024Y20175346D01*
X22085930Y20160930D01*
X22100346Y20145024D01*
X22113134Y20127781D01*
X22124170Y20109368D01*
X22133349Y20089962D01*
X22140581Y20069750D01*
X22145797Y20048926D01*
X22148947Y20027691D01*
X22150000Y20006250D01*
X22150000Y19493750D01*
X22148947Y19472309D01*
X22145797Y19451074D01*
X22140581Y19430250D01*
X22133349Y19410038D01*
X22124170Y19390632D01*
X22113134Y19372219D01*
X22100346Y19354976D01*
X22085930Y19339070D01*
X22070024Y19324654D01*
X22052781Y19311866D01*
X22034368Y19300830D01*
X22014962Y19291651D01*
X21994750Y19284419D01*
X21973926Y19279203D01*
X21952691Y19276053D01*
X21931250Y19275000D01*
X21493750Y19275000D01*
X21472309Y19276053D01*
X21451074Y19279203D01*
X21430250Y19284419D01*
X21410038Y19291651D01*
X21390632Y19300830D01*
X21372219Y19311866D01*
X21354976Y19324654D01*
X21339070Y19339070D01*
X21324654Y19354976D01*
X21311866Y19372219D01*
X21300830Y19390632D01*
X21291651Y19410038D01*
X21284419Y19430250D01*
X21279203Y19451074D01*
X21276053Y19472309D01*
X21275000Y19493750D01*
X21275000Y20006250D01*
X21276053Y20027691D01*
X21279203Y20048926D01*
X21284419Y20069750D01*
X21291651Y20089962D01*
X21300830Y20109368D01*
X21311866Y20127781D01*
X21324654Y20145024D01*
X21339070Y20160930D01*
X21354976Y20175346D01*
X21372219Y20188134D01*
X21390632Y20199170D01*
X21410038Y20208349D01*
X21430250Y20215581D01*
X21451074Y20220797D01*
X21472309Y20223947D01*
X21493750Y20225000D01*
X21931250Y20225000D01*
X21952691Y20223947D01*
X21952691Y20223947D01*
G37*
D11*
X21712500Y19750000D03*
D10*
G36*
X23527691Y20223947D02*
G01*
X23548926Y20220797D01*
X23569750Y20215581D01*
X23589962Y20208349D01*
X23609368Y20199170D01*
X23627781Y20188134D01*
X23645024Y20175346D01*
X23660930Y20160930D01*
X23675346Y20145024D01*
X23688134Y20127781D01*
X23699170Y20109368D01*
X23708349Y20089962D01*
X23715581Y20069750D01*
X23720797Y20048926D01*
X23723947Y20027691D01*
X23725000Y20006250D01*
X23725000Y19493750D01*
X23723947Y19472309D01*
X23720797Y19451074D01*
X23715581Y19430250D01*
X23708349Y19410038D01*
X23699170Y19390632D01*
X23688134Y19372219D01*
X23675346Y19354976D01*
X23660930Y19339070D01*
X23645024Y19324654D01*
X23627781Y19311866D01*
X23609368Y19300830D01*
X23589962Y19291651D01*
X23569750Y19284419D01*
X23548926Y19279203D01*
X23527691Y19276053D01*
X23506250Y19275000D01*
X23068750Y19275000D01*
X23047309Y19276053D01*
X23026074Y19279203D01*
X23005250Y19284419D01*
X22985038Y19291651D01*
X22965632Y19300830D01*
X22947219Y19311866D01*
X22929976Y19324654D01*
X22914070Y19339070D01*
X22899654Y19354976D01*
X22886866Y19372219D01*
X22875830Y19390632D01*
X22866651Y19410038D01*
X22859419Y19430250D01*
X22854203Y19451074D01*
X22851053Y19472309D01*
X22850000Y19493750D01*
X22850000Y20006250D01*
X22851053Y20027691D01*
X22854203Y20048926D01*
X22859419Y20069750D01*
X22866651Y20089962D01*
X22875830Y20109368D01*
X22886866Y20127781D01*
X22899654Y20145024D01*
X22914070Y20160930D01*
X22929976Y20175346D01*
X22947219Y20188134D01*
X22965632Y20199170D01*
X22985038Y20208349D01*
X23005250Y20215581D01*
X23026074Y20220797D01*
X23047309Y20223947D01*
X23068750Y20225000D01*
X23506250Y20225000D01*
X23527691Y20223947D01*
X23527691Y20223947D01*
G37*
D11*
X23287500Y19750000D03*
D10*
G36*
X8527691Y45223947D02*
G01*
X8548926Y45220797D01*
X8569750Y45215581D01*
X8589962Y45208349D01*
X8609368Y45199170D01*
X8627781Y45188134D01*
X8645024Y45175346D01*
X8660930Y45160930D01*
X8675346Y45145024D01*
X8688134Y45127781D01*
X8699170Y45109368D01*
X8708349Y45089962D01*
X8715581Y45069750D01*
X8720797Y45048926D01*
X8723947Y45027691D01*
X8725000Y45006250D01*
X8725000Y44493750D01*
X8723947Y44472309D01*
X8720797Y44451074D01*
X8715581Y44430250D01*
X8708349Y44410038D01*
X8699170Y44390632D01*
X8688134Y44372219D01*
X8675346Y44354976D01*
X8660930Y44339070D01*
X8645024Y44324654D01*
X8627781Y44311866D01*
X8609368Y44300830D01*
X8589962Y44291651D01*
X8569750Y44284419D01*
X8548926Y44279203D01*
X8527691Y44276053D01*
X8506250Y44275000D01*
X8068750Y44275000D01*
X8047309Y44276053D01*
X8026074Y44279203D01*
X8005250Y44284419D01*
X7985038Y44291651D01*
X7965632Y44300830D01*
X7947219Y44311866D01*
X7929976Y44324654D01*
X7914070Y44339070D01*
X7899654Y44354976D01*
X7886866Y44372219D01*
X7875830Y44390632D01*
X7866651Y44410038D01*
X7859419Y44430250D01*
X7854203Y44451074D01*
X7851053Y44472309D01*
X7850000Y44493750D01*
X7850000Y45006250D01*
X7851053Y45027691D01*
X7854203Y45048926D01*
X7859419Y45069750D01*
X7866651Y45089962D01*
X7875830Y45109368D01*
X7886866Y45127781D01*
X7899654Y45145024D01*
X7914070Y45160930D01*
X7929976Y45175346D01*
X7947219Y45188134D01*
X7965632Y45199170D01*
X7985038Y45208349D01*
X8005250Y45215581D01*
X8026074Y45220797D01*
X8047309Y45223947D01*
X8068750Y45225000D01*
X8506250Y45225000D01*
X8527691Y45223947D01*
X8527691Y45223947D01*
G37*
D11*
X8287500Y44750000D03*
D10*
G36*
X6952691Y45223947D02*
G01*
X6973926Y45220797D01*
X6994750Y45215581D01*
X7014962Y45208349D01*
X7034368Y45199170D01*
X7052781Y45188134D01*
X7070024Y45175346D01*
X7085930Y45160930D01*
X7100346Y45145024D01*
X7113134Y45127781D01*
X7124170Y45109368D01*
X7133349Y45089962D01*
X7140581Y45069750D01*
X7145797Y45048926D01*
X7148947Y45027691D01*
X7150000Y45006250D01*
X7150000Y44493750D01*
X7148947Y44472309D01*
X7145797Y44451074D01*
X7140581Y44430250D01*
X7133349Y44410038D01*
X7124170Y44390632D01*
X7113134Y44372219D01*
X7100346Y44354976D01*
X7085930Y44339070D01*
X7070024Y44324654D01*
X7052781Y44311866D01*
X7034368Y44300830D01*
X7014962Y44291651D01*
X6994750Y44284419D01*
X6973926Y44279203D01*
X6952691Y44276053D01*
X6931250Y44275000D01*
X6493750Y44275000D01*
X6472309Y44276053D01*
X6451074Y44279203D01*
X6430250Y44284419D01*
X6410038Y44291651D01*
X6390632Y44300830D01*
X6372219Y44311866D01*
X6354976Y44324654D01*
X6339070Y44339070D01*
X6324654Y44354976D01*
X6311866Y44372219D01*
X6300830Y44390632D01*
X6291651Y44410038D01*
X6284419Y44430250D01*
X6279203Y44451074D01*
X6276053Y44472309D01*
X6275000Y44493750D01*
X6275000Y45006250D01*
X6276053Y45027691D01*
X6279203Y45048926D01*
X6284419Y45069750D01*
X6291651Y45089962D01*
X6300830Y45109368D01*
X6311866Y45127781D01*
X6324654Y45145024D01*
X6339070Y45160930D01*
X6354976Y45175346D01*
X6372219Y45188134D01*
X6390632Y45199170D01*
X6410038Y45208349D01*
X6430250Y45215581D01*
X6451074Y45220797D01*
X6472309Y45223947D01*
X6493750Y45225000D01*
X6931250Y45225000D01*
X6952691Y45223947D01*
X6952691Y45223947D01*
G37*
D11*
X6712500Y44750000D03*
D10*
G36*
X21952691Y21723947D02*
G01*
X21973926Y21720797D01*
X21994750Y21715581D01*
X22014962Y21708349D01*
X22034368Y21699170D01*
X22052781Y21688134D01*
X22070024Y21675346D01*
X22085930Y21660930D01*
X22100346Y21645024D01*
X22113134Y21627781D01*
X22124170Y21609368D01*
X22133349Y21589962D01*
X22140581Y21569750D01*
X22145797Y21548926D01*
X22148947Y21527691D01*
X22150000Y21506250D01*
X22150000Y20993750D01*
X22148947Y20972309D01*
X22145797Y20951074D01*
X22140581Y20930250D01*
X22133349Y20910038D01*
X22124170Y20890632D01*
X22113134Y20872219D01*
X22100346Y20854976D01*
X22085930Y20839070D01*
X22070024Y20824654D01*
X22052781Y20811866D01*
X22034368Y20800830D01*
X22014962Y20791651D01*
X21994750Y20784419D01*
X21973926Y20779203D01*
X21952691Y20776053D01*
X21931250Y20775000D01*
X21493750Y20775000D01*
X21472309Y20776053D01*
X21451074Y20779203D01*
X21430250Y20784419D01*
X21410038Y20791651D01*
X21390632Y20800830D01*
X21372219Y20811866D01*
X21354976Y20824654D01*
X21339070Y20839070D01*
X21324654Y20854976D01*
X21311866Y20872219D01*
X21300830Y20890632D01*
X21291651Y20910038D01*
X21284419Y20930250D01*
X21279203Y20951074D01*
X21276053Y20972309D01*
X21275000Y20993750D01*
X21275000Y21506250D01*
X21276053Y21527691D01*
X21279203Y21548926D01*
X21284419Y21569750D01*
X21291651Y21589962D01*
X21300830Y21609368D01*
X21311866Y21627781D01*
X21324654Y21645024D01*
X21339070Y21660930D01*
X21354976Y21675346D01*
X21372219Y21688134D01*
X21390632Y21699170D01*
X21410038Y21708349D01*
X21430250Y21715581D01*
X21451074Y21720797D01*
X21472309Y21723947D01*
X21493750Y21725000D01*
X21931250Y21725000D01*
X21952691Y21723947D01*
X21952691Y21723947D01*
G37*
D11*
X21712500Y21250000D03*
D10*
G36*
X23527691Y21723947D02*
G01*
X23548926Y21720797D01*
X23569750Y21715581D01*
X23589962Y21708349D01*
X23609368Y21699170D01*
X23627781Y21688134D01*
X23645024Y21675346D01*
X23660930Y21660930D01*
X23675346Y21645024D01*
X23688134Y21627781D01*
X23699170Y21609368D01*
X23708349Y21589962D01*
X23715581Y21569750D01*
X23720797Y21548926D01*
X23723947Y21527691D01*
X23725000Y21506250D01*
X23725000Y20993750D01*
X23723947Y20972309D01*
X23720797Y20951074D01*
X23715581Y20930250D01*
X23708349Y20910038D01*
X23699170Y20890632D01*
X23688134Y20872219D01*
X23675346Y20854976D01*
X23660930Y20839070D01*
X23645024Y20824654D01*
X23627781Y20811866D01*
X23609368Y20800830D01*
X23589962Y20791651D01*
X23569750Y20784419D01*
X23548926Y20779203D01*
X23527691Y20776053D01*
X23506250Y20775000D01*
X23068750Y20775000D01*
X23047309Y20776053D01*
X23026074Y20779203D01*
X23005250Y20784419D01*
X22985038Y20791651D01*
X22965632Y20800830D01*
X22947219Y20811866D01*
X22929976Y20824654D01*
X22914070Y20839070D01*
X22899654Y20854976D01*
X22886866Y20872219D01*
X22875830Y20890632D01*
X22866651Y20910038D01*
X22859419Y20930250D01*
X22854203Y20951074D01*
X22851053Y20972309D01*
X22850000Y20993750D01*
X22850000Y21506250D01*
X22851053Y21527691D01*
X22854203Y21548926D01*
X22859419Y21569750D01*
X22866651Y21589962D01*
X22875830Y21609368D01*
X22886866Y21627781D01*
X22899654Y21645024D01*
X22914070Y21660930D01*
X22929976Y21675346D01*
X22947219Y21688134D01*
X22965632Y21699170D01*
X22985038Y21708349D01*
X23005250Y21715581D01*
X23026074Y21720797D01*
X23047309Y21723947D01*
X23068750Y21725000D01*
X23506250Y21725000D01*
X23527691Y21723947D01*
X23527691Y21723947D01*
G37*
D11*
X23287500Y21250000D03*
D10*
G36*
X25777691Y49723947D02*
G01*
X25798926Y49720797D01*
X25819750Y49715581D01*
X25839962Y49708349D01*
X25859368Y49699170D01*
X25877781Y49688134D01*
X25895024Y49675346D01*
X25910930Y49660930D01*
X25925346Y49645024D01*
X25938134Y49627781D01*
X25949170Y49609368D01*
X25958349Y49589962D01*
X25965581Y49569750D01*
X25970797Y49548926D01*
X25973947Y49527691D01*
X25975000Y49506250D01*
X25975000Y48993750D01*
X25973947Y48972309D01*
X25970797Y48951074D01*
X25965581Y48930250D01*
X25958349Y48910038D01*
X25949170Y48890632D01*
X25938134Y48872219D01*
X25925346Y48854976D01*
X25910930Y48839070D01*
X25895024Y48824654D01*
X25877781Y48811866D01*
X25859368Y48800830D01*
X25839962Y48791651D01*
X25819750Y48784419D01*
X25798926Y48779203D01*
X25777691Y48776053D01*
X25756250Y48775000D01*
X25318750Y48775000D01*
X25297309Y48776053D01*
X25276074Y48779203D01*
X25255250Y48784419D01*
X25235038Y48791651D01*
X25215632Y48800830D01*
X25197219Y48811866D01*
X25179976Y48824654D01*
X25164070Y48839070D01*
X25149654Y48854976D01*
X25136866Y48872219D01*
X25125830Y48890632D01*
X25116651Y48910038D01*
X25109419Y48930250D01*
X25104203Y48951074D01*
X25101053Y48972309D01*
X25100000Y48993750D01*
X25100000Y49506250D01*
X25101053Y49527691D01*
X25104203Y49548926D01*
X25109419Y49569750D01*
X25116651Y49589962D01*
X25125830Y49609368D01*
X25136866Y49627781D01*
X25149654Y49645024D01*
X25164070Y49660930D01*
X25179976Y49675346D01*
X25197219Y49688134D01*
X25215632Y49699170D01*
X25235038Y49708349D01*
X25255250Y49715581D01*
X25276074Y49720797D01*
X25297309Y49723947D01*
X25318750Y49725000D01*
X25756250Y49725000D01*
X25777691Y49723947D01*
X25777691Y49723947D01*
G37*
D11*
X25537500Y49250000D03*
D10*
G36*
X24202691Y49723947D02*
G01*
X24223926Y49720797D01*
X24244750Y49715581D01*
X24264962Y49708349D01*
X24284368Y49699170D01*
X24302781Y49688134D01*
X24320024Y49675346D01*
X24335930Y49660930D01*
X24350346Y49645024D01*
X24363134Y49627781D01*
X24374170Y49609368D01*
X24383349Y49589962D01*
X24390581Y49569750D01*
X24395797Y49548926D01*
X24398947Y49527691D01*
X24400000Y49506250D01*
X24400000Y48993750D01*
X24398947Y48972309D01*
X24395797Y48951074D01*
X24390581Y48930250D01*
X24383349Y48910038D01*
X24374170Y48890632D01*
X24363134Y48872219D01*
X24350346Y48854976D01*
X24335930Y48839070D01*
X24320024Y48824654D01*
X24302781Y48811866D01*
X24284368Y48800830D01*
X24264962Y48791651D01*
X24244750Y48784419D01*
X24223926Y48779203D01*
X24202691Y48776053D01*
X24181250Y48775000D01*
X23743750Y48775000D01*
X23722309Y48776053D01*
X23701074Y48779203D01*
X23680250Y48784419D01*
X23660038Y48791651D01*
X23640632Y48800830D01*
X23622219Y48811866D01*
X23604976Y48824654D01*
X23589070Y48839070D01*
X23574654Y48854976D01*
X23561866Y48872219D01*
X23550830Y48890632D01*
X23541651Y48910038D01*
X23534419Y48930250D01*
X23529203Y48951074D01*
X23526053Y48972309D01*
X23525000Y48993750D01*
X23525000Y49506250D01*
X23526053Y49527691D01*
X23529203Y49548926D01*
X23534419Y49569750D01*
X23541651Y49589962D01*
X23550830Y49609368D01*
X23561866Y49627781D01*
X23574654Y49645024D01*
X23589070Y49660930D01*
X23604976Y49675346D01*
X23622219Y49688134D01*
X23640632Y49699170D01*
X23660038Y49708349D01*
X23680250Y49715581D01*
X23701074Y49720797D01*
X23722309Y49723947D01*
X23743750Y49725000D01*
X24181250Y49725000D01*
X24202691Y49723947D01*
X24202691Y49723947D01*
G37*
D11*
X23962500Y49250000D03*
D10*
G36*
X22527691Y49723947D02*
G01*
X22548926Y49720797D01*
X22569750Y49715581D01*
X22589962Y49708349D01*
X22609368Y49699170D01*
X22627781Y49688134D01*
X22645024Y49675346D01*
X22660930Y49660930D01*
X22675346Y49645024D01*
X22688134Y49627781D01*
X22699170Y49609368D01*
X22708349Y49589962D01*
X22715581Y49569750D01*
X22720797Y49548926D01*
X22723947Y49527691D01*
X22725000Y49506250D01*
X22725000Y48993750D01*
X22723947Y48972309D01*
X22720797Y48951074D01*
X22715581Y48930250D01*
X22708349Y48910038D01*
X22699170Y48890632D01*
X22688134Y48872219D01*
X22675346Y48854976D01*
X22660930Y48839070D01*
X22645024Y48824654D01*
X22627781Y48811866D01*
X22609368Y48800830D01*
X22589962Y48791651D01*
X22569750Y48784419D01*
X22548926Y48779203D01*
X22527691Y48776053D01*
X22506250Y48775000D01*
X22068750Y48775000D01*
X22047309Y48776053D01*
X22026074Y48779203D01*
X22005250Y48784419D01*
X21985038Y48791651D01*
X21965632Y48800830D01*
X21947219Y48811866D01*
X21929976Y48824654D01*
X21914070Y48839070D01*
X21899654Y48854976D01*
X21886866Y48872219D01*
X21875830Y48890632D01*
X21866651Y48910038D01*
X21859419Y48930250D01*
X21854203Y48951074D01*
X21851053Y48972309D01*
X21850000Y48993750D01*
X21850000Y49506250D01*
X21851053Y49527691D01*
X21854203Y49548926D01*
X21859419Y49569750D01*
X21866651Y49589962D01*
X21875830Y49609368D01*
X21886866Y49627781D01*
X21899654Y49645024D01*
X21914070Y49660930D01*
X21929976Y49675346D01*
X21947219Y49688134D01*
X21965632Y49699170D01*
X21985038Y49708349D01*
X22005250Y49715581D01*
X22026074Y49720797D01*
X22047309Y49723947D01*
X22068750Y49725000D01*
X22506250Y49725000D01*
X22527691Y49723947D01*
X22527691Y49723947D01*
G37*
D11*
X22287500Y49250000D03*
D10*
G36*
X20952691Y49723947D02*
G01*
X20973926Y49720797D01*
X20994750Y49715581D01*
X21014962Y49708349D01*
X21034368Y49699170D01*
X21052781Y49688134D01*
X21070024Y49675346D01*
X21085930Y49660930D01*
X21100346Y49645024D01*
X21113134Y49627781D01*
X21124170Y49609368D01*
X21133349Y49589962D01*
X21140581Y49569750D01*
X21145797Y49548926D01*
X21148947Y49527691D01*
X21150000Y49506250D01*
X21150000Y48993750D01*
X21148947Y48972309D01*
X21145797Y48951074D01*
X21140581Y48930250D01*
X21133349Y48910038D01*
X21124170Y48890632D01*
X21113134Y48872219D01*
X21100346Y48854976D01*
X21085930Y48839070D01*
X21070024Y48824654D01*
X21052781Y48811866D01*
X21034368Y48800830D01*
X21014962Y48791651D01*
X20994750Y48784419D01*
X20973926Y48779203D01*
X20952691Y48776053D01*
X20931250Y48775000D01*
X20493750Y48775000D01*
X20472309Y48776053D01*
X20451074Y48779203D01*
X20430250Y48784419D01*
X20410038Y48791651D01*
X20390632Y48800830D01*
X20372219Y48811866D01*
X20354976Y48824654D01*
X20339070Y48839070D01*
X20324654Y48854976D01*
X20311866Y48872219D01*
X20300830Y48890632D01*
X20291651Y48910038D01*
X20284419Y48930250D01*
X20279203Y48951074D01*
X20276053Y48972309D01*
X20275000Y48993750D01*
X20275000Y49506250D01*
X20276053Y49527691D01*
X20279203Y49548926D01*
X20284419Y49569750D01*
X20291651Y49589962D01*
X20300830Y49609368D01*
X20311866Y49627781D01*
X20324654Y49645024D01*
X20339070Y49660930D01*
X20354976Y49675346D01*
X20372219Y49688134D01*
X20390632Y49699170D01*
X20410038Y49708349D01*
X20430250Y49715581D01*
X20451074Y49720797D01*
X20472309Y49723947D01*
X20493750Y49725000D01*
X20931250Y49725000D01*
X20952691Y49723947D01*
X20952691Y49723947D01*
G37*
D11*
X20712500Y49250000D03*
D10*
G36*
X38777691Y18223947D02*
G01*
X38798926Y18220797D01*
X38819750Y18215581D01*
X38839962Y18208349D01*
X38859368Y18199170D01*
X38877781Y18188134D01*
X38895024Y18175346D01*
X38910930Y18160930D01*
X38925346Y18145024D01*
X38938134Y18127781D01*
X38949170Y18109368D01*
X38958349Y18089962D01*
X38965581Y18069750D01*
X38970797Y18048926D01*
X38973947Y18027691D01*
X38975000Y18006250D01*
X38975000Y17568750D01*
X38973947Y17547309D01*
X38970797Y17526074D01*
X38965581Y17505250D01*
X38958349Y17485038D01*
X38949170Y17465632D01*
X38938134Y17447219D01*
X38925346Y17429976D01*
X38910930Y17414070D01*
X38895024Y17399654D01*
X38877781Y17386866D01*
X38859368Y17375830D01*
X38839962Y17366651D01*
X38819750Y17359419D01*
X38798926Y17354203D01*
X38777691Y17351053D01*
X38756250Y17350000D01*
X38243750Y17350000D01*
X38222309Y17351053D01*
X38201074Y17354203D01*
X38180250Y17359419D01*
X38160038Y17366651D01*
X38140632Y17375830D01*
X38122219Y17386866D01*
X38104976Y17399654D01*
X38089070Y17414070D01*
X38074654Y17429976D01*
X38061866Y17447219D01*
X38050830Y17465632D01*
X38041651Y17485038D01*
X38034419Y17505250D01*
X38029203Y17526074D01*
X38026053Y17547309D01*
X38025000Y17568750D01*
X38025000Y18006250D01*
X38026053Y18027691D01*
X38029203Y18048926D01*
X38034419Y18069750D01*
X38041651Y18089962D01*
X38050830Y18109368D01*
X38061866Y18127781D01*
X38074654Y18145024D01*
X38089070Y18160930D01*
X38104976Y18175346D01*
X38122219Y18188134D01*
X38140632Y18199170D01*
X38160038Y18208349D01*
X38180250Y18215581D01*
X38201074Y18220797D01*
X38222309Y18223947D01*
X38243750Y18225000D01*
X38756250Y18225000D01*
X38777691Y18223947D01*
X38777691Y18223947D01*
G37*
D11*
X38500000Y17787500D03*
D10*
G36*
X38777691Y16648947D02*
G01*
X38798926Y16645797D01*
X38819750Y16640581D01*
X38839962Y16633349D01*
X38859368Y16624170D01*
X38877781Y16613134D01*
X38895024Y16600346D01*
X38910930Y16585930D01*
X38925346Y16570024D01*
X38938134Y16552781D01*
X38949170Y16534368D01*
X38958349Y16514962D01*
X38965581Y16494750D01*
X38970797Y16473926D01*
X38973947Y16452691D01*
X38975000Y16431250D01*
X38975000Y15993750D01*
X38973947Y15972309D01*
X38970797Y15951074D01*
X38965581Y15930250D01*
X38958349Y15910038D01*
X38949170Y15890632D01*
X38938134Y15872219D01*
X38925346Y15854976D01*
X38910930Y15839070D01*
X38895024Y15824654D01*
X38877781Y15811866D01*
X38859368Y15800830D01*
X38839962Y15791651D01*
X38819750Y15784419D01*
X38798926Y15779203D01*
X38777691Y15776053D01*
X38756250Y15775000D01*
X38243750Y15775000D01*
X38222309Y15776053D01*
X38201074Y15779203D01*
X38180250Y15784419D01*
X38160038Y15791651D01*
X38140632Y15800830D01*
X38122219Y15811866D01*
X38104976Y15824654D01*
X38089070Y15839070D01*
X38074654Y15854976D01*
X38061866Y15872219D01*
X38050830Y15890632D01*
X38041651Y15910038D01*
X38034419Y15930250D01*
X38029203Y15951074D01*
X38026053Y15972309D01*
X38025000Y15993750D01*
X38025000Y16431250D01*
X38026053Y16452691D01*
X38029203Y16473926D01*
X38034419Y16494750D01*
X38041651Y16514962D01*
X38050830Y16534368D01*
X38061866Y16552781D01*
X38074654Y16570024D01*
X38089070Y16585930D01*
X38104976Y16600346D01*
X38122219Y16613134D01*
X38140632Y16624170D01*
X38160038Y16633349D01*
X38180250Y16640581D01*
X38201074Y16645797D01*
X38222309Y16648947D01*
X38243750Y16650000D01*
X38756250Y16650000D01*
X38777691Y16648947D01*
X38777691Y16648947D01*
G37*
D11*
X38500000Y16212500D03*
D10*
G36*
X24065191Y14473947D02*
G01*
X24086426Y14470797D01*
X24107250Y14465581D01*
X24127462Y14458349D01*
X24146868Y14449170D01*
X24165281Y14438134D01*
X24182524Y14425346D01*
X24198430Y14410930D01*
X24212846Y14395024D01*
X24225634Y14377781D01*
X24236670Y14359368D01*
X24245849Y14339962D01*
X24253081Y14319750D01*
X24258297Y14298926D01*
X24261447Y14277691D01*
X24262500Y14256250D01*
X24262500Y13743750D01*
X24261447Y13722309D01*
X24258297Y13701074D01*
X24253081Y13680250D01*
X24245849Y13660038D01*
X24236670Y13640632D01*
X24225634Y13622219D01*
X24212846Y13604976D01*
X24198430Y13589070D01*
X24182524Y13574654D01*
X24165281Y13561866D01*
X24146868Y13550830D01*
X24127462Y13541651D01*
X24107250Y13534419D01*
X24086426Y13529203D01*
X24065191Y13526053D01*
X24043750Y13525000D01*
X23606250Y13525000D01*
X23584809Y13526053D01*
X23563574Y13529203D01*
X23542750Y13534419D01*
X23522538Y13541651D01*
X23503132Y13550830D01*
X23484719Y13561866D01*
X23467476Y13574654D01*
X23451570Y13589070D01*
X23437154Y13604976D01*
X23424366Y13622219D01*
X23413330Y13640632D01*
X23404151Y13660038D01*
X23396919Y13680250D01*
X23391703Y13701074D01*
X23388553Y13722309D01*
X23387500Y13743750D01*
X23387500Y14256250D01*
X23388553Y14277691D01*
X23391703Y14298926D01*
X23396919Y14319750D01*
X23404151Y14339962D01*
X23413330Y14359368D01*
X23424366Y14377781D01*
X23437154Y14395024D01*
X23451570Y14410930D01*
X23467476Y14425346D01*
X23484719Y14438134D01*
X23503132Y14449170D01*
X23522538Y14458349D01*
X23542750Y14465581D01*
X23563574Y14470797D01*
X23584809Y14473947D01*
X23606250Y14475000D01*
X24043750Y14475000D01*
X24065191Y14473947D01*
X24065191Y14473947D01*
G37*
D11*
X23825000Y14000000D03*
D10*
G36*
X22490191Y14473947D02*
G01*
X22511426Y14470797D01*
X22532250Y14465581D01*
X22552462Y14458349D01*
X22571868Y14449170D01*
X22590281Y14438134D01*
X22607524Y14425346D01*
X22623430Y14410930D01*
X22637846Y14395024D01*
X22650634Y14377781D01*
X22661670Y14359368D01*
X22670849Y14339962D01*
X22678081Y14319750D01*
X22683297Y14298926D01*
X22686447Y14277691D01*
X22687500Y14256250D01*
X22687500Y13743750D01*
X22686447Y13722309D01*
X22683297Y13701074D01*
X22678081Y13680250D01*
X22670849Y13660038D01*
X22661670Y13640632D01*
X22650634Y13622219D01*
X22637846Y13604976D01*
X22623430Y13589070D01*
X22607524Y13574654D01*
X22590281Y13561866D01*
X22571868Y13550830D01*
X22552462Y13541651D01*
X22532250Y13534419D01*
X22511426Y13529203D01*
X22490191Y13526053D01*
X22468750Y13525000D01*
X22031250Y13525000D01*
X22009809Y13526053D01*
X21988574Y13529203D01*
X21967750Y13534419D01*
X21947538Y13541651D01*
X21928132Y13550830D01*
X21909719Y13561866D01*
X21892476Y13574654D01*
X21876570Y13589070D01*
X21862154Y13604976D01*
X21849366Y13622219D01*
X21838330Y13640632D01*
X21829151Y13660038D01*
X21821919Y13680250D01*
X21816703Y13701074D01*
X21813553Y13722309D01*
X21812500Y13743750D01*
X21812500Y14256250D01*
X21813553Y14277691D01*
X21816703Y14298926D01*
X21821919Y14319750D01*
X21829151Y14339962D01*
X21838330Y14359368D01*
X21849366Y14377781D01*
X21862154Y14395024D01*
X21876570Y14410930D01*
X21892476Y14425346D01*
X21909719Y14438134D01*
X21928132Y14449170D01*
X21947538Y14458349D01*
X21967750Y14465581D01*
X21988574Y14470797D01*
X22009809Y14473947D01*
X22031250Y14475000D01*
X22468750Y14475000D01*
X22490191Y14473947D01*
X22490191Y14473947D01*
G37*
D11*
X22250000Y14000000D03*
D10*
G36*
X19452691Y14473947D02*
G01*
X19473926Y14470797D01*
X19494750Y14465581D01*
X19514962Y14458349D01*
X19534368Y14449170D01*
X19552781Y14438134D01*
X19570024Y14425346D01*
X19585930Y14410930D01*
X19600346Y14395024D01*
X19613134Y14377781D01*
X19624170Y14359368D01*
X19633349Y14339962D01*
X19640581Y14319750D01*
X19645797Y14298926D01*
X19648947Y14277691D01*
X19650000Y14256250D01*
X19650000Y13743750D01*
X19648947Y13722309D01*
X19645797Y13701074D01*
X19640581Y13680250D01*
X19633349Y13660038D01*
X19624170Y13640632D01*
X19613134Y13622219D01*
X19600346Y13604976D01*
X19585930Y13589070D01*
X19570024Y13574654D01*
X19552781Y13561866D01*
X19534368Y13550830D01*
X19514962Y13541651D01*
X19494750Y13534419D01*
X19473926Y13529203D01*
X19452691Y13526053D01*
X19431250Y13525000D01*
X18993750Y13525000D01*
X18972309Y13526053D01*
X18951074Y13529203D01*
X18930250Y13534419D01*
X18910038Y13541651D01*
X18890632Y13550830D01*
X18872219Y13561866D01*
X18854976Y13574654D01*
X18839070Y13589070D01*
X18824654Y13604976D01*
X18811866Y13622219D01*
X18800830Y13640632D01*
X18791651Y13660038D01*
X18784419Y13680250D01*
X18779203Y13701074D01*
X18776053Y13722309D01*
X18775000Y13743750D01*
X18775000Y14256250D01*
X18776053Y14277691D01*
X18779203Y14298926D01*
X18784419Y14319750D01*
X18791651Y14339962D01*
X18800830Y14359368D01*
X18811866Y14377781D01*
X18824654Y14395024D01*
X18839070Y14410930D01*
X18854976Y14425346D01*
X18872219Y14438134D01*
X18890632Y14449170D01*
X18910038Y14458349D01*
X18930250Y14465581D01*
X18951074Y14470797D01*
X18972309Y14473947D01*
X18993750Y14475000D01*
X19431250Y14475000D01*
X19452691Y14473947D01*
X19452691Y14473947D01*
G37*
D11*
X19212500Y14000000D03*
D10*
G36*
X21027691Y14473947D02*
G01*
X21048926Y14470797D01*
X21069750Y14465581D01*
X21089962Y14458349D01*
X21109368Y14449170D01*
X21127781Y14438134D01*
X21145024Y14425346D01*
X21160930Y14410930D01*
X21175346Y14395024D01*
X21188134Y14377781D01*
X21199170Y14359368D01*
X21208349Y14339962D01*
X21215581Y14319750D01*
X21220797Y14298926D01*
X21223947Y14277691D01*
X21225000Y14256250D01*
X21225000Y13743750D01*
X21223947Y13722309D01*
X21220797Y13701074D01*
X21215581Y13680250D01*
X21208349Y13660038D01*
X21199170Y13640632D01*
X21188134Y13622219D01*
X21175346Y13604976D01*
X21160930Y13589070D01*
X21145024Y13574654D01*
X21127781Y13561866D01*
X21109368Y13550830D01*
X21089962Y13541651D01*
X21069750Y13534419D01*
X21048926Y13529203D01*
X21027691Y13526053D01*
X21006250Y13525000D01*
X20568750Y13525000D01*
X20547309Y13526053D01*
X20526074Y13529203D01*
X20505250Y13534419D01*
X20485038Y13541651D01*
X20465632Y13550830D01*
X20447219Y13561866D01*
X20429976Y13574654D01*
X20414070Y13589070D01*
X20399654Y13604976D01*
X20386866Y13622219D01*
X20375830Y13640632D01*
X20366651Y13660038D01*
X20359419Y13680250D01*
X20354203Y13701074D01*
X20351053Y13722309D01*
X20350000Y13743750D01*
X20350000Y14256250D01*
X20351053Y14277691D01*
X20354203Y14298926D01*
X20359419Y14319750D01*
X20366651Y14339962D01*
X20375830Y14359368D01*
X20386866Y14377781D01*
X20399654Y14395024D01*
X20414070Y14410930D01*
X20429976Y14425346D01*
X20447219Y14438134D01*
X20465632Y14449170D01*
X20485038Y14458349D01*
X20505250Y14465581D01*
X20526074Y14470797D01*
X20547309Y14473947D01*
X20568750Y14475000D01*
X21006250Y14475000D01*
X21027691Y14473947D01*
X21027691Y14473947D01*
G37*
D11*
X20787500Y14000000D03*
D10*
G36*
X25777691Y16398947D02*
G01*
X25798926Y16395797D01*
X25819750Y16390581D01*
X25839962Y16383349D01*
X25859368Y16374170D01*
X25877781Y16363134D01*
X25895024Y16350346D01*
X25910930Y16335930D01*
X25925346Y16320024D01*
X25938134Y16302781D01*
X25949170Y16284368D01*
X25958349Y16264962D01*
X25965581Y16244750D01*
X25970797Y16223926D01*
X25973947Y16202691D01*
X25975000Y16181250D01*
X25975000Y15743750D01*
X25973947Y15722309D01*
X25970797Y15701074D01*
X25965581Y15680250D01*
X25958349Y15660038D01*
X25949170Y15640632D01*
X25938134Y15622219D01*
X25925346Y15604976D01*
X25910930Y15589070D01*
X25895024Y15574654D01*
X25877781Y15561866D01*
X25859368Y15550830D01*
X25839962Y15541651D01*
X25819750Y15534419D01*
X25798926Y15529203D01*
X25777691Y15526053D01*
X25756250Y15525000D01*
X25243750Y15525000D01*
X25222309Y15526053D01*
X25201074Y15529203D01*
X25180250Y15534419D01*
X25160038Y15541651D01*
X25140632Y15550830D01*
X25122219Y15561866D01*
X25104976Y15574654D01*
X25089070Y15589070D01*
X25074654Y15604976D01*
X25061866Y15622219D01*
X25050830Y15640632D01*
X25041651Y15660038D01*
X25034419Y15680250D01*
X25029203Y15701074D01*
X25026053Y15722309D01*
X25025000Y15743750D01*
X25025000Y16181250D01*
X25026053Y16202691D01*
X25029203Y16223926D01*
X25034419Y16244750D01*
X25041651Y16264962D01*
X25050830Y16284368D01*
X25061866Y16302781D01*
X25074654Y16320024D01*
X25089070Y16335930D01*
X25104976Y16350346D01*
X25122219Y16363134D01*
X25140632Y16374170D01*
X25160038Y16383349D01*
X25180250Y16390581D01*
X25201074Y16395797D01*
X25222309Y16398947D01*
X25243750Y16400000D01*
X25756250Y16400000D01*
X25777691Y16398947D01*
X25777691Y16398947D01*
G37*
D11*
X25500000Y15962500D03*
D10*
G36*
X25777691Y17973947D02*
G01*
X25798926Y17970797D01*
X25819750Y17965581D01*
X25839962Y17958349D01*
X25859368Y17949170D01*
X25877781Y17938134D01*
X25895024Y17925346D01*
X25910930Y17910930D01*
X25925346Y17895024D01*
X25938134Y17877781D01*
X25949170Y17859368D01*
X25958349Y17839962D01*
X25965581Y17819750D01*
X25970797Y17798926D01*
X25973947Y17777691D01*
X25975000Y17756250D01*
X25975000Y17318750D01*
X25973947Y17297309D01*
X25970797Y17276074D01*
X25965581Y17255250D01*
X25958349Y17235038D01*
X25949170Y17215632D01*
X25938134Y17197219D01*
X25925346Y17179976D01*
X25910930Y17164070D01*
X25895024Y17149654D01*
X25877781Y17136866D01*
X25859368Y17125830D01*
X25839962Y17116651D01*
X25819750Y17109419D01*
X25798926Y17104203D01*
X25777691Y17101053D01*
X25756250Y17100000D01*
X25243750Y17100000D01*
X25222309Y17101053D01*
X25201074Y17104203D01*
X25180250Y17109419D01*
X25160038Y17116651D01*
X25140632Y17125830D01*
X25122219Y17136866D01*
X25104976Y17149654D01*
X25089070Y17164070D01*
X25074654Y17179976D01*
X25061866Y17197219D01*
X25050830Y17215632D01*
X25041651Y17235038D01*
X25034419Y17255250D01*
X25029203Y17276074D01*
X25026053Y17297309D01*
X25025000Y17318750D01*
X25025000Y17756250D01*
X25026053Y17777691D01*
X25029203Y17798926D01*
X25034419Y17819750D01*
X25041651Y17839962D01*
X25050830Y17859368D01*
X25061866Y17877781D01*
X25074654Y17895024D01*
X25089070Y17910930D01*
X25104976Y17925346D01*
X25122219Y17938134D01*
X25140632Y17949170D01*
X25160038Y17958349D01*
X25180250Y17965581D01*
X25201074Y17970797D01*
X25222309Y17973947D01*
X25243750Y17975000D01*
X25756250Y17975000D01*
X25777691Y17973947D01*
X25777691Y17973947D01*
G37*
D11*
X25500000Y17537500D03*
D10*
G36*
X15452691Y19973947D02*
G01*
X15473926Y19970797D01*
X15494750Y19965581D01*
X15514962Y19958349D01*
X15534368Y19949170D01*
X15552781Y19938134D01*
X15570024Y19925346D01*
X15585930Y19910930D01*
X15600346Y19895024D01*
X15613134Y19877781D01*
X15624170Y19859368D01*
X15633349Y19839962D01*
X15640581Y19819750D01*
X15645797Y19798926D01*
X15648947Y19777691D01*
X15650000Y19756250D01*
X15650000Y19243750D01*
X15648947Y19222309D01*
X15645797Y19201074D01*
X15640581Y19180250D01*
X15633349Y19160038D01*
X15624170Y19140632D01*
X15613134Y19122219D01*
X15600346Y19104976D01*
X15585930Y19089070D01*
X15570024Y19074654D01*
X15552781Y19061866D01*
X15534368Y19050830D01*
X15514962Y19041651D01*
X15494750Y19034419D01*
X15473926Y19029203D01*
X15452691Y19026053D01*
X15431250Y19025000D01*
X14993750Y19025000D01*
X14972309Y19026053D01*
X14951074Y19029203D01*
X14930250Y19034419D01*
X14910038Y19041651D01*
X14890632Y19050830D01*
X14872219Y19061866D01*
X14854976Y19074654D01*
X14839070Y19089070D01*
X14824654Y19104976D01*
X14811866Y19122219D01*
X14800830Y19140632D01*
X14791651Y19160038D01*
X14784419Y19180250D01*
X14779203Y19201074D01*
X14776053Y19222309D01*
X14775000Y19243750D01*
X14775000Y19756250D01*
X14776053Y19777691D01*
X14779203Y19798926D01*
X14784419Y19819750D01*
X14791651Y19839962D01*
X14800830Y19859368D01*
X14811866Y19877781D01*
X14824654Y19895024D01*
X14839070Y19910930D01*
X14854976Y19925346D01*
X14872219Y19938134D01*
X14890632Y19949170D01*
X14910038Y19958349D01*
X14930250Y19965581D01*
X14951074Y19970797D01*
X14972309Y19973947D01*
X14993750Y19975000D01*
X15431250Y19975000D01*
X15452691Y19973947D01*
X15452691Y19973947D01*
G37*
D11*
X15212500Y19500000D03*
D10*
G36*
X17027691Y19973947D02*
G01*
X17048926Y19970797D01*
X17069750Y19965581D01*
X17089962Y19958349D01*
X17109368Y19949170D01*
X17127781Y19938134D01*
X17145024Y19925346D01*
X17160930Y19910930D01*
X17175346Y19895024D01*
X17188134Y19877781D01*
X17199170Y19859368D01*
X17208349Y19839962D01*
X17215581Y19819750D01*
X17220797Y19798926D01*
X17223947Y19777691D01*
X17225000Y19756250D01*
X17225000Y19243750D01*
X17223947Y19222309D01*
X17220797Y19201074D01*
X17215581Y19180250D01*
X17208349Y19160038D01*
X17199170Y19140632D01*
X17188134Y19122219D01*
X17175346Y19104976D01*
X17160930Y19089070D01*
X17145024Y19074654D01*
X17127781Y19061866D01*
X17109368Y19050830D01*
X17089962Y19041651D01*
X17069750Y19034419D01*
X17048926Y19029203D01*
X17027691Y19026053D01*
X17006250Y19025000D01*
X16568750Y19025000D01*
X16547309Y19026053D01*
X16526074Y19029203D01*
X16505250Y19034419D01*
X16485038Y19041651D01*
X16465632Y19050830D01*
X16447219Y19061866D01*
X16429976Y19074654D01*
X16414070Y19089070D01*
X16399654Y19104976D01*
X16386866Y19122219D01*
X16375830Y19140632D01*
X16366651Y19160038D01*
X16359419Y19180250D01*
X16354203Y19201074D01*
X16351053Y19222309D01*
X16350000Y19243750D01*
X16350000Y19756250D01*
X16351053Y19777691D01*
X16354203Y19798926D01*
X16359419Y19819750D01*
X16366651Y19839962D01*
X16375830Y19859368D01*
X16386866Y19877781D01*
X16399654Y19895024D01*
X16414070Y19910930D01*
X16429976Y19925346D01*
X16447219Y19938134D01*
X16465632Y19949170D01*
X16485038Y19958349D01*
X16505250Y19965581D01*
X16526074Y19970797D01*
X16547309Y19973947D01*
X16568750Y19975000D01*
X17006250Y19975000D01*
X17027691Y19973947D01*
X17027691Y19973947D01*
G37*
D11*
X16787500Y19500000D03*
D10*
G36*
X20027691Y43723947D02*
G01*
X20048926Y43720797D01*
X20069750Y43715581D01*
X20089962Y43708349D01*
X20109368Y43699170D01*
X20127781Y43688134D01*
X20145024Y43675346D01*
X20160930Y43660930D01*
X20175346Y43645024D01*
X20188134Y43627781D01*
X20199170Y43609368D01*
X20208349Y43589962D01*
X20215581Y43569750D01*
X20220797Y43548926D01*
X20223947Y43527691D01*
X20225000Y43506250D01*
X20225000Y43068750D01*
X20223947Y43047309D01*
X20220797Y43026074D01*
X20215581Y43005250D01*
X20208349Y42985038D01*
X20199170Y42965632D01*
X20188134Y42947219D01*
X20175346Y42929976D01*
X20160930Y42914070D01*
X20145024Y42899654D01*
X20127781Y42886866D01*
X20109368Y42875830D01*
X20089962Y42866651D01*
X20069750Y42859419D01*
X20048926Y42854203D01*
X20027691Y42851053D01*
X20006250Y42850000D01*
X19493750Y42850000D01*
X19472309Y42851053D01*
X19451074Y42854203D01*
X19430250Y42859419D01*
X19410038Y42866651D01*
X19390632Y42875830D01*
X19372219Y42886866D01*
X19354976Y42899654D01*
X19339070Y42914070D01*
X19324654Y42929976D01*
X19311866Y42947219D01*
X19300830Y42965632D01*
X19291651Y42985038D01*
X19284419Y43005250D01*
X19279203Y43026074D01*
X19276053Y43047309D01*
X19275000Y43068750D01*
X19275000Y43506250D01*
X19276053Y43527691D01*
X19279203Y43548926D01*
X19284419Y43569750D01*
X19291651Y43589962D01*
X19300830Y43609368D01*
X19311866Y43627781D01*
X19324654Y43645024D01*
X19339070Y43660930D01*
X19354976Y43675346D01*
X19372219Y43688134D01*
X19390632Y43699170D01*
X19410038Y43708349D01*
X19430250Y43715581D01*
X19451074Y43720797D01*
X19472309Y43723947D01*
X19493750Y43725000D01*
X20006250Y43725000D01*
X20027691Y43723947D01*
X20027691Y43723947D01*
G37*
D11*
X19750000Y43287500D03*
D10*
G36*
X20027691Y42148947D02*
G01*
X20048926Y42145797D01*
X20069750Y42140581D01*
X20089962Y42133349D01*
X20109368Y42124170D01*
X20127781Y42113134D01*
X20145024Y42100346D01*
X20160930Y42085930D01*
X20175346Y42070024D01*
X20188134Y42052781D01*
X20199170Y42034368D01*
X20208349Y42014962D01*
X20215581Y41994750D01*
X20220797Y41973926D01*
X20223947Y41952691D01*
X20225000Y41931250D01*
X20225000Y41493750D01*
X20223947Y41472309D01*
X20220797Y41451074D01*
X20215581Y41430250D01*
X20208349Y41410038D01*
X20199170Y41390632D01*
X20188134Y41372219D01*
X20175346Y41354976D01*
X20160930Y41339070D01*
X20145024Y41324654D01*
X20127781Y41311866D01*
X20109368Y41300830D01*
X20089962Y41291651D01*
X20069750Y41284419D01*
X20048926Y41279203D01*
X20027691Y41276053D01*
X20006250Y41275000D01*
X19493750Y41275000D01*
X19472309Y41276053D01*
X19451074Y41279203D01*
X19430250Y41284419D01*
X19410038Y41291651D01*
X19390632Y41300830D01*
X19372219Y41311866D01*
X19354976Y41324654D01*
X19339070Y41339070D01*
X19324654Y41354976D01*
X19311866Y41372219D01*
X19300830Y41390632D01*
X19291651Y41410038D01*
X19284419Y41430250D01*
X19279203Y41451074D01*
X19276053Y41472309D01*
X19275000Y41493750D01*
X19275000Y41931250D01*
X19276053Y41952691D01*
X19279203Y41973926D01*
X19284419Y41994750D01*
X19291651Y42014962D01*
X19300830Y42034368D01*
X19311866Y42052781D01*
X19324654Y42070024D01*
X19339070Y42085930D01*
X19354976Y42100346D01*
X19372219Y42113134D01*
X19390632Y42124170D01*
X19410038Y42133349D01*
X19430250Y42140581D01*
X19451074Y42145797D01*
X19472309Y42148947D01*
X19493750Y42150000D01*
X20006250Y42150000D01*
X20027691Y42148947D01*
X20027691Y42148947D01*
G37*
D11*
X19750000Y41712500D03*
D10*
G36*
X37027691Y7898947D02*
G01*
X37048926Y7895797D01*
X37069750Y7890581D01*
X37089962Y7883349D01*
X37109368Y7874170D01*
X37127781Y7863134D01*
X37145024Y7850346D01*
X37160930Y7835930D01*
X37175346Y7820024D01*
X37188134Y7802781D01*
X37199170Y7784368D01*
X37208349Y7764962D01*
X37215581Y7744750D01*
X37220797Y7723926D01*
X37223947Y7702691D01*
X37225000Y7681250D01*
X37225000Y7243750D01*
X37223947Y7222309D01*
X37220797Y7201074D01*
X37215581Y7180250D01*
X37208349Y7160038D01*
X37199170Y7140632D01*
X37188134Y7122219D01*
X37175346Y7104976D01*
X37160930Y7089070D01*
X37145024Y7074654D01*
X37127781Y7061866D01*
X37109368Y7050830D01*
X37089962Y7041651D01*
X37069750Y7034419D01*
X37048926Y7029203D01*
X37027691Y7026053D01*
X37006250Y7025000D01*
X36493750Y7025000D01*
X36472309Y7026053D01*
X36451074Y7029203D01*
X36430250Y7034419D01*
X36410038Y7041651D01*
X36390632Y7050830D01*
X36372219Y7061866D01*
X36354976Y7074654D01*
X36339070Y7089070D01*
X36324654Y7104976D01*
X36311866Y7122219D01*
X36300830Y7140632D01*
X36291651Y7160038D01*
X36284419Y7180250D01*
X36279203Y7201074D01*
X36276053Y7222309D01*
X36275000Y7243750D01*
X36275000Y7681250D01*
X36276053Y7702691D01*
X36279203Y7723926D01*
X36284419Y7744750D01*
X36291651Y7764962D01*
X36300830Y7784368D01*
X36311866Y7802781D01*
X36324654Y7820024D01*
X36339070Y7835930D01*
X36354976Y7850346D01*
X36372219Y7863134D01*
X36390632Y7874170D01*
X36410038Y7883349D01*
X36430250Y7890581D01*
X36451074Y7895797D01*
X36472309Y7898947D01*
X36493750Y7900000D01*
X37006250Y7900000D01*
X37027691Y7898947D01*
X37027691Y7898947D01*
G37*
D11*
X36750000Y7462500D03*
D10*
G36*
X37027691Y9473947D02*
G01*
X37048926Y9470797D01*
X37069750Y9465581D01*
X37089962Y9458349D01*
X37109368Y9449170D01*
X37127781Y9438134D01*
X37145024Y9425346D01*
X37160930Y9410930D01*
X37175346Y9395024D01*
X37188134Y9377781D01*
X37199170Y9359368D01*
X37208349Y9339962D01*
X37215581Y9319750D01*
X37220797Y9298926D01*
X37223947Y9277691D01*
X37225000Y9256250D01*
X37225000Y8818750D01*
X37223947Y8797309D01*
X37220797Y8776074D01*
X37215581Y8755250D01*
X37208349Y8735038D01*
X37199170Y8715632D01*
X37188134Y8697219D01*
X37175346Y8679976D01*
X37160930Y8664070D01*
X37145024Y8649654D01*
X37127781Y8636866D01*
X37109368Y8625830D01*
X37089962Y8616651D01*
X37069750Y8609419D01*
X37048926Y8604203D01*
X37027691Y8601053D01*
X37006250Y8600000D01*
X36493750Y8600000D01*
X36472309Y8601053D01*
X36451074Y8604203D01*
X36430250Y8609419D01*
X36410038Y8616651D01*
X36390632Y8625830D01*
X36372219Y8636866D01*
X36354976Y8649654D01*
X36339070Y8664070D01*
X36324654Y8679976D01*
X36311866Y8697219D01*
X36300830Y8715632D01*
X36291651Y8735038D01*
X36284419Y8755250D01*
X36279203Y8776074D01*
X36276053Y8797309D01*
X36275000Y8818750D01*
X36275000Y9256250D01*
X36276053Y9277691D01*
X36279203Y9298926D01*
X36284419Y9319750D01*
X36291651Y9339962D01*
X36300830Y9359368D01*
X36311866Y9377781D01*
X36324654Y9395024D01*
X36339070Y9410930D01*
X36354976Y9425346D01*
X36372219Y9438134D01*
X36390632Y9449170D01*
X36410038Y9458349D01*
X36430250Y9465581D01*
X36451074Y9470797D01*
X36472309Y9473947D01*
X36493750Y9475000D01*
X37006250Y9475000D01*
X37027691Y9473947D01*
X37027691Y9473947D01*
G37*
D11*
X36750000Y9037500D03*
D20*
X43500000Y53000000D03*
X39500000Y53000000D03*
D14*
X45950000Y55500000D03*
X44550000Y55500000D03*
X49000000Y41500000D03*
X47600000Y41500000D03*
D10*
G36*
X15415191Y21473947D02*
G01*
X15436426Y21470797D01*
X15457250Y21465581D01*
X15477462Y21458349D01*
X15496868Y21449170D01*
X15515281Y21438134D01*
X15532524Y21425346D01*
X15548430Y21410930D01*
X15562846Y21395024D01*
X15575634Y21377781D01*
X15586670Y21359368D01*
X15595849Y21339962D01*
X15603081Y21319750D01*
X15608297Y21298926D01*
X15611447Y21277691D01*
X15612500Y21256250D01*
X15612500Y20743750D01*
X15611447Y20722309D01*
X15608297Y20701074D01*
X15603081Y20680250D01*
X15595849Y20660038D01*
X15586670Y20640632D01*
X15575634Y20622219D01*
X15562846Y20604976D01*
X15548430Y20589070D01*
X15532524Y20574654D01*
X15515281Y20561866D01*
X15496868Y20550830D01*
X15477462Y20541651D01*
X15457250Y20534419D01*
X15436426Y20529203D01*
X15415191Y20526053D01*
X15393750Y20525000D01*
X14956250Y20525000D01*
X14934809Y20526053D01*
X14913574Y20529203D01*
X14892750Y20534419D01*
X14872538Y20541651D01*
X14853132Y20550830D01*
X14834719Y20561866D01*
X14817476Y20574654D01*
X14801570Y20589070D01*
X14787154Y20604976D01*
X14774366Y20622219D01*
X14763330Y20640632D01*
X14754151Y20660038D01*
X14746919Y20680250D01*
X14741703Y20701074D01*
X14738553Y20722309D01*
X14737500Y20743750D01*
X14737500Y21256250D01*
X14738553Y21277691D01*
X14741703Y21298926D01*
X14746919Y21319750D01*
X14754151Y21339962D01*
X14763330Y21359368D01*
X14774366Y21377781D01*
X14787154Y21395024D01*
X14801570Y21410930D01*
X14817476Y21425346D01*
X14834719Y21438134D01*
X14853132Y21449170D01*
X14872538Y21458349D01*
X14892750Y21465581D01*
X14913574Y21470797D01*
X14934809Y21473947D01*
X14956250Y21475000D01*
X15393750Y21475000D01*
X15415191Y21473947D01*
X15415191Y21473947D01*
G37*
D11*
X15175000Y21000000D03*
D10*
G36*
X16990191Y21473947D02*
G01*
X17011426Y21470797D01*
X17032250Y21465581D01*
X17052462Y21458349D01*
X17071868Y21449170D01*
X17090281Y21438134D01*
X17107524Y21425346D01*
X17123430Y21410930D01*
X17137846Y21395024D01*
X17150634Y21377781D01*
X17161670Y21359368D01*
X17170849Y21339962D01*
X17178081Y21319750D01*
X17183297Y21298926D01*
X17186447Y21277691D01*
X17187500Y21256250D01*
X17187500Y20743750D01*
X17186447Y20722309D01*
X17183297Y20701074D01*
X17178081Y20680250D01*
X17170849Y20660038D01*
X17161670Y20640632D01*
X17150634Y20622219D01*
X17137846Y20604976D01*
X17123430Y20589070D01*
X17107524Y20574654D01*
X17090281Y20561866D01*
X17071868Y20550830D01*
X17052462Y20541651D01*
X17032250Y20534419D01*
X17011426Y20529203D01*
X16990191Y20526053D01*
X16968750Y20525000D01*
X16531250Y20525000D01*
X16509809Y20526053D01*
X16488574Y20529203D01*
X16467750Y20534419D01*
X16447538Y20541651D01*
X16428132Y20550830D01*
X16409719Y20561866D01*
X16392476Y20574654D01*
X16376570Y20589070D01*
X16362154Y20604976D01*
X16349366Y20622219D01*
X16338330Y20640632D01*
X16329151Y20660038D01*
X16321919Y20680250D01*
X16316703Y20701074D01*
X16313553Y20722309D01*
X16312500Y20743750D01*
X16312500Y21256250D01*
X16313553Y21277691D01*
X16316703Y21298926D01*
X16321919Y21319750D01*
X16329151Y21339962D01*
X16338330Y21359368D01*
X16349366Y21377781D01*
X16362154Y21395024D01*
X16376570Y21410930D01*
X16392476Y21425346D01*
X16409719Y21438134D01*
X16428132Y21449170D01*
X16447538Y21458349D01*
X16467750Y21465581D01*
X16488574Y21470797D01*
X16509809Y21473947D01*
X16531250Y21475000D01*
X16968750Y21475000D01*
X16990191Y21473947D01*
X16990191Y21473947D01*
G37*
D11*
X16750000Y21000000D03*
D10*
G36*
X38777691Y31723947D02*
G01*
X38798926Y31720797D01*
X38819750Y31715581D01*
X38839962Y31708349D01*
X38859368Y31699170D01*
X38877781Y31688134D01*
X38895024Y31675346D01*
X38910930Y31660930D01*
X38925346Y31645024D01*
X38938134Y31627781D01*
X38949170Y31609368D01*
X38958349Y31589962D01*
X38965581Y31569750D01*
X38970797Y31548926D01*
X38973947Y31527691D01*
X38975000Y31506250D01*
X38975000Y31068750D01*
X38973947Y31047309D01*
X38970797Y31026074D01*
X38965581Y31005250D01*
X38958349Y30985038D01*
X38949170Y30965632D01*
X38938134Y30947219D01*
X38925346Y30929976D01*
X38910930Y30914070D01*
X38895024Y30899654D01*
X38877781Y30886866D01*
X38859368Y30875830D01*
X38839962Y30866651D01*
X38819750Y30859419D01*
X38798926Y30854203D01*
X38777691Y30851053D01*
X38756250Y30850000D01*
X38243750Y30850000D01*
X38222309Y30851053D01*
X38201074Y30854203D01*
X38180250Y30859419D01*
X38160038Y30866651D01*
X38140632Y30875830D01*
X38122219Y30886866D01*
X38104976Y30899654D01*
X38089070Y30914070D01*
X38074654Y30929976D01*
X38061866Y30947219D01*
X38050830Y30965632D01*
X38041651Y30985038D01*
X38034419Y31005250D01*
X38029203Y31026074D01*
X38026053Y31047309D01*
X38025000Y31068750D01*
X38025000Y31506250D01*
X38026053Y31527691D01*
X38029203Y31548926D01*
X38034419Y31569750D01*
X38041651Y31589962D01*
X38050830Y31609368D01*
X38061866Y31627781D01*
X38074654Y31645024D01*
X38089070Y31660930D01*
X38104976Y31675346D01*
X38122219Y31688134D01*
X38140632Y31699170D01*
X38160038Y31708349D01*
X38180250Y31715581D01*
X38201074Y31720797D01*
X38222309Y31723947D01*
X38243750Y31725000D01*
X38756250Y31725000D01*
X38777691Y31723947D01*
X38777691Y31723947D01*
G37*
D11*
X38500000Y31287500D03*
D10*
G36*
X38777691Y30148947D02*
G01*
X38798926Y30145797D01*
X38819750Y30140581D01*
X38839962Y30133349D01*
X38859368Y30124170D01*
X38877781Y30113134D01*
X38895024Y30100346D01*
X38910930Y30085930D01*
X38925346Y30070024D01*
X38938134Y30052781D01*
X38949170Y30034368D01*
X38958349Y30014962D01*
X38965581Y29994750D01*
X38970797Y29973926D01*
X38973947Y29952691D01*
X38975000Y29931250D01*
X38975000Y29493750D01*
X38973947Y29472309D01*
X38970797Y29451074D01*
X38965581Y29430250D01*
X38958349Y29410038D01*
X38949170Y29390632D01*
X38938134Y29372219D01*
X38925346Y29354976D01*
X38910930Y29339070D01*
X38895024Y29324654D01*
X38877781Y29311866D01*
X38859368Y29300830D01*
X38839962Y29291651D01*
X38819750Y29284419D01*
X38798926Y29279203D01*
X38777691Y29276053D01*
X38756250Y29275000D01*
X38243750Y29275000D01*
X38222309Y29276053D01*
X38201074Y29279203D01*
X38180250Y29284419D01*
X38160038Y29291651D01*
X38140632Y29300830D01*
X38122219Y29311866D01*
X38104976Y29324654D01*
X38089070Y29339070D01*
X38074654Y29354976D01*
X38061866Y29372219D01*
X38050830Y29390632D01*
X38041651Y29410038D01*
X38034419Y29430250D01*
X38029203Y29451074D01*
X38026053Y29472309D01*
X38025000Y29493750D01*
X38025000Y29931250D01*
X38026053Y29952691D01*
X38029203Y29973926D01*
X38034419Y29994750D01*
X38041651Y30014962D01*
X38050830Y30034368D01*
X38061866Y30052781D01*
X38074654Y30070024D01*
X38089070Y30085930D01*
X38104976Y30100346D01*
X38122219Y30113134D01*
X38140632Y30124170D01*
X38160038Y30133349D01*
X38180250Y30140581D01*
X38201074Y30145797D01*
X38222309Y30148947D01*
X38243750Y30150000D01*
X38756250Y30150000D01*
X38777691Y30148947D01*
X38777691Y30148947D01*
G37*
D11*
X38500000Y29712500D03*
D10*
G36*
X46027691Y53973947D02*
G01*
X46048926Y53970797D01*
X46069750Y53965581D01*
X46089962Y53958349D01*
X46109368Y53949170D01*
X46127781Y53938134D01*
X46145024Y53925346D01*
X46160930Y53910930D01*
X46175346Y53895024D01*
X46188134Y53877781D01*
X46199170Y53859368D01*
X46208349Y53839962D01*
X46215581Y53819750D01*
X46220797Y53798926D01*
X46223947Y53777691D01*
X46225000Y53756250D01*
X46225000Y53318750D01*
X46223947Y53297309D01*
X46220797Y53276074D01*
X46215581Y53255250D01*
X46208349Y53235038D01*
X46199170Y53215632D01*
X46188134Y53197219D01*
X46175346Y53179976D01*
X46160930Y53164070D01*
X46145024Y53149654D01*
X46127781Y53136866D01*
X46109368Y53125830D01*
X46089962Y53116651D01*
X46069750Y53109419D01*
X46048926Y53104203D01*
X46027691Y53101053D01*
X46006250Y53100000D01*
X45493750Y53100000D01*
X45472309Y53101053D01*
X45451074Y53104203D01*
X45430250Y53109419D01*
X45410038Y53116651D01*
X45390632Y53125830D01*
X45372219Y53136866D01*
X45354976Y53149654D01*
X45339070Y53164070D01*
X45324654Y53179976D01*
X45311866Y53197219D01*
X45300830Y53215632D01*
X45291651Y53235038D01*
X45284419Y53255250D01*
X45279203Y53276074D01*
X45276053Y53297309D01*
X45275000Y53318750D01*
X45275000Y53756250D01*
X45276053Y53777691D01*
X45279203Y53798926D01*
X45284419Y53819750D01*
X45291651Y53839962D01*
X45300830Y53859368D01*
X45311866Y53877781D01*
X45324654Y53895024D01*
X45339070Y53910930D01*
X45354976Y53925346D01*
X45372219Y53938134D01*
X45390632Y53949170D01*
X45410038Y53958349D01*
X45430250Y53965581D01*
X45451074Y53970797D01*
X45472309Y53973947D01*
X45493750Y53975000D01*
X46006250Y53975000D01*
X46027691Y53973947D01*
X46027691Y53973947D01*
G37*
D11*
X45750000Y53537500D03*
D10*
G36*
X46027691Y52398947D02*
G01*
X46048926Y52395797D01*
X46069750Y52390581D01*
X46089962Y52383349D01*
X46109368Y52374170D01*
X46127781Y52363134D01*
X46145024Y52350346D01*
X46160930Y52335930D01*
X46175346Y52320024D01*
X46188134Y52302781D01*
X46199170Y52284368D01*
X46208349Y52264962D01*
X46215581Y52244750D01*
X46220797Y52223926D01*
X46223947Y52202691D01*
X46225000Y52181250D01*
X46225000Y51743750D01*
X46223947Y51722309D01*
X46220797Y51701074D01*
X46215581Y51680250D01*
X46208349Y51660038D01*
X46199170Y51640632D01*
X46188134Y51622219D01*
X46175346Y51604976D01*
X46160930Y51589070D01*
X46145024Y51574654D01*
X46127781Y51561866D01*
X46109368Y51550830D01*
X46089962Y51541651D01*
X46069750Y51534419D01*
X46048926Y51529203D01*
X46027691Y51526053D01*
X46006250Y51525000D01*
X45493750Y51525000D01*
X45472309Y51526053D01*
X45451074Y51529203D01*
X45430250Y51534419D01*
X45410038Y51541651D01*
X45390632Y51550830D01*
X45372219Y51561866D01*
X45354976Y51574654D01*
X45339070Y51589070D01*
X45324654Y51604976D01*
X45311866Y51622219D01*
X45300830Y51640632D01*
X45291651Y51660038D01*
X45284419Y51680250D01*
X45279203Y51701074D01*
X45276053Y51722309D01*
X45275000Y51743750D01*
X45275000Y52181250D01*
X45276053Y52202691D01*
X45279203Y52223926D01*
X45284419Y52244750D01*
X45291651Y52264962D01*
X45300830Y52284368D01*
X45311866Y52302781D01*
X45324654Y52320024D01*
X45339070Y52335930D01*
X45354976Y52350346D01*
X45372219Y52363134D01*
X45390632Y52374170D01*
X45410038Y52383349D01*
X45430250Y52390581D01*
X45451074Y52395797D01*
X45472309Y52398947D01*
X45493750Y52400000D01*
X46006250Y52400000D01*
X46027691Y52398947D01*
X46027691Y52398947D01*
G37*
D11*
X45750000Y51962500D03*
D10*
G36*
X17527691Y47973947D02*
G01*
X17548926Y47970797D01*
X17569750Y47965581D01*
X17589962Y47958349D01*
X17609368Y47949170D01*
X17627781Y47938134D01*
X17645024Y47925346D01*
X17660930Y47910930D01*
X17675346Y47895024D01*
X17688134Y47877781D01*
X17699170Y47859368D01*
X17708349Y47839962D01*
X17715581Y47819750D01*
X17720797Y47798926D01*
X17723947Y47777691D01*
X17725000Y47756250D01*
X17725000Y47243750D01*
X17723947Y47222309D01*
X17720797Y47201074D01*
X17715581Y47180250D01*
X17708349Y47160038D01*
X17699170Y47140632D01*
X17688134Y47122219D01*
X17675346Y47104976D01*
X17660930Y47089070D01*
X17645024Y47074654D01*
X17627781Y47061866D01*
X17609368Y47050830D01*
X17589962Y47041651D01*
X17569750Y47034419D01*
X17548926Y47029203D01*
X17527691Y47026053D01*
X17506250Y47025000D01*
X17068750Y47025000D01*
X17047309Y47026053D01*
X17026074Y47029203D01*
X17005250Y47034419D01*
X16985038Y47041651D01*
X16965632Y47050830D01*
X16947219Y47061866D01*
X16929976Y47074654D01*
X16914070Y47089070D01*
X16899654Y47104976D01*
X16886866Y47122219D01*
X16875830Y47140632D01*
X16866651Y47160038D01*
X16859419Y47180250D01*
X16854203Y47201074D01*
X16851053Y47222309D01*
X16850000Y47243750D01*
X16850000Y47756250D01*
X16851053Y47777691D01*
X16854203Y47798926D01*
X16859419Y47819750D01*
X16866651Y47839962D01*
X16875830Y47859368D01*
X16886866Y47877781D01*
X16899654Y47895024D01*
X16914070Y47910930D01*
X16929976Y47925346D01*
X16947219Y47938134D01*
X16965632Y47949170D01*
X16985038Y47958349D01*
X17005250Y47965581D01*
X17026074Y47970797D01*
X17047309Y47973947D01*
X17068750Y47975000D01*
X17506250Y47975000D01*
X17527691Y47973947D01*
X17527691Y47973947D01*
G37*
D11*
X17287500Y47500000D03*
D10*
G36*
X15952691Y47973947D02*
G01*
X15973926Y47970797D01*
X15994750Y47965581D01*
X16014962Y47958349D01*
X16034368Y47949170D01*
X16052781Y47938134D01*
X16070024Y47925346D01*
X16085930Y47910930D01*
X16100346Y47895024D01*
X16113134Y47877781D01*
X16124170Y47859368D01*
X16133349Y47839962D01*
X16140581Y47819750D01*
X16145797Y47798926D01*
X16148947Y47777691D01*
X16150000Y47756250D01*
X16150000Y47243750D01*
X16148947Y47222309D01*
X16145797Y47201074D01*
X16140581Y47180250D01*
X16133349Y47160038D01*
X16124170Y47140632D01*
X16113134Y47122219D01*
X16100346Y47104976D01*
X16085930Y47089070D01*
X16070024Y47074654D01*
X16052781Y47061866D01*
X16034368Y47050830D01*
X16014962Y47041651D01*
X15994750Y47034419D01*
X15973926Y47029203D01*
X15952691Y47026053D01*
X15931250Y47025000D01*
X15493750Y47025000D01*
X15472309Y47026053D01*
X15451074Y47029203D01*
X15430250Y47034419D01*
X15410038Y47041651D01*
X15390632Y47050830D01*
X15372219Y47061866D01*
X15354976Y47074654D01*
X15339070Y47089070D01*
X15324654Y47104976D01*
X15311866Y47122219D01*
X15300830Y47140632D01*
X15291651Y47160038D01*
X15284419Y47180250D01*
X15279203Y47201074D01*
X15276053Y47222309D01*
X15275000Y47243750D01*
X15275000Y47756250D01*
X15276053Y47777691D01*
X15279203Y47798926D01*
X15284419Y47819750D01*
X15291651Y47839962D01*
X15300830Y47859368D01*
X15311866Y47877781D01*
X15324654Y47895024D01*
X15339070Y47910930D01*
X15354976Y47925346D01*
X15372219Y47938134D01*
X15390632Y47949170D01*
X15410038Y47958349D01*
X15430250Y47965581D01*
X15451074Y47970797D01*
X15472309Y47973947D01*
X15493750Y47975000D01*
X15931250Y47975000D01*
X15952691Y47973947D01*
X15952691Y47973947D01*
G37*
D11*
X15712500Y47500000D03*
D10*
G36*
X11277691Y54973947D02*
G01*
X11298926Y54970797D01*
X11319750Y54965581D01*
X11339962Y54958349D01*
X11359368Y54949170D01*
X11377781Y54938134D01*
X11395024Y54925346D01*
X11410930Y54910930D01*
X11425346Y54895024D01*
X11438134Y54877781D01*
X11449170Y54859368D01*
X11458349Y54839962D01*
X11465581Y54819750D01*
X11470797Y54798926D01*
X11473947Y54777691D01*
X11475000Y54756250D01*
X11475000Y54243750D01*
X11473947Y54222309D01*
X11470797Y54201074D01*
X11465581Y54180250D01*
X11458349Y54160038D01*
X11449170Y54140632D01*
X11438134Y54122219D01*
X11425346Y54104976D01*
X11410930Y54089070D01*
X11395024Y54074654D01*
X11377781Y54061866D01*
X11359368Y54050830D01*
X11339962Y54041651D01*
X11319750Y54034419D01*
X11298926Y54029203D01*
X11277691Y54026053D01*
X11256250Y54025000D01*
X10818750Y54025000D01*
X10797309Y54026053D01*
X10776074Y54029203D01*
X10755250Y54034419D01*
X10735038Y54041651D01*
X10715632Y54050830D01*
X10697219Y54061866D01*
X10679976Y54074654D01*
X10664070Y54089070D01*
X10649654Y54104976D01*
X10636866Y54122219D01*
X10625830Y54140632D01*
X10616651Y54160038D01*
X10609419Y54180250D01*
X10604203Y54201074D01*
X10601053Y54222309D01*
X10600000Y54243750D01*
X10600000Y54756250D01*
X10601053Y54777691D01*
X10604203Y54798926D01*
X10609419Y54819750D01*
X10616651Y54839962D01*
X10625830Y54859368D01*
X10636866Y54877781D01*
X10649654Y54895024D01*
X10664070Y54910930D01*
X10679976Y54925346D01*
X10697219Y54938134D01*
X10715632Y54949170D01*
X10735038Y54958349D01*
X10755250Y54965581D01*
X10776074Y54970797D01*
X10797309Y54973947D01*
X10818750Y54975000D01*
X11256250Y54975000D01*
X11277691Y54973947D01*
X11277691Y54973947D01*
G37*
D11*
X11037500Y54500000D03*
D10*
G36*
X9702691Y54973947D02*
G01*
X9723926Y54970797D01*
X9744750Y54965581D01*
X9764962Y54958349D01*
X9784368Y54949170D01*
X9802781Y54938134D01*
X9820024Y54925346D01*
X9835930Y54910930D01*
X9850346Y54895024D01*
X9863134Y54877781D01*
X9874170Y54859368D01*
X9883349Y54839962D01*
X9890581Y54819750D01*
X9895797Y54798926D01*
X9898947Y54777691D01*
X9900000Y54756250D01*
X9900000Y54243750D01*
X9898947Y54222309D01*
X9895797Y54201074D01*
X9890581Y54180250D01*
X9883349Y54160038D01*
X9874170Y54140632D01*
X9863134Y54122219D01*
X9850346Y54104976D01*
X9835930Y54089070D01*
X9820024Y54074654D01*
X9802781Y54061866D01*
X9784368Y54050830D01*
X9764962Y54041651D01*
X9744750Y54034419D01*
X9723926Y54029203D01*
X9702691Y54026053D01*
X9681250Y54025000D01*
X9243750Y54025000D01*
X9222309Y54026053D01*
X9201074Y54029203D01*
X9180250Y54034419D01*
X9160038Y54041651D01*
X9140632Y54050830D01*
X9122219Y54061866D01*
X9104976Y54074654D01*
X9089070Y54089070D01*
X9074654Y54104976D01*
X9061866Y54122219D01*
X9050830Y54140632D01*
X9041651Y54160038D01*
X9034419Y54180250D01*
X9029203Y54201074D01*
X9026053Y54222309D01*
X9025000Y54243750D01*
X9025000Y54756250D01*
X9026053Y54777691D01*
X9029203Y54798926D01*
X9034419Y54819750D01*
X9041651Y54839962D01*
X9050830Y54859368D01*
X9061866Y54877781D01*
X9074654Y54895024D01*
X9089070Y54910930D01*
X9104976Y54925346D01*
X9122219Y54938134D01*
X9140632Y54949170D01*
X9160038Y54958349D01*
X9180250Y54965581D01*
X9201074Y54970797D01*
X9222309Y54973947D01*
X9243750Y54975000D01*
X9681250Y54975000D01*
X9702691Y54973947D01*
X9702691Y54973947D01*
G37*
D11*
X9462500Y54500000D03*
D10*
G36*
X11527691Y45223947D02*
G01*
X11548926Y45220797D01*
X11569750Y45215581D01*
X11589962Y45208349D01*
X11609368Y45199170D01*
X11627781Y45188134D01*
X11645024Y45175346D01*
X11660930Y45160930D01*
X11675346Y45145024D01*
X11688134Y45127781D01*
X11699170Y45109368D01*
X11708349Y45089962D01*
X11715581Y45069750D01*
X11720797Y45048926D01*
X11723947Y45027691D01*
X11725000Y45006250D01*
X11725000Y44493750D01*
X11723947Y44472309D01*
X11720797Y44451074D01*
X11715581Y44430250D01*
X11708349Y44410038D01*
X11699170Y44390632D01*
X11688134Y44372219D01*
X11675346Y44354976D01*
X11660930Y44339070D01*
X11645024Y44324654D01*
X11627781Y44311866D01*
X11609368Y44300830D01*
X11589962Y44291651D01*
X11569750Y44284419D01*
X11548926Y44279203D01*
X11527691Y44276053D01*
X11506250Y44275000D01*
X11068750Y44275000D01*
X11047309Y44276053D01*
X11026074Y44279203D01*
X11005250Y44284419D01*
X10985038Y44291651D01*
X10965632Y44300830D01*
X10947219Y44311866D01*
X10929976Y44324654D01*
X10914070Y44339070D01*
X10899654Y44354976D01*
X10886866Y44372219D01*
X10875830Y44390632D01*
X10866651Y44410038D01*
X10859419Y44430250D01*
X10854203Y44451074D01*
X10851053Y44472309D01*
X10850000Y44493750D01*
X10850000Y45006250D01*
X10851053Y45027691D01*
X10854203Y45048926D01*
X10859419Y45069750D01*
X10866651Y45089962D01*
X10875830Y45109368D01*
X10886866Y45127781D01*
X10899654Y45145024D01*
X10914070Y45160930D01*
X10929976Y45175346D01*
X10947219Y45188134D01*
X10965632Y45199170D01*
X10985038Y45208349D01*
X11005250Y45215581D01*
X11026074Y45220797D01*
X11047309Y45223947D01*
X11068750Y45225000D01*
X11506250Y45225000D01*
X11527691Y45223947D01*
X11527691Y45223947D01*
G37*
D11*
X11287500Y44750000D03*
D10*
G36*
X9952691Y45223947D02*
G01*
X9973926Y45220797D01*
X9994750Y45215581D01*
X10014962Y45208349D01*
X10034368Y45199170D01*
X10052781Y45188134D01*
X10070024Y45175346D01*
X10085930Y45160930D01*
X10100346Y45145024D01*
X10113134Y45127781D01*
X10124170Y45109368D01*
X10133349Y45089962D01*
X10140581Y45069750D01*
X10145797Y45048926D01*
X10148947Y45027691D01*
X10150000Y45006250D01*
X10150000Y44493750D01*
X10148947Y44472309D01*
X10145797Y44451074D01*
X10140581Y44430250D01*
X10133349Y44410038D01*
X10124170Y44390632D01*
X10113134Y44372219D01*
X10100346Y44354976D01*
X10085930Y44339070D01*
X10070024Y44324654D01*
X10052781Y44311866D01*
X10034368Y44300830D01*
X10014962Y44291651D01*
X9994750Y44284419D01*
X9973926Y44279203D01*
X9952691Y44276053D01*
X9931250Y44275000D01*
X9493750Y44275000D01*
X9472309Y44276053D01*
X9451074Y44279203D01*
X9430250Y44284419D01*
X9410038Y44291651D01*
X9390632Y44300830D01*
X9372219Y44311866D01*
X9354976Y44324654D01*
X9339070Y44339070D01*
X9324654Y44354976D01*
X9311866Y44372219D01*
X9300830Y44390632D01*
X9291651Y44410038D01*
X9284419Y44430250D01*
X9279203Y44451074D01*
X9276053Y44472309D01*
X9275000Y44493750D01*
X9275000Y45006250D01*
X9276053Y45027691D01*
X9279203Y45048926D01*
X9284419Y45069750D01*
X9291651Y45089962D01*
X9300830Y45109368D01*
X9311866Y45127781D01*
X9324654Y45145024D01*
X9339070Y45160930D01*
X9354976Y45175346D01*
X9372219Y45188134D01*
X9390632Y45199170D01*
X9410038Y45208349D01*
X9430250Y45215581D01*
X9451074Y45220797D01*
X9472309Y45223947D01*
X9493750Y45225000D01*
X9931250Y45225000D01*
X9952691Y45223947D01*
X9952691Y45223947D01*
G37*
D11*
X9712500Y44750000D03*
D10*
G36*
X6702691Y54973947D02*
G01*
X6723926Y54970797D01*
X6744750Y54965581D01*
X6764962Y54958349D01*
X6784368Y54949170D01*
X6802781Y54938134D01*
X6820024Y54925346D01*
X6835930Y54910930D01*
X6850346Y54895024D01*
X6863134Y54877781D01*
X6874170Y54859368D01*
X6883349Y54839962D01*
X6890581Y54819750D01*
X6895797Y54798926D01*
X6898947Y54777691D01*
X6900000Y54756250D01*
X6900000Y54243750D01*
X6898947Y54222309D01*
X6895797Y54201074D01*
X6890581Y54180250D01*
X6883349Y54160038D01*
X6874170Y54140632D01*
X6863134Y54122219D01*
X6850346Y54104976D01*
X6835930Y54089070D01*
X6820024Y54074654D01*
X6802781Y54061866D01*
X6784368Y54050830D01*
X6764962Y54041651D01*
X6744750Y54034419D01*
X6723926Y54029203D01*
X6702691Y54026053D01*
X6681250Y54025000D01*
X6243750Y54025000D01*
X6222309Y54026053D01*
X6201074Y54029203D01*
X6180250Y54034419D01*
X6160038Y54041651D01*
X6140632Y54050830D01*
X6122219Y54061866D01*
X6104976Y54074654D01*
X6089070Y54089070D01*
X6074654Y54104976D01*
X6061866Y54122219D01*
X6050830Y54140632D01*
X6041651Y54160038D01*
X6034419Y54180250D01*
X6029203Y54201074D01*
X6026053Y54222309D01*
X6025000Y54243750D01*
X6025000Y54756250D01*
X6026053Y54777691D01*
X6029203Y54798926D01*
X6034419Y54819750D01*
X6041651Y54839962D01*
X6050830Y54859368D01*
X6061866Y54877781D01*
X6074654Y54895024D01*
X6089070Y54910930D01*
X6104976Y54925346D01*
X6122219Y54938134D01*
X6140632Y54949170D01*
X6160038Y54958349D01*
X6180250Y54965581D01*
X6201074Y54970797D01*
X6222309Y54973947D01*
X6243750Y54975000D01*
X6681250Y54975000D01*
X6702691Y54973947D01*
X6702691Y54973947D01*
G37*
D11*
X6462500Y54500000D03*
D10*
G36*
X8277691Y54973947D02*
G01*
X8298926Y54970797D01*
X8319750Y54965581D01*
X8339962Y54958349D01*
X8359368Y54949170D01*
X8377781Y54938134D01*
X8395024Y54925346D01*
X8410930Y54910930D01*
X8425346Y54895024D01*
X8438134Y54877781D01*
X8449170Y54859368D01*
X8458349Y54839962D01*
X8465581Y54819750D01*
X8470797Y54798926D01*
X8473947Y54777691D01*
X8475000Y54756250D01*
X8475000Y54243750D01*
X8473947Y54222309D01*
X8470797Y54201074D01*
X8465581Y54180250D01*
X8458349Y54160038D01*
X8449170Y54140632D01*
X8438134Y54122219D01*
X8425346Y54104976D01*
X8410930Y54089070D01*
X8395024Y54074654D01*
X8377781Y54061866D01*
X8359368Y54050830D01*
X8339962Y54041651D01*
X8319750Y54034419D01*
X8298926Y54029203D01*
X8277691Y54026053D01*
X8256250Y54025000D01*
X7818750Y54025000D01*
X7797309Y54026053D01*
X7776074Y54029203D01*
X7755250Y54034419D01*
X7735038Y54041651D01*
X7715632Y54050830D01*
X7697219Y54061866D01*
X7679976Y54074654D01*
X7664070Y54089070D01*
X7649654Y54104976D01*
X7636866Y54122219D01*
X7625830Y54140632D01*
X7616651Y54160038D01*
X7609419Y54180250D01*
X7604203Y54201074D01*
X7601053Y54222309D01*
X7600000Y54243750D01*
X7600000Y54756250D01*
X7601053Y54777691D01*
X7604203Y54798926D01*
X7609419Y54819750D01*
X7616651Y54839962D01*
X7625830Y54859368D01*
X7636866Y54877781D01*
X7649654Y54895024D01*
X7664070Y54910930D01*
X7679976Y54925346D01*
X7697219Y54938134D01*
X7715632Y54949170D01*
X7735038Y54958349D01*
X7755250Y54965581D01*
X7776074Y54970797D01*
X7797309Y54973947D01*
X7818750Y54975000D01*
X8256250Y54975000D01*
X8277691Y54973947D01*
X8277691Y54973947D01*
G37*
D11*
X8037500Y54500000D03*
D10*
G36*
X39455142Y56448826D02*
G01*
X39478803Y56445316D01*
X39502007Y56439504D01*
X39524529Y56431446D01*
X39546153Y56421218D01*
X39566670Y56408921D01*
X39585883Y56394671D01*
X39603607Y56378607D01*
X39619671Y56360883D01*
X39633921Y56341670D01*
X39646218Y56321153D01*
X39656446Y56299529D01*
X39664504Y56277007D01*
X39670316Y56253803D01*
X39673826Y56230142D01*
X39675000Y56206250D01*
X39675000Y55293750D01*
X39673826Y55269858D01*
X39670316Y55246197D01*
X39664504Y55222993D01*
X39656446Y55200471D01*
X39646218Y55178847D01*
X39633921Y55158330D01*
X39619671Y55139117D01*
X39603607Y55121393D01*
X39585883Y55105329D01*
X39566670Y55091079D01*
X39546153Y55078782D01*
X39524529Y55068554D01*
X39502007Y55060496D01*
X39478803Y55054684D01*
X39455142Y55051174D01*
X39431250Y55050000D01*
X38943750Y55050000D01*
X38919858Y55051174D01*
X38896197Y55054684D01*
X38872993Y55060496D01*
X38850471Y55068554D01*
X38828847Y55078782D01*
X38808330Y55091079D01*
X38789117Y55105329D01*
X38771393Y55121393D01*
X38755329Y55139117D01*
X38741079Y55158330D01*
X38728782Y55178847D01*
X38718554Y55200471D01*
X38710496Y55222993D01*
X38704684Y55246197D01*
X38701174Y55269858D01*
X38700000Y55293750D01*
X38700000Y56206250D01*
X38701174Y56230142D01*
X38704684Y56253803D01*
X38710496Y56277007D01*
X38718554Y56299529D01*
X38728782Y56321153D01*
X38741079Y56341670D01*
X38755329Y56360883D01*
X38771393Y56378607D01*
X38789117Y56394671D01*
X38808330Y56408921D01*
X38828847Y56421218D01*
X38850471Y56431446D01*
X38872993Y56439504D01*
X38896197Y56445316D01*
X38919858Y56448826D01*
X38943750Y56450000D01*
X39431250Y56450000D01*
X39455142Y56448826D01*
X39455142Y56448826D01*
G37*
D15*
X39187500Y55750000D03*
D10*
G36*
X37580142Y56448826D02*
G01*
X37603803Y56445316D01*
X37627007Y56439504D01*
X37649529Y56431446D01*
X37671153Y56421218D01*
X37691670Y56408921D01*
X37710883Y56394671D01*
X37728607Y56378607D01*
X37744671Y56360883D01*
X37758921Y56341670D01*
X37771218Y56321153D01*
X37781446Y56299529D01*
X37789504Y56277007D01*
X37795316Y56253803D01*
X37798826Y56230142D01*
X37800000Y56206250D01*
X37800000Y55293750D01*
X37798826Y55269858D01*
X37795316Y55246197D01*
X37789504Y55222993D01*
X37781446Y55200471D01*
X37771218Y55178847D01*
X37758921Y55158330D01*
X37744671Y55139117D01*
X37728607Y55121393D01*
X37710883Y55105329D01*
X37691670Y55091079D01*
X37671153Y55078782D01*
X37649529Y55068554D01*
X37627007Y55060496D01*
X37603803Y55054684D01*
X37580142Y55051174D01*
X37556250Y55050000D01*
X37068750Y55050000D01*
X37044858Y55051174D01*
X37021197Y55054684D01*
X36997993Y55060496D01*
X36975471Y55068554D01*
X36953847Y55078782D01*
X36933330Y55091079D01*
X36914117Y55105329D01*
X36896393Y55121393D01*
X36880329Y55139117D01*
X36866079Y55158330D01*
X36853782Y55178847D01*
X36843554Y55200471D01*
X36835496Y55222993D01*
X36829684Y55246197D01*
X36826174Y55269858D01*
X36825000Y55293750D01*
X36825000Y56206250D01*
X36826174Y56230142D01*
X36829684Y56253803D01*
X36835496Y56277007D01*
X36843554Y56299529D01*
X36853782Y56321153D01*
X36866079Y56341670D01*
X36880329Y56360883D01*
X36896393Y56378607D01*
X36914117Y56394671D01*
X36933330Y56408921D01*
X36953847Y56421218D01*
X36975471Y56431446D01*
X36997993Y56439504D01*
X37021197Y56445316D01*
X37044858Y56448826D01*
X37068750Y56450000D01*
X37556250Y56450000D01*
X37580142Y56448826D01*
X37580142Y56448826D01*
G37*
D15*
X37312500Y55750000D03*
D10*
G36*
X42149504Y50873796D02*
G01*
X42173773Y50870196D01*
X42197571Y50864235D01*
X42220671Y50855970D01*
X42242849Y50845480D01*
X42263893Y50832867D01*
X42283598Y50818253D01*
X42301777Y50801777D01*
X42318253Y50783598D01*
X42332867Y50763893D01*
X42345480Y50742849D01*
X42355970Y50720671D01*
X42364235Y50697571D01*
X42370196Y50673773D01*
X42373796Y50649504D01*
X42375000Y50625000D01*
X42375000Y49375000D01*
X42373796Y49350496D01*
X42370196Y49326227D01*
X42364235Y49302429D01*
X42355970Y49279329D01*
X42345480Y49257151D01*
X42332867Y49236107D01*
X42318253Y49216402D01*
X42301777Y49198223D01*
X42283598Y49181747D01*
X42263893Y49167133D01*
X42242849Y49154520D01*
X42220671Y49144030D01*
X42197571Y49135765D01*
X42173773Y49129804D01*
X42149504Y49126204D01*
X42125000Y49125000D01*
X41375000Y49125000D01*
X41350496Y49126204D01*
X41326227Y49129804D01*
X41302429Y49135765D01*
X41279329Y49144030D01*
X41257151Y49154520D01*
X41236107Y49167133D01*
X41216402Y49181747D01*
X41198223Y49198223D01*
X41181747Y49216402D01*
X41167133Y49236107D01*
X41154520Y49257151D01*
X41144030Y49279329D01*
X41135765Y49302429D01*
X41129804Y49326227D01*
X41126204Y49350496D01*
X41125000Y49375000D01*
X41125000Y50625000D01*
X41126204Y50649504D01*
X41129804Y50673773D01*
X41135765Y50697571D01*
X41144030Y50720671D01*
X41154520Y50742849D01*
X41167133Y50763893D01*
X41181747Y50783598D01*
X41198223Y50801777D01*
X41216402Y50818253D01*
X41236107Y50832867D01*
X41257151Y50845480D01*
X41279329Y50855970D01*
X41302429Y50864235D01*
X41326227Y50870196D01*
X41350496Y50873796D01*
X41375000Y50875000D01*
X42125000Y50875000D01*
X42149504Y50873796D01*
X42149504Y50873796D01*
G37*
D21*
X41750000Y50000000D03*
D10*
G36*
X39349504Y50873796D02*
G01*
X39373773Y50870196D01*
X39397571Y50864235D01*
X39420671Y50855970D01*
X39442849Y50845480D01*
X39463893Y50832867D01*
X39483598Y50818253D01*
X39501777Y50801777D01*
X39518253Y50783598D01*
X39532867Y50763893D01*
X39545480Y50742849D01*
X39555970Y50720671D01*
X39564235Y50697571D01*
X39570196Y50673773D01*
X39573796Y50649504D01*
X39575000Y50625000D01*
X39575000Y49375000D01*
X39573796Y49350496D01*
X39570196Y49326227D01*
X39564235Y49302429D01*
X39555970Y49279329D01*
X39545480Y49257151D01*
X39532867Y49236107D01*
X39518253Y49216402D01*
X39501777Y49198223D01*
X39483598Y49181747D01*
X39463893Y49167133D01*
X39442849Y49154520D01*
X39420671Y49144030D01*
X39397571Y49135765D01*
X39373773Y49129804D01*
X39349504Y49126204D01*
X39325000Y49125000D01*
X38575000Y49125000D01*
X38550496Y49126204D01*
X38526227Y49129804D01*
X38502429Y49135765D01*
X38479329Y49144030D01*
X38457151Y49154520D01*
X38436107Y49167133D01*
X38416402Y49181747D01*
X38398223Y49198223D01*
X38381747Y49216402D01*
X38367133Y49236107D01*
X38354520Y49257151D01*
X38344030Y49279329D01*
X38335765Y49302429D01*
X38329804Y49326227D01*
X38326204Y49350496D01*
X38325000Y49375000D01*
X38325000Y50625000D01*
X38326204Y50649504D01*
X38329804Y50673773D01*
X38335765Y50697571D01*
X38344030Y50720671D01*
X38354520Y50742849D01*
X38367133Y50763893D01*
X38381747Y50783598D01*
X38398223Y50801777D01*
X38416402Y50818253D01*
X38436107Y50832867D01*
X38457151Y50845480D01*
X38479329Y50855970D01*
X38502429Y50864235D01*
X38526227Y50870196D01*
X38550496Y50873796D01*
X38575000Y50875000D01*
X39325000Y50875000D01*
X39349504Y50873796D01*
X39349504Y50873796D01*
G37*
D21*
X38950000Y50000000D03*
D10*
G36*
X39349504Y48373796D02*
G01*
X39373773Y48370196D01*
X39397571Y48364235D01*
X39420671Y48355970D01*
X39442849Y48345480D01*
X39463893Y48332867D01*
X39483598Y48318253D01*
X39501777Y48301777D01*
X39518253Y48283598D01*
X39532867Y48263893D01*
X39545480Y48242849D01*
X39555970Y48220671D01*
X39564235Y48197571D01*
X39570196Y48173773D01*
X39573796Y48149504D01*
X39575000Y48125000D01*
X39575000Y46875000D01*
X39573796Y46850496D01*
X39570196Y46826227D01*
X39564235Y46802429D01*
X39555970Y46779329D01*
X39545480Y46757151D01*
X39532867Y46736107D01*
X39518253Y46716402D01*
X39501777Y46698223D01*
X39483598Y46681747D01*
X39463893Y46667133D01*
X39442849Y46654520D01*
X39420671Y46644030D01*
X39397571Y46635765D01*
X39373773Y46629804D01*
X39349504Y46626204D01*
X39325000Y46625000D01*
X38575000Y46625000D01*
X38550496Y46626204D01*
X38526227Y46629804D01*
X38502429Y46635765D01*
X38479329Y46644030D01*
X38457151Y46654520D01*
X38436107Y46667133D01*
X38416402Y46681747D01*
X38398223Y46698223D01*
X38381747Y46716402D01*
X38367133Y46736107D01*
X38354520Y46757151D01*
X38344030Y46779329D01*
X38335765Y46802429D01*
X38329804Y46826227D01*
X38326204Y46850496D01*
X38325000Y46875000D01*
X38325000Y48125000D01*
X38326204Y48149504D01*
X38329804Y48173773D01*
X38335765Y48197571D01*
X38344030Y48220671D01*
X38354520Y48242849D01*
X38367133Y48263893D01*
X38381747Y48283598D01*
X38398223Y48301777D01*
X38416402Y48318253D01*
X38436107Y48332867D01*
X38457151Y48345480D01*
X38479329Y48355970D01*
X38502429Y48364235D01*
X38526227Y48370196D01*
X38550496Y48373796D01*
X38575000Y48375000D01*
X39325000Y48375000D01*
X39349504Y48373796D01*
X39349504Y48373796D01*
G37*
D21*
X38950000Y47500000D03*
D10*
G36*
X42149504Y48373796D02*
G01*
X42173773Y48370196D01*
X42197571Y48364235D01*
X42220671Y48355970D01*
X42242849Y48345480D01*
X42263893Y48332867D01*
X42283598Y48318253D01*
X42301777Y48301777D01*
X42318253Y48283598D01*
X42332867Y48263893D01*
X42345480Y48242849D01*
X42355970Y48220671D01*
X42364235Y48197571D01*
X42370196Y48173773D01*
X42373796Y48149504D01*
X42375000Y48125000D01*
X42375000Y46875000D01*
X42373796Y46850496D01*
X42370196Y46826227D01*
X42364235Y46802429D01*
X42355970Y46779329D01*
X42345480Y46757151D01*
X42332867Y46736107D01*
X42318253Y46716402D01*
X42301777Y46698223D01*
X42283598Y46681747D01*
X42263893Y46667133D01*
X42242849Y46654520D01*
X42220671Y46644030D01*
X42197571Y46635765D01*
X42173773Y46629804D01*
X42149504Y46626204D01*
X42125000Y46625000D01*
X41375000Y46625000D01*
X41350496Y46626204D01*
X41326227Y46629804D01*
X41302429Y46635765D01*
X41279329Y46644030D01*
X41257151Y46654520D01*
X41236107Y46667133D01*
X41216402Y46681747D01*
X41198223Y46698223D01*
X41181747Y46716402D01*
X41167133Y46736107D01*
X41154520Y46757151D01*
X41144030Y46779329D01*
X41135765Y46802429D01*
X41129804Y46826227D01*
X41126204Y46850496D01*
X41125000Y46875000D01*
X41125000Y48125000D01*
X41126204Y48149504D01*
X41129804Y48173773D01*
X41135765Y48197571D01*
X41144030Y48220671D01*
X41154520Y48242849D01*
X41167133Y48263893D01*
X41181747Y48283598D01*
X41198223Y48301777D01*
X41216402Y48318253D01*
X41236107Y48332867D01*
X41257151Y48345480D01*
X41279329Y48355970D01*
X41302429Y48364235D01*
X41326227Y48370196D01*
X41350496Y48373796D01*
X41375000Y48375000D01*
X42125000Y48375000D01*
X42149504Y48373796D01*
X42149504Y48373796D01*
G37*
D21*
X41750000Y47500000D03*
D19*
X52050000Y52500000D03*
X49950000Y52500000D03*
D22*
X39095000Y38450000D03*
X40365000Y38450000D03*
X41635000Y38450000D03*
X42905000Y38450000D03*
X42905000Y33050000D03*
X41635000Y33050000D03*
X40365000Y33050000D03*
X39095000Y33050000D03*
D23*
X8325000Y52700000D03*
X8975000Y52700000D03*
X9625000Y52700000D03*
X10275000Y52700000D03*
X10925000Y52700000D03*
X11575000Y52700000D03*
X12225000Y52700000D03*
X12875000Y52700000D03*
X13525000Y52700000D03*
X14175000Y52700000D03*
X14175000Y46800000D03*
X13525000Y46800000D03*
X12875000Y46800000D03*
X12225000Y46800000D03*
X11575000Y46800000D03*
X10925000Y46800000D03*
X10275000Y46800000D03*
X9625000Y46800000D03*
X8975000Y46800000D03*
X8325000Y46800000D03*
D24*
X45750000Y50300000D03*
X45750000Y49350000D03*
X45750000Y48400000D03*
X43550000Y48400000D03*
X43550000Y50300000D03*
X43550000Y49350000D03*
D10*
G36*
X50452691Y51223947D02*
G01*
X50473926Y51220797D01*
X50494750Y51215581D01*
X50514962Y51208349D01*
X50534368Y51199170D01*
X50552781Y51188134D01*
X50570024Y51175346D01*
X50585930Y51160930D01*
X50600346Y51145024D01*
X50613134Y51127781D01*
X50624170Y51109368D01*
X50633349Y51089962D01*
X50640581Y51069750D01*
X50645797Y51048926D01*
X50648947Y51027691D01*
X50650000Y51006250D01*
X50650000Y50493750D01*
X50648947Y50472309D01*
X50645797Y50451074D01*
X50640581Y50430250D01*
X50633349Y50410038D01*
X50624170Y50390632D01*
X50613134Y50372219D01*
X50600346Y50354976D01*
X50585930Y50339070D01*
X50570024Y50324654D01*
X50552781Y50311866D01*
X50534368Y50300830D01*
X50514962Y50291651D01*
X50494750Y50284419D01*
X50473926Y50279203D01*
X50452691Y50276053D01*
X50431250Y50275000D01*
X49993750Y50275000D01*
X49972309Y50276053D01*
X49951074Y50279203D01*
X49930250Y50284419D01*
X49910038Y50291651D01*
X49890632Y50300830D01*
X49872219Y50311866D01*
X49854976Y50324654D01*
X49839070Y50339070D01*
X49824654Y50354976D01*
X49811866Y50372219D01*
X49800830Y50390632D01*
X49791651Y50410038D01*
X49784419Y50430250D01*
X49779203Y50451074D01*
X49776053Y50472309D01*
X49775000Y50493750D01*
X49775000Y51006250D01*
X49776053Y51027691D01*
X49779203Y51048926D01*
X49784419Y51069750D01*
X49791651Y51089962D01*
X49800830Y51109368D01*
X49811866Y51127781D01*
X49824654Y51145024D01*
X49839070Y51160930D01*
X49854976Y51175346D01*
X49872219Y51188134D01*
X49890632Y51199170D01*
X49910038Y51208349D01*
X49930250Y51215581D01*
X49951074Y51220797D01*
X49972309Y51223947D01*
X49993750Y51225000D01*
X50431250Y51225000D01*
X50452691Y51223947D01*
X50452691Y51223947D01*
G37*
D11*
X50212500Y50750000D03*
D10*
G36*
X52027691Y51223947D02*
G01*
X52048926Y51220797D01*
X52069750Y51215581D01*
X52089962Y51208349D01*
X52109368Y51199170D01*
X52127781Y51188134D01*
X52145024Y51175346D01*
X52160930Y51160930D01*
X52175346Y51145024D01*
X52188134Y51127781D01*
X52199170Y51109368D01*
X52208349Y51089962D01*
X52215581Y51069750D01*
X52220797Y51048926D01*
X52223947Y51027691D01*
X52225000Y51006250D01*
X52225000Y50493750D01*
X52223947Y50472309D01*
X52220797Y50451074D01*
X52215581Y50430250D01*
X52208349Y50410038D01*
X52199170Y50390632D01*
X52188134Y50372219D01*
X52175346Y50354976D01*
X52160930Y50339070D01*
X52145024Y50324654D01*
X52127781Y50311866D01*
X52109368Y50300830D01*
X52089962Y50291651D01*
X52069750Y50284419D01*
X52048926Y50279203D01*
X52027691Y50276053D01*
X52006250Y50275000D01*
X51568750Y50275000D01*
X51547309Y50276053D01*
X51526074Y50279203D01*
X51505250Y50284419D01*
X51485038Y50291651D01*
X51465632Y50300830D01*
X51447219Y50311866D01*
X51429976Y50324654D01*
X51414070Y50339070D01*
X51399654Y50354976D01*
X51386866Y50372219D01*
X51375830Y50390632D01*
X51366651Y50410038D01*
X51359419Y50430250D01*
X51354203Y50451074D01*
X51351053Y50472309D01*
X51350000Y50493750D01*
X51350000Y51006250D01*
X51351053Y51027691D01*
X51354203Y51048926D01*
X51359419Y51069750D01*
X51366651Y51089962D01*
X51375830Y51109368D01*
X51386866Y51127781D01*
X51399654Y51145024D01*
X51414070Y51160930D01*
X51429976Y51175346D01*
X51447219Y51188134D01*
X51465632Y51199170D01*
X51485038Y51208349D01*
X51505250Y51215581D01*
X51526074Y51220797D01*
X51547309Y51223947D01*
X51568750Y51225000D01*
X52006250Y51225000D01*
X52027691Y51223947D01*
X52027691Y51223947D01*
G37*
D11*
X51787500Y50750000D03*
D10*
G36*
X46527691Y41848947D02*
G01*
X46548926Y41845797D01*
X46569750Y41840581D01*
X46589962Y41833349D01*
X46609368Y41824170D01*
X46627781Y41813134D01*
X46645024Y41800346D01*
X46660930Y41785930D01*
X46675346Y41770024D01*
X46688134Y41752781D01*
X46699170Y41734368D01*
X46708349Y41714962D01*
X46715581Y41694750D01*
X46720797Y41673926D01*
X46723947Y41652691D01*
X46725000Y41631250D01*
X46725000Y41193750D01*
X46723947Y41172309D01*
X46720797Y41151074D01*
X46715581Y41130250D01*
X46708349Y41110038D01*
X46699170Y41090632D01*
X46688134Y41072219D01*
X46675346Y41054976D01*
X46660930Y41039070D01*
X46645024Y41024654D01*
X46627781Y41011866D01*
X46609368Y41000830D01*
X46589962Y40991651D01*
X46569750Y40984419D01*
X46548926Y40979203D01*
X46527691Y40976053D01*
X46506250Y40975000D01*
X45993750Y40975000D01*
X45972309Y40976053D01*
X45951074Y40979203D01*
X45930250Y40984419D01*
X45910038Y40991651D01*
X45890632Y41000830D01*
X45872219Y41011866D01*
X45854976Y41024654D01*
X45839070Y41039070D01*
X45824654Y41054976D01*
X45811866Y41072219D01*
X45800830Y41090632D01*
X45791651Y41110038D01*
X45784419Y41130250D01*
X45779203Y41151074D01*
X45776053Y41172309D01*
X45775000Y41193750D01*
X45775000Y41631250D01*
X45776053Y41652691D01*
X45779203Y41673926D01*
X45784419Y41694750D01*
X45791651Y41714962D01*
X45800830Y41734368D01*
X45811866Y41752781D01*
X45824654Y41770024D01*
X45839070Y41785930D01*
X45854976Y41800346D01*
X45872219Y41813134D01*
X45890632Y41824170D01*
X45910038Y41833349D01*
X45930250Y41840581D01*
X45951074Y41845797D01*
X45972309Y41848947D01*
X45993750Y41850000D01*
X46506250Y41850000D01*
X46527691Y41848947D01*
X46527691Y41848947D01*
G37*
D11*
X46250000Y41412500D03*
D10*
G36*
X46527691Y43423947D02*
G01*
X46548926Y43420797D01*
X46569750Y43415581D01*
X46589962Y43408349D01*
X46609368Y43399170D01*
X46627781Y43388134D01*
X46645024Y43375346D01*
X46660930Y43360930D01*
X46675346Y43345024D01*
X46688134Y43327781D01*
X46699170Y43309368D01*
X46708349Y43289962D01*
X46715581Y43269750D01*
X46720797Y43248926D01*
X46723947Y43227691D01*
X46725000Y43206250D01*
X46725000Y42768750D01*
X46723947Y42747309D01*
X46720797Y42726074D01*
X46715581Y42705250D01*
X46708349Y42685038D01*
X46699170Y42665632D01*
X46688134Y42647219D01*
X46675346Y42629976D01*
X46660930Y42614070D01*
X46645024Y42599654D01*
X46627781Y42586866D01*
X46609368Y42575830D01*
X46589962Y42566651D01*
X46569750Y42559419D01*
X46548926Y42554203D01*
X46527691Y42551053D01*
X46506250Y42550000D01*
X45993750Y42550000D01*
X45972309Y42551053D01*
X45951074Y42554203D01*
X45930250Y42559419D01*
X45910038Y42566651D01*
X45890632Y42575830D01*
X45872219Y42586866D01*
X45854976Y42599654D01*
X45839070Y42614070D01*
X45824654Y42629976D01*
X45811866Y42647219D01*
X45800830Y42665632D01*
X45791651Y42685038D01*
X45784419Y42705250D01*
X45779203Y42726074D01*
X45776053Y42747309D01*
X45775000Y42768750D01*
X45775000Y43206250D01*
X45776053Y43227691D01*
X45779203Y43248926D01*
X45784419Y43269750D01*
X45791651Y43289962D01*
X45800830Y43309368D01*
X45811866Y43327781D01*
X45824654Y43345024D01*
X45839070Y43360930D01*
X45854976Y43375346D01*
X45872219Y43388134D01*
X45890632Y43399170D01*
X45910038Y43408349D01*
X45930250Y43415581D01*
X45951074Y43420797D01*
X45972309Y43423947D01*
X45993750Y43425000D01*
X46506250Y43425000D01*
X46527691Y43423947D01*
X46527691Y43423947D01*
G37*
D11*
X46250000Y42987500D03*
D10*
G36*
X38777691Y26898947D02*
G01*
X38798926Y26895797D01*
X38819750Y26890581D01*
X38839962Y26883349D01*
X38859368Y26874170D01*
X38877781Y26863134D01*
X38895024Y26850346D01*
X38910930Y26835930D01*
X38925346Y26820024D01*
X38938134Y26802781D01*
X38949170Y26784368D01*
X38958349Y26764962D01*
X38965581Y26744750D01*
X38970797Y26723926D01*
X38973947Y26702691D01*
X38975000Y26681250D01*
X38975000Y26243750D01*
X38973947Y26222309D01*
X38970797Y26201074D01*
X38965581Y26180250D01*
X38958349Y26160038D01*
X38949170Y26140632D01*
X38938134Y26122219D01*
X38925346Y26104976D01*
X38910930Y26089070D01*
X38895024Y26074654D01*
X38877781Y26061866D01*
X38859368Y26050830D01*
X38839962Y26041651D01*
X38819750Y26034419D01*
X38798926Y26029203D01*
X38777691Y26026053D01*
X38756250Y26025000D01*
X38243750Y26025000D01*
X38222309Y26026053D01*
X38201074Y26029203D01*
X38180250Y26034419D01*
X38160038Y26041651D01*
X38140632Y26050830D01*
X38122219Y26061866D01*
X38104976Y26074654D01*
X38089070Y26089070D01*
X38074654Y26104976D01*
X38061866Y26122219D01*
X38050830Y26140632D01*
X38041651Y26160038D01*
X38034419Y26180250D01*
X38029203Y26201074D01*
X38026053Y26222309D01*
X38025000Y26243750D01*
X38025000Y26681250D01*
X38026053Y26702691D01*
X38029203Y26723926D01*
X38034419Y26744750D01*
X38041651Y26764962D01*
X38050830Y26784368D01*
X38061866Y26802781D01*
X38074654Y26820024D01*
X38089070Y26835930D01*
X38104976Y26850346D01*
X38122219Y26863134D01*
X38140632Y26874170D01*
X38160038Y26883349D01*
X38180250Y26890581D01*
X38201074Y26895797D01*
X38222309Y26898947D01*
X38243750Y26900000D01*
X38756250Y26900000D01*
X38777691Y26898947D01*
X38777691Y26898947D01*
G37*
D11*
X38500000Y26462500D03*
D10*
G36*
X38777691Y28473947D02*
G01*
X38798926Y28470797D01*
X38819750Y28465581D01*
X38839962Y28458349D01*
X38859368Y28449170D01*
X38877781Y28438134D01*
X38895024Y28425346D01*
X38910930Y28410930D01*
X38925346Y28395024D01*
X38938134Y28377781D01*
X38949170Y28359368D01*
X38958349Y28339962D01*
X38965581Y28319750D01*
X38970797Y28298926D01*
X38973947Y28277691D01*
X38975000Y28256250D01*
X38975000Y27818750D01*
X38973947Y27797309D01*
X38970797Y27776074D01*
X38965581Y27755250D01*
X38958349Y27735038D01*
X38949170Y27715632D01*
X38938134Y27697219D01*
X38925346Y27679976D01*
X38910930Y27664070D01*
X38895024Y27649654D01*
X38877781Y27636866D01*
X38859368Y27625830D01*
X38839962Y27616651D01*
X38819750Y27609419D01*
X38798926Y27604203D01*
X38777691Y27601053D01*
X38756250Y27600000D01*
X38243750Y27600000D01*
X38222309Y27601053D01*
X38201074Y27604203D01*
X38180250Y27609419D01*
X38160038Y27616651D01*
X38140632Y27625830D01*
X38122219Y27636866D01*
X38104976Y27649654D01*
X38089070Y27664070D01*
X38074654Y27679976D01*
X38061866Y27697219D01*
X38050830Y27715632D01*
X38041651Y27735038D01*
X38034419Y27755250D01*
X38029203Y27776074D01*
X38026053Y27797309D01*
X38025000Y27818750D01*
X38025000Y28256250D01*
X38026053Y28277691D01*
X38029203Y28298926D01*
X38034419Y28319750D01*
X38041651Y28339962D01*
X38050830Y28359368D01*
X38061866Y28377781D01*
X38074654Y28395024D01*
X38089070Y28410930D01*
X38104976Y28425346D01*
X38122219Y28438134D01*
X38140632Y28449170D01*
X38160038Y28458349D01*
X38180250Y28465581D01*
X38201074Y28470797D01*
X38222309Y28473947D01*
X38243750Y28475000D01*
X38756250Y28475000D01*
X38777691Y28473947D01*
X38777691Y28473947D01*
G37*
D11*
X38500000Y28037500D03*
D10*
G36*
X38777691Y15223947D02*
G01*
X38798926Y15220797D01*
X38819750Y15215581D01*
X38839962Y15208349D01*
X38859368Y15199170D01*
X38877781Y15188134D01*
X38895024Y15175346D01*
X38910930Y15160930D01*
X38925346Y15145024D01*
X38938134Y15127781D01*
X38949170Y15109368D01*
X38958349Y15089962D01*
X38965581Y15069750D01*
X38970797Y15048926D01*
X38973947Y15027691D01*
X38975000Y15006250D01*
X38975000Y14568750D01*
X38973947Y14547309D01*
X38970797Y14526074D01*
X38965581Y14505250D01*
X38958349Y14485038D01*
X38949170Y14465632D01*
X38938134Y14447219D01*
X38925346Y14429976D01*
X38910930Y14414070D01*
X38895024Y14399654D01*
X38877781Y14386866D01*
X38859368Y14375830D01*
X38839962Y14366651D01*
X38819750Y14359419D01*
X38798926Y14354203D01*
X38777691Y14351053D01*
X38756250Y14350000D01*
X38243750Y14350000D01*
X38222309Y14351053D01*
X38201074Y14354203D01*
X38180250Y14359419D01*
X38160038Y14366651D01*
X38140632Y14375830D01*
X38122219Y14386866D01*
X38104976Y14399654D01*
X38089070Y14414070D01*
X38074654Y14429976D01*
X38061866Y14447219D01*
X38050830Y14465632D01*
X38041651Y14485038D01*
X38034419Y14505250D01*
X38029203Y14526074D01*
X38026053Y14547309D01*
X38025000Y14568750D01*
X38025000Y15006250D01*
X38026053Y15027691D01*
X38029203Y15048926D01*
X38034419Y15069750D01*
X38041651Y15089962D01*
X38050830Y15109368D01*
X38061866Y15127781D01*
X38074654Y15145024D01*
X38089070Y15160930D01*
X38104976Y15175346D01*
X38122219Y15188134D01*
X38140632Y15199170D01*
X38160038Y15208349D01*
X38180250Y15215581D01*
X38201074Y15220797D01*
X38222309Y15223947D01*
X38243750Y15225000D01*
X38756250Y15225000D01*
X38777691Y15223947D01*
X38777691Y15223947D01*
G37*
D11*
X38500000Y14787500D03*
D10*
G36*
X38777691Y13648947D02*
G01*
X38798926Y13645797D01*
X38819750Y13640581D01*
X38839962Y13633349D01*
X38859368Y13624170D01*
X38877781Y13613134D01*
X38895024Y13600346D01*
X38910930Y13585930D01*
X38925346Y13570024D01*
X38938134Y13552781D01*
X38949170Y13534368D01*
X38958349Y13514962D01*
X38965581Y13494750D01*
X38970797Y13473926D01*
X38973947Y13452691D01*
X38975000Y13431250D01*
X38975000Y12993750D01*
X38973947Y12972309D01*
X38970797Y12951074D01*
X38965581Y12930250D01*
X38958349Y12910038D01*
X38949170Y12890632D01*
X38938134Y12872219D01*
X38925346Y12854976D01*
X38910930Y12839070D01*
X38895024Y12824654D01*
X38877781Y12811866D01*
X38859368Y12800830D01*
X38839962Y12791651D01*
X38819750Y12784419D01*
X38798926Y12779203D01*
X38777691Y12776053D01*
X38756250Y12775000D01*
X38243750Y12775000D01*
X38222309Y12776053D01*
X38201074Y12779203D01*
X38180250Y12784419D01*
X38160038Y12791651D01*
X38140632Y12800830D01*
X38122219Y12811866D01*
X38104976Y12824654D01*
X38089070Y12839070D01*
X38074654Y12854976D01*
X38061866Y12872219D01*
X38050830Y12890632D01*
X38041651Y12910038D01*
X38034419Y12930250D01*
X38029203Y12951074D01*
X38026053Y12972309D01*
X38025000Y12993750D01*
X38025000Y13431250D01*
X38026053Y13452691D01*
X38029203Y13473926D01*
X38034419Y13494750D01*
X38041651Y13514962D01*
X38050830Y13534368D01*
X38061866Y13552781D01*
X38074654Y13570024D01*
X38089070Y13585930D01*
X38104976Y13600346D01*
X38122219Y13613134D01*
X38140632Y13624170D01*
X38160038Y13633349D01*
X38180250Y13640581D01*
X38201074Y13645797D01*
X38222309Y13648947D01*
X38243750Y13650000D01*
X38756250Y13650000D01*
X38777691Y13648947D01*
X38777691Y13648947D01*
G37*
D11*
X38500000Y13212500D03*
D10*
G36*
X38777691Y43973947D02*
G01*
X38798926Y43970797D01*
X38819750Y43965581D01*
X38839962Y43958349D01*
X38859368Y43949170D01*
X38877781Y43938134D01*
X38895024Y43925346D01*
X38910930Y43910930D01*
X38925346Y43895024D01*
X38938134Y43877781D01*
X38949170Y43859368D01*
X38958349Y43839962D01*
X38965581Y43819750D01*
X38970797Y43798926D01*
X38973947Y43777691D01*
X38975000Y43756250D01*
X38975000Y43243750D01*
X38973947Y43222309D01*
X38970797Y43201074D01*
X38965581Y43180250D01*
X38958349Y43160038D01*
X38949170Y43140632D01*
X38938134Y43122219D01*
X38925346Y43104976D01*
X38910930Y43089070D01*
X38895024Y43074654D01*
X38877781Y43061866D01*
X38859368Y43050830D01*
X38839962Y43041651D01*
X38819750Y43034419D01*
X38798926Y43029203D01*
X38777691Y43026053D01*
X38756250Y43025000D01*
X38318750Y43025000D01*
X38297309Y43026053D01*
X38276074Y43029203D01*
X38255250Y43034419D01*
X38235038Y43041651D01*
X38215632Y43050830D01*
X38197219Y43061866D01*
X38179976Y43074654D01*
X38164070Y43089070D01*
X38149654Y43104976D01*
X38136866Y43122219D01*
X38125830Y43140632D01*
X38116651Y43160038D01*
X38109419Y43180250D01*
X38104203Y43201074D01*
X38101053Y43222309D01*
X38100000Y43243750D01*
X38100000Y43756250D01*
X38101053Y43777691D01*
X38104203Y43798926D01*
X38109419Y43819750D01*
X38116651Y43839962D01*
X38125830Y43859368D01*
X38136866Y43877781D01*
X38149654Y43895024D01*
X38164070Y43910930D01*
X38179976Y43925346D01*
X38197219Y43938134D01*
X38215632Y43949170D01*
X38235038Y43958349D01*
X38255250Y43965581D01*
X38276074Y43970797D01*
X38297309Y43973947D01*
X38318750Y43975000D01*
X38756250Y43975000D01*
X38777691Y43973947D01*
X38777691Y43973947D01*
G37*
D11*
X38537500Y43500000D03*
D10*
G36*
X37202691Y43973947D02*
G01*
X37223926Y43970797D01*
X37244750Y43965581D01*
X37264962Y43958349D01*
X37284368Y43949170D01*
X37302781Y43938134D01*
X37320024Y43925346D01*
X37335930Y43910930D01*
X37350346Y43895024D01*
X37363134Y43877781D01*
X37374170Y43859368D01*
X37383349Y43839962D01*
X37390581Y43819750D01*
X37395797Y43798926D01*
X37398947Y43777691D01*
X37400000Y43756250D01*
X37400000Y43243750D01*
X37398947Y43222309D01*
X37395797Y43201074D01*
X37390581Y43180250D01*
X37383349Y43160038D01*
X37374170Y43140632D01*
X37363134Y43122219D01*
X37350346Y43104976D01*
X37335930Y43089070D01*
X37320024Y43074654D01*
X37302781Y43061866D01*
X37284368Y43050830D01*
X37264962Y43041651D01*
X37244750Y43034419D01*
X37223926Y43029203D01*
X37202691Y43026053D01*
X37181250Y43025000D01*
X36743750Y43025000D01*
X36722309Y43026053D01*
X36701074Y43029203D01*
X36680250Y43034419D01*
X36660038Y43041651D01*
X36640632Y43050830D01*
X36622219Y43061866D01*
X36604976Y43074654D01*
X36589070Y43089070D01*
X36574654Y43104976D01*
X36561866Y43122219D01*
X36550830Y43140632D01*
X36541651Y43160038D01*
X36534419Y43180250D01*
X36529203Y43201074D01*
X36526053Y43222309D01*
X36525000Y43243750D01*
X36525000Y43756250D01*
X36526053Y43777691D01*
X36529203Y43798926D01*
X36534419Y43819750D01*
X36541651Y43839962D01*
X36550830Y43859368D01*
X36561866Y43877781D01*
X36574654Y43895024D01*
X36589070Y43910930D01*
X36604976Y43925346D01*
X36622219Y43938134D01*
X36640632Y43949170D01*
X36660038Y43958349D01*
X36680250Y43965581D01*
X36701074Y43970797D01*
X36722309Y43973947D01*
X36743750Y43975000D01*
X37181250Y43975000D01*
X37202691Y43973947D01*
X37202691Y43973947D01*
G37*
D11*
X36962500Y43500000D03*
D10*
G36*
X37202691Y45473947D02*
G01*
X37223926Y45470797D01*
X37244750Y45465581D01*
X37264962Y45458349D01*
X37284368Y45449170D01*
X37302781Y45438134D01*
X37320024Y45425346D01*
X37335930Y45410930D01*
X37350346Y45395024D01*
X37363134Y45377781D01*
X37374170Y45359368D01*
X37383349Y45339962D01*
X37390581Y45319750D01*
X37395797Y45298926D01*
X37398947Y45277691D01*
X37400000Y45256250D01*
X37400000Y44743750D01*
X37398947Y44722309D01*
X37395797Y44701074D01*
X37390581Y44680250D01*
X37383349Y44660038D01*
X37374170Y44640632D01*
X37363134Y44622219D01*
X37350346Y44604976D01*
X37335930Y44589070D01*
X37320024Y44574654D01*
X37302781Y44561866D01*
X37284368Y44550830D01*
X37264962Y44541651D01*
X37244750Y44534419D01*
X37223926Y44529203D01*
X37202691Y44526053D01*
X37181250Y44525000D01*
X36743750Y44525000D01*
X36722309Y44526053D01*
X36701074Y44529203D01*
X36680250Y44534419D01*
X36660038Y44541651D01*
X36640632Y44550830D01*
X36622219Y44561866D01*
X36604976Y44574654D01*
X36589070Y44589070D01*
X36574654Y44604976D01*
X36561866Y44622219D01*
X36550830Y44640632D01*
X36541651Y44660038D01*
X36534419Y44680250D01*
X36529203Y44701074D01*
X36526053Y44722309D01*
X36525000Y44743750D01*
X36525000Y45256250D01*
X36526053Y45277691D01*
X36529203Y45298926D01*
X36534419Y45319750D01*
X36541651Y45339962D01*
X36550830Y45359368D01*
X36561866Y45377781D01*
X36574654Y45395024D01*
X36589070Y45410930D01*
X36604976Y45425346D01*
X36622219Y45438134D01*
X36640632Y45449170D01*
X36660038Y45458349D01*
X36680250Y45465581D01*
X36701074Y45470797D01*
X36722309Y45473947D01*
X36743750Y45475000D01*
X37181250Y45475000D01*
X37202691Y45473947D01*
X37202691Y45473947D01*
G37*
D11*
X36962500Y45000000D03*
D10*
G36*
X38777691Y45473947D02*
G01*
X38798926Y45470797D01*
X38819750Y45465581D01*
X38839962Y45458349D01*
X38859368Y45449170D01*
X38877781Y45438134D01*
X38895024Y45425346D01*
X38910930Y45410930D01*
X38925346Y45395024D01*
X38938134Y45377781D01*
X38949170Y45359368D01*
X38958349Y45339962D01*
X38965581Y45319750D01*
X38970797Y45298926D01*
X38973947Y45277691D01*
X38975000Y45256250D01*
X38975000Y44743750D01*
X38973947Y44722309D01*
X38970797Y44701074D01*
X38965581Y44680250D01*
X38958349Y44660038D01*
X38949170Y44640632D01*
X38938134Y44622219D01*
X38925346Y44604976D01*
X38910930Y44589070D01*
X38895024Y44574654D01*
X38877781Y44561866D01*
X38859368Y44550830D01*
X38839962Y44541651D01*
X38819750Y44534419D01*
X38798926Y44529203D01*
X38777691Y44526053D01*
X38756250Y44525000D01*
X38318750Y44525000D01*
X38297309Y44526053D01*
X38276074Y44529203D01*
X38255250Y44534419D01*
X38235038Y44541651D01*
X38215632Y44550830D01*
X38197219Y44561866D01*
X38179976Y44574654D01*
X38164070Y44589070D01*
X38149654Y44604976D01*
X38136866Y44622219D01*
X38125830Y44640632D01*
X38116651Y44660038D01*
X38109419Y44680250D01*
X38104203Y44701074D01*
X38101053Y44722309D01*
X38100000Y44743750D01*
X38100000Y45256250D01*
X38101053Y45277691D01*
X38104203Y45298926D01*
X38109419Y45319750D01*
X38116651Y45339962D01*
X38125830Y45359368D01*
X38136866Y45377781D01*
X38149654Y45395024D01*
X38164070Y45410930D01*
X38179976Y45425346D01*
X38197219Y45438134D01*
X38215632Y45449170D01*
X38235038Y45458349D01*
X38255250Y45465581D01*
X38276074Y45470797D01*
X38297309Y45473947D01*
X38318750Y45475000D01*
X38756250Y45475000D01*
X38777691Y45473947D01*
X38777691Y45473947D01*
G37*
D11*
X38537500Y45000000D03*
D25*
X48000000Y14500000D03*
X48000000Y18500000D03*
D10*
G36*
X51199505Y16948796D02*
G01*
X51223773Y16945196D01*
X51247572Y16939235D01*
X51270671Y16930970D01*
X51292850Y16920480D01*
X51313893Y16907868D01*
X51333599Y16893253D01*
X51351777Y16876777D01*
X51368253Y16858599D01*
X51382868Y16838893D01*
X51395480Y16817850D01*
X51405970Y16795671D01*
X51414235Y16772572D01*
X51420196Y16748773D01*
X51423796Y16724505D01*
X51425000Y16700001D01*
X51425000Y13799999D01*
X51423796Y13775495D01*
X51420196Y13751227D01*
X51414235Y13727428D01*
X51405970Y13704329D01*
X51395480Y13682150D01*
X51382868Y13661107D01*
X51368253Y13641401D01*
X51351777Y13623223D01*
X51333599Y13606747D01*
X51313893Y13592132D01*
X51292850Y13579520D01*
X51270671Y13569030D01*
X51247572Y13560765D01*
X51223773Y13554804D01*
X51199505Y13551204D01*
X51175001Y13550000D01*
X50549999Y13550000D01*
X50525495Y13551204D01*
X50501227Y13554804D01*
X50477428Y13560765D01*
X50454329Y13569030D01*
X50432150Y13579520D01*
X50411107Y13592132D01*
X50391401Y13606747D01*
X50373223Y13623223D01*
X50356747Y13641401D01*
X50342132Y13661107D01*
X50329520Y13682150D01*
X50319030Y13704329D01*
X50310765Y13727428D01*
X50304804Y13751227D01*
X50301204Y13775495D01*
X50300000Y13799999D01*
X50300000Y16700001D01*
X50301204Y16724505D01*
X50304804Y16748773D01*
X50310765Y16772572D01*
X50319030Y16795671D01*
X50329520Y16817850D01*
X50342132Y16838893D01*
X50356747Y16858599D01*
X50373223Y16876777D01*
X50391401Y16893253D01*
X50411107Y16907868D01*
X50432150Y16920480D01*
X50454329Y16930970D01*
X50477428Y16939235D01*
X50501227Y16945196D01*
X50525495Y16948796D01*
X50549999Y16950000D01*
X51175001Y16950000D01*
X51199505Y16948796D01*
X51199505Y16948796D01*
G37*
D26*
X50862500Y15250000D03*
D10*
G36*
X55474505Y16948796D02*
G01*
X55498773Y16945196D01*
X55522572Y16939235D01*
X55545671Y16930970D01*
X55567850Y16920480D01*
X55588893Y16907868D01*
X55608599Y16893253D01*
X55626777Y16876777D01*
X55643253Y16858599D01*
X55657868Y16838893D01*
X55670480Y16817850D01*
X55680970Y16795671D01*
X55689235Y16772572D01*
X55695196Y16748773D01*
X55698796Y16724505D01*
X55700000Y16700001D01*
X55700000Y13799999D01*
X55698796Y13775495D01*
X55695196Y13751227D01*
X55689235Y13727428D01*
X55680970Y13704329D01*
X55670480Y13682150D01*
X55657868Y13661107D01*
X55643253Y13641401D01*
X55626777Y13623223D01*
X55608599Y13606747D01*
X55588893Y13592132D01*
X55567850Y13579520D01*
X55545671Y13569030D01*
X55522572Y13560765D01*
X55498773Y13554804D01*
X55474505Y13551204D01*
X55450001Y13550000D01*
X54824999Y13550000D01*
X54800495Y13551204D01*
X54776227Y13554804D01*
X54752428Y13560765D01*
X54729329Y13569030D01*
X54707150Y13579520D01*
X54686107Y13592132D01*
X54666401Y13606747D01*
X54648223Y13623223D01*
X54631747Y13641401D01*
X54617132Y13661107D01*
X54604520Y13682150D01*
X54594030Y13704329D01*
X54585765Y13727428D01*
X54579804Y13751227D01*
X54576204Y13775495D01*
X54575000Y13799999D01*
X54575000Y16700001D01*
X54576204Y16724505D01*
X54579804Y16748773D01*
X54585765Y16772572D01*
X54594030Y16795671D01*
X54604520Y16817850D01*
X54617132Y16838893D01*
X54631747Y16858599D01*
X54648223Y16876777D01*
X54666401Y16893253D01*
X54686107Y16907868D01*
X54707150Y16920480D01*
X54729329Y16930970D01*
X54752428Y16939235D01*
X54776227Y16945196D01*
X54800495Y16948796D01*
X54824999Y16950000D01*
X55450001Y16950000D01*
X55474505Y16948796D01*
X55474505Y16948796D01*
G37*
D26*
X55137500Y15250000D03*
M02*
