G04 #@! TF.FileFunction,Soldermask,Top*
%FSLAX46Y46*%
G04 Gerber Fmt 4.6, Leading zero omitted, Abs format (unit mm)*
G04 Created by KiCad (PCBNEW 4.0.7) date Fri Mar 16 09:41:33 2018*
%MOMM*%
%LPD*%
G01*
G04 APERTURE LIST*
%ADD10C,0.100000*%
G04 APERTURE END LIST*
D10*
G36*
X56590000Y-140000D02*
X54050000Y-140000D01*
X54050000Y2400000D01*
X56590000Y2400000D01*
X56590000Y-140000D01*
X56590000Y-140000D01*
G37*
G36*
X47450000Y-140000D02*
X44910000Y-140000D01*
X44910000Y2400000D01*
X47450000Y2400000D01*
X47450000Y-140000D01*
X47450000Y-140000D01*
G37*
G36*
X4724942Y2905668D02*
X4724955Y2905664D01*
X4724992Y2905660D01*
X4896514Y2852565D01*
X5054457Y2767166D01*
X5192805Y2652714D01*
X5306288Y2513571D01*
X5390582Y2355036D01*
X5442479Y2183147D01*
X5460000Y2004451D01*
X5460000Y1995549D01*
X5459910Y1982704D01*
X5439896Y1804270D01*
X5385605Y1633122D01*
X5299104Y1475779D01*
X5183690Y1338234D01*
X5043758Y1225726D01*
X4884638Y1142540D01*
X4712391Y1091845D01*
X4712361Y1091842D01*
X4712343Y1091837D01*
X4533579Y1075569D01*
X4355058Y1094332D01*
X4355045Y1094336D01*
X4355008Y1094340D01*
X4183486Y1147435D01*
X4025543Y1232834D01*
X3887195Y1347286D01*
X3773712Y1486429D01*
X3689418Y1644964D01*
X3637521Y1816853D01*
X3620000Y1995549D01*
X3620000Y2004451D01*
X3620090Y2017296D01*
X3640104Y2195730D01*
X3694395Y2366878D01*
X3780896Y2524221D01*
X3896310Y2661766D01*
X4036242Y2774274D01*
X4195362Y2857460D01*
X4367609Y2908155D01*
X4367639Y2908158D01*
X4367657Y2908163D01*
X4546421Y2924431D01*
X4724942Y2905668D01*
X4724942Y2905668D01*
G37*
G36*
X7264942Y2905668D02*
X7264955Y2905664D01*
X7264992Y2905660D01*
X7436514Y2852565D01*
X7594457Y2767166D01*
X7732805Y2652714D01*
X7846288Y2513571D01*
X7930582Y2355036D01*
X7982479Y2183147D01*
X8000000Y2004451D01*
X8000000Y1995549D01*
X7999910Y1982704D01*
X7979896Y1804270D01*
X7925605Y1633122D01*
X7839104Y1475779D01*
X7723690Y1338234D01*
X7583758Y1225726D01*
X7424638Y1142540D01*
X7252391Y1091845D01*
X7252361Y1091842D01*
X7252343Y1091837D01*
X7073579Y1075569D01*
X6895058Y1094332D01*
X6895045Y1094336D01*
X6895008Y1094340D01*
X6723486Y1147435D01*
X6565543Y1232834D01*
X6427195Y1347286D01*
X6313712Y1486429D01*
X6229418Y1644964D01*
X6177521Y1816853D01*
X6160000Y1995549D01*
X6160000Y2004451D01*
X6160090Y2017296D01*
X6180104Y2195730D01*
X6234395Y2366878D01*
X6320896Y2524221D01*
X6436310Y2661766D01*
X6576242Y2774274D01*
X6735362Y2857460D01*
X6907609Y2908155D01*
X6907639Y2908158D01*
X6907657Y2908163D01*
X7086421Y2924431D01*
X7264942Y2905668D01*
X7264942Y2905668D01*
G37*
G36*
X2920000Y1080000D02*
X1080000Y1080000D01*
X1080000Y2920000D01*
X2920000Y2920000D01*
X2920000Y1080000D01*
X2920000Y1080000D01*
G37*
G36*
X15712386Y5369289D02*
X15917940Y5327094D01*
X16111380Y5245780D01*
X16285344Y5128440D01*
X16433205Y4979543D01*
X16549328Y4804765D01*
X16629290Y4610763D01*
X16669980Y4405263D01*
X16669980Y4405253D01*
X16670046Y4404919D01*
X16666699Y4165245D01*
X16666623Y4164911D01*
X16666623Y4164900D01*
X16620212Y3960622D01*
X16534863Y3768924D01*
X16483881Y3696652D01*
X16477469Y3684128D01*
X16474800Y3670314D01*
X16476085Y3656303D01*
X16481222Y3643205D01*
X16489806Y3632057D01*
X16501155Y3623741D01*
X16509879Y3620096D01*
X16566514Y3602565D01*
X16724457Y3517166D01*
X16862805Y3402714D01*
X16976288Y3263571D01*
X17060582Y3105036D01*
X17112479Y2933147D01*
X17130000Y2754451D01*
X17130000Y2745549D01*
X17129910Y2732704D01*
X17109896Y2554270D01*
X17055605Y2383122D01*
X16969104Y2225779D01*
X16853690Y2088234D01*
X16713758Y1975726D01*
X16554638Y1892540D01*
X16382391Y1841845D01*
X16382361Y1841842D01*
X16382343Y1841837D01*
X16203579Y1825569D01*
X16025058Y1844332D01*
X16025045Y1844336D01*
X16025008Y1844340D01*
X15853486Y1897435D01*
X15695543Y1982834D01*
X15557195Y2097286D01*
X15443712Y2236429D01*
X15359418Y2394964D01*
X15307521Y2566853D01*
X15290000Y2745549D01*
X15290000Y2754451D01*
X15290090Y2767296D01*
X15310104Y2945730D01*
X15364395Y3116878D01*
X15400959Y3183387D01*
X15405628Y3195736D01*
X15406741Y3209761D01*
X15403902Y3223542D01*
X15397336Y3235985D01*
X15387564Y3246107D01*
X15375359Y3253106D01*
X15367574Y3255497D01*
X15267747Y3277445D01*
X15075463Y3361452D01*
X14903156Y3481209D01*
X14757387Y3632156D01*
X14643719Y3808535D01*
X14566472Y4003638D01*
X14528591Y4210034D01*
X14531522Y4419851D01*
X14575148Y4625099D01*
X14657814Y4817972D01*
X14776365Y4991111D01*
X14926290Y5137930D01*
X15101874Y5252828D01*
X15296433Y5331435D01*
X15502550Y5370754D01*
X15712386Y5369289D01*
X15712386Y5369289D01*
G37*
G36*
X18934942Y3655668D02*
X18934955Y3655664D01*
X18934992Y3655660D01*
X19106514Y3602565D01*
X19264457Y3517166D01*
X19402805Y3402714D01*
X19516288Y3263571D01*
X19600582Y3105036D01*
X19652479Y2933147D01*
X19670000Y2754451D01*
X19670000Y2745549D01*
X19669910Y2732704D01*
X19649896Y2554270D01*
X19595605Y2383122D01*
X19509104Y2225779D01*
X19393690Y2088234D01*
X19253758Y1975726D01*
X19094638Y1892540D01*
X18922391Y1841845D01*
X18922361Y1841842D01*
X18922343Y1841837D01*
X18743579Y1825569D01*
X18565058Y1844332D01*
X18565045Y1844336D01*
X18565008Y1844340D01*
X18393486Y1897435D01*
X18235543Y1982834D01*
X18097195Y2097286D01*
X17983712Y2236429D01*
X17899418Y2394964D01*
X17847521Y2566853D01*
X17830000Y2745549D01*
X17830000Y2754451D01*
X17830090Y2767296D01*
X17850104Y2945730D01*
X17904395Y3116878D01*
X17990896Y3274221D01*
X18106310Y3411766D01*
X18246242Y3524274D01*
X18405362Y3607460D01*
X18577609Y3658155D01*
X18577639Y3658158D01*
X18577657Y3658163D01*
X18756421Y3674431D01*
X18934942Y3655668D01*
X18934942Y3655668D01*
G37*
G36*
X22012386Y5369289D02*
X22217940Y5327094D01*
X22411380Y5245780D01*
X22585344Y5128440D01*
X22733205Y4979543D01*
X22849328Y4804765D01*
X22929290Y4610763D01*
X22969980Y4405263D01*
X22969980Y4405253D01*
X22970046Y4404919D01*
X22966699Y4165245D01*
X22966623Y4164911D01*
X22966623Y4164900D01*
X22920212Y3960622D01*
X22834863Y3768924D01*
X22713907Y3597457D01*
X22561943Y3452745D01*
X22384775Y3340311D01*
X22189136Y3264428D01*
X22134903Y3254865D01*
X22121528Y3250497D01*
X22109901Y3242576D01*
X22100940Y3231729D01*
X22095356Y3218815D01*
X22093591Y3204856D01*
X22095784Y3190959D01*
X22098936Y3183362D01*
X22140582Y3105036D01*
X22192479Y2933147D01*
X22210000Y2754451D01*
X22210000Y2745549D01*
X22209910Y2732704D01*
X22189896Y2554270D01*
X22135605Y2383122D01*
X22049104Y2225779D01*
X21933690Y2088234D01*
X21793758Y1975726D01*
X21634638Y1892540D01*
X21462391Y1841845D01*
X21462361Y1841842D01*
X21462343Y1841837D01*
X21283579Y1825569D01*
X21105058Y1844332D01*
X21105045Y1844336D01*
X21105008Y1844340D01*
X20933486Y1897435D01*
X20775543Y1982834D01*
X20637195Y2097286D01*
X20523712Y2236429D01*
X20439418Y2394964D01*
X20387521Y2566853D01*
X20370000Y2745549D01*
X20370000Y2754451D01*
X20370090Y2767296D01*
X20390104Y2945730D01*
X20444395Y3116878D01*
X20530896Y3274221D01*
X20646310Y3411766D01*
X20786242Y3524274D01*
X20945362Y3607460D01*
X20988836Y3620255D01*
X21001596Y3626067D01*
X21012269Y3635236D01*
X21019964Y3647014D01*
X21024074Y3660470D01*
X21024272Y3674538D01*
X21020543Y3688105D01*
X21016703Y3695286D01*
X20943719Y3808535D01*
X20866472Y4003638D01*
X20828591Y4210034D01*
X20831522Y4419851D01*
X20875148Y4625099D01*
X20957814Y4817972D01*
X21076365Y4991111D01*
X21226290Y5137930D01*
X21401874Y5252828D01*
X21596433Y5331435D01*
X21802550Y5370754D01*
X22012386Y5369289D01*
X22012386Y5369289D01*
G37*
G36*
X24014942Y3655668D02*
X24014955Y3655664D01*
X24014992Y3655660D01*
X24186514Y3602565D01*
X24344457Y3517166D01*
X24482805Y3402714D01*
X24596288Y3263571D01*
X24680582Y3105036D01*
X24732479Y2933147D01*
X24750000Y2754451D01*
X24750000Y2745549D01*
X24749910Y2732704D01*
X24729896Y2554270D01*
X24675605Y2383122D01*
X24589104Y2225779D01*
X24473690Y2088234D01*
X24333758Y1975726D01*
X24174638Y1892540D01*
X24002391Y1841845D01*
X24002361Y1841842D01*
X24002343Y1841837D01*
X23823579Y1825569D01*
X23645058Y1844332D01*
X23645045Y1844336D01*
X23645008Y1844340D01*
X23473486Y1897435D01*
X23315543Y1982834D01*
X23177195Y2097286D01*
X23063712Y2236429D01*
X22979418Y2394964D01*
X22927521Y2566853D01*
X22910000Y2745549D01*
X22910000Y2754451D01*
X22910090Y2767296D01*
X22930104Y2945730D01*
X22984395Y3116878D01*
X23070896Y3274221D01*
X23186310Y3411766D01*
X23326242Y3524274D01*
X23485362Y3607460D01*
X23657609Y3658155D01*
X23657639Y3658158D01*
X23657657Y3658163D01*
X23836421Y3674431D01*
X24014942Y3655668D01*
X24014942Y3655668D01*
G37*
G36*
X14590000Y1830000D02*
X12750000Y1830000D01*
X12750000Y3670000D01*
X14590000Y3670000D01*
X14590000Y1830000D01*
X14590000Y1830000D01*
G37*
G36*
X42633393Y5769156D02*
X42877368Y5719075D01*
X43106965Y5622561D01*
X43313446Y5483289D01*
X43488944Y5306560D01*
X43626772Y5099114D01*
X43721680Y4868849D01*
X43769989Y4624874D01*
X43769989Y4624859D01*
X43770054Y4624530D01*
X43766082Y4340057D01*
X43766006Y4339723D01*
X43766006Y4339711D01*
X43710907Y4097187D01*
X43609604Y3869658D01*
X43466038Y3666140D01*
X43285671Y3494380D01*
X43075387Y3360930D01*
X42843181Y3270862D01*
X42597907Y3227614D01*
X42348902Y3232829D01*
X42105647Y3286313D01*
X41877421Y3386022D01*
X41672901Y3528167D01*
X41499890Y3707326D01*
X41364975Y3916673D01*
X41273289Y4148244D01*
X41228328Y4393218D01*
X41231806Y4642252D01*
X41283587Y4885866D01*
X41381704Y5114789D01*
X41522415Y5320291D01*
X41700363Y5494552D01*
X41908766Y5630927D01*
X42139691Y5724227D01*
X42384336Y5770895D01*
X42633393Y5769156D01*
X42633393Y5769156D01*
G37*
G36*
X40270000Y3230000D02*
X37730000Y3230000D01*
X37730000Y5770000D01*
X40270000Y5770000D01*
X40270000Y3230000D01*
X40270000Y3230000D01*
G37*
G36*
X52014942Y5405668D02*
X52014955Y5405664D01*
X52014992Y5405660D01*
X52186514Y5352565D01*
X52344457Y5267166D01*
X52482805Y5152714D01*
X52596288Y5013571D01*
X52680582Y4855036D01*
X52732479Y4683147D01*
X52750000Y4504451D01*
X52750000Y4495549D01*
X52749910Y4482704D01*
X52729896Y4304270D01*
X52675605Y4133122D01*
X52589104Y3975779D01*
X52473690Y3838234D01*
X52333758Y3725726D01*
X52174638Y3642540D01*
X52002391Y3591845D01*
X52002361Y3591842D01*
X52002343Y3591837D01*
X51823579Y3575569D01*
X51645058Y3594332D01*
X51645045Y3594336D01*
X51645008Y3594340D01*
X51473486Y3647435D01*
X51315543Y3732834D01*
X51177195Y3847286D01*
X51063712Y3986429D01*
X50979418Y4144964D01*
X50927521Y4316853D01*
X50910000Y4495549D01*
X50910000Y4504451D01*
X50910090Y4517296D01*
X50930104Y4695730D01*
X50984395Y4866878D01*
X51070896Y5024221D01*
X51186310Y5161766D01*
X51326242Y5274274D01*
X51485362Y5357460D01*
X51657609Y5408155D01*
X51657639Y5408158D01*
X51657657Y5408163D01*
X51836421Y5424431D01*
X52014942Y5405668D01*
X52014942Y5405668D01*
G37*
G36*
X54554942Y5405668D02*
X54554955Y5405664D01*
X54554992Y5405660D01*
X54726514Y5352565D01*
X54884457Y5267166D01*
X55022805Y5152714D01*
X55136288Y5013571D01*
X55220582Y4855036D01*
X55272479Y4683147D01*
X55290000Y4504451D01*
X55290000Y4495549D01*
X55289910Y4482704D01*
X55269896Y4304270D01*
X55215605Y4133122D01*
X55129104Y3975779D01*
X55013690Y3838234D01*
X54873758Y3725726D01*
X54714638Y3642540D01*
X54542391Y3591845D01*
X54542361Y3591842D01*
X54542343Y3591837D01*
X54363579Y3575569D01*
X54185058Y3594332D01*
X54185045Y3594336D01*
X54185008Y3594340D01*
X54013486Y3647435D01*
X53855543Y3732834D01*
X53717195Y3847286D01*
X53603712Y3986429D01*
X53519418Y4144964D01*
X53467521Y4316853D01*
X53450000Y4495549D01*
X53450000Y4504451D01*
X53450090Y4517296D01*
X53470104Y4695730D01*
X53524395Y4866878D01*
X53610896Y5024221D01*
X53726310Y5161766D01*
X53866242Y5274274D01*
X54025362Y5357460D01*
X54197609Y5408155D01*
X54197639Y5408158D01*
X54197657Y5408163D01*
X54376421Y5424431D01*
X54554942Y5405668D01*
X54554942Y5405668D01*
G37*
G36*
X49474942Y5405668D02*
X49474955Y5405664D01*
X49474992Y5405660D01*
X49646514Y5352565D01*
X49804457Y5267166D01*
X49942805Y5152714D01*
X50056288Y5013571D01*
X50140582Y4855036D01*
X50192479Y4683147D01*
X50210000Y4504451D01*
X50210000Y4495549D01*
X50209910Y4482704D01*
X50189896Y4304270D01*
X50135605Y4133122D01*
X50049104Y3975779D01*
X49933690Y3838234D01*
X49793758Y3725726D01*
X49634638Y3642540D01*
X49462391Y3591845D01*
X49462361Y3591842D01*
X49462343Y3591837D01*
X49283579Y3575569D01*
X49105058Y3594332D01*
X49105045Y3594336D01*
X49105008Y3594340D01*
X48933486Y3647435D01*
X48775543Y3732834D01*
X48637195Y3847286D01*
X48523712Y3986429D01*
X48439418Y4144964D01*
X48387521Y4316853D01*
X48370000Y4495549D01*
X48370000Y4504451D01*
X48370090Y4517296D01*
X48390104Y4695730D01*
X48444395Y4866878D01*
X48530896Y5024221D01*
X48646310Y5161766D01*
X48786242Y5274274D01*
X48945362Y5357460D01*
X49117609Y5408155D01*
X49117639Y5408158D01*
X49117657Y5408163D01*
X49296421Y5424431D01*
X49474942Y5405668D01*
X49474942Y5405668D01*
G37*
G36*
X47670000Y3580000D02*
X45830000Y3580000D01*
X45830000Y5420000D01*
X47670000Y5420000D01*
X47670000Y3580000D01*
X47670000Y3580000D01*
G37*
G36*
X18841379Y5869422D02*
X19008513Y5835114D01*
X19165794Y5768999D01*
X19307242Y5673592D01*
X19427466Y5552525D01*
X19521884Y5410416D01*
X19586899Y5252677D01*
X19619971Y5085652D01*
X19619971Y5085647D01*
X19620038Y5085308D01*
X19617317Y4890432D01*
X19617239Y4890089D01*
X19617239Y4890087D01*
X19579519Y4724058D01*
X19510122Y4568191D01*
X19411775Y4428774D01*
X19288215Y4311110D01*
X19144163Y4219692D01*
X18985092Y4157991D01*
X18817071Y4128366D01*
X18646492Y4131938D01*
X18479850Y4168577D01*
X18323508Y4236881D01*
X18183407Y4334254D01*
X18064885Y4456987D01*
X17972463Y4600397D01*
X17909655Y4759033D01*
X17878854Y4926851D01*
X17881237Y5097449D01*
X17916709Y5264333D01*
X17983923Y5421155D01*
X18080315Y5561932D01*
X18202217Y5681308D01*
X18344982Y5774730D01*
X18503174Y5838644D01*
X18670765Y5870613D01*
X18841379Y5869422D01*
X18841379Y5869422D01*
G37*
G36*
X15712386Y8569289D02*
X15917940Y8527094D01*
X16111380Y8445780D01*
X16285344Y8328440D01*
X16433205Y8179543D01*
X16549328Y8004765D01*
X16629290Y7810763D01*
X16669980Y7605263D01*
X16669980Y7605253D01*
X16670046Y7604919D01*
X16666699Y7365245D01*
X16666623Y7364911D01*
X16666623Y7364900D01*
X16620212Y7160622D01*
X16534863Y6968924D01*
X16413907Y6797457D01*
X16261943Y6652745D01*
X16084775Y6540311D01*
X15889137Y6464428D01*
X15682488Y6427990D01*
X15472697Y6432384D01*
X15267747Y6477445D01*
X15075463Y6561452D01*
X14903156Y6681209D01*
X14757387Y6832156D01*
X14643719Y7008535D01*
X14566472Y7203638D01*
X14528591Y7410034D01*
X14531522Y7619851D01*
X14575148Y7825099D01*
X14657814Y8017972D01*
X14776365Y8191111D01*
X14926290Y8337930D01*
X15101874Y8452828D01*
X15296433Y8531435D01*
X15502550Y8570754D01*
X15712386Y8569289D01*
X15712386Y8569289D01*
G37*
G36*
X44027600Y9455000D02*
X41472400Y9455000D01*
X41472400Y11045000D01*
X44027600Y11045000D01*
X44027600Y9455000D01*
X44027600Y9455000D01*
G37*
G36*
X15712386Y12069289D02*
X15917940Y12027094D01*
X16111380Y11945780D01*
X16285344Y11828440D01*
X16433205Y11679543D01*
X16549328Y11504765D01*
X16629290Y11310763D01*
X16669980Y11105263D01*
X16669980Y11105253D01*
X16670046Y11104919D01*
X16666699Y10865245D01*
X16666623Y10864911D01*
X16666623Y10864900D01*
X16620212Y10660622D01*
X16534863Y10468924D01*
X16413907Y10297457D01*
X16261943Y10152745D01*
X16084775Y10040311D01*
X15889137Y9964428D01*
X15682488Y9927990D01*
X15472697Y9932384D01*
X15267747Y9977445D01*
X15075463Y10061452D01*
X14903156Y10181209D01*
X14757387Y10332156D01*
X14643719Y10508535D01*
X14566472Y10703638D01*
X14528591Y10910034D01*
X14531522Y11119851D01*
X14575148Y11325099D01*
X14657814Y11517972D01*
X14776365Y11691111D01*
X14926290Y11837930D01*
X15101874Y11952828D01*
X15296433Y12031435D01*
X15502550Y12070754D01*
X15712386Y12069289D01*
X15712386Y12069289D01*
G37*
G36*
X22012386Y12069289D02*
X22217940Y12027094D01*
X22411380Y11945780D01*
X22585344Y11828440D01*
X22733205Y11679543D01*
X22849328Y11504765D01*
X22929290Y11310763D01*
X22969980Y11105263D01*
X22969980Y11105253D01*
X22970046Y11104919D01*
X22966699Y10865245D01*
X22966623Y10864911D01*
X22966623Y10864900D01*
X22920212Y10660622D01*
X22834863Y10468924D01*
X22713907Y10297457D01*
X22561943Y10152745D01*
X22384775Y10040311D01*
X22189137Y9964428D01*
X21982488Y9927990D01*
X21772697Y9932384D01*
X21567747Y9977445D01*
X21375463Y10061452D01*
X21203156Y10181209D01*
X21057387Y10332156D01*
X20943719Y10508535D01*
X20866472Y10703638D01*
X20828591Y10910034D01*
X20831522Y11119851D01*
X20875148Y11325099D01*
X20957814Y11517972D01*
X21076365Y11691111D01*
X21226290Y11837930D01*
X21401874Y11952828D01*
X21596433Y12031435D01*
X21802550Y12070754D01*
X22012386Y12069289D01*
X22012386Y12069289D01*
G37*
G36*
X18841379Y11869422D02*
X19008513Y11835114D01*
X19165794Y11768999D01*
X19307242Y11673592D01*
X19427466Y11552525D01*
X19521884Y11410416D01*
X19586899Y11252677D01*
X19619971Y11085652D01*
X19619971Y11085647D01*
X19620038Y11085308D01*
X19617317Y10890432D01*
X19617239Y10890089D01*
X19617239Y10890087D01*
X19579519Y10724058D01*
X19510122Y10568191D01*
X19411775Y10428774D01*
X19288215Y10311110D01*
X19144163Y10219692D01*
X18985092Y10157991D01*
X18817071Y10128366D01*
X18646492Y10131938D01*
X18479850Y10168577D01*
X18323508Y10236881D01*
X18183407Y10334254D01*
X18064885Y10456987D01*
X17972463Y10600397D01*
X17909655Y10759033D01*
X17878854Y10926851D01*
X17881237Y11097449D01*
X17916709Y11264333D01*
X17983923Y11421155D01*
X18080315Y11561932D01*
X18202217Y11681308D01*
X18344982Y11774730D01*
X18503174Y11838644D01*
X18670765Y11870613D01*
X18841379Y11869422D01*
X18841379Y11869422D01*
G37*
G36*
X2470000Y11630000D02*
X1430000Y11630000D01*
X1430000Y12770000D01*
X2470000Y12770000D01*
X2470000Y11630000D01*
X2470000Y11630000D01*
G37*
G36*
X4070000Y11630000D02*
X3030000Y11630000D01*
X3030000Y12770000D01*
X4070000Y12770000D01*
X4070000Y11630000D01*
X4070000Y11630000D01*
G37*
G36*
X21118200Y14591800D02*
X19301800Y14591800D01*
X19301800Y16408200D01*
X21118200Y16408200D01*
X21118200Y14591800D01*
X21118200Y14591800D01*
G37*
G36*
X25377388Y16331448D02*
X25537222Y16298639D01*
X25687634Y16235411D01*
X25822906Y16144169D01*
X25937875Y16028395D01*
X26028170Y15892491D01*
X26090346Y15741641D01*
X26121970Y15581926D01*
X26121970Y15581916D01*
X26122036Y15581582D01*
X26119434Y15395218D01*
X26119358Y15394884D01*
X26119358Y15394873D01*
X26083287Y15236109D01*
X26016923Y15087051D01*
X25922870Y14953723D01*
X25804707Y14841198D01*
X25666947Y14753774D01*
X25514824Y14694768D01*
X25354142Y14666436D01*
X25191013Y14669852D01*
X25031649Y14704891D01*
X24882136Y14770212D01*
X24748154Y14863332D01*
X24634809Y14980705D01*
X24546424Y15117851D01*
X24486359Y15269557D01*
X24456903Y15430046D01*
X24459182Y15593192D01*
X24493105Y15752788D01*
X24557383Y15902760D01*
X24649565Y16037388D01*
X24766143Y16151550D01*
X24902672Y16240892D01*
X25053955Y16302014D01*
X25214225Y16332587D01*
X25377388Y16331448D01*
X25377388Y16331448D01*
G37*
G36*
X22837388Y16331448D02*
X22997222Y16298639D01*
X23147634Y16235411D01*
X23282906Y16144169D01*
X23397875Y16028395D01*
X23488170Y15892491D01*
X23550346Y15741641D01*
X23581970Y15581926D01*
X23581970Y15581916D01*
X23582036Y15581582D01*
X23579434Y15395218D01*
X23579358Y15394884D01*
X23579358Y15394873D01*
X23543287Y15236109D01*
X23476923Y15087051D01*
X23382870Y14953723D01*
X23264707Y14841198D01*
X23126947Y14753774D01*
X22974824Y14694768D01*
X22814142Y14666436D01*
X22651013Y14669852D01*
X22491649Y14704891D01*
X22342136Y14770212D01*
X22208154Y14863332D01*
X22094809Y14980705D01*
X22006424Y15117851D01*
X21946359Y15269557D01*
X21916903Y15430046D01*
X21919182Y15593192D01*
X21953105Y15752788D01*
X22017383Y15902760D01*
X22109565Y16037388D01*
X22226143Y16151550D01*
X22362672Y16240892D01*
X22513955Y16302014D01*
X22674225Y16332587D01*
X22837388Y16331448D01*
X22837388Y16331448D01*
G37*
G36*
X27917388Y16331448D02*
X28077222Y16298639D01*
X28227634Y16235411D01*
X28362906Y16144169D01*
X28477875Y16028395D01*
X28568170Y15892491D01*
X28630346Y15741641D01*
X28661970Y15581926D01*
X28661970Y15581916D01*
X28662036Y15581582D01*
X28659434Y15395218D01*
X28659358Y15394884D01*
X28659358Y15394873D01*
X28623287Y15236109D01*
X28556923Y15087051D01*
X28462870Y14953723D01*
X28344707Y14841198D01*
X28206947Y14753774D01*
X28054824Y14694768D01*
X27894142Y14666436D01*
X27731013Y14669852D01*
X27571649Y14704891D01*
X27422136Y14770212D01*
X27288154Y14863332D01*
X27174809Y14980705D01*
X27086424Y15117851D01*
X27026359Y15269557D01*
X26996903Y15430046D01*
X26999182Y15593192D01*
X27033105Y15752788D01*
X27097383Y15902760D01*
X27189565Y16037388D01*
X27306143Y16151550D01*
X27442672Y16240892D01*
X27593955Y16302014D01*
X27754225Y16332587D01*
X27917388Y16331448D01*
X27917388Y16331448D01*
G37*
G36*
X30457388Y16331448D02*
X30617222Y16298639D01*
X30767634Y16235411D01*
X30902906Y16144169D01*
X31017875Y16028395D01*
X31108170Y15892491D01*
X31170346Y15741641D01*
X31201970Y15581926D01*
X31201970Y15581916D01*
X31202036Y15581582D01*
X31199434Y15395218D01*
X31199358Y15394884D01*
X31199358Y15394873D01*
X31163287Y15236109D01*
X31096923Y15087051D01*
X31002870Y14953723D01*
X30884707Y14841198D01*
X30746947Y14753774D01*
X30594824Y14694768D01*
X30434142Y14666436D01*
X30271013Y14669852D01*
X30111649Y14704891D01*
X29962136Y14770212D01*
X29828154Y14863332D01*
X29714809Y14980705D01*
X29626424Y15117851D01*
X29566359Y15269557D01*
X29536903Y15430046D01*
X29539182Y15593192D01*
X29573105Y15752788D01*
X29637383Y15902760D01*
X29729565Y16037388D01*
X29846143Y16151550D01*
X29982672Y16240892D01*
X30133955Y16302014D01*
X30294225Y16332587D01*
X30457388Y16331448D01*
X30457388Y16331448D01*
G37*
G36*
X32997388Y16331448D02*
X33157222Y16298639D01*
X33307634Y16235411D01*
X33442906Y16144169D01*
X33557875Y16028395D01*
X33648170Y15892491D01*
X33710346Y15741641D01*
X33741970Y15581926D01*
X33741970Y15581916D01*
X33742036Y15581582D01*
X33739434Y15395218D01*
X33739358Y15394884D01*
X33739358Y15394873D01*
X33703287Y15236109D01*
X33636923Y15087051D01*
X33542870Y14953723D01*
X33424707Y14841198D01*
X33286947Y14753774D01*
X33134824Y14694768D01*
X32974142Y14666436D01*
X32811013Y14669852D01*
X32651649Y14704891D01*
X32502136Y14770212D01*
X32368154Y14863332D01*
X32254809Y14980705D01*
X32166424Y15117851D01*
X32106359Y15269557D01*
X32076903Y15430046D01*
X32079182Y15593192D01*
X32113105Y15752788D01*
X32177383Y15902760D01*
X32269565Y16037388D01*
X32386143Y16151550D01*
X32522672Y16240892D01*
X32673955Y16302014D01*
X32834225Y16332587D01*
X32997388Y16331448D01*
X32997388Y16331448D01*
G37*
G36*
X35537388Y16331448D02*
X35697222Y16298639D01*
X35847634Y16235411D01*
X35982906Y16144169D01*
X36097875Y16028395D01*
X36188170Y15892491D01*
X36250346Y15741641D01*
X36281970Y15581926D01*
X36281970Y15581916D01*
X36282036Y15581582D01*
X36279434Y15395218D01*
X36279358Y15394884D01*
X36279358Y15394873D01*
X36243287Y15236109D01*
X36176923Y15087051D01*
X36082870Y14953723D01*
X35964707Y14841198D01*
X35826947Y14753774D01*
X35674824Y14694768D01*
X35514142Y14666436D01*
X35351013Y14669852D01*
X35191649Y14704891D01*
X35042136Y14770212D01*
X34908154Y14863332D01*
X34794809Y14980705D01*
X34706424Y15117851D01*
X34646359Y15269557D01*
X34616903Y15430046D01*
X34619182Y15593192D01*
X34653105Y15752788D01*
X34717383Y15902760D01*
X34809565Y16037388D01*
X34926143Y16151550D01*
X35062672Y16240892D01*
X35213955Y16302014D01*
X35374225Y16332587D01*
X35537388Y16331448D01*
X35537388Y16331448D01*
G37*
G36*
X38077388Y16331448D02*
X38237222Y16298639D01*
X38387634Y16235411D01*
X38522906Y16144169D01*
X38637875Y16028395D01*
X38728170Y15892491D01*
X38790346Y15741641D01*
X38821970Y15581926D01*
X38821970Y15581916D01*
X38822036Y15581582D01*
X38819434Y15395218D01*
X38819358Y15394884D01*
X38819358Y15394873D01*
X38783287Y15236109D01*
X38716923Y15087051D01*
X38622870Y14953723D01*
X38504707Y14841198D01*
X38366947Y14753774D01*
X38214824Y14694768D01*
X38054142Y14666436D01*
X37891013Y14669852D01*
X37731649Y14704891D01*
X37582136Y14770212D01*
X37448154Y14863332D01*
X37334809Y14980705D01*
X37246424Y15117851D01*
X37186359Y15269557D01*
X37156903Y15430046D01*
X37159182Y15593192D01*
X37193105Y15752788D01*
X37257383Y15902760D01*
X37349565Y16037388D01*
X37466143Y16151550D01*
X37602672Y16240892D01*
X37753955Y16302014D01*
X37914225Y16332587D01*
X38077388Y16331448D01*
X38077388Y16331448D01*
G37*
G36*
X56590000Y15100000D02*
X54050000Y15100000D01*
X54050000Y17640000D01*
X56590000Y17640000D01*
X56590000Y15100000D01*
X56590000Y15100000D01*
G37*
G36*
X47450000Y15100000D02*
X44910000Y15100000D01*
X44910000Y17640000D01*
X47450000Y17640000D01*
X47450000Y15100000D01*
X47450000Y15100000D01*
G37*
G36*
X4070000Y15730000D02*
X3030000Y15730000D01*
X3030000Y16870000D01*
X4070000Y16870000D01*
X4070000Y15730000D01*
X4070000Y15730000D01*
G37*
G36*
X2470000Y15730000D02*
X1430000Y15730000D01*
X1430000Y16870000D01*
X2470000Y16870000D01*
X2470000Y15730000D01*
X2470000Y15730000D01*
G37*
G36*
X32367787Y19286566D02*
X32367800Y19286562D01*
X32367837Y19286558D01*
X32464784Y19256548D01*
X32554056Y19208279D01*
X32632253Y19143589D01*
X32696395Y19064943D01*
X32744040Y18975336D01*
X32773373Y18878181D01*
X32783276Y18777179D01*
X32783276Y17164405D01*
X32783225Y17157145D01*
X32771913Y17056291D01*
X32741226Y16959555D01*
X32692335Y16870622D01*
X32627101Y16792879D01*
X32548009Y16729288D01*
X32458071Y16682269D01*
X32360714Y16653616D01*
X32360684Y16653613D01*
X32360666Y16653608D01*
X32259648Y16644415D01*
X32158765Y16655018D01*
X32158752Y16655022D01*
X32158715Y16655026D01*
X32061768Y16685036D01*
X31972496Y16733305D01*
X31894299Y16797995D01*
X31830157Y16876641D01*
X31782512Y16966248D01*
X31753179Y17063403D01*
X31743276Y17164405D01*
X31743276Y18777179D01*
X31743327Y18784439D01*
X31754639Y18885293D01*
X31785326Y18982029D01*
X31834217Y19070962D01*
X31899451Y19148705D01*
X31978543Y19212296D01*
X32068481Y19259315D01*
X32165838Y19287968D01*
X32165868Y19287971D01*
X32165886Y19287976D01*
X32266904Y19297169D01*
X32367787Y19286566D01*
X32367787Y19286566D01*
G37*
G36*
X20937787Y19286566D02*
X20937800Y19286562D01*
X20937837Y19286558D01*
X21034784Y19256548D01*
X21124056Y19208279D01*
X21202253Y19143589D01*
X21266395Y19064943D01*
X21314040Y18975336D01*
X21343373Y18878181D01*
X21353276Y18777179D01*
X21353276Y17164405D01*
X21353225Y17157145D01*
X21341913Y17056291D01*
X21311226Y16959555D01*
X21262335Y16870622D01*
X21197101Y16792879D01*
X21118009Y16729288D01*
X21028071Y16682269D01*
X20930714Y16653616D01*
X20930684Y16653613D01*
X20930666Y16653608D01*
X20829648Y16644415D01*
X20728765Y16655018D01*
X20728752Y16655022D01*
X20728715Y16655026D01*
X20631768Y16685036D01*
X20542496Y16733305D01*
X20464299Y16797995D01*
X20400157Y16876641D01*
X20352512Y16966248D01*
X20323179Y17063403D01*
X20313276Y17164405D01*
X20313276Y18777179D01*
X20313327Y18784439D01*
X20324639Y18885293D01*
X20355326Y18982029D01*
X20404217Y19070962D01*
X20469451Y19148705D01*
X20548543Y19212296D01*
X20638481Y19259315D01*
X20735838Y19287968D01*
X20735868Y19287971D01*
X20735886Y19287976D01*
X20836904Y19297169D01*
X20937787Y19286566D01*
X20937787Y19286566D01*
G37*
G36*
X22207787Y19286566D02*
X22207800Y19286562D01*
X22207837Y19286558D01*
X22304784Y19256548D01*
X22394056Y19208279D01*
X22472253Y19143589D01*
X22536395Y19064943D01*
X22584040Y18975336D01*
X22613373Y18878181D01*
X22623276Y18777179D01*
X22623276Y17164405D01*
X22623225Y17157145D01*
X22611913Y17056291D01*
X22581226Y16959555D01*
X22532335Y16870622D01*
X22467101Y16792879D01*
X22388009Y16729288D01*
X22298071Y16682269D01*
X22200714Y16653616D01*
X22200684Y16653613D01*
X22200666Y16653608D01*
X22099648Y16644415D01*
X21998765Y16655018D01*
X21998752Y16655022D01*
X21998715Y16655026D01*
X21901768Y16685036D01*
X21812496Y16733305D01*
X21734299Y16797995D01*
X21670157Y16876641D01*
X21622512Y16966248D01*
X21593179Y17063403D01*
X21583276Y17164405D01*
X21583276Y18777179D01*
X21583327Y18784439D01*
X21594639Y18885293D01*
X21625326Y18982029D01*
X21674217Y19070962D01*
X21739451Y19148705D01*
X21818543Y19212296D01*
X21908481Y19259315D01*
X22005838Y19287968D01*
X22005868Y19287971D01*
X22005886Y19287976D01*
X22106904Y19297169D01*
X22207787Y19286566D01*
X22207787Y19286566D01*
G37*
G36*
X23477787Y19286566D02*
X23477800Y19286562D01*
X23477837Y19286558D01*
X23574784Y19256548D01*
X23664056Y19208279D01*
X23742253Y19143589D01*
X23806395Y19064943D01*
X23854040Y18975336D01*
X23883373Y18878181D01*
X23893276Y18777179D01*
X23893276Y17164405D01*
X23893225Y17157145D01*
X23881913Y17056291D01*
X23851226Y16959555D01*
X23802335Y16870622D01*
X23737101Y16792879D01*
X23658009Y16729288D01*
X23568071Y16682269D01*
X23470714Y16653616D01*
X23470684Y16653613D01*
X23470666Y16653608D01*
X23369648Y16644415D01*
X23268765Y16655018D01*
X23268752Y16655022D01*
X23268715Y16655026D01*
X23171768Y16685036D01*
X23082496Y16733305D01*
X23004299Y16797995D01*
X22940157Y16876641D01*
X22892512Y16966248D01*
X22863179Y17063403D01*
X22853276Y17164405D01*
X22853276Y18777179D01*
X22853327Y18784439D01*
X22864639Y18885293D01*
X22895326Y18982029D01*
X22944217Y19070962D01*
X23009451Y19148705D01*
X23088543Y19212296D01*
X23178481Y19259315D01*
X23275838Y19287968D01*
X23275868Y19287971D01*
X23275886Y19287976D01*
X23376904Y19297169D01*
X23477787Y19286566D01*
X23477787Y19286566D01*
G37*
G36*
X24747787Y19286566D02*
X24747800Y19286562D01*
X24747837Y19286558D01*
X24844784Y19256548D01*
X24934056Y19208279D01*
X25012253Y19143589D01*
X25076395Y19064943D01*
X25124040Y18975336D01*
X25153373Y18878181D01*
X25163276Y18777179D01*
X25163276Y17164405D01*
X25163225Y17157145D01*
X25151913Y17056291D01*
X25121226Y16959555D01*
X25072335Y16870622D01*
X25007101Y16792879D01*
X24928009Y16729288D01*
X24838071Y16682269D01*
X24740714Y16653616D01*
X24740684Y16653613D01*
X24740666Y16653608D01*
X24639648Y16644415D01*
X24538765Y16655018D01*
X24538752Y16655022D01*
X24538715Y16655026D01*
X24441768Y16685036D01*
X24352496Y16733305D01*
X24274299Y16797995D01*
X24210157Y16876641D01*
X24162512Y16966248D01*
X24133179Y17063403D01*
X24123276Y17164405D01*
X24123276Y18777179D01*
X24123327Y18784439D01*
X24134639Y18885293D01*
X24165326Y18982029D01*
X24214217Y19070962D01*
X24279451Y19148705D01*
X24358543Y19212296D01*
X24448481Y19259315D01*
X24545838Y19287968D01*
X24545868Y19287971D01*
X24545886Y19287976D01*
X24646904Y19297169D01*
X24747787Y19286566D01*
X24747787Y19286566D01*
G37*
G36*
X26017787Y19286566D02*
X26017800Y19286562D01*
X26017837Y19286558D01*
X26114784Y19256548D01*
X26204056Y19208279D01*
X26282253Y19143589D01*
X26346395Y19064943D01*
X26394040Y18975336D01*
X26423373Y18878181D01*
X26433276Y18777179D01*
X26433276Y17164405D01*
X26433225Y17157145D01*
X26421913Y17056291D01*
X26391226Y16959555D01*
X26342335Y16870622D01*
X26277101Y16792879D01*
X26198009Y16729288D01*
X26108071Y16682269D01*
X26010714Y16653616D01*
X26010684Y16653613D01*
X26010666Y16653608D01*
X25909648Y16644415D01*
X25808765Y16655018D01*
X25808752Y16655022D01*
X25808715Y16655026D01*
X25711768Y16685036D01*
X25622496Y16733305D01*
X25544299Y16797995D01*
X25480157Y16876641D01*
X25432512Y16966248D01*
X25403179Y17063403D01*
X25393276Y17164405D01*
X25393276Y18777179D01*
X25393327Y18784439D01*
X25404639Y18885293D01*
X25435326Y18982029D01*
X25484217Y19070962D01*
X25549451Y19148705D01*
X25628543Y19212296D01*
X25718481Y19259315D01*
X25815838Y19287968D01*
X25815868Y19287971D01*
X25815886Y19287976D01*
X25916904Y19297169D01*
X26017787Y19286566D01*
X26017787Y19286566D01*
G37*
G36*
X37447787Y19286566D02*
X37447800Y19286562D01*
X37447837Y19286558D01*
X37544784Y19256548D01*
X37634056Y19208279D01*
X37712253Y19143589D01*
X37776395Y19064943D01*
X37824040Y18975336D01*
X37853373Y18878181D01*
X37863276Y18777179D01*
X37863276Y17164405D01*
X37863225Y17157145D01*
X37851913Y17056291D01*
X37821226Y16959555D01*
X37772335Y16870622D01*
X37707101Y16792879D01*
X37628009Y16729288D01*
X37538071Y16682269D01*
X37440714Y16653616D01*
X37440684Y16653613D01*
X37440666Y16653608D01*
X37339648Y16644415D01*
X37238765Y16655018D01*
X37238752Y16655022D01*
X37238715Y16655026D01*
X37141768Y16685036D01*
X37052496Y16733305D01*
X36974299Y16797995D01*
X36910157Y16876641D01*
X36862512Y16966248D01*
X36833179Y17063403D01*
X36823276Y17164405D01*
X36823276Y18777179D01*
X36823327Y18784439D01*
X36834639Y18885293D01*
X36865326Y18982029D01*
X36914217Y19070962D01*
X36979451Y19148705D01*
X37058543Y19212296D01*
X37148481Y19259315D01*
X37245838Y19287968D01*
X37245868Y19287971D01*
X37245886Y19287976D01*
X37346904Y19297169D01*
X37447787Y19286566D01*
X37447787Y19286566D01*
G37*
G36*
X36177787Y19286566D02*
X36177800Y19286562D01*
X36177837Y19286558D01*
X36274784Y19256548D01*
X36364056Y19208279D01*
X36442253Y19143589D01*
X36506395Y19064943D01*
X36554040Y18975336D01*
X36583373Y18878181D01*
X36593276Y18777179D01*
X36593276Y17164405D01*
X36593225Y17157145D01*
X36581913Y17056291D01*
X36551226Y16959555D01*
X36502335Y16870622D01*
X36437101Y16792879D01*
X36358009Y16729288D01*
X36268071Y16682269D01*
X36170714Y16653616D01*
X36170684Y16653613D01*
X36170666Y16653608D01*
X36069648Y16644415D01*
X35968765Y16655018D01*
X35968752Y16655022D01*
X35968715Y16655026D01*
X35871768Y16685036D01*
X35782496Y16733305D01*
X35704299Y16797995D01*
X35640157Y16876641D01*
X35592512Y16966248D01*
X35563179Y17063403D01*
X35553276Y17164405D01*
X35553276Y18777179D01*
X35553327Y18784439D01*
X35564639Y18885293D01*
X35595326Y18982029D01*
X35644217Y19070962D01*
X35709451Y19148705D01*
X35788543Y19212296D01*
X35878481Y19259315D01*
X35975838Y19287968D01*
X35975868Y19287971D01*
X35975886Y19287976D01*
X36076904Y19297169D01*
X36177787Y19286566D01*
X36177787Y19286566D01*
G37*
G36*
X14587787Y19286566D02*
X14587800Y19286562D01*
X14587837Y19286558D01*
X14684784Y19256548D01*
X14774056Y19208279D01*
X14852253Y19143589D01*
X14916395Y19064943D01*
X14964040Y18975336D01*
X14993373Y18878181D01*
X15003276Y18777179D01*
X15003276Y17164405D01*
X15003225Y17157145D01*
X14991913Y17056291D01*
X14961226Y16959555D01*
X14912335Y16870622D01*
X14847101Y16792879D01*
X14768009Y16729288D01*
X14678071Y16682269D01*
X14580714Y16653616D01*
X14580684Y16653613D01*
X14580666Y16653608D01*
X14479648Y16644415D01*
X14378765Y16655018D01*
X14378752Y16655022D01*
X14378715Y16655026D01*
X14281768Y16685036D01*
X14192496Y16733305D01*
X14114299Y16797995D01*
X14050157Y16876641D01*
X14002512Y16966248D01*
X13973179Y17063403D01*
X13963276Y17164405D01*
X13963276Y18777179D01*
X13963327Y18784439D01*
X13974639Y18885293D01*
X14005326Y18982029D01*
X14054217Y19070962D01*
X14119451Y19148705D01*
X14198543Y19212296D01*
X14288481Y19259315D01*
X14385838Y19287968D01*
X14385868Y19287971D01*
X14385886Y19287976D01*
X14486904Y19297169D01*
X14587787Y19286566D01*
X14587787Y19286566D01*
G37*
G36*
X27287787Y19286566D02*
X27287800Y19286562D01*
X27287837Y19286558D01*
X27384784Y19256548D01*
X27474056Y19208279D01*
X27552253Y19143589D01*
X27616395Y19064943D01*
X27664040Y18975336D01*
X27693373Y18878181D01*
X27703276Y18777179D01*
X27703276Y17164405D01*
X27703225Y17157145D01*
X27691913Y17056291D01*
X27661226Y16959555D01*
X27612335Y16870622D01*
X27547101Y16792879D01*
X27468009Y16729288D01*
X27378071Y16682269D01*
X27280714Y16653616D01*
X27280684Y16653613D01*
X27280666Y16653608D01*
X27179648Y16644415D01*
X27078765Y16655018D01*
X27078752Y16655022D01*
X27078715Y16655026D01*
X26981768Y16685036D01*
X26892496Y16733305D01*
X26814299Y16797995D01*
X26750157Y16876641D01*
X26702512Y16966248D01*
X26673179Y17063403D01*
X26663276Y17164405D01*
X26663276Y18777179D01*
X26663327Y18784439D01*
X26674639Y18885293D01*
X26705326Y18982029D01*
X26754217Y19070962D01*
X26819451Y19148705D01*
X26898543Y19212296D01*
X26988481Y19259315D01*
X27085838Y19287968D01*
X27085868Y19287971D01*
X27085886Y19287976D01*
X27186904Y19297169D01*
X27287787Y19286566D01*
X27287787Y19286566D01*
G37*
G36*
X19667787Y19286566D02*
X19667800Y19286562D01*
X19667837Y19286558D01*
X19764784Y19256548D01*
X19854056Y19208279D01*
X19932253Y19143589D01*
X19996395Y19064943D01*
X20044040Y18975336D01*
X20073373Y18878181D01*
X20083276Y18777179D01*
X20083276Y17164405D01*
X20083225Y17157145D01*
X20071913Y17056291D01*
X20041226Y16959555D01*
X19992335Y16870622D01*
X19927101Y16792879D01*
X19848009Y16729288D01*
X19758071Y16682269D01*
X19660714Y16653616D01*
X19660684Y16653613D01*
X19660666Y16653608D01*
X19559648Y16644415D01*
X19458765Y16655018D01*
X19458752Y16655022D01*
X19458715Y16655026D01*
X19361768Y16685036D01*
X19272496Y16733305D01*
X19194299Y16797995D01*
X19130157Y16876641D01*
X19082512Y16966248D01*
X19053179Y17063403D01*
X19043276Y17164405D01*
X19043276Y18777179D01*
X19043327Y18784439D01*
X19054639Y18885293D01*
X19085326Y18982029D01*
X19134217Y19070962D01*
X19199451Y19148705D01*
X19278543Y19212296D01*
X19368481Y19259315D01*
X19465838Y19287968D01*
X19465868Y19287971D01*
X19465886Y19287976D01*
X19566904Y19297169D01*
X19667787Y19286566D01*
X19667787Y19286566D01*
G37*
G36*
X28557787Y19286566D02*
X28557800Y19286562D01*
X28557837Y19286558D01*
X28654784Y19256548D01*
X28744056Y19208279D01*
X28822253Y19143589D01*
X28886395Y19064943D01*
X28934040Y18975336D01*
X28963373Y18878181D01*
X28973276Y18777179D01*
X28973276Y17164405D01*
X28973225Y17157145D01*
X28961913Y17056291D01*
X28931226Y16959555D01*
X28882335Y16870622D01*
X28817101Y16792879D01*
X28738009Y16729288D01*
X28648071Y16682269D01*
X28550714Y16653616D01*
X28550684Y16653613D01*
X28550666Y16653608D01*
X28449648Y16644415D01*
X28348765Y16655018D01*
X28348752Y16655022D01*
X28348715Y16655026D01*
X28251768Y16685036D01*
X28162496Y16733305D01*
X28084299Y16797995D01*
X28020157Y16876641D01*
X27972512Y16966248D01*
X27943179Y17063403D01*
X27933276Y17164405D01*
X27933276Y18777179D01*
X27933327Y18784439D01*
X27944639Y18885293D01*
X27975326Y18982029D01*
X28024217Y19070962D01*
X28089451Y19148705D01*
X28168543Y19212296D01*
X28258481Y19259315D01*
X28355838Y19287968D01*
X28355868Y19287971D01*
X28355886Y19287976D01*
X28456904Y19297169D01*
X28557787Y19286566D01*
X28557787Y19286566D01*
G37*
G36*
X31097787Y19286566D02*
X31097800Y19286562D01*
X31097837Y19286558D01*
X31194784Y19256548D01*
X31284056Y19208279D01*
X31362253Y19143589D01*
X31426395Y19064943D01*
X31474040Y18975336D01*
X31503373Y18878181D01*
X31513276Y18777179D01*
X31513276Y17164405D01*
X31513225Y17157145D01*
X31501913Y17056291D01*
X31471226Y16959555D01*
X31422335Y16870622D01*
X31357101Y16792879D01*
X31278009Y16729288D01*
X31188071Y16682269D01*
X31090714Y16653616D01*
X31090684Y16653613D01*
X31090666Y16653608D01*
X30989648Y16644415D01*
X30888765Y16655018D01*
X30888752Y16655022D01*
X30888715Y16655026D01*
X30791768Y16685036D01*
X30702496Y16733305D01*
X30624299Y16797995D01*
X30560157Y16876641D01*
X30512512Y16966248D01*
X30483179Y17063403D01*
X30473276Y17164405D01*
X30473276Y18777179D01*
X30473327Y18784439D01*
X30484639Y18885293D01*
X30515326Y18982029D01*
X30564217Y19070962D01*
X30629451Y19148705D01*
X30708543Y19212296D01*
X30798481Y19259315D01*
X30895838Y19287968D01*
X30895868Y19287971D01*
X30895886Y19287976D01*
X30996904Y19297169D01*
X31097787Y19286566D01*
X31097787Y19286566D01*
G37*
G36*
X29827787Y19286566D02*
X29827800Y19286562D01*
X29827837Y19286558D01*
X29924784Y19256548D01*
X30014056Y19208279D01*
X30092253Y19143589D01*
X30156395Y19064943D01*
X30204040Y18975336D01*
X30233373Y18878181D01*
X30243276Y18777179D01*
X30243276Y17164405D01*
X30243225Y17157145D01*
X30231913Y17056291D01*
X30201226Y16959555D01*
X30152335Y16870622D01*
X30087101Y16792879D01*
X30008009Y16729288D01*
X29918071Y16682269D01*
X29820714Y16653616D01*
X29820684Y16653613D01*
X29820666Y16653608D01*
X29719648Y16644415D01*
X29618765Y16655018D01*
X29618752Y16655022D01*
X29618715Y16655026D01*
X29521768Y16685036D01*
X29432496Y16733305D01*
X29354299Y16797995D01*
X29290157Y16876641D01*
X29242512Y16966248D01*
X29213179Y17063403D01*
X29203276Y17164405D01*
X29203276Y18777179D01*
X29203327Y18784439D01*
X29214639Y18885293D01*
X29245326Y18982029D01*
X29294217Y19070962D01*
X29359451Y19148705D01*
X29438543Y19212296D01*
X29528481Y19259315D01*
X29625838Y19287968D01*
X29625868Y19287971D01*
X29625886Y19287976D01*
X29726904Y19297169D01*
X29827787Y19286566D01*
X29827787Y19286566D01*
G37*
G36*
X33637787Y19286566D02*
X33637800Y19286562D01*
X33637837Y19286558D01*
X33734784Y19256548D01*
X33824056Y19208279D01*
X33902253Y19143589D01*
X33966395Y19064943D01*
X34014040Y18975336D01*
X34043373Y18878181D01*
X34053276Y18777179D01*
X34053276Y17164405D01*
X34053225Y17157145D01*
X34041913Y17056291D01*
X34011226Y16959555D01*
X33962335Y16870622D01*
X33897101Y16792879D01*
X33818009Y16729288D01*
X33728071Y16682269D01*
X33630714Y16653616D01*
X33630684Y16653613D01*
X33630666Y16653608D01*
X33529648Y16644415D01*
X33428765Y16655018D01*
X33428752Y16655022D01*
X33428715Y16655026D01*
X33331768Y16685036D01*
X33242496Y16733305D01*
X33164299Y16797995D01*
X33100157Y16876641D01*
X33052512Y16966248D01*
X33023179Y17063403D01*
X33013276Y17164405D01*
X33013276Y18777179D01*
X33013327Y18784439D01*
X33024639Y18885293D01*
X33055326Y18982029D01*
X33104217Y19070962D01*
X33169451Y19148705D01*
X33248543Y19212296D01*
X33338481Y19259315D01*
X33435838Y19287968D01*
X33435868Y19287971D01*
X33435886Y19287976D01*
X33536904Y19297169D01*
X33637787Y19286566D01*
X33637787Y19286566D01*
G37*
G36*
X34907787Y19286566D02*
X34907800Y19286562D01*
X34907837Y19286558D01*
X35004784Y19256548D01*
X35094056Y19208279D01*
X35172253Y19143589D01*
X35236395Y19064943D01*
X35284040Y18975336D01*
X35313373Y18878181D01*
X35323276Y18777179D01*
X35323276Y17164405D01*
X35323225Y17157145D01*
X35311913Y17056291D01*
X35281226Y16959555D01*
X35232335Y16870622D01*
X35167101Y16792879D01*
X35088009Y16729288D01*
X34998071Y16682269D01*
X34900714Y16653616D01*
X34900684Y16653613D01*
X34900666Y16653608D01*
X34799648Y16644415D01*
X34698765Y16655018D01*
X34698752Y16655022D01*
X34698715Y16655026D01*
X34601768Y16685036D01*
X34512496Y16733305D01*
X34434299Y16797995D01*
X34370157Y16876641D01*
X34322512Y16966248D01*
X34293179Y17063403D01*
X34283276Y17164405D01*
X34283276Y18777179D01*
X34283327Y18784439D01*
X34294639Y18885293D01*
X34325326Y18982029D01*
X34374217Y19070962D01*
X34439451Y19148705D01*
X34518543Y19212296D01*
X34608481Y19259315D01*
X34705838Y19287968D01*
X34705868Y19287971D01*
X34705886Y19287976D01*
X34806904Y19297169D01*
X34907787Y19286566D01*
X34907787Y19286566D01*
G37*
G36*
X18397787Y19286566D02*
X18397800Y19286562D01*
X18397837Y19286558D01*
X18494784Y19256548D01*
X18584056Y19208279D01*
X18662253Y19143589D01*
X18726395Y19064943D01*
X18774040Y18975336D01*
X18803373Y18878181D01*
X18813276Y18777179D01*
X18813276Y17164405D01*
X18813225Y17157145D01*
X18801913Y17056291D01*
X18771226Y16959555D01*
X18722335Y16870622D01*
X18657101Y16792879D01*
X18578009Y16729288D01*
X18488071Y16682269D01*
X18390714Y16653616D01*
X18390684Y16653613D01*
X18390666Y16653608D01*
X18289648Y16644415D01*
X18188765Y16655018D01*
X18188752Y16655022D01*
X18188715Y16655026D01*
X18091768Y16685036D01*
X18002496Y16733305D01*
X17924299Y16797995D01*
X17860157Y16876641D01*
X17812512Y16966248D01*
X17783179Y17063403D01*
X17773276Y17164405D01*
X17773276Y18777179D01*
X17773327Y18784439D01*
X17784639Y18885293D01*
X17815326Y18982029D01*
X17864217Y19070962D01*
X17929451Y19148705D01*
X18008543Y19212296D01*
X18098481Y19259315D01*
X18195838Y19287968D01*
X18195868Y19287971D01*
X18195886Y19287976D01*
X18296904Y19297169D01*
X18397787Y19286566D01*
X18397787Y19286566D01*
G37*
G36*
X17127787Y19286566D02*
X17127800Y19286562D01*
X17127837Y19286558D01*
X17224784Y19256548D01*
X17314056Y19208279D01*
X17392253Y19143589D01*
X17456395Y19064943D01*
X17504040Y18975336D01*
X17533373Y18878181D01*
X17543276Y18777179D01*
X17543276Y17164405D01*
X17543225Y17157145D01*
X17531913Y17056291D01*
X17501226Y16959555D01*
X17452335Y16870622D01*
X17387101Y16792879D01*
X17308009Y16729288D01*
X17218071Y16682269D01*
X17120714Y16653616D01*
X17120684Y16653613D01*
X17120666Y16653608D01*
X17019648Y16644415D01*
X16918765Y16655018D01*
X16918752Y16655022D01*
X16918715Y16655026D01*
X16821768Y16685036D01*
X16732496Y16733305D01*
X16654299Y16797995D01*
X16590157Y16876641D01*
X16542512Y16966248D01*
X16513179Y17063403D01*
X16503276Y17164405D01*
X16503276Y18777179D01*
X16503327Y18784439D01*
X16514639Y18885293D01*
X16545326Y18982029D01*
X16594217Y19070962D01*
X16659451Y19148705D01*
X16738543Y19212296D01*
X16828481Y19259315D01*
X16925838Y19287968D01*
X16925868Y19287971D01*
X16925886Y19287976D01*
X17026904Y19297169D01*
X17127787Y19286566D01*
X17127787Y19286566D01*
G37*
G36*
X15857787Y19286566D02*
X15857800Y19286562D01*
X15857837Y19286558D01*
X15954784Y19256548D01*
X16044056Y19208279D01*
X16122253Y19143589D01*
X16186395Y19064943D01*
X16234040Y18975336D01*
X16263373Y18878181D01*
X16273276Y18777179D01*
X16273276Y17164405D01*
X16273225Y17157145D01*
X16261913Y17056291D01*
X16231226Y16959555D01*
X16182335Y16870622D01*
X16117101Y16792879D01*
X16038009Y16729288D01*
X15948071Y16682269D01*
X15850714Y16653616D01*
X15850684Y16653613D01*
X15850666Y16653608D01*
X15749648Y16644415D01*
X15648765Y16655018D01*
X15648752Y16655022D01*
X15648715Y16655026D01*
X15551768Y16685036D01*
X15462496Y16733305D01*
X15384299Y16797995D01*
X15320157Y16876641D01*
X15272512Y16966248D01*
X15243179Y17063403D01*
X15233276Y17164405D01*
X15233276Y18777179D01*
X15233327Y18784439D01*
X15244639Y18885293D01*
X15275326Y18982029D01*
X15324217Y19070962D01*
X15389451Y19148705D01*
X15468543Y19212296D01*
X15558481Y19259315D01*
X15655838Y19287968D01*
X15655868Y19287971D01*
X15655886Y19287976D01*
X15756904Y19297169D01*
X15857787Y19286566D01*
X15857787Y19286566D01*
G37*
G36*
X33292336Y21775773D02*
X33296923Y21775741D01*
X33397777Y21764429D01*
X33494513Y21733742D01*
X33583446Y21684851D01*
X33661189Y21619617D01*
X33724780Y21540525D01*
X33771799Y21450587D01*
X33800452Y21353230D01*
X33800455Y21353200D01*
X33800460Y21353182D01*
X33809653Y21252164D01*
X33799050Y21151281D01*
X33799046Y21151268D01*
X33799042Y21151231D01*
X33769032Y21054284D01*
X33720763Y20965012D01*
X33656073Y20886815D01*
X33577427Y20822673D01*
X33487820Y20775028D01*
X33390665Y20745695D01*
X33289663Y20735792D01*
X31676857Y20735792D01*
X31674216Y20735811D01*
X31669629Y20735843D01*
X31568775Y20747155D01*
X31472039Y20777842D01*
X31383106Y20826733D01*
X31305363Y20891967D01*
X31241772Y20971059D01*
X31194753Y21060997D01*
X31166100Y21158354D01*
X31166097Y21158384D01*
X31166092Y21158402D01*
X31156899Y21259420D01*
X31167502Y21360303D01*
X31167506Y21360316D01*
X31167510Y21360353D01*
X31197520Y21457300D01*
X31245789Y21546572D01*
X31310479Y21624769D01*
X31389125Y21688911D01*
X31478732Y21736556D01*
X31575887Y21765889D01*
X31676889Y21775792D01*
X33289695Y21775792D01*
X33292336Y21775773D01*
X33292336Y21775773D01*
G37*
G36*
X33292336Y23045773D02*
X33296923Y23045741D01*
X33397777Y23034429D01*
X33494513Y23003742D01*
X33583446Y22954851D01*
X33661189Y22889617D01*
X33724780Y22810525D01*
X33771799Y22720587D01*
X33800452Y22623230D01*
X33800455Y22623200D01*
X33800460Y22623182D01*
X33809653Y22522164D01*
X33799050Y22421281D01*
X33799046Y22421268D01*
X33799042Y22421231D01*
X33769032Y22324284D01*
X33720763Y22235012D01*
X33656073Y22156815D01*
X33577427Y22092673D01*
X33487820Y22045028D01*
X33390665Y22015695D01*
X33289663Y22005792D01*
X31676857Y22005792D01*
X31674216Y22005811D01*
X31669629Y22005843D01*
X31568775Y22017155D01*
X31472039Y22047842D01*
X31383106Y22096733D01*
X31305363Y22161967D01*
X31241772Y22241059D01*
X31194753Y22330997D01*
X31166100Y22428354D01*
X31166097Y22428384D01*
X31166092Y22428402D01*
X31156899Y22529420D01*
X31167502Y22630303D01*
X31167506Y22630316D01*
X31167510Y22630353D01*
X31197520Y22727300D01*
X31245789Y22816572D01*
X31310479Y22894769D01*
X31389125Y22958911D01*
X31478732Y23006556D01*
X31575887Y23035889D01*
X31676889Y23045792D01*
X33289695Y23045792D01*
X33292336Y23045773D01*
X33292336Y23045773D01*
G37*
G36*
X33292336Y24315773D02*
X33296923Y24315741D01*
X33397777Y24304429D01*
X33494513Y24273742D01*
X33583446Y24224851D01*
X33661189Y24159617D01*
X33724780Y24080525D01*
X33771799Y23990587D01*
X33800452Y23893230D01*
X33800455Y23893200D01*
X33800460Y23893182D01*
X33809653Y23792164D01*
X33799050Y23691281D01*
X33799046Y23691268D01*
X33799042Y23691231D01*
X33769032Y23594284D01*
X33720763Y23505012D01*
X33656073Y23426815D01*
X33577427Y23362673D01*
X33487820Y23315028D01*
X33390665Y23285695D01*
X33289663Y23275792D01*
X31676857Y23275792D01*
X31674216Y23275811D01*
X31669629Y23275843D01*
X31568775Y23287155D01*
X31472039Y23317842D01*
X31383106Y23366733D01*
X31305363Y23431967D01*
X31241772Y23511059D01*
X31194753Y23600997D01*
X31166100Y23698354D01*
X31166097Y23698384D01*
X31166092Y23698402D01*
X31156899Y23799420D01*
X31167502Y23900303D01*
X31167506Y23900316D01*
X31167510Y23900353D01*
X31197520Y23997300D01*
X31245789Y24086572D01*
X31310479Y24164769D01*
X31389125Y24228911D01*
X31478732Y24276556D01*
X31575887Y24305889D01*
X31676889Y24315792D01*
X33289695Y24315792D01*
X33292336Y24315773D01*
X33292336Y24315773D01*
G37*
G36*
X25253276Y23600792D02*
X19113276Y23600792D01*
X19113276Y29740792D01*
X25253276Y29740792D01*
X25253276Y23600792D01*
X25253276Y23600792D01*
G37*
G36*
X47230000Y24370000D02*
X44580000Y24370000D01*
X44580000Y25510000D01*
X47230000Y25510000D01*
X47230000Y24370000D01*
X47230000Y24370000D01*
G37*
G36*
X33292336Y25585773D02*
X33296923Y25585741D01*
X33397777Y25574429D01*
X33494513Y25543742D01*
X33583446Y25494851D01*
X33661189Y25429617D01*
X33724780Y25350525D01*
X33771799Y25260587D01*
X33800452Y25163230D01*
X33800455Y25163200D01*
X33800460Y25163182D01*
X33809653Y25062164D01*
X33799050Y24961281D01*
X33799046Y24961268D01*
X33799042Y24961231D01*
X33769032Y24864284D01*
X33720763Y24775012D01*
X33656073Y24696815D01*
X33577427Y24632673D01*
X33487820Y24585028D01*
X33390665Y24555695D01*
X33289663Y24545792D01*
X31676857Y24545792D01*
X31674216Y24545811D01*
X31669629Y24545843D01*
X31568775Y24557155D01*
X31472039Y24587842D01*
X31383106Y24636733D01*
X31305363Y24701967D01*
X31241772Y24781059D01*
X31194753Y24870997D01*
X31166100Y24968354D01*
X31166097Y24968384D01*
X31166092Y24968402D01*
X31156899Y25069420D01*
X31167502Y25170303D01*
X31167506Y25170316D01*
X31167510Y25170353D01*
X31197520Y25267300D01*
X31245789Y25356572D01*
X31310479Y25434769D01*
X31389125Y25498911D01*
X31478732Y25546556D01*
X31575887Y25575889D01*
X31676889Y25585792D01*
X33289695Y25585792D01*
X33292336Y25585773D01*
X33292336Y25585773D01*
G37*
G36*
X33292336Y26855773D02*
X33296923Y26855741D01*
X33397777Y26844429D01*
X33494513Y26813742D01*
X33583446Y26764851D01*
X33661189Y26699617D01*
X33724780Y26620525D01*
X33771799Y26530587D01*
X33800452Y26433230D01*
X33800455Y26433200D01*
X33800460Y26433182D01*
X33809653Y26332164D01*
X33799050Y26231281D01*
X33799046Y26231268D01*
X33799042Y26231231D01*
X33769032Y26134284D01*
X33720763Y26045012D01*
X33656073Y25966815D01*
X33577427Y25902673D01*
X33487820Y25855028D01*
X33390665Y25825695D01*
X33289663Y25815792D01*
X31676857Y25815792D01*
X31674216Y25815811D01*
X31669629Y25815843D01*
X31568775Y25827155D01*
X31472039Y25857842D01*
X31383106Y25906733D01*
X31305363Y25971967D01*
X31241772Y26051059D01*
X31194753Y26140997D01*
X31166100Y26238354D01*
X31166097Y26238384D01*
X31166092Y26238402D01*
X31156899Y26339420D01*
X31167502Y26440303D01*
X31167506Y26440316D01*
X31167510Y26440353D01*
X31197520Y26537300D01*
X31245789Y26626572D01*
X31310479Y26704769D01*
X31389125Y26768911D01*
X31478732Y26816556D01*
X31575887Y26845889D01*
X31676889Y26855792D01*
X33289695Y26855792D01*
X33292336Y26855773D01*
X33292336Y26855773D01*
G37*
G36*
X43920000Y26910000D02*
X41270000Y26910000D01*
X41270000Y28050000D01*
X43920000Y28050000D01*
X43920000Y26910000D01*
X43920000Y26910000D01*
G37*
G36*
X33292336Y28125773D02*
X33296923Y28125741D01*
X33397777Y28114429D01*
X33494513Y28083742D01*
X33583446Y28034851D01*
X33661189Y27969617D01*
X33724780Y27890525D01*
X33771799Y27800587D01*
X33800452Y27703230D01*
X33800455Y27703200D01*
X33800460Y27703182D01*
X33809653Y27602164D01*
X33799050Y27501281D01*
X33799046Y27501268D01*
X33799042Y27501231D01*
X33769032Y27404284D01*
X33720763Y27315012D01*
X33656073Y27236815D01*
X33577427Y27172673D01*
X33487820Y27125028D01*
X33390665Y27095695D01*
X33289663Y27085792D01*
X31676857Y27085792D01*
X31674216Y27085811D01*
X31669629Y27085843D01*
X31568775Y27097155D01*
X31472039Y27127842D01*
X31383106Y27176733D01*
X31305363Y27241967D01*
X31241772Y27321059D01*
X31194753Y27410997D01*
X31166100Y27508354D01*
X31166097Y27508384D01*
X31166092Y27508402D01*
X31156899Y27609420D01*
X31167502Y27710303D01*
X31167506Y27710316D01*
X31167510Y27710353D01*
X31197520Y27807300D01*
X31245789Y27896572D01*
X31310479Y27974769D01*
X31389125Y28038911D01*
X31478732Y28086556D01*
X31575887Y28115889D01*
X31676889Y28125792D01*
X33289695Y28125792D01*
X33292336Y28125773D01*
X33292336Y28125773D01*
G37*
G36*
X33292336Y29395773D02*
X33296923Y29395741D01*
X33397777Y29384429D01*
X33494513Y29353742D01*
X33583446Y29304851D01*
X33661189Y29239617D01*
X33724780Y29160525D01*
X33771799Y29070587D01*
X33800452Y28973230D01*
X33800455Y28973200D01*
X33800460Y28973182D01*
X33809653Y28872164D01*
X33799050Y28771281D01*
X33799046Y28771268D01*
X33799042Y28771231D01*
X33769032Y28674284D01*
X33720763Y28585012D01*
X33656073Y28506815D01*
X33577427Y28442673D01*
X33487820Y28395028D01*
X33390665Y28365695D01*
X33289663Y28355792D01*
X31676857Y28355792D01*
X31674216Y28355811D01*
X31669629Y28355843D01*
X31568775Y28367155D01*
X31472039Y28397842D01*
X31383106Y28446733D01*
X31305363Y28511967D01*
X31241772Y28591059D01*
X31194753Y28680997D01*
X31166100Y28778354D01*
X31166097Y28778384D01*
X31166092Y28778402D01*
X31156899Y28879420D01*
X31167502Y28980303D01*
X31167506Y28980316D01*
X31167510Y28980353D01*
X31197520Y29077300D01*
X31245789Y29166572D01*
X31310479Y29244769D01*
X31389125Y29308911D01*
X31478732Y29356556D01*
X31575887Y29385889D01*
X31676889Y29395792D01*
X33289695Y29395792D01*
X33292336Y29395773D01*
X33292336Y29395773D01*
G37*
G36*
X47230000Y29450000D02*
X44580000Y29450000D01*
X44580000Y30590000D01*
X47230000Y30590000D01*
X47230000Y29450000D01*
X47230000Y29450000D01*
G37*
G36*
X33292336Y30665773D02*
X33296923Y30665741D01*
X33397777Y30654429D01*
X33494513Y30623742D01*
X33583446Y30574851D01*
X33661189Y30509617D01*
X33724780Y30430525D01*
X33771799Y30340587D01*
X33800452Y30243230D01*
X33800455Y30243200D01*
X33800460Y30243182D01*
X33809653Y30142164D01*
X33799050Y30041281D01*
X33799046Y30041268D01*
X33799042Y30041231D01*
X33769032Y29944284D01*
X33720763Y29855012D01*
X33656073Y29776815D01*
X33577427Y29712673D01*
X33487820Y29665028D01*
X33390665Y29635695D01*
X33289663Y29625792D01*
X31676857Y29625792D01*
X31674216Y29625811D01*
X31669629Y29625843D01*
X31568775Y29637155D01*
X31472039Y29667842D01*
X31383106Y29716733D01*
X31305363Y29781967D01*
X31241772Y29861059D01*
X31194753Y29950997D01*
X31166100Y30048354D01*
X31166097Y30048384D01*
X31166092Y30048402D01*
X31156899Y30149420D01*
X31167502Y30250303D01*
X31167506Y30250316D01*
X31167510Y30250353D01*
X31197520Y30347300D01*
X31245789Y30436572D01*
X31310479Y30514769D01*
X31389125Y30578911D01*
X31478732Y30626556D01*
X31575887Y30655889D01*
X31676889Y30665792D01*
X33289695Y30665792D01*
X33292336Y30665773D01*
X33292336Y30665773D01*
G37*
G36*
X33292336Y31935773D02*
X33296923Y31935741D01*
X33397777Y31924429D01*
X33494513Y31893742D01*
X33583446Y31844851D01*
X33661189Y31779617D01*
X33724780Y31700525D01*
X33771799Y31610587D01*
X33800452Y31513230D01*
X33800455Y31513200D01*
X33800460Y31513182D01*
X33809653Y31412164D01*
X33799050Y31311281D01*
X33799046Y31311268D01*
X33799042Y31311231D01*
X33769032Y31214284D01*
X33720763Y31125012D01*
X33656073Y31046815D01*
X33577427Y30982673D01*
X33487820Y30935028D01*
X33390665Y30905695D01*
X33289663Y30895792D01*
X31676857Y30895792D01*
X31674216Y30895811D01*
X31669629Y30895843D01*
X31568775Y30907155D01*
X31472039Y30937842D01*
X31383106Y30986733D01*
X31305363Y31051967D01*
X31241772Y31131059D01*
X31194753Y31220997D01*
X31166100Y31318354D01*
X31166097Y31318384D01*
X31166092Y31318402D01*
X31156899Y31419420D01*
X31167502Y31520303D01*
X31167506Y31520316D01*
X31167510Y31520353D01*
X31197520Y31617300D01*
X31245789Y31706572D01*
X31310479Y31784769D01*
X31389125Y31848911D01*
X31478732Y31896556D01*
X31575887Y31925889D01*
X31676889Y31935792D01*
X33289695Y31935792D01*
X33292336Y31935773D01*
X33292336Y31935773D01*
G37*
G36*
X43920000Y31990000D02*
X41270000Y31990000D01*
X41270000Y33130000D01*
X43920000Y33130000D01*
X43920000Y31990000D01*
X43920000Y31990000D01*
G37*
G36*
X33292336Y33205773D02*
X33296923Y33205741D01*
X33397777Y33194429D01*
X33494513Y33163742D01*
X33583446Y33114851D01*
X33661189Y33049617D01*
X33724780Y32970525D01*
X33771799Y32880587D01*
X33800452Y32783230D01*
X33800455Y32783200D01*
X33800460Y32783182D01*
X33809653Y32682164D01*
X33799050Y32581281D01*
X33799046Y32581268D01*
X33799042Y32581231D01*
X33769032Y32484284D01*
X33720763Y32395012D01*
X33656073Y32316815D01*
X33577427Y32252673D01*
X33487820Y32205028D01*
X33390665Y32175695D01*
X33289663Y32165792D01*
X31676857Y32165792D01*
X31674216Y32165811D01*
X31669629Y32165843D01*
X31568775Y32177155D01*
X31472039Y32207842D01*
X31383106Y32256733D01*
X31305363Y32321967D01*
X31241772Y32401059D01*
X31194753Y32490997D01*
X31166100Y32588354D01*
X31166097Y32588384D01*
X31166092Y32588402D01*
X31156899Y32689420D01*
X31167502Y32790303D01*
X31167506Y32790316D01*
X31167510Y32790353D01*
X31197520Y32887300D01*
X31245789Y32976572D01*
X31310479Y33054769D01*
X31389125Y33118911D01*
X31478732Y33166556D01*
X31575887Y33195889D01*
X31676889Y33205792D01*
X33289695Y33205792D01*
X33292336Y33205773D01*
X33292336Y33205773D01*
G37*
G36*
X34907787Y37286566D02*
X34907800Y37286562D01*
X34907837Y37286558D01*
X35004784Y37256548D01*
X35094056Y37208279D01*
X35172253Y37143589D01*
X35236395Y37064943D01*
X35284040Y36975336D01*
X35313373Y36878181D01*
X35323276Y36777179D01*
X35323276Y35164405D01*
X35323225Y35157145D01*
X35311913Y35056291D01*
X35281226Y34959555D01*
X35232335Y34870622D01*
X35167101Y34792879D01*
X35088009Y34729288D01*
X34998071Y34682269D01*
X34900714Y34653616D01*
X34900684Y34653613D01*
X34900666Y34653608D01*
X34799648Y34644415D01*
X34698765Y34655018D01*
X34698752Y34655022D01*
X34698715Y34655026D01*
X34601768Y34685036D01*
X34512496Y34733305D01*
X34434299Y34797995D01*
X34370157Y34876641D01*
X34322512Y34966248D01*
X34293179Y35063403D01*
X34283276Y35164405D01*
X34283276Y36777179D01*
X34283327Y36784439D01*
X34294639Y36885293D01*
X34325326Y36982029D01*
X34374217Y37070962D01*
X34439451Y37148705D01*
X34518543Y37212296D01*
X34608481Y37259315D01*
X34705838Y37287968D01*
X34705868Y37287971D01*
X34705886Y37287976D01*
X34806904Y37297169D01*
X34907787Y37286566D01*
X34907787Y37286566D01*
G37*
G36*
X33637787Y37286566D02*
X33637800Y37286562D01*
X33637837Y37286558D01*
X33734784Y37256548D01*
X33824056Y37208279D01*
X33902253Y37143589D01*
X33966395Y37064943D01*
X34014040Y36975336D01*
X34043373Y36878181D01*
X34053276Y36777179D01*
X34053276Y35164405D01*
X34053225Y35157145D01*
X34041913Y35056291D01*
X34011226Y34959555D01*
X33962335Y34870622D01*
X33897101Y34792879D01*
X33818009Y34729288D01*
X33728071Y34682269D01*
X33630714Y34653616D01*
X33630684Y34653613D01*
X33630666Y34653608D01*
X33529648Y34644415D01*
X33428765Y34655018D01*
X33428752Y34655022D01*
X33428715Y34655026D01*
X33331768Y34685036D01*
X33242496Y34733305D01*
X33164299Y34797995D01*
X33100157Y34876641D01*
X33052512Y34966248D01*
X33023179Y35063403D01*
X33013276Y35164405D01*
X33013276Y36777179D01*
X33013327Y36784439D01*
X33024639Y36885293D01*
X33055326Y36982029D01*
X33104217Y37070962D01*
X33169451Y37148705D01*
X33248543Y37212296D01*
X33338481Y37259315D01*
X33435838Y37287968D01*
X33435868Y37287971D01*
X33435886Y37287976D01*
X33536904Y37297169D01*
X33637787Y37286566D01*
X33637787Y37286566D01*
G37*
G36*
X32367787Y37286566D02*
X32367800Y37286562D01*
X32367837Y37286558D01*
X32464784Y37256548D01*
X32554056Y37208279D01*
X32632253Y37143589D01*
X32696395Y37064943D01*
X32744040Y36975336D01*
X32773373Y36878181D01*
X32783276Y36777179D01*
X32783276Y35164405D01*
X32783225Y35157145D01*
X32771913Y35056291D01*
X32741226Y34959555D01*
X32692335Y34870622D01*
X32627101Y34792879D01*
X32548009Y34729288D01*
X32458071Y34682269D01*
X32360714Y34653616D01*
X32360684Y34653613D01*
X32360666Y34653608D01*
X32259648Y34644415D01*
X32158765Y34655018D01*
X32158752Y34655022D01*
X32158715Y34655026D01*
X32061768Y34685036D01*
X31972496Y34733305D01*
X31894299Y34797995D01*
X31830157Y34876641D01*
X31782512Y34966248D01*
X31753179Y35063403D01*
X31743276Y35164405D01*
X31743276Y36777179D01*
X31743327Y36784439D01*
X31754639Y36885293D01*
X31785326Y36982029D01*
X31834217Y37070962D01*
X31899451Y37148705D01*
X31978543Y37212296D01*
X32068481Y37259315D01*
X32165838Y37287968D01*
X32165868Y37287971D01*
X32165886Y37287976D01*
X32266904Y37297169D01*
X32367787Y37286566D01*
X32367787Y37286566D01*
G37*
G36*
X36177787Y37286566D02*
X36177800Y37286562D01*
X36177837Y37286558D01*
X36274784Y37256548D01*
X36364056Y37208279D01*
X36442253Y37143589D01*
X36506395Y37064943D01*
X36554040Y36975336D01*
X36583373Y36878181D01*
X36593276Y36777179D01*
X36593276Y35164405D01*
X36593225Y35157145D01*
X36581913Y35056291D01*
X36551226Y34959555D01*
X36502335Y34870622D01*
X36437101Y34792879D01*
X36358009Y34729288D01*
X36268071Y34682269D01*
X36170714Y34653616D01*
X36170684Y34653613D01*
X36170666Y34653608D01*
X36069648Y34644415D01*
X35968765Y34655018D01*
X35968752Y34655022D01*
X35968715Y34655026D01*
X35871768Y34685036D01*
X35782496Y34733305D01*
X35704299Y34797995D01*
X35640157Y34876641D01*
X35592512Y34966248D01*
X35563179Y35063403D01*
X35553276Y35164405D01*
X35553276Y36777179D01*
X35553327Y36784439D01*
X35564639Y36885293D01*
X35595326Y36982029D01*
X35644217Y37070962D01*
X35709451Y37148705D01*
X35788543Y37212296D01*
X35878481Y37259315D01*
X35975838Y37287968D01*
X35975868Y37287971D01*
X35975886Y37287976D01*
X36076904Y37297169D01*
X36177787Y37286566D01*
X36177787Y37286566D01*
G37*
G36*
X37447787Y37286566D02*
X37447800Y37286562D01*
X37447837Y37286558D01*
X37544784Y37256548D01*
X37634056Y37208279D01*
X37712253Y37143589D01*
X37776395Y37064943D01*
X37824040Y36975336D01*
X37853373Y36878181D01*
X37863276Y36777179D01*
X37863276Y35164405D01*
X37863225Y35157145D01*
X37851913Y35056291D01*
X37821226Y34959555D01*
X37772335Y34870622D01*
X37707101Y34792879D01*
X37628009Y34729288D01*
X37538071Y34682269D01*
X37440714Y34653616D01*
X37440684Y34653613D01*
X37440666Y34653608D01*
X37339648Y34644415D01*
X37238765Y34655018D01*
X37238752Y34655022D01*
X37238715Y34655026D01*
X37141768Y34685036D01*
X37052496Y34733305D01*
X36974299Y34797995D01*
X36910157Y34876641D01*
X36862512Y34966248D01*
X36833179Y35063403D01*
X36823276Y35164405D01*
X36823276Y36777179D01*
X36823327Y36784439D01*
X36834639Y36885293D01*
X36865326Y36982029D01*
X36914217Y37070962D01*
X36979451Y37148705D01*
X37058543Y37212296D01*
X37148481Y37259315D01*
X37245838Y37287968D01*
X37245868Y37287971D01*
X37245886Y37287976D01*
X37346904Y37297169D01*
X37447787Y37286566D01*
X37447787Y37286566D01*
G37*
G36*
X26017787Y37286566D02*
X26017800Y37286562D01*
X26017837Y37286558D01*
X26114784Y37256548D01*
X26204056Y37208279D01*
X26282253Y37143589D01*
X26346395Y37064943D01*
X26394040Y36975336D01*
X26423373Y36878181D01*
X26433276Y36777179D01*
X26433276Y35164405D01*
X26433225Y35157145D01*
X26421913Y35056291D01*
X26391226Y34959555D01*
X26342335Y34870622D01*
X26277101Y34792879D01*
X26198009Y34729288D01*
X26108071Y34682269D01*
X26010714Y34653616D01*
X26010684Y34653613D01*
X26010666Y34653608D01*
X25909648Y34644415D01*
X25808765Y34655018D01*
X25808752Y34655022D01*
X25808715Y34655026D01*
X25711768Y34685036D01*
X25622496Y34733305D01*
X25544299Y34797995D01*
X25480157Y34876641D01*
X25432512Y34966248D01*
X25403179Y35063403D01*
X25393276Y35164405D01*
X25393276Y36777179D01*
X25393327Y36784439D01*
X25404639Y36885293D01*
X25435326Y36982029D01*
X25484217Y37070962D01*
X25549451Y37148705D01*
X25628543Y37212296D01*
X25718481Y37259315D01*
X25815838Y37287968D01*
X25815868Y37287971D01*
X25815886Y37287976D01*
X25916904Y37297169D01*
X26017787Y37286566D01*
X26017787Y37286566D01*
G37*
G36*
X31097787Y37286566D02*
X31097800Y37286562D01*
X31097837Y37286558D01*
X31194784Y37256548D01*
X31284056Y37208279D01*
X31362253Y37143589D01*
X31426395Y37064943D01*
X31474040Y36975336D01*
X31503373Y36878181D01*
X31513276Y36777179D01*
X31513276Y35164405D01*
X31513225Y35157145D01*
X31501913Y35056291D01*
X31471226Y34959555D01*
X31422335Y34870622D01*
X31357101Y34792879D01*
X31278009Y34729288D01*
X31188071Y34682269D01*
X31090714Y34653616D01*
X31090684Y34653613D01*
X31090666Y34653608D01*
X30989648Y34644415D01*
X30888765Y34655018D01*
X30888752Y34655022D01*
X30888715Y34655026D01*
X30791768Y34685036D01*
X30702496Y34733305D01*
X30624299Y34797995D01*
X30560157Y34876641D01*
X30512512Y34966248D01*
X30483179Y35063403D01*
X30473276Y35164405D01*
X30473276Y36777179D01*
X30473327Y36784439D01*
X30484639Y36885293D01*
X30515326Y36982029D01*
X30564217Y37070962D01*
X30629451Y37148705D01*
X30708543Y37212296D01*
X30798481Y37259315D01*
X30895838Y37287968D01*
X30895868Y37287971D01*
X30895886Y37287976D01*
X30996904Y37297169D01*
X31097787Y37286566D01*
X31097787Y37286566D01*
G37*
G36*
X29827787Y37286566D02*
X29827800Y37286562D01*
X29827837Y37286558D01*
X29924784Y37256548D01*
X30014056Y37208279D01*
X30092253Y37143589D01*
X30156395Y37064943D01*
X30204040Y36975336D01*
X30233373Y36878181D01*
X30243276Y36777179D01*
X30243276Y35164405D01*
X30243225Y35157145D01*
X30231913Y35056291D01*
X30201226Y34959555D01*
X30152335Y34870622D01*
X30087101Y34792879D01*
X30008009Y34729288D01*
X29918071Y34682269D01*
X29820714Y34653616D01*
X29820684Y34653613D01*
X29820666Y34653608D01*
X29719648Y34644415D01*
X29618765Y34655018D01*
X29618752Y34655022D01*
X29618715Y34655026D01*
X29521768Y34685036D01*
X29432496Y34733305D01*
X29354299Y34797995D01*
X29290157Y34876641D01*
X29242512Y34966248D01*
X29213179Y35063403D01*
X29203276Y35164405D01*
X29203276Y36777179D01*
X29203327Y36784439D01*
X29214639Y36885293D01*
X29245326Y36982029D01*
X29294217Y37070962D01*
X29359451Y37148705D01*
X29438543Y37212296D01*
X29528481Y37259315D01*
X29625838Y37287968D01*
X29625868Y37287971D01*
X29625886Y37287976D01*
X29726904Y37297169D01*
X29827787Y37286566D01*
X29827787Y37286566D01*
G37*
G36*
X28557787Y37286566D02*
X28557800Y37286562D01*
X28557837Y37286558D01*
X28654784Y37256548D01*
X28744056Y37208279D01*
X28822253Y37143589D01*
X28886395Y37064943D01*
X28934040Y36975336D01*
X28963373Y36878181D01*
X28973276Y36777179D01*
X28973276Y35164405D01*
X28973225Y35157145D01*
X28961913Y35056291D01*
X28931226Y34959555D01*
X28882335Y34870622D01*
X28817101Y34792879D01*
X28738009Y34729288D01*
X28648071Y34682269D01*
X28550714Y34653616D01*
X28550684Y34653613D01*
X28550666Y34653608D01*
X28449648Y34644415D01*
X28348765Y34655018D01*
X28348752Y34655022D01*
X28348715Y34655026D01*
X28251768Y34685036D01*
X28162496Y34733305D01*
X28084299Y34797995D01*
X28020157Y34876641D01*
X27972512Y34966248D01*
X27943179Y35063403D01*
X27933276Y35164405D01*
X27933276Y36777179D01*
X27933327Y36784439D01*
X27944639Y36885293D01*
X27975326Y36982029D01*
X28024217Y37070962D01*
X28089451Y37148705D01*
X28168543Y37212296D01*
X28258481Y37259315D01*
X28355838Y37287968D01*
X28355868Y37287971D01*
X28355886Y37287976D01*
X28456904Y37297169D01*
X28557787Y37286566D01*
X28557787Y37286566D01*
G37*
G36*
X14587787Y37286566D02*
X14587800Y37286562D01*
X14587837Y37286558D01*
X14684784Y37256548D01*
X14774056Y37208279D01*
X14852253Y37143589D01*
X14916395Y37064943D01*
X14964040Y36975336D01*
X14993373Y36878181D01*
X15003276Y36777179D01*
X15003276Y35164405D01*
X15003225Y35157145D01*
X14991913Y35056291D01*
X14961226Y34959555D01*
X14912335Y34870622D01*
X14847101Y34792879D01*
X14768009Y34729288D01*
X14678071Y34682269D01*
X14580714Y34653616D01*
X14580684Y34653613D01*
X14580666Y34653608D01*
X14479648Y34644415D01*
X14378765Y34655018D01*
X14378752Y34655022D01*
X14378715Y34655026D01*
X14281768Y34685036D01*
X14192496Y34733305D01*
X14114299Y34797995D01*
X14050157Y34876641D01*
X14002512Y34966248D01*
X13973179Y35063403D01*
X13963276Y35164405D01*
X13963276Y36777179D01*
X13963327Y36784439D01*
X13974639Y36885293D01*
X14005326Y36982029D01*
X14054217Y37070962D01*
X14119451Y37148705D01*
X14198543Y37212296D01*
X14288481Y37259315D01*
X14385838Y37287968D01*
X14385868Y37287971D01*
X14385886Y37287976D01*
X14486904Y37297169D01*
X14587787Y37286566D01*
X14587787Y37286566D01*
G37*
G36*
X27287787Y37286566D02*
X27287800Y37286562D01*
X27287837Y37286558D01*
X27384784Y37256548D01*
X27474056Y37208279D01*
X27552253Y37143589D01*
X27616395Y37064943D01*
X27664040Y36975336D01*
X27693373Y36878181D01*
X27703276Y36777179D01*
X27703276Y35164405D01*
X27703225Y35157145D01*
X27691913Y35056291D01*
X27661226Y34959555D01*
X27612335Y34870622D01*
X27547101Y34792879D01*
X27468009Y34729288D01*
X27378071Y34682269D01*
X27280714Y34653616D01*
X27280684Y34653613D01*
X27280666Y34653608D01*
X27179648Y34644415D01*
X27078765Y34655018D01*
X27078752Y34655022D01*
X27078715Y34655026D01*
X26981768Y34685036D01*
X26892496Y34733305D01*
X26814299Y34797995D01*
X26750157Y34876641D01*
X26702512Y34966248D01*
X26673179Y35063403D01*
X26663276Y35164405D01*
X26663276Y36777179D01*
X26663327Y36784439D01*
X26674639Y36885293D01*
X26705326Y36982029D01*
X26754217Y37070962D01*
X26819451Y37148705D01*
X26898543Y37212296D01*
X26988481Y37259315D01*
X27085838Y37287968D01*
X27085868Y37287971D01*
X27085886Y37287976D01*
X27186904Y37297169D01*
X27287787Y37286566D01*
X27287787Y37286566D01*
G37*
G36*
X24747787Y37286566D02*
X24747800Y37286562D01*
X24747837Y37286558D01*
X24844784Y37256548D01*
X24934056Y37208279D01*
X25012253Y37143589D01*
X25076395Y37064943D01*
X25124040Y36975336D01*
X25153373Y36878181D01*
X25163276Y36777179D01*
X25163276Y35164405D01*
X25163225Y35157145D01*
X25151913Y35056291D01*
X25121226Y34959555D01*
X25072335Y34870622D01*
X25007101Y34792879D01*
X24928009Y34729288D01*
X24838071Y34682269D01*
X24740714Y34653616D01*
X24740684Y34653613D01*
X24740666Y34653608D01*
X24639648Y34644415D01*
X24538765Y34655018D01*
X24538752Y34655022D01*
X24538715Y34655026D01*
X24441768Y34685036D01*
X24352496Y34733305D01*
X24274299Y34797995D01*
X24210157Y34876641D01*
X24162512Y34966248D01*
X24133179Y35063403D01*
X24123276Y35164405D01*
X24123276Y36777179D01*
X24123327Y36784439D01*
X24134639Y36885293D01*
X24165326Y36982029D01*
X24214217Y37070962D01*
X24279451Y37148705D01*
X24358543Y37212296D01*
X24448481Y37259315D01*
X24545838Y37287968D01*
X24545868Y37287971D01*
X24545886Y37287976D01*
X24646904Y37297169D01*
X24747787Y37286566D01*
X24747787Y37286566D01*
G37*
G36*
X15857787Y37286566D02*
X15857800Y37286562D01*
X15857837Y37286558D01*
X15954784Y37256548D01*
X16044056Y37208279D01*
X16122253Y37143589D01*
X16186395Y37064943D01*
X16234040Y36975336D01*
X16263373Y36878181D01*
X16273276Y36777179D01*
X16273276Y35164405D01*
X16273225Y35157145D01*
X16261913Y35056291D01*
X16231226Y34959555D01*
X16182335Y34870622D01*
X16117101Y34792879D01*
X16038009Y34729288D01*
X15948071Y34682269D01*
X15850714Y34653616D01*
X15850684Y34653613D01*
X15850666Y34653608D01*
X15749648Y34644415D01*
X15648765Y34655018D01*
X15648752Y34655022D01*
X15648715Y34655026D01*
X15551768Y34685036D01*
X15462496Y34733305D01*
X15384299Y34797995D01*
X15320157Y34876641D01*
X15272512Y34966248D01*
X15243179Y35063403D01*
X15233276Y35164405D01*
X15233276Y36777179D01*
X15233327Y36784439D01*
X15244639Y36885293D01*
X15275326Y36982029D01*
X15324217Y37070962D01*
X15389451Y37148705D01*
X15468543Y37212296D01*
X15558481Y37259315D01*
X15655838Y37287968D01*
X15655868Y37287971D01*
X15655886Y37287976D01*
X15756904Y37297169D01*
X15857787Y37286566D01*
X15857787Y37286566D01*
G37*
G36*
X17127787Y37286566D02*
X17127800Y37286562D01*
X17127837Y37286558D01*
X17224784Y37256548D01*
X17314056Y37208279D01*
X17392253Y37143589D01*
X17456395Y37064943D01*
X17504040Y36975336D01*
X17533373Y36878181D01*
X17543276Y36777179D01*
X17543276Y35164405D01*
X17543225Y35157145D01*
X17531913Y35056291D01*
X17501226Y34959555D01*
X17452335Y34870622D01*
X17387101Y34792879D01*
X17308009Y34729288D01*
X17218071Y34682269D01*
X17120714Y34653616D01*
X17120684Y34653613D01*
X17120666Y34653608D01*
X17019648Y34644415D01*
X16918765Y34655018D01*
X16918752Y34655022D01*
X16918715Y34655026D01*
X16821768Y34685036D01*
X16732496Y34733305D01*
X16654299Y34797995D01*
X16590157Y34876641D01*
X16542512Y34966248D01*
X16513179Y35063403D01*
X16503276Y35164405D01*
X16503276Y36777179D01*
X16503327Y36784439D01*
X16514639Y36885293D01*
X16545326Y36982029D01*
X16594217Y37070962D01*
X16659451Y37148705D01*
X16738543Y37212296D01*
X16828481Y37259315D01*
X16925838Y37287968D01*
X16925868Y37287971D01*
X16925886Y37287976D01*
X17026904Y37297169D01*
X17127787Y37286566D01*
X17127787Y37286566D01*
G37*
G36*
X18397787Y37286566D02*
X18397800Y37286562D01*
X18397837Y37286558D01*
X18494784Y37256548D01*
X18584056Y37208279D01*
X18662253Y37143589D01*
X18726395Y37064943D01*
X18774040Y36975336D01*
X18803373Y36878181D01*
X18813276Y36777179D01*
X18813276Y35164405D01*
X18813225Y35157145D01*
X18801913Y35056291D01*
X18771226Y34959555D01*
X18722335Y34870622D01*
X18657101Y34792879D01*
X18578009Y34729288D01*
X18488071Y34682269D01*
X18390714Y34653616D01*
X18390684Y34653613D01*
X18390666Y34653608D01*
X18289648Y34644415D01*
X18188765Y34655018D01*
X18188752Y34655022D01*
X18188715Y34655026D01*
X18091768Y34685036D01*
X18002496Y34733305D01*
X17924299Y34797995D01*
X17860157Y34876641D01*
X17812512Y34966248D01*
X17783179Y35063403D01*
X17773276Y35164405D01*
X17773276Y36777179D01*
X17773327Y36784439D01*
X17784639Y36885293D01*
X17815326Y36982029D01*
X17864217Y37070962D01*
X17929451Y37148705D01*
X18008543Y37212296D01*
X18098481Y37259315D01*
X18195838Y37287968D01*
X18195868Y37287971D01*
X18195886Y37287976D01*
X18296904Y37297169D01*
X18397787Y37286566D01*
X18397787Y37286566D01*
G37*
G36*
X20937787Y37286566D02*
X20937800Y37286562D01*
X20937837Y37286558D01*
X21034784Y37256548D01*
X21124056Y37208279D01*
X21202253Y37143589D01*
X21266395Y37064943D01*
X21314040Y36975336D01*
X21343373Y36878181D01*
X21353276Y36777179D01*
X21353276Y35164405D01*
X21353225Y35157145D01*
X21341913Y35056291D01*
X21311226Y34959555D01*
X21262335Y34870622D01*
X21197101Y34792879D01*
X21118009Y34729288D01*
X21028071Y34682269D01*
X20930714Y34653616D01*
X20930684Y34653613D01*
X20930666Y34653608D01*
X20829648Y34644415D01*
X20728765Y34655018D01*
X20728752Y34655022D01*
X20728715Y34655026D01*
X20631768Y34685036D01*
X20542496Y34733305D01*
X20464299Y34797995D01*
X20400157Y34876641D01*
X20352512Y34966248D01*
X20323179Y35063403D01*
X20313276Y35164405D01*
X20313276Y36777179D01*
X20313327Y36784439D01*
X20324639Y36885293D01*
X20355326Y36982029D01*
X20404217Y37070962D01*
X20469451Y37148705D01*
X20548543Y37212296D01*
X20638481Y37259315D01*
X20735838Y37287968D01*
X20735868Y37287971D01*
X20735886Y37287976D01*
X20836904Y37297169D01*
X20937787Y37286566D01*
X20937787Y37286566D01*
G37*
G36*
X19667787Y37286566D02*
X19667800Y37286562D01*
X19667837Y37286558D01*
X19764784Y37256548D01*
X19854056Y37208279D01*
X19932253Y37143589D01*
X19996395Y37064943D01*
X20044040Y36975336D01*
X20073373Y36878181D01*
X20083276Y36777179D01*
X20083276Y35164405D01*
X20083225Y35157145D01*
X20071913Y35056291D01*
X20041226Y34959555D01*
X19992335Y34870622D01*
X19927101Y34792879D01*
X19848009Y34729288D01*
X19758071Y34682269D01*
X19660714Y34653616D01*
X19660684Y34653613D01*
X19660666Y34653608D01*
X19559648Y34644415D01*
X19458765Y34655018D01*
X19458752Y34655022D01*
X19458715Y34655026D01*
X19361768Y34685036D01*
X19272496Y34733305D01*
X19194299Y34797995D01*
X19130157Y34876641D01*
X19082512Y34966248D01*
X19053179Y35063403D01*
X19043276Y35164405D01*
X19043276Y36777179D01*
X19043327Y36784439D01*
X19054639Y36885293D01*
X19085326Y36982029D01*
X19134217Y37070962D01*
X19199451Y37148705D01*
X19278543Y37212296D01*
X19368481Y37259315D01*
X19465838Y37287968D01*
X19465868Y37287971D01*
X19465886Y37287976D01*
X19566904Y37297169D01*
X19667787Y37286566D01*
X19667787Y37286566D01*
G37*
G36*
X23477787Y37286566D02*
X23477800Y37286562D01*
X23477837Y37286558D01*
X23574784Y37256548D01*
X23664056Y37208279D01*
X23742253Y37143589D01*
X23806395Y37064943D01*
X23854040Y36975336D01*
X23883373Y36878181D01*
X23893276Y36777179D01*
X23893276Y35164405D01*
X23893225Y35157145D01*
X23881913Y35056291D01*
X23851226Y34959555D01*
X23802335Y34870622D01*
X23737101Y34792879D01*
X23658009Y34729288D01*
X23568071Y34682269D01*
X23470714Y34653616D01*
X23470684Y34653613D01*
X23470666Y34653608D01*
X23369648Y34644415D01*
X23268765Y34655018D01*
X23268752Y34655022D01*
X23268715Y34655026D01*
X23171768Y34685036D01*
X23082496Y34733305D01*
X23004299Y34797995D01*
X22940157Y34876641D01*
X22892512Y34966248D01*
X22863179Y35063403D01*
X22853276Y35164405D01*
X22853276Y36777179D01*
X22853327Y36784439D01*
X22864639Y36885293D01*
X22895326Y36982029D01*
X22944217Y37070962D01*
X23009451Y37148705D01*
X23088543Y37212296D01*
X23178481Y37259315D01*
X23275838Y37287968D01*
X23275868Y37287971D01*
X23275886Y37287976D01*
X23376904Y37297169D01*
X23477787Y37286566D01*
X23477787Y37286566D01*
G37*
G36*
X22207787Y37286566D02*
X22207800Y37286562D01*
X22207837Y37286558D01*
X22304784Y37256548D01*
X22394056Y37208279D01*
X22472253Y37143589D01*
X22536395Y37064943D01*
X22584040Y36975336D01*
X22613373Y36878181D01*
X22623276Y36777179D01*
X22623276Y35164405D01*
X22623225Y35157145D01*
X22611913Y35056291D01*
X22581226Y34959555D01*
X22532335Y34870622D01*
X22467101Y34792879D01*
X22388009Y34729288D01*
X22298071Y34682269D01*
X22200714Y34653616D01*
X22200684Y34653613D01*
X22200666Y34653608D01*
X22099648Y34644415D01*
X21998765Y34655018D01*
X21998752Y34655022D01*
X21998715Y34655026D01*
X21901768Y34685036D01*
X21812496Y34733305D01*
X21734299Y34797995D01*
X21670157Y34876641D01*
X21622512Y34966248D01*
X21593179Y35063403D01*
X21583276Y35164405D01*
X21583276Y36777179D01*
X21583327Y36784439D01*
X21594639Y36885293D01*
X21625326Y36982029D01*
X21674217Y37070962D01*
X21739451Y37148705D01*
X21818543Y37212296D01*
X21908481Y37259315D01*
X22005838Y37287968D01*
X22005868Y37287971D01*
X22005886Y37287976D01*
X22106904Y37297169D01*
X22207787Y37286566D01*
X22207787Y37286566D01*
G37*
G36*
X25377388Y39191448D02*
X25537222Y39158639D01*
X25687634Y39095411D01*
X25822906Y39004169D01*
X25937875Y38888395D01*
X26028170Y38752491D01*
X26090346Y38601641D01*
X26121970Y38441926D01*
X26121970Y38441916D01*
X26122036Y38441582D01*
X26119434Y38255218D01*
X26119358Y38254884D01*
X26119358Y38254873D01*
X26083287Y38096109D01*
X26016923Y37947051D01*
X25922870Y37813723D01*
X25804707Y37701198D01*
X25666947Y37613774D01*
X25514824Y37554768D01*
X25354142Y37526436D01*
X25191013Y37529852D01*
X25031649Y37564891D01*
X24882136Y37630212D01*
X24748154Y37723332D01*
X24634809Y37840705D01*
X24546424Y37977851D01*
X24486359Y38129557D01*
X24456903Y38290046D01*
X24459182Y38453192D01*
X24493105Y38612788D01*
X24557383Y38762760D01*
X24649565Y38897388D01*
X24766143Y39011550D01*
X24902672Y39100892D01*
X25053955Y39162014D01*
X25214225Y39192587D01*
X25377388Y39191448D01*
X25377388Y39191448D01*
G37*
G36*
X27917388Y39191448D02*
X28077222Y39158639D01*
X28227634Y39095411D01*
X28362906Y39004169D01*
X28477875Y38888395D01*
X28568170Y38752491D01*
X28630346Y38601641D01*
X28661970Y38441926D01*
X28661970Y38441916D01*
X28662036Y38441582D01*
X28659434Y38255218D01*
X28659358Y38254884D01*
X28659358Y38254873D01*
X28623287Y38096109D01*
X28556923Y37947051D01*
X28462870Y37813723D01*
X28344707Y37701198D01*
X28206947Y37613774D01*
X28054824Y37554768D01*
X27894142Y37526436D01*
X27731013Y37529852D01*
X27571649Y37564891D01*
X27422136Y37630212D01*
X27288154Y37723332D01*
X27174809Y37840705D01*
X27086424Y37977851D01*
X27026359Y38129557D01*
X26996903Y38290046D01*
X26999182Y38453192D01*
X27033105Y38612788D01*
X27097383Y38762760D01*
X27189565Y38897388D01*
X27306143Y39011550D01*
X27442672Y39100892D01*
X27593955Y39162014D01*
X27754225Y39192587D01*
X27917388Y39191448D01*
X27917388Y39191448D01*
G37*
G36*
X22837388Y39191448D02*
X22997222Y39158639D01*
X23147634Y39095411D01*
X23282906Y39004169D01*
X23397875Y38888395D01*
X23488170Y38752491D01*
X23550346Y38601641D01*
X23581970Y38441926D01*
X23581970Y38441916D01*
X23582036Y38441582D01*
X23579434Y38255218D01*
X23579358Y38254884D01*
X23579358Y38254873D01*
X23543287Y38096109D01*
X23476923Y37947051D01*
X23382870Y37813723D01*
X23264707Y37701198D01*
X23126947Y37613774D01*
X22974824Y37554768D01*
X22814142Y37526436D01*
X22651013Y37529852D01*
X22491649Y37564891D01*
X22342136Y37630212D01*
X22208154Y37723332D01*
X22094809Y37840705D01*
X22006424Y37977851D01*
X21946359Y38129557D01*
X21916903Y38290046D01*
X21919182Y38453192D01*
X21953105Y38612788D01*
X22017383Y38762760D01*
X22109565Y38897388D01*
X22226143Y39011550D01*
X22362672Y39100892D01*
X22513955Y39162014D01*
X22674225Y39192587D01*
X22837388Y39191448D01*
X22837388Y39191448D01*
G37*
G36*
X30457388Y39191448D02*
X30617222Y39158639D01*
X30767634Y39095411D01*
X30902906Y39004169D01*
X31017875Y38888395D01*
X31108170Y38752491D01*
X31170346Y38601641D01*
X31201970Y38441926D01*
X31201970Y38441916D01*
X31202036Y38441582D01*
X31199434Y38255218D01*
X31199358Y38254884D01*
X31199358Y38254873D01*
X31163287Y38096109D01*
X31096923Y37947051D01*
X31002870Y37813723D01*
X30884707Y37701198D01*
X30746947Y37613774D01*
X30594824Y37554768D01*
X30434142Y37526436D01*
X30271013Y37529852D01*
X30111649Y37564891D01*
X29962136Y37630212D01*
X29828154Y37723332D01*
X29714809Y37840705D01*
X29626424Y37977851D01*
X29566359Y38129557D01*
X29536903Y38290046D01*
X29539182Y38453192D01*
X29573105Y38612788D01*
X29637383Y38762760D01*
X29729565Y38897388D01*
X29846143Y39011550D01*
X29982672Y39100892D01*
X30133955Y39162014D01*
X30294225Y39192587D01*
X30457388Y39191448D01*
X30457388Y39191448D01*
G37*
G36*
X32997388Y39191448D02*
X33157222Y39158639D01*
X33307634Y39095411D01*
X33442906Y39004169D01*
X33557875Y38888395D01*
X33648170Y38752491D01*
X33710346Y38601641D01*
X33741970Y38441926D01*
X33741970Y38441916D01*
X33742036Y38441582D01*
X33739434Y38255218D01*
X33739358Y38254884D01*
X33739358Y38254873D01*
X33703287Y38096109D01*
X33636923Y37947051D01*
X33542870Y37813723D01*
X33424707Y37701198D01*
X33286947Y37613774D01*
X33134824Y37554768D01*
X32974142Y37526436D01*
X32811013Y37529852D01*
X32651649Y37564891D01*
X32502136Y37630212D01*
X32368154Y37723332D01*
X32254809Y37840705D01*
X32166424Y37977851D01*
X32106359Y38129557D01*
X32076903Y38290046D01*
X32079182Y38453192D01*
X32113105Y38612788D01*
X32177383Y38762760D01*
X32269565Y38897388D01*
X32386143Y39011550D01*
X32522672Y39100892D01*
X32673955Y39162014D01*
X32834225Y39192587D01*
X32997388Y39191448D01*
X32997388Y39191448D01*
G37*
G36*
X35537388Y39191448D02*
X35697222Y39158639D01*
X35847634Y39095411D01*
X35982906Y39004169D01*
X36097875Y38888395D01*
X36188170Y38752491D01*
X36250346Y38601641D01*
X36281970Y38441926D01*
X36281970Y38441916D01*
X36282036Y38441582D01*
X36279434Y38255218D01*
X36279358Y38254884D01*
X36279358Y38254873D01*
X36243287Y38096109D01*
X36176923Y37947051D01*
X36082870Y37813723D01*
X35964707Y37701198D01*
X35826947Y37613774D01*
X35674824Y37554768D01*
X35514142Y37526436D01*
X35351013Y37529852D01*
X35191649Y37564891D01*
X35042136Y37630212D01*
X34908154Y37723332D01*
X34794809Y37840705D01*
X34706424Y37977851D01*
X34646359Y38129557D01*
X34616903Y38290046D01*
X34619182Y38453192D01*
X34653105Y38612788D01*
X34717383Y38762760D01*
X34809565Y38897388D01*
X34926143Y39011550D01*
X35062672Y39100892D01*
X35213955Y39162014D01*
X35374225Y39192587D01*
X35537388Y39191448D01*
X35537388Y39191448D01*
G37*
G36*
X38077388Y39191448D02*
X38237222Y39158639D01*
X38387634Y39095411D01*
X38522906Y39004169D01*
X38637875Y38888395D01*
X38728170Y38752491D01*
X38790346Y38601641D01*
X38821970Y38441926D01*
X38821970Y38441916D01*
X38822036Y38441582D01*
X38819434Y38255218D01*
X38819358Y38254884D01*
X38819358Y38254873D01*
X38783287Y38096109D01*
X38716923Y37947051D01*
X38622870Y37813723D01*
X38504707Y37701198D01*
X38366947Y37613774D01*
X38214824Y37554768D01*
X38054142Y37526436D01*
X37891013Y37529852D01*
X37731649Y37564891D01*
X37582136Y37630212D01*
X37448154Y37723332D01*
X37334809Y37840705D01*
X37246424Y37977851D01*
X37186359Y38129557D01*
X37156903Y38290046D01*
X37159182Y38453192D01*
X37193105Y38612788D01*
X37257383Y38762760D01*
X37349565Y38897388D01*
X37466143Y39011550D01*
X37602672Y39100892D01*
X37753955Y39162014D01*
X37914225Y39192587D01*
X38077388Y39191448D01*
X38077388Y39191448D01*
G37*
G36*
X21042000Y37528000D02*
X19378000Y37528000D01*
X19378000Y39192000D01*
X21042000Y39192000D01*
X21042000Y37528000D01*
X21042000Y37528000D01*
G37*
G36*
X42425407Y44418889D02*
X42746224Y44353035D01*
X43048135Y44226123D01*
X43319649Y44042985D01*
X43550422Y43810595D01*
X43731661Y43537809D01*
X43856459Y43235023D01*
X43920005Y42914096D01*
X43920005Y42914086D01*
X43920071Y42913752D01*
X43914848Y42539681D01*
X43914772Y42539347D01*
X43914772Y42539336D01*
X43842292Y42220316D01*
X43709084Y41921125D01*
X43520301Y41653508D01*
X43283127Y41427651D01*
X43006611Y41252168D01*
X42701269Y41133733D01*
X42378743Y41076864D01*
X42051311Y41083722D01*
X41731442Y41154050D01*
X41431330Y41285166D01*
X41162402Y41472076D01*
X40934896Y41707665D01*
X40757487Y41982950D01*
X40636924Y42287456D01*
X40577802Y42609585D01*
X40582376Y42937055D01*
X40650467Y43257400D01*
X40779486Y43558422D01*
X40964515Y43828650D01*
X41198509Y44057795D01*
X41472551Y44237123D01*
X41776208Y44359808D01*
X42097908Y44421176D01*
X42425407Y44418889D01*
X42425407Y44418889D01*
G37*
G36*
X14425407Y44418889D02*
X14746224Y44353035D01*
X15048135Y44226123D01*
X15319649Y44042985D01*
X15550422Y43810595D01*
X15731661Y43537809D01*
X15856459Y43235023D01*
X15920005Y42914096D01*
X15920005Y42914086D01*
X15920071Y42913752D01*
X15914848Y42539681D01*
X15914772Y42539347D01*
X15914772Y42539336D01*
X15842292Y42220316D01*
X15709084Y41921125D01*
X15520301Y41653508D01*
X15283127Y41427651D01*
X15006611Y41252168D01*
X14701269Y41133733D01*
X14378743Y41076864D01*
X14051311Y41083722D01*
X13731442Y41154050D01*
X13431330Y41285166D01*
X13162402Y41472076D01*
X12934896Y41707665D01*
X12757487Y41982950D01*
X12636924Y42287456D01*
X12577802Y42609585D01*
X12582376Y42937055D01*
X12650467Y43257400D01*
X12779486Y43558422D01*
X12964515Y43828650D01*
X13198509Y44057795D01*
X13472551Y44237123D01*
X13776208Y44359808D01*
X14097908Y44421176D01*
X14425407Y44418889D01*
X14425407Y44418889D01*
G37*
G36*
X28770000Y42130000D02*
X27930000Y42130000D01*
X27930000Y43870000D01*
X28770000Y43870000D01*
X28770000Y42130000D01*
X28770000Y42130000D01*
G37*
G36*
X29870000Y42130000D02*
X29030000Y42130000D01*
X29030000Y43870000D01*
X29870000Y43870000D01*
X29870000Y42130000D01*
X29870000Y42130000D01*
G37*
G36*
X32070000Y42130000D02*
X31230000Y42130000D01*
X31230000Y43870000D01*
X32070000Y43870000D01*
X32070000Y42130000D01*
X32070000Y42130000D01*
G37*
G36*
X30970000Y42130000D02*
X30130000Y42130000D01*
X30130000Y43870000D01*
X30970000Y43870000D01*
X30970000Y42130000D01*
X30970000Y42130000D01*
G37*
G36*
X34270000Y42130000D02*
X33430000Y42130000D01*
X33430000Y43870000D01*
X34270000Y43870000D01*
X34270000Y42130000D01*
X34270000Y42130000D01*
G37*
G36*
X35370000Y42130000D02*
X34530000Y42130000D01*
X34530000Y43870000D01*
X35370000Y43870000D01*
X35370000Y42130000D01*
X35370000Y42130000D01*
G37*
G36*
X36470000Y42130000D02*
X35630000Y42130000D01*
X35630000Y43870000D01*
X36470000Y43870000D01*
X36470000Y42130000D01*
X36470000Y42130000D01*
G37*
G36*
X27670000Y42130000D02*
X26830000Y42130000D01*
X26830000Y43870000D01*
X27670000Y43870000D01*
X27670000Y42130000D01*
X27670000Y42130000D01*
G37*
G36*
X1760609Y43969957D02*
X1767296Y43969910D01*
X1945730Y43949896D01*
X2116878Y43895605D01*
X2274221Y43809104D01*
X2411766Y43693690D01*
X2524274Y43553758D01*
X2607460Y43394638D01*
X2658155Y43222391D01*
X2658158Y43222361D01*
X2658163Y43222343D01*
X2674431Y43043579D01*
X2655668Y42865058D01*
X2655664Y42865045D01*
X2655660Y42865008D01*
X2602565Y42693486D01*
X2517166Y42535543D01*
X2402714Y42397195D01*
X2263571Y42283712D01*
X2105036Y42199418D01*
X1933147Y42147521D01*
X1754451Y42130000D01*
X1745515Y42130000D01*
X1739391Y42130043D01*
X1732704Y42130090D01*
X1554270Y42150104D01*
X1383122Y42204395D01*
X1225779Y42290896D01*
X1088234Y42406310D01*
X975726Y42546242D01*
X892540Y42705362D01*
X841845Y42877609D01*
X841842Y42877639D01*
X841837Y42877657D01*
X825569Y43056421D01*
X844332Y43234942D01*
X844336Y43234955D01*
X844340Y43234992D01*
X897435Y43406514D01*
X982834Y43564457D01*
X1097286Y43702805D01*
X1236429Y43816288D01*
X1394964Y43900582D01*
X1566853Y43952479D01*
X1745549Y43970000D01*
X1754485Y43970000D01*
X1760609Y43969957D01*
X1760609Y43969957D01*
G37*
G36*
X33170000Y42130000D02*
X32330000Y42130000D01*
X32330000Y43870000D01*
X33170000Y43870000D01*
X33170000Y42130000D01*
X33170000Y42130000D01*
G37*
G36*
X23520000Y42730000D02*
X21780000Y42730000D01*
X21780000Y44270000D01*
X23520000Y44270000D01*
X23520000Y42730000D01*
X23520000Y42730000D01*
G37*
G36*
X37920000Y42730000D02*
X36580000Y42730000D01*
X36580000Y44270000D01*
X37920000Y44270000D01*
X37920000Y42730000D01*
X37920000Y42730000D01*
G37*
G36*
X56120000Y43430000D02*
X51980000Y43430000D01*
X51980000Y46070000D01*
X56120000Y46070000D01*
X56120000Y43430000D01*
X56120000Y43430000D01*
G37*
G36*
X50020000Y43430000D02*
X45880000Y43430000D01*
X45880000Y46070000D01*
X50020000Y46070000D01*
X50020000Y43430000D01*
X50020000Y43430000D01*
G37*
G36*
X5720000Y43480000D02*
X4580000Y43480000D01*
X4580000Y44520000D01*
X5720000Y44520000D01*
X5720000Y43480000D01*
X5720000Y43480000D01*
G37*
G36*
X9820000Y43480000D02*
X8680000Y43480000D01*
X8680000Y44520000D01*
X9820000Y44520000D01*
X9820000Y43480000D01*
X9820000Y43480000D01*
G37*
G36*
X1760609Y46509957D02*
X1767296Y46509910D01*
X1945730Y46489896D01*
X2116878Y46435605D01*
X2274221Y46349104D01*
X2411766Y46233690D01*
X2524274Y46093758D01*
X2607460Y45934638D01*
X2658155Y45762391D01*
X2658158Y45762361D01*
X2658163Y45762343D01*
X2674431Y45583579D01*
X2655668Y45405058D01*
X2655664Y45405045D01*
X2655660Y45405008D01*
X2602565Y45233486D01*
X2517166Y45075543D01*
X2402714Y44937195D01*
X2263571Y44823712D01*
X2105036Y44739418D01*
X1933147Y44687521D01*
X1754451Y44670000D01*
X1745515Y44670000D01*
X1739391Y44670043D01*
X1732704Y44670090D01*
X1554270Y44690104D01*
X1383122Y44744395D01*
X1225779Y44830896D01*
X1088234Y44946310D01*
X975726Y45086242D01*
X892540Y45245362D01*
X841845Y45417609D01*
X841842Y45417639D01*
X841837Y45417657D01*
X825569Y45596421D01*
X844332Y45774942D01*
X844336Y45774955D01*
X844340Y45774992D01*
X897435Y45946514D01*
X982834Y46104457D01*
X1097286Y46242805D01*
X1236429Y46356288D01*
X1394964Y46440582D01*
X1566853Y46492479D01*
X1745549Y46510000D01*
X1754485Y46510000D01*
X1760609Y46509957D01*
X1760609Y46509957D01*
G37*
G36*
X5720000Y45080000D02*
X4580000Y45080000D01*
X4580000Y46120000D01*
X5720000Y46120000D01*
X5720000Y45080000D01*
X5720000Y45080000D01*
G37*
G36*
X9820000Y45080000D02*
X8680000Y45080000D01*
X8680000Y46120000D01*
X9820000Y46120000D01*
X9820000Y45080000D01*
X9820000Y45080000D01*
G37*
G36*
X1760609Y49049957D02*
X1767296Y49049910D01*
X1945730Y49029896D01*
X2116878Y48975605D01*
X2274221Y48889104D01*
X2411766Y48773690D01*
X2524274Y48633758D01*
X2607460Y48474638D01*
X2658155Y48302391D01*
X2658158Y48302361D01*
X2658163Y48302343D01*
X2674431Y48123579D01*
X2655668Y47945058D01*
X2655664Y47945045D01*
X2655660Y47945008D01*
X2602565Y47773486D01*
X2517166Y47615543D01*
X2402714Y47477195D01*
X2263571Y47363712D01*
X2105036Y47279418D01*
X1933147Y47227521D01*
X1754451Y47210000D01*
X1745515Y47210000D01*
X1739391Y47210043D01*
X1732704Y47210090D01*
X1554270Y47230104D01*
X1383122Y47284395D01*
X1225779Y47370896D01*
X1088234Y47486310D01*
X975726Y47626242D01*
X892540Y47785362D01*
X841845Y47957609D01*
X841842Y47957639D01*
X841837Y47957657D01*
X825569Y48136421D01*
X844332Y48314942D01*
X844336Y48314955D01*
X844340Y48314992D01*
X897435Y48486514D01*
X982834Y48644457D01*
X1097286Y48782805D01*
X1236429Y48896288D01*
X1394964Y48980582D01*
X1566853Y49032479D01*
X1745549Y49050000D01*
X1754485Y49050000D01*
X1760609Y49049957D01*
X1760609Y49049957D01*
G37*
G36*
X40839257Y49194372D02*
X41020798Y49157107D01*
X41191639Y49085292D01*
X41345280Y48981660D01*
X41475868Y48850157D01*
X41578425Y48695797D01*
X41649045Y48524459D01*
X41684974Y48343006D01*
X41684974Y48342996D01*
X41685040Y48342662D01*
X41682084Y48130987D01*
X41682008Y48130653D01*
X41682008Y48130641D01*
X41641030Y47950270D01*
X41565650Y47780966D01*
X41458824Y47629530D01*
X41324613Y47501723D01*
X41168143Y47402424D01*
X40995359Y47335405D01*
X40812853Y47303225D01*
X40627569Y47307105D01*
X40446563Y47346902D01*
X40276740Y47421096D01*
X40124563Y47526862D01*
X39995823Y47660176D01*
X39895434Y47815949D01*
X39827211Y47988260D01*
X39793756Y48170545D01*
X39796344Y48355849D01*
X39834874Y48537121D01*
X39907882Y48707461D01*
X40012584Y48860374D01*
X40144995Y48990041D01*
X40300066Y49091517D01*
X40471896Y49160941D01*
X40653934Y49195666D01*
X40839257Y49194372D01*
X40839257Y49194372D01*
G37*
G36*
X45339257Y49194372D02*
X45520798Y49157107D01*
X45691639Y49085292D01*
X45845280Y48981660D01*
X45975868Y48850157D01*
X46078425Y48695797D01*
X46149045Y48524459D01*
X46184974Y48343006D01*
X46184974Y48342996D01*
X46185040Y48342662D01*
X46182084Y48130987D01*
X46182008Y48130653D01*
X46182008Y48130641D01*
X46141030Y47950270D01*
X46065650Y47780966D01*
X45958824Y47629530D01*
X45824613Y47501723D01*
X45668143Y47402424D01*
X45495359Y47335405D01*
X45312853Y47303225D01*
X45127569Y47307105D01*
X44946563Y47346902D01*
X44776740Y47421096D01*
X44624563Y47526862D01*
X44495823Y47660176D01*
X44395434Y47815949D01*
X44327211Y47988260D01*
X44293756Y48170545D01*
X44296344Y48355849D01*
X44334874Y48537121D01*
X44407882Y48707461D01*
X44512584Y48860374D01*
X44644995Y48990041D01*
X44800066Y49091517D01*
X44971896Y49160941D01*
X45153934Y49195666D01*
X45339257Y49194372D01*
X45339257Y49194372D01*
G37*
G36*
X6575376Y49274925D02*
X6683974Y49252633D01*
X6786174Y49209672D01*
X6878081Y49147681D01*
X6956196Y49069018D01*
X7017548Y48976675D01*
X7059793Y48874182D01*
X7081258Y48765775D01*
X7081258Y48765765D01*
X7081324Y48765431D01*
X7079556Y48638806D01*
X7079480Y48638472D01*
X7079480Y48638461D01*
X7054997Y48530700D01*
X7009906Y48429423D01*
X6946003Y48338834D01*
X6865715Y48262378D01*
X6772116Y48202979D01*
X6668756Y48162888D01*
X6559581Y48143637D01*
X6448745Y48145958D01*
X6340463Y48169766D01*
X6238882Y48214145D01*
X6147841Y48277420D01*
X6070831Y48357167D01*
X6010779Y48450349D01*
X5969968Y48553426D01*
X5949954Y48662471D01*
X5951503Y48773320D01*
X5974551Y48881755D01*
X6018226Y48983654D01*
X6080858Y49075127D01*
X6160067Y49152694D01*
X6252829Y49213396D01*
X6355622Y49254927D01*
X6464514Y49275699D01*
X6575376Y49274925D01*
X6575376Y49274925D01*
G37*
G36*
X4543376Y49274925D02*
X4651974Y49252633D01*
X4754174Y49209672D01*
X4846081Y49147681D01*
X4924196Y49069018D01*
X4985548Y48976675D01*
X5027793Y48874182D01*
X5049258Y48765775D01*
X5049258Y48765765D01*
X5049324Y48765431D01*
X5047556Y48638806D01*
X5047480Y48638472D01*
X5047480Y48638461D01*
X5022997Y48530700D01*
X4977906Y48429423D01*
X4914003Y48338834D01*
X4833715Y48262378D01*
X4740116Y48202979D01*
X4636756Y48162888D01*
X4527581Y48143637D01*
X4416745Y48145958D01*
X4308463Y48169766D01*
X4206882Y48214145D01*
X4115841Y48277420D01*
X4038831Y48357167D01*
X3978779Y48450349D01*
X3937968Y48553426D01*
X3917954Y48662471D01*
X3919503Y48773320D01*
X3942551Y48881755D01*
X3986226Y48983654D01*
X4048858Y49075127D01*
X4128067Y49152694D01*
X4220829Y49213396D01*
X4323622Y49254927D01*
X4432514Y49275699D01*
X4543376Y49274925D01*
X4543376Y49274925D01*
G37*
G36*
X11170000Y48500000D02*
X10330000Y48500000D01*
X10330000Y50140000D01*
X11170000Y50140000D01*
X11170000Y48500000D01*
X11170000Y48500000D01*
G37*
G36*
X17170000Y48500000D02*
X16330000Y48500000D01*
X16330000Y50140000D01*
X17170000Y50140000D01*
X17170000Y48500000D01*
X17170000Y48500000D01*
G37*
G36*
X12670000Y48500000D02*
X11830000Y48500000D01*
X11830000Y50140000D01*
X12670000Y50140000D01*
X12670000Y48500000D01*
X12670000Y48500000D01*
G37*
G36*
X15670000Y48500000D02*
X14830000Y48500000D01*
X14830000Y50140000D01*
X15670000Y50140000D01*
X15670000Y48500000D01*
X15670000Y48500000D01*
G37*
G36*
X9170000Y49500000D02*
X8030000Y49500000D01*
X8030000Y50440000D01*
X9170000Y50440000D01*
X9170000Y49500000D01*
X9170000Y49500000D01*
G37*
G36*
X19470000Y49500000D02*
X18330000Y49500000D01*
X18330000Y50440000D01*
X19470000Y50440000D01*
X19470000Y49500000D01*
X19470000Y49500000D01*
G37*
G36*
X6183704Y50443393D02*
X6272785Y50425107D01*
X6356614Y50389869D01*
X6432007Y50339016D01*
X6496081Y50274493D01*
X6546407Y50198748D01*
X6581059Y50114674D01*
X6598654Y50025813D01*
X6598654Y50025802D01*
X6598720Y50025468D01*
X6597270Y49921602D01*
X6597194Y49921268D01*
X6597194Y49921260D01*
X6577125Y49832921D01*
X6540138Y49749851D01*
X6487720Y49675542D01*
X6421862Y49612827D01*
X6345086Y49564104D01*
X6260302Y49531218D01*
X6170748Y49515427D01*
X6079833Y49517331D01*
X5991013Y49536860D01*
X5907683Y49573266D01*
X5833012Y49625164D01*
X5769839Y49690581D01*
X5720581Y49767014D01*
X5687104Y49851566D01*
X5670688Y49941014D01*
X5671958Y50031941D01*
X5690863Y50120885D01*
X5726688Y50204469D01*
X5778067Y50279506D01*
X5843038Y50343131D01*
X5919129Y50392924D01*
X6003444Y50426989D01*
X6092767Y50444029D01*
X6183704Y50443393D01*
X6183704Y50443393D01*
G37*
G36*
X4913704Y50443393D02*
X5002785Y50425107D01*
X5086614Y50389869D01*
X5162007Y50339016D01*
X5226081Y50274493D01*
X5276407Y50198748D01*
X5311059Y50114674D01*
X5328654Y50025813D01*
X5328654Y50025802D01*
X5328720Y50025468D01*
X5327270Y49921602D01*
X5327194Y49921268D01*
X5327194Y49921260D01*
X5307125Y49832921D01*
X5270138Y49749851D01*
X5217720Y49675542D01*
X5151862Y49612827D01*
X5075086Y49564104D01*
X4990302Y49531218D01*
X4900748Y49515427D01*
X4809833Y49517331D01*
X4721013Y49536860D01*
X4637683Y49573266D01*
X4563012Y49625164D01*
X4499839Y49690581D01*
X4450581Y49767014D01*
X4417104Y49851566D01*
X4400688Y49941014D01*
X4401958Y50031941D01*
X4420863Y50120885D01*
X4456688Y50204469D01*
X4508067Y50279506D01*
X4573038Y50343131D01*
X4649129Y50392924D01*
X4733444Y50426989D01*
X4822767Y50444029D01*
X4913704Y50443393D01*
X4913704Y50443393D01*
G37*
G36*
X1760609Y51589957D02*
X1767296Y51589910D01*
X1945730Y51569896D01*
X2116878Y51515605D01*
X2274221Y51429104D01*
X2411766Y51313690D01*
X2524274Y51173758D01*
X2607460Y51014638D01*
X2658155Y50842391D01*
X2658158Y50842361D01*
X2658163Y50842343D01*
X2674431Y50663579D01*
X2655668Y50485058D01*
X2655664Y50485045D01*
X2655660Y50485008D01*
X2602565Y50313486D01*
X2517166Y50155543D01*
X2402714Y50017195D01*
X2263571Y49903712D01*
X2105036Y49819418D01*
X1933147Y49767521D01*
X1754451Y49750000D01*
X1745515Y49750000D01*
X1739391Y49750043D01*
X1732704Y49750090D01*
X1554270Y49770104D01*
X1383122Y49824395D01*
X1225779Y49910896D01*
X1088234Y50026310D01*
X975726Y50166242D01*
X892540Y50325362D01*
X841845Y50497609D01*
X841842Y50497639D01*
X841837Y50497657D01*
X825569Y50676421D01*
X844332Y50854942D01*
X844336Y50854955D01*
X844340Y50854992D01*
X897435Y51026514D01*
X982834Y51184457D01*
X1097286Y51322805D01*
X1236429Y51436288D01*
X1394964Y51520582D01*
X1566853Y51572479D01*
X1745549Y51590000D01*
X1754485Y51590000D01*
X1760609Y51589957D01*
X1760609Y51589957D01*
G37*
G36*
X16304618Y51599655D02*
X16404516Y51579149D01*
X16498520Y51539634D01*
X16583065Y51482608D01*
X16654926Y51410243D01*
X16711356Y51325308D01*
X16750215Y51231028D01*
X16769956Y51131332D01*
X16769956Y51131323D01*
X16770022Y51130989D01*
X16768396Y51014511D01*
X16768320Y51014177D01*
X16768320Y51014166D01*
X16745805Y50915068D01*
X16704326Y50821905D01*
X16645547Y50738579D01*
X16571693Y50668250D01*
X16485591Y50613607D01*
X16390515Y50576729D01*
X16290089Y50559022D01*
X16188134Y50561157D01*
X16088529Y50583057D01*
X15995084Y50623882D01*
X15911346Y50682082D01*
X15840504Y50755441D01*
X15785265Y50841156D01*
X15747724Y50935972D01*
X15729314Y51036280D01*
X15730738Y51138246D01*
X15751939Y51237992D01*
X15792114Y51331725D01*
X15849728Y51415868D01*
X15922590Y51487220D01*
X16007919Y51543058D01*
X16102472Y51581260D01*
X16202639Y51600368D01*
X16304618Y51599655D01*
X16304618Y51599655D01*
G37*
G36*
X11304618Y51599655D02*
X11404516Y51579149D01*
X11498520Y51539634D01*
X11583065Y51482608D01*
X11654926Y51410243D01*
X11711356Y51325308D01*
X11750215Y51231028D01*
X11769956Y51131332D01*
X11769956Y51131323D01*
X11770022Y51130989D01*
X11768396Y51014511D01*
X11768320Y51014177D01*
X11768320Y51014166D01*
X11745805Y50915068D01*
X11704326Y50821905D01*
X11645547Y50738579D01*
X11571693Y50668250D01*
X11485591Y50613607D01*
X11390515Y50576729D01*
X11290089Y50559022D01*
X11188134Y50561157D01*
X11088529Y50583057D01*
X10995084Y50623882D01*
X10911346Y50682082D01*
X10840504Y50755441D01*
X10785265Y50841156D01*
X10747724Y50935972D01*
X10729314Y51036280D01*
X10730738Y51138246D01*
X10751939Y51237992D01*
X10792114Y51331725D01*
X10849728Y51415868D01*
X10922590Y51487220D01*
X11007919Y51543058D01*
X11102472Y51581260D01*
X11202639Y51600368D01*
X11304618Y51599655D01*
X11304618Y51599655D01*
G37*
G36*
X6183704Y51713393D02*
X6272785Y51695107D01*
X6356614Y51659869D01*
X6432007Y51609016D01*
X6496081Y51544493D01*
X6546407Y51468748D01*
X6581059Y51384674D01*
X6598654Y51295813D01*
X6598654Y51295802D01*
X6598720Y51295468D01*
X6597270Y51191602D01*
X6597194Y51191268D01*
X6597194Y51191260D01*
X6577125Y51102921D01*
X6540138Y51019851D01*
X6487720Y50945542D01*
X6421862Y50882827D01*
X6345086Y50834104D01*
X6260302Y50801218D01*
X6170748Y50785427D01*
X6079833Y50787331D01*
X5991013Y50806860D01*
X5907683Y50843266D01*
X5833012Y50895164D01*
X5769839Y50960581D01*
X5720581Y51037014D01*
X5687104Y51121566D01*
X5670688Y51211014D01*
X5671958Y51301941D01*
X5690863Y51390885D01*
X5726688Y51474469D01*
X5778067Y51549506D01*
X5843038Y51613131D01*
X5919129Y51662924D01*
X6003444Y51696989D01*
X6092767Y51714029D01*
X6183704Y51713393D01*
X6183704Y51713393D01*
G37*
G36*
X4913704Y51713393D02*
X5002785Y51695107D01*
X5086614Y51659869D01*
X5162007Y51609016D01*
X5226081Y51544493D01*
X5276407Y51468748D01*
X5311059Y51384674D01*
X5328654Y51295813D01*
X5328654Y51295802D01*
X5328720Y51295468D01*
X5327270Y51191602D01*
X5327194Y51191268D01*
X5327194Y51191260D01*
X5307125Y51102921D01*
X5270138Y51019851D01*
X5217720Y50945542D01*
X5151862Y50882827D01*
X5075086Y50834104D01*
X4990302Y50801218D01*
X4900748Y50785427D01*
X4809833Y50787331D01*
X4721013Y50806860D01*
X4637683Y50843266D01*
X4563012Y50895164D01*
X4499839Y50960581D01*
X4450581Y51037014D01*
X4417104Y51121566D01*
X4400688Y51211014D01*
X4401958Y51301941D01*
X4420863Y51390885D01*
X4456688Y51474469D01*
X4508067Y51549506D01*
X4573038Y51613131D01*
X4649129Y51662924D01*
X4733444Y51696989D01*
X4822767Y51714029D01*
X4913704Y51713393D01*
X4913704Y51713393D01*
G37*
G36*
X39607638Y53379256D02*
X39822797Y53335090D01*
X40025276Y53249976D01*
X40207370Y53127152D01*
X40362140Y52971297D01*
X40483690Y52788350D01*
X40567386Y52585286D01*
X40609982Y52370165D01*
X40609982Y52370156D01*
X40610048Y52369822D01*
X40606545Y52118948D01*
X40606469Y52118614D01*
X40606469Y52118602D01*
X40557887Y51904764D01*
X40468548Y51704108D01*
X40341940Y51524628D01*
X40182875Y51373153D01*
X39997428Y51255466D01*
X39792648Y51176035D01*
X39576344Y51137896D01*
X39356748Y51142495D01*
X39142222Y51189662D01*
X38940952Y51277595D01*
X38760593Y51402948D01*
X38608013Y51560949D01*
X38489033Y51745570D01*
X38408176Y51949790D01*
X38368525Y52165830D01*
X38371593Y52385451D01*
X38417258Y52600291D01*
X38503786Y52802176D01*
X38627877Y52983406D01*
X38784808Y53137085D01*
X38968597Y53257353D01*
X39172247Y53339633D01*
X39387997Y53380789D01*
X39607638Y53379256D01*
X39607638Y53379256D01*
G37*
G36*
X46617638Y53379256D02*
X46832797Y53335090D01*
X47035276Y53249976D01*
X47217370Y53127152D01*
X47372140Y52971297D01*
X47493690Y52788350D01*
X47577386Y52585286D01*
X47619982Y52370165D01*
X47619982Y52370156D01*
X47620048Y52369822D01*
X47616545Y52118948D01*
X47616469Y52118614D01*
X47616469Y52118602D01*
X47567887Y51904764D01*
X47478548Y51704108D01*
X47351940Y51524628D01*
X47192875Y51373153D01*
X47007428Y51255466D01*
X46802648Y51176035D01*
X46586344Y51137896D01*
X46366748Y51142495D01*
X46152222Y51189662D01*
X45950952Y51277595D01*
X45770593Y51402948D01*
X45618013Y51560949D01*
X45499033Y51745570D01*
X45418176Y51949790D01*
X45378525Y52165830D01*
X45381593Y52385451D01*
X45427258Y52600291D01*
X45513786Y52802176D01*
X45637877Y52983406D01*
X45794808Y53137085D01*
X45978597Y53257353D01*
X46182247Y53339633D01*
X46397997Y53380789D01*
X46617638Y53379256D01*
X46617638Y53379256D01*
G37*
G36*
X50633393Y54019156D02*
X50877368Y53969075D01*
X51106965Y53872561D01*
X51313446Y53733289D01*
X51488944Y53556560D01*
X51626772Y53349114D01*
X51721680Y53118849D01*
X51769989Y52874874D01*
X51769989Y52874859D01*
X51770054Y52874530D01*
X51766082Y52590057D01*
X51766006Y52589723D01*
X51766006Y52589711D01*
X51710907Y52347187D01*
X51609604Y52119658D01*
X51466038Y51916140D01*
X51285671Y51744380D01*
X51075387Y51610930D01*
X50843181Y51520862D01*
X50597907Y51477614D01*
X50348902Y51482829D01*
X50105647Y51536313D01*
X49877421Y51636022D01*
X49672901Y51778167D01*
X49499890Y51957326D01*
X49364975Y52166673D01*
X49273289Y52398244D01*
X49228328Y52643218D01*
X49231806Y52892252D01*
X49283587Y53135866D01*
X49381704Y53364789D01*
X49522415Y53570291D01*
X49700363Y53744552D01*
X49908766Y53880927D01*
X50139691Y53974227D01*
X50384336Y54020895D01*
X50633393Y54019156D01*
X50633393Y54019156D01*
G37*
G36*
X55270000Y51480000D02*
X52730000Y51480000D01*
X52730000Y54020000D01*
X55270000Y54020000D01*
X55270000Y51480000D01*
X55270000Y51480000D01*
G37*
G36*
X9170000Y51710000D02*
X8030000Y51710000D01*
X8030000Y52650000D01*
X9170000Y52650000D01*
X9170000Y51710000D01*
X9170000Y51710000D01*
G37*
G36*
X19470000Y51710000D02*
X18330000Y51710000D01*
X18330000Y52650000D01*
X19470000Y52650000D01*
X19470000Y51710000D01*
X19470000Y51710000D01*
G37*
G36*
X37920000Y51930000D02*
X36580000Y51930000D01*
X36580000Y54270000D01*
X37920000Y54270000D01*
X37920000Y51930000D01*
X37920000Y51930000D01*
G37*
G36*
X22420000Y51930000D02*
X21080000Y51930000D01*
X21080000Y54270000D01*
X22420000Y54270000D01*
X22420000Y51930000D01*
X22420000Y51930000D01*
G37*
G36*
X4913704Y52983393D02*
X5002785Y52965107D01*
X5086614Y52929869D01*
X5162007Y52879016D01*
X5226081Y52814493D01*
X5276407Y52738748D01*
X5311059Y52654674D01*
X5328654Y52565813D01*
X5328654Y52565802D01*
X5328720Y52565468D01*
X5327270Y52461602D01*
X5327194Y52461268D01*
X5327194Y52461260D01*
X5307125Y52372921D01*
X5270138Y52289851D01*
X5217720Y52215542D01*
X5151862Y52152827D01*
X5075086Y52104104D01*
X4990302Y52071218D01*
X4900748Y52055427D01*
X4809833Y52057331D01*
X4721013Y52076860D01*
X4637683Y52113266D01*
X4563012Y52165164D01*
X4499839Y52230581D01*
X4450581Y52307014D01*
X4417104Y52391566D01*
X4400688Y52481014D01*
X4401958Y52571941D01*
X4420863Y52660885D01*
X4456688Y52744469D01*
X4508067Y52819506D01*
X4573038Y52883131D01*
X4649129Y52932924D01*
X4733444Y52966989D01*
X4822767Y52984029D01*
X4913704Y52983393D01*
X4913704Y52983393D01*
G37*
G36*
X6183704Y52983393D02*
X6272785Y52965107D01*
X6356614Y52929869D01*
X6432007Y52879016D01*
X6496081Y52814493D01*
X6546407Y52738748D01*
X6581059Y52654674D01*
X6598654Y52565813D01*
X6598654Y52565802D01*
X6598720Y52565468D01*
X6597270Y52461602D01*
X6597194Y52461268D01*
X6597194Y52461260D01*
X6577125Y52372921D01*
X6540138Y52289851D01*
X6487720Y52215542D01*
X6421862Y52152827D01*
X6345086Y52104104D01*
X6260302Y52071218D01*
X6170748Y52055427D01*
X6079833Y52057331D01*
X5991013Y52076860D01*
X5907683Y52113266D01*
X5833012Y52165164D01*
X5769839Y52230581D01*
X5720581Y52307014D01*
X5687104Y52391566D01*
X5670688Y52481014D01*
X5671958Y52571941D01*
X5690863Y52660885D01*
X5726688Y52744469D01*
X5778067Y52819506D01*
X5843038Y52883131D01*
X5919129Y52932924D01*
X6003444Y52966989D01*
X6092767Y52984029D01*
X6183704Y52983393D01*
X6183704Y52983393D01*
G37*
G36*
X1760609Y54129957D02*
X1767296Y54129910D01*
X1945730Y54109896D01*
X2116878Y54055605D01*
X2274221Y53969104D01*
X2411766Y53853690D01*
X2524274Y53713758D01*
X2607460Y53554638D01*
X2658155Y53382391D01*
X2658158Y53382361D01*
X2658163Y53382343D01*
X2674431Y53203579D01*
X2655668Y53025058D01*
X2655664Y53025045D01*
X2655660Y53025008D01*
X2602565Y52853486D01*
X2517166Y52695543D01*
X2402714Y52557195D01*
X2263571Y52443712D01*
X2105036Y52359418D01*
X1933147Y52307521D01*
X1754451Y52290000D01*
X1745515Y52290000D01*
X1739391Y52290043D01*
X1732704Y52290090D01*
X1554270Y52310104D01*
X1383122Y52364395D01*
X1225779Y52450896D01*
X1088234Y52566310D01*
X975726Y52706242D01*
X892540Y52865362D01*
X841845Y53037609D01*
X841842Y53037639D01*
X841837Y53037657D01*
X825569Y53216421D01*
X844332Y53394942D01*
X844336Y53394955D01*
X844340Y53394992D01*
X897435Y53566514D01*
X982834Y53724457D01*
X1097286Y53862805D01*
X1236429Y53976288D01*
X1394964Y54060582D01*
X1566853Y54112479D01*
X1745549Y54130000D01*
X1754485Y54130000D01*
X1760609Y54129957D01*
X1760609Y54129957D01*
G37*
G36*
X34489869Y54069622D02*
X34599371Y54047144D01*
X34702417Y54003828D01*
X34795090Y53941320D01*
X34873858Y53861999D01*
X34935718Y53768893D01*
X34978314Y53665548D01*
X34999959Y53556235D01*
X34999959Y53556220D01*
X35000024Y53555891D01*
X34998242Y53428214D01*
X34998165Y53427875D01*
X34998165Y53427872D01*
X34973478Y53319206D01*
X34928012Y53217090D01*
X34863578Y53125748D01*
X34782623Y53048656D01*
X34688246Y52988763D01*
X34584027Y52948339D01*
X34473943Y52928928D01*
X34362185Y52931268D01*
X34253006Y52955274D01*
X34150572Y53000026D01*
X34058783Y53063821D01*
X33981130Y53144233D01*
X33920579Y53238190D01*
X33879428Y53342124D01*
X33859249Y53452076D01*
X33860810Y53563847D01*
X33884049Y53673182D01*
X33928087Y53775930D01*
X33991240Y53868163D01*
X34071108Y53946376D01*
X34164641Y54007582D01*
X34268288Y54049458D01*
X34378086Y54070403D01*
X34489869Y54069622D01*
X34489869Y54069622D01*
G37*
G36*
X26509869Y54069622D02*
X26619371Y54047144D01*
X26722417Y54003828D01*
X26815090Y53941320D01*
X26893858Y53861999D01*
X26955718Y53768893D01*
X26998314Y53665548D01*
X27019959Y53556235D01*
X27019959Y53556220D01*
X27020024Y53555891D01*
X27018242Y53428214D01*
X27018165Y53427875D01*
X27018165Y53427872D01*
X26993478Y53319206D01*
X26948012Y53217090D01*
X26883578Y53125748D01*
X26802623Y53048656D01*
X26708246Y52988763D01*
X26604027Y52948339D01*
X26493943Y52928928D01*
X26382185Y52931268D01*
X26273006Y52955274D01*
X26170572Y53000026D01*
X26078783Y53063821D01*
X26001130Y53144233D01*
X25940579Y53238190D01*
X25899428Y53342124D01*
X25879249Y53452076D01*
X25880810Y53563847D01*
X25904049Y53673182D01*
X25948087Y53775930D01*
X26011240Y53868163D01*
X26091108Y53946376D01*
X26184641Y54007582D01*
X26288288Y54049458D01*
X26398086Y54070403D01*
X26509869Y54069622D01*
X26509869Y54069622D01*
G37*
G36*
X7586128Y54819456D02*
X7743656Y54787120D01*
X7891898Y54724805D01*
X8025217Y54634880D01*
X8138532Y54520771D01*
X8227525Y54386828D01*
X8288801Y54238157D01*
X8319970Y54080749D01*
X8319970Y54080739D01*
X8320036Y54080405D01*
X8317471Y53896729D01*
X8317395Y53896395D01*
X8317395Y53896384D01*
X8281846Y53739915D01*
X8216438Y53593007D01*
X8123743Y53461602D01*
X8007283Y53350700D01*
X7871511Y53264537D01*
X7721581Y53206382D01*
X7563217Y53178459D01*
X7402441Y53181826D01*
X7245375Y53216359D01*
X7098018Y53280738D01*
X6965969Y53372515D01*
X6854258Y53488195D01*
X6767148Y53623362D01*
X6707949Y53772881D01*
X6678919Y53931055D01*
X6681165Y54091848D01*
X6714598Y54249142D01*
X6777950Y54396951D01*
X6868802Y54529637D01*
X6983699Y54642153D01*
X7118258Y54730206D01*
X7267359Y54790447D01*
X7425318Y54820579D01*
X7586128Y54819456D01*
X7586128Y54819456D01*
G37*
G36*
X5559376Y54354925D02*
X5667974Y54332633D01*
X5770174Y54289672D01*
X5862081Y54227681D01*
X5940196Y54149018D01*
X6001548Y54056675D01*
X6043793Y53954182D01*
X6065258Y53845775D01*
X6065258Y53845765D01*
X6065324Y53845431D01*
X6063556Y53718806D01*
X6063480Y53718472D01*
X6063480Y53718461D01*
X6038997Y53610700D01*
X5993906Y53509423D01*
X5930003Y53418834D01*
X5849715Y53342378D01*
X5756116Y53282979D01*
X5652756Y53242888D01*
X5543581Y53223637D01*
X5432745Y53225958D01*
X5324463Y53249766D01*
X5222882Y53294145D01*
X5131841Y53357420D01*
X5054831Y53437167D01*
X4994779Y53530349D01*
X4953968Y53633426D01*
X4933954Y53742471D01*
X4935503Y53853320D01*
X4958551Y53961755D01*
X5002226Y54063654D01*
X5064858Y54155127D01*
X5144067Y54232694D01*
X5236829Y54293396D01*
X5339622Y54334927D01*
X5448514Y54355699D01*
X5559376Y54354925D01*
X5559376Y54354925D01*
G37*
G36*
X40839257Y55694372D02*
X41020798Y55657107D01*
X41191639Y55585292D01*
X41345280Y55481660D01*
X41475868Y55350157D01*
X41578425Y55195797D01*
X41649045Y55024459D01*
X41684974Y54843006D01*
X41684974Y54842996D01*
X41685040Y54842662D01*
X41682084Y54630987D01*
X41682008Y54630653D01*
X41682008Y54630641D01*
X41641030Y54450270D01*
X41565650Y54280966D01*
X41458824Y54129530D01*
X41324613Y54001723D01*
X41168143Y53902424D01*
X40995359Y53835405D01*
X40812853Y53803225D01*
X40627569Y53807105D01*
X40446563Y53846902D01*
X40276740Y53921096D01*
X40124563Y54026862D01*
X39995823Y54160176D01*
X39895434Y54315949D01*
X39827211Y54488260D01*
X39793756Y54670545D01*
X39796344Y54855849D01*
X39834874Y55037121D01*
X39907882Y55207461D01*
X40012584Y55360374D01*
X40144995Y55490041D01*
X40300066Y55591517D01*
X40471896Y55660941D01*
X40653934Y55695666D01*
X40839257Y55694372D01*
X40839257Y55694372D01*
G37*
G36*
X45339257Y55694372D02*
X45520798Y55657107D01*
X45691639Y55585292D01*
X45845280Y55481660D01*
X45975868Y55350157D01*
X46078425Y55195797D01*
X46149045Y55024459D01*
X46184974Y54843006D01*
X46184974Y54842996D01*
X46185040Y54842662D01*
X46182084Y54630987D01*
X46182008Y54630653D01*
X46182008Y54630641D01*
X46141030Y54450270D01*
X46065650Y54280966D01*
X45958824Y54129530D01*
X45824613Y54001723D01*
X45668143Y53902424D01*
X45495359Y53835405D01*
X45312853Y53803225D01*
X45127569Y53807105D01*
X44946563Y53846902D01*
X44776740Y53921096D01*
X44624563Y54026862D01*
X44495823Y54160176D01*
X44395434Y54315949D01*
X44327211Y54488260D01*
X44293756Y54670545D01*
X44296344Y54855849D01*
X44334874Y55037121D01*
X44407882Y55207461D01*
X44512584Y55360374D01*
X44644995Y55490041D01*
X44800066Y55591517D01*
X44971896Y55660941D01*
X45153934Y55695666D01*
X45339257Y55694372D01*
X45339257Y55694372D01*
G37*
G36*
X2670000Y54830000D02*
X830000Y54830000D01*
X830000Y56670000D01*
X2670000Y56670000D01*
X2670000Y54830000D01*
X2670000Y54830000D01*
G37*
G36*
X9370000Y55780000D02*
X8430000Y55780000D01*
X8430000Y56720000D01*
X9370000Y56720000D01*
X9370000Y55780000D01*
X9370000Y55780000D01*
G37*
G36*
X15170000Y55780000D02*
X14230000Y55780000D01*
X14230000Y56720000D01*
X15170000Y56720000D01*
X15170000Y55780000D01*
X15170000Y55780000D01*
G37*
G36*
X16470000Y55780000D02*
X15530000Y55780000D01*
X15530000Y56720000D01*
X16470000Y56720000D01*
X16470000Y55780000D01*
X16470000Y55780000D01*
G37*
G36*
X4870000Y55780000D02*
X3930000Y55780000D01*
X3930000Y56720000D01*
X4870000Y56720000D01*
X4870000Y55780000D01*
X4870000Y55780000D01*
G37*
G36*
X6470000Y55780000D02*
X5530000Y55780000D01*
X5530000Y56720000D01*
X6470000Y56720000D01*
X6470000Y55780000D01*
X6470000Y55780000D01*
G37*
G36*
X10670000Y55780000D02*
X9730000Y55780000D01*
X9730000Y56720000D01*
X10670000Y56720000D01*
X10670000Y55780000D01*
X10670000Y55780000D01*
G37*
G36*
X12270000Y55780000D02*
X11330000Y55780000D01*
X11330000Y56720000D01*
X12270000Y56720000D01*
X12270000Y55780000D01*
X12270000Y55780000D01*
G37*
G36*
X7770000Y55780000D02*
X6830000Y55780000D01*
X6830000Y56720000D01*
X7770000Y56720000D01*
X7770000Y55780000D01*
X7770000Y55780000D01*
G37*
G36*
X18070000Y55780000D02*
X17130000Y55780000D01*
X17130000Y56720000D01*
X18070000Y56720000D01*
X18070000Y55780000D01*
X18070000Y55780000D01*
G37*
G36*
X19370000Y55780000D02*
X18430000Y55780000D01*
X18430000Y56720000D01*
X19370000Y56720000D01*
X19370000Y55780000D01*
X19370000Y55780000D01*
G37*
G36*
X20970000Y55780000D02*
X20030000Y55780000D01*
X20030000Y56720000D01*
X20970000Y56720000D01*
X20970000Y55780000D01*
X20970000Y55780000D01*
G37*
G36*
X13570000Y55780000D02*
X12630000Y55780000D01*
X12630000Y56720000D01*
X13570000Y56720000D01*
X13570000Y55780000D01*
X13570000Y55780000D01*
G37*
M02*
