%TF.GenerationSoftware,KiCad,Pcbnew,(6.0.6)*%
%TF.CreationDate,2022-07-06T10:55:58+02:00*%
%TF.ProjectId,panel,70616e65-6c2e-46b6-9963-61645f706362,3.0*%
%TF.SameCoordinates,PXe4e1c0PYe4e1c0*%
%TF.FileFunction,Paste,Top*%
%TF.FilePolarity,Positive*%
%FSLAX46Y46*%
G04 Gerber Fmt 4.6, Leading zero omitted, Abs format (unit mm)*
G04 Created by KiCad (PCBNEW (6.0.6)) date 2022-07-06 10:55:58*
%MOMM*%
%LPD*%
G01*
G04 APERTURE LIST*
G04 Aperture macros list*
%AMRoundRect*
0 Rectangle with rounded corners*
0 $1 Rounding radius*
0 $2 $3 $4 $5 $6 $7 $8 $9 X,Y pos of 4 corners*
0 Add a 4 corners polygon primitive as box body*
4,1,4,$2,$3,$4,$5,$6,$7,$8,$9,$2,$3,0*
0 Add four circle primitives for the rounded corners*
1,1,$1+$1,$2,$3*
1,1,$1+$1,$4,$5*
1,1,$1+$1,$6,$7*
1,1,$1+$1,$8,$9*
0 Add four rect primitives between the rounded corners*
20,1,$1+$1,$2,$3,$4,$5,0*
20,1,$1+$1,$4,$5,$6,$7,0*
20,1,$1+$1,$6,$7,$8,$9,0*
20,1,$1+$1,$8,$9,$2,$3,0*%
G04 Aperture macros list end*
%ADD10R,0.700000X0.450000*%
%ADD11R,1.000000X0.800000*%
%ADD12R,0.700000X1.500000*%
%ADD13RoundRect,0.218750X0.218750X0.256250X-0.218750X0.256250X-0.218750X-0.256250X0.218750X-0.256250X0*%
%ADD14RoundRect,0.200000X0.275000X-0.200000X0.275000X0.200000X-0.275000X0.200000X-0.275000X-0.200000X0*%
%ADD15RoundRect,0.218750X-0.256250X0.218750X-0.256250X-0.218750X0.256250X-0.218750X0.256250X0.218750X0*%
%ADD16R,2.500000X3.500000*%
%ADD17R,1.000000X0.900000*%
%ADD18RoundRect,0.218750X-0.218750X-0.256250X0.218750X-0.256250X0.218750X0.256250X-0.218750X0.256250X0*%
%ADD19RoundRect,0.200000X-0.200000X-0.275000X0.200000X-0.275000X0.200000X0.275000X-0.200000X0.275000X0*%
%ADD20R,1.060000X0.650000*%
%ADD21RoundRect,0.218750X0.256250X-0.218750X0.256250X0.218750X-0.256250X0.218750X-0.256250X-0.218750X0*%
%ADD22RoundRect,0.200000X0.200000X0.275000X-0.200000X0.275000X-0.200000X-0.275000X0.200000X-0.275000X0*%
%ADD23R,4.200000X1.500000*%
%ADD24RoundRect,0.250000X0.375000X0.625000X-0.375000X0.625000X-0.375000X-0.625000X0.375000X-0.625000X0*%
%ADD25RoundRect,0.249998X0.312502X1.450002X-0.312502X1.450002X-0.312502X-1.450002X0.312502X-1.450002X0*%
%ADD26RoundRect,0.243750X0.456250X-0.243750X0.456250X0.243750X-0.456250X0.243750X-0.456250X-0.243750X0*%
%ADD27R,0.600000X0.700000*%
%ADD28R,2.500000X1.800000*%
%ADD29R,0.800000X0.900000*%
%ADD30R,0.900000X2.000000*%
%ADD31R,2.000000X0.900000*%
%ADD32R,5.000000X5.000000*%
%ADD33R,0.450000X0.600000*%
%ADD34R,1.550000X0.600000*%
%ADD35R,1.450000X0.450000*%
%ADD36R,3.050000X2.750000*%
%ADD37R,2.200000X0.800000*%
%ADD38R,3.000000X1.000000*%
%ADD39R,0.600000X0.450000*%
%ADD40RoundRect,0.225000X0.225000X0.250000X-0.225000X0.250000X-0.225000X-0.250000X0.225000X-0.250000X0*%
G04 APERTURE END LIST*
D10*
%TO.C,B2-Q2*%
X120320000Y-39540000D03*
X120320000Y-38240000D03*
X118320000Y-38890000D03*
%TD*%
D11*
%TO.C,B1-SW4*%
X67100000Y-15530000D03*
X77400000Y-13320000D03*
X77400000Y-15530000D03*
X67100000Y-13320000D03*
D12*
X75250000Y-16180000D03*
X73750000Y-16180000D03*
X70750000Y-16180000D03*
X69250000Y-16180000D03*
%TD*%
D13*
%TO.C,B2-D7*%
X128787500Y-9250000D03*
X127212500Y-9250000D03*
%TD*%
D14*
%TO.C,B1-R28*%
X113410000Y-37985000D03*
X113410000Y-36335000D03*
%TD*%
D13*
%TO.C,B0-D7*%
X11787500Y-9250000D03*
X10212500Y-9250000D03*
%TD*%
D15*
%TO.C,B2-R3*%
X136950000Y-48712500D03*
X136950000Y-50287500D03*
%TD*%
D16*
%TO.C,B7-C6*%
X110250000Y-169250000D03*
X110250000Y-162750000D03*
%TD*%
D15*
%TO.C,B8-R3*%
X136950000Y-167712500D03*
X136950000Y-169287500D03*
%TD*%
D17*
%TO.C,B4-SW1*%
X67130000Y-79470000D03*
X63030000Y-79470000D03*
X63030000Y-81070000D03*
X67130000Y-81070000D03*
%TD*%
D18*
%TO.C,B5-R31*%
X142212500Y-112000000D03*
X143787500Y-112000000D03*
%TD*%
D13*
%TO.C,B6-R23*%
X22397500Y-140030000D03*
X20822500Y-140030000D03*
%TD*%
D19*
%TO.C,B2-R38*%
X137415000Y-14482000D03*
X139065000Y-14482000D03*
%TD*%
D18*
%TO.C,B4-R8*%
X111562500Y-84200000D03*
X113137500Y-84200000D03*
%TD*%
D13*
%TO.C,B8-D8*%
X131687500Y-128250000D03*
X130112500Y-128250000D03*
%TD*%
D15*
%TO.C,B1-R19*%
X66290000Y-45262500D03*
X66290000Y-46837500D03*
%TD*%
D20*
%TO.C,B3-U3*%
X42650000Y-72250000D03*
X42650000Y-71300000D03*
X42650000Y-70350000D03*
X40450000Y-70350000D03*
X40450000Y-71300000D03*
X40450000Y-72250000D03*
%TD*%
D18*
%TO.C,B6-R16*%
X36262500Y-142550000D03*
X37837500Y-142550000D03*
%TD*%
D15*
%TO.C,B6-C21*%
X32500000Y-142862500D03*
X32500000Y-144437500D03*
%TD*%
D18*
%TO.C,B5-R6*%
X118532500Y-93460000D03*
X120107500Y-93460000D03*
%TD*%
D21*
%TO.C,B5-R1*%
X165390000Y-82127500D03*
X165390000Y-80552500D03*
%TD*%
D22*
%TO.C,B5-R37*%
X139065000Y-72346000D03*
X137415000Y-72346000D03*
%TD*%
D18*
%TO.C,B5-R18*%
X118572500Y-102720000D03*
X120147500Y-102720000D03*
%TD*%
D13*
%TO.C,B2-D5*%
X122987500Y-9250000D03*
X121412500Y-9250000D03*
%TD*%
D23*
%TO.C,B3-L1*%
X36400000Y-76175000D03*
X36400000Y-72575000D03*
%TD*%
D24*
%TO.C,B5-C4*%
X154250000Y-80875000D03*
X151450000Y-80875000D03*
%TD*%
D25*
%TO.C,B8-F1*%
X171887500Y-173250000D03*
X167612500Y-173250000D03*
%TD*%
D13*
%TO.C,B7-R15*%
X96337500Y-144050000D03*
X94762500Y-144050000D03*
%TD*%
D18*
%TO.C,B0-R16*%
X36262500Y-23550000D03*
X37837500Y-23550000D03*
%TD*%
D24*
%TO.C,B8-C4*%
X154250000Y-140375000D03*
X151450000Y-140375000D03*
%TD*%
D13*
%TO.C,B6-D8*%
X14687500Y-128250000D03*
X13112500Y-128250000D03*
%TD*%
%TO.C,B1-D9*%
X76087500Y-9250000D03*
X74512500Y-9250000D03*
%TD*%
D26*
%TO.C,B6-C9*%
X37350000Y-129937500D03*
X37350000Y-128062500D03*
%TD*%
D27*
%TO.C,B5-D1*%
X166740000Y-80540000D03*
X168140000Y-80540000D03*
%TD*%
D13*
%TO.C,B4-C2*%
X70075000Y-108150000D03*
X68500000Y-108150000D03*
%TD*%
D18*
%TO.C,B1-C26*%
X99062500Y-9100000D03*
X100637500Y-9100000D03*
%TD*%
D24*
%TO.C,B3-C5*%
X37250000Y-78375000D03*
X34450000Y-78375000D03*
%TD*%
D18*
%TO.C,B1-C1*%
X59952500Y-41130000D03*
X61527500Y-41130000D03*
%TD*%
%TO.C,B6-R6*%
X1532500Y-152960000D03*
X3107500Y-152960000D03*
%TD*%
D28*
%TO.C,B4-D11*%
X113250000Y-117500000D03*
X109250000Y-117500000D03*
%TD*%
D13*
%TO.C,B1-C7*%
X100537500Y-14500000D03*
X98962500Y-14500000D03*
%TD*%
%TO.C,B0-C22*%
X21862500Y-24190000D03*
X20287500Y-24190000D03*
%TD*%
D24*
%TO.C,B2-C4*%
X154250000Y-21375000D03*
X151450000Y-21375000D03*
%TD*%
D18*
%TO.C,B8-R6*%
X118532500Y-152960000D03*
X120107500Y-152960000D03*
%TD*%
D15*
%TO.C,B6-C8*%
X45925000Y-128512500D03*
X45925000Y-130087500D03*
%TD*%
D27*
%TO.C,B4-D12*%
X102025000Y-74025000D03*
X103425000Y-74025000D03*
%TD*%
D29*
%TO.C,B5-Q5*%
X120310000Y-104350000D03*
X118410000Y-104350000D03*
X119360000Y-106350000D03*
%TD*%
D30*
%TO.C,B8-U1*%
X127595000Y-165500000D03*
X128865000Y-165500000D03*
X130135000Y-165500000D03*
X131405000Y-165500000D03*
X132675000Y-165500000D03*
X133945000Y-165500000D03*
X135215000Y-165500000D03*
X136485000Y-165500000D03*
X137755000Y-165500000D03*
X139025000Y-165500000D03*
X140295000Y-165500000D03*
X141565000Y-165500000D03*
X142835000Y-165500000D03*
X144105000Y-165500000D03*
D31*
X145105000Y-162715000D03*
X145105000Y-161445000D03*
X145105000Y-160175000D03*
X145105000Y-158905000D03*
X145105000Y-157635000D03*
X145105000Y-156365000D03*
X145105000Y-155095000D03*
X145105000Y-153825000D03*
X145105000Y-152555000D03*
X145105000Y-151285000D03*
D30*
X144105000Y-148500000D03*
X142835000Y-148500000D03*
X141565000Y-148500000D03*
X140295000Y-148500000D03*
X139025000Y-148500000D03*
X137755000Y-148500000D03*
X136485000Y-148500000D03*
X135215000Y-148500000D03*
X133945000Y-148500000D03*
X132675000Y-148500000D03*
X131405000Y-148500000D03*
X130135000Y-148500000D03*
X128865000Y-148500000D03*
X127595000Y-148500000D03*
D32*
X135095000Y-158000000D03*
%TD*%
D18*
%TO.C,B6-R17*%
X5282500Y-158940000D03*
X6857500Y-158940000D03*
%TD*%
D21*
%TO.C,B6-R22*%
X32500000Y-163287500D03*
X32500000Y-161712500D03*
%TD*%
%TO.C,B1-R20*%
X63570000Y-46777500D03*
X63570000Y-45202500D03*
%TD*%
%TO.C,B8-C23*%
X149500000Y-141187500D03*
X149500000Y-139612500D03*
%TD*%
D26*
%TO.C,B5-C9*%
X154350000Y-70437500D03*
X154350000Y-68562500D03*
%TD*%
D33*
%TO.C,B1-D13*%
X89000000Y-46550000D03*
X89000000Y-44450000D03*
%TD*%
D29*
%TO.C,B3-Q6*%
X36450000Y-105000000D03*
X34550000Y-105000000D03*
X35500000Y-107000000D03*
%TD*%
D21*
%TO.C,B5-C23*%
X149500000Y-81687500D03*
X149500000Y-80112500D03*
%TD*%
D24*
%TO.C,B2-C5*%
X154250000Y-18875000D03*
X151450000Y-18875000D03*
%TD*%
D13*
%TO.C,B6-R15*%
X37837500Y-144050000D03*
X36262500Y-144050000D03*
%TD*%
D29*
%TO.C,B5-Q4*%
X124020000Y-101090000D03*
X122120000Y-101090000D03*
X123070000Y-103090000D03*
%TD*%
D34*
%TO.C,B8-U2*%
X153600000Y-152205000D03*
X153600000Y-150935000D03*
X153600000Y-149665000D03*
X153600000Y-148395000D03*
X148200000Y-148395000D03*
X148200000Y-149665000D03*
X148200000Y-150935000D03*
X148200000Y-152205000D03*
%TD*%
D13*
%TO.C,B4-C7*%
X100537500Y-74000000D03*
X98962500Y-74000000D03*
%TD*%
D18*
%TO.C,B8-R25*%
X144322500Y-146210000D03*
X145897500Y-146210000D03*
%TD*%
D21*
%TO.C,B1-R12*%
X91000000Y-47325000D03*
X91000000Y-45750000D03*
%TD*%
D13*
%TO.C,B2-C2*%
X128575000Y-48650000D03*
X127000000Y-48650000D03*
%TD*%
%TO.C,B5-C22*%
X138862500Y-83690000D03*
X137287500Y-83690000D03*
%TD*%
D18*
%TO.C,B4-R16*%
X94762500Y-83050000D03*
X96337500Y-83050000D03*
%TD*%
D10*
%TO.C,B4-Q1*%
X61820000Y-96290000D03*
X61820000Y-94990000D03*
X59820000Y-95640000D03*
%TD*%
D26*
%TO.C,B2-C9*%
X154350000Y-10937500D03*
X154350000Y-9062500D03*
%TD*%
D22*
%TO.C,B1-R32*%
X106685000Y-25090000D03*
X105035000Y-25090000D03*
%TD*%
D11*
%TO.C,B4-SW4*%
X77400000Y-72820000D03*
X67100000Y-72820000D03*
X67100000Y-75030000D03*
X77400000Y-75030000D03*
D12*
X75250000Y-75680000D03*
X73750000Y-75680000D03*
X70750000Y-75680000D03*
X69250000Y-75680000D03*
%TD*%
D18*
%TO.C,B6-R11*%
X30812500Y-146100000D03*
X32387500Y-146100000D03*
%TD*%
D19*
%TO.C,B6-R35*%
X20415000Y-135118000D03*
X22065000Y-135118000D03*
%TD*%
D18*
%TO.C,B3-R16*%
X36262500Y-83050000D03*
X37837500Y-83050000D03*
%TD*%
D21*
%TO.C,B5-R12*%
X149500000Y-106825000D03*
X149500000Y-105250000D03*
%TD*%
D14*
%TO.C,B4-R28*%
X113410000Y-97485000D03*
X113410000Y-95835000D03*
%TD*%
D22*
%TO.C,B7-R37*%
X80565000Y-131846000D03*
X78915000Y-131846000D03*
%TD*%
%TO.C,B2-R37*%
X139065000Y-12846000D03*
X137415000Y-12846000D03*
%TD*%
D19*
%TO.C,B0-R35*%
X20415000Y-16118000D03*
X22065000Y-16118000D03*
%TD*%
D11*
%TO.C,B7-SW4*%
X67100000Y-134530000D03*
X77400000Y-134530000D03*
X77400000Y-132320000D03*
X67100000Y-132320000D03*
D12*
X75250000Y-135180000D03*
X73750000Y-135180000D03*
X70750000Y-135180000D03*
X69250000Y-135180000D03*
%TD*%
D15*
%TO.C,B2-R19*%
X124790000Y-45262500D03*
X124790000Y-46837500D03*
%TD*%
D18*
%TO.C,B8-R18*%
X118572500Y-162220000D03*
X120147500Y-162220000D03*
%TD*%
%TO.C,B0-C26*%
X40562500Y-9100000D03*
X42137500Y-9100000D03*
%TD*%
%TO.C,B0-C1*%
X1452500Y-41130000D03*
X3027500Y-41130000D03*
%TD*%
D24*
%TO.C,B4-C5*%
X95750000Y-78375000D03*
X92950000Y-78375000D03*
%TD*%
D35*
%TO.C,B7-U7*%
X83050000Y-138725000D03*
X83050000Y-139375000D03*
X83050000Y-140025000D03*
X83050000Y-140675000D03*
X83050000Y-141325000D03*
X83050000Y-141975000D03*
X83050000Y-142625000D03*
X83050000Y-143275000D03*
X83050000Y-143925000D03*
X83050000Y-144575000D03*
X88950000Y-144575000D03*
X88950000Y-143925000D03*
X88950000Y-143275000D03*
X88950000Y-142625000D03*
X88950000Y-141975000D03*
X88950000Y-141325000D03*
X88950000Y-140675000D03*
X88950000Y-140025000D03*
X88950000Y-139375000D03*
X88950000Y-138725000D03*
%TD*%
D18*
%TO.C,B4-R11*%
X89312500Y-86600000D03*
X90887500Y-86600000D03*
%TD*%
D10*
%TO.C,B8-Q1*%
X120320000Y-155790000D03*
X120320000Y-154490000D03*
X118320000Y-155140000D03*
%TD*%
D18*
%TO.C,B2-R27*%
X137832500Y-27360000D03*
X139407500Y-27360000D03*
%TD*%
%TO.C,B2-R6*%
X118532500Y-33960000D03*
X120107500Y-33960000D03*
%TD*%
D21*
%TO.C,B8-R1*%
X165390000Y-141627500D03*
X165390000Y-140052500D03*
%TD*%
D18*
%TO.C,B3-R21*%
X34712500Y-103250000D03*
X36287500Y-103250000D03*
%TD*%
%TO.C,B5-R10*%
X161337500Y-72125000D03*
X162912500Y-72125000D03*
%TD*%
D13*
%TO.C,B7-D9*%
X76087500Y-128250000D03*
X74512500Y-128250000D03*
%TD*%
%TO.C,B7-R23*%
X80897500Y-140030000D03*
X79322500Y-140030000D03*
%TD*%
D18*
%TO.C,B4-R6*%
X60032500Y-93460000D03*
X61607500Y-93460000D03*
%TD*%
D21*
%TO.C,B2-R22*%
X149500000Y-44287500D03*
X149500000Y-42712500D03*
%TD*%
D13*
%TO.C,B3-D5*%
X5987500Y-68750000D03*
X4412500Y-68750000D03*
%TD*%
D21*
%TO.C,B0-R22*%
X32500000Y-44287500D03*
X32500000Y-42712500D03*
%TD*%
D18*
%TO.C,B6-R8*%
X53062500Y-143700000D03*
X54637500Y-143700000D03*
%TD*%
D16*
%TO.C,B2-C6*%
X168750000Y-50250000D03*
X168750000Y-43750000D03*
%TD*%
D10*
%TO.C,B5-Q2*%
X120320000Y-99040000D03*
X120320000Y-97740000D03*
X118320000Y-98390000D03*
%TD*%
D22*
%TO.C,B1-R33*%
X80565000Y-17754000D03*
X78915000Y-17754000D03*
%TD*%
D36*
%TO.C,B4-U4*%
X102165000Y-117115000D03*
X105515000Y-117115000D03*
X102165000Y-114065000D03*
X105515000Y-114065000D03*
D37*
X97540000Y-113310000D03*
X97540000Y-114450000D03*
X97540000Y-116730000D03*
X97540000Y-117870000D03*
%TD*%
D28*
%TO.C,B0-D11*%
X54750000Y-58000000D03*
X50750000Y-58000000D03*
%TD*%
D21*
%TO.C,B1-C23*%
X91000000Y-22187500D03*
X91000000Y-20612500D03*
%TD*%
D33*
%TO.C,B2-D13*%
X147500000Y-46550000D03*
X147500000Y-44450000D03*
%TD*%
D29*
%TO.C,B7-Q6*%
X94950000Y-164500000D03*
X93050000Y-164500000D03*
X94000000Y-166500000D03*
%TD*%
D13*
%TO.C,B1-C24*%
X80887500Y-22600000D03*
X79312500Y-22600000D03*
%TD*%
D35*
%TO.C,B0-U7*%
X24550000Y-19725000D03*
X24550000Y-20375000D03*
X24550000Y-21025000D03*
X24550000Y-21675000D03*
X24550000Y-22325000D03*
X24550000Y-22975000D03*
X24550000Y-23625000D03*
X24550000Y-24275000D03*
X24550000Y-24925000D03*
X24550000Y-25575000D03*
X30450000Y-25575000D03*
X30450000Y-24925000D03*
X30450000Y-24275000D03*
X30450000Y-23625000D03*
X30450000Y-22975000D03*
X30450000Y-22325000D03*
X30450000Y-21675000D03*
X30450000Y-21025000D03*
X30450000Y-20375000D03*
X30450000Y-19725000D03*
%TD*%
D18*
%TO.C,B6-R31*%
X25212500Y-171500000D03*
X26787500Y-171500000D03*
%TD*%
%TO.C,B3-R18*%
X1572500Y-102720000D03*
X3147500Y-102720000D03*
%TD*%
D19*
%TO.C,B8-R38*%
X137415000Y-133482000D03*
X139065000Y-133482000D03*
%TD*%
D27*
%TO.C,B7-D15*%
X108250000Y-143060000D03*
X109650000Y-143060000D03*
%TD*%
D24*
%TO.C,B0-C5*%
X37250000Y-18875000D03*
X34450000Y-18875000D03*
%TD*%
D21*
%TO.C,B1-R7*%
X91280000Y-40497500D03*
X91280000Y-38922500D03*
%TD*%
D38*
%TO.C,B1-J3*%
X98230000Y-50680000D03*
X103270000Y-50680000D03*
X98230000Y-48140000D03*
X103270000Y-48140000D03*
X98230000Y-45600000D03*
X103270000Y-45600000D03*
X98230000Y-43060000D03*
X103270000Y-43060000D03*
X98230000Y-40520000D03*
X103270000Y-40520000D03*
X98230000Y-37980000D03*
X103270000Y-37980000D03*
X98230000Y-35440000D03*
X103270000Y-35440000D03*
X98230000Y-32900000D03*
X103270000Y-32900000D03*
X98230000Y-30360000D03*
X103270000Y-30360000D03*
X98230000Y-27820000D03*
X103270000Y-27820000D03*
%TD*%
D13*
%TO.C,B2-C7*%
X159037500Y-14500000D03*
X157462500Y-14500000D03*
%TD*%
D30*
%TO.C,B4-U1*%
X69095000Y-106000000D03*
X70365000Y-106000000D03*
X71635000Y-106000000D03*
X72905000Y-106000000D03*
X74175000Y-106000000D03*
X75445000Y-106000000D03*
X76715000Y-106000000D03*
X77985000Y-106000000D03*
X79255000Y-106000000D03*
X80525000Y-106000000D03*
X81795000Y-106000000D03*
X83065000Y-106000000D03*
X84335000Y-106000000D03*
X85605000Y-106000000D03*
D31*
X86605000Y-103215000D03*
X86605000Y-101945000D03*
X86605000Y-100675000D03*
X86605000Y-99405000D03*
X86605000Y-98135000D03*
X86605000Y-96865000D03*
X86605000Y-95595000D03*
X86605000Y-94325000D03*
X86605000Y-93055000D03*
X86605000Y-91785000D03*
D30*
X85605000Y-89000000D03*
X84335000Y-89000000D03*
X83065000Y-89000000D03*
X81795000Y-89000000D03*
X80525000Y-89000000D03*
X79255000Y-89000000D03*
X77985000Y-89000000D03*
X76715000Y-89000000D03*
X75445000Y-89000000D03*
X74175000Y-89000000D03*
X72905000Y-89000000D03*
X71635000Y-89000000D03*
X70365000Y-89000000D03*
X69095000Y-89000000D03*
D32*
X76595000Y-98500000D03*
%TD*%
D15*
%TO.C,B6-R4*%
X21600000Y-167712500D03*
X21600000Y-169287500D03*
%TD*%
D13*
%TO.C,B3-D6*%
X8887500Y-68750000D03*
X7312500Y-68750000D03*
%TD*%
%TO.C,B5-R2*%
X123287500Y-84500000D03*
X121712500Y-84500000D03*
%TD*%
%TO.C,B8-D9*%
X134587500Y-128250000D03*
X133012500Y-128250000D03*
%TD*%
D11*
%TO.C,B2-SW4*%
X135900000Y-15530000D03*
X135900000Y-13320000D03*
X125600000Y-15530000D03*
X125600000Y-13320000D03*
D12*
X133750000Y-16180000D03*
X132250000Y-16180000D03*
X129250000Y-16180000D03*
X127750000Y-16180000D03*
%TD*%
D18*
%TO.C,B7-R17*%
X63782500Y-158940000D03*
X65357500Y-158940000D03*
%TD*%
D21*
%TO.C,B8-R7*%
X149780000Y-159497500D03*
X149780000Y-157922500D03*
%TD*%
D17*
%TO.C,B0-SW1*%
X4530000Y-19970000D03*
X8630000Y-19970000D03*
X8630000Y-21570000D03*
X4530000Y-21570000D03*
%TD*%
D35*
%TO.C,B6-U7*%
X24550000Y-138725000D03*
X24550000Y-139375000D03*
X24550000Y-140025000D03*
X24550000Y-140675000D03*
X24550000Y-141325000D03*
X24550000Y-141975000D03*
X24550000Y-142625000D03*
X24550000Y-143275000D03*
X24550000Y-143925000D03*
X24550000Y-144575000D03*
X30450000Y-144575000D03*
X30450000Y-143925000D03*
X30450000Y-143275000D03*
X30450000Y-142625000D03*
X30450000Y-141975000D03*
X30450000Y-141325000D03*
X30450000Y-140675000D03*
X30450000Y-140025000D03*
X30450000Y-139375000D03*
X30450000Y-138725000D03*
%TD*%
D18*
%TO.C,B3-R8*%
X53062500Y-84200000D03*
X54637500Y-84200000D03*
%TD*%
D33*
%TO.C,B3-D14*%
X47970000Y-89960000D03*
X47970000Y-87860000D03*
%TD*%
D39*
%TO.C,B1-D2*%
X111300000Y-22700000D03*
X113400000Y-22700000D03*
%TD*%
D26*
%TO.C,B4-C10*%
X93800000Y-70462500D03*
X93800000Y-68587500D03*
%TD*%
D19*
%TO.C,B3-R36*%
X20415000Y-70710000D03*
X22065000Y-70710000D03*
%TD*%
D34*
%TO.C,B5-U2*%
X153600000Y-92705000D03*
X153600000Y-91435000D03*
X153600000Y-90165000D03*
X153600000Y-88895000D03*
X148200000Y-88895000D03*
X148200000Y-90165000D03*
X148200000Y-91435000D03*
X148200000Y-92705000D03*
%TD*%
D27*
%TO.C,B8-D1*%
X166740000Y-140040000D03*
X168140000Y-140040000D03*
%TD*%
D13*
%TO.C,B5-C2*%
X128575000Y-108150000D03*
X127000000Y-108150000D03*
%TD*%
%TO.C,B1-D5*%
X64487500Y-9250000D03*
X62912500Y-9250000D03*
%TD*%
D27*
%TO.C,B0-D1*%
X49740000Y-21040000D03*
X51140000Y-21040000D03*
%TD*%
D18*
%TO.C,B5-R8*%
X170062500Y-84200000D03*
X171637500Y-84200000D03*
%TD*%
D19*
%TO.C,B1-R38*%
X78915000Y-14482000D03*
X80565000Y-14482000D03*
%TD*%
D22*
%TO.C,B5-R33*%
X139065000Y-77254000D03*
X137415000Y-77254000D03*
%TD*%
D18*
%TO.C,B2-R10*%
X161337500Y-12625000D03*
X162912500Y-12625000D03*
%TD*%
D16*
%TO.C,B0-C6*%
X51750000Y-50250000D03*
X51750000Y-43750000D03*
%TD*%
D13*
%TO.C,B4-R24*%
X84177500Y-86700000D03*
X82602500Y-86700000D03*
%TD*%
D18*
%TO.C,B8-R8*%
X170062500Y-143700000D03*
X171637500Y-143700000D03*
%TD*%
D21*
%TO.C,B8-R22*%
X149500000Y-163287500D03*
X149500000Y-161712500D03*
%TD*%
D15*
%TO.C,B0-R5*%
X4950000Y-36772500D03*
X4950000Y-38347500D03*
%TD*%
D18*
%TO.C,B0-R8*%
X53062500Y-24700000D03*
X54637500Y-24700000D03*
%TD*%
%TO.C,B0-R11*%
X30812500Y-27100000D03*
X32387500Y-27100000D03*
%TD*%
%TO.C,B5-R27*%
X137832500Y-86860000D03*
X139407500Y-86860000D03*
%TD*%
D19*
%TO.C,B0-R38*%
X20415000Y-14482000D03*
X22065000Y-14482000D03*
%TD*%
D18*
%TO.C,B1-R16*%
X94762500Y-23550000D03*
X96337500Y-23550000D03*
%TD*%
D21*
%TO.C,B3-C23*%
X32500000Y-81687500D03*
X32500000Y-80112500D03*
%TD*%
%TO.C,B3-R12*%
X32500000Y-106825000D03*
X32500000Y-105250000D03*
%TD*%
D15*
%TO.C,B3-R5*%
X4950000Y-96272500D03*
X4950000Y-97847500D03*
%TD*%
D13*
%TO.C,B2-D6*%
X125887500Y-9250000D03*
X124312500Y-9250000D03*
%TD*%
D27*
%TO.C,B2-D15*%
X166750000Y-24060000D03*
X168150000Y-24060000D03*
%TD*%
D13*
%TO.C,B4-C24*%
X80887500Y-82100000D03*
X79312500Y-82100000D03*
%TD*%
D26*
%TO.C,B7-C10*%
X93800000Y-129962500D03*
X93800000Y-128087500D03*
%TD*%
D24*
%TO.C,B0-C4*%
X37250000Y-21375000D03*
X34450000Y-21375000D03*
%TD*%
D20*
%TO.C,B7-U3*%
X101150000Y-131750000D03*
X101150000Y-130800000D03*
X101150000Y-129850000D03*
X98950000Y-129850000D03*
X98950000Y-130800000D03*
X98950000Y-131750000D03*
%TD*%
D15*
%TO.C,B2-C8*%
X162925000Y-9512500D03*
X162925000Y-11087500D03*
%TD*%
D18*
%TO.C,B7-R21*%
X93212500Y-162750000D03*
X94787500Y-162750000D03*
%TD*%
%TO.C,B7-R11*%
X89312500Y-146100000D03*
X90887500Y-146100000D03*
%TD*%
D15*
%TO.C,B1-C8*%
X104425000Y-9512500D03*
X104425000Y-11087500D03*
%TD*%
D11*
%TO.C,B5-SW4*%
X125600000Y-72820000D03*
X135900000Y-75030000D03*
X135900000Y-72820000D03*
X125600000Y-75030000D03*
D12*
X133750000Y-75680000D03*
X132250000Y-75680000D03*
X129250000Y-75680000D03*
X127750000Y-75680000D03*
%TD*%
D15*
%TO.C,B5-C21*%
X149500000Y-83362500D03*
X149500000Y-84937500D03*
%TD*%
D13*
%TO.C,B5-D5*%
X122987500Y-68750000D03*
X121412500Y-68750000D03*
%TD*%
D33*
%TO.C,B6-D14*%
X47970000Y-149460000D03*
X47970000Y-147360000D03*
%TD*%
D15*
%TO.C,B4-R4*%
X80100000Y-108212500D03*
X80100000Y-109787500D03*
%TD*%
D13*
%TO.C,B2-D8*%
X131687500Y-9250000D03*
X130112500Y-9250000D03*
%TD*%
D15*
%TO.C,B0-R4*%
X21600000Y-48712500D03*
X21600000Y-50287500D03*
%TD*%
D18*
%TO.C,B2-C3*%
X148062500Y-34900000D03*
X149637500Y-34900000D03*
%TD*%
D33*
%TO.C,B3-D13*%
X30500000Y-106050000D03*
X30500000Y-103950000D03*
%TD*%
D18*
%TO.C,B1-R27*%
X79332500Y-27360000D03*
X80907500Y-27360000D03*
%TD*%
D21*
%TO.C,B8-R20*%
X122070000Y-165777500D03*
X122070000Y-164202500D03*
%TD*%
D30*
%TO.C,B3-U1*%
X10595000Y-106000000D03*
X11865000Y-106000000D03*
X13135000Y-106000000D03*
X14405000Y-106000000D03*
X15675000Y-106000000D03*
X16945000Y-106000000D03*
X18215000Y-106000000D03*
X19485000Y-106000000D03*
X20755000Y-106000000D03*
X22025000Y-106000000D03*
X23295000Y-106000000D03*
X24565000Y-106000000D03*
X25835000Y-106000000D03*
X27105000Y-106000000D03*
D31*
X28105000Y-103215000D03*
X28105000Y-101945000D03*
X28105000Y-100675000D03*
X28105000Y-99405000D03*
X28105000Y-98135000D03*
X28105000Y-96865000D03*
X28105000Y-95595000D03*
X28105000Y-94325000D03*
X28105000Y-93055000D03*
X28105000Y-91785000D03*
D30*
X27105000Y-89000000D03*
X25835000Y-89000000D03*
X24565000Y-89000000D03*
X23295000Y-89000000D03*
X22025000Y-89000000D03*
X20755000Y-89000000D03*
X19485000Y-89000000D03*
X18215000Y-89000000D03*
X16945000Y-89000000D03*
X15675000Y-89000000D03*
X14405000Y-89000000D03*
X13135000Y-89000000D03*
X11865000Y-89000000D03*
X10595000Y-89000000D03*
D32*
X18095000Y-98500000D03*
%TD*%
D13*
%TO.C,B6-R2*%
X6287500Y-144000000D03*
X4712500Y-144000000D03*
%TD*%
D20*
%TO.C,B1-U3*%
X101150000Y-12750000D03*
X101150000Y-11800000D03*
X101150000Y-10850000D03*
X98950000Y-10850000D03*
X98950000Y-11800000D03*
X98950000Y-12750000D03*
%TD*%
D22*
%TO.C,B0-R33*%
X22065000Y-17754000D03*
X20415000Y-17754000D03*
%TD*%
D13*
%TO.C,B4-D6*%
X67387500Y-68750000D03*
X65812500Y-68750000D03*
%TD*%
D15*
%TO.C,B7-R3*%
X78450000Y-167712500D03*
X78450000Y-169287500D03*
%TD*%
D22*
%TO.C,B8-R37*%
X139065000Y-131846000D03*
X137415000Y-131846000D03*
%TD*%
%TO.C,B8-R33*%
X139065000Y-136754000D03*
X137415000Y-136754000D03*
%TD*%
D18*
%TO.C,B5-R11*%
X147812500Y-86600000D03*
X149387500Y-86600000D03*
%TD*%
%TO.C,B7-R31*%
X83712500Y-171500000D03*
X85287500Y-171500000D03*
%TD*%
D13*
%TO.C,B3-R2*%
X6287500Y-84500000D03*
X4712500Y-84500000D03*
%TD*%
D28*
%TO.C,B3-D11*%
X54750000Y-117500000D03*
X50750000Y-117500000D03*
%TD*%
D26*
%TO.C,B1-C10*%
X93800000Y-10962500D03*
X93800000Y-9087500D03*
%TD*%
D18*
%TO.C,B1-R8*%
X111562500Y-24700000D03*
X113137500Y-24700000D03*
%TD*%
D17*
%TO.C,B7-SW1*%
X63030000Y-138970000D03*
X67130000Y-138970000D03*
X63030000Y-140570000D03*
X67130000Y-140570000D03*
%TD*%
D16*
%TO.C,B1-C6*%
X110250000Y-50250000D03*
X110250000Y-43750000D03*
%TD*%
D18*
%TO.C,B0-R18*%
X1572500Y-43220000D03*
X3147500Y-43220000D03*
%TD*%
%TO.C,B7-R6*%
X60032500Y-152960000D03*
X61607500Y-152960000D03*
%TD*%
D13*
%TO.C,B3-C2*%
X11575000Y-108150000D03*
X10000000Y-108150000D03*
%TD*%
D15*
%TO.C,B4-R3*%
X78450000Y-108212500D03*
X78450000Y-109787500D03*
%TD*%
%TO.C,B6-R3*%
X19950000Y-167712500D03*
X19950000Y-169287500D03*
%TD*%
%TO.C,B2-C21*%
X149500000Y-23862500D03*
X149500000Y-25437500D03*
%TD*%
D13*
%TO.C,B0-D6*%
X8887500Y-9250000D03*
X7312500Y-9250000D03*
%TD*%
D18*
%TO.C,B5-C1*%
X118452500Y-100630000D03*
X120027500Y-100630000D03*
%TD*%
%TO.C,B1-R11*%
X89312500Y-27100000D03*
X90887500Y-27100000D03*
%TD*%
%TO.C,B0-R21*%
X34712500Y-43750000D03*
X36287500Y-43750000D03*
%TD*%
D27*
%TO.C,B0-D4*%
X49740000Y-22540000D03*
X51140000Y-22540000D03*
%TD*%
D29*
%TO.C,B1-Q6*%
X94950000Y-45500000D03*
X93050000Y-45500000D03*
X94000000Y-47500000D03*
%TD*%
D17*
%TO.C,B1-SW1*%
X63030000Y-19970000D03*
X67130000Y-19970000D03*
X67130000Y-21570000D03*
X63030000Y-21570000D03*
%TD*%
D13*
%TO.C,B7-D5*%
X64487500Y-128250000D03*
X62912500Y-128250000D03*
%TD*%
D18*
%TO.C,B3-C26*%
X40562500Y-68600000D03*
X42137500Y-68600000D03*
%TD*%
D15*
%TO.C,B1-R9*%
X102825000Y-9487500D03*
X102825000Y-11062500D03*
%TD*%
D21*
%TO.C,B3-R20*%
X5070000Y-106277500D03*
X5070000Y-104702500D03*
%TD*%
D27*
%TO.C,B4-D4*%
X108240000Y-82040000D03*
X109640000Y-82040000D03*
%TD*%
D33*
%TO.C,B8-D14*%
X164970000Y-149460000D03*
X164970000Y-147360000D03*
%TD*%
D18*
%TO.C,B6-R26*%
X20237500Y-144725000D03*
X21812500Y-144725000D03*
%TD*%
D39*
%TO.C,B7-D2*%
X111300000Y-141700000D03*
X113400000Y-141700000D03*
%TD*%
D18*
%TO.C,B4-R18*%
X60072500Y-102720000D03*
X61647500Y-102720000D03*
%TD*%
D28*
%TO.C,B4-D3*%
X99500000Y-76825000D03*
X103500000Y-76825000D03*
%TD*%
%TO.C,B3-D3*%
X41000000Y-76825000D03*
X45000000Y-76825000D03*
%TD*%
D40*
%TO.C,B8-C11*%
X166305000Y-145840000D03*
X164755000Y-145840000D03*
%TD*%
D13*
%TO.C,B2-C24*%
X139387500Y-22600000D03*
X137812500Y-22600000D03*
%TD*%
%TO.C,B1-D8*%
X73187500Y-9250000D03*
X71612500Y-9250000D03*
%TD*%
D18*
%TO.C,B1-R6*%
X60032500Y-33960000D03*
X61607500Y-33960000D03*
%TD*%
D19*
%TO.C,B4-R35*%
X78915000Y-75618000D03*
X80565000Y-75618000D03*
%TD*%
D35*
%TO.C,B2-U7*%
X141550000Y-19725000D03*
X141550000Y-20375000D03*
X141550000Y-21025000D03*
X141550000Y-21675000D03*
X141550000Y-22325000D03*
X141550000Y-22975000D03*
X141550000Y-23625000D03*
X141550000Y-24275000D03*
X141550000Y-24925000D03*
X141550000Y-25575000D03*
X147450000Y-25575000D03*
X147450000Y-24925000D03*
X147450000Y-24275000D03*
X147450000Y-23625000D03*
X147450000Y-22975000D03*
X147450000Y-22325000D03*
X147450000Y-21675000D03*
X147450000Y-21025000D03*
X147450000Y-20375000D03*
X147450000Y-19725000D03*
%TD*%
D15*
%TO.C,B4-R9*%
X102825000Y-68987500D03*
X102825000Y-70562500D03*
%TD*%
D35*
%TO.C,B4-U7*%
X83050000Y-79225000D03*
X83050000Y-79875000D03*
X83050000Y-80525000D03*
X83050000Y-81175000D03*
X83050000Y-81825000D03*
X83050000Y-82475000D03*
X83050000Y-83125000D03*
X83050000Y-83775000D03*
X83050000Y-84425000D03*
X83050000Y-85075000D03*
X88950000Y-85075000D03*
X88950000Y-84425000D03*
X88950000Y-83775000D03*
X88950000Y-83125000D03*
X88950000Y-82475000D03*
X88950000Y-81825000D03*
X88950000Y-81175000D03*
X88950000Y-80525000D03*
X88950000Y-79875000D03*
X88950000Y-79225000D03*
%TD*%
D15*
%TO.C,B3-R3*%
X19950000Y-108212500D03*
X19950000Y-109787500D03*
%TD*%
D18*
%TO.C,B8-R16*%
X153262500Y-142550000D03*
X154837500Y-142550000D03*
%TD*%
D22*
%TO.C,B3-R33*%
X22065000Y-77254000D03*
X20415000Y-77254000D03*
%TD*%
D29*
%TO.C,B4-Q5*%
X61810000Y-104350000D03*
X59910000Y-104350000D03*
X60860000Y-106350000D03*
%TD*%
D33*
%TO.C,B8-D13*%
X147500000Y-165550000D03*
X147500000Y-163450000D03*
%TD*%
D29*
%TO.C,B1-Q4*%
X65520000Y-41590000D03*
X63620000Y-41590000D03*
X64570000Y-43590000D03*
%TD*%
D18*
%TO.C,B4-C1*%
X59952500Y-100630000D03*
X61527500Y-100630000D03*
%TD*%
D15*
%TO.C,B7-R19*%
X66290000Y-164262500D03*
X66290000Y-165837500D03*
%TD*%
D27*
%TO.C,B8-D12*%
X160525000Y-133525000D03*
X161925000Y-133525000D03*
%TD*%
D24*
%TO.C,B7-C5*%
X95750000Y-137875000D03*
X92950000Y-137875000D03*
%TD*%
D27*
%TO.C,B5-D4*%
X166740000Y-82040000D03*
X168140000Y-82040000D03*
%TD*%
D13*
%TO.C,B3-R24*%
X25677500Y-86700000D03*
X24102500Y-86700000D03*
%TD*%
D27*
%TO.C,B1-D15*%
X108250000Y-24060000D03*
X109650000Y-24060000D03*
%TD*%
D19*
%TO.C,B4-R38*%
X78915000Y-73982000D03*
X80565000Y-73982000D03*
%TD*%
D24*
%TO.C,B5-C5*%
X154250000Y-78375000D03*
X151450000Y-78375000D03*
%TD*%
D26*
%TO.C,B0-C9*%
X37350000Y-10937500D03*
X37350000Y-9062500D03*
%TD*%
D16*
%TO.C,B3-C6*%
X51750000Y-109750000D03*
X51750000Y-103250000D03*
%TD*%
D13*
%TO.C,B8-D7*%
X128787500Y-128250000D03*
X127212500Y-128250000D03*
%TD*%
D21*
%TO.C,B4-R22*%
X91000000Y-103787500D03*
X91000000Y-102212500D03*
%TD*%
D25*
%TO.C,B2-F1*%
X171887500Y-54250000D03*
X167612500Y-54250000D03*
%TD*%
D21*
%TO.C,B1-R22*%
X91000000Y-44287500D03*
X91000000Y-42712500D03*
%TD*%
D20*
%TO.C,B8-U3*%
X159650000Y-131750000D03*
X159650000Y-130800000D03*
X159650000Y-129850000D03*
X157450000Y-129850000D03*
X157450000Y-130800000D03*
X157450000Y-131750000D03*
%TD*%
D13*
%TO.C,B0-D8*%
X14687500Y-9250000D03*
X13112500Y-9250000D03*
%TD*%
D18*
%TO.C,B8-R31*%
X142212500Y-171500000D03*
X143787500Y-171500000D03*
%TD*%
D13*
%TO.C,B3-D9*%
X17587500Y-68750000D03*
X16012500Y-68750000D03*
%TD*%
D18*
%TO.C,B2-R26*%
X137237500Y-25725000D03*
X138812500Y-25725000D03*
%TD*%
%TO.C,B3-C1*%
X1452500Y-100630000D03*
X3027500Y-100630000D03*
%TD*%
D26*
%TO.C,B8-C10*%
X152300000Y-129962500D03*
X152300000Y-128087500D03*
%TD*%
D35*
%TO.C,B3-U7*%
X24550000Y-79225000D03*
X24550000Y-79875000D03*
X24550000Y-80525000D03*
X24550000Y-81175000D03*
X24550000Y-81825000D03*
X24550000Y-82475000D03*
X24550000Y-83125000D03*
X24550000Y-83775000D03*
X24550000Y-84425000D03*
X24550000Y-85075000D03*
X30450000Y-85075000D03*
X30450000Y-84425000D03*
X30450000Y-83775000D03*
X30450000Y-83125000D03*
X30450000Y-82475000D03*
X30450000Y-81825000D03*
X30450000Y-81175000D03*
X30450000Y-80525000D03*
X30450000Y-79875000D03*
X30450000Y-79225000D03*
%TD*%
D18*
%TO.C,B7-R25*%
X85822500Y-146210000D03*
X87397500Y-146210000D03*
%TD*%
D23*
%TO.C,B4-L1*%
X94900000Y-76175000D03*
X94900000Y-72575000D03*
%TD*%
D21*
%TO.C,B7-R7*%
X91280000Y-159497500D03*
X91280000Y-157922500D03*
%TD*%
D13*
%TO.C,B2-R15*%
X154837500Y-25050000D03*
X153262500Y-25050000D03*
%TD*%
D35*
%TO.C,B1-U7*%
X83050000Y-19725000D03*
X83050000Y-20375000D03*
X83050000Y-21025000D03*
X83050000Y-21675000D03*
X83050000Y-22325000D03*
X83050000Y-22975000D03*
X83050000Y-23625000D03*
X83050000Y-24275000D03*
X83050000Y-24925000D03*
X83050000Y-25575000D03*
X88950000Y-25575000D03*
X88950000Y-24925000D03*
X88950000Y-24275000D03*
X88950000Y-23625000D03*
X88950000Y-22975000D03*
X88950000Y-22325000D03*
X88950000Y-21675000D03*
X88950000Y-21025000D03*
X88950000Y-20375000D03*
X88950000Y-19725000D03*
%TD*%
D36*
%TO.C,B5-U4*%
X160665000Y-117115000D03*
X164015000Y-114065000D03*
X160665000Y-114065000D03*
X164015000Y-117115000D03*
D37*
X156040000Y-113310000D03*
X156040000Y-114450000D03*
X156040000Y-116730000D03*
X156040000Y-117870000D03*
%TD*%
D13*
%TO.C,B5-R24*%
X142677500Y-86700000D03*
X141102500Y-86700000D03*
%TD*%
%TO.C,B3-R23*%
X22397500Y-80530000D03*
X20822500Y-80530000D03*
%TD*%
D29*
%TO.C,B3-Q5*%
X3310000Y-104350000D03*
X1410000Y-104350000D03*
X2360000Y-106350000D03*
%TD*%
D13*
%TO.C,B0-C7*%
X42037500Y-14500000D03*
X40462500Y-14500000D03*
%TD*%
D35*
%TO.C,B8-U7*%
X141550000Y-138725000D03*
X141550000Y-139375000D03*
X141550000Y-140025000D03*
X141550000Y-140675000D03*
X141550000Y-141325000D03*
X141550000Y-141975000D03*
X141550000Y-142625000D03*
X141550000Y-143275000D03*
X141550000Y-143925000D03*
X141550000Y-144575000D03*
X147450000Y-144575000D03*
X147450000Y-143925000D03*
X147450000Y-143275000D03*
X147450000Y-142625000D03*
X147450000Y-141975000D03*
X147450000Y-141325000D03*
X147450000Y-140675000D03*
X147450000Y-140025000D03*
X147450000Y-139375000D03*
X147450000Y-138725000D03*
%TD*%
D33*
%TO.C,B0-D13*%
X30500000Y-46550000D03*
X30500000Y-44450000D03*
%TD*%
D19*
%TO.C,B1-R36*%
X78915000Y-11210000D03*
X80565000Y-11210000D03*
%TD*%
D13*
%TO.C,B2-D9*%
X134587500Y-9250000D03*
X133012500Y-9250000D03*
%TD*%
D15*
%TO.C,B6-R5*%
X4950000Y-155772500D03*
X4950000Y-157347500D03*
%TD*%
D18*
%TO.C,B2-R31*%
X142212500Y-52500000D03*
X143787500Y-52500000D03*
%TD*%
D33*
%TO.C,B7-D13*%
X89000000Y-165550000D03*
X89000000Y-163450000D03*
%TD*%
D28*
%TO.C,B6-D11*%
X54750000Y-177000000D03*
X50750000Y-177000000D03*
%TD*%
D15*
%TO.C,B5-R5*%
X121950000Y-96272500D03*
X121950000Y-97847500D03*
%TD*%
D18*
%TO.C,B6-R25*%
X27322500Y-146210000D03*
X28897500Y-146210000D03*
%TD*%
%TO.C,B3-R27*%
X20832500Y-86860000D03*
X22407500Y-86860000D03*
%TD*%
D38*
%TO.C,B5-J3*%
X156730000Y-110180000D03*
X161770000Y-110180000D03*
X156730000Y-107640000D03*
X161770000Y-107640000D03*
X156730000Y-105100000D03*
X161770000Y-105100000D03*
X156730000Y-102560000D03*
X161770000Y-102560000D03*
X156730000Y-100020000D03*
X161770000Y-100020000D03*
X156730000Y-97480000D03*
X161770000Y-97480000D03*
X156730000Y-94940000D03*
X161770000Y-94940000D03*
X156730000Y-92400000D03*
X161770000Y-92400000D03*
X156730000Y-89860000D03*
X161770000Y-89860000D03*
X156730000Y-87320000D03*
X161770000Y-87320000D03*
%TD*%
D13*
%TO.C,B8-D10*%
X137487500Y-128250000D03*
X135912500Y-128250000D03*
%TD*%
D36*
%TO.C,B0-U4*%
X43665000Y-57615000D03*
X47015000Y-57615000D03*
X43665000Y-54565000D03*
X47015000Y-54565000D03*
D37*
X39040000Y-53810000D03*
X39040000Y-54950000D03*
X39040000Y-57230000D03*
X39040000Y-58370000D03*
%TD*%
D18*
%TO.C,B3-R10*%
X44337500Y-72125000D03*
X45912500Y-72125000D03*
%TD*%
D21*
%TO.C,B0-C23*%
X32500000Y-22187500D03*
X32500000Y-20612500D03*
%TD*%
D28*
%TO.C,B1-D11*%
X113250000Y-58000000D03*
X109250000Y-58000000D03*
%TD*%
D39*
%TO.C,B8-D2*%
X169800000Y-141700000D03*
X171900000Y-141700000D03*
%TD*%
D27*
%TO.C,B3-D1*%
X49740000Y-80540000D03*
X51140000Y-80540000D03*
%TD*%
D13*
%TO.C,B6-C24*%
X22387500Y-141600000D03*
X20812500Y-141600000D03*
%TD*%
D18*
%TO.C,B0-C3*%
X31062500Y-34900000D03*
X32637500Y-34900000D03*
%TD*%
%TO.C,B7-R18*%
X60072500Y-162220000D03*
X61647500Y-162220000D03*
%TD*%
D15*
%TO.C,B8-R4*%
X138600000Y-167712500D03*
X138600000Y-169287500D03*
%TD*%
D18*
%TO.C,B6-R10*%
X44337500Y-131625000D03*
X45912500Y-131625000D03*
%TD*%
D21*
%TO.C,B0-R1*%
X48390000Y-22627500D03*
X48390000Y-21052500D03*
%TD*%
D38*
%TO.C,B0-J3*%
X39730000Y-50680000D03*
X44770000Y-50680000D03*
X39730000Y-48140000D03*
X44770000Y-48140000D03*
X39730000Y-45600000D03*
X44770000Y-45600000D03*
X39730000Y-43060000D03*
X44770000Y-43060000D03*
X39730000Y-40520000D03*
X44770000Y-40520000D03*
X39730000Y-37980000D03*
X44770000Y-37980000D03*
X39730000Y-35440000D03*
X44770000Y-35440000D03*
X39730000Y-32900000D03*
X44770000Y-32900000D03*
X39730000Y-30360000D03*
X44770000Y-30360000D03*
X39730000Y-27820000D03*
X44770000Y-27820000D03*
%TD*%
D13*
%TO.C,B8-D5*%
X122987500Y-128250000D03*
X121412500Y-128250000D03*
%TD*%
D17*
%TO.C,B6-SW1*%
X4530000Y-138970000D03*
X8630000Y-138970000D03*
X4530000Y-140570000D03*
X8630000Y-140570000D03*
%TD*%
D13*
%TO.C,B1-D10*%
X78987500Y-9250000D03*
X77412500Y-9250000D03*
%TD*%
D29*
%TO.C,B5-Q6*%
X153450000Y-105000000D03*
X151550000Y-105000000D03*
X152500000Y-107000000D03*
%TD*%
D18*
%TO.C,B1-R17*%
X63782500Y-39940000D03*
X65357500Y-39940000D03*
%TD*%
D13*
%TO.C,B2-R23*%
X139397500Y-21030000D03*
X137822500Y-21030000D03*
%TD*%
D10*
%TO.C,B3-Q1*%
X3320000Y-96290000D03*
X3320000Y-94990000D03*
X1320000Y-95640000D03*
%TD*%
D19*
%TO.C,B0-R36*%
X20415000Y-11210000D03*
X22065000Y-11210000D03*
%TD*%
D22*
%TO.C,B3-R37*%
X22065000Y-72346000D03*
X20415000Y-72346000D03*
%TD*%
D18*
%TO.C,B2-C26*%
X157562500Y-9100000D03*
X159137500Y-9100000D03*
%TD*%
D33*
%TO.C,B1-D14*%
X106470000Y-30460000D03*
X106470000Y-28360000D03*
%TD*%
D19*
%TO.C,B3-R34*%
X20415000Y-78890000D03*
X22065000Y-78890000D03*
%TD*%
D29*
%TO.C,B2-Q4*%
X124020000Y-41590000D03*
X122120000Y-41590000D03*
X123070000Y-43590000D03*
%TD*%
D22*
%TO.C,B0-R32*%
X48185000Y-25090000D03*
X46535000Y-25090000D03*
%TD*%
D15*
%TO.C,B5-C8*%
X162925000Y-69012500D03*
X162925000Y-70587500D03*
%TD*%
D10*
%TO.C,B7-Q2*%
X61820000Y-158540000D03*
X61820000Y-157240000D03*
X59820000Y-157890000D03*
%TD*%
D13*
%TO.C,B6-R24*%
X25677500Y-146200000D03*
X24102500Y-146200000D03*
%TD*%
D36*
%TO.C,B3-U4*%
X43665000Y-117115000D03*
X47015000Y-117115000D03*
X47015000Y-114065000D03*
X43665000Y-114065000D03*
D37*
X39040000Y-113310000D03*
X39040000Y-114450000D03*
X39040000Y-116730000D03*
X39040000Y-117870000D03*
%TD*%
D18*
%TO.C,B7-R10*%
X102837500Y-131625000D03*
X104412500Y-131625000D03*
%TD*%
D22*
%TO.C,B4-R33*%
X80565000Y-77254000D03*
X78915000Y-77254000D03*
%TD*%
D36*
%TO.C,B8-U4*%
X160665000Y-173565000D03*
X164015000Y-176615000D03*
X164015000Y-173565000D03*
X160665000Y-176615000D03*
D37*
X156040000Y-172810000D03*
X156040000Y-173950000D03*
X156040000Y-176230000D03*
X156040000Y-177370000D03*
%TD*%
D13*
%TO.C,B5-R15*%
X154837500Y-84550000D03*
X153262500Y-84550000D03*
%TD*%
D30*
%TO.C,B5-U1*%
X127595000Y-106000000D03*
X128865000Y-106000000D03*
X130135000Y-106000000D03*
X131405000Y-106000000D03*
X132675000Y-106000000D03*
X133945000Y-106000000D03*
X135215000Y-106000000D03*
X136485000Y-106000000D03*
X137755000Y-106000000D03*
X139025000Y-106000000D03*
X140295000Y-106000000D03*
X141565000Y-106000000D03*
X142835000Y-106000000D03*
X144105000Y-106000000D03*
D31*
X145105000Y-103215000D03*
X145105000Y-101945000D03*
X145105000Y-100675000D03*
X145105000Y-99405000D03*
X145105000Y-98135000D03*
X145105000Y-96865000D03*
X145105000Y-95595000D03*
X145105000Y-94325000D03*
X145105000Y-93055000D03*
X145105000Y-91785000D03*
D30*
X144105000Y-89000000D03*
X142835000Y-89000000D03*
X141565000Y-89000000D03*
X140295000Y-89000000D03*
X139025000Y-89000000D03*
X137755000Y-89000000D03*
X136485000Y-89000000D03*
X135215000Y-89000000D03*
X133945000Y-89000000D03*
X132675000Y-89000000D03*
X131405000Y-89000000D03*
X130135000Y-89000000D03*
X128865000Y-89000000D03*
X127595000Y-89000000D03*
D32*
X135095000Y-98500000D03*
%TD*%
D21*
%TO.C,B5-R20*%
X122070000Y-106277500D03*
X122070000Y-104702500D03*
%TD*%
D18*
%TO.C,B5-R16*%
X153262500Y-83050000D03*
X154837500Y-83050000D03*
%TD*%
%TO.C,B4-R25*%
X85822500Y-86710000D03*
X87397500Y-86710000D03*
%TD*%
D15*
%TO.C,B8-C8*%
X162925000Y-128512500D03*
X162925000Y-130087500D03*
%TD*%
D22*
%TO.C,B6-R32*%
X48185000Y-144090000D03*
X46535000Y-144090000D03*
%TD*%
D18*
%TO.C,B0-R26*%
X20237500Y-25725000D03*
X21812500Y-25725000D03*
%TD*%
D20*
%TO.C,B2-U3*%
X159650000Y-12750000D03*
X159650000Y-11800000D03*
X159650000Y-10850000D03*
X157450000Y-10850000D03*
X157450000Y-11800000D03*
X157450000Y-12750000D03*
%TD*%
D13*
%TO.C,B2-R24*%
X142677500Y-27200000D03*
X141102500Y-27200000D03*
%TD*%
D40*
%TO.C,B2-C11*%
X166305000Y-26840000D03*
X164755000Y-26840000D03*
%TD*%
D13*
%TO.C,B7-C7*%
X100537500Y-133500000D03*
X98962500Y-133500000D03*
%TD*%
D18*
%TO.C,B2-R11*%
X147812500Y-27100000D03*
X149387500Y-27100000D03*
%TD*%
%TO.C,B0-R10*%
X44337500Y-12625000D03*
X45912500Y-12625000D03*
%TD*%
D13*
%TO.C,B1-D6*%
X67387500Y-9250000D03*
X65812500Y-9250000D03*
%TD*%
D29*
%TO.C,B6-Q5*%
X3310000Y-163850000D03*
X1410000Y-163850000D03*
X2360000Y-165850000D03*
%TD*%
D15*
%TO.C,B6-R9*%
X44325000Y-128487500D03*
X44325000Y-130062500D03*
%TD*%
D21*
%TO.C,B6-C23*%
X32500000Y-141187500D03*
X32500000Y-139612500D03*
%TD*%
D26*
%TO.C,B3-C10*%
X35300000Y-70462500D03*
X35300000Y-68587500D03*
%TD*%
D18*
%TO.C,B8-C1*%
X118452500Y-160130000D03*
X120027500Y-160130000D03*
%TD*%
D16*
%TO.C,B4-C6*%
X110250000Y-109750000D03*
X110250000Y-103250000D03*
%TD*%
D24*
%TO.C,B4-C4*%
X95750000Y-80875000D03*
X92950000Y-80875000D03*
%TD*%
D13*
%TO.C,B8-C7*%
X159037500Y-133500000D03*
X157462500Y-133500000D03*
%TD*%
D21*
%TO.C,B4-R7*%
X91280000Y-99997500D03*
X91280000Y-98422500D03*
%TD*%
D15*
%TO.C,B1-R5*%
X63450000Y-36772500D03*
X63450000Y-38347500D03*
%TD*%
D13*
%TO.C,B2-R2*%
X123287500Y-25000000D03*
X121712500Y-25000000D03*
%TD*%
D19*
%TO.C,B5-R38*%
X137415000Y-73982000D03*
X139065000Y-73982000D03*
%TD*%
D28*
%TO.C,B0-D3*%
X41000000Y-17325000D03*
X45000000Y-17325000D03*
%TD*%
D18*
%TO.C,B1-R26*%
X78737500Y-25725000D03*
X80312500Y-25725000D03*
%TD*%
D21*
%TO.C,B4-C23*%
X91000000Y-81687500D03*
X91000000Y-80112500D03*
%TD*%
D18*
%TO.C,B4-R26*%
X78737500Y-85225000D03*
X80312500Y-85225000D03*
%TD*%
D26*
%TO.C,B2-C10*%
X152300000Y-10962500D03*
X152300000Y-9087500D03*
%TD*%
D13*
%TO.C,B3-D10*%
X20487500Y-68750000D03*
X18912500Y-68750000D03*
%TD*%
D36*
%TO.C,B6-U4*%
X47015000Y-176615000D03*
X43665000Y-173565000D03*
X43665000Y-176615000D03*
X47015000Y-173565000D03*
D37*
X39040000Y-172810000D03*
X39040000Y-173950000D03*
X39040000Y-176230000D03*
X39040000Y-177370000D03*
%TD*%
D13*
%TO.C,B5-D9*%
X134587500Y-68750000D03*
X133012500Y-68750000D03*
%TD*%
D19*
%TO.C,B4-R36*%
X78915000Y-70710000D03*
X80565000Y-70710000D03*
%TD*%
D21*
%TO.C,B6-R1*%
X48390000Y-141627500D03*
X48390000Y-140052500D03*
%TD*%
D28*
%TO.C,B2-D11*%
X171750000Y-58000000D03*
X167750000Y-58000000D03*
%TD*%
D23*
%TO.C,B1-L1*%
X94900000Y-16675000D03*
X94900000Y-13075000D03*
%TD*%
D18*
%TO.C,B7-R8*%
X111562500Y-143700000D03*
X113137500Y-143700000D03*
%TD*%
D29*
%TO.C,B8-Q4*%
X124020000Y-160590000D03*
X122120000Y-160590000D03*
X123070000Y-162590000D03*
%TD*%
D38*
%TO.C,B2-J3*%
X156730000Y-50680000D03*
X161770000Y-50680000D03*
X156730000Y-48140000D03*
X161770000Y-48140000D03*
X156730000Y-45600000D03*
X161770000Y-45600000D03*
X156730000Y-43060000D03*
X161770000Y-43060000D03*
X156730000Y-40520000D03*
X161770000Y-40520000D03*
X156730000Y-37980000D03*
X161770000Y-37980000D03*
X156730000Y-35440000D03*
X161770000Y-35440000D03*
X156730000Y-32900000D03*
X161770000Y-32900000D03*
X156730000Y-30360000D03*
X161770000Y-30360000D03*
X156730000Y-27820000D03*
X161770000Y-27820000D03*
%TD*%
D13*
%TO.C,B6-C7*%
X42037500Y-133500000D03*
X40462500Y-133500000D03*
%TD*%
D18*
%TO.C,B5-R26*%
X137237500Y-85225000D03*
X138812500Y-85225000D03*
%TD*%
D22*
%TO.C,B6-R33*%
X22065000Y-136754000D03*
X20415000Y-136754000D03*
%TD*%
D19*
%TO.C,B3-R38*%
X20415000Y-73982000D03*
X22065000Y-73982000D03*
%TD*%
D24*
%TO.C,B7-C4*%
X95750000Y-140375000D03*
X92950000Y-140375000D03*
%TD*%
D10*
%TO.C,B1-Q2*%
X61820000Y-39540000D03*
X61820000Y-38240000D03*
X59820000Y-38890000D03*
%TD*%
D19*
%TO.C,B8-R34*%
X137415000Y-138390000D03*
X139065000Y-138390000D03*
%TD*%
D15*
%TO.C,B3-C8*%
X45925000Y-69012500D03*
X45925000Y-70587500D03*
%TD*%
D13*
%TO.C,B7-D6*%
X67387500Y-128250000D03*
X65812500Y-128250000D03*
%TD*%
%TO.C,B7-R2*%
X64787500Y-144000000D03*
X63212500Y-144000000D03*
%TD*%
D21*
%TO.C,B2-C23*%
X149500000Y-22187500D03*
X149500000Y-20612500D03*
%TD*%
D15*
%TO.C,B3-R19*%
X7790000Y-104762500D03*
X7790000Y-106337500D03*
%TD*%
D22*
%TO.C,B2-R33*%
X139065000Y-17754000D03*
X137415000Y-17754000D03*
%TD*%
D18*
%TO.C,B2-R8*%
X170062500Y-24700000D03*
X171637500Y-24700000D03*
%TD*%
D29*
%TO.C,B7-Q4*%
X65520000Y-160590000D03*
X63620000Y-160590000D03*
X64570000Y-162590000D03*
%TD*%
D14*
%TO.C,B8-R28*%
X171910000Y-156985000D03*
X171910000Y-155335000D03*
%TD*%
D23*
%TO.C,B7-L1*%
X94900000Y-135675000D03*
X94900000Y-132075000D03*
%TD*%
D13*
%TO.C,B3-C7*%
X42037500Y-74000000D03*
X40462500Y-74000000D03*
%TD*%
D33*
%TO.C,B5-D13*%
X147500000Y-106050000D03*
X147500000Y-103950000D03*
%TD*%
D19*
%TO.C,B5-R36*%
X137415000Y-70710000D03*
X139065000Y-70710000D03*
%TD*%
D13*
%TO.C,B3-C24*%
X22387500Y-82100000D03*
X20812500Y-82100000D03*
%TD*%
D28*
%TO.C,B5-D11*%
X171750000Y-117500000D03*
X167750000Y-117500000D03*
%TD*%
D18*
%TO.C,B3-R31*%
X25212500Y-112000000D03*
X26787500Y-112000000D03*
%TD*%
D27*
%TO.C,B3-D4*%
X49740000Y-82040000D03*
X51140000Y-82040000D03*
%TD*%
D18*
%TO.C,B1-R31*%
X83712500Y-52500000D03*
X85287500Y-52500000D03*
%TD*%
D40*
%TO.C,B6-C11*%
X49305000Y-145840000D03*
X47755000Y-145840000D03*
%TD*%
D18*
%TO.C,B2-R17*%
X122282500Y-39940000D03*
X123857500Y-39940000D03*
%TD*%
%TO.C,B4-R31*%
X83712500Y-112000000D03*
X85287500Y-112000000D03*
%TD*%
D15*
%TO.C,B0-R3*%
X19950000Y-48712500D03*
X19950000Y-50287500D03*
%TD*%
D26*
%TO.C,B8-C9*%
X154350000Y-129937500D03*
X154350000Y-128062500D03*
%TD*%
D13*
%TO.C,B6-D5*%
X5987500Y-128250000D03*
X4412500Y-128250000D03*
%TD*%
D14*
%TO.C,B6-R28*%
X54910000Y-156985000D03*
X54910000Y-155335000D03*
%TD*%
D18*
%TO.C,B2-R25*%
X144322500Y-27210000D03*
X145897500Y-27210000D03*
%TD*%
D10*
%TO.C,B4-Q2*%
X61820000Y-99040000D03*
X61820000Y-97740000D03*
X59820000Y-98390000D03*
%TD*%
D18*
%TO.C,B6-C26*%
X40562500Y-128100000D03*
X42137500Y-128100000D03*
%TD*%
D28*
%TO.C,B1-D3*%
X99500000Y-17325000D03*
X103500000Y-17325000D03*
%TD*%
D14*
%TO.C,B3-R28*%
X54910000Y-97485000D03*
X54910000Y-95835000D03*
%TD*%
D15*
%TO.C,B4-C8*%
X104425000Y-69012500D03*
X104425000Y-70587500D03*
%TD*%
D36*
%TO.C,B1-U4*%
X105515000Y-57615000D03*
X102165000Y-57615000D03*
X102165000Y-54565000D03*
X105515000Y-54565000D03*
D37*
X97540000Y-53810000D03*
X97540000Y-54950000D03*
X97540000Y-57230000D03*
X97540000Y-58370000D03*
%TD*%
D21*
%TO.C,B3-R22*%
X32500000Y-103787500D03*
X32500000Y-102212500D03*
%TD*%
D30*
%TO.C,B2-U1*%
X127595000Y-46500000D03*
X128865000Y-46500000D03*
X130135000Y-46500000D03*
X131405000Y-46500000D03*
X132675000Y-46500000D03*
X133945000Y-46500000D03*
X135215000Y-46500000D03*
X136485000Y-46500000D03*
X137755000Y-46500000D03*
X139025000Y-46500000D03*
X140295000Y-46500000D03*
X141565000Y-46500000D03*
X142835000Y-46500000D03*
X144105000Y-46500000D03*
D31*
X145105000Y-43715000D03*
X145105000Y-42445000D03*
X145105000Y-41175000D03*
X145105000Y-39905000D03*
X145105000Y-38635000D03*
X145105000Y-37365000D03*
X145105000Y-36095000D03*
X145105000Y-34825000D03*
X145105000Y-33555000D03*
X145105000Y-32285000D03*
D30*
X144105000Y-29500000D03*
X142835000Y-29500000D03*
X141565000Y-29500000D03*
X140295000Y-29500000D03*
X139025000Y-29500000D03*
X137755000Y-29500000D03*
X136485000Y-29500000D03*
X135215000Y-29500000D03*
X133945000Y-29500000D03*
X132675000Y-29500000D03*
X131405000Y-29500000D03*
X130135000Y-29500000D03*
X128865000Y-29500000D03*
X127595000Y-29500000D03*
D32*
X135095000Y-39000000D03*
%TD*%
D13*
%TO.C,B8-D6*%
X125887500Y-128250000D03*
X124312500Y-128250000D03*
%TD*%
D18*
%TO.C,B1-C3*%
X89562500Y-34900000D03*
X91137500Y-34900000D03*
%TD*%
D15*
%TO.C,B4-R5*%
X63450000Y-96272500D03*
X63450000Y-97847500D03*
%TD*%
D22*
%TO.C,B0-R37*%
X22065000Y-12846000D03*
X20415000Y-12846000D03*
%TD*%
D29*
%TO.C,B1-Q5*%
X61810000Y-44850000D03*
X59910000Y-44850000D03*
X60860000Y-46850000D03*
%TD*%
D18*
%TO.C,B3-R6*%
X1532500Y-93460000D03*
X3107500Y-93460000D03*
%TD*%
D34*
%TO.C,B2-U2*%
X153600000Y-33205000D03*
X153600000Y-31935000D03*
X153600000Y-30665000D03*
X153600000Y-29395000D03*
X148200000Y-29395000D03*
X148200000Y-30665000D03*
X148200000Y-31935000D03*
X148200000Y-33205000D03*
%TD*%
D22*
%TO.C,B1-R37*%
X80565000Y-12846000D03*
X78915000Y-12846000D03*
%TD*%
D15*
%TO.C,B5-R9*%
X161325000Y-68987500D03*
X161325000Y-70562500D03*
%TD*%
D21*
%TO.C,B4-R20*%
X63570000Y-106277500D03*
X63570000Y-104702500D03*
%TD*%
D10*
%TO.C,B6-Q2*%
X3320000Y-158540000D03*
X3320000Y-157240000D03*
X1320000Y-157890000D03*
%TD*%
D13*
%TO.C,B8-R2*%
X123287500Y-144000000D03*
X121712500Y-144000000D03*
%TD*%
D18*
%TO.C,B7-C26*%
X99062500Y-128100000D03*
X100637500Y-128100000D03*
%TD*%
%TO.C,B1-R21*%
X93212500Y-43750000D03*
X94787500Y-43750000D03*
%TD*%
D30*
%TO.C,B1-U1*%
X69095000Y-46500000D03*
X70365000Y-46500000D03*
X71635000Y-46500000D03*
X72905000Y-46500000D03*
X74175000Y-46500000D03*
X75445000Y-46500000D03*
X76715000Y-46500000D03*
X77985000Y-46500000D03*
X79255000Y-46500000D03*
X80525000Y-46500000D03*
X81795000Y-46500000D03*
X83065000Y-46500000D03*
X84335000Y-46500000D03*
X85605000Y-46500000D03*
D31*
X86605000Y-43715000D03*
X86605000Y-42445000D03*
X86605000Y-41175000D03*
X86605000Y-39905000D03*
X86605000Y-38635000D03*
X86605000Y-37365000D03*
X86605000Y-36095000D03*
X86605000Y-34825000D03*
X86605000Y-33555000D03*
X86605000Y-32285000D03*
D30*
X85605000Y-29500000D03*
X84335000Y-29500000D03*
X83065000Y-29500000D03*
X81795000Y-29500000D03*
X80525000Y-29500000D03*
X79255000Y-29500000D03*
X77985000Y-29500000D03*
X76715000Y-29500000D03*
X75445000Y-29500000D03*
X74175000Y-29500000D03*
X72905000Y-29500000D03*
X71635000Y-29500000D03*
X70365000Y-29500000D03*
X69095000Y-29500000D03*
D32*
X76595000Y-39000000D03*
%TD*%
D27*
%TO.C,B1-D4*%
X108240000Y-22540000D03*
X109640000Y-22540000D03*
%TD*%
D15*
%TO.C,B3-R4*%
X21600000Y-108212500D03*
X21600000Y-109787500D03*
%TD*%
D13*
%TO.C,B8-R23*%
X139397500Y-140030000D03*
X137822500Y-140030000D03*
%TD*%
D21*
%TO.C,B5-R22*%
X149500000Y-103787500D03*
X149500000Y-102212500D03*
%TD*%
D30*
%TO.C,B7-U1*%
X69095000Y-165500000D03*
X70365000Y-165500000D03*
X71635000Y-165500000D03*
X72905000Y-165500000D03*
X74175000Y-165500000D03*
X75445000Y-165500000D03*
X76715000Y-165500000D03*
X77985000Y-165500000D03*
X79255000Y-165500000D03*
X80525000Y-165500000D03*
X81795000Y-165500000D03*
X83065000Y-165500000D03*
X84335000Y-165500000D03*
X85605000Y-165500000D03*
D31*
X86605000Y-162715000D03*
X86605000Y-161445000D03*
X86605000Y-160175000D03*
X86605000Y-158905000D03*
X86605000Y-157635000D03*
X86605000Y-156365000D03*
X86605000Y-155095000D03*
X86605000Y-153825000D03*
X86605000Y-152555000D03*
X86605000Y-151285000D03*
D30*
X85605000Y-148500000D03*
X84335000Y-148500000D03*
X83065000Y-148500000D03*
X81795000Y-148500000D03*
X80525000Y-148500000D03*
X79255000Y-148500000D03*
X77985000Y-148500000D03*
X76715000Y-148500000D03*
X75445000Y-148500000D03*
X74175000Y-148500000D03*
X72905000Y-148500000D03*
X71635000Y-148500000D03*
X70365000Y-148500000D03*
X69095000Y-148500000D03*
D32*
X76595000Y-158000000D03*
%TD*%
D38*
%TO.C,B4-J3*%
X98230000Y-110180000D03*
X103270000Y-110180000D03*
X98230000Y-107640000D03*
X103270000Y-107640000D03*
X98230000Y-105100000D03*
X103270000Y-105100000D03*
X98230000Y-102560000D03*
X103270000Y-102560000D03*
X98230000Y-100020000D03*
X103270000Y-100020000D03*
X98230000Y-97480000D03*
X103270000Y-97480000D03*
X98230000Y-94940000D03*
X103270000Y-94940000D03*
X98230000Y-92400000D03*
X103270000Y-92400000D03*
X98230000Y-89860000D03*
X103270000Y-89860000D03*
X98230000Y-87320000D03*
X103270000Y-87320000D03*
%TD*%
D11*
%TO.C,B6-SW4*%
X18900000Y-132320000D03*
X8600000Y-132320000D03*
X8600000Y-134530000D03*
X18900000Y-134530000D03*
D12*
X16750000Y-135180000D03*
X15250000Y-135180000D03*
X12250000Y-135180000D03*
X10750000Y-135180000D03*
%TD*%
D13*
%TO.C,B6-C2*%
X11575000Y-167650000D03*
X10000000Y-167650000D03*
%TD*%
D26*
%TO.C,B6-C10*%
X35300000Y-129962500D03*
X35300000Y-128087500D03*
%TD*%
D15*
%TO.C,B2-R4*%
X138600000Y-48712500D03*
X138600000Y-50287500D03*
%TD*%
D18*
%TO.C,B7-C3*%
X89562500Y-153900000D03*
X91137500Y-153900000D03*
%TD*%
D10*
%TO.C,B0-Q2*%
X3320000Y-39540000D03*
X3320000Y-38240000D03*
X1320000Y-38890000D03*
%TD*%
D17*
%TO.C,B3-SW1*%
X8630000Y-79470000D03*
X4530000Y-79470000D03*
X4530000Y-81070000D03*
X8630000Y-81070000D03*
%TD*%
D19*
%TO.C,B2-R35*%
X137415000Y-16118000D03*
X139065000Y-16118000D03*
%TD*%
D27*
%TO.C,B1-D12*%
X102025000Y-14525000D03*
X103425000Y-14525000D03*
%TD*%
D13*
%TO.C,B7-R24*%
X84177500Y-146200000D03*
X82602500Y-146200000D03*
%TD*%
D27*
%TO.C,B0-D15*%
X49750000Y-24060000D03*
X51150000Y-24060000D03*
%TD*%
D18*
%TO.C,B3-C3*%
X31062500Y-94400000D03*
X32637500Y-94400000D03*
%TD*%
D13*
%TO.C,B0-C2*%
X11575000Y-48650000D03*
X10000000Y-48650000D03*
%TD*%
%TO.C,B0-R24*%
X25677500Y-27200000D03*
X24102500Y-27200000D03*
%TD*%
D15*
%TO.C,B7-R9*%
X102825000Y-128487500D03*
X102825000Y-130062500D03*
%TD*%
D28*
%TO.C,B2-D3*%
X158000000Y-17325000D03*
X162000000Y-17325000D03*
%TD*%
D19*
%TO.C,B7-R38*%
X78915000Y-133482000D03*
X80565000Y-133482000D03*
%TD*%
D22*
%TO.C,B7-R33*%
X80565000Y-136754000D03*
X78915000Y-136754000D03*
%TD*%
D13*
%TO.C,B6-D9*%
X17587500Y-128250000D03*
X16012500Y-128250000D03*
%TD*%
D18*
%TO.C,B4-R17*%
X63782500Y-99440000D03*
X65357500Y-99440000D03*
%TD*%
D10*
%TO.C,B1-Q1*%
X61820000Y-36790000D03*
X61820000Y-35490000D03*
X59820000Y-36140000D03*
%TD*%
D15*
%TO.C,B0-C8*%
X45925000Y-9512500D03*
X45925000Y-11087500D03*
%TD*%
D29*
%TO.C,B8-Q6*%
X153450000Y-164500000D03*
X151550000Y-164500000D03*
X152500000Y-166500000D03*
%TD*%
D23*
%TO.C,B8-L1*%
X153400000Y-135675000D03*
X153400000Y-132075000D03*
%TD*%
D21*
%TO.C,B2-R7*%
X149780000Y-40497500D03*
X149780000Y-38922500D03*
%TD*%
D40*
%TO.C,B4-C11*%
X107805000Y-86340000D03*
X106255000Y-86340000D03*
%TD*%
D18*
%TO.C,B3-R26*%
X20237500Y-85225000D03*
X21812500Y-85225000D03*
%TD*%
D34*
%TO.C,B1-U2*%
X95100000Y-33205000D03*
X95100000Y-31935000D03*
X95100000Y-30665000D03*
X95100000Y-29395000D03*
X89700000Y-29395000D03*
X89700000Y-30665000D03*
X89700000Y-31935000D03*
X89700000Y-33205000D03*
%TD*%
D22*
%TO.C,B4-R37*%
X80565000Y-72346000D03*
X78915000Y-72346000D03*
%TD*%
D13*
%TO.C,B1-C2*%
X70075000Y-48650000D03*
X68500000Y-48650000D03*
%TD*%
D17*
%TO.C,B2-SW1*%
X125630000Y-19970000D03*
X121530000Y-19970000D03*
X121530000Y-21570000D03*
X125630000Y-21570000D03*
%TD*%
D25*
%TO.C,B7-F1*%
X113387500Y-173250000D03*
X109112500Y-173250000D03*
%TD*%
D26*
%TO.C,B4-C9*%
X95850000Y-70437500D03*
X95850000Y-68562500D03*
%TD*%
D13*
%TO.C,B5-D10*%
X137487500Y-68750000D03*
X135912500Y-68750000D03*
%TD*%
%TO.C,B7-C24*%
X80887500Y-141600000D03*
X79312500Y-141600000D03*
%TD*%
D21*
%TO.C,B7-R12*%
X91000000Y-166325000D03*
X91000000Y-164750000D03*
%TD*%
D24*
%TO.C,B6-C5*%
X37250000Y-137875000D03*
X34450000Y-137875000D03*
%TD*%
D13*
%TO.C,B3-C22*%
X21862500Y-83690000D03*
X20287500Y-83690000D03*
%TD*%
D11*
%TO.C,B0-SW4*%
X8600000Y-15530000D03*
X8600000Y-13320000D03*
X18900000Y-13320000D03*
X18900000Y-15530000D03*
D12*
X16750000Y-16180000D03*
X15250000Y-16180000D03*
X12250000Y-16180000D03*
X10750000Y-16180000D03*
%TD*%
D19*
%TO.C,B2-R34*%
X137415000Y-19390000D03*
X139065000Y-19390000D03*
%TD*%
D36*
%TO.C,B2-U4*%
X160665000Y-54565000D03*
X160665000Y-57615000D03*
X164015000Y-57615000D03*
X164015000Y-54565000D03*
D37*
X156040000Y-53810000D03*
X156040000Y-54950000D03*
X156040000Y-57230000D03*
X156040000Y-58370000D03*
%TD*%
D38*
%TO.C,B3-J3*%
X39730000Y-110180000D03*
X44770000Y-110180000D03*
X39730000Y-107640000D03*
X44770000Y-107640000D03*
X39730000Y-105100000D03*
X44770000Y-105100000D03*
X39730000Y-102560000D03*
X44770000Y-102560000D03*
X39730000Y-100020000D03*
X44770000Y-100020000D03*
X39730000Y-97480000D03*
X44770000Y-97480000D03*
X39730000Y-94940000D03*
X44770000Y-94940000D03*
X39730000Y-92400000D03*
X44770000Y-92400000D03*
X39730000Y-89860000D03*
X44770000Y-89860000D03*
X39730000Y-87320000D03*
X44770000Y-87320000D03*
%TD*%
D18*
%TO.C,B4-R10*%
X102837500Y-72125000D03*
X104412500Y-72125000D03*
%TD*%
D13*
%TO.C,B5-D7*%
X128787500Y-68750000D03*
X127212500Y-68750000D03*
%TD*%
D21*
%TO.C,B7-R22*%
X91000000Y-163287500D03*
X91000000Y-161712500D03*
%TD*%
D40*
%TO.C,B7-C11*%
X107805000Y-145840000D03*
X106255000Y-145840000D03*
%TD*%
D28*
%TO.C,B6-D3*%
X41000000Y-136325000D03*
X45000000Y-136325000D03*
%TD*%
D10*
%TO.C,B8-Q2*%
X120320000Y-158540000D03*
X120320000Y-157240000D03*
X118320000Y-157890000D03*
%TD*%
D39*
%TO.C,B5-D2*%
X169800000Y-82200000D03*
X171900000Y-82200000D03*
%TD*%
D15*
%TO.C,B7-R4*%
X80100000Y-167712500D03*
X80100000Y-169287500D03*
%TD*%
D23*
%TO.C,B5-L1*%
X153400000Y-76175000D03*
X153400000Y-72575000D03*
%TD*%
D18*
%TO.C,B6-R27*%
X20832500Y-146360000D03*
X22407500Y-146360000D03*
%TD*%
D34*
%TO.C,B3-U2*%
X36600000Y-92705000D03*
X36600000Y-91435000D03*
X36600000Y-90165000D03*
X36600000Y-88895000D03*
X31200000Y-88895000D03*
X31200000Y-90165000D03*
X31200000Y-91435000D03*
X31200000Y-92705000D03*
%TD*%
D13*
%TO.C,B1-R15*%
X96337500Y-25050000D03*
X94762500Y-25050000D03*
%TD*%
%TO.C,B0-D10*%
X20487500Y-9250000D03*
X18912500Y-9250000D03*
%TD*%
%TO.C,B7-C2*%
X70075000Y-167650000D03*
X68500000Y-167650000D03*
%TD*%
D18*
%TO.C,B4-R27*%
X79332500Y-86860000D03*
X80907500Y-86860000D03*
%TD*%
D33*
%TO.C,B0-D14*%
X47970000Y-30460000D03*
X47970000Y-28360000D03*
%TD*%
D13*
%TO.C,B0-D9*%
X17587500Y-9250000D03*
X16012500Y-9250000D03*
%TD*%
D39*
%TO.C,B3-D2*%
X52800000Y-82200000D03*
X54900000Y-82200000D03*
%TD*%
D18*
%TO.C,B2-C1*%
X118452500Y-41130000D03*
X120027500Y-41130000D03*
%TD*%
%TO.C,B0-R27*%
X20832500Y-27360000D03*
X22407500Y-27360000D03*
%TD*%
D25*
%TO.C,B5-F1*%
X171887500Y-113750000D03*
X167612500Y-113750000D03*
%TD*%
D18*
%TO.C,B8-R27*%
X137832500Y-146360000D03*
X139407500Y-146360000D03*
%TD*%
D19*
%TO.C,B7-R35*%
X78915000Y-135118000D03*
X80565000Y-135118000D03*
%TD*%
D27*
%TO.C,B4-D15*%
X108250000Y-83560000D03*
X109650000Y-83560000D03*
%TD*%
D13*
%TO.C,B0-R23*%
X22397500Y-21030000D03*
X20822500Y-21030000D03*
%TD*%
D15*
%TO.C,B1-C21*%
X91000000Y-23862500D03*
X91000000Y-25437500D03*
%TD*%
D29*
%TO.C,B0-Q6*%
X36450000Y-45500000D03*
X34550000Y-45500000D03*
X35500000Y-47500000D03*
%TD*%
D13*
%TO.C,B1-D7*%
X70287500Y-9250000D03*
X68712500Y-9250000D03*
%TD*%
D15*
%TO.C,B0-R19*%
X7790000Y-45262500D03*
X7790000Y-46837500D03*
%TD*%
D19*
%TO.C,B3-R35*%
X20415000Y-75618000D03*
X22065000Y-75618000D03*
%TD*%
D33*
%TO.C,B6-D13*%
X30500000Y-165550000D03*
X30500000Y-163450000D03*
%TD*%
D16*
%TO.C,B8-C6*%
X168750000Y-169250000D03*
X168750000Y-162750000D03*
%TD*%
D17*
%TO.C,B5-SW1*%
X125630000Y-79470000D03*
X121530000Y-79470000D03*
X125630000Y-81070000D03*
X121530000Y-81070000D03*
%TD*%
D13*
%TO.C,B0-R15*%
X37837500Y-25050000D03*
X36262500Y-25050000D03*
%TD*%
%TO.C,B3-R15*%
X37837500Y-84550000D03*
X36262500Y-84550000D03*
%TD*%
D19*
%TO.C,B8-R36*%
X137415000Y-130210000D03*
X139065000Y-130210000D03*
%TD*%
%TO.C,B6-R38*%
X20415000Y-133482000D03*
X22065000Y-133482000D03*
%TD*%
D13*
%TO.C,B3-D8*%
X14687500Y-68750000D03*
X13112500Y-68750000D03*
%TD*%
D18*
%TO.C,B1-R25*%
X85822500Y-27210000D03*
X87397500Y-27210000D03*
%TD*%
D23*
%TO.C,B6-L1*%
X36400000Y-135675000D03*
X36400000Y-132075000D03*
%TD*%
D19*
%TO.C,B0-R34*%
X20415000Y-19390000D03*
X22065000Y-19390000D03*
%TD*%
D10*
%TO.C,B2-Q1*%
X120320000Y-36790000D03*
X120320000Y-35490000D03*
X118320000Y-36140000D03*
%TD*%
D13*
%TO.C,B4-R15*%
X96337500Y-84550000D03*
X94762500Y-84550000D03*
%TD*%
D34*
%TO.C,B4-U2*%
X95100000Y-92705000D03*
X95100000Y-91435000D03*
X95100000Y-90165000D03*
X95100000Y-88895000D03*
X89700000Y-88895000D03*
X89700000Y-90165000D03*
X89700000Y-91435000D03*
X89700000Y-92705000D03*
%TD*%
D21*
%TO.C,B8-R12*%
X149500000Y-166325000D03*
X149500000Y-164750000D03*
%TD*%
D27*
%TO.C,B3-D15*%
X49750000Y-83560000D03*
X51150000Y-83560000D03*
%TD*%
%TO.C,B6-D12*%
X43525000Y-133525000D03*
X44925000Y-133525000D03*
%TD*%
D15*
%TO.C,B5-R3*%
X136950000Y-108212500D03*
X136950000Y-109787500D03*
%TD*%
D21*
%TO.C,B3-R7*%
X32780000Y-99997500D03*
X32780000Y-98422500D03*
%TD*%
D13*
%TO.C,B6-D6*%
X8887500Y-128250000D03*
X7312500Y-128250000D03*
%TD*%
D19*
%TO.C,B5-R35*%
X137415000Y-75618000D03*
X139065000Y-75618000D03*
%TD*%
D33*
%TO.C,B5-D14*%
X164970000Y-89960000D03*
X164970000Y-87860000D03*
%TD*%
D21*
%TO.C,B2-R20*%
X122070000Y-46777500D03*
X122070000Y-45202500D03*
%TD*%
D27*
%TO.C,B7-D1*%
X108240000Y-140040000D03*
X109640000Y-140040000D03*
%TD*%
D13*
%TO.C,B5-C7*%
X159037500Y-74000000D03*
X157462500Y-74000000D03*
%TD*%
D18*
%TO.C,B6-R21*%
X34712500Y-162750000D03*
X36287500Y-162750000D03*
%TD*%
D27*
%TO.C,B8-D4*%
X166740000Y-141540000D03*
X168140000Y-141540000D03*
%TD*%
D13*
%TO.C,B8-C24*%
X139387500Y-141600000D03*
X137812500Y-141600000D03*
%TD*%
D25*
%TO.C,B0-F1*%
X54887500Y-54250000D03*
X50612500Y-54250000D03*
%TD*%
D27*
%TO.C,B8-D15*%
X166750000Y-143060000D03*
X168150000Y-143060000D03*
%TD*%
D21*
%TO.C,B6-R12*%
X32500000Y-166325000D03*
X32500000Y-164750000D03*
%TD*%
D20*
%TO.C,B0-U3*%
X42650000Y-12750000D03*
X42650000Y-11800000D03*
X42650000Y-10850000D03*
X40450000Y-10850000D03*
X40450000Y-11800000D03*
X40450000Y-12750000D03*
%TD*%
D15*
%TO.C,B7-C21*%
X91000000Y-142862500D03*
X91000000Y-144437500D03*
%TD*%
D13*
%TO.C,B2-D10*%
X137487500Y-9250000D03*
X135912500Y-9250000D03*
%TD*%
D18*
%TO.C,B0-R31*%
X25212500Y-52500000D03*
X26787500Y-52500000D03*
%TD*%
D25*
%TO.C,B3-F1*%
X54887500Y-113750000D03*
X50612500Y-113750000D03*
%TD*%
D26*
%TO.C,B1-C9*%
X95850000Y-10937500D03*
X95850000Y-9062500D03*
%TD*%
D16*
%TO.C,B6-C6*%
X51750000Y-169250000D03*
X51750000Y-162750000D03*
%TD*%
D13*
%TO.C,B0-C24*%
X22387500Y-22600000D03*
X20812500Y-22600000D03*
%TD*%
D26*
%TO.C,B5-C10*%
X152300000Y-70462500D03*
X152300000Y-68587500D03*
%TD*%
D35*
%TO.C,B5-U7*%
X141550000Y-79225000D03*
X141550000Y-79875000D03*
X141550000Y-80525000D03*
X141550000Y-81175000D03*
X141550000Y-81825000D03*
X141550000Y-82475000D03*
X141550000Y-83125000D03*
X141550000Y-83775000D03*
X141550000Y-84425000D03*
X141550000Y-85075000D03*
X147450000Y-85075000D03*
X147450000Y-84425000D03*
X147450000Y-83775000D03*
X147450000Y-83125000D03*
X147450000Y-82475000D03*
X147450000Y-81825000D03*
X147450000Y-81175000D03*
X147450000Y-80525000D03*
X147450000Y-79875000D03*
X147450000Y-79225000D03*
%TD*%
D13*
%TO.C,B8-C22*%
X138862500Y-143190000D03*
X137287500Y-143190000D03*
%TD*%
D27*
%TO.C,B2-D4*%
X166740000Y-22540000D03*
X168140000Y-22540000D03*
%TD*%
D18*
%TO.C,B8-C3*%
X148062500Y-153900000D03*
X149637500Y-153900000D03*
%TD*%
%TO.C,B8-R21*%
X151712500Y-162750000D03*
X153287500Y-162750000D03*
%TD*%
D13*
%TO.C,B8-R15*%
X154837500Y-144050000D03*
X153262500Y-144050000D03*
%TD*%
D27*
%TO.C,B1-D1*%
X108240000Y-21040000D03*
X109640000Y-21040000D03*
%TD*%
%TO.C,B6-D15*%
X49750000Y-143060000D03*
X51150000Y-143060000D03*
%TD*%
D18*
%TO.C,B7-C1*%
X59952500Y-160130000D03*
X61527500Y-160130000D03*
%TD*%
D24*
%TO.C,B8-C5*%
X154250000Y-137875000D03*
X151450000Y-137875000D03*
%TD*%
D21*
%TO.C,B4-R1*%
X106890000Y-82127500D03*
X106890000Y-80552500D03*
%TD*%
D13*
%TO.C,B1-R2*%
X64787500Y-25000000D03*
X63212500Y-25000000D03*
%TD*%
D22*
%TO.C,B8-R32*%
X165185000Y-144090000D03*
X163535000Y-144090000D03*
%TD*%
D28*
%TO.C,B7-D11*%
X113250000Y-177000000D03*
X109250000Y-177000000D03*
%TD*%
D13*
%TO.C,B5-C24*%
X139387500Y-82100000D03*
X137812500Y-82100000D03*
%TD*%
D40*
%TO.C,B5-C11*%
X166305000Y-86340000D03*
X164755000Y-86340000D03*
%TD*%
D38*
%TO.C,B7-J3*%
X98230000Y-169680000D03*
X103270000Y-169680000D03*
X98230000Y-167140000D03*
X103270000Y-167140000D03*
X98230000Y-164600000D03*
X103270000Y-164600000D03*
X98230000Y-162060000D03*
X103270000Y-162060000D03*
X98230000Y-159520000D03*
X103270000Y-159520000D03*
X98230000Y-156980000D03*
X103270000Y-156980000D03*
X98230000Y-154440000D03*
X103270000Y-154440000D03*
X98230000Y-151900000D03*
X103270000Y-151900000D03*
X98230000Y-149360000D03*
X103270000Y-149360000D03*
X98230000Y-146820000D03*
X103270000Y-146820000D03*
%TD*%
D15*
%TO.C,B8-R19*%
X124790000Y-164262500D03*
X124790000Y-165837500D03*
%TD*%
D13*
%TO.C,B7-D8*%
X73187500Y-128250000D03*
X71612500Y-128250000D03*
%TD*%
D29*
%TO.C,B0-Q4*%
X7020000Y-41590000D03*
X5120000Y-41590000D03*
X6070000Y-43590000D03*
%TD*%
D18*
%TO.C,B5-R25*%
X144322500Y-86710000D03*
X145897500Y-86710000D03*
%TD*%
%TO.C,B3-R11*%
X30812500Y-86600000D03*
X32387500Y-86600000D03*
%TD*%
D20*
%TO.C,B4-U3*%
X101150000Y-72250000D03*
X101150000Y-71300000D03*
X101150000Y-70350000D03*
X98950000Y-70350000D03*
X98950000Y-71300000D03*
X98950000Y-72250000D03*
%TD*%
D38*
%TO.C,B8-J3*%
X156730000Y-169680000D03*
X161770000Y-169680000D03*
X156730000Y-167140000D03*
X161770000Y-167140000D03*
X156730000Y-164600000D03*
X161770000Y-164600000D03*
X156730000Y-162060000D03*
X161770000Y-162060000D03*
X156730000Y-159520000D03*
X161770000Y-159520000D03*
X156730000Y-156980000D03*
X161770000Y-156980000D03*
X156730000Y-154440000D03*
X161770000Y-154440000D03*
X156730000Y-151900000D03*
X161770000Y-151900000D03*
X156730000Y-149360000D03*
X161770000Y-149360000D03*
X156730000Y-146820000D03*
X161770000Y-146820000D03*
%TD*%
D29*
%TO.C,B2-Q6*%
X153450000Y-45500000D03*
X151550000Y-45500000D03*
X152500000Y-47500000D03*
%TD*%
D18*
%TO.C,B5-C3*%
X148062500Y-94400000D03*
X149637500Y-94400000D03*
%TD*%
%TO.C,B2-R21*%
X151712500Y-43750000D03*
X153287500Y-43750000D03*
%TD*%
D21*
%TO.C,B7-R20*%
X63570000Y-165777500D03*
X63570000Y-164202500D03*
%TD*%
D39*
%TO.C,B2-D2*%
X169800000Y-22700000D03*
X171900000Y-22700000D03*
%TD*%
D28*
%TO.C,B8-D3*%
X158000000Y-136325000D03*
X162000000Y-136325000D03*
%TD*%
D21*
%TO.C,B1-R1*%
X106890000Y-22627500D03*
X106890000Y-21052500D03*
%TD*%
D22*
%TO.C,B4-R32*%
X106685000Y-84590000D03*
X105035000Y-84590000D03*
%TD*%
D15*
%TO.C,B3-R9*%
X44325000Y-68987500D03*
X44325000Y-70562500D03*
%TD*%
D33*
%TO.C,B4-D14*%
X106470000Y-89960000D03*
X106470000Y-87860000D03*
%TD*%
D18*
%TO.C,B1-R10*%
X102837500Y-12625000D03*
X104412500Y-12625000D03*
%TD*%
D11*
%TO.C,B3-SW4*%
X18900000Y-72820000D03*
X8600000Y-72820000D03*
X18900000Y-75030000D03*
X8600000Y-75030000D03*
D12*
X16750000Y-75680000D03*
X15250000Y-75680000D03*
X12250000Y-75680000D03*
X10750000Y-75680000D03*
%TD*%
D29*
%TO.C,B2-Q5*%
X120310000Y-44850000D03*
X118410000Y-44850000D03*
X119360000Y-46850000D03*
%TD*%
D10*
%TO.C,B5-Q1*%
X120320000Y-96290000D03*
X120320000Y-94990000D03*
X118320000Y-95640000D03*
%TD*%
D13*
%TO.C,B4-D10*%
X78987500Y-68750000D03*
X77412500Y-68750000D03*
%TD*%
%TO.C,B4-C22*%
X80362500Y-83690000D03*
X78787500Y-83690000D03*
%TD*%
D18*
%TO.C,B5-C26*%
X157562500Y-68600000D03*
X159137500Y-68600000D03*
%TD*%
D27*
%TO.C,B5-D12*%
X160525000Y-74025000D03*
X161925000Y-74025000D03*
%TD*%
D13*
%TO.C,B3-D7*%
X11787500Y-68750000D03*
X10212500Y-68750000D03*
%TD*%
D18*
%TO.C,B2-R16*%
X153262500Y-23550000D03*
X154837500Y-23550000D03*
%TD*%
D33*
%TO.C,B4-D13*%
X89000000Y-106050000D03*
X89000000Y-103950000D03*
%TD*%
D24*
%TO.C,B1-C5*%
X95750000Y-18875000D03*
X92950000Y-18875000D03*
%TD*%
D19*
%TO.C,B6-R36*%
X20415000Y-130210000D03*
X22065000Y-130210000D03*
%TD*%
D29*
%TO.C,B4-Q6*%
X94950000Y-105000000D03*
X93050000Y-105000000D03*
X94000000Y-107000000D03*
%TD*%
D27*
%TO.C,B6-D1*%
X49740000Y-140040000D03*
X51140000Y-140040000D03*
%TD*%
D13*
%TO.C,B1-C22*%
X80362500Y-24190000D03*
X78787500Y-24190000D03*
%TD*%
%TO.C,B2-C22*%
X138862500Y-24190000D03*
X137287500Y-24190000D03*
%TD*%
%TO.C,B4-D8*%
X73187500Y-68750000D03*
X71612500Y-68750000D03*
%TD*%
D33*
%TO.C,B7-D14*%
X106470000Y-149460000D03*
X106470000Y-147360000D03*
%TD*%
D13*
%TO.C,B7-D7*%
X70287500Y-128250000D03*
X68712500Y-128250000D03*
%TD*%
D19*
%TO.C,B4-R34*%
X78915000Y-78890000D03*
X80565000Y-78890000D03*
%TD*%
D18*
%TO.C,B8-C26*%
X157562500Y-128100000D03*
X159137500Y-128100000D03*
%TD*%
%TO.C,B8-R17*%
X122282500Y-158940000D03*
X123857500Y-158940000D03*
%TD*%
D21*
%TO.C,B5-R7*%
X149780000Y-99997500D03*
X149780000Y-98422500D03*
%TD*%
D15*
%TO.C,B4-R19*%
X66290000Y-104762500D03*
X66290000Y-106337500D03*
%TD*%
D13*
%TO.C,B5-R23*%
X139397500Y-80530000D03*
X137822500Y-80530000D03*
%TD*%
D11*
%TO.C,B8-SW4*%
X135900000Y-134530000D03*
X125600000Y-134530000D03*
X125600000Y-132320000D03*
X135900000Y-132320000D03*
D12*
X133750000Y-135180000D03*
X132250000Y-135180000D03*
X129250000Y-135180000D03*
X127750000Y-135180000D03*
%TD*%
D18*
%TO.C,B3-R17*%
X5282500Y-99440000D03*
X6857500Y-99440000D03*
%TD*%
D28*
%TO.C,B8-D11*%
X171750000Y-177000000D03*
X167750000Y-177000000D03*
%TD*%
D25*
%TO.C,B6-F1*%
X54887500Y-173250000D03*
X50612500Y-173250000D03*
%TD*%
D13*
%TO.C,B4-D9*%
X76087500Y-68750000D03*
X74512500Y-68750000D03*
%TD*%
D22*
%TO.C,B2-R32*%
X165185000Y-25090000D03*
X163535000Y-25090000D03*
%TD*%
D30*
%TO.C,B6-U1*%
X10595000Y-165500000D03*
X11865000Y-165500000D03*
X13135000Y-165500000D03*
X14405000Y-165500000D03*
X15675000Y-165500000D03*
X16945000Y-165500000D03*
X18215000Y-165500000D03*
X19485000Y-165500000D03*
X20755000Y-165500000D03*
X22025000Y-165500000D03*
X23295000Y-165500000D03*
X24565000Y-165500000D03*
X25835000Y-165500000D03*
X27105000Y-165500000D03*
D31*
X28105000Y-162715000D03*
X28105000Y-161445000D03*
X28105000Y-160175000D03*
X28105000Y-158905000D03*
X28105000Y-157635000D03*
X28105000Y-156365000D03*
X28105000Y-155095000D03*
X28105000Y-153825000D03*
X28105000Y-152555000D03*
X28105000Y-151285000D03*
D30*
X27105000Y-148500000D03*
X25835000Y-148500000D03*
X24565000Y-148500000D03*
X23295000Y-148500000D03*
X22025000Y-148500000D03*
X20755000Y-148500000D03*
X19485000Y-148500000D03*
X18215000Y-148500000D03*
X16945000Y-148500000D03*
X15675000Y-148500000D03*
X14405000Y-148500000D03*
X13135000Y-148500000D03*
X11865000Y-148500000D03*
X10595000Y-148500000D03*
D32*
X18095000Y-158000000D03*
%TD*%
D19*
%TO.C,B1-R35*%
X78915000Y-16118000D03*
X80565000Y-16118000D03*
%TD*%
D18*
%TO.C,B3-R25*%
X27322500Y-86710000D03*
X28897500Y-86710000D03*
%TD*%
D21*
%TO.C,B0-R20*%
X5070000Y-46777500D03*
X5070000Y-45202500D03*
%TD*%
D29*
%TO.C,B7-Q5*%
X61810000Y-163850000D03*
X59910000Y-163850000D03*
X60860000Y-165850000D03*
%TD*%
D20*
%TO.C,B6-U3*%
X42650000Y-131750000D03*
X42650000Y-130800000D03*
X42650000Y-129850000D03*
X40450000Y-129850000D03*
X40450000Y-130800000D03*
X40450000Y-131750000D03*
%TD*%
D15*
%TO.C,B1-R3*%
X78450000Y-48712500D03*
X78450000Y-50287500D03*
%TD*%
D36*
%TO.C,B7-U4*%
X102165000Y-176615000D03*
X102165000Y-173565000D03*
X105515000Y-173565000D03*
X105515000Y-176615000D03*
D37*
X97540000Y-172810000D03*
X97540000Y-173950000D03*
X97540000Y-176230000D03*
X97540000Y-177370000D03*
%TD*%
D19*
%TO.C,B5-R34*%
X137415000Y-78890000D03*
X139065000Y-78890000D03*
%TD*%
D26*
%TO.C,B0-C10*%
X35300000Y-10962500D03*
X35300000Y-9087500D03*
%TD*%
D25*
%TO.C,B4-F1*%
X113387500Y-113750000D03*
X109112500Y-113750000D03*
%TD*%
D27*
%TO.C,B7-D12*%
X102025000Y-133525000D03*
X103425000Y-133525000D03*
%TD*%
D13*
%TO.C,B4-R2*%
X64787500Y-84500000D03*
X63212500Y-84500000D03*
%TD*%
D19*
%TO.C,B7-R36*%
X78915000Y-130210000D03*
X80565000Y-130210000D03*
%TD*%
D15*
%TO.C,B3-C21*%
X32500000Y-83362500D03*
X32500000Y-84937500D03*
%TD*%
D29*
%TO.C,B6-Q6*%
X36450000Y-164500000D03*
X34550000Y-164500000D03*
X35500000Y-166500000D03*
%TD*%
D18*
%TO.C,B1-R18*%
X60072500Y-43220000D03*
X61647500Y-43220000D03*
%TD*%
D21*
%TO.C,B0-R12*%
X32500000Y-47325000D03*
X32500000Y-45750000D03*
%TD*%
D15*
%TO.C,B5-R19*%
X124790000Y-104762500D03*
X124790000Y-106337500D03*
%TD*%
D27*
%TO.C,B7-D4*%
X108240000Y-141540000D03*
X109640000Y-141540000D03*
%TD*%
D18*
%TO.C,B8-R11*%
X147812500Y-146100000D03*
X149387500Y-146100000D03*
%TD*%
D33*
%TO.C,B2-D14*%
X164970000Y-30460000D03*
X164970000Y-28360000D03*
%TD*%
D27*
%TO.C,B3-D12*%
X43525000Y-74025000D03*
X44925000Y-74025000D03*
%TD*%
D29*
%TO.C,B6-Q4*%
X7020000Y-160590000D03*
X5120000Y-160590000D03*
X6070000Y-162590000D03*
%TD*%
D15*
%TO.C,B0-C21*%
X32500000Y-23862500D03*
X32500000Y-25437500D03*
%TD*%
D26*
%TO.C,B3-C9*%
X37350000Y-70437500D03*
X37350000Y-68562500D03*
%TD*%
D21*
%TO.C,B7-C23*%
X91000000Y-141187500D03*
X91000000Y-139612500D03*
%TD*%
%TO.C,B2-R12*%
X149500000Y-47325000D03*
X149500000Y-45750000D03*
%TD*%
D13*
%TO.C,B4-R23*%
X80897500Y-80530000D03*
X79322500Y-80530000D03*
%TD*%
D15*
%TO.C,B7-R5*%
X63450000Y-155772500D03*
X63450000Y-157347500D03*
%TD*%
D18*
%TO.C,B0-R25*%
X27322500Y-27210000D03*
X28897500Y-27210000D03*
%TD*%
D21*
%TO.C,B2-R1*%
X165390000Y-22627500D03*
X165390000Y-21052500D03*
%TD*%
D14*
%TO.C,B5-R28*%
X171910000Y-97485000D03*
X171910000Y-95835000D03*
%TD*%
D13*
%TO.C,B0-R2*%
X6287500Y-25000000D03*
X4712500Y-25000000D03*
%TD*%
D18*
%TO.C,B5-R17*%
X122282500Y-99440000D03*
X123857500Y-99440000D03*
%TD*%
D13*
%TO.C,B4-D7*%
X70287500Y-68750000D03*
X68712500Y-68750000D03*
%TD*%
D15*
%TO.C,B6-R19*%
X7790000Y-164262500D03*
X7790000Y-165837500D03*
%TD*%
D30*
%TO.C,B0-U1*%
X10595000Y-46500000D03*
X11865000Y-46500000D03*
X13135000Y-46500000D03*
X14405000Y-46500000D03*
X15675000Y-46500000D03*
X16945000Y-46500000D03*
X18215000Y-46500000D03*
X19485000Y-46500000D03*
X20755000Y-46500000D03*
X22025000Y-46500000D03*
X23295000Y-46500000D03*
X24565000Y-46500000D03*
X25835000Y-46500000D03*
X27105000Y-46500000D03*
D31*
X28105000Y-43715000D03*
X28105000Y-42445000D03*
X28105000Y-41175000D03*
X28105000Y-39905000D03*
X28105000Y-38635000D03*
X28105000Y-37365000D03*
X28105000Y-36095000D03*
X28105000Y-34825000D03*
X28105000Y-33555000D03*
X28105000Y-32285000D03*
D30*
X27105000Y-29500000D03*
X25835000Y-29500000D03*
X24565000Y-29500000D03*
X23295000Y-29500000D03*
X22025000Y-29500000D03*
X20755000Y-29500000D03*
X19485000Y-29500000D03*
X18215000Y-29500000D03*
X16945000Y-29500000D03*
X15675000Y-29500000D03*
X14405000Y-29500000D03*
X13135000Y-29500000D03*
X11865000Y-29500000D03*
X10595000Y-29500000D03*
D32*
X18095000Y-39000000D03*
%TD*%
D10*
%TO.C,B0-Q1*%
X3320000Y-36790000D03*
X3320000Y-35490000D03*
X1320000Y-36140000D03*
%TD*%
D13*
%TO.C,B5-D6*%
X125887500Y-68750000D03*
X124312500Y-68750000D03*
%TD*%
%TO.C,B5-D8*%
X131687500Y-68750000D03*
X130112500Y-68750000D03*
%TD*%
D18*
%TO.C,B7-R16*%
X94762500Y-142550000D03*
X96337500Y-142550000D03*
%TD*%
D13*
%TO.C,B7-D10*%
X78987500Y-128250000D03*
X77412500Y-128250000D03*
%TD*%
D15*
%TO.C,B2-R9*%
X161325000Y-9487500D03*
X161325000Y-11062500D03*
%TD*%
D27*
%TO.C,B4-D1*%
X108240000Y-80540000D03*
X109640000Y-80540000D03*
%TD*%
D18*
%TO.C,B4-C3*%
X89562500Y-94400000D03*
X91137500Y-94400000D03*
%TD*%
D15*
%TO.C,B8-C21*%
X149500000Y-142862500D03*
X149500000Y-144437500D03*
%TD*%
%TO.C,B0-R9*%
X44325000Y-9487500D03*
X44325000Y-11062500D03*
%TD*%
D18*
%TO.C,B7-R27*%
X79332500Y-146360000D03*
X80907500Y-146360000D03*
%TD*%
D34*
%TO.C,B0-U2*%
X36600000Y-33205000D03*
X36600000Y-31935000D03*
X36600000Y-30665000D03*
X36600000Y-29395000D03*
X31200000Y-29395000D03*
X31200000Y-30665000D03*
X31200000Y-31935000D03*
X31200000Y-33205000D03*
%TD*%
D19*
%TO.C,B7-R34*%
X78915000Y-138390000D03*
X80565000Y-138390000D03*
%TD*%
%TO.C,B1-R34*%
X78915000Y-19390000D03*
X80565000Y-19390000D03*
%TD*%
D13*
%TO.C,B1-R23*%
X80897500Y-21030000D03*
X79322500Y-21030000D03*
%TD*%
D16*
%TO.C,B5-C6*%
X168750000Y-109750000D03*
X168750000Y-103250000D03*
%TD*%
D21*
%TO.C,B0-R7*%
X32780000Y-40497500D03*
X32780000Y-38922500D03*
%TD*%
D19*
%TO.C,B8-R35*%
X137415000Y-135118000D03*
X139065000Y-135118000D03*
%TD*%
D18*
%TO.C,B6-C1*%
X1452500Y-160130000D03*
X3027500Y-160130000D03*
%TD*%
D27*
%TO.C,B0-D12*%
X43525000Y-14525000D03*
X44925000Y-14525000D03*
%TD*%
D10*
%TO.C,B7-Q1*%
X61820000Y-155790000D03*
X61820000Y-154490000D03*
X59820000Y-155140000D03*
%TD*%
D18*
%TO.C,B2-R18*%
X118572500Y-43220000D03*
X120147500Y-43220000D03*
%TD*%
D22*
%TO.C,B7-R32*%
X106685000Y-144090000D03*
X105035000Y-144090000D03*
%TD*%
D34*
%TO.C,B6-U2*%
X36600000Y-152205000D03*
X36600000Y-150935000D03*
X36600000Y-149665000D03*
X36600000Y-148395000D03*
X31200000Y-148395000D03*
X31200000Y-149665000D03*
X31200000Y-150935000D03*
X31200000Y-152205000D03*
%TD*%
D17*
%TO.C,B8-SW1*%
X121530000Y-138970000D03*
X125630000Y-138970000D03*
X121530000Y-140570000D03*
X125630000Y-140570000D03*
%TD*%
D15*
%TO.C,B4-C21*%
X91000000Y-83362500D03*
X91000000Y-84937500D03*
%TD*%
D22*
%TO.C,B5-R32*%
X165185000Y-84590000D03*
X163535000Y-84590000D03*
%TD*%
D13*
%TO.C,B7-C22*%
X80362500Y-143190000D03*
X78787500Y-143190000D03*
%TD*%
D14*
%TO.C,B2-R28*%
X171910000Y-37985000D03*
X171910000Y-36335000D03*
%TD*%
D27*
%TO.C,B2-D12*%
X160525000Y-14525000D03*
X161925000Y-14525000D03*
%TD*%
D28*
%TO.C,B5-D3*%
X158000000Y-76825000D03*
X162000000Y-76825000D03*
%TD*%
D21*
%TO.C,B6-R20*%
X5070000Y-165777500D03*
X5070000Y-164202500D03*
%TD*%
D18*
%TO.C,B8-R26*%
X137237500Y-144725000D03*
X138812500Y-144725000D03*
%TD*%
D10*
%TO.C,B6-Q1*%
X3320000Y-155790000D03*
X3320000Y-154490000D03*
X1320000Y-155140000D03*
%TD*%
D13*
%TO.C,B0-D5*%
X5987500Y-9250000D03*
X4412500Y-9250000D03*
%TD*%
D18*
%TO.C,B7-R26*%
X78737500Y-144725000D03*
X80312500Y-144725000D03*
%TD*%
D13*
%TO.C,B8-C2*%
X128575000Y-167650000D03*
X127000000Y-167650000D03*
%TD*%
D29*
%TO.C,B8-Q5*%
X120310000Y-163850000D03*
X118410000Y-163850000D03*
X119360000Y-165850000D03*
%TD*%
D15*
%TO.C,B8-R9*%
X161325000Y-128487500D03*
X161325000Y-130062500D03*
%TD*%
D39*
%TO.C,B4-D2*%
X111300000Y-82200000D03*
X113400000Y-82200000D03*
%TD*%
D20*
%TO.C,B5-U3*%
X159650000Y-72250000D03*
X159650000Y-71300000D03*
X159650000Y-70350000D03*
X157450000Y-70350000D03*
X157450000Y-71300000D03*
X157450000Y-72250000D03*
%TD*%
D15*
%TO.C,B1-R4*%
X80100000Y-48712500D03*
X80100000Y-50287500D03*
%TD*%
D19*
%TO.C,B2-R36*%
X137415000Y-11210000D03*
X139065000Y-11210000D03*
%TD*%
D26*
%TO.C,B7-C9*%
X95850000Y-129937500D03*
X95850000Y-128062500D03*
%TD*%
D18*
%TO.C,B5-R21*%
X151712500Y-103250000D03*
X153287500Y-103250000D03*
%TD*%
%TO.C,B6-C3*%
X31062500Y-153900000D03*
X32637500Y-153900000D03*
%TD*%
D23*
%TO.C,B0-L1*%
X36400000Y-16675000D03*
X36400000Y-13075000D03*
%TD*%
D13*
%TO.C,B4-D5*%
X64487500Y-68750000D03*
X62912500Y-68750000D03*
%TD*%
D22*
%TO.C,B6-R37*%
X22065000Y-131846000D03*
X20415000Y-131846000D03*
%TD*%
D18*
%TO.C,B0-R17*%
X5282500Y-39940000D03*
X6857500Y-39940000D03*
%TD*%
%TO.C,B4-R21*%
X93212500Y-103250000D03*
X94787500Y-103250000D03*
%TD*%
D14*
%TO.C,B7-R28*%
X113410000Y-156985000D03*
X113410000Y-155335000D03*
%TD*%
D18*
%TO.C,B0-R6*%
X1532500Y-33960000D03*
X3107500Y-33960000D03*
%TD*%
D39*
%TO.C,B6-D2*%
X52800000Y-141700000D03*
X54900000Y-141700000D03*
%TD*%
D21*
%TO.C,B6-R7*%
X32780000Y-159497500D03*
X32780000Y-157922500D03*
%TD*%
D38*
%TO.C,B6-J3*%
X39730000Y-169680000D03*
X44770000Y-169680000D03*
X39730000Y-167140000D03*
X44770000Y-167140000D03*
X39730000Y-164600000D03*
X44770000Y-164600000D03*
X39730000Y-162060000D03*
X44770000Y-162060000D03*
X39730000Y-159520000D03*
X44770000Y-159520000D03*
X39730000Y-156980000D03*
X44770000Y-156980000D03*
X39730000Y-154440000D03*
X44770000Y-154440000D03*
X39730000Y-151900000D03*
X44770000Y-151900000D03*
X39730000Y-149360000D03*
X44770000Y-149360000D03*
X39730000Y-146820000D03*
X44770000Y-146820000D03*
%TD*%
D29*
%TO.C,B4-Q4*%
X65520000Y-101090000D03*
X63620000Y-101090000D03*
X64570000Y-103090000D03*
%TD*%
D24*
%TO.C,B1-C4*%
X95750000Y-21375000D03*
X92950000Y-21375000D03*
%TD*%
D13*
%TO.C,B6-D7*%
X11787500Y-128250000D03*
X10212500Y-128250000D03*
%TD*%
D40*
%TO.C,B3-C11*%
X49305000Y-86340000D03*
X47755000Y-86340000D03*
%TD*%
D22*
%TO.C,B3-R32*%
X48185000Y-84590000D03*
X46535000Y-84590000D03*
%TD*%
D24*
%TO.C,B6-C4*%
X37250000Y-140375000D03*
X34450000Y-140375000D03*
%TD*%
D21*
%TO.C,B3-R1*%
X48390000Y-82127500D03*
X48390000Y-80552500D03*
%TD*%
D13*
%TO.C,B1-R24*%
X84177500Y-27200000D03*
X82602500Y-27200000D03*
%TD*%
D18*
%TO.C,B6-R18*%
X1572500Y-162220000D03*
X3147500Y-162220000D03*
%TD*%
D15*
%TO.C,B7-C8*%
X104425000Y-128512500D03*
X104425000Y-130087500D03*
%TD*%
D19*
%TO.C,B6-R34*%
X20415000Y-138390000D03*
X22065000Y-138390000D03*
%TD*%
D21*
%TO.C,B4-R12*%
X91000000Y-106825000D03*
X91000000Y-105250000D03*
%TD*%
D24*
%TO.C,B3-C4*%
X37250000Y-80875000D03*
X34450000Y-80875000D03*
%TD*%
D15*
%TO.C,B5-R4*%
X138600000Y-108212500D03*
X138600000Y-109787500D03*
%TD*%
D40*
%TO.C,B1-C11*%
X107805000Y-26840000D03*
X106255000Y-26840000D03*
%TD*%
D27*
%TO.C,B6-D4*%
X49740000Y-141540000D03*
X51140000Y-141540000D03*
%TD*%
D15*
%TO.C,B2-R5*%
X121950000Y-36772500D03*
X121950000Y-38347500D03*
%TD*%
D13*
%TO.C,B6-D10*%
X20487500Y-128250000D03*
X18912500Y-128250000D03*
%TD*%
D18*
%TO.C,B4-C26*%
X99062500Y-68600000D03*
X100637500Y-68600000D03*
%TD*%
D25*
%TO.C,B1-F1*%
X113387500Y-54250000D03*
X109112500Y-54250000D03*
%TD*%
D10*
%TO.C,B3-Q2*%
X3320000Y-99040000D03*
X3320000Y-97740000D03*
X1320000Y-98390000D03*
%TD*%
D13*
%TO.C,B6-C22*%
X21862500Y-143190000D03*
X20287500Y-143190000D03*
%TD*%
D15*
%TO.C,B8-R5*%
X121950000Y-155772500D03*
X121950000Y-157347500D03*
%TD*%
D14*
%TO.C,B0-R28*%
X54910000Y-37985000D03*
X54910000Y-36335000D03*
%TD*%
D34*
%TO.C,B7-U2*%
X95100000Y-152205000D03*
X95100000Y-150935000D03*
X95100000Y-149665000D03*
X95100000Y-148395000D03*
X89700000Y-148395000D03*
X89700000Y-149665000D03*
X89700000Y-150935000D03*
X89700000Y-152205000D03*
%TD*%
D40*
%TO.C,B0-C11*%
X49305000Y-26840000D03*
X47755000Y-26840000D03*
%TD*%
D28*
%TO.C,B7-D3*%
X99500000Y-136325000D03*
X103500000Y-136325000D03*
%TD*%
D23*
%TO.C,B2-L1*%
X153400000Y-16675000D03*
X153400000Y-13075000D03*
%TD*%
D39*
%TO.C,B0-D2*%
X52800000Y-22700000D03*
X54900000Y-22700000D03*
%TD*%
D29*
%TO.C,B0-Q5*%
X3310000Y-44850000D03*
X1410000Y-44850000D03*
X2360000Y-46850000D03*
%TD*%
%TO.C,B3-Q4*%
X7020000Y-101090000D03*
X5120000Y-101090000D03*
X6070000Y-103090000D03*
%TD*%
D13*
%TO.C,B8-R24*%
X142677500Y-146200000D03*
X141102500Y-146200000D03*
%TD*%
D18*
%TO.C,B8-R10*%
X161337500Y-131625000D03*
X162912500Y-131625000D03*
%TD*%
D27*
%TO.C,B5-D15*%
X166750000Y-83560000D03*
X168150000Y-83560000D03*
%TD*%
%TO.C,B2-D1*%
X166740000Y-21040000D03*
X168140000Y-21040000D03*
%TD*%
D21*
%TO.C,B7-R1*%
X106890000Y-141627500D03*
X106890000Y-140052500D03*
%TD*%
M02*
