M48
; DRILL file {KiCad (6.0.6)} date mer. 06 juil. 2022 10:56:02
; FORMAT={-:-/ absolute / metric / decimal}
; #@! TF.CreationDate,2022-07-06T10:56:02+02:00
; #@! TF.GenerationSoftware,Kicad,Pcbnew,(6.0.6)
; #@! TF.FileFunction,NonPlated,1,4,NPTH
FMAT,2
METRIC
; #@! TA.AperFunction,NonPlated,NPTH,ComponentDrill
T1C0.500
; #@! TA.AperFunction,NonPlated,NPTH,ComponentDrill
T2C0.900
; #@! TA.AperFunction,NonPlated,NPTH,ComponentDrill
T3C0.991
; #@! TA.AperFunction,NonPlated,NPTH,ComponentDrill
T4C1.500
; #@! TA.AperFunction,NonPlated,NPTH,ComponentDrill
T5C3.200
%
G90
G05
T1
X25.25Y-8.2
X25.25Y-65.3
X25.25Y-67.7
X25.25Y-124.8
X25.25Y-127.2
X25.25Y-184.3
X26.25Y-8.2
X26.25Y-65.3
X26.25Y-67.7
X26.25Y-124.8
X26.25Y-127.2
X26.25Y-184.3
X27.25Y-8.2
X27.25Y-65.3
X27.25Y-67.7
X27.25Y-124.8
X27.25Y-127.2
X27.25Y-184.3
X28.25Y-8.2
X28.25Y-65.3
X28.25Y-67.7
X28.25Y-124.8
X28.25Y-127.2
X28.25Y-184.3
X29.25Y-8.2
X29.25Y-65.3
X29.25Y-67.7
X29.25Y-124.8
X29.25Y-127.2
X29.25Y-184.3
X30.25Y-8.2
X30.25Y-65.3
X30.25Y-67.7
X30.25Y-124.8
X30.25Y-127.2
X30.25Y-184.3
X31.25Y-8.2
X31.25Y-65.3
X31.25Y-67.7
X31.25Y-124.8
X31.25Y-127.2
X31.25Y-184.3
X56.3Y-33.75
X56.3Y-34.75
X56.3Y-35.75
X56.3Y-36.75
X56.3Y-37.75
X56.3Y-38.75
X56.3Y-39.75
X56.3Y-93.25
X56.3Y-94.25
X56.3Y-95.25
X56.3Y-96.25
X56.3Y-97.25
X56.3Y-98.25
X56.3Y-99.25
X56.3Y-152.75
X56.3Y-153.75
X56.3Y-154.75
X56.3Y-155.75
X56.3Y-156.75
X56.3Y-157.75
X56.3Y-158.75
X58.7Y-33.75
X58.7Y-34.75
X58.7Y-35.75
X58.7Y-36.75
X58.7Y-37.75
X58.7Y-38.75
X58.7Y-39.75
X58.7Y-93.25
X58.7Y-94.25
X58.7Y-95.25
X58.7Y-96.25
X58.7Y-97.25
X58.7Y-98.25
X58.7Y-99.25
X58.7Y-152.75
X58.7Y-153.75
X58.7Y-154.75
X58.7Y-155.75
X58.7Y-156.75
X58.7Y-157.75
X58.7Y-158.75
X83.75Y-8.2
X83.75Y-65.3
X83.75Y-67.7
X83.75Y-124.8
X83.75Y-127.2
X83.75Y-184.3
X84.75Y-8.2
X84.75Y-65.3
X84.75Y-67.7
X84.75Y-124.8
X84.75Y-127.2
X84.75Y-184.3
X85.75Y-8.2
X85.75Y-65.3
X85.75Y-67.7
X85.75Y-124.8
X85.75Y-127.2
X85.75Y-184.3
X86.75Y-8.2
X86.75Y-65.3
X86.75Y-67.7
X86.75Y-124.8
X86.75Y-127.2
X86.75Y-184.3
X87.75Y-8.2
X87.75Y-65.3
X87.75Y-67.7
X87.75Y-124.8
X87.75Y-127.2
X87.75Y-184.3
X88.75Y-8.2
X88.75Y-65.3
X88.75Y-67.7
X88.75Y-124.8
X88.75Y-127.2
X88.75Y-184.3
X89.75Y-8.2
X89.75Y-65.3
X89.75Y-67.7
X89.75Y-124.8
X89.75Y-127.2
X89.75Y-184.3
X114.8Y-33.75
X114.8Y-34.75
X114.8Y-35.75
X114.8Y-36.75
X114.8Y-37.75
X114.8Y-38.75
X114.8Y-39.75
X114.8Y-93.25
X114.8Y-94.25
X114.8Y-95.25
X114.8Y-96.25
X114.8Y-97.25
X114.8Y-98.25
X114.8Y-99.25
X114.8Y-152.75
X114.8Y-153.75
X114.8Y-154.75
X114.8Y-155.75
X114.8Y-156.75
X114.8Y-157.75
X114.8Y-158.75
X117.2Y-33.75
X117.2Y-34.75
X117.2Y-35.75
X117.2Y-36.75
X117.2Y-37.75
X117.2Y-38.75
X117.2Y-39.75
X117.2Y-93.25
X117.2Y-94.25
X117.2Y-95.25
X117.2Y-96.25
X117.2Y-97.25
X117.2Y-98.25
X117.2Y-99.25
X117.2Y-152.75
X117.2Y-153.75
X117.2Y-154.75
X117.2Y-155.75
X117.2Y-156.75
X117.2Y-157.75
X117.2Y-158.75
X142.25Y-8.2
X142.25Y-65.3
X142.25Y-67.7
X142.25Y-124.8
X142.25Y-127.2
X142.25Y-184.3
X143.25Y-8.2
X143.25Y-65.3
X143.25Y-67.7
X143.25Y-124.8
X143.25Y-127.2
X143.25Y-184.3
X144.25Y-8.2
X144.25Y-65.3
X144.25Y-67.7
X144.25Y-124.8
X144.25Y-127.2
X144.25Y-184.3
X145.25Y-8.2
X145.25Y-65.3
X145.25Y-67.7
X145.25Y-124.8
X145.25Y-127.2
X145.25Y-184.3
X146.25Y-8.2
X146.25Y-65.3
X146.25Y-67.7
X146.25Y-124.8
X146.25Y-127.2
X146.25Y-184.3
X147.25Y-8.2
X147.25Y-65.3
X147.25Y-67.7
X147.25Y-124.8
X147.25Y-127.2
X147.25Y-184.3
X148.25Y-8.2
X148.25Y-65.3
X148.25Y-67.7
X148.25Y-124.8
X148.25Y-127.2
X148.25Y-184.3
T2
X11.25Y-14.42
X11.25Y-73.92
X11.25Y-133.42
X16.25Y-14.42
X16.25Y-73.92
X16.25Y-133.42
X69.75Y-14.42
X69.75Y-73.92
X69.75Y-133.42
X74.75Y-14.42
X74.75Y-73.92
X74.75Y-133.42
X128.25Y-14.42
X128.25Y-73.92
X128.25Y-133.42
X133.25Y-14.42
X133.25Y-73.92
X133.25Y-133.42
T3
X4.624Y-17.74
X4.624Y-77.24
X4.624Y-136.74
X5.64Y-12.66
X5.64Y-72.16
X5.64Y-131.66
X6.656Y-17.74
X6.656Y-77.24
X6.656Y-136.74
X63.124Y-17.74
X63.124Y-77.24
X63.124Y-136.74
X64.14Y-12.66
X64.14Y-72.16
X64.14Y-131.66
X65.156Y-17.74
X65.156Y-77.24
X65.156Y-136.74
X121.624Y-17.74
X121.624Y-77.24
X121.624Y-136.74
X122.64Y-12.66
X122.64Y-72.16
X122.64Y-131.66
X123.656Y-17.74
X123.656Y-77.24
X123.656Y-136.74
T4
X2.5Y-2.5
X2.5Y-190.0
X171.0Y-2.5
T5
X14.25Y-22.75
X14.25Y-82.25
X14.25Y-141.75
X42.25Y-22.75
X42.25Y-82.25
X42.25Y-141.75
X72.75Y-22.75
X72.75Y-82.25
X72.75Y-141.75
X100.75Y-22.75
X100.75Y-82.25
X100.75Y-141.75
X131.25Y-22.75
X131.25Y-82.25
X131.25Y-141.75
X159.25Y-22.75
X159.25Y-82.25
X159.25Y-141.75
T0
M30
