%TF.GenerationSoftware,KiCad,Pcbnew,(6.0.6)*%
%TF.CreationDate,2022-07-06T10:55:58+02:00*%
%TF.ProjectId,panel,70616e65-6c2e-46b6-9963-61645f706362,3.0*%
%TF.SameCoordinates,PXe4e1c0PYe4e1c0*%
%TF.FileFunction,Profile,NP*%
%FSLAX46Y46*%
G04 Gerber Fmt 4.6, Leading zero omitted, Abs format (unit mm)*
G04 Created by KiCad (PCBNEW (6.0.6)) date 2022-07-06 10:55:58*
%MOMM*%
%LPD*%
G01*
G04 APERTURE LIST*
%TA.AperFunction,Profile*%
%ADD10C,0.100000*%
%TD*%
G04 APERTURE END LIST*
D10*
X24905262Y-67489281D02*
X24857036Y-67495229D01*
X142493539Y-5325158D02*
X142525278Y-5361952D01*
X170262404Y-26000000D02*
X173487727Y-26000000D01*
X83993539Y-187174841D02*
X83960033Y-187210033D01*
X114993082Y-67500559D02*
X114987727Y-67500000D01*
X51299223Y-151405298D02*
X51156831Y-151304448D01*
X89816721Y-187404946D02*
X89773318Y-187383099D01*
X84239281Y-66655262D02*
X84230974Y-66703138D01*
X56640851Y-93268960D02*
X56616900Y-93226681D01*
X117000000Y-152259877D02*
X116998804Y-152308576D01*
X25138855Y-184575362D02*
X25183278Y-184595053D01*
X142674637Y-5611144D02*
X142692125Y-5656480D01*
X167762229Y-91461154D02*
X167642643Y-91334090D01*
X166808089Y-28867909D02*
X166832835Y-28745498D01*
X56666847Y-93310012D02*
X56640851Y-93268960D01*
X121901807Y-151585095D02*
X121745975Y-151663596D01*
X121089459Y-92397292D02*
X120919074Y-92434912D01*
X115892963Y-39254770D02*
X115941423Y-39251195D01*
X166758549Y-148263227D02*
X166762257Y-148213754D01*
X89689987Y-67333152D02*
X89650259Y-67305173D01*
X4901807Y-26414904D02*
X5053533Y-26501075D01*
X109946466Y-32498924D02*
X109799223Y-32405298D01*
X89292631Y-66797380D02*
X89279671Y-66750549D01*
X25707368Y-66797380D02*
X25692125Y-66843519D01*
X89292631Y-126297380D02*
X89279671Y-126250549D01*
X58275278Y-39611952D02*
X58305173Y-39650259D01*
X111426256Y-32984462D02*
X111252973Y-32963993D01*
X49874692Y-149423895D02*
X49843875Y-149302869D01*
X89260718Y-7155262D02*
X89254770Y-7107036D01*
X31111952Y-5224721D02*
X31150259Y-5194826D01*
X121305164Y-32836601D02*
X121137537Y-32885049D01*
X62805164Y-32836601D02*
X62637537Y-32885049D01*
X114999440Y-85493082D02*
X115000000Y-67512272D01*
X147792631Y-66202619D02*
X147807874Y-66156480D01*
X166780861Y-148959739D02*
X166762257Y-148786245D01*
X166940741Y-28361979D02*
X167001580Y-28198441D01*
X166762257Y-88713754D02*
X166780861Y-88540260D01*
X84083152Y-7560012D02*
X84055173Y-7599740D01*
X83453138Y-187480974D02*
X83405262Y-187489281D01*
X64357356Y-27165909D02*
X64390184Y-27203107D01*
X64272411Y-91425639D02*
X64148367Y-91548355D01*
X109904132Y-145526944D02*
X110054621Y-145438631D01*
X168446466Y-91998924D02*
X168404132Y-91973055D01*
X110413576Y-85765767D02*
X110576451Y-85703172D01*
X6352684Y-90618529D02*
X6292956Y-90728208D01*
X116743539Y-33924841D02*
X116710033Y-33960033D01*
X51299223Y-86094701D02*
X51446466Y-86001075D01*
X6292956Y-146771791D02*
X6375317Y-146925619D01*
X142525278Y-5361952D02*
X142555173Y-5400259D01*
X65237742Y-89286245D02*
X65219138Y-89459739D01*
X57249450Y-93720328D02*
X57202619Y-93707368D01*
X116805173Y-158650259D02*
X116833152Y-158689987D01*
X168446466Y-145501075D02*
X168554621Y-145438631D01*
X52194835Y-32836601D02*
X52029831Y-32779858D01*
X117000057Y-152009809D02*
X117000000Y-152259877D01*
X84055173Y-5400259D02*
X84083152Y-5439987D01*
X122737770Y-31961154D02*
X122611999Y-32082100D01*
X89474721Y-184861952D02*
X89506460Y-184825158D01*
X56616900Y-158773318D02*
X56640851Y-158731039D01*
X121901807Y-92085095D02*
X121745975Y-92163596D01*
X84025278Y-187138047D02*
X83993539Y-187174841D01*
X147750000Y-5990122D02*
X147751195Y-5941423D01*
X142388047Y-5224721D02*
X142424841Y-5256460D01*
X168598192Y-92085095D02*
X168446466Y-91998924D01*
X123725307Y-29910512D02*
X123700525Y-30083232D01*
X31361144Y-184575362D02*
X31406480Y-184557874D01*
X115004770Y-152357036D02*
X115001195Y-152308576D01*
X4305164Y-32836601D02*
X4137537Y-32885049D01*
X170100345Y-92496267D02*
X169926256Y-92484462D01*
X142349740Y-126805173D02*
X142310012Y-126833152D01*
X89816721Y-5095053D02*
X89861144Y-5075362D01*
X58099740Y-158444826D02*
X58138047Y-158474721D01*
X111032296Y-151925082D02*
X110862462Y-151885049D01*
X25525278Y-7638047D02*
X25493539Y-7674841D01*
X148273318Y-5116900D02*
X148316721Y-5095053D01*
X24905262Y-126989281D02*
X24857036Y-126995229D01*
X123176112Y-87080586D02*
X123268150Y-87228826D01*
X49888129Y-30471652D02*
X49843875Y-30302869D01*
X89861144Y-187424637D02*
X89816721Y-187404946D01*
X89345053Y-126433278D02*
X89325362Y-126388855D01*
X115095053Y-158816721D02*
X115116900Y-158773318D01*
X168446466Y-32498924D02*
X168299223Y-32405298D01*
X147845053Y-7433278D02*
X147825362Y-7388855D01*
X148452619Y-184542631D02*
X148499450Y-184529671D01*
X89474721Y-126638047D02*
X89444826Y-126599740D01*
X115523318Y-93633099D02*
X115481039Y-93609148D01*
X141759877Y-5000000D02*
X141808576Y-5001195D01*
X120919074Y-85565087D02*
X121089459Y-85602707D01*
X6292956Y-90728208D02*
X6203029Y-90877738D01*
X31075158Y-65756460D02*
X31111952Y-65724721D01*
X58500559Y-144993082D02*
X58505125Y-144998646D01*
X31316721Y-125095053D02*
X31361144Y-125075362D01*
X147754770Y-126107036D02*
X147751195Y-126058576D01*
X148273318Y-7883099D02*
X148231039Y-7859148D01*
X30769025Y-186703138D02*
X30760718Y-186655262D01*
X30944826Y-5400259D02*
X30974721Y-5361952D01*
X142750000Y-186509877D02*
X142748804Y-186558576D01*
X53100345Y-151996267D02*
X52926256Y-151984462D01*
X51867860Y-85785038D02*
X52029831Y-85720141D01*
X115000000Y-159240122D02*
X115001195Y-159191423D01*
X3919074Y-26065087D02*
X4089459Y-26102707D01*
X5857356Y-91334090D02*
X5737770Y-91461154D01*
X89816721Y-126904946D02*
X89773318Y-126883099D01*
X142525278Y-65861952D02*
X142555173Y-65900259D01*
X58333152Y-152810012D02*
X58305173Y-152849740D01*
X123268150Y-87228826D02*
X123292956Y-87271791D01*
X148546861Y-5019025D02*
X148594737Y-5010718D01*
X123449908Y-28083360D02*
X123498419Y-28198441D01*
X120573743Y-32984462D02*
X120399654Y-32996267D01*
X116883099Y-152726681D02*
X116859148Y-152768960D01*
X84192125Y-125656480D02*
X84207368Y-125702619D01*
X115749450Y-34220328D02*
X115702619Y-34207368D01*
X24808576Y-67498804D02*
X24759877Y-67500000D01*
X58502170Y-33003902D02*
X58500057Y-33009809D01*
X25745229Y-7107036D02*
X25739281Y-7155262D01*
X25460033Y-67210033D02*
X25424841Y-67243539D01*
X121257756Y-92351225D02*
X121089459Y-92397292D01*
X168299223Y-26594701D02*
X168446466Y-26501075D01*
X4423548Y-26203172D02*
X4586423Y-26265767D01*
X115702619Y-153207368D02*
X115656480Y-153192125D01*
X90240122Y-67500000D02*
X90191423Y-67498804D01*
X30751195Y-5941423D02*
X30754770Y-5892963D01*
X115749450Y-158279671D02*
X115796861Y-158269025D01*
X147916847Y-184939987D02*
X147944826Y-184900259D01*
X84055173Y-125400259D02*
X84083152Y-125439987D01*
X83405262Y-5010718D02*
X83453138Y-5019025D01*
X166808089Y-30132090D02*
X166780861Y-29959739D01*
X58498804Y-92808576D02*
X58495229Y-92857036D01*
X123516544Y-147244623D02*
X123575059Y-147409008D01*
X30944826Y-184900259D02*
X30974721Y-184861952D01*
X114997829Y-65496097D02*
X115000000Y-65487727D01*
X25674637Y-126388855D02*
X25654946Y-126433278D01*
X56501195Y-159191423D02*
X56504770Y-159142963D01*
X122095867Y-145526944D02*
X122200776Y-145594701D01*
X167762229Y-27038845D02*
X167888000Y-26917899D01*
X116924637Y-158861144D02*
X116942125Y-158906480D01*
X25000549Y-5029671D02*
X25047380Y-5042631D01*
X61899654Y-32996267D02*
X61737595Y-33000000D01*
X115057874Y-33593519D02*
X115042631Y-33547380D01*
X89416847Y-65939987D02*
X89444826Y-65900259D01*
X108707043Y-31228208D02*
X108624682Y-31074380D01*
X65016544Y-28244623D02*
X65075059Y-28409008D01*
X25138855Y-5075362D02*
X25183278Y-5095053D01*
X57797380Y-39292631D02*
X57843519Y-39307874D01*
X64998419Y-28198441D02*
X65016544Y-28244623D01*
X24808576Y-65501195D02*
X24857036Y-65504770D01*
X57249450Y-158279671D02*
X57296861Y-158269025D01*
X58498804Y-152308576D02*
X58495229Y-152357036D01*
X109946466Y-26501075D02*
X110098192Y-26414904D01*
X30751195Y-66558576D02*
X30750000Y-66490122D01*
X166751087Y-148437556D02*
X166758549Y-148263227D01*
X83960033Y-184789966D02*
X83993539Y-184825158D01*
X115611144Y-39325362D02*
X115656480Y-39307874D01*
X115042631Y-39952619D02*
X115057874Y-39906480D01*
X148546861Y-126980974D02*
X148499450Y-126970328D01*
X25047380Y-187457368D02*
X25000549Y-187470328D01*
X62247026Y-85536006D02*
X62419074Y-85565087D01*
X142633099Y-126476681D02*
X142609148Y-126518960D01*
X58480974Y-159046861D02*
X58489281Y-159094737D01*
X65167164Y-88245498D02*
X65191910Y-88367909D01*
X116859148Y-99231039D02*
X116883099Y-99273318D01*
X122518361Y-32164736D02*
X122382715Y-32274492D01*
X148642963Y-125004770D02*
X148691423Y-125001195D01*
X123268150Y-31271173D02*
X123176112Y-31419413D01*
X31150259Y-7805173D02*
X31111952Y-7775278D01*
X117000000Y-184487727D02*
X117000559Y-184493082D01*
X123747675Y-148612040D02*
X123737742Y-148786245D01*
X89816721Y-65595053D02*
X89861144Y-65575362D01*
X6559258Y-28361979D02*
X6575059Y-28409008D01*
X116998804Y-99691423D02*
X117000000Y-99740122D01*
X147750000Y-185490122D02*
X147751195Y-185441423D01*
X49843875Y-147697130D02*
X49888129Y-147528347D01*
X24953138Y-7980974D02*
X24905262Y-7989281D01*
X58210033Y-93460033D02*
X58174841Y-93493539D01*
X115057874Y-99406480D02*
X115075362Y-99361144D01*
X89539966Y-7710033D02*
X89506460Y-7674841D01*
X83547380Y-65542631D02*
X83593519Y-65557874D01*
X51117284Y-32274492D02*
X50981638Y-32164736D01*
X3237595Y-92500000D02*
X12272Y-92500000D01*
X56939987Y-98916847D02*
X56981039Y-98890851D01*
X63445378Y-145438631D02*
X63595867Y-145526944D01*
X65219138Y-148040260D02*
X65225307Y-148089487D01*
X4790674Y-32642070D02*
X4632139Y-32714961D01*
X108647315Y-150118529D02*
X108570495Y-149961861D01*
X62970168Y-85720141D02*
X63132139Y-85785038D01*
X89506460Y-187174841D02*
X89474721Y-187138047D01*
X83500549Y-126970328D02*
X83453138Y-126980974D01*
X173494441Y-124998877D02*
X173499087Y-124993997D01*
X912Y-127006002D02*
X559Y-144993082D01*
X169580925Y-92434912D02*
X169410540Y-92397292D01*
X89279671Y-66249450D02*
X89292631Y-66202619D01*
X122053533Y-32498924D02*
X121901807Y-32585095D01*
X141905262Y-125010718D02*
X141953138Y-125019025D01*
X116155262Y-34239281D02*
X116107036Y-34245229D01*
X64875317Y-90574380D02*
X64792956Y-90728208D01*
X117000559Y-67506917D02*
X117000000Y-67512272D01*
X147769025Y-125796861D02*
X147779671Y-125749450D01*
X49762257Y-88713754D02*
X49780861Y-88540260D01*
X116107036Y-153245229D02*
X116058576Y-153248804D01*
X123625307Y-147576104D02*
X123656124Y-147697130D01*
X111762404Y-152000000D02*
X111600345Y-151996267D01*
X62805164Y-151836601D02*
X62757756Y-151851225D01*
X84174637Y-5611144D02*
X84192125Y-5656480D01*
X108731849Y-90771173D02*
X108647315Y-90618529D01*
X123719138Y-29040260D02*
X123725307Y-29089487D01*
X83259877Y-125000000D02*
X83308576Y-125001195D01*
X25310012Y-125166847D02*
X25349740Y-125194826D01*
X4745975Y-85836403D02*
X4901807Y-85914904D01*
X89773318Y-5116900D02*
X89816721Y-5095053D01*
X116297380Y-34207368D02*
X116250549Y-34220328D01*
X109029539Y-146298777D02*
X109142643Y-146165909D01*
X64272411Y-31925639D02*
X64237770Y-31961154D01*
X147754770Y-66607036D02*
X147751195Y-66558576D01*
X142310012Y-7833152D02*
X142268960Y-7859148D01*
X31642963Y-65504770D02*
X31691423Y-65501195D01*
X65219138Y-89459739D02*
X65191910Y-89632090D01*
X31006460Y-7674841D02*
X30974721Y-7638047D01*
X142730974Y-66296861D02*
X142739281Y-66344737D01*
X147825362Y-186888855D02*
X147807874Y-186843519D01*
X58500559Y-85493082D02*
X58505125Y-85498646D01*
X116433278Y-39345053D02*
X116476681Y-39366900D01*
X116924637Y-93138855D02*
X116904946Y-93183278D01*
X6625307Y-30423895D02*
X6611870Y-30471652D01*
X58507387Y-33000416D02*
X58502170Y-33003902D01*
X56492612Y-33000416D02*
X53262404Y-33000000D01*
X109481638Y-145835263D02*
X109617284Y-145725507D01*
X84245229Y-5892963D02*
X84248804Y-5941423D01*
X141808576Y-125001195D02*
X141857036Y-125004770D01*
X169532296Y-85574917D02*
X169703915Y-85543400D01*
X148361144Y-65575362D02*
X148406480Y-65557874D01*
X147807874Y-186843519D02*
X147792631Y-186797380D01*
X147792631Y-7297380D02*
X147779671Y-7250549D01*
X89999450Y-184529671D02*
X90046861Y-184519025D01*
X148740122Y-5000000D02*
X173492136Y-4999702D01*
X120399654Y-151996267D02*
X120237595Y-152000000D01*
X83453138Y-65519025D02*
X83500549Y-65529671D01*
X89773318Y-7883099D02*
X89731039Y-7859148D01*
X31642963Y-125004770D02*
X31691423Y-125001195D01*
X123741450Y-29736772D02*
X123725307Y-29910512D01*
X84154946Y-126433278D02*
X84133099Y-126476681D01*
X120399654Y-92496267D02*
X120237595Y-92500000D01*
X115140851Y-93268960D02*
X115116900Y-93226681D01*
X169752973Y-32963993D02*
X169580925Y-32934912D01*
X56499942Y-33009809D02*
X56497829Y-33003902D01*
X5737770Y-150961154D02*
X5611999Y-151082100D01*
X25093519Y-7942125D02*
X25047380Y-7957368D01*
X56500000Y-99740122D02*
X56501195Y-99691423D01*
X115256460Y-152924841D02*
X115224721Y-152888047D01*
X142493539Y-65825158D02*
X142525278Y-65861952D01*
X122890184Y-91296892D02*
X122857356Y-91334090D01*
X58404946Y-39816721D02*
X58424637Y-39861144D01*
X58099740Y-98944826D02*
X58138047Y-98974721D01*
X108483455Y-28244623D02*
X108501580Y-28198441D01*
X89251195Y-7058576D02*
X89250000Y-7009877D01*
X4586423Y-145265767D02*
X4745975Y-145336403D01*
X123656124Y-30302869D02*
X123611870Y-30471652D01*
X116250549Y-158279671D02*
X116297380Y-158292631D01*
X52926256Y-92484462D02*
X52752973Y-92463993D01*
X168258232Y-26622649D02*
X168299223Y-26594701D01*
X117002811Y-124996840D02*
X117006917Y-124999440D01*
X115029671Y-158999450D02*
X115042631Y-158952619D01*
X0Y-187512272D02*
X0Y-192487727D01*
X84109148Y-7518960D02*
X84083152Y-7560012D01*
X64470460Y-86798777D02*
X64576800Y-86937117D01*
X83405262Y-65510718D02*
X83453138Y-65519025D01*
X89260718Y-5844737D02*
X89269025Y-5796861D01*
X169752973Y-151963993D02*
X169580925Y-151934912D01*
X166888129Y-28528347D02*
X166940741Y-28361979D01*
X4745975Y-26336403D02*
X4901807Y-26414904D01*
X30760718Y-5844737D02*
X30769025Y-5796861D01*
X50423199Y-146437117D02*
X50529539Y-146298777D01*
X115656480Y-34192125D02*
X115611144Y-34174637D01*
X25674637Y-186888855D02*
X25654946Y-186933278D01*
X90142963Y-7995229D02*
X90094737Y-7989281D01*
X115481039Y-39390851D02*
X115523318Y-39366900D01*
X89611952Y-126775278D02*
X89575158Y-126743539D01*
X147974721Y-5361952D02*
X148006460Y-5325158D01*
X123429504Y-147038138D02*
X123449908Y-147083360D01*
X25707368Y-125702619D02*
X25720328Y-125749450D01*
X142707368Y-7297380D02*
X142692125Y-7343519D01*
X167001580Y-28198441D02*
X167050091Y-28083360D01*
X5343168Y-151304448D02*
X5241767Y-151377350D01*
X115523318Y-39366900D02*
X115566721Y-39345053D01*
X56756460Y-158575158D02*
X56789966Y-158539966D01*
X142000549Y-5029671D02*
X142047380Y-5042631D01*
X123611870Y-30471652D02*
X123559258Y-30638020D01*
X121745975Y-85836403D02*
X121901807Y-85914904D01*
X142388047Y-65724721D02*
X142424841Y-65756460D01*
X51867860Y-145285038D02*
X51913576Y-145265767D01*
X148111952Y-5224721D02*
X148150259Y-5194826D01*
X123700525Y-30083232D02*
X123667164Y-30254501D01*
X84230974Y-186703138D02*
X84220328Y-186750549D01*
X115439987Y-93583152D02*
X115400259Y-93555173D01*
X56493082Y-65499440D02*
X56497188Y-65496840D01*
X116942125Y-93093519D02*
X116924637Y-93138855D01*
X123429504Y-87538138D02*
X123498419Y-87698441D01*
X116859148Y-158731039D02*
X116883099Y-158773318D01*
X51754024Y-32663596D02*
X51598192Y-32585095D01*
X57111144Y-93674637D02*
X57066721Y-93654946D01*
X83810012Y-184666847D02*
X83849740Y-184694826D01*
X115289966Y-93460033D02*
X115256460Y-93424841D01*
X31642963Y-7995229D02*
X31594737Y-7989281D01*
X30866900Y-66976681D02*
X30845053Y-66933278D01*
X62247026Y-151963993D02*
X62123108Y-151979522D01*
X89292631Y-66202619D02*
X89307874Y-66156480D01*
X116775278Y-152888047D02*
X116743539Y-152924841D01*
X142609148Y-5481039D02*
X142633099Y-5523318D01*
X56694826Y-39650259D02*
X56724721Y-39611952D01*
X121745975Y-92163596D02*
X121632139Y-92214961D01*
X57066721Y-158345053D02*
X57111144Y-158325362D01*
X116904946Y-99316721D02*
X116924637Y-99361144D01*
X65167164Y-147745498D02*
X65191910Y-147867909D01*
X56519025Y-99546861D02*
X56529671Y-99499450D01*
X51554621Y-145438631D02*
X51709325Y-145357929D01*
X147750000Y-7009877D02*
X147750000Y-5990122D01*
X83683278Y-184595053D02*
X83726681Y-184616900D01*
X123575059Y-149590991D02*
X123516544Y-149755376D01*
X116674841Y-39506460D02*
X116710033Y-39539966D01*
X115566721Y-98845053D02*
X115611144Y-98825362D01*
X83593519Y-67442125D02*
X83547380Y-67457368D01*
X116970328Y-158999450D02*
X116980974Y-159046861D01*
X115000000Y-67512272D02*
X114999440Y-67506917D01*
X4586423Y-85765767D02*
X4745975Y-85836403D01*
X115019025Y-99546861D02*
X115029671Y-99499450D01*
X58489281Y-152405262D02*
X58480974Y-152453138D01*
X142583152Y-5439987D02*
X142609148Y-5481039D01*
X58495229Y-152357036D02*
X58489281Y-152405262D01*
X142093519Y-67442125D02*
X142047380Y-67457368D01*
X123559258Y-30638020D02*
X123498419Y-30801558D01*
X89292631Y-185202619D02*
X89307874Y-185156480D01*
X65248912Y-89062443D02*
X65247675Y-89112040D01*
X25424841Y-67243539D02*
X25388047Y-67275278D01*
X147916847Y-5439987D02*
X147944826Y-5400259D01*
X116155262Y-98760718D02*
X116203138Y-98769025D01*
X84133099Y-185023318D02*
X84154946Y-185066721D01*
X65237742Y-88713754D02*
X65241450Y-88763227D01*
X142226681Y-125116900D02*
X142268960Y-125140851D01*
X50888000Y-32082100D02*
X50762229Y-31961154D01*
X84133099Y-66976681D02*
X84109148Y-67018960D01*
X109519643Y-26803373D02*
X109656831Y-26695551D01*
X141808576Y-65501195D02*
X141857036Y-65504770D01*
X50529539Y-86798777D02*
X50609815Y-86703107D01*
X167147315Y-150118529D02*
X167070495Y-149961861D01*
X6001392Y-91162434D02*
X5890184Y-91296892D01*
X89816721Y-7904946D02*
X89773318Y-7883099D01*
X122737770Y-27038845D02*
X122857356Y-27165909D01*
X5970460Y-86798777D02*
X6001392Y-86837565D01*
X57344737Y-158260718D02*
X57392963Y-158254770D01*
X83924841Y-65756460D02*
X83960033Y-65789966D01*
X57156480Y-34192125D02*
X57111144Y-34174637D01*
X90191423Y-184501195D02*
X90240122Y-184500000D01*
X148189987Y-184666847D02*
X148231039Y-184640851D01*
X30916847Y-126560012D02*
X30890851Y-126518960D01*
X83810012Y-7833152D02*
X83768960Y-7859148D01*
X142730974Y-7203138D02*
X142720328Y-7250549D01*
X115140851Y-39731039D02*
X115166847Y-39689987D01*
X115000000Y-92759877D02*
X114999942Y-92509809D01*
X108624682Y-27925619D02*
X108707043Y-27771791D01*
X50394238Y-91022600D02*
X50323887Y-90919413D01*
X58495229Y-33357036D02*
X58489281Y-33405262D01*
X63700776Y-151405298D02*
X63595867Y-151473055D01*
X5241767Y-145622649D02*
X5343168Y-145695551D01*
X58424637Y-33638855D02*
X58404946Y-33683278D01*
X109758232Y-26622649D02*
X109904132Y-26526944D01*
X141905262Y-126989281D02*
X141857036Y-126995229D01*
X115439987Y-98916847D02*
X115481039Y-98890851D01*
X61899654Y-92496267D02*
X61737595Y-92500000D01*
X25654946Y-66066721D02*
X25674637Y-66111144D01*
X167888000Y-145917899D02*
X167981638Y-145835263D01*
X4296Y-184498121D02*
X12272Y-184500000D01*
X56496097Y-152002170D02*
X56487972Y-152000003D01*
X89952619Y-187457368D02*
X89906480Y-187442125D01*
X115166847Y-152810012D02*
X115140851Y-152768960D01*
X90142963Y-184504770D02*
X90191423Y-184501195D01*
X121137537Y-32885049D02*
X120967703Y-32925082D01*
X148452619Y-187457368D02*
X148406480Y-187442125D01*
X84109148Y-5481039D02*
X84133099Y-5523318D01*
X84109148Y-67018960D02*
X84083152Y-67060012D01*
X56981039Y-98890851D02*
X57023318Y-98866900D01*
X52410540Y-92397292D02*
X52242243Y-92351225D01*
X6737742Y-148213754D02*
X6741450Y-148263227D01*
X50207043Y-31228208D02*
X50124682Y-31074380D01*
X169410540Y-26102707D02*
X169580925Y-26065087D01*
X64676112Y-87080586D02*
X64703029Y-87122261D01*
X63245975Y-26336403D02*
X63401807Y-26414904D01*
X58500000Y-67512272D02*
X58500559Y-85493082D01*
X123516544Y-90255376D02*
X123449908Y-90416639D01*
X25745229Y-185392963D02*
X25748804Y-185441423D01*
X83405262Y-126989281D02*
X83357036Y-126995229D01*
X51554621Y-151561368D02*
X51404132Y-151473055D01*
X64576800Y-27437117D02*
X64676112Y-27580586D01*
X89260718Y-126155262D02*
X89254770Y-126107036D01*
X30751195Y-126058576D02*
X30750000Y-125990122D01*
X167323887Y-87080586D02*
X167423199Y-86937117D01*
X65125307Y-89923895D02*
X65111870Y-89971652D01*
X58506917Y-65499440D02*
X58512272Y-65500000D01*
X31499450Y-126970328D02*
X31452619Y-126957368D01*
X115990122Y-39250000D02*
X116058576Y-39251195D01*
X58060012Y-93583152D02*
X58018960Y-93609148D01*
X25633099Y-126476681D02*
X25609148Y-126518960D01*
X64272411Y-86574360D02*
X64390184Y-86703107D01*
X5480356Y-26803373D02*
X5611999Y-26917899D01*
X64111999Y-26917899D02*
X64148367Y-26951644D01*
X89250000Y-186509877D02*
X89250000Y-185490122D01*
X6449908Y-87583360D02*
X6498419Y-87698441D01*
X89254770Y-185392963D02*
X89260718Y-185344737D01*
X167609815Y-27203107D02*
X167642643Y-27165909D01*
X115116900Y-158773318D02*
X115140851Y-158731039D01*
X115796861Y-153230974D02*
X115749450Y-153220328D01*
X147769025Y-185296861D02*
X147779671Y-185249450D01*
X142750000Y-5990122D02*
X142750000Y-7009877D01*
X142047380Y-67457368D02*
X142000549Y-67470328D01*
X147792631Y-126297380D02*
X147779671Y-126250549D01*
X57202619Y-39292631D02*
X57249450Y-39279671D01*
X3399654Y-92496267D02*
X3237595Y-92500000D01*
X56496097Y-8002170D02*
X56487727Y-8000000D01*
X50124682Y-90574380D02*
X50050091Y-90416639D01*
X89689987Y-184666847D02*
X89731039Y-184640851D01*
X62467703Y-92425082D02*
X62419074Y-92434912D01*
X65156124Y-30302869D02*
X65111870Y-30471652D01*
X25226681Y-65616900D02*
X25268960Y-65640851D01*
X25674637Y-185111144D02*
X25692125Y-185156480D01*
X49843875Y-28697130D02*
X49874692Y-28576104D01*
X123747675Y-29387959D02*
X123748912Y-29437556D01*
X49774692Y-29089487D02*
X49799474Y-28916767D01*
X61737595Y-33000000D02*
X58507387Y-33000416D01*
X6667164Y-147745498D02*
X6691910Y-147867909D01*
X117007387Y-92500416D02*
X117002170Y-92503902D01*
X58489281Y-33405262D02*
X58480974Y-33453138D01*
X147845053Y-66066721D02*
X147866900Y-66023318D01*
X65156124Y-147697130D02*
X65167164Y-147745498D01*
X142555173Y-187099740D02*
X142525278Y-187138047D01*
X116560012Y-98916847D02*
X116599740Y-98944826D01*
X89906480Y-5057874D02*
X89952619Y-5042631D01*
X56595053Y-152683278D02*
X56575362Y-152638855D01*
X123449908Y-90416639D02*
X123375317Y-90574380D01*
X116710033Y-158539966D02*
X116743539Y-158575158D01*
X170262404Y-145000000D02*
X173487727Y-145000000D01*
X56900259Y-34055173D02*
X56861952Y-34025278D01*
X123741450Y-88763227D02*
X123747675Y-88887959D01*
X58060012Y-158416847D02*
X58099740Y-158444826D01*
X142745229Y-125892963D02*
X142748804Y-125941423D01*
X24953138Y-65519025D02*
X25000549Y-65529671D01*
X147807874Y-7343519D02*
X147792631Y-7297380D01*
X61899654Y-26003732D02*
X62073743Y-26015537D01*
X84230974Y-66703138D02*
X84220328Y-66750549D01*
X169580925Y-26065087D02*
X169752973Y-26036006D01*
X25730974Y-7203138D02*
X25720328Y-7250549D01*
X56575362Y-158861144D02*
X56595053Y-158816721D01*
X115481039Y-34109148D02*
X115439987Y-34083152D01*
X62637537Y-92385049D02*
X62467703Y-92425082D01*
X89269025Y-126203138D02*
X89260718Y-126155262D01*
X5095867Y-86026944D02*
X5241767Y-86122649D01*
X142424841Y-5256460D02*
X142460033Y-5289966D01*
X148361144Y-67424637D02*
X148316721Y-67404946D01*
X25047380Y-125042631D02*
X25093519Y-125057874D01*
X109481638Y-32164736D02*
X109388000Y-32082100D01*
X142609148Y-125481039D02*
X142633099Y-125523318D01*
X116775278Y-33888047D02*
X116743539Y-33924841D01*
X25268960Y-65640851D02*
X25310012Y-65666847D01*
X31039966Y-67210033D02*
X31006460Y-67174841D01*
X6375317Y-146925619D02*
X6429504Y-147038138D01*
X148075158Y-67243539D02*
X148039966Y-67210033D01*
X30866900Y-185023318D02*
X30890851Y-184981039D01*
X110576451Y-26203172D02*
X110742243Y-26148774D01*
X120237595Y-152000000D02*
X117007387Y-152000416D01*
X25138855Y-125075362D02*
X25183278Y-125095053D01*
X90191423Y-187498804D02*
X90142963Y-187495229D01*
X58333152Y-93310012D02*
X58305173Y-93349740D01*
X123105761Y-91022600D02*
X123001392Y-91162434D01*
X115941423Y-93748804D02*
X115892963Y-93745229D01*
X49774692Y-148910512D02*
X49762257Y-148786245D01*
X123719138Y-148040260D02*
X123737742Y-148213754D01*
X63882715Y-151274492D02*
X63741767Y-151377350D01*
X120747026Y-85536006D02*
X120919074Y-85565087D01*
X108796970Y-150377738D02*
X108731849Y-150271173D01*
X57976681Y-39366900D02*
X58018960Y-39390851D01*
X166874692Y-149423895D02*
X166832835Y-149254501D01*
X167147315Y-27881470D02*
X167231849Y-27728826D01*
X25555173Y-184900259D02*
X25583152Y-184939987D01*
X50394238Y-31522600D02*
X50296970Y-31377738D01*
X25609148Y-187018960D02*
X25583152Y-187060012D01*
X50001580Y-149801558D02*
X49983455Y-149755376D01*
X89251195Y-125941423D02*
X89254770Y-125892963D01*
X110862462Y-92385049D02*
X110694835Y-92336601D01*
X56487727Y-127000000D02*
X31740122Y-127000000D01*
X58305173Y-33849740D02*
X58275278Y-33888047D01*
X62123108Y-151979522D02*
X61949204Y-151993794D01*
X142654946Y-5566721D02*
X142674637Y-5611144D01*
X109109815Y-31796892D02*
X108998607Y-31662434D01*
X84154946Y-66933278D02*
X84133099Y-66976681D01*
X51156831Y-26695551D02*
X51258232Y-26622649D01*
X89650259Y-67305173D02*
X89611952Y-67275278D01*
X115361952Y-34025278D02*
X115325158Y-33993539D01*
X90240122Y-5000000D02*
X141759877Y-5000000D01*
X120747026Y-145036006D02*
X120919074Y-145065087D01*
X123105761Y-27477399D02*
X123176112Y-27580586D01*
X147754770Y-125892963D02*
X147760718Y-125844737D01*
X84220328Y-5749450D02*
X84230974Y-5796861D01*
X51913576Y-145265767D02*
X52076451Y-145203172D01*
X31231039Y-5140851D02*
X31273318Y-5116900D01*
X3573743Y-85515537D02*
X3747026Y-85536006D01*
X147760718Y-125844737D02*
X147769025Y-125796861D01*
X63595867Y-151473055D02*
X63445378Y-151561368D01*
X173499087Y-65493997D02*
X173499798Y-33008344D01*
X24953138Y-126980974D02*
X24905262Y-126989281D01*
X6575059Y-149590991D02*
X6516544Y-149755376D01*
X110910540Y-145102707D02*
X111080925Y-145065087D01*
X58138047Y-39474721D02*
X58174841Y-39506460D01*
X56640851Y-158731039D02*
X56666847Y-158689987D01*
X56542631Y-152547380D02*
X56529671Y-152500549D01*
X83453138Y-125019025D02*
X83500549Y-125029671D01*
X25268960Y-125140851D02*
X25310012Y-125166847D01*
X56789966Y-33960033D02*
X56756460Y-33924841D01*
X89269025Y-5796861D02*
X89279671Y-5749450D01*
X116343519Y-93692125D02*
X116297380Y-93707368D01*
X122611999Y-32082100D02*
X122518361Y-32164736D01*
X5611999Y-32082100D02*
X5480356Y-32196626D01*
X142654946Y-185066721D02*
X142674637Y-185111144D01*
X123625307Y-28576104D02*
X123667164Y-28745498D01*
X4945378Y-32561368D02*
X4790674Y-32642070D01*
X110694835Y-151836601D02*
X110529831Y-151779858D01*
X83259877Y-8000000D02*
X58512272Y-8000000D01*
X25707368Y-5702619D02*
X25720328Y-5749450D01*
X89269025Y-185296861D02*
X89279671Y-185249450D01*
X142555173Y-184900259D02*
X142583152Y-184939987D01*
X83849740Y-184694826D02*
X83888047Y-184724721D01*
X25583152Y-187060012D02*
X25555173Y-187099740D01*
X115000000Y-33259877D02*
X114999942Y-33009809D01*
X123611870Y-149471652D02*
X123575059Y-149590991D01*
X147974721Y-7638047D02*
X147944826Y-7599740D01*
X25633099Y-5523318D02*
X25654946Y-5566721D01*
X25707368Y-126297380D02*
X25692125Y-126343519D01*
X142609148Y-184981039D02*
X142633099Y-185023318D01*
X49774692Y-29910512D02*
X49762257Y-29786245D01*
X168404132Y-86026944D02*
X168446466Y-86001075D01*
X56499440Y-67506917D02*
X56497188Y-67503159D01*
X89539966Y-67210033D02*
X89506460Y-67174841D01*
X123741450Y-148263227D02*
X123748912Y-148437556D01*
X58489281Y-92905262D02*
X58480974Y-92953138D01*
X123375317Y-90574380D02*
X123352684Y-90618529D01*
X167423199Y-27437117D02*
X167498607Y-27337565D01*
X24808576Y-187498804D02*
X24759877Y-187500000D01*
X84192125Y-185156480D02*
X84207368Y-185202619D01*
X166940741Y-90138020D02*
X166888129Y-89971652D01*
X51258232Y-86122649D02*
X51299223Y-86094701D01*
X142138855Y-125075362D02*
X142183278Y-125095053D01*
X173494874Y-127001353D02*
X173487727Y-127000000D01*
X5772411Y-150925639D02*
X5737770Y-150961154D01*
X89731039Y-125140851D02*
X89773318Y-125116900D01*
X64676112Y-27580586D02*
X64768150Y-27728826D01*
X30754770Y-66607036D02*
X30751195Y-66558576D01*
X108343875Y-88197130D02*
X108388129Y-88028347D01*
X83547380Y-184542631D02*
X83593519Y-184557874D01*
X117006917Y-127000559D02*
X117002811Y-127003159D01*
X115361952Y-158474721D02*
X115400259Y-158444826D01*
X58505125Y-25998646D02*
X58512272Y-26000000D01*
X31740122Y-8000000D02*
X31691423Y-7998804D01*
X108998607Y-27337565D02*
X109109815Y-27203107D01*
X50851632Y-86451644D02*
X50888000Y-86417899D01*
X166843875Y-147697130D02*
X166888129Y-147528347D01*
X57558576Y-153248804D02*
X57509877Y-153250000D01*
X2482Y-192496477D02*
X6455Y-192499275D01*
X25748804Y-5941423D02*
X25750000Y-5990122D01*
X58498804Y-159191423D02*
X58500000Y-159240122D01*
X142138855Y-7924637D02*
X142093519Y-7942125D01*
X89575158Y-7743539D02*
X89539966Y-7710033D01*
X58383099Y-93226681D02*
X58359148Y-93268960D01*
X147825362Y-125611144D02*
X147845053Y-125566721D01*
X142583152Y-67060012D02*
X142555173Y-67099740D01*
X142310012Y-126833152D02*
X142268960Y-126859148D01*
X4704Y-124998394D02*
X12272Y-125000000D01*
X25388047Y-187275278D02*
X25349740Y-187305173D01*
X89250000Y-7009877D02*
X89250000Y-5990122D01*
X116297380Y-93707368D02*
X116250549Y-93720328D01*
X57976681Y-98866900D02*
X58018960Y-98890851D01*
X142460033Y-184789966D02*
X142493539Y-184825158D01*
X24759877Y-184500000D02*
X24808576Y-184501195D01*
X166843875Y-89802869D02*
X166808089Y-89632090D01*
X49752324Y-29387959D02*
X49762257Y-29213754D01*
X62247026Y-32963993D02*
X62073743Y-32984462D01*
X5053533Y-151498924D02*
X4945378Y-151561368D01*
X31740122Y-187500000D02*
X31691423Y-187498804D01*
X6375317Y-87425619D02*
X6449908Y-87583360D01*
X116203138Y-153230974D02*
X116155262Y-153239281D01*
X58243539Y-33924841D02*
X58210033Y-33960033D01*
X30807874Y-186843519D02*
X30792631Y-186797380D01*
X56529671Y-152500549D02*
X56519025Y-152453138D01*
X142424841Y-7743539D02*
X142388047Y-7775278D01*
X31452619Y-5042631D02*
X31499450Y-5029671D01*
X89611952Y-5224721D02*
X89650259Y-5194826D01*
X116980974Y-99546861D02*
X116989281Y-99594737D01*
X115019025Y-40046861D02*
X115029671Y-39999450D01*
X123741450Y-29263227D02*
X123747675Y-29387959D01*
X50727588Y-86574360D02*
X50851632Y-86451644D01*
X83683278Y-187404946D02*
X83638855Y-187424637D01*
X50070495Y-147038138D02*
X50147315Y-146881470D01*
X116995229Y-33357036D02*
X116989281Y-33405262D01*
X49780861Y-148040260D02*
X49808089Y-147867909D01*
X115481039Y-98890851D02*
X115523318Y-98866900D01*
X121901807Y-32585095D02*
X121745975Y-32663596D01*
X63882715Y-32274492D02*
X63741767Y-32377350D01*
X166780861Y-29959739D02*
X166774692Y-29910512D01*
X30890851Y-126518960D02*
X30866900Y-126476681D01*
X31231039Y-67359148D02*
X31189987Y-67333152D01*
X142692125Y-126343519D02*
X142674637Y-126388855D01*
X56939987Y-153083152D02*
X56900259Y-153055173D01*
X142609148Y-65981039D02*
X142633099Y-66023318D01*
X89444826Y-184900259D02*
X89474721Y-184861952D01*
X115325158Y-152993539D02*
X115289966Y-152960033D01*
X57392963Y-34245229D02*
X57344737Y-34239281D01*
X147825362Y-5611144D02*
X147845053Y-5566721D01*
X49832835Y-28745498D02*
X49843875Y-28697130D01*
X147890851Y-184981039D02*
X147916847Y-184939987D01*
X169362462Y-85614950D02*
X169532296Y-85574917D01*
X89731039Y-126859148D02*
X89689987Y-126833152D01*
X173500000Y-192487727D02*
X173500000Y-187512272D01*
X84248804Y-186558576D02*
X84245229Y-186607036D01*
X147974721Y-67138047D02*
X147944826Y-67099740D01*
X56500000Y-159240122D02*
X56501195Y-159191423D01*
X30845053Y-126433278D02*
X30825362Y-126388855D01*
X115075362Y-33638855D02*
X115057874Y-33593519D01*
X89250000Y-5990122D02*
X89251195Y-5941423D01*
X64111999Y-86417899D02*
X64148367Y-86451644D01*
X109262229Y-91461154D02*
X109142643Y-91334090D01*
X147807874Y-5656480D02*
X147825362Y-5611144D01*
X148316721Y-5095053D02*
X148361144Y-5075362D01*
X169410540Y-92397292D02*
X169242243Y-92351225D01*
X115566721Y-158345053D02*
X115611144Y-158325362D01*
X25730974Y-126203138D02*
X25720328Y-126250549D01*
X58333152Y-39689987D02*
X58359148Y-39731039D01*
X166799474Y-147916767D02*
X166832835Y-147745498D01*
X84025278Y-125361952D02*
X84055173Y-125400259D01*
X114987727Y-145000000D02*
X114994874Y-144998646D01*
X31150259Y-184694826D02*
X31189987Y-184666847D01*
X142739281Y-125844737D02*
X142745229Y-125892963D01*
X169410540Y-151897292D02*
X169242243Y-151851225D01*
X84192125Y-5656480D02*
X84207368Y-5702619D01*
X31691423Y-187498804D02*
X31642963Y-187495229D01*
X142745229Y-66392963D02*
X142748804Y-66441423D01*
X89816721Y-125095053D02*
X89861144Y-125075362D01*
X6516544Y-147244623D02*
X6575059Y-147409008D01*
X168598192Y-151585095D02*
X168554621Y-151561368D01*
X167851632Y-151048355D02*
X167727588Y-150925639D01*
X122890184Y-146203107D02*
X123001392Y-146337565D01*
X148361144Y-187424637D02*
X148316721Y-187404946D01*
X30754770Y-186607036D02*
X30751195Y-186558576D01*
X109758232Y-151377350D02*
X109617284Y-151274492D01*
X56529671Y-39999450D02*
X56542631Y-39952619D01*
X25183278Y-7904946D02*
X25138855Y-7924637D01*
X148075158Y-184756460D02*
X148111952Y-184724721D01*
X51258232Y-145622649D02*
X51299223Y-145594701D01*
X84192125Y-7343519D02*
X84174637Y-7388855D01*
X56487727Y-67500000D02*
X31740122Y-67500000D01*
X83768960Y-67359148D02*
X83726681Y-67383099D01*
X89952619Y-184542631D02*
X89999450Y-184529671D01*
X108388129Y-30471652D02*
X108343875Y-30302869D01*
X89689987Y-5166847D02*
X89731039Y-5140851D01*
X25739281Y-126155262D02*
X25730974Y-126203138D01*
X142183278Y-184595053D02*
X142226681Y-184616900D01*
X31361144Y-65575362D02*
X31406480Y-65557874D01*
X173495703Y-92501878D02*
X173487727Y-92500000D01*
X56557874Y-99406480D02*
X56575362Y-99361144D01*
X58500000Y-127012272D02*
X58500559Y-144993082D01*
X116989281Y-152405262D02*
X116980974Y-152453138D01*
X115289966Y-152960033D02*
X115256460Y-152924841D01*
X142730974Y-126203138D02*
X142720328Y-126250549D01*
X25138855Y-65575362D02*
X25183278Y-65595053D01*
X167888000Y-26917899D02*
X167981638Y-26835263D01*
X116980974Y-159046861D02*
X116989281Y-159094737D01*
X64852684Y-146881470D02*
X64929504Y-147038138D01*
X83924841Y-187243539D02*
X83888047Y-187275278D01*
X31231039Y-184640851D02*
X31273318Y-184616900D01*
X31273318Y-125116900D02*
X31316721Y-125095053D01*
X89906480Y-65557874D02*
X89952619Y-65542631D01*
X56595053Y-99316721D02*
X56616900Y-99273318D01*
X142720328Y-66750549D02*
X142707368Y-66797380D01*
X56724721Y-152888047D02*
X56694826Y-152849740D01*
X90191423Y-5001195D02*
X90240122Y-5000000D01*
X31189987Y-67333152D02*
X31150259Y-67305173D01*
X89251195Y-66558576D02*
X89250000Y-66509877D01*
X57249450Y-34220328D02*
X57202619Y-34207368D01*
X89611952Y-67275278D02*
X89575158Y-67243539D01*
X123737742Y-148213754D02*
X123741450Y-148263227D01*
X167050091Y-149916639D02*
X166983455Y-149755376D01*
X57111144Y-153174637D02*
X57066721Y-153154946D01*
X65059258Y-147361979D02*
X65111870Y-147528347D01*
X89366900Y-66023318D02*
X89390851Y-65981039D01*
X31594737Y-184510718D02*
X31642963Y-184504770D01*
X56504770Y-92857036D02*
X56501195Y-92808576D01*
X31039966Y-7710033D02*
X31006460Y-7674841D01*
X166751087Y-148562443D02*
X166751087Y-148437556D01*
X30974721Y-67138047D02*
X30944826Y-67099740D01*
X51299223Y-145594701D02*
X51404132Y-145526944D01*
X25750000Y-185490122D02*
X25750000Y-186509877D01*
X30845053Y-185066721D02*
X30866900Y-185023318D01*
X115523318Y-34133099D02*
X115481039Y-34109148D01*
X108251087Y-29562443D02*
X108252324Y-29387959D01*
X30866900Y-126476681D02*
X30845053Y-126433278D01*
X111252973Y-26036006D02*
X111426256Y-26015537D01*
X84109148Y-187018960D02*
X84083152Y-187060012D01*
X5125Y-144998646D02*
X12272Y-145000000D01*
X123292956Y-87271791D02*
X123375317Y-87425619D01*
X168754024Y-32663596D02*
X168598192Y-32585095D01*
X116957368Y-158952619D02*
X116970328Y-158999450D01*
X83405262Y-187489281D02*
X83357036Y-187495229D01*
X142525278Y-67138047D02*
X142493539Y-67174841D01*
X31361144Y-125075362D02*
X31406480Y-125057874D01*
X89279671Y-185249450D02*
X89292631Y-185202619D01*
X90142963Y-125004770D02*
X90191423Y-125001195D01*
X30751195Y-185441423D02*
X30754770Y-185392963D01*
X116599740Y-39444826D02*
X116638047Y-39474721D01*
X108299474Y-30083232D02*
X108274692Y-29910512D01*
X116518960Y-98890851D02*
X116560012Y-98916847D01*
X58480974Y-40046861D02*
X58489281Y-40094737D01*
X148499450Y-67470328D02*
X148452619Y-67457368D01*
X168867860Y-145285038D02*
X169029831Y-145220141D01*
X89952619Y-125042631D02*
X89999450Y-125029671D01*
X31546861Y-7980974D02*
X31499450Y-7970328D01*
X115019025Y-33453138D02*
X115010718Y-33405262D01*
X116957368Y-93047380D02*
X116942125Y-93093519D01*
X89416847Y-184939987D02*
X89444826Y-184900259D01*
X89444826Y-7599740D02*
X89416847Y-7560012D01*
X115566721Y-39345053D02*
X115611144Y-39325362D01*
X50727588Y-146074360D02*
X50851632Y-145951644D01*
X108424940Y-28409008D02*
X108483455Y-28244623D01*
X142748804Y-125941423D02*
X142750000Y-125990122D01*
X58442125Y-39906480D02*
X58457368Y-39952619D01*
X25388047Y-5224721D02*
X25424841Y-5256460D01*
X31642963Y-187495229D02*
X31594737Y-187489281D01*
X56595053Y-39816721D02*
X56616900Y-39773318D01*
X50231849Y-90771173D02*
X50147315Y-90618529D01*
X147916847Y-67060012D02*
X147890851Y-67018960D01*
X108332835Y-149254501D02*
X108299474Y-149083232D01*
X122382715Y-86225507D02*
X122518361Y-86335263D01*
X30974721Y-65861952D02*
X31006460Y-65825158D01*
X56504770Y-40142963D02*
X56510718Y-40094737D01*
X25493539Y-126674841D02*
X25460033Y-126710033D01*
X25525278Y-65861952D02*
X25555173Y-65900259D01*
X120919074Y-26065087D02*
X121089459Y-26102707D01*
X116599740Y-93555173D02*
X116560012Y-93583152D01*
X142000549Y-67470328D02*
X141953138Y-67480974D01*
X115796861Y-158269025D02*
X115844737Y-158260718D01*
X64111999Y-145917899D02*
X64148367Y-145951644D01*
X56519025Y-40046861D02*
X56529671Y-39999450D01*
X84207368Y-66202619D02*
X84220328Y-66249450D01*
X89251195Y-5941423D02*
X89254770Y-5892963D01*
X89575158Y-184756460D02*
X89611952Y-184724721D01*
X56616900Y-152726681D02*
X56595053Y-152683278D01*
X6076800Y-91062882D02*
X6001392Y-91162434D01*
X148361144Y-5075362D02*
X148406480Y-5057874D01*
X141953138Y-65519025D02*
X142000549Y-65529671D01*
X115010718Y-159094737D02*
X115019025Y-159046861D01*
X83500549Y-67470328D02*
X83453138Y-67480974D01*
X173493544Y-724D02*
X173487727Y0D01*
X147890851Y-125481039D02*
X147916847Y-125439987D01*
X31546861Y-184519025D02*
X31594737Y-184510718D01*
X148189987Y-187333152D02*
X148150259Y-187305173D01*
X84239281Y-5844737D02*
X84245229Y-5892963D01*
X64018361Y-151164736D02*
X63882715Y-151274492D01*
X148150259Y-184694826D02*
X148189987Y-184666847D01*
X89539966Y-65789966D02*
X89575158Y-65756460D01*
X147944826Y-125400259D02*
X147974721Y-125361952D01*
X108374692Y-28576104D02*
X108424940Y-28409008D01*
X110254024Y-85836403D02*
X110413576Y-85765767D01*
X116883099Y-33726681D02*
X116859148Y-33768960D01*
X142555173Y-126599740D02*
X142525278Y-126638047D01*
X148361144Y-126924637D02*
X148316721Y-126904946D01*
X147825362Y-7388855D02*
X147807874Y-7343519D01*
X58243539Y-152924841D02*
X58210033Y-152960033D01*
X108299474Y-147916767D02*
X108332835Y-147745498D01*
X89861144Y-67424637D02*
X89816721Y-67404946D01*
X148006460Y-7674841D02*
X147974721Y-7638047D01*
X50609815Y-31796892D02*
X50498607Y-31662434D01*
X84109148Y-125481039D02*
X84133099Y-125523318D01*
X148361144Y-184575362D02*
X148406480Y-184557874D01*
X83726681Y-65616900D02*
X83768960Y-65640851D01*
X173487727Y-145000000D02*
X173494874Y-144998646D01*
X117005125Y-25998646D02*
X117012272Y-26000000D01*
X30866900Y-66023318D02*
X30890851Y-65981039D01*
X142047380Y-125042631D02*
X142093519Y-125057874D01*
X116638047Y-93525278D02*
X116599740Y-93555173D01*
X89575158Y-125256460D02*
X89611952Y-125224721D01*
X142555173Y-5400259D02*
X142583152Y-5439987D01*
X25310012Y-184666847D02*
X25349740Y-184694826D01*
X58018960Y-93609148D02*
X57976681Y-93633099D01*
X116297380Y-98792631D02*
X116343519Y-98807874D01*
X120237595Y-85500000D02*
X120399654Y-85503732D01*
X912Y-8006002D02*
X559Y-25993082D01*
X5200776Y-32405298D02*
X5053533Y-32498924D01*
X31361144Y-7924637D02*
X31316721Y-7904946D01*
X64148367Y-86451644D02*
X64272411Y-86574360D01*
X6691910Y-30132090D02*
X6667164Y-30254501D01*
X83259877Y-67500000D02*
X58512272Y-67500000D01*
X24953138Y-125019025D02*
X25000549Y-125029671D01*
X123575059Y-87909008D02*
X123625307Y-88076104D01*
X30974721Y-7638047D02*
X30944826Y-7599740D01*
X62073743Y-92484462D02*
X61899654Y-92496267D01*
X120796084Y-32956599D02*
X120747026Y-32963993D01*
X61737595Y-145000000D02*
X61899654Y-145003732D01*
X57933278Y-39345053D02*
X57976681Y-39366900D01*
X65111870Y-147528347D02*
X65156124Y-147697130D01*
X89292631Y-5702619D02*
X89307874Y-5656480D01*
X117012272Y-67500000D02*
X117006917Y-67500559D01*
X83726681Y-125116900D02*
X83768960Y-125140851D01*
X148111952Y-65724721D02*
X148150259Y-65694826D01*
X25707368Y-7297380D02*
X25692125Y-7343519D01*
X117000000Y-40240122D02*
X117000000Y-65487727D01*
X147760718Y-126155262D02*
X147754770Y-126107036D01*
X24759877Y-67500000D02*
X12272Y-67500000D01*
X57976681Y-93633099D02*
X57933278Y-93654946D01*
X56542631Y-33547380D02*
X56529671Y-33500549D01*
X122518361Y-151164736D02*
X122382715Y-151274492D01*
X109351632Y-86451644D02*
X109481638Y-86335263D01*
X90046861Y-7980974D02*
X89999450Y-7970328D01*
X58502811Y-184496840D02*
X58506917Y-184499440D01*
X120919074Y-145065087D02*
X121089459Y-145102707D01*
X4257756Y-85648774D02*
X4423548Y-85703172D01*
X89539966Y-5289966D02*
X89575158Y-5256460D01*
X111762404Y-33000000D02*
X111600345Y-32996267D01*
X142093519Y-5057874D02*
X142138855Y-5075362D01*
X65219138Y-88540260D02*
X65237742Y-88713754D01*
X25460033Y-187210033D02*
X25424841Y-187243539D01*
X57843519Y-153192125D02*
X57797380Y-153207368D01*
X6268150Y-27728826D02*
X6352684Y-27881470D01*
X173499798Y-92508344D02*
X173495703Y-92501878D01*
X148316721Y-187404946D02*
X148273318Y-187383099D01*
X89254770Y-126107036D02*
X89251195Y-126058576D01*
X142739281Y-66344737D02*
X142745229Y-66392963D01*
X64018361Y-86335263D02*
X64111999Y-86417899D01*
X58333152Y-33810012D02*
X58305173Y-33849740D01*
X58383099Y-33726681D02*
X58359148Y-33768960D01*
X50050091Y-90416639D02*
X49983455Y-90255376D01*
X58500559Y-124993082D02*
X58502811Y-124996840D01*
X58502170Y-152003902D02*
X58500057Y-152009809D01*
X83308576Y-65501195D02*
X83357036Y-65504770D01*
X122095867Y-91973055D02*
X122053533Y-91998924D01*
X89444826Y-5400259D02*
X89474721Y-5361952D01*
X123559258Y-28361979D02*
X123575059Y-28409008D01*
X142349740Y-187305173D02*
X142310012Y-187333152D01*
X148316721Y-65595053D02*
X148361144Y-65575362D01*
X89506460Y-184825158D02*
X89539966Y-184789966D01*
X120237595Y-92500000D02*
X117007387Y-92500416D01*
X49808089Y-88367909D02*
X49832835Y-88245498D01*
X116203138Y-34230974D02*
X116155262Y-34239281D01*
X25739281Y-66344737D02*
X25745229Y-66392963D01*
X115325158Y-39506460D02*
X115361952Y-39474721D01*
X30754770Y-126107036D02*
X30751195Y-126058576D01*
X120237595Y-145000000D02*
X120399654Y-145003732D01*
X50727588Y-27074360D02*
X50851632Y-26951644D01*
X116155262Y-93739281D02*
X116107036Y-93745229D01*
X109656831Y-145695551D02*
X109799223Y-145594701D01*
X5857356Y-146165909D02*
X5970460Y-146298777D01*
X111080925Y-92434912D02*
X111032296Y-92425082D01*
X142692125Y-5656480D02*
X142707368Y-5702619D01*
X62467703Y-145074917D02*
X62637537Y-145114950D01*
X141808576Y-184501195D02*
X141857036Y-184504770D01*
X25674637Y-66111144D02*
X25692125Y-66156480D01*
X108424940Y-87909008D02*
X108440741Y-87861979D01*
X64501392Y-91162434D02*
X64470460Y-91201222D01*
X148499450Y-187470328D02*
X148452619Y-187457368D01*
X65241450Y-88763227D02*
X65247675Y-88887959D01*
X89444826Y-126599740D02*
X89416847Y-126560012D01*
X148231039Y-184640851D02*
X148273318Y-184616900D01*
X5480356Y-86303373D02*
X5611999Y-86417899D01*
X166752324Y-89112040D02*
X166751087Y-88937556D01*
X4423548Y-145203172D02*
X4586423Y-145265767D01*
X56510718Y-99594737D02*
X56519025Y-99546861D01*
X53100345Y-145003732D02*
X53262404Y-145000000D01*
X51258232Y-32377350D02*
X51117284Y-32274492D01*
X116957368Y-152547380D02*
X116942125Y-152593519D01*
X58359148Y-158731039D02*
X58383099Y-158773318D01*
X65111870Y-89971652D02*
X65059258Y-90138020D01*
X89269025Y-125796861D02*
X89279671Y-125749450D01*
X49832835Y-89754501D02*
X49808089Y-89632090D01*
X83593519Y-125057874D02*
X83638855Y-125075362D01*
X57843519Y-98807874D02*
X57888855Y-98825362D01*
X51913576Y-92234232D02*
X51754024Y-92163596D01*
X84207368Y-66797380D02*
X84192125Y-66843519D01*
X24905262Y-65510718D02*
X24953138Y-65519025D01*
X58480974Y-92953138D02*
X58470328Y-93000549D01*
X169076451Y-32796827D02*
X168913576Y-32734232D01*
X25692125Y-185156480D02*
X25707368Y-185202619D01*
X142138855Y-184575362D02*
X142183278Y-184595053D01*
X108252324Y-88887959D02*
X108262257Y-88713754D01*
X147916847Y-126560012D02*
X147890851Y-126518960D01*
X30845053Y-66933278D02*
X30825362Y-66888855D01*
X89999450Y-187470328D02*
X89952619Y-187457368D01*
X116859148Y-33768960D02*
X116833152Y-33810012D01*
X142654946Y-126433278D02*
X142633099Y-126476681D01*
X129Y-184491169D02*
X4296Y-184498121D01*
X123611870Y-89971652D02*
X123559258Y-90138020D01*
X52410540Y-26102707D02*
X52580925Y-26065087D01*
X111080925Y-26065087D02*
X111252973Y-26036006D01*
X65167164Y-149254501D02*
X65156124Y-149302869D01*
X56500000Y-40240122D02*
X56501195Y-40191423D01*
X89279671Y-125749450D02*
X89292631Y-125702619D01*
X25707368Y-186797380D02*
X25692125Y-186843519D01*
X31740122Y-184500000D02*
X56490190Y-184499942D01*
X25745229Y-66607036D02*
X25739281Y-66655262D01*
X4257756Y-26148774D02*
X4423548Y-26203172D01*
X31075158Y-126743539D02*
X31039966Y-126710033D01*
X89279671Y-126250549D02*
X89269025Y-126203138D01*
X24905262Y-187489281D02*
X24857036Y-187495229D01*
X50642643Y-91334090D02*
X50529539Y-91201222D01*
X90191423Y-125001195D02*
X90240122Y-125000000D01*
X6449908Y-149916639D02*
X6429504Y-149961861D01*
X84025278Y-7638047D02*
X83993539Y-7674841D01*
X64272411Y-150925639D02*
X64148367Y-151048355D01*
X147779671Y-125749450D02*
X147792631Y-125702619D01*
X116883099Y-39773318D02*
X116904946Y-39816721D01*
X31361144Y-67424637D02*
X31316721Y-67404946D01*
X108894238Y-91022600D02*
X108823887Y-90919413D01*
X56499942Y-8009809D02*
X56496097Y-8002170D01*
X109388000Y-26917899D02*
X109519643Y-26803373D01*
X89390851Y-126518960D02*
X89366900Y-126476681D01*
X123429504Y-149961861D02*
X123352684Y-150118529D01*
X58495229Y-99642963D02*
X58498804Y-99691423D01*
X25000549Y-67470328D02*
X24953138Y-67480974D01*
X115042631Y-99452619D02*
X115057874Y-99406480D01*
X30792631Y-66202619D02*
X30807874Y-66156480D01*
X142692125Y-186843519D02*
X142674637Y-186888855D01*
X6748912Y-148562443D02*
X6741450Y-148736772D01*
X122648367Y-26951644D02*
X122737770Y-27038845D01*
X62419074Y-26065087D02*
X62589459Y-26102707D01*
X116203138Y-93730974D02*
X116155262Y-93739281D01*
X65125307Y-28576104D02*
X65156124Y-28697130D01*
X89906480Y-126942125D02*
X89861144Y-126924637D01*
X148406480Y-7942125D02*
X148361144Y-7924637D01*
X115566721Y-93654946D02*
X115523318Y-93633099D01*
X58498804Y-40191423D02*
X58500000Y-40240122D01*
X58503159Y-127002811D02*
X58500559Y-127006917D01*
X142460033Y-5289966D02*
X142493539Y-5325158D01*
X147944826Y-126599740D02*
X147916847Y-126560012D01*
X111426256Y-145015537D02*
X111600345Y-145003732D01*
X65059258Y-30638020D02*
X65016544Y-30755376D01*
X6449908Y-90416639D02*
X6375317Y-90574380D01*
X116433278Y-93654946D02*
X116388855Y-93674637D01*
X142748804Y-66441423D02*
X142750000Y-66490122D01*
X50050091Y-30916639D02*
X49983455Y-30755376D01*
X65059258Y-87861979D02*
X65111870Y-88028347D01*
X56789966Y-39539966D02*
X56825158Y-39506460D01*
X115566721Y-153154946D02*
X115523318Y-153133099D01*
X116388855Y-158325362D02*
X116433278Y-158345053D01*
X6667164Y-89754501D02*
X6656124Y-89802869D01*
X90191423Y-7998804D02*
X90142963Y-7995229D01*
X166983455Y-87744623D02*
X167001580Y-87698441D01*
X123747675Y-89112040D02*
X123741450Y-89236772D01*
X173492612Y-187500416D02*
X148740122Y-187500000D01*
X115256460Y-93424841D02*
X115224721Y-93388047D01*
X57703138Y-34230974D02*
X57655262Y-34239281D01*
X117002811Y-184496840D02*
X117006917Y-184499440D01*
X5053533Y-32498924D02*
X4945378Y-32561368D01*
X62419074Y-151934912D02*
X62247026Y-151963993D01*
X120573743Y-145015537D02*
X120747026Y-145036006D01*
X116924637Y-39861144D02*
X116942125Y-39906480D01*
X84109148Y-126518960D02*
X84083152Y-126560012D01*
X169580925Y-151934912D02*
X169410540Y-151897292D01*
X83638855Y-5075362D02*
X83683278Y-5095053D01*
X148039966Y-125289966D02*
X148075158Y-125256460D01*
X114992612Y-152000416D02*
X111762404Y-152000000D01*
X167147315Y-146881470D02*
X167207043Y-146771791D01*
X147807874Y-185156480D02*
X147825362Y-185111144D01*
X169029831Y-85720141D02*
X169194835Y-85663398D01*
X114987727Y-26000000D02*
X114994874Y-25998646D01*
X89474721Y-65861952D02*
X89506460Y-65825158D01*
X84248804Y-126058576D02*
X84245229Y-126107036D01*
X56510718Y-40094737D02*
X56519025Y-40046861D01*
X24857036Y-67495229D02*
X24808576Y-67498804D01*
X3796084Y-92456599D02*
X3747026Y-92463993D01*
X58018960Y-158390851D02*
X58060012Y-158416847D01*
X83683278Y-125095053D02*
X83726681Y-125116900D01*
X3573743Y-145015537D02*
X3747026Y-145036006D01*
X84133099Y-186976681D02*
X84109148Y-187018960D01*
X49983455Y-87744623D02*
X50050091Y-87583360D01*
X173497517Y-3522D02*
X173493544Y-724D01*
X108923199Y-27437117D02*
X108998607Y-27337565D01*
X167642643Y-31834090D02*
X167609815Y-31796892D01*
X173487727Y-85500000D02*
X173494874Y-85498646D01*
X89650259Y-125194826D02*
X89689987Y-125166847D01*
X115325158Y-158506460D02*
X115361952Y-158474721D01*
X31594737Y-5010718D02*
X31642963Y-5004770D01*
X84230974Y-66296861D02*
X84239281Y-66344737D01*
X147974721Y-125361952D02*
X148006460Y-125325158D01*
X114997829Y-184496097D02*
X115000000Y-184487727D01*
X56529671Y-33500549D02*
X56519025Y-33453138D01*
X83849740Y-67305173D02*
X83810012Y-67333152D01*
X58138047Y-158474721D02*
X58174841Y-158506460D01*
X58138047Y-93525278D02*
X58099740Y-93555173D01*
X122200776Y-26594701D02*
X122241767Y-26622649D01*
X56616900Y-99273318D02*
X56640851Y-99231039D01*
X12272Y-184500000D02*
X24759877Y-184500000D01*
X89731039Y-67359148D02*
X89689987Y-67333152D01*
X115941423Y-34248804D02*
X115892963Y-34245229D01*
X25183278Y-65595053D02*
X25226681Y-65616900D01*
X116904946Y-93183278D02*
X116883099Y-93226681D01*
X52076451Y-151796827D02*
X51913576Y-151734232D01*
X166780861Y-89459739D02*
X166762257Y-89286245D01*
X58506917Y-8000559D02*
X58502811Y-8003159D01*
X116009877Y-93750000D02*
X115941423Y-93748804D01*
X83547380Y-5042631D02*
X83593519Y-5057874D01*
X6292956Y-31228208D02*
X6203029Y-31377738D01*
X109799223Y-145594701D02*
X109904132Y-145526944D01*
X109656831Y-26695551D02*
X109758232Y-26622649D01*
X142674637Y-185111144D02*
X142692125Y-185156480D01*
X83726681Y-5116900D02*
X83768960Y-5140851D01*
X89416847Y-67060012D02*
X89390851Y-67018960D01*
X84248804Y-7058576D02*
X84245229Y-7107036D01*
X168117284Y-32274492D02*
X168019643Y-32196626D01*
X31006460Y-184825158D02*
X31039966Y-184789966D01*
X25739281Y-185344737D02*
X25745229Y-185392963D01*
X58404946Y-158816721D02*
X58424637Y-158861144D01*
X31316721Y-187404946D02*
X31273318Y-187383099D01*
X49751087Y-88937556D02*
X49752324Y-88887959D01*
X58500000Y-124987727D02*
X58500559Y-124993082D01*
X5200776Y-26594701D02*
X5241767Y-26622649D01*
X166774692Y-29910512D02*
X166758549Y-29736772D01*
X123725307Y-29089487D02*
X123741450Y-29263227D01*
X25525278Y-67138047D02*
X25493539Y-67174841D01*
X83308576Y-125001195D02*
X83357036Y-125004770D01*
X25750000Y-7009877D02*
X25748804Y-7058576D01*
X166762257Y-148213754D02*
X166780861Y-148040260D01*
X52752973Y-26036006D02*
X52926256Y-26015537D01*
X142583152Y-184939987D02*
X142609148Y-184981039D01*
X30754770Y-185392963D02*
X30760718Y-185344737D01*
X31111952Y-126775278D02*
X31075158Y-126743539D01*
X89999450Y-7970328D02*
X89952619Y-7957368D01*
X56500000Y-92759877D02*
X56499942Y-92509809D01*
X115029671Y-152500549D02*
X115019025Y-152453138D01*
X166762257Y-148786245D02*
X166758549Y-148736772D01*
X115004770Y-99642963D02*
X115010718Y-99594737D01*
X56542631Y-39952619D02*
X56557874Y-39906480D01*
X50529539Y-150701222D02*
X50498607Y-150662434D01*
X89906480Y-67442125D02*
X89861144Y-67424637D01*
X142093519Y-187442125D02*
X142047380Y-187457368D01*
X31231039Y-187359148D02*
X31189987Y-187333152D01*
X30944826Y-187099740D02*
X30916847Y-187060012D01*
X110576451Y-145203172D02*
X110742243Y-145148774D01*
X50851632Y-91548355D02*
X50727588Y-91425639D01*
X31361144Y-126924637D02*
X31316721Y-126904946D01*
X25555173Y-187099740D02*
X25525278Y-187138047D01*
X83924841Y-126743539D02*
X83888047Y-126775278D01*
X83357036Y-184504770D02*
X83405262Y-184510718D01*
X109227588Y-31925639D02*
X109109815Y-31796892D01*
X83888047Y-184724721D02*
X83924841Y-184756460D01*
X141953138Y-125019025D02*
X142000549Y-125029671D01*
X25555173Y-65900259D02*
X25583152Y-65939987D01*
X147890851Y-7518960D02*
X147866900Y-7476681D01*
X141759877Y-187500000D02*
X90240122Y-187500000D01*
X3747026Y-151963993D02*
X3573743Y-151984462D01*
X25525278Y-187138047D02*
X25493539Y-187174841D01*
X52752973Y-151963993D02*
X52580925Y-151934912D01*
X53262404Y-26000000D02*
X56487727Y-26000000D01*
X52926256Y-151984462D02*
X52752973Y-151963993D01*
X57344737Y-153239281D02*
X57296861Y-153230974D01*
X116250549Y-39279671D02*
X116297380Y-39292631D01*
X57509877Y-153250000D02*
X57441423Y-153248804D01*
X123449908Y-147083360D02*
X123516544Y-147244623D01*
X58470328Y-99499450D02*
X58480974Y-99546861D01*
X108440741Y-87861979D02*
X108501580Y-87698441D01*
X84083152Y-67060012D02*
X84055173Y-67099740D01*
X58470328Y-93000549D02*
X58457368Y-93047380D01*
X52076451Y-26203172D02*
X52242243Y-26148774D01*
X6691910Y-28867909D02*
X6719138Y-29040260D01*
X25748804Y-66558576D02*
X25745229Y-66607036D01*
X115057874Y-158906480D02*
X115075362Y-158861144D01*
X142555173Y-67099740D02*
X142525278Y-67138047D01*
X31111952Y-7775278D02*
X31075158Y-7743539D01*
X116674841Y-99006460D02*
X116710033Y-99039966D01*
X25730974Y-66703138D02*
X25720328Y-66750549D01*
X6719138Y-29040260D02*
X6725307Y-29089487D01*
X50888000Y-26917899D02*
X51019643Y-26803373D01*
X108501580Y-28198441D02*
X108570495Y-28038138D01*
X25093519Y-184557874D02*
X25138855Y-184575362D01*
X6737742Y-29786245D02*
X6719138Y-29959739D01*
X50147315Y-90618529D02*
X50124682Y-90574380D01*
X56939987Y-93583152D02*
X56900259Y-93555173D01*
X122890184Y-27203107D02*
X123001392Y-27337565D01*
X108647315Y-90618529D02*
X108624682Y-90574380D01*
X115140851Y-33768960D02*
X115116900Y-33726681D01*
X83924841Y-7743539D02*
X83888047Y-7775278D01*
X111600345Y-32996267D02*
X111426256Y-32984462D01*
X108262257Y-148213754D02*
X108274692Y-148089487D01*
X121470168Y-32779858D02*
X121305164Y-32836601D01*
X4586423Y-26265767D02*
X4745975Y-26336403D01*
X65200525Y-30083232D02*
X65167164Y-30254501D01*
X148361144Y-7924637D02*
X148316721Y-7904946D01*
X25310012Y-67333152D02*
X25268960Y-67359148D01*
X116833152Y-93310012D02*
X116805173Y-93349740D01*
X148642963Y-126995229D02*
X148594737Y-126989281D01*
X24759877Y-8000000D02*
X12272Y-8000000D01*
X58512272Y-85500000D02*
X61737595Y-85500000D01*
X6656124Y-89802869D02*
X6611870Y-89971652D01*
X50147315Y-146881470D02*
X50231849Y-146728826D01*
X173495703Y-8001878D02*
X173487727Y-8000000D01*
X56529671Y-93000549D02*
X56519025Y-92953138D01*
X108647315Y-146881470D02*
X108707043Y-146771791D01*
X116957368Y-39952619D02*
X116970328Y-39999450D01*
X64703029Y-150377738D02*
X64605761Y-150522600D01*
X56756460Y-39575158D02*
X56789966Y-39539966D01*
X89999450Y-67470328D02*
X89952619Y-67457368D01*
X57023318Y-93633099D02*
X56981039Y-93609148D01*
X30807874Y-185156480D02*
X30825362Y-185111144D01*
X49983455Y-149755376D02*
X49924940Y-149590991D01*
X167323887Y-27580586D02*
X167423199Y-27437117D01*
X57490122Y-158250000D02*
X57558576Y-158251195D01*
X89575158Y-187243539D02*
X89539966Y-187210033D01*
X83453138Y-184519025D02*
X83500549Y-184529671D01*
X5241767Y-151377350D02*
X5200776Y-151405298D01*
X148499450Y-125029671D02*
X148546861Y-125019025D01*
X51019643Y-26803373D02*
X51156831Y-26695551D01*
X109142643Y-91334090D02*
X109029539Y-91201222D01*
X50124682Y-150074380D02*
X50050091Y-149916639D01*
X58506917Y-184499440D02*
X58512272Y-184500000D01*
X30825362Y-126388855D02*
X30807874Y-126343519D01*
X51404132Y-151473055D02*
X51299223Y-151405298D01*
X116743539Y-39575158D02*
X116775278Y-39611952D01*
X30760718Y-66655262D02*
X30754770Y-66607036D01*
X109617284Y-145725507D02*
X109656831Y-145695551D01*
X142226681Y-5116900D02*
X142268960Y-5140851D01*
X25000549Y-65529671D02*
X25047380Y-65542631D01*
X6176112Y-87080586D02*
X6268150Y-87228826D01*
X108570495Y-149961861D02*
X108550091Y-149916639D01*
X141759877Y-125000000D02*
X141808576Y-125001195D01*
X84220328Y-125749450D02*
X84230974Y-125796861D01*
X25609148Y-125481039D02*
X25633099Y-125523318D01*
X141953138Y-7980974D02*
X141905262Y-7989281D01*
X115289966Y-39539966D02*
X115325158Y-39506460D01*
X83726681Y-126883099D02*
X83683278Y-126904946D01*
X62970168Y-151779858D02*
X62805164Y-151836601D01*
X12272Y-92500000D02*
X4296Y-92501878D01*
X116743539Y-93424841D02*
X116710033Y-93460033D01*
X5857356Y-31834090D02*
X5737770Y-31961154D01*
X173494874Y-144998646D02*
X173499440Y-144993082D01*
X83593519Y-7942125D02*
X83547380Y-7957368D01*
X148273318Y-125116900D02*
X148316721Y-125095053D01*
X58512272Y-145000000D02*
X61737595Y-145000000D01*
X115941423Y-39251195D02*
X115990122Y-39250000D01*
X108274692Y-89410512D02*
X108262257Y-89286245D01*
X142000549Y-184529671D02*
X142047380Y-184542631D01*
X52242243Y-92351225D02*
X52076451Y-92296827D01*
X123625307Y-88076104D02*
X123656124Y-88197130D01*
X56825158Y-152993539D02*
X56789966Y-152960033D01*
X58138047Y-153025278D02*
X58099740Y-153055173D01*
X115325158Y-93493539D02*
X115289966Y-93460033D01*
X115702619Y-98792631D02*
X115749450Y-98779671D01*
X115325158Y-33993539D02*
X115289966Y-33960033D01*
X89474721Y-5361952D02*
X89506460Y-5325158D01*
X141857036Y-67495229D02*
X141808576Y-67498804D01*
X116058576Y-34248804D02*
X116009877Y-34250000D01*
X147751195Y-126058576D02*
X147750000Y-125990122D01*
X116859148Y-39731039D02*
X116883099Y-39773318D01*
X25609148Y-65981039D02*
X25633099Y-66023318D01*
X84248804Y-125941423D02*
X84250000Y-126009877D01*
X58424637Y-39861144D02*
X58442125Y-39906480D01*
X56825158Y-99006460D02*
X56861952Y-98974721D01*
X109227588Y-27074360D02*
X109351632Y-26951644D01*
X58243539Y-39575158D02*
X58275278Y-39611952D01*
X142424841Y-125256460D02*
X142460033Y-125289966D01*
X57111144Y-158325362D02*
X57156480Y-158307874D01*
X24857036Y-65504770D02*
X24905262Y-65510718D01*
X123352684Y-146881470D02*
X123429504Y-147038138D01*
X57509877Y-34250000D02*
X57441423Y-34248804D01*
X58060012Y-98916847D02*
X58099740Y-98944826D01*
X58210033Y-158539966D02*
X58243539Y-158575158D01*
X115166847Y-93310012D02*
X115140851Y-93268960D01*
X108343875Y-28697130D02*
X108374692Y-28576104D01*
X58500000Y-40240122D02*
X58500000Y-65487727D01*
X3237595Y-85500000D02*
X3399654Y-85503732D01*
X6691910Y-89632090D02*
X6667164Y-89754501D01*
X50498607Y-91162434D02*
X50394238Y-91022600D01*
X108262257Y-89286245D02*
X108252324Y-89112040D01*
X63980356Y-26803373D02*
X64111999Y-26917899D01*
X109227588Y-86574360D02*
X109351632Y-86451644D01*
X84154946Y-66066721D02*
X84174637Y-66111144D01*
X116518960Y-93609148D02*
X116476681Y-93633099D01*
X30807874Y-5656480D02*
X30825362Y-5611144D01*
X173487727Y-92500000D02*
X170262404Y-92500000D01*
X89474721Y-187138047D02*
X89444826Y-187099740D01*
X116250549Y-93720328D02*
X116203138Y-93730974D01*
X90240122Y-184500000D02*
X114990190Y-184499942D01*
X50323887Y-90919413D02*
X50231849Y-90771173D01*
X56497829Y-33003902D02*
X56492612Y-33000416D01*
X142583152Y-7560012D02*
X142555173Y-7599740D01*
X90094737Y-187489281D02*
X90046861Y-187480974D01*
X25493539Y-67174841D02*
X25460033Y-67210033D01*
X6105761Y-31522600D02*
X6076800Y-31562882D01*
X170100345Y-151996267D02*
X169926256Y-151984462D01*
X142525278Y-187138047D02*
X142493539Y-187174841D01*
X201Y-92508344D02*
X297Y-124992136D01*
X25388047Y-67275278D02*
X25349740Y-67305173D01*
X83638855Y-67424637D02*
X83593519Y-67442125D01*
X84055173Y-184900259D02*
X84083152Y-184939987D01*
X115400259Y-153055173D02*
X115361952Y-153025278D01*
X5343168Y-26695551D02*
X5480356Y-26803373D01*
X52580925Y-85565087D02*
X52752973Y-85536006D01*
X168754024Y-92163596D02*
X168598192Y-92085095D01*
X116250549Y-153220328D02*
X116203138Y-153230974D01*
X148111952Y-7775278D02*
X148075158Y-7743539D01*
X148006460Y-65825158D02*
X148039966Y-65789966D01*
X84239281Y-66344737D02*
X84245229Y-66392963D01*
X120747026Y-151963993D02*
X120573743Y-151984462D01*
X31452619Y-67457368D02*
X31406480Y-67442125D01*
X84239281Y-125844737D02*
X84245229Y-125892963D01*
X31273318Y-7883099D02*
X31231039Y-7859148D01*
X108570495Y-28038138D02*
X108624682Y-27925619D01*
X169752973Y-26036006D02*
X169926256Y-26015537D01*
X173499798Y-33008344D02*
X173495703Y-33001878D01*
X114999942Y-152009809D02*
X114997829Y-152003902D01*
X64792956Y-27771791D02*
X64875317Y-27925619D01*
X115224721Y-33888047D02*
X115194826Y-33849740D01*
X57249450Y-98779671D02*
X57296861Y-98769025D01*
X115140851Y-152768960D02*
X115116900Y-152726681D01*
X58506917Y-124999440D02*
X58512272Y-125000000D01*
X123498419Y-30801558D02*
X123449908Y-30916639D01*
X30754770Y-5892963D02*
X30760718Y-5844737D01*
X116710033Y-39539966D02*
X116743539Y-39575158D01*
X25750000Y-5990122D02*
X25750000Y-7009877D01*
X25268960Y-184640851D02*
X25310012Y-184666847D01*
X147750000Y-125990122D02*
X147751195Y-125941423D01*
X116343519Y-153192125D02*
X116297380Y-153207368D01*
X84133099Y-126476681D02*
X84109148Y-126518960D01*
X65016544Y-90255376D02*
X64949908Y-90416639D01*
X25730974Y-186703138D02*
X25720328Y-186750549D01*
X4305164Y-92336601D02*
X4137537Y-92385049D01*
X115095053Y-152683278D02*
X115075362Y-152638855D01*
X25226681Y-126883099D02*
X25183278Y-126904946D01*
X168117284Y-91774492D02*
X167981638Y-91664736D01*
X25674637Y-125611144D02*
X25692125Y-125656480D01*
X64768150Y-90771173D02*
X64676112Y-90919413D01*
X116989281Y-159094737D02*
X116995229Y-159142963D01*
X25692125Y-7343519D02*
X25674637Y-7388855D01*
X117006917Y-65499440D02*
X117012272Y-65500000D01*
X89254770Y-186607036D02*
X89251195Y-186558576D01*
X142000549Y-126970328D02*
X141953138Y-126980974D01*
X56500000Y-184487727D02*
X56500000Y-159240122D01*
X58404946Y-93183278D02*
X58383099Y-93226681D01*
X167609815Y-86703107D02*
X167642643Y-86665909D01*
X62637537Y-32885049D02*
X62589459Y-32897292D01*
X122241767Y-91877350D02*
X122095867Y-91973055D01*
X6748912Y-29562443D02*
X6741450Y-29736772D01*
X141857036Y-184504770D02*
X141905262Y-184510718D01*
X25654946Y-185066721D02*
X25674637Y-185111144D01*
X170100345Y-26003732D02*
X170262404Y-26000000D01*
X84207368Y-5702619D02*
X84220328Y-5749450D01*
X142460033Y-126710033D02*
X142424841Y-126743539D01*
X6719138Y-29959739D02*
X6691910Y-30132090D01*
X52362462Y-32885049D02*
X52194835Y-32836601D01*
X122857356Y-86665909D02*
X122890184Y-86703107D01*
X123700525Y-149083232D02*
X123667164Y-149254501D01*
X121632139Y-92214961D02*
X121470168Y-92279858D01*
X148594737Y-65510718D02*
X148642963Y-65504770D01*
X147890851Y-187018960D02*
X147866900Y-186976681D01*
X115892963Y-153245229D02*
X115844737Y-153239281D01*
X31406480Y-187442125D02*
X31361144Y-187424637D01*
X117012272Y-85500000D02*
X120237595Y-85500000D01*
X147779671Y-7250549D02*
X147769025Y-7203138D01*
X84220328Y-185249450D02*
X84230974Y-185296861D01*
X168156831Y-151304448D02*
X168117284Y-151274492D01*
X147845053Y-186933278D02*
X147825362Y-186888855D01*
X62073743Y-26015537D02*
X62247026Y-26036006D01*
X58333152Y-158689987D02*
X58359148Y-158731039D01*
X115000000Y-184487727D02*
X115000000Y-159240122D01*
X56519025Y-33453138D02*
X56510718Y-33405262D01*
X123203029Y-146622261D02*
X123292956Y-146771791D01*
X50609815Y-86703107D02*
X50727588Y-86574360D01*
X62923548Y-92296827D02*
X62757756Y-92351225D01*
X115523318Y-153133099D02*
X115481039Y-153109148D01*
X167642643Y-150834090D02*
X167609815Y-150796892D01*
X31039966Y-125289966D02*
X31075158Y-125256460D01*
X56981039Y-93609148D02*
X56939987Y-93583152D01*
X56501195Y-92808576D02*
X56500000Y-92759877D01*
X30916847Y-65939987D02*
X30944826Y-65900259D01*
X64148367Y-91548355D02*
X64018361Y-91664736D01*
X56825158Y-158506460D02*
X56861952Y-158474721D01*
X6700525Y-149083232D02*
X6667164Y-149254501D01*
X31316721Y-67404946D02*
X31273318Y-67383099D01*
X115116900Y-33726681D02*
X115095053Y-33683278D01*
X84083152Y-184939987D02*
X84109148Y-184981039D01*
X57558576Y-158251195D02*
X57607036Y-158254770D01*
X25000549Y-125029671D02*
X25047380Y-125042631D01*
X3747026Y-85536006D02*
X3919074Y-85565087D01*
X116904946Y-39816721D02*
X116924637Y-39861144D01*
X65225307Y-29910512D02*
X65200525Y-30083232D01*
X56504770Y-152357036D02*
X56501195Y-152308576D01*
X6611870Y-149471652D02*
X6575059Y-149590991D01*
X89307874Y-125656480D02*
X89325362Y-125611144D01*
X64676112Y-90919413D02*
X64605761Y-91022600D01*
X56575362Y-93138855D02*
X56557874Y-93093519D01*
X83888047Y-125224721D02*
X83924841Y-125256460D01*
X166874692Y-89923895D02*
X166843875Y-89802869D01*
X123656124Y-89802869D02*
X123611870Y-89971652D01*
X51709325Y-145357929D02*
X51867860Y-145285038D01*
X83500549Y-184529671D02*
X83547380Y-184542631D01*
X6719138Y-148040260D02*
X6737742Y-148213754D01*
X6575059Y-147409008D02*
X6625307Y-147576104D01*
X115361952Y-153025278D02*
X115325158Y-152993539D01*
X147769025Y-66296861D02*
X147779671Y-66249450D01*
X115166847Y-33810012D02*
X115140851Y-33768960D01*
X6737742Y-89286245D02*
X6719138Y-89459739D01*
X142525278Y-125361952D02*
X142555173Y-125400259D01*
X57797380Y-34207368D02*
X57750549Y-34220328D01*
X3399654Y-85503732D02*
X3573743Y-85515537D01*
X142633099Y-66976681D02*
X142609148Y-67018960D01*
X2170Y-3902D02*
X0Y-12272D01*
X57933278Y-158345053D02*
X57976681Y-158366900D01*
X89611952Y-187275278D02*
X89575158Y-187243539D01*
X62589459Y-32897292D02*
X62419074Y-32934912D01*
X53100345Y-26003732D02*
X53262404Y-26000000D01*
X5053533Y-26501075D02*
X5200776Y-26594701D01*
X109109815Y-27203107D02*
X109142643Y-27165909D01*
X49752324Y-29612040D02*
X49751087Y-29562443D01*
X56575362Y-39861144D02*
X56595053Y-39816721D01*
X83960033Y-7710033D02*
X83924841Y-7743539D01*
X110576451Y-85703172D02*
X110742243Y-85648774D01*
X141905262Y-187489281D02*
X141857036Y-187495229D01*
X114990190Y-124999942D02*
X114997829Y-124996097D01*
X25633099Y-66023318D02*
X25654946Y-66066721D01*
X30944826Y-126599740D02*
X30916847Y-126560012D01*
X25750000Y-126009877D02*
X25748804Y-126058576D01*
X142349740Y-125194826D02*
X142388047Y-125224721D01*
X31111952Y-184724721D02*
X31150259Y-184694826D01*
X58174841Y-93493539D02*
X58138047Y-93525278D01*
X58512272Y-127000000D02*
X58506917Y-127000559D01*
X56557874Y-39906480D02*
X56575362Y-39861144D01*
X142739281Y-126155262D02*
X142730974Y-126203138D01*
X117000559Y-8006917D02*
X117000000Y-8012272D01*
X52926256Y-32984462D02*
X52752973Y-32963993D01*
X141759877Y-127000000D02*
X117012272Y-127000000D01*
X64768150Y-27728826D02*
X64792956Y-27771791D01*
X116343519Y-158307874D02*
X116388855Y-158325362D01*
X89307874Y-126343519D02*
X89292631Y-126297380D01*
X31642963Y-126995229D02*
X31594737Y-126989281D01*
X148499450Y-184529671D02*
X148546861Y-184519025D01*
X25745229Y-5892963D02*
X25748804Y-5941423D01*
X57703138Y-153230974D02*
X57655262Y-153239281D01*
X116970328Y-39999450D02*
X116980974Y-40046861D01*
X115116900Y-152726681D02*
X115095053Y-152683278D01*
X89731039Y-187359148D02*
X89689987Y-187333152D01*
X58500000Y-159240122D02*
X58500000Y-184487727D01*
X166774692Y-29089487D02*
X166780861Y-29040260D01*
X108274692Y-148089487D02*
X108299474Y-147916767D01*
X115523318Y-98866900D02*
X115566721Y-98845053D01*
X84083152Y-187060012D02*
X84055173Y-187099740D01*
X122890184Y-31796892D02*
X122857356Y-31834090D01*
X58060012Y-39416847D02*
X58099740Y-39444826D01*
X65059258Y-90138020D02*
X65016544Y-90255376D01*
X65191910Y-89632090D02*
X65167164Y-89754501D01*
X25720328Y-126250549D02*
X25707368Y-126297380D01*
X52242243Y-151851225D02*
X52076451Y-151796827D01*
X117007387Y-152000416D02*
X117002170Y-152003902D01*
X148111952Y-184724721D02*
X148150259Y-184694826D01*
X166924940Y-30590991D02*
X166874692Y-30423895D01*
X111426256Y-85515537D02*
X111600345Y-85503732D01*
X147845053Y-126433278D02*
X147825362Y-126388855D01*
X56939987Y-39416847D02*
X56981039Y-39390851D01*
X25493539Y-5325158D02*
X25525278Y-5361952D01*
X30779671Y-5749450D02*
X30792631Y-5702619D01*
X110098192Y-92085095D02*
X109946466Y-91998924D01*
X84109148Y-184981039D02*
X84133099Y-185023318D01*
X142424841Y-187243539D02*
X142388047Y-187275278D01*
X58424637Y-158861144D02*
X58442125Y-158906480D01*
X121586423Y-145265767D02*
X121745975Y-145336403D01*
X148231039Y-5140851D02*
X148273318Y-5116900D01*
X122518361Y-86335263D02*
X122648367Y-86451644D01*
X58275278Y-99111952D02*
X58305173Y-99150259D01*
X6656124Y-88197130D02*
X6691910Y-88367909D01*
X25633099Y-186976681D02*
X25609148Y-187018960D01*
X109904132Y-26526944D02*
X109946466Y-26501075D01*
X141857036Y-5004770D02*
X141905262Y-5010718D01*
X173487727Y-33000000D02*
X170262404Y-33000000D01*
X25525278Y-125361952D02*
X25555173Y-125400259D01*
X142745229Y-7107036D02*
X142739281Y-7155262D01*
X115892963Y-93745229D02*
X115844737Y-93739281D01*
X64470460Y-146298777D02*
X64501392Y-146337565D01*
X56616900Y-33726681D02*
X56595053Y-33683278D01*
X25268960Y-187359148D02*
X25226681Y-187383099D01*
X25349740Y-7805173D02*
X25310012Y-7833152D01*
X25424841Y-187243539D02*
X25388047Y-187275278D01*
X115941423Y-98751195D02*
X115990122Y-98750000D01*
X122053533Y-26501075D02*
X122200776Y-26594701D01*
X167642643Y-91334090D02*
X167609815Y-91296892D01*
X114994874Y-144998646D02*
X114999440Y-144993082D01*
X123656124Y-149302869D02*
X123611870Y-149471652D01*
X83357036Y-7995229D02*
X83308576Y-7998804D01*
X89307874Y-7343519D02*
X89292631Y-7297380D01*
X31075158Y-184756460D02*
X31111952Y-184724721D01*
X49843875Y-149302869D02*
X49808089Y-149132090D01*
X30750000Y-125990122D02*
X30751195Y-125941423D01*
X83357036Y-126995229D02*
X83308576Y-126998804D01*
X115140851Y-158731039D02*
X115166847Y-158689987D01*
X58404946Y-33683278D02*
X58383099Y-33726681D01*
X58210033Y-152960033D02*
X58174841Y-152993539D01*
X111252973Y-32963993D02*
X111080925Y-32934912D01*
X63401807Y-26414904D02*
X63553533Y-26501075D01*
X148039966Y-126710033D02*
X148006460Y-126674841D01*
X108332835Y-89754501D02*
X108299474Y-89583232D01*
X6203029Y-31377738D02*
X6105761Y-31522600D01*
X83849740Y-125194826D02*
X83888047Y-125224721D01*
X6575059Y-30590991D02*
X6516544Y-30755376D01*
X122772411Y-146074360D02*
X122857356Y-146165909D01*
X25047380Y-65542631D02*
X25093519Y-65557874D01*
X57888855Y-153174637D02*
X57843519Y-153192125D01*
X168117284Y-86225507D02*
X168258232Y-86122649D01*
X117000000Y-8012272D02*
X117000559Y-25993082D01*
X167050091Y-30916639D02*
X167001580Y-30801558D01*
X30751195Y-7058576D02*
X30750000Y-7009877D01*
X166758549Y-88763227D02*
X166762257Y-88713754D01*
X83810012Y-5166847D02*
X83849740Y-5194826D01*
X30760718Y-66344737D02*
X30769025Y-66296861D01*
X148452619Y-7957368D02*
X148406480Y-7942125D01*
X142609148Y-7518960D02*
X142583152Y-7560012D01*
X58359148Y-152768960D02*
X58333152Y-152810012D01*
X167050091Y-28083360D02*
X167124682Y-27925619D01*
X120967703Y-32925082D02*
X120796084Y-32956599D01*
X148594737Y-125010718D02*
X148642963Y-125004770D01*
X89816721Y-184595053D02*
X89861144Y-184575362D01*
X31499450Y-187470328D02*
X31452619Y-187457368D01*
X167050091Y-147083360D02*
X167070495Y-147038138D01*
X168867860Y-85785038D02*
X169029831Y-85720141D01*
X116343519Y-98807874D02*
X116388855Y-98825362D01*
X121257756Y-145148774D02*
X121423548Y-145203172D01*
X89773318Y-67383099D02*
X89731039Y-67359148D01*
X49832835Y-88245498D02*
X49874692Y-88076104D01*
X148740122Y-187500000D02*
X148691423Y-187498804D01*
X89444826Y-67099740D02*
X89416847Y-67060012D01*
X168299223Y-151405298D02*
X168156831Y-151304448D01*
X31039966Y-126710033D02*
X31006460Y-126674841D01*
X30944826Y-67099740D02*
X30916847Y-67060012D01*
X5857356Y-150834090D02*
X5772411Y-150925639D01*
X111252973Y-92463993D02*
X111080925Y-92434912D01*
X6625307Y-28576104D02*
X6667164Y-28745498D01*
X142268960Y-67359148D02*
X142226681Y-67383099D01*
X83453138Y-5019025D02*
X83500549Y-5029671D01*
X148406480Y-65557874D02*
X148452619Y-65542631D01*
X89254770Y-5892963D02*
X89260718Y-5844737D01*
X25226681Y-7883099D02*
X25183278Y-7904946D01*
X5480356Y-32196626D02*
X5382715Y-32274492D01*
X148594737Y-187489281D02*
X148546861Y-187480974D01*
X61737595Y-92500000D02*
X58507387Y-92500416D01*
X63741767Y-32377350D02*
X63700776Y-32405298D01*
X56499440Y-85493082D02*
X56500000Y-67512272D01*
X57703138Y-39269025D02*
X57750549Y-39279671D01*
X142310012Y-184666847D02*
X142349740Y-184694826D01*
X142093519Y-184557874D02*
X142138855Y-184575362D01*
X108483455Y-90255376D02*
X108440741Y-90138020D01*
X83593519Y-65557874D02*
X83638855Y-65575362D01*
X5970460Y-150701222D02*
X5857356Y-150834090D01*
X111252973Y-85536006D02*
X111426256Y-85515537D01*
X52029831Y-85720141D02*
X52076451Y-85703172D01*
X89307874Y-186843519D02*
X89292631Y-186797380D01*
X115796861Y-34230974D02*
X115749450Y-34220328D01*
X84154946Y-5566721D02*
X84174637Y-5611144D01*
X49780861Y-148959739D02*
X49774692Y-148910512D01*
X142226681Y-187383099D02*
X142183278Y-187404946D01*
X168446466Y-86001075D02*
X168598192Y-85914904D01*
X31499450Y-184529671D02*
X31546861Y-184519025D01*
X89345053Y-125566721D02*
X89366900Y-125523318D01*
X6747675Y-148387959D02*
X6748912Y-148562443D01*
X83500549Y-65529671D02*
X83547380Y-65542631D01*
X83924841Y-125256460D02*
X83960033Y-125289966D01*
X122382715Y-91774492D02*
X122241767Y-91877350D01*
X12272Y-127000000D02*
X5558Y-127001122D01*
X148189987Y-67333152D02*
X148150259Y-67305173D01*
X114999440Y-144993082D02*
X115000000Y-127012272D01*
X117012272Y-26000000D02*
X120237595Y-26000000D01*
X147751195Y-186558576D02*
X147750000Y-186509877D01*
X31406480Y-7942125D02*
X31361144Y-7924637D01*
X123667164Y-149254501D02*
X123656124Y-149302869D01*
X50323887Y-27580586D02*
X50423199Y-27437117D01*
X142460033Y-125289966D02*
X142493539Y-125325158D01*
X123516544Y-87744623D02*
X123575059Y-87909008D01*
X31189987Y-126833152D02*
X31150259Y-126805173D01*
X25093519Y-65557874D02*
X25138855Y-65575362D01*
X115224721Y-93388047D02*
X115194826Y-93349740D01*
X559Y-144993082D02*
X5125Y-144998646D01*
X108252324Y-29387959D02*
X108262257Y-29213754D01*
X117000559Y-25993082D02*
X117005125Y-25998646D01*
X169242243Y-145148774D02*
X169410540Y-145102707D01*
X89773318Y-65616900D02*
X89816721Y-65595053D01*
X31740122Y-5000000D02*
X83259877Y-5000000D01*
X115075362Y-99361144D02*
X115095053Y-99316721D01*
X30750000Y-7009877D02*
X30750000Y-5990122D01*
X65248912Y-148562443D02*
X65247675Y-148612040D01*
X25226681Y-125116900D02*
X25268960Y-125140851D01*
X148316721Y-125095053D02*
X148361144Y-125075362D01*
X58502811Y-65496840D02*
X58506917Y-65499440D01*
X166780861Y-29040260D02*
X166808089Y-28867909D01*
X49808089Y-147867909D02*
X49832835Y-147745498D01*
X147807874Y-126343519D02*
X147792631Y-126297380D01*
X49874692Y-89923895D02*
X49832835Y-89754501D01*
X31452619Y-65542631D02*
X31499450Y-65529671D01*
X4945378Y-151561368D02*
X4790674Y-151642070D01*
X90094737Y-5010718D02*
X90142963Y-5004770D01*
X57797380Y-153207368D02*
X57750549Y-153220328D01*
X90046861Y-184519025D02*
X90094737Y-184510718D01*
X147751195Y-185441423D02*
X147754770Y-185392963D01*
X108343875Y-147697130D02*
X108388129Y-147528347D01*
X90240122Y-187500000D02*
X90191423Y-187498804D01*
X56981039Y-153109148D02*
X56939987Y-153083152D01*
X84192125Y-66843519D02*
X84174637Y-66888855D01*
X25739281Y-186655262D02*
X25730974Y-186703138D01*
X108343875Y-30302869D02*
X108332835Y-30254501D01*
X108998607Y-31662434D02*
X108894238Y-31522600D01*
X25424841Y-7743539D02*
X25388047Y-7775278D01*
X114990190Y-184499942D02*
X114997829Y-184496097D01*
X89366900Y-125523318D02*
X89390851Y-125481039D01*
X117012272Y-8000000D02*
X117006917Y-8000559D01*
X166832835Y-149254501D02*
X166799474Y-149083232D01*
X115361952Y-93525278D02*
X115325158Y-93493539D01*
X123449908Y-149916639D02*
X123429504Y-149961861D01*
X63741767Y-151377350D02*
X63700776Y-151405298D01*
X89952619Y-65542631D02*
X89999450Y-65529671D01*
X123176112Y-146580586D02*
X123203029Y-146622261D01*
X115010718Y-99594737D02*
X115019025Y-99546861D01*
X83308576Y-187498804D02*
X83259877Y-187500000D01*
X31691423Y-67498804D02*
X31642963Y-67495229D01*
X142654946Y-186933278D02*
X142633099Y-186976681D01*
X142268960Y-65640851D02*
X142310012Y-65666847D01*
X166762257Y-89286245D02*
X166758549Y-89236772D01*
X84133099Y-5523318D02*
X84154946Y-5566721D01*
X111762404Y-145000000D02*
X114987727Y-145000000D01*
X142730974Y-185296861D02*
X142739281Y-185344737D01*
X142388047Y-126775278D02*
X142349740Y-126805173D01*
X166780861Y-148040260D02*
X166799474Y-147916767D01*
X64390184Y-146203107D02*
X64470460Y-146298777D01*
X6455Y-192499275D02*
X12272Y-192500000D01*
X148546861Y-125019025D02*
X148594737Y-125010718D01*
X117012272Y-145000000D02*
X120237595Y-145000000D01*
X120919074Y-92434912D02*
X120747026Y-92463993D01*
X109029539Y-150701222D02*
X108998607Y-150662434D01*
X116980974Y-92953138D02*
X116970328Y-93000549D01*
X31691423Y-7998804D02*
X31642963Y-7995229D01*
X89307874Y-5656480D02*
X89325362Y-5611144D01*
X115361952Y-39474721D02*
X115400259Y-39444826D01*
X25739281Y-66655262D02*
X25730974Y-66703138D01*
X90142963Y-5004770D02*
X90191423Y-5001195D01*
X89345053Y-66066721D02*
X89366900Y-66023318D01*
X4089459Y-26102707D02*
X4257756Y-26148774D01*
X142745229Y-66607036D02*
X142739281Y-66655262D01*
X6691910Y-88367909D02*
X6719138Y-88540260D01*
X25555173Y-126599740D02*
X25525278Y-126638047D01*
X121901807Y-85914904D02*
X122053533Y-86001075D01*
X84133099Y-66023318D02*
X84154946Y-66066721D01*
X115481039Y-93609148D02*
X115439987Y-93583152D01*
X166888129Y-147528347D02*
X166924940Y-147409008D01*
X116476681Y-34133099D02*
X116433278Y-34154946D01*
X25388047Y-65724721D02*
X25424841Y-65756460D01*
X108624682Y-31074380D02*
X108550091Y-30916639D01*
X115481039Y-158390851D02*
X115523318Y-158366900D01*
X147866900Y-66023318D02*
X147890851Y-65981039D01*
X58470328Y-39999450D02*
X58480974Y-40046861D01*
X5857356Y-27165909D02*
X5970460Y-27298777D01*
X25047380Y-184542631D02*
X25093519Y-184557874D01*
X31189987Y-184666847D02*
X31231039Y-184640851D01*
X148273318Y-187383099D02*
X148231039Y-187359148D01*
X84174637Y-7388855D02*
X84154946Y-7433278D01*
X25424841Y-65756460D02*
X25460033Y-65789966D01*
X4745975Y-145336403D02*
X4901807Y-145414904D01*
X25268960Y-7859148D02*
X25226681Y-7883099D01*
X167851632Y-32048355D02*
X167762229Y-31961154D01*
X142493539Y-125325158D02*
X142525278Y-125361952D01*
X148273318Y-67383099D02*
X148231039Y-67359148D01*
X115116900Y-99273318D02*
X115140851Y-99231039D01*
X117012272Y-125000000D02*
X141759877Y-125000000D01*
X108823887Y-87080586D02*
X108923199Y-86937117D01*
X51913576Y-26265767D02*
X52076451Y-26203172D01*
X89307874Y-66156480D02*
X89325362Y-66111144D01*
X84220328Y-66249450D02*
X84230974Y-66296861D01*
X115656480Y-39307874D02*
X115702619Y-39292631D01*
X115000000Y-40240122D02*
X115001195Y-40191423D01*
X115194826Y-93349740D02*
X115166847Y-93310012D01*
X148691423Y-67498804D02*
X148642963Y-67495229D01*
X49774692Y-89410512D02*
X49762257Y-89286245D01*
X56789966Y-93460033D02*
X56756460Y-93424841D01*
X120747026Y-32963993D02*
X120573743Y-32984462D01*
X25583152Y-126560012D02*
X25555173Y-126599740D01*
X120573743Y-151984462D02*
X120399654Y-151996267D01*
X122241767Y-86122649D02*
X122343168Y-86195551D01*
X31316721Y-7904946D02*
X31273318Y-7883099D01*
X116599740Y-98944826D02*
X116638047Y-98974721D01*
X116107036Y-93745229D02*
X116058576Y-93748804D01*
X142525278Y-184861952D02*
X142555173Y-184900259D01*
X142460033Y-67210033D02*
X142424841Y-67243539D01*
X142674637Y-66888855D02*
X142654946Y-66933278D01*
X116674841Y-152993539D02*
X116638047Y-153025278D01*
X110254024Y-92163596D02*
X110098192Y-92085095D01*
X115256460Y-158575158D02*
X115289966Y-158539966D01*
X83993539Y-67174841D02*
X83960033Y-67210033D01*
X142707368Y-66797380D02*
X142692125Y-66843519D01*
X31150259Y-5194826D02*
X31189987Y-5166847D01*
X3919074Y-151934912D02*
X3747026Y-151963993D01*
X56497188Y-67503159D02*
X56493082Y-67500559D01*
X3399654Y-26003732D02*
X3573743Y-26015537D01*
X83683278Y-65595053D02*
X83726681Y-65616900D01*
X142310012Y-65666847D02*
X142349740Y-65694826D01*
X56500000Y-127012272D02*
X56499440Y-127006917D01*
X173495703Y-152001878D02*
X173487727Y-152000000D01*
X51404132Y-91973055D02*
X51299223Y-91905298D01*
X116638047Y-98974721D02*
X116674841Y-99006460D01*
X4901807Y-92085095D02*
X4790674Y-92142070D01*
X0Y-192487727D02*
X2482Y-192496477D01*
X63553533Y-86001075D02*
X63700776Y-86094701D01*
X6076800Y-86937117D02*
X6176112Y-87080586D01*
X25583152Y-184939987D02*
X25609148Y-184981039D01*
X117000559Y-85493082D02*
X117005125Y-85498646D01*
X31189987Y-187333152D02*
X31150259Y-187305173D01*
X31361144Y-187424637D02*
X31316721Y-187404946D01*
X51404132Y-145526944D02*
X51554621Y-145438631D01*
X108251087Y-148437556D02*
X108252324Y-148387959D01*
X63882715Y-91774492D02*
X63843168Y-91804448D01*
X24857036Y-125004770D02*
X24905262Y-125010718D01*
X30845053Y-66066721D02*
X30866900Y-66023318D01*
X90046861Y-65519025D02*
X90094737Y-65510718D01*
X25730974Y-185296861D02*
X25739281Y-185344737D01*
X49751087Y-148437556D02*
X49752324Y-148387959D01*
X169926256Y-32984462D02*
X169752973Y-32963993D01*
X116560012Y-158416847D02*
X116599740Y-158444826D01*
X147944826Y-187099740D02*
X147916847Y-187060012D01*
X6625307Y-147576104D02*
X6667164Y-147745498D01*
X89292631Y-125702619D02*
X89307874Y-125656480D01*
X30866900Y-125523318D02*
X30890851Y-125481039D01*
X50001580Y-28198441D02*
X50070495Y-28038138D01*
X166874692Y-88076104D02*
X166888129Y-88028347D01*
X4470168Y-32779858D02*
X4305164Y-32836601D01*
X30760718Y-125844737D02*
X30769025Y-125796861D01*
X83993539Y-126674841D02*
X83960033Y-126710033D01*
X57509877Y-98750000D02*
X57558576Y-98751195D01*
X117006917Y-184499440D02*
X117012272Y-184500000D01*
X25720328Y-66249450D02*
X25730974Y-66296861D01*
X83308576Y-7998804D02*
X83259877Y-8000000D01*
X142748804Y-66558576D02*
X142745229Y-66607036D01*
X115749450Y-39279671D02*
X115796861Y-39269025D01*
X173487727Y0D02*
X9809Y-57D01*
X115194826Y-152849740D02*
X115166847Y-152810012D01*
X109351632Y-145951644D02*
X109481638Y-145835263D01*
X25609148Y-184981039D02*
X25633099Y-185023318D01*
X116518960Y-39390851D02*
X116560012Y-39416847D01*
X3573743Y-151984462D02*
X3399654Y-151996267D01*
X49888129Y-89971652D02*
X49874692Y-89923895D01*
X64703029Y-87122261D02*
X64792956Y-87271791D01*
X84207368Y-7297380D02*
X84192125Y-7343519D01*
X147845053Y-185066721D02*
X147866900Y-185023318D01*
X147779671Y-5749450D02*
X147792631Y-5702619D01*
X64929504Y-28038138D02*
X64998419Y-28198441D01*
X31594737Y-67489281D02*
X31546861Y-67480974D01*
X31406480Y-67442125D02*
X31361144Y-67424637D01*
X64501392Y-27337565D02*
X64576800Y-27437117D01*
X24905262Y-184510718D02*
X24953138Y-184519025D01*
X5125Y-85498646D02*
X12272Y-85500000D01*
X108550091Y-87583360D02*
X108624682Y-87425619D01*
X147750000Y-66490122D02*
X147751195Y-66441423D01*
X83259877Y-127000000D02*
X58512272Y-127000000D01*
X142093519Y-7942125D02*
X142047380Y-7957368D01*
X52242243Y-145148774D02*
X52410540Y-145102707D01*
X30760718Y-126155262D02*
X30754770Y-126107036D01*
X51754024Y-26336403D02*
X51913576Y-26265767D01*
X108274692Y-29910512D02*
X108262257Y-29786245D01*
X64768150Y-146728826D02*
X64852684Y-146881470D01*
X65200525Y-149083232D02*
X65167164Y-149254501D01*
X56501195Y-33308576D02*
X56500000Y-33259877D01*
X25460033Y-65789966D02*
X25493539Y-65825158D01*
X3237595Y-26000000D02*
X3399654Y-26003732D01*
X123741450Y-89236772D02*
X123725307Y-89410512D01*
X142183278Y-7904946D02*
X142138855Y-7924637D01*
X25183278Y-187404946D02*
X25138855Y-187424637D01*
X111080925Y-145065087D02*
X111252973Y-145036006D01*
X56981039Y-158390851D02*
X57023318Y-158366900D01*
X142183278Y-65595053D02*
X142226681Y-65616900D01*
X122382715Y-32274492D02*
X122241767Y-32377350D01*
X89650259Y-7805173D02*
X89611952Y-7775278D01*
X89254770Y-66607036D02*
X89251195Y-66558576D01*
X57750549Y-34220328D02*
X57703138Y-34230974D01*
X167498607Y-31662434D02*
X167394238Y-31522600D01*
X50050091Y-147083360D02*
X50070495Y-147038138D01*
X65247675Y-88887959D02*
X65248912Y-89062443D01*
X148150259Y-65694826D02*
X148189987Y-65666847D01*
X6105761Y-146477399D02*
X6176112Y-146580586D01*
X116599740Y-153055173D02*
X116560012Y-153083152D01*
X108823887Y-90919413D02*
X108731849Y-90771173D01*
X117000559Y-124993082D02*
X117002811Y-124996840D01*
X30769025Y-185296861D02*
X30779671Y-185249450D01*
X89650259Y-5194826D02*
X89689987Y-5166847D01*
X116058576Y-93748804D02*
X116009877Y-93750000D01*
X116883099Y-99273318D02*
X116904946Y-99316721D01*
X52410540Y-85602707D02*
X52580925Y-85565087D01*
X89325362Y-125611144D02*
X89345053Y-125566721D01*
X108262257Y-148786245D02*
X108252324Y-148612040D01*
X148594737Y-126989281D02*
X148546861Y-126980974D01*
X25633099Y-7476681D02*
X25609148Y-7518960D01*
X89575158Y-126743539D02*
X89539966Y-126710033D01*
X148231039Y-187359148D02*
X148189987Y-187333152D01*
X108731849Y-31271173D02*
X108707043Y-31228208D01*
X50207043Y-87271791D02*
X50296970Y-87122261D01*
X142720328Y-7250549D02*
X142707368Y-7297380D01*
X83960033Y-126710033D02*
X83924841Y-126743539D01*
X116250549Y-98779671D02*
X116297380Y-98792631D01*
X122890184Y-150796892D02*
X122772411Y-150925639D01*
X83849740Y-126805173D02*
X83810012Y-126833152D01*
X89506460Y-125325158D02*
X89539966Y-125289966D01*
X148740122Y-67500000D02*
X148691423Y-67498804D01*
X115656480Y-98807874D02*
X115702619Y-98792631D01*
X30866900Y-7476681D02*
X30845053Y-7433278D01*
X25583152Y-65939987D02*
X25609148Y-65981039D01*
X56490190Y-184499942D02*
X56497829Y-184496097D01*
X30807874Y-7343519D02*
X30792631Y-7297380D01*
X147792631Y-186797380D02*
X147779671Y-186750549D01*
X121257756Y-85648774D02*
X121423548Y-85703172D01*
X58506917Y-127000559D02*
X58503159Y-127002811D01*
X108998607Y-150662434D02*
X108894238Y-150522600D01*
X31740122Y-127000000D02*
X31691423Y-126998804D01*
X123292956Y-31228208D02*
X123268150Y-31271173D01*
X116058576Y-98751195D02*
X116107036Y-98754770D01*
X57202619Y-153207368D02*
X57156480Y-153192125D01*
X57392963Y-153245229D02*
X57344737Y-153239281D01*
X142750000Y-66490122D02*
X142748804Y-66558576D01*
X4901807Y-145414904D02*
X5053533Y-145501075D01*
X148594737Y-67489281D02*
X148546861Y-67480974D01*
X116980974Y-152453138D02*
X116970328Y-152500549D01*
X25493539Y-65825158D02*
X25525278Y-65861952D01*
X148406480Y-125057874D02*
X148452619Y-125042631D01*
X62757756Y-85648774D02*
X62923548Y-85703172D01*
X84025278Y-65861952D02*
X84055173Y-65900259D01*
X89861144Y-7924637D02*
X89816721Y-7904946D01*
X167498607Y-27337565D02*
X167609815Y-27203107D01*
X90094737Y-65510718D02*
X90142963Y-65504770D01*
X116743539Y-152924841D02*
X116710033Y-152960033D01*
X6429504Y-28038138D02*
X6449908Y-28083360D01*
X63882715Y-86225507D02*
X64018361Y-86335263D01*
X31273318Y-5116900D02*
X31316721Y-5095053D01*
X5241767Y-26622649D02*
X5343168Y-26695551D01*
X147944826Y-67099740D02*
X147916847Y-67060012D01*
X147750000Y-186509877D02*
X147750000Y-185490122D01*
X89861144Y-65575362D02*
X89906480Y-65557874D01*
X142674637Y-125611144D02*
X142692125Y-125656480D01*
X147866900Y-185023318D02*
X147890851Y-184981039D01*
X123001392Y-86837565D02*
X123076800Y-86937117D01*
X123748912Y-148437556D02*
X123747675Y-148612040D01*
X148406480Y-5057874D02*
X148452619Y-5042631D01*
X57023318Y-39366900D02*
X57066721Y-39345053D01*
X120237595Y-33000000D02*
X117007387Y-33000416D01*
X142720328Y-186750549D02*
X142707368Y-186797380D01*
X24808576Y-126998804D02*
X24759877Y-127000000D01*
X121901807Y-26414904D02*
X122053533Y-26501075D01*
X114999942Y-8009809D02*
X114996097Y-8002170D01*
X166832835Y-30254501D02*
X166808089Y-30132090D01*
X122857356Y-31834090D02*
X122737770Y-31961154D01*
X89254770Y-66392963D02*
X89260718Y-66344737D01*
X147916847Y-65939987D02*
X147944826Y-65900259D01*
X24857036Y-187495229D02*
X24808576Y-187498804D01*
X6105761Y-150522600D02*
X6001392Y-150662434D01*
X142745229Y-5892963D02*
X142748804Y-5941423D01*
X148642963Y-67495229D02*
X148594737Y-67489281D01*
X121423548Y-26203172D02*
X121586423Y-26265767D01*
X108274692Y-148910512D02*
X108262257Y-148786245D01*
X3919074Y-145065087D02*
X4089459Y-145102707D01*
X115194826Y-99150259D02*
X115224721Y-99111952D01*
X56497829Y-184496097D02*
X56500000Y-184487727D01*
X25555173Y-125400259D02*
X25583152Y-125439987D01*
X109617284Y-91774492D02*
X109481638Y-91664736D01*
X63290674Y-92142070D02*
X63245975Y-92163596D01*
X62419074Y-92434912D02*
X62247026Y-92463993D01*
X142183278Y-125095053D02*
X142226681Y-125116900D01*
X168156831Y-91804448D02*
X168117284Y-91774492D01*
X4257756Y-145148774D02*
X4423548Y-145203172D01*
X142310012Y-125166847D02*
X142349740Y-125194826D01*
X25654946Y-186933278D02*
X25633099Y-186976681D01*
X148075158Y-7743539D02*
X148039966Y-7710033D01*
X148452619Y-5042631D02*
X148499450Y-5029671D01*
X57509877Y-39250000D02*
X57558576Y-39251195D01*
X83308576Y-5001195D02*
X83357036Y-5004770D01*
X52076451Y-145203172D02*
X52242243Y-145148774D01*
X24759877Y-5000000D02*
X24808576Y-5001195D01*
X148406480Y-126942125D02*
X148361144Y-126924637D01*
X30825362Y-66111144D02*
X30845053Y-66066721D01*
X31111952Y-187275278D02*
X31075158Y-187243539D01*
X25138855Y-67424637D02*
X25093519Y-67442125D01*
X123352684Y-150118529D02*
X123268150Y-150271173D01*
X83453138Y-67480974D02*
X83405262Y-67489281D01*
X51446466Y-32498924D02*
X51299223Y-32405298D01*
X116388855Y-93674637D02*
X116343519Y-93692125D01*
X116388855Y-34174637D02*
X116343519Y-34192125D01*
X25525278Y-184861952D02*
X25555173Y-184900259D01*
X61899654Y-145003732D02*
X62073743Y-145015537D01*
X56510718Y-152405262D02*
X56504770Y-152357036D01*
X115656480Y-158307874D02*
X115702619Y-158292631D01*
X115000000Y-124987727D02*
X115000000Y-99740122D01*
X116599740Y-34055173D02*
X116560012Y-34083152D01*
X58498804Y-33308576D02*
X58495229Y-33357036D01*
X142226681Y-126883099D02*
X142183278Y-126904946D01*
X25349740Y-187305173D02*
X25310012Y-187333152D01*
X123559258Y-90138020D02*
X123516544Y-90255376D01*
X115057874Y-39906480D02*
X115075362Y-39861144D01*
X110694835Y-92336601D02*
X110529831Y-92279858D01*
X58243539Y-99075158D02*
X58275278Y-99111952D01*
X56861952Y-34025278D02*
X56825158Y-33993539D01*
X63132139Y-92214961D02*
X62970168Y-92279858D01*
X51156831Y-151304448D02*
X51117284Y-151274492D01*
X31111952Y-67275278D02*
X31075158Y-67243539D01*
X108388129Y-89971652D02*
X108374692Y-89923895D01*
X142674637Y-7388855D02*
X142654946Y-7433278D01*
X111600345Y-92496267D02*
X111426256Y-92484462D01*
X25720328Y-186750549D02*
X25707368Y-186797380D01*
X83888047Y-65724721D02*
X83924841Y-65756460D01*
X89366900Y-7476681D02*
X89345053Y-7433278D01*
X52580925Y-92434912D02*
X52410540Y-92397292D01*
X84083152Y-5439987D02*
X84109148Y-5481039D01*
X166832835Y-28745498D02*
X166843875Y-28697130D01*
X30779671Y-186750549D02*
X30769025Y-186703138D01*
X115611144Y-158325362D02*
X115656480Y-158307874D01*
X89689987Y-187333152D02*
X89650259Y-187305173D01*
X142226681Y-65616900D02*
X142268960Y-65640851D01*
X122857356Y-27165909D02*
X122890184Y-27203107D01*
X64501392Y-150662434D02*
X64390184Y-150796892D01*
X108550091Y-30916639D02*
X108483455Y-30755376D01*
X5382715Y-145725507D02*
X5518361Y-145835263D01*
X56595053Y-158816721D02*
X56616900Y-158773318D01*
X117006917Y-124999440D02*
X117012272Y-125000000D01*
X52532296Y-32925082D02*
X52362462Y-32885049D01*
X108424940Y-147409008D02*
X108483455Y-147244623D01*
X30974721Y-187138047D02*
X30944826Y-187099740D01*
X142748804Y-126058576D02*
X142745229Y-126107036D01*
X50851632Y-26951644D02*
X50888000Y-26917899D01*
X108388129Y-147528347D02*
X108424940Y-147409008D01*
X116674841Y-158506460D02*
X116710033Y-158539966D01*
X173492136Y-4999702D02*
X173498394Y-4995295D01*
X63401807Y-151585095D02*
X63245975Y-151663596D01*
X142138855Y-65575362D02*
X142183278Y-65595053D01*
X167124682Y-31074380D02*
X167050091Y-30916639D01*
X83810012Y-65666847D02*
X83849740Y-65694826D01*
X166808089Y-89632090D02*
X166780861Y-89459739D01*
X65016544Y-147244623D02*
X65059258Y-147361979D01*
X123498419Y-87698441D02*
X123516544Y-87744623D01*
X83993539Y-184825158D02*
X84025278Y-184861952D01*
X108252324Y-148612040D02*
X108251087Y-148437556D01*
X173496477Y-192497517D02*
X173499275Y-192493544D01*
X89260718Y-66655262D02*
X89254770Y-66607036D01*
X116155262Y-153239281D02*
X116107036Y-153245229D01*
X167323887Y-31419413D02*
X167231849Y-31271173D01*
X49843875Y-30302869D02*
X49832835Y-30254501D01*
X58489281Y-40094737D02*
X58495229Y-40142963D01*
X6498419Y-87698441D02*
X6559258Y-87861979D01*
X24857036Y-7995229D02*
X24808576Y-7998804D01*
X147754770Y-185392963D02*
X147760718Y-185344737D01*
X123747675Y-29612040D02*
X123741450Y-29736772D01*
X53262404Y-85500000D02*
X56487727Y-85500000D01*
X56487727Y-65500000D02*
X56493082Y-65499440D01*
X58275278Y-33888047D02*
X58243539Y-33924841D01*
X64949908Y-147083360D02*
X65016544Y-147244623D01*
X142583152Y-187060012D02*
X142555173Y-187099740D01*
X51554621Y-85938631D02*
X51709325Y-85857929D01*
X58512272Y-67500000D02*
X58506917Y-67500559D01*
X114999942Y-92509809D02*
X114997829Y-92503902D01*
X142654946Y-125566721D02*
X142674637Y-125611144D01*
X83259877Y-187500000D02*
X31740122Y-187500000D01*
X84230974Y-185296861D02*
X84239281Y-185344737D01*
X25745229Y-186607036D02*
X25739281Y-186655262D01*
X56640851Y-39731039D02*
X56666847Y-39689987D01*
X12272Y-26000000D02*
X3237595Y-26000000D01*
X116433278Y-34154946D02*
X116388855Y-34174637D01*
X115400259Y-98944826D02*
X115439987Y-98916847D01*
X61737595Y-26000000D02*
X61899654Y-26003732D01*
X142493539Y-67174841D02*
X142460033Y-67210033D01*
X123498419Y-28198441D02*
X123559258Y-28361979D01*
X89506460Y-7674841D02*
X89474721Y-7638047D01*
X56557874Y-93093519D02*
X56542631Y-93047380D01*
X62419074Y-85565087D02*
X62589459Y-85602707D01*
X51754024Y-92163596D02*
X51598192Y-92085095D01*
X109029539Y-86798777D02*
X109142643Y-86665909D01*
X62589459Y-26102707D02*
X62757756Y-26148774D01*
X142349740Y-5194826D02*
X142388047Y-5224721D01*
X83547380Y-7957368D02*
X83500549Y-7970328D01*
X25555173Y-67099740D02*
X25525278Y-67138047D01*
X25583152Y-125439987D02*
X25609148Y-125481039D01*
X52029831Y-32779858D02*
X51867860Y-32714961D01*
X58480974Y-99546861D02*
X58489281Y-99594737D01*
X115194826Y-33849740D02*
X115166847Y-33810012D01*
X166751087Y-29437556D02*
X166758549Y-29263227D01*
X5890184Y-91296892D02*
X5857356Y-91334090D01*
X117005125Y-85498646D02*
X117012272Y-85500000D01*
X56666847Y-99189987D02*
X56694826Y-99150259D01*
X142047380Y-5042631D02*
X142093519Y-5057874D01*
X25609148Y-126518960D02*
X25583152Y-126560012D01*
X31273318Y-184616900D02*
X31316721Y-184595053D01*
X141808576Y-126998804D02*
X141759877Y-127000000D01*
X31231039Y-7859148D02*
X31189987Y-7833152D01*
X141808576Y-7998804D02*
X141759877Y-8000000D01*
X142138855Y-126924637D02*
X142093519Y-126942125D01*
X25493539Y-7674841D02*
X25460033Y-7710033D01*
X147916847Y-125439987D02*
X147944826Y-125400259D01*
X62970168Y-92279858D02*
X62923548Y-92296827D01*
X111032296Y-32925082D02*
X110862462Y-32885049D01*
X168258232Y-145622649D02*
X168299223Y-145594701D01*
X31691423Y-5001195D02*
X31740122Y-5000000D01*
X115194826Y-39650259D02*
X115224721Y-39611952D01*
X148499450Y-126970328D02*
X148452619Y-126957368D01*
X173487727Y-192500000D02*
X173496477Y-192497517D01*
X58424637Y-93138855D02*
X58404946Y-93183278D01*
X25310012Y-187333152D02*
X25268960Y-187359148D01*
X58018960Y-34109148D02*
X57976681Y-34133099D01*
X148499450Y-5029671D02*
X148546861Y-5019025D01*
X6268150Y-146728826D02*
X6292956Y-146771791D01*
X173499275Y-192493544D02*
X173500000Y-192487727D01*
X84174637Y-125611144D02*
X84192125Y-125656480D01*
X31499450Y-7970328D02*
X31452619Y-7957368D01*
X167727588Y-150925639D02*
X167642643Y-150834090D01*
X147807874Y-125656480D02*
X147825362Y-125611144D01*
X31111952Y-65724721D02*
X31150259Y-65694826D01*
X58502170Y-92503902D02*
X58500057Y-92509809D01*
X117006917Y-8000559D02*
X117002811Y-8003159D01*
X115010718Y-33405262D02*
X115004770Y-33357036D01*
X142720328Y-185249450D02*
X142730974Y-185296861D01*
X83259877Y-184500000D02*
X83308576Y-184501195D01*
X84025278Y-5361952D02*
X84055173Y-5400259D01*
X84220328Y-7250549D02*
X84207368Y-7297380D01*
X64390184Y-27203107D02*
X64501392Y-27337565D01*
X56557874Y-158906480D02*
X56575362Y-158861144D01*
X4089459Y-145102707D02*
X4257756Y-145148774D01*
X90240122Y-125000000D02*
X114990190Y-124999942D01*
X30751195Y-186558576D02*
X30750000Y-186509877D01*
X83500549Y-5029671D02*
X83547380Y-5042631D01*
X142349740Y-67305173D02*
X142310012Y-67333152D01*
X167001580Y-90301558D02*
X166940741Y-90138020D01*
X83810012Y-187333152D02*
X83768960Y-187359148D01*
X114990190Y-65499942D02*
X114997829Y-65496097D01*
X148150259Y-125194826D02*
X148189987Y-125166847D01*
X122095867Y-86026944D02*
X122241767Y-86122649D01*
X142720328Y-126250549D02*
X142707368Y-126297380D01*
X168117284Y-26725507D02*
X168258232Y-26622649D01*
X123575059Y-28409008D02*
X123625307Y-28576104D01*
X168258232Y-86122649D02*
X168404132Y-86026944D01*
X169926256Y-92484462D02*
X169752973Y-92463993D01*
X108299474Y-28916767D02*
X108332835Y-28745498D01*
X142739281Y-5844737D02*
X142745229Y-5892963D01*
X58500559Y-67506917D02*
X58500000Y-67512272D01*
X170100345Y-85503732D02*
X170262404Y-85500000D01*
X83638855Y-7924637D02*
X83593519Y-7942125D01*
X25226681Y-184616900D02*
X25268960Y-184640851D01*
X108570495Y-147038138D02*
X108647315Y-146881470D01*
X58507387Y-152000416D02*
X58502170Y-152003902D01*
X58210033Y-33960033D02*
X58174841Y-33993539D01*
X148642963Y-5004770D02*
X148691423Y-5001195D01*
X3573743Y-26015537D02*
X3747026Y-26036006D01*
X122737770Y-86538845D02*
X122857356Y-86665909D01*
X30792631Y-66797380D02*
X30779671Y-66750549D01*
X31273318Y-65616900D02*
X31316721Y-65595053D01*
X169194835Y-145163398D02*
X169242243Y-145148774D01*
X65125307Y-88076104D02*
X65167164Y-88245498D01*
X25748804Y-186558576D02*
X25745229Y-186607036D01*
X56487727Y-145000000D02*
X56494874Y-144998646D01*
X51598192Y-92085095D02*
X51446466Y-91998924D01*
X110862462Y-32885049D02*
X110694835Y-32836601D01*
X63445378Y-85938631D02*
X63553533Y-86001075D01*
X31594737Y-7989281D02*
X31546861Y-7980974D01*
X116970328Y-33500549D02*
X116957368Y-33547380D01*
X84239281Y-186655262D02*
X84230974Y-186703138D01*
X147944826Y-7599740D02*
X147916847Y-7560012D01*
X83405262Y-125010718D02*
X83453138Y-125019025D01*
X108332835Y-88245498D02*
X108343875Y-88197130D01*
X141905262Y-184510718D02*
X141953138Y-184519025D01*
X114987727Y-67500000D02*
X90240122Y-67500000D01*
X148452619Y-126957368D02*
X148406480Y-126942125D01*
X62247026Y-92463993D02*
X62073743Y-92484462D01*
X31594737Y-125010718D02*
X31642963Y-125004770D01*
X49762257Y-148213754D02*
X49780861Y-148040260D01*
X30779671Y-66750549D02*
X30769025Y-66703138D01*
X25183278Y-126904946D02*
X25138855Y-126924637D01*
X90240122Y-65500000D02*
X114990190Y-65499942D01*
X56500000Y-124987727D02*
X56500000Y-99740122D01*
X58503159Y-67502811D02*
X58500559Y-67506917D01*
X89731039Y-65640851D02*
X89773318Y-65616900D01*
X89575158Y-67243539D02*
X89539966Y-67210033D01*
X166843875Y-28697130D02*
X166888129Y-28528347D01*
X115941423Y-153248804D02*
X115892963Y-153245229D01*
X115224721Y-158611952D02*
X115256460Y-158575158D01*
X5890184Y-31796892D02*
X5857356Y-31834090D01*
X50609815Y-27203107D02*
X50642643Y-27165909D01*
X58442125Y-158906480D02*
X58457368Y-158952619D01*
X3747026Y-145036006D02*
X3919074Y-145065087D01*
X58457368Y-99452619D02*
X58470328Y-99499450D01*
X63290674Y-145357929D02*
X63445378Y-145438631D01*
X31231039Y-125140851D02*
X31273318Y-125116900D01*
X167124682Y-87425619D02*
X167207043Y-87271791D01*
X115439987Y-39416847D02*
X115481039Y-39390851D01*
X57607036Y-39254770D02*
X57655262Y-39260718D01*
X116805173Y-152849740D02*
X116775278Y-152888047D01*
X84174637Y-66888855D02*
X84154946Y-66933278D01*
X49924940Y-149590991D02*
X49874692Y-149423895D01*
X89251195Y-126058576D02*
X89250000Y-126009877D01*
X7863Y-187500297D02*
X1605Y-187504704D01*
X166758549Y-148736772D02*
X166751087Y-148562443D01*
X25138855Y-126924637D02*
X25093519Y-126942125D01*
X57607036Y-98754770D02*
X57655262Y-98760718D01*
X167323887Y-146580586D02*
X167423199Y-146437117D01*
X31231039Y-126859148D02*
X31189987Y-126833152D01*
X167727588Y-146074360D02*
X167851632Y-145951644D01*
X58424637Y-99361144D02*
X58442125Y-99406480D01*
X51709325Y-85857929D02*
X51867860Y-85785038D01*
X25226681Y-187383099D02*
X25183278Y-187404946D01*
X115001195Y-33308576D02*
X115000000Y-33259877D01*
X31406480Y-125057874D02*
X31452619Y-125042631D01*
X57249450Y-153220328D02*
X57202619Y-153207368D01*
X4423548Y-85703172D02*
X4586423Y-85765767D01*
X123719138Y-148959739D02*
X123700525Y-149083232D01*
X142093519Y-126942125D02*
X142047380Y-126957368D01*
X109142643Y-27165909D02*
X109227588Y-27074360D01*
X109262229Y-150961154D02*
X109142643Y-150834090D01*
X57111144Y-98825362D02*
X57156480Y-98807874D01*
X51258232Y-26622649D02*
X51404132Y-26526944D01*
X110098192Y-85914904D02*
X110254024Y-85836403D01*
X24759877Y-65500000D02*
X24808576Y-65501195D01*
X148594737Y-184510718D02*
X148642963Y-184504770D01*
X64875317Y-87425619D02*
X64949908Y-87583360D01*
X30779671Y-125749450D02*
X30792631Y-125702619D01*
X57607036Y-153245229D02*
X57558576Y-153248804D01*
X116775278Y-93388047D02*
X116743539Y-93424841D01*
X25707368Y-185202619D02*
X25720328Y-185249450D01*
X3237595Y-152000000D02*
X12272Y-152000000D01*
X148740122Y-127000000D02*
X148691423Y-126998804D01*
X108998607Y-91162434D02*
X108894238Y-91022600D01*
X5737770Y-91461154D02*
X5611999Y-91582100D01*
X170262404Y-152000000D02*
X170100345Y-151996267D01*
X25654946Y-66933278D02*
X25633099Y-66976681D01*
X173495295Y-67501605D02*
X173487727Y-67500000D01*
X25310012Y-126833152D02*
X25268960Y-126859148D01*
X116833152Y-33810012D02*
X116805173Y-33849740D01*
X167981638Y-26835263D02*
X168117284Y-26725507D01*
X83960033Y-5289966D02*
X83993539Y-5325158D01*
X83683278Y-7904946D02*
X83638855Y-7924637D01*
X122890184Y-86703107D02*
X123001392Y-86837565D01*
X25674637Y-5611144D02*
X25692125Y-5656480D01*
X123001392Y-146337565D02*
X123076800Y-146437117D01*
X89539966Y-187210033D02*
X89506460Y-187174841D01*
X89325362Y-5611144D02*
X89345053Y-5566721D01*
X53100345Y-92496267D02*
X52926256Y-92484462D01*
X56497188Y-127003159D02*
X56493082Y-127000559D01*
X142674637Y-186888855D02*
X142654946Y-186933278D01*
X58495229Y-40142963D02*
X58498804Y-40191423D01*
X115004770Y-159142963D02*
X115010718Y-159094737D01*
X65225307Y-29089487D02*
X65237742Y-29213754D01*
X89689987Y-125166847D02*
X89731039Y-125140851D01*
X142388047Y-7775278D02*
X142349740Y-7805173D01*
X83308576Y-184501195D02*
X83357036Y-184504770D01*
X116560012Y-153083152D02*
X116518960Y-153109148D01*
X116203138Y-98769025D02*
X116250549Y-98779671D01*
X142692125Y-66156480D02*
X142707368Y-66202619D01*
X147866900Y-5523318D02*
X147890851Y-5481039D01*
X31316721Y-5095053D02*
X31361144Y-5075362D01*
X148231039Y-125140851D02*
X148273318Y-125116900D01*
X84174637Y-66111144D02*
X84192125Y-66156480D01*
X49983455Y-147244623D02*
X50050091Y-147083360D01*
X30890851Y-7518960D02*
X30866900Y-7476681D01*
X84245229Y-126107036D02*
X84239281Y-126155262D01*
X53262404Y-33000000D02*
X53100345Y-32996267D01*
X25692125Y-125656480D02*
X25707368Y-125702619D01*
X58500559Y-127006917D02*
X58500000Y-127012272D01*
X148642963Y-184504770D02*
X148691423Y-184501195D01*
X58018960Y-39390851D02*
X58060012Y-39416847D01*
X115004770Y-33357036D02*
X115001195Y-33308576D01*
X49983455Y-28244623D02*
X50001580Y-28198441D01*
X56519025Y-159046861D02*
X56529671Y-158999450D01*
X83638855Y-187424637D02*
X83593519Y-187442125D01*
X122518361Y-26835263D02*
X122648367Y-26951644D01*
X56861952Y-39474721D02*
X56900259Y-39444826D01*
X56825158Y-93493539D02*
X56789966Y-93460033D01*
X84083152Y-65939987D02*
X84109148Y-65981039D01*
X63553533Y-91998924D02*
X63445378Y-92061368D01*
X147779671Y-66249450D02*
X147792631Y-66202619D01*
X147916847Y-7560012D02*
X147890851Y-7518960D01*
X25692125Y-66843519D02*
X25674637Y-66888855D01*
X62247026Y-145036006D02*
X62419074Y-145065087D01*
X5737770Y-31961154D02*
X5611999Y-32082100D01*
X147760718Y-5844737D02*
X147769025Y-5796861D01*
X89292631Y-186797380D02*
X89279671Y-186750549D01*
X9809Y-57D02*
X2170Y-3902D01*
X142654946Y-66066721D02*
X142674637Y-66111144D01*
X58359148Y-99231039D02*
X58383099Y-99273318D01*
X0Y-12272D02*
X0Y-4987727D01*
X6719138Y-148959739D02*
X6700525Y-149083232D01*
X123176112Y-90919413D02*
X123105761Y-91022600D01*
X90094737Y-184510718D02*
X90142963Y-184504770D01*
X49762257Y-29213754D02*
X49774692Y-29089487D01*
X58470328Y-152500549D02*
X58457368Y-152547380D01*
X64501392Y-146337565D02*
X64605761Y-146477399D01*
X84207368Y-126297380D02*
X84192125Y-126343519D01*
X89279671Y-5749450D02*
X89292631Y-5702619D01*
X58174841Y-39506460D02*
X58210033Y-39539966D01*
X83888047Y-7775278D02*
X83849740Y-7805173D01*
X122518361Y-145835263D02*
X122648367Y-145951644D01*
X90142963Y-65504770D02*
X90191423Y-65501195D01*
X52076451Y-92296827D02*
X51913576Y-92234232D01*
X108823887Y-27580586D02*
X108923199Y-27437117D01*
X110910540Y-85602707D02*
X111080925Y-85565087D01*
X31150259Y-67305173D02*
X31111952Y-67275278D01*
X84192125Y-66156480D02*
X84207368Y-66202619D01*
X64949908Y-30916639D02*
X64875317Y-31074380D01*
X142525278Y-7638047D02*
X142493539Y-7674841D01*
X58500559Y-184493082D02*
X58502811Y-184496840D01*
X147974721Y-187138047D02*
X147944826Y-187099740D01*
X169029831Y-145220141D02*
X169194835Y-145163398D01*
X58457368Y-152547380D02*
X58442125Y-152593519D01*
X114992612Y-33000416D02*
X111762404Y-33000000D01*
X50727588Y-150925639D02*
X50642643Y-150834090D01*
X89999450Y-5029671D02*
X90046861Y-5019025D01*
X116203138Y-158269025D02*
X116250549Y-158279671D01*
X111080925Y-32934912D02*
X111032296Y-32925082D01*
X147751195Y-5941423D02*
X147754770Y-5892963D01*
X65247675Y-29612040D02*
X65237742Y-29786245D01*
X56529671Y-99499450D02*
X56542631Y-99452619D01*
X148316721Y-7904946D02*
X148273318Y-7883099D01*
X89269025Y-7203138D02*
X89260718Y-7155262D01*
X121423548Y-145203172D02*
X121586423Y-145265767D01*
X173494874Y-85498646D02*
X173499440Y-85493082D01*
X166832835Y-88245498D02*
X166874692Y-88076104D01*
X83888047Y-67275278D02*
X83849740Y-67305173D01*
X114999440Y-127006917D02*
X114997188Y-127003159D01*
X58243539Y-158575158D02*
X58275278Y-158611952D01*
X6725307Y-29089487D02*
X6741450Y-29263227D01*
X120919074Y-151934912D02*
X120747026Y-151963993D01*
X25750000Y-66509877D02*
X25748804Y-66558576D01*
X6737742Y-148786245D02*
X6719138Y-148959739D01*
X142654946Y-7433278D02*
X142633099Y-7476681D01*
X108262257Y-88713754D02*
X108280861Y-88540260D01*
X24857036Y-184504770D02*
X24905262Y-184510718D01*
X30769025Y-5796861D02*
X30779671Y-5749450D01*
X167001580Y-87698441D02*
X167070495Y-87538138D01*
X147944826Y-184900259D02*
X147974721Y-184861952D01*
X62419074Y-145065087D02*
X62467703Y-145074917D01*
X142460033Y-65789966D02*
X142493539Y-65825158D01*
X109142643Y-86665909D02*
X109227588Y-86574360D01*
X52752973Y-92463993D02*
X52580925Y-92434912D01*
X31546861Y-126980974D02*
X31499450Y-126970328D01*
X110529831Y-151779858D02*
X110367860Y-151714961D01*
X25720328Y-7250549D02*
X25707368Y-7297380D01*
X64852684Y-150118529D02*
X64768150Y-150271173D01*
X50323887Y-87080586D02*
X50423199Y-86937117D01*
X122857356Y-91334090D02*
X122737770Y-91461154D01*
X147751195Y-7058576D02*
X147750000Y-7009877D01*
X56499942Y-92509809D02*
X56496097Y-92502170D01*
X25183278Y-184595053D02*
X25226681Y-184616900D01*
X109904132Y-86026944D02*
X109946466Y-86001075D01*
X63843168Y-91804448D02*
X63700776Y-91905298D01*
X65191910Y-147867909D02*
X65219138Y-148040260D01*
X90046861Y-126980974D02*
X89999450Y-126970328D01*
X108332835Y-28745498D02*
X108343875Y-28697130D01*
X111426256Y-26015537D02*
X111600345Y-26003732D01*
X142493539Y-187174841D02*
X142460033Y-187210033D01*
X6268150Y-87228826D02*
X6352684Y-87381470D01*
X108252324Y-89112040D02*
X108251087Y-88937556D01*
X169926256Y-26015537D02*
X170100345Y-26003732D01*
X147825362Y-66888855D02*
X147807874Y-66843519D01*
X52926256Y-26015537D02*
X53100345Y-26003732D01*
X56939987Y-158416847D02*
X56981039Y-158390851D01*
X63245975Y-32663596D02*
X63132139Y-32714961D01*
X64357356Y-91334090D02*
X64272411Y-91425639D01*
X49983455Y-30755376D02*
X49940741Y-30638020D01*
X116297380Y-153207368D02*
X116250549Y-153220328D01*
X114999440Y-25993082D02*
X114999942Y-8009809D01*
X142730974Y-5796861D02*
X142739281Y-5844737D01*
X84109148Y-65981039D02*
X84133099Y-66023318D01*
X167231849Y-31271173D02*
X167207043Y-31228208D01*
X24905262Y-7989281D02*
X24857036Y-7995229D01*
X89366900Y-185023318D02*
X89390851Y-184981039D01*
X51404132Y-26526944D02*
X51446466Y-26501075D01*
X166758549Y-89236772D02*
X166752324Y-89112040D01*
X63741767Y-145622649D02*
X63882715Y-145725507D01*
X84239281Y-126155262D02*
X84230974Y-126203138D01*
X120573743Y-26015537D02*
X120747026Y-26036006D01*
X114987727Y-8000000D02*
X90240122Y-8000000D01*
X56861952Y-153025278D02*
X56825158Y-152993539D01*
X5857356Y-86665909D02*
X5970460Y-86798777D01*
X108624682Y-90574380D02*
X108550091Y-90416639D01*
X64272411Y-146074360D02*
X64390184Y-146203107D01*
X58383099Y-158773318D02*
X58404946Y-158816721D01*
X56825158Y-33993539D02*
X56789966Y-33960033D01*
X123691910Y-89632090D02*
X123656124Y-89802869D01*
X31740122Y-65500000D02*
X56487727Y-65500000D01*
X64949908Y-149916639D02*
X64929504Y-149961861D01*
X56616900Y-93226681D02*
X56595053Y-93183278D01*
X115990122Y-158250000D02*
X116058576Y-158251195D01*
X108440741Y-149638020D02*
X108388129Y-149471652D01*
X6748912Y-88937556D02*
X6748912Y-89062443D01*
X148075158Y-65756460D02*
X148111952Y-65724721D01*
X141953138Y-5019025D02*
X142000549Y-5029671D01*
X58457368Y-158952619D02*
X58470328Y-158999450D01*
X83547380Y-125042631D02*
X83593519Y-125057874D01*
X83768960Y-65640851D02*
X83810012Y-65666847D01*
X58500559Y-8006917D02*
X58500000Y-8012272D01*
X148039966Y-67210033D02*
X148006460Y-67174841D01*
X170100345Y-145003732D02*
X170262404Y-145000000D01*
X84133099Y-125523318D02*
X84154946Y-125566721D01*
X115990122Y-98750000D02*
X116058576Y-98751195D01*
X25460033Y-184789966D02*
X25493539Y-184825158D01*
X25349740Y-5194826D02*
X25388047Y-5224721D01*
X141953138Y-126980974D02*
X141905262Y-126989281D01*
X64018361Y-91664736D02*
X63882715Y-91774492D01*
X166888129Y-88028347D02*
X166924940Y-87909008D01*
X4790674Y-92142070D02*
X4632139Y-92214961D01*
X83768960Y-187359148D02*
X83726681Y-187383099D01*
X31316721Y-184595053D02*
X31361144Y-184575362D01*
X147916847Y-187060012D02*
X147890851Y-187018960D01*
X4089459Y-151897292D02*
X3919074Y-151934912D01*
X142750000Y-185490122D02*
X142750000Y-186509877D01*
X63401807Y-32585095D02*
X63245975Y-32663596D01*
X31039966Y-184789966D02*
X31075158Y-184756460D01*
X3747026Y-92463993D02*
X3573743Y-92484462D01*
X110529831Y-32779858D02*
X110367860Y-32714961D01*
X147944826Y-5400259D02*
X147974721Y-5361952D01*
X142000549Y-125029671D02*
X142047380Y-125042631D01*
X108550091Y-147083360D02*
X108570495Y-147038138D01*
X147845053Y-5566721D02*
X147866900Y-5523318D01*
X108388129Y-149471652D02*
X108343875Y-149302869D01*
X115892963Y-34245229D02*
X115844737Y-34239281D01*
X108923199Y-146437117D02*
X108998607Y-146337565D01*
X114994874Y-85498646D02*
X114999440Y-85493082D01*
X25692125Y-66156480D02*
X25707368Y-66202619D01*
X6176112Y-146580586D02*
X6268150Y-146728826D01*
X57441423Y-158251195D02*
X57490122Y-158250000D01*
X24759877Y-127000000D02*
X12272Y-127000000D01*
X6429504Y-147038138D02*
X6498419Y-147198441D01*
X170262404Y-33000000D02*
X170100345Y-32996267D01*
X168404132Y-91973055D02*
X168258232Y-91877350D01*
X167498607Y-91162434D02*
X167394238Y-91022600D01*
X64792956Y-31228208D02*
X64768150Y-31271173D01*
X90191423Y-65501195D02*
X90240122Y-65500000D01*
X115095053Y-39816721D02*
X115116900Y-39773318D01*
X52752973Y-32963993D02*
X52580925Y-32934912D01*
X63290674Y-85857929D02*
X63445378Y-85938631D01*
X121586423Y-151734232D02*
X121470168Y-151779858D01*
X51446466Y-86001075D02*
X51554621Y-85938631D01*
X84174637Y-186888855D02*
X84154946Y-186933278D01*
X167296970Y-27622261D02*
X167323887Y-27580586D01*
X30845053Y-7433278D02*
X30825362Y-7388855D01*
X108796970Y-31377738D02*
X108731849Y-31271173D01*
X115796861Y-39269025D02*
X115844737Y-39260718D01*
X31006460Y-125325158D02*
X31039966Y-125289966D01*
X122737770Y-150961154D02*
X122648367Y-151048355D01*
X50888000Y-145917899D02*
X50981638Y-145835263D01*
X89345053Y-5566721D02*
X89366900Y-5523318D01*
X109481638Y-151164736D02*
X109388000Y-151082100D01*
X89260718Y-66344737D02*
X89269025Y-66296861D01*
X173500000Y-4987727D02*
X173500000Y-12272D01*
X6656124Y-149302869D02*
X6611870Y-149471652D01*
X116989281Y-92905262D02*
X116980974Y-92953138D01*
X58099740Y-34055173D02*
X58060012Y-34083152D01*
X53262404Y-92500000D02*
X53100345Y-92496267D01*
X148231039Y-126859148D02*
X148189987Y-126833152D01*
X148546861Y-67480974D02*
X148499450Y-67470328D01*
X57156480Y-93692125D02*
X57111144Y-93674637D01*
X123001392Y-91162434D02*
X122890184Y-91296892D01*
X65237742Y-29786245D02*
X65225307Y-29910512D01*
X142720328Y-66249450D02*
X142730974Y-66296861D01*
X108252324Y-148387959D02*
X108262257Y-148213754D01*
X148111952Y-187275278D02*
X148075158Y-187243539D01*
X116942125Y-39906480D02*
X116957368Y-39952619D01*
X4296Y-152001878D02*
X201Y-152008344D01*
X116009877Y-34250000D02*
X115941423Y-34248804D01*
X111252973Y-151963993D02*
X111080925Y-151934912D01*
X120399654Y-26003732D02*
X120573743Y-26015537D01*
X116638047Y-39474721D02*
X116674841Y-39506460D01*
X51446466Y-26501075D02*
X51598192Y-26414904D01*
X83453138Y-7980974D02*
X83405262Y-7989281D01*
X58500000Y-184487727D02*
X58500559Y-184493082D01*
X31452619Y-7957368D02*
X31406480Y-7942125D01*
X109799223Y-91905298D02*
X109758232Y-91877350D01*
X115256460Y-33924841D02*
X115224721Y-33888047D01*
X56529671Y-158999450D02*
X56542631Y-158952619D01*
X30845053Y-186933278D02*
X30825362Y-186888855D01*
X63700776Y-91905298D02*
X63553533Y-91998924D01*
X148075158Y-125256460D02*
X148111952Y-125224721D01*
X58404946Y-99316721D02*
X58424637Y-99361144D01*
X147890851Y-5481039D02*
X147916847Y-5439987D01*
X147792631Y-66797380D02*
X147779671Y-66750549D01*
X83357036Y-5004770D02*
X83405262Y-5010718D01*
X83683278Y-126904946D02*
X83638855Y-126924637D01*
X5970460Y-146298777D02*
X6001392Y-146337565D01*
X115001195Y-99691423D02*
X115004770Y-99642963D01*
X84207368Y-185202619D02*
X84220328Y-185249450D01*
X62970168Y-32779858D02*
X62805164Y-32836601D01*
X65225307Y-148089487D02*
X65241450Y-148263227D01*
X148499450Y-65529671D02*
X148546861Y-65519025D01*
X58305173Y-39650259D02*
X58333152Y-39689987D01*
X89260718Y-185344737D02*
X89269025Y-185296861D01*
X115042631Y-152547380D02*
X115029671Y-152500549D01*
X25720328Y-125749450D02*
X25730974Y-125796861D01*
X115702619Y-34207368D02*
X115656480Y-34192125D01*
X6741450Y-88763227D02*
X6748912Y-88937556D01*
X173499702Y-67507863D02*
X173495295Y-67501605D01*
X57066721Y-153154946D02*
X57023318Y-153133099D01*
X57344737Y-93739281D02*
X57296861Y-93730974D01*
X31452619Y-187457368D02*
X31406480Y-187442125D01*
X24808576Y-184501195D02*
X24857036Y-184504770D01*
X89575158Y-65756460D02*
X89611952Y-65724721D01*
X51598192Y-151585095D02*
X51554621Y-151561368D01*
X89416847Y-187060012D02*
X89390851Y-187018960D01*
X83593519Y-126942125D02*
X83547380Y-126957368D01*
X58507387Y-92500416D02*
X58502170Y-92503902D01*
X148006460Y-187174841D02*
X147974721Y-187138047D01*
X57655262Y-98760718D02*
X57703138Y-98769025D01*
X167851632Y-91548355D02*
X167762229Y-91461154D01*
X30754770Y-66392963D02*
X30760718Y-66344737D01*
X52926256Y-85515537D02*
X53100345Y-85503732D01*
X173500000Y-12272D02*
X173497517Y-3522D01*
X57156480Y-158307874D02*
X57202619Y-158292631D01*
X120747026Y-26036006D02*
X120919074Y-26065087D01*
X147751195Y-125941423D02*
X147754770Y-125892963D01*
X109758232Y-91877350D02*
X109617284Y-91774492D01*
X89689987Y-65666847D02*
X89731039Y-65640851D01*
X111600345Y-151996267D02*
X111426256Y-151984462D01*
X25493539Y-125325158D02*
X25525278Y-125361952D01*
X53262404Y-152000000D02*
X53100345Y-151996267D01*
X148075158Y-126743539D02*
X148039966Y-126710033D01*
X31006460Y-5325158D02*
X31039966Y-5289966D01*
X89575158Y-5256460D02*
X89611952Y-5224721D01*
X115057874Y-152593519D02*
X115042631Y-152547380D01*
X116942125Y-158906480D02*
X116957368Y-158952619D01*
X31740122Y-125000000D02*
X56487727Y-125000000D01*
X30779671Y-7250549D02*
X30769025Y-7203138D01*
X912Y-67506002D02*
X559Y-85493082D01*
X58442125Y-152593519D02*
X58424637Y-152638855D01*
X148691423Y-126998804D02*
X148642963Y-126995229D01*
X56487972Y-92500003D02*
X53262404Y-92500000D01*
X30944826Y-125400259D02*
X30974721Y-125361952D01*
X63700776Y-32405298D02*
X63553533Y-32498924D01*
X169242243Y-151851225D02*
X169076451Y-151796827D01*
X89390851Y-67018960D02*
X89366900Y-66976681D01*
X110413576Y-145265767D02*
X110576451Y-145203172D01*
X6105761Y-27477399D02*
X6203029Y-27622261D01*
X116476681Y-158366900D02*
X116518960Y-158390851D01*
X115010718Y-40094737D02*
X115019025Y-40046861D01*
X61737595Y-85500000D02*
X61899654Y-85503732D01*
X3399654Y-32996267D02*
X3237595Y-33000000D01*
X25730974Y-66296861D02*
X25739281Y-66344737D01*
X84250000Y-5990122D02*
X84250000Y-7009877D01*
X25633099Y-185023318D02*
X25654946Y-185066721D01*
X83405262Y-184510718D02*
X83453138Y-184519025D01*
X90191423Y-126998804D02*
X90142963Y-126995229D01*
X142739281Y-186655262D02*
X142730974Y-186703138D01*
X142707368Y-66202619D02*
X142720328Y-66249450D01*
X56640851Y-152768960D02*
X56616900Y-152726681D01*
X167394238Y-91022600D02*
X167323887Y-90919413D01*
X6611870Y-89971652D02*
X6559258Y-90138020D01*
X142707368Y-5702619D02*
X142720328Y-5749450D01*
X108483455Y-149755376D02*
X108440741Y-149638020D01*
X148039966Y-5289966D02*
X148075158Y-5256460D01*
X57558576Y-34248804D02*
X57509877Y-34250000D01*
X57976681Y-158366900D02*
X58018960Y-158390851D01*
X30779671Y-185249450D02*
X30792631Y-185202619D01*
X25654946Y-5566721D02*
X25674637Y-5611144D01*
X148150259Y-126805173D02*
X148111952Y-126775278D01*
X123725307Y-89410512D02*
X123700525Y-89583232D01*
X116904946Y-152683278D02*
X116883099Y-152726681D01*
X49808089Y-89632090D02*
X49780861Y-89459739D01*
X57703138Y-93730974D02*
X57655262Y-93739281D01*
X117000000Y-124987727D02*
X117000559Y-124993082D01*
X3573743Y-92484462D02*
X3399654Y-92496267D01*
X168754024Y-151663596D02*
X168598192Y-151585095D01*
X116388855Y-39325362D02*
X116433278Y-39345053D01*
X116638047Y-158474721D02*
X116674841Y-158506460D01*
X89861144Y-126924637D02*
X89816721Y-126904946D01*
X49940741Y-87861979D02*
X49983455Y-87744623D01*
X122648367Y-145951644D02*
X122772411Y-146074360D01*
X5241767Y-32377350D02*
X5200776Y-32405298D01*
X25493539Y-184825158D02*
X25525278Y-184861952D01*
X108550091Y-90416639D02*
X108483455Y-90255376D01*
X167981638Y-145835263D02*
X168117284Y-145725507D01*
X50609815Y-146203107D02*
X50727588Y-146074360D01*
X89506460Y-65825158D02*
X89539966Y-65789966D01*
X58275278Y-152888047D02*
X58243539Y-152924841D01*
X25493539Y-187174841D02*
X25460033Y-187210033D01*
X83849740Y-5194826D02*
X83888047Y-5224721D01*
X173498394Y-4995295D02*
X173500000Y-4987727D01*
X148452619Y-67457368D02*
X148406480Y-67442125D01*
X116995229Y-152357036D02*
X116989281Y-152405262D01*
X56900259Y-98944826D02*
X56939987Y-98916847D01*
X114993082Y-127000559D02*
X114987727Y-127000000D01*
X122241767Y-26622649D02*
X122382715Y-26725507D01*
X83593519Y-5057874D02*
X83638855Y-5075362D01*
X64852684Y-87381470D02*
X64875317Y-87425619D01*
X31006460Y-67174841D02*
X30974721Y-67138047D01*
X50124682Y-27925619D02*
X50207043Y-27771791D01*
X89952619Y-7957368D02*
X89906480Y-7942125D01*
X63553533Y-26501075D02*
X63595867Y-26526944D01*
X25748804Y-126058576D02*
X25745229Y-126107036D01*
X84239281Y-185344737D02*
X84245229Y-185392963D01*
X147944826Y-65900259D02*
X147974721Y-65861952D01*
X56493082Y-127000559D02*
X56487727Y-127000000D01*
X167296970Y-87122261D02*
X167323887Y-87080586D01*
X30890851Y-184981039D02*
X30916847Y-184939987D01*
X31039966Y-5289966D02*
X31075158Y-5256460D01*
X83768960Y-7859148D02*
X83726681Y-7883099D01*
X30944826Y-65900259D02*
X30974721Y-65861952D01*
X108280861Y-88540260D02*
X108299474Y-88416767D01*
X6559258Y-90138020D02*
X6516544Y-90255376D01*
X83683278Y-67404946D02*
X83638855Y-67424637D01*
X61899654Y-85503732D02*
X62073743Y-85515537D01*
X116638047Y-153025278D02*
X116599740Y-153055173D01*
X167851632Y-145951644D02*
X167888000Y-145917899D01*
X30916847Y-187060012D02*
X30890851Y-187018960D01*
X62923548Y-85703172D02*
X62970168Y-85720141D01*
X167124682Y-27925619D02*
X167147315Y-27881470D01*
X4305164Y-151836601D02*
X4257756Y-151851225D01*
X168019643Y-32196626D02*
X167981638Y-32164736D01*
X115004770Y-92857036D02*
X115001195Y-92808576D01*
X84245229Y-186607036D02*
X84239281Y-186655262D01*
X115844737Y-158260718D02*
X115892963Y-158254770D01*
X89279671Y-7250549D02*
X89269025Y-7203138D01*
X56724721Y-93388047D02*
X56694826Y-93349740D01*
X63245975Y-151663596D02*
X63132139Y-151714961D01*
X30792631Y-7297380D02*
X30779671Y-7250549D01*
X111080925Y-151934912D02*
X111032296Y-151925082D01*
X142388047Y-184724721D02*
X142424841Y-184756460D01*
X297Y-124992136D02*
X4704Y-124998394D01*
X65241450Y-148263227D02*
X65248912Y-148437556D01*
X25739281Y-125844737D02*
X25745229Y-125892963D01*
X167001580Y-30801558D02*
X166940741Y-30638020D01*
X84230974Y-5796861D02*
X84239281Y-5844737D01*
X110742243Y-85648774D02*
X110910540Y-85602707D01*
X116775278Y-99111952D02*
X116805173Y-99150259D01*
X52752973Y-145036006D02*
X52926256Y-145015537D01*
X173487727Y-184500000D02*
X173494441Y-184498877D01*
X49752324Y-148612040D02*
X49751087Y-148437556D01*
X141857036Y-125004770D02*
X141905262Y-125010718D01*
X173495703Y-33001878D02*
X173487727Y-33000000D01*
X122611999Y-91582100D02*
X122518361Y-91664736D01*
X173498394Y-187504704D02*
X173492612Y-187500416D01*
X110098192Y-32585095D02*
X109946466Y-32498924D01*
X25424841Y-184756460D02*
X25460033Y-184789966D01*
X559Y-85493082D02*
X5125Y-85498646D01*
X116433278Y-158345053D02*
X116476681Y-158366900D01*
X83993539Y-65825158D02*
X84025278Y-65861952D01*
X50981638Y-151164736D02*
X50851632Y-151048355D01*
X25674637Y-7388855D02*
X25654946Y-7433278D01*
X58480974Y-152453138D02*
X58470328Y-152500549D01*
X58305173Y-158650259D02*
X58333152Y-158689987D01*
X142493539Y-7674841D02*
X142460033Y-7710033D01*
X57441423Y-39251195D02*
X57509877Y-39250000D01*
X142745229Y-186607036D02*
X142739281Y-186655262D01*
X115042631Y-93047380D02*
X115029671Y-93000549D01*
X142692125Y-185156480D02*
X142707368Y-185202619D01*
X84230974Y-125796861D02*
X84239281Y-125844737D01*
X116995229Y-92857036D02*
X116989281Y-92905262D01*
X116710033Y-152960033D02*
X116674841Y-152993539D01*
X83453138Y-126980974D02*
X83405262Y-126989281D01*
X31273318Y-187383099D02*
X31231039Y-187359148D01*
X50642643Y-27165909D02*
X50727588Y-27074360D01*
X115075362Y-158861144D02*
X115095053Y-158816721D01*
X142424841Y-65756460D02*
X142460033Y-65789966D01*
X57750549Y-98779671D02*
X57797380Y-98792631D01*
X115439987Y-153083152D02*
X115400259Y-153055173D01*
X110742243Y-145148774D02*
X110910540Y-145102707D01*
X30779671Y-126250549D02*
X30769025Y-126203138D01*
X58457368Y-39952619D02*
X58470328Y-39999450D01*
X117000000Y-92759877D02*
X116998804Y-92808576D01*
X147779671Y-66750549D02*
X147769025Y-66703138D01*
X25460033Y-5289966D02*
X25493539Y-5325158D01*
X108707043Y-146771791D02*
X108731849Y-146728826D01*
X148006460Y-184825158D02*
X148039966Y-184789966D01*
X25424841Y-5256460D02*
X25460033Y-5289966D01*
X50498607Y-27337565D02*
X50609815Y-27203107D01*
X25692125Y-186843519D02*
X25674637Y-186888855D01*
X57111144Y-39325362D02*
X57156480Y-39307874D01*
X64768150Y-150271173D02*
X64703029Y-150377738D01*
X109946466Y-91998924D02*
X109799223Y-91905298D01*
X108388129Y-88028347D02*
X108424940Y-87909008D01*
X116998804Y-92808576D02*
X116995229Y-92857036D01*
X49799474Y-28916767D02*
X49832835Y-28745498D01*
X123176112Y-27580586D02*
X123268150Y-27728826D01*
X31231039Y-65640851D02*
X31273318Y-65616900D01*
X147825362Y-185111144D02*
X147845053Y-185066721D01*
X56510718Y-159094737D02*
X56519025Y-159046861D01*
X167642643Y-27165909D02*
X167762229Y-27038845D01*
X115001195Y-92808576D02*
X115000000Y-92759877D01*
X49762257Y-148786245D02*
X49752324Y-148612040D01*
X116942125Y-99406480D02*
X116957368Y-99452619D01*
X3237595Y-33000000D02*
X12272Y-33000000D01*
X58275278Y-158611952D02*
X58305173Y-158650259D01*
X25424841Y-125256460D02*
X25460033Y-125289966D01*
X111426256Y-92484462D02*
X111252973Y-92463993D01*
X64148367Y-151048355D02*
X64111999Y-151082100D01*
X30769025Y-66296861D02*
X30779671Y-66249450D01*
X57933278Y-153154946D02*
X57888855Y-153174637D01*
X148273318Y-184616900D02*
X148316721Y-184595053D01*
X50231849Y-27728826D02*
X50323887Y-27580586D01*
X147866900Y-7476681D02*
X147845053Y-7433278D01*
X121586423Y-32734232D02*
X121470168Y-32779858D01*
X31499450Y-67470328D02*
X31452619Y-67457368D01*
X89292631Y-7297380D02*
X89279671Y-7250549D01*
X84245229Y-7107036D02*
X84239281Y-7155262D01*
X108299474Y-88416767D02*
X108332835Y-88245498D01*
X49752324Y-88887959D02*
X49762257Y-88713754D01*
X117012272Y-184500000D02*
X141759877Y-184500000D01*
X63132139Y-151714961D02*
X62970168Y-151779858D01*
X116743539Y-158575158D02*
X116775278Y-158611952D01*
X25349740Y-65694826D02*
X25388047Y-65724721D01*
X4901807Y-85914904D02*
X5053533Y-86001075D01*
X65225307Y-148910512D02*
X65200525Y-149083232D01*
X83500549Y-125029671D02*
X83547380Y-125042631D01*
X122382715Y-151274492D02*
X122241767Y-151377350D01*
X166780861Y-88540260D02*
X166808089Y-88367909D01*
X115095053Y-33683278D02*
X115075362Y-33638855D01*
X116518960Y-158390851D02*
X116560012Y-158416847D01*
X167394238Y-150522600D02*
X167296970Y-150377738D01*
X115224721Y-99111952D02*
X115256460Y-99075158D01*
X25388047Y-125224721D02*
X25424841Y-125256460D01*
X25047380Y-126957368D02*
X25000549Y-126970328D01*
X57933278Y-34154946D02*
X57888855Y-34174637D01*
X108483455Y-147244623D02*
X108550091Y-147083360D01*
X110413576Y-26265767D02*
X110576451Y-26203172D01*
X89773318Y-184616900D02*
X89816721Y-184595053D01*
X30845053Y-125566721D02*
X30866900Y-125523318D01*
X65111870Y-88028347D02*
X65125307Y-88076104D01*
X49888129Y-147528347D02*
X49940741Y-147361979D01*
X123737742Y-148786245D02*
X123719138Y-148959739D01*
X31499450Y-125029671D02*
X31546861Y-125019025D01*
X122200776Y-151405298D02*
X122053533Y-151498924D01*
X51913576Y-151734232D02*
X51754024Y-151663596D01*
X115001195Y-152308576D02*
X115000000Y-152259877D01*
X56575362Y-33638855D02*
X56557874Y-33593519D01*
X62419074Y-32934912D02*
X62247026Y-32963993D01*
X56487727Y-125000000D02*
X56493082Y-124999440D01*
X116710033Y-33960033D02*
X116674841Y-33993539D01*
X117000000Y-67512272D02*
X117000559Y-85493082D01*
X110254024Y-26336403D02*
X110413576Y-26265767D01*
X169410540Y-145102707D02*
X169580925Y-145065087D01*
X148642963Y-187495229D02*
X148594737Y-187489281D01*
X84174637Y-126388855D02*
X84154946Y-126433278D01*
X141905262Y-5010718D02*
X141953138Y-5019025D01*
X84230974Y-7203138D02*
X84220328Y-7250549D01*
X30792631Y-5702619D02*
X30807874Y-5656480D01*
X64929504Y-90461861D02*
X64875317Y-90574380D01*
X84248804Y-185441423D02*
X84250000Y-185490122D01*
X24808576Y-7998804D02*
X24759877Y-8000000D01*
X83960033Y-187210033D02*
X83924841Y-187243539D01*
X109481638Y-91664736D02*
X109388000Y-91582100D01*
X58512272Y-125000000D02*
X83259877Y-125000000D01*
X166799474Y-149083232D02*
X166780861Y-148959739D01*
X31039966Y-65789966D02*
X31075158Y-65756460D01*
X58500057Y-92509809D02*
X58500000Y-92759877D01*
X58502811Y-124996840D02*
X58506917Y-124999440D01*
X5382715Y-32274492D02*
X5241767Y-32377350D01*
X108332835Y-147745498D02*
X108343875Y-147697130D01*
X142583152Y-65939987D02*
X142609148Y-65981039D01*
X89731039Y-7859148D02*
X89689987Y-7833152D01*
X116995229Y-99642963D02*
X116998804Y-99691423D01*
X141905262Y-67489281D02*
X141857036Y-67495229D01*
X148273318Y-126883099D02*
X148231039Y-126859148D01*
X115702619Y-39292631D02*
X115749450Y-39279671D01*
X57888855Y-98825362D02*
X57933278Y-98845053D01*
X30974721Y-125361952D02*
X31006460Y-125325158D01*
X31361144Y-5075362D02*
X31406480Y-5057874D01*
X57441423Y-93748804D02*
X57392963Y-93745229D01*
X5480356Y-151196626D02*
X5343168Y-151304448D01*
X116805173Y-93349740D02*
X116775278Y-93388047D01*
X49799474Y-30083232D02*
X49774692Y-29910512D01*
X89251195Y-66441423D02*
X89254770Y-66392963D01*
X30754770Y-125892963D02*
X30760718Y-125844737D01*
X83357036Y-67495229D02*
X83308576Y-67498804D01*
X84245229Y-125892963D02*
X84248804Y-125941423D01*
X83768960Y-5140851D02*
X83810012Y-5166847D01*
X115000000Y-127012272D02*
X114999440Y-127006917D01*
X58060012Y-153083152D02*
X58018960Y-153109148D01*
X117007387Y-33000416D02*
X117002170Y-33003902D01*
X83357036Y-65504770D02*
X83405262Y-65510718D01*
X5125Y-25998646D02*
X12272Y-26000000D01*
X147866900Y-186976681D02*
X147845053Y-186933278D01*
X89539966Y-125289966D02*
X89575158Y-125256460D01*
X148006460Y-67174841D02*
X147974721Y-67138047D01*
X4089459Y-85602707D02*
X4257756Y-85648774D01*
X89861144Y-125075362D02*
X89906480Y-125057874D01*
X147807874Y-66843519D02*
X147792631Y-66797380D01*
X30890851Y-125481039D02*
X30916847Y-125439987D01*
X142349740Y-65694826D02*
X142388047Y-65724721D01*
X148691423Y-184501195D02*
X148740122Y-184500000D01*
X115224721Y-152888047D02*
X115194826Y-152849740D01*
X56501195Y-99691423D02*
X56504770Y-99642963D01*
X89539966Y-126710033D02*
X89506460Y-126674841D01*
X56694826Y-158650259D02*
X56724721Y-158611952D01*
X89390851Y-184981039D02*
X89416847Y-184939987D01*
X141759877Y-184500000D02*
X141808576Y-184501195D01*
X12272Y-152000000D02*
X4296Y-152001878D01*
X123516544Y-149755376D02*
X123449908Y-149916639D01*
X83405262Y-67489281D02*
X83357036Y-67495229D01*
X1605Y-4995295D02*
X7387Y-4999583D01*
X25654946Y-126433278D02*
X25633099Y-126476681D01*
X559Y-25993082D02*
X5125Y-25998646D01*
X89390851Y-5481039D02*
X89416847Y-5439987D01*
X148740122Y-8000000D02*
X148691423Y-7998804D01*
X25692125Y-126343519D02*
X25674637Y-126388855D01*
X167888000Y-86417899D02*
X167981638Y-86335263D01*
X83308576Y-126998804D02*
X83259877Y-127000000D01*
X25000549Y-126970328D02*
X24953138Y-126980974D01*
X30769025Y-125796861D02*
X30779671Y-125749450D01*
X25609148Y-67018960D02*
X25583152Y-67060012D01*
X115224721Y-39611952D02*
X115256460Y-39575158D01*
X25460033Y-7710033D02*
X25424841Y-7743539D01*
X56666847Y-152810012D02*
X56640851Y-152768960D01*
X142739281Y-66655262D02*
X142730974Y-66703138D01*
X31594737Y-187489281D02*
X31546861Y-187480974D01*
X58512272Y-184500000D02*
X83259877Y-184500000D01*
X123748912Y-88937556D02*
X123747675Y-89112040D01*
X57392963Y-98754770D02*
X57441423Y-98751195D01*
X116859148Y-152768960D02*
X116833152Y-152810012D01*
X169580925Y-32934912D02*
X169410540Y-32897292D01*
X141759877Y-65500000D02*
X141808576Y-65501195D01*
X89474721Y-67138047D02*
X89444826Y-67099740D01*
X142720328Y-5749450D02*
X142730974Y-5796861D01*
X142707368Y-185202619D02*
X142720328Y-185249450D01*
X169926256Y-85515537D02*
X170100345Y-85503732D01*
X83638855Y-126924637D02*
X83593519Y-126942125D01*
X56595053Y-93183278D02*
X56575362Y-93138855D01*
X89474721Y-125361952D02*
X89506460Y-125325158D01*
X142349740Y-184694826D02*
X142388047Y-184724721D01*
X141857036Y-126995229D02*
X141808576Y-126998804D01*
X89952619Y-5042631D02*
X89999450Y-5029671D01*
X147769025Y-126203138D02*
X147760718Y-126155262D01*
X89906480Y-7942125D02*
X89861144Y-7924637D01*
X56789966Y-152960033D02*
X56756460Y-152924841D01*
X56756460Y-93424841D02*
X56724721Y-93388047D01*
X148361144Y-125075362D02*
X148406480Y-125057874D01*
X6741450Y-29263227D02*
X6748912Y-29437556D01*
X25349740Y-126805173D02*
X25310012Y-126833152D01*
X108796970Y-87122261D02*
X108823887Y-87080586D01*
X173499798Y-152008344D02*
X173495703Y-152001878D01*
X58018960Y-153109148D02*
X57976681Y-153133099D01*
X57066721Y-34154946D02*
X57023318Y-34133099D01*
X109388000Y-151082100D02*
X109262229Y-150961154D01*
X111600345Y-145003732D02*
X111762404Y-145000000D01*
X30769025Y-7203138D02*
X30760718Y-7155262D01*
X83500549Y-187470328D02*
X83453138Y-187480974D01*
X64703029Y-31377738D02*
X64605761Y-31522600D01*
X120573743Y-92484462D02*
X120399654Y-92496267D01*
X148189987Y-65666847D02*
X148231039Y-65640851D01*
X5970460Y-27298777D02*
X6001392Y-27337565D01*
X64111999Y-32082100D02*
X64018361Y-32164736D01*
X89906480Y-187442125D02*
X89861144Y-187424637D01*
X58305173Y-99150259D02*
X58333152Y-99189987D01*
X142183278Y-5095053D02*
X142226681Y-5116900D01*
X56756460Y-33924841D02*
X56724721Y-33888047D01*
X167981638Y-32164736D02*
X167851632Y-32048355D01*
X89390851Y-65981039D02*
X89416847Y-65939987D01*
X50498607Y-150662434D02*
X50394238Y-150522600D01*
X168913576Y-92234232D02*
X168754024Y-92163596D01*
X30944826Y-7599740D02*
X30916847Y-7560012D01*
X122241767Y-151377350D02*
X122200776Y-151405298D01*
X25609148Y-5481039D02*
X25633099Y-5523318D01*
X64875317Y-31074380D02*
X64792956Y-31228208D01*
X56640851Y-99231039D02*
X56666847Y-99189987D01*
X167981638Y-91664736D02*
X167851632Y-91548355D01*
X52752973Y-85536006D02*
X52926256Y-85515537D01*
X141808576Y-187498804D02*
X141759877Y-187500000D01*
X25707368Y-66202619D02*
X25720328Y-66249450D01*
X30792631Y-185202619D02*
X30807874Y-185156480D01*
X116775278Y-158611952D02*
X116805173Y-158650259D01*
X142750000Y-7009877D02*
X142748804Y-7058576D01*
X84250000Y-186509877D02*
X84248804Y-186558576D01*
X108731849Y-27728826D02*
X108823887Y-27580586D01*
X56900259Y-158444826D02*
X56939987Y-158416847D01*
X61737595Y-152000000D02*
X58507387Y-152000416D01*
X6498419Y-147198441D02*
X6516544Y-147244623D01*
X142047380Y-7957368D02*
X142000549Y-7970328D01*
X116924637Y-152638855D02*
X116904946Y-152683278D01*
X63595867Y-145526944D02*
X63700776Y-145594701D01*
X116203138Y-39269025D02*
X116250549Y-39279671D01*
X115095053Y-93183278D02*
X115075362Y-93138855D01*
X115796861Y-93730974D02*
X115749450Y-93720328D01*
X31546861Y-187480974D02*
X31499450Y-187470328D01*
X58470328Y-33500549D02*
X58457368Y-33547380D01*
X90046861Y-67480974D02*
X89999450Y-67470328D01*
X84083152Y-125439987D02*
X84109148Y-125481039D01*
X141857036Y-187495229D02*
X141808576Y-187498804D01*
X24857036Y-5004770D02*
X24905262Y-5010718D01*
X89345053Y-7433278D02*
X89325362Y-7388855D01*
X50296970Y-146622261D02*
X50323887Y-146580586D01*
X115140851Y-99231039D02*
X115166847Y-99189987D01*
X117000057Y-33009809D02*
X117000000Y-33259877D01*
X56694826Y-152849740D02*
X56666847Y-152810012D01*
X142226681Y-7883099D02*
X142183278Y-7904946D01*
X147845053Y-125566721D02*
X147866900Y-125523318D01*
X6203029Y-90877738D02*
X6176112Y-90919413D01*
X115325158Y-99006460D02*
X115361952Y-98974721D01*
X116297380Y-39292631D02*
X116343519Y-39307874D01*
X90094737Y-126989281D02*
X90046861Y-126980974D01*
X109617284Y-151274492D02*
X109481638Y-151164736D01*
X121089459Y-85602707D02*
X121257756Y-85648774D01*
X123667164Y-28745498D02*
X123691910Y-28867909D01*
X147754770Y-7107036D02*
X147751195Y-7058576D01*
X148039966Y-187210033D02*
X148006460Y-187174841D01*
X115116900Y-39773318D02*
X115140851Y-39731039D01*
X115844737Y-98760718D02*
X115892963Y-98754770D01*
X84083152Y-126560012D02*
X84055173Y-126599740D01*
X173499870Y-8008830D02*
X173495703Y-8001878D01*
X6741450Y-89236772D02*
X6737742Y-89286245D01*
X58383099Y-99273318D02*
X58404946Y-99316721D01*
X90142963Y-67495229D02*
X90094737Y-67489281D01*
X109799223Y-86094701D02*
X109904132Y-86026944D01*
X148150259Y-187305173D02*
X148111952Y-187275278D01*
X6741450Y-148263227D02*
X6747675Y-148387959D01*
X173494441Y-65498877D02*
X173499087Y-65493997D01*
X4632139Y-32714961D02*
X4470168Y-32779858D01*
X5518361Y-91664736D02*
X5382715Y-91774492D01*
X142555173Y-125400259D02*
X142583152Y-125439987D01*
X116476681Y-98866900D02*
X116518960Y-98890851D01*
X25748804Y-125941423D02*
X25750000Y-126009877D01*
X1605Y-187504704D02*
X0Y-187512272D01*
X4632139Y-92214961D02*
X4470168Y-92279858D01*
X56500000Y-33259877D02*
X56499942Y-33009809D01*
X25388047Y-184724721D02*
X25424841Y-184756460D01*
X49752324Y-89112040D02*
X49751087Y-88937556D01*
X25183278Y-5095053D02*
X25226681Y-5116900D01*
X57797380Y-158292631D02*
X57843519Y-158307874D01*
X115095053Y-99316721D02*
X115116900Y-99273318D01*
X84239281Y-7155262D02*
X84230974Y-7203138D01*
X147760718Y-66655262D02*
X147754770Y-66607036D01*
X30916847Y-125439987D02*
X30944826Y-125400259D01*
X24953138Y-184519025D02*
X25000549Y-184529671D01*
X56510718Y-33405262D02*
X56504770Y-33357036D01*
X30792631Y-186797380D02*
X30779671Y-186750549D01*
X31273318Y-126883099D02*
X31231039Y-126859148D01*
X173487727Y-8000000D02*
X148740122Y-8000000D01*
X116859148Y-93268960D02*
X116833152Y-93310012D01*
X148273318Y-65616900D02*
X148316721Y-65595053D01*
X58500057Y-33009809D02*
X58500000Y-33259877D01*
X108252324Y-29612040D02*
X108251087Y-29562443D01*
X142093519Y-65557874D02*
X142138855Y-65575362D01*
X115400259Y-39444826D02*
X115439987Y-39416847D01*
X6719138Y-88540260D02*
X6725307Y-88589487D01*
X89952619Y-67457368D02*
X89906480Y-67442125D01*
X89861144Y-184575362D02*
X89906480Y-184557874D01*
X147779671Y-185249450D02*
X147792631Y-185202619D01*
X109142643Y-146165909D02*
X109227588Y-146074360D01*
X169410540Y-32897292D02*
X169242243Y-32851225D01*
X148075158Y-5256460D02*
X148111952Y-5224721D01*
X148546861Y-65519025D02*
X148594737Y-65510718D01*
X31150259Y-187305173D02*
X31111952Y-187275278D01*
X123292956Y-27771791D02*
X123375317Y-27925619D01*
X117000559Y-144993082D02*
X117005125Y-144998646D01*
X90094737Y-7989281D02*
X90046861Y-7980974D01*
X30807874Y-66843519D02*
X30792631Y-66797380D01*
X63700776Y-145594701D02*
X63741767Y-145622649D01*
X115400259Y-93555173D02*
X115361952Y-93525278D01*
X109758232Y-32377350D02*
X109617284Y-32274492D01*
X109481638Y-86335263D02*
X109617284Y-86225507D01*
X30769025Y-66703138D02*
X30760718Y-66655262D01*
X30866900Y-5523318D02*
X30890851Y-5481039D01*
X142388047Y-125224721D02*
X142424841Y-125256460D01*
X115611144Y-93674637D02*
X115566721Y-93654946D01*
X25310012Y-7833152D02*
X25268960Y-7859148D01*
X169076451Y-151796827D02*
X168913576Y-151734232D01*
X51117284Y-145725507D02*
X51258232Y-145622649D01*
X83726681Y-187383099D02*
X83683278Y-187404946D01*
X31642963Y-184504770D02*
X31691423Y-184501195D01*
X167609815Y-146203107D02*
X167727588Y-146074360D01*
X84154946Y-125566721D02*
X84174637Y-125611144D01*
X89773318Y-187383099D02*
X89731039Y-187359148D01*
X58500000Y-65487727D02*
X58500559Y-65493082D01*
X109946466Y-151498924D02*
X109799223Y-151405298D01*
X31316721Y-65595053D02*
X31361144Y-65575362D01*
X142750000Y-125990122D02*
X142748804Y-126058576D01*
X167498607Y-146337565D02*
X167609815Y-146203107D01*
X121745975Y-26336403D02*
X121901807Y-26414904D01*
X56494874Y-25998646D02*
X56499440Y-25993082D01*
X142555173Y-65900259D02*
X142583152Y-65939987D01*
X58359148Y-39731039D02*
X58383099Y-39773318D01*
X58457368Y-93047380D02*
X58442125Y-93093519D01*
X89345053Y-66933278D02*
X89325362Y-66888855D01*
X142138855Y-5075362D02*
X142183278Y-5095053D01*
X49983455Y-90255376D02*
X49940741Y-90138020D01*
X56500000Y-152259877D02*
X56499942Y-152009809D01*
X166752324Y-29612040D02*
X166751087Y-29437556D01*
X24905262Y-125010718D02*
X24953138Y-125019025D01*
X84250000Y-126009877D02*
X84248804Y-126058576D01*
X116107036Y-39254770D02*
X116155262Y-39260718D01*
X52926256Y-145015537D02*
X53100345Y-145003732D01*
X123691910Y-88367909D02*
X123700525Y-88416767D01*
X116942125Y-33593519D02*
X116924637Y-33638855D01*
X53100345Y-32996267D02*
X52926256Y-32984462D01*
X52242243Y-85648774D02*
X52410540Y-85602707D01*
X30845053Y-5566721D02*
X30866900Y-5523318D01*
X167070495Y-147038138D02*
X167147315Y-146881470D01*
X116924637Y-33638855D02*
X116904946Y-33683278D01*
X109946466Y-86001075D02*
X110098192Y-85914904D01*
X142707368Y-126297380D02*
X142692125Y-126343519D01*
X50981638Y-145835263D02*
X51117284Y-145725507D01*
X84248804Y-66558576D02*
X84245229Y-66607036D01*
X30779671Y-66249450D02*
X30792631Y-66202619D01*
X116388855Y-98825362D02*
X116433278Y-98845053D01*
X5053533Y-91998924D02*
X4901807Y-92085095D01*
X142748804Y-7058576D02*
X142745229Y-7107036D01*
X148691423Y-5001195D02*
X148740122Y-5000000D01*
X108707043Y-87271791D02*
X108796970Y-87122261D01*
X109799223Y-32405298D02*
X109758232Y-32377350D01*
X83888047Y-126775278D02*
X83849740Y-126805173D01*
X123105761Y-31522600D02*
X123001392Y-31662434D01*
X167609815Y-150796892D02*
X167498607Y-150662434D01*
X56789966Y-158539966D02*
X56825158Y-158506460D01*
X83993539Y-5325158D02*
X84025278Y-5361952D01*
X58099740Y-93555173D02*
X58060012Y-93583152D01*
X83888047Y-187275278D02*
X83849740Y-187305173D01*
X173499275Y-127006455D02*
X173494874Y-127001353D01*
X25093519Y-67442125D02*
X25047380Y-67457368D01*
X89416847Y-7560012D02*
X89390851Y-7518960D01*
X142739281Y-7155262D02*
X142730974Y-7203138D01*
X115289966Y-158539966D02*
X115325158Y-158506460D01*
X141905262Y-65510718D02*
X141953138Y-65519025D01*
X61949204Y-151993794D02*
X61899654Y-151996267D01*
X123656124Y-147697130D02*
X123667164Y-147745498D01*
X50207043Y-27771791D02*
X50231849Y-27728826D01*
X50323887Y-146580586D02*
X50423199Y-146437117D01*
X5611999Y-26917899D02*
X5648367Y-26951644D01*
X89650259Y-126805173D02*
X89611952Y-126775278D01*
X58174841Y-152993539D02*
X58138047Y-153025278D01*
X142183278Y-187404946D02*
X142138855Y-187424637D01*
X116476681Y-93633099D02*
X116433278Y-93654946D01*
X115566721Y-34154946D02*
X115523318Y-34133099D01*
X108440741Y-30638020D02*
X108388129Y-30471652D01*
X84207368Y-125702619D02*
X84220328Y-125749450D01*
X83726681Y-7883099D02*
X83683278Y-7904946D01*
X12272Y-125000000D02*
X24759877Y-125000000D01*
X90046861Y-125019025D02*
X90094737Y-125010718D01*
X142349740Y-7805173D02*
X142310012Y-7833152D01*
X117002811Y-67503159D02*
X117000559Y-67506917D01*
X142093519Y-125057874D02*
X142138855Y-125075362D01*
X65247675Y-29387959D02*
X65248912Y-29437556D01*
X123667164Y-30254501D02*
X123656124Y-30302869D01*
X89416847Y-5439987D02*
X89444826Y-5400259D01*
X108299474Y-149083232D02*
X108274692Y-148910512D01*
X116518960Y-153109148D02*
X116476681Y-153133099D01*
X25460033Y-125289966D02*
X25493539Y-125325158D01*
X31452619Y-184542631D02*
X31499450Y-184529671D01*
X148406480Y-184557874D02*
X148452619Y-184542631D01*
X108274692Y-29089487D02*
X108299474Y-28916767D01*
X169752973Y-85536006D02*
X169926256Y-85515537D01*
X121745975Y-151663596D02*
X121586423Y-151734232D01*
X89906480Y-184557874D02*
X89952619Y-184542631D01*
X56542631Y-99452619D02*
X56557874Y-99406480D01*
X56501195Y-152308576D02*
X56500000Y-152259877D01*
X57655262Y-158260718D02*
X57703138Y-158269025D01*
X89731039Y-5140851D02*
X89773318Y-5116900D01*
X57750549Y-153220328D02*
X57703138Y-153230974D01*
X56900259Y-93555173D02*
X56861952Y-93525278D01*
X50888000Y-86417899D02*
X50981638Y-86335263D01*
X108550091Y-149916639D02*
X108483455Y-149755376D01*
X89444826Y-65900259D02*
X89474721Y-65861952D01*
X116343519Y-34192125D02*
X116297380Y-34207368D01*
X6429504Y-30961861D02*
X6352684Y-31118529D01*
X123656124Y-88197130D02*
X123691910Y-88367909D01*
X724Y-65493544D02*
X5125Y-65498646D01*
X57797380Y-98792631D02*
X57843519Y-98807874D01*
X147974721Y-184861952D02*
X148006460Y-184825158D01*
X50296970Y-87122261D02*
X50323887Y-87080586D01*
X25138855Y-7924637D02*
X25093519Y-7942125D01*
X31189987Y-125166847D02*
X31231039Y-125140851D01*
X57202619Y-158292631D02*
X57249450Y-158279671D01*
X6352684Y-87381470D02*
X6375317Y-87425619D01*
X25093519Y-187442125D02*
X25047380Y-187457368D01*
X147754770Y-186607036D02*
X147751195Y-186558576D01*
X167296970Y-146622261D02*
X167323887Y-146580586D01*
X4257756Y-151851225D02*
X4089459Y-151897292D01*
X25000549Y-7970328D02*
X24953138Y-7980974D01*
X51299223Y-32405298D02*
X51258232Y-32377350D01*
X123691910Y-28867909D02*
X123719138Y-29040260D01*
X25730974Y-5796861D02*
X25739281Y-5844737D01*
X25000549Y-184529671D02*
X25047380Y-184542631D01*
X65016544Y-30755376D02*
X64949908Y-30916639D01*
X30825362Y-186888855D02*
X30807874Y-186843519D01*
X147866900Y-66976681D02*
X147845053Y-66933278D01*
X110910540Y-26102707D02*
X111080925Y-26065087D01*
X57066721Y-93654946D02*
X57023318Y-93633099D01*
X142310012Y-187333152D02*
X142268960Y-187359148D01*
X49762257Y-29786245D02*
X49752324Y-29612040D01*
X56504770Y-33357036D02*
X56501195Y-33308576D01*
X31006460Y-187174841D02*
X30974721Y-187138047D01*
X56666847Y-33810012D02*
X56640851Y-33768960D01*
X49832835Y-30254501D02*
X49799474Y-30083232D01*
X166983455Y-147244623D02*
X167050091Y-147083360D01*
X148642963Y-7995229D02*
X148594737Y-7989281D01*
X108894238Y-31522600D02*
X108796970Y-31377738D01*
X116743539Y-99075158D02*
X116775278Y-99111952D01*
X142493539Y-184825158D02*
X142525278Y-184861952D01*
X148150259Y-67305173D02*
X148111952Y-67275278D01*
X57976681Y-153133099D02*
X57933278Y-153154946D01*
X64390184Y-31796892D02*
X64272411Y-31925639D01*
X142674637Y-126388855D02*
X142654946Y-126433278D01*
X173499087Y-184493997D02*
X173499798Y-152008344D01*
X147792631Y-125702619D02*
X147807874Y-125656480D01*
X83357036Y-187495229D02*
X83308576Y-187498804D01*
X114994874Y-25998646D02*
X114999440Y-25993082D01*
X57023318Y-34133099D02*
X56981039Y-34109148D01*
X56487727Y-85500000D02*
X56494874Y-85498646D01*
X142633099Y-7476681D02*
X142609148Y-7518960D01*
X57023318Y-158366900D02*
X57066721Y-158345053D01*
X57843519Y-39307874D02*
X57888855Y-39325362D01*
X142183278Y-67404946D02*
X142138855Y-67424637D01*
X57888855Y-34174637D02*
X57843519Y-34192125D01*
X123449908Y-30916639D02*
X123375317Y-31074380D01*
X173499440Y-25993082D02*
X173499870Y-8008830D01*
X141808576Y-5001195D02*
X141857036Y-5004770D01*
X30807874Y-126343519D02*
X30792631Y-126297380D01*
X6203029Y-27622261D02*
X6268150Y-27728826D01*
X148150259Y-5194826D02*
X148189987Y-5166847D01*
X58404946Y-152683278D02*
X58383099Y-152726681D01*
X167323887Y-90919413D02*
X167231849Y-90771173D01*
X167207043Y-31228208D02*
X167124682Y-31074380D01*
X64949908Y-90416639D02*
X64929504Y-90461861D01*
X63245975Y-92163596D02*
X63132139Y-92214961D01*
X148231039Y-67359148D02*
X148189987Y-67333152D01*
X31111952Y-125224721D02*
X31150259Y-125194826D01*
X6449908Y-30916639D02*
X6429504Y-30961861D01*
X116775278Y-39611952D02*
X116805173Y-39650259D01*
X147866900Y-125523318D02*
X147890851Y-125481039D01*
X115256460Y-39575158D02*
X115289966Y-39539966D01*
X111426256Y-151984462D02*
X111252973Y-151963993D01*
X121305164Y-92336601D02*
X121257756Y-92351225D01*
X4470168Y-151779858D02*
X4305164Y-151836601D01*
X56900259Y-39444826D02*
X56939987Y-39416847D01*
X25745229Y-126107036D02*
X25739281Y-126155262D01*
X31691423Y-126998804D02*
X31642963Y-126995229D01*
X6719138Y-89459739D02*
X6691910Y-89632090D01*
X168554621Y-145438631D02*
X168709325Y-145357929D01*
X110742243Y-26148774D02*
X110910540Y-26102707D01*
X58489281Y-99594737D02*
X58495229Y-99642963D01*
X122857356Y-146165909D02*
X122890184Y-146203107D01*
X25310012Y-65666847D02*
X25349740Y-65694826D01*
X84250000Y-66509877D02*
X84248804Y-66558576D01*
X148740122Y-65500000D02*
X173487727Y-65500000D01*
X57558576Y-39251195D02*
X57607036Y-39254770D01*
X111762404Y-85500000D02*
X114987727Y-85500000D01*
X109142643Y-150834090D02*
X109029539Y-150701222D01*
X142460033Y-187210033D02*
X142424841Y-187243539D01*
X142609148Y-126518960D02*
X142583152Y-126560012D01*
X63132139Y-145285038D02*
X63290674Y-145357929D01*
X170262404Y-85500000D02*
X173487727Y-85500000D01*
X142633099Y-186976681D02*
X142609148Y-187018960D01*
X25720328Y-66750549D02*
X25707368Y-66797380D01*
X121901807Y-145414904D02*
X121945378Y-145438631D01*
X25720328Y-185249450D02*
X25730974Y-185296861D01*
X115075362Y-152638855D02*
X115057874Y-152593519D01*
X52580925Y-145065087D02*
X52752973Y-145036006D01*
X58500000Y-8012272D02*
X58500559Y-25993082D01*
X51299223Y-91905298D02*
X51156831Y-91804448D01*
X50296970Y-31377738D02*
X50231849Y-31271173D01*
X30769025Y-126203138D02*
X30760718Y-126155262D01*
X142720328Y-125749450D02*
X142730974Y-125796861D01*
X89250000Y-126009877D02*
X89251195Y-125941423D01*
X168913576Y-32734232D02*
X168754024Y-32663596D01*
X114997829Y-152003902D02*
X114992612Y-152000416D01*
X116388855Y-153174637D02*
X116343519Y-153192125D01*
X89366900Y-5523318D02*
X89390851Y-5481039D01*
X84250000Y-185490122D02*
X84250000Y-186509877D01*
X58383099Y-152726681D02*
X58359148Y-152768960D01*
X49752324Y-148387959D02*
X49762257Y-148213754D01*
X30807874Y-66156480D02*
X30825362Y-66111144D01*
X122053533Y-91998924D02*
X121901807Y-92085095D01*
X116250549Y-34220328D02*
X116203138Y-34230974D01*
X25633099Y-66976681D02*
X25609148Y-67018960D01*
X31740122Y-67500000D02*
X31691423Y-67498804D01*
X110054621Y-145438631D02*
X110098192Y-145414904D01*
X62073743Y-145015537D02*
X62247026Y-145036006D01*
X64605761Y-150522600D02*
X64576800Y-150562882D01*
X25093519Y-125057874D02*
X25138855Y-125075362D01*
X123001392Y-150662434D02*
X122890184Y-150796892D01*
X108998607Y-86837565D02*
X109029539Y-86798777D01*
X122053533Y-151498924D02*
X121901807Y-151585095D01*
X50231849Y-31271173D02*
X50207043Y-31228208D01*
X115004770Y-40142963D02*
X115010718Y-40094737D01*
X115749450Y-98779671D02*
X115796861Y-98769025D01*
X142388047Y-187275278D02*
X142349740Y-187305173D01*
X115289966Y-33960033D02*
X115256460Y-33924841D01*
X147825362Y-126388855D02*
X147807874Y-126343519D01*
X115611144Y-153174637D02*
X115566721Y-153154946D01*
X83259877Y-5000000D02*
X83308576Y-5001195D01*
X123268150Y-90771173D02*
X123176112Y-90919413D01*
X115892963Y-158254770D02*
X115941423Y-158251195D01*
X57558576Y-93748804D02*
X57509877Y-93750000D01*
X6375317Y-90574380D02*
X6352684Y-90618529D01*
X114997829Y-92503902D02*
X114992612Y-92500416D01*
X25748804Y-66441423D02*
X25750000Y-66509877D01*
X123268150Y-27728826D02*
X123292956Y-27771791D01*
X117000057Y-92509809D02*
X117000000Y-92759877D01*
X3796084Y-32956599D02*
X3747026Y-32963993D01*
X56694826Y-93349740D02*
X56666847Y-93310012D01*
X115075362Y-93138855D02*
X115057874Y-93093519D01*
X147974721Y-65861952D02*
X148006460Y-65825158D01*
X56499440Y-127006917D02*
X56497188Y-127003159D01*
X5648367Y-26951644D02*
X5737770Y-27038845D01*
X167207043Y-90728208D02*
X167124682Y-90574380D01*
X24953138Y-5019025D02*
X25000549Y-5029671D01*
X64018361Y-145835263D02*
X64111999Y-145917899D01*
X115361952Y-98974721D02*
X115400259Y-98944826D01*
X50981638Y-91664736D02*
X50851632Y-91548355D01*
X167207043Y-146771791D02*
X167296970Y-146622261D01*
X142226681Y-184616900D02*
X142268960Y-184640851D01*
X30866900Y-186976681D02*
X30845053Y-186933278D01*
X123076800Y-86937117D02*
X123176112Y-87080586D01*
X58505125Y-85498646D02*
X58512272Y-85500000D01*
X57843519Y-93692125D02*
X57797380Y-93707368D01*
X31406480Y-126942125D02*
X31361144Y-126924637D01*
X30916847Y-184939987D02*
X30944826Y-184900259D01*
X64576800Y-86937117D02*
X64676112Y-87080586D01*
X50642643Y-150834090D02*
X50529539Y-150701222D01*
X12272Y-85500000D02*
X3237595Y-85500000D01*
X83726681Y-184616900D02*
X83768960Y-184640851D01*
X3399654Y-151996267D02*
X3237595Y-152000000D01*
X114996097Y-8002170D02*
X114987727Y-8000000D01*
X57023318Y-153133099D02*
X56981039Y-153109148D01*
X148316721Y-126904946D02*
X148273318Y-126883099D01*
X117002811Y-65496840D02*
X117006917Y-65499440D01*
X123700525Y-89583232D02*
X123691910Y-89632090D01*
X117012272Y-65500000D02*
X141759877Y-65500000D01*
X166924940Y-149590991D02*
X166874692Y-149423895D01*
X148499450Y-7970328D02*
X148452619Y-7957368D01*
X166874692Y-30423895D02*
X166832835Y-30254501D01*
X169926256Y-151984462D02*
X169752973Y-151963993D01*
X116058576Y-153248804D02*
X116009877Y-153250000D01*
X116980974Y-33453138D02*
X116970328Y-33500549D01*
X142047380Y-126957368D02*
X142000549Y-126970328D01*
X173487727Y-125000000D02*
X173494441Y-124998877D01*
X65247675Y-89112040D02*
X65237742Y-89286245D01*
X30760718Y-186655262D02*
X30754770Y-186607036D01*
X58243539Y-93424841D02*
X58210033Y-93460033D01*
X89611952Y-125224721D02*
X89650259Y-125194826D01*
X30750000Y-66490122D02*
X30751195Y-66441423D01*
X25388047Y-126775278D02*
X25349740Y-126805173D01*
X83849740Y-187305173D02*
X83810012Y-187333152D01*
X117000559Y-65493082D02*
X117002811Y-65496840D01*
X50070495Y-87538138D02*
X50147315Y-87381470D01*
X83547380Y-67457368D02*
X83500549Y-67470328D01*
X57202619Y-34207368D02*
X57156480Y-34192125D01*
X25460033Y-126710033D02*
X25424841Y-126743539D01*
X173494441Y-184498877D02*
X173499087Y-184493997D01*
X108707043Y-27771791D02*
X108731849Y-27728826D01*
X116560012Y-39416847D02*
X116599740Y-39444826D01*
X65237742Y-29213754D02*
X65247675Y-29387959D01*
X89325362Y-126388855D02*
X89307874Y-126343519D01*
X56487727Y-8000000D02*
X31740122Y-8000000D01*
X56724721Y-99111952D02*
X56756460Y-99075158D01*
X116476681Y-153133099D02*
X116433278Y-153154946D01*
X57976681Y-34133099D02*
X57933278Y-34154946D01*
X57296861Y-34230974D02*
X57249450Y-34220328D01*
X148111952Y-125224721D02*
X148150259Y-125194826D01*
X167981638Y-151164736D02*
X167851632Y-151048355D01*
X142424841Y-126743539D02*
X142388047Y-126775278D01*
X108262257Y-29213754D02*
X108274692Y-29089487D01*
X57441423Y-153248804D02*
X57392963Y-153245229D01*
X116710033Y-93460033D02*
X116674841Y-93493539D01*
X6516544Y-90255376D02*
X6449908Y-90416639D01*
X25525278Y-126638047D02*
X25493539Y-126674841D01*
X49924940Y-28409008D02*
X49983455Y-28244623D01*
X116989281Y-99594737D02*
X116995229Y-99642963D01*
X148189987Y-125166847D02*
X148231039Y-125140851D01*
X4632139Y-151714961D02*
X4470168Y-151779858D01*
X57607036Y-93745229D02*
X57558576Y-93748804D01*
X6001392Y-146337565D02*
X6105761Y-146477399D01*
X84025278Y-184861952D02*
X84055173Y-184900259D01*
X116107036Y-34245229D02*
X116058576Y-34248804D01*
X116476681Y-39366900D02*
X116518960Y-39390851D01*
X56494874Y-85498646D02*
X56499440Y-85493082D01*
X89444826Y-187099740D02*
X89416847Y-187060012D01*
X50296970Y-150377738D02*
X50231849Y-150271173D01*
X25692125Y-5656480D02*
X25707368Y-5702619D01*
X108262257Y-29786245D02*
X108252324Y-29612040D01*
X148546861Y-7980974D02*
X148499450Y-7970328D01*
X142268960Y-5140851D02*
X142310012Y-5166847D01*
X116989281Y-33405262D02*
X116980974Y-33453138D01*
X142268960Y-125140851D02*
X142310012Y-125166847D01*
X173487727Y-26000000D02*
X173494874Y-25998646D01*
X56640851Y-33768960D02*
X56616900Y-33726681D01*
X142674637Y-66111144D02*
X142692125Y-66156480D01*
X84245229Y-185392963D02*
X84248804Y-185441423D01*
X108501580Y-87698441D02*
X108550091Y-87583360D01*
X89269025Y-186703138D02*
X89260718Y-186655262D01*
X109029539Y-91201222D02*
X108998607Y-91162434D01*
X116942125Y-152593519D02*
X116924637Y-152638855D01*
X83638855Y-65575362D02*
X83683278Y-65595053D01*
X114997829Y-124996097D02*
X115000000Y-124987727D01*
X83357036Y-125004770D02*
X83405262Y-125010718D01*
X49888129Y-88028347D02*
X49940741Y-87861979D01*
X110098192Y-26414904D02*
X110254024Y-26336403D01*
X25047380Y-5042631D02*
X25093519Y-5057874D01*
X57156480Y-153192125D02*
X57111144Y-153174637D01*
X168404132Y-151473055D02*
X168299223Y-151405298D01*
X141857036Y-65504770D02*
X141905262Y-65510718D01*
X115941423Y-158251195D02*
X115990122Y-158250000D01*
X121305164Y-151836601D02*
X121257756Y-151851225D01*
X31273318Y-67383099D02*
X31231039Y-67359148D01*
X62589459Y-151897292D02*
X62419074Y-151934912D01*
X169580925Y-145065087D02*
X169752973Y-145036006D01*
X63700776Y-86094701D02*
X63741767Y-86122649D01*
X12272Y-192500000D02*
X173487727Y-192500000D01*
X57655262Y-93739281D02*
X57607036Y-93745229D01*
X58210033Y-99039966D02*
X58243539Y-99075158D01*
X49832835Y-147745498D02*
X49843875Y-147697130D01*
X5200776Y-151405298D02*
X5053533Y-151498924D01*
X56694826Y-33849740D02*
X56666847Y-33810012D01*
X57296861Y-158269025D02*
X57344737Y-158260718D01*
X117002170Y-152003902D02*
X117000057Y-152009809D01*
X31006460Y-65825158D02*
X31039966Y-65789966D01*
X30750000Y-5990122D02*
X30751195Y-5941423D01*
X115844737Y-153239281D02*
X115796861Y-153230974D01*
X31075158Y-67243539D02*
X31039966Y-67210033D01*
X56499440Y-65493082D02*
X56500000Y-65487727D01*
X90142963Y-126995229D02*
X90094737Y-126989281D01*
X49874692Y-88076104D02*
X49888129Y-88028347D01*
X58333152Y-99189987D02*
X58359148Y-99231039D01*
X24759877Y-187500000D02*
X7863Y-187500297D01*
X84055173Y-187099740D02*
X84025278Y-187138047D01*
X83960033Y-65789966D02*
X83993539Y-65825158D01*
X6748912Y-89062443D02*
X6741450Y-89236772D01*
X142424841Y-67243539D02*
X142388047Y-67275278D01*
X89390851Y-7518960D02*
X89366900Y-7476681D01*
X57441423Y-34248804D02*
X57392963Y-34245229D01*
X121089459Y-145102707D02*
X121257756Y-145148774D01*
X25226681Y-5116900D02*
X25268960Y-5140851D01*
X110254024Y-32663596D02*
X110098192Y-32585095D01*
X64272411Y-27074360D02*
X64357356Y-27165909D01*
X30974721Y-126638047D02*
X30944826Y-126599740D01*
X31546861Y-65519025D02*
X31594737Y-65510718D01*
X90142963Y-187495229D02*
X90094737Y-187489281D01*
X166924940Y-147409008D02*
X166983455Y-147244623D01*
X57558576Y-98751195D02*
X57607036Y-98754770D01*
X65248912Y-148437556D02*
X65248912Y-148562443D01*
X89444826Y-125400259D02*
X89474721Y-125361952D01*
X166808089Y-88367909D02*
X166832835Y-88245498D01*
X123375317Y-31074380D02*
X123292956Y-31228208D01*
X148642963Y-65504770D02*
X148691423Y-65501195D01*
X89773318Y-125116900D02*
X89816721Y-125095053D01*
X31594737Y-65510718D02*
X31642963Y-65504770D01*
X173500000Y-187512272D02*
X173498394Y-187504704D01*
X31075158Y-125256460D02*
X31111952Y-125224721D01*
X84154946Y-7433278D02*
X84133099Y-7476681D01*
X50050091Y-87583360D02*
X50070495Y-87538138D01*
X5382715Y-86225507D02*
X5480356Y-86303373D01*
X58099740Y-153055173D02*
X58060012Y-153083152D01*
X122648367Y-86451644D02*
X122737770Y-86538845D01*
X116674841Y-33993539D02*
X116638047Y-34025278D01*
X30825362Y-185111144D02*
X30845053Y-185066721D01*
X116998804Y-159191423D02*
X117000000Y-159240122D01*
X31189987Y-7833152D02*
X31150259Y-7805173D01*
X167609815Y-31796892D02*
X167498607Y-31662434D01*
X121745975Y-145336403D02*
X121901807Y-145414904D01*
X6611870Y-30471652D02*
X6575059Y-30590991D01*
X116155262Y-158260718D02*
X116203138Y-158269025D01*
X83593519Y-184557874D02*
X83638855Y-184575362D01*
X123292956Y-146771791D02*
X123352684Y-146881470D01*
X117002811Y-8003159D02*
X117000559Y-8006917D01*
X30760718Y-7155262D02*
X30754770Y-7107036D01*
X123352684Y-90618529D02*
X123268150Y-90771173D01*
X49751087Y-29562443D02*
X49752324Y-29387959D01*
X122343168Y-86195551D02*
X122382715Y-86225507D01*
X148316721Y-184595053D02*
X148361144Y-184575362D01*
X12272Y-67500000D02*
X5558Y-67501122D01*
X56497188Y-65496840D02*
X56499440Y-65493082D01*
X173499440Y-144993082D02*
X173499275Y-127006455D01*
X56504770Y-159142963D02*
X56510718Y-159094737D01*
X111600345Y-85503732D02*
X111762404Y-85500000D01*
X142138855Y-187424637D02*
X142093519Y-187442125D01*
X142692125Y-66843519D02*
X142674637Y-66888855D01*
X83924841Y-184756460D02*
X83960033Y-184789966D01*
X84250000Y-7009877D02*
X84248804Y-7058576D01*
X148189987Y-7833152D02*
X148150259Y-7805173D01*
X25654946Y-7433278D02*
X25633099Y-7476681D01*
X116518960Y-34109148D02*
X116476681Y-34133099D01*
X122648367Y-151048355D02*
X122518361Y-151164736D01*
X56510718Y-92905262D02*
X56504770Y-92857036D01*
X116107036Y-158254770D02*
X116155262Y-158260718D01*
X116560012Y-93583152D02*
X116518960Y-93609148D01*
X56487727Y-26000000D02*
X56494874Y-25998646D01*
X25730974Y-125796861D02*
X25739281Y-125844737D01*
X51754024Y-151663596D02*
X51598192Y-151585095D01*
X58505125Y-144998646D02*
X58512272Y-145000000D01*
X167231849Y-90771173D02*
X167207043Y-90728208D01*
X115844737Y-34239281D02*
X115796861Y-34230974D01*
X168913576Y-151734232D02*
X168754024Y-151663596D01*
X31642963Y-5004770D02*
X31691423Y-5001195D01*
X89650259Y-65694826D02*
X89689987Y-65666847D01*
X24808576Y-125001195D02*
X24857036Y-125004770D01*
X121257756Y-151851225D02*
X121089459Y-151897292D01*
X58500000Y-99740122D02*
X58500000Y-124987727D01*
X51117284Y-86225507D02*
X51258232Y-86122649D01*
X142310012Y-5166847D02*
X142349740Y-5194826D01*
X90240122Y-8000000D02*
X90191423Y-7998804D01*
X89506460Y-67174841D02*
X89474721Y-67138047D01*
X142707368Y-186797380D02*
X142692125Y-186843519D01*
X116980974Y-40046861D02*
X116989281Y-40094737D01*
X168299223Y-145594701D02*
X168446466Y-145501075D01*
X89416847Y-126560012D02*
X89390851Y-126518960D01*
X50851632Y-151048355D02*
X50727588Y-150925639D01*
X142268960Y-187359148D02*
X142226681Y-187383099D01*
X111762404Y-26000000D02*
X114987727Y-26000000D01*
X25609148Y-7518960D02*
X25583152Y-7560012D01*
X114997188Y-67503159D02*
X114993082Y-67500559D01*
X57111144Y-34174637D02*
X57066721Y-34154946D01*
X147760718Y-185344737D02*
X147769025Y-185296861D01*
X57655262Y-153239281D02*
X57607036Y-153245229D01*
X89506460Y-5325158D02*
X89539966Y-5289966D01*
X170100345Y-32996267D02*
X169926256Y-32984462D01*
X116924637Y-99361144D02*
X116942125Y-99406480D01*
X147890851Y-67018960D02*
X147866900Y-66976681D01*
X84154946Y-186933278D02*
X84133099Y-186976681D01*
X116970328Y-152500549D02*
X116957368Y-152547380D01*
X65111870Y-149471652D02*
X65075059Y-149590991D01*
X57607036Y-158254770D02*
X57655262Y-158260718D01*
X31075158Y-7743539D02*
X31039966Y-7710033D01*
X115194826Y-158650259D02*
X115224721Y-158611952D01*
X147754770Y-66392963D02*
X147760718Y-66344737D01*
X63741767Y-86122649D02*
X63882715Y-86225507D01*
X3237595Y-145000000D02*
X3399654Y-145003732D01*
X168117284Y-145725507D02*
X168258232Y-145622649D01*
X89650259Y-184694826D02*
X89689987Y-184666847D01*
X6691910Y-147867909D02*
X6719138Y-148040260D01*
X58506917Y-67500559D02*
X58503159Y-67502811D01*
X58018960Y-98890851D02*
X58060012Y-98916847D01*
X31499450Y-65529671D02*
X31546861Y-65519025D01*
X50498607Y-31662434D02*
X50394238Y-31522600D01*
X3919074Y-85565087D02*
X4089459Y-85602707D01*
X142633099Y-125523318D02*
X142654946Y-125566721D01*
X24759877Y-125000000D02*
X24808576Y-125001195D01*
X57888855Y-158325362D02*
X57933278Y-158345053D01*
X121945378Y-145438631D02*
X122095867Y-145526944D01*
X123203029Y-150377738D02*
X123105761Y-150522600D01*
X89325362Y-185111144D02*
X89345053Y-185066721D01*
X57392963Y-158254770D02*
X57441423Y-158251195D01*
X122343168Y-145695551D02*
X122382715Y-145725507D01*
X166888129Y-89971652D02*
X166874692Y-89923895D01*
X57509877Y-93750000D02*
X57441423Y-93748804D01*
X50727588Y-91425639D02*
X50642643Y-91334090D01*
X56499440Y-124993082D02*
X56500000Y-124987727D01*
X89390851Y-187018960D02*
X89366900Y-186976681D01*
X49940741Y-90138020D02*
X49888129Y-89971652D01*
X115844737Y-93739281D02*
X115796861Y-93730974D01*
X115000000Y-152259877D02*
X114999942Y-152009809D01*
X141905262Y-7989281D02*
X141857036Y-7995229D01*
X147769025Y-7203138D02*
X147760718Y-7155262D01*
X116833152Y-99189987D02*
X116859148Y-99231039D01*
X148691423Y-7998804D02*
X148642963Y-7995229D01*
X142183278Y-126904946D02*
X142138855Y-126924637D01*
X89689987Y-126833152D02*
X89650259Y-126805173D01*
X58359148Y-93268960D02*
X58333152Y-93310012D01*
X168709325Y-145357929D02*
X168867860Y-145285038D01*
X5053533Y-86001075D02*
X5095867Y-86026944D01*
X166758549Y-29263227D02*
X166774692Y-29089487D01*
X90094737Y-125010718D02*
X90142963Y-125004770D01*
X51867860Y-32714961D02*
X51754024Y-32663596D01*
X148039966Y-184789966D02*
X148075158Y-184756460D01*
X58500559Y-25993082D02*
X58505125Y-25998646D01*
X12272Y-33000000D02*
X4296Y-33001878D01*
X57797380Y-93707368D02*
X57750549Y-93720328D01*
X58060012Y-34083152D02*
X58018960Y-34109148D01*
X5970460Y-31701222D02*
X5890184Y-31796892D01*
X201Y-152008344D02*
X129Y-184491169D01*
X141953138Y-187480974D02*
X141905262Y-187489281D01*
X50981638Y-32164736D02*
X50888000Y-32082100D01*
X51117284Y-91774492D02*
X50981638Y-91664736D01*
X108299474Y-89583232D02*
X108274692Y-89410512D01*
X30890851Y-67018960D02*
X30866900Y-66976681D01*
X89251195Y-186558576D02*
X89250000Y-186509877D01*
X56595053Y-33683278D02*
X56575362Y-33638855D01*
X51598192Y-26414904D02*
X51754024Y-26336403D01*
X56494874Y-144998646D02*
X56499440Y-144993082D01*
X64237770Y-31961154D02*
X64111999Y-32082100D01*
X148452619Y-125042631D02*
X148499450Y-125029671D01*
X166924940Y-87909008D02*
X166983455Y-87744623D01*
X115400259Y-34055173D02*
X115361952Y-34025278D01*
X30825362Y-7388855D02*
X30807874Y-7343519D01*
X116989281Y-40094737D02*
X116995229Y-40142963D01*
X24808576Y-5001195D02*
X24857036Y-5004770D01*
X168709325Y-85857929D02*
X168867860Y-85785038D01*
X167070495Y-90461861D02*
X167001580Y-90301558D01*
X62805164Y-145163398D02*
X62970168Y-145220141D01*
X142000549Y-7970328D02*
X141953138Y-7980974D01*
X89325362Y-186888855D02*
X89307874Y-186843519D01*
X6516544Y-28244623D02*
X6559258Y-28361979D01*
X56825158Y-39506460D02*
X56861952Y-39474721D01*
X50124682Y-31074380D02*
X50050091Y-30916639D01*
X142047380Y-187457368D02*
X142000549Y-187470328D01*
X57156480Y-98807874D02*
X57202619Y-98792631D01*
X173487727Y-152000000D02*
X170262404Y-152000000D01*
X117002170Y-92503902D02*
X117000057Y-92509809D01*
X58359148Y-33768960D02*
X58333152Y-33810012D01*
X56756460Y-99075158D02*
X56789966Y-99039966D01*
X57392963Y-39254770D02*
X57441423Y-39251195D01*
X58442125Y-33593519D02*
X58424637Y-33638855D01*
X56496097Y-92502170D02*
X56487972Y-92500003D01*
X167762229Y-31961154D02*
X167642643Y-31834090D01*
X115075362Y-39861144D02*
X115095053Y-39816721D01*
X117000559Y-127006917D02*
X117000000Y-127012272D01*
X64605761Y-31522600D02*
X64501392Y-31662434D01*
X142609148Y-187018960D02*
X142583152Y-187060012D01*
X114997829Y-33003902D02*
X114992612Y-33000416D01*
X142745229Y-185392963D02*
X142748804Y-185441423D01*
X50981638Y-86335263D02*
X51117284Y-86225507D01*
X115042631Y-33547380D02*
X115029671Y-33500549D01*
X30792631Y-125702619D02*
X30807874Y-125656480D01*
X83308576Y-67498804D02*
X83259877Y-67500000D01*
X31075158Y-187243539D02*
X31039966Y-187210033D01*
X52410540Y-151897292D02*
X52242243Y-151851225D01*
X65075059Y-149590991D02*
X65016544Y-149755376D01*
X115166847Y-39689987D02*
X115194826Y-39650259D01*
X111080925Y-85565087D02*
X111252973Y-85536006D01*
X50423199Y-86937117D02*
X50529539Y-86798777D01*
X52076451Y-85703172D02*
X52242243Y-85648774D01*
X148316721Y-67404946D02*
X148273318Y-67383099D01*
X147760718Y-7155262D02*
X147754770Y-7107036D01*
X64792956Y-87271791D02*
X64852684Y-87381470D01*
X115019025Y-92953138D02*
X115010718Y-92905262D01*
X30916847Y-67060012D02*
X30890851Y-67018960D01*
X6001392Y-27337565D02*
X6105761Y-27477399D01*
X30751195Y-125941423D02*
X30754770Y-125892963D01*
X31691423Y-184501195D02*
X31740122Y-184500000D01*
X116904946Y-158816721D02*
X116924637Y-158861144D01*
X25583152Y-67060012D02*
X25555173Y-67099740D01*
X167231849Y-150271173D02*
X167147315Y-150118529D01*
X5518361Y-145835263D02*
X5648367Y-145951644D01*
X6625307Y-88076104D02*
X6656124Y-88197130D01*
X115256460Y-99075158D02*
X115289966Y-99039966D01*
X83638855Y-125075362D02*
X83683278Y-125095053D01*
X56504770Y-99642963D02*
X56510718Y-99594737D01*
X58442125Y-99406480D02*
X58457368Y-99452619D01*
X142047380Y-184542631D02*
X142093519Y-184557874D01*
X120399654Y-32996267D02*
X120237595Y-33000000D01*
X50851632Y-145951644D02*
X50888000Y-145917899D01*
X57441423Y-98751195D02*
X57509877Y-98750000D01*
X83683278Y-5095053D02*
X83726681Y-5116900D01*
X56499440Y-144993082D02*
X56500000Y-127012272D01*
X52580925Y-151934912D02*
X52410540Y-151897292D01*
X89325362Y-66111144D02*
X89345053Y-66066721D01*
X115439987Y-158416847D02*
X115481039Y-158390851D01*
X31006460Y-126674841D02*
X30974721Y-126638047D01*
X56861952Y-93525278D02*
X56825158Y-93493539D01*
X89260718Y-186655262D02*
X89254770Y-186607036D01*
X120237595Y-26000000D02*
X120399654Y-26003732D01*
X83810012Y-126833152D02*
X83768960Y-126859148D01*
X58138047Y-34025278D02*
X58099740Y-34055173D01*
X89269025Y-66296861D02*
X89279671Y-66249450D01*
X6352684Y-31118529D02*
X6292956Y-31228208D01*
X5611999Y-86417899D02*
X5648367Y-86451644D01*
X115019025Y-152453138D02*
X115010718Y-152405262D01*
X108440741Y-90138020D02*
X108388129Y-89971652D01*
X168446466Y-26501075D02*
X168554621Y-26438631D01*
X123001392Y-27337565D02*
X123105761Y-27477399D01*
X117012272Y-127000000D02*
X117006917Y-127000559D01*
X25720328Y-5749450D02*
X25730974Y-5796861D01*
X147760718Y-186655262D02*
X147754770Y-186607036D01*
X142000549Y-187470328D02*
X141953138Y-187480974D01*
X168554621Y-151561368D02*
X168404132Y-151473055D01*
X141759877Y-8000000D02*
X117012272Y-8000000D01*
X31039966Y-187210033D02*
X31006460Y-187174841D01*
X58305173Y-93349740D02*
X58275278Y-93388047D01*
X49808089Y-149132090D02*
X49780861Y-148959739D01*
X56724721Y-33888047D02*
X56694826Y-33849740D01*
X4470168Y-92279858D02*
X4305164Y-92336601D01*
X5343168Y-145695551D02*
X5382715Y-145725507D01*
X30890851Y-65981039D02*
X30916847Y-65939987D01*
X65111870Y-30471652D02*
X65059258Y-30638020D01*
X142654946Y-66933278D02*
X142633099Y-66976681D01*
X169194835Y-85663398D02*
X169362462Y-85614950D01*
X58305173Y-152849740D02*
X58275278Y-152888047D01*
X141857036Y-7995229D02*
X141808576Y-7998804D01*
X120399654Y-145003732D02*
X120573743Y-145015537D01*
X121745975Y-32663596D02*
X121586423Y-32734232D01*
X64929504Y-147038138D02*
X64949908Y-147083360D01*
X89345053Y-186933278D02*
X89325362Y-186888855D01*
X6575059Y-28409008D02*
X6625307Y-28576104D01*
X169703915Y-85543400D02*
X169752973Y-85536006D01*
X115289966Y-99039966D02*
X115325158Y-99006460D01*
X83960033Y-125289966D02*
X83993539Y-125325158D01*
X168598192Y-32585095D02*
X168446466Y-32498924D01*
X110098192Y-145414904D02*
X110254024Y-145336403D01*
X123176112Y-31419413D02*
X123105761Y-31522600D01*
X3573743Y-32984462D02*
X3399654Y-32996267D01*
X56493082Y-67500559D02*
X56487727Y-67500000D01*
X31452619Y-125042631D02*
X31499450Y-125029671D01*
X5125Y-65498646D02*
X12272Y-65500000D01*
X109617284Y-32274492D02*
X109481638Y-32164736D01*
X6076800Y-31562882D02*
X5970460Y-31701222D01*
X115166847Y-99189987D02*
X115194826Y-99150259D01*
X167124682Y-90574380D02*
X167070495Y-90461861D01*
X56497188Y-124996840D02*
X56499440Y-124993082D01*
X31642963Y-67495229D02*
X31594737Y-67489281D01*
X31406480Y-5057874D02*
X31452619Y-5042631D01*
X64576800Y-150562882D02*
X64501392Y-150662434D01*
X84025278Y-126638047D02*
X83993539Y-126674841D01*
X57750549Y-158279671D02*
X57797380Y-158292631D01*
X167498607Y-150662434D02*
X167394238Y-150522600D01*
X65156124Y-28697130D02*
X65167164Y-28745498D01*
X83638855Y-184575362D02*
X83683278Y-184595053D01*
X63132139Y-32714961D02*
X62970168Y-32779858D01*
X50529539Y-91201222D02*
X50498607Y-91162434D01*
X53262404Y-145000000D02*
X56487727Y-145000000D01*
X5611999Y-91582100D02*
X5518361Y-91664736D01*
X116957368Y-99452619D02*
X116970328Y-99499450D01*
X56493082Y-124999440D02*
X56497188Y-124996840D01*
X141759877Y-67500000D02*
X117012272Y-67500000D01*
X57655262Y-39260718D02*
X57703138Y-39269025D01*
X58383099Y-39773318D02*
X58404946Y-39816721D01*
X108731849Y-146728826D02*
X108823887Y-146580586D01*
X57296861Y-93730974D02*
X57249450Y-93720328D01*
X83768960Y-125140851D02*
X83810012Y-125166847D01*
X58275278Y-93388047D02*
X58243539Y-93424841D01*
X147760718Y-66344737D02*
X147769025Y-66296861D01*
X116674841Y-93493539D02*
X116638047Y-93525278D01*
X64605761Y-91022600D02*
X64501392Y-91162434D01*
X56861952Y-98974721D02*
X56900259Y-98944826D01*
X89611952Y-7775278D02*
X89575158Y-7743539D01*
X5611999Y-151082100D02*
X5480356Y-151196626D01*
X31189987Y-5166847D02*
X31231039Y-5140851D01*
X117000000Y-159240122D02*
X117000000Y-184487727D01*
X62757756Y-151851225D02*
X62589459Y-151897292D01*
X6559258Y-87861979D02*
X6611870Y-88028347D01*
X6741450Y-29736772D02*
X6737742Y-29786245D01*
X123748912Y-29437556D02*
X123747675Y-29612040D01*
X116058576Y-39251195D02*
X116107036Y-39254770D01*
X83405262Y-7989281D02*
X83357036Y-7995229D01*
X31316721Y-126904946D02*
X31273318Y-126883099D01*
X6667164Y-28745498D02*
X6691910Y-28867909D01*
X58500000Y-92759877D02*
X58498804Y-92808576D01*
X84248804Y-66441423D02*
X84250000Y-66509877D01*
X89279671Y-66750549D02*
X89269025Y-66703138D01*
X62970168Y-145220141D02*
X63132139Y-145285038D01*
X65016544Y-149755376D02*
X64949908Y-149916639D01*
X147779671Y-186750549D02*
X147769025Y-186703138D01*
X7387Y-4999583D02*
X24759877Y-5000000D01*
X89999450Y-126970328D02*
X89952619Y-126957368D01*
X147825362Y-66111144D02*
X147845053Y-66066721D01*
X167498607Y-86837565D02*
X167609815Y-86703107D01*
X89366900Y-66976681D02*
X89345053Y-66933278D01*
X5737770Y-27038845D02*
X5857356Y-27165909D01*
X120573743Y-85515537D02*
X120747026Y-85536006D01*
X123076800Y-146437117D02*
X123176112Y-146580586D01*
X31546861Y-125019025D02*
X31594737Y-125010718D01*
X116970328Y-93000549D02*
X116957368Y-93047380D01*
X30916847Y-5439987D02*
X30944826Y-5400259D01*
X6748912Y-29437556D02*
X6748912Y-29562443D01*
X83960033Y-67210033D02*
X83924841Y-67243539D01*
X142268960Y-126859148D02*
X142226681Y-126883099D01*
X84220328Y-126250549D02*
X84207368Y-126297380D01*
X84220328Y-66750549D02*
X84207368Y-66797380D01*
X148546861Y-184519025D02*
X148594737Y-184510718D01*
X121586423Y-85765767D02*
X121745975Y-85836403D01*
X30890851Y-187018960D02*
X30866900Y-186976681D01*
X84220328Y-186750549D02*
X84207368Y-186797380D01*
X89861144Y-5075362D02*
X89906480Y-5057874D01*
X116998804Y-33308576D02*
X116995229Y-33357036D01*
X6292956Y-150228208D02*
X6203029Y-150377738D01*
X64148367Y-145951644D02*
X64272411Y-146074360D01*
X115439987Y-34083152D02*
X115400259Y-34055173D01*
X84207368Y-186797380D02*
X84192125Y-186843519D01*
X6725307Y-88589487D02*
X6741450Y-88763227D01*
X116833152Y-158689987D02*
X116859148Y-158731039D01*
X115844737Y-39260718D02*
X115892963Y-39254770D01*
X123001392Y-31662434D02*
X122890184Y-31796892D01*
X56499440Y-25993082D02*
X56499942Y-8009809D01*
X123667164Y-147745498D02*
X123700525Y-147916767D01*
X116998804Y-40191423D02*
X117000000Y-40240122D01*
X84055173Y-7599740D02*
X84025278Y-7638047D01*
X142730974Y-186703138D02*
X142720328Y-186750549D01*
X116433278Y-98845053D02*
X116476681Y-98866900D01*
X49874692Y-28576104D02*
X49924940Y-28409008D01*
X147866900Y-126476681D02*
X147845053Y-126433278D01*
X117000000Y-99740122D02*
X117000000Y-124987727D01*
X116833152Y-152810012D02*
X116805173Y-152849740D01*
X114987727Y-85500000D02*
X114994874Y-85498646D01*
X148452619Y-65542631D02*
X148499450Y-65529671D01*
X5648367Y-145951644D02*
X5737770Y-146038845D01*
X169362462Y-26114950D02*
X169410540Y-26102707D01*
X123747675Y-88887959D02*
X123748912Y-88937556D01*
X142609148Y-67018960D02*
X142583152Y-67060012D01*
X50070495Y-28038138D02*
X50124682Y-27925619D01*
X56724721Y-39611952D02*
X56756460Y-39575158D01*
X168554621Y-26438631D02*
X168709325Y-26357929D01*
X108823887Y-146580586D02*
X108923199Y-146437117D01*
X83810012Y-67333152D02*
X83768960Y-67359148D01*
X142000549Y-65529671D02*
X142047380Y-65542631D01*
X50394238Y-150522600D02*
X50296970Y-150377738D01*
X142460033Y-7710033D02*
X142424841Y-7743539D01*
X169926256Y-145015537D02*
X170100345Y-145003732D01*
X84192125Y-186843519D02*
X84174637Y-186888855D01*
X57202619Y-98792631D02*
X57249450Y-98779671D01*
X3399654Y-145003732D02*
X3573743Y-145015537D01*
X57843519Y-158307874D02*
X57888855Y-158325362D01*
X25047380Y-67457368D02*
X25000549Y-67470328D01*
X49780861Y-89459739D02*
X49774692Y-89410512D01*
X169076451Y-92296827D02*
X168913576Y-92234232D01*
X57655262Y-34239281D02*
X57607036Y-34245229D01*
X58470328Y-158999450D02*
X58480974Y-159046861D01*
X173499440Y-85493082D02*
X173499702Y-67507863D01*
X58500000Y-152259877D02*
X58498804Y-152308576D01*
X84055173Y-67099740D02*
X84025278Y-67138047D01*
X168258232Y-32377350D02*
X168117284Y-32274492D01*
X50231849Y-146728826D02*
X50296970Y-146622261D01*
X142493539Y-126674841D02*
X142460033Y-126710033D01*
X89506460Y-126674841D02*
X89474721Y-126638047D01*
X173487727Y-127000000D02*
X148740122Y-127000000D01*
X25138855Y-187424637D02*
X25093519Y-187442125D01*
X24857036Y-126995229D02*
X24808576Y-126998804D01*
X89325362Y-66888855D02*
X89307874Y-66843519D01*
X142739281Y-185344737D02*
X142745229Y-185392963D01*
X83259877Y-65500000D02*
X83308576Y-65501195D01*
X31452619Y-126957368D02*
X31406480Y-126942125D01*
X115116900Y-93226681D02*
X115095053Y-93183278D01*
X56756460Y-152924841D02*
X56724721Y-152888047D01*
X6203029Y-150377738D02*
X6105761Y-150522600D01*
X65200525Y-28916767D02*
X65225307Y-29089487D01*
X51117284Y-151274492D02*
X50981638Y-151164736D01*
X115042631Y-158952619D02*
X115057874Y-158906480D01*
X117000000Y-127012272D02*
X117000559Y-144993082D01*
X57750549Y-93720328D02*
X57703138Y-93730974D01*
X31499450Y-5029671D02*
X31546861Y-5019025D01*
X121089459Y-151897292D02*
X120919074Y-151934912D01*
X114992612Y-92500416D02*
X111762404Y-92500000D01*
X108343875Y-149302869D02*
X108332835Y-149254501D01*
X30750000Y-185490122D02*
X30751195Y-185441423D01*
X116433278Y-153154946D02*
X116388855Y-153174637D01*
X147769025Y-66703138D02*
X147760718Y-66655262D01*
X148111952Y-67275278D02*
X148075158Y-67243539D01*
X89325362Y-7388855D02*
X89307874Y-7343519D01*
X142583152Y-126560012D02*
X142555173Y-126599740D01*
X108894238Y-150522600D02*
X108796970Y-150377738D01*
X64929504Y-149961861D02*
X64852684Y-150118529D01*
X6429504Y-149961861D02*
X6352684Y-150118529D01*
X5558Y-127001122D02*
X912Y-127006002D01*
X115010718Y-92905262D02*
X115004770Y-92857036D01*
X116560012Y-34083152D02*
X116518960Y-34109148D01*
X52410540Y-145102707D02*
X52580925Y-145065087D01*
X123375317Y-27925619D02*
X123449908Y-28083360D01*
X115611144Y-34174637D02*
X115566721Y-34154946D01*
X147769025Y-5796861D02*
X147779671Y-5749450D01*
X6741450Y-148736772D02*
X6737742Y-148786245D01*
X110529831Y-92279858D02*
X110367860Y-92214961D01*
X115481039Y-153109148D02*
X115439987Y-153083152D01*
X83993539Y-125325158D02*
X84025278Y-125361952D01*
X173499087Y-124993997D02*
X173499798Y-92508344D01*
X117002811Y-127003159D02*
X117000559Y-127006917D01*
X115400259Y-158444826D02*
X115439987Y-158416847D01*
X147751195Y-66558576D02*
X147750000Y-66490122D01*
X116883099Y-158773318D02*
X116904946Y-158816721D01*
X142633099Y-5523318D02*
X142654946Y-5566721D01*
X6176112Y-90919413D02*
X6076800Y-91062882D01*
X65167164Y-89754501D02*
X65125307Y-89923895D01*
X57296861Y-39269025D02*
X57344737Y-39260718D01*
X89250000Y-66509877D02*
X89251195Y-66441423D01*
X122382715Y-26725507D02*
X122480356Y-26803373D01*
X111762404Y-92500000D02*
X111600345Y-92496267D01*
X30750000Y-186509877D02*
X30750000Y-185490122D01*
X115019025Y-159046861D02*
X115029671Y-158999450D01*
X89611952Y-65724721D02*
X89650259Y-65694826D01*
X25349740Y-67305173D02*
X25310012Y-67333152D01*
X89773318Y-126883099D02*
X89731039Y-126859148D01*
X148231039Y-65640851D02*
X148273318Y-65616900D01*
X52580925Y-32934912D02*
X52532296Y-32925082D01*
X111600345Y-26003732D02*
X111762404Y-26000000D01*
X142633099Y-66023318D02*
X142654946Y-66066721D01*
X142268960Y-7859148D02*
X142226681Y-7883099D01*
X109656831Y-86195551D02*
X109799223Y-86094701D01*
X62757756Y-92351225D02*
X62637537Y-92385049D01*
X117006917Y-67500559D02*
X117002811Y-67503159D01*
X50529539Y-146298777D02*
X50609815Y-146203107D01*
X84025278Y-67138047D02*
X83993539Y-67174841D01*
X89999450Y-65529671D02*
X90046861Y-65519025D01*
X83888047Y-5224721D02*
X83924841Y-5256460D01*
X53100345Y-85503732D02*
X53262404Y-85500000D01*
X30890851Y-5481039D02*
X30916847Y-5439987D01*
X115029671Y-39999450D02*
X115042631Y-39952619D01*
X57392963Y-93745229D02*
X57344737Y-93739281D01*
X168598192Y-85914904D02*
X168709325Y-85857929D01*
X84055173Y-126599740D02*
X84025278Y-126638047D01*
X3967703Y-32925082D02*
X3796084Y-32956599D01*
X141808576Y-67498804D02*
X141759877Y-67500000D01*
X148189987Y-5166847D02*
X148231039Y-5140851D01*
X25674637Y-66888855D02*
X25654946Y-66933278D01*
X110862462Y-151885049D02*
X110694835Y-151836601D01*
X114999942Y-33009809D02*
X114997829Y-33003902D01*
X115057874Y-93093519D02*
X115042631Y-93047380D01*
X58512272Y-8000000D02*
X58506917Y-8000559D01*
X25525278Y-5361952D02*
X25555173Y-5400259D01*
X25745229Y-125892963D02*
X25748804Y-125941423D01*
X168258232Y-91877350D02*
X168156831Y-91804448D01*
X57296861Y-98769025D02*
X57344737Y-98760718D01*
X57703138Y-98769025D02*
X57750549Y-98779671D01*
X31546861Y-5019025D02*
X31594737Y-5010718D01*
X109799223Y-151405298D02*
X109758232Y-151377350D01*
X142730974Y-66703138D02*
X142720328Y-66750549D01*
X5737770Y-146038845D02*
X5857356Y-146165909D01*
X89366900Y-126476681D02*
X89345053Y-126433278D01*
X115166847Y-158689987D02*
X115194826Y-158650259D01*
X167423199Y-146437117D02*
X167498607Y-146337565D01*
X115001195Y-40191423D02*
X115004770Y-40142963D01*
X89999450Y-125029671D02*
X90046861Y-125019025D01*
X147754770Y-5892963D02*
X147760718Y-5844737D01*
X25555173Y-7599740D02*
X25525278Y-7638047D01*
X5382715Y-91774492D02*
X5241767Y-91877350D01*
X25047380Y-7957368D02*
X25000549Y-7970328D01*
X51446466Y-91998924D02*
X51404132Y-91973055D01*
X122518361Y-91664736D02*
X122382715Y-91774492D01*
X6001392Y-150662434D02*
X5970460Y-150701222D01*
X64605761Y-146477399D02*
X64676112Y-146580586D01*
X31406480Y-65557874D02*
X31452619Y-65542631D01*
X4296Y-33001878D02*
X201Y-33008344D01*
X6001392Y-86837565D02*
X6076800Y-86937117D01*
X56939987Y-34083152D02*
X56900259Y-34055173D01*
X166940741Y-30638020D02*
X166924940Y-30590991D01*
X25388047Y-7775278D02*
X25349740Y-7805173D01*
X148546861Y-187480974D02*
X148499450Y-187470328D01*
X122200776Y-145594701D02*
X122343168Y-145695551D01*
X6352684Y-150118529D02*
X6292956Y-150228208D01*
X5095867Y-145526944D02*
X5241767Y-145622649D01*
X89906480Y-125057874D02*
X89952619Y-125042631D01*
X142525278Y-126638047D02*
X142493539Y-126674841D01*
X141953138Y-67480974D02*
X141905262Y-67489281D01*
X64768150Y-31271173D02*
X64703029Y-31377738D01*
X25424841Y-126743539D02*
X25388047Y-126775278D01*
X4137537Y-92385049D02*
X3967703Y-92425082D01*
X0Y-4987727D02*
X1605Y-4995295D01*
X63445378Y-92061368D02*
X63290674Y-92142070D01*
X25739281Y-7155262D02*
X25730974Y-7203138D01*
X30825362Y-5611144D02*
X30845053Y-5566721D01*
X123725307Y-88589487D02*
X123741450Y-88763227D01*
X58502811Y-8003159D02*
X58500559Y-8006917D01*
X63741767Y-26622649D02*
X63843168Y-26695551D01*
X52580925Y-26065087D02*
X52752973Y-26036006D01*
X111252973Y-145036006D02*
X111426256Y-145015537D01*
X117005125Y-144998646D02*
X117012272Y-145000000D01*
X89689987Y-7833152D02*
X89650259Y-7805173D01*
X142226681Y-67383099D02*
X142183278Y-67404946D01*
X89416847Y-125439987D02*
X89444826Y-125400259D01*
X148075158Y-187243539D02*
X148039966Y-187210033D01*
X123268150Y-150271173D02*
X123203029Y-150377738D01*
X117000000Y-65487727D02*
X117000559Y-65493082D01*
X116970328Y-99499450D02*
X116980974Y-99546861D01*
X114999440Y-67506917D02*
X114997188Y-67503159D01*
X57933278Y-93654946D02*
X57888855Y-93674637D01*
X65016544Y-87744623D02*
X65059258Y-87861979D01*
X64501392Y-31662434D02*
X64390184Y-31796892D01*
X148189987Y-126833152D02*
X148150259Y-126805173D01*
X84230974Y-126203138D02*
X84220328Y-126250549D01*
X83500549Y-7970328D02*
X83453138Y-7980974D01*
X50231849Y-150271173D02*
X50147315Y-150118529D01*
X58174841Y-99006460D02*
X58210033Y-99039966D01*
X31406480Y-184557874D02*
X31452619Y-184542631D01*
X116883099Y-93226681D02*
X116859148Y-93268960D01*
X147792631Y-185202619D02*
X147807874Y-185156480D01*
X148039966Y-7710033D02*
X148006460Y-7674841D01*
X142268960Y-184640851D02*
X142310012Y-184666847D01*
X25226681Y-67383099D02*
X25183278Y-67404946D01*
X58495229Y-159142963D02*
X58498804Y-159191423D01*
X65237742Y-148786245D02*
X65225307Y-148910512D01*
X83849740Y-7805173D02*
X83810012Y-7833152D01*
X148691423Y-125001195D02*
X148740122Y-125000000D01*
X142310012Y-67333152D02*
X142268960Y-67359148D01*
X116805173Y-39650259D02*
X116833152Y-39689987D01*
X142633099Y-185023318D02*
X142654946Y-185066721D01*
X142745229Y-126107036D02*
X142739281Y-126155262D01*
X115000000Y-99740122D02*
X115001195Y-99691423D01*
X90240122Y-127000000D02*
X90191423Y-126998804D01*
X89269025Y-66703138D02*
X89260718Y-66655262D01*
X50147315Y-150118529D02*
X50124682Y-150074380D01*
X89251195Y-185441423D02*
X89254770Y-185392963D01*
X57249450Y-39279671D02*
X57296861Y-39269025D01*
X89307874Y-185156480D02*
X89325362Y-185111144D01*
X89390851Y-125481039D02*
X89416847Y-125439987D01*
X173487727Y-67500000D02*
X148740122Y-67500000D01*
X57344737Y-98760718D02*
X57392963Y-98754770D01*
X115029671Y-93000549D02*
X115019025Y-92953138D01*
X117000559Y-184493082D02*
X117002811Y-184496840D01*
X122200776Y-32405298D02*
X122053533Y-32498924D01*
X83768960Y-126859148D02*
X83726681Y-126883099D01*
X57607036Y-34245229D02*
X57558576Y-34248804D01*
X108332835Y-30254501D02*
X108299474Y-30083232D01*
X89650259Y-187305173D02*
X89611952Y-187275278D01*
X50147315Y-87381470D02*
X50207043Y-87271791D01*
X56542631Y-93047380D02*
X56529671Y-93000549D01*
X5737770Y-86538845D02*
X5857356Y-86665909D01*
X25748804Y-7058576D02*
X25745229Y-7107036D01*
X4790674Y-151642070D02*
X4632139Y-151714961D01*
X65156124Y-149302869D02*
X65111870Y-149471652D01*
X65167164Y-28745498D02*
X65200525Y-28916767D01*
X142583152Y-125439987D02*
X142609148Y-125481039D01*
X12272Y-145000000D02*
X3237595Y-145000000D01*
X84133099Y-7476681D02*
X84109148Y-7518960D01*
X148006460Y-126674841D02*
X147974721Y-126638047D01*
X147769025Y-186703138D02*
X147760718Y-186655262D01*
X115523318Y-158366900D02*
X115566721Y-158345053D01*
X121089459Y-26102707D02*
X121257756Y-26148774D01*
X83849740Y-65694826D02*
X83888047Y-65724721D01*
X142748804Y-186558576D02*
X142745229Y-186607036D01*
X84248804Y-5941423D02*
X84250000Y-5990122D01*
X89250000Y-185490122D02*
X89251195Y-185441423D01*
X58138047Y-98974721D02*
X58174841Y-99006460D01*
X110254024Y-151663596D02*
X110098192Y-151585095D01*
X63132139Y-85785038D02*
X63290674Y-85857929D01*
X148406480Y-67442125D02*
X148361144Y-67424637D01*
X142730974Y-125796861D02*
X142739281Y-125844737D01*
X25349740Y-125194826D02*
X25388047Y-125224721D01*
X108998607Y-146337565D02*
X109029539Y-146298777D01*
X52242243Y-26148774D02*
X52410540Y-26102707D01*
X65075059Y-28409008D02*
X65125307Y-28576104D01*
X167296970Y-150377738D02*
X167231849Y-150271173D01*
X31594737Y-126989281D02*
X31546861Y-126980974D01*
X58174841Y-33993539D02*
X58138047Y-34025278D01*
X166751087Y-88937556D02*
X166758549Y-88763227D01*
X57933278Y-98845053D02*
X57976681Y-98866900D01*
X123575059Y-147409008D02*
X123625307Y-147576104D01*
X147779671Y-126250549D02*
X147769025Y-126203138D01*
X115000000Y-65487727D02*
X115000000Y-40240122D01*
X30751195Y-66441423D02*
X30754770Y-66392963D01*
X122241767Y-32377350D02*
X122200776Y-32405298D01*
X116107036Y-98754770D02*
X116155262Y-98760718D01*
X110367860Y-32714961D02*
X110254024Y-32663596D01*
X25583152Y-7560012D02*
X25555173Y-7599740D01*
X89816721Y-67404946D02*
X89773318Y-67383099D01*
X62757756Y-26148774D02*
X62923548Y-26203172D01*
X110694835Y-32836601D02*
X110529831Y-32779858D01*
X31691423Y-125001195D02*
X31740122Y-125000000D01*
X58500559Y-65493082D02*
X58502811Y-65496840D01*
X121586423Y-26265767D02*
X121745975Y-26336403D01*
X25633099Y-125523318D02*
X25654946Y-125566721D01*
X116995229Y-159142963D02*
X116998804Y-159191423D01*
X58495229Y-92857036D02*
X58489281Y-92905262D01*
X58489281Y-159094737D02*
X58495229Y-159142963D01*
X115010718Y-152405262D02*
X115004770Y-152357036D01*
X115029671Y-33500549D02*
X115019025Y-33453138D01*
X24905262Y-5010718D02*
X24953138Y-5019025D01*
X142555173Y-7599740D02*
X142525278Y-7638047D01*
X121423548Y-85703172D02*
X121586423Y-85765767D01*
X4296Y-92501878D02*
X201Y-92508344D01*
X30754770Y-7107036D02*
X30751195Y-7058576D01*
X122772411Y-150925639D02*
X122737770Y-150961154D01*
X64148367Y-26951644D02*
X64272411Y-27074360D01*
X142047380Y-65542631D02*
X142093519Y-65557874D01*
X83547380Y-126957368D02*
X83500549Y-126970328D01*
X25745229Y-66392963D02*
X25748804Y-66441423D01*
X25093519Y-126942125D02*
X25047380Y-126957368D01*
X173487727Y-65500000D02*
X173494441Y-65498877D01*
X64676112Y-146580586D02*
X64768150Y-146728826D01*
X6516544Y-30755376D02*
X6449908Y-30916639D01*
X122737770Y-91461154D02*
X122611999Y-91582100D01*
X25310012Y-5166847D02*
X25349740Y-5194826D01*
X167070495Y-87538138D02*
X167124682Y-87425619D01*
X56542631Y-158952619D02*
X56557874Y-158906480D01*
X65247675Y-148612040D02*
X65237742Y-148786245D01*
X5053533Y-145501075D02*
X5095867Y-145526944D01*
X116805173Y-33849740D02*
X116775278Y-33888047D01*
X62073743Y-85515537D02*
X62247026Y-85536006D01*
X167981638Y-86335263D02*
X168117284Y-86225507D01*
X58099740Y-39444826D02*
X58138047Y-39474721D01*
X89345053Y-185066721D02*
X89366900Y-185023318D01*
X168117284Y-151274492D02*
X167981638Y-151164736D01*
X115702619Y-93707368D02*
X115656480Y-93692125D01*
X56557874Y-33593519D02*
X56542631Y-33547380D01*
X142692125Y-7343519D02*
X142674637Y-7388855D01*
X90046861Y-5019025D02*
X90094737Y-5010718D01*
X83593519Y-187442125D02*
X83547380Y-187457368D01*
X5558Y-8001122D02*
X912Y-8006002D01*
X24953138Y-67480974D02*
X24905262Y-67489281D01*
X115656480Y-153192125D02*
X115611144Y-153174637D01*
X148594737Y-7989281D02*
X148546861Y-7980974D01*
X25268960Y-126859148D02*
X25226681Y-126883099D01*
X148691423Y-187498804D02*
X148642963Y-187495229D01*
X109617284Y-86225507D02*
X109656831Y-86195551D01*
X109388000Y-32082100D02*
X109262229Y-31961154D01*
X121470168Y-151779858D02*
X121305164Y-151836601D01*
X167070495Y-149961861D02*
X167050091Y-149916639D01*
X110098192Y-151585095D02*
X109946466Y-151498924D01*
X31075158Y-5256460D02*
X31111952Y-5224721D01*
X108923199Y-86937117D02*
X108998607Y-86837565D01*
X57888855Y-39325362D02*
X57933278Y-39345053D01*
X148006460Y-5325158D02*
X148039966Y-5289966D01*
X168299223Y-32405298D02*
X168258232Y-32377350D01*
X57066721Y-98845053D02*
X57111144Y-98825362D01*
X58500057Y-152009809D02*
X58500000Y-152259877D01*
X169194835Y-26163398D02*
X169362462Y-26114950D01*
X6611870Y-88028347D02*
X6625307Y-88076104D01*
X142748804Y-5941423D02*
X142750000Y-5990122D01*
X56501195Y-40191423D02*
X56504770Y-40142963D01*
X4137537Y-32885049D02*
X3967703Y-32925082D01*
X110367860Y-151714961D02*
X110254024Y-151663596D01*
X115611144Y-98825362D02*
X115656480Y-98807874D01*
X63882715Y-145725507D02*
X64018361Y-145835263D01*
X57066721Y-39345053D02*
X57111144Y-39325362D01*
X58210033Y-39539966D02*
X58243539Y-39575158D01*
X147890851Y-126518960D02*
X147866900Y-126476681D01*
X115892963Y-98754770D02*
X115941423Y-98751195D01*
X83810012Y-125166847D02*
X83849740Y-125194826D01*
X12272Y-65500000D02*
X24759877Y-65500000D01*
X50762229Y-31961154D02*
X50727588Y-31925639D01*
X169029831Y-26220141D02*
X169194835Y-26163398D01*
X57202619Y-93707368D02*
X57156480Y-93692125D01*
X89254770Y-7107036D02*
X89251195Y-7058576D01*
X122480356Y-26803373D02*
X122518361Y-26835263D01*
X63553533Y-32498924D02*
X63401807Y-32585095D01*
X62923548Y-26203172D02*
X63086423Y-26265767D01*
X166758549Y-29736772D02*
X166752324Y-29612040D01*
X108731849Y-150271173D02*
X108647315Y-150118529D01*
X31150259Y-65694826D02*
X31189987Y-65666847D01*
X109388000Y-91582100D02*
X109262229Y-91461154D01*
X89474721Y-7638047D02*
X89444826Y-7599740D01*
X25555173Y-5400259D02*
X25583152Y-5439987D01*
X58512272Y-65500000D02*
X83259877Y-65500000D01*
X108483455Y-30755376D02*
X108440741Y-30638020D01*
X64018361Y-32164736D02*
X63882715Y-32274492D01*
X116957368Y-33547380D02*
X116942125Y-33593519D01*
X56557874Y-152593519D02*
X56542631Y-152547380D01*
X116343519Y-39307874D02*
X116388855Y-39325362D01*
X58457368Y-33547380D02*
X58442125Y-33593519D01*
X114997188Y-127003159D02*
X114993082Y-127000559D01*
X25349740Y-184694826D02*
X25388047Y-184724721D01*
X89254770Y-125892963D02*
X89260718Y-125844737D01*
X116998804Y-152308576D02*
X116995229Y-152357036D01*
X116155262Y-39260718D02*
X116203138Y-39269025D01*
X122053533Y-86001075D02*
X122095867Y-86026944D01*
X90191423Y-67498804D02*
X90142963Y-67495229D01*
X109351632Y-26951644D02*
X109388000Y-26917899D01*
X84055173Y-65900259D02*
X84083152Y-65939987D01*
X147890851Y-65981039D02*
X147916847Y-65939987D01*
X83924841Y-5256460D02*
X83960033Y-5289966D01*
X166983455Y-149755376D02*
X166940741Y-149638020D01*
X169752973Y-92463993D02*
X169580925Y-92434912D01*
X123700525Y-88416767D02*
X123725307Y-88589487D01*
X31691423Y-65501195D02*
X31740122Y-65500000D01*
X31150259Y-126805173D02*
X31111952Y-126775278D01*
X89260718Y-125844737D02*
X89269025Y-125796861D01*
X30825362Y-125611144D02*
X30845053Y-125566721D01*
X110367860Y-92214961D02*
X110254024Y-92163596D01*
X148740122Y-125000000D02*
X173487727Y-125000000D01*
X56861952Y-158474721D02*
X56900259Y-158444826D01*
X25654946Y-125566721D02*
X25674637Y-125611144D01*
X148691423Y-65501195D02*
X148740122Y-65500000D01*
X30974721Y-5361952D02*
X31006460Y-5325158D01*
X167609815Y-91296892D02*
X167498607Y-91162434D01*
X117000000Y-33259877D02*
X116998804Y-33308576D01*
X83547380Y-187457368D02*
X83500549Y-187470328D01*
X56981039Y-34109148D02*
X56939987Y-34083152D01*
X141953138Y-184519025D02*
X142000549Y-184529671D01*
X30760718Y-185344737D02*
X30769025Y-185296861D01*
X116009877Y-153250000D02*
X115941423Y-153248804D01*
X116297380Y-158292631D02*
X116343519Y-158307874D01*
X51156831Y-91804448D02*
X51117284Y-91774492D01*
X89366900Y-186976681D02*
X89345053Y-186933278D01*
X148231039Y-7859148D02*
X148189987Y-7833152D01*
X6667164Y-30254501D02*
X6625307Y-30423895D01*
X5241767Y-86122649D02*
X5382715Y-86225507D01*
X121470168Y-92279858D02*
X121305164Y-92336601D01*
X56694826Y-99150259D02*
X56724721Y-99111952D01*
X108374692Y-89923895D02*
X108332835Y-89754501D01*
X123700525Y-147916767D02*
X123719138Y-148040260D01*
X114987727Y-127000000D02*
X90240122Y-127000000D01*
X84192125Y-126343519D02*
X84174637Y-126388855D01*
X148006460Y-125325158D02*
X148039966Y-125289966D01*
X31150259Y-125194826D02*
X31189987Y-125166847D01*
X142424841Y-184756460D02*
X142460033Y-184789966D01*
X148594737Y-5010718D02*
X148642963Y-5004770D01*
X201Y-33008344D02*
X724Y-65493544D01*
X83993539Y-7674841D02*
X83960033Y-7710033D01*
X116638047Y-34025278D02*
X116599740Y-34055173D01*
X89731039Y-184640851D02*
X89773318Y-184616900D01*
X25750000Y-186509877D02*
X25748804Y-186558576D01*
X111032296Y-92425082D02*
X110862462Y-92385049D01*
X166832835Y-147745498D02*
X166843875Y-147697130D01*
X58480974Y-33453138D02*
X58470328Y-33500549D01*
X51598192Y-32585095D02*
X51446466Y-32498924D01*
X3747026Y-26036006D02*
X3919074Y-26065087D01*
X65248912Y-29437556D02*
X65247675Y-29612040D01*
X56981039Y-39390851D02*
X57023318Y-39366900D01*
X25268960Y-5140851D02*
X25310012Y-5166847D01*
X50423199Y-27437117D02*
X50498607Y-27337565D01*
X58442125Y-93093519D02*
X58424637Y-93138855D01*
X63595867Y-26526944D02*
X63741767Y-26622649D01*
X122382715Y-145725507D02*
X122518361Y-145835263D01*
X108624682Y-87425619D02*
X108707043Y-87271791D01*
X30916847Y-7560012D02*
X30890851Y-7518960D01*
X147751195Y-66441423D02*
X147754770Y-66392963D01*
X84174637Y-185111144D02*
X84192125Y-185156480D01*
X64875317Y-27925619D02*
X64929504Y-28038138D01*
X62073743Y-32984462D02*
X61899654Y-32996267D01*
X120399654Y-85503732D02*
X120573743Y-85515537D01*
X110254024Y-145336403D02*
X110413576Y-145265767D01*
X167642643Y-86665909D02*
X167762229Y-86538845D01*
X64792956Y-90728208D02*
X64768150Y-90771173D01*
X6667164Y-149254501D02*
X6656124Y-149302869D01*
X115001195Y-159191423D02*
X115004770Y-159142963D01*
X166940741Y-149638020D02*
X166924940Y-149590991D01*
X56519025Y-152453138D02*
X56510718Y-152405262D01*
X115749450Y-153220328D02*
X115702619Y-153207368D01*
X30974721Y-184861952D02*
X31006460Y-184825158D01*
X169242243Y-32851225D02*
X169076451Y-32796827D01*
X30807874Y-125656480D02*
X30825362Y-125611144D01*
X142388047Y-67275278D02*
X142349740Y-67305173D01*
X64390184Y-150796892D02*
X64272411Y-150925639D01*
X168709325Y-26357929D02*
X168867860Y-26285038D01*
X109262229Y-31961154D02*
X109227588Y-31925639D01*
X169242243Y-92351225D02*
X169076451Y-92296827D01*
X50727588Y-31925639D02*
X50609815Y-31796892D01*
X6449908Y-28083360D02*
X6516544Y-28244623D01*
X62637537Y-145114950D02*
X62805164Y-145163398D01*
X169752973Y-145036006D02*
X169926256Y-145015537D01*
X121257756Y-26148774D02*
X121423548Y-26203172D01*
X12272Y-8000000D02*
X5558Y-8001122D01*
X49780861Y-88540260D02*
X49808089Y-88367909D01*
X108251087Y-88937556D02*
X108252324Y-88887959D01*
X173494874Y-25998646D02*
X173499440Y-25993082D01*
X116710033Y-99039966D02*
X116743539Y-99075158D01*
X61899654Y-151996267D02*
X61737595Y-152000000D01*
X57344737Y-39260718D02*
X57392963Y-39254770D01*
X116805173Y-99150259D02*
X116833152Y-99189987D01*
X142692125Y-125656480D02*
X142707368Y-125702619D01*
X148039966Y-65789966D02*
X148075158Y-65756460D01*
X58174841Y-158506460D02*
X58210033Y-158539966D01*
X167231849Y-27728826D02*
X167296970Y-27622261D01*
X58424637Y-152638855D02*
X58404946Y-152683278D01*
X5200776Y-91905298D02*
X5053533Y-91998924D01*
X116058576Y-158251195D02*
X116107036Y-158254770D01*
X49940741Y-30638020D02*
X49888129Y-30471652D01*
X64390184Y-86703107D02*
X64470460Y-86798777D01*
X25000549Y-187470328D02*
X24953138Y-187480974D01*
X56575362Y-152638855D02*
X56557874Y-152593519D01*
X167423199Y-86937117D02*
X167498607Y-86837565D01*
X56789966Y-99039966D02*
X56825158Y-99006460D01*
X25093519Y-5057874D02*
X25138855Y-5075362D01*
X24953138Y-187480974D02*
X24905262Y-187489281D01*
X6516544Y-149755376D02*
X6449908Y-149916639D01*
X147792631Y-5702619D02*
X147807874Y-5656480D01*
X56724721Y-158611952D02*
X56756460Y-158575158D01*
X115796861Y-98769025D02*
X115844737Y-98760718D01*
X116995229Y-40142963D02*
X116998804Y-40191423D01*
X168867860Y-26285038D02*
X169029831Y-26220141D01*
X56499942Y-152009809D02*
X56496097Y-152002170D01*
X123375317Y-87425619D02*
X123429504Y-87538138D01*
X25268960Y-67359148D02*
X25226681Y-67383099D01*
X83768960Y-184640851D02*
X83810012Y-184666847D01*
X5558Y-67501122D02*
X912Y-67506002D01*
X64949908Y-87583360D02*
X65016544Y-87744623D01*
X57023318Y-98866900D02*
X57066721Y-98845053D01*
X84245229Y-66392963D02*
X84248804Y-66441423D01*
X58512272Y-26000000D02*
X61737595Y-26000000D01*
X25739281Y-5844737D02*
X25745229Y-5892963D01*
X90046861Y-187480974D02*
X89999450Y-187470328D01*
X5648367Y-86451644D02*
X5737770Y-86538845D01*
X115656480Y-93692125D02*
X115611144Y-93674637D01*
X109227588Y-146074360D02*
X109351632Y-145951644D01*
X57703138Y-158269025D02*
X57750549Y-158279671D01*
X56575362Y-99361144D02*
X56595053Y-99316721D01*
X116599740Y-158444826D02*
X116638047Y-158474721D01*
X25748804Y-185441423D02*
X25750000Y-185490122D01*
X25183278Y-67404946D02*
X25138855Y-67424637D01*
X25583152Y-5439987D02*
X25609148Y-5481039D01*
X57888855Y-93674637D02*
X57843519Y-93692125D01*
X31546861Y-67480974D02*
X31499450Y-67470328D01*
X56666847Y-158689987D02*
X56694826Y-158650259D01*
X5241767Y-91877350D02*
X5200776Y-91905298D01*
X89952619Y-126957368D02*
X89906480Y-126942125D01*
X56616900Y-39773318D02*
X56640851Y-39731039D01*
X62589459Y-85602707D02*
X62757756Y-85648774D01*
X115749450Y-93720328D02*
X115702619Y-93707368D01*
X63086423Y-26265767D02*
X63245975Y-26336403D01*
X142138855Y-67424637D02*
X142093519Y-67442125D01*
X58500000Y-33259877D02*
X58498804Y-33308576D01*
X30792631Y-126297380D02*
X30779671Y-126250549D01*
X148740122Y-184500000D02*
X173487727Y-184500000D01*
X148111952Y-126775278D02*
X148075158Y-126743539D01*
X56500000Y-67512272D02*
X56499440Y-67506917D01*
X90094737Y-67489281D02*
X90046861Y-67480974D01*
X56519025Y-92953138D02*
X56510718Y-92905262D01*
X6352684Y-27881470D02*
X6429504Y-28038138D01*
X89611952Y-184724721D02*
X89650259Y-184694826D01*
X25183278Y-125095053D02*
X25226681Y-125116900D01*
X142707368Y-125702619D02*
X142720328Y-125749450D01*
X89279671Y-186750549D02*
X89269025Y-186703138D01*
X84245229Y-66607036D02*
X84239281Y-66655262D01*
X56900259Y-153055173D02*
X56861952Y-153025278D01*
X148406480Y-187442125D02*
X148361144Y-187424637D01*
X83924841Y-67243539D02*
X83888047Y-67275278D01*
X65191910Y-88367909D02*
X65219138Y-88540260D01*
X49762257Y-89286245D02*
X49752324Y-89112040D01*
X57750549Y-39279671D02*
X57797380Y-39292631D01*
X56487972Y-152000003D02*
X53262404Y-152000000D01*
X57843519Y-34192125D02*
X57797380Y-34207368D01*
X167207043Y-87271791D02*
X167296970Y-87122261D01*
X89539966Y-184789966D02*
X89575158Y-184756460D01*
X3967703Y-92425082D02*
X3796084Y-92456599D01*
X147845053Y-66933278D02*
X147825362Y-66888855D01*
X49940741Y-147361979D02*
X49983455Y-147244623D01*
X117002170Y-33003902D02*
X117000057Y-33009809D01*
X142748804Y-185441423D02*
X142750000Y-185490122D01*
X57296861Y-153230974D02*
X57249450Y-153220328D01*
X115702619Y-158292631D02*
X115749450Y-158279671D01*
X56666847Y-39689987D02*
X56694826Y-39650259D01*
X84154946Y-185066721D02*
X84174637Y-185111144D01*
X170262404Y-92500000D02*
X170100345Y-92496267D01*
X167762229Y-86538845D02*
X167888000Y-86417899D01*
X57156480Y-39307874D02*
X57202619Y-39292631D01*
X62247026Y-26036006D02*
X62419074Y-26065087D01*
X123105761Y-150522600D02*
X123001392Y-150662434D01*
X30825362Y-66888855D02*
X30807874Y-66843519D01*
X3747026Y-32963993D02*
X3573743Y-32984462D01*
X83726681Y-67383099D02*
X83683278Y-67404946D01*
X58498804Y-99691423D02*
X58500000Y-99740122D01*
X50050091Y-149916639D02*
X50001580Y-149801558D01*
X115029671Y-99499450D02*
X115042631Y-99452619D01*
X116904946Y-33683278D02*
X116883099Y-33726681D01*
X148150259Y-7805173D02*
X148111952Y-7775278D01*
X64111999Y-151082100D02*
X64018361Y-151164736D01*
X57344737Y-34239281D02*
X57296861Y-34230974D01*
X147807874Y-66156480D02*
X147825362Y-66111144D01*
X31189987Y-65666847D02*
X31231039Y-65640851D01*
X64470460Y-91201222D02*
X64357356Y-91334090D01*
X120747026Y-92463993D02*
X120573743Y-92484462D01*
X89307874Y-66843519D02*
X89292631Y-66797380D01*
X147974721Y-126638047D02*
X147944826Y-126599740D01*
X167394238Y-31522600D02*
X167323887Y-31419413D01*
X63445378Y-151561368D02*
X63401807Y-151585095D01*
X56500000Y-65487727D02*
X56500000Y-40240122D01*
X116833152Y-39689987D02*
X116859148Y-39731039D01*
X63843168Y-26695551D02*
X63980356Y-26803373D01*
X65167164Y-30254501D02*
X65156124Y-30302869D01*
M02*
