M48
; DRILL file {KiCad (6.0.6)} date mer. 06 juil. 2022 10:56:02
; FORMAT={-:-/ absolute / metric / decimal}
; #@! TF.CreationDate,2022-07-06T10:56:02+02:00
; #@! TF.GenerationSoftware,Kicad,Pcbnew,(6.0.6)
; #@! TF.FileFunction,Plated,1,4,PTH
FMAT,2
METRIC
; #@! TA.AperFunction,Plated,PTH,ViaDrill
T1C0.300
; #@! TA.AperFunction,Plated,PTH,ComponentDrill
T2C0.800
; #@! TA.AperFunction,Plated,PTH,ComponentDrill
T3C0.900
; #@! TA.AperFunction,Plated,PTH,ComponentDrill
T4C0.990
; #@! TA.AperFunction,Plated,PTH,ComponentDrill
T5C1.000
; #@! TA.AperFunction,Plated,PTH,ComponentDrill
T6C1.199
; #@! TA.AperFunction,Plated,PTH,ComponentDrill
T7C1.200
; #@! TA.AperFunction,Plated,PTH,ComponentDrill
T8C1.300
; #@! TA.AperFunction,Plated,PTH,ComponentDrill
T9C1.999
; #@! TA.AperFunction,Plated,PTH,ComponentDrill
T10C2.100
%
G90
G05
T1
X1.3Y-36.825
X1.3Y-96.325
X1.3Y-155.825
X1.625Y-42.025
X1.625Y-101.525
X1.625Y-161.025
X2.05Y-39.225
X2.05Y-98.725
X2.05Y-158.225
X2.35Y-44.05
X2.35Y-103.55
X2.35Y-163.05
X2.9Y-16.15
X2.9Y-75.65
X2.9Y-135.15
X3.075Y-21.425
X3.075Y-80.925
X3.075Y-140.425
X3.425Y-18.7
X3.425Y-78.2
X3.425Y-137.7
X3.55Y-13.9
X3.55Y-73.4
X3.55Y-132.9
X4.05Y-41.0
X4.05Y-100.5
X4.05Y-160.0
X4.175Y-15.775
X4.175Y-75.275
X4.175Y-134.775
X5.2Y-34.1
X5.2Y-93.6
X5.2Y-153.1
X5.825Y-19.775
X5.825Y-79.275
X5.825Y-138.775
X6.15Y-11.3
X6.15Y-70.8
X6.15Y-130.3
X6.325Y-37.875
X6.325Y-97.375
X6.325Y-156.875
X6.75Y-35.0
X6.75Y-94.5
X6.75Y-154.0
X7.05Y-22.3
X7.05Y-81.8
X7.05Y-141.3
X7.25Y-10.725
X7.25Y-70.225
X7.25Y-129.725
X7.625Y-26.475
X7.625Y-85.975
X7.625Y-145.475
X7.85Y-55.675
X7.85Y-115.175
X7.85Y-174.675
X7.925Y-44.2
X7.925Y-103.7
X7.925Y-163.2
X8.875Y-40.3
X8.875Y-99.8
X8.875Y-159.3
X9.0Y-50.0
X9.0Y-109.5
X9.0Y-169.0
X9.025Y-18.2
X9.025Y-77.7
X9.025Y-137.2
X9.4Y-45.925
X9.4Y-105.425
X9.4Y-164.925
X9.525Y-38.875
X9.525Y-98.375
X9.525Y-157.875
X9.675Y-27.3
X9.675Y-86.8
X9.675Y-146.3
X10.725Y-50.325
X10.725Y-109.825
X10.725Y-169.325
X11.4Y-38.25
X11.4Y-97.75
X11.4Y-157.25
X11.75Y-10.725
X11.75Y-70.225
X11.75Y-129.725
X11.875Y-31.35
X11.875Y-90.85
X11.875Y-150.35
X12.375Y-43.675
X12.375Y-103.175
X12.375Y-162.675
X13.05Y-42.025
X13.05Y-44.875
X13.05Y-101.525
X13.05Y-104.375
X13.05Y-161.025
X13.05Y-163.875
X13.1Y-31.35
X13.1Y-90.85
X13.1Y-150.35
X13.5Y-56.25
X13.5Y-57.75
X13.5Y-59.25
X13.5Y-115.75
X13.5Y-117.25
X13.5Y-118.75
X13.5Y-175.25
X13.5Y-176.75
X13.5Y-178.25
X13.575Y-15.175
X13.575Y-74.675
X13.575Y-134.175
X13.925Y-16.575
X13.925Y-76.075
X13.925Y-135.575
X14.425Y-27.9
X14.425Y-87.4
X14.425Y-146.9
X14.75Y-34.0
X14.75Y-38.75
X14.75Y-43.0
X14.75Y-93.5
X14.75Y-98.25
X14.75Y-102.5
X14.75Y-153.0
X14.75Y-157.75
X14.75Y-162.0
X16.05Y-10.325
X16.05Y-69.825
X16.05Y-129.325
X16.325Y-27.175
X16.325Y-86.675
X16.325Y-146.175
X16.8Y-17.375
X16.8Y-76.875
X16.8Y-136.375
X16.85Y-44.675
X16.85Y-104.175
X16.85Y-163.675
X17.0Y-34.0
X17.0Y-93.5
X17.0Y-153.0
X17.225Y-12.45
X17.225Y-71.95
X17.225Y-131.45
X18.025Y-43.975
X18.025Y-103.475
X18.025Y-162.975
X18.107Y-12.579
X18.107Y-72.079
X18.107Y-131.579
X18.275Y-18.225
X18.275Y-24.275
X18.275Y-77.725
X18.275Y-83.775
X18.275Y-137.225
X18.275Y-143.275
X18.675Y-11.05
X18.675Y-70.55
X18.675Y-130.05
X19.025Y-44.95
X19.025Y-104.45
X19.025Y-163.95
X19.225Y-27.35
X19.225Y-86.85
X19.225Y-146.35
X19.25Y-11.875
X19.25Y-71.375
X19.25Y-130.875
X19.55Y-10.325
X19.55Y-24.9
X19.55Y-69.825
X19.55Y-84.4
X19.55Y-129.325
X19.55Y-143.9
X19.825Y-21.75
X19.825Y-81.25
X19.825Y-140.75
X19.9Y-26.75
X19.9Y-86.25
X19.9Y-145.75
X20.25Y-34.0
X20.25Y-43.0
X20.25Y-93.5
X20.25Y-102.5
X20.25Y-153.0
X20.25Y-162.0
X20.9Y-44.775
X20.9Y-104.275
X20.9Y-163.775
X21.925Y-9.375
X21.925Y-68.875
X21.925Y-128.375
X22.325Y-42.9
X22.325Y-102.4
X22.325Y-161.9
X23.0Y-34.0
X23.0Y-38.75
X23.0Y-93.5
X23.0Y-98.25
X23.0Y-153.0
X23.0Y-157.75
X23.15Y-18.575
X23.15Y-43.525
X23.15Y-78.075
X23.15Y-103.025
X23.15Y-137.575
X23.15Y-162.525
X23.425Y-31.1
X23.425Y-90.6
X23.425Y-150.1
X24.45Y-18.95
X24.45Y-78.45
X24.45Y-137.95
X24.575Y-31.125
X24.575Y-42.95
X24.575Y-90.625
X24.575Y-102.45
X24.575Y-150.125
X24.575Y-161.95
X25.298Y-39.45
X25.298Y-98.95
X25.298Y-158.45
X25.35Y-33.625
X25.35Y-93.125
X25.35Y-152.625
X25.568Y-11.793
X25.568Y-71.293
X25.568Y-130.793
X25.625Y-40.125
X25.625Y-99.625
X25.625Y-159.125
X25.8Y-31.125
X25.8Y-90.625
X25.8Y-150.125
X25.875Y-42.375
X25.875Y-101.875
X25.875Y-161.375
X25.975Y-21.275
X25.975Y-80.775
X25.975Y-140.275
X26.05Y-20.35
X26.05Y-79.85
X26.05Y-139.35
X26.25Y-22.45
X26.25Y-22.45
X26.25Y-81.95
X26.25Y-81.95
X26.25Y-141.45
X26.25Y-141.45
X26.275Y-26.025
X26.275Y-85.525
X26.275Y-145.025
X26.4Y-36.5
X26.4Y-96.0
X26.4Y-155.5
X27.075Y-25.025
X27.075Y-84.525
X27.075Y-144.025
X27.125Y-31.125
X27.125Y-90.625
X27.125Y-150.125
X27.4Y-12.425
X27.4Y-71.925
X27.4Y-131.425
X27.558Y-26.221
X27.558Y-85.721
X27.558Y-145.221
X27.97Y-19.55
X27.97Y-79.05
X27.97Y-138.55
X28.65Y-21.075
X28.65Y-80.575
X28.65Y-140.075
X29.066Y-21.699
X29.066Y-81.199
X29.066Y-140.699
X29.1Y-24.775
X29.1Y-84.275
X29.1Y-143.775
X29.95Y-27.875
X29.95Y-87.375
X29.95Y-146.875
X31.175Y-40.575
X31.175Y-100.075
X31.175Y-159.575
X31.25Y-27.875
X31.25Y-87.375
X31.25Y-146.875
X31.3Y-45.575
X31.3Y-105.075
X31.3Y-164.575
X32.7Y-29.975
X32.7Y-89.475
X32.7Y-148.975
X32.825Y-36.725
X32.825Y-96.225
X32.825Y-155.725
X32.829Y-31.125
X32.829Y-90.625
X32.829Y-150.125
X33.25Y-10.25
X33.25Y-69.75
X33.25Y-129.25
X33.4Y-9.2
X33.4Y-68.7
X33.4Y-128.2
X33.775Y-42.8
X33.775Y-102.3
X33.775Y-161.8
X34.806Y-28.5
X34.806Y-88.0
X34.806Y-147.5
X35.175Y-29.425
X35.175Y-33.5
X35.175Y-88.925
X35.175Y-93.0
X35.175Y-148.425
X35.175Y-152.5
X35.25Y-30.75
X35.25Y-90.25
X35.25Y-149.75
X36.2Y-57.2
X36.2Y-57.9
X36.2Y-116.7
X36.2Y-117.4
X36.2Y-176.2
X36.2Y-176.9
X36.675Y-47.625
X36.675Y-107.125
X36.675Y-166.625
X36.745Y-58.505
X36.745Y-118.005
X36.745Y-177.505
X37.3Y-35.125
X37.3Y-94.625
X37.3Y-154.125
X37.325Y-42.9
X37.325Y-102.4
X37.325Y-161.9
X37.35Y-46.375
X37.35Y-105.875
X37.35Y-165.375
X37.575Y-37.825
X37.575Y-97.325
X37.575Y-156.825
X38.1Y-56.0
X38.1Y-115.5
X38.1Y-175.0
X38.724Y-56.416
X38.724Y-115.916
X38.724Y-175.416
X38.925Y-9.75
X38.925Y-69.25
X38.925Y-128.75
X39.075Y-19.775
X39.075Y-79.275
X39.075Y-138.775
X39.1Y-11.8
X39.1Y-71.3
X39.1Y-130.8
X39.575Y-39.525
X39.575Y-99.025
X39.575Y-158.525
X40.725Y-39.275
X40.725Y-98.775
X40.725Y-158.275
X41.5Y-10.8
X41.5Y-70.3
X41.5Y-129.8
X42.0Y-60.5
X42.0Y-61.75
X42.0Y-63.25
X42.0Y-120.0
X42.0Y-121.25
X42.0Y-122.75
X42.0Y-179.5
X42.0Y-180.75
X42.0Y-182.25
X42.3Y-49.3
X42.3Y-108.8
X42.3Y-168.3
X42.4Y-28.7
X42.4Y-88.2
X42.4Y-147.7
X42.425Y-34.425
X42.425Y-93.925
X42.425Y-153.425
X42.5Y-31.35
X42.5Y-90.85
X42.5Y-150.35
X43.025Y-18.55
X43.025Y-78.05
X43.025Y-137.55
X43.625Y-46.95
X43.625Y-106.45
X43.625Y-165.95
X43.65Y-36.775
X43.65Y-96.275
X43.65Y-155.775
X44.5Y-44.325
X44.5Y-103.825
X44.5Y-163.325
X44.55Y-31.625
X44.55Y-39.15
X44.55Y-91.125
X44.55Y-98.65
X44.55Y-150.625
X44.55Y-158.15
X45.125Y-8.675
X45.125Y-68.175
X45.125Y-127.675
X45.85Y-14.325
X45.85Y-73.825
X45.85Y-133.325
X47.475Y-23.85
X47.475Y-83.35
X47.475Y-142.85
X47.5Y-15.5
X47.5Y-16.5
X47.5Y-17.5
X47.5Y-75.0
X47.5Y-76.0
X47.5Y-77.0
X47.5Y-134.5
X47.5Y-135.5
X47.5Y-136.5
X48.15Y-47.35
X48.15Y-106.85
X48.15Y-166.35
X48.375Y-52.475
X48.375Y-111.975
X48.375Y-171.475
X48.975Y-51.9
X48.975Y-53.0
X48.975Y-111.4
X48.975Y-112.5
X48.975Y-170.9
X48.975Y-172.0
X49.525Y-51.35
X49.525Y-52.45
X49.525Y-110.85
X49.525Y-111.95
X49.525Y-170.35
X49.525Y-171.45
X50.062Y-51.912
X50.062Y-111.412
X50.062Y-170.912
X50.6Y-23.225
X50.6Y-82.725
X50.6Y-142.225
X51.0Y-41.0
X51.0Y-100.5
X51.0Y-160.0
X51.9Y-25.475
X51.9Y-84.975
X51.9Y-144.475
X52.0Y-41.0
X52.0Y-100.5
X52.0Y-160.0
X52.35Y-20.5
X52.35Y-80.0
X52.35Y-139.5
X53.1Y-38.125
X53.1Y-97.625
X53.1Y-157.125
X54.0Y-41.0
X54.0Y-100.5
X54.0Y-160.0
X59.8Y-36.825
X59.8Y-96.325
X59.8Y-155.825
X60.125Y-42.025
X60.125Y-101.525
X60.125Y-161.025
X60.55Y-39.225
X60.55Y-98.725
X60.55Y-158.225
X60.85Y-44.05
X60.85Y-103.55
X60.85Y-163.05
X61.4Y-16.15
X61.4Y-75.65
X61.4Y-135.15
X61.575Y-21.425
X61.575Y-80.925
X61.575Y-140.425
X61.925Y-18.7
X61.925Y-78.2
X61.925Y-137.7
X62.05Y-13.9
X62.05Y-73.4
X62.05Y-132.9
X62.55Y-41.0
X62.55Y-100.5
X62.55Y-160.0
X62.675Y-15.775
X62.675Y-75.275
X62.675Y-134.775
X63.7Y-34.1
X63.7Y-93.6
X63.7Y-153.1
X64.325Y-19.775
X64.325Y-79.275
X64.325Y-138.775
X64.65Y-11.3
X64.65Y-70.8
X64.65Y-130.3
X64.825Y-37.875
X64.825Y-97.375
X64.825Y-156.875
X65.25Y-35.0
X65.25Y-94.5
X65.25Y-154.0
X65.55Y-22.3
X65.55Y-81.8
X65.55Y-141.3
X65.75Y-10.725
X65.75Y-70.225
X65.75Y-129.725
X66.125Y-26.475
X66.125Y-85.975
X66.125Y-145.475
X66.35Y-55.675
X66.35Y-115.175
X66.35Y-174.675
X66.425Y-44.2
X66.425Y-103.7
X66.425Y-163.2
X67.375Y-40.3
X67.375Y-99.8
X67.375Y-159.3
X67.5Y-50.0
X67.5Y-109.5
X67.5Y-169.0
X67.525Y-18.2
X67.525Y-77.7
X67.525Y-137.2
X67.9Y-45.925
X67.9Y-105.425
X67.9Y-164.925
X68.025Y-38.875
X68.025Y-98.375
X68.025Y-157.875
X68.175Y-27.3
X68.175Y-86.8
X68.175Y-146.3
X69.225Y-50.325
X69.225Y-109.825
X69.225Y-169.325
X69.9Y-38.25
X69.9Y-97.75
X69.9Y-157.25
X70.25Y-10.725
X70.25Y-70.225
X70.25Y-129.725
X70.375Y-31.35
X70.375Y-90.85
X70.375Y-150.35
X70.875Y-43.675
X70.875Y-103.175
X70.875Y-162.675
X71.55Y-42.025
X71.55Y-44.875
X71.55Y-101.525
X71.55Y-104.375
X71.55Y-161.025
X71.55Y-163.875
X71.6Y-31.35
X71.6Y-90.85
X71.6Y-150.35
X72.0Y-56.25
X72.0Y-57.75
X72.0Y-59.25
X72.0Y-115.75
X72.0Y-117.25
X72.0Y-118.75
X72.0Y-175.25
X72.0Y-176.75
X72.0Y-178.25
X72.075Y-15.175
X72.075Y-74.675
X72.075Y-134.175
X72.425Y-16.575
X72.425Y-76.075
X72.425Y-135.575
X72.925Y-27.9
X72.925Y-87.4
X72.925Y-146.9
X73.25Y-34.0
X73.25Y-38.75
X73.25Y-43.0
X73.25Y-93.5
X73.25Y-98.25
X73.25Y-102.5
X73.25Y-153.0
X73.25Y-157.75
X73.25Y-162.0
X74.55Y-10.325
X74.55Y-69.825
X74.55Y-129.325
X74.825Y-27.175
X74.825Y-86.675
X74.825Y-146.175
X75.3Y-17.375
X75.3Y-76.875
X75.3Y-136.375
X75.35Y-44.675
X75.35Y-104.175
X75.35Y-163.675
X75.5Y-34.0
X75.5Y-93.5
X75.5Y-153.0
X75.725Y-12.45
X75.725Y-71.95
X75.725Y-131.45
X76.525Y-43.975
X76.525Y-103.475
X76.525Y-162.975
X76.607Y-12.579
X76.607Y-72.079
X76.607Y-131.579
X76.775Y-18.225
X76.775Y-24.275
X76.775Y-77.725
X76.775Y-83.775
X76.775Y-137.225
X76.775Y-143.275
X77.175Y-11.05
X77.175Y-70.55
X77.175Y-130.05
X77.525Y-44.95
X77.525Y-104.45
X77.525Y-163.95
X77.725Y-27.35
X77.725Y-86.85
X77.725Y-146.35
X77.75Y-11.875
X77.75Y-71.375
X77.75Y-130.875
X78.05Y-10.325
X78.05Y-24.9
X78.05Y-69.825
X78.05Y-84.4
X78.05Y-129.325
X78.05Y-143.9
X78.325Y-21.75
X78.325Y-81.25
X78.325Y-140.75
X78.4Y-26.75
X78.4Y-86.25
X78.4Y-145.75
X78.75Y-34.0
X78.75Y-43.0
X78.75Y-93.5
X78.75Y-102.5
X78.75Y-153.0
X78.75Y-162.0
X79.4Y-44.775
X79.4Y-104.275
X79.4Y-163.775
X80.425Y-9.375
X80.425Y-68.875
X80.425Y-128.375
X80.825Y-42.9
X80.825Y-102.4
X80.825Y-161.9
X81.5Y-34.0
X81.5Y-38.75
X81.5Y-93.5
X81.5Y-98.25
X81.5Y-153.0
X81.5Y-157.75
X81.65Y-18.575
X81.65Y-43.525
X81.65Y-78.075
X81.65Y-103.025
X81.65Y-137.575
X81.65Y-162.525
X81.925Y-31.1
X81.925Y-90.6
X81.925Y-150.1
X82.95Y-18.95
X82.95Y-78.45
X82.95Y-137.95
X83.075Y-31.125
X83.075Y-42.95
X83.075Y-90.625
X83.075Y-102.45
X83.075Y-150.125
X83.075Y-161.95
X83.798Y-39.45
X83.798Y-98.95
X83.798Y-158.45
X83.85Y-33.625
X83.85Y-93.125
X83.85Y-152.625
X84.068Y-11.793
X84.068Y-71.293
X84.068Y-130.793
X84.125Y-40.125
X84.125Y-99.625
X84.125Y-159.125
X84.3Y-31.125
X84.3Y-90.625
X84.3Y-150.125
X84.375Y-42.375
X84.375Y-101.875
X84.375Y-161.375
X84.475Y-21.275
X84.475Y-80.775
X84.475Y-140.275
X84.55Y-20.35
X84.55Y-79.85
X84.55Y-139.35
X84.75Y-22.45
X84.75Y-22.45
X84.75Y-81.95
X84.75Y-81.95
X84.75Y-141.45
X84.75Y-141.45
X84.775Y-26.025
X84.775Y-85.525
X84.775Y-145.025
X84.9Y-36.5
X84.9Y-96.0
X84.9Y-155.5
X85.575Y-25.025
X85.575Y-84.525
X85.575Y-144.025
X85.625Y-31.125
X85.625Y-90.625
X85.625Y-150.125
X85.9Y-12.425
X85.9Y-71.925
X85.9Y-131.425
X86.058Y-26.221
X86.058Y-85.721
X86.058Y-145.221
X86.47Y-19.55
X86.47Y-79.05
X86.47Y-138.55
X87.15Y-21.075
X87.15Y-80.575
X87.15Y-140.075
X87.566Y-21.699
X87.566Y-81.199
X87.566Y-140.699
X87.6Y-24.775
X87.6Y-84.275
X87.6Y-143.775
X88.45Y-27.875
X88.45Y-87.375
X88.45Y-146.875
X89.675Y-40.575
X89.675Y-100.075
X89.675Y-159.575
X89.75Y-27.875
X89.75Y-87.375
X89.75Y-146.875
X89.8Y-45.575
X89.8Y-105.075
X89.8Y-164.575
X91.2Y-29.975
X91.2Y-89.475
X91.2Y-148.975
X91.325Y-36.725
X91.325Y-96.225
X91.325Y-155.725
X91.329Y-31.125
X91.329Y-90.625
X91.329Y-150.125
X91.75Y-10.25
X91.75Y-69.75
X91.75Y-129.25
X91.9Y-9.2
X91.9Y-68.7
X91.9Y-128.2
X92.275Y-42.8
X92.275Y-102.3
X92.275Y-161.8
X93.306Y-28.5
X93.306Y-88.0
X93.306Y-147.5
X93.675Y-29.425
X93.675Y-33.5
X93.675Y-88.925
X93.675Y-93.0
X93.675Y-148.425
X93.675Y-152.5
X93.75Y-30.75
X93.75Y-90.25
X93.75Y-149.75
X94.7Y-57.2
X94.7Y-57.9
X94.7Y-116.7
X94.7Y-117.4
X94.7Y-176.2
X94.7Y-176.9
X95.175Y-47.625
X95.175Y-107.125
X95.175Y-166.625
X95.245Y-58.505
X95.245Y-118.005
X95.245Y-177.505
X95.8Y-35.125
X95.8Y-94.625
X95.8Y-154.125
X95.825Y-42.9
X95.825Y-102.4
X95.825Y-161.9
X95.85Y-46.375
X95.85Y-105.875
X95.85Y-165.375
X96.075Y-37.825
X96.075Y-97.325
X96.075Y-156.825
X96.6Y-56.0
X96.6Y-115.5
X96.6Y-175.0
X97.224Y-56.416
X97.224Y-115.916
X97.224Y-175.416
X97.425Y-9.75
X97.425Y-69.25
X97.425Y-128.75
X97.575Y-19.775
X97.575Y-79.275
X97.575Y-138.775
X97.6Y-11.8
X97.6Y-71.3
X97.6Y-130.8
X98.075Y-39.525
X98.075Y-99.025
X98.075Y-158.525
X99.225Y-39.275
X99.225Y-98.775
X99.225Y-158.275
X100.0Y-10.8
X100.0Y-70.3
X100.0Y-129.8
X100.5Y-60.5
X100.5Y-61.75
X100.5Y-63.25
X100.5Y-120.0
X100.5Y-121.25
X100.5Y-122.75
X100.5Y-179.5
X100.5Y-180.75
X100.5Y-182.25
X100.8Y-49.3
X100.8Y-108.8
X100.8Y-168.3
X100.9Y-28.7
X100.9Y-88.2
X100.9Y-147.7
X100.925Y-34.425
X100.925Y-93.925
X100.925Y-153.425
X101.0Y-31.35
X101.0Y-90.85
X101.0Y-150.35
X101.525Y-18.55
X101.525Y-78.05
X101.525Y-137.55
X102.125Y-46.95
X102.125Y-106.45
X102.125Y-165.95
X102.15Y-36.775
X102.15Y-96.275
X102.15Y-155.775
X103.0Y-44.325
X103.0Y-103.825
X103.0Y-163.325
X103.05Y-31.625
X103.05Y-39.15
X103.05Y-91.125
X103.05Y-98.65
X103.05Y-150.625
X103.05Y-158.15
X103.625Y-8.675
X103.625Y-68.175
X103.625Y-127.675
X104.35Y-14.325
X104.35Y-73.825
X104.35Y-133.325
X105.975Y-23.85
X105.975Y-83.35
X105.975Y-142.85
X106.0Y-15.5
X106.0Y-16.5
X106.0Y-17.5
X106.0Y-75.0
X106.0Y-76.0
X106.0Y-77.0
X106.0Y-134.5
X106.0Y-135.5
X106.0Y-136.5
X106.65Y-47.35
X106.65Y-106.85
X106.65Y-166.35
X106.875Y-52.475
X106.875Y-111.975
X106.875Y-171.475
X107.475Y-51.9
X107.475Y-53.0
X107.475Y-111.4
X107.475Y-112.5
X107.475Y-170.9
X107.475Y-172.0
X108.025Y-51.35
X108.025Y-52.45
X108.025Y-110.85
X108.025Y-111.95
X108.025Y-170.35
X108.025Y-171.45
X108.562Y-51.912
X108.562Y-111.412
X108.562Y-170.912
X109.1Y-23.225
X109.1Y-82.725
X109.1Y-142.225
X109.5Y-41.0
X109.5Y-100.5
X109.5Y-160.0
X110.4Y-25.475
X110.4Y-84.975
X110.4Y-144.475
X110.5Y-41.0
X110.5Y-100.5
X110.5Y-160.0
X110.85Y-20.5
X110.85Y-80.0
X110.85Y-139.5
X111.6Y-38.125
X111.6Y-97.625
X111.6Y-157.125
X112.5Y-41.0
X112.5Y-100.5
X112.5Y-160.0
X118.3Y-36.825
X118.3Y-96.325
X118.3Y-155.825
X118.625Y-42.025
X118.625Y-101.525
X118.625Y-161.025
X119.05Y-39.225
X119.05Y-98.725
X119.05Y-158.225
X119.35Y-44.05
X119.35Y-103.55
X119.35Y-163.05
X119.9Y-16.15
X119.9Y-75.65
X119.9Y-135.15
X120.075Y-21.425
X120.075Y-80.925
X120.075Y-140.425
X120.425Y-18.7
X120.425Y-78.2
X120.425Y-137.7
X120.55Y-13.9
X120.55Y-73.4
X120.55Y-132.9
X121.05Y-41.0
X121.05Y-100.5
X121.05Y-160.0
X121.175Y-15.775
X121.175Y-75.275
X121.175Y-134.775
X122.2Y-34.1
X122.2Y-93.6
X122.2Y-153.1
X122.825Y-19.775
X122.825Y-79.275
X122.825Y-138.775
X123.15Y-11.3
X123.15Y-70.8
X123.15Y-130.3
X123.325Y-37.875
X123.325Y-97.375
X123.325Y-156.875
X123.75Y-35.0
X123.75Y-94.5
X123.75Y-154.0
X124.05Y-22.3
X124.05Y-81.8
X124.05Y-141.3
X124.25Y-10.725
X124.25Y-70.225
X124.25Y-129.725
X124.625Y-26.475
X124.625Y-85.975
X124.625Y-145.475
X124.85Y-55.675
X124.85Y-115.175
X124.85Y-174.675
X124.925Y-44.2
X124.925Y-103.7
X124.925Y-163.2
X125.875Y-40.3
X125.875Y-99.8
X125.875Y-159.3
X126.0Y-50.0
X126.0Y-109.5
X126.0Y-169.0
X126.025Y-18.2
X126.025Y-77.7
X126.025Y-137.2
X126.4Y-45.925
X126.4Y-105.425
X126.4Y-164.925
X126.525Y-38.875
X126.525Y-98.375
X126.525Y-157.875
X126.675Y-27.3
X126.675Y-86.8
X126.675Y-146.3
X127.725Y-50.325
X127.725Y-109.825
X127.725Y-169.325
X128.4Y-38.25
X128.4Y-97.75
X128.4Y-157.25
X128.75Y-10.725
X128.75Y-70.225
X128.75Y-129.725
X128.875Y-31.35
X128.875Y-90.85
X128.875Y-150.35
X129.375Y-43.675
X129.375Y-103.175
X129.375Y-162.675
X130.05Y-42.025
X130.05Y-44.875
X130.05Y-101.525
X130.05Y-104.375
X130.05Y-161.025
X130.05Y-163.875
X130.1Y-31.35
X130.1Y-90.85
X130.1Y-150.35
X130.5Y-56.25
X130.5Y-57.75
X130.5Y-59.25
X130.5Y-115.75
X130.5Y-117.25
X130.5Y-118.75
X130.5Y-175.25
X130.5Y-176.75
X130.5Y-178.25
X130.575Y-15.175
X130.575Y-74.675
X130.575Y-134.175
X130.925Y-16.575
X130.925Y-76.075
X130.925Y-135.575
X131.425Y-27.9
X131.425Y-87.4
X131.425Y-146.9
X131.75Y-34.0
X131.75Y-38.75
X131.75Y-43.0
X131.75Y-93.5
X131.75Y-98.25
X131.75Y-102.5
X131.75Y-153.0
X131.75Y-157.75
X131.75Y-162.0
X133.05Y-10.325
X133.05Y-69.825
X133.05Y-129.325
X133.325Y-27.175
X133.325Y-86.675
X133.325Y-146.175
X133.8Y-17.375
X133.8Y-76.875
X133.8Y-136.375
X133.85Y-44.675
X133.85Y-104.175
X133.85Y-163.675
X134.0Y-34.0
X134.0Y-93.5
X134.0Y-153.0
X134.225Y-12.45
X134.225Y-71.95
X134.225Y-131.45
X135.025Y-43.975
X135.025Y-103.475
X135.025Y-162.975
X135.107Y-12.579
X135.107Y-72.079
X135.107Y-131.579
X135.275Y-18.225
X135.275Y-24.275
X135.275Y-77.725
X135.275Y-83.775
X135.275Y-137.225
X135.275Y-143.275
X135.675Y-11.05
X135.675Y-70.55
X135.675Y-130.05
X136.025Y-44.95
X136.025Y-104.45
X136.025Y-163.95
X136.225Y-27.35
X136.225Y-86.85
X136.225Y-146.35
X136.25Y-11.875
X136.25Y-71.375
X136.25Y-130.875
X136.55Y-10.325
X136.55Y-24.9
X136.55Y-69.825
X136.55Y-84.4
X136.55Y-129.325
X136.55Y-143.9
X136.825Y-21.75
X136.825Y-81.25
X136.825Y-140.75
X136.9Y-26.75
X136.9Y-86.25
X136.9Y-145.75
X137.25Y-34.0
X137.25Y-43.0
X137.25Y-93.5
X137.25Y-102.5
X137.25Y-153.0
X137.25Y-162.0
X137.9Y-44.775
X137.9Y-104.275
X137.9Y-163.775
X138.925Y-9.375
X138.925Y-68.875
X138.925Y-128.375
X139.325Y-42.9
X139.325Y-102.4
X139.325Y-161.9
X140.0Y-34.0
X140.0Y-38.75
X140.0Y-93.5
X140.0Y-98.25
X140.0Y-153.0
X140.0Y-157.75
X140.15Y-18.575
X140.15Y-43.525
X140.15Y-78.075
X140.15Y-103.025
X140.15Y-137.575
X140.15Y-162.525
X140.425Y-31.1
X140.425Y-90.6
X140.425Y-150.1
X141.45Y-18.95
X141.45Y-78.45
X141.45Y-137.95
X141.575Y-31.125
X141.575Y-42.95
X141.575Y-90.625
X141.575Y-102.45
X141.575Y-150.125
X141.575Y-161.95
X142.298Y-39.45
X142.298Y-98.95
X142.298Y-158.45
X142.35Y-33.625
X142.35Y-93.125
X142.35Y-152.625
X142.568Y-11.793
X142.568Y-71.293
X142.568Y-130.793
X142.625Y-40.125
X142.625Y-99.625
X142.625Y-159.125
X142.8Y-31.125
X142.8Y-90.625
X142.8Y-150.125
X142.875Y-42.375
X142.875Y-101.875
X142.875Y-161.375
X142.975Y-21.275
X142.975Y-80.775
X142.975Y-140.275
X143.05Y-20.35
X143.05Y-79.85
X143.05Y-139.35
X143.25Y-22.45
X143.25Y-22.45
X143.25Y-81.95
X143.25Y-81.95
X143.25Y-141.45
X143.25Y-141.45
X143.275Y-26.025
X143.275Y-85.525
X143.275Y-145.025
X143.4Y-36.5
X143.4Y-96.0
X143.4Y-155.5
X144.075Y-25.025
X144.075Y-84.525
X144.075Y-144.025
X144.125Y-31.125
X144.125Y-90.625
X144.125Y-150.125
X144.4Y-12.425
X144.4Y-71.925
X144.4Y-131.425
X144.558Y-26.221
X144.558Y-85.721
X144.558Y-145.221
X144.97Y-19.55
X144.97Y-79.05
X144.97Y-138.55
X145.65Y-21.075
X145.65Y-80.575
X145.65Y-140.075
X146.066Y-21.699
X146.066Y-81.199
X146.066Y-140.699
X146.1Y-24.775
X146.1Y-84.275
X146.1Y-143.775
X146.95Y-27.875
X146.95Y-87.375
X146.95Y-146.875
X148.175Y-40.575
X148.175Y-100.075
X148.175Y-159.575
X148.25Y-27.875
X148.25Y-87.375
X148.25Y-146.875
X148.3Y-45.575
X148.3Y-105.075
X148.3Y-164.575
X149.7Y-29.975
X149.7Y-89.475
X149.7Y-148.975
X149.825Y-36.725
X149.825Y-96.225
X149.825Y-155.725
X149.829Y-31.125
X149.829Y-90.625
X149.829Y-150.125
X150.25Y-10.25
X150.25Y-69.75
X150.25Y-129.25
X150.4Y-9.2
X150.4Y-68.7
X150.4Y-128.2
X150.775Y-42.8
X150.775Y-102.3
X150.775Y-161.8
X151.806Y-28.5
X151.806Y-88.0
X151.806Y-147.5
X152.175Y-29.425
X152.175Y-33.5
X152.175Y-88.925
X152.175Y-93.0
X152.175Y-148.425
X152.175Y-152.5
X152.25Y-30.75
X152.25Y-90.25
X152.25Y-149.75
X153.2Y-57.2
X153.2Y-57.9
X153.2Y-116.7
X153.2Y-117.4
X153.2Y-176.2
X153.2Y-176.9
X153.675Y-47.625
X153.675Y-107.125
X153.675Y-166.625
X153.745Y-58.505
X153.745Y-118.005
X153.745Y-177.505
X154.3Y-35.125
X154.3Y-94.625
X154.3Y-154.125
X154.325Y-42.9
X154.325Y-102.4
X154.325Y-161.9
X154.35Y-46.375
X154.35Y-105.875
X154.35Y-165.375
X154.575Y-37.825
X154.575Y-97.325
X154.575Y-156.825
X155.1Y-56.0
X155.1Y-115.5
X155.1Y-175.0
X155.724Y-56.416
X155.724Y-115.916
X155.724Y-175.416
X155.925Y-9.75
X155.925Y-69.25
X155.925Y-128.75
X156.075Y-19.775
X156.075Y-79.275
X156.075Y-138.775
X156.1Y-11.8
X156.1Y-71.3
X156.1Y-130.8
X156.575Y-39.525
X156.575Y-99.025
X156.575Y-158.525
X157.725Y-39.275
X157.725Y-98.775
X157.725Y-158.275
X158.5Y-10.8
X158.5Y-70.3
X158.5Y-129.8
X159.0Y-60.5
X159.0Y-61.75
X159.0Y-63.25
X159.0Y-120.0
X159.0Y-121.25
X159.0Y-122.75
X159.0Y-179.5
X159.0Y-180.75
X159.0Y-182.25
X159.3Y-49.3
X159.3Y-108.8
X159.3Y-168.3
X159.4Y-28.7
X159.4Y-88.2
X159.4Y-147.7
X159.425Y-34.425
X159.425Y-93.925
X159.425Y-153.425
X159.5Y-31.35
X159.5Y-90.85
X159.5Y-150.35
X160.025Y-18.55
X160.025Y-78.05
X160.025Y-137.55
X160.625Y-46.95
X160.625Y-106.45
X160.625Y-165.95
X160.65Y-36.775
X160.65Y-96.275
X160.65Y-155.775
X161.5Y-44.325
X161.5Y-103.825
X161.5Y-163.325
X161.55Y-31.625
X161.55Y-39.15
X161.55Y-91.125
X161.55Y-98.65
X161.55Y-150.625
X161.55Y-158.15
X162.125Y-8.675
X162.125Y-68.175
X162.125Y-127.675
X162.85Y-14.325
X162.85Y-73.825
X162.85Y-133.325
X164.475Y-23.85
X164.475Y-83.35
X164.475Y-142.85
X164.5Y-15.5
X164.5Y-16.5
X164.5Y-17.5
X164.5Y-75.0
X164.5Y-76.0
X164.5Y-77.0
X164.5Y-134.5
X164.5Y-135.5
X164.5Y-136.5
X165.15Y-47.35
X165.15Y-106.85
X165.15Y-166.35
X165.375Y-52.475
X165.375Y-111.975
X165.375Y-171.475
X165.975Y-51.9
X165.975Y-53.0
X165.975Y-111.4
X165.975Y-112.5
X165.975Y-170.9
X165.975Y-172.0
X166.525Y-51.35
X166.525Y-52.45
X166.525Y-110.85
X166.525Y-111.95
X166.525Y-170.35
X166.525Y-171.45
X167.062Y-51.912
X167.062Y-111.412
X167.062Y-170.912
X167.6Y-23.225
X167.6Y-82.725
X167.6Y-142.225
X168.0Y-41.0
X168.0Y-100.5
X168.0Y-160.0
X168.9Y-25.475
X168.9Y-84.975
X168.9Y-144.475
X169.0Y-41.0
X169.0Y-100.5
X169.0Y-160.0
X169.35Y-20.5
X169.35Y-80.0
X169.35Y-139.5
X170.1Y-38.125
X170.1Y-97.625
X170.1Y-157.125
X171.0Y-41.0
X171.0Y-100.5
X171.0Y-160.0
T2
X25.48Y-9.86
X25.48Y-17.48
X25.48Y-69.36
X25.48Y-76.98
X25.48Y-128.86
X25.48Y-136.48
X28.02Y-9.86
X28.02Y-17.48
X28.02Y-69.36
X28.02Y-76.98
X28.02Y-128.86
X28.02Y-136.48
X30.56Y-9.86
X30.56Y-17.48
X30.56Y-69.36
X30.56Y-76.98
X30.56Y-128.86
X30.56Y-136.48
X83.98Y-9.86
X83.98Y-17.48
X83.98Y-69.36
X83.98Y-76.98
X83.98Y-128.86
X83.98Y-136.48
X86.52Y-9.86
X86.52Y-17.48
X86.52Y-69.36
X86.52Y-76.98
X86.52Y-128.86
X86.52Y-136.48
X89.06Y-9.86
X89.06Y-17.48
X89.06Y-69.36
X89.06Y-76.98
X89.06Y-128.86
X89.06Y-136.48
X142.48Y-9.86
X142.48Y-17.48
X142.48Y-69.36
X142.48Y-76.98
X142.48Y-128.86
X142.48Y-136.48
X145.02Y-9.86
X145.02Y-17.48
X145.02Y-69.36
X145.02Y-76.98
X145.02Y-128.86
X145.02Y-136.48
X147.56Y-9.86
X147.56Y-17.48
X147.56Y-69.36
X147.56Y-76.98
X147.56Y-128.86
X147.56Y-136.48
T3
X22.5Y-54.79
X22.5Y-114.29
X22.5Y-173.79
X25.0Y-54.79
X25.0Y-114.29
X25.0Y-173.79
X27.0Y-54.79
X27.0Y-114.29
X27.0Y-173.79
X29.5Y-54.79
X29.5Y-114.29
X29.5Y-173.79
X81.0Y-54.79
X81.0Y-114.29
X81.0Y-173.79
X83.5Y-54.79
X83.5Y-114.29
X83.5Y-173.79
X85.5Y-54.79
X85.5Y-114.29
X85.5Y-173.79
X88.0Y-54.79
X88.0Y-114.29
X88.0Y-173.79
X139.5Y-54.79
X139.5Y-114.29
X139.5Y-173.79
X142.0Y-54.79
X142.0Y-114.29
X142.0Y-173.79
X144.0Y-54.79
X144.0Y-114.29
X144.0Y-173.79
X146.5Y-54.79
X146.5Y-114.29
X146.5Y-173.79
T4
X49.24Y-10.75
X49.24Y-17.25
X49.24Y-70.25
X49.24Y-76.75
X49.24Y-129.75
X49.24Y-136.25
X53.74Y-10.75
X53.74Y-17.25
X53.74Y-70.25
X53.74Y-76.75
X53.74Y-129.75
X53.74Y-136.25
X107.74Y-10.75
X107.74Y-17.25
X107.74Y-70.25
X107.74Y-76.75
X107.74Y-129.75
X107.74Y-136.25
X112.24Y-10.75
X112.24Y-17.25
X112.24Y-70.25
X112.24Y-76.75
X112.24Y-129.75
X112.24Y-136.25
X166.24Y-10.75
X166.24Y-17.25
X166.24Y-70.25
X166.24Y-76.75
X166.24Y-129.75
X166.24Y-136.25
X170.74Y-10.75
X170.74Y-17.25
X170.74Y-70.25
X170.74Y-76.75
X170.74Y-129.75
X170.74Y-136.25
T5
X1.75Y-9.75
X1.75Y-12.29
X1.75Y-14.83
X1.75Y-17.37
X1.75Y-19.91
X1.75Y-22.45
X1.75Y-69.25
X1.75Y-71.79
X1.75Y-74.33
X1.75Y-76.87
X1.75Y-79.41
X1.75Y-81.95
X1.75Y-128.75
X1.75Y-131.29
X1.75Y-133.83
X1.75Y-136.37
X1.75Y-138.91
X1.75Y-141.45
X35.65Y-35.95
X35.65Y-38.49
X35.65Y-41.03
X35.65Y-95.45
X35.65Y-97.99
X35.65Y-100.53
X35.65Y-154.95
X35.65Y-157.49
X35.65Y-160.03
X39.325Y-61.45
X39.325Y-63.99
X39.325Y-120.95
X39.325Y-123.49
X39.325Y-180.45
X39.325Y-182.99
X48.45Y-33.0
X48.45Y-35.54
X48.45Y-38.08
X48.45Y-40.62
X48.45Y-92.5
X48.45Y-95.04
X48.45Y-97.58
X48.45Y-100.12
X48.45Y-152.0
X48.45Y-154.54
X48.45Y-157.08
X48.45Y-159.62
X60.25Y-9.75
X60.25Y-12.29
X60.25Y-14.83
X60.25Y-17.37
X60.25Y-19.91
X60.25Y-22.45
X60.25Y-69.25
X60.25Y-71.79
X60.25Y-74.33
X60.25Y-76.87
X60.25Y-79.41
X60.25Y-81.95
X60.25Y-128.75
X60.25Y-131.29
X60.25Y-133.83
X60.25Y-136.37
X60.25Y-138.91
X60.25Y-141.45
X94.15Y-35.95
X94.15Y-38.49
X94.15Y-41.03
X94.15Y-95.45
X94.15Y-97.99
X94.15Y-100.53
X94.15Y-154.95
X94.15Y-157.49
X94.15Y-160.03
X97.825Y-61.45
X97.825Y-63.99
X97.825Y-120.95
X97.825Y-123.49
X97.825Y-180.45
X97.825Y-182.99
X106.95Y-33.0
X106.95Y-35.54
X106.95Y-38.08
X106.95Y-40.62
X106.95Y-92.5
X106.95Y-95.04
X106.95Y-97.58
X106.95Y-100.12
X106.95Y-152.0
X106.95Y-154.54
X106.95Y-157.08
X106.95Y-159.62
X118.75Y-9.75
X118.75Y-12.29
X118.75Y-14.83
X118.75Y-17.37
X118.75Y-19.91
X118.75Y-22.45
X118.75Y-69.25
X118.75Y-71.79
X118.75Y-74.33
X118.75Y-76.87
X118.75Y-79.41
X118.75Y-81.95
X118.75Y-128.75
X118.75Y-131.29
X118.75Y-133.83
X118.75Y-136.37
X118.75Y-138.91
X118.75Y-141.45
X152.65Y-35.95
X152.65Y-38.49
X152.65Y-41.03
X152.65Y-95.45
X152.65Y-97.99
X152.65Y-100.53
X152.65Y-154.95
X152.65Y-157.49
X152.65Y-160.03
X156.325Y-61.45
X156.325Y-63.99
X156.325Y-120.95
X156.325Y-123.49
X156.325Y-180.45
X156.325Y-182.99
X165.45Y-33.0
X165.45Y-35.54
X165.45Y-38.08
X165.45Y-40.62
X165.45Y-92.5
X165.45Y-95.04
X165.45Y-97.58
X165.45Y-100.12
X165.45Y-152.0
X165.45Y-154.54
X165.45Y-157.08
X165.45Y-159.62
T6
X2.45Y-50.09
X2.45Y-53.9
X2.45Y-57.71
X2.45Y-109.59
X2.45Y-113.4
X2.45Y-117.21
X2.45Y-169.09
X2.45Y-172.9
X2.45Y-176.71
X5.95Y-50.09
X5.95Y-53.9
X5.95Y-57.71
X5.95Y-109.59
X5.95Y-113.4
X5.95Y-117.21
X5.95Y-169.09
X5.95Y-172.9
X5.95Y-176.71
X60.95Y-50.09
X60.95Y-53.9
X60.95Y-57.71
X60.95Y-109.59
X60.95Y-113.4
X60.95Y-117.21
X60.95Y-169.09
X60.95Y-172.9
X60.95Y-176.71
X64.45Y-50.09
X64.45Y-53.9
X64.45Y-57.71
X64.45Y-109.59
X64.45Y-113.4
X64.45Y-117.21
X64.45Y-169.09
X64.45Y-172.9
X64.45Y-176.71
X119.45Y-50.09
X119.45Y-53.9
X119.45Y-57.71
X119.45Y-109.59
X119.45Y-113.4
X119.45Y-117.21
X119.45Y-169.09
X119.45Y-172.9
X119.45Y-176.71
X122.95Y-50.09
X122.95Y-53.9
X122.95Y-57.71
X122.95Y-109.59
X122.95Y-113.4
X122.95Y-117.21
X122.95Y-169.09
X122.95Y-172.9
X122.95Y-176.71
T7
X17.0Y-52.94
X17.0Y-61.06
X17.0Y-112.44
X17.0Y-120.56
X17.0Y-171.94
X17.0Y-180.06
X35.5Y-52.94
X35.5Y-61.06
X35.5Y-112.44
X35.5Y-120.56
X35.5Y-171.94
X35.5Y-180.06
X75.5Y-52.94
X75.5Y-61.06
X75.5Y-112.44
X75.5Y-120.56
X75.5Y-171.94
X75.5Y-180.06
X94.0Y-52.94
X94.0Y-61.06
X94.0Y-112.44
X94.0Y-120.56
X94.0Y-171.94
X94.0Y-180.06
X134.0Y-52.94
X134.0Y-61.06
X134.0Y-112.44
X134.0Y-120.56
X134.0Y-171.94
X134.0Y-180.06
X152.5Y-52.94
X152.5Y-61.06
X152.5Y-112.44
X152.5Y-120.56
X152.5Y-171.94
X152.5Y-180.06
T8
X47.99Y-13.24
X47.99Y-72.74
X47.99Y-132.24
X55.0Y-13.24
X55.0Y-72.74
X55.0Y-132.24
X106.49Y-13.24
X106.49Y-72.74
X106.49Y-132.24
X113.5Y-13.24
X113.5Y-72.74
X113.5Y-132.24
X164.99Y-13.24
X164.99Y-72.74
X164.99Y-132.24
X172.0Y-13.24
X172.0Y-72.74
X172.0Y-132.24
T9
X3.0Y-62.75
X3.0Y-122.25
X3.0Y-181.75
X10.5Y-62.75
X10.5Y-122.25
X10.5Y-181.75
X46.0Y-62.75
X46.0Y-122.25
X46.0Y-181.75
X53.5Y-62.75
X53.5Y-122.25
X53.5Y-181.75
X61.5Y-62.75
X61.5Y-122.25
X61.5Y-181.75
X69.0Y-62.75
X69.0Y-122.25
X69.0Y-181.75
X104.5Y-62.75
X104.5Y-122.25
X104.5Y-181.75
X112.0Y-62.75
X112.0Y-122.25
X112.0Y-181.75
X120.0Y-62.75
X120.0Y-122.25
X120.0Y-181.75
X127.5Y-62.75
X127.5Y-122.25
X127.5Y-181.75
X163.0Y-62.75
X163.0Y-122.25
X163.0Y-181.75
X170.5Y-62.75
X170.5Y-122.25
X170.5Y-181.75
T10
X19.0Y-57.5
X19.0Y-117.0
X19.0Y-176.5
X33.0Y-57.5
X33.0Y-117.0
X33.0Y-176.5
X77.5Y-57.5
X77.5Y-117.0
X77.5Y-176.5
X91.5Y-57.5
X91.5Y-117.0
X91.5Y-176.5
X136.0Y-57.5
X136.0Y-117.0
X136.0Y-176.5
X150.0Y-57.5
X150.0Y-117.0
X150.0Y-176.5
T0
M30
