%TF.GenerationSoftware,KiCad,Pcbnew,(6.0.6)*%
%TF.CreationDate,2022-07-06T10:55:58+02:00*%
%TF.ProjectId,panel,70616e65-6c2e-46b6-9963-61645f706362,3.0*%
%TF.SameCoordinates,PXe4e1c0PYe4e1c0*%
%TF.FileFunction,Soldermask,Bot*%
%TF.FilePolarity,Negative*%
%FSLAX46Y46*%
G04 Gerber Fmt 4.6, Leading zero omitted, Abs format (unit mm)*
G04 Created by KiCad (PCBNEW (6.0.6)) date 2022-07-06 10:55:58*
%MOMM*%
%LPD*%
G01*
G04 APERTURE LIST*
G04 Aperture macros list*
%AMRoundRect*
0 Rectangle with rounded corners*
0 $1 Rounding radius*
0 $2 $3 $4 $5 $6 $7 $8 $9 X,Y pos of 4 corners*
0 Add a 4 corners polygon primitive as box body*
4,1,4,$2,$3,$4,$5,$6,$7,$8,$9,$2,$3,0*
0 Add four circle primitives for the rounded corners*
1,1,$1+$1,$2,$3*
1,1,$1+$1,$4,$5*
1,1,$1+$1,$6,$7*
1,1,$1+$1,$8,$9*
0 Add four rect primitives between the rounded corners*
20,1,$1+$1,$2,$3,$4,$5,0*
20,1,$1+$1,$4,$5,$6,$7,0*
20,1,$1+$1,$6,$7,$8,$9,0*
20,1,$1+$1,$8,$9,$2,$3,0*%
G04 Aperture macros list end*
%ADD10C,0.900000*%
%ADD11C,0.500000*%
%ADD12C,3.200000*%
%ADD13R,2.000000X2.000000*%
%ADD14C,0.990600*%
%ADD15R,1.600000X1.600000*%
%ADD16O,1.600000X1.600000*%
%ADD17R,1.700000X1.700000*%
%ADD18O,1.700000X1.700000*%
%ADD19C,4.500880*%
%ADD20C,2.100000*%
%ADD21C,1.750000*%
%ADD22C,1.800000*%
%ADD23C,3.300000*%
%ADD24R,2.500000X2.500000*%
%ADD25C,2.500000*%
%ADD26C,1.500000*%
%ADD27C,1.000000*%
%ADD28RoundRect,0.218750X-0.218750X-0.256250X0.218750X-0.256250X0.218750X0.256250X-0.218750X0.256250X0*%
%ADD29RoundRect,0.218750X0.218750X0.256250X-0.218750X0.256250X-0.218750X-0.256250X0.218750X-0.256250X0*%
G04 APERTURE END LIST*
D10*
%TO.C,B1-SW4*%
X74750000Y-14420000D03*
X69750000Y-14420000D03*
%TD*%
D11*
%TO.C,REF\u002A\u002A*%
X25250000Y-127200000D03*
%TD*%
D12*
%TO.C,B8-MK2*%
X159250000Y-141750000D03*
%TD*%
D13*
%TO.C,B6-U5*%
X35500000Y-180060000D03*
X35500000Y-171940000D03*
X17000000Y-180060000D03*
X17000000Y-171940000D03*
%TD*%
D11*
%TO.C,REF\u002A\u002A*%
X25250000Y-65300000D03*
%TD*%
%TO.C,REF\u002A\u002A*%
X30250000Y-8200000D03*
%TD*%
%TO.C,REF\u002A\u002A*%
X58700000Y-34750000D03*
%TD*%
D14*
%TO.C,B7-P1*%
X64140000Y-131660000D03*
X63124000Y-136740000D03*
X65156000Y-136740000D03*
%TD*%
D11*
%TO.C,REF\u002A\u002A*%
X142250000Y-8200000D03*
%TD*%
D15*
%TO.C,B7-SW2*%
X89060000Y-128860000D03*
D16*
X86520000Y-128860000D03*
X83980000Y-128860000D03*
X83980000Y-136480000D03*
X86520000Y-136480000D03*
X89060000Y-136480000D03*
%TD*%
D17*
%TO.C,B0-J5*%
X39325000Y-61450000D03*
D18*
X39325000Y-63990000D03*
%TD*%
D19*
%TO.C,B6-J13*%
X53500000Y-181750000D03*
%TD*%
D11*
%TO.C,REF\u002A\u002A*%
X83750000Y-124800000D03*
%TD*%
%TO.C,REF\u002A\u002A*%
X117200000Y-152750000D03*
%TD*%
D15*
%TO.C,B6-SW2*%
X30560000Y-128860000D03*
D16*
X28020000Y-128860000D03*
X25480000Y-128860000D03*
X25480000Y-136480000D03*
X28020000Y-136480000D03*
X30560000Y-136480000D03*
%TD*%
D11*
%TO.C,REF\u002A\u002A*%
X114800000Y-99250000D03*
%TD*%
%TO.C,REF\u002A\u002A*%
X89750000Y-124800000D03*
%TD*%
%TO.C,REF\u002A\u002A*%
X84750000Y-184300000D03*
%TD*%
D17*
%TO.C,B1-J1*%
X60250000Y-9750000D03*
D18*
X60250000Y-12290000D03*
X60250000Y-14830000D03*
X60250000Y-17370000D03*
X60250000Y-19910000D03*
X60250000Y-22450000D03*
%TD*%
D20*
%TO.C,B8-SW3*%
X164990000Y-132240000D03*
X172000000Y-132240000D03*
D21*
X166240000Y-136250000D03*
X166240000Y-129750000D03*
X170740000Y-129750000D03*
X170740000Y-136250000D03*
%TD*%
D22*
%TO.C,B7-J9*%
X81000000Y-173790000D03*
X83500000Y-173790000D03*
X85500000Y-173790000D03*
X88000000Y-173790000D03*
D23*
X77500000Y-176500000D03*
X91500000Y-176500000D03*
%TD*%
D11*
%TO.C,REF\u002A\u002A*%
X56300000Y-95250000D03*
%TD*%
D24*
%TO.C,B7-J8*%
X64450000Y-169090000D03*
D25*
X64450000Y-172900000D03*
X64450000Y-176710000D03*
%TD*%
D11*
%TO.C,REF\u002A\u002A*%
X88750000Y-8200000D03*
%TD*%
D12*
%TO.C,B5-MK1*%
X131250000Y-82250000D03*
%TD*%
D20*
%TO.C,B5-SW3*%
X164990000Y-72740000D03*
X172000000Y-72740000D03*
D21*
X166240000Y-76750000D03*
X166240000Y-70250000D03*
X170740000Y-76750000D03*
X170740000Y-70250000D03*
%TD*%
D24*
%TO.C,B2-J8*%
X122950000Y-50090000D03*
D25*
X122950000Y-53900000D03*
X122950000Y-57710000D03*
%TD*%
D11*
%TO.C,REF\u002A\u002A*%
X86750000Y-127200000D03*
%TD*%
%TO.C,REF\u002A\u002A*%
X58700000Y-35750000D03*
%TD*%
%TO.C,REF\u002A\u002A*%
X30250000Y-184300000D03*
%TD*%
%TO.C,REF\u002A\u002A*%
X142250000Y-124800000D03*
%TD*%
%TO.C,REF\u002A\u002A*%
X83750000Y-67700000D03*
%TD*%
%TO.C,REF\u002A\u002A*%
X117200000Y-36750000D03*
%TD*%
%TO.C,REF\u002A\u002A*%
X83750000Y-8200000D03*
%TD*%
D10*
%TO.C,B4-SW4*%
X74750000Y-73920000D03*
X69750000Y-73920000D03*
%TD*%
D11*
%TO.C,REF\u002A\u002A*%
X117200000Y-154750000D03*
%TD*%
%TO.C,REF\u002A\u002A*%
X88750000Y-124800000D03*
%TD*%
%TO.C,REF\u002A\u002A*%
X28250000Y-8200000D03*
%TD*%
D19*
%TO.C,B3-J14*%
X46000000Y-122250000D03*
%TD*%
D10*
%TO.C,B7-SW4*%
X74750000Y-133420000D03*
X69750000Y-133420000D03*
%TD*%
D11*
%TO.C,REF\u002A\u002A*%
X56300000Y-96250000D03*
%TD*%
D15*
%TO.C,B0-SW2*%
X30560000Y-9860000D03*
D16*
X28020000Y-9860000D03*
X25480000Y-9860000D03*
X25480000Y-17480000D03*
X28020000Y-17480000D03*
X30560000Y-17480000D03*
%TD*%
D11*
%TO.C,REF\u002A\u002A*%
X85750000Y-184300000D03*
%TD*%
D15*
%TO.C,B5-SW2*%
X147560000Y-69360000D03*
D16*
X145020000Y-69360000D03*
X142480000Y-69360000D03*
X142480000Y-76980000D03*
X145020000Y-76980000D03*
X147560000Y-76980000D03*
%TD*%
D11*
%TO.C,REF\u002A\u002A*%
X30250000Y-124800000D03*
%TD*%
%TO.C,REF\u002A\u002A*%
X58700000Y-39750000D03*
%TD*%
%TO.C,REF\u002A\u002A*%
X85750000Y-65300000D03*
%TD*%
D20*
%TO.C,B4-SW3*%
X113500000Y-72740000D03*
X106490000Y-72740000D03*
D21*
X107740000Y-76750000D03*
X107740000Y-70250000D03*
X112240000Y-76750000D03*
X112240000Y-70250000D03*
%TD*%
D19*
%TO.C,B4-J15*%
X69000000Y-122250000D03*
%TD*%
D22*
%TO.C,B6-J9*%
X22500000Y-173790000D03*
X25000000Y-173790000D03*
X27000000Y-173790000D03*
X29500000Y-173790000D03*
D23*
X19000000Y-176500000D03*
X33000000Y-176500000D03*
%TD*%
D11*
%TO.C,REF\u002A\u002A*%
X114800000Y-157750000D03*
%TD*%
D17*
%TO.C,B8-J4*%
X165450000Y-152000000D03*
D18*
X165450000Y-154540000D03*
X165450000Y-157080000D03*
X165450000Y-159620000D03*
%TD*%
D24*
%TO.C,B1-J7*%
X60950000Y-50090000D03*
D25*
X60950000Y-53900000D03*
X60950000Y-57710000D03*
%TD*%
D11*
%TO.C,REF\u002A\u002A*%
X145250000Y-8200000D03*
%TD*%
D15*
%TO.C,B4-SW2*%
X89060000Y-69360000D03*
D16*
X86520000Y-69360000D03*
X83980000Y-69360000D03*
X83980000Y-76980000D03*
X86520000Y-76980000D03*
X89060000Y-76980000D03*
%TD*%
D24*
%TO.C,B8-J8*%
X122950000Y-169090000D03*
D25*
X122950000Y-172900000D03*
X122950000Y-176710000D03*
%TD*%
D11*
%TO.C,REF\u002A\u002A*%
X87750000Y-184300000D03*
%TD*%
%TO.C,REF\u002A\u002A*%
X25250000Y-184300000D03*
%TD*%
%TO.C,REF\u002A\u002A*%
X56300000Y-35750000D03*
%TD*%
%TO.C,REF\u002A\u002A*%
X58700000Y-153750000D03*
%TD*%
D14*
%TO.C,B5-P1*%
X122640000Y-72160000D03*
X123656000Y-77240000D03*
X121624000Y-77240000D03*
%TD*%
D24*
%TO.C,B0-J7*%
X2450000Y-50090000D03*
D25*
X2450000Y-53900000D03*
X2450000Y-57710000D03*
%TD*%
D11*
%TO.C,REF\u002A\u002A*%
X84750000Y-127200000D03*
%TD*%
%TO.C,REF\u002A\u002A*%
X56300000Y-152750000D03*
%TD*%
D17*
%TO.C,B4-J4*%
X106950000Y-92500000D03*
D18*
X106950000Y-95040000D03*
X106950000Y-97580000D03*
X106950000Y-100120000D03*
%TD*%
D11*
%TO.C,REF\u002A\u002A*%
X117200000Y-95250000D03*
%TD*%
%TO.C,REF\u002A\u002A*%
X28250000Y-65300000D03*
%TD*%
D15*
%TO.C,B1-SW2*%
X89060000Y-9860000D03*
D16*
X86520000Y-9860000D03*
X83980000Y-9860000D03*
X83980000Y-17480000D03*
X86520000Y-17480000D03*
X89060000Y-17480000D03*
%TD*%
D17*
%TO.C,B8-J5*%
X156325000Y-180450000D03*
D18*
X156325000Y-182990000D03*
%TD*%
D17*
%TO.C,B0-J6*%
X35650000Y-35950000D03*
D18*
X35650000Y-38490000D03*
X35650000Y-41030000D03*
%TD*%
D10*
%TO.C,B2-SW4*%
X133250000Y-14420000D03*
X128250000Y-14420000D03*
%TD*%
D20*
%TO.C,B7-SW3*%
X106490000Y-132240000D03*
X113500000Y-132240000D03*
D21*
X107740000Y-136250000D03*
X107740000Y-129750000D03*
X112240000Y-136250000D03*
X112240000Y-129750000D03*
%TD*%
D19*
%TO.C,B2-J15*%
X127500000Y-62750000D03*
%TD*%
D11*
%TO.C,REF\u002A\u002A*%
X114800000Y-156750000D03*
%TD*%
D17*
%TO.C,B8-J1*%
X118750000Y-128750000D03*
D18*
X118750000Y-131290000D03*
X118750000Y-133830000D03*
X118750000Y-136370000D03*
X118750000Y-138910000D03*
X118750000Y-141450000D03*
%TD*%
D11*
%TO.C,REF\u002A\u002A*%
X89750000Y-67700000D03*
%TD*%
D19*
%TO.C,B1-J14*%
X104500000Y-62750000D03*
%TD*%
D11*
%TO.C,REF\u002A\u002A*%
X114800000Y-37750000D03*
%TD*%
D13*
%TO.C,B8-U5*%
X152500000Y-180060000D03*
X152500000Y-171940000D03*
X134000000Y-180060000D03*
X134000000Y-171940000D03*
%TD*%
D11*
%TO.C,REF\u002A\u002A*%
X85750000Y-67700000D03*
%TD*%
%TO.C,REF\u002A\u002A*%
X114800000Y-33750000D03*
%TD*%
%TO.C,REF\u002A\u002A*%
X56300000Y-97250000D03*
%TD*%
%TO.C,REF\u002A\u002A*%
X26250000Y-127200000D03*
%TD*%
%TO.C,REF\u002A\u002A*%
X114800000Y-152750000D03*
%TD*%
D24*
%TO.C,B3-J8*%
X5950000Y-109590000D03*
D25*
X5950000Y-113400000D03*
X5950000Y-117210000D03*
%TD*%
D10*
%TO.C,B5-SW4*%
X133250000Y-73920000D03*
X128250000Y-73920000D03*
%TD*%
D11*
%TO.C,REF\u002A\u002A*%
X29250000Y-65300000D03*
%TD*%
D24*
%TO.C,B5-J7*%
X119450000Y-109590000D03*
D25*
X119450000Y-113400000D03*
X119450000Y-117210000D03*
%TD*%
D19*
%TO.C,B0-J13*%
X53500000Y-62750000D03*
%TD*%
D13*
%TO.C,B2-U5*%
X152500000Y-61060000D03*
X152500000Y-52940000D03*
X134000000Y-61060000D03*
X134000000Y-52940000D03*
%TD*%
D11*
%TO.C,REF\u002A\u002A*%
X56300000Y-158750000D03*
%TD*%
%TO.C,REF\u002A\u002A*%
X117200000Y-155750000D03*
%TD*%
%TO.C,REF\u002A\u002A*%
X114800000Y-95250000D03*
%TD*%
D12*
%TO.C,B7-MK2*%
X100750000Y-141750000D03*
%TD*%
%TO.C,B0-MK2*%
X42250000Y-22750000D03*
%TD*%
D15*
%TO.C,B2-SW2*%
X147560000Y-9860000D03*
D16*
X145020000Y-9860000D03*
X142480000Y-9860000D03*
X142480000Y-17480000D03*
X145020000Y-17480000D03*
X147560000Y-17480000D03*
%TD*%
D11*
%TO.C,REF\u002A\u002A*%
X148250000Y-8200000D03*
%TD*%
%TO.C,REF\u002A\u002A*%
X29250000Y-8200000D03*
%TD*%
%TO.C,REF\u002A\u002A*%
X29250000Y-67700000D03*
%TD*%
%TO.C,REF\u002A\u002A*%
X144250000Y-8200000D03*
%TD*%
%TO.C,REF\u002A\u002A*%
X56300000Y-39750000D03*
%TD*%
%TO.C,REF\u002A\u002A*%
X85750000Y-8200000D03*
%TD*%
%TO.C,REF\u002A\u002A*%
X86750000Y-124800000D03*
%TD*%
D24*
%TO.C,B6-J8*%
X5950000Y-169090000D03*
D25*
X5950000Y-172900000D03*
X5950000Y-176710000D03*
%TD*%
D11*
%TO.C,REF\u002A\u002A*%
X56300000Y-157750000D03*
%TD*%
%TO.C,REF\u002A\u002A*%
X146250000Y-65300000D03*
%TD*%
%TO.C,REF\u002A\u002A*%
X114800000Y-97250000D03*
%TD*%
%TO.C,REF\u002A\u002A*%
X147250000Y-184300000D03*
%TD*%
%TO.C,REF\u002A\u002A*%
X28250000Y-184300000D03*
%TD*%
%TO.C,REF\u002A\u002A*%
X143250000Y-184300000D03*
%TD*%
%TO.C,REF\u002A\u002A*%
X144250000Y-124800000D03*
%TD*%
D20*
%TO.C,B0-SW3*%
X47990000Y-13240000D03*
X55000000Y-13240000D03*
D21*
X49240000Y-10750000D03*
X49240000Y-17250000D03*
X53740000Y-17250000D03*
X53740000Y-10750000D03*
%TD*%
D11*
%TO.C,REF\u002A\u002A*%
X144250000Y-67700000D03*
%TD*%
%TO.C,REF\u002A\u002A*%
X87750000Y-65300000D03*
%TD*%
%TO.C,REF\u002A\u002A*%
X28250000Y-124800000D03*
%TD*%
%TO.C,REF\u002A\u002A*%
X58700000Y-94250000D03*
%TD*%
%TO.C,REF\u002A\u002A*%
X27250000Y-127200000D03*
%TD*%
%TO.C,REF\u002A\u002A*%
X117200000Y-153750000D03*
%TD*%
D19*
%TO.C,B1-J15*%
X69000000Y-62750000D03*
%TD*%
%TO.C,B2-J16*%
X120000000Y-62750000D03*
%TD*%
D17*
%TO.C,B4-J5*%
X97825000Y-120950000D03*
D18*
X97825000Y-123490000D03*
%TD*%
D11*
%TO.C,REF\u002A\u002A*%
X58700000Y-99250000D03*
%TD*%
%TO.C,REF\u002A\u002A*%
X117200000Y-39750000D03*
%TD*%
%TO.C,REF\u002A\u002A*%
X85750000Y-124800000D03*
%TD*%
D19*
%TO.C,B7-J15*%
X69000000Y-181750000D03*
%TD*%
D11*
%TO.C,REF\u002A\u002A*%
X28250000Y-127200000D03*
%TD*%
D12*
%TO.C,B3-MK2*%
X42250000Y-82250000D03*
%TD*%
D11*
%TO.C,REF\u002A\u002A*%
X87750000Y-67700000D03*
%TD*%
D22*
%TO.C,B0-J9*%
X22500000Y-54790000D03*
X25000000Y-54790000D03*
X27000000Y-54790000D03*
X29500000Y-54790000D03*
D23*
X19000000Y-57500000D03*
X33000000Y-57500000D03*
%TD*%
D19*
%TO.C,B5-J15*%
X127500000Y-122250000D03*
%TD*%
D11*
%TO.C,REF\u002A\u002A*%
X27250000Y-65300000D03*
%TD*%
D22*
%TO.C,B2-J9*%
X139500000Y-54790000D03*
X142000000Y-54790000D03*
X144000000Y-54790000D03*
X146500000Y-54790000D03*
D23*
X150000000Y-57500000D03*
X136000000Y-57500000D03*
%TD*%
D11*
%TO.C,REF\u002A\u002A*%
X84750000Y-67700000D03*
%TD*%
%TO.C,REF\u002A\u002A*%
X114800000Y-98250000D03*
%TD*%
D20*
%TO.C,B2-SW3*%
X164990000Y-13240000D03*
X172000000Y-13240000D03*
D21*
X166240000Y-10750000D03*
X166240000Y-17250000D03*
X170740000Y-10750000D03*
X170740000Y-17250000D03*
%TD*%
D17*
%TO.C,B1-J4*%
X106950000Y-33000000D03*
D18*
X106950000Y-35540000D03*
X106950000Y-38080000D03*
X106950000Y-40620000D03*
%TD*%
D11*
%TO.C,REF\u002A\u002A*%
X148250000Y-67700000D03*
%TD*%
%TO.C,REF\u002A\u002A*%
X31250000Y-124800000D03*
%TD*%
D17*
%TO.C,B0-J4*%
X48450000Y-33000000D03*
D18*
X48450000Y-35540000D03*
X48450000Y-38080000D03*
X48450000Y-40620000D03*
%TD*%
D11*
%TO.C,REF\u002A\u002A*%
X56300000Y-38750000D03*
%TD*%
%TO.C,REF\u002A\u002A*%
X86750000Y-8200000D03*
%TD*%
D17*
%TO.C,B8-J6*%
X152650000Y-154950000D03*
D18*
X152650000Y-157490000D03*
X152650000Y-160030000D03*
%TD*%
D11*
%TO.C,REF\u002A\u002A*%
X143250000Y-67700000D03*
%TD*%
%TO.C,REF\u002A\u002A*%
X58700000Y-93250000D03*
%TD*%
%TO.C,REF\u002A\u002A*%
X26250000Y-8200000D03*
%TD*%
D14*
%TO.C,B1-P1*%
X65156000Y-17740000D03*
X64140000Y-12660000D03*
X63124000Y-17740000D03*
%TD*%
D11*
%TO.C,REF\u002A\u002A*%
X25250000Y-124800000D03*
%TD*%
%TO.C,REF\u002A\u002A*%
X114800000Y-93250000D03*
%TD*%
D19*
%TO.C,B6-J14*%
X46000000Y-181750000D03*
%TD*%
D17*
%TO.C,B7-J6*%
X94150000Y-154950000D03*
D18*
X94150000Y-157490000D03*
X94150000Y-160030000D03*
%TD*%
D11*
%TO.C,REF\u002A\u002A*%
X31250000Y-184300000D03*
%TD*%
D14*
%TO.C,B8-P1*%
X122640000Y-131660000D03*
X123656000Y-136740000D03*
X121624000Y-136740000D03*
%TD*%
D11*
%TO.C,REF\u002A\u002A*%
X117200000Y-156750000D03*
%TD*%
%TO.C,REF\u002A\u002A*%
X84750000Y-124800000D03*
%TD*%
D17*
%TO.C,B2-J4*%
X165450000Y-33000000D03*
D18*
X165450000Y-35540000D03*
X165450000Y-38080000D03*
X165450000Y-40620000D03*
%TD*%
D19*
%TO.C,B3-J13*%
X53500000Y-122250000D03*
%TD*%
D11*
%TO.C,REF\u002A\u002A*%
X142250000Y-127200000D03*
%TD*%
%TO.C,REF\u002A\u002A*%
X114800000Y-154750000D03*
%TD*%
D19*
%TO.C,B1-J13*%
X112000000Y-62750000D03*
%TD*%
D11*
%TO.C,REF\u002A\u002A*%
X143250000Y-124800000D03*
%TD*%
%TO.C,REF\u002A\u002A*%
X117200000Y-93250000D03*
%TD*%
%TO.C,REF\u002A\u002A*%
X146250000Y-67700000D03*
%TD*%
%TO.C,REF\u002A\u002A*%
X58700000Y-33750000D03*
%TD*%
%TO.C,REF\u002A\u002A*%
X114800000Y-153750000D03*
%TD*%
D12*
%TO.C,B3-MK1*%
X14250000Y-82250000D03*
%TD*%
D11*
%TO.C,REF\u002A\u002A*%
X143250000Y-8200000D03*
%TD*%
%TO.C,REF\u002A\u002A*%
X83750000Y-65300000D03*
%TD*%
%TO.C,REF\u002A\u002A*%
X117200000Y-158750000D03*
%TD*%
D19*
%TO.C,B8-J16*%
X120000000Y-181750000D03*
%TD*%
D13*
%TO.C,B3-U5*%
X35500000Y-120560000D03*
X35500000Y-112440000D03*
X17000000Y-120560000D03*
X17000000Y-112440000D03*
%TD*%
D11*
%TO.C,REF\u002A\u002A*%
X87750000Y-8200000D03*
%TD*%
D12*
%TO.C,B1-MK2*%
X100750000Y-22750000D03*
%TD*%
D11*
%TO.C,REF\u002A\u002A*%
X85750000Y-127200000D03*
%TD*%
%TO.C,REF\u002A\u002A*%
X145250000Y-67700000D03*
%TD*%
%TO.C,REF\u002A\u002A*%
X30250000Y-127200000D03*
%TD*%
%TO.C,REF\u002A\u002A*%
X114800000Y-35750000D03*
%TD*%
%TO.C,REF\u002A\u002A*%
X86750000Y-65300000D03*
%TD*%
D17*
%TO.C,B5-J6*%
X152650000Y-95450000D03*
D18*
X152650000Y-97990000D03*
X152650000Y-100530000D03*
%TD*%
D17*
%TO.C,B4-J6*%
X94150000Y-95450000D03*
D18*
X94150000Y-97990000D03*
X94150000Y-100530000D03*
%TD*%
D19*
%TO.C,B8-J15*%
X127500000Y-181750000D03*
%TD*%
D11*
%TO.C,REF\u002A\u002A*%
X58700000Y-97250000D03*
%TD*%
%TO.C,REF\u002A\u002A*%
X144250000Y-65300000D03*
%TD*%
D22*
%TO.C,B1-J9*%
X81000000Y-54790000D03*
X83500000Y-54790000D03*
X85500000Y-54790000D03*
X88000000Y-54790000D03*
D23*
X91500000Y-57500000D03*
X77500000Y-57500000D03*
%TD*%
D11*
%TO.C,REF\u002A\u002A*%
X147250000Y-8200000D03*
%TD*%
D12*
%TO.C,B4-MK1*%
X72750000Y-82250000D03*
%TD*%
D19*
%TO.C,B6-J15*%
X10500000Y-181750000D03*
%TD*%
D13*
%TO.C,B5-U5*%
X152500000Y-120560000D03*
X152500000Y-112440000D03*
X134000000Y-120560000D03*
X134000000Y-112440000D03*
%TD*%
D17*
%TO.C,B6-J6*%
X35650000Y-154950000D03*
D18*
X35650000Y-157490000D03*
X35650000Y-160030000D03*
%TD*%
D14*
%TO.C,B4-P1*%
X65156000Y-77240000D03*
X63124000Y-77240000D03*
X64140000Y-72160000D03*
%TD*%
D17*
%TO.C,B5-J1*%
X118750000Y-69250000D03*
D18*
X118750000Y-71790000D03*
X118750000Y-74330000D03*
X118750000Y-76870000D03*
X118750000Y-79410000D03*
X118750000Y-81950000D03*
%TD*%
D17*
%TO.C,B1-J5*%
X97825000Y-61450000D03*
D18*
X97825000Y-63990000D03*
%TD*%
D11*
%TO.C,REF\u002A\u002A*%
X56300000Y-37750000D03*
%TD*%
D17*
%TO.C,B7-J4*%
X106950000Y-152000000D03*
D18*
X106950000Y-154540000D03*
X106950000Y-157080000D03*
X106950000Y-159620000D03*
%TD*%
D11*
%TO.C,REF\u002A\u002A*%
X26250000Y-184300000D03*
%TD*%
%TO.C,REF\u002A\u002A*%
X58700000Y-157750000D03*
%TD*%
%TO.C,REF\u002A\u002A*%
X27250000Y-8200000D03*
%TD*%
%TO.C,REF\u002A\u002A*%
X86750000Y-67700000D03*
%TD*%
%TO.C,REF\u002A\u002A*%
X89750000Y-127200000D03*
%TD*%
D10*
%TO.C,B6-SW4*%
X11250000Y-133420000D03*
X16250000Y-133420000D03*
%TD*%
D19*
%TO.C,B0-J15*%
X10500000Y-62750000D03*
%TD*%
D17*
%TO.C,B6-J1*%
X1750000Y-128750000D03*
D18*
X1750000Y-131290000D03*
X1750000Y-133830000D03*
X1750000Y-136370000D03*
X1750000Y-138910000D03*
X1750000Y-141450000D03*
%TD*%
D22*
%TO.C,B3-J9*%
X22500000Y-114290000D03*
X25000000Y-114290000D03*
X27000000Y-114290000D03*
X29500000Y-114290000D03*
D23*
X19000000Y-117000000D03*
X33000000Y-117000000D03*
%TD*%
D17*
%TO.C,B5-J5*%
X156325000Y-120950000D03*
D18*
X156325000Y-123490000D03*
%TD*%
D11*
%TO.C,REF\u002A\u002A*%
X89750000Y-184300000D03*
%TD*%
%TO.C,REF\u002A\u002A*%
X29250000Y-127200000D03*
%TD*%
D19*
%TO.C,B5-J14*%
X163000000Y-122250000D03*
%TD*%
D11*
%TO.C,REF\u002A\u002A*%
X89750000Y-65300000D03*
%TD*%
D20*
%TO.C,B1-SW3*%
X113500000Y-13240000D03*
X106490000Y-13240000D03*
D21*
X107740000Y-17250000D03*
X107740000Y-10750000D03*
X112240000Y-10750000D03*
X112240000Y-17250000D03*
%TD*%
D19*
%TO.C,B8-J14*%
X163000000Y-181750000D03*
%TD*%
D11*
%TO.C,REF\u002A\u002A*%
X89750000Y-8200000D03*
%TD*%
%TO.C,REF\u002A\u002A*%
X58700000Y-96250000D03*
%TD*%
D17*
%TO.C,B6-J5*%
X39325000Y-180450000D03*
D18*
X39325000Y-182990000D03*
%TD*%
D11*
%TO.C,REF\u002A\u002A*%
X56300000Y-33750000D03*
%TD*%
%TO.C,REF\u002A\u002A*%
X56300000Y-93250000D03*
%TD*%
D19*
%TO.C,B1-J16*%
X61500000Y-62750000D03*
%TD*%
D11*
%TO.C,REF\u002A\u002A*%
X26250000Y-67700000D03*
%TD*%
%TO.C,REF\u002A\u002A*%
X58700000Y-156750000D03*
%TD*%
D12*
%TO.C,B4-MK2*%
X100750000Y-82250000D03*
%TD*%
D11*
%TO.C,REF\u002A\u002A*%
X58700000Y-95250000D03*
%TD*%
%TO.C,REF\u002A\u002A*%
X145250000Y-184300000D03*
%TD*%
%TO.C,REF\u002A\u002A*%
X143250000Y-65300000D03*
%TD*%
D24*
%TO.C,B2-J7*%
X119450000Y-50090000D03*
D25*
X119450000Y-53900000D03*
X119450000Y-57710000D03*
%TD*%
D11*
%TO.C,REF\u002A\u002A*%
X56300000Y-153750000D03*
%TD*%
D13*
%TO.C,B4-U5*%
X94000000Y-120560000D03*
X94000000Y-112440000D03*
X75500000Y-120560000D03*
X75500000Y-112440000D03*
%TD*%
D11*
%TO.C,REF\u002A\u002A*%
X84750000Y-8200000D03*
%TD*%
D20*
%TO.C,B3-SW3*%
X55000000Y-72740000D03*
X47990000Y-72740000D03*
D21*
X49240000Y-76750000D03*
X49240000Y-70250000D03*
X53740000Y-70250000D03*
X53740000Y-76750000D03*
%TD*%
D11*
%TO.C,REF\u002A\u002A*%
X84750000Y-65300000D03*
%TD*%
D14*
%TO.C,B2-P1*%
X123656000Y-17740000D03*
X121624000Y-17740000D03*
X122640000Y-12660000D03*
%TD*%
D11*
%TO.C,REF\u002A\u002A*%
X83750000Y-184300000D03*
%TD*%
D17*
%TO.C,B2-J1*%
X118750000Y-9750000D03*
D18*
X118750000Y-12290000D03*
X118750000Y-14830000D03*
X118750000Y-17370000D03*
X118750000Y-19910000D03*
X118750000Y-22450000D03*
%TD*%
D11*
%TO.C,REF\u002A\u002A*%
X87750000Y-127200000D03*
%TD*%
D10*
%TO.C,B0-SW4*%
X16250000Y-14420000D03*
X11250000Y-14420000D03*
%TD*%
D11*
%TO.C,REF\u002A\u002A*%
X31250000Y-127200000D03*
%TD*%
D19*
%TO.C,B4-J14*%
X104500000Y-122250000D03*
%TD*%
D11*
%TO.C,REF\u002A\u002A*%
X117200000Y-99250000D03*
%TD*%
%TO.C,REF\u002A\u002A*%
X117200000Y-97250000D03*
%TD*%
%TO.C,REF\u002A\u002A*%
X147250000Y-65300000D03*
%TD*%
D14*
%TO.C,B3-P1*%
X4624000Y-77240000D03*
X6656000Y-77240000D03*
X5640000Y-72160000D03*
%TD*%
D11*
%TO.C,REF\u002A\u002A*%
X27250000Y-184300000D03*
%TD*%
%TO.C,REF\u002A\u002A*%
X117200000Y-157750000D03*
%TD*%
D17*
%TO.C,B6-J4*%
X48450000Y-152000000D03*
D18*
X48450000Y-154540000D03*
X48450000Y-157080000D03*
X48450000Y-159620000D03*
%TD*%
D11*
%TO.C,REF\u002A\u002A*%
X58700000Y-37750000D03*
%TD*%
%TO.C,REF\u002A\u002A*%
X147250000Y-124800000D03*
%TD*%
D17*
%TO.C,B4-J1*%
X60250000Y-69250000D03*
D18*
X60250000Y-71790000D03*
X60250000Y-74330000D03*
X60250000Y-76870000D03*
X60250000Y-79410000D03*
X60250000Y-81950000D03*
%TD*%
D11*
%TO.C,REF\u002A\u002A*%
X117200000Y-94250000D03*
%TD*%
D13*
%TO.C,B1-U5*%
X94000000Y-61060000D03*
X94000000Y-52940000D03*
X75500000Y-61060000D03*
X75500000Y-52940000D03*
%TD*%
D11*
%TO.C,REF\u002A\u002A*%
X147250000Y-67700000D03*
%TD*%
%TO.C,REF\u002A\u002A*%
X142250000Y-184300000D03*
%TD*%
%TO.C,REF\u002A\u002A*%
X143250000Y-127200000D03*
%TD*%
D24*
%TO.C,B6-J7*%
X2450000Y-169090000D03*
D25*
X2450000Y-172900000D03*
X2450000Y-176710000D03*
%TD*%
D11*
%TO.C,REF\u002A\u002A*%
X29250000Y-124800000D03*
%TD*%
%TO.C,REF\u002A\u002A*%
X56300000Y-98250000D03*
%TD*%
D19*
%TO.C,B2-J14*%
X163000000Y-62750000D03*
%TD*%
D26*
%TO.C,REF\u002A\u002A*%
X2500000Y-190000000D03*
%TD*%
D11*
%TO.C,REF\u002A\u002A*%
X148250000Y-65300000D03*
%TD*%
%TO.C,REF\u002A\u002A*%
X58700000Y-152750000D03*
%TD*%
D12*
%TO.C,B7-MK1*%
X72750000Y-141750000D03*
%TD*%
%TO.C,B2-MK2*%
X159250000Y-22750000D03*
%TD*%
D13*
%TO.C,B0-U5*%
X35500000Y-61060000D03*
X35500000Y-52940000D03*
X17000000Y-61060000D03*
X17000000Y-52940000D03*
%TD*%
D12*
%TO.C,B8-MK1*%
X131250000Y-141750000D03*
%TD*%
D17*
%TO.C,B1-J6*%
X94150000Y-35950000D03*
D18*
X94150000Y-38490000D03*
X94150000Y-41030000D03*
%TD*%
D17*
%TO.C,B3-J5*%
X39325000Y-120950000D03*
D18*
X39325000Y-123490000D03*
%TD*%
D11*
%TO.C,REF\u002A\u002A*%
X88750000Y-184300000D03*
%TD*%
%TO.C,REF\u002A\u002A*%
X58700000Y-155750000D03*
%TD*%
%TO.C,REF\u002A\u002A*%
X114800000Y-34750000D03*
%TD*%
%TO.C,REF\u002A\u002A*%
X114800000Y-94250000D03*
%TD*%
D17*
%TO.C,B0-J1*%
X1750000Y-9750000D03*
D18*
X1750000Y-12290000D03*
X1750000Y-14830000D03*
X1750000Y-17370000D03*
X1750000Y-19910000D03*
X1750000Y-22450000D03*
%TD*%
D11*
%TO.C,REF\u002A\u002A*%
X148250000Y-124800000D03*
%TD*%
D17*
%TO.C,B7-J1*%
X60250000Y-128750000D03*
D18*
X60250000Y-131290000D03*
X60250000Y-133830000D03*
X60250000Y-136370000D03*
X60250000Y-138910000D03*
X60250000Y-141450000D03*
%TD*%
D17*
%TO.C,B3-J6*%
X35650000Y-95450000D03*
D18*
X35650000Y-97990000D03*
X35650000Y-100530000D03*
%TD*%
D11*
%TO.C,REF\u002A\u002A*%
X56300000Y-36750000D03*
%TD*%
%TO.C,REF\u002A\u002A*%
X145250000Y-65300000D03*
%TD*%
%TO.C,REF\u002A\u002A*%
X25250000Y-67700000D03*
%TD*%
D19*
%TO.C,B8-J13*%
X170500000Y-181750000D03*
%TD*%
D11*
%TO.C,REF\u002A\u002A*%
X147250000Y-127200000D03*
%TD*%
%TO.C,REF\u002A\u002A*%
X117200000Y-96250000D03*
%TD*%
%TO.C,REF\u002A\u002A*%
X114800000Y-39750000D03*
%TD*%
%TO.C,REF\u002A\u002A*%
X144250000Y-127200000D03*
%TD*%
D17*
%TO.C,B3-J1*%
X1750000Y-69250000D03*
D18*
X1750000Y-71790000D03*
X1750000Y-74330000D03*
X1750000Y-76870000D03*
X1750000Y-79410000D03*
X1750000Y-81950000D03*
%TD*%
D11*
%TO.C,REF\u002A\u002A*%
X145250000Y-124800000D03*
%TD*%
D12*
%TO.C,B0-MK1*%
X14250000Y-22750000D03*
%TD*%
D11*
%TO.C,REF\u002A\u002A*%
X117200000Y-35750000D03*
%TD*%
D24*
%TO.C,B4-J7*%
X60950000Y-109590000D03*
D25*
X60950000Y-113400000D03*
X60950000Y-117210000D03*
%TD*%
D10*
%TO.C,B3-SW4*%
X11250000Y-73920000D03*
X16250000Y-73920000D03*
%TD*%
D26*
%TO.C,REF\u002A\u002A*%
X2500000Y-2500000D03*
%TD*%
D11*
%TO.C,REF\u002A\u002A*%
X142250000Y-65300000D03*
%TD*%
D15*
%TO.C,B3-SW2*%
X30560000Y-69360000D03*
D16*
X28020000Y-69360000D03*
X25480000Y-69360000D03*
X25480000Y-76980000D03*
X28020000Y-76980000D03*
X30560000Y-76980000D03*
%TD*%
D19*
%TO.C,B0-J14*%
X46000000Y-62750000D03*
%TD*%
D11*
%TO.C,REF\u002A\u002A*%
X117200000Y-34750000D03*
%TD*%
D19*
%TO.C,B6-J16*%
X3000000Y-181750000D03*
%TD*%
D11*
%TO.C,REF\u002A\u002A*%
X58700000Y-154750000D03*
%TD*%
D22*
%TO.C,B8-J9*%
X139500000Y-173790000D03*
X142000000Y-173790000D03*
X144000000Y-173790000D03*
X146500000Y-173790000D03*
D23*
X150000000Y-176500000D03*
X136000000Y-176500000D03*
%TD*%
D12*
%TO.C,B6-MK2*%
X42250000Y-141750000D03*
%TD*%
D10*
%TO.C,B8-SW4*%
X133250000Y-133420000D03*
X128250000Y-133420000D03*
%TD*%
D11*
%TO.C,REF\u002A\u002A*%
X58700000Y-36750000D03*
%TD*%
%TO.C,REF\u002A\u002A*%
X87750000Y-124800000D03*
%TD*%
%TO.C,REF\u002A\u002A*%
X26250000Y-124800000D03*
%TD*%
%TO.C,REF\u002A\u002A*%
X86750000Y-184300000D03*
%TD*%
D12*
%TO.C,B6-MK1*%
X14250000Y-141750000D03*
%TD*%
D19*
%TO.C,B7-J14*%
X104500000Y-181750000D03*
%TD*%
D11*
%TO.C,REF\u002A\u002A*%
X58700000Y-98250000D03*
%TD*%
D20*
%TO.C,B6-SW3*%
X47990000Y-132240000D03*
X55000000Y-132240000D03*
D21*
X49240000Y-129750000D03*
X49240000Y-136250000D03*
X53740000Y-136250000D03*
X53740000Y-129750000D03*
%TD*%
D24*
%TO.C,B8-J7*%
X119450000Y-169090000D03*
D25*
X119450000Y-172900000D03*
X119450000Y-176710000D03*
%TD*%
D19*
%TO.C,B0-J16*%
X3000000Y-62750000D03*
%TD*%
D17*
%TO.C,B5-J4*%
X165450000Y-92500000D03*
D18*
X165450000Y-95040000D03*
X165450000Y-97580000D03*
X165450000Y-100120000D03*
%TD*%
D19*
%TO.C,B7-J16*%
X61500000Y-181750000D03*
%TD*%
D11*
%TO.C,REF\u002A\u002A*%
X29250000Y-184300000D03*
%TD*%
D17*
%TO.C,B2-J6*%
X152650000Y-35950000D03*
D18*
X152650000Y-38490000D03*
X152650000Y-41030000D03*
%TD*%
D11*
%TO.C,REF\u002A\u002A*%
X88750000Y-127200000D03*
%TD*%
D19*
%TO.C,B4-J13*%
X112000000Y-122250000D03*
%TD*%
D11*
%TO.C,REF\u002A\u002A*%
X30250000Y-67700000D03*
%TD*%
%TO.C,REF\u002A\u002A*%
X146250000Y-8200000D03*
%TD*%
%TO.C,REF\u002A\u002A*%
X58700000Y-38750000D03*
%TD*%
%TO.C,REF\u002A\u002A*%
X31250000Y-8200000D03*
%TD*%
D14*
%TO.C,B0-P1*%
X4624000Y-17740000D03*
X5640000Y-12660000D03*
X6656000Y-17740000D03*
%TD*%
D19*
%TO.C,B5-J13*%
X170500000Y-122250000D03*
%TD*%
D15*
%TO.C,B8-SW2*%
X147560000Y-128860000D03*
D16*
X145020000Y-128860000D03*
X142480000Y-128860000D03*
X142480000Y-136480000D03*
X145020000Y-136480000D03*
X147560000Y-136480000D03*
%TD*%
D24*
%TO.C,B4-J8*%
X64450000Y-109590000D03*
D25*
X64450000Y-113400000D03*
X64450000Y-117210000D03*
%TD*%
D11*
%TO.C,REF\u002A\u002A*%
X30250000Y-65300000D03*
%TD*%
D24*
%TO.C,B3-J7*%
X2450000Y-109590000D03*
D25*
X2450000Y-113400000D03*
X2450000Y-117210000D03*
%TD*%
D11*
%TO.C,REF\u002A\u002A*%
X28250000Y-67700000D03*
%TD*%
D13*
%TO.C,B7-U5*%
X94000000Y-180060000D03*
X94000000Y-171940000D03*
X75500000Y-180060000D03*
X75500000Y-171940000D03*
%TD*%
D12*
%TO.C,B5-MK2*%
X159250000Y-82250000D03*
%TD*%
D11*
%TO.C,REF\u002A\u002A*%
X56300000Y-156750000D03*
%TD*%
%TO.C,REF\u002A\u002A*%
X83750000Y-127200000D03*
%TD*%
%TO.C,REF\u002A\u002A*%
X146250000Y-124800000D03*
%TD*%
%TO.C,REF\u002A\u002A*%
X88750000Y-65300000D03*
%TD*%
%TO.C,REF\u002A\u002A*%
X56300000Y-94250000D03*
%TD*%
%TO.C,REF\u002A\u002A*%
X114800000Y-158750000D03*
%TD*%
D24*
%TO.C,B1-J8*%
X64450000Y-50090000D03*
D25*
X64450000Y-53900000D03*
X64450000Y-57710000D03*
%TD*%
D19*
%TO.C,B2-J13*%
X170500000Y-62750000D03*
%TD*%
D11*
%TO.C,REF\u002A\u002A*%
X31250000Y-67700000D03*
%TD*%
D22*
%TO.C,B4-J9*%
X81000000Y-114290000D03*
X83500000Y-114290000D03*
X85500000Y-114290000D03*
X88000000Y-114290000D03*
D23*
X91500000Y-117000000D03*
X77500000Y-117000000D03*
%TD*%
D11*
%TO.C,REF\u002A\u002A*%
X114800000Y-38750000D03*
%TD*%
%TO.C,REF\u002A\u002A*%
X56300000Y-155750000D03*
%TD*%
%TO.C,REF\u002A\u002A*%
X56300000Y-99250000D03*
%TD*%
%TO.C,REF\u002A\u002A*%
X146250000Y-127200000D03*
%TD*%
%TO.C,REF\u002A\u002A*%
X26250000Y-65300000D03*
%TD*%
D19*
%TO.C,B3-J15*%
X10500000Y-122250000D03*
%TD*%
%TO.C,B4-J16*%
X61500000Y-122250000D03*
%TD*%
D11*
%TO.C,REF\u002A\u002A*%
X114800000Y-96250000D03*
%TD*%
D12*
%TO.C,B2-MK1*%
X131250000Y-22750000D03*
%TD*%
D19*
%TO.C,B5-J16*%
X120000000Y-122250000D03*
%TD*%
D11*
%TO.C,REF\u002A\u002A*%
X27250000Y-67700000D03*
%TD*%
%TO.C,REF\u002A\u002A*%
X117200000Y-98250000D03*
%TD*%
%TO.C,REF\u002A\u002A*%
X114800000Y-155750000D03*
%TD*%
D19*
%TO.C,B7-J13*%
X112000000Y-181750000D03*
%TD*%
D26*
%TO.C,REF\u002A\u002A*%
X171000000Y-2500000D03*
%TD*%
D17*
%TO.C,B2-J5*%
X156325000Y-61450000D03*
D18*
X156325000Y-63990000D03*
%TD*%
D11*
%TO.C,REF\u002A\u002A*%
X114800000Y-36750000D03*
%TD*%
D24*
%TO.C,B5-J8*%
X122950000Y-109590000D03*
D25*
X122950000Y-113400000D03*
X122950000Y-117210000D03*
%TD*%
D11*
%TO.C,REF\u002A\u002A*%
X56300000Y-34750000D03*
%TD*%
D17*
%TO.C,B7-J5*%
X97825000Y-180450000D03*
D18*
X97825000Y-182990000D03*
%TD*%
D11*
%TO.C,REF\u002A\u002A*%
X31250000Y-65300000D03*
%TD*%
%TO.C,REF\u002A\u002A*%
X148250000Y-184300000D03*
%TD*%
%TO.C,REF\u002A\u002A*%
X117200000Y-37750000D03*
%TD*%
D19*
%TO.C,B3-J16*%
X3000000Y-122250000D03*
%TD*%
D11*
%TO.C,REF\u002A\u002A*%
X25250000Y-8200000D03*
%TD*%
%TO.C,REF\u002A\u002A*%
X117200000Y-38750000D03*
%TD*%
D22*
%TO.C,B5-J9*%
X139500000Y-114290000D03*
X142000000Y-114290000D03*
X144000000Y-114290000D03*
X146500000Y-114290000D03*
D23*
X150000000Y-117000000D03*
X136000000Y-117000000D03*
%TD*%
D17*
%TO.C,B3-J4*%
X48450000Y-92500000D03*
D18*
X48450000Y-95040000D03*
X48450000Y-97580000D03*
X48450000Y-100120000D03*
%TD*%
D14*
%TO.C,B6-P1*%
X6656000Y-136740000D03*
X4624000Y-136740000D03*
X5640000Y-131660000D03*
%TD*%
D11*
%TO.C,REF\u002A\u002A*%
X148250000Y-127200000D03*
%TD*%
D24*
%TO.C,B0-J8*%
X5950000Y-50090000D03*
D25*
X5950000Y-53900000D03*
X5950000Y-57710000D03*
%TD*%
D12*
%TO.C,B1-MK1*%
X72750000Y-22750000D03*
%TD*%
D11*
%TO.C,REF\u002A\u002A*%
X145250000Y-127200000D03*
%TD*%
%TO.C,REF\u002A\u002A*%
X27250000Y-124800000D03*
%TD*%
%TO.C,REF\u002A\u002A*%
X117200000Y-33750000D03*
%TD*%
%TO.C,REF\u002A\u002A*%
X142250000Y-67700000D03*
%TD*%
D24*
%TO.C,B7-J7*%
X60950000Y-169090000D03*
D25*
X60950000Y-172900000D03*
X60950000Y-176710000D03*
%TD*%
D11*
%TO.C,REF\u002A\u002A*%
X56300000Y-154750000D03*
%TD*%
%TO.C,REF\u002A\u002A*%
X146250000Y-184300000D03*
%TD*%
%TO.C,REF\u002A\u002A*%
X58700000Y-158750000D03*
%TD*%
%TO.C,REF\u002A\u002A*%
X144250000Y-184300000D03*
%TD*%
%TO.C,REF\u002A\u002A*%
X88750000Y-67700000D03*
%TD*%
D27*
%TO.C,REF\u002A\u002A*%
X5000000Y-2500000D03*
%TD*%
D28*
%TO.C,B1-R14*%
X86712500Y-56750000D03*
X88287500Y-56750000D03*
%TD*%
D27*
%TO.C,B5-FID5*%
X117750000Y-124250000D03*
%TD*%
D29*
%TO.C,B6-R30*%
X23787500Y-175750000D03*
X22212500Y-175750000D03*
%TD*%
D27*
%TO.C,B4-FID5*%
X59250000Y-124250000D03*
%TD*%
%TO.C,B0-FID6*%
X55750000Y-8750000D03*
%TD*%
D28*
%TO.C,B0-R14*%
X28212500Y-56750000D03*
X29787500Y-56750000D03*
%TD*%
%TO.C,B0-R29*%
X22212500Y-58250000D03*
X23787500Y-58250000D03*
%TD*%
%TO.C,B3-R14*%
X28212500Y-116250000D03*
X29787500Y-116250000D03*
%TD*%
D29*
%TO.C,B1-R13*%
X88287500Y-58250000D03*
X86712500Y-58250000D03*
%TD*%
%TO.C,B0-R30*%
X23787500Y-56750000D03*
X22212500Y-56750000D03*
%TD*%
%TO.C,B1-R30*%
X82287500Y-56750000D03*
X80712500Y-56750000D03*
%TD*%
D28*
%TO.C,B5-R14*%
X145212500Y-116250000D03*
X146787500Y-116250000D03*
%TD*%
%TO.C,B4-R29*%
X80712500Y-117750000D03*
X82287500Y-117750000D03*
%TD*%
%TO.C,B1-R29*%
X80712500Y-58250000D03*
X82287500Y-58250000D03*
%TD*%
%TO.C,B2-R14*%
X145212500Y-56750000D03*
X146787500Y-56750000D03*
%TD*%
D27*
%TO.C,B0-FID5*%
X750000Y-64750000D03*
%TD*%
%TO.C,B1-FID6*%
X114250000Y-8750000D03*
%TD*%
D28*
%TO.C,B8-R14*%
X145212500Y-175750000D03*
X146787500Y-175750000D03*
%TD*%
D27*
%TO.C,B6-FID6*%
X55750000Y-127750000D03*
%TD*%
%TO.C,B3-FID6*%
X55750000Y-68250000D03*
%TD*%
D28*
%TO.C,B6-R14*%
X28212500Y-175750000D03*
X29787500Y-175750000D03*
%TD*%
D27*
%TO.C,B8-FID4*%
X172750000Y-183750000D03*
%TD*%
D29*
%TO.C,B2-R13*%
X146787500Y-58250000D03*
X145212500Y-58250000D03*
%TD*%
D27*
%TO.C,B6-FID5*%
X750000Y-183750000D03*
%TD*%
%TO.C,B2-FID5*%
X117750000Y-64750000D03*
%TD*%
%TO.C,B2-FID4*%
X172750000Y-64750000D03*
%TD*%
%TO.C,B2-FID6*%
X172750000Y-8750000D03*
%TD*%
%TO.C,B7-FID4*%
X114250000Y-183750000D03*
%TD*%
%TO.C,B8-FID6*%
X172750000Y-127750000D03*
%TD*%
%TO.C,B1-FID5*%
X59250000Y-64750000D03*
%TD*%
%TO.C,B1-FID4*%
X114250000Y-64750000D03*
%TD*%
D29*
%TO.C,B4-R30*%
X82287500Y-116250000D03*
X80712500Y-116250000D03*
%TD*%
D27*
%TO.C,REF\u002A\u002A*%
X5000000Y-190000000D03*
%TD*%
D28*
%TO.C,B8-R29*%
X139212500Y-177250000D03*
X140787500Y-177250000D03*
%TD*%
D29*
%TO.C,B4-R13*%
X88287500Y-117750000D03*
X86712500Y-117750000D03*
%TD*%
%TO.C,B2-R30*%
X140787500Y-56750000D03*
X139212500Y-56750000D03*
%TD*%
D28*
%TO.C,B2-R29*%
X139212500Y-58250000D03*
X140787500Y-58250000D03*
%TD*%
D29*
%TO.C,B0-R13*%
X29787500Y-58250000D03*
X28212500Y-58250000D03*
%TD*%
D27*
%TO.C,B5-FID4*%
X172750000Y-124250000D03*
%TD*%
%TO.C,B6-FID4*%
X55750000Y-183750000D03*
%TD*%
D28*
%TO.C,B4-R14*%
X86712500Y-116250000D03*
X88287500Y-116250000D03*
%TD*%
D27*
%TO.C,REF\u002A\u002A*%
X168500000Y-2500000D03*
%TD*%
%TO.C,B4-FID4*%
X114250000Y-124250000D03*
%TD*%
D29*
%TO.C,B7-R13*%
X88287500Y-177250000D03*
X86712500Y-177250000D03*
%TD*%
D28*
%TO.C,B3-R29*%
X22212500Y-117750000D03*
X23787500Y-117750000D03*
%TD*%
%TO.C,B6-R29*%
X22212500Y-177250000D03*
X23787500Y-177250000D03*
%TD*%
D27*
%TO.C,B0-FID4*%
X55750000Y-64750000D03*
%TD*%
%TO.C,B7-FID5*%
X59250000Y-183750000D03*
%TD*%
%TO.C,B4-FID6*%
X114250000Y-68250000D03*
%TD*%
D29*
%TO.C,B8-R13*%
X146787500Y-177250000D03*
X145212500Y-177250000D03*
%TD*%
D27*
%TO.C,B5-FID6*%
X172750000Y-68250000D03*
%TD*%
%TO.C,B7-FID6*%
X114250000Y-127750000D03*
%TD*%
%TO.C,B3-FID4*%
X55750000Y-124250000D03*
%TD*%
D29*
%TO.C,B5-R30*%
X140787500Y-116250000D03*
X139212500Y-116250000D03*
%TD*%
D27*
%TO.C,B3-FID5*%
X750000Y-124250000D03*
%TD*%
D29*
%TO.C,B5-R13*%
X146787500Y-117750000D03*
X145212500Y-117750000D03*
%TD*%
D28*
%TO.C,B7-R14*%
X86712500Y-175750000D03*
X88287500Y-175750000D03*
%TD*%
D29*
%TO.C,B8-R30*%
X140787500Y-175750000D03*
X139212500Y-175750000D03*
%TD*%
D28*
%TO.C,B5-R29*%
X139212500Y-117750000D03*
X140787500Y-117750000D03*
%TD*%
D29*
%TO.C,B7-R30*%
X82287500Y-175750000D03*
X80712500Y-175750000D03*
%TD*%
%TO.C,B3-R13*%
X29787500Y-117750000D03*
X28212500Y-117750000D03*
%TD*%
%TO.C,B3-R30*%
X23787500Y-116250000D03*
X22212500Y-116250000D03*
%TD*%
%TO.C,B6-R13*%
X29787500Y-177250000D03*
X28212500Y-177250000D03*
%TD*%
D27*
%TO.C,B8-FID5*%
X117750000Y-183750000D03*
%TD*%
D28*
%TO.C,B7-R29*%
X80712500Y-177250000D03*
X82287500Y-177250000D03*
%TD*%
M02*
