<?xml version="1.0" standalone="no"?>
 <!DOCTYPE svg PUBLIC "-//W3C//DTD SVG 1.1//EN" 
 "http://www.w3.org/Graphics/SVG/1.1/DTD/svg11.dtd"> 
<svg xmlns="http://www.w3.org/2000/svg" version="1.1" 
    width="29.7002cm" height="21.0007cm" viewBox="0 0 116930 82680 ">
<title>SVG Picture created as KXKM_ESP32_battery_management_board-Eco1_User.svg date 2019/05/14 10:44:54 </title>
  <desc>Picture generated by PCBNEW </desc>
<g style="fill:#000000; fill-opacity:1;stroke:#000000; stroke-opacity:1;
stroke-linecap:round; stroke-linejoin:round; "
 transform="translate(0 0) scale(1 1)">
</g>
<g style="fill:#000000; fill-opacity:0.0; 
stroke:#000000; stroke-width:-0.000393701; stroke-opacity:1; 
stroke-linecap:round; stroke-linejoin:round;">
</g>
<g style="fill:#000000; fill-opacity:0.0; 
stroke:#000000; stroke-width:118.11; stroke-opacity:1; 
stroke-linecap:round; stroke-linejoin:round;">
<path d="M42674 51054
L42674 50464
L42814 50464
L42899 50492
L42955 50548
L42983 50604
L43011 50717
L43011 50801
L42983 50913
L42955 50970
L42899 51026
L42814 51054
L42674 51054
" />
<path d="M43236 50520
L43264 50492
L43321 50464
L43461 50464
L43517 50492
L43546 50520
L43574 50576
L43574 50632
L43546 50717
L43208 51054
L43574 51054
" />
<path d="M42674 49479
L42674 48889
L42814 48889
L42899 48917
L42955 48973
L42983 49029
L43011 49142
L43011 49226
L42983 49339
L42955 49395
L42899 49451
L42814 49479
L42674 49479
" />
<path d="M43574 49479
L43236 49479
" />
<path d="M43405 49479
L43405 48889
L43349 48973
L43293 49029
L43236 49057
" />
</g>
<g style="fill:#000000; fill-opacity:0.0; 
stroke:#000000; stroke-width:157.48; stroke-opacity:1; 
stroke-linecap:round; stroke-linejoin:round;">
<path d="M44385 50646
L44985 50646
" />
<path d="M44685 50946
L44685 50346
" />
<path d="M44385 49268
L44985 49268
" />
<path d="M44685 49568
L44685 48968
" />
<path d="M41235 49268
L41835 49268
" />
<path d="M41235 50646
L41835 50646
" />
<path d="M58361 53205
L58961 53205
" />
<path d="M61314 53205
L61914 53205
" />
<path d="M61614 53505
L61614 52905
" />
<path d="M44385 53205
L44985 53205
" />
<path d="M44685 53505
L44685 52905
" />
<path d="M41432 53205
L42032 53205
" />
</g>
<g style="fill:#000000; fill-opacity:0.0; 
stroke:#000000; stroke-width:59.0551; stroke-opacity:1; 
stroke-linecap:round; stroke-linejoin:round;">
<path d="M53449 44160
L53637 44160
" />
<path d="M53412 44272
L53543 43878
L53674 44272
" />
<path d="M53571 43082
L53627 43100
L53646 43119
L53665 43157
L53665 43213
L53646 43250
L53627 43269
L53590 43288
L53440 43288
L53440 42894
L53571 42894
L53608 42913
L53627 42932
L53646 42969
L53646 43007
L53627 43044
L53608 43063
L53571 43082
L53440 43082
" />
<path d="M53393 41957
L53693 41957
" />
<path d="M60348 44647
L60404 44666
L60498 44666
L60536 44647
L60554 44628
L60573 44591
L60573 44553
L60554 44516
L60536 44497
L60498 44478
L60423 44460
L60386 44441
L60367 44422
L60348 44385
L60348 44347
L60367 44310
L60386 44291
L60423 44272
L60517 44272
L60573 44291
" />
<path d="M60742 44666
L60742 44272
L60836 44272
L60892 44291
L60929 44328
L60948 44366
L60967 44441
L60967 44497
L60948 44572
L60929 44610
L60892 44647
L60836 44666
L60742 44666
" />
<path d="M61117 44553
L61304 44553
" />
<path d="M61079 44666
L61211 44272
L61342 44666
" />
<path d="M60358 43663
L60414 43682
L60508 43682
L60545 43663
L60564 43644
L60583 43607
L60583 43569
L60564 43532
L60545 43513
L60508 43494
L60433 43475
L60395 43457
L60376 43438
L60358 43400
L60358 43363
L60376 43325
L60395 43307
L60433 43288
L60526 43288
L60583 43307
" />
<path d="M60976 43644
L60958 43663
L60901 43682
L60864 43682
L60808 43663
L60770 43625
L60751 43588
L60733 43513
L60733 43457
L60751 43382
L60770 43344
L60808 43307
L60864 43288
L60901 43288
L60958 43307
L60976 43325
" />
<path d="M61332 43682
L61145 43682
L61145 43288
" />
<path d="M60039 42547
L60339 42547
" />
<path d="M60189 42697
L60189 42397
" />
<path d="M60489 42304
L60733 42304
L60601 42454
L60658 42454
L60695 42472
L60714 42491
L60733 42529
L60733 42622
L60714 42660
L60695 42679
L60658 42697
L60545 42697
L60508 42679
L60489 42660
" />
<path d="M60901 42660
L60920 42679
L60901 42697
L60883 42679
L60901 42660
L60901 42697
" />
<path d="M61051 42304
L61295 42304
L61164 42454
L61220 42454
L61257 42472
L61276 42491
L61295 42529
L61295 42622
L61276 42660
L61257 42679
L61220 42697
L61107 42697
L61070 42679
L61051 42660
" />
<path d="M61407 42304
L61539 42697
L61670 42304
" />
<path d="M60526 41338
L60489 41319
L60433 41319
L60376 41338
L60339 41376
L60320 41413
L60301 41488
L60301 41544
L60320 41619
L60339 41657
L60376 41694
L60433 41713
L60470 41713
L60526 41694
L60545 41676
L60545 41544
L60470 41544
" />
<path d="M60714 41713
L60714 41319
L60939 41713
L60939 41319
" />
<path d="M61126 41713
L61126 41319
L61220 41319
L61276 41338
L61314 41376
L61332 41413
L61351 41488
L61351 41544
L61332 41619
L61314 41657
L61276 41694
L61220 41713
L61126 41713
" />
<path d="M63385 53149
L62795 53149
" />
<path d="M48228 50393
L45866 53149
" />
<path d="M63385 50393
L48228 50393
" />
<path d="M47047 48228
L45866 49212
" />
<path d="M63385 48228
L47047 48228
" />
<path d="M58661 46062
L55314 43110
" />
<path d="M63385 46062
L58661 46062
" />
<path d="M63385 42913
L60039 42913
" />
<path d="M63385 39763
L58267 39763
" />
<path d="M63385 35236
L62401 35236
" />
</g>
<g style="fill:#000000; fill-opacity:0.0; 
stroke:#000000; stroke-width:118.11; stroke-opacity:1; 
stroke-linecap:round; stroke-linejoin:round;">
<path d="M63603 53107
L63800 53107
" />
<path d="M63884 53416
L63603 53416
L63603 52826
L63884 52826
" />
<path d="M64137 53023
L64137 53416
" />
<path d="M64137 53079
L64165 53051
L64221 53023
L64306 53023
L64362 53051
L64390 53107
L64390 53416
" />
<path d="M64587 53023
L64812 53023
" />
<path d="M64671 52826
L64671 53332
L64699 53388
L64756 53416
L64812 53416
" />
<path d="M65009 53416
L65009 53023
" />
<path d="M65009 53135
L65037 53079
L65065 53051
L65121 53023
L65178 53023
" />
<path d="M65599 53388
L65543 53416
L65431 53416
L65374 53388
L65346 53332
L65346 53107
L65374 53051
L65431 53023
L65543 53023
L65599 53051
L65627 53107
L65627 53163
L65346 53219
" />
<path d="M65543 52798
L65459 52882
" />
<path d="M66106 53388
L66049 53416
L65937 53416
L65881 53388
L65852 53332
L65852 53107
L65881 53051
L65937 53023
L66049 53023
L66106 53051
L66134 53107
L66134 53163
L65852 53219
" />
<path d="M66837 53416
L66837 52826
" />
<path d="M66837 53051
L66893 53023
L67005 53023
L67062 53051
L67090 53079
L67118 53135
L67118 53304
L67090 53360
L67062 53388
L67005 53416
L66893 53416
L66837 53388
" />
<path d="M67624 53416
L67624 53107
L67596 53051
L67540 53023
L67427 53023
L67371 53051
" />
<path d="M67624 53388
L67568 53416
L67427 53416
L67371 53388
L67343 53332
L67343 53276
L67371 53219
L67427 53191
L67568 53191
L67624 53163
" />
<path d="M67821 53023
L68046 53023
" />
<path d="M67905 52826
L67905 53332
L67933 53388
L67990 53416
L68046 53416
" />
<path d="M68158 53023
L68383 53023
" />
<path d="M68243 52826
L68243 53332
L68271 53388
L68327 53416
L68383 53416
" />
<path d="M68805 53388
L68749 53416
L68636 53416
L68580 53388
L68552 53332
L68552 53107
L68580 53051
L68636 53023
L68749 53023
L68805 53051
L68833 53107
L68833 53163
L68552 53219
" />
<path d="M69086 53416
L69086 53023
" />
<path d="M69086 53135
L69115 53079
L69143 53051
L69199 53023
L69255 53023
" />
<path d="M69452 53416
L69452 53023
" />
<path d="M69452 52826
L69424 52854
L69452 52882
L69480 52854
L69452 52826
L69452 52882
" />
<path d="M69958 53388
L69902 53416
L69789 53416
L69733 53388
L69705 53332
L69705 53107
L69733 53051
L69789 53023
L69902 53023
L69958 53051
L69986 53107
L69986 53163
L69705 53219
" />
<path d="M63575 50632
L63659 50660
L63800 50660
L63856 50632
L63884 50604
L63912 50548
L63912 50492
L63884 50435
L63856 50407
L63800 50379
L63687 50351
L63631 50323
L63603 50295
L63575 50239
L63575 50182
L63603 50126
L63631 50098
L63687 50070
L63828 50070
L63912 50098
" />
<path d="M64250 50660
L64193 50632
L64165 50604
L64137 50548
L64137 50379
L64165 50323
L64193 50295
L64250 50267
L64334 50267
L64390 50295
L64418 50323
L64446 50379
L64446 50548
L64418 50604
L64390 50632
L64334 50660
L64250 50660
" />
<path d="M64699 50660
L64699 50267
" />
<path d="M64699 50379
L64728 50323
L64756 50295
L64812 50267
L64868 50267
" />
<path d="M64981 50267
L65206 50267
" />
<path d="M65065 50070
L65065 50576
L65093 50632
L65149 50660
L65206 50660
" />
<path d="M65402 50660
L65402 50267
" />
<path d="M65402 50070
L65374 50098
L65402 50126
L65431 50098
L65402 50070
L65402 50126
" />
<path d="M65909 50632
L65852 50660
L65740 50660
L65684 50632
L65656 50576
L65656 50351
L65684 50295
L65740 50267
L65852 50267
L65909 50295
L65937 50351
L65937 50407
L65656 50464
" />
<path d="M66893 50660
L66893 50070
" />
<path d="M66893 50632
L66837 50660
L66724 50660
L66668 50632
L66640 50604
L66612 50548
L66612 50379
L66640 50323
L66668 50295
L66724 50267
L66837 50267
L66893 50295
" />
<path d="M67399 50632
L67343 50660
L67230 50660
L67174 50632
L67146 50576
L67146 50351
L67174 50295
L67230 50267
L67343 50267
L67399 50295
L67427 50351
L67427 50407
L67146 50464
" />
<path d="M68130 50267
L68130 50857
" />
<path d="M68130 50295
L68187 50267
L68299 50267
L68355 50295
L68383 50323
L68411 50379
L68411 50548
L68383 50604
L68355 50632
L68299 50660
L68187 50660
L68130 50632
" />
<path d="M68918 50267
L68918 50660
" />
<path d="M68665 50267
L68665 50576
L68693 50632
L68749 50660
L68833 50660
L68890 50632
L68918 50604
" />
<path d="M69199 50660
L69199 50267
" />
<path d="M69199 50070
L69171 50098
L69199 50126
L69227 50098
L69199 50070
L69199 50126
" />
<path d="M69452 50632
L69508 50660
L69621 50660
L69677 50632
L69705 50576
L69705 50548
L69677 50492
L69621 50464
L69536 50464
L69480 50435
L69452 50379
L69452 50351
L69480 50295
L69536 50267
L69621 50267
L69677 50295
" />
<path d="M69930 50632
L69986 50660
L70099 50660
L70155 50632
L70183 50576
L70183 50548
L70155 50492
L70099 50464
L70014 50464
L69958 50435
L69930 50379
L69930 50351
L69958 50295
L70014 50267
L70099 50267
L70155 50295
" />
<path d="M70689 50660
L70689 50351
L70661 50295
L70605 50267
L70492 50267
L70436 50295
" />
<path d="M70689 50632
L70633 50660
L70492 50660
L70436 50632
L70408 50576
L70408 50520
L70436 50464
L70492 50435
L70633 50435
L70689 50407
" />
<path d="M70971 50267
L70971 50660
" />
<path d="M70971 50323
L70999 50295
L71055 50267
L71139 50267
L71196 50295
L71224 50351
L71224 50660
" />
<path d="M71758 50632
L71702 50660
L71589 50660
L71533 50632
L71505 50604
L71477 50548
L71477 50379
L71505 50323
L71533 50295
L71589 50267
L71702 50267
L71758 50295
" />
<path d="M72236 50632
L72180 50660
L72067 50660
L72011 50632
L71983 50576
L71983 50351
L72011 50295
L72067 50267
L72180 50267
L72236 50295
L72264 50351
L72264 50407
L71983 50464
" />
<path d="M73220 50632
L73164 50660
L73052 50660
L72995 50632
L72967 50604
L72939 50548
L72939 50379
L72967 50323
L72995 50295
L73052 50267
L73164 50267
L73220 50295
" />
<path d="M73558 50660
L73501 50632
L73473 50604
L73445 50548
L73445 50379
L73473 50323
L73501 50295
L73558 50267
L73642 50267
L73698 50295
L73726 50323
L73755 50379
L73755 50548
L73726 50604
L73698 50632
L73642 50660
L73558 50660
" />
<path d="M74008 50660
L74008 50267
" />
<path d="M74008 50323
L74036 50295
L74092 50267
L74176 50267
L74233 50295
L74261 50351
L74261 50660
" />
<path d="M74261 50351
L74289 50295
L74345 50267
L74429 50267
L74486 50295
L74514 50351
L74514 50660
" />
<path d="M74795 50660
L74795 50267
" />
<path d="M74795 50323
L74823 50295
L74879 50267
L74964 50267
L75020 50295
L75048 50351
L75048 50660
" />
<path d="M75048 50351
L75076 50295
L75133 50267
L75217 50267
L75273 50295
L75301 50351
L75301 50660
" />
<path d="M75836 50660
L75836 50351
L75807 50295
L75751 50267
L75639 50267
L75582 50295
" />
<path d="M75836 50632
L75779 50660
L75639 50660
L75582 50632
L75554 50576
L75554 50520
L75582 50464
L75639 50435
L75779 50435
L75836 50407
" />
<path d="M76117 50267
L76117 50660
" />
<path d="M76117 50323
L76145 50295
L76201 50267
L76285 50267
L76342 50295
L76370 50351
L76370 50660
" />
<path d="M76904 50660
L76904 50070
" />
<path d="M76904 50632
L76848 50660
L76735 50660
L76679 50632
L76651 50604
L76623 50548
L76623 50379
L76651 50323
L76679 50295
L76735 50267
L76848 50267
L76904 50295
" />
<path d="M77410 50632
L77354 50660
L77242 50660
L77185 50632
L77157 50576
L77157 50351
L77185 50295
L77242 50267
L77354 50267
L77410 50295
L77438 50351
L77438 50407
L77157 50464
" />
<path d="M77354 50042
L77270 50126
" />
<path d="M77917 50632
L77860 50660
L77748 50660
L77692 50632
L77663 50576
L77663 50351
L77692 50295
L77748 50267
L77860 50267
L77917 50295
L77945 50351
L77945 50407
L77663 50464
" />
<path d="M63884 48495
L63603 48495
L63603 47904
" />
<path d="M64081 48186
L64278 48186
" />
<path d="M64362 48495
L64081 48495
L64081 47904
L64362 47904
" />
<path d="M64615 48495
L64615 47904
L64756 47904
L64840 47933
L64896 47989
L64924 48045
L64953 48158
L64953 48242
L64924 48354
L64896 48411
L64840 48467
L64756 48495
L64615 48495
" />
<path d="M65627 48467
L65684 48495
L65796 48495
L65852 48467
L65881 48411
L65881 48383
L65852 48326
L65796 48298
L65712 48298
L65656 48270
L65627 48214
L65627 48186
L65656 48129
L65712 48101
L65796 48101
L65852 48129
" />
<path d="M66049 48101
L66274 48101
" />
<path d="M66134 47904
L66134 48411
L66162 48467
L66218 48495
L66274 48495
" />
<path d="M66471 48495
L66471 48101
" />
<path d="M66471 48214
L66499 48158
L66527 48129
L66584 48101
L66640 48101
" />
<path d="M66837 48495
L66837 48101
" />
<path d="M66837 47904
L66809 47933
L66837 47961
L66865 47933
L66837 47904
L66837 47961
" />
<path d="M67118 48101
L67118 48692
" />
<path d="M67118 48129
L67174 48101
L67287 48101
L67343 48129
L67371 48158
L67399 48214
L67399 48383
L67371 48439
L67343 48467
L67287 48495
L67174 48495
L67118 48467
" />
<path d="M63603 46330
L63603 45739
L63743 45739
L63828 45767
L63884 45823
L63912 45880
L63940 45992
L63940 46077
L63912 46189
L63884 46245
L63828 46302
L63743 46330
L63603 46330
" />
<path d="M64193 46330
L64193 45739
L64390 46161
L64587 45739
L64587 46330
" />
<path d="M64812 45739
L65206 46330
" />
<path d="M65206 45739
L64812 46330
" />
<path d="M66302 45711
L65796 46470
" />
<path d="M67287 46330
L67090 46048
" />
<path d="M66949 46330
L66949 45739
L67174 45739
L67230 45767
L67258 45795
L67287 45852
L67287 45936
L67258 45992
L67230 46020
L67174 46048
L66949 46048
" />
<path d="M67512 46302
L67596 46330
L67737 46330
L67793 46302
L67821 46273
L67849 46217
L67849 46161
L67821 46105
L67793 46077
L67737 46048
L67624 46020
L67568 45992
L67540 45964
L67512 45908
L67512 45852
L67540 45795
L67568 45767
L67624 45739
L67765 45739
L67849 45767
" />
<path d="M68355 45936
L68355 46330
" />
<path d="M68215 45711
L68074 46133
L68440 46133
" />
<path d="M68749 45992
L68693 45964
L68665 45936
L68636 45880
L68636 45852
L68665 45795
L68693 45767
L68749 45739
L68861 45739
L68918 45767
L68946 45795
L68974 45852
L68974 45880
L68946 45936
L68918 45964
L68861 45992
L68749 45992
L68693 46020
L68665 46048
L68636 46105
L68636 46217
L68665 46273
L68693 46302
L68749 46330
L68861 46330
L68918 46302
L68946 46273
L68974 46217
L68974 46105
L68946 46048
L68918 46020
L68861 45992
" />
<path d="M69508 45739
L69227 45739
L69199 46020
L69227 45992
L69283 45964
L69424 45964
L69480 45992
L69508 46020
L69536 46077
L69536 46217
L69508 46273
L69480 46302
L69424 46330
L69283 46330
L69227 46302
L69199 46273
" />
<path d="M63603 42871
L63800 42871
" />
<path d="M63884 43180
L63603 43180
L63603 42589
L63884 42589
" />
<path d="M64390 43152
L64334 43180
L64221 43180
L64165 43152
L64137 43124
L64109 43068
L64109 42899
L64137 42843
L64165 42814
L64221 42786
L64334 42786
L64390 42814
" />
<path d="M64643 43180
L64643 42786
" />
<path d="M64643 42899
L64671 42843
L64699 42814
L64756 42786
L64812 42786
" />
<path d="M65262 43180
L65262 42871
L65234 42814
L65178 42786
L65065 42786
L65009 42814
" />
<path d="M65262 43152
L65206 43180
L65065 43180
L65009 43152
L64981 43096
L64981 43039
L65009 42983
L65065 42955
L65206 42955
L65262 42927
" />
<path d="M65543 42786
L65543 43180
" />
<path d="M65543 42843
L65571 42814
L65627 42786
L65712 42786
L65768 42814
L65796 42871
L65796 43180
" />
<path d="M66640 42589
L66752 42589
L66809 42618
L66865 42674
L66893 42786
L66893 42983
L66865 43096
L66809 43152
L66752 43180
L66640 43180
L66584 43152
L66527 43096
L66499 42983
L66499 42786
L66527 42674
L66584 42618
L66640 42589
" />
<path d="M67427 43180
L67146 43180
L67146 42589
" />
<path d="M67624 42871
L67821 42871
" />
<path d="M67905 43180
L67624 43180
L67624 42589
L67905 42589
" />
<path d="M68158 43180
L68158 42589
L68299 42589
L68383 42618
L68440 42674
L68468 42730
L68496 42843
L68496 42927
L68468 43039
L68440 43096
L68383 43152
L68299 43180
L68158 43180
" />
<path d="M63603 39721
L63800 39721
" />
<path d="M63884 40030
L63603 40030
L63603 39440
L63884 39440
" />
<path d="M64081 40030
L64390 39637
" />
<path d="M64081 39637
L64390 40030
" />
<path d="M64531 39637
L64756 39637
" />
<path d="M64615 39440
L64615 39946
L64643 40002
L64699 40030
L64756 40030
" />
<path d="M65178 40002
L65121 40030
L65009 40030
L64953 40002
L64924 39946
L64924 39721
L64953 39665
L65009 39637
L65121 39637
L65178 39665
L65206 39721
L65206 39777
L64924 39834
" />
<path d="M65459 39637
L65459 40030
" />
<path d="M65459 39693
L65487 39665
L65543 39637
L65627 39637
L65684 39665
L65712 39721
L65712 40030
" />
<path d="M65965 40002
L66021 40030
L66134 40030
L66190 40002
L66218 39946
L66218 39918
L66190 39862
L66134 39834
L66049 39834
L65993 39805
L65965 39749
L65965 39721
L65993 39665
L66049 39637
L66134 39637
L66190 39665
" />
<path d="M66471 40030
L66471 39637
" />
<path d="M66471 39440
L66443 39468
L66471 39496
L66499 39468
L66471 39440
L66471 39496
" />
<path d="M66837 40030
L66780 40002
L66752 39974
L66724 39918
L66724 39749
L66752 39693
L66780 39665
L66837 39637
L66921 39637
L66977 39665
L67005 39693
L67034 39749
L67034 39918
L67005 39974
L66977 40002
L66921 40030
L66837 40030
" />
<path d="M67287 39637
L67287 40030
" />
<path d="M67287 39693
L67315 39665
L67371 39637
L67455 39637
L67512 39665
L67540 39721
L67540 40030
" />
<path d="M63603 35503
L63603 34912
" />
<path d="M63884 35109
L63884 35503
" />
<path d="M63884 35165
L63912 35137
L63968 35109
L64053 35109
L64109 35137
L64137 35194
L64137 35503
" />
<path d="M64334 35109
L64559 35109
" />
<path d="M64418 34912
L64418 35419
L64446 35475
L64503 35503
L64559 35503
" />
<path d="M64981 35475
L64924 35503
L64812 35503
L64756 35475
L64728 35419
L64728 35194
L64756 35137
L64812 35109
L64924 35109
L64981 35137
L65009 35194
L65009 35250
L64728 35306
" />
<path d="M65262 35503
L65262 35109
" />
<path d="M65262 35222
L65290 35165
L65318 35137
L65374 35109
L65431 35109
" />
<path d="M65627 35447
L65656 35475
L65627 35503
L65599 35475
L65627 35447
L65627 35503
" />
<path d="M66471 34912
L66584 34912
L66640 34940
L66696 34997
L66724 35109
L66724 35306
L66696 35419
L66640 35475
L66584 35503
L66471 35503
L66415 35475
L66359 35419
L66330 35306
L66330 35109
L66359 34997
L66415 34940
L66471 34912
" />
<path d="M66977 35109
L66977 35503
" />
<path d="M66977 35165
L67005 35137
L67062 35109
L67146 35109
L67202 35137
L67230 35194
L67230 35503
" />
<path d="M67933 34884
L67427 35643
" />
<path d="M68243 34912
L68355 34912
L68411 34940
L68468 34997
L68496 35109
L68496 35306
L68468 35419
L68411 35475
L68355 35503
L68243 35503
L68187 35475
L68130 35419
L68102 35306
L68102 35109
L68130 34997
L68187 34940
L68243 34912
" />
<path d="M68665 35109
L68890 35109
" />
<path d="M68749 35503
L68749 34997
L68777 34940
L68833 34912
L68890 34912
" />
<path d="M69002 35109
L69227 35109
" />
<path d="M69086 35503
L69086 34997
L69115 34940
L69171 34912
L69227 34912
" />
<path d="M70127 35503
L70127 34912
" />
<path d="M70127 35475
L70071 35503
L69958 35503
L69902 35475
L69874 35447
L69846 35390
L69846 35222
L69874 35165
L69902 35137
L69958 35109
L70071 35109
L70127 35137
" />
<path d="M70633 35475
L70577 35503
L70464 35503
L70408 35475
L70380 35419
L70380 35194
L70408 35137
L70464 35109
L70577 35109
L70633 35137
L70661 35194
L70661 35250
L70380 35306
" />
<path d="M70577 34884
L70492 34969
" />
<path d="M70914 35109
L70914 35700
" />
<path d="M70914 35137
L70971 35109
L71083 35109
L71139 35137
L71167 35165
L71196 35222
L71196 35390
L71167 35447
L71139 35475
L71083 35503
L70971 35503
L70914 35475
" />
<path d="M71533 35503
L71477 35475
L71449 35447
L71420 35390
L71420 35222
L71449 35165
L71477 35137
L71533 35109
L71617 35109
L71674 35137
L71702 35165
L71730 35222
L71730 35390
L71702 35447
L71674 35475
L71617 35503
L71533 35503
" />
<path d="M71983 35503
L71983 35109
" />
<path d="M71983 35222
L72011 35165
L72039 35137
L72095 35109
L72152 35109
" />
<path d="M72264 35109
L72489 35109
" />
<path d="M72348 34912
L72348 35419
L72377 35475
L72433 35503
L72489 35503
" />
<path d="M72911 35475
L72855 35503
L72742 35503
L72686 35475
L72658 35419
L72658 35194
L72686 35137
L72742 35109
L72855 35109
L72911 35137
L72939 35194
L72939 35250
L72658 35306
" />
<path d="M72855 34884
L72770 34969
" />
</g>
<g style="fill:#000000; fill-opacity:0.0; 
stroke:#000000; stroke-width:59.0551; stroke-opacity:1; 
stroke-linecap:round; stroke-linejoin:round;">
<path d="M62795 51968
L57480 51968
" />
<path d="M62795 54330
L62795 51968
" />
<path d="M57480 54330
L62795 54330
" />
<path d="M57480 51968
L57480 54330
" />
<path d="M45866 52165
L40551 52165
" />
<path d="M45866 54330
L45866 52165
" />
<path d="M40551 54330
L45866 54330
" />
<path d="M40551 52165
L40551 54330
" />
<path d="M45866 48622
L40354 48622
" />
<path d="M45866 51574
L45866 48622
" />
<path d="M40354 51574
L45866 51574
" />
<path d="M40354 48622
L40354 51574
" />
<path d="M60039 40944
L58858 40944
" />
<path d="M60039 45275
L60039 40944
" />
<path d="M58858 45275
L60039 45275
" />
<path d="M58858 40944
L58858 45275
" />
<path d="M58267 38976
L56102 38976
" />
<path d="M58267 49212
L58267 38976
" />
<path d="M56102 49212
L58267 49212
" />
<path d="M56102 38976
L56102 49212
" />
<path d="M55314 41338
L53937 41338
" />
<path d="M55314 44881
L55314 41338
" />
<path d="M53937 44881
L55314 44881
" />
<path d="M53937 41338
L53937 44881
" />
<path d="M62401 34645
L59251 34645
" />
<path d="M62401 36023
L62401 34645
" />
<path d="M59251 36023
L62401 36023
" />
<path d="M59251 34645
L59251 36023
" />
<g >
</g>
<g >
</g>
<g >
</g>
<g >
</g>
<g >
</g>
<g >
</g>
<g >
</g>
<g >
</g>
<g >
</g>
<g >
</g>
<g >
</g>
<g >
</g>
<g >
</g>
<g >
</g>
<g >
</g>
<g >
</g>
<g >
</g>
<g >
</g>
<g >
</g>
<g >
</g>
<g >
</g>
<g >
</g>
<g >
</g>
<g >
</g>
<g >
</g>
<g >
</g>
<g >
</g>
<g >
</g>
<g >
</g>
<g >
</g>
<g >
</g>
<g >
</g>
<g >
</g>
<g >
</g>
<g >
</g>
<g >
</g>
<g >
</g>
<g >
</g>
<g >
</g>
<g >
</g>
<g >
</g>
<g >
</g>
<g >
</g>
<g >
</g>
<g >
</g>
<g >
</g>
<g >
</g>
<g >
</g>
<g >
</g>
<g >
</g>
<g >
</g>
<g >
</g>
<g >
</g>
<g >
</g>
<g >
</g>
<g >
</g>
<g >
</g>
<g >
</g>
<g >
</g>
<g >
</g>
<g >
</g>
<g >
</g>
<g >
</g>
<g >
</g>
<g >
</g>
<g >
</g>
<g >
</g>
<g >
</g>
<g >
</g>
<g >
</g>
<g >
</g>
<g >
</g>
<g >
</g>
<g >
</g>
<g >
</g>
<g >
</g>
<g >
</g>
<g >
</g>
<g >
</g>
<g >
</g>
<g >
</g>
<g >
</g>
<g >
</g>
<g >
</g>
<g >
</g>
<g >
</g>
<g >
</g>
<g >
</g>
<g >
</g>
<g >
</g>
<g >
</g>
<g >
</g>
<g >
</g>
<g >
</g>
<g >
</g>
<g >
</g>
<g >
</g>
<g >
</g>
<g >
</g>
<g >
</g>
</g> 
</svg>
