%TF.GenerationSoftware,KiCad,Pcbnew,(6.0.6)*%
%TF.CreationDate,2022-07-06T10:55:58+02:00*%
%TF.ProjectId,panel,70616e65-6c2e-46b6-9963-61645f706362,3.0*%
%TF.SameCoordinates,PXe4e1c0PYe4e1c0*%
%TF.FileFunction,Paste,Bot*%
%TF.FilePolarity,Positive*%
%FSLAX46Y46*%
G04 Gerber Fmt 4.6, Leading zero omitted, Abs format (unit mm)*
G04 Created by KiCad (PCBNEW (6.0.6)) date 2022-07-06 10:55:58*
%MOMM*%
%LPD*%
G01*
G04 APERTURE LIST*
G04 Aperture macros list*
%AMRoundRect*
0 Rectangle with rounded corners*
0 $1 Rounding radius*
0 $2 $3 $4 $5 $6 $7 $8 $9 X,Y pos of 4 corners*
0 Add a 4 corners polygon primitive as box body*
4,1,4,$2,$3,$4,$5,$6,$7,$8,$9,$2,$3,0*
0 Add four circle primitives for the rounded corners*
1,1,$1+$1,$2,$3*
1,1,$1+$1,$4,$5*
1,1,$1+$1,$6,$7*
1,1,$1+$1,$8,$9*
0 Add four rect primitives between the rounded corners*
20,1,$1+$1,$2,$3,$4,$5,0*
20,1,$1+$1,$4,$5,$6,$7,0*
20,1,$1+$1,$6,$7,$8,$9,0*
20,1,$1+$1,$8,$9,$2,$3,0*%
G04 Aperture macros list end*
%ADD10RoundRect,0.218750X-0.218750X-0.256250X0.218750X-0.256250X0.218750X0.256250X-0.218750X0.256250X0*%
%ADD11RoundRect,0.218750X0.218750X0.256250X-0.218750X0.256250X-0.218750X-0.256250X0.218750X-0.256250X0*%
G04 APERTURE END LIST*
D10*
%TO.C,B1-R14*%
X86712500Y-56750000D03*
X88287500Y-56750000D03*
%TD*%
D11*
%TO.C,B6-R30*%
X23787500Y-175750000D03*
X22212500Y-175750000D03*
%TD*%
D10*
%TO.C,B0-R14*%
X28212500Y-56750000D03*
X29787500Y-56750000D03*
%TD*%
%TO.C,B0-R29*%
X22212500Y-58250000D03*
X23787500Y-58250000D03*
%TD*%
%TO.C,B3-R14*%
X28212500Y-116250000D03*
X29787500Y-116250000D03*
%TD*%
D11*
%TO.C,B1-R13*%
X88287500Y-58250000D03*
X86712500Y-58250000D03*
%TD*%
%TO.C,B0-R30*%
X23787500Y-56750000D03*
X22212500Y-56750000D03*
%TD*%
%TO.C,B1-R30*%
X82287500Y-56750000D03*
X80712500Y-56750000D03*
%TD*%
D10*
%TO.C,B5-R14*%
X145212500Y-116250000D03*
X146787500Y-116250000D03*
%TD*%
%TO.C,B4-R29*%
X80712500Y-117750000D03*
X82287500Y-117750000D03*
%TD*%
%TO.C,B1-R29*%
X80712500Y-58250000D03*
X82287500Y-58250000D03*
%TD*%
%TO.C,B2-R14*%
X145212500Y-56750000D03*
X146787500Y-56750000D03*
%TD*%
%TO.C,B8-R14*%
X145212500Y-175750000D03*
X146787500Y-175750000D03*
%TD*%
%TO.C,B6-R14*%
X28212500Y-175750000D03*
X29787500Y-175750000D03*
%TD*%
D11*
%TO.C,B2-R13*%
X146787500Y-58250000D03*
X145212500Y-58250000D03*
%TD*%
%TO.C,B4-R30*%
X82287500Y-116250000D03*
X80712500Y-116250000D03*
%TD*%
D10*
%TO.C,B8-R29*%
X139212500Y-177250000D03*
X140787500Y-177250000D03*
%TD*%
D11*
%TO.C,B4-R13*%
X88287500Y-117750000D03*
X86712500Y-117750000D03*
%TD*%
%TO.C,B2-R30*%
X140787500Y-56750000D03*
X139212500Y-56750000D03*
%TD*%
D10*
%TO.C,B2-R29*%
X139212500Y-58250000D03*
X140787500Y-58250000D03*
%TD*%
D11*
%TO.C,B0-R13*%
X29787500Y-58250000D03*
X28212500Y-58250000D03*
%TD*%
D10*
%TO.C,B4-R14*%
X86712500Y-116250000D03*
X88287500Y-116250000D03*
%TD*%
D11*
%TO.C,B7-R13*%
X88287500Y-177250000D03*
X86712500Y-177250000D03*
%TD*%
D10*
%TO.C,B3-R29*%
X22212500Y-117750000D03*
X23787500Y-117750000D03*
%TD*%
%TO.C,B6-R29*%
X22212500Y-177250000D03*
X23787500Y-177250000D03*
%TD*%
D11*
%TO.C,B8-R13*%
X146787500Y-177250000D03*
X145212500Y-177250000D03*
%TD*%
%TO.C,B5-R30*%
X140787500Y-116250000D03*
X139212500Y-116250000D03*
%TD*%
%TO.C,B5-R13*%
X146787500Y-117750000D03*
X145212500Y-117750000D03*
%TD*%
D10*
%TO.C,B7-R14*%
X86712500Y-175750000D03*
X88287500Y-175750000D03*
%TD*%
D11*
%TO.C,B8-R30*%
X140787500Y-175750000D03*
X139212500Y-175750000D03*
%TD*%
D10*
%TO.C,B5-R29*%
X139212500Y-117750000D03*
X140787500Y-117750000D03*
%TD*%
D11*
%TO.C,B7-R30*%
X82287500Y-175750000D03*
X80712500Y-175750000D03*
%TD*%
%TO.C,B3-R13*%
X29787500Y-117750000D03*
X28212500Y-117750000D03*
%TD*%
%TO.C,B3-R30*%
X23787500Y-116250000D03*
X22212500Y-116250000D03*
%TD*%
%TO.C,B6-R13*%
X29787500Y-177250000D03*
X28212500Y-177250000D03*
%TD*%
D10*
%TO.C,B7-R29*%
X80712500Y-177250000D03*
X82287500Y-177250000D03*
%TD*%
M02*
