<?xml version="1.0" standalone="no"?>
 <!DOCTYPE svg PUBLIC "-//W3C//DTD SVG 1.1//EN" 
 "http://www.w3.org/Graphics/SVG/1.1/DTD/svg11.dtd"> 
<svg
  xmlns:svg="http://www.w3.org/2000/svg"
  xmlns="http://www.w3.org/2000/svg"
  xmlns:xlink="http://www.w3.org/1999/xlink"
  version="1.1"
  width="29.700220cm" height="21.000720cm" viewBox="0 0 116930 82680">
<title>SVG Picture created as KXKM_ESP32_battery_management_board-Eco1_User.svg date 2021/09/13 07:59:10 </title>
  <desc>Picture generated by PCBNEW </desc>
<g style="fill:#000000; fill-opacity:1;stroke:#000000; stroke-opacity:1;
stroke-linecap:round; stroke-linejoin:round;"
 transform="translate(0 0) scale(1 1)">
</g>
<g style="fill:#000000; fill-opacity:0.0; 
stroke:#000000; stroke-width:-0.000393701; stroke-opacity:1; 
stroke-linecap:round; stroke-linejoin:round;">
</g>
<g style="fill:#000000; fill-opacity:0.0; 
stroke:#000000; stroke-width:118.11; stroke-opacity:1; 
stroke-linecap:round; stroke-linejoin:round;">
<text x="63385.8" y="33366.1"
textLength="10586.6" font-size="787.402" lengthAdjust="spacingAndGlyphs"
text-anchor="start" opacity="0">Dip Switch 3-positions</text>
<path d="M63603 33338
L63603 32747
L63743 32747
L63828 32775
L63884 32831
L63912 32888
L63940 33000
L63940 33084
L63912 33197
L63884 33253
L63828 33309
L63743 33338
L63603 33338
" />
<path d="M64193 33338
L64193 32944
" />
<path d="M64193 32747
L64165 32775
L64193 32803
L64221 32775
L64193 32747
L64193 32803
" />
<path d="M64474 32944
L64474 33534
" />
<path d="M64474 32972
L64531 32944
L64643 32944
L64699 32972
L64728 33000
L64756 33056
L64756 33225
L64728 33281
L64699 33309
L64643 33338
L64531 33338
L64474 33309
" />
<path d="M65431 33309
L65515 33338
L65656 33338
L65712 33309
L65740 33281
L65768 33225
L65768 33169
L65740 33113
L65712 33084
L65656 33056
L65543 33028
L65487 33000
L65459 32972
L65431 32916
L65431 32859
L65459 32803
L65487 32775
L65543 32747
L65684 32747
L65768 32775
" />
<path d="M65965 32944
L66077 33338
L66190 33056
L66302 33338
L66415 32944
" />
<path d="M66640 33338
L66640 32944
" />
<path d="M66640 32747
L66612 32775
L66640 32803
L66668 32775
L66640 32747
L66640 32803
" />
<path d="M66837 32944
L67062 32944
" />
<path d="M66921 32747
L66921 33253
L66949 33309
L67005 33338
L67062 33338
" />
<path d="M67512 33309
L67455 33338
L67343 33338
L67287 33309
L67258 33281
L67230 33225
L67230 33056
L67258 33000
L67287 32972
L67343 32944
L67455 32944
L67512 32972
" />
<path d="M67765 33338
L67765 32747
" />
<path d="M68018 33338
L68018 33028
L67990 32972
L67933 32944
L67849 32944
L67793 32972
L67765 33000
" />
<path d="M68693 32747
L69058 32747
L68861 32972
L68946 32972
L69002 33000
L69030 33028
L69058 33084
L69058 33225
L69030 33281
L69002 33309
L68946 33338
L68777 33338
L68721 33309
L68693 33281
" />
<path d="M69311 33113
L69761 33113
" />
<path d="M70043 32944
L70043 33534
" />
<path d="M70043 32972
L70099 32944
L70211 32944
L70267 32972
L70296 33000
L70324 33056
L70324 33225
L70296 33281
L70267 33309
L70211 33338
L70099 33338
L70043 33309
" />
<path d="M70661 33338
L70605 33309
L70577 33281
L70549 33225
L70549 33056
L70577 33000
L70605 32972
L70661 32944
L70746 32944
L70802 32972
L70830 33000
L70858 33056
L70858 33225
L70830 33281
L70802 33309
L70746 33338
L70661 33338
" />
<path d="M71083 33309
L71139 33338
L71252 33338
L71308 33309
L71336 33253
L71336 33225
L71308 33169
L71252 33141
L71167 33141
L71111 33113
L71083 33056
L71083 33028
L71111 32972
L71167 32944
L71252 32944
L71308 32972
" />
<path d="M71589 33338
L71589 32944
" />
<path d="M71589 32747
L71561 32775
L71589 32803
L71617 32775
L71589 32747
L71589 32803
" />
<path d="M71786 32944
L72011 32944
" />
<path d="M71870 32747
L71870 33253
L71899 33309
L71955 33338
L72011 33338
" />
<path d="M72208 33338
L72208 32944
" />
<path d="M72208 32747
L72180 32775
L72208 32803
L72236 32775
L72208 32747
L72208 32803
" />
<path d="M72573 33338
L72517 33309
L72489 33281
L72461 33225
L72461 33056
L72489 33000
L72517 32972
L72573 32944
L72658 32944
L72714 32972
L72742 33000
L72770 33056
L72770 33225
L72742 33281
L72714 33309
L72658 33338
L72573 33338
" />
<path d="M73023 32944
L73023 33338
" />
<path d="M73023 33000
L73052 32972
L73108 32944
L73192 32944
L73248 32972
L73276 33028
L73276 33338
" />
<path d="M73530 33309
L73586 33338
L73698 33338
L73755 33309
L73783 33253
L73783 33225
L73755 33169
L73698 33141
L73614 33141
L73558 33113
L73530 33056
L73530 33028
L73558 32972
L73614 32944
L73698 32944
L73755 32972
" />
</g>
<g style="fill:#000000; fill-opacity:0.0; 
stroke:#000000; stroke-width:59.0551; stroke-opacity:1; 
stroke-linecap:round; stroke-linejoin:round;">
<path d="M53149 33070
L63385 33070
" />
<path d="M50000 36023
L50000 31889
" />
<path d="M53149 36023
L50000 36023
" />
<path d="M53149 31889
L53149 36023
" />
<path d="M50000 31889
L53149 31889
" />
</g>
<g style="fill:#000000; fill-opacity:0.0; 
stroke:#000000; stroke-width:118.11; stroke-opacity:1; 
stroke-linecap:round; stroke-linejoin:round;">
<g transform="rotate(-90 43031.5 49803.1)">
<text x="43031.5" y="50098.4"
textLength="1306.52" font-size="787.402" lengthAdjust="spacingAndGlyphs"
text-anchor="middle" opacity="0">D2</text>
</g>
<path d="M43298 50239
L42708 50239
L42708 50098
L42736 50014
L42792 49957
L42848 49929
L42961 49901
L43045 49901
L43158 49929
L43214 49957
L43270 50014
L43298 50098
L43298 50239
" />
<path d="M42764 49676
L42736 49648
L42708 49592
L42708 49451
L42736 49395
L42764 49367
L42820 49339
L42876 49339
L42961 49367
L43298 49704
L43298 49339
" />
<g transform="rotate(-90 41456.7 49803.1)">
<text x="41456.7" y="50098.4"
textLength="1306.52" font-size="787.402" lengthAdjust="spacingAndGlyphs"
text-anchor="middle" opacity="0">D1</text>
</g>
<path d="M41723 50239
L41133 50239
L41133 50098
L41161 50014
L41217 49957
L41273 49929
L41386 49901
L41470 49901
L41583 49929
L41639 49957
L41695 50014
L41723 50098
L41723 50239
" />
<path d="M41723 49339
L41723 49676
" />
<path d="M41723 49507
L41133 49507
L41217 49564
L41273 49620
L41302 49676
" />
</g>
<g style="fill:#000000; fill-opacity:0.0; 
stroke:#000000; stroke-width:157.48; stroke-opacity:1; 
stroke-linecap:round; stroke-linejoin:round;">
<g transform="rotate(-90 42834.6 48228.3)">
<text x="42834.6" y="48622"
textLength="1128.42" font-size="1049.87" lengthAdjust="spacingAndGlyphs"
text-anchor="middle" opacity="0">+</text>
</g>
<path d="M42890 48528
L42890 47928
" />
<path d="M43190 48228
L42590 48228
" />
<g transform="rotate(-90 41456.7 48228.3)">
<text x="41456.7" y="48622"
textLength="1179.6" font-size="1049.87" lengthAdjust="spacingAndGlyphs"
text-anchor="middle" opacity="0">+</text>
</g>
<path d="M41512 48528
L41512 47928
" />
<path d="M41812 48228
L41212 48228
" />
<g transform="rotate(-90 41456.7 51378)">
<text x="41456.7" y="51771.7"
textLength="1179.6" font-size="1049.87" lengthAdjust="spacingAndGlyphs"
text-anchor="middle" opacity="0">-</text>
</g>
<path d="M41512 51677
L41512 51077
" />
<g transform="rotate(-90 42834.6 51378)">
<text x="42834.6" y="51771.7"
textLength="1179.6" font-size="1049.87" lengthAdjust="spacingAndGlyphs"
text-anchor="middle" opacity="0">-</text>
</g>
<path d="M42890 51677
L42890 51077
" />
<text x="58661.4" y="53543.3"
textLength="1179.6" font-size="1049.87" lengthAdjust="spacingAndGlyphs"
text-anchor="middle" opacity="0">-</text>
<path d="M58361 53205
L58961 53205
" />
<text x="61614.2" y="53543.3"
textLength="1179.6" font-size="1049.87" lengthAdjust="spacingAndGlyphs"
text-anchor="middle" opacity="0">+</text>
<path d="M61314 53205
L61914 53205
" />
<path d="M61614 53505
L61614 52905
" />
<text x="44685" y="53543.3"
textLength="1179.6" font-size="1049.87" lengthAdjust="spacingAndGlyphs"
text-anchor="middle" opacity="0">+</text>
<path d="M44385 53205
L44985 53205
" />
<path d="M44685 53505
L44685 52905
" />
<text x="41732.3" y="53543.3"
textLength="1179.6" font-size="1049.87" lengthAdjust="spacingAndGlyphs"
text-anchor="middle" opacity="0">-</text>
<path d="M41432 53205
L42032 53205
" />
</g>
<g style="fill:#000000; fill-opacity:0.0; 
stroke:#000000; stroke-width:59.0551; stroke-opacity:1; 
stroke-linecap:round; stroke-linejoin:round;">
<text x="53622" y="44842.5"
textLength="542.182" font-size="524.934" lengthAdjust="spacingAndGlyphs"
text-anchor="middle" opacity="0">A</text>
<path d="M53528 44711
L53715 44711
" />
<path d="M53490 44823
L53622 44430
L53753 44823
" />
<text x="53622" y="43897.6"
textLength="470.472" font-size="524.934" lengthAdjust="spacingAndGlyphs"
text-anchor="middle" opacity="0">B</text>
<path d="M53650 43672
L53706 43691
L53725 43710
L53743 43747
L53743 43803
L53725 43841
L53706 43860
L53668 43878
L53518 43878
L53518 43485
L53650 43485
L53687 43503
L53706 43522
L53725 43560
L53725 43597
L53706 43635
L53687 43653
L53650 43672
L53518 43672
" />
<text x="53622" y="42952.8"
textLength="564.211" font-size="524.934" lengthAdjust="spacingAndGlyphs"
text-anchor="middle" opacity="0">-</text>
<path d="M53472 42784
L53772 42784
" />
<text x="60826.8" y="44685"
textLength="1182.88" font-size="524.934" lengthAdjust="spacingAndGlyphs"
text-anchor="middle" opacity="0">SDA</text>
<path d="M60348 44647
L60404 44666
L60498 44666
L60536 44647
L60554 44628
L60573 44591
L60573 44553
L60554 44516
L60536 44497
L60498 44478
L60423 44460
L60386 44441
L60367 44422
L60348 44385
L60348 44347
L60367 44310
L60386 44291
L60423 44272
L60517 44272
L60573 44291
" />
<path d="M60742 44666
L60742 44272
L60836 44272
L60892 44291
L60929 44328
L60948 44366
L60967 44441
L60967 44497
L60948 44572
L60929 44610
L60892 44647
L60836 44666
L60742 44666
" />
<path d="M61117 44553
L61304 44553
" />
<path d="M61079 44666
L61211 44272
L61342 44666
" />
<text x="60826.8" y="43700.8"
textLength="1164.14" font-size="524.934" lengthAdjust="spacingAndGlyphs"
text-anchor="middle" opacity="0">SCL</text>
<path d="M60358 43663
L60414 43682
L60508 43682
L60545 43663
L60564 43644
L60583 43607
L60583 43569
L60564 43532
L60545 43513
L60508 43494
L60433 43475
L60395 43457
L60376 43438
L60358 43400
L60358 43363
L60376 43325
L60395 43307
L60433 43288
L60526 43288
L60583 43307
" />
<path d="M60976 43644
L60958 43663
L60901 43682
L60864 43682
L60808 43663
L60770 43625
L60751 43588
L60733 43513
L60733 43457
L60751 43382
L60770 43344
L60808 43307
L60864 43288
L60901 43288
L60958 43307
L60976 43325
" />
<path d="M61332 43682
L61145 43682
L61145 43288
" />
<text x="61181.1" y="42755.9"
textLength="1839.05" font-size="524.934" lengthAdjust="spacingAndGlyphs"
text-anchor="middle" opacity="0">+3.3V</text>
<path d="M60393 42587
L60693 42587
" />
<path d="M60543 42737
L60543 42437
" />
<path d="M60843 42343
L61087 42343
L60956 42493
L61012 42493
L61049 42512
L61068 42530
L61087 42568
L61087 42662
L61068 42699
L61049 42718
L61012 42737
L60899 42737
L60862 42718
L60843 42699
" />
<path d="M61256 42699
L61274 42718
L61256 42737
L61237 42718
L61256 42699
L61256 42737
" />
<path d="M61406 42343
L61649 42343
L61518 42493
L61574 42493
L61612 42512
L61631 42530
L61649 42568
L61649 42662
L61631 42699
L61612 42718
L61574 42737
L61462 42737
L61424 42718
L61406 42699
" />
<path d="M61762 42343
L61893 42737
L62024 42343
" />
<text x="61063" y="41811"
textLength="1276.62" font-size="524.934" lengthAdjust="spacingAndGlyphs"
text-anchor="middle" opacity="0">GND</text>
<path d="M60763 41417
L60725 41398
L60669 41398
L60613 41417
L60575 41454
L60556 41492
L60538 41567
L60538 41623
L60556 41698
L60575 41736
L60613 41773
L60669 41792
L60706 41792
L60763 41773
L60781 41754
L60781 41623
L60706 41623
" />
<path d="M60950 41792
L60950 41398
L61175 41792
L61175 41398
" />
<path d="M61362 41792
L61362 41398
L61456 41398
L61512 41417
L61550 41454
L61569 41492
L61587 41567
L61587 41623
L61569 41698
L61550 41736
L61512 41773
L61456 41792
L61362 41792
" />
<path d="M63385 53149
L62795 53149
" />
<path d="M48228 50393
L45866 53149
" />
<path d="M63385 50393
L48228 50393
" />
<path d="M45000 48188
L43818 49173
" />
<path d="M63385 48228
L45000 48188
" />
<path d="M58661 46062
L55314 43110
" />
<path d="M63385 46062
L58661 46062
" />
<path d="M63385 42874
L60196 42874
" />
<path d="M63385 39763
L58267 39763
" />
<path d="M63385 35236
L62401 35236
" />
</g>
<g style="fill:#000000; fill-opacity:0.0; 
stroke:#000000; stroke-width:118.11; stroke-opacity:1; 
stroke-linecap:round; stroke-linejoin:round;">
<text x="63385.8" y="53444.9"
textLength="6713.44" font-size="787.402" lengthAdjust="spacingAndGlyphs"
text-anchor="start" opacity="0">Entrée batterie</text>
<path d="M63603 53107
L63800 53107
" />
<path d="M63884 53416
L63603 53416
L63603 52826
L63884 52826
" />
<path d="M64137 53023
L64137 53416
" />
<path d="M64137 53079
L64165 53051
L64221 53023
L64306 53023
L64362 53051
L64390 53107
L64390 53416
" />
<path d="M64587 53023
L64812 53023
" />
<path d="M64671 52826
L64671 53332
L64699 53388
L64756 53416
L64812 53416
" />
<path d="M65009 53416
L65009 53023
" />
<path d="M65009 53135
L65037 53079
L65065 53051
L65121 53023
L65178 53023
" />
<path d="M65599 53388
L65543 53416
L65431 53416
L65374 53388
L65346 53332
L65346 53107
L65374 53051
L65431 53023
L65543 53023
L65599 53051
L65627 53107
L65627 53163
L65346 53219
" />
<path d="M65543 52798
L65459 52882
" />
<path d="M66106 53388
L66049 53416
L65937 53416
L65881 53388
L65852 53332
L65852 53107
L65881 53051
L65937 53023
L66049 53023
L66106 53051
L66134 53107
L66134 53163
L65852 53219
" />
<path d="M66837 53416
L66837 52826
" />
<path d="M66837 53051
L66893 53023
L67005 53023
L67062 53051
L67090 53079
L67118 53135
L67118 53304
L67090 53360
L67062 53388
L67005 53416
L66893 53416
L66837 53388
" />
<path d="M67624 53416
L67624 53107
L67596 53051
L67540 53023
L67427 53023
L67371 53051
" />
<path d="M67624 53388
L67568 53416
L67427 53416
L67371 53388
L67343 53332
L67343 53276
L67371 53219
L67427 53191
L67568 53191
L67624 53163
" />
<path d="M67821 53023
L68046 53023
" />
<path d="M67905 52826
L67905 53332
L67933 53388
L67990 53416
L68046 53416
" />
<path d="M68158 53023
L68383 53023
" />
<path d="M68243 52826
L68243 53332
L68271 53388
L68327 53416
L68383 53416
" />
<path d="M68805 53388
L68749 53416
L68636 53416
L68580 53388
L68552 53332
L68552 53107
L68580 53051
L68636 53023
L68749 53023
L68805 53051
L68833 53107
L68833 53163
L68552 53219
" />
<path d="M69086 53416
L69086 53023
" />
<path d="M69086 53135
L69115 53079
L69143 53051
L69199 53023
L69255 53023
" />
<path d="M69452 53416
L69452 53023
" />
<path d="M69452 52826
L69424 52854
L69452 52882
L69480 52854
L69452 52826
L69452 52882
" />
<path d="M69958 53388
L69902 53416
L69789 53416
L69733 53388
L69705 53332
L69705 53107
L69733 53051
L69789 53023
L69902 53023
L69958 53051
L69986 53107
L69986 53163
L69705 53219
" />
<text x="63385.8" y="50689"
textLength="14748.6" font-size="787.402" lengthAdjust="spacingAndGlyphs"
text-anchor="start" opacity="0">Sortie de puissance commandée</text>
<path d="M63575 50632
L63659 50660
L63800 50660
L63856 50632
L63884 50604
L63912 50548
L63912 50492
L63884 50435
L63856 50407
L63800 50379
L63687 50351
L63631 50323
L63603 50295
L63575 50239
L63575 50182
L63603 50126
L63631 50098
L63687 50070
L63828 50070
L63912 50098
" />
<path d="M64250 50660
L64193 50632
L64165 50604
L64137 50548
L64137 50379
L64165 50323
L64193 50295
L64250 50267
L64334 50267
L64390 50295
L64418 50323
L64446 50379
L64446 50548
L64418 50604
L64390 50632
L64334 50660
L64250 50660
" />
<path d="M64699 50660
L64699 50267
" />
<path d="M64699 50379
L64728 50323
L64756 50295
L64812 50267
L64868 50267
" />
<path d="M64981 50267
L65206 50267
" />
<path d="M65065 50070
L65065 50576
L65093 50632
L65149 50660
L65206 50660
" />
<path d="M65402 50660
L65402 50267
" />
<path d="M65402 50070
L65374 50098
L65402 50126
L65431 50098
L65402 50070
L65402 50126
" />
<path d="M65909 50632
L65852 50660
L65740 50660
L65684 50632
L65656 50576
L65656 50351
L65684 50295
L65740 50267
L65852 50267
L65909 50295
L65937 50351
L65937 50407
L65656 50464
" />
<path d="M66893 50660
L66893 50070
" />
<path d="M66893 50632
L66837 50660
L66724 50660
L66668 50632
L66640 50604
L66612 50548
L66612 50379
L66640 50323
L66668 50295
L66724 50267
L66837 50267
L66893 50295
" />
<path d="M67399 50632
L67343 50660
L67230 50660
L67174 50632
L67146 50576
L67146 50351
L67174 50295
L67230 50267
L67343 50267
L67399 50295
L67427 50351
L67427 50407
L67146 50464
" />
<path d="M68130 50267
L68130 50857
" />
<path d="M68130 50295
L68187 50267
L68299 50267
L68355 50295
L68383 50323
L68411 50379
L68411 50548
L68383 50604
L68355 50632
L68299 50660
L68187 50660
L68130 50632
" />
<path d="M68918 50267
L68918 50660
" />
<path d="M68665 50267
L68665 50576
L68693 50632
L68749 50660
L68833 50660
L68890 50632
L68918 50604
" />
<path d="M69199 50660
L69199 50267
" />
<path d="M69199 50070
L69171 50098
L69199 50126
L69227 50098
L69199 50070
L69199 50126
" />
<path d="M69452 50632
L69508 50660
L69621 50660
L69677 50632
L69705 50576
L69705 50548
L69677 50492
L69621 50464
L69536 50464
L69480 50435
L69452 50379
L69452 50351
L69480 50295
L69536 50267
L69621 50267
L69677 50295
" />
<path d="M69930 50632
L69986 50660
L70099 50660
L70155 50632
L70183 50576
L70183 50548
L70155 50492
L70099 50464
L70014 50464
L69958 50435
L69930 50379
L69930 50351
L69958 50295
L70014 50267
L70099 50267
L70155 50295
" />
<path d="M70689 50660
L70689 50351
L70661 50295
L70605 50267
L70492 50267
L70436 50295
" />
<path d="M70689 50632
L70633 50660
L70492 50660
L70436 50632
L70408 50576
L70408 50520
L70436 50464
L70492 50435
L70633 50435
L70689 50407
" />
<path d="M70971 50267
L70971 50660
" />
<path d="M70971 50323
L70999 50295
L71055 50267
L71139 50267
L71196 50295
L71224 50351
L71224 50660
" />
<path d="M71758 50632
L71702 50660
L71589 50660
L71533 50632
L71505 50604
L71477 50548
L71477 50379
L71505 50323
L71533 50295
L71589 50267
L71702 50267
L71758 50295
" />
<path d="M72236 50632
L72180 50660
L72067 50660
L72011 50632
L71983 50576
L71983 50351
L72011 50295
L72067 50267
L72180 50267
L72236 50295
L72264 50351
L72264 50407
L71983 50464
" />
<path d="M73220 50632
L73164 50660
L73052 50660
L72995 50632
L72967 50604
L72939 50548
L72939 50379
L72967 50323
L72995 50295
L73052 50267
L73164 50267
L73220 50295
" />
<path d="M73558 50660
L73501 50632
L73473 50604
L73445 50548
L73445 50379
L73473 50323
L73501 50295
L73558 50267
L73642 50267
L73698 50295
L73726 50323
L73755 50379
L73755 50548
L73726 50604
L73698 50632
L73642 50660
L73558 50660
" />
<path d="M74008 50660
L74008 50267
" />
<path d="M74008 50323
L74036 50295
L74092 50267
L74176 50267
L74233 50295
L74261 50351
L74261 50660
" />
<path d="M74261 50351
L74289 50295
L74345 50267
L74429 50267
L74486 50295
L74514 50351
L74514 50660
" />
<path d="M74795 50660
L74795 50267
" />
<path d="M74795 50323
L74823 50295
L74879 50267
L74964 50267
L75020 50295
L75048 50351
L75048 50660
" />
<path d="M75048 50351
L75076 50295
L75133 50267
L75217 50267
L75273 50295
L75301 50351
L75301 50660
" />
<path d="M75836 50660
L75836 50351
L75807 50295
L75751 50267
L75639 50267
L75582 50295
" />
<path d="M75836 50632
L75779 50660
L75639 50660
L75582 50632
L75554 50576
L75554 50520
L75582 50464
L75639 50435
L75779 50435
L75836 50407
" />
<path d="M76117 50267
L76117 50660
" />
<path d="M76117 50323
L76145 50295
L76201 50267
L76285 50267
L76342 50295
L76370 50351
L76370 50660
" />
<path d="M76904 50660
L76904 50070
" />
<path d="M76904 50632
L76848 50660
L76735 50660
L76679 50632
L76651 50604
L76623 50548
L76623 50379
L76651 50323
L76679 50295
L76735 50267
L76848 50267
L76904 50295
" />
<path d="M77410 50632
L77354 50660
L77242 50660
L77185 50632
L77157 50576
L77157 50351
L77185 50295
L77242 50267
L77354 50267
L77410 50295
L77438 50351
L77438 50407
L77157 50464
" />
<path d="M77354 50042
L77270 50126
" />
<path d="M77917 50632
L77860 50660
L77748 50660
L77692 50632
L77663 50576
L77663 50351
L77692 50295
L77748 50267
L77860 50267
L77917 50295
L77945 50351
L77945 50407
L77663 50464
" />
<text x="63385.8" y="48523.6"
textLength="4203.04" font-size="787.402" lengthAdjust="spacingAndGlyphs"
text-anchor="start" opacity="0">LED strip</text>
<path d="M63884 48495
L63603 48495
L63603 47904
" />
<path d="M64081 48186
L64278 48186
" />
<path d="M64362 48495
L64081 48495
L64081 47904
L64362 47904
" />
<path d="M64615 48495
L64615 47904
L64756 47904
L64840 47933
L64896 47989
L64924 48045
L64953 48158
L64953 48242
L64924 48354
L64896 48411
L64840 48467
L64756 48495
L64615 48495
" />
<path d="M65627 48467
L65684 48495
L65796 48495
L65852 48467
L65881 48411
L65881 48383
L65852 48326
L65796 48298
L65712 48298
L65656 48270
L65627 48214
L65627 48186
L65656 48129
L65712 48101
L65796 48101
L65852 48129
" />
<path d="M66049 48101
L66274 48101
" />
<path d="M66134 47904
L66134 48411
L66162 48467
L66218 48495
L66274 48495
" />
<path d="M66471 48495
L66471 48101
" />
<path d="M66471 48214
L66499 48158
L66527 48129
L66584 48101
L66640 48101
" />
<path d="M66837 48495
L66837 48101
" />
<path d="M66837 47904
L66809 47933
L66837 47961
L66865 47933
L66837 47904
L66837 47961
" />
<path d="M67118 48101
L67118 48692
" />
<path d="M67118 48129
L67174 48101
L67287 48101
L67343 48129
L67371 48158
L67399 48214
L67399 48383
L67371 48439
L67343 48467
L67287 48495
L67174 48495
L67118 48467
" />
<text x="63385.8" y="46358.3"
textLength="6340.27" font-size="787.402" lengthAdjust="spacingAndGlyphs"
text-anchor="start" opacity="0">DMX / RS485</text>
<path d="M63603 46330
L63603 45739
L63743 45739
L63828 45767
L63884 45823
L63912 45880
L63940 45992
L63940 46077
L63912 46189
L63884 46245
L63828 46302
L63743 46330
L63603 46330
" />
<path d="M64193 46330
L64193 45739
L64390 46161
L64587 45739
L64587 46330
" />
<path d="M64812 45739
L65206 46330
" />
<path d="M65206 45739
L64812 46330
" />
<path d="M66302 45711
L65796 46470
" />
<path d="M67287 46330
L67090 46048
" />
<path d="M66949 46330
L66949 45739
L67174 45739
L67230 45767
L67258 45795
L67287 45852
L67287 45936
L67258 45992
L67230 46020
L67174 46048
L66949 46048
" />
<path d="M67512 46302
L67596 46330
L67737 46330
L67793 46302
L67821 46273
L67849 46217
L67849 46161
L67821 46105
L67793 46077
L67737 46048
L67624 46020
L67568 45992
L67540 45964
L67512 45908
L67512 45852
L67540 45795
L67568 45767
L67624 45739
L67765 45739
L67849 45767
" />
<path d="M68355 45936
L68355 46330
" />
<path d="M68215 45711
L68074 46133
L68440 46133
" />
<path d="M68749 45992
L68693 45964
L68665 45936
L68636 45880
L68636 45852
L68665 45795
L68693 45767
L68749 45739
L68861 45739
L68918 45767
L68946 45795
L68974 45852
L68974 45880
L68946 45936
L68918 45964
L68861 45992
L68749 45992
L68693 46020
L68665 46048
L68636 46105
L68636 46217
L68665 46273
L68693 46302
L68749 46330
L68861 46330
L68918 46302
L68946 46273
L68974 46217
L68974 46105
L68946 46048
L68918 46020
L68861 45992
" />
<path d="M69508 45739
L69227 45739
L69199 46020
L69227 45992
L69283 45964
L69424 45964
L69480 45992
L69508 46020
L69536 46077
L69536 46217
L69508 46273
L69480 46302
L69424 46330
L69283 46330
L69227 46302
L69199 46273
" />
<text x="63385.8" y="43208.7"
textLength="5299.78" font-size="787.402" lengthAdjust="spacingAndGlyphs"
text-anchor="start" opacity="0">Ecran OLED</text>
<path d="M63603 42871
L63800 42871
" />
<path d="M63884 43180
L63603 43180
L63603 42589
L63884 42589
" />
<path d="M64390 43152
L64334 43180
L64221 43180
L64165 43152
L64137 43124
L64109 43068
L64109 42899
L64137 42843
L64165 42814
L64221 42786
L64334 42786
L64390 42814
" />
<path d="M64643 43180
L64643 42786
" />
<path d="M64643 42899
L64671 42843
L64699 42814
L64756 42786
L64812 42786
" />
<path d="M65262 43180
L65262 42871
L65234 42814
L65178 42786
L65065 42786
L65009 42814
" />
<path d="M65262 43152
L65206 43180
L65065 43180
L65009 43152
L64981 43096
L64981 43039
L65009 42983
L65065 42955
L65206 42955
L65262 42927
" />
<path d="M65543 42786
L65543 43180
" />
<path d="M65543 42843
L65571 42814
L65627 42786
L65712 42786
L65768 42814
L65796 42871
L65796 43180
" />
<path d="M66640 42589
L66752 42589
L66809 42618
L66865 42674
L66893 42786
L66893 42983
L66865 43096
L66809 43152
L66752 43180
L66640 43180
L66584 43152
L66527 43096
L66499 42983
L66499 42786
L66527 42674
L66584 42618
L66640 42589
" />
<path d="M67427 43180
L67146 43180
L67146 42589
" />
<path d="M67624 42871
L67821 42871
" />
<path d="M67905 43180
L67624 43180
L67624 42589
L67905 42589
" />
<path d="M68158 43180
L68158 42589
L68299 42589
L68383 42618
L68440 42674
L68468 42730
L68496 42843
L68496 42927
L68468 43039
L68440 43096
L68383 43152
L68299 43180
L68158 43180
" />
<text x="63385.8" y="40059.1"
textLength="4371.77" font-size="787.402" lengthAdjust="spacingAndGlyphs"
text-anchor="start" opacity="0">Extension</text>
<path d="M63603 39721
L63800 39721
" />
<path d="M63884 40030
L63603 40030
L63603 39440
L63884 39440
" />
<path d="M64081 40030
L64390 39637
" />
<path d="M64081 39637
L64390 40030
" />
<path d="M64531 39637
L64756 39637
" />
<path d="M64615 39440
L64615 39946
L64643 40002
L64699 40030
L64756 40030
" />
<path d="M65178 40002
L65121 40030
L65009 40030
L64953 40002
L64924 39946
L64924 39721
L64953 39665
L65009 39637
L65121 39637
L65178 39665
L65206 39721
L65206 39777
L64924 39834
" />
<path d="M65459 39637
L65459 40030
" />
<path d="M65459 39693
L65487 39665
L65543 39637
L65627 39637
L65684 39665
L65712 39721
L65712 40030
" />
<path d="M65965 40002
L66021 40030
L66134 40030
L66190 40002
L66218 39946
L66218 39918
L66190 39862
L66134 39834
L66049 39834
L65993 39805
L65965 39749
L65965 39721
L65993 39665
L66049 39637
L66134 39637
L66190 39665
" />
<path d="M66471 40030
L66471 39637
" />
<path d="M66471 39440
L66443 39468
L66471 39496
L66499 39468
L66471 39440
L66471 39496
" />
<path d="M66837 40030
L66780 40002
L66752 39974
L66724 39918
L66724 39749
L66752 39693
L66780 39665
L66837 39637
L66921 39637
L66977 39665
L67005 39693
L67034 39749
L67034 39918
L67005 39974
L66977 40002
L66921 40030
L66837 40030
" />
<path d="M67287 39637
L67287 40030
" />
<path d="M67287 39693
L67315 39665
L67371 39637
L67455 39637
L67512 39665
L67540 39721
L67540 40030
" />
<text x="63385.8" y="35531.5"
textLength="9742.97" font-size="787.402" lengthAdjust="spacingAndGlyphs"
text-anchor="start" opacity="0">Inter. On/Off déporté</text>
<path d="M63603 35503
L63603 34912
" />
<path d="M63884 35109
L63884 35503
" />
<path d="M63884 35165
L63912 35137
L63968 35109
L64053 35109
L64109 35137
L64137 35194
L64137 35503
" />
<path d="M64334 35109
L64559 35109
" />
<path d="M64418 34912
L64418 35419
L64446 35475
L64503 35503
L64559 35503
" />
<path d="M64981 35475
L64924 35503
L64812 35503
L64756 35475
L64728 35419
L64728 35194
L64756 35137
L64812 35109
L64924 35109
L64981 35137
L65009 35194
L65009 35250
L64728 35306
" />
<path d="M65262 35503
L65262 35109
" />
<path d="M65262 35222
L65290 35165
L65318 35137
L65374 35109
L65431 35109
" />
<path d="M65627 35447
L65656 35475
L65627 35503
L65599 35475
L65627 35447
L65627 35503
" />
<path d="M66471 34912
L66584 34912
L66640 34940
L66696 34997
L66724 35109
L66724 35306
L66696 35419
L66640 35475
L66584 35503
L66471 35503
L66415 35475
L66359 35419
L66330 35306
L66330 35109
L66359 34997
L66415 34940
L66471 34912
" />
<path d="M66977 35109
L66977 35503
" />
<path d="M66977 35165
L67005 35137
L67062 35109
L67146 35109
L67202 35137
L67230 35194
L67230 35503
" />
<path d="M67933 34884
L67427 35643
" />
<path d="M68243 34912
L68355 34912
L68411 34940
L68468 34997
L68496 35109
L68496 35306
L68468 35419
L68411 35475
L68355 35503
L68243 35503
L68187 35475
L68130 35419
L68102 35306
L68102 35109
L68130 34997
L68187 34940
L68243 34912
" />
<path d="M68665 35109
L68890 35109
" />
<path d="M68749 35503
L68749 34997
L68777 34940
L68833 34912
L68890 34912
" />
<path d="M69002 35109
L69227 35109
" />
<path d="M69086 35503
L69086 34997
L69115 34940
L69171 34912
L69227 34912
" />
<path d="M70127 35503
L70127 34912
" />
<path d="M70127 35475
L70071 35503
L69958 35503
L69902 35475
L69874 35447
L69846 35390
L69846 35222
L69874 35165
L69902 35137
L69958 35109
L70071 35109
L70127 35137
" />
<path d="M70633 35475
L70577 35503
L70464 35503
L70408 35475
L70380 35419
L70380 35194
L70408 35137
L70464 35109
L70577 35109
L70633 35137
L70661 35194
L70661 35250
L70380 35306
" />
<path d="M70577 34884
L70492 34969
" />
<path d="M70914 35109
L70914 35700
" />
<path d="M70914 35137
L70971 35109
L71083 35109
L71139 35137
L71167 35165
L71196 35222
L71196 35390
L71167 35447
L71139 35475
L71083 35503
L70971 35503
L70914 35475
" />
<path d="M71533 35503
L71477 35475
L71449 35447
L71420 35390
L71420 35222
L71449 35165
L71477 35137
L71533 35109
L71617 35109
L71674 35137
L71702 35165
L71730 35222
L71730 35390
L71702 35447
L71674 35475
L71617 35503
L71533 35503
" />
<path d="M71983 35503
L71983 35109
" />
<path d="M71983 35222
L72011 35165
L72039 35137
L72095 35109
L72152 35109
" />
<path d="M72264 35109
L72489 35109
" />
<path d="M72348 34912
L72348 35419
L72377 35475
L72433 35503
L72489 35503
" />
<path d="M72911 35475
L72855 35503
L72742 35503
L72686 35475
L72658 35419
L72658 35194
L72686 35137
L72742 35109
L72855 35109
L72911 35137
L72939 35194
L72939 35250
L72658 35306
" />
<path d="M72855 34884
L72770 34969
" />
</g>
<g style="fill:#000000; fill-opacity:0.0; 
stroke:#000000; stroke-width:59.0551; stroke-opacity:1; 
stroke-linecap:round; stroke-linejoin:round;">
<path d="M62795 51968
L57480 51968
" />
<path d="M62795 54330
L62795 51968
" />
<path d="M57480 54330
L62795 54330
" />
<path d="M57480 51968
L57480 54330
" />
<path d="M45866 52165
L40551 52165
" />
<path d="M45866 54330
L45866 52165
" />
<path d="M40551 54330
L45866 54330
" />
<path d="M40551 52165
L40551 54330
" />
<path d="M40826 47559
L40826 51968
" />
<path d="M43818 47559
L40826 47559
" />
<path d="M43818 51968
L43818 47559
" />
<path d="M40826 51968
L43818 51968
" />
<path d="M60196 40826
L59015 40826
" />
<path d="M60196 45157
L60196 40826
" />
<path d="M59015 45157
L60196 45157
" />
<path d="M59015 40826
L59015 45157
" />
<path d="M58267 38976
L56102 38976
" />
<path d="M58267 49212
L58267 38976
" />
<path d="M56102 49212
L58267 49212
" />
<path d="M56102 38976
L56102 49212
" />
<path d="M55314 41889
L53937 41889
" />
<path d="M55314 45433
L55314 41889
" />
<path d="M53937 45433
L55314 45433
" />
<path d="M53937 41889
L53937 45433
" />
<path d="M62401 34645
L59251 34645
" />
<path d="M62401 36023
L62401 34645
" />
<path d="M59251 36023
L62401 36023
" />
<path d="M59251 34645
L59251 36023
" />
<g >
</g>
<g >
</g>
<g >
</g>
<g >
</g>
<g >
</g>
<g >
</g>
<g >
</g>
<g >
</g>
<g >
</g>
<g >
</g>
<g >
</g>
<g >
</g>
<g >
</g>
<g >
</g>
<g >
</g>
<g >
</g>
<g >
</g>
<g >
</g>
<g >
</g>
<g >
</g>
<g >
</g>
<g >
</g>
<g >
</g>
<g >
</g>
<g >
</g>
<g >
</g>
<g >
</g>
<g >
</g>
<g >
</g>
<g >
</g>
<g >
</g>
<g >
</g>
<g >
</g>
<g >
</g>
<g >
</g>
<g >
</g>
<g >
</g>
<g >
</g>
<g >
</g>
<g >
</g>
<g >
</g>
<g >
</g>
<g >
</g>
<g >
</g>
<g >
</g>
<g >
</g>
<g >
</g>
<g >
</g>
<g >
</g>
<g >
</g>
<g >
</g>
<g >
</g>
<g >
</g>
<g >
</g>
<g >
</g>
<g >
</g>
<g >
</g>
<g >
</g>
<g >
</g>
<g >
</g>
<g >
</g>
<g >
</g>
<g >
</g>
<g >
</g>
<g >
</g>
<g >
</g>
<g >
</g>
<g >
</g>
<g >
</g>
<g >
</g>
<g >
</g>
<g >
</g>
<g >
</g>
<g >
</g>
<g >
</g>
<g >
</g>
<g >
</g>
<g >
</g>
<g >
</g>
<g >
</g>
<g >
</g>
<g >
</g>
<g >
</g>
<g >
</g>
<g >
</g>
<g >
</g>
<g >
</g>
<g >
</g>
<g >
</g>
<g >
</g>
<g >
</g>
<g >
</g>
<g >
</g>
<g >
</g>
<g >
</g>
<g >
</g>
<g >
</g>
<g >
</g>
<g >
</g>
<g >
</g>
<g >
</g>
<g >
</g>
<g >
</g>
<g >
</g>
<g >
</g>
<g >
</g>
<g >
</g>
<g >
</g>
<g >
</g>
<g >
</g>
</g> 
</svg>
