<?xml version="1.0" standalone="no"?>
 <!DOCTYPE svg PUBLIC "-//W3C//DTD SVG 1.1//EN" 
 "http://www.w3.org/Graphics/SVG/1.1/DTD/svg11.dtd"> 
<svg
  xmlns:svg="http://www.w3.org/2000/svg"
  xmlns="http://www.w3.org/2000/svg"
  xmlns:xlink="http://www.w3.org/1999/xlink"
  version="1.1"
  width="29.700220cm" height="21.000720cm" viewBox="0 0 116930 82680">
<title>SVG Picture created as KXKM_ESP32_battery_management_board-Dwgs_User.svg date 2021/09/13 07:59:10 </title>
  <desc>Picture generated by PCBNEW </desc>
<g style="fill:#000000; fill-opacity:1;stroke:#000000; stroke-opacity:1;
stroke-linecap:round; stroke-linejoin:round;"
 transform="translate(0 0) scale(1 1)">
</g>
<g style="fill:#000000; fill-opacity:0.0; 
stroke:#000000; stroke-width:-0.000393701; stroke-opacity:1; 
stroke-linecap:round; stroke-linejoin:round;">
</g>
<g style="fill:#000000; fill-opacity:0.0; 
stroke:#000000; stroke-width:59.0551; stroke-opacity:1; 
stroke-linecap:round; stroke-linejoin:round;">
<path d="M40551 39173
L45275 37795
" />
<text x="38189" y="39370.1"
textLength="4381.89" font-size="524.934" lengthAdjust="spacingAndGlyphs"
text-anchor="middle" opacity="0">2x diam. 3mm</text>
<path d="M36098 38995
L36117 38976
L36154 38957
L36248 38957
L36286 38976
L36304 38995
L36323 39032
L36323 39070
L36304 39126
L36079 39351
L36323 39351
" />
<path d="M36454 39351
L36661 39088
" />
<path d="M36454 39088
L36661 39351
" />
<path d="M37279 39351
L37279 38957
" />
<path d="M37279 39332
L37242 39351
L37167 39351
L37129 39332
L37110 39313
L37092 39276
L37092 39163
L37110 39126
L37129 39107
L37167 39088
L37242 39088
L37279 39107
" />
<path d="M37467 39351
L37467 39088
" />
<path d="M37467 38957
L37448 38976
L37467 38995
L37485 38976
L37467 38957
L37467 38995
" />
<path d="M37823 39351
L37823 39145
L37804 39107
L37767 39088
L37692 39088
L37654 39107
" />
<path d="M37823 39332
L37785 39351
L37692 39351
L37654 39332
L37635 39295
L37635 39257
L37654 39220
L37692 39201
L37785 39201
L37823 39182
" />
<path d="M38010 39351
L38010 39088
" />
<path d="M38010 39126
L38029 39107
L38067 39088
L38123 39088
L38160 39107
L38179 39145
L38179 39351
" />
<path d="M38179 39145
L38198 39107
L38235 39088
L38292 39088
L38329 39107
L38348 39145
L38348 39351
" />
<path d="M38535 39313
L38554 39332
L38535 39351
L38517 39332
L38535 39313
L38535 39351
" />
<path d="M38985 38957
L39229 38957
L39098 39107
L39154 39107
L39191 39126
L39210 39145
L39229 39182
L39229 39276
L39210 39313
L39191 39332
L39154 39351
L39041 39351
L39004 39332
L38985 39313
" />
<path d="M39398 39351
L39398 39088
" />
<path d="M39398 39126
L39416 39107
L39454 39088
L39510 39088
L39548 39107
L39566 39145
L39566 39351
" />
<path d="M39566 39145
L39585 39107
L39623 39088
L39679 39088
L39716 39107
L39735 39145
L39735 39351
" />
<path d="M39923 39351
L39923 39088
" />
<path d="M39923 39126
L39941 39107
L39979 39088
L40035 39088
L40073 39107
L40091 39145
L40091 39351
" />
<path d="M40091 39145
L40110 39107
L40148 39088
L40204 39088
L40241 39107
L40260 39145
L40260 39351
" />
</g>
<g style="fill:#000000; fill-opacity:0.0; 
stroke:#000000; stroke-width:78.7402; stroke-opacity:1; 
stroke-linecap:round; stroke-linejoin:round;">
<path d="M51673 42027
L51673 43996
" />
<g transform="rotate(-90 34291.3 43011.8)">
<text x="34291.3" y="43208.7"
textLength="3488.85" font-size="524.934" lengthAdjust="spacingAndGlyphs"
text-anchor="middle" opacity="0">57,500 mm</text>
</g>
<path d="M34075 44436
L34075 44624
L34263 44642
L34244 44624
L34225 44586
L34225 44492
L34244 44455
L34263 44436
L34300 44417
L34394 44417
L34431 44436
L34450 44455
L34469 44492
L34469 44586
L34450 44624
L34431 44642
" />
<path d="M34075 44286
L34075 44024
L34469 44192
" />
<path d="M34450 43855
L34469 43855
L34506 43874
L34525 43892
" />
<path d="M34075 43499
L34075 43686
L34263 43705
L34244 43686
L34225 43649
L34225 43555
L34244 43517
L34263 43499
L34300 43480
L34394 43480
L34431 43499
L34450 43517
L34469 43555
L34469 43649
L34450 43686
L34431 43705
" />
<path d="M34075 43236
L34075 43199
L34094 43161
L34113 43143
L34150 43124
L34225 43105
L34319 43105
L34394 43124
L34431 43143
L34450 43161
L34469 43199
L34469 43236
L34450 43274
L34431 43293
L34394 43311
L34319 43330
L34225 43330
L34150 43311
L34113 43293
L34094 43274
L34075 43236
" />
<path d="M34075 42861
L34075 42824
L34094 42786
L34113 42768
L34150 42749
L34225 42730
L34319 42730
L34394 42749
L34431 42768
L34450 42786
L34469 42824
L34469 42861
L34450 42899
L34431 42918
L34394 42936
L34319 42955
L34225 42955
L34150 42936
L34113 42918
L34094 42899
L34075 42861
" />
<path d="M34469 42261
L34206 42261
" />
<path d="M34244 42261
L34225 42243
L34206 42205
L34206 42149
L34225 42111
L34263 42093
L34469 42093
" />
<path d="M34263 42093
L34225 42074
L34206 42036
L34206 41980
L34225 41943
L34263 41924
L34469 41924
" />
<path d="M34469 41736
L34206 41736
" />
<path d="M34244 41736
L34225 41718
L34206 41680
L34206 41624
L34225 41586
L34263 41568
L34469 41568
" />
<path d="M34263 41568
L34225 41549
L34206 41511
L34206 41455
L34225 41418
L34263 41399
L34469 41399
" />
<path d="M34645 54330
L34645 31692
" />
<path d="M40551 54330
L33937 54330
" />
<path d="M40551 31692
L33937 31692
" />
<path d="M34645 31692
L34876 32136
" />
<path d="M34645 31692
L34414 32136
" />
<path d="M34645 54330
L34876 53887
" />
<path d="M34645 54330
L34414 53887
" />
<g transform="rotate(-90 36752 34596.5)">
<text x="36752" y="34793.3"
textLength="3514.44" font-size="524.934" lengthAdjust="spacingAndGlyphs"
text-anchor="middle" opacity="0">14,750 mm</text>
</g>
<path d="M36930 36002
L36930 36227
" />
<path d="M36930 36115
L36536 36115
L36592 36152
L36630 36190
L36648 36227
" />
<path d="M36667 35665
L36930 35665
" />
<path d="M36517 35758
L36798 35852
L36798 35608
" />
<path d="M36911 35440
L36930 35440
L36967 35458
L36986 35477
" />
<path d="M36536 35308
L36536 35046
L36930 35215
" />
<path d="M36536 34708
L36536 34896
L36723 34915
L36705 34896
L36686 34858
L36686 34765
L36705 34727
L36723 34708
L36761 34690
L36855 34690
L36892 34708
L36911 34727
L36930 34765
L36930 34858
L36911 34896
L36892 34915
" />
<path d="M36536 34446
L36536 34408
L36555 34371
L36573 34352
L36611 34333
L36686 34315
L36780 34315
L36855 34333
L36892 34352
L36911 34371
L36930 34408
L36930 34446
L36911 34483
L36892 34502
L36855 34521
L36780 34540
L36686 34540
L36611 34521
L36573 34502
L36555 34483
L36536 34446
" />
<path d="M36930 33846
L36667 33846
" />
<path d="M36705 33846
L36686 33827
L36667 33790
L36667 33734
L36686 33696
L36723 33677
L36930 33677
" />
<path d="M36723 33677
L36686 33659
L36667 33621
L36667 33565
L36686 33527
L36723 33509
L36930 33509
" />
<path d="M36930 33321
L36667 33321
" />
<path d="M36705 33321
L36686 33302
L36667 33265
L36667 33209
L36686 33171
L36723 33152
L36930 33152
" />
<path d="M36723 33152
L36686 33134
L36667 33096
L36667 33040
L36686 33002
L36723 32984
L36930 32984
" />
<path d="M37106 37500
L37106 31692
" />
<path d="M46161 37500
L36397 37500
" />
<path d="M46161 31692
L36397 31692
" />
<path d="M37106 31692
L37337 32136
" />
<path d="M37106 31692
L36875 32136
" />
<path d="M37106 37500
L37337 37056
" />
<path d="M37106 37500
L36875 37056
" />
<text x="51673.2" y="26023.6"
textLength="3514.44" font-size="524.934" lengthAdjust="spacingAndGlyphs"
text-anchor="middle" opacity="0">28,000 mm</text>
<path d="M50042 25648
L50060 25629
L50098 25611
L50192 25611
L50229 25629
L50248 25648
L50267 25686
L50267 25723
L50248 25779
L50023 26004
L50267 26004
" />
<path d="M50492 25779
L50454 25761
L50435 25742
L50417 25704
L50417 25686
L50435 25648
L50454 25629
L50492 25611
L50567 25611
L50604 25629
L50623 25648
L50642 25686
L50642 25704
L50623 25742
L50604 25761
L50567 25779
L50492 25779
L50454 25798
L50435 25817
L50417 25854
L50417 25929
L50435 25967
L50454 25986
L50492 26004
L50567 26004
L50604 25986
L50623 25967
L50642 25929
L50642 25854
L50623 25817
L50604 25798
L50567 25779
" />
<path d="M50829 25986
L50829 26004
L50810 26042
L50792 26061
" />
<path d="M51073 25611
L51110 25611
L51148 25629
L51167 25648
L51185 25686
L51204 25761
L51204 25854
L51185 25929
L51167 25967
L51148 25986
L51110 26004
L51073 26004
L51035 25986
L51017 25967
L50998 25929
L50979 25854
L50979 25761
L50998 25686
L51017 25648
L51035 25629
L51073 25611
" />
<path d="M51448 25611
L51485 25611
L51523 25629
L51541 25648
L51560 25686
L51579 25761
L51579 25854
L51560 25929
L51541 25967
L51523 25986
L51485 26004
L51448 26004
L51410 25986
L51392 25967
L51373 25929
L51354 25854
L51354 25761
L51373 25686
L51392 25648
L51410 25629
L51448 25611
" />
<path d="M51823 25611
L51860 25611
L51898 25629
L51916 25648
L51935 25686
L51954 25761
L51954 25854
L51935 25929
L51916 25967
L51898 25986
L51860 26004
L51823 26004
L51785 25986
L51766 25967
L51748 25929
L51729 25854
L51729 25761
L51748 25686
L51766 25648
L51785 25629
L51823 25611
" />
<path d="M52423 26004
L52423 25742
" />
<path d="M52423 25779
L52441 25761
L52479 25742
L52535 25742
L52573 25761
L52591 25798
L52591 26004
" />
<path d="M52591 25798
L52610 25761
L52648 25742
L52704 25742
L52741 25761
L52760 25798
L52760 26004
" />
<path d="M52948 26004
L52948 25742
" />
<path d="M52948 25779
L52966 25761
L53004 25742
L53060 25742
L53098 25761
L53116 25798
L53116 26004
" />
<path d="M53116 25798
L53135 25761
L53173 25742
L53229 25742
L53266 25761
L53285 25798
L53285 26004
" />
<path d="M46161 26181
L57185 26181
" />
<path d="M46161 37500
L46161 25472
" />
<path d="M57185 37500
L57185 25472
" />
<path d="M57185 26181
L56741 26411
" />
<path d="M57185 26181
L56741 25950
" />
<path d="M46161 26181
L46604 26411
" />
<path d="M46161 26181
L46604 25950
" />
<text x="51673.2" y="24645.7"
textLength="3514.44" font-size="524.934" lengthAdjust="spacingAndGlyphs"
text-anchor="middle" opacity="0">56,500 mm</text>
<path d="M50248 24233
L50060 24233
L50042 24420
L50060 24401
L50098 24383
L50192 24383
L50229 24401
L50248 24420
L50267 24458
L50267 24551
L50248 24589
L50229 24608
L50192 24626
L50098 24626
L50060 24608
L50042 24589
" />
<path d="M50604 24233
L50529 24233
L50492 24251
L50473 24270
L50435 24326
L50417 24401
L50417 24551
L50435 24589
L50454 24608
L50492 24626
L50567 24626
L50604 24608
L50623 24589
L50642 24551
L50642 24458
L50623 24420
L50604 24401
L50567 24383
L50492 24383
L50454 24401
L50435 24420
L50417 24458
" />
<path d="M50829 24608
L50829 24626
L50810 24664
L50792 24683
" />
<path d="M51185 24233
L50998 24233
L50979 24420
L50998 24401
L51035 24383
L51129 24383
L51167 24401
L51185 24420
L51204 24458
L51204 24551
L51185 24589
L51167 24608
L51129 24626
L51035 24626
L50998 24608
L50979 24589
" />
<path d="M51448 24233
L51485 24233
L51523 24251
L51541 24270
L51560 24308
L51579 24383
L51579 24476
L51560 24551
L51541 24589
L51523 24608
L51485 24626
L51448 24626
L51410 24608
L51392 24589
L51373 24551
L51354 24476
L51354 24383
L51373 24308
L51392 24270
L51410 24251
L51448 24233
" />
<path d="M51823 24233
L51860 24233
L51898 24251
L51916 24270
L51935 24308
L51954 24383
L51954 24476
L51935 24551
L51916 24589
L51898 24608
L51860 24626
L51823 24626
L51785 24608
L51766 24589
L51748 24551
L51729 24476
L51729 24383
L51748 24308
L51766 24270
L51785 24251
L51823 24233
" />
<path d="M52423 24626
L52423 24364
" />
<path d="M52423 24401
L52441 24383
L52479 24364
L52535 24364
L52573 24383
L52591 24420
L52591 24626
" />
<path d="M52591 24420
L52610 24383
L52648 24364
L52704 24364
L52741 24383
L52760 24420
L52760 24626
" />
<path d="M52948 24626
L52948 24364
" />
<path d="M52948 24401
L52966 24383
L53004 24364
L53060 24364
L53098 24383
L53116 24420
L53116 24626
" />
<path d="M53116 24420
L53135 24383
L53173 24364
L53229 24364
L53266 24383
L53285 24420
L53285 24626
" />
<path d="M40551 24803
L62795 24803
" />
<path d="M40551 31692
L40551 24094
" />
<path d="M62795 31692
L62795 24094
" />
<path d="M62795 24803
L62351 25034
" />
<path d="M62795 24803
L62351 24572
" />
<path d="M40551 24803
L40994 25034
" />
<path d="M40551 24803
L40994 24572
" />
</g>
<g style="fill:#000000; fill-opacity:0.0; 
stroke:#000000; stroke-width:118.11; stroke-opacity:1; 
stroke-linecap:round; stroke-linejoin:round;">
<text x="79566.9" y="67460.6"
textLength="19056.2" font-size="787.402" lengthAdjust="spacingAndGlyphs"
text-anchor="middle" opacity="0">Avail. height : 4.5mm bottom ; 15mm top</text>
<path d="M70202 67263
L70483 67263
" />
<path d="M70146 67432
L70343 66841
L70539 67432
" />
<path d="M70680 67038
L70821 67432
L70961 67038
" />
<path d="M71439 67432
L71439 67123
L71411 67066
L71355 67038
L71242 67038
L71186 67066
" />
<path d="M71439 67404
L71383 67432
L71242 67432
L71186 67404
L71158 67348
L71158 67291
L71186 67235
L71242 67207
L71383 67207
L71439 67179
" />
<path d="M71721 67432
L71721 67038
" />
<path d="M71721 66841
L71692 66870
L71721 66898
L71749 66870
L71721 66841
L71721 66898
" />
<path d="M72086 67432
L72030 67404
L72002 67348
L72002 66841
" />
<path d="M72311 67376
L72339 67404
L72311 67432
L72283 67404
L72311 67376
L72311 67432
" />
<path d="M73042 67432
L73042 66841
" />
<path d="M73295 67432
L73295 67123
L73267 67066
L73211 67038
L73127 67038
L73070 67066
L73042 67095
" />
<path d="M73802 67404
L73745 67432
L73633 67432
L73577 67404
L73548 67348
L73548 67123
L73577 67066
L73633 67038
L73745 67038
L73802 67066
L73830 67123
L73830 67179
L73548 67235
" />
<path d="M74083 67432
L74083 67038
" />
<path d="M74083 66841
L74055 66870
L74083 66898
L74111 66870
L74083 66841
L74083 66898
" />
<path d="M74617 67038
L74617 67516
L74589 67573
L74561 67601
L74505 67629
L74420 67629
L74364 67601
" />
<path d="M74617 67404
L74561 67432
L74448 67432
L74392 67404
L74364 67376
L74336 67320
L74336 67151
L74364 67095
L74392 67066
L74448 67038
L74561 67038
L74617 67066
" />
<path d="M74898 67432
L74898 66841
" />
<path d="M75151 67432
L75151 67123
L75123 67066
L75067 67038
L74983 67038
L74926 67066
L74898 67095
" />
<path d="M75348 67038
L75573 67038
" />
<path d="M75433 66841
L75433 67348
L75461 67404
L75517 67432
L75573 67432
" />
<path d="M76220 67376
L76248 67404
L76220 67432
L76192 67404
L76220 67376
L76220 67432
" />
<path d="M76220 67066
L76248 67095
L76220 67123
L76192 67095
L76220 67066
L76220 67123
" />
<path d="M77204 67038
L77204 67432
" />
<path d="M77064 66813
L76923 67235
L77289 67235
" />
<path d="M77514 67376
L77542 67404
L77514 67432
L77485 67404
L77514 67376
L77514 67432
" />
<path d="M78076 66841
L77795 66841
L77767 67123
L77795 67095
L77851 67066
L77992 67066
L78048 67095
L78076 67123
L78104 67179
L78104 67320
L78076 67376
L78048 67404
L77992 67432
L77851 67432
L77795 67404
L77767 67376
" />
<path d="M78357 67432
L78357 67038
" />
<path d="M78357 67095
L78385 67066
L78442 67038
L78526 67038
L78582 67066
L78610 67123
L78610 67432
" />
<path d="M78610 67123
L78638 67066
L78695 67038
L78779 67038
L78835 67066
L78863 67123
L78863 67432
" />
<path d="M79145 67432
L79145 67038
" />
<path d="M79145 67095
L79173 67066
L79229 67038
L79313 67038
L79370 67066
L79398 67123
L79398 67432
" />
<path d="M79398 67123
L79426 67066
L79482 67038
L79566 67038
L79623 67066
L79651 67123
L79651 67432
" />
<path d="M80382 67432
L80382 66841
" />
<path d="M80382 67066
L80438 67038
L80551 67038
L80607 67066
L80635 67095
L80663 67151
L80663 67320
L80635 67376
L80607 67404
L80551 67432
L80438 67432
L80382 67404
" />
<path d="M81001 67432
L80944 67404
L80916 67376
L80888 67320
L80888 67151
L80916 67095
L80944 67066
L81001 67038
L81085 67038
L81141 67066
L81169 67095
L81197 67151
L81197 67320
L81169 67376
L81141 67404
L81085 67432
L81001 67432
" />
<path d="M81366 67038
L81591 67038
" />
<path d="M81451 66841
L81451 67348
L81479 67404
L81535 67432
L81591 67432
" />
<path d="M81704 67038
L81929 67038
" />
<path d="M81788 66841
L81788 67348
L81816 67404
L81872 67432
L81929 67432
" />
<path d="M82210 67432
L82154 67404
L82125 67376
L82097 67320
L82097 67151
L82125 67095
L82154 67066
L82210 67038
L82294 67038
L82350 67066
L82379 67095
L82407 67151
L82407 67320
L82379 67376
L82350 67404
L82294 67432
L82210 67432
" />
<path d="M82660 67432
L82660 67038
" />
<path d="M82660 67095
L82688 67066
L82744 67038
L82829 67038
L82885 67066
L82913 67123
L82913 67432
" />
<path d="M82913 67123
L82941 67066
L82997 67038
L83082 67038
L83138 67066
L83166 67123
L83166 67432
" />
<path d="M83925 67404
L83925 67432
L83897 67488
L83869 67516
" />
<path d="M83897 67066
L83925 67095
L83897 67123
L83869 67095
L83897 67066
L83897 67123
" />
<path d="M84938 67432
L84600 67432
" />
<path d="M84769 67432
L84769 66841
L84713 66926
L84656 66982
L84600 67010
" />
<path d="M85472 66841
L85191 66841
L85163 67123
L85191 67095
L85247 67066
L85388 67066
L85444 67095
L85472 67123
L85500 67179
L85500 67320
L85472 67376
L85444 67404
L85388 67432
L85247 67432
L85191 67404
L85163 67376
" />
<path d="M85753 67432
L85753 67038
" />
<path d="M85753 67095
L85781 67066
L85838 67038
L85922 67038
L85978 67066
L86006 67123
L86006 67432
" />
<path d="M86006 67123
L86034 67066
L86091 67038
L86175 67038
L86231 67066
L86259 67123
L86259 67432
" />
<path d="M86541 67432
L86541 67038
" />
<path d="M86541 67095
L86569 67066
L86625 67038
L86709 67038
L86766 67066
L86794 67123
L86794 67432
" />
<path d="M86794 67123
L86822 67066
L86878 67038
L86962 67038
L87019 67066
L87047 67123
L87047 67432
" />
<path d="M87694 67038
L87919 67038
" />
<path d="M87778 66841
L87778 67348
L87806 67404
L87862 67432
L87919 67432
" />
<path d="M88200 67432
L88143 67404
L88115 67376
L88087 67320
L88087 67151
L88115 67095
L88143 67066
L88200 67038
L88284 67038
L88340 67066
L88368 67095
L88397 67151
L88397 67320
L88368 67376
L88340 67404
L88284 67432
L88200 67432
" />
<path d="M88650 67038
L88650 67629
" />
<path d="M88650 67066
L88706 67038
L88818 67038
L88875 67066
L88903 67095
L88931 67151
L88931 67320
L88903 67376
L88875 67404
L88818 67432
L88706 67432
L88650 67404
" />
<text x="51771.7" y="55610.2"
textLength="10024.2" font-size="787.402" lengthAdjust="spacingAndGlyphs"
text-anchor="middle" opacity="0">Connecteurs int / ext</text>
<path d="M47314 55525
L47286 55553
L47201 55582
L47145 55582
L47061 55553
L47005 55497
L46976 55441
L46948 55329
L46948 55244
L46976 55132
L47005 55075
L47061 55019
L47145 54991
L47201 54991
L47286 55019
L47314 55047
" />
<path d="M47651 55582
L47595 55553
L47567 55525
L47539 55469
L47539 55300
L47567 55244
L47595 55216
L47651 55188
L47736 55188
L47792 55216
L47820 55244
L47848 55300
L47848 55469
L47820 55525
L47792 55553
L47736 55582
L47651 55582
" />
<path d="M48101 55188
L48101 55582
" />
<path d="M48101 55244
L48129 55216
L48186 55188
L48270 55188
L48326 55216
L48354 55272
L48354 55582
" />
<path d="M48636 55188
L48636 55582
" />
<path d="M48636 55244
L48664 55216
L48720 55188
L48804 55188
L48861 55216
L48889 55272
L48889 55582
" />
<path d="M49395 55553
L49339 55582
L49226 55582
L49170 55553
L49142 55497
L49142 55272
L49170 55216
L49226 55188
L49339 55188
L49395 55216
L49423 55272
L49423 55329
L49142 55385
" />
<path d="M49929 55553
L49873 55582
L49760 55582
L49704 55553
L49676 55525
L49648 55469
L49648 55300
L49676 55244
L49704 55216
L49760 55188
L49873 55188
L49929 55216
" />
<path d="M50098 55188
L50323 55188
" />
<path d="M50182 54991
L50182 55497
L50210 55553
L50267 55582
L50323 55582
" />
<path d="M50745 55553
L50688 55582
L50576 55582
L50520 55553
L50492 55497
L50492 55272
L50520 55216
L50576 55188
L50688 55188
L50745 55216
L50773 55272
L50773 55329
L50492 55385
" />
<path d="M51279 55188
L51279 55582
" />
<path d="M51026 55188
L51026 55497
L51054 55553
L51110 55582
L51195 55582
L51251 55553
L51279 55525
" />
<path d="M51560 55582
L51560 55188
" />
<path d="M51560 55300
L51588 55244
L51616 55216
L51673 55188
L51729 55188
" />
<path d="M51898 55553
L51954 55582
L52066 55582
L52123 55553
L52151 55497
L52151 55469
L52123 55413
L52066 55385
L51982 55385
L51926 55357
L51898 55300
L51898 55272
L51926 55216
L51982 55188
L52066 55188
L52123 55216
" />
<path d="M52854 55582
L52854 55188
" />
<path d="M52854 54991
L52826 55019
L52854 55047
L52882 55019
L52854 54991
L52854 55047
" />
<path d="M53135 55188
L53135 55582
" />
<path d="M53135 55244
L53163 55216
L53219 55188
L53304 55188
L53360 55216
L53388 55272
L53388 55582
" />
<path d="M53585 55188
L53810 55188
" />
<path d="M53669 54991
L53669 55497
L53697 55553
L53754 55582
L53810 55582
" />
<path d="M54879 54963
L54372 55722
" />
<path d="M55750 55553
L55694 55582
L55582 55582
L55525 55553
L55497 55497
L55497 55272
L55525 55216
L55582 55188
L55694 55188
L55750 55216
L55778 55272
L55778 55329
L55497 55385
" />
<path d="M55975 55582
L56285 55188
" />
<path d="M55975 55188
L56285 55582
" />
<path d="M56425 55188
L56650 55188
" />
<path d="M56510 54991
L56510 55497
L56538 55553
L56594 55582
L56650 55582
" />
<text x="51378" y="30019.7"
textLength="7352.64" font-size="787.402" lengthAdjust="spacingAndGlyphs"
text-anchor="middle" opacity="0">Connecteurs ext</text>
<path d="M48256 29935
L48228 29963
L48143 29991
L48087 29991
L48003 29963
L47947 29907
L47919 29850
L47890 29738
L47890 29654
L47919 29541
L47947 29485
L48003 29429
L48087 29401
L48143 29401
L48228 29429
L48256 29457
" />
<path d="M48593 29991
L48537 29963
L48509 29935
L48481 29879
L48481 29710
L48509 29654
L48537 29625
L48593 29597
L48678 29597
L48734 29625
L48762 29654
L48790 29710
L48790 29879
L48762 29935
L48734 29963
L48678 29991
L48593 29991
" />
<path d="M49043 29597
L49043 29991
" />
<path d="M49043 29654
L49071 29625
L49128 29597
L49212 29597
L49268 29625
L49296 29682
L49296 29991
" />
<path d="M49578 29597
L49578 29991
" />
<path d="M49578 29654
L49606 29625
L49662 29597
L49746 29597
L49803 29625
L49831 29682
L49831 29991
" />
<path d="M50337 29963
L50281 29991
L50168 29991
L50112 29963
L50084 29907
L50084 29682
L50112 29625
L50168 29597
L50281 29597
L50337 29625
L50365 29682
L50365 29738
L50084 29794
" />
<path d="M50871 29963
L50815 29991
L50703 29991
L50646 29963
L50618 29935
L50590 29879
L50590 29710
L50618 29654
L50646 29625
L50703 29597
L50815 29597
L50871 29625
" />
<path d="M51040 29597
L51265 29597
" />
<path d="M51124 29401
L51124 29907
L51152 29963
L51209 29991
L51265 29991
" />
<path d="M51687 29963
L51631 29991
L51518 29991
L51462 29963
L51434 29907
L51434 29682
L51462 29625
L51518 29597
L51631 29597
L51687 29625
L51715 29682
L51715 29738
L51434 29794
" />
<path d="M52221 29597
L52221 29991
" />
<path d="M51968 29597
L51968 29907
L51996 29963
L52052 29991
L52137 29991
L52193 29963
L52221 29935
" />
<path d="M52502 29991
L52502 29597
" />
<path d="M52502 29710
L52530 29654
L52559 29625
L52615 29597
L52671 29597
" />
<path d="M52840 29963
L52896 29991
L53008 29991
L53065 29963
L53093 29907
L53093 29879
L53065 29822
L53008 29794
L52924 29794
L52868 29766
L52840 29710
L52840 29682
L52868 29625
L52924 29597
L53008 29597
L53065 29625
" />
<path d="M54021 29963
L53965 29991
L53852 29991
L53796 29963
L53768 29907
L53768 29682
L53796 29625
L53852 29597
L53965 29597
L54021 29625
L54049 29682
L54049 29738
L53768 29794
" />
<path d="M54246 29991
L54555 29597
" />
<path d="M54246 29597
L54555 29991
" />
<path d="M54696 29597
L54921 29597
" />
<path d="M54780 29401
L54780 29907
L54808 29963
L54865 29991
L54921 29991
" />
</g>
<g style="fill:#000000; fill-opacity:0.0; 
stroke:#000000; stroke-width:78.7402; stroke-opacity:1; 
stroke-linecap:round; stroke-linejoin:round;">
<circle cx="46161.4" cy="48523.6" r="590.551" /> 
<circle cx="57185" cy="48523.6" r="590.551" /> 
<circle cx="57185" cy="37500" r="590.551" /> 
<circle cx="46161.4" cy="37500" r="590.551" /> 
</g>
<g style="fill:#000000; fill-opacity:0.0; 
stroke:#000000; stroke-width:39.3701; stroke-opacity:1; 
stroke-linecap:round; stroke-linejoin:round;">
<path d="M42521 34027
L43021 34027
" />
<path d="M42521 35027
L42521 34027
" />
<path d="M43021 35027
L42521 35027
" />
<path d="M43021 34027
L43021 35027
" />
<path d="M42521 34027
L43021 34527
" />
<path d="M42771 34027
L43021 34277
" />
<path d="M42521 34277
L43021 34777
" />
<path d="M42521 34527
L43021 35027
" />
<path d="M42521 34777
L42771 35027
" />
<g >
</g>
<g >
</g>
<g >
</g>
<g >
</g>
<g >
</g>
<g >
</g>
<g >
</g>
<g >
</g>
<g >
</g>
<g >
</g>
<g >
</g>
<g >
</g>
<g >
</g>
<g >
</g>
<g >
</g>
<g >
</g>
<g >
</g>
<g >
</g>
<g >
</g>
<g >
</g>
<g >
</g>
<g >
</g>
<g >
</g>
<g >
</g>
<g >
</g>
<g >
</g>
<g >
</g>
<g >
</g>
<g >
</g>
<g >
</g>
<g >
</g>
<g >
</g>
<g >
</g>
<g >
</g>
<g >
</g>
<g >
</g>
<g >
</g>
<g >
</g>
<g >
</g>
<g >
</g>
<g >
</g>
<g >
</g>
<g >
</g>
<g >
</g>
<g >
</g>
<g >
</g>
<g >
</g>
<g >
</g>
<g >
</g>
<g >
</g>
<g >
</g>
<g >
</g>
<g >
</g>
<g >
</g>
<g >
</g>
<g >
</g>
<g >
</g>
<g >
</g>
<g >
</g>
<g >
</g>
<g >
</g>
<g >
</g>
<g >
</g>
<g >
</g>
<g >
</g>
<g >
</g>
<g >
</g>
<g >
</g>
<g >
</g>
<g >
</g>
<g >
</g>
<g >
</g>
<g >
</g>
<g >
</g>
<g >
</g>
<g >
</g>
<g >
</g>
<g >
</g>
<g >
</g>
<g >
</g>
<g >
</g>
<g >
</g>
<g >
</g>
<g >
</g>
<g >
</g>
<g >
</g>
<g >
</g>
<g >
</g>
<g >
</g>
<g >
</g>
<g >
</g>
<g >
</g>
<g >
</g>
<g >
</g>
<g >
</g>
<g >
</g>
<g >
</g>
<g >
</g>
<g >
</g>
<g >
</g>
<g >
</g>
<g >
</g>
<g >
</g>
<g >
</g>
<g >
</g>
<g >
</g>
<g >
</g>
<g >
</g>
<g >
</g>
<g >
</g>
</g> 
</svg>
