<?xml version="1.0" standalone="no"?>
 <!DOCTYPE svg PUBLIC "-//W3C//DTD SVG 1.1//EN" 
 "http://www.w3.org/Graphics/SVG/1.1/DTD/svg11.dtd"> 
<svg
  xmlns:svg="http://www.w3.org/2000/svg"
  xmlns="http://www.w3.org/2000/svg"
  xmlns:xlink="http://www.w3.org/1999/xlink"
  version="1.1"
  width="29.700220cm" height="21.000720cm" viewBox="0 0 116930 82680">
<title>SVG Picture created as KXKM_ESP32_battery_management_board-F_SilkS.svg date 2021/09/13 07:59:10 </title>
  <desc>Picture generated by PCBNEW </desc>
<g style="fill:#000000; fill-opacity:1;stroke:#000000; stroke-opacity:1;
stroke-linecap:round; stroke-linejoin:round;"
 transform="translate(0 0) scale(1 1)">
</g>
<g style="fill:#000000; fill-opacity:0.0; 
stroke:#000000; stroke-width:-0.000393701; stroke-opacity:1; 
stroke-linecap:round; stroke-linejoin:round;">
</g>
<g style="fill:#000000; fill-opacity:0.0; 
stroke:#000000; stroke-width:118.11; stroke-opacity:1; 
stroke-linecap:round; stroke-linejoin:round;">
<text x="42519.7" y="52480.3"
textLength="731.161" font-size="787.402" lengthAdjust="spacingAndGlyphs"
text-anchor="middle" opacity="0">-</text>
<path d="M42294 52227
L42744 52227
" />
</g>
<g style="fill:#000000; fill-opacity:0.0; 
stroke:#000000; stroke-width:59.0551; stroke-opacity:1; 
stroke-linecap:round; stroke-linejoin:round;">
<g transform="rotate(-90 56791.3 53149.6)">
<text x="56791.3" y="53267.7"
textLength="1705.85" font-size="314.961" lengthAdjust="spacingAndGlyphs"
text-anchor="middle" opacity="0">autoboot</text>
</g>
<path d="M56898 53768
L56774 53768
L56751 53779
L56740 53802
L56740 53847
L56751 53869
" />
<path d="M56886 53768
L56898 53790
L56898 53847
L56886 53869
L56864 53880
L56841 53880
L56819 53869
L56808 53847
L56808 53790
L56796 53768
" />
<path d="M56740 53554
L56898 53554
" />
<path d="M56740 53655
L56864 53655
L56886 53644
L56898 53622
L56898 53588
L56886 53565
L56875 53554
" />
<path d="M56740 53475
L56740 53385
" />
<path d="M56661 53442
L56864 53442
L56886 53430
L56898 53408
L56898 53385
" />
<path d="M56898 53273
L56886 53295
L56875 53307
L56853 53318
L56785 53318
L56763 53307
L56751 53295
L56740 53273
L56740 53239
L56751 53217
L56763 53205
L56785 53194
L56853 53194
L56875 53205
L56886 53217
L56898 53239
L56898 53273
" />
<path d="M56898 53093
L56661 53093
" />
<path d="M56751 53093
L56740 53070
L56740 53025
L56751 53003
L56763 52992
L56785 52980
L56853 52980
L56875 52992
L56886 53003
L56898 53025
L56898 53070
L56886 53093
" />
<path d="M56898 52845
L56886 52868
L56875 52879
L56853 52890
L56785 52890
L56763 52879
L56751 52868
L56740 52845
L56740 52812
L56751 52789
L56763 52778
L56785 52767
L56853 52767
L56875 52778
L56886 52789
L56898 52812
L56898 52845
" />
<path d="M56898 52632
L56886 52654
L56875 52665
L56853 52677
L56785 52677
L56763 52665
L56751 52654
L56740 52632
L56740 52598
L56751 52575
L56763 52564
L56785 52553
L56853 52553
L56875 52564
L56886 52575
L56898 52598
L56898 52632
" />
<path d="M56740 52485
L56740 52395
" />
<path d="M56661 52452
L56864 52452
L56886 52440
L56898 52418
L56898 52395
" />
</g>
<g style="fill:#000000; fill-opacity:0.0; 
stroke:#000000; stroke-width:78.7402; stroke-opacity:1; 
stroke-linecap:round; stroke-linejoin:round;">
<g transform="rotate(-90 43901.6 49645.7)">
<text x="43901.6" y="49881.9"
textLength="3878.8" font-size="629.921" lengthAdjust="spacingAndGlyphs"
text-anchor="middle" opacity="0">-   D   +</text>
</g>
<path d="M43935 51434
L43935 51074
" />
<path d="M44115 49769
L43642 49769
L43642 49656
L43665 49589
L43710 49544
L43755 49521
L43845 49499
L43912 49499
L44002 49521
L44047 49544
L44092 49589
L44115 49656
L44115 49769
" />
<path d="M43935 48217
L43935 47857
" />
<path d="M44115 48037
L43755 48037
" />
</g>
<g style="fill:#000000; fill-opacity:0.0; 
stroke:#000000; stroke-width:59.0551; stroke-opacity:1; 
stroke-linecap:round; stroke-linejoin:round;">
<g transform="rotate(-90 41480.3 50515.7)">
<text x="41480.3" y="50712.6"
textLength="477.315" font-size="524.934" lengthAdjust="spacingAndGlyphs"
text-anchor="middle" opacity="0">1</text>
</g>
<path d="M41658 50403
L41658 50628
" />
<path d="M41658 50515
L41264 50515
L41320 50553
L41358 50590
L41377 50628
" />
<g transform="rotate(-90 42129.9 50515.7)">
<text x="42129.9" y="50712.6"
textLength="76.7717" font-size="524.934" lengthAdjust="spacingAndGlyphs"
text-anchor="middle" opacity="0"></text>
</g>
<g transform="rotate(-90 42779.5 50515.7)">
<text x="42779.5" y="50712.6"
textLength="434.008" font-size="524.934" lengthAdjust="spacingAndGlyphs"
text-anchor="middle" opacity="0">2</text>
</g>
<path d="M42601 50628
L42582 50609
L42563 50571
L42563 50478
L42582 50440
L42601 50422
L42638 50403
L42676 50403
L42732 50422
L42957 50646
L42957 50403
" />
<g transform="rotate(-90 44598.4 49736.2)">
<text x="44598.4" y="49854.3"
textLength="1696.57" font-size="314.961" lengthAdjust="spacingAndGlyphs"
text-anchor="middle" opacity="0">LED strip</text>
</g>
<path d="M44705 50377
L44705 50489
L44469 50489
" />
<path d="M44581 50298
L44581 50219
" />
<path d="M44705 50186
L44705 50298
L44469 50298
L44469 50186
" />
<path d="M44705 50084
L44469 50084
L44469 50028
L44480 49994
L44502 49972
L44525 49961
L44570 49949
L44604 49949
L44649 49961
L44671 49972
L44694 49994
L44705 50028
L44705 50084
" />
<path d="M44694 49679
L44705 49657
L44705 49612
L44694 49589
L44671 49578
L44660 49578
L44637 49589
L44626 49612
L44626 49646
L44615 49668
L44592 49679
L44581 49679
L44559 49668
L44547 49646
L44547 49612
L44559 49589
" />
<path d="M44547 49511
L44547 49421
" />
<path d="M44469 49477
L44671 49477
L44694 49466
L44705 49443
L44705 49421
" />
<path d="M44705 49342
L44547 49342
" />
<path d="M44592 49342
L44570 49331
L44559 49320
L44547 49297
L44547 49275
" />
<path d="M44705 49196
L44547 49196
" />
<path d="M44469 49196
L44480 49207
L44491 49196
L44480 49185
L44469 49196
L44491 49196
" />
<path d="M44547 49083
L44784 49083
" />
<path d="M44559 49083
L44547 49061
L44547 49016
L44559 48993
L44570 48982
L44592 48971
L44660 48971
L44682 48982
L44694 48993
L44705 49016
L44705 49061
L44694 49083
" />
<text x="58661.4" y="51791.3"
textLength="1415.35" font-size="314.961" lengthAdjust="spacingAndGlyphs"
text-anchor="middle" opacity="0">BATT IN</text>
<path d="M58127 51656
L58160 51667
L58172 51678
L58183 51701
L58183 51735
L58172 51757
L58160 51768
L58138 51780
L58048 51780
L58048 51543
L58127 51543
L58149 51555
L58160 51566
L58172 51588
L58172 51611
L58160 51633
L58149 51645
L58127 51656
L58048 51656
" />
<path d="M58273 51712
L58385 51712
" />
<path d="M58250 51780
L58329 51543
L58408 51780
" />
<path d="M58453 51543
L58588 51543
" />
<path d="M58520 51780
L58520 51543
" />
<path d="M58633 51543
L58768 51543
" />
<path d="M58700 51780
L58700 51543
" />
<path d="M59026 51780
L59026 51543
" />
<path d="M59139 51780
L59139 51543
L59274 51780
L59274 51543
" />
<path d="M45767 51968
L40649 51968
" />
<path d="M45767 54232
L45767 51968
" />
<path d="M40649 54232
L40649 51968
" />
<path d="M45767 54232
L40649 54232
" />
<path d="M62696 51968
L62696 54232
" />
<path d="M57578 51968
L62696 51968
" />
<path d="M57578 54232
L57578 51968
" />
<path d="M62696 54232
L57578 54232
" />
<path d="M61555 44645
L60472 44645
" />
<path d="M61555 41692
L61555 44645
" />
<path d="M60472 41692
L61555 41692
" />
<path d="M60472 44645
L60472 41692
" />
<g transform="rotate(-90 60856.3 43563)">
<text x="60856.3" y="43681.1"
textLength="1572.83" font-size="314.961" lengthAdjust="spacingAndGlyphs"
text-anchor="middle" opacity="0">SDA 3V3</text>
</g>
<path d="M60951 44266
L60963 44232
L60963 44176
L60951 44153
L60940 44142
L60918 44131
L60895 44131
L60873 44142
L60861 44153
L60850 44176
L60839 44221
L60828 44243
L60816 44254
L60794 44266
L60771 44266
L60749 44254
L60738 44243
L60726 44221
L60726 44164
L60738 44131
" />
<path d="M60963 44029
L60726 44029
L60726 43973
L60738 43939
L60760 43917
L60783 43906
L60828 43894
L60861 43894
L60906 43906
L60929 43917
L60951 43939
L60963 43973
L60963 44029
" />
<path d="M60895 43804
L60895 43692
" />
<path d="M60963 43827
L60726 43748
L60963 43669
" />
<path d="M60726 43433
L60726 43287
L60816 43366
L60816 43332
L60828 43309
L60839 43298
L60861 43287
L60918 43287
L60940 43298
L60951 43309
L60963 43332
L60963 43399
L60951 43422
L60940 43433
" />
<path d="M60726 43219
L60963 43141
L60726 43062
" />
<path d="M60726 43006
L60726 42859
L60816 42938
L60816 42904
L60828 42882
L60839 42871
L60861 42859
L60918 42859
L60940 42871
L60951 42882
L60963 42904
L60963 42972
L60951 42994
L60940 43006
" />
<g transform="rotate(-90 61269.7 43563)">
<text x="61269.7" y="43681.1"
textLength="2888.92" font-size="314.961" lengthAdjust="spacingAndGlyphs"
text-anchor="middle" opacity="0">       SCL GND</text>
</g>
<path d="M61365 43664
L61376 43630
L61376 43574
L61365 43551
L61354 43540
L61331 43529
L61309 43529
L61286 43540
L61275 43551
L61264 43574
L61252 43619
L61241 43641
L61230 43652
L61207 43664
L61185 43664
L61162 43652
L61151 43641
L61140 43619
L61140 43562
L61151 43529
" />
<path d="M61354 43293
L61365 43304
L61376 43338
L61376 43360
L61365 43394
L61342 43416
L61320 43428
L61275 43439
L61241 43439
L61196 43428
L61174 43416
L61151 43394
L61140 43360
L61140 43338
L61151 43304
L61162 43293
" />
<path d="M61376 43079
L61376 43191
L61140 43191
" />
<path d="M61151 42696
L61140 42719
L61140 42753
L61151 42786
L61174 42809
L61196 42820
L61241 42831
L61275 42831
L61320 42820
L61342 42809
L61365 42786
L61376 42753
L61376 42730
L61365 42696
L61354 42685
L61275 42685
L61275 42730
" />
<path d="M61376 42584
L61140 42584
L61376 42449
L61140 42449
" />
<path d="M61376 42336
L61140 42336
L61140 42280
L61151 42246
L61174 42224
L61196 42213
L61241 42201
L61275 42201
L61320 42213
L61342 42224
L61365 42246
L61376 42280
L61376 42336
" />
<text x="52598.4" y="43159.4"
textLength="807.93" font-size="314.961" lengthAdjust="spacingAndGlyphs"
text-anchor="start" opacity="0">DMX</text>
<path d="M52693 43148
L52693 42911
L52749 42911
L52783 42923
L52805 42945
L52816 42968
L52828 43013
L52828 43046
L52816 43091
L52805 43114
L52783 43136
L52749 43148
L52693 43148
" />
<path d="M52929 43148
L52929 42911
L53008 43080
L53086 42911
L53086 43148
" />
<path d="M53176 42911
L53334 43148
" />
<path d="M53334 42911
L53176 43148
" />
<text x="52598.4" y="43572.8"
textLength="740.439" font-size="314.961" lengthAdjust="spacingAndGlyphs"
text-anchor="start" opacity="0">Gnd</text>
<path d="M52816 43336
L52794 43325
L52760 43325
L52726 43336
L52704 43359
L52693 43381
L52681 43426
L52681 43460
L52693 43505
L52704 43527
L52726 43550
L52760 43561
L52783 43561
L52816 43550
L52828 43539
L52828 43460
L52783 43460
" />
<path d="M52929 43404
L52929 43561
" />
<path d="M52929 43426
L52940 43415
L52963 43404
L52996 43404
L53019 43415
L53030 43437
L53030 43561
" />
<path d="M53244 43561
L53244 43325
" />
<path d="M53244 43550
L53221 43561
L53176 43561
L53154 43550
L53142 43539
L53131 43516
L53131 43449
L53142 43426
L53154 43415
L53176 43404
L53221 43404
L53244 43415
" />
<text x="52598.4" y="43986.2"
textLength="312.992" font-size="314.961" lengthAdjust="spacingAndGlyphs"
text-anchor="start" opacity="0">B</text>
<path d="M52771 43851
L52805 43862
L52816 43873
L52828 43896
L52828 43929
L52816 43952
L52805 43963
L52783 43974
L52693 43974
L52693 43738
L52771 43738
L52794 43750
L52805 43761
L52816 43783
L52816 43806
L52805 43828
L52794 43839
L52771 43851
L52693 43851
" />
<text x="52598.4" y="44399.6"
textLength="279.246" font-size="314.961" lengthAdjust="spacingAndGlyphs"
text-anchor="start" opacity="0">A</text>
<path d="M52681 44320
L52794 44320
" />
<path d="M52659 44388
L52738 44152
L52816 44388
" />
<g transform="rotate(-180 41224.4 38173.2)">
<text x="41224.4" y="38330.7"
textLength="892.295" font-size="393.701" lengthAdjust="spacingAndGlyphs"
text-anchor="middle" opacity="0">DTR</text>
</g>
<path d="M41561 38030
L41561 38345
L41491 38345
L41449 38330
L41421 38300
L41407 38270
L41393 38210
L41393 38165
L41407 38105
L41421 38075
L41449 38045
L41491 38030
L41561 38030
" />
<path d="M41308 38345
L41140 38345
" />
<path d="M41224 38030
L41224 38345
" />
<path d="M40872 38030
L40971 38180
" />
<path d="M41041 38030
L41041 38345
L40929 38345
L40901 38330
L40886 38315
L40872 38285
L40872 38240
L40886 38210
L40901 38195
L40929 38180
L41041 38180
" />
</g>
<g style="fill:#000000; fill-opacity:0.0; 
stroke:#000000; stroke-width:78.7402; stroke-opacity:1; 
stroke-linecap:round; stroke-linejoin:round;">
<g transform="rotate(-90 42854.3 42047.2)">
<text x="42854.3" y="42244.1"
textLength="1314.12" font-size="524.934" lengthAdjust="spacingAndGlyphs"
text-anchor="middle" opacity="0">v3.0</text>
</g>
<path d="M42769 42609
L43032 42515
L42769 42422
" />
<path d="M42638 42309
L42638 42065
L42788 42197
L42788 42140
L42807 42103
L42826 42084
L42863 42065
L42957 42065
L42994 42084
L43013 42103
L43032 42140
L43032 42253
L43013 42290
L42994 42309
" />
<path d="M42994 41897
L43013 41878
L43032 41897
L43013 41916
L42994 41897
L43032 41897
" />
<path d="M42638 41634
L42638 41597
L42657 41559
L42676 41541
L42713 41522
L42788 41503
L42882 41503
L42957 41522
L42994 41541
L43013 41559
L43032 41597
L43032 41634
L43013 41672
L42994 41691
L42957 41709
L42882 41728
L42788 41728
L42713 41709
L42676 41691
L42657 41672
L42638 41634
" />
<g transform="rotate(-90 43523.6 42047.2)">
<text x="43523.6" y="42244.1"
textLength="2764.53" font-size="524.934" lengthAdjust="spacingAndGlyphs"
text-anchor="middle" opacity="0">09/2021</text>
</g>
<path d="M43308 43209
L43308 43172
L43326 43134
L43345 43115
L43383 43097
L43458 43078
L43551 43078
L43626 43097
L43664 43115
L43682 43134
L43701 43172
L43701 43209
L43682 43247
L43664 43265
L43626 43284
L43551 43303
L43458 43303
L43383 43284
L43345 43265
L43326 43247
L43308 43209
" />
<path d="M43701 42890
L43701 42815
L43682 42778
L43664 42759
L43607 42722
L43532 42703
L43383 42703
L43345 42722
L43326 42740
L43308 42778
L43308 42853
L43326 42890
L43345 42909
L43383 42928
L43476 42928
L43514 42909
L43532 42890
L43551 42853
L43551 42778
L43532 42740
L43514 42722
L43476 42703
" />
<path d="M43289 42253
L43795 42590
" />
<path d="M43345 42140
L43326 42122
L43308 42084
L43308 41991
L43326 41953
L43345 41934
L43383 41916
L43420 41916
L43476 41934
L43701 42159
L43701 41916
" />
<path d="M43308 41672
L43308 41634
L43326 41597
L43345 41578
L43383 41559
L43458 41541
L43551 41541
L43626 41559
L43664 41578
L43682 41597
L43701 41634
L43701 41672
L43682 41709
L43664 41728
L43626 41747
L43551 41766
L43458 41766
L43383 41747
L43345 41728
L43326 41709
L43308 41672
" />
<path d="M43345 41391
L43326 41372
L43308 41334
L43308 41241
L43326 41203
L43345 41184
L43383 41166
L43420 41166
L43476 41184
L43701 41409
L43701 41166
" />
<path d="M43701 40791
L43701 41016
" />
<path d="M43701 40903
L43308 40903
L43364 40941
L43401 40978
L43420 41016
" />
<text x="55905.5" y="49409.4"
textLength="477.315" font-size="524.934" lengthAdjust="spacingAndGlyphs"
text-anchor="middle" opacity="0">1</text>
<path d="M56017 49390
L55793 49390
" />
<path d="M55905 49390
L55905 48997
L55868 49053
L55830 49090
L55793 49109
" />
</g>
<g style="fill:#000000; fill-opacity:0.0; 
stroke:#000000; stroke-width:118.11; stroke-opacity:1; 
stroke-linecap:round; stroke-linejoin:round;">
<text x="45433.1" y="52500"
textLength="833.521" font-size="787.402" lengthAdjust="spacingAndGlyphs"
text-anchor="middle" opacity="0">+</text>
<path d="M45208 52246
L45658 52246
" />
<path d="M45433 52471
L45433 52021
" />
<text x="59448.8" y="52559.1"
textLength="884.702" font-size="787.402" lengthAdjust="spacingAndGlyphs"
text-anchor="middle" opacity="0">-</text>
<path d="M59223 52305
L59673 52305
" />
<text x="62303.1" y="52559.1"
textLength="884.702" font-size="787.402" lengthAdjust="spacingAndGlyphs"
text-anchor="middle" opacity="0">+</text>
<path d="M62078 52305
L62528 52305
" />
<path d="M62303 52530
L62303 52080
" />
</g>
<g style="fill:#000000; fill-opacity:0.0; 
stroke:#000000; stroke-width:49.2126; stroke-opacity:1; 
stroke-linecap:round; stroke-linejoin:round;">
<text x="45315" y="51422.2"
textLength="1681.48" font-size="262.467" lengthAdjust="spacingAndGlyphs"
text-anchor="middle" opacity="0">BATT OUT </text>
<path d="M44663 51309
L44691 51319
L44700 51328
L44710 51347
L44710 51375
L44700 51394
L44691 51403
L44672 51412
L44597 51412
L44597 51216
L44663 51216
L44682 51225
L44691 51234
L44700 51253
L44700 51272
L44691 51291
L44682 51300
L44663 51309
L44597 51309
" />
<path d="M44785 51356
L44879 51356
" />
<path d="M44766 51412
L44832 51216
L44897 51412
" />
<path d="M44935 51216
L45047 51216
" />
<path d="M44991 51412
L44991 51216
" />
<path d="M45085 51216
L45197 51216
" />
<path d="M45141 51412
L45141 51216
" />
<path d="M45450 51216
L45488 51216
L45507 51225
L45525 51244
L45535 51281
L45535 51347
L45525 51384
L45507 51403
L45488 51412
L45450 51412
L45432 51403
L45413 51384
L45404 51347
L45404 51281
L45413 51244
L45432 51225
L45450 51216
" />
<path d="M45619 51216
L45619 51375
L45628 51394
L45638 51403
L45657 51412
L45694 51412
L45713 51403
L45722 51394
L45732 51375
L45732 51216
" />
<path d="M45797 51216
L45910 51216
" />
<path d="M45853 51412
L45853 51216
" />
<text x="45315" y="51766.7"
textLength="1001.36" font-size="262.467" lengthAdjust="spacingAndGlyphs"
text-anchor="middle" opacity="0">&lt; 10A</text>
<path d="M45043 51626
L44893 51682
L45043 51738
" />
<path d="M45389 51757
L45277 51757
" />
<path d="M45333 51757
L45333 51560
L45314 51588
L45296 51607
L45277 51616
" />
<path d="M45511 51560
L45530 51560
L45549 51569
L45558 51579
L45568 51598
L45577 51635
L45577 51682
L45568 51719
L45558 51738
L45549 51747
L45530 51757
L45511 51757
L45493 51747
L45483 51738
L45474 51719
L45464 51682
L45464 51635
L45474 51598
L45483 51579
L45493 51569
L45511 51560
" />
<path d="M45652 51701
L45746 51701
" />
<path d="M45633 51757
L45699 51560
L45764 51757
" />
</g>
<g style="fill:#000000; fill-opacity:0.0; 
stroke:#000000; stroke-width:59.0551; stroke-opacity:1; 
stroke-linecap:round; stroke-linejoin:round;">
<g transform="rotate(-180 45566.9 32696.9)">
<text x="45566.9" y="32815"
textLength="3191.09" font-size="314.961" lengthAdjust="spacingAndGlyphs"
text-anchor="middle" opacity="0">LiPo LiFe Custom</text>
</g>
<path d="M46961 32589
L47074 32589
L47074 32826
" />
<path d="M46883 32589
L46883 32747
" />
<path d="M46883 32826
L46894 32814
L46883 32803
L46871 32814
L46883 32826
L46883 32803
" />
<path d="M46770 32589
L46770 32826
L46680 32826
L46658 32814
L46646 32803
L46635 32781
L46635 32747
L46646 32724
L46658 32713
L46680 32702
L46770 32702
" />
<path d="M46500 32589
L46523 32601
L46534 32612
L46545 32634
L46545 32702
L46534 32724
L46523 32736
L46500 32747
L46466 32747
L46444 32736
L46433 32724
L46421 32702
L46421 32634
L46433 32612
L46444 32601
L46466 32589
L46500 32589
" />
<path d="M46028 32589
L46140 32589
L46140 32826
" />
<path d="M45949 32589
L45949 32747
" />
<path d="M45949 32826
L45960 32814
L45949 32803
L45938 32814
L45949 32826
L45949 32803
" />
<path d="M45758 32713
L45836 32713
" />
<path d="M45836 32589
L45836 32826
L45724 32826
" />
<path d="M45544 32601
L45566 32589
L45611 32589
L45634 32601
L45645 32623
L45645 32713
L45634 32736
L45611 32747
L45566 32747
L45544 32736
L45533 32713
L45533 32691
L45645 32668
" />
<path d="M45116 32612
L45128 32601
L45161 32589
L45184 32589
L45218 32601
L45240 32623
L45251 32646
L45263 32691
L45263 32724
L45251 32769
L45240 32792
L45218 32814
L45184 32826
L45161 32826
L45128 32814
L45116 32803
" />
<path d="M44914 32747
L44914 32589
" />
<path d="M45015 32747
L45015 32623
L45004 32601
L44982 32589
L44948 32589
L44925 32601
L44914 32612
" />
<path d="M44813 32601
L44790 32589
L44745 32589
L44723 32601
L44712 32623
L44712 32634
L44723 32657
L44745 32668
L44779 32668
L44802 32679
L44813 32702
L44813 32713
L44802 32736
L44779 32747
L44745 32747
L44723 32736
" />
<path d="M44644 32747
L44554 32747
" />
<path d="M44610 32826
L44610 32623
L44599 32601
L44577 32589
L44554 32589
" />
<path d="M44442 32589
L44464 32601
L44475 32612
L44487 32634
L44487 32702
L44475 32724
L44464 32736
L44442 32747
L44408 32747
L44385 32736
L44374 32724
L44363 32702
L44363 32634
L44374 32612
L44385 32601
L44408 32589
L44442 32589
" />
<path d="M44262 32589
L44262 32747
" />
<path d="M44262 32724
L44250 32736
L44228 32747
L44194 32747
L44172 32736
L44160 32713
L44160 32589
" />
<path d="M44160 32713
L44149 32736
L44127 32747
L44093 32747
L44070 32736
L44059 32713
L44059 32589
" />
</g>
<g style="fill:#000000; fill-opacity:0.0; 
stroke:#000000; stroke-width:78.7402; stroke-opacity:1; 
stroke-linecap:round; stroke-linejoin:round;">
<g transform="rotate(-180 43208.7 37795.3)">
<text x="43208.7" y="37992.1"
textLength="1689.07" font-size="524.934" lengthAdjust="spacingAndGlyphs"
text-anchor="middle" opacity="0">Reset</text>
</g>
<path d="M43696 37617
L43827 37804
" />
<path d="M43921 37617
L43921 38010
L43771 38010
L43733 37992
L43714 37973
L43696 37935
L43696 37879
L43714 37842
L43733 37823
L43771 37804
L43921 37804
" />
<path d="M43377 37635
L43414 37617
L43489 37617
L43527 37635
L43546 37673
L43546 37823
L43527 37860
L43489 37879
L43414 37879
L43377 37860
L43358 37823
L43358 37785
L43546 37748
" />
<path d="M43208 37635
L43171 37617
L43096 37617
L43058 37635
L43039 37673
L43039 37692
L43058 37729
L43096 37748
L43152 37748
L43189 37767
L43208 37804
L43208 37823
L43189 37860
L43152 37879
L43096 37879
L43058 37860
" />
<path d="M42721 37635
L42758 37617
L42833 37617
L42871 37635
L42889 37673
L42889 37823
L42871 37860
L42833 37879
L42758 37879
L42721 37860
L42702 37823
L42702 37785
L42889 37748
" />
<path d="M42589 37879
L42440 37879
" />
<path d="M42533 38010
L42533 37673
L42514 37635
L42477 37617
L42440 37617
" />
</g>
<g style="fill:#000000; fill-opacity:0.0; 
stroke:#000000; stroke-width:49.2126; stroke-opacity:1; 
stroke-linecap:round; stroke-linejoin:round;">
<g transform="rotate(-90 57381.9 53248)">
<text x="57381.9" y="53346.5"
textLength="1470.94" font-size="262.467" lengthAdjust="spacingAndGlyphs"
text-anchor="middle" opacity="0">6-30VDC</text>
</g>
<path d="M57274 53801
L57274 53838
L57283 53857
L57292 53866
L57320 53885
L57358 53894
L57433 53894
L57452 53885
L57461 53876
L57470 53857
L57470 53819
L57461 53801
L57452 53791
L57433 53782
L57386 53782
L57367 53791
L57358 53801
L57349 53819
L57349 53857
L57358 53876
L57367 53885
L57386 53894
" />
<path d="M57395 53697
L57395 53547
" />
<path d="M57274 53473
L57274 53351
L57349 53416
L57349 53388
L57358 53369
L57367 53360
L57386 53351
L57433 53351
L57452 53360
L57461 53369
L57470 53388
L57470 53444
L57461 53463
L57452 53473
" />
<path d="M57274 53229
L57274 53210
L57283 53191
L57292 53182
L57311 53173
L57349 53163
L57395 53163
L57433 53173
L57452 53182
L57461 53191
L57470 53210
L57470 53229
L57461 53248
L57452 53257
L57433 53266
L57395 53276
L57349 53276
L57311 53266
L57292 53257
L57283 53248
L57274 53229
" />
<path d="M57274 53107
L57470 53041
L57274 52976
" />
<path d="M57470 52910
L57274 52910
L57274 52863
L57283 52835
L57302 52816
L57320 52807
L57358 52798
L57386 52798
L57424 52807
L57442 52816
L57461 52835
L57470 52863
L57470 52910
" />
<path d="M57452 52601
L57461 52610
L57470 52638
L57470 52657
L57461 52685
L57442 52704
L57424 52713
L57386 52723
L57358 52723
L57320 52713
L57302 52704
L57283 52685
L57274 52657
L57274 52638
L57283 52610
L57292 52601
" />
</g>
<g style="fill:#000000; fill-opacity:0.0; 
stroke:#000000; stroke-width:59.0551; stroke-opacity:1; 
stroke-linecap:round; stroke-linejoin:round;">
<g transform="rotate(-180 60826.8 33563)">
<text x="60826.8" y="33681.1"
textLength="783.886" font-size="314.961" lengthAdjust="spacingAndGlyphs"
text-anchor="middle" opacity="0">SW3</text>
</g>
<path d="M61141 33467
L61107 33456
L61051 33456
L61029 33467
L61017 33478
L61006 33501
L61006 33523
L61017 33546
L61029 33557
L61051 33568
L61096 33579
L61119 33591
L61130 33602
L61141 33624
L61141 33647
L61130 33669
L61119 33681
L61096 33692
L61040 33692
L61006 33681
" />
<path d="M60928 33692
L60871 33456
L60826 33624
L60781 33456
L60725 33692
" />
<path d="M60658 33692
L60511 33692
L60590 33602
L60556 33602
L60534 33591
L60523 33579
L60511 33557
L60511 33501
L60523 33478
L60534 33467
L60556 33456
L60624 33456
L60646 33467
L60658 33478
" />
</g>
<g style="fill:#000000; fill-opacity:0.0; 
stroke:#000000; stroke-width:78.7402; stroke-opacity:1; 
stroke-linecap:round; stroke-linejoin:round;">
<circle cx="61338.6" cy="34527.6" r="39.3701" /> 
<circle cx="60315" cy="34527.6" r="39.3701" /> 
<path d="M61732 34527
L61732 34960
" />
<path d="M61338 34527
L61732 34527
" />
<path d="M60314 34527
L61338 34212
" />
<path d="M59921 34527
L60314 34527
" />
<path d="M59921 34960
L59921 34527
" />
</g>
<g style="fill:#000000; fill-opacity:0.0; 
stroke:#000000; stroke-width:59.0551; stroke-opacity:1; 
stroke-linecap:round; stroke-linejoin:round;">
<text x="50944.9" y="51643.7"
textLength="2064.02" font-size="524.934" lengthAdjust="spacingAndGlyphs"
text-anchor="middle" opacity="0">DC/DC</text>
<path d="M50044 51624
L50044 51231
L50138 51231
L50194 51250
L50232 51287
L50251 51324
L50269 51399
L50269 51456
L50251 51531
L50232 51568
L50194 51606
L50138 51624
L50044 51624
" />
<path d="M50663 51587
L50644 51606
L50588 51624
L50551 51624
L50494 51606
L50457 51568
L50438 51531
L50419 51456
L50419 51399
L50438 51324
L50457 51287
L50494 51250
L50551 51231
L50588 51231
L50644 51250
L50663 51268
" />
<path d="M51113 51212
L50776 51718
" />
<path d="M51244 51624
L51244 51231
L51338 51231
L51394 51250
L51432 51287
L51451 51324
L51469 51399
L51469 51456
L51451 51531
L51432 51568
L51394 51606
L51338 51624
L51244 51624
" />
<path d="M51863 51587
L51844 51606
L51788 51624
L51751 51624
L51694 51606
L51657 51568
L51638 51531
L51619 51456
L51619 51399
L51638 51324
L51657 51287
L51694 51250
L51751 51231
L51788 51231
L51844 51250
L51863 51268
" />
<text x="50944.9" y="52293.3"
textLength="2214" font-size="524.934" lengthAdjust="spacingAndGlyphs"
text-anchor="middle" opacity="0">module</text>
<path d="M49970 52274
L49970 52012
" />
<path d="M49970 52049
L49988 52030
L50026 52012
L50082 52012
L50119 52030
L50138 52068
L50138 52274
" />
<path d="M50138 52068
L50157 52030
L50194 52012
L50251 52012
L50288 52030
L50307 52068
L50307 52274
" />
<path d="M50551 52274
L50513 52255
L50494 52237
L50476 52199
L50476 52087
L50494 52049
L50513 52030
L50551 52012
L50607 52012
L50644 52030
L50663 52049
L50682 52087
L50682 52199
L50663 52237
L50644 52255
L50607 52274
L50551 52274
" />
<path d="M51019 52274
L51019 51880
" />
<path d="M51019 52255
L50982 52274
L50907 52274
L50869 52255
L50851 52237
L50832 52199
L50832 52087
L50851 52049
L50869 52030
L50907 52012
L50982 52012
L51019 52030
" />
<path d="M51376 52012
L51376 52274
" />
<path d="M51207 52012
L51207 52218
L51226 52255
L51263 52274
L51319 52274
L51357 52255
L51376 52237
" />
<path d="M51619 52274
L51582 52255
L51563 52218
L51563 51880
" />
<path d="M51919 52255
L51882 52274
L51807 52274
L51769 52255
L51751 52218
L51751 52068
L51769 52030
L51807 52012
L51882 52012
L51919 52030
L51938 52068
L51938 52105
L51751 52143
" />
</g>
<g style="fill:#000000; fill-opacity:0.0; 
stroke:#000000; stroke-width:47.2441; stroke-opacity:1; 
stroke-linecap:round; stroke-linejoin:round;">
<path d="M48819 34039
L49006 34039
" />
<path d="M48819 34450
L49006 34450
" />
<path d="M49006 33806
L48819 33806
" />
<path d="M49006 33395
L48819 33395
" />
<path d="M48819 32750
L49006 32750
" />
<path d="M48819 33162
L49006 33162
" />
<path d="M48819 34683
L49006 34683
" />
<path d="M48819 35094
L49006 35094
" />
<path d="M48819 35971
L49006 35971
" />
<path d="M48819 36382
L49006 36382
" />
<path d="M49006 35738
L48819 35738
" />
<path d="M49006 35327
L48819 35327
" />
<path d="M53535 31976
L53535 35874
" />
<path d="M49629 31976
L49629 35874
" />
<path d="M53535 31976
L49629 31976
" />
<path d="M53535 35874
L49629 35874
" />
<path d="M53629 31881
L53629 32426
" />
<path d="M53629 31881
L53085 31881
" />
<path d="M52905 31503
L52905 31976
" />
<path d="M52259 31503
L52259 31976
" />
<path d="M52905 31503
L52259 31503
" />
<path d="M52905 31976
L52259 31976
" />
<path d="M51905 31503
L51905 31976
" />
<path d="M51259 31503
L51259 31976
" />
<path d="M51905 31503
L51259 31503
" />
<path d="M51905 31976
L51259 31976
" />
<path d="M50905 31503
L50905 31976
" />
<path d="M50259 31503
L50259 31976
" />
<path d="M50905 31503
L50259 31503
" />
<path d="M50905 31976
L50259 31976
" />
<path d="M55509 52212
L56033 52212
" />
<path d="M55509 52736
L55509 52212
" />
<path d="M55509 53236
L56557 53236
" />
<path d="M56557 53236
L56557 54259
" />
<path d="M55509 53236
L55509 54259
" />
<path d="M55509 54259
L56557 54259
" />
<path d="M59290 38215
L59103 38215
" />
<path d="M59290 38626
L59103 38626
" />
<path d="M62375 43266
L62375 43079
" />
<path d="M61963 43266
L61963 43079
" />
<path d="M60688 38251
L59960 38251
" />
<path d="M60688 37779
L59960 37779
" />
<path d="M59960 37779
L59960 38251
" />
<path d="M59102 40712
L59102 39708
" />
<path d="M59771 40712
L59771 39708
" />
<path d="M59102 40712
L59771 40712
" />
<path d="M59712 38909
L59602 38909
" />
<path d="M59712 39311
L59602 39311
" />
<path d="M51555 47094
L51799 47094
" />
<path d="M51799 47094
L51799 46700
" />
<path d="M51555 39913
L51799 39913
" />
<path d="M51799 39913
L51799 40307
" />
<path d="M44145 47094
L44145 39913
" />
<path d="M44145 39913
L44311 39913
" />
<path d="M44145 47094
L44311 47094
" />
<path d="M44311 47094
L44311 47244
" />
<path d="M50723 49011
L50851 49011
" />
<path d="M50723 49413
L50851 49413
" />
<path d="M53905 47149
L54271 47149
" />
<path d="M55149 47149
L54783 47149
" />
<path d="M55149 47149
L55149 46299
" />
<path d="M53905 47149
L53905 46574
" />
</g>
<g style="fill:#000000; fill-opacity:0.0; 
stroke:#000000; stroke-width:59.0551; stroke-opacity:1; 
stroke-linecap:round; stroke-linejoin:round;">
<path d="M49114 50984
L49704 51377
" />
<path d="M49114 50984
L49704 50393
" />
<path d="M52657 50984
L49114 50984
" />
<path d="M46515 54291
L55255 54291
" />
<path d="M46515 47677
L46515 54291
" />
<path d="M55255 47677
L46515 47677
" />
<path d="M55255 54291
L55255 47677
" />
</g>
<g style="fill:#000000; fill-opacity:0.0; 
stroke:#000000; stroke-width:47.2441; stroke-opacity:1; 
stroke-linecap:round; stroke-linejoin:round;">
<path d="M40858 46893
L40858 46318
" />
<path d="M42102 46893
L42102 46043
" />
<path d="M42102 46893
L41736 46893
" />
<path d="M40858 46893
L41224 46893
" />
<path d="M42318 45610
L42318 45035
" />
<path d="M43562 45610
L43562 44759
" />
<path d="M43562 45610
L43196 45610
" />
<path d="M42318 45610
L42685 45610
" />
</g>
<g style="fill:#000000; fill-opacity:0.0; 
stroke:#000000; stroke-width:39.3701; stroke-opacity:1; 
stroke-linecap:round; stroke-linejoin:round;">
<path d="M48543 57785
L48159 57785
" />
<path d="M48159 57785
L48159 57519
" />
<path d="M53415 57529
L53415 57785
" />
<path d="M53415 57785
L53139 57785
" />
<path d="M48562 50029
L48159 50029
" />
<path d="M48159 50029
L48159 50344
" />
<path d="M53041 50029
L53415 50029
" />
<path d="M53415 50029
L53415 50314
" />
</g>
<g style="fill:#000000; fill-opacity:0.0; 
stroke:#000000; stroke-width:59.0551; stroke-opacity:1; 
stroke-linecap:round; stroke-linejoin:round;">
<path d="M47952 49645
L47952 55157
" />
<path d="M47952 55157
L53622 55157
" />
<path d="M53622 55157
L53622 49645
" />
<path d="M53622 49645
L47952 49645
" />
</g>
<g style="fill:#000000; fill-opacity:0.0; 
stroke:#000000; stroke-width:47.2441; stroke-opacity:1; 
stroke-linecap:round; stroke-linejoin:round;">
<path d="M59740 48385
L60133 48385
" />
<path d="M59937 48582
L59937 48188
" />
<path d="M62183 48724
L62602 48305
" />
<path d="M59667 48724
L59248 48305
" />
<path d="M59667 48724
L60330 48724
" />
<path d="M62183 48724
L61519 48724
" />
<path d="M62602 48305
L62602 45370
" />
<path d="M59248 48305
L59248 45370
" />
<path d="M59248 45370
L60330 45370
" />
<path d="M62602 45370
L61519 45370
" />
<path d="M43425 32474
L44324 32474
" />
<path d="M44324 32474
L44324 31895
" />
<path d="M44324 31895
L43425 31895
" />
<path d="M60685 37062
L59956 37062
" />
<path d="M60685 36590
L59956 36590
" />
<path d="M59956 36590
L59956 37062
" />
<path d="M55535 32582
L55535 32378
" />
<path d="M54976 32582
L54976 32378
" />
<path d="M57192 49267
L56602 49267
" />
<path d="M56602 49267
L56602 49452
" />
<path d="M56602 49452
L55488 49452
" />
<path d="M57192 51984
L56602 51984
" />
<path d="M56602 51984
L56602 51799
" />
<path d="M56602 51799
L56169 51799
" />
<path d="M56766 32326
L56894 32326
" />
<path d="M56766 31925
L56894 31925
" />
<path d="M58431 32534
L58431 32662
" />
<path d="M58832 32534
L58832 32662
" />
<path d="M58202 32524
L58202 32652
" />
<path d="M57801 32524
L57801 32652
" />
<path d="M58252 33312
L58381 33312
" />
<path d="M58252 33714
L58381 33714
" />
<path d="M59102 42035
L60149 42035
" />
<path d="M59102 42035
L59102 45059
" />
<path d="M59102 45059
L60149 45059
" />
<path d="M60149 42035
L60149 45059
" />
<path d="M60149 41011
L60149 41535
" />
<path d="M59625 41011
L60149 41011
" />
<path d="M58208 49019
L56161 49019
" />
<path d="M56161 49019
L56161 48795
" />
<path d="M56161 48196
L56161 47795
" />
<path d="M56161 47196
L56161 46795
" />
<path d="M56161 46196
L56161 45795
" />
<path d="M56161 45196
L56161 44795
" />
<path d="M56161 44196
L56161 43795
" />
<path d="M56161 43196
L56161 42795
" />
<path d="M56161 42196
L56161 41795
" />
<path d="M56161 41196
L56161 40795
" />
<path d="M56161 40196
L56161 39795
" />
<path d="M56161 39196
L56161 38972
" />
<path d="M58208 38972
L56161 38972
" />
<path d="M58208 49019
L58208 48795
" />
<path d="M58208 48196
L58208 47795
" />
<path d="M58208 47196
L58208 46795
" />
<path d="M58208 46196
L58208 45795
" />
<path d="M58208 45196
L58208 44795
" />
<path d="M58208 44196
L58208 43795
" />
<path d="M58208 43196
L58208 42795
" />
<path d="M58208 42196
L58208 41795
" />
<path d="M58208 41196
L58208 40795
" />
<path d="M58208 40196
L58208 39795
" />
<path d="M58208 39196
L58208 38972
" />
<path d="M56161 48795
L55625 48795
" />
<path d="M53877 35403
L53877 33395
" />
<path d="M55885 35403
L55885 33395
" />
<path d="M41732 42314
L41177 42314
" />
<path d="M41177 43228
L41976 43228
" />
<path d="M41177 43228
L41177 42968
" />
<path d="M41177 42574
L41177 42314
" />
<path d="M41368 44937
L41497 44937
" />
<path d="M41368 44535
L41497 44535
" />
<path d="M49123 36622
L48994 36622
" />
<path d="M49123 37023
L48994 37023
" />
<path d="M50414 39452
L50286 39452
" />
<path d="M50414 39051
L50286 39051
" />
<path d="M51554 39456
L51682 39456
" />
<path d="M51554 39055
L51682 39055
" />
<path d="M48764 38470
L48892 38470
" />
<path d="M48764 38872
L48892 38872
" />
<path d="M48998 39515
L49127 39515
" />
<path d="M48998 39114
L49127 39114
" />
<path d="M52224 47047
L52224 46043
" />
<path d="M52893 47047
L52893 46043
" />
<path d="M52224 47047
L52893 47047
" />
<path d="M41177 43657
L41177 43397
" />
<path d="M41177 44311
L41177 44051
" />
<path d="M41177 44311
L41976 44311
" />
<path d="M41732 43397
L41177 43397
" />
<path d="M48606 47967
L48606 48095
" />
<path d="M48204 47967
L48204 48095
" />
<path d="M42780 38185
L42652 38185
" />
<path d="M42780 38586
L42652 38586
" />
<path d="M49255 47967
L49255 48095
" />
<path d="M48854 47967
L48854 48095
" />
<path d="M42299 43266
L42299 43394
" />
<path d="M42700 43266
L42700 43394
" />
<path d="M41400 41712
L41528 41712
" />
<path d="M41400 42114
L41528 42114
" />
<path d="M53547 45733
L53547 45605
" />
<path d="M53145 45733
L53145 45605
" />
<path d="M42346 46713
L42346 46585
" />
<path d="M42748 46713
L42748 46585
" />
<path d="M43417 46609
L43417 46737
" />
<path d="M43818 46609
L43818 46737
" />
<path d="M41416 45759
L41544 45759
" />
<path d="M41416 45358
L41544 45358
" />
<path d="M42876 44468
L43005 44468
" />
<path d="M42876 44066
L43005 44066
" />
<path d="M52928 39011
L53056 39011
" />
<path d="M52928 39413
L53056 39413
" />
<path d="M54463 45968
L54591 45968
" />
<path d="M54463 45566
L54591 45566
" />
<path d="M56141 34714
L58267 34714
" />
<path d="M56141 36013
L58267 36013
" />
<path d="M56141 34714
L56141 36013
" />
<path d="M57509 34025
L57509 34498
" />
<path d="M58238 34025
L57509 34025
" />
<path d="M58238 34498
L57509 34498
" />
<path d="M60685 37653
L59956 37653
" />
<path d="M60685 37181
L59956 37181
" />
<path d="M59956 37181
L59956 37653
" />
<path d="M44015 34066
L44015 34377
" />
<path d="M47913 34377
L47913 34066
" />
<path d="M46299 34771
L45629 34771
" />
<path d="M47677 33673
L44251 33673
" />
<path d="M45708 33161
L45708 33673
" />
<path d="M45787 33082
L46141 33082
" />
<path d="M46220 33673
L46220 33161
" />
<path d="M45708 33161
L45787 33082
" />
<path d="M46220 33161
L46141 33082
" />
<path d="M45118 34771
L45039 34771
" />
<path d="M46889 34771
L46811 34771
" />
<path d="M44527 34771
L44251 34771
" />
<path d="M47677 34771
L47401 34771
" />
<path d="M44007 36740
L44007 36700
" />
<path d="M42275 37330
L44007 37330
" />
<path d="M44007 36110
L42275 36110
" />
<path d="M42275 36740
L42275 36700
" />
<path d="M44862 47897
L44734 47897
" />
<path d="M44862 47496
L44734 47496
" />
<path d="M53026 42484
L53154 42484
" />
<path d="M53026 42082
L53154 42082
" />
<path d="M56855 34452
L56727 34452
" />
<path d="M56855 34051
L56727 34051
" />
<path d="M53547 38183
L53547 38312
" />
<path d="M53145 38183
L53145 38312
" />
<path d="M48912 37866
L48784 37866
" />
<path d="M48912 38267
L48784 38267
" />
<path d="M53145 37032
L53145 36904
" />
<path d="M53547 37032
L53547 36904
" />
<path d="M49119 37240
L48991 37240
" />
<path d="M49119 37641
L48991 37641
" />
<path d="M54169 32591
L54169 32388
" />
<path d="M54728 32591
L54728 32388
" />
<path d="M54902 35616
L54428 35616
" />
<path d="M54902 36332
L54428 36332
" />
<path d="M54902 37316
L54428 37316
" />
<path d="M54902 36600
L54428 36600
" />
<path d="M42271 33777
L42521 33777
" />
<path d="M42271 34027
L42271 33777
" />
<path d="M40716 31858
L41240 31858
" />
<path d="M40716 32381
L40716 31858
" />
<path d="M40716 32881
L41763 32881
" />
<path d="M41763 32881
L41763 37905
" />
<path d="M40716 32881
L40716 37905
" />
<path d="M40716 37905
L41763 37905
" />
<path d="M61161 37145
L62165 37145
" />
<path d="M61161 37814
L62165 37814
" />
<path d="M61161 37145
L61161 37814
" />
<path d="M47992 32474
L48891 32474
" />
<path d="M48891 32474
L48891 31895
" />
<path d="M48891 31895
L47992 31895
" />
<path d="M46608 31895
L45708 31895
" />
<path d="M46608 32474
L46608 31895
" />
<path d="M45708 32474
L46608 32474
" />
<path d="M46850 32474
L47750 32474
" />
<path d="M47750 32474
L47750 31895
" />
<path d="M47750 31895
L46850 31895
" />
<path d="M43183 31895
L42283 31895
" />
<path d="M43183 32474
L43183 31895
" />
<path d="M42283 32474
L43183 32474
" />
<path d="M45466 31895
L44566 31895
" />
<path d="M45466 32474
L45466 31895
" />
<path d="M44566 32474
L45466 32474
" />
</g>
<g style="fill:#000000; fill-opacity:0.0; 
stroke:#000000; stroke-width:59.0551; stroke-opacity:1; 
stroke-linecap:round; stroke-linejoin:round;">
<path d="M54714 41860
L55265 41860
" />
<path d="M54714 39852
L53080 39852
" />
<path d="M54714 41879
L53080 41879
" />
<path d="M54714 39852
L54714 39909
" />
<path d="M53080 39852
L53080 39909
" />
<path d="M53080 41879
L53080 41822
" />
<path d="M54714 41879
L54714 41860
" />
<path d="M49901 36102
L52253 36102
" />
<path d="M50501 38818
L52253 38818
" />
</g>
<g style="fill:#000000; fill-opacity:0.0; 
stroke:#000000; stroke-width:47.2441; stroke-opacity:1; 
stroke-linecap:round; stroke-linejoin:round;">
<path d="M56555 33822
L57519 33822
" />
<path d="M57263 32555
L56555 32555
" />
<path d="M61687 38468
L61816 38468
" />
<path d="M61687 38066
L61816 38066
" />
<path d="M59401 37205
L59401 37077
" />
<path d="M59803 37205
L59803 37077
" />
<path d="M53657 44241
L53657 44113
" />
<path d="M53255 44241
L53255 44113
" />
<path d="M53547 46929
L53547 46801
" />
<path d="M53145 46929
L53145 46801
" />
<path d="M55201 38204
L55073 38204
" />
<path d="M55201 38606
L55073 38606
" />
<path d="M55073 38015
L55201 38015
" />
<path d="M55073 37614
L55201 37614
" />
<circle cx="44212.6" cy="38582.7" r="374.016" /> 
<circle cx="47913.4" cy="36594.5" r="374.016" /> 
<path d="M54062 42173
L54586 42173
" />
<path d="M54062 42696
L54062 42173
" />
<path d="M54062 43196
L55110 43196
" />
<path d="M55110 43196
L55110 45220
" />
<path d="M54062 43196
L54062 45220
" />
<path d="M54062 45220
L55110 45220
" />
<path d="M62657 52027
L60531 52027
" />
<path d="M62657 50728
L60531 50728
" />
<path d="M62657 52027
L62657 50728
" />
<path d="M61864 49228
L60773 49228
" />
<path d="M61864 50574
L60773 50574
" />
<path d="M60153 33157
L61492 33157
" />
<path d="M59507 33157
L59720 33157
" />
<path d="M62342 34271
L62342 34472
" />
<path d="M62137 34472
L62342 34472
" />
<path d="M62137 34271
L62137 34472
" />
<path d="M61925 33157
L62137 33157
" />
<path d="M59303 34271
L59303 34472
" />
<path d="M59507 34271
L59507 34472
" />
<path d="M62137 33157
L62137 33248
" />
<path d="M59303 31712
L59303 33248
" />
<path d="M59303 34472
L59507 34472
" />
<path d="M62342 31712
L62342 33248
" />
<path d="M59303 31712
L62342 31712
" />
<path d="M59507 33157
L59507 33248
" />
</g>
<g style="fill:#000000; fill-opacity:0.0; 
stroke:#000000; stroke-width:59.0551; stroke-opacity:1; 
stroke-linecap:round; stroke-linejoin:round;">
<path d="M59641 35236
L62003 35236
" />
<path d="M62003 35236
L62003 34153
" />
<path d="M59641 35236
L59641 34153
" />
</g>
<g style="fill:#000000; fill-opacity:0.0; 
stroke:#000000; stroke-width:39.3701; stroke-opacity:1; 
stroke-linecap:round; stroke-linejoin:round;">
<text x="53641.7" y="52716.5"
textLength="946.663" font-size="419.947" lengthAdjust="spacingAndGlyphs"
text-anchor="middle" opacity="0">IN-</text>
<path d="M53281 52701
L53281 52386
" />
<path d="M53431 52701
L53431 52386
L53611 52701
L53611 52386
" />
<path d="M53761 52581
L54001 52581
" />
<text x="53641.7" y="49566.9"
textLength="921.072" font-size="419.947" lengthAdjust="spacingAndGlyphs"
text-anchor="middle" opacity="0">IN+</text>
<path d="M53281 49551
L53281 49236
" />
<path d="M53431 49551
L53431 49236
L53611 49551
L53611 49236
" />
<path d="M53761 49431
L54001 49431
" />
<path d="M53881 49551
L53881 49311
" />
<text x="48326.8" y="52716.5"
textLength="1341.02" font-size="419.947" lengthAdjust="spacingAndGlyphs"
text-anchor="middle" opacity="0">OUT-</text>
<path d="M47816 52386
L47876 52386
L47906 52401
L47936 52431
L47951 52491
L47951 52596
L47936 52656
L47906 52686
L47876 52701
L47816 52701
L47786 52686
L47756 52656
L47741 52596
L47741 52491
L47756 52431
L47786 52401
L47816 52386
" />
<path d="M48086 52386
L48086 52641
L48101 52671
L48116 52686
L48146 52701
L48206 52701
L48236 52686
L48251 52671
L48266 52641
L48266 52386
" />
<path d="M48371 52386
L48551 52386
" />
<path d="M48461 52701
L48461 52386
" />
<path d="M48656 52581
L48896 52581
" />
<text x="48326.8" y="49566.9"
textLength="1341.02" font-size="419.947" lengthAdjust="spacingAndGlyphs"
text-anchor="middle" opacity="0">OUT+</text>
<path d="M47816 49236
L47876 49236
L47906 49251
L47936 49281
L47951 49341
L47951 49446
L47936 49506
L47906 49536
L47876 49551
L47816 49551
L47786 49536
L47756 49506
L47741 49446
L47741 49341
L47756 49281
L47786 49251
L47816 49236
" />
<path d="M48086 49236
L48086 49491
L48101 49521
L48116 49536
L48146 49551
L48206 49551
L48236 49536
L48251 49521
L48266 49491
L48266 49236
" />
<path d="M48371 49236
L48551 49236
" />
<path d="M48461 49551
L48461 49236
" />
<path d="M48656 49431
L48896 49431
" />
<path d="M48776 49551
L48776 49311
" />
<g >
</g>
</g> 
</svg>
