%FSLAX45Y45*%
G04 Gerber Fmt 4.5, Leading zero omitted, Abs format (unit mm)*
G04 Created by KiCad (PCBNEW 5.1.10) date 2021-09-27 12:50:18*
%MOMM*%
%LPD*%
G01*
G04 APERTURE LIST*
%TA.AperFunction,Profile*%
%ADD10C,0.150000*%
%TD*%
%ADD11C,0.200000*%
%ADD12C,0.300000*%
G04 APERTURE END LIST*
D10*
X5650000Y3250000D02*
X5325000Y3250000D01*
X325000Y3950000D02*
G75*
G02*
X325000Y3250000I0J-350000D01*
G01*
X0Y3250000D02*
X325000Y3250000D01*
X5325000Y3950000D02*
G75*
G03*
X5325000Y3250000I0J-350000D01*
G01*
X325000Y3950000D02*
X0Y3950000D01*
X0Y3950000D02*
X0Y5750000D01*
X0Y0D02*
X0Y3250000D01*
X5650000Y0D02*
X0Y0D01*
X5650000Y3250000D02*
X5650000Y0D01*
X5650000Y3950000D02*
X5325000Y3950000D01*
X5650000Y5750000D02*
X5650000Y3950000D01*
X0Y5750000D02*
X5650000Y5750000D01*
D11*
X1080000Y5153000D02*
X1170000Y5063000D01*
X1170000Y5153000D02*
X1080000Y5063000D01*
X1580000Y5153000D02*
X1670000Y5063000D01*
X1670000Y5153000D02*
X1580000Y5063000D01*
X511930Y4776000D02*
G75*
G03*
X511930Y4776000I-49530J0D01*
G01*
X613530Y5284000D02*
G75*
G03*
X613530Y5284000I-49530J0D01*
G01*
X715130Y4776000D02*
G75*
G03*
X715130Y4776000I-49530J0D01*
G01*
X1425000Y4435000D02*
X1425000Y4115000D01*
X1265000Y4275000D02*
X1585000Y4275000D01*
X4225000Y4435000D02*
X4225000Y4115000D01*
X4065000Y4275000D02*
X4385000Y4275000D01*
D12*
X278928Y-473214D02*
X278928Y-173214D01*
X350357Y-173214D01*
X393214Y-187500D01*
X421786Y-216071D01*
X436071Y-244643D01*
X450357Y-301786D01*
X450357Y-344643D01*
X436071Y-401786D01*
X421786Y-430357D01*
X393214Y-458929D01*
X350357Y-473214D01*
X278928Y-473214D01*
X578928Y-473214D02*
X578928Y-273214D01*
X578928Y-330357D02*
X593214Y-301786D01*
X607500Y-287500D01*
X636071Y-273214D01*
X664643Y-273214D01*
X764643Y-473214D02*
X764643Y-273214D01*
X764643Y-173214D02*
X750357Y-187500D01*
X764643Y-201786D01*
X778928Y-187500D01*
X764643Y-173214D01*
X764643Y-201786D01*
X950357Y-473214D02*
X921786Y-458929D01*
X907500Y-430357D01*
X907500Y-173214D01*
X1107500Y-473214D02*
X1078928Y-458929D01*
X1064643Y-430357D01*
X1064643Y-173214D01*
X1450357Y-473214D02*
X1450357Y-173214D01*
X1550357Y-387500D01*
X1650357Y-173214D01*
X1650357Y-473214D01*
X1921786Y-473214D02*
X1921786Y-316072D01*
X1907500Y-287500D01*
X1878928Y-273214D01*
X1821786Y-273214D01*
X1793214Y-287500D01*
X1921786Y-458929D02*
X1893214Y-473214D01*
X1821786Y-473214D01*
X1793214Y-458929D01*
X1778928Y-430357D01*
X1778928Y-401786D01*
X1793214Y-373214D01*
X1821786Y-358929D01*
X1893214Y-358929D01*
X1921786Y-344643D01*
X2064643Y-273214D02*
X2064643Y-573214D01*
X2064643Y-287500D02*
X2093214Y-273214D01*
X2150357Y-273214D01*
X2178928Y-287500D01*
X2193214Y-301786D01*
X2207500Y-330357D01*
X2207500Y-416071D01*
X2193214Y-444643D01*
X2178928Y-458929D01*
X2150357Y-473214D01*
X2093214Y-473214D01*
X2064643Y-458929D01*
X2336071Y-444643D02*
X2350357Y-458929D01*
X2336071Y-473214D01*
X2321786Y-458929D01*
X2336071Y-444643D01*
X2336071Y-473214D01*
X2336071Y-287500D02*
X2350357Y-301786D01*
X2336071Y-316072D01*
X2321786Y-301786D01*
X2336071Y-287500D01*
X2336071Y-316072D01*
X-97500Y-922500D02*
X-7500Y-1012500D01*
X-7500Y-922500D02*
X-97500Y-1012500D01*
X336071Y-803214D02*
X364643Y-803214D01*
X393214Y-817500D01*
X407500Y-831786D01*
X421786Y-860357D01*
X436071Y-917500D01*
X436071Y-988929D01*
X421786Y-1046071D01*
X407500Y-1074643D01*
X393214Y-1088929D01*
X364643Y-1103214D01*
X336071Y-1103214D01*
X307500Y-1088929D01*
X293214Y-1074643D01*
X278928Y-1046071D01*
X264643Y-988929D01*
X264643Y-917500D01*
X278928Y-860357D01*
X293214Y-831786D01*
X307500Y-817500D01*
X336071Y-803214D01*
X564643Y-1074643D02*
X578928Y-1088929D01*
X564643Y-1103214D01*
X550357Y-1088929D01*
X564643Y-1074643D01*
X564643Y-1103214D01*
X721786Y-1103214D02*
X778928Y-1103214D01*
X807500Y-1088929D01*
X821786Y-1074643D01*
X850357Y-1031786D01*
X864643Y-974643D01*
X864643Y-860357D01*
X850357Y-831786D01*
X836071Y-817500D01*
X807500Y-803214D01*
X750357Y-803214D01*
X721786Y-817500D01*
X707500Y-831786D01*
X693214Y-860357D01*
X693214Y-931786D01*
X707500Y-960357D01*
X721786Y-974643D01*
X750357Y-988929D01*
X807500Y-988929D01*
X836071Y-974643D01*
X850357Y-960357D01*
X864643Y-931786D01*
X1050357Y-803214D02*
X1078928Y-803214D01*
X1107500Y-817500D01*
X1121786Y-831786D01*
X1136071Y-860357D01*
X1150357Y-917500D01*
X1150357Y-988929D01*
X1136071Y-1046071D01*
X1121786Y-1074643D01*
X1107500Y-1088929D01*
X1078928Y-1103214D01*
X1050357Y-1103214D01*
X1021786Y-1088929D01*
X1007500Y-1074643D01*
X993214Y-1046071D01*
X978928Y-988929D01*
X978928Y-917500D01*
X993214Y-860357D01*
X1007500Y-831786D01*
X1021786Y-817500D01*
X1050357Y-803214D01*
X1336071Y-803214D02*
X1364643Y-803214D01*
X1393214Y-817500D01*
X1407500Y-831786D01*
X1421786Y-860357D01*
X1436071Y-917500D01*
X1436071Y-988929D01*
X1421786Y-1046071D01*
X1407500Y-1074643D01*
X1393214Y-1088929D01*
X1364643Y-1103214D01*
X1336071Y-1103214D01*
X1307500Y-1088929D01*
X1293214Y-1074643D01*
X1278928Y-1046071D01*
X1264643Y-988929D01*
X1264643Y-917500D01*
X1278928Y-860357D01*
X1293214Y-831786D01*
X1307500Y-817500D01*
X1336071Y-803214D01*
X1564643Y-1103214D02*
X1564643Y-903214D01*
X1564643Y-931786D02*
X1578928Y-917500D01*
X1607500Y-903214D01*
X1650357Y-903214D01*
X1678928Y-917500D01*
X1693214Y-946071D01*
X1693214Y-1103214D01*
X1693214Y-946071D02*
X1707500Y-917500D01*
X1736071Y-903214D01*
X1778928Y-903214D01*
X1807500Y-917500D01*
X1821786Y-946071D01*
X1821786Y-1103214D01*
X1964643Y-1103214D02*
X1964643Y-903214D01*
X1964643Y-931786D02*
X1978928Y-917500D01*
X2007500Y-903214D01*
X2050357Y-903214D01*
X2078928Y-917500D01*
X2093214Y-946071D01*
X2093214Y-1103214D01*
X2093214Y-946071D02*
X2107500Y-917500D01*
X2136071Y-903214D01*
X2178928Y-903214D01*
X2207500Y-917500D01*
X2221786Y-946071D01*
X2221786Y-1103214D01*
X2807500Y-788929D02*
X2550357Y-1174643D01*
X3193214Y-803214D02*
X3221786Y-803214D01*
X3250357Y-817500D01*
X3264643Y-831786D01*
X3278928Y-860357D01*
X3293214Y-917500D01*
X3293214Y-988929D01*
X3278928Y-1046071D01*
X3264643Y-1074643D01*
X3250357Y-1088929D01*
X3221786Y-1103214D01*
X3193214Y-1103214D01*
X3164643Y-1088929D01*
X3150357Y-1074643D01*
X3136071Y-1046071D01*
X3121786Y-988929D01*
X3121786Y-917500D01*
X3136071Y-860357D01*
X3150357Y-831786D01*
X3164643Y-817500D01*
X3193214Y-803214D01*
X3421786Y-1074643D02*
X3436071Y-1088929D01*
X3421786Y-1103214D01*
X3407500Y-1088929D01*
X3421786Y-1074643D01*
X3421786Y-1103214D01*
X3621786Y-803214D02*
X3650357Y-803214D01*
X3678928Y-817500D01*
X3693214Y-831786D01*
X3707500Y-860357D01*
X3721786Y-917500D01*
X3721786Y-988929D01*
X3707500Y-1046071D01*
X3693214Y-1074643D01*
X3678928Y-1088929D01*
X3650357Y-1103214D01*
X3621786Y-1103214D01*
X3593214Y-1088929D01*
X3578928Y-1074643D01*
X3564643Y-1046071D01*
X3550357Y-988929D01*
X3550357Y-917500D01*
X3564643Y-860357D01*
X3578928Y-831786D01*
X3593214Y-817500D01*
X3621786Y-803214D01*
X3821786Y-803214D02*
X4007500Y-803214D01*
X3907500Y-917500D01*
X3950357Y-917500D01*
X3978928Y-931786D01*
X3993214Y-946071D01*
X4007500Y-974643D01*
X4007500Y-1046071D01*
X3993214Y-1074643D01*
X3978928Y-1088929D01*
X3950357Y-1103214D01*
X3864643Y-1103214D01*
X3836071Y-1088929D01*
X3821786Y-1074643D01*
X4278928Y-803214D02*
X4136071Y-803214D01*
X4121786Y-946071D01*
X4136071Y-931786D01*
X4164643Y-917500D01*
X4236071Y-917500D01*
X4264643Y-931786D01*
X4278928Y-946071D01*
X4293214Y-974643D01*
X4293214Y-1046071D01*
X4278928Y-1074643D01*
X4264643Y-1088929D01*
X4236071Y-1103214D01*
X4164643Y-1103214D01*
X4136071Y-1088929D01*
X4121786Y-1074643D01*
X4550357Y-903214D02*
X4550357Y-1103214D01*
X4478928Y-788929D02*
X4407500Y-1003214D01*
X4593214Y-1003214D01*
X4693214Y-803214D02*
X4693214Y-860357D01*
X4807500Y-803214D02*
X4807500Y-860357D01*
X5250357Y-1217500D02*
X5236071Y-1203214D01*
X5207500Y-1160357D01*
X5193214Y-1131786D01*
X5178928Y-1088929D01*
X5164643Y-1017500D01*
X5164643Y-960357D01*
X5178928Y-888929D01*
X5193214Y-846071D01*
X5207500Y-817500D01*
X5236071Y-774643D01*
X5250357Y-760357D01*
X5350357Y-831786D02*
X5364643Y-817500D01*
X5393214Y-803214D01*
X5464643Y-803214D01*
X5493214Y-817500D01*
X5507500Y-831786D01*
X5521786Y-860357D01*
X5521786Y-888929D01*
X5507500Y-931786D01*
X5336071Y-1103214D01*
X5521786Y-1103214D01*
X5878928Y-1103214D02*
X5878928Y-803214D01*
X6007500Y-1103214D02*
X6007500Y-946071D01*
X5993214Y-917500D01*
X5964643Y-903214D01*
X5921786Y-903214D01*
X5893214Y-917500D01*
X5878928Y-931786D01*
X6193214Y-1103214D02*
X6164643Y-1088929D01*
X6150357Y-1074643D01*
X6136071Y-1046071D01*
X6136071Y-960357D01*
X6150357Y-931786D01*
X6164643Y-917500D01*
X6193214Y-903214D01*
X6236071Y-903214D01*
X6264643Y-917500D01*
X6278928Y-931786D01*
X6293214Y-960357D01*
X6293214Y-1046071D01*
X6278928Y-1074643D01*
X6264643Y-1088929D01*
X6236071Y-1103214D01*
X6193214Y-1103214D01*
X6464643Y-1103214D02*
X6436071Y-1088929D01*
X6421786Y-1060357D01*
X6421786Y-803214D01*
X6693214Y-1088929D02*
X6664643Y-1103214D01*
X6607500Y-1103214D01*
X6578928Y-1088929D01*
X6564643Y-1060357D01*
X6564643Y-946071D01*
X6578928Y-917500D01*
X6607500Y-903214D01*
X6664643Y-903214D01*
X6693214Y-917500D01*
X6707500Y-946071D01*
X6707500Y-974643D01*
X6564643Y-1003214D01*
X6821786Y-1088929D02*
X6850357Y-1103214D01*
X6907500Y-1103214D01*
X6936071Y-1088929D01*
X6950357Y-1060357D01*
X6950357Y-1046071D01*
X6936071Y-1017500D01*
X6907500Y-1003214D01*
X6864643Y-1003214D01*
X6836071Y-988929D01*
X6821786Y-960357D01*
X6821786Y-946071D01*
X6836071Y-917500D01*
X6864643Y-903214D01*
X6907500Y-903214D01*
X6936071Y-917500D01*
X7050357Y-1217500D02*
X7064643Y-1203214D01*
X7093214Y-1160357D01*
X7107500Y-1131786D01*
X7121786Y-1088929D01*
X7136071Y-1017500D01*
X7136071Y-960357D01*
X7121786Y-888929D01*
X7107500Y-846071D01*
X7093214Y-817500D01*
X7064643Y-774643D01*
X7050357Y-760357D01*
X7593214Y-1217500D02*
X7578928Y-1203214D01*
X7550357Y-1160357D01*
X7536071Y-1131786D01*
X7521786Y-1088929D01*
X7507500Y-1017500D01*
X7507500Y-960357D01*
X7521786Y-888929D01*
X7536071Y-846071D01*
X7550357Y-817500D01*
X7578928Y-774643D01*
X7593214Y-760357D01*
X7707500Y-903214D02*
X7707500Y-1103214D01*
X7707500Y-931786D02*
X7721786Y-917500D01*
X7750357Y-903214D01*
X7793214Y-903214D01*
X7821786Y-917500D01*
X7836071Y-946071D01*
X7836071Y-1103214D01*
X8021786Y-1103214D02*
X7993214Y-1088929D01*
X7978928Y-1074643D01*
X7964643Y-1046071D01*
X7964643Y-960357D01*
X7978928Y-931786D01*
X7993214Y-917500D01*
X8021786Y-903214D01*
X8064643Y-903214D01*
X8093214Y-917500D01*
X8107500Y-931786D01*
X8121786Y-960357D01*
X8121786Y-1046071D01*
X8107500Y-1074643D01*
X8093214Y-1088929D01*
X8064643Y-1103214D01*
X8021786Y-1103214D01*
X8207500Y-903214D02*
X8321786Y-903214D01*
X8250357Y-803214D02*
X8250357Y-1060357D01*
X8264643Y-1088929D01*
X8293214Y-1103214D01*
X8321786Y-1103214D01*
X8650357Y-903214D02*
X8650357Y-1203214D01*
X8650357Y-917500D02*
X8678928Y-903214D01*
X8736071Y-903214D01*
X8764643Y-917500D01*
X8778928Y-931786D01*
X8793214Y-960357D01*
X8793214Y-1046071D01*
X8778928Y-1074643D01*
X8764643Y-1088929D01*
X8736071Y-1103214D01*
X8678928Y-1103214D01*
X8650357Y-1088929D01*
X8964643Y-1103214D02*
X8936071Y-1088929D01*
X8921786Y-1060357D01*
X8921786Y-803214D01*
X9207500Y-1103214D02*
X9207500Y-946071D01*
X9193214Y-917500D01*
X9164643Y-903214D01*
X9107500Y-903214D01*
X9078928Y-917500D01*
X9207500Y-1088929D02*
X9178928Y-1103214D01*
X9107500Y-1103214D01*
X9078928Y-1088929D01*
X9064643Y-1060357D01*
X9064643Y-1031786D01*
X9078928Y-1003214D01*
X9107500Y-988929D01*
X9178928Y-988929D01*
X9207500Y-974643D01*
X9307500Y-903214D02*
X9421786Y-903214D01*
X9350357Y-803214D02*
X9350357Y-1060357D01*
X9364643Y-1088929D01*
X9393214Y-1103214D01*
X9421786Y-1103214D01*
X9636071Y-1088929D02*
X9607500Y-1103214D01*
X9550357Y-1103214D01*
X9521786Y-1088929D01*
X9507500Y-1060357D01*
X9507500Y-946071D01*
X9521786Y-917500D01*
X9550357Y-903214D01*
X9607500Y-903214D01*
X9636071Y-917500D01*
X9650357Y-946071D01*
X9650357Y-974643D01*
X9507500Y-1003214D01*
X9907500Y-1103214D02*
X9907500Y-803214D01*
X9907500Y-1088929D02*
X9878928Y-1103214D01*
X9821786Y-1103214D01*
X9793214Y-1088929D01*
X9778928Y-1074643D01*
X9764643Y-1046071D01*
X9764643Y-960357D01*
X9778928Y-931786D01*
X9793214Y-917500D01*
X9821786Y-903214D01*
X9878928Y-903214D01*
X9907500Y-917500D01*
X10021786Y-1217500D02*
X10036071Y-1203214D01*
X10064643Y-1160357D01*
X10078928Y-1131786D01*
X10093214Y-1088929D01*
X10107500Y-1017500D01*
X10107500Y-960357D01*
X10093214Y-888929D01*
X10078928Y-846071D01*
X10064643Y-817500D01*
X10036071Y-774643D01*
X10021786Y-760357D01*
X-7500Y-1363500D02*
G75*
G03*
X-7500Y-1363500I-49530J0D01*
G01*
X336071Y-1199214D02*
X364643Y-1199214D01*
X393214Y-1213500D01*
X407500Y-1227786D01*
X421786Y-1256357D01*
X436071Y-1313500D01*
X436071Y-1384929D01*
X421786Y-1442071D01*
X407500Y-1470643D01*
X393214Y-1484929D01*
X364643Y-1499214D01*
X336071Y-1499214D01*
X307500Y-1484929D01*
X293214Y-1470643D01*
X278928Y-1442071D01*
X264643Y-1384929D01*
X264643Y-1313500D01*
X278928Y-1256357D01*
X293214Y-1227786D01*
X307500Y-1213500D01*
X336071Y-1199214D01*
X564643Y-1470643D02*
X578928Y-1484929D01*
X564643Y-1499214D01*
X550357Y-1484929D01*
X564643Y-1470643D01*
X564643Y-1499214D01*
X721786Y-1499214D02*
X778928Y-1499214D01*
X807500Y-1484929D01*
X821786Y-1470643D01*
X850357Y-1427786D01*
X864643Y-1370643D01*
X864643Y-1256357D01*
X850357Y-1227786D01*
X836071Y-1213500D01*
X807500Y-1199214D01*
X750357Y-1199214D01*
X721786Y-1213500D01*
X707500Y-1227786D01*
X693214Y-1256357D01*
X693214Y-1327786D01*
X707500Y-1356357D01*
X721786Y-1370643D01*
X750357Y-1384929D01*
X807500Y-1384929D01*
X836071Y-1370643D01*
X850357Y-1356357D01*
X864643Y-1327786D01*
X1007500Y-1499214D02*
X1064643Y-1499214D01*
X1093214Y-1484929D01*
X1107500Y-1470643D01*
X1136071Y-1427786D01*
X1150357Y-1370643D01*
X1150357Y-1256357D01*
X1136071Y-1227786D01*
X1121786Y-1213500D01*
X1093214Y-1199214D01*
X1036071Y-1199214D01*
X1007500Y-1213500D01*
X993214Y-1227786D01*
X978928Y-1256357D01*
X978928Y-1327786D01*
X993214Y-1356357D01*
X1007500Y-1370643D01*
X1036071Y-1384929D01*
X1093214Y-1384929D01*
X1121786Y-1370643D01*
X1136071Y-1356357D01*
X1150357Y-1327786D01*
X1436071Y-1499214D02*
X1264643Y-1499214D01*
X1350357Y-1499214D02*
X1350357Y-1199214D01*
X1321786Y-1242072D01*
X1293214Y-1270643D01*
X1264643Y-1284929D01*
X1564643Y-1499214D02*
X1564643Y-1299214D01*
X1564643Y-1327786D02*
X1578928Y-1313500D01*
X1607500Y-1299214D01*
X1650357Y-1299214D01*
X1678928Y-1313500D01*
X1693214Y-1342072D01*
X1693214Y-1499214D01*
X1693214Y-1342072D02*
X1707500Y-1313500D01*
X1736071Y-1299214D01*
X1778928Y-1299214D01*
X1807500Y-1313500D01*
X1821786Y-1342072D01*
X1821786Y-1499214D01*
X1964643Y-1499214D02*
X1964643Y-1299214D01*
X1964643Y-1327786D02*
X1978928Y-1313500D01*
X2007500Y-1299214D01*
X2050357Y-1299214D01*
X2078928Y-1313500D01*
X2093214Y-1342072D01*
X2093214Y-1499214D01*
X2093214Y-1342072D02*
X2107500Y-1313500D01*
X2136071Y-1299214D01*
X2178928Y-1299214D01*
X2207500Y-1313500D01*
X2221786Y-1342072D01*
X2221786Y-1499214D01*
X2807500Y-1184929D02*
X2550357Y-1570643D01*
X3193214Y-1199214D02*
X3221786Y-1199214D01*
X3250357Y-1213500D01*
X3264643Y-1227786D01*
X3278928Y-1256357D01*
X3293214Y-1313500D01*
X3293214Y-1384929D01*
X3278928Y-1442071D01*
X3264643Y-1470643D01*
X3250357Y-1484929D01*
X3221786Y-1499214D01*
X3193214Y-1499214D01*
X3164643Y-1484929D01*
X3150357Y-1470643D01*
X3136071Y-1442071D01*
X3121786Y-1384929D01*
X3121786Y-1313500D01*
X3136071Y-1256357D01*
X3150357Y-1227786D01*
X3164643Y-1213500D01*
X3193214Y-1199214D01*
X3421786Y-1470643D02*
X3436071Y-1484929D01*
X3421786Y-1499214D01*
X3407500Y-1484929D01*
X3421786Y-1470643D01*
X3421786Y-1499214D01*
X3621786Y-1199214D02*
X3650357Y-1199214D01*
X3678928Y-1213500D01*
X3693214Y-1227786D01*
X3707500Y-1256357D01*
X3721786Y-1313500D01*
X3721786Y-1384929D01*
X3707500Y-1442071D01*
X3693214Y-1470643D01*
X3678928Y-1484929D01*
X3650357Y-1499214D01*
X3621786Y-1499214D01*
X3593214Y-1484929D01*
X3578928Y-1470643D01*
X3564643Y-1442071D01*
X3550357Y-1384929D01*
X3550357Y-1313500D01*
X3564643Y-1256357D01*
X3578928Y-1227786D01*
X3593214Y-1213500D01*
X3621786Y-1199214D01*
X3821786Y-1199214D02*
X4007500Y-1199214D01*
X3907500Y-1313500D01*
X3950357Y-1313500D01*
X3978928Y-1327786D01*
X3993214Y-1342072D01*
X4007500Y-1370643D01*
X4007500Y-1442071D01*
X3993214Y-1470643D01*
X3978928Y-1484929D01*
X3950357Y-1499214D01*
X3864643Y-1499214D01*
X3836071Y-1484929D01*
X3821786Y-1470643D01*
X4150357Y-1499214D02*
X4207500Y-1499214D01*
X4236071Y-1484929D01*
X4250357Y-1470643D01*
X4278928Y-1427786D01*
X4293214Y-1370643D01*
X4293214Y-1256357D01*
X4278928Y-1227786D01*
X4264643Y-1213500D01*
X4236071Y-1199214D01*
X4178928Y-1199214D01*
X4150357Y-1213500D01*
X4136071Y-1227786D01*
X4121786Y-1256357D01*
X4121786Y-1327786D01*
X4136071Y-1356357D01*
X4150357Y-1370643D01*
X4178928Y-1384929D01*
X4236071Y-1384929D01*
X4264643Y-1370643D01*
X4278928Y-1356357D01*
X4293214Y-1327786D01*
X4478928Y-1199214D02*
X4507500Y-1199214D01*
X4536071Y-1213500D01*
X4550357Y-1227786D01*
X4564643Y-1256357D01*
X4578928Y-1313500D01*
X4578928Y-1384929D01*
X4564643Y-1442071D01*
X4550357Y-1470643D01*
X4536071Y-1484929D01*
X4507500Y-1499214D01*
X4478928Y-1499214D01*
X4450357Y-1484929D01*
X4436071Y-1470643D01*
X4421786Y-1442071D01*
X4407500Y-1384929D01*
X4407500Y-1313500D01*
X4421786Y-1256357D01*
X4436071Y-1227786D01*
X4450357Y-1213500D01*
X4478928Y-1199214D01*
X4693214Y-1199214D02*
X4693214Y-1256357D01*
X4807500Y-1199214D02*
X4807500Y-1256357D01*
X5250357Y-1613500D02*
X5236071Y-1599214D01*
X5207500Y-1556357D01*
X5193214Y-1527786D01*
X5178928Y-1484929D01*
X5164643Y-1413500D01*
X5164643Y-1356357D01*
X5178928Y-1284929D01*
X5193214Y-1242072D01*
X5207500Y-1213500D01*
X5236071Y-1170643D01*
X5250357Y-1156357D01*
X5336071Y-1199214D02*
X5521786Y-1199214D01*
X5421786Y-1313500D01*
X5464643Y-1313500D01*
X5493214Y-1327786D01*
X5507500Y-1342072D01*
X5521786Y-1370643D01*
X5521786Y-1442071D01*
X5507500Y-1470643D01*
X5493214Y-1484929D01*
X5464643Y-1499214D01*
X5378928Y-1499214D01*
X5350357Y-1484929D01*
X5336071Y-1470643D01*
X5878928Y-1499214D02*
X5878928Y-1199214D01*
X6007500Y-1499214D02*
X6007500Y-1342072D01*
X5993214Y-1313500D01*
X5964643Y-1299214D01*
X5921786Y-1299214D01*
X5893214Y-1313500D01*
X5878928Y-1327786D01*
X6193214Y-1499214D02*
X6164643Y-1484929D01*
X6150357Y-1470643D01*
X6136071Y-1442071D01*
X6136071Y-1356357D01*
X6150357Y-1327786D01*
X6164643Y-1313500D01*
X6193214Y-1299214D01*
X6236071Y-1299214D01*
X6264643Y-1313500D01*
X6278928Y-1327786D01*
X6293214Y-1356357D01*
X6293214Y-1442071D01*
X6278928Y-1470643D01*
X6264643Y-1484929D01*
X6236071Y-1499214D01*
X6193214Y-1499214D01*
X6464643Y-1499214D02*
X6436071Y-1484929D01*
X6421786Y-1456357D01*
X6421786Y-1199214D01*
X6693214Y-1484929D02*
X6664643Y-1499214D01*
X6607500Y-1499214D01*
X6578928Y-1484929D01*
X6564643Y-1456357D01*
X6564643Y-1342072D01*
X6578928Y-1313500D01*
X6607500Y-1299214D01*
X6664643Y-1299214D01*
X6693214Y-1313500D01*
X6707500Y-1342072D01*
X6707500Y-1370643D01*
X6564643Y-1399214D01*
X6821786Y-1484929D02*
X6850357Y-1499214D01*
X6907500Y-1499214D01*
X6936071Y-1484929D01*
X6950357Y-1456357D01*
X6950357Y-1442071D01*
X6936071Y-1413500D01*
X6907500Y-1399214D01*
X6864643Y-1399214D01*
X6836071Y-1384929D01*
X6821786Y-1356357D01*
X6821786Y-1342072D01*
X6836071Y-1313500D01*
X6864643Y-1299214D01*
X6907500Y-1299214D01*
X6936071Y-1313500D01*
X7050357Y-1613500D02*
X7064643Y-1599214D01*
X7093214Y-1556357D01*
X7107500Y-1527786D01*
X7121786Y-1484929D01*
X7136071Y-1413500D01*
X7136071Y-1356357D01*
X7121786Y-1284929D01*
X7107500Y-1242072D01*
X7093214Y-1213500D01*
X7064643Y-1170643D01*
X7050357Y-1156357D01*
X7593214Y-1613500D02*
X7578928Y-1599214D01*
X7550357Y-1556357D01*
X7536071Y-1527786D01*
X7521786Y-1484929D01*
X7507500Y-1413500D01*
X7507500Y-1356357D01*
X7521786Y-1284929D01*
X7536071Y-1242072D01*
X7550357Y-1213500D01*
X7578928Y-1170643D01*
X7593214Y-1156357D01*
X7707500Y-1299214D02*
X7707500Y-1499214D01*
X7707500Y-1327786D02*
X7721786Y-1313500D01*
X7750357Y-1299214D01*
X7793214Y-1299214D01*
X7821786Y-1313500D01*
X7836071Y-1342072D01*
X7836071Y-1499214D01*
X8021786Y-1499214D02*
X7993214Y-1484929D01*
X7978928Y-1470643D01*
X7964643Y-1442071D01*
X7964643Y-1356357D01*
X7978928Y-1327786D01*
X7993214Y-1313500D01*
X8021786Y-1299214D01*
X8064643Y-1299214D01*
X8093214Y-1313500D01*
X8107500Y-1327786D01*
X8121786Y-1356357D01*
X8121786Y-1442071D01*
X8107500Y-1470643D01*
X8093214Y-1484929D01*
X8064643Y-1499214D01*
X8021786Y-1499214D01*
X8207500Y-1299214D02*
X8321786Y-1299214D01*
X8250357Y-1199214D02*
X8250357Y-1456357D01*
X8264643Y-1484929D01*
X8293214Y-1499214D01*
X8321786Y-1499214D01*
X8650357Y-1299214D02*
X8650357Y-1599214D01*
X8650357Y-1313500D02*
X8678928Y-1299214D01*
X8736071Y-1299214D01*
X8764643Y-1313500D01*
X8778928Y-1327786D01*
X8793214Y-1356357D01*
X8793214Y-1442071D01*
X8778928Y-1470643D01*
X8764643Y-1484929D01*
X8736071Y-1499214D01*
X8678928Y-1499214D01*
X8650357Y-1484929D01*
X8964643Y-1499214D02*
X8936071Y-1484929D01*
X8921786Y-1456357D01*
X8921786Y-1199214D01*
X9207500Y-1499214D02*
X9207500Y-1342072D01*
X9193214Y-1313500D01*
X9164643Y-1299214D01*
X9107500Y-1299214D01*
X9078928Y-1313500D01*
X9207500Y-1484929D02*
X9178928Y-1499214D01*
X9107500Y-1499214D01*
X9078928Y-1484929D01*
X9064643Y-1456357D01*
X9064643Y-1427786D01*
X9078928Y-1399214D01*
X9107500Y-1384929D01*
X9178928Y-1384929D01*
X9207500Y-1370643D01*
X9307500Y-1299214D02*
X9421786Y-1299214D01*
X9350357Y-1199214D02*
X9350357Y-1456357D01*
X9364643Y-1484929D01*
X9393214Y-1499214D01*
X9421786Y-1499214D01*
X9636071Y-1484929D02*
X9607500Y-1499214D01*
X9550357Y-1499214D01*
X9521786Y-1484929D01*
X9507500Y-1456357D01*
X9507500Y-1342072D01*
X9521786Y-1313500D01*
X9550357Y-1299214D01*
X9607500Y-1299214D01*
X9636071Y-1313500D01*
X9650357Y-1342072D01*
X9650357Y-1370643D01*
X9507500Y-1399214D01*
X9907500Y-1499214D02*
X9907500Y-1199214D01*
X9907500Y-1484929D02*
X9878928Y-1499214D01*
X9821786Y-1499214D01*
X9793214Y-1484929D01*
X9778928Y-1470643D01*
X9764643Y-1442071D01*
X9764643Y-1356357D01*
X9778928Y-1327786D01*
X9793214Y-1313500D01*
X9821786Y-1299214D01*
X9878928Y-1299214D01*
X9907500Y-1313500D01*
X10021786Y-1613500D02*
X10036071Y-1599214D01*
X10064643Y-1556357D01*
X10078928Y-1527786D01*
X10093214Y-1484929D01*
X10107500Y-1413500D01*
X10107500Y-1356357D01*
X10093214Y-1284929D01*
X10078928Y-1242072D01*
X10064643Y-1213500D01*
X10036071Y-1170643D01*
X10021786Y-1156357D01*
X-167500Y-1599500D02*
X-167500Y-1919500D01*
X-327500Y-1759500D02*
X-7500Y-1759500D01*
X250357Y-1595214D02*
X436071Y-1595214D01*
X336071Y-1709500D01*
X378928Y-1709500D01*
X407500Y-1723786D01*
X421786Y-1738071D01*
X436071Y-1766643D01*
X436071Y-1838071D01*
X421786Y-1866643D01*
X407500Y-1880929D01*
X378928Y-1895214D01*
X293214Y-1895214D01*
X264643Y-1880929D01*
X250357Y-1866643D01*
X564643Y-1866643D02*
X578928Y-1880929D01*
X564643Y-1895214D01*
X550357Y-1880929D01*
X564643Y-1866643D01*
X564643Y-1895214D01*
X693214Y-1623786D02*
X707500Y-1609500D01*
X736071Y-1595214D01*
X807500Y-1595214D01*
X836071Y-1609500D01*
X850357Y-1623786D01*
X864643Y-1652357D01*
X864643Y-1680929D01*
X850357Y-1723786D01*
X678928Y-1895214D01*
X864643Y-1895214D01*
X1050357Y-1595214D02*
X1078928Y-1595214D01*
X1107500Y-1609500D01*
X1121786Y-1623786D01*
X1136071Y-1652357D01*
X1150357Y-1709500D01*
X1150357Y-1780929D01*
X1136071Y-1838071D01*
X1121786Y-1866643D01*
X1107500Y-1880929D01*
X1078928Y-1895214D01*
X1050357Y-1895214D01*
X1021786Y-1880929D01*
X1007500Y-1866643D01*
X993214Y-1838071D01*
X978928Y-1780929D01*
X978928Y-1709500D01*
X993214Y-1652357D01*
X1007500Y-1623786D01*
X1021786Y-1609500D01*
X1050357Y-1595214D01*
X1336071Y-1595214D02*
X1364643Y-1595214D01*
X1393214Y-1609500D01*
X1407500Y-1623786D01*
X1421786Y-1652357D01*
X1436071Y-1709500D01*
X1436071Y-1780929D01*
X1421786Y-1838071D01*
X1407500Y-1866643D01*
X1393214Y-1880929D01*
X1364643Y-1895214D01*
X1336071Y-1895214D01*
X1307500Y-1880929D01*
X1293214Y-1866643D01*
X1278928Y-1838071D01*
X1264643Y-1780929D01*
X1264643Y-1709500D01*
X1278928Y-1652357D01*
X1293214Y-1623786D01*
X1307500Y-1609500D01*
X1336071Y-1595214D01*
X1564643Y-1895214D02*
X1564643Y-1695214D01*
X1564643Y-1723786D02*
X1578928Y-1709500D01*
X1607500Y-1695214D01*
X1650357Y-1695214D01*
X1678928Y-1709500D01*
X1693214Y-1738071D01*
X1693214Y-1895214D01*
X1693214Y-1738071D02*
X1707500Y-1709500D01*
X1736071Y-1695214D01*
X1778928Y-1695214D01*
X1807500Y-1709500D01*
X1821786Y-1738071D01*
X1821786Y-1895214D01*
X1964643Y-1895214D02*
X1964643Y-1695214D01*
X1964643Y-1723786D02*
X1978928Y-1709500D01*
X2007500Y-1695214D01*
X2050357Y-1695214D01*
X2078928Y-1709500D01*
X2093214Y-1738071D01*
X2093214Y-1895214D01*
X2093214Y-1738071D02*
X2107500Y-1709500D01*
X2136071Y-1695214D01*
X2178928Y-1695214D01*
X2207500Y-1709500D01*
X2221786Y-1738071D01*
X2221786Y-1895214D01*
X2807500Y-1580929D02*
X2550357Y-1966643D01*
X3193214Y-1595214D02*
X3221786Y-1595214D01*
X3250357Y-1609500D01*
X3264643Y-1623786D01*
X3278928Y-1652357D01*
X3293214Y-1709500D01*
X3293214Y-1780929D01*
X3278928Y-1838071D01*
X3264643Y-1866643D01*
X3250357Y-1880929D01*
X3221786Y-1895214D01*
X3193214Y-1895214D01*
X3164643Y-1880929D01*
X3150357Y-1866643D01*
X3136071Y-1838071D01*
X3121786Y-1780929D01*
X3121786Y-1709500D01*
X3136071Y-1652357D01*
X3150357Y-1623786D01*
X3164643Y-1609500D01*
X3193214Y-1595214D01*
X3421786Y-1866643D02*
X3436071Y-1880929D01*
X3421786Y-1895214D01*
X3407500Y-1880929D01*
X3421786Y-1866643D01*
X3421786Y-1895214D01*
X3721786Y-1895214D02*
X3550357Y-1895214D01*
X3636071Y-1895214D02*
X3636071Y-1595214D01*
X3607500Y-1638071D01*
X3578928Y-1666643D01*
X3550357Y-1680929D01*
X3836071Y-1623786D02*
X3850357Y-1609500D01*
X3878928Y-1595214D01*
X3950357Y-1595214D01*
X3978928Y-1609500D01*
X3993214Y-1623786D01*
X4007500Y-1652357D01*
X4007500Y-1680929D01*
X3993214Y-1723786D01*
X3821786Y-1895214D01*
X4007500Y-1895214D01*
X4264643Y-1595214D02*
X4207500Y-1595214D01*
X4178928Y-1609500D01*
X4164643Y-1623786D01*
X4136071Y-1666643D01*
X4121786Y-1723786D01*
X4121786Y-1838071D01*
X4136071Y-1866643D01*
X4150357Y-1880929D01*
X4178928Y-1895214D01*
X4236071Y-1895214D01*
X4264643Y-1880929D01*
X4278928Y-1866643D01*
X4293214Y-1838071D01*
X4293214Y-1766643D01*
X4278928Y-1738071D01*
X4264643Y-1723786D01*
X4236071Y-1709500D01*
X4178928Y-1709500D01*
X4150357Y-1723786D01*
X4136071Y-1738071D01*
X4121786Y-1766643D01*
X4478928Y-1595214D02*
X4507500Y-1595214D01*
X4536071Y-1609500D01*
X4550357Y-1623786D01*
X4564643Y-1652357D01*
X4578928Y-1709500D01*
X4578928Y-1780929D01*
X4564643Y-1838071D01*
X4550357Y-1866643D01*
X4536071Y-1880929D01*
X4507500Y-1895214D01*
X4478928Y-1895214D01*
X4450357Y-1880929D01*
X4436071Y-1866643D01*
X4421786Y-1838071D01*
X4407500Y-1780929D01*
X4407500Y-1709500D01*
X4421786Y-1652357D01*
X4436071Y-1623786D01*
X4450357Y-1609500D01*
X4478928Y-1595214D01*
X4693214Y-1595214D02*
X4693214Y-1652357D01*
X4807500Y-1595214D02*
X4807500Y-1652357D01*
X5250357Y-2009500D02*
X5236071Y-1995214D01*
X5207500Y-1952357D01*
X5193214Y-1923786D01*
X5178928Y-1880929D01*
X5164643Y-1809500D01*
X5164643Y-1752357D01*
X5178928Y-1680929D01*
X5193214Y-1638071D01*
X5207500Y-1609500D01*
X5236071Y-1566643D01*
X5250357Y-1552357D01*
X5350357Y-1623786D02*
X5364643Y-1609500D01*
X5393214Y-1595214D01*
X5464643Y-1595214D01*
X5493214Y-1609500D01*
X5507500Y-1623786D01*
X5521786Y-1652357D01*
X5521786Y-1680929D01*
X5507500Y-1723786D01*
X5336071Y-1895214D01*
X5521786Y-1895214D01*
X5878928Y-1895214D02*
X5878928Y-1595214D01*
X6007500Y-1895214D02*
X6007500Y-1738071D01*
X5993214Y-1709500D01*
X5964643Y-1695214D01*
X5921786Y-1695214D01*
X5893214Y-1709500D01*
X5878928Y-1723786D01*
X6193214Y-1895214D02*
X6164643Y-1880929D01*
X6150357Y-1866643D01*
X6136071Y-1838071D01*
X6136071Y-1752357D01*
X6150357Y-1723786D01*
X6164643Y-1709500D01*
X6193214Y-1695214D01*
X6236071Y-1695214D01*
X6264643Y-1709500D01*
X6278928Y-1723786D01*
X6293214Y-1752357D01*
X6293214Y-1838071D01*
X6278928Y-1866643D01*
X6264643Y-1880929D01*
X6236071Y-1895214D01*
X6193214Y-1895214D01*
X6464643Y-1895214D02*
X6436071Y-1880929D01*
X6421786Y-1852357D01*
X6421786Y-1595214D01*
X6693214Y-1880929D02*
X6664643Y-1895214D01*
X6607500Y-1895214D01*
X6578928Y-1880929D01*
X6564643Y-1852357D01*
X6564643Y-1738071D01*
X6578928Y-1709500D01*
X6607500Y-1695214D01*
X6664643Y-1695214D01*
X6693214Y-1709500D01*
X6707500Y-1738071D01*
X6707500Y-1766643D01*
X6564643Y-1795214D01*
X6821786Y-1880929D02*
X6850357Y-1895214D01*
X6907500Y-1895214D01*
X6936071Y-1880929D01*
X6950357Y-1852357D01*
X6950357Y-1838071D01*
X6936071Y-1809500D01*
X6907500Y-1795214D01*
X6864643Y-1795214D01*
X6836071Y-1780929D01*
X6821786Y-1752357D01*
X6821786Y-1738071D01*
X6836071Y-1709500D01*
X6864643Y-1695214D01*
X6907500Y-1695214D01*
X6936071Y-1709500D01*
X7050357Y-2009500D02*
X7064643Y-1995214D01*
X7093214Y-1952357D01*
X7107500Y-1923786D01*
X7121786Y-1880929D01*
X7136071Y-1809500D01*
X7136071Y-1752357D01*
X7121786Y-1680929D01*
X7107500Y-1638071D01*
X7093214Y-1609500D01*
X7064643Y-1566643D01*
X7050357Y-1552357D01*
X7593214Y-2009500D02*
X7578928Y-1995214D01*
X7550357Y-1952357D01*
X7536071Y-1923786D01*
X7521786Y-1880929D01*
X7507500Y-1809500D01*
X7507500Y-1752357D01*
X7521786Y-1680929D01*
X7536071Y-1638071D01*
X7550357Y-1609500D01*
X7578928Y-1566643D01*
X7593214Y-1552357D01*
X7707500Y-1695214D02*
X7707500Y-1895214D01*
X7707500Y-1723786D02*
X7721786Y-1709500D01*
X7750357Y-1695214D01*
X7793214Y-1695214D01*
X7821786Y-1709500D01*
X7836071Y-1738071D01*
X7836071Y-1895214D01*
X8021786Y-1895214D02*
X7993214Y-1880929D01*
X7978928Y-1866643D01*
X7964643Y-1838071D01*
X7964643Y-1752357D01*
X7978928Y-1723786D01*
X7993214Y-1709500D01*
X8021786Y-1695214D01*
X8064643Y-1695214D01*
X8093214Y-1709500D01*
X8107500Y-1723786D01*
X8121786Y-1752357D01*
X8121786Y-1838071D01*
X8107500Y-1866643D01*
X8093214Y-1880929D01*
X8064643Y-1895214D01*
X8021786Y-1895214D01*
X8207500Y-1695214D02*
X8321786Y-1695214D01*
X8250357Y-1595214D02*
X8250357Y-1852357D01*
X8264643Y-1880929D01*
X8293214Y-1895214D01*
X8321786Y-1895214D01*
X8650357Y-1695214D02*
X8650357Y-1995214D01*
X8650357Y-1709500D02*
X8678928Y-1695214D01*
X8736071Y-1695214D01*
X8764643Y-1709500D01*
X8778928Y-1723786D01*
X8793214Y-1752357D01*
X8793214Y-1838071D01*
X8778928Y-1866643D01*
X8764643Y-1880929D01*
X8736071Y-1895214D01*
X8678928Y-1895214D01*
X8650357Y-1880929D01*
X8964643Y-1895214D02*
X8936071Y-1880929D01*
X8921786Y-1852357D01*
X8921786Y-1595214D01*
X9207500Y-1895214D02*
X9207500Y-1738071D01*
X9193214Y-1709500D01*
X9164643Y-1695214D01*
X9107500Y-1695214D01*
X9078928Y-1709500D01*
X9207500Y-1880929D02*
X9178928Y-1895214D01*
X9107500Y-1895214D01*
X9078928Y-1880929D01*
X9064643Y-1852357D01*
X9064643Y-1823786D01*
X9078928Y-1795214D01*
X9107500Y-1780929D01*
X9178928Y-1780929D01*
X9207500Y-1766643D01*
X9307500Y-1695214D02*
X9421786Y-1695214D01*
X9350357Y-1595214D02*
X9350357Y-1852357D01*
X9364643Y-1880929D01*
X9393214Y-1895214D01*
X9421786Y-1895214D01*
X9636071Y-1880929D02*
X9607500Y-1895214D01*
X9550357Y-1895214D01*
X9521786Y-1880929D01*
X9507500Y-1852357D01*
X9507500Y-1738071D01*
X9521786Y-1709500D01*
X9550357Y-1695214D01*
X9607500Y-1695214D01*
X9636071Y-1709500D01*
X9650357Y-1738071D01*
X9650357Y-1766643D01*
X9507500Y-1795214D01*
X9907500Y-1895214D02*
X9907500Y-1595214D01*
X9907500Y-1880929D02*
X9878928Y-1895214D01*
X9821786Y-1895214D01*
X9793214Y-1880929D01*
X9778928Y-1866643D01*
X9764643Y-1838071D01*
X9764643Y-1752357D01*
X9778928Y-1723786D01*
X9793214Y-1709500D01*
X9821786Y-1695214D01*
X9878928Y-1695214D01*
X9907500Y-1709500D01*
X10021786Y-2009500D02*
X10036071Y-1995214D01*
X10064643Y-1952357D01*
X10078928Y-1923786D01*
X10093214Y-1880929D01*
X10107500Y-1809500D01*
X10107500Y-1752357D01*
X10093214Y-1680929D01*
X10078928Y-1638071D01*
X10064643Y-1609500D01*
X10036071Y-1566643D01*
X10021786Y-1552357D01*
M02*
