M48
; DRILL file {KiCad 5.1.0} date ven. 12 avril 2019 15:20:23 CEST
; FORMAT={-:-/ absolute / metric / decimal}
; #@! TF.CreationDate,2019-04-12T15:20:23+02:00
; #@! TF.GenerationSoftware,Kicad,Pcbnew,5.1.0
FMAT,2
METRIC
T1C0.400
T2C1.000
T3C1.199
T4C1.300
T5C0.500
T6C1.400
T7C1.600
T8C3.000
T9C3.200
%
G90
G05
T1
X17.75Y74.75
X17.75Y26.75
X22.25Y67.25
X22.25Y19.25
X27.0Y77.6
X27.0Y29.6
X29.5Y75.9
X29.5Y71.75
X29.5Y27.9
X29.5Y23.75
X30.1Y79.0
X30.1Y31.0
X30.25Y68.5
X30.25Y20.5
X31.5Y84.6
X31.5Y36.6
X32.25Y70.25
X32.25Y22.25
X32.6Y88.0
X32.6Y40.0
X34.0Y84.6
X34.0Y79.0
X34.0Y75.9
X34.0Y36.6
X34.0Y31.0
X34.0Y27.9
X35.5Y84.6
X35.5Y73.3
X35.5Y36.6
X35.5Y25.3
X38.516Y80.1
X38.516Y32.1
X38.546Y78.3
X38.546Y30.3
X38.64Y70.638
X38.64Y67.844
X38.64Y22.638
X38.64Y19.844
X38.75Y90.0
X38.75Y42.0
X39.0Y87.75
X39.0Y39.75
X39.656Y64.034
X39.656Y16.034
X39.91Y81.56
X39.91Y33.56
X40.672Y77.242
X40.672Y74.702
X40.672Y72.162
X40.672Y59.462
X40.672Y29.242
X40.672Y26.702
X40.672Y24.162
X40.672Y11.462
X40.75Y92.5
X40.75Y57.0
X40.75Y44.5
X40.75Y9.0
X41.8Y61.7
X41.8Y13.7
X41.815Y64.415
X41.815Y16.415
X42.65Y81.85
X42.65Y33.85
X43.5Y90.75
X43.5Y42.75
X43.517Y79.344
X43.517Y31.344
X43.75Y83.0
X43.75Y35.0
X44.799Y79.356
X44.799Y31.356
X45.752Y77.242
X45.752Y74.702
X45.752Y72.162
X45.752Y69.622
X45.752Y67.082
X45.752Y64.542
X45.752Y62.002
X45.752Y59.462
X45.752Y56.922
X45.752Y29.242
X45.752Y26.702
X45.752Y24.162
X45.752Y21.622
X45.752Y19.082
X45.752Y16.542
X45.752Y14.002
X45.752Y11.462
X45.752Y8.922
X46.25Y83.25
X46.25Y35.25
X46.514Y81.814
X46.514Y79.528
X46.514Y33.814
X46.514Y31.528
X60.75Y74.75
X60.75Y26.75
X65.25Y67.25
X65.25Y19.25
X70.0Y77.6
X70.0Y29.6
X72.5Y75.9
X72.5Y71.75
X72.5Y27.9
X72.5Y23.75
X73.1Y79.0
X73.1Y31.0
X73.25Y68.5
X73.25Y20.5
X74.5Y84.6
X74.5Y36.6
X75.25Y70.25
X75.25Y22.25
X75.6Y88.0
X75.6Y40.0
X77.0Y84.6
X77.0Y79.0
X77.0Y75.9
X77.0Y36.6
X77.0Y31.0
X77.0Y27.9
X78.5Y84.6
X78.5Y73.3
X78.5Y36.6
X78.5Y25.3
X81.516Y80.1
X81.516Y32.1
X81.546Y78.3
X81.546Y30.3
X81.64Y70.638
X81.64Y67.844
X81.64Y22.638
X81.64Y19.844
X81.75Y90.0
X81.75Y42.0
X82.0Y87.75
X82.0Y39.75
X82.656Y64.034
X82.656Y16.034
X82.91Y81.56
X82.91Y33.56
X83.672Y77.242
X83.672Y74.702
X83.672Y72.162
X83.672Y59.462
X83.672Y29.242
X83.672Y26.702
X83.672Y24.162
X83.672Y11.462
X83.75Y92.5
X83.75Y57.0
X83.75Y44.5
X83.75Y9.0
X84.8Y61.7
X84.8Y13.7
X84.815Y64.415
X84.815Y16.415
X85.65Y81.85
X85.65Y33.85
X86.5Y90.75
X86.5Y42.75
X86.517Y79.344
X86.517Y31.344
X86.75Y83.0
X86.75Y35.0
X87.799Y79.356
X87.799Y31.356
X88.752Y77.242
X88.752Y74.702
X88.752Y72.162
X88.752Y69.622
X88.752Y67.082
X88.752Y64.542
X88.752Y62.002
X88.752Y59.462
X88.752Y56.922
X88.752Y29.242
X88.752Y26.702
X88.752Y24.162
X88.752Y21.622
X88.752Y19.082
X88.752Y16.542
X88.752Y14.002
X88.752Y11.462
X88.752Y8.922
X89.25Y83.25
X89.25Y35.25
X89.514Y81.814
X89.514Y79.528
X89.514Y33.814
X89.514Y31.528
T2
X20.6Y88.93
X20.6Y86.39
X20.6Y83.85
X20.6Y81.31
X20.6Y78.77
X20.6Y76.23
X20.6Y73.69
X20.6Y71.15
X20.6Y68.61
X20.6Y66.07
X20.6Y40.93
X20.6Y38.39
X20.6Y35.85
X20.6Y33.31
X20.6Y30.77
X20.6Y28.23
X20.6Y25.69
X20.6Y23.15
X20.6Y20.61
X20.6Y18.07
X63.6Y40.93
X63.6Y38.39
X63.6Y35.85
X63.6Y33.31
X63.6Y30.77
X63.6Y28.23
X63.6Y25.69
X63.6Y23.15
X63.6Y20.61
X63.6Y18.07
X63.6Y88.93
X63.6Y86.39
X63.6Y83.85
X63.6Y81.31
X63.6Y78.77
X63.6Y76.23
X63.6Y73.69
X63.6Y71.15
X63.6Y68.61
X63.6Y66.07
T3
X10.25Y44.25
X14.06Y44.25
X17.87Y44.25
X21.68Y44.25
X53.25Y92.25
X57.06Y92.25
X60.87Y92.25
X64.68Y92.25
X53.25Y44.25
X57.06Y44.25
X60.87Y44.25
X64.68Y44.25
X10.25Y92.25
X14.06Y92.25
X17.87Y92.25
X21.68Y92.25
T4
X68.35Y50.7
X68.35Y47.5
X68.35Y44.0
X74.65Y50.7
X74.65Y44.0
X25.35Y50.7
X25.35Y47.5
X25.35Y44.0
X31.65Y50.7
X31.65Y44.0
X25.35Y98.7
X25.35Y95.5
X25.35Y92.0
X31.65Y98.7
X31.65Y92.0
X68.35Y98.7
X68.35Y95.5
X68.35Y92.0
X74.65Y98.7
X74.65Y92.0
T5
X8.1Y80.271
X8.1Y79.514
X8.1Y78.757
X8.1Y78.0
X8.1Y77.243
X8.1Y76.486
X8.1Y75.729
X51.1Y40.271
X51.1Y39.514
X51.1Y38.757
X51.1Y38.0
X51.1Y37.243
X51.1Y36.486
X51.1Y35.729
X68.729Y13.35
X69.486Y13.35
X70.243Y13.35
X71.0Y13.35
X71.757Y13.35
X72.514Y13.35
X73.271Y13.35
X25.729Y100.4
X26.486Y100.4
X27.243Y100.4
X28.0Y100.4
X28.757Y100.4
X29.514Y100.4
X30.271Y100.4
X8.1Y32.271
X8.1Y31.514
X8.1Y30.757
X8.1Y30.0
X8.1Y29.243
X8.1Y28.486
X8.1Y27.729
X90.65Y88.271
X90.65Y87.514
X90.65Y86.757
X90.65Y86.0
X90.65Y85.243
X90.65Y84.486
X90.65Y83.729
X25.729Y13.35
X26.486Y13.35
X27.243Y13.35
X28.0Y13.35
X28.757Y13.35
X29.514Y13.35
X30.271Y13.35
X94.0Y13.25
X94.833Y13.25
X95.667Y13.25
X96.5Y13.25
X97.333Y13.25
X98.167Y13.25
X99.0Y13.25
X0.0Y13.25
X0.833Y13.25
X4.167Y13.25
X5.0Y13.25
X90.65Y40.271
X90.65Y39.514
X90.65Y38.757
X90.65Y38.0
X90.65Y37.243
X90.65Y36.486
X90.65Y35.729
X0.0Y100.5
X0.833Y100.5
X1.667Y100.5
X2.5Y100.5
X3.333Y100.5
X4.167Y100.5
X5.0Y100.5
X47.65Y88.271
X47.65Y87.514
X47.65Y86.757
X47.65Y86.0
X47.65Y85.243
X47.65Y84.486
X47.65Y83.729
X25.729Y61.35
X26.486Y61.35
X27.243Y61.35
X28.0Y61.35
X28.757Y61.35
X29.514Y61.35
X30.271Y61.35
X68.729Y52.4
X69.486Y52.4
X70.243Y52.4
X71.0Y52.4
X71.757Y52.4
X72.514Y52.4
X73.271Y52.4
X94.0Y100.5
X94.833Y100.5
X95.667Y100.5
X96.5Y100.5
X97.333Y100.5
X98.167Y100.5
X99.0Y100.5
X68.729Y100.4
X69.486Y100.4
X70.243Y100.4
X71.0Y100.4
X71.757Y100.4
X72.514Y100.4
X73.271Y100.4
X47.65Y40.271
X47.65Y39.514
X47.65Y38.757
X47.65Y38.0
X47.65Y37.243
X47.65Y36.486
X47.65Y35.729
X25.729Y52.4
X26.486Y52.4
X27.243Y52.4
X28.0Y52.4
X28.757Y52.4
X29.514Y52.4
X30.271Y52.4
X68.729Y61.35
X69.486Y61.35
X70.243Y61.35
X71.0Y61.35
X71.757Y61.35
X72.514Y61.35
X73.271Y61.35
X51.1Y88.271
X51.1Y87.514
X51.1Y86.757
X51.1Y86.0
X51.1Y85.243
X51.1Y84.486
X51.1Y83.729
T7
X71.5Y50.0
X71.5Y44.0
X28.5Y50.0
X28.5Y44.0
X28.5Y98.0
X28.5Y92.0
X71.5Y98.0
X71.5Y92.0
T8
X9.5Y2.5
X89.5Y2.5
X89.5Y106.5
X9.5Y106.5
X2.5Y94.5
X2.5Y14.5
T9
X43.25Y85.75
X43.25Y37.75
X15.25Y85.75
X15.25Y37.75
X86.25Y85.75
X58.25Y37.75
X58.25Y85.75
X86.25Y37.75
T6
G00X9.5Y48.95
M15
G01X9.5Y47.55
M16
G05
G00X52.5Y72.95
M15
G01X52.5Y71.55
M16
G05
G00X65.75Y96.95
M15
G01X65.75Y95.55
M16
G05
G00X17.75Y72.95
M15
G01X17.75Y71.55
M16
G05
G00X9.5Y72.95
M15
G01X9.5Y71.55
M16
G05
G00X22.75Y48.95
M15
G01X22.75Y47.55
M16
G05
G00X65.75Y48.95
M15
G01X65.75Y47.55
M16
G05
G00X22.75Y96.95
M15
G01X22.75Y95.55
M16
G05
G00X17.75Y24.95
M15
G01X17.75Y23.55
M16
G05
G00X9.5Y24.95
M15
G01X9.5Y23.55
M16
G05
G00X52.5Y96.95
M15
G01X52.5Y95.55
M16
G05
G00X60.75Y24.95
M15
G01X60.75Y23.55
M16
G05
G00X60.75Y72.95
M15
G01X60.75Y71.55
M16
G05
G00X52.5Y48.95
M15
G01X52.5Y47.55
M16
G05
G00X9.5Y96.95
M15
G01X9.5Y95.55
M16
G05
G00X52.5Y24.95
M15
G01X52.5Y23.55
M16
G05
T0
M30
