G04 #@! TF.GenerationSoftware,KiCad,Pcbnew,5.1.0*
G04 #@! TF.CreationDate,2019-04-12T15:20:20+02:00*
G04 #@! TF.ProjectId,output.KXKM_audio_board_for_ESP32_PANEL,6f757470-7574-42e4-9b58-4b4d5f617564,1.0*
G04 #@! TF.SameCoordinates,PX5f5e100PY8f0d180*
G04 #@! TF.FileFunction,Profile,NP*
%FSLAX46Y46*%
G04 Gerber Fmt 4.6, Leading zero omitted, Abs format (unit mm)*
G04 Created by KiCad (PCBNEW 5.1.0) date 2019-04-12 15:20:20*
%MOMM*%
%LPD*%
G04 APERTURE LIST*
%ADD10C,0.050000*%
%ADD11C,0.100000*%
G04 APERTURE END LIST*
D10*
X65750000Y98500000D02*
X52000000Y98500000D01*
X51000000Y97500000D02*
G75*
G02X52000000Y98500000I1000000J0D01*
G01*
X66750000Y99500000D02*
G75*
G02X67750000Y100500000I1000000J0D01*
G01*
X66750000Y99500000D02*
G75*
G02X65750000Y98500000I-1000000J0D01*
G01*
X90750000Y57000000D02*
G75*
G02X89750000Y56000000I-1000000J0D01*
G01*
X89750000Y100500000D02*
G75*
G02X90750000Y99500000I0J-1000000D01*
G01*
X52000000Y61250000D02*
G75*
G02X51000000Y62250000I0J1000000D01*
G01*
X82750000Y56000000D02*
X89750000Y56000000D01*
X82750000Y56000000D02*
G75*
G02X81750000Y57000000I0J1000000D01*
G01*
X80750000Y61250000D02*
G75*
G02X81750000Y60250000I0J-1000000D01*
G01*
X81750000Y60250000D02*
X81750000Y57000000D01*
X81750000Y12250000D02*
X81750000Y9000000D01*
X82750000Y8000000D02*
X89750000Y8000000D01*
X89750000Y52500000D02*
G75*
G02X90750000Y51500000I0J-1000000D01*
G01*
X90750000Y9000000D02*
G75*
G02X89750000Y8000000I-1000000J0D01*
G01*
X82750000Y8000000D02*
G75*
G02X81750000Y9000000I0J1000000D01*
G01*
X80750000Y13250000D02*
G75*
G02X81750000Y12250000I0J-1000000D01*
G01*
X52000000Y13250000D02*
G75*
G02X51000000Y14250000I0J1000000D01*
G01*
X51000000Y49500000D02*
G75*
G02X52000000Y50500000I1000000J0D01*
G01*
X66750000Y51500000D02*
G75*
G02X67750000Y52500000I1000000J0D01*
G01*
X66750000Y51500000D02*
G75*
G02X65750000Y50500000I-1000000J0D01*
G01*
X65750000Y50500000D02*
X52000000Y50500000D01*
X0Y109000000D02*
X0Y0D01*
X99000000Y109000000D02*
X0Y109000000D01*
X99000000Y0D02*
X99000000Y109000000D01*
X0Y0D02*
X99000000Y0D01*
X22750000Y50500000D02*
X9000000Y50500000D01*
X23750000Y51500000D02*
G75*
G02X22750000Y50500000I-1000000J0D01*
G01*
X23750000Y51500000D02*
G75*
G02X24750000Y52500000I1000000J0D01*
G01*
X8000000Y49500000D02*
G75*
G02X9000000Y50500000I1000000J0D01*
G01*
X9000000Y13250000D02*
G75*
G02X8000000Y14250000I0J1000000D01*
G01*
X37750000Y13250000D02*
G75*
G02X38750000Y12250000I0J-1000000D01*
G01*
X39750000Y8000000D02*
G75*
G02X38750000Y9000000I0J1000000D01*
G01*
X47750000Y9000000D02*
G75*
G02X46750000Y8000000I-1000000J0D01*
G01*
X46750000Y52500000D02*
G75*
G02X47750000Y51500000I0J-1000000D01*
G01*
X39750000Y8000000D02*
X46750000Y8000000D01*
X38750000Y12250000D02*
X38750000Y9000000D01*
X22750000Y98500000D02*
X9000000Y98500000D01*
X23750000Y99500000D02*
G75*
G02X22750000Y98500000I-1000000J0D01*
G01*
X23750000Y99500000D02*
G75*
G02X24750000Y100500000I1000000J0D01*
G01*
X8000000Y97500000D02*
G75*
G02X9000000Y98500000I1000000J0D01*
G01*
X9000000Y61250000D02*
G75*
G02X8000000Y62250000I0J1000000D01*
G01*
X37750000Y61250000D02*
G75*
G02X38750000Y60250000I0J-1000000D01*
G01*
X39750000Y56000000D02*
G75*
G02X38750000Y57000000I0J1000000D01*
G01*
X47750000Y57000000D02*
G75*
G02X46750000Y56000000I-1000000J0D01*
G01*
X46750000Y100500000D02*
G75*
G02X47750000Y99500000I0J-1000000D01*
G01*
X39750000Y56000000D02*
X46750000Y56000000D01*
X38750000Y60250000D02*
X38750000Y57000000D01*
D11*
X73499985Y100500000D02*
X89750000Y100500000D01*
X68500002Y100500000D02*
X67750000Y100500000D01*
X73499985Y104000000D02*
X94000000Y104000000D01*
X73499985Y104000000D02*
X73400281Y103992313D01*
X73499985Y100500000D02*
X73400281Y100507687D01*
X73400281Y103992313D02*
X73301463Y103976985D01*
X73400281Y100507687D02*
X73301463Y100523015D01*
X73301463Y103976985D02*
X73204116Y103954107D01*
X73301463Y100523015D02*
X73204116Y100545893D01*
X73204116Y103954107D02*
X73108816Y103923814D01*
X73204116Y100545893D02*
X73108816Y100576186D01*
X73108816Y103923814D02*
X73016126Y103886285D01*
X73108816Y100576186D02*
X73016126Y100613715D01*
X73016126Y103886285D02*
X72926595Y103841742D01*
X73016126Y100613715D02*
X72926595Y100658258D01*
X72926595Y103841742D02*
X72840753Y103790449D01*
X72926595Y100658258D02*
X72840753Y100709551D01*
X72840753Y103790449D02*
X72759108Y103732709D01*
X72840753Y100709551D02*
X72759108Y100767291D01*
X72759108Y103732709D02*
X72682143Y103668864D01*
X72759108Y100767291D02*
X72682143Y100831136D01*
X72682143Y103668864D02*
X72610313Y103599292D01*
X72682143Y100831136D02*
X72610313Y100900708D01*
X72610313Y103599292D02*
X72544043Y103524405D01*
X72610313Y100900708D02*
X72544043Y100975595D01*
X72544043Y103524405D02*
X72483725Y103444646D01*
X72544043Y100975595D02*
X72483725Y101055354D01*
X72483725Y103444646D02*
X72429716Y103360487D01*
X72483725Y101055354D02*
X72429716Y101139513D01*
X72429716Y103360487D02*
X72382336Y103272426D01*
X72429716Y101139513D02*
X72382336Y101227574D01*
X72382336Y103272426D02*
X72341865Y103180984D01*
X72382336Y101227574D02*
X72341865Y101319016D01*
X72341865Y103180984D02*
X72308543Y103086702D01*
X72341865Y101319016D02*
X72308543Y101413298D01*
X72308543Y103086702D02*
X72282567Y102990138D01*
X72308543Y101413298D02*
X72282567Y101509862D01*
X72282567Y102990138D02*
X72264090Y102891863D01*
X72282567Y101509862D02*
X72264090Y101608137D01*
X72264090Y102891863D02*
X72253222Y102792458D01*
X72264090Y101608137D02*
X72253222Y101707542D01*
X72253222Y102792458D02*
X72250027Y102692512D01*
X72253222Y101707542D02*
X72250027Y101807488D01*
X72250027Y101807488D02*
X72250027Y102692512D01*
X68500002Y100500000D02*
X68599706Y100507687D01*
X68499920Y104000000D02*
X68599624Y103992313D01*
X68599706Y100507687D02*
X68698524Y100523015D01*
X68599624Y103992313D02*
X68698442Y103976985D01*
X68698524Y100523015D02*
X68795871Y100545893D01*
X68698442Y103976985D02*
X68795789Y103954107D01*
X68795871Y100545893D02*
X68891171Y100576186D01*
X68795789Y103954107D02*
X68891089Y103923814D01*
X68891171Y100576186D02*
X68983861Y100613715D01*
X68891089Y103923814D02*
X68983779Y103886285D01*
X68983861Y100613715D02*
X69073392Y100658258D01*
X68983779Y103886285D02*
X69073310Y103841742D01*
X69073392Y100658258D02*
X69159234Y100709551D01*
X69073310Y103841742D02*
X69159152Y103790449D01*
X69159234Y100709551D02*
X69240879Y100767291D01*
X69159152Y103790449D02*
X69240797Y103732709D01*
X69240879Y100767291D02*
X69317844Y100831136D01*
X69240797Y103732709D02*
X69317762Y103668864D01*
X69317844Y100831136D02*
X69389674Y100900708D01*
X69317762Y103668864D02*
X69389592Y103599292D01*
X69389674Y100900708D02*
X69455944Y100975595D01*
X69389592Y103599292D02*
X69455862Y103524405D01*
X69455944Y100975595D02*
X69516262Y101055354D01*
X69455862Y103524405D02*
X69516180Y103444646D01*
X69516262Y101055354D02*
X69570271Y101139513D01*
X69516180Y103444646D02*
X69570189Y103360487D01*
X69570271Y101139513D02*
X69617651Y101227574D01*
X69570189Y103360487D02*
X69617569Y103272426D01*
X69617651Y101227574D02*
X69658122Y101319016D01*
X69617569Y103272426D02*
X69658040Y103180984D01*
X69658122Y101319016D02*
X69691444Y101413298D01*
X69658040Y103180984D02*
X69691362Y103086702D01*
X69691444Y101413298D02*
X69717420Y101509862D01*
X69691362Y103086702D02*
X69717338Y102990138D01*
X69717420Y101509862D02*
X69735897Y101608137D01*
X69717338Y102990138D02*
X69735815Y102891863D01*
X69735897Y101608137D02*
X69746765Y101707542D01*
X69735815Y102891863D02*
X69746683Y102792458D01*
X69746765Y101707542D02*
X69749960Y101807488D01*
X69746683Y102792458D02*
X69749878Y102692512D01*
X69749960Y101807488D02*
X69749878Y102692512D01*
X73499985Y52500000D02*
X89750000Y52500000D01*
X68500002Y52500000D02*
X67750000Y52500000D01*
X68499980Y61250000D02*
X52000000Y61250000D01*
X73499998Y61250000D02*
X80750000Y61250000D01*
X73499985Y52500000D02*
X73400281Y52507687D01*
X73499998Y61250000D02*
X73400294Y61242313D01*
X73400281Y52507687D02*
X73301463Y52523015D01*
X73400294Y61242313D02*
X73301476Y61226985D01*
X73301463Y52523015D02*
X73204116Y52545893D01*
X73301476Y61226985D02*
X73204129Y61204107D01*
X73204116Y52545893D02*
X73108816Y52576186D01*
X73204129Y61204107D02*
X73108829Y61173814D01*
X73108816Y52576186D02*
X73016126Y52613715D01*
X73108829Y61173814D02*
X73016139Y61136285D01*
X73016126Y52613715D02*
X72926595Y52658258D01*
X73016139Y61136285D02*
X72926608Y61091742D01*
X72926595Y52658258D02*
X72840753Y52709551D01*
X72926608Y61091742D02*
X72840766Y61040449D01*
X72840753Y52709551D02*
X72759108Y52767291D01*
X72840766Y61040449D02*
X72759121Y60982709D01*
X72759108Y52767291D02*
X72682143Y52831136D01*
X72759121Y60982709D02*
X72682156Y60918864D01*
X72682143Y52831136D02*
X72610313Y52900708D01*
X72682156Y60918864D02*
X72610326Y60849292D01*
X72610313Y52900708D02*
X72544043Y52975595D01*
X72610326Y60849292D02*
X72544056Y60774405D01*
X72544043Y52975595D02*
X72483725Y53055354D01*
X72544056Y60774405D02*
X72483738Y60694646D01*
X72483725Y53055354D02*
X72429716Y53139513D01*
X72483738Y60694646D02*
X72429729Y60610487D01*
X72429716Y53139513D02*
X72382336Y53227574D01*
X72429729Y60610487D02*
X72382349Y60522426D01*
X72382336Y53227574D02*
X72341865Y53319016D01*
X72382349Y60522426D02*
X72341878Y60430984D01*
X72341865Y53319016D02*
X72308543Y53413298D01*
X72341878Y60430984D02*
X72308556Y60336702D01*
X72308543Y53413298D02*
X72282567Y53509862D01*
X72308556Y60336702D02*
X72282580Y60240138D01*
X72282567Y53509862D02*
X72264090Y53608137D01*
X72282580Y60240138D02*
X72264103Y60141863D01*
X72264090Y53608137D02*
X72253222Y53707542D01*
X72264103Y60141863D02*
X72253235Y60042458D01*
X72253222Y53707542D02*
X72250027Y53807488D01*
X72253235Y60042458D02*
X72250040Y59942512D01*
X72250027Y53807488D02*
X72250040Y59942512D01*
X68500002Y52500000D02*
X68599706Y52507687D01*
X68499980Y61250000D02*
X68599684Y61242313D01*
X68599706Y52507687D02*
X68698524Y52523015D01*
X68599684Y61242313D02*
X68698502Y61226985D01*
X68698524Y52523015D02*
X68795871Y52545893D01*
X68698502Y61226985D02*
X68795849Y61204107D01*
X68795871Y52545893D02*
X68891171Y52576186D01*
X68795849Y61204107D02*
X68891149Y61173814D01*
X68891171Y52576186D02*
X68983861Y52613715D01*
X68891149Y61173814D02*
X68983839Y61136285D01*
X68983861Y52613715D02*
X69073392Y52658258D01*
X68983839Y61136285D02*
X69073370Y61091742D01*
X69073392Y52658258D02*
X69159234Y52709551D01*
X69073370Y61091742D02*
X69159212Y61040449D01*
X69159234Y52709551D02*
X69240879Y52767291D01*
X69159212Y61040449D02*
X69240857Y60982709D01*
X69240879Y52767291D02*
X69317844Y52831136D01*
X69240857Y60982709D02*
X69317822Y60918864D01*
X69317844Y52831136D02*
X69389674Y52900708D01*
X69317822Y60918864D02*
X69389652Y60849292D01*
X69389674Y52900708D02*
X69455944Y52975595D01*
X69389652Y60849292D02*
X69455922Y60774405D01*
X69455944Y52975595D02*
X69516262Y53055354D01*
X69455922Y60774405D02*
X69516240Y60694646D01*
X69516262Y53055354D02*
X69570271Y53139513D01*
X69516240Y60694646D02*
X69570249Y60610487D01*
X69570271Y53139513D02*
X69617651Y53227574D01*
X69570249Y60610487D02*
X69617629Y60522426D01*
X69617651Y53227574D02*
X69658122Y53319016D01*
X69617629Y60522426D02*
X69658100Y60430984D01*
X69658122Y53319016D02*
X69691444Y53413298D01*
X69658100Y60430984D02*
X69691422Y60336702D01*
X69691444Y53413298D02*
X69717420Y53509862D01*
X69691422Y60336702D02*
X69717398Y60240138D01*
X69717420Y53509862D02*
X69735897Y53608137D01*
X69717398Y60240138D02*
X69735875Y60141863D01*
X69735897Y53608137D02*
X69746765Y53707542D01*
X69735875Y60141863D02*
X69746743Y60042458D01*
X69746765Y53707542D02*
X69749960Y53807488D01*
X69746743Y60042458D02*
X69749938Y59942512D01*
X69749960Y53807488D02*
X69749938Y59942512D01*
X73499985Y5000000D02*
X94000000Y5000000D01*
X68499980Y13250000D02*
X52000000Y13250000D01*
X73499998Y13250000D02*
X80750000Y13250000D01*
X73499985Y5000000D02*
X73400281Y5007687D01*
X73499998Y13250000D02*
X73400294Y13242313D01*
X73400281Y5007687D02*
X73301463Y5023015D01*
X73400294Y13242313D02*
X73301476Y13226985D01*
X73301463Y5023015D02*
X73204116Y5045893D01*
X73301476Y13226985D02*
X73204129Y13204107D01*
X73204116Y5045893D02*
X73108816Y5076186D01*
X73204129Y13204107D02*
X73108829Y13173814D01*
X73108816Y5076186D02*
X73016126Y5113715D01*
X73108829Y13173814D02*
X73016139Y13136285D01*
X73016126Y5113715D02*
X72926595Y5158258D01*
X73016139Y13136285D02*
X72926608Y13091742D01*
X72926595Y5158258D02*
X72840753Y5209551D01*
X72926608Y13091742D02*
X72840766Y13040449D01*
X72840753Y5209551D02*
X72759108Y5267291D01*
X72840766Y13040449D02*
X72759121Y12982709D01*
X72759108Y5267291D02*
X72682143Y5331136D01*
X72759121Y12982709D02*
X72682156Y12918864D01*
X72682143Y5331136D02*
X72610313Y5400708D01*
X72682156Y12918864D02*
X72610326Y12849292D01*
X72610313Y5400708D02*
X72544043Y5475595D01*
X72610326Y12849292D02*
X72544056Y12774405D01*
X72544043Y5475595D02*
X72483725Y5555354D01*
X72544056Y12774405D02*
X72483738Y12694646D01*
X72483725Y5555354D02*
X72429716Y5639513D01*
X72483738Y12694646D02*
X72429729Y12610487D01*
X72429716Y5639513D02*
X72382336Y5727574D01*
X72429729Y12610487D02*
X72382349Y12522426D01*
X72382336Y5727574D02*
X72341865Y5819016D01*
X72382349Y12522426D02*
X72341878Y12430984D01*
X72341865Y5819016D02*
X72308543Y5913298D01*
X72341878Y12430984D02*
X72308556Y12336702D01*
X72308543Y5913298D02*
X72282567Y6009862D01*
X72308556Y12336702D02*
X72282580Y12240138D01*
X72282567Y6009862D02*
X72264090Y6108137D01*
X72282580Y12240138D02*
X72264103Y12141863D01*
X72264090Y6108137D02*
X72253222Y6207542D01*
X72264103Y12141863D02*
X72253235Y12042458D01*
X72253222Y6207542D02*
X72250027Y6307488D01*
X72253235Y12042458D02*
X72250040Y11942512D01*
X72250027Y6307488D02*
X72250040Y11942512D01*
X68499980Y13250000D02*
X68599684Y13242313D01*
X68499920Y5000000D02*
X68599624Y5007687D01*
X68599684Y13242313D02*
X68698502Y13226985D01*
X68599624Y5007687D02*
X68698442Y5023015D01*
X68698502Y13226985D02*
X68795849Y13204107D01*
X68698442Y5023015D02*
X68795789Y5045893D01*
X68795849Y13204107D02*
X68891149Y13173814D01*
X68795789Y5045893D02*
X68891089Y5076186D01*
X68891149Y13173814D02*
X68983839Y13136285D01*
X68891089Y5076186D02*
X68983779Y5113715D01*
X68983839Y13136285D02*
X69073370Y13091742D01*
X68983779Y5113715D02*
X69073310Y5158258D01*
X69073370Y13091742D02*
X69159212Y13040449D01*
X69073310Y5158258D02*
X69159152Y5209551D01*
X69159212Y13040449D02*
X69240857Y12982709D01*
X69159152Y5209551D02*
X69240797Y5267291D01*
X69240857Y12982709D02*
X69317822Y12918864D01*
X69240797Y5267291D02*
X69317762Y5331136D01*
X69317822Y12918864D02*
X69389652Y12849292D01*
X69317762Y5331136D02*
X69389592Y5400708D01*
X69389652Y12849292D02*
X69455922Y12774405D01*
X69389592Y5400708D02*
X69455862Y5475595D01*
X69455922Y12774405D02*
X69516240Y12694646D01*
X69455862Y5475595D02*
X69516180Y5555354D01*
X69516240Y12694646D02*
X69570249Y12610487D01*
X69516180Y5555354D02*
X69570189Y5639513D01*
X69570249Y12610487D02*
X69617629Y12522426D01*
X69570189Y5639513D02*
X69617569Y5727574D01*
X69617629Y12522426D02*
X69658100Y12430984D01*
X69617569Y5727574D02*
X69658040Y5819016D01*
X69658100Y12430984D02*
X69691422Y12336702D01*
X69658040Y5819016D02*
X69691362Y5913298D01*
X69691422Y12336702D02*
X69717398Y12240138D01*
X69691362Y5913298D02*
X69717338Y6009862D01*
X69717398Y12240138D02*
X69735875Y12141863D01*
X69717338Y6009862D02*
X69735815Y6108137D01*
X69735875Y12141863D02*
X69746743Y12042458D01*
X69735815Y6108137D02*
X69746683Y6207542D01*
X69746743Y12042458D02*
X69749938Y11942512D01*
X69746683Y6207542D02*
X69749878Y6307488D01*
X69749878Y6307488D02*
X69749938Y11942512D01*
X25499980Y13250000D02*
X9000000Y13250000D01*
X30499998Y13250000D02*
X37750000Y13250000D01*
X30499960Y5000000D02*
X68499920Y5000000D01*
X25500015Y5000000D02*
X5000000Y5000000D01*
X25500015Y5000000D02*
X25599719Y5007687D01*
X25499980Y13250000D02*
X25599684Y13242313D01*
X25599719Y5007687D02*
X25698537Y5023015D01*
X25599684Y13242313D02*
X25698502Y13226985D01*
X25698537Y5023015D02*
X25795884Y5045893D01*
X25698502Y13226985D02*
X25795849Y13204107D01*
X25795884Y5045893D02*
X25891184Y5076186D01*
X25795849Y13204107D02*
X25891149Y13173814D01*
X25891184Y5076186D02*
X25983874Y5113715D01*
X25891149Y13173814D02*
X25983839Y13136285D01*
X25983874Y5113715D02*
X26073405Y5158258D01*
X25983839Y13136285D02*
X26073370Y13091742D01*
X26073405Y5158258D02*
X26159247Y5209551D01*
X26073370Y13091742D02*
X26159212Y13040449D01*
X26159247Y5209551D02*
X26240892Y5267291D01*
X26159212Y13040449D02*
X26240857Y12982709D01*
X26240892Y5267291D02*
X26317857Y5331136D01*
X26240857Y12982709D02*
X26317822Y12918864D01*
X26317857Y5331136D02*
X26389687Y5400708D01*
X26317822Y12918864D02*
X26389652Y12849292D01*
X26389687Y5400708D02*
X26455957Y5475595D01*
X26389652Y12849292D02*
X26455922Y12774405D01*
X26455957Y5475595D02*
X26516275Y5555354D01*
X26455922Y12774405D02*
X26516240Y12694646D01*
X26516275Y5555354D02*
X26570284Y5639513D01*
X26516240Y12694646D02*
X26570249Y12610487D01*
X26570284Y5639513D02*
X26617664Y5727574D01*
X26570249Y12610487D02*
X26617629Y12522426D01*
X26617664Y5727574D02*
X26658135Y5819016D01*
X26617629Y12522426D02*
X26658100Y12430984D01*
X26658135Y5819016D02*
X26691457Y5913298D01*
X26658100Y12430984D02*
X26691422Y12336702D01*
X26691457Y5913298D02*
X26717433Y6009862D01*
X26691422Y12336702D02*
X26717398Y12240138D01*
X26717433Y6009862D02*
X26735910Y6108137D01*
X26717398Y12240138D02*
X26735875Y12141863D01*
X26735910Y6108137D02*
X26746778Y6207542D01*
X26735875Y12141863D02*
X26746743Y12042458D01*
X26746778Y6207542D02*
X26749973Y6307488D01*
X26746743Y12042458D02*
X26749938Y11942512D01*
X26749938Y11942512D02*
X26749973Y6307488D01*
X30499960Y5000000D02*
X30400256Y5007687D01*
X30499998Y13250000D02*
X30400294Y13242313D01*
X30400256Y5007687D02*
X30301438Y5023015D01*
X30400294Y13242313D02*
X30301476Y13226985D01*
X30301438Y5023015D02*
X30204091Y5045893D01*
X30301476Y13226985D02*
X30204129Y13204107D01*
X30204091Y5045893D02*
X30108791Y5076186D01*
X30204129Y13204107D02*
X30108829Y13173814D01*
X30108791Y5076186D02*
X30016101Y5113715D01*
X30108829Y13173814D02*
X30016139Y13136285D01*
X30016101Y5113715D02*
X29926570Y5158258D01*
X30016139Y13136285D02*
X29926608Y13091742D01*
X29926570Y5158258D02*
X29840728Y5209551D01*
X29926608Y13091742D02*
X29840766Y13040449D01*
X29840728Y5209551D02*
X29759083Y5267291D01*
X29840766Y13040449D02*
X29759121Y12982709D01*
X29759083Y5267291D02*
X29682118Y5331136D01*
X29759121Y12982709D02*
X29682156Y12918864D01*
X29682118Y5331136D02*
X29610288Y5400708D01*
X29682156Y12918864D02*
X29610326Y12849292D01*
X29610288Y5400708D02*
X29544018Y5475595D01*
X29610326Y12849292D02*
X29544056Y12774405D01*
X29544018Y5475595D02*
X29483700Y5555354D01*
X29544056Y12774405D02*
X29483738Y12694646D01*
X29483700Y5555354D02*
X29429691Y5639513D01*
X29483738Y12694646D02*
X29429729Y12610487D01*
X29429691Y5639513D02*
X29382311Y5727574D01*
X29429729Y12610487D02*
X29382349Y12522426D01*
X29382311Y5727574D02*
X29341840Y5819016D01*
X29382349Y12522426D02*
X29341878Y12430984D01*
X29341840Y5819016D02*
X29308518Y5913298D01*
X29341878Y12430984D02*
X29308556Y12336702D01*
X29308518Y5913298D02*
X29282542Y6009862D01*
X29308556Y12336702D02*
X29282580Y12240138D01*
X29282542Y6009862D02*
X29264065Y6108137D01*
X29282580Y12240138D02*
X29264103Y12141863D01*
X29264065Y6108137D02*
X29253197Y6207542D01*
X29264103Y12141863D02*
X29253235Y12042458D01*
X29253197Y6207542D02*
X29250002Y6307488D01*
X29253235Y12042458D02*
X29250040Y11942512D01*
X29250040Y11942512D02*
X29250002Y6307488D01*
X25499980Y61250000D02*
X9000000Y61250000D01*
X30499998Y61250000D02*
X37750000Y61250000D01*
X30499985Y52500000D02*
X46750000Y52500000D01*
X25500002Y52500000D02*
X24750000Y52500000D01*
X25500002Y52500000D02*
X25599706Y52507687D01*
X25499980Y61250000D02*
X25599684Y61242313D01*
X25599706Y52507687D02*
X25698524Y52523015D01*
X25599684Y61242313D02*
X25698502Y61226985D01*
X25698524Y52523015D02*
X25795871Y52545893D01*
X25698502Y61226985D02*
X25795849Y61204107D01*
X25795871Y52545893D02*
X25891171Y52576186D01*
X25795849Y61204107D02*
X25891149Y61173814D01*
X25891171Y52576186D02*
X25983861Y52613715D01*
X25891149Y61173814D02*
X25983839Y61136285D01*
X25983861Y52613715D02*
X26073392Y52658258D01*
X25983839Y61136285D02*
X26073370Y61091742D01*
X26073392Y52658258D02*
X26159234Y52709551D01*
X26073370Y61091742D02*
X26159212Y61040449D01*
X26159234Y52709551D02*
X26240879Y52767291D01*
X26159212Y61040449D02*
X26240857Y60982709D01*
X26240879Y52767291D02*
X26317844Y52831136D01*
X26240857Y60982709D02*
X26317822Y60918864D01*
X26317844Y52831136D02*
X26389674Y52900708D01*
X26317822Y60918864D02*
X26389652Y60849292D01*
X26389674Y52900708D02*
X26455944Y52975595D01*
X26389652Y60849292D02*
X26455922Y60774405D01*
X26455944Y52975595D02*
X26516262Y53055354D01*
X26455922Y60774405D02*
X26516240Y60694646D01*
X26516262Y53055354D02*
X26570271Y53139513D01*
X26516240Y60694646D02*
X26570249Y60610487D01*
X26570271Y53139513D02*
X26617651Y53227574D01*
X26570249Y60610487D02*
X26617629Y60522426D01*
X26617651Y53227574D02*
X26658122Y53319016D01*
X26617629Y60522426D02*
X26658100Y60430984D01*
X26658122Y53319016D02*
X26691444Y53413298D01*
X26658100Y60430984D02*
X26691422Y60336702D01*
X26691444Y53413298D02*
X26717420Y53509862D01*
X26691422Y60336702D02*
X26717398Y60240138D01*
X26717420Y53509862D02*
X26735897Y53608137D01*
X26717398Y60240138D02*
X26735875Y60141863D01*
X26735897Y53608137D02*
X26746765Y53707542D01*
X26735875Y60141863D02*
X26746743Y60042458D01*
X26746765Y53707542D02*
X26749960Y53807488D01*
X26746743Y60042458D02*
X26749938Y59942512D01*
X26749938Y59942512D02*
X26749960Y53807488D01*
X30499985Y52500000D02*
X30400281Y52507687D01*
X30499998Y61250000D02*
X30400294Y61242313D01*
X30400281Y52507687D02*
X30301463Y52523015D01*
X30400294Y61242313D02*
X30301476Y61226985D01*
X30301463Y52523015D02*
X30204116Y52545893D01*
X30301476Y61226985D02*
X30204129Y61204107D01*
X30204116Y52545893D02*
X30108816Y52576186D01*
X30204129Y61204107D02*
X30108829Y61173814D01*
X30108816Y52576186D02*
X30016126Y52613715D01*
X30108829Y61173814D02*
X30016139Y61136285D01*
X30016126Y52613715D02*
X29926595Y52658258D01*
X30016139Y61136285D02*
X29926608Y61091742D01*
X29926595Y52658258D02*
X29840753Y52709551D01*
X29926608Y61091742D02*
X29840766Y61040449D01*
X29840753Y52709551D02*
X29759108Y52767291D01*
X29840766Y61040449D02*
X29759121Y60982709D01*
X29759108Y52767291D02*
X29682143Y52831136D01*
X29759121Y60982709D02*
X29682156Y60918864D01*
X29682143Y52831136D02*
X29610313Y52900708D01*
X29682156Y60918864D02*
X29610326Y60849292D01*
X29610313Y52900708D02*
X29544043Y52975595D01*
X29610326Y60849292D02*
X29544056Y60774405D01*
X29544043Y52975595D02*
X29483725Y53055354D01*
X29544056Y60774405D02*
X29483738Y60694646D01*
X29483725Y53055354D02*
X29429716Y53139513D01*
X29483738Y60694646D02*
X29429729Y60610487D01*
X29429716Y53139513D02*
X29382336Y53227574D01*
X29429729Y60610487D02*
X29382349Y60522426D01*
X29382336Y53227574D02*
X29341865Y53319016D01*
X29382349Y60522426D02*
X29341878Y60430984D01*
X29341865Y53319016D02*
X29308543Y53413298D01*
X29341878Y60430984D02*
X29308556Y60336702D01*
X29308543Y53413298D02*
X29282567Y53509862D01*
X29308556Y60336702D02*
X29282580Y60240138D01*
X29282567Y53509862D02*
X29264090Y53608137D01*
X29282580Y60240138D02*
X29264103Y60141863D01*
X29264090Y53608137D02*
X29253222Y53707542D01*
X29264103Y60141863D02*
X29253235Y60042458D01*
X29253222Y53707542D02*
X29250027Y53807488D01*
X29253235Y60042458D02*
X29250040Y59942512D01*
X29250040Y59942512D02*
X29250027Y53807488D01*
X30499960Y104000000D02*
X68499920Y104000000D01*
X25500015Y104000000D02*
X5000000Y104000000D01*
X30499985Y100500000D02*
X46750000Y100500000D01*
X25500002Y100500000D02*
X24750000Y100500000D01*
X25500015Y104000000D02*
X25599719Y103992313D01*
X25500002Y100500000D02*
X25599706Y100507687D01*
X25599719Y103992313D02*
X25698537Y103976985D01*
X25599706Y100507687D02*
X25698524Y100523015D01*
X25698537Y103976985D02*
X25795884Y103954107D01*
X25698524Y100523015D02*
X25795871Y100545893D01*
X25795884Y103954107D02*
X25891184Y103923814D01*
X25795871Y100545893D02*
X25891171Y100576186D01*
X25891184Y103923814D02*
X25983874Y103886285D01*
X25891171Y100576186D02*
X25983861Y100613715D01*
X25983874Y103886285D02*
X26073405Y103841742D01*
X25983861Y100613715D02*
X26073392Y100658258D01*
X26073405Y103841742D02*
X26159247Y103790449D01*
X26073392Y100658258D02*
X26159234Y100709551D01*
X26159247Y103790449D02*
X26240892Y103732709D01*
X26159234Y100709551D02*
X26240879Y100767291D01*
X26240892Y103732709D02*
X26317857Y103668864D01*
X26240879Y100767291D02*
X26317844Y100831136D01*
X26317857Y103668864D02*
X26389687Y103599292D01*
X26317844Y100831136D02*
X26389674Y100900708D01*
X26389687Y103599292D02*
X26455957Y103524405D01*
X26389674Y100900708D02*
X26455944Y100975595D01*
X26455957Y103524405D02*
X26516275Y103444646D01*
X26455944Y100975595D02*
X26516262Y101055354D01*
X26516275Y103444646D02*
X26570284Y103360487D01*
X26516262Y101055354D02*
X26570271Y101139513D01*
X26570284Y103360487D02*
X26617664Y103272426D01*
X26570271Y101139513D02*
X26617651Y101227574D01*
X26617664Y103272426D02*
X26658135Y103180984D01*
X26617651Y101227574D02*
X26658122Y101319016D01*
X26658135Y103180984D02*
X26691457Y103086702D01*
X26658122Y101319016D02*
X26691444Y101413298D01*
X26691457Y103086702D02*
X26717433Y102990138D01*
X26691444Y101413298D02*
X26717420Y101509862D01*
X26717433Y102990138D02*
X26735910Y102891863D01*
X26717420Y101509862D02*
X26735897Y101608137D01*
X26735910Y102891863D02*
X26746778Y102792458D01*
X26735897Y101608137D02*
X26746765Y101707542D01*
X26746778Y102792458D02*
X26749973Y102692512D01*
X26746765Y101707542D02*
X26749960Y101807488D01*
X26749973Y102692512D02*
X26749960Y101807488D01*
X30499960Y104000000D02*
X30400256Y103992313D01*
X30499985Y100500000D02*
X30400281Y100507687D01*
X30400256Y103992313D02*
X30301438Y103976985D01*
X30400281Y100507687D02*
X30301463Y100523015D01*
X30301438Y103976985D02*
X30204091Y103954107D01*
X30301463Y100523015D02*
X30204116Y100545893D01*
X30204091Y103954107D02*
X30108791Y103923814D01*
X30204116Y100545893D02*
X30108816Y100576186D01*
X30108791Y103923814D02*
X30016101Y103886285D01*
X30108816Y100576186D02*
X30016126Y100613715D01*
X30016101Y103886285D02*
X29926570Y103841742D01*
X30016126Y100613715D02*
X29926595Y100658258D01*
X29926570Y103841742D02*
X29840728Y103790449D01*
X29926595Y100658258D02*
X29840753Y100709551D01*
X29840728Y103790449D02*
X29759083Y103732709D01*
X29840753Y100709551D02*
X29759108Y100767291D01*
X29759083Y103732709D02*
X29682118Y103668864D01*
X29759108Y100767291D02*
X29682143Y100831136D01*
X29682118Y103668864D02*
X29610288Y103599292D01*
X29682143Y100831136D02*
X29610313Y100900708D01*
X29610288Y103599292D02*
X29544018Y103524405D01*
X29610313Y100900708D02*
X29544043Y100975595D01*
X29544018Y103524405D02*
X29483700Y103444646D01*
X29544043Y100975595D02*
X29483725Y101055354D01*
X29483700Y103444646D02*
X29429691Y103360487D01*
X29483725Y101055354D02*
X29429716Y101139513D01*
X29429691Y103360487D02*
X29382311Y103272426D01*
X29429716Y101139513D02*
X29382336Y101227574D01*
X29382311Y103272426D02*
X29341840Y103180984D01*
X29382336Y101227574D02*
X29341865Y101319016D01*
X29341840Y103180984D02*
X29308518Y103086702D01*
X29341865Y101319016D02*
X29308543Y101413298D01*
X29308518Y103086702D02*
X29282542Y102990138D01*
X29308543Y101413298D02*
X29282567Y101509862D01*
X29282542Y102990138D02*
X29264065Y102891863D01*
X29282567Y101509862D02*
X29264090Y101608137D01*
X29264065Y102891863D02*
X29253197Y102792458D01*
X29264090Y101608137D02*
X29253222Y101707542D01*
X29253197Y102792458D02*
X29250002Y102692512D01*
X29253222Y101707542D02*
X29250027Y101807488D01*
X29250002Y102692512D02*
X29250027Y101807488D01*
X90750000Y35499982D02*
X90750000Y9000000D01*
X90750000Y40499998D02*
X90750000Y51500000D01*
X94000000Y35500002D02*
X94000000Y5000000D01*
X94000000Y35500002D02*
X93992313Y35599706D01*
X90750000Y35499982D02*
X90757687Y35599686D01*
X93992313Y35599706D02*
X93976985Y35698524D01*
X90757687Y35599686D02*
X90773015Y35698504D01*
X93976985Y35698524D02*
X93954107Y35795871D01*
X90773015Y35698504D02*
X90795893Y35795851D01*
X93954107Y35795871D02*
X93923814Y35891171D01*
X90795893Y35795851D02*
X90826186Y35891151D01*
X93923814Y35891171D02*
X93886285Y35983861D01*
X90826186Y35891151D02*
X90863715Y35983841D01*
X93886285Y35983861D02*
X93841742Y36073392D01*
X90863715Y35983841D02*
X90908258Y36073372D01*
X93841742Y36073392D02*
X93790449Y36159234D01*
X90908258Y36073372D02*
X90959551Y36159214D01*
X93790449Y36159234D02*
X93732709Y36240879D01*
X90959551Y36159214D02*
X91017291Y36240859D01*
X93732709Y36240879D02*
X93668864Y36317844D01*
X91017291Y36240859D02*
X91081136Y36317824D01*
X93668864Y36317844D02*
X93599292Y36389674D01*
X91081136Y36317824D02*
X91150708Y36389654D01*
X93599292Y36389674D02*
X93524405Y36455944D01*
X91150708Y36389654D02*
X91225595Y36455924D01*
X93524405Y36455944D02*
X93444646Y36516262D01*
X91225595Y36455924D02*
X91305354Y36516242D01*
X93444646Y36516262D02*
X93360487Y36570271D01*
X91305354Y36516242D02*
X91389513Y36570251D01*
X93360487Y36570271D02*
X93272426Y36617651D01*
X91389513Y36570251D02*
X91477574Y36617631D01*
X93272426Y36617651D02*
X93180984Y36658122D01*
X91477574Y36617631D02*
X91569016Y36658102D01*
X93180984Y36658122D02*
X93086702Y36691444D01*
X91569016Y36658102D02*
X91663298Y36691424D01*
X93086702Y36691444D02*
X92990138Y36717420D01*
X91663298Y36691424D02*
X91759862Y36717400D01*
X92990138Y36717420D02*
X92891863Y36735897D01*
X91759862Y36717400D02*
X91858137Y36735877D01*
X92891863Y36735897D02*
X92792458Y36746765D01*
X91858137Y36735877D02*
X91957542Y36746745D01*
X92792458Y36746765D02*
X92692512Y36749960D01*
X91957542Y36746745D02*
X92057488Y36749940D01*
X92057488Y36749940D02*
X92692512Y36749960D01*
X90750000Y40499998D02*
X90757687Y40400294D01*
X94000000Y40500080D02*
X93992313Y40400376D01*
X90757687Y40400294D02*
X90773015Y40301476D01*
X93992313Y40400376D02*
X93976985Y40301558D01*
X90773015Y40301476D02*
X90795893Y40204129D01*
X93976985Y40301558D02*
X93954107Y40204211D01*
X90795893Y40204129D02*
X90826186Y40108829D01*
X93954107Y40204211D02*
X93923814Y40108911D01*
X90826186Y40108829D02*
X90863715Y40016139D01*
X93923814Y40108911D02*
X93886285Y40016221D01*
X90863715Y40016139D02*
X90908258Y39926608D01*
X93886285Y40016221D02*
X93841742Y39926690D01*
X90908258Y39926608D02*
X90959551Y39840766D01*
X93841742Y39926690D02*
X93790449Y39840848D01*
X90959551Y39840766D02*
X91017291Y39759121D01*
X93790449Y39840848D02*
X93732709Y39759203D01*
X91017291Y39759121D02*
X91081136Y39682156D01*
X93732709Y39759203D02*
X93668864Y39682238D01*
X91081136Y39682156D02*
X91150708Y39610326D01*
X93668864Y39682238D02*
X93599292Y39610408D01*
X91150708Y39610326D02*
X91225595Y39544056D01*
X93599292Y39610408D02*
X93524405Y39544138D01*
X91225595Y39544056D02*
X91305354Y39483738D01*
X93524405Y39544138D02*
X93444646Y39483820D01*
X91305354Y39483738D02*
X91389513Y39429729D01*
X93444646Y39483820D02*
X93360487Y39429811D01*
X91389513Y39429729D02*
X91477574Y39382349D01*
X93360487Y39429811D02*
X93272426Y39382431D01*
X91477574Y39382349D02*
X91569016Y39341878D01*
X93272426Y39382431D02*
X93180984Y39341960D01*
X91569016Y39341878D02*
X91663298Y39308556D01*
X93180984Y39341960D02*
X93086702Y39308638D01*
X91663298Y39308556D02*
X91759862Y39282580D01*
X93086702Y39308638D02*
X92990138Y39282662D01*
X91759862Y39282580D02*
X91858137Y39264103D01*
X92990138Y39282662D02*
X92891863Y39264185D01*
X91858137Y39264103D02*
X91957542Y39253235D01*
X92891863Y39264185D02*
X92792458Y39253317D01*
X91957542Y39253235D02*
X92057488Y39250040D01*
X92792458Y39253317D02*
X92692512Y39250122D01*
X92057488Y39250040D02*
X92692512Y39250122D01*
X47750000Y35499982D02*
X47750000Y9000000D01*
X47750000Y40499998D02*
X47750000Y51500000D01*
X51000000Y40500015D02*
X51000000Y49500000D01*
X51000000Y35500015D02*
X51000000Y14250000D01*
X51000000Y35500015D02*
X50992313Y35599719D01*
X47750000Y35499982D02*
X47757687Y35599686D01*
X50992313Y35599719D02*
X50976985Y35698537D01*
X47757687Y35599686D02*
X47773015Y35698504D01*
X50976985Y35698537D02*
X50954107Y35795884D01*
X47773015Y35698504D02*
X47795893Y35795851D01*
X50954107Y35795884D02*
X50923814Y35891184D01*
X47795893Y35795851D02*
X47826186Y35891151D01*
X50923814Y35891184D02*
X50886285Y35983874D01*
X47826186Y35891151D02*
X47863715Y35983841D01*
X50886285Y35983874D02*
X50841742Y36073405D01*
X47863715Y35983841D02*
X47908258Y36073372D01*
X50841742Y36073405D02*
X50790449Y36159247D01*
X47908258Y36073372D02*
X47959551Y36159214D01*
X50790449Y36159247D02*
X50732709Y36240892D01*
X47959551Y36159214D02*
X48017291Y36240859D01*
X50732709Y36240892D02*
X50668864Y36317857D01*
X48017291Y36240859D02*
X48081136Y36317824D01*
X50668864Y36317857D02*
X50599292Y36389687D01*
X48081136Y36317824D02*
X48150708Y36389654D01*
X50599292Y36389687D02*
X50524405Y36455957D01*
X48150708Y36389654D02*
X48225595Y36455924D01*
X50524405Y36455957D02*
X50444646Y36516275D01*
X48225595Y36455924D02*
X48305354Y36516242D01*
X50444646Y36516275D02*
X50360487Y36570284D01*
X48305354Y36516242D02*
X48389513Y36570251D01*
X50360487Y36570284D02*
X50272426Y36617664D01*
X48389513Y36570251D02*
X48477574Y36617631D01*
X50272426Y36617664D02*
X50180984Y36658135D01*
X48477574Y36617631D02*
X48569016Y36658102D01*
X50180984Y36658135D02*
X50086702Y36691457D01*
X48569016Y36658102D02*
X48663298Y36691424D01*
X50086702Y36691457D02*
X49990138Y36717433D01*
X48663298Y36691424D02*
X48759862Y36717400D01*
X49990138Y36717433D02*
X49891863Y36735910D01*
X48759862Y36717400D02*
X48858137Y36735877D01*
X49891863Y36735910D02*
X49792458Y36746778D01*
X48858137Y36735877D02*
X48957542Y36746745D01*
X49792458Y36746778D02*
X49692512Y36749973D01*
X48957542Y36746745D02*
X49057488Y36749940D01*
X49057488Y36749940D02*
X49692512Y36749973D01*
X47750000Y40499998D02*
X47757687Y40400294D01*
X51000000Y40500015D02*
X50992313Y40400311D01*
X47757687Y40400294D02*
X47773015Y40301476D01*
X50992313Y40400311D02*
X50976985Y40301493D01*
X47773015Y40301476D02*
X47795893Y40204129D01*
X50976985Y40301493D02*
X50954107Y40204146D01*
X47795893Y40204129D02*
X47826186Y40108829D01*
X50954107Y40204146D02*
X50923814Y40108846D01*
X47826186Y40108829D02*
X47863715Y40016139D01*
X50923814Y40108846D02*
X50886285Y40016156D01*
X47863715Y40016139D02*
X47908258Y39926608D01*
X50886285Y40016156D02*
X50841742Y39926625D01*
X47908258Y39926608D02*
X47959551Y39840766D01*
X50841742Y39926625D02*
X50790449Y39840783D01*
X47959551Y39840766D02*
X48017291Y39759121D01*
X50790449Y39840783D02*
X50732709Y39759138D01*
X48017291Y39759121D02*
X48081136Y39682156D01*
X50732709Y39759138D02*
X50668864Y39682173D01*
X48081136Y39682156D02*
X48150708Y39610326D01*
X50668864Y39682173D02*
X50599292Y39610343D01*
X48150708Y39610326D02*
X48225595Y39544056D01*
X50599292Y39610343D02*
X50524405Y39544073D01*
X48225595Y39544056D02*
X48305354Y39483738D01*
X50524405Y39544073D02*
X50444646Y39483755D01*
X48305354Y39483738D02*
X48389513Y39429729D01*
X50444646Y39483755D02*
X50360487Y39429746D01*
X48389513Y39429729D02*
X48477574Y39382349D01*
X50360487Y39429746D02*
X50272426Y39382366D01*
X48477574Y39382349D02*
X48569016Y39341878D01*
X50272426Y39382366D02*
X50180984Y39341895D01*
X48569016Y39341878D02*
X48663298Y39308556D01*
X50180984Y39341895D02*
X50086702Y39308573D01*
X48663298Y39308556D02*
X48759862Y39282580D01*
X50086702Y39308573D02*
X49990138Y39282597D01*
X48759862Y39282580D02*
X48858137Y39264103D01*
X49990138Y39282597D02*
X49891863Y39264120D01*
X48858137Y39264103D02*
X48957542Y39253235D01*
X49891863Y39264120D02*
X49792458Y39253252D01*
X48957542Y39253235D02*
X49057488Y39250040D01*
X49792458Y39253252D02*
X49692512Y39250057D01*
X49057488Y39250040D02*
X49692512Y39250057D01*
X90750000Y83499982D02*
X90750000Y57000000D01*
X90750000Y88499998D02*
X90750000Y99500000D01*
X94000000Y83500007D02*
X94000000Y40500080D01*
X94000000Y88500020D02*
X94000000Y104000000D01*
X94000000Y83500007D02*
X93992313Y83599711D01*
X90750000Y83499982D02*
X90757687Y83599686D01*
X93992313Y83599711D02*
X93976985Y83698529D01*
X90757687Y83599686D02*
X90773015Y83698504D01*
X93976985Y83698529D02*
X93954107Y83795876D01*
X90773015Y83698504D02*
X90795893Y83795851D01*
X93954107Y83795876D02*
X93923814Y83891176D01*
X90795893Y83795851D02*
X90826186Y83891151D01*
X93923814Y83891176D02*
X93886285Y83983866D01*
X90826186Y83891151D02*
X90863715Y83983841D01*
X93886285Y83983866D02*
X93841742Y84073397D01*
X90863715Y83983841D02*
X90908258Y84073372D01*
X93841742Y84073397D02*
X93790449Y84159239D01*
X90908258Y84073372D02*
X90959551Y84159214D01*
X93790449Y84159239D02*
X93732709Y84240884D01*
X90959551Y84159214D02*
X91017291Y84240859D01*
X93732709Y84240884D02*
X93668864Y84317849D01*
X91017291Y84240859D02*
X91081136Y84317824D01*
X93668864Y84317849D02*
X93599292Y84389679D01*
X91081136Y84317824D02*
X91150708Y84389654D01*
X93599292Y84389679D02*
X93524405Y84455949D01*
X91150708Y84389654D02*
X91225595Y84455924D01*
X93524405Y84455949D02*
X93444646Y84516267D01*
X91225595Y84455924D02*
X91305354Y84516242D01*
X93444646Y84516267D02*
X93360487Y84570276D01*
X91305354Y84516242D02*
X91389513Y84570251D01*
X93360487Y84570276D02*
X93272426Y84617656D01*
X91389513Y84570251D02*
X91477574Y84617631D01*
X93272426Y84617656D02*
X93180984Y84658127D01*
X91477574Y84617631D02*
X91569016Y84658102D01*
X93180984Y84658127D02*
X93086702Y84691449D01*
X91569016Y84658102D02*
X91663298Y84691424D01*
X93086702Y84691449D02*
X92990138Y84717425D01*
X91663298Y84691424D02*
X91759862Y84717400D01*
X92990138Y84717425D02*
X92891863Y84735902D01*
X91759862Y84717400D02*
X91858137Y84735877D01*
X92891863Y84735902D02*
X92792458Y84746770D01*
X91858137Y84735877D02*
X91957542Y84746745D01*
X92792458Y84746770D02*
X92692512Y84749965D01*
X91957542Y84746745D02*
X92057488Y84749940D01*
X92057488Y84749940D02*
X92692512Y84749965D01*
X90750000Y88499998D02*
X90757687Y88400294D01*
X94000000Y88500020D02*
X93992313Y88400316D01*
X90757687Y88400294D02*
X90773015Y88301476D01*
X93992313Y88400316D02*
X93976985Y88301498D01*
X90773015Y88301476D02*
X90795893Y88204129D01*
X93976985Y88301498D02*
X93954107Y88204151D01*
X90795893Y88204129D02*
X90826186Y88108829D01*
X93954107Y88204151D02*
X93923814Y88108851D01*
X90826186Y88108829D02*
X90863715Y88016139D01*
X93923814Y88108851D02*
X93886285Y88016161D01*
X90863715Y88016139D02*
X90908258Y87926608D01*
X93886285Y88016161D02*
X93841742Y87926630D01*
X90908258Y87926608D02*
X90959551Y87840766D01*
X93841742Y87926630D02*
X93790449Y87840788D01*
X90959551Y87840766D02*
X91017291Y87759121D01*
X93790449Y87840788D02*
X93732709Y87759143D01*
X91017291Y87759121D02*
X91081136Y87682156D01*
X93732709Y87759143D02*
X93668864Y87682178D01*
X91081136Y87682156D02*
X91150708Y87610326D01*
X93668864Y87682178D02*
X93599292Y87610348D01*
X91150708Y87610326D02*
X91225595Y87544056D01*
X93599292Y87610348D02*
X93524405Y87544078D01*
X91225595Y87544056D02*
X91305354Y87483738D01*
X93524405Y87544078D02*
X93444646Y87483760D01*
X91305354Y87483738D02*
X91389513Y87429729D01*
X93444646Y87483760D02*
X93360487Y87429751D01*
X91389513Y87429729D02*
X91477574Y87382349D01*
X93360487Y87429751D02*
X93272426Y87382371D01*
X91477574Y87382349D02*
X91569016Y87341878D01*
X93272426Y87382371D02*
X93180984Y87341900D01*
X91569016Y87341878D02*
X91663298Y87308556D01*
X93180984Y87341900D02*
X93086702Y87308578D01*
X91663298Y87308556D02*
X91759862Y87282580D01*
X93086702Y87308578D02*
X92990138Y87282602D01*
X91759862Y87282580D02*
X91858137Y87264103D01*
X92990138Y87282602D02*
X92891863Y87264125D01*
X91858137Y87264103D02*
X91957542Y87253235D01*
X92891863Y87264125D02*
X92792458Y87253257D01*
X91957542Y87253235D02*
X92057488Y87250040D01*
X92792458Y87253257D02*
X92692512Y87250062D01*
X92057488Y87250040D02*
X92692512Y87250062D01*
X47750000Y83499982D02*
X47750000Y57000000D01*
X47750000Y88499998D02*
X47750000Y99500000D01*
X51000000Y88500015D02*
X51000000Y97500000D01*
X51000000Y83500015D02*
X51000000Y62250000D01*
X51000000Y83500015D02*
X50992313Y83599719D01*
X47750000Y83499982D02*
X47757687Y83599686D01*
X50992313Y83599719D02*
X50976985Y83698537D01*
X47757687Y83599686D02*
X47773015Y83698504D01*
X50976985Y83698537D02*
X50954107Y83795884D01*
X47773015Y83698504D02*
X47795893Y83795851D01*
X50954107Y83795884D02*
X50923814Y83891184D01*
X47795893Y83795851D02*
X47826186Y83891151D01*
X50923814Y83891184D02*
X50886285Y83983874D01*
X47826186Y83891151D02*
X47863715Y83983841D01*
X50886285Y83983874D02*
X50841742Y84073405D01*
X47863715Y83983841D02*
X47908258Y84073372D01*
X50841742Y84073405D02*
X50790449Y84159247D01*
X47908258Y84073372D02*
X47959551Y84159214D01*
X50790449Y84159247D02*
X50732709Y84240892D01*
X47959551Y84159214D02*
X48017291Y84240859D01*
X50732709Y84240892D02*
X50668864Y84317857D01*
X48017291Y84240859D02*
X48081136Y84317824D01*
X50668864Y84317857D02*
X50599292Y84389687D01*
X48081136Y84317824D02*
X48150708Y84389654D01*
X50599292Y84389687D02*
X50524405Y84455957D01*
X48150708Y84389654D02*
X48225595Y84455924D01*
X50524405Y84455957D02*
X50444646Y84516275D01*
X48225595Y84455924D02*
X48305354Y84516242D01*
X50444646Y84516275D02*
X50360487Y84570284D01*
X48305354Y84516242D02*
X48389513Y84570251D01*
X50360487Y84570284D02*
X50272426Y84617664D01*
X48389513Y84570251D02*
X48477574Y84617631D01*
X50272426Y84617664D02*
X50180984Y84658135D01*
X48477574Y84617631D02*
X48569016Y84658102D01*
X50180984Y84658135D02*
X50086702Y84691457D01*
X48569016Y84658102D02*
X48663298Y84691424D01*
X50086702Y84691457D02*
X49990138Y84717433D01*
X48663298Y84691424D02*
X48759862Y84717400D01*
X49990138Y84717433D02*
X49891863Y84735910D01*
X48759862Y84717400D02*
X48858137Y84735877D01*
X49891863Y84735910D02*
X49792458Y84746778D01*
X48858137Y84735877D02*
X48957542Y84746745D01*
X49792458Y84746778D02*
X49692512Y84749973D01*
X48957542Y84746745D02*
X49057488Y84749940D01*
X49057488Y84749940D02*
X49692512Y84749973D01*
X47750000Y88499998D02*
X47757687Y88400294D01*
X51000000Y88500015D02*
X50992313Y88400311D01*
X47757687Y88400294D02*
X47773015Y88301476D01*
X50992313Y88400311D02*
X50976985Y88301493D01*
X47773015Y88301476D02*
X47795893Y88204129D01*
X50976985Y88301493D02*
X50954107Y88204146D01*
X47795893Y88204129D02*
X47826186Y88108829D01*
X50954107Y88204146D02*
X50923814Y88108846D01*
X47826186Y88108829D02*
X47863715Y88016139D01*
X50923814Y88108846D02*
X50886285Y88016156D01*
X47863715Y88016139D02*
X47908258Y87926608D01*
X50886285Y88016156D02*
X50841742Y87926625D01*
X47908258Y87926608D02*
X47959551Y87840766D01*
X50841742Y87926625D02*
X50790449Y87840783D01*
X47959551Y87840766D02*
X48017291Y87759121D01*
X50790449Y87840783D02*
X50732709Y87759138D01*
X48017291Y87759121D02*
X48081136Y87682156D01*
X50732709Y87759138D02*
X50668864Y87682173D01*
X48081136Y87682156D02*
X48150708Y87610326D01*
X50668864Y87682173D02*
X50599292Y87610343D01*
X48150708Y87610326D02*
X48225595Y87544056D01*
X50599292Y87610343D02*
X50524405Y87544073D01*
X48225595Y87544056D02*
X48305354Y87483738D01*
X50524405Y87544073D02*
X50444646Y87483755D01*
X48305354Y87483738D02*
X48389513Y87429729D01*
X50444646Y87483755D02*
X50360487Y87429746D01*
X48389513Y87429729D02*
X48477574Y87382349D01*
X50360487Y87429746D02*
X50272426Y87382366D01*
X48477574Y87382349D02*
X48569016Y87341878D01*
X50272426Y87382366D02*
X50180984Y87341895D01*
X48569016Y87341878D02*
X48663298Y87308556D01*
X50180984Y87341895D02*
X50086702Y87308573D01*
X48663298Y87308556D02*
X48759862Y87282580D01*
X50086702Y87308573D02*
X49990138Y87282597D01*
X48759862Y87282580D02*
X48858137Y87264103D01*
X49990138Y87282597D02*
X49891863Y87264120D01*
X48858137Y87264103D02*
X48957542Y87253235D01*
X49891863Y87264120D02*
X49792458Y87253252D01*
X48957542Y87253235D02*
X49057488Y87250040D01*
X49792458Y87253252D02*
X49692512Y87250057D01*
X49057488Y87250040D02*
X49692512Y87250057D01*
X5000000Y80500030D02*
X5000000Y104000000D01*
X8000000Y80499998D02*
X8000000Y97500000D01*
X8000000Y75500002D02*
X8000000Y62250000D01*
X8000000Y75500002D02*
X7992313Y75599706D01*
X5000000Y75499932D02*
X5007687Y75599636D01*
X7992313Y75599706D02*
X7976985Y75698524D01*
X5007687Y75599636D02*
X5023015Y75698454D01*
X7976985Y75698524D02*
X7954107Y75795871D01*
X5023015Y75698454D02*
X5045893Y75795801D01*
X7954107Y75795871D02*
X7923814Y75891171D01*
X5045893Y75795801D02*
X5076186Y75891101D01*
X7923814Y75891171D02*
X7886285Y75983861D01*
X5076186Y75891101D02*
X5113715Y75983791D01*
X7886285Y75983861D02*
X7841742Y76073392D01*
X5113715Y75983791D02*
X5158258Y76073322D01*
X7841742Y76073392D02*
X7790449Y76159234D01*
X5158258Y76073322D02*
X5209551Y76159164D01*
X7790449Y76159234D02*
X7732709Y76240879D01*
X5209551Y76159164D02*
X5267291Y76240809D01*
X7732709Y76240879D02*
X7668864Y76317844D01*
X5267291Y76240809D02*
X5331136Y76317774D01*
X7668864Y76317844D02*
X7599292Y76389674D01*
X5331136Y76317774D02*
X5400708Y76389604D01*
X7599292Y76389674D02*
X7524405Y76455944D01*
X5400708Y76389604D02*
X5475595Y76455874D01*
X7524405Y76455944D02*
X7444646Y76516262D01*
X5475595Y76455874D02*
X5555354Y76516192D01*
X7444646Y76516262D02*
X7360487Y76570271D01*
X5555354Y76516192D02*
X5639513Y76570201D01*
X7360487Y76570271D02*
X7272426Y76617651D01*
X5639513Y76570201D02*
X5727574Y76617581D01*
X7272426Y76617651D02*
X7180984Y76658122D01*
X5727574Y76617581D02*
X5819016Y76658052D01*
X7180984Y76658122D02*
X7086702Y76691444D01*
X5819016Y76658052D02*
X5913298Y76691374D01*
X7086702Y76691444D02*
X6990138Y76717420D01*
X5913298Y76691374D02*
X6009862Y76717350D01*
X6990138Y76717420D02*
X6891863Y76735897D01*
X6009862Y76717350D02*
X6108137Y76735827D01*
X6891863Y76735897D02*
X6792458Y76746765D01*
X6108137Y76735827D02*
X6207542Y76746695D01*
X6792458Y76746765D02*
X6692512Y76749960D01*
X6207542Y76746695D02*
X6307488Y76749890D01*
X6307488Y76749890D02*
X6692512Y76749960D01*
X8000000Y80499998D02*
X7992313Y80400294D01*
X5000000Y80500030D02*
X5007687Y80400326D01*
X7992313Y80400294D02*
X7976985Y80301476D01*
X5007687Y80400326D02*
X5023015Y80301508D01*
X7976985Y80301476D02*
X7954107Y80204129D01*
X5023015Y80301508D02*
X5045893Y80204161D01*
X7954107Y80204129D02*
X7923814Y80108829D01*
X5045893Y80204161D02*
X5076186Y80108861D01*
X7923814Y80108829D02*
X7886285Y80016139D01*
X5076186Y80108861D02*
X5113715Y80016171D01*
X7886285Y80016139D02*
X7841742Y79926608D01*
X5113715Y80016171D02*
X5158258Y79926640D01*
X7841742Y79926608D02*
X7790449Y79840766D01*
X5158258Y79926640D02*
X5209551Y79840798D01*
X7790449Y79840766D02*
X7732709Y79759121D01*
X5209551Y79840798D02*
X5267291Y79759153D01*
X7732709Y79759121D02*
X7668864Y79682156D01*
X5267291Y79759153D02*
X5331136Y79682188D01*
X7668864Y79682156D02*
X7599292Y79610326D01*
X5331136Y79682188D02*
X5400708Y79610358D01*
X7599292Y79610326D02*
X7524405Y79544056D01*
X5400708Y79610358D02*
X5475595Y79544088D01*
X7524405Y79544056D02*
X7444646Y79483738D01*
X5475595Y79544088D02*
X5555354Y79483770D01*
X7444646Y79483738D02*
X7360487Y79429729D01*
X5555354Y79483770D02*
X5639513Y79429761D01*
X7360487Y79429729D02*
X7272426Y79382349D01*
X5639513Y79429761D02*
X5727574Y79382381D01*
X7272426Y79382349D02*
X7180984Y79341878D01*
X5727574Y79382381D02*
X5819016Y79341910D01*
X7180984Y79341878D02*
X7086702Y79308556D01*
X5819016Y79341910D02*
X5913298Y79308588D01*
X7086702Y79308556D02*
X6990138Y79282580D01*
X5913298Y79308588D02*
X6009862Y79282612D01*
X6990138Y79282580D02*
X6891863Y79264103D01*
X6009862Y79282612D02*
X6108137Y79264135D01*
X6891863Y79264103D02*
X6792458Y79253235D01*
X6108137Y79264135D02*
X6207542Y79253267D01*
X6792458Y79253235D02*
X6692512Y79250040D01*
X6207542Y79253267D02*
X6307488Y79250072D01*
X6307488Y79250072D02*
X6692512Y79250040D01*
X5000000Y32499995D02*
X5000000Y75499932D01*
X5000000Y27500000D02*
X5000000Y5000000D01*
X8000000Y32499998D02*
X8000000Y49500000D01*
X8000000Y27500002D02*
X8000000Y14250000D01*
X8000000Y27500002D02*
X7992313Y27599706D01*
X5000000Y27500000D02*
X5007687Y27599704D01*
X7992313Y27599706D02*
X7976985Y27698524D01*
X5007687Y27599704D02*
X5023015Y27698522D01*
X7976985Y27698524D02*
X7954107Y27795871D01*
X5023015Y27698522D02*
X5045893Y27795869D01*
X7954107Y27795871D02*
X7923814Y27891171D01*
X5045893Y27795869D02*
X5076186Y27891169D01*
X7923814Y27891171D02*
X7886285Y27983861D01*
X5076186Y27891169D02*
X5113715Y27983859D01*
X7886285Y27983861D02*
X7841742Y28073392D01*
X5113715Y27983859D02*
X5158258Y28073390D01*
X7841742Y28073392D02*
X7790449Y28159234D01*
X5158258Y28073390D02*
X5209551Y28159232D01*
X7790449Y28159234D02*
X7732709Y28240879D01*
X5209551Y28159232D02*
X5267291Y28240877D01*
X7732709Y28240879D02*
X7668864Y28317844D01*
X5267291Y28240877D02*
X5331136Y28317842D01*
X7668864Y28317844D02*
X7599292Y28389674D01*
X5331136Y28317842D02*
X5400708Y28389672D01*
X7599292Y28389674D02*
X7524405Y28455944D01*
X5400708Y28389672D02*
X5475595Y28455942D01*
X7524405Y28455944D02*
X7444646Y28516262D01*
X5475595Y28455942D02*
X5555354Y28516260D01*
X7444646Y28516262D02*
X7360487Y28570271D01*
X5555354Y28516260D02*
X5639513Y28570269D01*
X7360487Y28570271D02*
X7272426Y28617651D01*
X5639513Y28570269D02*
X5727574Y28617649D01*
X7272426Y28617651D02*
X7180984Y28658122D01*
X5727574Y28617649D02*
X5819016Y28658120D01*
X7180984Y28658122D02*
X7086702Y28691444D01*
X5819016Y28658120D02*
X5913298Y28691442D01*
X7086702Y28691444D02*
X6990138Y28717420D01*
X5913298Y28691442D02*
X6009862Y28717418D01*
X6990138Y28717420D02*
X6891863Y28735897D01*
X6009862Y28717418D02*
X6108137Y28735895D01*
X6891863Y28735897D02*
X6792458Y28746765D01*
X6108137Y28735895D02*
X6207542Y28746763D01*
X6792458Y28746765D02*
X6692512Y28749960D01*
X6207542Y28746763D02*
X6307488Y28749958D01*
X6307488Y28749958D02*
X6692512Y28749960D01*
X5000000Y32499995D02*
X5007687Y32400291D01*
X8000000Y32499998D02*
X7992313Y32400294D01*
X5007687Y32400291D02*
X5023015Y32301473D01*
X7992313Y32400294D02*
X7976985Y32301476D01*
X5023015Y32301473D02*
X5045893Y32204126D01*
X7976985Y32301476D02*
X7954107Y32204129D01*
X5045893Y32204126D02*
X5076186Y32108826D01*
X7954107Y32204129D02*
X7923814Y32108829D01*
X5076186Y32108826D02*
X5113715Y32016136D01*
X7923814Y32108829D02*
X7886285Y32016139D01*
X5113715Y32016136D02*
X5158258Y31926605D01*
X7886285Y32016139D02*
X7841742Y31926608D01*
X5158258Y31926605D02*
X5209551Y31840763D01*
X7841742Y31926608D02*
X7790449Y31840766D01*
X5209551Y31840763D02*
X5267291Y31759118D01*
X7790449Y31840766D02*
X7732709Y31759121D01*
X5267291Y31759118D02*
X5331136Y31682153D01*
X7732709Y31759121D02*
X7668864Y31682156D01*
X5331136Y31682153D02*
X5400708Y31610323D01*
X7668864Y31682156D02*
X7599292Y31610326D01*
X5400708Y31610323D02*
X5475595Y31544053D01*
X7599292Y31610326D02*
X7524405Y31544056D01*
X5475595Y31544053D02*
X5555354Y31483735D01*
X7524405Y31544056D02*
X7444646Y31483738D01*
X5555354Y31483735D02*
X5639513Y31429726D01*
X7444646Y31483738D02*
X7360487Y31429729D01*
X5639513Y31429726D02*
X5727574Y31382346D01*
X7360487Y31429729D02*
X7272426Y31382349D01*
X5727574Y31382346D02*
X5819016Y31341875D01*
X7272426Y31382349D02*
X7180984Y31341878D01*
X5819016Y31341875D02*
X5913298Y31308553D01*
X7180984Y31341878D02*
X7086702Y31308556D01*
X5913298Y31308553D02*
X6009862Y31282577D01*
X7086702Y31308556D02*
X6990138Y31282580D01*
X6009862Y31282577D02*
X6108137Y31264100D01*
X6990138Y31282580D02*
X6891863Y31264103D01*
X6108137Y31264100D02*
X6207542Y31253232D01*
X6891863Y31264103D02*
X6792458Y31253235D01*
X6207542Y31253232D02*
X6307488Y31250037D01*
X6792458Y31253235D02*
X6692512Y31250040D01*
X6307488Y31250037D02*
X6692512Y31250040D01*
M02*
